ISO-10303-21;
HEADER;
FILE_DESCRIPTION(('ViewDefinition[AISC_Steel_Detailing]', 'Option [BaseQuantities:Off]', 'Option [GridExport:On]', 'Option [Assemblies:Off]', 'Option [Bolts:On]', 'Option [Rebars:On]', 'Option [PourObjects:Off]', 'Option [Welds:On]', 'Option [SurfaceTreatments:On]', 'Option [LocationBy:0]', 'Option [ViewColors:Off]', 'Option [SectionedSpine:Off]', 'Option [PropertySets:On]', 'Option [Export all:Off]'),'2;1');
FILE_NAME('1048_Qty_8.ifc','2026-05-16T11:52:52',('GIOVANNIPC\\gcorrea'),('Structural Designer'),'IFC Database version: Work','Tekla Structures 2020 Service Pack 5, IFC Export Version: 4.0.0.0 Dec  7 2020','');
FILE_SCHEMA(('IFC2X3'));
ENDSEC;

DATA;
#1= IFCPERSON('GIOVANNIPC\\gcorrea','Undefined',$,$,$,$,$,$);
#2= IFCORGANIZATION($,'Trimble Solutions Corporation',$,$,$);
#3= IFCPERSONANDORGANIZATION(#1,#2,$);
#4= IFCAPPLICATION(#2,'2020 Service Pack 5','Tekla Structures','Multi material modeling');
#5= IFCOWNERHISTORY(#3,#4,$,.NOCHANGE.,$,$,$,1778950372);
#6= IFCCARTESIANPOINT((0.,0.,0.));
#7= IFCDIRECTION((1.,0.,0.));
#8= IFCDIRECTION((0.,1.,0.));
#9= IFCDIRECTION((0.,0.,1.));
#10= IFCAXIS2PLACEMENT3D(#6,#9,#7);
#11= IFCGEOMETRICREPRESENTATIONCONTEXT($,'Model',3,1.E-05,#10,$);
#12= IFCGEOMETRICREPRESENTATIONSUBCONTEXT('Body','Model',*,*,*,*,#11,$,.MODEL_VIEW.,$);
#13= IFCGEOMETRICREPRESENTATIONSUBCONTEXT('Axis','Model',*,*,*,*,#11,$,.GRAPH_VIEW.,$);
#14= IFCGEOMETRICREPRESENTATIONSUBCONTEXT('FootPrint','Model',*,*,*,*,#11,$,.MODEL_VIEW.,$);
#15= IFCSIUNIT(*,.LENGTHUNIT.,.MILLI.,.METRE.);
#16= IFCMEASUREWITHUNIT(IFCRATIOMEASURE(304.8),#15);
#17= IFCDIMENSIONALEXPONENTS(1,0,0,0,0,0,0);
#18= IFCCONVERSIONBASEDUNIT(#17,.LENGTHUNIT.,'FOOT',#16);
#19= IFCSIUNIT(*,.AREAUNIT.,$,.SQUARE_METRE.);
#20= IFCMEASUREWITHUNIT(IFCRATIOMEASURE(0.09290304),#19);
#21= IFCDIMENSIONALEXPONENTS(2,0,0,0,0,0,0);
#22= IFCCONVERSIONBASEDUNIT(#21,.AREAUNIT.,'SQUARE FOOT',#20);
#23= IFCSIUNIT(*,.VOLUMEUNIT.,$,.CUBIC_METRE.);
#24= IFCMEASUREWITHUNIT(IFCRATIOMEASURE(0.028316846592),#23);
#25= IFCDIMENSIONALEXPONENTS(3,0,0,0,0,0,0);
#26= IFCCONVERSIONBASEDUNIT(#25,.VOLUMEUNIT.,'CUBIC FOOT',#24);
#27= IFCSIUNIT(*,.MASSUNIT.,.KILO.,.GRAM.);
#28= IFCSIUNIT(*,.TIMEUNIT.,$,.SECOND.);
#29= IFCSIUNIT(*,.PLANEANGLEUNIT.,$,.RADIAN.);
#30= IFCMEASUREWITHUNIT(IFCRATIOMEASURE(0.0174532925199433),#29);
#31= IFCDIMENSIONALEXPONENTS(0,0,0,0,0,0,0);
#32= IFCCONVERSIONBASEDUNIT(#31,.PLANEANGLEUNIT.,'DEGREE',#30);
#33= IFCSIUNIT(*,.SOLIDANGLEUNIT.,$,.STERADIAN.);
#34= IFCSIUNIT(*,.THERMODYNAMICTEMPERATUREUNIT.,$,.DEGREE_CELSIUS.);
#35= IFCSIUNIT(*,.LUMINOUSINTENSITYUNIT.,$,.LUMEN.);
#36= IFCUNITASSIGNMENT((#15,#19,#23,#27,#28,#29,#33,#34,#35));
#37= IFCPROJECT('2G7ZFDNE16yBDU14FA92Me',#5,'Proyecto',$,$,$,$,(#11),#36);
#38= IFCLOCALPLACEMENT($,#10);
#39= IFCSITE('2xvEzEinjBTea80yOTcujY',#5,'Obra',$,$,#38,$,$,.ELEMENT.,$,$,$,$,$);
#40= IFCLOCALPLACEMENT(#38,#10);
#41= IFCBUILDING('0zTtkexWXAcOE$NkpVImcx',#5,'Undefined',$,$,#40,$,$,.ELEMENT.,$,$,$);
#42= IFCLOCALPLACEMENT(#40,#10);
#43= IFCBUILDINGSTOREY('29hdEUCErFze9E_VIAceOd',#5,'Undefined',$,$,#42,$,$,.ELEMENT.,0.);
#44= IFCOWNERHISTORY(#3,#4,$,.NOCHANGE.,$,$,$,1775505600);
#45= IFCCARTESIANPOINT((81076.9214168199,17479.872196186,28309.5));
#46= IFCDIRECTION((0.,-1.,0.));
#47= IFCAXIS2PLACEMENT3D(#45,#9,#46);
#48= IFCLOCALPLACEMENT(#42,#47);
#49= IFCCARTESIANPOINT((0.,0.));
#50= IFCCARTESIANPOINT((200.,0.));
#51= IFCCARTESIANPOINT((328.886627197266,723.26904296875));
#52= IFCCARTESIANPOINT((200.863876342773,1446.0537109375));
#53= IFCCARTESIANPOINT((0.886617660522461,1446.03942871094));
#54= IFCCARTESIANPOINT((-127.113380432129,723.039428710938));
#55= IFCPOLYLINE((#49,#50,#51,#52,#53,#54,#49));
#56= IFCARBITRARYCLOSEDPROFILEDEF(.AREA.,'PL19*450',#55);
#57= IFCCARTESIANPOINT((0.,0.,-9.5));
#58= IFCAXIS2PLACEMENT3D(#57,#9,#7);
#59= IFCEXTRUDEDAREASOLID(#56,#58,#9,19.);
#60= IFCSHAPEREPRESENTATION(#12,'Body','SweptSolid',(#59));
#61= IFCPRODUCTDEFINITIONSHAPE($,$,(#60));
#62= IFCPLATE('0YV6w5Si55i9CtBUq1UzMl',#44,'PLATE','PL19*450','PL19*450',#48,#61,'ID227c6e85-72c1-45b0-9337-2ded017bd5af');
#63= IFCLOCALPLACEMENT(#42,#47);
#64= IFCDIRECTION((1.,0.));
#65= IFCAXIS2PLACEMENT2D(#49,#64);
#66= IFCCIRCLEPROFILEDEF(.AREA.,'\S\X412*25',#65,206.);
#67= IFCDIRECTION((0.,0.,-1.));
#68= IFCCARTESIANPOINT((100.886617905668,723.039456677114,1090.5));
#69= IFCAXIS2PLACEMENT3D(#68,#67,#46);
#70= IFCEXTRUDEDAREASOLID(#66,#69,#9,3000.);
#71= IFCSHAPEREPRESENTATION(#12,'Body','SweptSolid',(#70));
#72= IFCPRODUCTDEFINITIONSHAPE($,$,(#71));
#73= IFCOPENINGELEMENT('1JVFaprqTBnBj4zUKtdXVN',#5,$,$,'Recess',#63,#72,$);
#74= IFCRELVOIDSELEMENT('1ATk3AIvnA4OnXidUN0y8L',#5,$,$,#62,#73);
#75= IFCPROPERTYSINGLEVALUE('FeatureSubTypes',$,$,$);
#76= IFCPROPERTYSINGLEVALUE('RectangleOpeningWidth',$,$,$);
#77= IFCPROPERTYSINGLEVALUE('RectangleOpeningHeight',$,$,$);
#78= IFCPROPERTYSINGLEVALUE('OpeningDiameter',$,IFCPOSITIVELENGTHMEASURE(412.),$);
#79= IFCPROPERTYSET('17ueF9V$HBqxqwRTbV9zin',#5,'AISC_EM11_Pset_Opening/Cope',$,(#75,#76,#77,#78));
#80= IFCCARTESIANPOINT((82062.9257984721,17379.2926731293,28300.));
#81= IFCDIRECTION((-0.000467666999829816,0.999999890643783,0.));
#82= IFCDIRECTION((0.999999890643783,0.000467666999835253,0.));
#83= IFCAXIS2PLACEMENT3D(#80,#81,#82);
#84= IFCLOCALPLACEMENT(#42,#83);
#85= IFCCIRCLEPROFILEDEF(.AREA.,$,#65,11.5);
#86= IFCCARTESIANPOINT((0.,-19.1,0.));
#87= IFCAXIS2PLACEMENT3D(#86,#8,#7);
#88= IFCEXTRUDEDAREASOLID(#85,#87,#9,19.2);
#89= IFCSHAPEREPRESENTATION(#12,'Body','SweptSolid',(#88));
#90= IFCREPRESENTATIONMAP(#10,#89);
#91= IFCCARTESIANPOINT((-3.63797880709171E-10,0.,-49.9999999998581));
#92= IFCCARTESIANTRANSFORMATIONOPERATOR3D($,$,#91,$,$);
#93= IFCMAPPEDITEM(#90,#92);
#94= IFCCARTESIANPOINT((69.9999999994325,0.,-50.0000000008768));
#95= IFCCARTESIANTRANSFORMATIONOPERATOR3D($,$,#94,$,$);
#96= IFCMAPPEDITEM(#90,#95);
#97= IFCCARTESIANPOINT((139.999999999229,0.,-50.0000000018954));
#98= IFCCARTESIANTRANSFORMATIONOPERATOR3D($,$,#97,$,$);
#99= IFCMAPPEDITEM(#90,#98);
#100= IFCCARTESIANPOINT((209.99999999904,0.,-50.0000000029104));
#101= IFCCARTESIANTRANSFORMATIONOPERATOR3D($,$,#100,$,$);
#102= IFCMAPPEDITEM(#90,#101);
#103= IFCCARTESIANPOINT((279.999999998836,0.,-50.000000003929));
#104= IFCCARTESIANTRANSFORMATIONOPERATOR3D($,$,#103,$,$);
#105= IFCMAPPEDITEM(#90,#104);
#106= IFCCARTESIANPOINT((349.999999998632,0.,-50.0000000049477));
#107= IFCCARTESIANTRANSFORMATIONOPERATOR3D($,$,#106,$,$);
#108= IFCMAPPEDITEM(#90,#107);
#109= IFCCARTESIANPOINT((419.999999998428,0.,-50.0000000059663));
#110= IFCCARTESIANTRANSFORMATIONOPERATOR3D($,$,#109,$,$);
#111= IFCMAPPEDITEM(#90,#110);
#112= IFCCARTESIANPOINT((3.49245965480804E-10,0.,49.9999999998581));
#113= IFCCARTESIANTRANSFORMATIONOPERATOR3D($,$,#112,$,$);
#114= IFCMAPPEDITEM(#90,#113);
#115= IFCCARTESIANPOINT((70.0000000001601,0.,49.9999999988395));
#116= IFCCARTESIANTRANSFORMATIONOPERATOR3D($,$,#115,$,$);
#117= IFCMAPPEDITEM(#90,#116);
#118= IFCCARTESIANPOINT((139.999999999956,0.,49.9999999978209));
#119= IFCCARTESIANTRANSFORMATIONOPERATOR3D($,$,#118,$,$);
#120= IFCMAPPEDITEM(#90,#119);
#121= IFCCARTESIANPOINT((209.999999999767,0.,49.9999999968022));
#122= IFCCARTESIANTRANSFORMATIONOPERATOR3D($,$,#121,$,$);
#123= IFCMAPPEDITEM(#90,#122);
#124= IFCCARTESIANPOINT((279.999999999563,0.,49.9999999957836));
#125= IFCCARTESIANTRANSFORMATIONOPERATOR3D($,$,#124,$,$);
#126= IFCMAPPEDITEM(#90,#125);
#127= IFCCARTESIANPOINT((349.999999999374,0.,49.9999999947649));
#128= IFCCARTESIANTRANSFORMATIONOPERATOR3D($,$,#127,$,$);
#129= IFCMAPPEDITEM(#90,#128);
#130= IFCCARTESIANPOINT((419.999999999171,0.,49.9999999937463));
#131= IFCCARTESIANTRANSFORMATIONOPERATOR3D($,$,#130,$,$);
#132= IFCMAPPEDITEM(#90,#131);
#133= IFCSHAPEREPRESENTATION(#12,'Body','MappedRepresentation',(#93,#96,#99,#102,#105,#108,#111,#114,#117,#120,#123,#126,#129,#132));
#134= IFCPRODUCTDEFINITIONSHAPE($,$,(#133));
#135= IFCOPENINGELEMENT('0J05hFM5n8UQgFufws4fOy',#5,$,$,'Opening',#84,#134,$);
#136= IFCRELVOIDSELEMENT('3GhP6vfMLAr9dm7JogBYp5',#5,'Drill Hole',$,#62,#135);
#137= IFCPROPERTYSINGLEVALUE('FeatureSubTypes',$,IFCLABEL('TORNILLO'),$);
#138= IFCPROPERTYSINGLEVALUE('OpeningDiameter',$,$,$);
#139= IFCPROPERTYSET('3WoVGHHvP3SBYryhTNI1aR',#5,'AISC_EM11_Pset_Opening/Cope',$,(#137,#76,#77,#138));
#140= IFCCARTESIANPOINT((81116.8628961181,17379.9072438466,28300.));
#141= IFCAXIS2PLACEMENT3D(#140,#81,#82);
#142= IFCLOCALPLACEMENT(#42,#141);
#143= IFCSHAPEREPRESENTATION(#12,'Body','MappedRepresentation',(#93,#96,#99,#102,#105,#108,#111,#114,#117,#120,#123,#126,#129,#132));
#144= IFCPRODUCTDEFINITIONSHAPE($,$,(#143));
#145= IFCOPENINGELEMENT('3YdLkIpl53nOeMyqwqcmRR',#5,$,$,'Opening',#142,#144,$);
#146= IFCRELVOIDSELEMENT('3hwMFJlfXAEA2J5ezjGQig',#5,'Drill Hole',$,#62,#145);
#147= IFCPROPERTYSINGLEVALUE('PieceMark',$,IFCIDENTIFIER('PLATE'),$);
#148= IFCPROPERTYSINGLEVALUE('IndicationMark',$,IFCIDENTIFIER('1048'),$);
#149= IFCPROPERTYSINGLEVALUE('PrelimMark',$,IFCIDENTIFIER(''),$);
#150= IFCPROPERTYSINGLEVALUE('MainPieceTag',$,IFCBOOLEAN(.T.),$);
#151= IFCPROPERTYSET('35cE33ghfAUft_LN7YeydY',#5,'AISC_EM11_Pset_PieceIdentification','PieceIdentity',(#147,#148,#149,#150));
#152= IFCPROPERTYSINGLEVALUE('MaterialType',$,IFCIDENTIFIER('STEEL'),$);
#153= IFCPROPERTYSINGLEVALUE('MaterialGrade',$,IFCIDENTIFIER('S235JR'),$);
#154= IFCPROPERTYSET('0ANIFvptD3JA8Ge6ZTGawk',#5,'AISC_EM11_Pset_Material',$,(#152,#153));
#155= IFCMATERIAL('STEEL/S235JR');
#156= IFCRELAGGREGATES('1P8oe6$CDF3OL9WwVdCXTZ',#5,$,$,#37,(#39));
#157= IFCRELAGGREGATES('2hQ4wOHUVXLgdRoCnvUplr',#5,$,$,#39,(#41));
#158= IFCRELAGGREGATES('3qljjLDYP2yxMV4N0dCKqk',#5,$,$,#41,(#43));
#159= IFCRELCONTAINEDINSPATIALSTRUCTURE('1kMuYUv2LBzxME4pN6PQnm',#5,$,$,(#62),#43);
#160= IFCRELDEFINESBYPROPERTIES('28YudHhtbF3gROPTNACxGH',#5,$,$,(#73),#79);
#161= IFCRELDEFINESBYPROPERTIES('0sCd6HCPD9gAX6XTd1W_1C',#5,$,$,(#145,#135),#139);
#162= IFCRELDEFINESBYPROPERTIES('2FvfSdP0z2Lg75fcOSPUxt',#5,$,$,(#62),#151);
#163= IFCRELDEFINESBYPROPERTIES('1G4v_p6cL97BaTgxhiPlw_',#5,$,$,(#62),#154);
#164= IFCRELASSOCIATESMATERIAL('3rujNpqj15RgcYB0EjQU0p',#5,$,$,(#62),#155);
ENDSEC;

END-ISO-10303-21;
