ISO-10303-21;
HEADER;
FILE_DESCRIPTION(('ViewDefinition[AISC_Steel_Detailing]', 'Option [BaseQuantities:Off]', 'Option [GridExport:On]', 'Option [Assemblies:Off]', 'Option [Bolts:On]', 'Option [Rebars:On]', 'Option [PourObjects:Off]', 'Option [Welds:On]', 'Option [SurfaceTreatments:On]', 'Option [LocationBy:0]', 'Option [ViewColors:Off]', 'Option [SectionedSpine:Off]', 'Option [PropertySets:On]', 'Option [Export all:Off]'),'2;1');
FILE_NAME('1100_Qty_2.ifc','2026-05-16T11:52:58',('GIOVANNIPC\\gcorrea'),('Structural Designer'),'IFC Database version: Work','Tekla Structures 2020 Service Pack 5, IFC Export Version: 4.0.0.0 Dec  7 2020','');
FILE_SCHEMA(('IFC2X3'));
ENDSEC;

DATA;
#1= IFCPERSON('GIOVANNIPC\\gcorrea','Undefined',$,$,$,$,$,$);
#2= IFCORGANIZATION($,'Trimble Solutions Corporation',$,$,$);
#3= IFCPERSONANDORGANIZATION(#1,#2,$);
#4= IFCAPPLICATION(#2,'2020 Service Pack 5','Tekla Structures','Multi material modeling');
#5= IFCOWNERHISTORY(#3,#4,$,.NOCHANGE.,$,$,$,1778950378);
#6= IFCCARTESIANPOINT((0.,0.,0.));
#7= IFCDIRECTION((1.,0.,0.));
#8= IFCDIRECTION((0.,1.,0.));
#9= IFCDIRECTION((0.,0.,1.));
#10= IFCAXIS2PLACEMENT3D(#6,#9,#7);
#11= IFCGEOMETRICREPRESENTATIONCONTEXT($,'Model',3,1.E-05,#10,$);
#12= IFCGEOMETRICREPRESENTATIONSUBCONTEXT('Body','Model',*,*,*,*,#11,$,.MODEL_VIEW.,$);
#13= IFCGEOMETRICREPRESENTATIONSUBCONTEXT('Axis','Model',*,*,*,*,#11,$,.GRAPH_VIEW.,$);
#14= IFCGEOMETRICREPRESENTATIONSUBCONTEXT('FootPrint','Model',*,*,*,*,#11,$,.MODEL_VIEW.,$);
#15= IFCSIUNIT(*,.LENGTHUNIT.,.MILLI.,.METRE.);
#16= IFCMEASUREWITHUNIT(IFCRATIOMEASURE(304.8),#15);
#17= IFCDIMENSIONALEXPONENTS(1,0,0,0,0,0,0);
#18= IFCCONVERSIONBASEDUNIT(#17,.LENGTHUNIT.,'FOOT',#16);
#19= IFCSIUNIT(*,.AREAUNIT.,$,.SQUARE_METRE.);
#20= IFCMEASUREWITHUNIT(IFCRATIOMEASURE(0.09290304),#19);
#21= IFCDIMENSIONALEXPONENTS(2,0,0,0,0,0,0);
#22= IFCCONVERSIONBASEDUNIT(#21,.AREAUNIT.,'SQUARE FOOT',#20);
#23= IFCSIUNIT(*,.VOLUMEUNIT.,$,.CUBIC_METRE.);
#24= IFCMEASUREWITHUNIT(IFCRATIOMEASURE(0.028316846592),#23);
#25= IFCDIMENSIONALEXPONENTS(3,0,0,0,0,0,0);
#26= IFCCONVERSIONBASEDUNIT(#25,.VOLUMEUNIT.,'CUBIC FOOT',#24);
#27= IFCSIUNIT(*,.MASSUNIT.,.KILO.,.GRAM.);
#28= IFCSIUNIT(*,.TIMEUNIT.,$,.SECOND.);
#29= IFCSIUNIT(*,.PLANEANGLEUNIT.,$,.RADIAN.);
#30= IFCMEASUREWITHUNIT(IFCRATIOMEASURE(0.0174532925199433),#29);
#31= IFCDIMENSIONALEXPONENTS(0,0,0,0,0,0,0);
#32= IFCCONVERSIONBASEDUNIT(#31,.PLANEANGLEUNIT.,'DEGREE',#30);
#33= IFCSIUNIT(*,.SOLIDANGLEUNIT.,$,.STERADIAN.);
#34= IFCSIUNIT(*,.THERMODYNAMICTEMPERATUREUNIT.,$,.DEGREE_CELSIUS.);
#35= IFCSIUNIT(*,.LUMINOUSINTENSITYUNIT.,$,.LUMEN.);
#36= IFCUNITASSIGNMENT((#15,#19,#23,#27,#28,#29,#33,#34,#35));
#37= IFCPROJECT('2G7ZFDNE16yBDU14FA92Me',#5,'Proyecto',$,$,$,$,(#11),#36);
#38= IFCLOCALPLACEMENT($,#10);
#39= IFCSITE('2xvEzEinjBTea80yOTcujY',#5,'Obra',$,$,#38,$,$,.ELEMENT.,$,$,$,$,$);
#40= IFCLOCALPLACEMENT(#38,#10);
#41= IFCBUILDING('2qOEeaXe18APJ8tMTtowpw',#5,'Undefined',$,$,#40,$,$,.ELEMENT.,$,$,$);
#42= IFCLOCALPLACEMENT(#40,#10);
#43= IFCBUILDINGSTOREY('29hdEUCErFze9E_VIAceOd',#5,'Undefined',$,$,#42,$,$,.ELEMENT.,0.);
#44= IFCOWNERHISTORY(#3,#4,$,.NOCHANGE.,$,$,$,1772643600);
#45= IFCCARTESIANPOINT((67276.9857819189,1704.73626776762,13909.5));
#46= IFCDIRECTION((7.14190000195019E-05,-0.999999997449663,0.));
#47= IFCAXIS2PLACEMENT3D(#45,#9,#46);
#48= IFCLOCALPLACEMENT(#42,#47);
#49= IFCCARTESIANPOINT((0.,0.));
#50= IFCCARTESIANPOINT((199.977264404297,-8.73114913702011E-10));
#51= IFCCARTESIANPOINT((328.028900146484,722.990783695335));
#52= IFCCARTESIANPOINT((225.985717773438,1705.89929200396));
#53= IFCCARTESIANPOINT((-24.0142879486079,1705.91711427072));
#54= IFCCARTESIANPOINT((-92.0299292306453,1062.85762787692));
#55= IFCPOLYLINE((#49,#50,#51,#52,#53,#54));
#56= IFCCOMPOSITECURVESEGMENT(.CONTINUOUS.,.T.,#55);
#57= IFCDIRECTION((0.994455828194384,-0.105155150944793));
#58= IFCCARTESIANPOINT((-290.921094885191,1083.88865806753));
#59= IFCAXIS2PLACEMENT2D(#58,#57);
#60= IFCCIRCLE(#59,200.);
#61= IFCTRIMMEDCURVE(#60,(IFCPARAMETERVALUE(0.)),(IFCPARAMETERVALUE(4.99169329128166)),.F.,.PARAMETER.);
#62= IFCCOMPOSITECURVESEGMENT(.CONTINUOUS.,.T.,#61);
#63= IFCCARTESIANPOINT((-256.305413316694,886.907048276542));
#64= IFCCARTESIANPOINT((-621.533752441405,822.725280770712));
#65= IFCCARTESIANPOINT((-621.548034667968,622.725280769213));
#66= IFCCARTESIANPOINT((-231.076326162353,553.105300129357));
#67= IFCPOLYLINE((#63,#64,#65,#66));
#68= IFCCOMPOSITECURVESEGMENT(.CONTINUOUS.,.T.,#67);
#69= IFCDIRECTION((0.175506713331352,0.984478234180739));
#70= IFCCARTESIANPOINT((-266.17766883083,356.20965328083));
#71= IFCAXIS2PLACEMENT2D(#70,#69);
#72= IFCCIRCLE(#71,200.);
#73= IFCTRIMMEDCURVE(#72,(IFCPARAMETERVALUE(0.)),(IFCPARAMETERVALUE(5.06404414590567)),.F.,.PARAMETER.);
#74= IFCCOMPOSITECURVESEGMENT(.CONTINUOUS.,.T.,#73);
#75= IFCCARTESIANPOINT((-69.2405397435542,391.077506554174));
#76= IFCPOLYLINE((#75,#49));
#77= IFCCOMPOSITECURVESEGMENT(.CONTINUOUS.,.T.,#76);
#78= IFCCOMPOSITECURVE((#56,#62,#68,#74,#77),.T.);
#79= IFCARBITRARYCLOSEDPROFILEDEF(.AREA.,'PL19*952',#78);
#80= IFCCARTESIANPOINT((-2.27373675443232E-13,0.,-9.5));
#81= IFCAXIS2PLACEMENT3D(#80,#9,#7);
#82= IFCEXTRUDEDAREASOLID(#79,#81,#9,19.);
#83= IFCSHAPEREPRESENTATION(#12,'Body','SweptSolid',(#82));
#84= IFCPRODUCTDEFINITIONSHAPE($,$,(#83));
#85= IFCPLATE('1QZYZiIsL4MwwsBoRam5O4',#44,'PLATE','PL19*952','PL19*952',#48,#84,'ID5a8e28ec-4b65-445b-aeb6-2f26e4c05604');
#86= IFCLOCALPLACEMENT(#42,#47);
#87= IFCDIRECTION((1.,0.));
#88= IFCAXIS2PLACEMENT2D(#49,#87);
#89= IFCCIRCLEPROFILEDEF(.AREA.,'\S\X416*1',#88,208.);
#90= IFCDIRECTION((-7.14190000195019E-05,-0.999999997449663,0.));
#91= IFCDIRECTION((0.,0.,-1.));
#92= IFCCARTESIANPOINT((101.498574932546,723.006970998278,9690.5));
#93= IFCAXIS2PLACEMENT3D(#92,#91,#90);
#94= IFCEXTRUDEDAREASOLID(#89,#93,#9,15184.);
#95= IFCCARTESIANPOINT((309.498574402076,722.992115846268,-5493.5));
#96= IFCAXIS2PLACEMENT3D(#95,#9,#90);
#97= IFCPLANE(#96);
#98= IFCHALFSPACESOLID(#97,.T.);
#99= IFCBOOLEANCLIPPINGRESULT(.DIFFERENCE.,#94,#98);
#100= IFCSHAPEREPRESENTATION(#12,'Body','Clipping',(#99));
#101= IFCPRODUCTDEFINITIONSHAPE($,$,(#100));
#102= IFCOPENINGELEMENT('2ioXFyafz7XfTrYuSY5fxj',#5,$,$,'Recess',#86,#101,$);
#103= IFCRELVOIDSELEMENT('0nCJWZfM55rBt2$PWCezDH',#5,$,$,#85,#102);
#104= IFCPROPERTYSINGLEVALUE('FeatureSubTypes',$,$,$);
#105= IFCPROPERTYSINGLEVALUE('RectangleOpeningWidth',$,$,$);
#106= IFCPROPERTYSINGLEVALUE('RectangleOpeningHeight',$,$,$);
#107= IFCPROPERTYSINGLEVALUE('OpeningDiameter',$,IFCPOSITIVELENGTHMEASURE(416.),$);
#108= IFCPROPERTYSET('1yds4egST5aPNDaMFLTx3D',#5,'AISC_EM11_Pset_Opening/Cope',$,(#104,#105,#106,#107));
#109= IFCCARTESIANPOINT((68000.,1864.77194695638,13900.));
#110= IFCDIRECTION((0.999999779160706,0.000664589000114805,0.));
#111= IFCDIRECTION((-0.000664589000114698,0.999999779160706,0.));
#112= IFCAXIS2PLACEMENT3D(#109,#110,#111);
#113= IFCLOCALPLACEMENT(#42,#112);
#114= IFCCIRCLEPROFILEDEF(.AREA.,$,#88,11.5);
#115= IFCCARTESIANPOINT((0.,-0.100000000000149,0.));
#116= IFCAXIS2PLACEMENT3D(#115,#8,#7);
#117= IFCEXTRUDEDAREASOLID(#114,#116,#9,19.2);
#118= IFCSHAPEREPRESENTATION(#12,'Body','SweptSolid',(#117));
#119= IFCREPRESENTATIONMAP(#10,#118);
#120= IFCCARTESIANPOINT((-2.27373675443232E-13,0.,-49.9999999999418));
#121= IFCCARTESIANTRANSFORMATIONOPERATOR3D($,$,#120,$,$);
#122= IFCMAPPEDITEM(#119,#121);
#123= IFCCARTESIANPOINT((70.000000000015,0.,-49.9999999996071));
#124= IFCCARTESIANTRANSFORMATIONOPERATOR3D($,$,#123,$,$);
#125= IFCMAPPEDITEM(#119,#124);
#126= IFCCARTESIANPOINT((140.00000000003,0.,-49.9999999992724));
#127= IFCCARTESIANTRANSFORMATIONOPERATOR3D($,$,#126,$,$);
#128= IFCMAPPEDITEM(#119,#127);
#129= IFCCARTESIANPOINT((210.000000000045,0.,-49.9999999989377));
#130= IFCCARTESIANTRANSFORMATIONOPERATOR3D($,$,#129,$,$);
#131= IFCMAPPEDITEM(#119,#130);
#132= IFCCARTESIANPOINT((280.00000000006,0.,-49.999999998603));
#133= IFCCARTESIANTRANSFORMATIONOPERATOR3D($,$,#132,$,$);
#134= IFCMAPPEDITEM(#119,#133);
#135= IFCCARTESIANPOINT((350.000000000075,0.,-49.9999999982683));
#136= IFCCARTESIANTRANSFORMATIONOPERATOR3D($,$,#135,$,$);
#137= IFCMAPPEDITEM(#119,#136);
#138= IFCCARTESIANPOINT((420.00000000009,0.,-49.9999999979336));
#139= IFCCARTESIANTRANSFORMATIONOPERATOR3D($,$,#138,$,$);
#140= IFCMAPPEDITEM(#119,#139);
#141= IFCCARTESIANPOINT((2.27373675443232E-13,0.,49.9999999999418));
#142= IFCCARTESIANTRANSFORMATIONOPERATOR3D($,$,#141,$,$);
#143= IFCMAPPEDITEM(#119,#142);
#144= IFCCARTESIANPOINT((70.0000000000152,0.,50.0000000002765));
#145= IFCCARTESIANTRANSFORMATIONOPERATOR3D($,$,#144,$,$);
#146= IFCMAPPEDITEM(#119,#145);
#147= IFCCARTESIANPOINT((140.00000000003,0.,50.0000000006112));
#148= IFCCARTESIANTRANSFORMATIONOPERATOR3D($,$,#147,$,$);
#149= IFCMAPPEDITEM(#119,#148);
#150= IFCCARTESIANPOINT((210.000000000045,0.,50.0000000009459));
#151= IFCCARTESIANTRANSFORMATIONOPERATOR3D($,$,#150,$,$);
#152= IFCMAPPEDITEM(#119,#151);
#153= IFCCARTESIANPOINT((280.00000000006,0.,50.0000000012806));
#154= IFCCARTESIANTRANSFORMATIONOPERATOR3D($,$,#153,$,$);
#155= IFCMAPPEDITEM(#119,#154);
#156= IFCCARTESIANPOINT((350.000000000075,0.,50.0000000016153));
#157= IFCCARTESIANTRANSFORMATIONOPERATOR3D($,$,#156,$,$);
#158= IFCMAPPEDITEM(#119,#157);
#159= IFCCARTESIANPOINT((420.00000000009,0.,50.00000000195));
#160= IFCCARTESIANTRANSFORMATIONOPERATOR3D($,$,#159,$,$);
#161= IFCMAPPEDITEM(#119,#160);
#162= IFCSHAPEREPRESENTATION(#12,'Body','MappedRepresentation',(#122,#125,#128,#131,#134,#137,#140,#143,#146,#149,#152,#155,#158,#161));
#163= IFCPRODUCTDEFINITIONSHAPE($,$,(#162));
#164= IFCOPENINGELEMENT('1VJg8xTIDBNx2bR_m1ELby',#5,$,$,'Opening',#113,#163,$);
#165= IFCRELVOIDSELEMENT('3__C_ry55DuxXM1V4Tlfi4',#5,'Drill Hole',$,#85,#164);
#166= IFCPROPERTYSINGLEVALUE('FeatureSubTypes',$,IFCLABEL('TORNILLO'),$);
#167= IFCPROPERTYSINGLEVALUE('OpeningDiameter',$,$,$);
#168= IFCPROPERTYSET('1ktOF9Lsj8Gx3qA7NW8VZn',#5,'AISC_EM11_Pset_Opening/Cope',$,(#166,#105,#106,#167));
#169= IFCCARTESIANPOINT((68267.9011871923,1603.38129698721,13900.));
#170= IFCDIRECTION((0.000646171000145841,-0.999999791231498,0.));
#171= IFCDIRECTION((0.999999791231498,0.000646171000149633,0.));
#172= IFCAXIS2PLACEMENT3D(#169,#170,#171);
#173= IFCLOCALPLACEMENT(#42,#172);
#174= IFCCARTESIANPOINT((1.45519152283669E-11,0.,-74.9999999999857));
#175= IFCCARTESIANTRANSFORMATIONOPERATOR3D($,$,#174,$,$);
#176= IFCMAPPEDITEM(#119,#175);
#177= IFCCARTESIANPOINT((75.0000000010186,0.,-75.0000000000196));
#178= IFCCARTESIANTRANSFORMATIONOPERATOR3D($,$,#177,$,$);
#179= IFCMAPPEDITEM(#119,#178);
#180= IFCCARTESIANPOINT((150.000000002023,0.,-75.0000000000534));
#181= IFCCARTESIANTRANSFORMATIONOPERATOR3D($,$,#180,$,$);
#182= IFCMAPPEDITEM(#119,#181);
#183= IFCCARTESIANPOINT((225.000000003027,0.,-75.0000000000871));
#184= IFCCARTESIANTRANSFORMATIONOPERATOR3D($,$,#183,$,$);
#185= IFCMAPPEDITEM(#119,#184);
#186= IFCCARTESIANPOINT((300.000000004045,0.,-75.000000000121));
#187= IFCCARTESIANTRANSFORMATIONOPERATOR3D($,$,#186,$,$);
#188= IFCMAPPEDITEM(#119,#187);
#189= IFCCARTESIANPOINT((375.00000000505,0.,-75.0000000001546));
#190= IFCCARTESIANTRANSFORMATIONOPERATOR3D($,$,#189,$,$);
#191= IFCMAPPEDITEM(#119,#190);
#192= IFCCARTESIANPOINT((450.000000006054,0.,-75.0000000001885));
#193= IFCCARTESIANTRANSFORMATIONOPERATOR3D($,$,#192,$,$);
#194= IFCMAPPEDITEM(#119,#193);
#195= IFCCARTESIANPOINT((525.000000007058,0.,-75.0000000002221));
#196= IFCCARTESIANTRANSFORMATIONOPERATOR3D($,$,#195,$,$);
#197= IFCMAPPEDITEM(#119,#196);
#198= IFCCARTESIANPOINT((600.000000008091,0.,-75.000000000256));
#199= IFCCARTESIANTRANSFORMATIONOPERATOR3D($,$,#198,$,$);
#200= IFCMAPPEDITEM(#119,#199);
#201= IFCCARTESIANPOINT((675.000000009095,0.,-75.0000000002899));
#202= IFCCARTESIANTRANSFORMATIONOPERATOR3D($,$,#201,$,$);
#203= IFCMAPPEDITEM(#119,#202);
#204= IFCCARTESIANPOINT((-2.91038304567337E-11,0.,74.9999999999857));
#205= IFCCARTESIANTRANSFORMATIONOPERATOR3D($,$,#204,$,$);
#206= IFCMAPPEDITEM(#119,#205);
#207= IFCCARTESIANPOINT((75.0000000009895,0.,74.999999999952));
#208= IFCCARTESIANTRANSFORMATIONOPERATOR3D($,$,#207,$,$);
#209= IFCMAPPEDITEM(#119,#208);
#210= IFCCARTESIANPOINT((150.000000001994,0.,74.9999999999181));
#211= IFCCARTESIANTRANSFORMATIONOPERATOR3D($,$,#210,$,$);
#212= IFCMAPPEDITEM(#119,#211);
#213= IFCCARTESIANPOINT((225.000000002998,0.,74.9999999998845));
#214= IFCCARTESIANTRANSFORMATIONOPERATOR3D($,$,#213,$,$);
#215= IFCMAPPEDITEM(#119,#214);
#216= IFCCARTESIANPOINT((300.000000004002,0.,74.9999999998508));
#217= IFCCARTESIANTRANSFORMATIONOPERATOR3D($,$,#216,$,$);
#218= IFCMAPPEDITEM(#119,#217);
#219= IFCCARTESIANPOINT((375.000000005006,0.,74.999999999817));
#220= IFCCARTESIANTRANSFORMATIONOPERATOR3D($,$,#219,$,$);
#221= IFCMAPPEDITEM(#119,#220);
#222= IFCCARTESIANPOINT((450.000000006024,0.,74.9999999997831));
#223= IFCCARTESIANTRANSFORMATIONOPERATOR3D($,$,#222,$,$);
#224= IFCMAPPEDITEM(#119,#223);
#225= IFCCARTESIANPOINT((525.000000007043,0.,74.9999999997492));
#226= IFCCARTESIANTRANSFORMATIONOPERATOR3D($,$,#225,$,$);
#227= IFCMAPPEDITEM(#119,#226);
#228= IFCCARTESIANPOINT((600.000000008047,0.,74.9999999997156));
#229= IFCCARTESIANTRANSFORMATIONOPERATOR3D($,$,#228,$,$);
#230= IFCMAPPEDITEM(#119,#229);
#231= IFCCARTESIANPOINT((675.000000009051,0.,74.9999999996817));
#232= IFCCARTESIANTRANSFORMATIONOPERATOR3D($,$,#231,$,$);
#233= IFCMAPPEDITEM(#119,#232);
#234= IFCSHAPEREPRESENTATION(#12,'Body','MappedRepresentation',(#176,#179,#182,#185,#188,#191,#194,#197,#200,#203,#206,#209,#212,#215,#218,#221,#224,#227,#230,#233));
#235= IFCPRODUCTDEFINITIONSHAPE($,$,(#234));
#236= IFCOPENINGELEMENT('2E43gLUFv7JhY8uGrCyfO1',#5,$,$,'Opening',#173,#235,$);
#237= IFCRELVOIDSELEMENT('2CM0nG3TX2yBHD8FjniKKb',#5,'Drill Hole',$,#85,#236);
#238= IFCCARTESIANPOINT((67737.614376915,1603.38122277425,13900.));
#239= IFCDIRECTION((-7.14190000289818E-05,0.999999997449663,0.));
#240= IFCDIRECTION((-0.999999997449663,-7.14190000320223E-05,0.));
#241= IFCAXIS2PLACEMENT3D(#238,#239,#240);
#242= IFCLOCALPLACEMENT(#42,#241);
#243= IFCSHAPEREPRESENTATION(#12,'Body','MappedRepresentation',(#122,#125,#128,#131,#134,#137,#140,#143,#146,#149,#152,#155,#158,#161));
#244= IFCPRODUCTDEFINITIONSHAPE($,$,(#243));
#245= IFCOPENINGELEMENT('112qjoMMT8yeAm2IF1dR1e',#5,$,$,'Opening',#242,#244,$);
#246= IFCRELVOIDSELEMENT('3kLK1Bh8v5ju9abL0VpVRg',#5,'Drill Hole',$,#85,#245);
#247= IFCPROPERTYSINGLEVALUE('PieceMark',$,IFCIDENTIFIER('PLATE'),$);
#248= IFCPROPERTYSINGLEVALUE('IndicationMark',$,IFCIDENTIFIER('1100'),$);
#249= IFCPROPERTYSINGLEVALUE('PrelimMark',$,IFCIDENTIFIER(''),$);
#250= IFCPROPERTYSINGLEVALUE('MainPieceTag',$,IFCBOOLEAN(.T.),$);
#251= IFCPROPERTYSET('1Sk1XSyx54qO_EXXWt8Ayr',#5,'AISC_EM11_Pset_PieceIdentification','PieceIdentity',(#247,#248,#249,#250));
#252= IFCPROPERTYSINGLEVALUE('MaterialType',$,IFCIDENTIFIER('STEEL'),$);
#253= IFCPROPERTYSINGLEVALUE('MaterialGrade',$,IFCIDENTIFIER('S235JR'),$);
#254= IFCPROPERTYSET('1_xWN5XjX6PxTkngjGWI2N',#5,'AISC_EM11_Pset_Material',$,(#252,#253));
#255= IFCMATERIAL('STEEL/S235JR');
#256= IFCRELAGGREGATES('1B5Gtg2jHFSeBC_VaPAuXS',#5,$,$,#37,(#39));
#257= IFCRELAGGREGATES('2TNY9yK$ZXkwTUGnshSApk',#5,$,$,#39,(#41));
#258= IFCRELAGGREGATES('2wD84Msm5CIvqJ85LTpSZs',#5,$,$,#41,(#43));
#259= IFCRELCONTAINEDINSPATIALSTRUCTURE('30hHqNNRjFSAuicigRHaUA',#5,$,$,(#85),#43);
#260= IFCRELDEFINESBYPROPERTIES('3_aOdDdef5SQwaZw9Kasv2',#5,$,$,(#102),#108);
#261= IFCRELDEFINESBYPROPERTIES('25wY7Nm1XByxT06RB_j4QR',#5,$,$,(#245,#236,#164),#168);
#262= IFCRELDEFINESBYPROPERTIES('0DCEyuqtjFJxj800frqmi1',#5,$,$,(#85),#251);
#263= IFCRELDEFINESBYPROPERTIES('14HZVHROD4xxSbuER0iKiV',#5,$,$,(#85),#254);
#264= IFCRELASSOCIATESMATERIAL('0lWi7SBe52QBrLmd_FkmYw',#5,$,$,(#85),#255);
ENDSEC;

END-ISO-10303-21;
