ISO-10303-21;
HEADER;
FILE_DESCRIPTION(('ViewDefinition[AISC_Steel_Detailing]', 'Option [BaseQuantities:Off]', 'Option [GridExport:On]', 'Option [Assemblies:Off]', 'Option [Bolts:On]', 'Option [Rebars:On]', 'Option [PourObjects:Off]', 'Option [Welds:On]', 'Option [SurfaceTreatments:On]', 'Option [LocationBy:0]', 'Option [ViewColors:Off]', 'Option [SectionedSpine:Off]', 'Option [PropertySets:On]', 'Option [Export all:Off]'),'2;1');
FILE_NAME('1107_Qty_4.ifc','2026-05-16T11:52:57',('GIOVANNIPC\\gcorrea'),('Structural Designer'),'IFC Database version: Work','Tekla Structures 2020 Service Pack 5, IFC Export Version: 4.0.0.0 Dec  7 2020','');
FILE_SCHEMA(('IFC2X3'));
ENDSEC;

DATA;
#1= IFCPERSON('GIOVANNIPC\\gcorrea','Undefined',$,$,$,$,$,$);
#2= IFCORGANIZATION($,'Trimble Solutions Corporation',$,$,$);
#3= IFCPERSONANDORGANIZATION(#1,#2,$);
#4= IFCAPPLICATION(#2,'2020 Service Pack 5','Tekla Structures','Multi material modeling');
#5= IFCOWNERHISTORY(#3,#4,$,.NOCHANGE.,$,$,$,1778950377);
#6= IFCCARTESIANPOINT((0.,0.,0.));
#7= IFCDIRECTION((1.,0.,0.));
#8= IFCDIRECTION((0.,1.,0.));
#9= IFCDIRECTION((0.,0.,1.));
#10= IFCAXIS2PLACEMENT3D(#6,#9,#7);
#11= IFCGEOMETRICREPRESENTATIONCONTEXT($,'Model',3,1.E-05,#10,$);
#12= IFCGEOMETRICREPRESENTATIONSUBCONTEXT('Body','Model',*,*,*,*,#11,$,.MODEL_VIEW.,$);
#13= IFCGEOMETRICREPRESENTATIONSUBCONTEXT('Axis','Model',*,*,*,*,#11,$,.GRAPH_VIEW.,$);
#14= IFCGEOMETRICREPRESENTATIONSUBCONTEXT('FootPrint','Model',*,*,*,*,#11,$,.MODEL_VIEW.,$);
#15= IFCSIUNIT(*,.LENGTHUNIT.,.MILLI.,.METRE.);
#16= IFCMEASUREWITHUNIT(IFCRATIOMEASURE(304.8),#15);
#17= IFCDIMENSIONALEXPONENTS(1,0,0,0,0,0,0);
#18= IFCCONVERSIONBASEDUNIT(#17,.LENGTHUNIT.,'FOOT',#16);
#19= IFCSIUNIT(*,.AREAUNIT.,$,.SQUARE_METRE.);
#20= IFCMEASUREWITHUNIT(IFCRATIOMEASURE(0.09290304),#19);
#21= IFCDIMENSIONALEXPONENTS(2,0,0,0,0,0,0);
#22= IFCCONVERSIONBASEDUNIT(#21,.AREAUNIT.,'SQUARE FOOT',#20);
#23= IFCSIUNIT(*,.VOLUMEUNIT.,$,.CUBIC_METRE.);
#24= IFCMEASUREWITHUNIT(IFCRATIOMEASURE(0.028316846592),#23);
#25= IFCDIMENSIONALEXPONENTS(3,0,0,0,0,0,0);
#26= IFCCONVERSIONBASEDUNIT(#25,.VOLUMEUNIT.,'CUBIC FOOT',#24);
#27= IFCSIUNIT(*,.MASSUNIT.,.KILO.,.GRAM.);
#28= IFCSIUNIT(*,.TIMEUNIT.,$,.SECOND.);
#29= IFCSIUNIT(*,.PLANEANGLEUNIT.,$,.RADIAN.);
#30= IFCMEASUREWITHUNIT(IFCRATIOMEASURE(0.0174532925199433),#29);
#31= IFCDIMENSIONALEXPONENTS(0,0,0,0,0,0,0);
#32= IFCCONVERSIONBASEDUNIT(#31,.PLANEANGLEUNIT.,'DEGREE',#30);
#33= IFCSIUNIT(*,.SOLIDANGLEUNIT.,$,.STERADIAN.);
#34= IFCSIUNIT(*,.THERMODYNAMICTEMPERATUREUNIT.,$,.DEGREE_CELSIUS.);
#35= IFCSIUNIT(*,.LUMINOUSINTENSITYUNIT.,$,.LUMEN.);
#36= IFCUNITASSIGNMENT((#15,#19,#23,#27,#28,#29,#33,#34,#35));
#37= IFCPROJECT('2G7ZFDNE16yBDU14FA92Me',#5,'Proyecto',$,$,$,$,(#11),#36);
#38= IFCLOCALPLACEMENT($,#10);
#39= IFCSITE('2xvEzEinjBTea80yOTcujY',#5,'Obra',$,$,#38,$,$,.ELEMENT.,$,$,$,$,$);
#40= IFCLOCALPLACEMENT(#38,#10);
#41= IFCBUILDING('27WMb7epbEbBsU0ecpwM31',#5,'Undefined',$,$,#40,$,$,.ELEMENT.,$,$,$);
#42= IFCLOCALPLACEMENT(#40,#10);
#43= IFCBUILDINGSTOREY('29hdEUCErFze9E_VIAceOd',#5,'Undefined',$,$,#42,$,$,.ELEMENT.,0.);
#44= IFCOWNERHISTORY(#3,#4,$,.NOCHANGE.,$,$,$,1774458000);
#45= IFCCARTESIANPOINT((5673.14450024539,23991.4087422731,13909.5));
#46= IFCDIRECTION((-0.00183665600063552,-0.999998313345945,0.));
#47= IFCAXIS2PLACEMENT3D(#45,#9,#46);
#48= IFCLOCALPLACEMENT(#42,#47);
#49= IFCCARTESIANPOINT((0.,0.));
#50= IFCCARTESIANPOINT((700.001770019207,-9.75887815002352E-10));
#51= IFCCARTESIANPOINT((699.565124511224,191.262908934184));
#52= IFCCARTESIANPOINT((189.566528320051,190.098648070855));
#53= IFCCARTESIANPOINT((-0.432983875445643,189.664871215732));
#54= IFCPOLYLINE((#49,#50,#51,#52,#53,#49));
#55= IFCARBITRARYCLOSEDPROFILEDEF(.AREA.,'PL19*191',#54);
#56= IFCCARTESIANPOINT((0.,0.,-9.5));
#57= IFCAXIS2PLACEMENT3D(#56,#9,#7);
#58= IFCEXTRUDEDAREASOLID(#55,#57,#9,19.);
#59= IFCSHAPEREPRESENTATION(#12,'Body','SweptSolid',(#58));
#60= IFCPRODUCTDEFINITIONSHAPE($,$,(#59));
#61= IFCPLATE('3VuSy7DmP01xR3cPEA8zgi',#44,'PLATE','PL19*191','PL19*191',#48,#60,'IDdfe1cf07-3706-4007-b6c3-99938a23daac');
#62= IFCCARTESIANPOINT((5766.85883797456,23751.8840292129,13900.));
#63= IFCDIRECTION((0.999999900408596,0.00044629900018117,0.));
#64= IFCDIRECTION((0.000446299000181715,-0.999999900408596,0.));
#65= IFCAXIS2PLACEMENT3D(#62,#63,#64);
#66= IFCLOCALPLACEMENT(#42,#65);
#67= IFCDIRECTION((1.,0.));
#68= IFCAXIS2PLACEMENT2D(#49,#67);
#69= IFCCIRCLEPROFILEDEF(.AREA.,$,#68,11.);
#70= IFCCARTESIANPOINT((0.,-19.1000000000001,0.));
#71= IFCAXIS2PLACEMENT3D(#70,#8,#7);
#72= IFCEXTRUDEDAREASOLID(#69,#71,#9,19.2);
#73= IFCSHAPEREPRESENTATION(#12,'Body','SweptSolid',(#72));
#74= IFCREPRESENTATIONMAP(#10,#73);
#75= IFCCARTESIANPOINT((0.,0.,-49.9999999999918));
#76= IFCCARTESIANTRANSFORMATIONOPERATOR3D($,$,#75,$,$);
#77= IFCMAPPEDITEM(#74,#76);
#78= IFCCARTESIANPOINT((70.0000000002474,0.,-49.9999999999918));
#79= IFCCARTESIANTRANSFORMATIONOPERATOR3D($,$,#78,$,$);
#80= IFCMAPPEDITEM(#74,#79);
#81= IFCCARTESIANPOINT((140.000000000487,0.,-49.9999999999918));
#82= IFCCARTESIANTRANSFORMATIONOPERATOR3D($,$,#81,$,$);
#83= IFCMAPPEDITEM(#74,#82);
#84= IFCCARTESIANPOINT((210.000000000731,0.,-49.9999999999918));
#85= IFCCARTESIANTRANSFORMATIONOPERATOR3D($,$,#84,$,$);
#86= IFCMAPPEDITEM(#74,#85);
#87= IFCCARTESIANPOINT((280.000000000971,0.,-49.9999999999927));
#88= IFCCARTESIANTRANSFORMATIONOPERATOR3D($,$,#87,$,$);
#89= IFCMAPPEDITEM(#74,#88);
#90= IFCCARTESIANPOINT((350.000000001215,0.,-49.9999999999927));
#91= IFCCARTESIANTRANSFORMATIONOPERATOR3D($,$,#90,$,$);
#92= IFCMAPPEDITEM(#74,#91);
#93= IFCCARTESIANPOINT((420.000000001462,0.,-49.9999999999927));
#94= IFCCARTESIANTRANSFORMATIONOPERATOR3D($,$,#93,$,$);
#95= IFCMAPPEDITEM(#74,#94);
#96= IFCCARTESIANPOINT((3.63797880709171E-12,0.,49.9999999999909));
#97= IFCCARTESIANTRANSFORMATIONOPERATOR3D($,$,#96,$,$);
#98= IFCMAPPEDITEM(#74,#97);
#99= IFCCARTESIANPOINT((70.0000000002437,0.,49.9999999999909));
#100= IFCCARTESIANTRANSFORMATIONOPERATOR3D($,$,#99,$,$);
#101= IFCMAPPEDITEM(#74,#100);
#102= IFCCARTESIANPOINT((140.000000000491,0.,49.9999999999909));
#103= IFCCARTESIANTRANSFORMATIONOPERATOR3D($,$,#102,$,$);
#104= IFCMAPPEDITEM(#74,#103);
#105= IFCCARTESIANPOINT((210.000000000731,0.,49.9999999999909));
#106= IFCCARTESIANTRANSFORMATIONOPERATOR3D($,$,#105,$,$);
#107= IFCMAPPEDITEM(#74,#106);
#108= IFCCARTESIANPOINT((280.000000000975,0.,49.9999999999909));
#109= IFCCARTESIANTRANSFORMATIONOPERATOR3D($,$,#108,$,$);
#110= IFCMAPPEDITEM(#74,#109);
#111= IFCCARTESIANPOINT((350.000000001215,0.,49.9999999999909));
#112= IFCCARTESIANTRANSFORMATIONOPERATOR3D($,$,#111,$,$);
#113= IFCMAPPEDITEM(#74,#112);
#114= IFCCARTESIANPOINT((420.000000001459,0.,49.99999999999));
#115= IFCCARTESIANTRANSFORMATIONOPERATOR3D($,$,#114,$,$);
#116= IFCMAPPEDITEM(#74,#115);
#117= IFCSHAPEREPRESENTATION(#12,'Body','MappedRepresentation',(#77,#80,#83,#86,#89,#92,#95,#98,#101,#104,#107,#110,#113,#116));
#118= IFCPRODUCTDEFINITIONSHAPE($,$,(#117));
#119= IFCOPENINGELEMENT('2cKEkF7TnFtAAg1eoHyad6',#5,$,$,'Opening',#66,#118,$);
#120= IFCRELVOIDSELEMENT('3SQOm7qqH9XucnD8IN9vpk',#5,'Drill Hole',$,#61,#119);
#121= IFCPROPERTYSINGLEVALUE('FeatureSubTypes',$,IFCLABEL('TORNILLO'),$);
#122= IFCPROPERTYSINGLEVALUE('RectangleOpeningWidth',$,$,$);
#123= IFCPROPERTYSINGLEVALUE('RectangleOpeningHeight',$,$,$);
#124= IFCPROPERTYSINGLEVALUE('OpeningDiameter',$,$,$);
#125= IFCPROPERTYSET('19sMdmX5r46QuJzC39wVII',#5,'AISC_EM11_Pset_Opening/Cope',$,(#121,#122,#123,#124));
#126= IFCPROPERTYSINGLEVALUE('PieceMark',$,IFCIDENTIFIER('PLATE'),$);
#127= IFCPROPERTYSINGLEVALUE('IndicationMark',$,IFCIDENTIFIER('1107'),$);
#128= IFCPROPERTYSINGLEVALUE('PrelimMark',$,IFCIDENTIFIER(''),$);
#129= IFCPROPERTYSINGLEVALUE('MainPieceTag',$,IFCBOOLEAN(.F.),$);
#130= IFCPROPERTYSET('19tZEo2Yb8xvbV7xq7R$ph',#5,'AISC_EM11_Pset_PieceIdentification','PieceIdentity',(#126,#127,#128,#129));
#131= IFCPROPERTYSINGLEVALUE('MaterialType',$,IFCIDENTIFIER('STEEL'),$);
#132= IFCPROPERTYSINGLEVALUE('MaterialGrade',$,IFCIDENTIFIER('S235JR'),$);
#133= IFCPROPERTYSET('2M_xNUaRP2nvS60TAWxUuH',#5,'AISC_EM11_Pset_Material',$,(#131,#132));
#134= IFCMATERIAL('STEEL/S235JR');
#135= IFCRELAGGREGATES('0_g7H1$HPFXByp2_nkUsAe',#5,$,$,#37,(#39));
#136= IFCRELAGGREGATES('2GyPZJHZhXpTE5KG30m8Sw',#5,$,$,#39,(#41));
#137= IFCRELAGGREGATES('3Nba3_dTjDLhVpSvaEeZ4K',#5,$,$,#41,(#43));
#138= IFCRELCONTAINEDINSPATIALSTRUCTURE('30OTudlgDAJvRestTLafgY',#5,$,$,(#61),#43);
#139= IFCRELDEFINESBYPROPERTIES('0aSDR_2qz2xgFGFbasz9kU',#5,$,$,(#119),#125);
#140= IFCRELDEFINESBYPROPERTIES('0N6thQKif4Rx5wk381Ubod',#5,$,$,(#61),#130);
#141= IFCRELDEFINESBYPROPERTIES('2uXGPgmI1FcB$TiSu5qfeT',#5,$,$,(#61),#133);
#142= IFCRELASSOCIATESMATERIAL('1LY$eM3iT9XRvB30x3YP8m',#5,$,$,(#61),#134);
ENDSEC;

END-ISO-10303-21;
