ISO-10303-21;
HEADER;
FILE_DESCRIPTION(('ViewDefinition[AISC_Steel_Detailing]', 'Option [BaseQuantities:Off]', 'Option [GridExport:On]', 'Option [Assemblies:Off]', 'Option [Bolts:On]', 'Option [Rebars:On]', 'Option [PourObjects:Off]', 'Option [Welds:On]', 'Option [SurfaceTreatments:On]', 'Option [LocationBy:0]', 'Option [ViewColors:Off]', 'Option [SectionedSpine:Off]', 'Option [PropertySets:On]', 'Option [Export all:Off]'),'2;1');
FILE_NAME('1109_Qty_4.ifc','2026-05-16T11:52:56',('GIOVANNIPC\\gcorrea'),('Structural Designer'),'IFC Database version: Work','Tekla Structures 2020 Service Pack 5, IFC Export Version: 4.0.0.0 Dec  7 2020','');
FILE_SCHEMA(('IFC2X3'));
ENDSEC;

DATA;
#1= IFCPERSON('GIOVANNIPC\\gcorrea','Undefined',$,$,$,$,$,$);
#2= IFCORGANIZATION($,'Trimble Solutions Corporation',$,$,$);
#3= IFCPERSONANDORGANIZATION(#1,#2,$);
#4= IFCAPPLICATION(#2,'2020 Service Pack 5','Tekla Structures','Multi material modeling');
#5= IFCOWNERHISTORY(#3,#4,$,.NOCHANGE.,$,$,$,1778950376);
#6= IFCCARTESIANPOINT((0.,0.,0.));
#7= IFCDIRECTION((1.,0.,0.));
#8= IFCDIRECTION((0.,1.,0.));
#9= IFCDIRECTION((0.,0.,1.));
#10= IFCAXIS2PLACEMENT3D(#6,#9,#7);
#11= IFCGEOMETRICREPRESENTATIONCONTEXT($,'Model',3,1.E-05,#10,$);
#12= IFCGEOMETRICREPRESENTATIONSUBCONTEXT('Body','Model',*,*,*,*,#11,$,.MODEL_VIEW.,$);
#13= IFCGEOMETRICREPRESENTATIONSUBCONTEXT('Axis','Model',*,*,*,*,#11,$,.GRAPH_VIEW.,$);
#14= IFCGEOMETRICREPRESENTATIONSUBCONTEXT('FootPrint','Model',*,*,*,*,#11,$,.MODEL_VIEW.,$);
#15= IFCSIUNIT(*,.LENGTHUNIT.,.MILLI.,.METRE.);
#16= IFCMEASUREWITHUNIT(IFCRATIOMEASURE(304.8),#15);
#17= IFCDIMENSIONALEXPONENTS(1,0,0,0,0,0,0);
#18= IFCCONVERSIONBASEDUNIT(#17,.LENGTHUNIT.,'FOOT',#16);
#19= IFCSIUNIT(*,.AREAUNIT.,$,.SQUARE_METRE.);
#20= IFCMEASUREWITHUNIT(IFCRATIOMEASURE(0.09290304),#19);
#21= IFCDIMENSIONALEXPONENTS(2,0,0,0,0,0,0);
#22= IFCCONVERSIONBASEDUNIT(#21,.AREAUNIT.,'SQUARE FOOT',#20);
#23= IFCSIUNIT(*,.VOLUMEUNIT.,$,.CUBIC_METRE.);
#24= IFCMEASUREWITHUNIT(IFCRATIOMEASURE(0.028316846592),#23);
#25= IFCDIMENSIONALEXPONENTS(3,0,0,0,0,0,0);
#26= IFCCONVERSIONBASEDUNIT(#25,.VOLUMEUNIT.,'CUBIC FOOT',#24);
#27= IFCSIUNIT(*,.MASSUNIT.,.KILO.,.GRAM.);
#28= IFCSIUNIT(*,.TIMEUNIT.,$,.SECOND.);
#29= IFCSIUNIT(*,.PLANEANGLEUNIT.,$,.RADIAN.);
#30= IFCMEASUREWITHUNIT(IFCRATIOMEASURE(0.0174532925199433),#29);
#31= IFCDIMENSIONALEXPONENTS(0,0,0,0,0,0,0);
#32= IFCCONVERSIONBASEDUNIT(#31,.PLANEANGLEUNIT.,'DEGREE',#30);
#33= IFCSIUNIT(*,.SOLIDANGLEUNIT.,$,.STERADIAN.);
#34= IFCSIUNIT(*,.THERMODYNAMICTEMPERATUREUNIT.,$,.DEGREE_CELSIUS.);
#35= IFCSIUNIT(*,.LUMINOUSINTENSITYUNIT.,$,.LUMEN.);
#36= IFCUNITASSIGNMENT((#15,#19,#23,#27,#28,#29,#33,#34,#35));
#37= IFCPROJECT('2G7ZFDNE16yBDU14FA92Me',#5,'Proyecto',$,$,$,$,(#11),#36);
#38= IFCLOCALPLACEMENT($,#10);
#39= IFCSITE('2xvEzEinjBTea80yOTcujY',#5,'Obra',$,$,#38,$,$,.ELEMENT.,$,$,$,$,$);
#40= IFCLOCALPLACEMENT(#38,#10);
#41= IFCBUILDING('1aTQgqwED6qxzh6ZPruMk4',#5,'Undefined',$,$,#40,$,$,.ELEMENT.,$,$,$);
#42= IFCLOCALPLACEMENT(#40,#10);
#43= IFCBUILDINGSTOREY('29hdEUCErFze9E_VIAceOd',#5,'Undefined',$,$,#42,$,$,.ELEMENT.,0.);
#44= IFCOWNERHISTORY(#3,#4,$,.NOCHANGE.,$,$,$,1775491200);
#45= IFCCARTESIANPOINT((94548.4551834615,8780.23527433016,19359.5));
#46= IFCDIRECTION((-0.999999533914421,-0.000965489999918416,0.));
#47= IFCAXIS2PLACEMENT3D(#45,#9,#46);
#48= IFCLOCALPLACEMENT(#42,#47);
#49= IFCCARTESIANPOINT((0.,0.));
#50= IFCCARTESIANPOINT((190.000000000873,-3.30874172504991E-09));
#51= IFCCARTESIANPOINT((191.032104497703,509.840881346046));
#52= IFCCARTESIANPOINT((315.694732674834,809.720764157464));
#53= IFCCARTESIANPOINT((316.192108167772,1323.33190917747));
#54= IFCCARTESIANPOINT((1.2779579282942,1323.63598632934));
#55= IFCPOLYLINE((#49,#50,#51,#52,#53,#54,#49));
#56= IFCARBITRARYCLOSEDPROFILEDEF(.AREA.,'PL19*315',#55);
#57= IFCCARTESIANPOINT((0.,0.,-9.50000000000364));
#58= IFCAXIS2PLACEMENT3D(#57,#9,#7);
#59= IFCEXTRUDEDAREASOLID(#56,#58,#9,19.);
#60= IFCSHAPEREPRESENTATION(#12,'Body','SweptSolid',(#59));
#61= IFCPRODUCTDEFINITIONSHAPE($,$,(#60));
#62= IFCPLATE('2$6ZI8UBfCY9ZQ_0Xw0pwi',#44,'PLATE','PL19*315','PL19*315',#48,#61,'IDbf1a3488-78ba-4c88-98da-f8087a033eac');
#63= IFCCARTESIANPOINT((94383.5408905869,7920.20632653402,19350.));
#64= IFCDIRECTION((-9.69999888453837E-08,-0.999999999999995,0.));
#65= IFCAXIS2PLACEMENT3D(#63,#7,#64);
#66= IFCLOCALPLACEMENT(#42,#65);
#67= IFCDIRECTION((1.,0.));
#68= IFCAXIS2PLACEMENT2D(#49,#67);
#69= IFCCIRCLEPROFILEDEF(.AREA.,$,#68,11.5);
#70= IFCCARTESIANPOINT((0.,-19.0999999999997,0.));
#71= IFCAXIS2PLACEMENT3D(#70,#8,#7);
#72= IFCEXTRUDEDAREASOLID(#69,#71,#9,19.2);
#73= IFCSHAPEREPRESENTATION(#12,'Body','SweptSolid',(#72));
#74= IFCREPRESENTATIONMAP(#10,#73);
#75= IFCCARTESIANPOINT((0.,0.,-75.));
#76= IFCCARTESIANTRANSFORMATIONOPERATOR3D($,$,#75,$,$);
#77= IFCMAPPEDITEM(#74,#76);
#78= IFCCARTESIANPOINT((70.,0.,-75.0000000002037));
#79= IFCCARTESIANTRANSFORMATIONOPERATOR3D($,$,#78,$,$);
#80= IFCMAPPEDITEM(#74,#79);
#81= IFCCARTESIANPOINT((140.000000000001,0.,-75.0000000003929));
#82= IFCCARTESIANTRANSFORMATIONOPERATOR3D($,$,#81,$,$);
#83= IFCMAPPEDITEM(#74,#82);
#84= IFCCARTESIANPOINT((210.000000000002,0.,-75.0000000005821));
#85= IFCCARTESIANTRANSFORMATIONOPERATOR3D($,$,#84,$,$);
#86= IFCMAPPEDITEM(#74,#85);
#87= IFCCARTESIANPOINT((280.000000000003,0.,-75.0000000007713));
#88= IFCCARTESIANTRANSFORMATIONOPERATOR3D($,$,#87,$,$);
#89= IFCMAPPEDITEM(#74,#88);
#90= IFCCARTESIANPOINT((350.000000000003,0.,-75.0000000009604));
#91= IFCCARTESIANTRANSFORMATIONOPERATOR3D($,$,#90,$,$);
#92= IFCMAPPEDITEM(#74,#91);
#93= IFCCARTESIANPOINT((420.000000000004,0.,-75.0000000011496));
#94= IFCCARTESIANTRANSFORMATIONOPERATOR3D($,$,#93,$,$);
#95= IFCMAPPEDITEM(#74,#94);
#96= IFCCARTESIANPOINT((0.,0.,75.));
#97= IFCCARTESIANTRANSFORMATIONOPERATOR3D($,$,#96,$,$);
#98= IFCMAPPEDITEM(#74,#97);
#99= IFCCARTESIANPOINT((70.,0.,74.9999999998108));
#100= IFCCARTESIANTRANSFORMATIONOPERATOR3D($,$,#99,$,$);
#101= IFCMAPPEDITEM(#74,#100);
#102= IFCCARTESIANPOINT((140.000000000001,0.,74.9999999996071));
#103= IFCCARTESIANTRANSFORMATIONOPERATOR3D($,$,#102,$,$);
#104= IFCMAPPEDITEM(#74,#103);
#105= IFCCARTESIANPOINT((210.000000000002,0.,74.9999999994179));
#106= IFCCARTESIANTRANSFORMATIONOPERATOR3D($,$,#105,$,$);
#107= IFCMAPPEDITEM(#74,#106);
#108= IFCCARTESIANPOINT((280.000000000003,0.,74.9999999992287));
#109= IFCCARTESIANTRANSFORMATIONOPERATOR3D($,$,#108,$,$);
#110= IFCMAPPEDITEM(#74,#109);
#111= IFCCARTESIANPOINT((350.000000000003,0.,74.9999999990396));
#112= IFCCARTESIANTRANSFORMATIONOPERATOR3D($,$,#111,$,$);
#113= IFCMAPPEDITEM(#74,#112);
#114= IFCCARTESIANPOINT((420.000000000004,0.,74.9999999988504));
#115= IFCCARTESIANTRANSFORMATIONOPERATOR3D($,$,#114,$,$);
#116= IFCMAPPEDITEM(#74,#115);
#117= IFCSHAPEREPRESENTATION(#12,'Body','MappedRepresentation',(#77,#80,#83,#86,#89,#92,#95,#98,#101,#104,#107,#110,#113,#116));
#118= IFCPRODUCTDEFINITIONSHAPE($,$,(#117));
#119= IFCOPENINGELEMENT('2dZ$y5hUz189WwboOZTNbT',#5,$,$,'Opening',#66,#118,$);
#120= IFCRELVOIDSELEMENT('3Ul$EJyIH4wP0eXIwzN7Mk',#5,'Drill Hole',$,#62,#119);
#121= IFCPROPERTYSINGLEVALUE('FeatureSubTypes',$,IFCLABEL('TORNILLO'),$);
#122= IFCPROPERTYSINGLEVALUE('RectangleOpeningWidth',$,$,$);
#123= IFCPROPERTYSINGLEVALUE('RectangleOpeningHeight',$,$,$);
#124= IFCPROPERTYSINGLEVALUE('OpeningDiameter',$,$,$);
#125= IFCPROPERTYSET('2Ej9uR87TBWeM0AiAHjOxa',#5,'AISC_EM11_Pset_Opening/Cope',$,(#121,#122,#123,#124));
#126= IFCCARTESIANPOINT((94453.539364708,8320.2354091472,19350.));
#127= IFCDIRECTION((-0.999999988561416,-0.000151251999945088,0.));
#128= IFCDIRECTION((-0.000151251999945667,0.999999988561416,0.));
#129= IFCAXIS2PLACEMENT3D(#126,#127,#128);
#130= IFCLOCALPLACEMENT(#42,#129);
#131= IFCCARTESIANPOINT((0.,0.,-50.0000000000728));
#132= IFCCARTESIANTRANSFORMATIONOPERATOR3D($,$,#131,$,$);
#133= IFCMAPPEDITEM(#74,#132);
#134= IFCCARTESIANPOINT((70.0000000001073,0.,-50.0000000003201));
#135= IFCCARTESIANTRANSFORMATIONOPERATOR3D($,$,#134,$,$);
#136= IFCMAPPEDITEM(#74,#135);
#137= IFCCARTESIANPOINT((140.000000000216,0.,-50.0000000005966));
#138= IFCCARTESIANTRANSFORMATIONOPERATOR3D($,$,#137,$,$);
#139= IFCMAPPEDITEM(#74,#138);
#140= IFCCARTESIANPOINT((210.000000000326,0.,-50.000000000844));
#141= IFCCARTESIANTRANSFORMATIONOPERATOR3D($,$,#140,$,$);
#142= IFCMAPPEDITEM(#74,#141);
#143= IFCCARTESIANPOINT((280.000000000435,0.,-50.0000000010914));
#144= IFCCARTESIANTRANSFORMATIONOPERATOR3D($,$,#143,$,$);
#145= IFCMAPPEDITEM(#74,#144);
#146= IFCCARTESIANPOINT((350.000000000544,0.,-50.0000000013533));
#147= IFCCARTESIANTRANSFORMATIONOPERATOR3D($,$,#146,$,$);
#148= IFCMAPPEDITEM(#74,#147);
#149= IFCCARTESIANPOINT((420.000000000653,0.,-50.0000000016007));
#150= IFCCARTESIANTRANSFORMATIONOPERATOR3D($,$,#149,$,$);
#151= IFCMAPPEDITEM(#74,#150);
#152= IFCCARTESIANPOINT((-1.81898940354586E-12,0.,50.0000000000728));
#153= IFCCARTESIANTRANSFORMATIONOPERATOR3D($,$,#152,$,$);
#154= IFCMAPPEDITEM(#74,#153);
#155= IFCCARTESIANPOINT((70.0000000001073,0.,49.9999999998254));
#156= IFCCARTESIANTRANSFORMATIONOPERATOR3D($,$,#155,$,$);
#157= IFCMAPPEDITEM(#74,#156);
#158= IFCCARTESIANPOINT((140.000000000216,0.,49.9999999995634));
#159= IFCCARTESIANTRANSFORMATIONOPERATOR3D($,$,#158,$,$);
#160= IFCMAPPEDITEM(#74,#159);
#161= IFCCARTESIANPOINT((210.000000000326,0.,49.9999999993161));
#162= IFCCARTESIANTRANSFORMATIONOPERATOR3D($,$,#161,$,$);
#163= IFCMAPPEDITEM(#74,#162);
#164= IFCCARTESIANPOINT((280.000000000435,0.,49.9999999990687));
#165= IFCCARTESIANTRANSFORMATIONOPERATOR3D($,$,#164,$,$);
#166= IFCMAPPEDITEM(#74,#165);
#167= IFCCARTESIANPOINT((350.000000000544,0.,49.9999999988067));
#168= IFCCARTESIANTRANSFORMATIONOPERATOR3D($,$,#167,$,$);
#169= IFCMAPPEDITEM(#74,#168);
#170= IFCCARTESIANPOINT((420.000000000653,0.,49.9999999985448));
#171= IFCCARTESIANTRANSFORMATIONOPERATOR3D($,$,#170,$,$);
#172= IFCMAPPEDITEM(#74,#171);
#173= IFCSHAPEREPRESENTATION(#12,'Body','MappedRepresentation',(#133,#136,#139,#142,#145,#148,#151,#154,#157,#160,#163,#166,#169,#172));
#174= IFCPRODUCTDEFINITIONSHAPE($,$,(#173));
#175= IFCOPENINGELEMENT('1xsZIYolP70OrAtzQH4zi2',#5,$,$,'Opening',#130,#174,$);
#176= IFCRELVOIDSELEMENT('3FpELImOn0NQdyqk_mia6F',#5,'Drill Hole',$,#62,#175);
#177= IFCPROPERTYSINGLEVALUE('PieceMark',$,IFCIDENTIFIER('PLATE'),$);
#178= IFCPROPERTYSINGLEVALUE('IndicationMark',$,IFCIDENTIFIER('1109'),$);
#179= IFCPROPERTYSINGLEVALUE('PrelimMark',$,IFCIDENTIFIER(''),$);
#180= IFCPROPERTYSINGLEVALUE('MainPieceTag',$,IFCBOOLEAN(.T.),$);
#181= IFCPROPERTYSET('1N8nXyOSr3hg6lnpBiSEFQ',#5,'AISC_EM11_Pset_PieceIdentification','PieceIdentity',(#177,#178,#179,#180));
#182= IFCPROPERTYSINGLEVALUE('MaterialType',$,IFCIDENTIFIER('STEEL'),$);
#183= IFCPROPERTYSINGLEVALUE('MaterialGrade',$,IFCIDENTIFIER('S235JR'),$);
#184= IFCPROPERTYSET('0C0nB_CBDCWwp5ztoHiO8g',#5,'AISC_EM11_Pset_Material',$,(#182,#183));
#185= IFCMATERIAL('STEEL/S235JR');
#186= IFCRELAGGREGATES('0nWblq$XfAlgcX9GHWc$rk',#5,$,$,#37,(#39));
#187= IFCRELAGGREGATES('23ot16HpxS1yupRYZouH70',#5,$,$,#39,(#41));
#188= IFCRELAGGREGATES('23mbbeXiH3rA92Jaow38Ju',#5,$,$,#41,(#43));
#189= IFCRELCONTAINEDINSPATIALSTRUCTURE('1BVWyHL5X89fRj846IYy2l',#5,$,$,(#62),#43);
#190= IFCRELDEFINESBYPROPERTIES('3Qvj1xMknFYPozSOWZP0oy',#5,$,$,(#175,#119),#125);
#191= IFCRELDEFINESBYPROPERTIES('3ca3CSR3vBd94rT2HFE86p',#5,$,$,(#62),#181);
#192= IFCRELDEFINESBYPROPERTIES('28j$8O5uj3jAIJhsXO8Qwp',#5,$,$,(#62),#184);
#193= IFCRELASSOCIATESMATERIAL('3ltTlf_kD86eM7qY6lPvFY',#5,$,$,(#62),#185);
ENDSEC;

END-ISO-10303-21;
