ISO-10303-21;
HEADER;
FILE_DESCRIPTION(('ViewDefinition[AISC_Steel_Detailing]', 'Option [BaseQuantities:Off]', 'Option [GridExport:On]', 'Option [Assemblies:Off]', 'Option [Bolts:On]', 'Option [Rebars:On]', 'Option [PourObjects:Off]', 'Option [Welds:On]', 'Option [SurfaceTreatments:On]', 'Option [LocationBy:0]', 'Option [ViewColors:Off]', 'Option [SectionedSpine:Off]', 'Option [PropertySets:On]', 'Option [Export all:Off]'),'2;1');
FILE_NAME('1110_Qty_10.ifc','2026-05-16T11:52:52',('GIOVANNIPC\\gcorrea'),('Structural Designer'),'IFC Database version: Work','Tekla Structures 2020 Service Pack 5, IFC Export Version: 4.0.0.0 Dec  7 2020','');
FILE_SCHEMA(('IFC2X3'));
ENDSEC;

DATA;
#1= IFCPERSON('GIOVANNIPC\\gcorrea','Undefined',$,$,$,$,$,$);
#2= IFCORGANIZATION($,'Trimble Solutions Corporation',$,$,$);
#3= IFCPERSONANDORGANIZATION(#1,#2,$);
#4= IFCAPPLICATION(#2,'2020 Service Pack 5','Tekla Structures','Multi material modeling');
#5= IFCOWNERHISTORY(#3,#4,$,.NOCHANGE.,$,$,$,1778950372);
#6= IFCCARTESIANPOINT((0.,0.,0.));
#7= IFCDIRECTION((1.,0.,0.));
#8= IFCDIRECTION((0.,1.,0.));
#9= IFCDIRECTION((0.,0.,1.));
#10= IFCAXIS2PLACEMENT3D(#6,#9,#7);
#11= IFCGEOMETRICREPRESENTATIONCONTEXT($,'Model',3,1.E-05,#10,$);
#12= IFCGEOMETRICREPRESENTATIONSUBCONTEXT('Body','Model',*,*,*,*,#11,$,.MODEL_VIEW.,$);
#13= IFCGEOMETRICREPRESENTATIONSUBCONTEXT('Axis','Model',*,*,*,*,#11,$,.GRAPH_VIEW.,$);
#14= IFCGEOMETRICREPRESENTATIONSUBCONTEXT('FootPrint','Model',*,*,*,*,#11,$,.MODEL_VIEW.,$);
#15= IFCSIUNIT(*,.LENGTHUNIT.,.MILLI.,.METRE.);
#16= IFCMEASUREWITHUNIT(IFCRATIOMEASURE(304.8),#15);
#17= IFCDIMENSIONALEXPONENTS(1,0,0,0,0,0,0);
#18= IFCCONVERSIONBASEDUNIT(#17,.LENGTHUNIT.,'FOOT',#16);
#19= IFCSIUNIT(*,.AREAUNIT.,$,.SQUARE_METRE.);
#20= IFCMEASUREWITHUNIT(IFCRATIOMEASURE(0.09290304),#19);
#21= IFCDIMENSIONALEXPONENTS(2,0,0,0,0,0,0);
#22= IFCCONVERSIONBASEDUNIT(#21,.AREAUNIT.,'SQUARE FOOT',#20);
#23= IFCSIUNIT(*,.VOLUMEUNIT.,$,.CUBIC_METRE.);
#24= IFCMEASUREWITHUNIT(IFCRATIOMEASURE(0.028316846592),#23);
#25= IFCDIMENSIONALEXPONENTS(3,0,0,0,0,0,0);
#26= IFCCONVERSIONBASEDUNIT(#25,.VOLUMEUNIT.,'CUBIC FOOT',#24);
#27= IFCSIUNIT(*,.MASSUNIT.,.KILO.,.GRAM.);
#28= IFCSIUNIT(*,.TIMEUNIT.,$,.SECOND.);
#29= IFCSIUNIT(*,.PLANEANGLEUNIT.,$,.RADIAN.);
#30= IFCMEASUREWITHUNIT(IFCRATIOMEASURE(0.0174532925199433),#29);
#31= IFCDIMENSIONALEXPONENTS(0,0,0,0,0,0,0);
#32= IFCCONVERSIONBASEDUNIT(#31,.PLANEANGLEUNIT.,'DEGREE',#30);
#33= IFCSIUNIT(*,.SOLIDANGLEUNIT.,$,.STERADIAN.);
#34= IFCSIUNIT(*,.THERMODYNAMICTEMPERATUREUNIT.,$,.DEGREE_CELSIUS.);
#35= IFCSIUNIT(*,.LUMINOUSINTENSITYUNIT.,$,.LUMEN.);
#36= IFCUNITASSIGNMENT((#15,#19,#23,#27,#28,#29,#33,#34,#35));
#37= IFCPROJECT('2G7ZFDNE16yBDU14FA92Me',#5,'Proyecto',$,$,$,$,(#11),#36);
#38= IFCLOCALPLACEMENT($,#10);
#39= IFCSITE('2xvEzEinjBTea80yOTcujY',#5,'Obra',$,$,#38,$,$,.ELEMENT.,$,$,$,$,$);
#40= IFCLOCALPLACEMENT(#38,#10);
#41= IFCBUILDING('0P6pJs5sT44P0jMlWq626E',#5,'Undefined',$,$,#40,$,$,.ELEMENT.,$,$,$);
#42= IFCLOCALPLACEMENT(#40,#10);
#43= IFCBUILDINGSTOREY('29hdEUCErFze9E_VIAceOd',#5,'Undefined',$,$,#42,$,$,.ELEMENT.,0.);
#44= IFCOWNERHISTORY(#3,#4,$,.NOCHANGE.,$,$,$,1775505600);
#45= IFCCARTESIANPOINT((82782.9433436004,17256.1124462274,23609.5));
#46= IFCAXIS2PLACEMENT3D(#45,#9,#8);
#47= IFCLOCALPLACEMENT(#42,#46);
#48= IFCCARTESIANPOINT((0.,0.));
#49= IFCCARTESIANPOINT((250.,0.));
#50= IFCCARTESIANPOINT((353.886627197266,983.212036132813));
#51= IFCCARTESIANPOINT((249.666961669922,1965.97387695313));
#52= IFCCARTESIANPOINT((-0.333040356636047,1965.9560546875));
#53= IFCCARTESIANPOINT((-102.113380432129,982.982421875));
#54= IFCPOLYLINE((#48,#49,#50,#51,#52,#53,#48));
#55= IFCARBITRARYCLOSEDPROFILEDEF(.AREA.,'PL19*456',#54);
#56= IFCCARTESIANPOINT((0.,0.,-9.5));
#57= IFCAXIS2PLACEMENT3D(#56,#9,#7);
#58= IFCEXTRUDEDAREASOLID(#55,#57,#9,19.);
#59= IFCSHAPEREPRESENTATION(#12,'Body','SweptSolid',(#58));
#60= IFCPRODUCTDEFINITIONSHAPE($,$,(#59));
#61= IFCPLATE('1p$L_PBLjFOx87jzpwP_fq',#44,'PLATE','PL19*456','PL19*456',#47,#60,'ID73fd5f99-2d5b-4f63-b207-b7dcfa67ea74');
#62= IFCLOCALPLACEMENT(#42,#46);
#63= IFCDIRECTION((1.,0.));
#64= IFCAXIS2PLACEMENT2D(#48,#63);
#65= IFCCIRCLEPROFILEDEF(.AREA.,'\S\X412*25',#64,206.);
#66= IFCDIRECTION((0.,-1.,0.));
#67= IFCDIRECTION((0.,0.,-1.));
#68= IFCCARTESIANPOINT((125.886617905668,982.982470103423,1090.5));
#69= IFCAXIS2PLACEMENT3D(#68,#67,#66);
#70= IFCEXTRUDEDAREASOLID(#65,#69,#9,3000.);
#71= IFCSHAPEREPRESENTATION(#12,'Body','SweptSolid',(#70));
#72= IFCPRODUCTDEFINITIONSHAPE($,$,(#71));
#73= IFCOPENINGELEMENT('1rJProhSjFqu3FGB0UUFAM',#5,$,$,'Recess',#62,#72,$);
#74= IFCRELVOIDSELEMENT('0VoixD$DD7qwL4_$zD9Hk2',#5,$,$,#61,#73);
#75= IFCPROPERTYSINGLEVALUE('FeatureSubTypes',$,$,$);
#76= IFCPROPERTYSINGLEVALUE('RectangleOpeningWidth',$,$,$);
#77= IFCPROPERTYSINGLEVALUE('RectangleOpeningHeight',$,$,$);
#78= IFCPROPERTYSINGLEVALUE('OpeningDiameter',$,IFCPOSITIVELENGTHMEASURE(412.),$);
#79= IFCPROPERTYSET('3R12wCsD95fQjW6PqJH9Xi',#5,'AISC_EM11_Pset_Opening/Cope',$,(#75,#76,#77,#78));
#80= IFCCARTESIANPOINT((81531.978381946,17380.7794110034,23600.));
#81= IFCDIRECTION((7.12890000286279E-05,-0.999999997458939,0.));
#82= IFCDIRECTION((-0.999999997458939,-7.12890000318489E-05,0.));
#83= IFCAXIS2PLACEMENT3D(#80,#81,#82);
#84= IFCLOCALPLACEMENT(#42,#83);
#85= IFCCIRCLEPROFILEDEF(.AREA.,$,#64,11.5);
#86= IFCCARTESIANPOINT((0.,-19.1,0.));
#87= IFCAXIS2PLACEMENT3D(#86,#8,#7);
#88= IFCEXTRUDEDAREASOLID(#85,#87,#9,19.2);
#89= IFCSHAPEREPRESENTATION(#12,'Body','SweptSolid',(#88));
#90= IFCREPRESENTATIONMAP(#10,#89);
#91= IFCCARTESIANPOINT((2.7648638933897E-10,0.,-75.0000000002656));
#92= IFCCARTESIANTRANSFORMATIONOPERATOR3D($,$,#91,$,$);
#93= IFCMAPPEDITEM(#90,#92);
#94= IFCCARTESIANPOINT((74.999999999447,0.,-75.0000000008113));
#95= IFCCARTESIANTRANSFORMATIONOPERATOR3D($,$,#94,$,$);
#96= IFCMAPPEDITEM(#90,#95);
#97= IFCCARTESIANPOINT((149.999999998618,0.,-75.0000000013533));
#98= IFCCARTESIANTRANSFORMATIONOPERATOR3D($,$,#97,$,$);
#99= IFCMAPPEDITEM(#90,#98);
#100= IFCCARTESIANPOINT((224.999999997788,0.,-75.000000001899));
#101= IFCCARTESIANTRANSFORMATIONOPERATOR3D($,$,#100,$,$);
#102= IFCMAPPEDITEM(#90,#101);
#103= IFCCARTESIANPOINT((299.999999996959,0.,-75.0000000024484));
#104= IFCCARTESIANTRANSFORMATIONOPERATOR3D($,$,#103,$,$);
#105= IFCMAPPEDITEM(#90,#104);
#106= IFCCARTESIANPOINT((374.999999996129,0.,-75.0000000029941));
#107= IFCCARTESIANTRANSFORMATIONOPERATOR3D($,$,#106,$,$);
#108= IFCMAPPEDITEM(#90,#107);
#109= IFCCARTESIANPOINT((449.9999999953,0.,-75.0000000035361));
#110= IFCCARTESIANTRANSFORMATIONOPERATOR3D($,$,#109,$,$);
#111= IFCMAPPEDITEM(#90,#110);
#112= IFCCARTESIANPOINT((524.99999999447,0.,-75.0000000040818));
#113= IFCCARTESIANTRANSFORMATIONOPERATOR3D($,$,#112,$,$);
#114= IFCMAPPEDITEM(#90,#113);
#115= IFCCARTESIANPOINT((599.999999993641,0.,-75.0000000046311));
#116= IFCCARTESIANTRANSFORMATIONOPERATOR3D($,$,#115,$,$);
#117= IFCMAPPEDITEM(#90,#116);
#118= IFCCARTESIANPOINT((674.999999992811,0.,-75.0000000051768));
#119= IFCCARTESIANTRANSFORMATIONOPERATOR3D($,$,#118,$,$);
#120= IFCMAPPEDITEM(#90,#119);
#121= IFCCARTESIANPOINT((-2.7648638933897E-10,0.,75.0000000002619));
#122= IFCCARTESIANTRANSFORMATIONOPERATOR3D($,$,#121,$,$);
#123= IFCMAPPEDITEM(#90,#122);
#124= IFCCARTESIANPOINT((74.9999999988941,0.,74.9999999997162));
#125= IFCCARTESIANTRANSFORMATIONOPERATOR3D($,$,#124,$,$);
#126= IFCMAPPEDITEM(#90,#125);
#127= IFCCARTESIANPOINT((149.999999998079,0.,74.9999999991705));
#128= IFCCARTESIANTRANSFORMATIONOPERATOR3D($,$,#127,$,$);
#129= IFCMAPPEDITEM(#90,#128);
#130= IFCCARTESIANPOINT((224.99999999725,0.,74.9999999986248));
#131= IFCCARTESIANTRANSFORMATIONOPERATOR3D($,$,#130,$,$);
#132= IFCMAPPEDITEM(#90,#131);
#133= IFCCARTESIANPOINT((299.99999999642,0.,74.9999999980791));
#134= IFCCARTESIANTRANSFORMATIONOPERATOR3D($,$,#133,$,$);
#135= IFCMAPPEDITEM(#90,#134);
#136= IFCCARTESIANPOINT((374.999999995591,0.,74.9999999975298));
#137= IFCCARTESIANTRANSFORMATIONOPERATOR3D($,$,#136,$,$);
#138= IFCMAPPEDITEM(#90,#137);
#139= IFCCARTESIANPOINT((449.999999994761,0.,74.9999999969878));
#140= IFCCARTESIANTRANSFORMATIONOPERATOR3D($,$,#139,$,$);
#141= IFCMAPPEDITEM(#90,#140);
#142= IFCCARTESIANPOINT((524.999999993932,0.,74.9999999964421));
#143= IFCCARTESIANTRANSFORMATIONOPERATOR3D($,$,#142,$,$);
#144= IFCMAPPEDITEM(#90,#143);
#145= IFCCARTESIANPOINT((599.999999993102,0.,74.9999999958964));
#146= IFCCARTESIANTRANSFORMATIONOPERATOR3D($,$,#145,$,$);
#147= IFCMAPPEDITEM(#90,#146);
#148= IFCCARTESIANPOINT((674.999999992273,0.,74.999999995347));
#149= IFCCARTESIANTRANSFORMATIONOPERATOR3D($,$,#148,$,$);
#150= IFCMAPPEDITEM(#90,#149);
#151= IFCSHAPEREPRESENTATION(#12,'Body','MappedRepresentation',(#93,#96,#99,#102,#105,#108,#111,#114,#117,#120,#123,#126,#129,#132,#135,#138,#141,#144,#147,#150));
#152= IFCPRODUCTDEFINITIONSHAPE($,$,(#151));
#153= IFCOPENINGELEMENT('2TiqMcCEDEiwVtEQllZraK',#5,$,$,'Opening',#84,#152,$);
#154= IFCRELVOIDSELEMENT('1Mfh793NvAYB9tOn5xuYsa',#5,'Drill Hole',$,#61,#153);
#155= IFCPROPERTYSINGLEVALUE('FeatureSubTypes',$,IFCLABEL('TORNILLO'),$);
#156= IFCPROPERTYSINGLEVALUE('OpeningDiameter',$,$,$);
#157= IFCPROPERTYSET('09FiMqu7H2qhP6XwObPpkY',#5,'AISC_EM11_Pset_Opening/Cope',$,(#155,#76,#77,#156));
#158= IFCCARTESIANPOINT((82067.9433245468,17380.7794118507,23600.));
#159= IFCAXIS2PLACEMENT3D(#158,#8,#7);
#160= IFCLOCALPLACEMENT(#42,#159);
#161= IFCSHAPEREPRESENTATION(#12,'Body','MappedRepresentation',(#93,#96,#99,#102,#105,#108,#111,#114,#117,#120,#123,#126,#129,#132,#135,#138,#141,#144,#147,#150));
#162= IFCPRODUCTDEFINITIONSHAPE($,$,(#161));
#163= IFCOPENINGELEMENT('32ab1UrvTB8emQX38z8bZf',#5,$,$,'Opening',#160,#162,$);
#164= IFCRELVOIDSELEMENT('1s4b3SYD573wRU6tBG9DXP',#5,'Drill Hole',$,#61,#163);
#165= IFCPROPERTYSINGLEVALUE('PieceMark',$,IFCIDENTIFIER('PLATE'),$);
#166= IFCPROPERTYSINGLEVALUE('IndicationMark',$,IFCIDENTIFIER('1110'),$);
#167= IFCPROPERTYSINGLEVALUE('PrelimMark',$,IFCIDENTIFIER(''),$);
#168= IFCPROPERTYSINGLEVALUE('MainPieceTag',$,IFCBOOLEAN(.T.),$);
#169= IFCPROPERTYSET('0ehfoJ04bFMA3qiQNdMnYL',#5,'AISC_EM11_Pset_PieceIdentification','PieceIdentity',(#165,#166,#167,#168));
#170= IFCPROPERTYSINGLEVALUE('MaterialType',$,IFCIDENTIFIER('STEEL'),$);
#171= IFCPROPERTYSINGLEVALUE('MaterialGrade',$,IFCIDENTIFIER('S235JR'),$);
#172= IFCPROPERTYSET('1jBwZe9ef8$9bmmiLMDQfW',#5,'AISC_EM11_Pset_Material',$,(#170,#171));
#173= IFCMATERIAL('STEEL/S235JR');
#174= IFCRELAGGREGATES('1doTuucab2N9PKtwXUp96r',#5,$,$,#37,(#39));
#175= IFCRELAGGREGATES('2v4lAAustKfRhc9Cpm5RO7',#5,$,$,#39,(#41));
#176= IFCRELAGGREGATES('03IYqsxKf4EQxyu_dQK4s7',#5,$,$,#41,(#43));
#177= IFCRELCONTAINEDINSPATIALSTRUCTURE('11BguJLmrCg8JL8sHa1DKe',#5,$,$,(#61),#43);
#178= IFCRELDEFINESBYPROPERTIES('3aRcAwXV58KRH1DydPKto9',#5,$,$,(#73),#79);
#179= IFCRELDEFINESBYPROPERTIES('0V8vnuGHPAtfnF_9IKPgJ1',#5,$,$,(#163,#153),#157);
#180= IFCRELDEFINESBYPROPERTIES('0kmuHHTJ9BpevIjyjAlCO$',#5,$,$,(#61),#169);
#181= IFCRELDEFINESBYPROPERTIES('2FjzUzDOvBpR5jzw35IocH',#5,$,$,(#61),#172);
#182= IFCRELASSOCIATESMATERIAL('2Tfybvjt13RfzouFmK2ipl',#5,$,$,(#61),#173);
ENDSEC;

END-ISO-10303-21;
