ISO-10303-21;
HEADER;
FILE_DESCRIPTION(('ViewDefinition[AISC_Steel_Detailing]', 'Option [BaseQuantities:Off]', 'Option [GridExport:On]', 'Option [Assemblies:Off]', 'Option [Bolts:On]', 'Option [Rebars:On]', 'Option [PourObjects:Off]', 'Option [Welds:On]', 'Option [SurfaceTreatments:On]', 'Option [LocationBy:0]', 'Option [ViewColors:Off]', 'Option [SectionedSpine:Off]', 'Option [PropertySets:On]', 'Option [Export all:Off]'),'2;1');
FILE_NAME('1112_Qty_1.ifc','2026-05-16T11:52:55',('GIOVANNIPC\\gcorrea'),('Structural Designer'),'IFC Database version: Work','Tekla Structures 2020 Service Pack 5, IFC Export Version: 4.0.0.0 Dec  7 2020','');
FILE_SCHEMA(('IFC2X3'));
ENDSEC;

DATA;
#1= IFCPERSON('GIOVANNIPC\\gcorrea','Undefined',$,$,$,$,$,$);
#2= IFCORGANIZATION($,'Trimble Solutions Corporation',$,$,$);
#3= IFCPERSONANDORGANIZATION(#1,#2,$);
#4= IFCAPPLICATION(#2,'2020 Service Pack 5','Tekla Structures','Multi material modeling');
#5= IFCOWNERHISTORY(#3,#4,$,.NOCHANGE.,$,$,$,1778950375);
#6= IFCCARTESIANPOINT((0.,0.,0.));
#7= IFCDIRECTION((1.,0.,0.));
#8= IFCDIRECTION((0.,1.,0.));
#9= IFCDIRECTION((0.,0.,1.));
#10= IFCAXIS2PLACEMENT3D(#6,#9,#7);
#11= IFCGEOMETRICREPRESENTATIONCONTEXT($,'Model',3,1.E-05,#10,$);
#12= IFCGEOMETRICREPRESENTATIONSUBCONTEXT('Body','Model',*,*,*,*,#11,$,.MODEL_VIEW.,$);
#13= IFCGEOMETRICREPRESENTATIONSUBCONTEXT('Axis','Model',*,*,*,*,#11,$,.GRAPH_VIEW.,$);
#14= IFCGEOMETRICREPRESENTATIONSUBCONTEXT('FootPrint','Model',*,*,*,*,#11,$,.MODEL_VIEW.,$);
#15= IFCSIUNIT(*,.LENGTHUNIT.,.MILLI.,.METRE.);
#16= IFCMEASUREWITHUNIT(IFCRATIOMEASURE(304.8),#15);
#17= IFCDIMENSIONALEXPONENTS(1,0,0,0,0,0,0);
#18= IFCCONVERSIONBASEDUNIT(#17,.LENGTHUNIT.,'FOOT',#16);
#19= IFCSIUNIT(*,.AREAUNIT.,$,.SQUARE_METRE.);
#20= IFCMEASUREWITHUNIT(IFCRATIOMEASURE(0.09290304),#19);
#21= IFCDIMENSIONALEXPONENTS(2,0,0,0,0,0,0);
#22= IFCCONVERSIONBASEDUNIT(#21,.AREAUNIT.,'SQUARE FOOT',#20);
#23= IFCSIUNIT(*,.VOLUMEUNIT.,$,.CUBIC_METRE.);
#24= IFCMEASUREWITHUNIT(IFCRATIOMEASURE(0.028316846592),#23);
#25= IFCDIMENSIONALEXPONENTS(3,0,0,0,0,0,0);
#26= IFCCONVERSIONBASEDUNIT(#25,.VOLUMEUNIT.,'CUBIC FOOT',#24);
#27= IFCSIUNIT(*,.MASSUNIT.,.KILO.,.GRAM.);
#28= IFCSIUNIT(*,.TIMEUNIT.,$,.SECOND.);
#29= IFCSIUNIT(*,.PLANEANGLEUNIT.,$,.RADIAN.);
#30= IFCMEASUREWITHUNIT(IFCRATIOMEASURE(0.0174532925199433),#29);
#31= IFCDIMENSIONALEXPONENTS(0,0,0,0,0,0,0);
#32= IFCCONVERSIONBASEDUNIT(#31,.PLANEANGLEUNIT.,'DEGREE',#30);
#33= IFCSIUNIT(*,.SOLIDANGLEUNIT.,$,.STERADIAN.);
#34= IFCSIUNIT(*,.THERMODYNAMICTEMPERATUREUNIT.,$,.DEGREE_CELSIUS.);
#35= IFCSIUNIT(*,.LUMINOUSINTENSITYUNIT.,$,.LUMEN.);
#36= IFCUNITASSIGNMENT((#15,#19,#23,#27,#28,#29,#33,#34,#35));
#37= IFCPROJECT('2G7ZFDNE16yBDU14FA92Me',#5,'Proyecto',$,$,$,$,(#11),#36);
#38= IFCLOCALPLACEMENT($,#10);
#39= IFCSITE('2xvEzEinjBTea80yOTcujY',#5,'Obra',$,$,#38,$,$,.ELEMENT.,$,$,$,$,$);
#40= IFCLOCALPLACEMENT(#38,#10);
#41= IFCBUILDING('2aMn12dVr2YOvQhmONl9sA',#5,'Undefined',$,$,#40,$,$,.ELEMENT.,$,$,$);
#42= IFCLOCALPLACEMENT(#40,#10);
#43= IFCBUILDINGSTOREY('29hdEUCErFze9E_VIAceOd',#5,'Undefined',$,$,#42,$,$,.ELEMENT.,0.);
#44= IFCOWNERHISTORY(#3,#4,$,.NOCHANGE.,$,$,$,1773774000);
#45= IFCCARTESIANPOINT((24840.6208395371,1509.08195758433,19359.5));
#46= IFCAXIS2PLACEMENT3D(#45,#9,#7);
#47= IFCLOCALPLACEMENT(#42,#46);
#48= IFCCARTESIANPOINT((0.,0.));
#49= IFCCARTESIANPOINT((1332.375,0.));
#50= IFCCARTESIANPOINT((1332.19396972656,191.266220092773));
#51= IFCCARTESIANPOINT((0.186697587370872,189.999908447266));
#52= IFCPOLYLINE((#48,#49,#50,#51,#48));
#53= IFCARBITRARYCLOSEDPROFILEDEF(.AREA.,'PL19*191',#52);
#54= IFCCARTESIANPOINT((0.,0.,-9.5));
#55= IFCAXIS2PLACEMENT3D(#54,#9,#7);
#56= IFCEXTRUDEDAREASOLID(#53,#55,#9,19.);
#57= IFCSHAPEREPRESENTATION(#12,'Body','SweptSolid',(#56));
#58= IFCPRODUCTDEFINITIONSHAPE($,$,(#57));
#59= IFCPLATE('1NWs_ZMrnEaBDxQ93K_uQ6',#44,'PLATE','PL19*191','PL19*191',#47,#58,'ID57836fa3-5b5c-4e90-b37b-6890d4fb8686');
#60= IFCCARTESIANPOINT((25300.6208395371,1603.28932952881,19350.));
#61= IFCDIRECTION((0.00127341800025897,-0.99999918920297,0.));
#62= IFCDIRECTION((-0.99999918920297,-0.00127341800025859,0.));
#63= IFCAXIS2PLACEMENT3D(#60,#61,#62);
#64= IFCLOCALPLACEMENT(#42,#63);
#65= IFCDIRECTION((1.,0.));
#66= IFCAXIS2PLACEMENT2D(#48,#65);
#67= IFCCIRCLEPROFILEDEF(.AREA.,$,#66,11.5);
#68= IFCCARTESIANPOINT((0.,-19.1,0.));
#69= IFCAXIS2PLACEMENT3D(#68,#8,#7);
#70= IFCEXTRUDEDAREASOLID(#67,#69,#9,19.2);
#71= IFCSHAPEREPRESENTATION(#12,'Body','SweptSolid',(#70));
#72= IFCREPRESENTATIONMAP(#10,#71);
#73= IFCCARTESIANPOINT((-1.0550138540566E-10,0.,-50.0000000000014));
#74= IFCCARTESIANTRANSFORMATIONOPERATOR3D($,$,#73,$,$);
#75= IFCMAPPEDITEM(#72,#74);
#76= IFCCARTESIANPOINT((69.9999999999927,0.,-50.000000000224));
#77= IFCCARTESIANTRANSFORMATIONOPERATOR3D($,$,#76,$,$);
#78= IFCMAPPEDITEM(#72,#77);
#79= IFCCARTESIANPOINT((140.000000000087,0.,-50.000000000447));
#80= IFCCARTESIANTRANSFORMATIONOPERATOR3D($,$,#79,$,$);
#81= IFCMAPPEDITEM(#72,#80);
#82= IFCCARTESIANPOINT((210.000000000186,0.,-50.0000000006698));
#83= IFCCARTESIANTRANSFORMATIONOPERATOR3D($,$,#82,$,$);
#84= IFCMAPPEDITEM(#72,#83);
#85= IFCCARTESIANPOINT((280.000000000284,0.,-50.0000000008929));
#86= IFCCARTESIANTRANSFORMATIONOPERATOR3D($,$,#85,$,$);
#87= IFCMAPPEDITEM(#72,#86);
#88= IFCCARTESIANPOINT((350.000000000378,0.,-50.0000000011155));
#89= IFCCARTESIANTRANSFORMATIONOPERATOR3D($,$,#88,$,$);
#90= IFCMAPPEDITEM(#72,#89);
#91= IFCCARTESIANPOINT((420.000000000477,0.,-50.0000000013385));
#92= IFCCARTESIANTRANSFORMATIONOPERATOR3D($,$,#91,$,$);
#93= IFCMAPPEDITEM(#72,#92);
#94= IFCCARTESIANPOINT((1.01863406598568E-10,0.,50.0000000000009));
#95= IFCCARTESIANTRANSFORMATIONOPERATOR3D($,$,#94,$,$);
#96= IFCMAPPEDITEM(#72,#95);
#97= IFCCARTESIANPOINT((70.0000000001965,0.,49.9999999997781));
#98= IFCCARTESIANTRANSFORMATIONOPERATOR3D($,$,#97,$,$);
#99= IFCMAPPEDITEM(#72,#98);
#100= IFCCARTESIANPOINT((140.000000000295,0.,49.9999999995553));
#101= IFCCARTESIANTRANSFORMATIONOPERATOR3D($,$,#100,$,$);
#102= IFCMAPPEDITEM(#72,#101);
#103= IFCCARTESIANPOINT((210.000000000393,0.,49.9999999993322));
#104= IFCCARTESIANTRANSFORMATIONOPERATOR3D($,$,#103,$,$);
#105= IFCMAPPEDITEM(#72,#104);
#106= IFCCARTESIANPOINT((280.000000000487,0.,49.9999999991094));
#107= IFCCARTESIANTRANSFORMATIONOPERATOR3D($,$,#106,$,$);
#108= IFCMAPPEDITEM(#72,#107);
#109= IFCCARTESIANPOINT((350.000000000586,0.,49.9999999988866));
#110= IFCCARTESIANTRANSFORMATIONOPERATOR3D($,$,#109,$,$);
#111= IFCMAPPEDITEM(#72,#110);
#112= IFCCARTESIANPOINT((420.000000000684,0.,49.9999999986637));
#113= IFCCARTESIANTRANSFORMATIONOPERATOR3D($,$,#112,$,$);
#114= IFCMAPPEDITEM(#72,#113);
#115= IFCSHAPEREPRESENTATION(#12,'Body','MappedRepresentation',(#75,#78,#81,#84,#87,#90,#93,#96,#99,#102,#105,#108,#111,#114));
#116= IFCPRODUCTDEFINITIONSHAPE($,$,(#115));
#117= IFCOPENINGELEMENT('2t2yIptUX3gxz_xdV7AJGu',#5,$,$,'Opening',#64,#116,$);
#118= IFCRELVOIDSELEMENT('3GABSXjY1DrRJjyVy3Cr_Z',#5,'Drill Hole',$,#59,#117);
#119= IFCPROPERTYSINGLEVALUE('FeatureSubTypes',$,IFCLABEL('TORNILLO'),$);
#120= IFCPROPERTYSINGLEVALUE('RectangleOpeningWidth',$,$,$);
#121= IFCPROPERTYSINGLEVALUE('RectangleOpeningHeight',$,$,$);
#122= IFCPROPERTYSINGLEVALUE('OpeningDiameter',$,$,$);
#123= IFCPROPERTYSET('0YjkT_wHD9DxEy0MI3iJUu',#5,'AISC_EM11_Pset_Opening/Cope',$,(#119,#120,#121,#122));
#124= IFCCARTESIANPOINT((25712.7498481236,1602.3162756695,19350.));
#125= IFCDIRECTION((-0.00127341800025897,0.99999918920297,0.));
#126= IFCDIRECTION((0.99999918920297,0.00127341800025859,0.));
#127= IFCAXIS2PLACEMENT3D(#124,#125,#126);
#128= IFCLOCALPLACEMENT(#42,#127);
#129= IFCSHAPEREPRESENTATION(#12,'Body','MappedRepresentation',(#75,#78,#81,#84,#87,#90,#93,#96,#99,#102,#105,#108,#111,#114));
#130= IFCPRODUCTDEFINITIONSHAPE($,$,(#129));
#131= IFCOPENINGELEMENT('0sJbRHSFb3ZwHGtPGa$HR_',#5,$,$,'Opening',#128,#130,$);
#132= IFCRELVOIDSELEMENT('1XQOurb_n4EhrNnAUqBjI5',#5,'Drill Hole',$,#59,#131);
#133= IFCPROPERTYSINGLEVALUE('PieceMark',$,IFCIDENTIFIER('PLATE'),$);
#134= IFCPROPERTYSINGLEVALUE('IndicationMark',$,IFCIDENTIFIER('1112'),$);
#135= IFCPROPERTYSINGLEVALUE('PrelimMark',$,IFCIDENTIFIER(''),$);
#136= IFCPROPERTYSINGLEVALUE('MainPieceTag',$,IFCBOOLEAN(.T.),$);
#137= IFCPROPERTYSET('10HplOWAjESgHPbHnsi5uM',#5,'AISC_EM11_Pset_PieceIdentification','PieceIdentity',(#133,#134,#135,#136));
#138= IFCPROPERTYSINGLEVALUE('MaterialType',$,IFCIDENTIFIER('STEEL'),$);
#139= IFCPROPERTYSINGLEVALUE('MaterialGrade',$,IFCIDENTIFIER('S235JR'),$);
#140= IFCPROPERTYSET('2jGo8fyLXAJeKX5crqQGtk',#5,'AISC_EM11_Pset_Material',$,(#138,#139));
#141= IFCMATERIAL('STEEL/S235JR');
#142= IFCRELAGGREGATES('2Y61UuKvfA0gvJ59l_7U4S',#5,$,$,#37,(#39));
#143= IFCRELAGGREGATES('2qOJmAcBxSIyBbNR1GPmMk',#5,$,$,#39,(#41));
#144= IFCRELAGGREGATES('32etnncMD0tQVXHMborGUw',#5,$,$,#41,(#43));
#145= IFCRELCONTAINEDINSPATIALSTRUCTURE('3k2boaEZj4_hyl5mHc6hui',#5,$,$,(#59),#43);
#146= IFCRELDEFINESBYPROPERTIES('3mig_NbHjE7hC5DGVz44vv',#5,$,$,(#131,#117),#123);
#147= IFCRELDEFINESBYPROPERTIES('0IF9w03TjAxRrLbp6YdgOV',#5,$,$,(#59),#137);
#148= IFCRELDEFINESBYPROPERTIES('2NpseKKE98Mf9E1Spr1jEO',#5,$,$,(#59),#140);
#149= IFCRELASSOCIATESMATERIAL('31H0cx1vn7nwnPKlCUm7_0',#5,$,$,(#59),#141);
ENDSEC;

END-ISO-10303-21;
