ISO-10303-21;
HEADER;
FILE_DESCRIPTION(('ViewDefinition[AISC_Steel_Detailing]', 'Option [BaseQuantities:Off]', 'Option [GridExport:On]', 'Option [Assemblies:Off]', 'Option [Bolts:On]', 'Option [Rebars:On]', 'Option [PourObjects:Off]', 'Option [Welds:On]', 'Option [SurfaceTreatments:On]', 'Option [LocationBy:0]', 'Option [ViewColors:Off]', 'Option [SectionedSpine:Off]', 'Option [PropertySets:On]', 'Option [Export all:Off]'),'2;1');
FILE_NAME('1113_Qty_1.ifc','2026-05-16T11:52:57',('GIOVANNIPC\\gcorrea'),('Structural Designer'),'IFC Database version: Work','Tekla Structures 2020 Service Pack 5, IFC Export Version: 4.0.0.0 Dec  7 2020','');
FILE_SCHEMA(('IFC2X3'));
ENDSEC;

DATA;
#1= IFCPERSON('GIOVANNIPC\\gcorrea','Undefined',$,$,$,$,$,$);
#2= IFCORGANIZATION($,'Trimble Solutions Corporation',$,$,$);
#3= IFCPERSONANDORGANIZATION(#1,#2,$);
#4= IFCAPPLICATION(#2,'2020 Service Pack 5','Tekla Structures','Multi material modeling');
#5= IFCOWNERHISTORY(#3,#4,$,.NOCHANGE.,$,$,$,1778950377);
#6= IFCCARTESIANPOINT((0.,0.,0.));
#7= IFCDIRECTION((1.,0.,0.));
#8= IFCDIRECTION((0.,1.,0.));
#9= IFCDIRECTION((0.,0.,1.));
#10= IFCAXIS2PLACEMENT3D(#6,#9,#7);
#11= IFCGEOMETRICREPRESENTATIONCONTEXT($,'Model',3,1.E-05,#10,$);
#12= IFCGEOMETRICREPRESENTATIONSUBCONTEXT('Body','Model',*,*,*,*,#11,$,.MODEL_VIEW.,$);
#13= IFCGEOMETRICREPRESENTATIONSUBCONTEXT('Axis','Model',*,*,*,*,#11,$,.GRAPH_VIEW.,$);
#14= IFCGEOMETRICREPRESENTATIONSUBCONTEXT('FootPrint','Model',*,*,*,*,#11,$,.MODEL_VIEW.,$);
#15= IFCSIUNIT(*,.LENGTHUNIT.,.MILLI.,.METRE.);
#16= IFCMEASUREWITHUNIT(IFCRATIOMEASURE(304.8),#15);
#17= IFCDIMENSIONALEXPONENTS(1,0,0,0,0,0,0);
#18= IFCCONVERSIONBASEDUNIT(#17,.LENGTHUNIT.,'FOOT',#16);
#19= IFCSIUNIT(*,.AREAUNIT.,$,.SQUARE_METRE.);
#20= IFCMEASUREWITHUNIT(IFCRATIOMEASURE(0.09290304),#19);
#21= IFCDIMENSIONALEXPONENTS(2,0,0,0,0,0,0);
#22= IFCCONVERSIONBASEDUNIT(#21,.AREAUNIT.,'SQUARE FOOT',#20);
#23= IFCSIUNIT(*,.VOLUMEUNIT.,$,.CUBIC_METRE.);
#24= IFCMEASUREWITHUNIT(IFCRATIOMEASURE(0.028316846592),#23);
#25= IFCDIMENSIONALEXPONENTS(3,0,0,0,0,0,0);
#26= IFCCONVERSIONBASEDUNIT(#25,.VOLUMEUNIT.,'CUBIC FOOT',#24);
#27= IFCSIUNIT(*,.MASSUNIT.,.KILO.,.GRAM.);
#28= IFCSIUNIT(*,.TIMEUNIT.,$,.SECOND.);
#29= IFCSIUNIT(*,.PLANEANGLEUNIT.,$,.RADIAN.);
#30= IFCMEASUREWITHUNIT(IFCRATIOMEASURE(0.0174532925199433),#29);
#31= IFCDIMENSIONALEXPONENTS(0,0,0,0,0,0,0);
#32= IFCCONVERSIONBASEDUNIT(#31,.PLANEANGLEUNIT.,'DEGREE',#30);
#33= IFCSIUNIT(*,.SOLIDANGLEUNIT.,$,.STERADIAN.);
#34= IFCSIUNIT(*,.THERMODYNAMICTEMPERATUREUNIT.,$,.DEGREE_CELSIUS.);
#35= IFCSIUNIT(*,.LUMINOUSINTENSITYUNIT.,$,.LUMEN.);
#36= IFCUNITASSIGNMENT((#15,#19,#23,#27,#28,#29,#33,#34,#35));
#37= IFCPROJECT('2G7ZFDNE16yBDU14FA92Me',#5,'Proyecto',$,$,$,$,(#11),#36);
#38= IFCLOCALPLACEMENT($,#10);
#39= IFCSITE('2xvEzEinjBTea80yOTcujY',#5,'Obra',$,$,#38,$,$,.ELEMENT.,$,$,$,$,$);
#40= IFCLOCALPLACEMENT(#38,#10);
#41= IFCBUILDING('0BMx0lXAjAngShc4fqkHiP',#5,'Undefined',$,$,#40,$,$,.ELEMENT.,$,$,$);
#42= IFCLOCALPLACEMENT(#40,#10);
#43= IFCBUILDINGSTOREY('29hdEUCErFze9E_VIAceOd',#5,'Undefined',$,$,#42,$,$,.ELEMENT.,0.);
#44= IFCOWNERHISTORY(#3,#4,$,.NOCHANGE.,$,$,$,1773241200);
#45= IFCCARTESIANPOINT((55500.9417663211,1508.3788134376,13909.5));
#46= IFCDIRECTION((0.000442437000055893,0.999999902124746,0.));
#47= IFCAXIS2PLACEMENT3D(#45,#9,#46);
#48= IFCLOCALPLACEMENT(#42,#47);
#49= IFCCARTESIANPOINT((0.,0.));
#50= IFCCARTESIANPOINT((699.959106445286,1.28784449771047E-09));
#51= IFCCARTESIANPOINT((699.766601562474,241.597991944182));
#52= IFCCARTESIANPOINT((-0.190935760736238,239.999923705611));
#53= IFCPOLYLINE((#49,#50,#51,#52,#49));
#54= IFCARBITRARYCLOSEDPROFILEDEF(.AREA.,'PL19*242',#53);
#55= IFCCARTESIANPOINT((0.,0.,-9.5));
#56= IFCAXIS2PLACEMENT3D(#55,#9,#7);
#57= IFCEXTRUDEDAREASOLID(#54,#56,#9,19.);
#58= IFCSHAPEREPRESENTATION(#12,'Body','SweptSolid',(#57));
#59= IFCPRODUCTDEFINITIONSHAPE($,$,(#58));
#60= IFCPLATE('29OQDplyb7rgyBCGUGXk53',#44,'PLATE','PL19*242','PL19*242',#48,#59,'ID8961a373-bfc9-47d6-af0b-31079086e143');
#61= IFCCARTESIANPOINT((55380.7721822118,1748.3363795111,13900.));
#62= IFCDIRECTION((0.999999803481876,0.000626926000306638,0.));
#63= IFCDIRECTION((-0.000626926000306636,0.999999803481876,0.));
#64= IFCAXIS2PLACEMENT3D(#61,#62,#63);
#65= IFCLOCALPLACEMENT(#42,#64);
#66= IFCDIRECTION((1.,0.));
#67= IFCAXIS2PLACEMENT2D(#49,#66);
#68= IFCCIRCLEPROFILEDEF(.AREA.,$,#67,11.);
#69= IFCCARTESIANPOINT((0.,-0.09999999999973,0.));
#70= IFCAXIS2PLACEMENT3D(#69,#8,#7);
#71= IFCEXTRUDEDAREASOLID(#68,#70,#9,19.2);
#72= IFCSHAPEREPRESENTATION(#12,'Body','SweptSolid',(#71));
#73= IFCREPRESENTATIONMAP(#10,#72);
#74= IFCCARTESIANPOINT((0.,0.,-75.0000000002692));
#75= IFCCARTESIANTRANSFORMATIONOPERATOR3D($,$,#74,$,$);
#76= IFCMAPPEDITEM(#73,#75);
#77= IFCCARTESIANPOINT((69.999999999995,0.,-75.00000000008));
#78= IFCCARTESIANTRANSFORMATIONOPERATOR3D($,$,#77,$,$);
#79= IFCMAPPEDITEM(#73,#78);
#80= IFCCARTESIANPOINT((139.99999999999,0.,-74.9999999998909));
#81= IFCCARTESIANTRANSFORMATIONOPERATOR3D($,$,#80,$,$);
#82= IFCMAPPEDITEM(#73,#81);
#83= IFCCARTESIANPOINT((209.999999999985,0.,-74.9999999996944));
#84= IFCCARTESIANTRANSFORMATIONOPERATOR3D($,$,#83,$,$);
#85= IFCMAPPEDITEM(#73,#84);
#86= IFCCARTESIANPOINT((279.99999999998,0.,-74.9999999995052));
#87= IFCCARTESIANTRANSFORMATIONOPERATOR3D($,$,#86,$,$);
#88= IFCMAPPEDITEM(#73,#87);
#89= IFCCARTESIANPOINT((349.999999999975,0.,-74.9999999993161));
#90= IFCCARTESIANTRANSFORMATIONOPERATOR3D($,$,#89,$,$);
#91= IFCMAPPEDITEM(#73,#90);
#92= IFCCARTESIANPOINT((419.99999999997,0.,-74.9999999991269));
#93= IFCCARTESIANTRANSFORMATIONOPERATOR3D($,$,#92,$,$);
#94= IFCMAPPEDITEM(#73,#93);
#95= IFCCARTESIANPOINT((0.,0.,75.0000000002692));
#96= IFCCARTESIANTRANSFORMATIONOPERATOR3D($,$,#95,$,$);
#97= IFCMAPPEDITEM(#73,#96);
#98= IFCCARTESIANPOINT((69.999999999995,0.,75.0000000004584));
#99= IFCCARTESIANTRANSFORMATIONOPERATOR3D($,$,#98,$,$);
#100= IFCMAPPEDITEM(#73,#99);
#101= IFCCARTESIANPOINT((139.99999999999,0.,75.0000000006476));
#102= IFCCARTESIANTRANSFORMATIONOPERATOR3D($,$,#101,$,$);
#103= IFCMAPPEDITEM(#73,#102);
#104= IFCCARTESIANPOINT((209.999999999985,0.,75.0000000008367));
#105= IFCCARTESIANTRANSFORMATIONOPERATOR3D($,$,#104,$,$);
#106= IFCMAPPEDITEM(#73,#105);
#107= IFCCARTESIANPOINT((279.99999999998,0.,75.0000000010332));
#108= IFCCARTESIANTRANSFORMATIONOPERATOR3D($,$,#107,$,$);
#109= IFCMAPPEDITEM(#73,#108);
#110= IFCCARTESIANPOINT((349.999999999975,0.,75.0000000012224));
#111= IFCCARTESIANTRANSFORMATIONOPERATOR3D($,$,#110,$,$);
#112= IFCMAPPEDITEM(#73,#111);
#113= IFCCARTESIANPOINT((419.99999999997,0.,75.0000000014115));
#114= IFCCARTESIANTRANSFORMATIONOPERATOR3D($,$,#113,$,$);
#115= IFCMAPPEDITEM(#73,#114);
#116= IFCSHAPEREPRESENTATION(#12,'Body','MappedRepresentation',(#76,#79,#82,#85,#88,#91,#94,#97,#100,#103,#106,#109,#112,#115));
#117= IFCPRODUCTDEFINITIONSHAPE($,$,(#116));
#118= IFCOPENINGELEMENT('2v0jZjU4L01R7q6bR$T$uQ',#5,$,$,'Opening',#65,#117,$);
#119= IFCRELVOIDSELEMENT('0iFm1Zp0zFLQIT0qB$5wDD',#5,'Drill Hole',$,#60,#118);
#120= IFCPROPERTYSINGLEVALUE('FeatureSubTypes',$,IFCLABEL('TORNILLO'),$);
#121= IFCPROPERTYSINGLEVALUE('RectangleOpeningWidth',$,$,$);
#122= IFCPROPERTYSINGLEVALUE('RectangleOpeningHeight',$,$,$);
#123= IFCPROPERTYSINGLEVALUE('OpeningDiameter',$,$,$);
#124= IFCPROPERTYSET('3Nel2QImXCKBPCAeXgjYQM',#5,'AISC_EM11_Pset_Opening/Cope',$,(#120,#121,#122,#123));
#125= IFCPROPERTYSINGLEVALUE('PieceMark',$,IFCIDENTIFIER('PLATE'),$);
#126= IFCPROPERTYSINGLEVALUE('IndicationMark',$,IFCIDENTIFIER('1113'),$);
#127= IFCPROPERTYSINGLEVALUE('PrelimMark',$,IFCIDENTIFIER(''),$);
#128= IFCPROPERTYSINGLEVALUE('MainPieceTag',$,IFCBOOLEAN(.F.),$);
#129= IFCPROPERTYSET('1nvWA9wTbFkegtYGzry_Yu',#5,'AISC_EM11_Pset_PieceIdentification','PieceIdentity',(#125,#126,#127,#128));
#130= IFCPROPERTYSINGLEVALUE('MaterialType',$,IFCIDENTIFIER('STEEL'),$);
#131= IFCPROPERTYSINGLEVALUE('MaterialGrade',$,IFCIDENTIFIER('S235JR'),$);
#132= IFCPROPERTYSET('3jMRHkSZH06gPlc$mZczoQ',#5,'AISC_EM11_Pset_Material',$,(#130,#131));
#133= IFCMATERIAL('STEEL/S235JR');
#134= IFCRELAGGREGATES('1g$aWAVnT87802mcP4XId6',#5,$,$,#37,(#39));
#135= IFCRELAGGREGATES('2yHsoSn3lQPQIK2uhMpavO',#5,$,$,#39,(#41));
#136= IFCRELAGGREGATES('0YAIsjKOz3DgFitlc0fQax',#5,$,$,#41,(#43));
#137= IFCRELCONTAINEDINSPATIALSTRUCTURE('2dfEPZh$nDm9f9VdnllQQq',#5,$,$,(#60),#43);
#138= IFCRELDEFINESBYPROPERTIES('3Djh6teAv3eBEV492Hl1Dz',#5,$,$,(#118),#124);
#139= IFCRELDEFINESBYPROPERTIES('3xMtleYHbEPfgqtepA3k7D',#5,$,$,(#60),#129);
#140= IFCRELDEFINESBYPROPERTIES('3lzoge7Gz2n9fIK26$qvWm',#5,$,$,(#60),#132);
#141= IFCRELASSOCIATESMATERIAL('2vZdHr0Wn1SO1O4e12OwaR',#5,$,$,(#60),#133);
ENDSEC;

END-ISO-10303-21;
