ISO-10303-21;
HEADER;
FILE_DESCRIPTION(('ViewDefinition[AISC_Steel_Detailing]', 'Option [BaseQuantities:Off]', 'Option [GridExport:On]', 'Option [Assemblies:Off]', 'Option [Bolts:On]', 'Option [Rebars:On]', 'Option [PourObjects:Off]', 'Option [Welds:On]', 'Option [SurfaceTreatments:On]', 'Option [LocationBy:0]', 'Option [ViewColors:Off]', 'Option [SectionedSpine:Off]', 'Option [PropertySets:On]', 'Option [Export all:Off]'),'2;1');
FILE_NAME('1121_Qty_1.ifc','2026-05-16T11:52:57',('GIOVANNIPC\\gcorrea'),('Structural Designer'),'IFC Database version: Work','Tekla Structures 2020 Service Pack 5, IFC Export Version: 4.0.0.0 Dec  7 2020','');
FILE_SCHEMA(('IFC2X3'));
ENDSEC;

DATA;
#1= IFCPERSON('GIOVANNIPC\\gcorrea','Undefined',$,$,$,$,$,$);
#2= IFCORGANIZATION($,'Trimble Solutions Corporation',$,$,$);
#3= IFCPERSONANDORGANIZATION(#1,#2,$);
#4= IFCAPPLICATION(#2,'2020 Service Pack 5','Tekla Structures','Multi material modeling');
#5= IFCOWNERHISTORY(#3,#4,$,.NOCHANGE.,$,$,$,1778950377);
#6= IFCCARTESIANPOINT((0.,0.,0.));
#7= IFCDIRECTION((1.,0.,0.));
#8= IFCDIRECTION((0.,1.,0.));
#9= IFCDIRECTION((0.,0.,1.));
#10= IFCAXIS2PLACEMENT3D(#6,#9,#7);
#11= IFCGEOMETRICREPRESENTATIONCONTEXT($,'Model',3,1.E-05,#10,$);
#12= IFCGEOMETRICREPRESENTATIONSUBCONTEXT('Body','Model',*,*,*,*,#11,$,.MODEL_VIEW.,$);
#13= IFCGEOMETRICREPRESENTATIONSUBCONTEXT('Axis','Model',*,*,*,*,#11,$,.GRAPH_VIEW.,$);
#14= IFCGEOMETRICREPRESENTATIONSUBCONTEXT('FootPrint','Model',*,*,*,*,#11,$,.MODEL_VIEW.,$);
#15= IFCSIUNIT(*,.LENGTHUNIT.,.MILLI.,.METRE.);
#16= IFCMEASUREWITHUNIT(IFCRATIOMEASURE(304.8),#15);
#17= IFCDIMENSIONALEXPONENTS(1,0,0,0,0,0,0);
#18= IFCCONVERSIONBASEDUNIT(#17,.LENGTHUNIT.,'FOOT',#16);
#19= IFCSIUNIT(*,.AREAUNIT.,$,.SQUARE_METRE.);
#20= IFCMEASUREWITHUNIT(IFCRATIOMEASURE(0.09290304),#19);
#21= IFCDIMENSIONALEXPONENTS(2,0,0,0,0,0,0);
#22= IFCCONVERSIONBASEDUNIT(#21,.AREAUNIT.,'SQUARE FOOT',#20);
#23= IFCSIUNIT(*,.VOLUMEUNIT.,$,.CUBIC_METRE.);
#24= IFCMEASUREWITHUNIT(IFCRATIOMEASURE(0.028316846592),#23);
#25= IFCDIMENSIONALEXPONENTS(3,0,0,0,0,0,0);
#26= IFCCONVERSIONBASEDUNIT(#25,.VOLUMEUNIT.,'CUBIC FOOT',#24);
#27= IFCSIUNIT(*,.MASSUNIT.,.KILO.,.GRAM.);
#28= IFCSIUNIT(*,.TIMEUNIT.,$,.SECOND.);
#29= IFCSIUNIT(*,.PLANEANGLEUNIT.,$,.RADIAN.);
#30= IFCMEASUREWITHUNIT(IFCRATIOMEASURE(0.0174532925199433),#29);
#31= IFCDIMENSIONALEXPONENTS(0,0,0,0,0,0,0);
#32= IFCCONVERSIONBASEDUNIT(#31,.PLANEANGLEUNIT.,'DEGREE',#30);
#33= IFCSIUNIT(*,.SOLIDANGLEUNIT.,$,.STERADIAN.);
#34= IFCSIUNIT(*,.THERMODYNAMICTEMPERATUREUNIT.,$,.DEGREE_CELSIUS.);
#35= IFCSIUNIT(*,.LUMINOUSINTENSITYUNIT.,$,.LUMEN.);
#36= IFCUNITASSIGNMENT((#15,#19,#23,#27,#28,#29,#33,#34,#35));
#37= IFCPROJECT('2G7ZFDNE16yBDU14FA92Me',#5,'Proyecto',$,$,$,$,(#11),#36);
#38= IFCLOCALPLACEMENT($,#10);
#39= IFCSITE('2xvEzEinjBTea80yOTcujY',#5,'Obra',$,$,#38,$,$,.ELEMENT.,$,$,$,$,$);
#40= IFCLOCALPLACEMENT(#38,#10);
#41= IFCBUILDING('0ZbjIdCG12RPZ14Ig4HDjc',#5,'Undefined',$,$,#40,$,$,.ELEMENT.,$,$,$);
#42= IFCLOCALPLACEMENT(#40,#10);
#43= IFCBUILDINGSTOREY('29hdEUCErFze9E_VIAceOd',#5,'Undefined',$,$,#42,$,$,.ELEMENT.,0.);
#44= IFCOWNERHISTORY(#3,#4,$,.NOCHANGE.,$,$,$,1772658000);
#45= IFCCARTESIANPOINT((77482.9824701034,1473.4319102145,13450.5));
#46= IFCAXIS2PLACEMENT3D(#45,#9,#8);
#47= IFCLOCALPLACEMENT(#42,#46);
#48= IFCCARTESIANPOINT((0.,0.));
#49= IFCCARTESIANPOINT((250.,0.));
#50= IFCCARTESIANPOINT((249.691223144531,1966.20336914063));
#51= IFCCARTESIANPOINT((249.666961669922,1965.97387695313));
#52= IFCCARTESIANPOINT((-0.333040356636047,1965.9560546875));
#53= IFCPOLYLINE((#48,#49,#50,#51,#52,#48));
#54= IFCARBITRARYCLOSEDPROFILEDEF(.AREA.,'PL19*250',#53);
#55= IFCCARTESIANPOINT((0.,0.,-9.5));
#56= IFCAXIS2PLACEMENT3D(#55,#9,#7);
#57= IFCEXTRUDEDAREASOLID(#54,#56,#9,19.);
#58= IFCSHAPEREPRESENTATION(#12,'Body','SweptSolid',(#57));
#59= IFCPRODUCTDEFINITIONSHAPE($,$,(#58));
#60= IFCPLATE('2eveqteKjBgwdNvAk5YEs$',#44,'PLATE','PL19*250','PL19*250',#47,#59,'IDa8e68d37-a14b-4bab-a9d7-e4ab8588edbf');
#61= IFCCARTESIANPOINT((76232.0175084489,1598.09887499048,13460.));
#62= IFCDIRECTION((-7.12890000286279E-05,0.999999997458939,0.));
#63= IFCDIRECTION((-0.999999997458939,-7.12890000326365E-05,0.));
#64= IFCAXIS2PLACEMENT3D(#61,#62,#63);
#65= IFCLOCALPLACEMENT(#42,#64);
#66= IFCDIRECTION((1.,0.));
#67= IFCAXIS2PLACEMENT2D(#48,#66);
#68= IFCCIRCLEPROFILEDEF(.AREA.,$,#67,11.5);
#69= IFCCARTESIANPOINT((0.,-19.1,0.));
#70= IFCAXIS2PLACEMENT3D(#69,#8,#7);
#71= IFCEXTRUDEDAREASOLID(#68,#70,#9,19.2);
#72= IFCSHAPEREPRESENTATION(#12,'Body','SweptSolid',(#71));
#73= IFCREPRESENTATIONMAP(#10,#72);
#74= IFCCARTESIANPOINT((2.3283064365387E-10,0.,74.9999999999898));
#75= IFCCARTESIANTRANSFORMATIONOPERATOR3D($,$,#74,$,$);
#76= IFCMAPPEDITEM(#73,#75);
#77= IFCCARTESIANPOINT((74.9999999994034,0.,75.0000000004675));
#78= IFCCARTESIANTRANSFORMATIONOPERATOR3D($,$,#77,$,$);
#79= IFCMAPPEDITEM(#73,#78);
#80= IFCCARTESIANPOINT((149.999999998574,0.,75.0000000009447));
#81= IFCCARTESIANTRANSFORMATIONOPERATOR3D($,$,#80,$,$);
#82= IFCMAPPEDITEM(#73,#81);
#83= IFCCARTESIANPOINT((224.999999997744,0.,75.0000000014222));
#84= IFCCARTESIANTRANSFORMATIONOPERATOR3D($,$,#83,$,$);
#85= IFCMAPPEDITEM(#73,#84);
#86= IFCCARTESIANPOINT((299.999999996915,0.,75.0000000018997));
#87= IFCCARTESIANTRANSFORMATIONOPERATOR3D($,$,#86,$,$);
#88= IFCMAPPEDITEM(#73,#87);
#89= IFCCARTESIANPOINT((374.999999996086,0.,75.0000000023772));
#90= IFCCARTESIANTRANSFORMATIONOPERATOR3D($,$,#89,$,$);
#91= IFCMAPPEDITEM(#73,#90);
#92= IFCCARTESIANPOINT((449.999999995256,0.,75.0000000028547));
#93= IFCCARTESIANTRANSFORMATIONOPERATOR3D($,$,#92,$,$);
#94= IFCMAPPEDITEM(#73,#93);
#95= IFCCARTESIANPOINT((524.999999994427,0.,75.0000000033319));
#96= IFCCARTESIANTRANSFORMATIONOPERATOR3D($,$,#95,$,$);
#97= IFCMAPPEDITEM(#73,#96);
#98= IFCCARTESIANPOINT((599.999999993597,0.,75.0000000038094));
#99= IFCCARTESIANTRANSFORMATIONOPERATOR3D($,$,#98,$,$);
#100= IFCMAPPEDITEM(#73,#99);
#101= IFCCARTESIANPOINT((674.999999992768,0.,75.0000000042871));
#102= IFCCARTESIANTRANSFORMATIONOPERATOR3D($,$,#101,$,$);
#103= IFCMAPPEDITEM(#73,#102);
#104= IFCCARTESIANPOINT((-2.47382558882236E-10,0.,-74.99999999999));
#105= IFCCARTESIANTRANSFORMATIONOPERATOR3D($,$,#104,$,$);
#106= IFCMAPPEDITEM(#73,#105);
#107= IFCCARTESIANPOINT((74.9999999989232,0.,-74.9999999995125));
#108= IFCCARTESIANTRANSFORMATIONOPERATOR3D($,$,#107,$,$);
#109= IFCMAPPEDITEM(#73,#108);
#110= IFCCARTESIANPOINT((149.999999998094,0.,-74.9999999990353));
#111= IFCCARTESIANTRANSFORMATIONOPERATOR3D($,$,#110,$,$);
#112= IFCMAPPEDITEM(#73,#111);
#113= IFCCARTESIANPOINT((224.999999997264,0.,-74.9999999985575));
#114= IFCCARTESIANTRANSFORMATIONOPERATOR3D($,$,#113,$,$);
#115= IFCMAPPEDITEM(#73,#114);
#116= IFCCARTESIANPOINT((299.999999996449,0.,-74.9999999980801));
#117= IFCCARTESIANTRANSFORMATIONOPERATOR3D($,$,#116,$,$);
#118= IFCMAPPEDITEM(#73,#117);
#119= IFCCARTESIANPOINT((374.99999999562,0.,-74.9999999976026));
#120= IFCCARTESIANTRANSFORMATIONOPERATOR3D($,$,#119,$,$);
#121= IFCMAPPEDITEM(#73,#120);
#122= IFCCARTESIANPOINT((449.99999999479,0.,-74.9999999971253));
#123= IFCCARTESIANTRANSFORMATIONOPERATOR3D($,$,#122,$,$);
#124= IFCMAPPEDITEM(#73,#123);
#125= IFCCARTESIANPOINT((524.999999993961,0.,-74.9999999966478));
#126= IFCCARTESIANTRANSFORMATIONOPERATOR3D($,$,#125,$,$);
#127= IFCMAPPEDITEM(#73,#126);
#128= IFCCARTESIANPOINT((599.999999993131,0.,-74.9999999961703));
#129= IFCCARTESIANTRANSFORMATIONOPERATOR3D($,$,#128,$,$);
#130= IFCMAPPEDITEM(#73,#129);
#131= IFCCARTESIANPOINT((674.999999992302,0.,-74.9999999956929));
#132= IFCCARTESIANTRANSFORMATIONOPERATOR3D($,$,#131,$,$);
#133= IFCMAPPEDITEM(#73,#132);
#134= IFCSHAPEREPRESENTATION(#12,'Body','MappedRepresentation',(#76,#79,#82,#85,#88,#91,#94,#97,#100,#103,#106,#109,#112,#115,#118,#121,#124,#127,#130,#133));
#135= IFCPRODUCTDEFINITIONSHAPE($,$,(#134));
#136= IFCOPENINGELEMENT('0FIEbHq4vBXAKlrKY2wRVP',#5,$,$,'Opening',#65,#135,$);
#137= IFCRELVOIDSELEMENT('3FAXA3Y7DBCQzPXP42Op2P',#5,'Drill Hole',$,#60,#136);
#138= IFCPROPERTYSINGLEVALUE('FeatureSubTypes',$,IFCLABEL('TORNILLO'),$);
#139= IFCPROPERTYSINGLEVALUE('RectangleOpeningWidth',$,$,$);
#140= IFCPROPERTYSINGLEVALUE('RectangleOpeningHeight',$,$,$);
#141= IFCPROPERTYSINGLEVALUE('OpeningDiameter',$,$,$);
#142= IFCPROPERTYSET('3cVbR60Q1C_PDQwcpiSEPb',#5,'AISC_EM11_Pset_Opening/Cope',$,(#138,#139,#140,#141));
#143= IFCCARTESIANPOINT((76767.9824510498,1598.09887583772,13460.));
#144= IFCDIRECTION((0.,-1.,0.));
#145= IFCAXIS2PLACEMENT3D(#143,#144,#7);
#146= IFCLOCALPLACEMENT(#42,#145);
#147= IFCSHAPEREPRESENTATION(#12,'Body','MappedRepresentation',(#76,#79,#82,#85,#88,#91,#94,#97,#100,#103,#106,#109,#112,#115,#118,#121,#124,#127,#130,#133));
#148= IFCPRODUCTDEFINITIONSHAPE($,$,(#147));
#149= IFCOPENINGELEMENT('1prEVt8296xR6nFdKaemM0',#5,$,$,'Opening',#146,#148,$);
#150= IFCRELVOIDSELEMENT('0A3RLQ7cXCsRK6TLZlkO0u',#5,'Drill Hole',$,#60,#149);
#151= IFCPROPERTYSINGLEVALUE('PieceMark',$,IFCIDENTIFIER('PLATE'),$);
#152= IFCPROPERTYSINGLEVALUE('IndicationMark',$,IFCIDENTIFIER('1121'),$);
#153= IFCPROPERTYSINGLEVALUE('PrelimMark',$,IFCIDENTIFIER(''),$);
#154= IFCPROPERTYSINGLEVALUE('MainPieceTag',$,IFCBOOLEAN(.F.),$);
#155= IFCPROPERTYSET('0tABRNu0HBTPBaPLxq0dDr',#5,'AISC_EM11_Pset_PieceIdentification','PieceIdentity',(#151,#152,#153,#154));
#156= IFCPROPERTYSINGLEVALUE('MaterialType',$,IFCIDENTIFIER('STEEL'),$);
#157= IFCPROPERTYSINGLEVALUE('MaterialGrade',$,IFCIDENTIFIER('S235JR'),$);
#158= IFCPROPERTYSET('0nRAhtTILCTAmOJUTKeoog',#5,'AISC_EM11_Pset_Material',$,(#156,#157));
#159= IFCMATERIAL('STEEL/S235JR');
#160= IFCRELAGGREGATES('2zGoJirWbDtR$tsVx$XdNH',#5,$,$,#37,(#39));
#161= IFCRELAGGREGATES('2FY4b_7otV9jH98nDHpvfZ',#5,$,$,#39,(#41));
#162= IFCRELAGGREGATES('3u0fQ0cx175g3JkoO1Fz0_',#5,$,$,#41,(#43));
#163= IFCRELCONTAINEDINSPATIALSTRUCTURE('0wnYWQry10xRdjSgefFrNz',#5,$,$,(#60),#43);
#164= IFCRELDEFINESBYPROPERTIES('3NWQgYnfb2fBr8EyEPeUm4',#5,$,$,(#149,#136),#142);
#165= IFCRELDEFINESBYPROPERTIES('1JLaI3nWv54RT6Dd2_pPDr',#5,$,$,(#60),#155);
#166= IFCRELDEFINESBYPROPERTIES('2VrscslrPAyR9YnRkdkR4k',#5,$,$,(#60),#158);
#167= IFCRELASSOCIATESMATERIAL('3xNF5iVTrDtxxd$kwItG6h',#5,$,$,(#60),#159);
ENDSEC;

END-ISO-10303-21;
