ISO-10303-21;
HEADER;
FILE_DESCRIPTION(('ViewDefinition[AISC_Steel_Detailing]', 'Option [BaseQuantities:Off]', 'Option [GridExport:On]', 'Option [Assemblies:Off]', 'Option [Bolts:On]', 'Option [Rebars:On]', 'Option [PourObjects:Off]', 'Option [Welds:On]', 'Option [SurfaceTreatments:On]', 'Option [LocationBy:0]', 'Option [ViewColors:Off]', 'Option [SectionedSpine:Off]', 'Option [PropertySets:On]', 'Option [Export all:Off]'),'2;1');
FILE_NAME('1122_Qty_1.ifc','2026-05-16T11:52:57',('GIOVANNIPC\\gcorrea'),('Structural Designer'),'IFC Database version: Work','Tekla Structures 2020 Service Pack 5, IFC Export Version: 4.0.0.0 Dec  7 2020','');
FILE_SCHEMA(('IFC2X3'));
ENDSEC;

DATA;
#1= IFCPERSON('GIOVANNIPC\\gcorrea','Undefined',$,$,$,$,$,$);
#2= IFCORGANIZATION($,'Trimble Solutions Corporation',$,$,$);
#3= IFCPERSONANDORGANIZATION(#1,#2,$);
#4= IFCAPPLICATION(#2,'2020 Service Pack 5','Tekla Structures','Multi material modeling');
#5= IFCOWNERHISTORY(#3,#4,$,.NOCHANGE.,$,$,$,1778950377);
#6= IFCCARTESIANPOINT((0.,0.,0.));
#7= IFCDIRECTION((1.,0.,0.));
#8= IFCDIRECTION((0.,1.,0.));
#9= IFCDIRECTION((0.,0.,1.));
#10= IFCAXIS2PLACEMENT3D(#6,#9,#7);
#11= IFCGEOMETRICREPRESENTATIONCONTEXT($,'Model',3,1.E-05,#10,$);
#12= IFCGEOMETRICREPRESENTATIONSUBCONTEXT('Body','Model',*,*,*,*,#11,$,.MODEL_VIEW.,$);
#13= IFCGEOMETRICREPRESENTATIONSUBCONTEXT('Axis','Model',*,*,*,*,#11,$,.GRAPH_VIEW.,$);
#14= IFCGEOMETRICREPRESENTATIONSUBCONTEXT('FootPrint','Model',*,*,*,*,#11,$,.MODEL_VIEW.,$);
#15= IFCSIUNIT(*,.LENGTHUNIT.,.MILLI.,.METRE.);
#16= IFCMEASUREWITHUNIT(IFCRATIOMEASURE(304.8),#15);
#17= IFCDIMENSIONALEXPONENTS(1,0,0,0,0,0,0);
#18= IFCCONVERSIONBASEDUNIT(#17,.LENGTHUNIT.,'FOOT',#16);
#19= IFCSIUNIT(*,.AREAUNIT.,$,.SQUARE_METRE.);
#20= IFCMEASUREWITHUNIT(IFCRATIOMEASURE(0.09290304),#19);
#21= IFCDIMENSIONALEXPONENTS(2,0,0,0,0,0,0);
#22= IFCCONVERSIONBASEDUNIT(#21,.AREAUNIT.,'SQUARE FOOT',#20);
#23= IFCSIUNIT(*,.VOLUMEUNIT.,$,.CUBIC_METRE.);
#24= IFCMEASUREWITHUNIT(IFCRATIOMEASURE(0.028316846592),#23);
#25= IFCDIMENSIONALEXPONENTS(3,0,0,0,0,0,0);
#26= IFCCONVERSIONBASEDUNIT(#25,.VOLUMEUNIT.,'CUBIC FOOT',#24);
#27= IFCSIUNIT(*,.MASSUNIT.,.KILO.,.GRAM.);
#28= IFCSIUNIT(*,.TIMEUNIT.,$,.SECOND.);
#29= IFCSIUNIT(*,.PLANEANGLEUNIT.,$,.RADIAN.);
#30= IFCMEASUREWITHUNIT(IFCRATIOMEASURE(0.0174532925199433),#29);
#31= IFCDIMENSIONALEXPONENTS(0,0,0,0,0,0,0);
#32= IFCCONVERSIONBASEDUNIT(#31,.PLANEANGLEUNIT.,'DEGREE',#30);
#33= IFCSIUNIT(*,.SOLIDANGLEUNIT.,$,.STERADIAN.);
#34= IFCSIUNIT(*,.THERMODYNAMICTEMPERATUREUNIT.,$,.DEGREE_CELSIUS.);
#35= IFCSIUNIT(*,.LUMINOUSINTENSITYUNIT.,$,.LUMEN.);
#36= IFCUNITASSIGNMENT((#15,#19,#23,#27,#28,#29,#33,#34,#35));
#37= IFCPROJECT('2G7ZFDNE16yBDU14FA92Me',#5,'Proyecto',$,$,$,$,(#11),#36);
#38= IFCLOCALPLACEMENT($,#10);
#39= IFCSITE('2xvEzEinjBTea80yOTcujY',#5,'Obra',$,$,#38,$,$,.ELEMENT.,$,$,$,$,$);
#40= IFCLOCALPLACEMENT(#38,#10);
#41= IFCBUILDING('2C1tfn2mD8YvZVqWqnjotA',#5,'Undefined',$,$,#40,$,$,.ELEMENT.,$,$,$);
#42= IFCLOCALPLACEMENT(#40,#10);
#43= IFCBUILDINGSTOREY('29hdEUCErFze9E_VIAceOd',#5,'Undefined',$,$,#42,$,$,.ELEMENT.,0.);
#44= IFCOWNERHISTORY(#3,#4,$,.NOCHANGE.,$,$,$,1775070000);
#45= IFCCARTESIANPOINT((76349.9984102512,1828.38135910034,13909.5));
#46= IFCDIRECTION((-0.992107087043861,-0.125393492005545,0.));
#47= IFCAXIS2PLACEMENT3D(#45,#9,#46);
#48= IFCLOCALPLACEMENT(#42,#47);
#49= IFCCARTESIANPOINT((0.,0.));
#50= IFCCARTESIANPOINT((839.616821295087,-1.00189936347306E-08));
#51= IFCCARTESIANPOINT((870.947509774341,248.029006950055));
#52= IFCCARTESIANPOINT((57.3116340686538,453.455413817719));
#53= IFCCARTESIANPOINT((-240.320495602311,491.073455812591));
#54= IFCCARTESIANPOINT((-1079.53320312784,494.216705331912));
#55= IFCCARTESIANPOINT((-1110.88159180239,246.189926157457));
#56= IFCCARTESIANPOINT((-297.632141115056,37.6180458095714));
#57= IFCPOLYLINE((#49,#50,#51,#52,#53,#54,#55,#56,#49));
#58= IFCARBITRARYCLOSEDPROFILEDEF(.AREA.,'PL19*494',#57);
#59= IFCCARTESIANPOINT((0.,9.09494701772928E-13,-9.49999999999818));
#60= IFCAXIS2PLACEMENT3D(#59,#9,#7);
#61= IFCEXTRUDEDAREASOLID(#58,#60,#9,19.);
#62= IFCSHAPEREPRESENTATION(#12,'Body','SweptSolid',(#61));
#63= IFCPRODUCTDEFINITIONSHAPE($,$,(#62));
#64= IFCPLATE('0nsgOpebn50gzqJrJtjXXu',#44,'PLATE','PL19*494','PL19*494',#48,#63,'ID31daa633-a25c-4502-af74-4f54f7b61878');
#65= IFCCARTESIANPOINT((76500.,1428.37864089966,13900.));
#66= IFCDIRECTION((0.999999999921875,-1.25000000048204E-05,0.));
#67= IFCDIRECTION((-1.25000000047362E-05,-0.999999999921875,0.));
#68= IFCAXIS2PLACEMENT3D(#65,#66,#67);
#69= IFCLOCALPLACEMENT(#42,#68);
#70= IFCDIRECTION((1.,0.));
#71= IFCAXIS2PLACEMENT2D(#49,#70);
#72= IFCCIRCLEPROFILEDEF(.AREA.,$,#71,11.5);
#73= IFCCARTESIANPOINT((0.,-19.1,0.));
#74= IFCAXIS2PLACEMENT3D(#73,#8,#7);
#75= IFCEXTRUDEDAREASOLID(#72,#74,#9,19.2);
#76= IFCSHAPEREPRESENTATION(#12,'Body','SweptSolid',(#75));
#77= IFCREPRESENTATIONMAP(#10,#76);
#78= IFCCARTESIANPOINT((1.70530256582424E-11,0.,75.0000000008004));
#79= IFCCARTESIANTRANSFORMATIONOPERATOR3D($,$,#78,$,$);
#80= IFCMAPPEDITEM(#77,#79);
#81= IFCCARTESIANPOINT((-1.68256519827992E-11,0.,-75.0000000008004));
#82= IFCCARTESIANTRANSFORMATIONOPERATOR3D($,$,#81,$,$);
#83= IFCMAPPEDITEM(#77,#82);
#84= IFCSHAPEREPRESENTATION(#12,'Body','MappedRepresentation',(#80,#83));
#85= IFCPRODUCTDEFINITIONSHAPE($,$,(#84));
#86= IFCOPENINGELEMENT('1k_9IOFAv95AUa$KGrGife',#5,$,$,'Opening',#69,#85,$);
#87= IFCRELVOIDSELEMENT('3lnKmM51zDJffyLtM0dsX5',#5,'Drill Hole',$,#64,#86);
#88= IFCPROPERTYSINGLEVALUE('FeatureSubTypes',$,IFCLABEL('TORNILLO'),$);
#89= IFCPROPERTYSINGLEVALUE('RectangleOpeningWidth',$,$,$);
#90= IFCPROPERTYSINGLEVALUE('RectangleOpeningHeight',$,$,$);
#91= IFCPROPERTYSINGLEVALUE('OpeningDiameter',$,$,$);
#92= IFCPROPERTYSET('1_MMDS6gnDbRb6nUJB6$Sz',#5,'AISC_EM11_Pset_Opening/Cope',$,(#88,#89,#90,#91));
#93= IFCCARTESIANPOINT((76500.,1778.38135910034,13900.));
#94= IFCDIRECTION((-0.999999999921875,-1.25000000048204E-05,0.));
#95= IFCDIRECTION((-1.25000000047362E-05,0.999999999921875,0.));
#96= IFCAXIS2PLACEMENT3D(#93,#94,#95);
#97= IFCLOCALPLACEMENT(#42,#96);
#98= IFCSHAPEREPRESENTATION(#12,'Body','MappedRepresentation',(#83,#80));
#99= IFCPRODUCTDEFINITIONSHAPE($,$,(#98));
#100= IFCOPENINGELEMENT('3loNI42_XCxhRWJ8NMAwSb',#5,$,$,'Opening',#97,#99,$);
#101= IFCRELVOIDSELEMENT('3b8MGBHGr07QJ01z58VsMF',#5,'Drill Hole',$,#64,#100);
#102= IFCCARTESIANPOINT((76767.9824906517,1598.09887499054,13900.));
#103= IFCDIRECTION((7.13010000326904E-05,0.999999997458084,0.));
#104= IFCDIRECTION((0.999999997458084,-7.13010000327137E-05,0.));
#105= IFCAXIS2PLACEMENT3D(#102,#103,#104);
#106= IFCLOCALPLACEMENT(#42,#105);
#107= IFCCARTESIANPOINT((74.9999999999563,0.,74.9999999991292));
#108= IFCCARTESIANTRANSFORMATIONOPERATOR3D($,$,#107,$,$);
#109= IFCMAPPEDITEM(#77,#108);
#110= IFCCARTESIANPOINT((149.999999999258,0.,74.9999999982424));
#111= IFCCARTESIANTRANSFORMATIONOPERATOR3D($,$,#110,$,$);
#112= IFCMAPPEDITEM(#77,#111);
#113= IFCCARTESIANPOINT((224.999999998545,0.,74.9999999973556));
#114= IFCCARTESIANTRANSFORMATIONOPERATOR3D($,$,#113,$,$);
#115= IFCMAPPEDITEM(#77,#114);
#116= IFCCARTESIANPOINT((299.999999997846,0.,74.9999999964689));
#117= IFCCARTESIANTRANSFORMATIONOPERATOR3D($,$,#116,$,$);
#118= IFCMAPPEDITEM(#77,#117);
#119= IFCCARTESIANPOINT((374.999999997148,0.,74.9999999955821));
#120= IFCCARTESIANTRANSFORMATIONOPERATOR3D($,$,#119,$,$);
#121= IFCMAPPEDITEM(#77,#120);
#122= IFCCARTESIANPOINT((449.999999996449,0.,74.9999999946951));
#123= IFCCARTESIANTRANSFORMATIONOPERATOR3D($,$,#122,$,$);
#124= IFCMAPPEDITEM(#77,#123);
#125= IFCCARTESIANPOINT((524.999999995751,0.,74.9999999938084));
#126= IFCCARTESIANTRANSFORMATIONOPERATOR3D($,$,#125,$,$);
#127= IFCMAPPEDITEM(#77,#126);
#128= IFCCARTESIANPOINT((599.999999995052,0.,74.9999999929216));
#129= IFCCARTESIANTRANSFORMATIONOPERATOR3D($,$,#128,$,$);
#130= IFCMAPPEDITEM(#77,#129);
#131= IFCCARTESIANPOINT((674.999999994354,0.,74.9999999920349));
#132= IFCCARTESIANTRANSFORMATIONOPERATOR3D($,$,#131,$,$);
#133= IFCMAPPEDITEM(#77,#132);
#134= IFCCARTESIANPOINT((74.9999999986612,0.,-75.0000000009027));
#135= IFCCARTESIANTRANSFORMATIONOPERATOR3D($,$,#134,$,$);
#136= IFCMAPPEDITEM(#77,#135);
#137= IFCCARTESIANPOINT((149.999999997963,0.,-75.0000000017894));
#138= IFCCARTESIANTRANSFORMATIONOPERATOR3D($,$,#137,$,$);
#139= IFCMAPPEDITEM(#77,#138);
#140= IFCCARTESIANPOINT((224.999999997264,0.,-75.0000000026762));
#141= IFCCARTESIANTRANSFORMATIONOPERATOR3D($,$,#140,$,$);
#142= IFCMAPPEDITEM(#77,#141);
#143= IFCCARTESIANPOINT((299.999999996551,0.,-75.0000000035629));
#144= IFCCARTESIANTRANSFORMATIONOPERATOR3D($,$,#143,$,$);
#145= IFCMAPPEDITEM(#77,#144);
#146= IFCCARTESIANPOINT((374.999999995853,0.,-75.0000000044497));
#147= IFCCARTESIANTRANSFORMATIONOPERATOR3D($,$,#146,$,$);
#148= IFCMAPPEDITEM(#77,#147);
#149= IFCCARTESIANPOINT((449.999999995154,0.,-75.0000000053367));
#150= IFCCARTESIANTRANSFORMATIONOPERATOR3D($,$,#149,$,$);
#151= IFCMAPPEDITEM(#77,#150);
#152= IFCCARTESIANPOINT((524.999999994456,0.,-75.0000000062234));
#153= IFCCARTESIANTRANSFORMATIONOPERATOR3D($,$,#152,$,$);
#154= IFCMAPPEDITEM(#77,#153);
#155= IFCCARTESIANPOINT((599.999999993757,0.,-75.0000000071102));
#156= IFCCARTESIANTRANSFORMATIONOPERATOR3D($,$,#155,$,$);
#157= IFCMAPPEDITEM(#77,#156);
#158= IFCCARTESIANPOINT((674.999999993059,0.,-75.000000007997));
#159= IFCCARTESIANTRANSFORMATIONOPERATOR3D($,$,#158,$,$);
#160= IFCMAPPEDITEM(#77,#159);
#161= IFCSHAPEREPRESENTATION(#12,'Body','MappedRepresentation',(#80,#109,#112,#115,#118,#121,#124,#127,#130,#133,#83,#136,#139,#142,#145,#148,#151,#154,#157,#160));
#162= IFCPRODUCTDEFINITIONSHAPE($,$,(#161));
#163= IFCOPENINGELEMENT('2h5vj$AgL6DPdyfpIQjEKj',#5,$,$,'Opening',#106,#162,$);
#164= IFCRELVOIDSELEMENT('3rRUIQ0knFKxrhfKKDo7k5',#5,'Drill Hole',$,#64,#163);
#165= IFCCARTESIANPOINT((76232.0175093483,1598.09887499054,13900.));
#166= IFCDIRECTION((7.13010000326904E-05,-0.999999997458084,0.));
#167= IFCDIRECTION((-0.999999997458084,-7.13010000327137E-05,0.));
#168= IFCAXIS2PLACEMENT3D(#165,#166,#167);
#169= IFCLOCALPLACEMENT(#42,#168);
#170= IFCSHAPEREPRESENTATION(#12,'Body','MappedRepresentation',(#83,#136,#139,#142,#145,#148,#151,#154,#157,#160,#80,#109,#112,#115,#118,#121,#124,#127,#130,#133));
#171= IFCPRODUCTDEFINITIONSHAPE($,$,(#170));
#172= IFCOPENINGELEMENT('1DbudTNvH96guZPvkYSQ1O',#5,$,$,'Opening',#169,#171,$);
#173= IFCRELVOIDSELEMENT('2S1DSyXhfCuut3l8vIGxL8',#5,'Drill Hole',$,#64,#172);
#174= IFCPROPERTYSINGLEVALUE('PieceMark',$,IFCIDENTIFIER('PLATE'),$);
#175= IFCPROPERTYSINGLEVALUE('IndicationMark',$,IFCIDENTIFIER('1122'),$);
#176= IFCPROPERTYSINGLEVALUE('PrelimMark',$,IFCIDENTIFIER(''),$);
#177= IFCPROPERTYSINGLEVALUE('MainPieceTag',$,IFCBOOLEAN(.F.),$);
#178= IFCPROPERTYSET('30v8hdbmj5lgwLgrL6teiS',#5,'AISC_EM11_Pset_PieceIdentification','PieceIdentity',(#174,#175,#176,#177));
#179= IFCPROPERTYSINGLEVALUE('MaterialType',$,IFCIDENTIFIER('STEEL'),$);
#180= IFCPROPERTYSINGLEVALUE('MaterialGrade',$,IFCIDENTIFIER('S235JR'),$);
#181= IFCPROPERTYSET('18Rg$cjSbF8vdMhK0SQ4Ab',#5,'AISC_EM11_Pset_Material',$,(#179,#180));
#182= IFCMATERIAL('STEEL/S235JR');
#183= IFCRELAGGREGATES('1chdUiukrBbQRxdyQEfJZB',#5,$,$,#37,(#39));
#184= IFCRELAGGREGATES('2uzvm_A07TtijDvEiWxbrT',#5,$,$,#39,(#41));
#185= IFCRELAGGREGATES('24asJKwxnAw8XYsO15jKzK',#5,$,$,#41,(#43));
#186= IFCRELCONTAINEDINSPATIALSTRUCTURE('2MfrcVEB9FweTxq4EYoTWo',#5,$,$,(#64),#43);
#187= IFCRELDEFINESBYPROPERTIES('38jWp1y51BDOaxSyzBH3ul',#5,$,$,(#172,#163,#100,#86),#92);
#188= IFCRELDEFINESBYPROPERTIES('3UAtWfn2b9eeEoVpXnjwFV',#5,$,$,(#64),#178);
#189= IFCRELDEFINESBYPROPERTIES('0dNnY3pqbB6uYM8n0pa_44',#5,$,$,(#64),#181);
#190= IFCRELASSOCIATESMATERIAL('2d$O9K2Zb9RRABN$GwlkUl',#5,$,$,(#64),#182);
ENDSEC;

END-ISO-10303-21;
