ISO-10303-21;
HEADER;
FILE_DESCRIPTION(('ViewDefinition[AISC_Steel_Detailing]', 'Option [BaseQuantities:Off]', 'Option [GridExport:On]', 'Option [Assemblies:Off]', 'Option [Bolts:On]', 'Option [Rebars:On]', 'Option [PourObjects:Off]', 'Option [Welds:On]', 'Option [SurfaceTreatments:On]', 'Option [LocationBy:0]', 'Option [ViewColors:Off]', 'Option [SectionedSpine:Off]', 'Option [PropertySets:On]', 'Option [Export all:Off]'),'2;1');
FILE_NAME('1123_Qty_2.ifc','2026-05-16T11:52:56',('GIOVANNIPC\\gcorrea'),('Structural Designer'),'IFC Database version: Work','Tekla Structures 2020 Service Pack 5, IFC Export Version: 4.0.0.0 Dec  7 2020','');
FILE_SCHEMA(('IFC2X3'));
ENDSEC;

DATA;
#1= IFCPERSON('GIOVANNIPC\\gcorrea','Undefined',$,$,$,$,$,$);
#2= IFCORGANIZATION($,'Trimble Solutions Corporation',$,$,$);
#3= IFCPERSONANDORGANIZATION(#1,#2,$);
#4= IFCAPPLICATION(#2,'2020 Service Pack 5','Tekla Structures','Multi material modeling');
#5= IFCOWNERHISTORY(#3,#4,$,.NOCHANGE.,$,$,$,1778950376);
#6= IFCCARTESIANPOINT((0.,0.,0.));
#7= IFCDIRECTION((1.,0.,0.));
#8= IFCDIRECTION((0.,1.,0.));
#9= IFCDIRECTION((0.,0.,1.));
#10= IFCAXIS2PLACEMENT3D(#6,#9,#7);
#11= IFCGEOMETRICREPRESENTATIONCONTEXT($,'Model',3,1.E-05,#10,$);
#12= IFCGEOMETRICREPRESENTATIONSUBCONTEXT('Body','Model',*,*,*,*,#11,$,.MODEL_VIEW.,$);
#13= IFCGEOMETRICREPRESENTATIONSUBCONTEXT('Axis','Model',*,*,*,*,#11,$,.GRAPH_VIEW.,$);
#14= IFCGEOMETRICREPRESENTATIONSUBCONTEXT('FootPrint','Model',*,*,*,*,#11,$,.MODEL_VIEW.,$);
#15= IFCSIUNIT(*,.LENGTHUNIT.,.MILLI.,.METRE.);
#16= IFCMEASUREWITHUNIT(IFCRATIOMEASURE(304.8),#15);
#17= IFCDIMENSIONALEXPONENTS(1,0,0,0,0,0,0);
#18= IFCCONVERSIONBASEDUNIT(#17,.LENGTHUNIT.,'FOOT',#16);
#19= IFCSIUNIT(*,.AREAUNIT.,$,.SQUARE_METRE.);
#20= IFCMEASUREWITHUNIT(IFCRATIOMEASURE(0.09290304),#19);
#21= IFCDIMENSIONALEXPONENTS(2,0,0,0,0,0,0);
#22= IFCCONVERSIONBASEDUNIT(#21,.AREAUNIT.,'SQUARE FOOT',#20);
#23= IFCSIUNIT(*,.VOLUMEUNIT.,$,.CUBIC_METRE.);
#24= IFCMEASUREWITHUNIT(IFCRATIOMEASURE(0.028316846592),#23);
#25= IFCDIMENSIONALEXPONENTS(3,0,0,0,0,0,0);
#26= IFCCONVERSIONBASEDUNIT(#25,.VOLUMEUNIT.,'CUBIC FOOT',#24);
#27= IFCSIUNIT(*,.MASSUNIT.,.KILO.,.GRAM.);
#28= IFCSIUNIT(*,.TIMEUNIT.,$,.SECOND.);
#29= IFCSIUNIT(*,.PLANEANGLEUNIT.,$,.RADIAN.);
#30= IFCMEASUREWITHUNIT(IFCRATIOMEASURE(0.0174532925199433),#29);
#31= IFCDIMENSIONALEXPONENTS(0,0,0,0,0,0,0);
#32= IFCCONVERSIONBASEDUNIT(#31,.PLANEANGLEUNIT.,'DEGREE',#30);
#33= IFCSIUNIT(*,.SOLIDANGLEUNIT.,$,.STERADIAN.);
#34= IFCSIUNIT(*,.THERMODYNAMICTEMPERATUREUNIT.,$,.DEGREE_CELSIUS.);
#35= IFCSIUNIT(*,.LUMINOUSINTENSITYUNIT.,$,.LUMEN.);
#36= IFCUNITASSIGNMENT((#15,#19,#23,#27,#28,#29,#33,#34,#35));
#37= IFCPROJECT('2G7ZFDNE16yBDU14FA92Me',#5,'Proyecto',$,$,$,$,(#11),#36);
#38= IFCLOCALPLACEMENT($,#10);
#39= IFCSITE('2xvEzEinjBTea80yOTcujY',#5,'Obra',$,$,#38,$,$,.ELEMENT.,$,$,$,$,$);
#40= IFCLOCALPLACEMENT(#38,#10);
#41= IFCBUILDING('1WXvYuPv951frEH5RbRebv',#5,'Undefined',$,$,#40,$,$,.ELEMENT.,$,$,$);
#42= IFCLOCALPLACEMENT(#40,#10);
#43= IFCBUILDINGSTOREY('29hdEUCErFze9E_VIAceOd',#5,'Undefined',$,$,#42,$,$,.ELEMENT.,0.);
#44= IFCOWNERHISTORY(#3,#4,$,.NOCHANGE.,$,$,$,1774983600);
#45= IFCCARTESIANPOINT((86024.,1479.28853064979,18900.5));
#46= IFCAXIS2PLACEMENT3D(#45,#9,#8);
#47= IFCLOCALPLACEMENT(#42,#46);
#48= IFCCARTESIANPOINT((0.,0.));
#49= IFCCARTESIANPOINT((250.,0.));
#50= IFCCARTESIANPOINT((403.000793457031,1024.22961425781));
#51= IFCCARTESIANPOINT((249.666961669922,2047.99267578125));
#52= IFCCARTESIANPOINT((-0.333040356636047,2047.97485351563));
#53= IFCCARTESIANPOINT((-153.72151184082,1032.12023925781));
#54= IFCPOLYLINE((#48,#49,#50,#51,#52,#53,#48));
#55= IFCARBITRARYCLOSEDPROFILEDEF(.AREA.,'PL19*549',#54);
#56= IFCCARTESIANPOINT((0.,0.,-9.5));
#57= IFCAXIS2PLACEMENT3D(#56,#9,#7);
#58= IFCEXTRUDEDAREASOLID(#55,#57,#9,19.);
#59= IFCSHAPEREPRESENTATION(#12,'Body','SweptSolid',(#58));
#60= IFCPRODUCTDEFINITIONSHAPE($,$,(#59));
#61= IFCPLATE('3K02wR4ALEXfbPzl7WRsr$',#44,'PLATE','PL19*549','PL19*549',#47,#60,'IDd4002e9b-10a5-4e86-9959-f6f1e06f6d7f');
#62= IFCLOCALPLACEMENT(#42,#46);
#63= IFCDIRECTION((1.,0.));
#64= IFCAXIS2PLACEMENT2D(#48,#63);
#65= IFCCIRCLEPROFILEDEF(.AREA.,'\S\X518*25',#64,259.);
#66= IFCDIRECTION((0.,-1.,0.));
#67= IFCDIRECTION((0.,0.,-1.));
#68= IFCCARTESIANPOINT((125.886617905667,1024.,1090.5));
#69= IFCAXIS2PLACEMENT3D(#68,#67,#66);
#70= IFCEXTRUDEDAREASOLID(#65,#69,#9,3000.);
#71= IFCSHAPEREPRESENTATION(#12,'Body','SweptSolid',(#70));
#72= IFCPRODUCTDEFINITIONSHAPE($,$,(#71));
#73= IFCOPENINGELEMENT('0wOjPyqlD3HflprmySNNgu',#5,$,$,'Recess',#62,#72,$);
#74= IFCRELVOIDSELEMENT('3FNLgGWHzCRf_G8jDUfdH_',#5,$,$,#61,#73);
#75= IFCPROPERTYSINGLEVALUE('FeatureSubTypes',$,$,$);
#76= IFCPROPERTYSINGLEVALUE('RectangleOpeningWidth',$,$,$);
#77= IFCPROPERTYSINGLEVALUE('RectangleOpeningHeight',$,$,$);
#78= IFCPROPERTYSINGLEVALUE('OpeningDiameter',$,IFCPOSITIVELENGTHMEASURE(518.),$);
#79= IFCPROPERTYSET('0HlW9i3Yv9ZRZraGXvva8k',#5,'AISC_EM11_Pset_Opening/Cope',$,(#75,#76,#77,#78));
#80= IFCCARTESIANPOINT((84691.0126164472,1603.95549542545,18910.));
#81= IFCDIRECTION((-7.12890000286279E-05,0.999999997458939,0.));
#82= IFCDIRECTION((-0.999999997458939,-7.12890000326365E-05,0.));
#83= IFCAXIS2PLACEMENT3D(#80,#81,#82);
#84= IFCLOCALPLACEMENT(#42,#83);
#85= IFCCIRCLEPROFILEDEF(.AREA.,$,#64,11.5);
#86= IFCCARTESIANPOINT((0.,-19.1,0.));
#87= IFCAXIS2PLACEMENT3D(#86,#8,#7);
#88= IFCEXTRUDEDAREASOLID(#85,#87,#9,19.2);
#89= IFCSHAPEREPRESENTATION(#12,'Body','SweptSolid',(#88));
#90= IFCREPRESENTATIONMAP(#10,#89);
#91= IFCCARTESIANPOINT((2.47382558882236E-10,0.,74.9999999999898));
#92= IFCCARTESIANTRANSFORMATIONOPERATOR3D($,$,#91,$,$);
#93= IFCMAPPEDITEM(#90,#92);
#94= IFCCARTESIANPOINT((74.9999999994179,0.,75.0000000004673));
#95= IFCCARTESIANTRANSFORMATIONOPERATOR3D($,$,#94,$,$);
#96= IFCMAPPEDITEM(#90,#95);
#97= IFCCARTESIANPOINT((149.999999998588,0.,75.000000000945));
#98= IFCCARTESIANTRANSFORMATIONOPERATOR3D($,$,#97,$,$);
#99= IFCMAPPEDITEM(#90,#98);
#100= IFCCARTESIANPOINT((224.999999997759,0.,75.0000000014224));
#101= IFCCARTESIANTRANSFORMATIONOPERATOR3D($,$,#100,$,$);
#102= IFCMAPPEDITEM(#90,#101);
#103= IFCCARTESIANPOINT((299.99999999693,0.,75.0000000018997));
#104= IFCCARTESIANTRANSFORMATIONOPERATOR3D($,$,#103,$,$);
#105= IFCMAPPEDITEM(#90,#104);
#106= IFCCARTESIANPOINT((374.9999999961,0.,75.0000000023772));
#107= IFCCARTESIANTRANSFORMATIONOPERATOR3D($,$,#106,$,$);
#108= IFCMAPPEDITEM(#90,#107);
#109= IFCCARTESIANPOINT((449.999999995271,0.,75.0000000028547));
#110= IFCCARTESIANTRANSFORMATIONOPERATOR3D($,$,#109,$,$);
#111= IFCMAPPEDITEM(#90,#110);
#112= IFCCARTESIANPOINT((524.999999994441,0.,75.0000000033322));
#113= IFCCARTESIANTRANSFORMATIONOPERATOR3D($,$,#112,$,$);
#114= IFCMAPPEDITEM(#90,#113);
#115= IFCCARTESIANPOINT((599.999999993612,0.,75.0000000038094));
#116= IFCCARTESIANTRANSFORMATIONOPERATOR3D($,$,#115,$,$);
#117= IFCMAPPEDITEM(#90,#116);
#118= IFCCARTESIANPOINT((674.999999992782,0.,75.0000000042869));
#119= IFCCARTESIANTRANSFORMATIONOPERATOR3D($,$,#118,$,$);
#120= IFCMAPPEDITEM(#90,#119);
#121= IFCCARTESIANPOINT((-2.3283064365387E-10,0.,-74.99999999999));
#122= IFCCARTESIANTRANSFORMATIONOPERATOR3D($,$,#121,$,$);
#123= IFCMAPPEDITEM(#90,#122);
#124= IFCCARTESIANPOINT((74.9999999989377,0.,-74.9999999995125));
#125= IFCCARTESIANTRANSFORMATIONOPERATOR3D($,$,#124,$,$);
#126= IFCMAPPEDITEM(#90,#125);
#127= IFCCARTESIANPOINT((149.999999998108,0.,-74.999999999035));
#128= IFCCARTESIANTRANSFORMATIONOPERATOR3D($,$,#127,$,$);
#129= IFCMAPPEDITEM(#90,#128);
#130= IFCCARTESIANPOINT((224.999999997279,0.,-74.9999999985575));
#131= IFCCARTESIANTRANSFORMATIONOPERATOR3D($,$,#130,$,$);
#132= IFCMAPPEDITEM(#90,#131);
#133= IFCCARTESIANPOINT((299.999999996449,0.,-74.9999999980803));
#134= IFCCARTESIANTRANSFORMATIONOPERATOR3D($,$,#133,$,$);
#135= IFCMAPPEDITEM(#90,#134);
#136= IFCCARTESIANPOINT((374.99999999562,0.,-74.9999999976026));
#137= IFCCARTESIANTRANSFORMATIONOPERATOR3D($,$,#136,$,$);
#138= IFCMAPPEDITEM(#90,#137);
#139= IFCCARTESIANPOINT((449.99999999479,0.,-74.9999999971251));
#140= IFCCARTESIANTRANSFORMATIONOPERATOR3D($,$,#139,$,$);
#141= IFCMAPPEDITEM(#90,#140);
#142= IFCCARTESIANPOINT((524.999999993961,0.,-74.9999999966476));
#143= IFCCARTESIANTRANSFORMATIONOPERATOR3D($,$,#142,$,$);
#144= IFCMAPPEDITEM(#90,#143);
#145= IFCCARTESIANPOINT((599.999999993131,0.,-74.9999999961703));
#146= IFCCARTESIANTRANSFORMATIONOPERATOR3D($,$,#145,$,$);
#147= IFCMAPPEDITEM(#90,#146);
#148= IFCCARTESIANPOINT((674.999999992302,0.,-74.9999999956929));
#149= IFCCARTESIANTRANSFORMATIONOPERATOR3D($,$,#148,$,$);
#150= IFCMAPPEDITEM(#90,#149);
#151= IFCSHAPEREPRESENTATION(#12,'Body','MappedRepresentation',(#93,#96,#99,#102,#105,#108,#111,#114,#117,#120,#123,#126,#129,#132,#135,#138,#141,#144,#147,#150));
#152= IFCPRODUCTDEFINITIONSHAPE($,$,(#151));
#153= IFCOPENINGELEMENT('1qgh8xFz17RPiuv1vsUKdX',#5,$,$,'Opening',#84,#152,$);
#154= IFCRELVOIDSELEMENT('3ggsb2lGL3cQei6kZ12flo',#5,'Drill Hole',$,#61,#153);
#155= IFCPROPERTYSINGLEVALUE('FeatureSubTypes',$,IFCLABEL('TORNILLO'),$);
#156= IFCPROPERTYSINGLEVALUE('OpeningDiameter',$,$,$);
#157= IFCPROPERTYSET('38$nQPioXEOQDjB6w3Dzf5',#5,'AISC_EM11_Pset_Opening/Cope',$,(#155,#76,#77,#156));
#158= IFCCARTESIANPOINT((85309.,1603.28929908432,18910.));
#159= IFCAXIS2PLACEMENT3D(#158,#66,#7);
#160= IFCLOCALPLACEMENT(#42,#159);
#161= IFCSHAPEREPRESENTATION(#12,'Body','MappedRepresentation',(#93,#96,#99,#102,#105,#108,#111,#114,#117,#120,#123,#126,#129,#132,#135,#138,#141,#144,#147,#150));
#162= IFCPRODUCTDEFINITIONSHAPE($,$,(#161));
#163= IFCOPENINGELEMENT('2v1A79jpj9$gY3tiBOi2Uk',#5,$,$,'Opening',#160,#162,$);
#164= IFCRELVOIDSELEMENT('2VMGsCmQPF3Ryw7u3bFtZJ',#5,'Drill Hole',$,#61,#163);
#165= IFCPROPERTYSINGLEVALUE('PieceMark',$,IFCIDENTIFIER('PLATE'),$);
#166= IFCPROPERTYSINGLEVALUE('IndicationMark',$,IFCIDENTIFIER('1123'),$);
#167= IFCPROPERTYSINGLEVALUE('PrelimMark',$,IFCIDENTIFIER(''),$);
#168= IFCPROPERTYSINGLEVALUE('MainPieceTag',$,IFCBOOLEAN(.F.),$);
#169= IFCPROPERTYSET('2afvsOtsP54ewpg7WF0N6Z',#5,'AISC_EM11_Pset_PieceIdentification','PieceIdentity',(#165,#166,#167,#168));
#170= IFCPROPERTYSINGLEVALUE('MaterialType',$,IFCIDENTIFIER('STEEL'),$);
#171= IFCPROPERTYSINGLEVALUE('MaterialGrade',$,IFCIDENTIFIER('S235JR'),$);
#172= IFCPROPERTYSET('1MuzDfZizBPPsLnzU4vICS',#5,'AISC_EM11_Pset_Material',$,(#170,#171));
#173= IFCMATERIAL('STEEL/S235JR');
#174= IFCRELAGGREGATES('3C_7RBKHLCsfhlNgu8gZ9$',#5,$,$,#37,(#39));
#175= IFCRELAGGREGATES('2UGPjTcZdU8xz1fyAQyrRH',#5,$,$,#39,(#41));
#176= IFCRELAGGREGATES('1OWkuI2eDBDB85dJxR0ZPf',#5,$,$,#41,(#43));
#177= IFCRELCONTAINEDINSPATIALSTRUCTURE('16j94kGoX9feJGWgC$qUgl',#5,$,$,(#61),#43);
#178= IFCRELDEFINESBYPROPERTIES('0_QjXv2in6UxqMR18$GfZI',#5,$,$,(#73),#79);
#179= IFCRELDEFINESBYPROPERTIES('06sxrBuoX9w9XzfRyZHg8y',#5,$,$,(#163,#153),#157);
#180= IFCRELDEFINESBYPROPERTIES('104c_mHxfFvBmLBc9jJc5W',#5,$,$,(#61),#169);
#181= IFCRELDEFINESBYPROPERTIES('2vFJgPKDPFsgO0aY2OQYFD',#5,$,$,(#61),#172);
#182= IFCRELASSOCIATESMATERIAL('0_vfEip319bQ6Wef84vRgT',#5,$,$,(#61),#173);
ENDSEC;

END-ISO-10303-21;
