ISO-10303-21;
HEADER;
FILE_DESCRIPTION(('ViewDefinition[AISC_Steel_Detailing]', 'Option [BaseQuantities:Off]', 'Option [GridExport:On]', 'Option [Assemblies:Off]', 'Option [Bolts:On]', 'Option [Rebars:On]', 'Option [PourObjects:Off]', 'Option [Welds:On]', 'Option [SurfaceTreatments:On]', 'Option [LocationBy:0]', 'Option [ViewColors:Off]', 'Option [SectionedSpine:Off]', 'Option [PropertySets:On]', 'Option [Export all:Off]'),'2;1');
FILE_NAME('1127_Qty_2.ifc','2026-05-16T11:52:57',('GIOVANNIPC\\gcorrea'),('Structural Designer'),'IFC Database version: Work','Tekla Structures 2020 Service Pack 5, IFC Export Version: 4.0.0.0 Dec  7 2020','');
FILE_SCHEMA(('IFC2X3'));
ENDSEC;

DATA;
#1= IFCPERSON('GIOVANNIPC\\gcorrea','Undefined',$,$,$,$,$,$);
#2= IFCORGANIZATION($,'Trimble Solutions Corporation',$,$,$);
#3= IFCPERSONANDORGANIZATION(#1,#2,$);
#4= IFCAPPLICATION(#2,'2020 Service Pack 5','Tekla Structures','Multi material modeling');
#5= IFCOWNERHISTORY(#3,#4,$,.NOCHANGE.,$,$,$,1778950377);
#6= IFCCARTESIANPOINT((0.,0.,0.));
#7= IFCDIRECTION((1.,0.,0.));
#8= IFCDIRECTION((0.,1.,0.));
#9= IFCDIRECTION((0.,0.,1.));
#10= IFCAXIS2PLACEMENT3D(#6,#9,#7);
#11= IFCGEOMETRICREPRESENTATIONCONTEXT($,'Model',3,1.E-05,#10,$);
#12= IFCGEOMETRICREPRESENTATIONSUBCONTEXT('Body','Model',*,*,*,*,#11,$,.MODEL_VIEW.,$);
#13= IFCGEOMETRICREPRESENTATIONSUBCONTEXT('Axis','Model',*,*,*,*,#11,$,.GRAPH_VIEW.,$);
#14= IFCGEOMETRICREPRESENTATIONSUBCONTEXT('FootPrint','Model',*,*,*,*,#11,$,.MODEL_VIEW.,$);
#15= IFCSIUNIT(*,.LENGTHUNIT.,.MILLI.,.METRE.);
#16= IFCMEASUREWITHUNIT(IFCRATIOMEASURE(304.8),#15);
#17= IFCDIMENSIONALEXPONENTS(1,0,0,0,0,0,0);
#18= IFCCONVERSIONBASEDUNIT(#17,.LENGTHUNIT.,'FOOT',#16);
#19= IFCSIUNIT(*,.AREAUNIT.,$,.SQUARE_METRE.);
#20= IFCMEASUREWITHUNIT(IFCRATIOMEASURE(0.09290304),#19);
#21= IFCDIMENSIONALEXPONENTS(2,0,0,0,0,0,0);
#22= IFCCONVERSIONBASEDUNIT(#21,.AREAUNIT.,'SQUARE FOOT',#20);
#23= IFCSIUNIT(*,.VOLUMEUNIT.,$,.CUBIC_METRE.);
#24= IFCMEASUREWITHUNIT(IFCRATIOMEASURE(0.028316846592),#23);
#25= IFCDIMENSIONALEXPONENTS(3,0,0,0,0,0,0);
#26= IFCCONVERSIONBASEDUNIT(#25,.VOLUMEUNIT.,'CUBIC FOOT',#24);
#27= IFCSIUNIT(*,.MASSUNIT.,.KILO.,.GRAM.);
#28= IFCSIUNIT(*,.TIMEUNIT.,$,.SECOND.);
#29= IFCSIUNIT(*,.PLANEANGLEUNIT.,$,.RADIAN.);
#30= IFCMEASUREWITHUNIT(IFCRATIOMEASURE(0.0174532925199433),#29);
#31= IFCDIMENSIONALEXPONENTS(0,0,0,0,0,0,0);
#32= IFCCONVERSIONBASEDUNIT(#31,.PLANEANGLEUNIT.,'DEGREE',#30);
#33= IFCSIUNIT(*,.SOLIDANGLEUNIT.,$,.STERADIAN.);
#34= IFCSIUNIT(*,.THERMODYNAMICTEMPERATUREUNIT.,$,.DEGREE_CELSIUS.);
#35= IFCSIUNIT(*,.LUMINOUSINTENSITYUNIT.,$,.LUMEN.);
#36= IFCUNITASSIGNMENT((#15,#19,#23,#27,#28,#29,#33,#34,#35));
#37= IFCPROJECT('2G7ZFDNE16yBDU14FA92Me',#5,'Proyecto',$,$,$,$,(#11),#36);
#38= IFCLOCALPLACEMENT($,#10);
#39= IFCSITE('2xvEzEinjBTea80yOTcujY',#5,'Obra',$,$,#38,$,$,.ELEMENT.,$,$,$,$,$);
#40= IFCLOCALPLACEMENT(#38,#10);
#41= IFCBUILDING('1hBDQyjsT0JQ0vGs5VNt2Z',#5,'Undefined',$,$,#40,$,$,.ELEMENT.,$,$,$);
#42= IFCLOCALPLACEMENT(#40,#10);
#43= IFCBUILDINGSTOREY('29hdEUCErFze9E_VIAceOd',#5,'Undefined',$,$,#42,$,$,.ELEMENT.,0.);
#44= IFCOWNERHISTORY(#3,#4,$,.NOCHANGE.,$,$,$,1774368000);
#45= IFCCARTESIANPOINT((7567.77403295167,8297.92903550291,13909.5));
#46= IFCDIRECTION((0.,-1.,0.));
#47= IFCAXIS2PLACEMENT3D(#45,#9,#46);
#48= IFCLOCALPLACEMENT(#42,#47);
#49= IFCCARTESIANPOINT((0.,0.));
#50= IFCCARTESIANPOINT((250.,-5.45696821063757E-12));
#51= IFCCARTESIANPOINT((302.418182373047,932.225952148437));
#52= IFCCARTESIANPOINT((179.388244628906,1861.14892578125));
#53= IFCCARTESIANPOINT((-69.8845901489258,1842.09497070312));
#54= IFCCARTESIANPOINT((-52.529483795166,932.225708007812));
#55= IFCPOLYLINE((#49,#50,#51,#52,#53,#54,#49));
#56= IFCARBITRARYCLOSEDPROFILEDEF(.AREA.,'PL19*422',#55);
#57= IFCCARTESIANPOINT((0.,0.,-9.5));
#58= IFCAXIS2PLACEMENT3D(#57,#9,#7);
#59= IFCEXTRUDEDAREASOLID(#56,#58,#9,19.);
#60= IFCSHAPEREPRESENTATION(#12,'Body','SweptSolid',(#59));
#61= IFCPRODUCTDEFINITIONSHAPE($,$,(#60));
#62= IFCPLATE('2c_Jt0K0L7$wKxzOh0y6TQ',#44,'PLATE','PL19*422','PL19*422',#48,#61,'IDa6f93dc0-5005-47ff-a53b-f58ac0f0675a');
#63= IFCLOCALPLACEMENT(#42,#47);
#64= IFCDIRECTION((1.,0.));
#65= IFCAXIS2PLACEMENT2D(#49,#64);
#66= IFCCIRCLEPROFILEDEF(.AREA.,'\S\X315*20',#65,157.5);
#67= IFCDIRECTION((0.,0.,-1.));
#68= IFCCARTESIANPOINT((124.97051961428,932.225692390125,40.5));
#69= IFCAXIS2PLACEMENT3D(#68,#67,#46);
#70= IFCEXTRUDEDAREASOLID(#66,#69,#9,1950.);
#71= IFCSHAPEREPRESENTATION(#12,'Body','SweptSolid',(#70));
#72= IFCPRODUCTDEFINITIONSHAPE($,$,(#71));
#73= IFCOPENINGELEMENT('0MaJFQhVP088mYsMWo6dG5',#5,$,$,'Recess',#63,#72,$);
#74= IFCRELVOIDSELEMENT('1KRceAAxDBWhU8eGqGJcqY',#5,$,$,#62,#73);
#75= IFCPROPERTYSINGLEVALUE('FeatureSubTypes',$,$,$);
#76= IFCPROPERTYSINGLEVALUE('RectangleOpeningWidth',$,$,$);
#77= IFCPROPERTYSINGLEVALUE('RectangleOpeningHeight',$,$,$);
#78= IFCPROPERTYSINGLEVALUE('OpeningDiameter',$,IFCPOSITIVELENGTHMEASURE(315.),$);
#79= IFCPROPERTYSET('31qpxBYqTD8exEQUYpn86P',#5,'AISC_EM11_Pset_Opening/Cope',$,(#75,#76,#77,#78));
#80= IFCCARTESIANPOINT((8706.46817724543,8188.78019672889,13900.));
#81= IFCDIRECTION((-0.0762041199626983,0.99709223851192,0.));
#82= IFCDIRECTION((0.99709223851192,0.0762041199626979,0.));
#83= IFCAXIS2PLACEMENT3D(#80,#81,#82);
#84= IFCLOCALPLACEMENT(#42,#83);
#85= IFCCIRCLEPROFILEDEF(.AREA.,$,#65,11.5);
#86= IFCCARTESIANPOINT((0.,-19.1,0.));
#87= IFCAXIS2PLACEMENT3D(#86,#8,#7);
#88= IFCEXTRUDEDAREASOLID(#85,#87,#9,19.2);
#89= IFCSHAPEREPRESENTATION(#12,'Body','SweptSolid',(#88));
#90= IFCREPRESENTATIONMAP(#10,#89);
#91= IFCCARTESIANPOINT((-6.18456397205591E-11,0.,-74.9999999999873));
#92= IFCCARTESIANTRANSFORMATIONOPERATOR3D($,$,#91,$,$);
#93= IFCMAPPEDITEM(#90,#92);
#94= IFCCARTESIANPOINT((75.0000000000564,0.,-75.0000000001282));
#95= IFCCARTESIANTRANSFORMATIONOPERATOR3D($,$,#94,$,$);
#96= IFCMAPPEDITEM(#90,#95);
#97= IFCCARTESIANPOINT((150.000000000176,0.,-75.0000000002701));
#98= IFCCARTESIANTRANSFORMATIONOPERATOR3D($,$,#97,$,$);
#99= IFCMAPPEDITEM(#90,#98);
#100= IFCCARTESIANPOINT((225.000000000295,0.,-75.0000000004111));
#101= IFCCARTESIANTRANSFORMATIONOPERATOR3D($,$,#100,$,$);
#102= IFCMAPPEDITEM(#90,#101);
#103= IFCCARTESIANPOINT((300.000000000413,0.,-75.0000000005521));
#104= IFCCARTESIANTRANSFORMATIONOPERATOR3D($,$,#103,$,$);
#105= IFCMAPPEDITEM(#90,#104);
#106= IFCCARTESIANPOINT((375.000000000533,0.,-75.000000000693));
#107= IFCCARTESIANTRANSFORMATIONOPERATOR3D($,$,#106,$,$);
#108= IFCMAPPEDITEM(#90,#107);
#109= IFCCARTESIANPOINT((450.000000000649,0.,-75.0000000008349));
#110= IFCCARTESIANTRANSFORMATIONOPERATOR3D($,$,#109,$,$);
#111= IFCMAPPEDITEM(#90,#110);
#112= IFCCARTESIANPOINT((525.000000000769,0.,-75.0000000009759));
#113= IFCCARTESIANTRANSFORMATIONOPERATOR3D($,$,#112,$,$);
#114= IFCMAPPEDITEM(#90,#113);
#115= IFCCARTESIANPOINT((600.000000000888,0.,-75.0000000011178));
#116= IFCCARTESIANTRANSFORMATIONOPERATOR3D($,$,#115,$,$);
#117= IFCMAPPEDITEM(#90,#116);
#118= IFCCARTESIANPOINT((675.000000001008,0.,-75.0000000012578));
#119= IFCCARTESIANTRANSFORMATIONOPERATOR3D($,$,#118,$,$);
#120= IFCMAPPEDITEM(#90,#119);
#121= IFCCARTESIANPOINT((6.3664629124105E-11,0.,74.9999999999891));
#122= IFCCARTESIANTRANSFORMATIONOPERATOR3D($,$,#121,$,$);
#123= IFCMAPPEDITEM(#90,#122);
#124= IFCCARTESIANPOINT((75.0000000001819,0.,74.9999999998472));
#125= IFCCARTESIANTRANSFORMATIONOPERATOR3D($,$,#124,$,$);
#126= IFCMAPPEDITEM(#90,#125);
#127= IFCCARTESIANPOINT((150.000000000302,0.,74.9999999997053));
#128= IFCCARTESIANTRANSFORMATIONOPERATOR3D($,$,#127,$,$);
#129= IFCMAPPEDITEM(#90,#128);
#130= IFCCARTESIANPOINT((225.00000000042,0.,74.9999999995644));
#131= IFCCARTESIANTRANSFORMATIONOPERATOR3D($,$,#130,$,$);
#132= IFCMAPPEDITEM(#90,#131);
#133= IFCCARTESIANPOINT((300.000000000538,0.,74.9999999994243));
#134= IFCCARTESIANTRANSFORMATIONOPERATOR3D($,$,#133,$,$);
#135= IFCMAPPEDITEM(#90,#134);
#136= IFCCARTESIANPOINT((375.000000000657,0.,74.9999999992824));
#137= IFCCARTESIANTRANSFORMATIONOPERATOR3D($,$,#136,$,$);
#138= IFCMAPPEDITEM(#90,#137);
#139= IFCCARTESIANPOINT((450.000000000777,0.,74.9999999991405));
#140= IFCCARTESIANTRANSFORMATIONOPERATOR3D($,$,#139,$,$);
#141= IFCMAPPEDITEM(#90,#140);
#142= IFCCARTESIANPOINT((525.000000000895,0.,74.9999999990005));
#143= IFCCARTESIANTRANSFORMATIONOPERATOR3D($,$,#142,$,$);
#144= IFCMAPPEDITEM(#90,#143);
#145= IFCCARTESIANPOINT((600.000000001015,0.,74.9999999988595));
#146= IFCCARTESIANTRANSFORMATIONOPERATOR3D($,$,#145,$,$);
#147= IFCMAPPEDITEM(#90,#146);
#148= IFCCARTESIANPOINT((675.000000001133,0.,74.9999999987176));
#149= IFCCARTESIANTRANSFORMATIONOPERATOR3D($,$,#148,$,$);
#150= IFCMAPPEDITEM(#90,#149);
#151= IFCSHAPEREPRESENTATION(#12,'Body','MappedRepresentation',(#93,#96,#99,#102,#105,#108,#111,#114,#117,#120,#123,#126,#129,#132,#135,#138,#141,#144,#147,#150));
#152= IFCPRODUCTDEFINITIONSHAPE($,$,(#151));
#153= IFCOPENINGELEMENT('1iJ$7NG4j8MOQV1GZi5tzS',#5,$,$,'Opening',#84,#152,$);
#154= IFCRELVOIDSELEMENT('2zSTc1dVH3yhNY57XC$FcT',#5,'Drill Hole',$,#62,#153);
#155= IFCPROPERTYSINGLEVALUE('FeatureSubTypes',$,IFCLABEL('TORNILLO'),$);
#156= IFCPROPERTYSINGLEVALUE('OpeningDiameter',$,$,$);
#157= IFCPROPERTYSET('0zxVu3MejCrf8bJ763_5U5',#5,'AISC_EM11_Pset_Opening/Cope',$,(#155,#76,#77,#156));
#158= IFCCARTESIANPOINT((7607.54297288119,8175.4193116097,13900.));
#159= IFCDIRECTION((0.000467666999834364,-0.999999890643783,0.));
#160= IFCDIRECTION((0.999999890643783,0.000467666999834148,0.));
#161= IFCAXIS2PLACEMENT3D(#158,#159,#160);
#162= IFCLOCALPLACEMENT(#42,#161);
#163= IFCCIRCLEPROFILEDEF(.AREA.,$,#65,12.);
#164= IFCCARTESIANPOINT((0.,-0.1,0.));
#165= IFCAXIS2PLACEMENT3D(#164,#8,#7);
#166= IFCEXTRUDEDAREASOLID(#163,#165,#9,19.2);
#167= IFCSHAPEREPRESENTATION(#12,'Body','SweptSolid',(#166));
#168= IFCREPRESENTATIONMAP(#10,#167);
#169= IFCMAPPEDITEM(#168,#92);
#170= IFCMAPPEDITEM(#168,#95);
#171= IFCMAPPEDITEM(#168,#98);
#172= IFCMAPPEDITEM(#168,#101);
#173= IFCMAPPEDITEM(#168,#104);
#174= IFCMAPPEDITEM(#168,#107);
#175= IFCMAPPEDITEM(#168,#110);
#176= IFCMAPPEDITEM(#168,#113);
#177= IFCMAPPEDITEM(#168,#116);
#178= IFCMAPPEDITEM(#168,#119);
#179= IFCMAPPEDITEM(#168,#122);
#180= IFCMAPPEDITEM(#168,#125);
#181= IFCMAPPEDITEM(#168,#128);
#182= IFCMAPPEDITEM(#168,#131);
#183= IFCMAPPEDITEM(#168,#134);
#184= IFCMAPPEDITEM(#168,#137);
#185= IFCMAPPEDITEM(#168,#140);
#186= IFCMAPPEDITEM(#168,#143);
#187= IFCMAPPEDITEM(#168,#146);
#188= IFCMAPPEDITEM(#168,#149);
#189= IFCSHAPEREPRESENTATION(#12,'Body','MappedRepresentation',(#169,#170,#171,#172,#173,#174,#175,#176,#177,#178,#179,#180,#181,#182,#183,#184,#185,#186,#187,#188));
#190= IFCPRODUCTDEFINITIONSHAPE($,$,(#189));
#191= IFCOPENINGELEMENT('0efWv9MwHB3ujaSGr0EkGm',#5,$,$,'Opening',#162,#190,$);
#192= IFCRELVOIDSELEMENT('0EM2dJBrfDCevkYKu8qhBS',#5,'Drill Hole',$,#62,#191);
#193= IFCPROPERTYSINGLEVALUE('PieceMark',$,IFCIDENTIFIER('PLATE'),$);
#194= IFCPROPERTYSINGLEVALUE('IndicationMark',$,IFCIDENTIFIER('1127'),$);
#195= IFCPROPERTYSINGLEVALUE('PrelimMark',$,IFCIDENTIFIER(''),$);
#196= IFCPROPERTYSINGLEVALUE('MainPieceTag',$,IFCBOOLEAN(.F.),$);
#197= IFCPROPERTYSET('2wiBBtk8nFqQ2mclcsh$Zf',#5,'AISC_EM11_Pset_PieceIdentification','PieceIdentity',(#193,#194,#195,#196));
#198= IFCPROPERTYSINGLEVALUE('MaterialType',$,IFCIDENTIFIER('STEEL'),$);
#199= IFCPROPERTYSINGLEVALUE('MaterialGrade',$,IFCIDENTIFIER('S235JR'),$);
#200= IFCPROPERTYSET('2sdwjEO618Eh3JdEF$k6XK',#5,'AISC_EM11_Pset_Material',$,(#198,#199));
#201= IFCMATERIAL('STEEL/S235JR');
#202= IFCRELAGGREGATES('1Mj4o8Yh92a9onP$jjZwuD',#5,$,$,#37,(#39));
#203= IFCRELAGGREGATES('2e$M4QqzRKsR43hH$$rCAV',#5,$,$,#39,(#41));
#204= IFCRELAGGREGATES('0WzD11jPnF3hJ9iUrWQurg',#5,$,$,#41,(#43));
#205= IFCRELCONTAINEDINSPATIALSTRUCTURE('3BbZr1BEHAVBdCS56vi5En',#5,$,$,(#62),#43);
#206= IFCRELDEFINESBYPROPERTIES('2Tihr5UIP8wxSN_X2vrDPA',#5,$,$,(#73),#79);
#207= IFCRELDEFINESBYPROPERTIES('1m5dZo2eH26hhJ9ne0EVR4',#5,$,$,(#191,#153),#157);
#208= IFCRELDEFINESBYPROPERTIES('135GNIydv1IO9d2aQEXp3s',#5,$,$,(#62),#197);
#209= IFCRELDEFINESBYPROPERTIES('2fdR52UgfAt9GpCmy7DI9i',#5,$,$,(#62),#200);
#210= IFCRELASSOCIATESMATERIAL('1I$N3OS59EfOY_VjSnVqHD',#5,$,$,(#62),#201);
ENDSEC;

END-ISO-10303-21;
