ISO-10303-21;
HEADER;
FILE_DESCRIPTION(('ViewDefinition[AISC_Steel_Detailing]', 'Option [BaseQuantities:Off]', 'Option [GridExport:On]', 'Option [Assemblies:Off]', 'Option [Bolts:On]', 'Option [Rebars:On]', 'Option [PourObjects:Off]', 'Option [Welds:On]', 'Option [SurfaceTreatments:On]', 'Option [LocationBy:0]', 'Option [ViewColors:Off]', 'Option [SectionedSpine:Off]', 'Option [PropertySets:On]', 'Option [Export all:Off]'),'2;1');
FILE_NAME('1128_Qty_2.ifc','2026-05-16T11:52:57',('GIOVANNIPC\\gcorrea'),('Structural Designer'),'IFC Database version: Work','Tekla Structures 2020 Service Pack 5, IFC Export Version: 4.0.0.0 Dec  7 2020','');
FILE_SCHEMA(('IFC2X3'));
ENDSEC;

DATA;
#1= IFCPERSON('GIOVANNIPC\\gcorrea','Undefined',$,$,$,$,$,$);
#2= IFCORGANIZATION($,'Trimble Solutions Corporation',$,$,$);
#3= IFCPERSONANDORGANIZATION(#1,#2,$);
#4= IFCAPPLICATION(#2,'2020 Service Pack 5','Tekla Structures','Multi material modeling');
#5= IFCOWNERHISTORY(#3,#4,$,.NOCHANGE.,$,$,$,1778950377);
#6= IFCCARTESIANPOINT((0.,0.,0.));
#7= IFCDIRECTION((1.,0.,0.));
#8= IFCDIRECTION((0.,1.,0.));
#9= IFCDIRECTION((0.,0.,1.));
#10= IFCAXIS2PLACEMENT3D(#6,#9,#7);
#11= IFCGEOMETRICREPRESENTATIONCONTEXT($,'Model',3,1.E-05,#10,$);
#12= IFCGEOMETRICREPRESENTATIONSUBCONTEXT('Body','Model',*,*,*,*,#11,$,.MODEL_VIEW.,$);
#13= IFCGEOMETRICREPRESENTATIONSUBCONTEXT('Axis','Model',*,*,*,*,#11,$,.GRAPH_VIEW.,$);
#14= IFCGEOMETRICREPRESENTATIONSUBCONTEXT('FootPrint','Model',*,*,*,*,#11,$,.MODEL_VIEW.,$);
#15= IFCSIUNIT(*,.LENGTHUNIT.,.MILLI.,.METRE.);
#16= IFCMEASUREWITHUNIT(IFCRATIOMEASURE(304.8),#15);
#17= IFCDIMENSIONALEXPONENTS(1,0,0,0,0,0,0);
#18= IFCCONVERSIONBASEDUNIT(#17,.LENGTHUNIT.,'FOOT',#16);
#19= IFCSIUNIT(*,.AREAUNIT.,$,.SQUARE_METRE.);
#20= IFCMEASUREWITHUNIT(IFCRATIOMEASURE(0.09290304),#19);
#21= IFCDIMENSIONALEXPONENTS(2,0,0,0,0,0,0);
#22= IFCCONVERSIONBASEDUNIT(#21,.AREAUNIT.,'SQUARE FOOT',#20);
#23= IFCSIUNIT(*,.VOLUMEUNIT.,$,.CUBIC_METRE.);
#24= IFCMEASUREWITHUNIT(IFCRATIOMEASURE(0.028316846592),#23);
#25= IFCDIMENSIONALEXPONENTS(3,0,0,0,0,0,0);
#26= IFCCONVERSIONBASEDUNIT(#25,.VOLUMEUNIT.,'CUBIC FOOT',#24);
#27= IFCSIUNIT(*,.MASSUNIT.,.KILO.,.GRAM.);
#28= IFCSIUNIT(*,.TIMEUNIT.,$,.SECOND.);
#29= IFCSIUNIT(*,.PLANEANGLEUNIT.,$,.RADIAN.);
#30= IFCMEASUREWITHUNIT(IFCRATIOMEASURE(0.0174532925199433),#29);
#31= IFCDIMENSIONALEXPONENTS(0,0,0,0,0,0,0);
#32= IFCCONVERSIONBASEDUNIT(#31,.PLANEANGLEUNIT.,'DEGREE',#30);
#33= IFCSIUNIT(*,.SOLIDANGLEUNIT.,$,.STERADIAN.);
#34= IFCSIUNIT(*,.THERMODYNAMICTEMPERATUREUNIT.,$,.DEGREE_CELSIUS.);
#35= IFCSIUNIT(*,.LUMINOUSINTENSITYUNIT.,$,.LUMEN.);
#36= IFCUNITASSIGNMENT((#15,#19,#23,#27,#28,#29,#33,#34,#35));
#37= IFCPROJECT('2G7ZFDNE16yBDU14FA92Me',#5,'Proyecto',$,$,$,$,(#11),#36);
#38= IFCLOCALPLACEMENT($,#10);
#39= IFCSITE('2xvEzEinjBTea80yOTcujY',#5,'Obra',$,$,#38,$,$,.ELEMENT.,$,$,$,$,$);
#40= IFCLOCALPLACEMENT(#38,#10);
#41= IFCBUILDING('0BRYGu20n3FBubyJd_hf9H',#5,'Undefined',$,$,#40,$,$,.ELEMENT.,$,$,$);
#42= IFCLOCALPLACEMENT(#40,#10);
#43= IFCBUILDINGSTOREY('29hdEUCErFze9E_VIAceOd',#5,'Undefined',$,$,#42,$,$,.ELEMENT.,0.);
#44= IFCOWNERHISTORY(#3,#4,$,.NOCHANGE.,$,$,$,1772726400);
#45= IFCCARTESIANPOINT((16071.0680704543,8876.9847445588,13909.5));
#46= IFCDIRECTION((0.0762041199626971,-0.99709223851192,0.));
#47= IFCAXIS2PLACEMENT3D(#45,#9,#46);
#48= IFCLOCALPLACEMENT(#42,#47);
#49= IFCCARTESIANPOINT((0.,0.));
#50= IFCCARTESIANPOINT((250.000000000449,-1.23691279441118E-10));
#51= IFCCARTESIANPOINT((301.858886719292,908.57086181804));
#52= IFCCARTESIANPOINT((393.17861938547,1812.82653808919));
#53= IFCCARTESIANPOINT((146.277740478778,1852.06884765957));
#54= IFCCARTESIANPOINT((-52.0566940308536,935.619140626681));
#55= IFCPOLYLINE((#49,#50,#51,#52,#53,#54,#49));
#56= IFCARBITRARYCLOSEDPROFILEDEF(.AREA.,'PL19*493',#55);
#57= IFCCARTESIANPOINT((0.,0.,-9.49999999999818));
#58= IFCAXIS2PLACEMENT3D(#57,#9,#7);
#59= IFCEXTRUDEDAREASOLID(#56,#58,#9,19.);
#60= IFCSHAPEREPRESENTATION(#12,'Body','SweptSolid',(#59));
#61= IFCPRODUCTDEFINITIONSHAPE($,$,(#60));
#62= IFCPLATE('3yyqHBkRbFfPLqa0MOQUJM',#44,'PLATE','PL19*493','PL19*493',#48,#61,'IDfcf3444b-b9b9-4fa5-9574-90059869e4d6');
#63= IFCLOCALPLACEMENT(#42,#47);
#64= IFCDIRECTION((1.,0.));
#65= IFCAXIS2PLACEMENT2D(#49,#64);
#66= IFCCIRCLEPROFILEDEF(.AREA.,'\S\X315*20',#65,157.5);
#67= IFCDIRECTION((-0.0762041199626971,-0.99709223851192,0.));
#68= IFCDIRECTION((0.,0.,-1.));
#69= IFCCARTESIANPOINT((124.927180685282,922.092915291501,40.5000000000018));
#70= IFCAXIS2PLACEMENT3D(#69,#68,#67);
#71= IFCEXTRUDEDAREASOLID(#66,#70,#9,1950.);
#72= IFCSHAPEREPRESENTATION(#12,'Body','SweptSolid',(#71));
#73= IFCPRODUCTDEFINITIONSHAPE($,$,(#72));
#74= IFCOPENINGELEMENT('3VKtDFaFL4xeMods0rFKPU',#5,$,$,'Recess',#63,#73,$);
#75= IFCRELVOIDSELEMENT('2u62iehJ11jOQpjDQr3iSM',#5,$,$,#62,#74);
#76= IFCPROPERTYSINGLEVALUE('FeatureSubTypes',$,$,$);
#77= IFCPROPERTYSINGLEVALUE('RectangleOpeningWidth',$,$,$);
#78= IFCPROPERTYSINGLEVALUE('RectangleOpeningHeight',$,$,$);
#79= IFCPROPERTYSINGLEVALUE('OpeningDiameter',$,IFCPOSITIVELENGTHMEASURE(315.),$);
#80= IFCPROPERTYSET('2YWWPyyIn9Q9VNxUCfc_gk',#5,'AISC_EM11_Pset_Opening/Cope',$,(#76,#77,#78,#79));
#81= IFCCARTESIANPOINT((17206.093454276,8805.62307652239,13900.));
#82= IFCDIRECTION((0.0812880969784128,0.996690646735299,0.));
#83= IFCDIRECTION((0.996690646735299,-0.0812880969784123,0.));
#84= IFCAXIS2PLACEMENT3D(#81,#82,#83);
#85= IFCLOCALPLACEMENT(#42,#84);
#86= IFCCIRCLEPROFILEDEF(.AREA.,$,#65,11.5);
#87= IFCCARTESIANPOINT((0.,-19.1000000000002,0.));
#88= IFCAXIS2PLACEMENT3D(#87,#8,#7);
#89= IFCEXTRUDEDAREASOLID(#86,#88,#9,19.2);
#90= IFCSHAPEREPRESENTATION(#12,'Body','SweptSolid',(#89));
#91= IFCREPRESENTATIONMAP(#10,#90);
#92= IFCCARTESIANPOINT((1.45519152283669E-11,0.,-75.0000000001346));
#93= IFCCARTESIANTRANSFORMATIONOPERATOR3D($,$,#92,$,$);
#94= IFCMAPPEDITEM(#91,#93);
#95= IFCCARTESIANPOINT((74.9999999998763,0.,-75.0000000001455));
#96= IFCCARTESIANTRANSFORMATIONOPERATOR3D($,$,#95,$,$);
#97= IFCMAPPEDITEM(#91,#96);
#98= IFCCARTESIANPOINT((149.999999999738,0.,-75.0000000001564));
#99= IFCCARTESIANTRANSFORMATIONOPERATOR3D($,$,#98,$,$);
#100= IFCMAPPEDITEM(#91,#99);
#101= IFCCARTESIANPOINT((224.999999999603,0.,-75.0000000001673));
#102= IFCCARTESIANTRANSFORMATIONOPERATOR3D($,$,#101,$,$);
#103= IFCMAPPEDITEM(#91,#102);
#104= IFCCARTESIANPOINT((299.999999999465,0.,-75.0000000001801));
#105= IFCCARTESIANTRANSFORMATIONOPERATOR3D($,$,#104,$,$);
#106= IFCMAPPEDITEM(#91,#105);
#107= IFCCARTESIANPOINT((374.999999999331,0.,-75.0000000001892));
#108= IFCCARTESIANTRANSFORMATIONOPERATOR3D($,$,#107,$,$);
#109= IFCMAPPEDITEM(#91,#108);
#110= IFCCARTESIANPOINT((449.999999999196,0.,-75.0000000002019));
#111= IFCCARTESIANTRANSFORMATIONOPERATOR3D($,$,#110,$,$);
#112= IFCMAPPEDITEM(#91,#111);
#113= IFCCARTESIANPOINT((524.999999999058,0.,-75.000000000211));
#114= IFCCARTESIANTRANSFORMATIONOPERATOR3D($,$,#113,$,$);
#115= IFCMAPPEDITEM(#91,#114);
#116= IFCCARTESIANPOINT((599.999999998923,0.,-75.0000000002237));
#117= IFCCARTESIANTRANSFORMATIONOPERATOR3D($,$,#116,$,$);
#118= IFCMAPPEDITEM(#91,#117);
#119= IFCCARTESIANPOINT((674.999999998785,0.,-75.0000000002346));
#120= IFCCARTESIANTRANSFORMATIONOPERATOR3D($,$,#119,$,$);
#121= IFCMAPPEDITEM(#91,#120);
#122= IFCCARTESIANPOINT((-7.27595761418343E-12,0.,75.0000000001364));
#123= IFCCARTESIANTRANSFORMATIONOPERATOR3D($,$,#122,$,$);
#124= IFCMAPPEDITEM(#91,#123);
#125= IFCCARTESIANPOINT((74.9999999998545,0.,75.0000000001237));
#126= IFCCARTESIANTRANSFORMATIONOPERATOR3D($,$,#125,$,$);
#127= IFCMAPPEDITEM(#91,#126);
#128= IFCCARTESIANPOINT((149.99999999972,0.,75.0000000001146));
#129= IFCCARTESIANTRANSFORMATIONOPERATOR3D($,$,#128,$,$);
#130= IFCMAPPEDITEM(#91,#129);
#131= IFCCARTESIANPOINT((224.999999999582,0.,75.0000000001019));
#132= IFCCARTESIANTRANSFORMATIONOPERATOR3D($,$,#131,$,$);
#133= IFCMAPPEDITEM(#91,#132);
#134= IFCCARTESIANPOINT((299.999999999447,0.,75.0000000000928));
#135= IFCCARTESIANTRANSFORMATIONOPERATOR3D($,$,#134,$,$);
#136= IFCMAPPEDITEM(#91,#135);
#137= IFCCARTESIANPOINT((374.999999999309,0.,75.00000000008));
#138= IFCCARTESIANTRANSFORMATIONOPERATOR3D($,$,#137,$,$);
#139= IFCMAPPEDITEM(#91,#138);
#140= IFCCARTESIANPOINT((449.999999999171,0.,75.0000000000691));
#141= IFCCARTESIANTRANSFORMATIONOPERATOR3D($,$,#140,$,$);
#142= IFCMAPPEDITEM(#91,#141);
#143= IFCCARTESIANPOINT((524.999999999036,0.,75.0000000000582));
#144= IFCCARTESIANTRANSFORMATIONOPERATOR3D($,$,#143,$,$);
#145= IFCMAPPEDITEM(#91,#144);
#146= IFCCARTESIANPOINT((599.999999998898,0.,75.0000000000473));
#147= IFCCARTESIANTRANSFORMATIONOPERATOR3D($,$,#146,$,$);
#148= IFCMAPPEDITEM(#91,#147);
#149= IFCCARTESIANPOINT((674.999999998759,0.,75.0000000000364));
#150= IFCCARTESIANTRANSFORMATIONOPERATOR3D($,$,#149,$,$);
#151= IFCMAPPEDITEM(#91,#150);
#152= IFCSHAPEREPRESENTATION(#12,'Body','MappedRepresentation',(#94,#97,#100,#103,#106,#109,#112,#115,#118,#121,#124,#127,#130,#133,#136,#139,#142,#145,#148,#151));
#153= IFCPRODUCTDEFINITIONSHAPE($,$,(#152));
#154= IFCOPENINGELEMENT('0p5wuHduXElR_URsEwuunD',#5,$,$,'Opening',#85,#153,$);
#155= IFCRELVOIDSELEMENT('1EY0FKBLD2iP6uyHzYRtO8',#5,'Drill Hole',$,#62,#154);
#156= IFCPROPERTYSINGLEVALUE('FeatureSubTypes',$,IFCLABEL('TORNILLO'),$);
#157= IFCPROPERTYSINGLEVALUE('OpeningDiameter',$,$,$);
#158= IFCPROPERTYSET('2pXJmICqHB7RWGLyoXmm_W',#5,'AISC_EM11_Pset_Opening/Cope',$,(#156,#77,#78,#157));
#159= IFCCARTESIANPOINT((16793.5138984008,8806.84250235245,13900.));
#160= IFCDIRECTION((0.0762158009775085,-0.997091345705777,0.));
#161= IFCDIRECTION((-0.997091345705777,-0.0762158009775096,0.));
#162= IFCAXIS2PLACEMENT3D(#159,#160,#161);
#163= IFCLOCALPLACEMENT(#42,#162);
#164= IFCSHAPEREPRESENTATION(#12,'Body','MappedRepresentation',(#94,#97,#100,#103,#106,#109,#112,#115,#118,#121,#124,#127,#130,#133,#136,#139,#142,#145,#148,#151));
#165= IFCPRODUCTDEFINITIONSHAPE($,$,(#164));
#166= IFCOPENINGELEMENT('11mCcj41P3PPPhLp_MPBTU',#5,$,$,'Opening',#163,#165,$);
#167= IFCRELVOIDSELEMENT('2klW$ZsFnAaA33NcU5Kkpj',#5,'Drill Hole',$,#62,#166);
#168= IFCPROPERTYSINGLEVALUE('PieceMark',$,IFCIDENTIFIER('PLATE'),$);
#169= IFCPROPERTYSINGLEVALUE('IndicationMark',$,IFCIDENTIFIER('1128'),$);
#170= IFCPROPERTYSINGLEVALUE('PrelimMark',$,IFCIDENTIFIER(''),$);
#171= IFCPROPERTYSINGLEVALUE('MainPieceTag',$,IFCBOOLEAN(.T.),$);
#172= IFCPROPERTYSET('1wtgXzEnX0HA0qoRUEShmz',#5,'AISC_EM11_Pset_PieceIdentification','PieceIdentity',(#168,#169,#170,#171));
#173= IFCPROPERTYSINGLEVALUE('MaterialType',$,IFCIDENTIFIER('STEEL'),$);
#174= IFCPROPERTYSINGLEVALUE('MaterialGrade',$,IFCIDENTIFIER('S235JR'),$);
#175= IFCPROPERTYSET('1wve7a7gz088Z6$jeR8dqW',#5,'AISC_EM11_Pset_Material',$,(#173,#174));
#176= IFCMATERIAL('STEEL/S235JR');
#177= IFCRELAGGREGATES('0n5Um2em9ERwCgBUnn2ZGm',#5,$,$,#37,(#39));
#178= IFCRELAGGREGATES('23Nm2Kw2RWjCUyTm33KrY2',#5,$,$,#39,(#41));
#179= IFCRELAGGREGATES('1zTWyg1496ae0afnwnqbnz',#5,$,$,#41,(#43));
#180= IFCRELCONTAINEDINSPATIALSTRUCTURE('0yLbRepbvBOP0VcZUit26c',#5,$,$,(#62),#43);
#181= IFCRELDEFINESBYPROPERTIES('2VgQpZNnP8iedav4CKo7mR',#5,$,$,(#74),#80);
#182= IFCRELDEFINESBYPROPERTIES('33NWry345E2uD3HZdu_lkY',#5,$,$,(#166,#154),#158);
#183= IFCRELDEFINESBYPROPERTIES('1_u25$7yn1Zhbm$sRK6KyQ',#5,$,$,(#62),#172);
#184= IFCRELDEFINESBYPROPERTIES('3gmDDLD652TPo9k7xTm3fe',#5,$,$,(#62),#175);
#185= IFCRELASSOCIATESMATERIAL('0Gkxji1Cn1bvTnCadhPjUc',#5,$,$,(#62),#176);
ENDSEC;

END-ISO-10303-21;
