ISO-10303-21;
HEADER;
FILE_DESCRIPTION(('ViewDefinition[AISC_Steel_Detailing]', 'Option [BaseQuantities:Off]', 'Option [GridExport:On]', 'Option [Assemblies:Off]', 'Option [Bolts:On]', 'Option [Rebars:On]', 'Option [PourObjects:Off]', 'Option [Welds:On]', 'Option [SurfaceTreatments:On]', 'Option [LocationBy:0]', 'Option [ViewColors:Off]', 'Option [SectionedSpine:Off]', 'Option [PropertySets:On]', 'Option [Export all:Off]'),'2;1');
FILE_NAME('1136_Qty_2.ifc','2026-05-16T11:52:57',('GIOVANNIPC\\gcorrea'),('Structural Designer'),'IFC Database version: Work','Tekla Structures 2020 Service Pack 5, IFC Export Version: 4.0.0.0 Dec  7 2020','');
FILE_SCHEMA(('IFC2X3'));
ENDSEC;

DATA;
#1= IFCPERSON('GIOVANNIPC\\gcorrea','Undefined',$,$,$,$,$,$);
#2= IFCORGANIZATION($,'Trimble Solutions Corporation',$,$,$);
#3= IFCPERSONANDORGANIZATION(#1,#2,$);
#4= IFCAPPLICATION(#2,'2020 Service Pack 5','Tekla Structures','Multi material modeling');
#5= IFCOWNERHISTORY(#3,#4,$,.NOCHANGE.,$,$,$,1778950377);
#6= IFCCARTESIANPOINT((0.,0.,0.));
#7= IFCDIRECTION((1.,0.,0.));
#8= IFCDIRECTION((0.,1.,0.));
#9= IFCDIRECTION((0.,0.,1.));
#10= IFCAXIS2PLACEMENT3D(#6,#9,#7);
#11= IFCGEOMETRICREPRESENTATIONCONTEXT($,'Model',3,1.E-05,#10,$);
#12= IFCGEOMETRICREPRESENTATIONSUBCONTEXT('Body','Model',*,*,*,*,#11,$,.MODEL_VIEW.,$);
#13= IFCGEOMETRICREPRESENTATIONSUBCONTEXT('Axis','Model',*,*,*,*,#11,$,.GRAPH_VIEW.,$);
#14= IFCGEOMETRICREPRESENTATIONSUBCONTEXT('FootPrint','Model',*,*,*,*,#11,$,.MODEL_VIEW.,$);
#15= IFCSIUNIT(*,.LENGTHUNIT.,.MILLI.,.METRE.);
#16= IFCMEASUREWITHUNIT(IFCRATIOMEASURE(304.8),#15);
#17= IFCDIMENSIONALEXPONENTS(1,0,0,0,0,0,0);
#18= IFCCONVERSIONBASEDUNIT(#17,.LENGTHUNIT.,'FOOT',#16);
#19= IFCSIUNIT(*,.AREAUNIT.,$,.SQUARE_METRE.);
#20= IFCMEASUREWITHUNIT(IFCRATIOMEASURE(0.09290304),#19);
#21= IFCDIMENSIONALEXPONENTS(2,0,0,0,0,0,0);
#22= IFCCONVERSIONBASEDUNIT(#21,.AREAUNIT.,'SQUARE FOOT',#20);
#23= IFCSIUNIT(*,.VOLUMEUNIT.,$,.CUBIC_METRE.);
#24= IFCMEASUREWITHUNIT(IFCRATIOMEASURE(0.028316846592),#23);
#25= IFCDIMENSIONALEXPONENTS(3,0,0,0,0,0,0);
#26= IFCCONVERSIONBASEDUNIT(#25,.VOLUMEUNIT.,'CUBIC FOOT',#24);
#27= IFCSIUNIT(*,.MASSUNIT.,.KILO.,.GRAM.);
#28= IFCSIUNIT(*,.TIMEUNIT.,$,.SECOND.);
#29= IFCSIUNIT(*,.PLANEANGLEUNIT.,$,.RADIAN.);
#30= IFCMEASUREWITHUNIT(IFCRATIOMEASURE(0.0174532925199433),#29);
#31= IFCDIMENSIONALEXPONENTS(0,0,0,0,0,0,0);
#32= IFCCONVERSIONBASEDUNIT(#31,.PLANEANGLEUNIT.,'DEGREE',#30);
#33= IFCSIUNIT(*,.SOLIDANGLEUNIT.,$,.STERADIAN.);
#34= IFCSIUNIT(*,.THERMODYNAMICTEMPERATUREUNIT.,$,.DEGREE_CELSIUS.);
#35= IFCSIUNIT(*,.LUMINOUSINTENSITYUNIT.,$,.LUMEN.);
#36= IFCUNITASSIGNMENT((#15,#19,#23,#27,#28,#29,#33,#34,#35));
#37= IFCPROJECT('2G7ZFDNE16yBDU14FA92Me',#5,'Proyecto',$,$,$,$,(#11),#36);
#38= IFCLOCALPLACEMENT($,#10);
#39= IFCSITE('2xvEzEinjBTea80yOTcujY',#5,'Obra',$,$,#38,$,$,.ELEMENT.,$,$,$,$,$);
#40= IFCLOCALPLACEMENT(#38,#10);
#41= IFCBUILDING('0_MQyeAd529Rz5nxCscS4F',#5,'Undefined',$,$,#40,$,$,.ELEMENT.,$,$,$);
#42= IFCLOCALPLACEMENT(#40,#10);
#43= IFCBUILDINGSTOREY('29hdEUCErFze9E_VIAceOd',#5,'Undefined',$,$,#42,$,$,.ELEMENT.,0.);
#44= IFCOWNERHISTORY(#3,#4,$,.NOCHANGE.,$,$,$,1773162000);
#45= IFCCARTESIANPOINT((41827.5,22099.9006958008,13900.));
#46= IFCDIRECTION((0.,-1.,0.));
#47= IFCAXIS2PLACEMENT3D(#45,#9,#46);
#48= IFCLOCALPLACEMENT(#42,#47);
#49= IFCCARTESIANPOINT((0.,0.));
#50= IFCCARTESIANPOINT((200.,0.));
#51= IFCCARTESIANPOINT((242.307487611225,339.276818783715));
#52= IFCPOLYLINE((#49,#50,#51));
#53= IFCCOMPOSITECURVESEGMENT(.CONTINUOUS.,.T.,#52);
#54= IFCDIRECTION((-0.992314968306378,0.123737640494359));
#55= IFCCARTESIANPOINT((440.770481271682,314.529290684946));
#56= IFCAXIS2PLACEMENT2D(#55,#54);
#57= IFCCIRCLE(#56,200.);
#58= IFCTRIMMEDCURVE(#57,(IFCPARAMETERVALUE(0.)),(IFCPARAMETERVALUE(4.89433283760987)),.F.,.PARAMETER.);
#59= IFCCOMPOSITECURVESEGMENT(.CONTINUOUS.,.T.,#58);
#60= IFCCARTESIANPOINT((429.19929376056,514.194279151257));
#61= IFCCARTESIANPOINT((1032.49011230469,549.156799316406));
#62= IFCCARTESIANPOINT((1032.49011230469,799.156799316406));
#63= IFCCARTESIANPOINT((429.109953306409,832.097748905406));
#64= IFCPOLYLINE((#60,#61,#62,#63));
#65= IFCCOMPOSITECURVESEGMENT(.CONTINUOUS.,.T.,#64);
#66= IFCDIRECTION((-0.0545114224511388,-0.998513147045322));
#67= IFCCARTESIANPOINT((440.012237796633,1031.80037831439));
#68= IFCAXIS2PLACEMENT2D(#67,#66);
#69= IFCCIRCLE(#68,200.);
#70= IFCTRIMMEDCURVE(#69,(IFCPARAMETERVALUE(0.)),(IFCPARAMETERVALUE(4.88926213391103)),.F.,.PARAMETER.);
#71= IFCCOMPOSITECURVESEGMENT(.CONTINUOUS.,.T.,#70);
#72= IFCCARTESIANPOINT((241.506950110933,1007.39442082885));
#73= IFCCARTESIANPOINT((200.,1344.990234375));
#74= IFCCARTESIANPOINT((0.,1344.990234375));
#75= IFCCARTESIANPOINT((-41.1563644254414,1007.93536455859));
#76= IFCPOLYLINE((#72,#73,#74,#75));
#77= IFCCOMPOSITECURVESEGMENT(.CONTINUOUS.,.T.,#76);
#78= IFCDIRECTION((0.99262770988861,-0.121203257222293));
#79= IFCCARTESIANPOINT((-239.681906402586,1032.17601600298));
#80= IFCAXIS2PLACEMENT2D(#79,#78);
#81= IFCCIRCLE(#80,200.);
#82= IFCTRIMMEDCURVE(#81,(IFCPARAMETERVALUE(0.)),(IFCPARAMETERVALUE(4.88734284427453)),.F.,.PARAMETER.);
#83= IFCCOMPOSITECURVESEGMENT(.CONTINUOUS.,.T.,#82);
#84= IFCCARTESIANPOINT((-228.996620854052,832.461658300502));
#85= IFCCARTESIANPOINT((-832.2255859375,800.187194824219));
#86= IFCCARTESIANPOINT((-832.2255859375,550.187194824219));
#87= IFCCARTESIANPOINT((-228.134435100235,514.499695288445));
#88= IFCPOLYLINE((#84,#85,#86,#87));
#89= IFCCOMPOSITECURVESEGMENT(.CONTINUOUS.,.T.,#88);
#90= IFCDIRECTION((0.0589719021379858,0.998259642957797));
#91= IFCCARTESIANPOINT((-239.928815527826,314.847766696993));
#92= IFCAXIS2PLACEMENT2D(#91,#90);
#93= IFCCIRCLE(#92,200.);
#94= IFCTRIMMEDCURVE(#93,(IFCPARAMETERVALUE(0.)),(IFCPARAMETERVALUE(4.89289539390455)),.F.,.PARAMETER.);
#95= IFCCOMPOSITECURVESEGMENT(.CONTINUOUS.,.T.,#94);
#96= IFCCARTESIANPOINT((-41.4032320981405,339.088078655796));
#97= IFCPOLYLINE((#96,#49));
#98= IFCCOMPOSITECURVESEGMENT(.CONTINUOUS.,.T.,#97);
#99= IFCCOMPOSITECURVE((#53,#59,#65,#71,#77,#83,#89,#95,#98),.T.);
#100= IFCARBITRARYCLOSEDPROFILEDEF(.AREA.,'PL10*1354',#99);
#101= IFCCARTESIANPOINT((0.,0.,-5.));
#102= IFCAXIS2PLACEMENT3D(#101,#9,#7);
#103= IFCEXTRUDEDAREASOLID(#100,#102,#9,10.);
#104= IFCSHAPEREPRESENTATION(#12,'Body','SweptSolid',(#103));
#105= IFCPRODUCTDEFINITIONSHAPE($,$,(#104));
#106= IFCPLATE('0qSQcFqvf99hyIuosK8u4q',#44,'PLATE','PL10*1354','PL10*1354',#48,#105,'ID3471a98f-d39a-4926-bf12-e32d94238134');
#107= IFCCARTESIANPOINT((42499.9997812418,21792.4007173885,13900.));
#108= IFCDIRECTION((0.999997684458229,0.00215199400098209,0.));
#109= IFCDIRECTION((0.00215199400098172,-0.999997684458229,0.));
#110= IFCAXIS2PLACEMENT3D(#107,#108,#109);
#111= IFCLOCALPLACEMENT(#42,#110);
#112= IFCDIRECTION((1.,0.));
#113= IFCAXIS2PLACEMENT2D(#49,#112);
#114= IFCCIRCLEPROFILEDEF(.AREA.,$,#113,11.5);
#115= IFCCARTESIANPOINT((0.,-5.09999999999975,0.));
#116= IFCAXIS2PLACEMENT3D(#115,#8,#7);
#117= IFCEXTRUDEDAREASOLID(#114,#116,#9,10.2);
#118= IFCSHAPEREPRESENTATION(#12,'Body','SweptSolid',(#117));
#119= IFCREPRESENTATIONMAP(#10,#118);
#120= IFCCARTESIANPOINT((0.,0.,-74.9999999996144));
#121= IFCCARTESIANTRANSFORMATIONOPERATOR3D($,$,#120,$,$);
#122= IFCMAPPEDITEM(#119,#121);
#123= IFCCARTESIANPOINT((75.0000000001492,0.,-74.9999999998763));
#124= IFCCARTESIANTRANSFORMATIONOPERATOR3D($,$,#123,$,$);
#125= IFCMAPPEDITEM(#119,#124);
#126= IFCCARTESIANPOINT((150.000000000298,0.,-75.0000000001528));
#127= IFCCARTESIANTRANSFORMATIONOPERATOR3D($,$,#126,$,$);
#128= IFCMAPPEDITEM(#119,#127);
#129= IFCCARTESIANPOINT((225.000000000447,0.,-75.0000000004293));
#130= IFCCARTESIANTRANSFORMATIONOPERATOR3D($,$,#129,$,$);
#131= IFCMAPPEDITEM(#119,#130);
#132= IFCCARTESIANPOINT((300.000000000597,0.,-75.0000000007058));
#133= IFCCARTESIANTRANSFORMATIONOPERATOR3D($,$,#132,$,$);
#134= IFCMAPPEDITEM(#119,#133);
#135= IFCCARTESIANPOINT((375.000000000746,0.,-75.000000000975));
#136= IFCCARTESIANTRANSFORMATIONOPERATOR3D($,$,#135,$,$);
#137= IFCMAPPEDITEM(#119,#136);
#138= IFCCARTESIANPOINT((450.000000000895,0.,-75.0000000012442));
#139= IFCCARTESIANTRANSFORMATIONOPERATOR3D($,$,#138,$,$);
#140= IFCMAPPEDITEM(#119,#139);
#141= IFCCARTESIANPOINT((525.000000001044,0.,-75.0000000015207));
#142= IFCCARTESIANTRANSFORMATIONOPERATOR3D($,$,#141,$,$);
#143= IFCMAPPEDITEM(#119,#142);
#144= IFCCARTESIANPOINT((600.000000001197,0.,-75.0000000017972));
#145= IFCCARTESIANTRANSFORMATIONOPERATOR3D($,$,#144,$,$);
#146= IFCMAPPEDITEM(#119,#145);
#147= IFCCARTESIANPOINT((675.000000001342,0.,-75.0000000020664));
#148= IFCCARTESIANTRANSFORMATIONOPERATOR3D($,$,#147,$,$);
#149= IFCMAPPEDITEM(#119,#148);
#150= IFCCARTESIANPOINT((-3.63797880709171E-12,0.,74.9999999995998));
#151= IFCCARTESIANTRANSFORMATIONOPERATOR3D($,$,#150,$,$);
#152= IFCMAPPEDITEM(#119,#151);
#153= IFCCARTESIANPOINT((75.0000000001492,0.,74.9999999993233));
#154= IFCCARTESIANTRANSFORMATIONOPERATOR3D($,$,#153,$,$);
#155= IFCMAPPEDITEM(#119,#154);
#156= IFCCARTESIANPOINT((150.000000000295,0.,74.9999999990541));
#157= IFCCARTESIANTRANSFORMATIONOPERATOR3D($,$,#156,$,$);
#158= IFCMAPPEDITEM(#119,#157);
#159= IFCCARTESIANPOINT((225.000000000447,0.,74.9999999987849));
#160= IFCCARTESIANTRANSFORMATIONOPERATOR3D($,$,#159,$,$);
#161= IFCMAPPEDITEM(#119,#160);
#162= IFCCARTESIANPOINT((300.000000000597,0.,74.9999999985084));
#163= IFCCARTESIANTRANSFORMATIONOPERATOR3D($,$,#162,$,$);
#164= IFCMAPPEDITEM(#119,#163);
#165= IFCCARTESIANPOINT((375.000000000746,0.,74.9999999982319));
#166= IFCCARTESIANTRANSFORMATIONOPERATOR3D($,$,#165,$,$);
#167= IFCMAPPEDITEM(#119,#166);
#168= IFCCARTESIANPOINT((450.000000000895,0.,74.9999999979555));
#169= IFCCARTESIANTRANSFORMATIONOPERATOR3D($,$,#168,$,$);
#170= IFCMAPPEDITEM(#119,#169);
#171= IFCCARTESIANPOINT((525.000000001044,0.,74.9999999976862));
#172= IFCCARTESIANTRANSFORMATIONOPERATOR3D($,$,#171,$,$);
#173= IFCMAPPEDITEM(#119,#172);
#174= IFCCARTESIANPOINT((600.000000001197,0.,74.999999997417));
#175= IFCCARTESIANTRANSFORMATIONOPERATOR3D($,$,#174,$,$);
#176= IFCMAPPEDITEM(#119,#175);
#177= IFCCARTESIANPOINT((675.000000001342,0.,74.9999999971405));
#178= IFCCARTESIANTRANSFORMATIONOPERATOR3D($,$,#177,$,$);
#179= IFCMAPPEDITEM(#119,#178);
#180= IFCSHAPEREPRESENTATION(#12,'Body','MappedRepresentation',(#122,#125,#128,#131,#134,#137,#140,#143,#146,#149,#152,#155,#158,#161,#164,#167,#170,#173,#176,#179));
#181= IFCPRODUCTDEFINITIONSHAPE($,$,(#180));
#182= IFCOPENINGELEMENT('38mUjJ4lj1KAzk6ejFwWuS',#5,$,$,'Opening',#111,#181,$);
#183= IFCRELVOIDSELEMENT('2dO2V4xTnBAfWQsKEoj5nZ',#5,'Drill Hole',$,#106,#182);
#184= IFCPROPERTYSINGLEVALUE('FeatureSubTypes',$,IFCLABEL('TORNILLO'),$);
#185= IFCPROPERTYSINGLEVALUE('RectangleOpeningWidth',$,$,$);
#186= IFCPROPERTYSINGLEVALUE('RectangleOpeningHeight',$,$,$);
#187= IFCPROPERTYSINGLEVALUE('OpeningDiameter',$,$,$);
#188= IFCPROPERTYSET('3G1cPDRtnE0Q3FUwDobfqh',#5,'AISC_EM11_Pset_Opening/Cope',$,(#184,#185,#186,#187));
#189= IFCCARTESIANPOINT((42499.9997834091,22207.4006532333,13900.));
#190= IFCDIRECTION((-0.99999999999996,2.81999997241654E-07,0.));
#191= IFCAXIS2PLACEMENT3D(#189,#190,#8);
#192= IFCLOCALPLACEMENT(#42,#191);
#193= IFCSHAPEREPRESENTATION(#12,'Body','MappedRepresentation',(#122,#125,#128,#131,#134,#137,#140,#143,#146,#149,#152,#155,#158,#161,#164,#167,#170,#173,#176,#179));
#194= IFCPRODUCTDEFINITIONSHAPE($,$,(#193));
#195= IFCOPENINGELEMENT('1nCLroCpTAmRuHOw9HcS02',#5,$,$,'Opening',#192,#194,$);
#196= IFCRELVOIDSELEMENT('2JTUJIubDD7xv7WJ3Mt3pm',#5,'Drill Hole',$,#106,#195);
#197= IFCCARTESIANPOINT((42297.5,21999.9006958008,13900.));
#198= IFCAXIS2PLACEMENT3D(#197,#46,#190);
#199= IFCLOCALPLACEMENT(#42,#198);
#200= IFCCARTESIANPOINT((0.,0.,-50.));
#201= IFCCARTESIANTRANSFORMATIONOPERATOR3D($,$,#200,$,$);
#202= IFCMAPPEDITEM(#119,#201);
#203= IFCCARTESIANPOINT((70.,0.,-50.));
#204= IFCCARTESIANTRANSFORMATIONOPERATOR3D($,$,#203,$,$);
#205= IFCMAPPEDITEM(#119,#204);
#206= IFCCARTESIANPOINT((140.,0.,-50.));
#207= IFCCARTESIANTRANSFORMATIONOPERATOR3D($,$,#206,$,$);
#208= IFCMAPPEDITEM(#119,#207);
#209= IFCCARTESIANPOINT((210.,0.,-50.));
#210= IFCCARTESIANTRANSFORMATIONOPERATOR3D($,$,#209,$,$);
#211= IFCMAPPEDITEM(#119,#210);
#212= IFCCARTESIANPOINT((280.,0.,-50.));
#213= IFCCARTESIANTRANSFORMATIONOPERATOR3D($,$,#212,$,$);
#214= IFCMAPPEDITEM(#119,#213);
#215= IFCCARTESIANPOINT((350.,0.,-50.));
#216= IFCCARTESIANTRANSFORMATIONOPERATOR3D($,$,#215,$,$);
#217= IFCMAPPEDITEM(#119,#216);
#218= IFCCARTESIANPOINT((420.,0.,-50.));
#219= IFCCARTESIANTRANSFORMATIONOPERATOR3D($,$,#218,$,$);
#220= IFCMAPPEDITEM(#119,#219);
#221= IFCCARTESIANPOINT((0.,0.,50.));
#222= IFCCARTESIANTRANSFORMATIONOPERATOR3D($,$,#221,$,$);
#223= IFCMAPPEDITEM(#119,#222);
#224= IFCCARTESIANPOINT((70.,0.,50.));
#225= IFCCARTESIANTRANSFORMATIONOPERATOR3D($,$,#224,$,$);
#226= IFCMAPPEDITEM(#119,#225);
#227= IFCCARTESIANPOINT((140.,0.,50.));
#228= IFCCARTESIANTRANSFORMATIONOPERATOR3D($,$,#227,$,$);
#229= IFCMAPPEDITEM(#119,#228);
#230= IFCCARTESIANPOINT((210.,0.,50.));
#231= IFCCARTESIANTRANSFORMATIONOPERATOR3D($,$,#230,$,$);
#232= IFCMAPPEDITEM(#119,#231);
#233= IFCCARTESIANPOINT((280.,0.,50.));
#234= IFCCARTESIANTRANSFORMATIONOPERATOR3D($,$,#233,$,$);
#235= IFCMAPPEDITEM(#119,#234);
#236= IFCCARTESIANPOINT((350.,0.,50.));
#237= IFCCARTESIANTRANSFORMATIONOPERATOR3D($,$,#236,$,$);
#238= IFCMAPPEDITEM(#119,#237);
#239= IFCCARTESIANPOINT((420.,0.,50.));
#240= IFCCARTESIANTRANSFORMATIONOPERATOR3D($,$,#239,$,$);
#241= IFCMAPPEDITEM(#119,#240);
#242= IFCSHAPEREPRESENTATION(#12,'Body','MappedRepresentation',(#202,#205,#208,#211,#214,#217,#220,#223,#226,#229,#232,#235,#238,#241));
#243= IFCPRODUCTDEFINITIONSHAPE($,$,(#242));
#244= IFCOPENINGELEMENT('0VJ4aKikj4fB02TYH8NuYz',#5,$,$,'Opening',#199,#243,$);
#245= IFCRELVOIDSELEMENT('0huV0D1Ub6Zf_GkuGc1Z$n',#5,'Drill Hole',$,#106,#244);
#246= IFCCARTESIANPOINT((42702.4951064521,22000.0000658529,13900.));
#247= IFCAXIS2PLACEMENT3D(#246,#8,#7);
#248= IFCLOCALPLACEMENT(#42,#247);
#249= IFCSHAPEREPRESENTATION(#12,'Body','MappedRepresentation',(#202,#205,#208,#211,#214,#217,#220,#223,#226,#229,#232,#235,#238,#241));
#250= IFCPRODUCTDEFINITIONSHAPE($,$,(#249));
#251= IFCOPENINGELEMENT('3B_FGLD6H9xxi$StH3E0ip',#5,$,$,'Opening',#248,#250,$);
#252= IFCRELVOIDSELEMENT('2UOeyQvKr2n9drMaENeSzc',#5,'Drill Hole',$,#106,#251);
#253= IFCPROPERTYSINGLEVALUE('PieceMark',$,IFCIDENTIFIER('PLATE'),$);
#254= IFCPROPERTYSINGLEVALUE('IndicationMark',$,IFCIDENTIFIER('1136'),$);
#255= IFCPROPERTYSINGLEVALUE('PrelimMark',$,IFCIDENTIFIER(''),$);
#256= IFCPROPERTYSINGLEVALUE('MainPieceTag',$,IFCBOOLEAN(.T.),$);
#257= IFCPROPERTYSET('2_048D3Cv2OhlorLHfCdjH',#5,'AISC_EM11_Pset_PieceIdentification','PieceIdentity',(#253,#254,#255,#256));
#258= IFCPROPERTYSINGLEVALUE('MaterialType',$,IFCIDENTIFIER('STEEL'),$);
#259= IFCPROPERTYSINGLEVALUE('MaterialGrade',$,IFCIDENTIFIER('S235JR'),$);
#260= IFCPROPERTYSET('0Y7E5q0YL6rvukEaIJmvq3',#5,'AISC_EM11_Pset_Material',$,(#258,#259));
#261= IFCMATERIAL('STEEL/S235JR');
#262= IFCRELAGGREGATES('2Sj5IObS9AM9rRpV3ztgEq',#5,$,$,#37,(#39));
#263= IFCRELAGGREGATES('2k$NagtkRSeR7j5nLF9yW6',#5,$,$,#39,(#41));
#264= IFCRELAGGREGATES('2ZlU8C01bFeO97Gp01GOnp',#5,$,$,#41,(#43));
#265= IFCRELCONTAINEDINSPATIALSTRUCTURE('2k4ndGdWj2uPclXdsaDAD4',#5,$,$,(#106),#43);
#266= IFCRELDEFINESBYPROPERTIES('2m0FN6b1n38eW1SURBfeuu',#5,$,$,(#251,#244,#195,#182),#188);
#267= IFCRELDEFINESBYPROPERTIES('3lEmYZ7s1D88ZD8hlUCxOM',#5,$,$,(#106),#257);
#268= IFCRELDEFINESBYPROPERTIES('2wHKbddGv0KfowoAxbKxs6',#5,$,$,(#106),#260);
#269= IFCRELASSOCIATESMATERIAL('1XIJqzLTb0oxQyveRnjHNm',#5,$,$,(#106),#261);
ENDSEC;

END-ISO-10303-21;
