ISO-10303-21;
HEADER;
FILE_DESCRIPTION(('ViewDefinition[AISC_Steel_Detailing]', 'Option [BaseQuantities:Off]', 'Option [GridExport:On]', 'Option [Assemblies:Off]', 'Option [Bolts:On]', 'Option [Rebars:On]', 'Option [PourObjects:Off]', 'Option [Welds:On]', 'Option [SurfaceTreatments:On]', 'Option [LocationBy:0]', 'Option [ViewColors:Off]', 'Option [SectionedSpine:Off]', 'Option [PropertySets:On]', 'Option [Export all:Off]'),'2;1');
FILE_NAME('1138_Qty_4.ifc','2026-05-16T11:52:52',('GIOVANNIPC\\gcorrea'),('Structural Designer'),'IFC Database version: Work','Tekla Structures 2020 Service Pack 5, IFC Export Version: 4.0.0.0 Dec  7 2020','');
FILE_SCHEMA(('IFC2X3'));
ENDSEC;

DATA;
#1= IFCPERSON('GIOVANNIPC\\gcorrea','Undefined',$,$,$,$,$,$);
#2= IFCORGANIZATION($,'Trimble Solutions Corporation',$,$,$);
#3= IFCPERSONANDORGANIZATION(#1,#2,$);
#4= IFCAPPLICATION(#2,'2020 Service Pack 5','Tekla Structures','Multi material modeling');
#5= IFCOWNERHISTORY(#3,#4,$,.NOCHANGE.,$,$,$,1778950372);
#6= IFCCARTESIANPOINT((0.,0.,0.));
#7= IFCDIRECTION((1.,0.,0.));
#8= IFCDIRECTION((0.,1.,0.));
#9= IFCDIRECTION((0.,0.,1.));
#10= IFCAXIS2PLACEMENT3D(#6,#9,#7);
#11= IFCGEOMETRICREPRESENTATIONCONTEXT($,'Model',3,1.E-05,#10,$);
#12= IFCGEOMETRICREPRESENTATIONSUBCONTEXT('Body','Model',*,*,*,*,#11,$,.MODEL_VIEW.,$);
#13= IFCGEOMETRICREPRESENTATIONSUBCONTEXT('Axis','Model',*,*,*,*,#11,$,.GRAPH_VIEW.,$);
#14= IFCGEOMETRICREPRESENTATIONSUBCONTEXT('FootPrint','Model',*,*,*,*,#11,$,.MODEL_VIEW.,$);
#15= IFCSIUNIT(*,.LENGTHUNIT.,.MILLI.,.METRE.);
#16= IFCMEASUREWITHUNIT(IFCRATIOMEASURE(304.8),#15);
#17= IFCDIMENSIONALEXPONENTS(1,0,0,0,0,0,0);
#18= IFCCONVERSIONBASEDUNIT(#17,.LENGTHUNIT.,'FOOT',#16);
#19= IFCSIUNIT(*,.AREAUNIT.,$,.SQUARE_METRE.);
#20= IFCMEASUREWITHUNIT(IFCRATIOMEASURE(0.09290304),#19);
#21= IFCDIMENSIONALEXPONENTS(2,0,0,0,0,0,0);
#22= IFCCONVERSIONBASEDUNIT(#21,.AREAUNIT.,'SQUARE FOOT',#20);
#23= IFCSIUNIT(*,.VOLUMEUNIT.,$,.CUBIC_METRE.);
#24= IFCMEASUREWITHUNIT(IFCRATIOMEASURE(0.028316846592),#23);
#25= IFCDIMENSIONALEXPONENTS(3,0,0,0,0,0,0);
#26= IFCCONVERSIONBASEDUNIT(#25,.VOLUMEUNIT.,'CUBIC FOOT',#24);
#27= IFCSIUNIT(*,.MASSUNIT.,.KILO.,.GRAM.);
#28= IFCSIUNIT(*,.TIMEUNIT.,$,.SECOND.);
#29= IFCSIUNIT(*,.PLANEANGLEUNIT.,$,.RADIAN.);
#30= IFCMEASUREWITHUNIT(IFCRATIOMEASURE(0.0174532925199433),#29);
#31= IFCDIMENSIONALEXPONENTS(0,0,0,0,0,0,0);
#32= IFCCONVERSIONBASEDUNIT(#31,.PLANEANGLEUNIT.,'DEGREE',#30);
#33= IFCSIUNIT(*,.SOLIDANGLEUNIT.,$,.STERADIAN.);
#34= IFCSIUNIT(*,.THERMODYNAMICTEMPERATUREUNIT.,$,.DEGREE_CELSIUS.);
#35= IFCSIUNIT(*,.LUMINOUSINTENSITYUNIT.,$,.LUMEN.);
#36= IFCUNITASSIGNMENT((#15,#19,#23,#27,#28,#29,#33,#34,#35));
#37= IFCPROJECT('2G7ZFDNE16yBDU14FA92Me',#5,'Proyecto',$,$,$,$,(#11),#36);
#38= IFCLOCALPLACEMENT($,#10);
#39= IFCSITE('2xvEzEinjBTea80yOTcujY',#5,'Obra',$,$,#38,$,$,.ELEMENT.,$,$,$,$,$);
#40= IFCLOCALPLACEMENT(#38,#10);
#41= IFCBUILDING('1amW3KXLz7IhaYU4jkDyG3',#5,'Undefined',$,$,#40,$,$,.ELEMENT.,$,$,$);
#42= IFCLOCALPLACEMENT(#40,#10);
#43= IFCBUILDINGSTOREY('29hdEUCErFze9E_VIAceOd',#5,'Undefined',$,$,#42,$,$,.ELEMENT.,0.);
#44= IFCOWNERHISTORY(#3,#4,$,.NOCHANGE.,$,$,$,1774036800);
#45= IFCCARTESIANPOINT((41579.974896261,24021.8840380863,19359.5));
#46= IFCDIRECTION((-1.39999901875619E-08,-1.,0.));
#47= IFCAXIS2PLACEMENT3D(#45,#9,#46);
#48= IFCLOCALPLACEMENT(#42,#47);
#49= IFCCARTESIANPOINT((0.,0.));
#50= IFCCARTESIANPOINT((250.,-1.60071067512035E-10));
#51= IFCCARTESIANPOINT((249.999999999996,462.242826702888));
#52= IFCCARTESIANPOINT((254.205230276217,526.954080086944));
#53= IFCCARTESIANPOINT((266.750185258148,590.576830583224));
#54= IFCCARTESIANPOINT((287.423847247781,652.040884925176));
#55= IFCCARTESIANPOINT((315.878466207836,710.312361103912));
#56= IFCCARTESIANPOINT((349.999999999996,770.025024414063));
#57= IFCCARTESIANPOINT((349.999999999996,1070.02502441406));
#58= IFCCARTESIANPOINT((315.878355444569,1129.737934927));
#59= IFCCARTESIANPOINT((287.423777186115,1188.00937753859));
#60= IFCCARTESIANPOINT((266.750145295649,1249.47339133822));
#61= IFCCARTESIANPOINT((254.205208789113,1313.09609653023));
#62= IFCCARTESIANPOINT((249.999984741211,1377.80730219516));
#63= IFCCARTESIANPOINT((249.999984741207,1840.04992675781));
#64= IFCCARTESIANPOINT((-4.61602467112243E-05,1840.05004882813));
#65= IFCCARTESIANPOINT((-3.28432834066916E-05,1377.80729404298));
#66= IFCCARTESIANPOINT((-4.20525453411392,1313.09609203243));
#67= IFCCARTESIANPOINT((-16.7501877459399,1249.4733900635));
#68= IFCCARTESIANPOINT((-37.4238154842024,1188.009378876));
#69= IFCCARTESIANPOINT((-65.8783888435719,1129.73793810046));
#70= IFCCARTESIANPOINT((-100.000030517582,1070.02502441406));
#71= IFCCARTESIANPOINT((-100.000022888187,770.025024414063));
#72= IFCCARTESIANPOINT((-65.8784856648417,710.31235853034));
#73= IFCCARTESIANPOINT((-37.4238654550536,652.040883525195));
#74= IFCCARTESIANPOINT((-16.7502020119464,590.576830206199));
#75= IFCCARTESIANPOINT((-4.20524539182952,526.95408054888));
#76= IFCCARTESIANPOINT((-1.33169705804903E-05,462.242827788985));
#77= IFCPOLYLINE((#49,#50,#51,#52,#53,#54,#55,#56,#57,#58,#59,#60,#61,#62,#63,#64,#65,#66,#67,#68,#69,#70,#71,#72,#73,#74,#75,#76,#49));
#78= IFCARBITRARYCLOSEDPROFILEDEF(.AREA.,'PL19*450',#77);
#79= IFCCARTESIANPOINT((0.,0.,-9.49999999999636));
#80= IFCAXIS2PLACEMENT3D(#79,#9,#7);
#81= IFCEXTRUDEDAREASOLID(#78,#80,#9,19.);
#82= IFCSHAPEREPRESENTATION(#12,'Body','SweptSolid',(#81));
#83= IFCPRODUCTDEFINITIONSHAPE($,$,(#82));
#84= IFCPLATE('06aZ8Nefn1pheiZ$q$C$ip',#44,'PLATE','PL19*450','PL19*450',#48,#83,'ID06923217-a29c-41ce-ba2c-8ffd3f33fb33');
#85= IFCCARTESIANPOINT((42294.9749011724,23896.8840303914,19369.));
#86= IFCDIRECTION((-1.,9.99999946825704E-09,0.));
#87= IFCAXIS2PLACEMENT3D(#85,#46,#86);
#88= IFCLOCALPLACEMENT(#42,#87);
#89= IFCDIRECTION((1.,0.));
#90= IFCAXIS2PLACEMENT2D(#49,#89);
#91= IFCCIRCLEPROFILEDEF(.AREA.,$,#90,11.5);
#92= IFCCARTESIANPOINT((0.,-0.0999999999981952,0.));
#93= IFCAXIS2PLACEMENT3D(#92,#8,#7);
#94= IFCEXTRUDEDAREASOLID(#91,#93,#9,19.2);
#95= IFCSHAPEREPRESENTATION(#12,'Body','SweptSolid',(#94));
#96= IFCREPRESENTATIONMAP(#10,#95);
#97= IFCCARTESIANPOINT((-2.69210431724787E-10,0.,-75.));
#98= IFCCARTESIANTRANSFORMATIONOPERATOR3D($,$,#97,$,$);
#99= IFCMAPPEDITEM(#96,#98);
#100= IFCCARTESIANPOINT((74.9999999997308,0.,-75.0000000005457));
#101= IFCCARTESIANTRANSFORMATIONOPERATOR3D($,$,#100,$,$);
#102= IFCMAPPEDITEM(#96,#101);
#103= IFCCARTESIANPOINT((149.999999999731,0.,-75.0000000010914));
#104= IFCCARTESIANTRANSFORMATIONOPERATOR3D($,$,#103,$,$);
#105= IFCMAPPEDITEM(#96,#104);
#106= IFCCARTESIANPOINT((224.999999999731,0.,-75.0000000016371));
#107= IFCCARTESIANTRANSFORMATIONOPERATOR3D($,$,#106,$,$);
#108= IFCMAPPEDITEM(#96,#107);
#109= IFCCARTESIANPOINT((299.999999999731,0.,-75.0000000021828));
#110= IFCCARTESIANTRANSFORMATIONOPERATOR3D($,$,#109,$,$);
#111= IFCMAPPEDITEM(#96,#110);
#112= IFCCARTESIANPOINT((374.999999999731,0.,-75.0000000027285));
#113= IFCCARTESIANTRANSFORMATIONOPERATOR3D($,$,#112,$,$);
#114= IFCMAPPEDITEM(#96,#113);
#115= IFCCARTESIANPOINT((449.999999999731,0.,-75.0000000032742));
#116= IFCCARTESIANTRANSFORMATIONOPERATOR3D($,$,#115,$,$);
#117= IFCMAPPEDITEM(#96,#116);
#118= IFCCARTESIANPOINT((524.999999999731,0.,-75.0000000038199));
#119= IFCCARTESIANTRANSFORMATIONOPERATOR3D($,$,#118,$,$);
#120= IFCMAPPEDITEM(#96,#119);
#121= IFCCARTESIANPOINT((599.999999999731,0.,-75.0000000043656));
#122= IFCCARTESIANTRANSFORMATIONOPERATOR3D($,$,#121,$,$);
#123= IFCMAPPEDITEM(#96,#122);
#124= IFCCARTESIANPOINT((674.999999999731,0.,-75.0000000049113));
#125= IFCCARTESIANTRANSFORMATIONOPERATOR3D($,$,#124,$,$);
#126= IFCMAPPEDITEM(#96,#125);
#127= IFCCARTESIANPOINT((2.7648638933897E-10,0.,75.));
#128= IFCCARTESIANTRANSFORMATIONOPERATOR3D($,$,#127,$,$);
#129= IFCMAPPEDITEM(#96,#128);
#130= IFCCARTESIANPOINT((75.0000000002765,0.,74.9999999994543));
#131= IFCCARTESIANTRANSFORMATIONOPERATOR3D($,$,#130,$,$);
#132= IFCMAPPEDITEM(#96,#131);
#133= IFCCARTESIANPOINT((150.000000000276,0.,74.9999999989086));
#134= IFCCARTESIANTRANSFORMATIONOPERATOR3D($,$,#133,$,$);
#135= IFCMAPPEDITEM(#96,#134);
#136= IFCCARTESIANPOINT((225.000000000276,0.,74.9999999983629));
#137= IFCCARTESIANTRANSFORMATIONOPERATOR3D($,$,#136,$,$);
#138= IFCMAPPEDITEM(#96,#137);
#139= IFCCARTESIANPOINT((300.000000000276,0.,74.9999999978172));
#140= IFCCARTESIANTRANSFORMATIONOPERATOR3D($,$,#139,$,$);
#141= IFCMAPPEDITEM(#96,#140);
#142= IFCCARTESIANPOINT((375.000000000276,0.,74.9999999972715));
#143= IFCCARTESIANTRANSFORMATIONOPERATOR3D($,$,#142,$,$);
#144= IFCMAPPEDITEM(#96,#143);
#145= IFCCARTESIANPOINT((450.000000000276,0.,74.9999999967258));
#146= IFCCARTESIANTRANSFORMATIONOPERATOR3D($,$,#145,$,$);
#147= IFCMAPPEDITEM(#96,#146);
#148= IFCCARTESIANPOINT((525.000000000276,0.,74.9999999961801));
#149= IFCCARTESIANTRANSFORMATIONOPERATOR3D($,$,#148,$,$);
#150= IFCMAPPEDITEM(#96,#149);
#151= IFCCARTESIANPOINT((600.000000000276,0.,74.9999999956344));
#152= IFCCARTESIANTRANSFORMATIONOPERATOR3D($,$,#151,$,$);
#153= IFCMAPPEDITEM(#96,#152);
#154= IFCCARTESIANPOINT((675.000000000276,0.,74.9999999950887));
#155= IFCCARTESIANTRANSFORMATIONOPERATOR3D($,$,#154,$,$);
#156= IFCMAPPEDITEM(#96,#155);
#157= IFCSHAPEREPRESENTATION(#12,'Body','MappedRepresentation',(#99,#102,#105,#108,#111,#114,#117,#120,#123,#126,#129,#132,#135,#138,#141,#144,#147,#150,#153,#156));
#158= IFCPRODUCTDEFINITIONSHAPE($,$,(#157));
#159= IFCOPENINGELEMENT('1MinxO3nbFRfI0xvEi3kIH',#5,$,$,'Opening',#88,#158,$);
#160= IFCRELVOIDSELEMENT('0UNNtbGl5AjBoH$5_oJ2dm',#5,'Drill Hole',$,#84,#159);
#161= IFCPROPERTYSINGLEVALUE('FeatureSubTypes',$,IFCLABEL('TORNILLO'),$);
#162= IFCPROPERTYSINGLEVALUE('RectangleOpeningWidth',$,$,$);
#163= IFCPROPERTYSINGLEVALUE('RectangleOpeningHeight',$,$,$);
#164= IFCPROPERTYSINGLEVALUE('OpeningDiameter',$,$,$);
#165= IFCPROPERTYSET('2xfWvZXgLDGRL9ZMXGiWBh',#5,'AISC_EM11_Pset_Opening/Cope',$,(#161,#162,#163,#164));
#166= IFCCARTESIANPOINT((42705.0247834091,23896.8840303914,19369.));
#167= IFCAXIS2PLACEMENT3D(#166,#8,#7);
#168= IFCLOCALPLACEMENT(#42,#167);
#169= IFCSHAPEREPRESENTATION(#12,'Body','MappedRepresentation',(#99,#102,#105,#108,#111,#114,#117,#120,#123,#126,#129,#132,#135,#138,#141,#144,#147,#150,#153,#156));
#170= IFCPRODUCTDEFINITIONSHAPE($,$,(#169));
#171= IFCOPENINGELEMENT('3jHIxrH$b6G9jnANAgALIW',#5,$,$,'Opening',#168,#170,$);
#172= IFCRELVOIDSELEMENT('0TNEvoxIrCY9LYVVyv2x25',#5,'Drill Hole',$,#84,#171);
#173= IFCCARTESIANPOINT((42499.9998561392,23721.8840328359,19369.));
#174= IFCAXIS2PLACEMENT3D(#173,#7,#46);
#175= IFCLOCALPLACEMENT(#42,#174);
#176= IFCSHAPEREPRESENTATION(#12,'Body','MappedRepresentation',(#99,#129));
#177= IFCPRODUCTDEFINITIONSHAPE($,$,(#176));
#178= IFCOPENINGELEMENT('1SJ4_QIg90hxcPYA$8pLtw',#5,$,$,'Opening',#175,#177,$);
#179= IFCRELVOIDSELEMENT('2oRFYNmoz89BFjBJD6XqJB',#5,'Drill Hole',$,#84,#178);
#180= IFCCARTESIANPOINT((42499.9999206746,24071.884048277,19369.));
#181= IFCAXIS2PLACEMENT3D(#180,#86,#8);
#182= IFCLOCALPLACEMENT(#42,#181);
#183= IFCSHAPEREPRESENTATION(#12,'Body','MappedRepresentation',(#99,#129));
#184= IFCPRODUCTDEFINITIONSHAPE($,$,(#183));
#185= IFCOPENINGELEMENT('0GDY1Ap0n9uehxl8n06dhQ',#5,$,$,'Opening',#182,#184,$);
#186= IFCRELVOIDSELEMENT('2G7JJRqrnDlxoFl5Mrjpb2',#5,'Drill Hole',$,#84,#185);
#187= IFCPROPERTYSINGLEVALUE('PieceMark',$,IFCIDENTIFIER('PLATE'),$);
#188= IFCPROPERTYSINGLEVALUE('IndicationMark',$,IFCIDENTIFIER('1138'),$);
#189= IFCPROPERTYSINGLEVALUE('PrelimMark',$,IFCIDENTIFIER(''),$);
#190= IFCPROPERTYSINGLEVALUE('MainPieceTag',$,IFCBOOLEAN(.F.),$);
#191= IFCPROPERTYSET('1omVqlyDLCPRGZhJgLQfgd',#5,'AISC_EM11_Pset_PieceIdentification','PieceIdentity',(#187,#188,#189,#190));
#192= IFCPROPERTYSINGLEVALUE('MaterialType',$,IFCIDENTIFIER('STEEL'),$);
#193= IFCPROPERTYSINGLEVALUE('MaterialGrade',$,IFCIDENTIFIER('S235JR'),$);
#194= IFCPROPERTYSET('3mG7c1nuPC5xp1szDDnuzI',#5,'AISC_EM11_Pset_Material',$,(#192,#193));
#195= IFCMATERIAL('STEEL/S235JR');
#196= IFCRELAGGREGATES('33CG$$9kHDABkxHvOMEaEd',#5,$,$,#37,(#39));
#197= IFCRELAGGREGATES('2LUYHHR0ZVST0DZBgeWsWv',#5,$,$,#39,(#41));
#198= IFCRELAGGREGATES('3EVcilxa96rAmotT00lHU1',#5,$,$,#41,(#43));
#199= IFCRELCONTAINEDINSPATIALSTRUCTURE('2n0ZW2Bj5BHhdRi6Cld7$9',#5,$,$,(#84),#43);
#200= IFCRELDEFINESBYPROPERTIES('1o5LAe1pH30f2EfwDgZqoV',#5,$,$,(#185,#178,#171,#159),#165);
#201= IFCRELDEFINESBYPROPERTIES('1ZZ7UUklz3_wiyaP0S1WSa',#5,$,$,(#84),#191);
#202= IFCRELDEFINESBYPROPERTIES('0bfDjg7Z51yReNWG9BEwy0',#5,$,$,(#84),#194);
#203= IFCRELASSOCIATESMATERIAL('0HVSy71JX8pR0dwvdS41mQ',#5,$,$,(#84),#195);
ENDSEC;

END-ISO-10303-21;
