ISO-10303-21;
HEADER;
FILE_DESCRIPTION(('ViewDefinition[AISC_Steel_Detailing]', 'Option [BaseQuantities:Off]', 'Option [GridExport:On]', 'Option [Assemblies:Off]', 'Option [Bolts:On]', 'Option [Rebars:On]', 'Option [PourObjects:Off]', 'Option [Welds:On]', 'Option [SurfaceTreatments:On]', 'Option [LocationBy:0]', 'Option [ViewColors:Off]', 'Option [SectionedSpine:Off]', 'Option [PropertySets:On]', 'Option [Export all:Off]'),'2;1');
FILE_NAME('1139_Qty_1.ifc','2026-05-16T11:52:57',('GIOVANNIPC\\gcorrea'),('Structural Designer'),'IFC Database version: Work','Tekla Structures 2020 Service Pack 5, IFC Export Version: 4.0.0.0 Dec  7 2020','');
FILE_SCHEMA(('IFC2X3'));
ENDSEC;

DATA;
#1= IFCPERSON('GIOVANNIPC\\gcorrea','Undefined',$,$,$,$,$,$);
#2= IFCORGANIZATION($,'Trimble Solutions Corporation',$,$,$);
#3= IFCPERSONANDORGANIZATION(#1,#2,$);
#4= IFCAPPLICATION(#2,'2020 Service Pack 5','Tekla Structures','Multi material modeling');
#5= IFCOWNERHISTORY(#3,#4,$,.NOCHANGE.,$,$,$,1778950377);
#6= IFCCARTESIANPOINT((0.,0.,0.));
#7= IFCDIRECTION((1.,0.,0.));
#8= IFCDIRECTION((0.,1.,0.));
#9= IFCDIRECTION((0.,0.,1.));
#10= IFCAXIS2PLACEMENT3D(#6,#9,#7);
#11= IFCGEOMETRICREPRESENTATIONCONTEXT($,'Model',3,1.E-05,#10,$);
#12= IFCGEOMETRICREPRESENTATIONSUBCONTEXT('Body','Model',*,*,*,*,#11,$,.MODEL_VIEW.,$);
#13= IFCGEOMETRICREPRESENTATIONSUBCONTEXT('Axis','Model',*,*,*,*,#11,$,.GRAPH_VIEW.,$);
#14= IFCGEOMETRICREPRESENTATIONSUBCONTEXT('FootPrint','Model',*,*,*,*,#11,$,.MODEL_VIEW.,$);
#15= IFCSIUNIT(*,.LENGTHUNIT.,.MILLI.,.METRE.);
#16= IFCMEASUREWITHUNIT(IFCRATIOMEASURE(304.8),#15);
#17= IFCDIMENSIONALEXPONENTS(1,0,0,0,0,0,0);
#18= IFCCONVERSIONBASEDUNIT(#17,.LENGTHUNIT.,'FOOT',#16);
#19= IFCSIUNIT(*,.AREAUNIT.,$,.SQUARE_METRE.);
#20= IFCMEASUREWITHUNIT(IFCRATIOMEASURE(0.09290304),#19);
#21= IFCDIMENSIONALEXPONENTS(2,0,0,0,0,0,0);
#22= IFCCONVERSIONBASEDUNIT(#21,.AREAUNIT.,'SQUARE FOOT',#20);
#23= IFCSIUNIT(*,.VOLUMEUNIT.,$,.CUBIC_METRE.);
#24= IFCMEASUREWITHUNIT(IFCRATIOMEASURE(0.028316846592),#23);
#25= IFCDIMENSIONALEXPONENTS(3,0,0,0,0,0,0);
#26= IFCCONVERSIONBASEDUNIT(#25,.VOLUMEUNIT.,'CUBIC FOOT',#24);
#27= IFCSIUNIT(*,.MASSUNIT.,.KILO.,.GRAM.);
#28= IFCSIUNIT(*,.TIMEUNIT.,$,.SECOND.);
#29= IFCSIUNIT(*,.PLANEANGLEUNIT.,$,.RADIAN.);
#30= IFCMEASUREWITHUNIT(IFCRATIOMEASURE(0.0174532925199433),#29);
#31= IFCDIMENSIONALEXPONENTS(0,0,0,0,0,0,0);
#32= IFCCONVERSIONBASEDUNIT(#31,.PLANEANGLEUNIT.,'DEGREE',#30);
#33= IFCSIUNIT(*,.SOLIDANGLEUNIT.,$,.STERADIAN.);
#34= IFCSIUNIT(*,.THERMODYNAMICTEMPERATUREUNIT.,$,.DEGREE_CELSIUS.);
#35= IFCSIUNIT(*,.LUMINOUSINTENSITYUNIT.,$,.LUMEN.);
#36= IFCUNITASSIGNMENT((#15,#19,#23,#27,#28,#29,#33,#34,#35));
#37= IFCPROJECT('2G7ZFDNE16yBDU14FA92Me',#5,'Proyecto',$,$,$,$,(#11),#36);
#38= IFCLOCALPLACEMENT($,#10);
#39= IFCSITE('2xvEzEinjBTea80yOTcujY',#5,'Obra',$,$,#38,$,$,.ELEMENT.,$,$,$,$,$);
#40= IFCLOCALPLACEMENT(#38,#10);
#41= IFCBUILDING('3zH1Q7nnL9EeQ3uo21wR3Z',#5,'Undefined',$,$,#40,$,$,.ELEMENT.,$,$,$);
#42= IFCLOCALPLACEMENT(#40,#10);
#43= IFCBUILDINGSTOREY('29hdEUCErFze9E_VIAceOd',#5,'Undefined',$,$,#42,$,$,.ELEMENT.,0.);
#44= IFCOWNERHISTORY(#3,#4,$,.NOCHANGE.,$,$,$,1773158400);
#45= IFCCARTESIANPOINT((75579.974974186,24021.8840380863,13909.5));
#46= IFCDIRECTION((-1.39999901875619E-08,-1.,0.));
#47= IFCAXIS2PLACEMENT3D(#45,#9,#46);
#48= IFCLOCALPLACEMENT(#42,#47);
#49= IFCCARTESIANPOINT((0.,0.));
#50= IFCCARTESIANPOINT((250.,-1.60071067512035E-10));
#51= IFCCARTESIANPOINT((250.,462.242826702888));
#52= IFCCARTESIANPOINT((254.20523027622,526.954080086944));
#53= IFCCARTESIANPOINT((266.750185258152,590.576830583217));
#54= IFCCARTESIANPOINT((287.423847247785,652.040884925169));
#55= IFCCARTESIANPOINT((315.878466207836,710.312361103905));
#56= IFCCARTESIANPOINT((350.,770.025024414063));
#57= IFCCARTESIANPOINT((350.,1070.02502441406));
#58= IFCCARTESIANPOINT((315.878355444573,1129.737934927));
#59= IFCCARTESIANPOINT((287.423777186115,1188.00937753858));
#60= IFCCARTESIANPOINT((266.750145295653,1249.47339133821));
#61= IFCCARTESIANPOINT((254.205208789117,1313.09609653022));
#62= IFCCARTESIANPOINT((249.999984741215,1377.80730219517));
#63= IFCCARTESIANPOINT((249.999984741211,1840.04992675781));
#64= IFCCARTESIANPOINT((-4.61602430732455E-05,1840.05004882813));
#65= IFCCARTESIANPOINT((-3.28432797687128E-05,1377.80729404298));
#66= IFCCARTESIANPOINT((-4.20525453411028,1313.09609203241));
#67= IFCCARTESIANPOINT((-16.7501877459363,1249.47339006349));
#68= IFCCARTESIANPOINT((-37.4238154842024,1188.00937887598));
#69= IFCCARTESIANPOINT((-65.8783888435682,1129.73793810047));
#70= IFCCARTESIANPOINT((-100.000030517578,1070.02502441406));
#71= IFCCARTESIANPOINT((-100.000022888184,770.025024414063));
#72= IFCCARTESIANPOINT((-65.8784856648417,710.312358530326));
#73= IFCCARTESIANPOINT((-37.42386545505,652.040883525187));
#74= IFCCARTESIANPOINT((-16.7502020119427,590.576830206192));
#75= IFCCARTESIANPOINT((-4.20524539182588,526.954080548865));
#76= IFCCARTESIANPOINT((-1.33169669425115E-05,462.242827788985));
#77= IFCPOLYLINE((#49,#50,#51,#52,#53,#54,#55,#56,#57,#58,#59,#60,#61,#62,#63,#64,#65,#66,#67,#68,#69,#70,#71,#72,#73,#74,#75,#76,#49));
#78= IFCARBITRARYCLOSEDPROFILEDEF(.AREA.,'PL19*450',#77);
#79= IFCCARTESIANPOINT((0.,0.,-9.49999999999818));
#80= IFCAXIS2PLACEMENT3D(#79,#9,#7);
#81= IFCEXTRUDEDAREASOLID(#78,#80,#9,19.);
#82= IFCSHAPEREPRESENTATION(#12,'Body','SweptSolid',(#81));
#83= IFCPRODUCTDEFINITIONSHAPE($,$,(#82));
#84= IFCPLATE('0_MhVgZOzElBQmbYAg4ZQP',#44,'PLATE','PL19*450','PL19*450',#48,#83,'ID3e5ab7ea-8d8f-4ebc-b6b0-9622aa123699');
#85= IFCLOCALPLACEMENT(#42,#47);
#86= IFCDIRECTION((1.,0.));
#87= IFCAXIS2PLACEMENT2D(#49,#86);
#88= IFCRECTANGLEPROFILEDEF(.AREA.,'[]256*1',#87,256.,256.);
#89= IFCDIRECTION((0.,0.,-1.));
#90= IFCCARTESIANPOINT((124.51934295908,920.025027557233,9690.5));
#91= IFCAXIS2PLACEMENT3D(#90,#89,#46);
#92= IFCEXTRUDEDAREASOLID(#88,#91,#9,9700.);
#93= IFCSHAPEREPRESENTATION(#12,'Body','SweptSolid',(#92));
#94= IFCPRODUCTDEFINITIONSHAPE($,$,(#93));
#95= IFCOPENINGELEMENT('3aiH_JFg9F6ediBLIroR_W',#5,$,$,'Recess',#85,#94,$);
#96= IFCRELVOIDSELEMENT('2jP5HrW8PBpgVibYAQJweC',#5,$,$,#84,#95);
#97= IFCPROPERTYSINGLEVALUE('FeatureSubTypes',$,$,$);
#98= IFCPROPERTYSINGLEVALUE('RectangleOpeningWidth',$,$,$);
#99= IFCPROPERTYSINGLEVALUE('RectangleOpeningHeight',$,IFCPOSITIVELENGTHMEASURE(256.),$);
#100= IFCPROPERTYSINGLEVALUE('OpeningDiameter',$,$,$);
#101= IFCPROPERTYSET('3yA2vB19nEl8Wap0Og11BR',#5,'AISC_EM11_Pset_Opening/Cope',$,(#97,#98,#99,#100));
#102= IFCCARTESIANPOINT((76294.9749790974,23896.8840303914,13919.));
#103= IFCDIRECTION((-1.,9.99999946825694E-09,0.));
#104= IFCAXIS2PLACEMENT3D(#102,#46,#103);
#105= IFCLOCALPLACEMENT(#42,#104);
#106= IFCCIRCLEPROFILEDEF(.AREA.,$,#87,11.5);
#107= IFCCARTESIANPOINT((0.,-0.100000000001151,0.));
#108= IFCAXIS2PLACEMENT3D(#107,#8,#7);
#109= IFCEXTRUDEDAREASOLID(#106,#108,#9,19.2);
#110= IFCSHAPEREPRESENTATION(#12,'Body','SweptSolid',(#109));
#111= IFCREPRESENTATIONMAP(#10,#110);
#112= IFCCARTESIANPOINT((2.61934474110603E-10,0.,-75.));
#113= IFCCARTESIANTRANSFORMATIONOPERATOR3D($,$,#112,$,$);
#114= IFCMAPPEDITEM(#111,#113);
#115= IFCCARTESIANPOINT((75.0000000002619,0.,-75.0000000005457));
#116= IFCCARTESIANTRANSFORMATIONOPERATOR3D($,$,#115,$,$);
#117= IFCMAPPEDITEM(#111,#116);
#118= IFCCARTESIANPOINT((150.000000000262,0.,-75.0000000010914));
#119= IFCCARTESIANTRANSFORMATIONOPERATOR3D($,$,#118,$,$);
#120= IFCMAPPEDITEM(#111,#119);
#121= IFCCARTESIANPOINT((225.000000000262,0.,-75.0000000016371));
#122= IFCCARTESIANTRANSFORMATIONOPERATOR3D($,$,#121,$,$);
#123= IFCMAPPEDITEM(#111,#122);
#124= IFCCARTESIANPOINT((300.000000000262,0.,-75.0000000021828));
#125= IFCCARTESIANTRANSFORMATIONOPERATOR3D($,$,#124,$,$);
#126= IFCMAPPEDITEM(#111,#125);
#127= IFCCARTESIANPOINT((375.000000000262,0.,-75.0000000027285));
#128= IFCCARTESIANTRANSFORMATIONOPERATOR3D($,$,#127,$,$);
#129= IFCMAPPEDITEM(#111,#128);
#130= IFCCARTESIANPOINT((450.000000000262,0.,-75.0000000032742));
#131= IFCCARTESIANTRANSFORMATIONOPERATOR3D($,$,#130,$,$);
#132= IFCMAPPEDITEM(#111,#131);
#133= IFCCARTESIANPOINT((525.000000000262,0.,-75.0000000038199));
#134= IFCCARTESIANTRANSFORMATIONOPERATOR3D($,$,#133,$,$);
#135= IFCMAPPEDITEM(#111,#134);
#136= IFCCARTESIANPOINT((600.000000000262,0.,-75.0000000043656));
#137= IFCCARTESIANTRANSFORMATIONOPERATOR3D($,$,#136,$,$);
#138= IFCMAPPEDITEM(#111,#137);
#139= IFCCARTESIANPOINT((675.000000000262,0.,-75.0000000049113));
#140= IFCCARTESIANTRANSFORMATIONOPERATOR3D($,$,#139,$,$);
#141= IFCMAPPEDITEM(#111,#140);
#142= IFCCARTESIANPOINT((-2.7648638933897E-10,0.,75.));
#143= IFCCARTESIANTRANSFORMATIONOPERATOR3D($,$,#142,$,$);
#144= IFCMAPPEDITEM(#111,#143);
#145= IFCCARTESIANPOINT((74.9999999997235,0.,74.9999999994543));
#146= IFCCARTESIANTRANSFORMATIONOPERATOR3D($,$,#145,$,$);
#147= IFCMAPPEDITEM(#111,#146);
#148= IFCCARTESIANPOINT((149.999999999724,0.,74.9999999989086));
#149= IFCCARTESIANTRANSFORMATIONOPERATOR3D($,$,#148,$,$);
#150= IFCMAPPEDITEM(#111,#149);
#151= IFCCARTESIANPOINT((224.999999999724,0.,74.9999999983629));
#152= IFCCARTESIANTRANSFORMATIONOPERATOR3D($,$,#151,$,$);
#153= IFCMAPPEDITEM(#111,#152);
#154= IFCCARTESIANPOINT((299.999999999724,0.,74.9999999978172));
#155= IFCCARTESIANTRANSFORMATIONOPERATOR3D($,$,#154,$,$);
#156= IFCMAPPEDITEM(#111,#155);
#157= IFCCARTESIANPOINT((374.999999999724,0.,74.9999999972715));
#158= IFCCARTESIANTRANSFORMATIONOPERATOR3D($,$,#157,$,$);
#159= IFCMAPPEDITEM(#111,#158);
#160= IFCCARTESIANPOINT((449.999999999724,0.,74.9999999967258));
#161= IFCCARTESIANTRANSFORMATIONOPERATOR3D($,$,#160,$,$);
#162= IFCMAPPEDITEM(#111,#161);
#163= IFCCARTESIANPOINT((524.999999999724,0.,74.9999999961801));
#164= IFCCARTESIANTRANSFORMATIONOPERATOR3D($,$,#163,$,$);
#165= IFCMAPPEDITEM(#111,#164);
#166= IFCCARTESIANPOINT((599.999999999724,0.,74.9999999956344));
#167= IFCCARTESIANTRANSFORMATIONOPERATOR3D($,$,#166,$,$);
#168= IFCMAPPEDITEM(#111,#167);
#169= IFCCARTESIANPOINT((674.999999999724,0.,74.9999999950887));
#170= IFCCARTESIANTRANSFORMATIONOPERATOR3D($,$,#169,$,$);
#171= IFCMAPPEDITEM(#111,#170);
#172= IFCSHAPEREPRESENTATION(#12,'Body','MappedRepresentation',(#114,#117,#120,#123,#126,#129,#132,#135,#138,#141,#144,#147,#150,#153,#156,#159,#162,#165,#168,#171));
#173= IFCPRODUCTDEFINITIONSHAPE($,$,(#172));
#174= IFCOPENINGELEMENT('0N0ll0gff0SfHYhw91cw6D',#5,$,$,'Opening',#105,#173,$);
#175= IFCRELVOIDSELEMENT('22ligdm3b1WQTvPSq5afRP',#5,'Drill Hole',$,#84,#174);
#176= IFCPROPERTYSINGLEVALUE('FeatureSubTypes',$,IFCLABEL('TORNILLO'),$);
#177= IFCPROPERTYSINGLEVALUE('RectangleOpeningHeight',$,$,$);
#178= IFCPROPERTYSET('0_n6MVRc9C_hvMIeRmO$Qs',#5,'AISC_EM11_Pset_Opening/Cope',$,(#176,#98,#177,#100));
#179= IFCCARTESIANPOINT((76499.9999340643,23721.8840328359,13919.));
#180= IFCAXIS2PLACEMENT3D(#179,#7,#46);
#181= IFCLOCALPLACEMENT(#42,#180);
#182= IFCCARTESIANPOINT((76705.0248613342,23896.8840303914,13919.));
#183= IFCAXIS2PLACEMENT3D(#182,#8,#7);
#184= IFCLOCALPLACEMENT(#42,#183);
#185= IFCSHAPEREPRESENTATION(#12,'Body','MappedRepresentation',(#114,#117,#120,#123,#126,#129,#132,#135,#138,#141,#144,#147,#150,#153,#156,#159,#162,#165,#168,#171));
#186= IFCPRODUCTDEFINITIONSHAPE($,$,(#185));
#187= IFCOPENINGELEMENT('3GlFMeYxL6nOKSjgf1zUM3',#5,$,$,'Opening',#184,#186,$);
#188= IFCRELVOIDSELEMENT('2J5_FvGfj01xinR7hxYjqN',#5,'Drill Hole',$,#84,#187);
#189= IFCCARTESIANPOINT((76499.9999985997,24071.884048277,13919.));
#190= IFCAXIS2PLACEMENT3D(#189,#103,#8);
#191= IFCLOCALPLACEMENT(#42,#190);
#192= IFCSHAPEREPRESENTATION(#12,'Body','MappedRepresentation',(#114,#144));
#193= IFCPRODUCTDEFINITIONSHAPE($,$,(#192));
#194= IFCOPENINGELEMENT('1ZtB2olJrDhwMLkOY1P2Wx',#5,$,$,'Opening',#191,#193,$);
#195= IFCRELVOIDSELEMENT('1ajPq7oyL0LvFCIlvrarEp',#5,'Drill Hole',$,#84,#194);
#196= IFCPROPERTYSINGLEVALUE('PieceMark',$,IFCIDENTIFIER('PLATE'),$);
#197= IFCPROPERTYSINGLEVALUE('IndicationMark',$,IFCIDENTIFIER('1139'),$);
#198= IFCPROPERTYSINGLEVALUE('PrelimMark',$,IFCIDENTIFIER(''),$);
#199= IFCPROPERTYSINGLEVALUE('MainPieceTag',$,IFCBOOLEAN(.T.),$);
#200= IFCPROPERTYSET('0_8CfB19T1r8dJfIYu2BXp',#5,'AISC_EM11_Pset_PieceIdentification','PieceIdentity',(#196,#197,#198,#199));
#201= IFCPROPERTYSINGLEVALUE('MaterialType',$,IFCIDENTIFIER('STEEL'),$);
#202= IFCPROPERTYSINGLEVALUE('MaterialGrade',$,IFCIDENTIFIER('S235JR'),$);
#203= IFCPROPERTYSET('3XfPFohEHBcgSNywe7oxU$',#5,'AISC_EM11_Pset_Material',$,(#201,#202));
#204= IFCMATERIAL('STEEL/S235JR');
#205= IFCRELAGGREGATES('1G0H7IYRr7u8n3A6HNHaO9',#5,$,$,#37,(#39));
#206= IFCRELAGGREGATES('2YIZPaqj7PAQ3LSOZfZsgR',#5,$,$,#39,(#41));
#207= IFCRELAGGREGATES('1ZfG3oxQL5uAt_lJiIAwC0',#5,$,$,#41,(#43));
#208= IFCRELCONTAINEDINSPATIALSTRUCTURE('18G1NKTozEnhodjPNAew$6',#5,$,$,(#84),#43);
#209= IFCRELDEFINESBYPROPERTIES('0OuRNo_yL6vhVt5GRk91Fz',#5,$,$,(#95),#101);
#210= IFCRELDEFINESBYPROPERTIES('3tWZD$N_vD88dwvIzEHoN0',#5,$,$,(#194,#187,#174),#178);
#211= IFCRELDEFINESBYPROPERTIES('3aEuzG4859LfQIfK2NXyJi',#5,$,$,(#84),#200);
#212= IFCRELDEFINESBYPROPERTIES('3WNDvOvl9ElgsilAg9cqcU',#5,$,$,(#84),#203);
#213= IFCRELASSOCIATESMATERIAL('0V1H4RFrX5SgpmpEOmmib3',#5,$,$,(#84),#204);
ENDSEC;

END-ISO-10303-21;
