ISO-10303-21;
HEADER;
FILE_DESCRIPTION(('ViewDefinition[AISC_Steel_Detailing]', 'Option [BaseQuantities:Off]', 'Option [GridExport:On]', 'Option [Assemblies:Off]', 'Option [Bolts:On]', 'Option [Rebars:On]', 'Option [PourObjects:Off]', 'Option [Welds:On]', 'Option [SurfaceTreatments:On]', 'Option [LocationBy:0]', 'Option [ViewColors:Off]', 'Option [SectionedSpine:Off]', 'Option [PropertySets:On]', 'Option [Export all:Off]'),'2;1');
FILE_NAME('1140_Qty_1.ifc','2026-05-16T11:52:57',('GIOVANNIPC\\gcorrea'),('Structural Designer'),'IFC Database version: Work','Tekla Structures 2020 Service Pack 5, IFC Export Version: 4.0.0.0 Dec  7 2020','');
FILE_SCHEMA(('IFC2X3'));
ENDSEC;

DATA;
#1= IFCPERSON('GIOVANNIPC\\gcorrea','Undefined',$,$,$,$,$,$);
#2= IFCORGANIZATION($,'Trimble Solutions Corporation',$,$,$);
#3= IFCPERSONANDORGANIZATION(#1,#2,$);
#4= IFCAPPLICATION(#2,'2020 Service Pack 5','Tekla Structures','Multi material modeling');
#5= IFCOWNERHISTORY(#3,#4,$,.NOCHANGE.,$,$,$,1778950377);
#6= IFCCARTESIANPOINT((0.,0.,0.));
#7= IFCDIRECTION((1.,0.,0.));
#8= IFCDIRECTION((0.,1.,0.));
#9= IFCDIRECTION((0.,0.,1.));
#10= IFCAXIS2PLACEMENT3D(#6,#9,#7);
#11= IFCGEOMETRICREPRESENTATIONCONTEXT($,'Model',3,1.E-05,#10,$);
#12= IFCGEOMETRICREPRESENTATIONSUBCONTEXT('Body','Model',*,*,*,*,#11,$,.MODEL_VIEW.,$);
#13= IFCGEOMETRICREPRESENTATIONSUBCONTEXT('Axis','Model',*,*,*,*,#11,$,.GRAPH_VIEW.,$);
#14= IFCGEOMETRICREPRESENTATIONSUBCONTEXT('FootPrint','Model',*,*,*,*,#11,$,.MODEL_VIEW.,$);
#15= IFCSIUNIT(*,.LENGTHUNIT.,.MILLI.,.METRE.);
#16= IFCMEASUREWITHUNIT(IFCRATIOMEASURE(304.8),#15);
#17= IFCDIMENSIONALEXPONENTS(1,0,0,0,0,0,0);
#18= IFCCONVERSIONBASEDUNIT(#17,.LENGTHUNIT.,'FOOT',#16);
#19= IFCSIUNIT(*,.AREAUNIT.,$,.SQUARE_METRE.);
#20= IFCMEASUREWITHUNIT(IFCRATIOMEASURE(0.09290304),#19);
#21= IFCDIMENSIONALEXPONENTS(2,0,0,0,0,0,0);
#22= IFCCONVERSIONBASEDUNIT(#21,.AREAUNIT.,'SQUARE FOOT',#20);
#23= IFCSIUNIT(*,.VOLUMEUNIT.,$,.CUBIC_METRE.);
#24= IFCMEASUREWITHUNIT(IFCRATIOMEASURE(0.028316846592),#23);
#25= IFCDIMENSIONALEXPONENTS(3,0,0,0,0,0,0);
#26= IFCCONVERSIONBASEDUNIT(#25,.VOLUMEUNIT.,'CUBIC FOOT',#24);
#27= IFCSIUNIT(*,.MASSUNIT.,.KILO.,.GRAM.);
#28= IFCSIUNIT(*,.TIMEUNIT.,$,.SECOND.);
#29= IFCSIUNIT(*,.PLANEANGLEUNIT.,$,.RADIAN.);
#30= IFCMEASUREWITHUNIT(IFCRATIOMEASURE(0.0174532925199433),#29);
#31= IFCDIMENSIONALEXPONENTS(0,0,0,0,0,0,0);
#32= IFCCONVERSIONBASEDUNIT(#31,.PLANEANGLEUNIT.,'DEGREE',#30);
#33= IFCSIUNIT(*,.SOLIDANGLEUNIT.,$,.STERADIAN.);
#34= IFCSIUNIT(*,.THERMODYNAMICTEMPERATUREUNIT.,$,.DEGREE_CELSIUS.);
#35= IFCSIUNIT(*,.LUMINOUSINTENSITYUNIT.,$,.LUMEN.);
#36= IFCUNITASSIGNMENT((#15,#19,#23,#27,#28,#29,#33,#34,#35));
#37= IFCPROJECT('2G7ZFDNE16yBDU14FA92Me',#5,'Proyecto',$,$,$,$,(#11),#36);
#38= IFCLOCALPLACEMENT($,#10);
#39= IFCSITE('2xvEzEinjBTea80yOTcujY',#5,'Obra',$,$,#38,$,$,.ELEMENT.,$,$,$,$,$);
#40= IFCLOCALPLACEMENT(#38,#10);
#41= IFCBUILDING('2lFvJ_Q6PDMvu4DsFIaHoy',#5,'Undefined',$,$,#40,$,$,.ELEMENT.,$,$,$);
#42= IFCLOCALPLACEMENT(#40,#10);
#43= IFCBUILDINGSTOREY('29hdEUCErFze9E_VIAceOd',#5,'Undefined',$,$,#42,$,$,.ELEMENT.,0.);
#44= IFCOWNERHISTORY(#3,#4,$,.NOCHANGE.,$,$,$,1773320400);
#45= IFCCARTESIANPOINT((75827.5,22099.9006958008,13900.));
#46= IFCDIRECTION((0.,-1.,0.));
#47= IFCAXIS2PLACEMENT3D(#45,#9,#46);
#48= IFCLOCALPLACEMENT(#42,#47);
#49= IFCCARTESIANPOINT((0.,0.));
#50= IFCCARTESIANPOINT((200.,-2.03726813197136E-10));
#51= IFCCARTESIANPOINT((242.688652926331,342.326042633811));
#52= IFCPOLYLINE((#49,#50,#51));
#53= IFCCOMPOSITECURVESEGMENT(.CONTINUOUS.,.T.,#52);
#54= IFCDIRECTION((-0.99231496830506,0.123737640504928));
#55= IFCCARTESIANPOINT((441.151646589107,317.578514532606));
#56= IFCAXIS2PLACEMENT2D(#55,#54);
#57= IFCCIRCLE(#56,200.);
#58= IFCTRIMMEDCURVE(#57,(IFCPARAMETERVALUE(0.)),(IFCPARAMETERVALUE(4.91261411802598)),.F.,.PARAMETER.);
#59= IFCCOMPOSITECURVESEGMENT(.CONTINUOUS.,.T.,#58);
#60= IFCCARTESIANPOINT((425.932464270332,516.998615049727));
#61= IFCCARTESIANPOINT((757.09130859375,542.271728515625));
#62= IFCCARTESIANPOINT((766.233947753906,742.062683105469));
#63= IFCCARTESIANPOINT((404.161784419984,813.297196102837));
#64= IFCPOLYLINE((#60,#61,#62,#63));
#65= IFCCOMPOSITECURVESEGMENT(.CONTINUOUS.,.T.,#64);
#66= IFCDIRECTION((-0.1929370385499,-0.981211138927598));
#67= IFCCARTESIANPOINT((442.749192129955,1009.53942388831));
#68= IFCAXIS2PLACEMENT2D(#67,#66);
#69= IFCCIRCLE(#68,200.);
#70= IFCTRIMMEDCURVE(#69,(IFCPARAMETERVALUE(0.)),(IFCPARAMETERVALUE(5.02887822804055)),.F.,.PARAMETER.);
#71= IFCCOMPOSITECURVESEGMENT(.CONTINUOUS.,.T.,#70);
#72= IFCCARTESIANPOINT((244.243904444226,985.133466402733));
#73= IFCCARTESIANPOINT((200.,1344.990234375));
#74= IFCCARTESIANPOINT((-1.34605215862393E-09,1344.990234375));
#75= IFCCARTESIANPOINT((-41.1563644258256,1007.93536455909));
#76= IFCPOLYLINE((#72,#73,#74,#75));
#77= IFCCOMPOSITECURVESEGMENT(.CONTINUOUS.,.T.,#76);
#78= IFCDIRECTION((0.992627709887911,-0.121203257228022));
#79= IFCCARTESIANPOINT((-239.681906404821,1032.17601600487));
#80= IFCAXIS2PLACEMENT2D(#79,#78);
#81= IFCCIRCLE(#80,200.);
#82= IFCTRIMMEDCURVE(#81,(IFCPARAMETERVALUE(0.)),(IFCPARAMETERVALUE(4.88734284428871)),.F.,.PARAMETER.);
#83= IFCCOMPOSITECURVESEGMENT(.CONTINUOUS.,.T.,#82);
#84= IFCCARTESIANPOINT((-228.9966208545,832.461658300478));
#85= IFCCARTESIANPOINT((-832.2255859375,800.187194824219));
#86= IFCCARTESIANPOINT((-832.2255859375,550.187194824219));
#87= IFCCARTESIANPOINT((-228.134435100235,514.499695288445));
#88= IFCPOLYLINE((#84,#85,#86,#87));
#89= IFCCOMPOSITECURVESEGMENT(.CONTINUOUS.,.T.,#88);
#90= IFCDIRECTION((0.0589719021378112,0.998259642957807));
#91= IFCCARTESIANPOINT((-239.928815527789,314.847766697033));
#92= IFCAXIS2PLACEMENT2D(#91,#90);
#93= IFCCIRCLE(#92,200.);
#94= IFCTRIMMEDCURVE(#93,(IFCPARAMETERVALUE(0.)),(IFCPARAMETERVALUE(4.8928953939042)),.F.,.PARAMETER.);
#95= IFCCOMPOSITECURVESEGMENT(.CONTINUOUS.,.T.,#94);
#96= IFCCARTESIANPOINT((-41.4032320981405,339.088078655796));
#97= IFCPOLYLINE((#96,#49));
#98= IFCCOMPOSITECURVESEGMENT(.CONTINUOUS.,.T.,#97);
#99= IFCCOMPOSITECURVE((#53,#59,#65,#71,#77,#83,#89,#95,#98),.T.);
#100= IFCARBITRARYCLOSEDPROFILEDEF(.AREA.,'PL10*1354',#99);
#101= IFCCARTESIANPOINT((0.,0.,-5.));
#102= IFCAXIS2PLACEMENT3D(#101,#9,#7);
#103= IFCEXTRUDEDAREASOLID(#100,#102,#9,10.);
#104= IFCSHAPEREPRESENTATION(#12,'Body','SweptSolid',(#103));
#105= IFCPRODUCTDEFINITIONSHAPE($,$,(#104));
#106= IFCPLATE('1Laz621bLESR5dfTDzA5t7',#44,'PLATE','PL10*1354','PL10*1354',#48,#105,'ID5593d182-0655-4e71-b167-a5d37d285dc7');
#107= IFCLOCALPLACEMENT(#42,#47);
#108= IFCDIRECTION((1.,0.));
#109= IFCAXIS2PLACEMENT2D(#49,#108);
#110= IFCCIRCLEPROFILEDEF(.AREA.,'\S\X305*10',#109,152.5);
#111= IFCDIRECTION((0.,0.,-1.));
#112= IFCCARTESIANPOINT((100.,672.5,9700.));
#113= IFCAXIS2PLACEMENT3D(#112,#111,#46);
#114= IFCEXTRUDEDAREASOLID(#110,#113,#9,15184.);
#115= IFCCARTESIANPOINT((252.5,672.5,-5484.));
#116= IFCAXIS2PLACEMENT3D(#115,#9,#46);
#117= IFCPLANE(#116);
#118= IFCHALFSPACESOLID(#117,.T.);
#119= IFCBOOLEANCLIPPINGRESULT(.DIFFERENCE.,#114,#118);
#120= IFCSHAPEREPRESENTATION(#12,'Body','Clipping',(#119));
#121= IFCPRODUCTDEFINITIONSHAPE($,$,(#120));
#122= IFCOPENINGELEMENT('2VnhqLihf2pADUwLiMfPQB',#5,$,$,'Recess',#107,#121,$);
#123= IFCRELVOIDSELEMENT('0n7bH$tpzDAgao2Mt0RmsJ',#5,$,$,#106,#122);
#124= IFCPROPERTYSINGLEVALUE('FeatureSubTypes',$,$,$);
#125= IFCPROPERTYSINGLEVALUE('RectangleOpeningWidth',$,$,$);
#126= IFCPROPERTYSINGLEVALUE('RectangleOpeningHeight',$,$,$);
#127= IFCPROPERTYSINGLEVALUE('OpeningDiameter',$,IFCPOSITIVELENGTHMEASURE(305.),$);
#128= IFCPROPERTYSET('0_BiHXbEX7SxOoA6DH2l6J',#5,'AISC_EM11_Pset_Opening/Cope',$,(#124,#125,#126,#127));
#129= IFCCARTESIANPOINT((76490.7485081636,21797.7547428887,13900.));
#130= IFCDIRECTION((0.998949728531943,-0.0458196449785285,0.));
#131= IFCDIRECTION((-0.0458196449785294,-0.998949728531942,0.));
#132= IFCAXIS2PLACEMENT3D(#129,#130,#131);
#133= IFCLOCALPLACEMENT(#42,#132);
#134= IFCCIRCLEPROFILEDEF(.AREA.,$,#109,11.);
#135= IFCCARTESIANPOINT((0.,-5.09999999999934,0.));
#136= IFCAXIS2PLACEMENT3D(#135,#8,#7);
#137= IFCEXTRUDEDAREASOLID(#134,#136,#9,10.2);
#138= IFCSHAPEREPRESENTATION(#12,'Body','SweptSolid',(#137));
#139= IFCREPRESENTATIONMAP(#10,#138);
#140= IFCCARTESIANPOINT((-7.27595761418343E-12,0.,-49.999999999578));
#141= IFCCARTESIANTRANSFORMATIONOPERATOR3D($,$,#140,$,$);
#142= IFCMAPPEDITEM(#139,#141);
#143= IFCCARTESIANPOINT((69.9999999999091,0.,-49.9999999993161));
#144= IFCCARTESIANTRANSFORMATIONOPERATOR3D($,$,#143,$,$);
#145= IFCMAPPEDITEM(#139,#144);
#146= IFCCARTESIANPOINT((139.999999999825,0.,-49.9999999990541));
#147= IFCCARTESIANTRANSFORMATIONOPERATOR3D($,$,#146,$,$);
#148= IFCMAPPEDITEM(#139,#147);
#149= IFCCARTESIANPOINT((209.999999999742,0.,-49.9999999987776));
#150= IFCCARTESIANTRANSFORMATIONOPERATOR3D($,$,#149,$,$);
#151= IFCMAPPEDITEM(#139,#150);
#152= IFCCARTESIANPOINT((279.999999999654,0.,-49.9999999985157));
#153= IFCCARTESIANTRANSFORMATIONOPERATOR3D($,$,#152,$,$);
#154= IFCMAPPEDITEM(#139,#153);
#155= IFCCARTESIANPOINT((349.999999999571,0.,-49.9999999982538));
#156= IFCCARTESIANTRANSFORMATIONOPERATOR3D($,$,#155,$,$);
#157= IFCMAPPEDITEM(#139,#156);
#158= IFCCARTESIANPOINT((419.999999999487,0.,-49.9999999979773));
#159= IFCCARTESIANTRANSFORMATIONOPERATOR3D($,$,#158,$,$);
#160= IFCMAPPEDITEM(#139,#159);
#161= IFCCARTESIANPOINT((1.09139364212751E-11,0.,49.9999999995925));
#162= IFCCARTESIANTRANSFORMATIONOPERATOR3D($,$,#161,$,$);
#163= IFCMAPPEDITEM(#139,#162);
#164= IFCCARTESIANPOINT((69.9999999999272,0.,49.999999999869));
#165= IFCCARTESIANTRANSFORMATIONOPERATOR3D($,$,#164,$,$);
#166= IFCMAPPEDITEM(#139,#165);
#167= IFCCARTESIANPOINT((139.99999999984,0.,50.000000000131));
#168= IFCCARTESIANTRANSFORMATIONOPERATOR3D($,$,#167,$,$);
#169= IFCMAPPEDITEM(#139,#168);
#170= IFCCARTESIANPOINT((209.999999999756,0.,50.0000000003929));
#171= IFCCARTESIANTRANSFORMATIONOPERATOR3D($,$,#170,$,$);
#172= IFCMAPPEDITEM(#139,#171);
#173= IFCCARTESIANPOINT((279.999999999673,0.,50.0000000006548));
#174= IFCCARTESIANTRANSFORMATIONOPERATOR3D($,$,#173,$,$);
#175= IFCMAPPEDITEM(#139,#174);
#176= IFCCARTESIANPOINT((349.999999999593,0.,50.0000000009168));
#177= IFCCARTESIANTRANSFORMATIONOPERATOR3D($,$,#176,$,$);
#178= IFCMAPPEDITEM(#139,#177);
#179= IFCCARTESIANPOINT((419.999999999505,0.,50.0000000011787));
#180= IFCCARTESIANTRANSFORMATIONOPERATOR3D($,$,#179,$,$);
#181= IFCMAPPEDITEM(#139,#180);
#182= IFCSHAPEREPRESENTATION(#12,'Body','MappedRepresentation',(#142,#145,#148,#151,#154,#157,#160,#163,#166,#169,#172,#175,#178,#181));
#183= IFCPRODUCTDEFINITIONSHAPE($,$,(#182));
#184= IFCOPENINGELEMENT('27h5Ocw6f8JAeRldiWAyQ7',#5,$,$,'Opening',#133,#183,$);
#185= IFCRELVOIDSELEMENT('19mXOOYtz1hPZ4mG6QzUwz',#5,'Drill Hole',$,#106,#184);
#186= IFCPROPERTYSINGLEVALUE('FeatureSubTypes',$,IFCLABEL('TORNILLO'),$);
#187= IFCPROPERTYSINGLEVALUE('OpeningDiameter',$,$,$);
#188= IFCPROPERTYSET('2mon9mbMvCjPGVvBJLuYTS',#5,'AISC_EM11_Pset_Opening/Cope',$,(#186,#125,#126,#187));
#189= IFCCARTESIANPOINT((76500.,22202.4003391864,13900.));
#190= IFCDIRECTION((-0.99999999999996,2.81999997241656E-07,0.));
#191= IFCAXIS2PLACEMENT3D(#189,#190,#8);
#192= IFCLOCALPLACEMENT(#42,#191);
#193= IFCCIRCLEPROFILEDEF(.AREA.,$,#109,11.5);
#194= IFCEXTRUDEDAREASOLID(#193,#136,#9,10.2);
#195= IFCSHAPEREPRESENTATION(#12,'Body','SweptSolid',(#194));
#196= IFCREPRESENTATIONMAP(#10,#195);
#197= IFCCARTESIANPOINT((0.,0.,-75.));
#198= IFCCARTESIANTRANSFORMATIONOPERATOR3D($,$,#197,$,$);
#199= IFCMAPPEDITEM(#196,#198);
#200= IFCCARTESIANPOINT((75.0000000000073,0.,-75.));
#201= IFCCARTESIANTRANSFORMATIONOPERATOR3D($,$,#200,$,$);
#202= IFCMAPPEDITEM(#196,#201);
#203= IFCCARTESIANPOINT((150.000000000011,0.,-75.));
#204= IFCCARTESIANTRANSFORMATIONOPERATOR3D($,$,#203,$,$);
#205= IFCMAPPEDITEM(#196,#204);
#206= IFCCARTESIANPOINT((225.000000000018,0.,-75.));
#207= IFCCARTESIANTRANSFORMATIONOPERATOR3D($,$,#206,$,$);
#208= IFCMAPPEDITEM(#196,#207);
#209= IFCCARTESIANPOINT((300.000000000025,0.,-75.));
#210= IFCCARTESIANTRANSFORMATIONOPERATOR3D($,$,#209,$,$);
#211= IFCMAPPEDITEM(#196,#210);
#212= IFCCARTESIANPOINT((375.000000000029,0.,-75.));
#213= IFCCARTESIANTRANSFORMATIONOPERATOR3D($,$,#212,$,$);
#214= IFCMAPPEDITEM(#196,#213);
#215= IFCCARTESIANPOINT((450.000000000036,0.,-75.));
#216= IFCCARTESIANTRANSFORMATIONOPERATOR3D($,$,#215,$,$);
#217= IFCMAPPEDITEM(#196,#216);
#218= IFCCARTESIANPOINT((525.00000000004,0.,-75.));
#219= IFCCARTESIANTRANSFORMATIONOPERATOR3D($,$,#218,$,$);
#220= IFCMAPPEDITEM(#196,#219);
#221= IFCCARTESIANPOINT((600.000000000047,0.,-75.));
#222= IFCCARTESIANTRANSFORMATIONOPERATOR3D($,$,#221,$,$);
#223= IFCMAPPEDITEM(#196,#222);
#224= IFCCARTESIANPOINT((675.000000000055,0.,-75.));
#225= IFCCARTESIANTRANSFORMATIONOPERATOR3D($,$,#224,$,$);
#226= IFCMAPPEDITEM(#196,#225);
#227= IFCCARTESIANPOINT((0.,0.,75.0000000000146));
#228= IFCCARTESIANTRANSFORMATIONOPERATOR3D($,$,#227,$,$);
#229= IFCMAPPEDITEM(#196,#228);
#230= IFCCARTESIANPOINT((75.0000000000073,0.,75.0000000000146));
#231= IFCCARTESIANTRANSFORMATIONOPERATOR3D($,$,#230,$,$);
#232= IFCMAPPEDITEM(#196,#231);
#233= IFCCARTESIANPOINT((150.000000000011,0.,75.0000000000146));
#234= IFCCARTESIANTRANSFORMATIONOPERATOR3D($,$,#233,$,$);
#235= IFCMAPPEDITEM(#196,#234);
#236= IFCCARTESIANPOINT((225.000000000018,0.,75.0000000000146));
#237= IFCCARTESIANTRANSFORMATIONOPERATOR3D($,$,#236,$,$);
#238= IFCMAPPEDITEM(#196,#237);
#239= IFCCARTESIANPOINT((300.000000000025,0.,75.0000000000146));
#240= IFCCARTESIANTRANSFORMATIONOPERATOR3D($,$,#239,$,$);
#241= IFCMAPPEDITEM(#196,#240);
#242= IFCCARTESIANPOINT((375.000000000029,0.,75.0000000000146));
#243= IFCCARTESIANTRANSFORMATIONOPERATOR3D($,$,#242,$,$);
#244= IFCMAPPEDITEM(#196,#243);
#245= IFCCARTESIANPOINT((450.000000000036,0.,75.0000000000146));
#246= IFCCARTESIANTRANSFORMATIONOPERATOR3D($,$,#245,$,$);
#247= IFCMAPPEDITEM(#196,#246);
#248= IFCCARTESIANPOINT((525.00000000004,0.,75.0000000000146));
#249= IFCCARTESIANTRANSFORMATIONOPERATOR3D($,$,#248,$,$);
#250= IFCMAPPEDITEM(#196,#249);
#251= IFCCARTESIANPOINT((600.000000000047,0.,75.0000000000146));
#252= IFCCARTESIANTRANSFORMATIONOPERATOR3D($,$,#251,$,$);
#253= IFCMAPPEDITEM(#196,#252);
#254= IFCCARTESIANPOINT((675.000000000055,0.,75.0000000000146));
#255= IFCCARTESIANTRANSFORMATIONOPERATOR3D($,$,#254,$,$);
#256= IFCMAPPEDITEM(#196,#255);
#257= IFCSHAPEREPRESENTATION(#12,'Body','MappedRepresentation',(#199,#202,#205,#208,#211,#214,#217,#220,#223,#226,#229,#232,#235,#238,#241,#244,#247,#250,#253,#256));
#258= IFCPRODUCTDEFINITIONSHAPE($,$,(#257));
#259= IFCOPENINGELEMENT('2JpXX$rmvFEuTCqKrfq54l',#5,$,$,'Opening',#192,#258,$);
#260= IFCRELVOIDSELEMENT('25EThx6drBvwTOlAwLTZx$',#5,'Drill Hole',$,#106,#259);
#261= IFCCARTESIANPOINT((76297.5,21999.9006958008,13900.));
#262= IFCAXIS2PLACEMENT3D(#261,#46,#190);
#263= IFCLOCALPLACEMENT(#42,#262);
#264= IFCMAPPEDITEM(#196,#141);
#265= IFCMAPPEDITEM(#196,#144);
#266= IFCMAPPEDITEM(#196,#147);
#267= IFCMAPPEDITEM(#196,#150);
#268= IFCMAPPEDITEM(#196,#153);
#269= IFCMAPPEDITEM(#196,#156);
#270= IFCMAPPEDITEM(#196,#159);
#271= IFCMAPPEDITEM(#196,#162);
#272= IFCMAPPEDITEM(#196,#165);
#273= IFCMAPPEDITEM(#196,#168);
#274= IFCMAPPEDITEM(#196,#171);
#275= IFCMAPPEDITEM(#196,#174);
#276= IFCMAPPEDITEM(#196,#177);
#277= IFCMAPPEDITEM(#196,#180);
#278= IFCSHAPEREPRESENTATION(#12,'Body','MappedRepresentation',(#264,#265,#266,#267,#268,#269,#270,#271,#272,#273,#274,#275,#276,#277));
#279= IFCPRODUCTDEFINITIONSHAPE($,$,(#278));
#280= IFCOPENINGELEMENT('2IqdxaEMT33gZq8N6y74ll',#5,$,$,'Opening',#263,#279,$);
#281= IFCRELVOIDSELEMENT('2FAgeGw4DA98z6KNycEYqK',#5,'Drill Hole',$,#106,#280);
#282= IFCCARTESIANPOINT((76702.4951064521,22000.0000658529,13900.));
#283= IFCAXIS2PLACEMENT3D(#282,#8,#7);
#284= IFCLOCALPLACEMENT(#42,#283);
#285= IFCSHAPEREPRESENTATION(#12,'Body','MappedRepresentation',(#264,#265,#266,#267,#268,#269,#270,#271,#272,#273,#274,#275,#276,#277));
#286= IFCPRODUCTDEFINITIONSHAPE($,$,(#285));
#287= IFCOPENINGELEMENT('3TWxsZZhD5igYrLefaxQx2',#5,$,$,'Opening',#284,#286,$);
#288= IFCRELVOIDSELEMENT('2KLcvF$vn7_A9_ykPGMxlB',#5,'Drill Hole',$,#106,#287);
#289= IFCPROPERTYSINGLEVALUE('PieceMark',$,IFCIDENTIFIER('PLATE'),$);
#290= IFCPROPERTYSINGLEVALUE('IndicationMark',$,IFCIDENTIFIER('1140'),$);
#291= IFCPROPERTYSINGLEVALUE('PrelimMark',$,IFCIDENTIFIER(''),$);
#292= IFCPROPERTYSINGLEVALUE('MainPieceTag',$,IFCBOOLEAN(.T.),$);
#293= IFCPROPERTYSET('1Mwp5b_knEmQsYhPraDVZy',#5,'AISC_EM11_Pset_PieceIdentification','PieceIdentity',(#289,#290,#291,#292));
#294= IFCPROPERTYSINGLEVALUE('MaterialType',$,IFCIDENTIFIER('STEEL'),$);
#295= IFCPROPERTYSINGLEVALUE('MaterialGrade',$,IFCIDENTIFIER('S235JR'),$);
#296= IFCPROPERTYSET('1Unt3Hon97R9AZTjkNbcpM',#5,'AISC_EM11_Pset_Material',$,(#294,#295));
#297= IFCMATERIAL('STEEL/S235JR');
#298= IFCRELAGGREGATES('2h9voR4h10a9Tgng2CBP6S',#5,$,$,#37,(#39));
#299= IFCRELAGGREGATES('2zRB4jMzJIsRly3yKUThOk',#5,$,$,#39,(#41));
#300= IFCRELAGGREGATES('29RgsTFan5wgiSrs574tSd',#5,$,$,#41,(#43));
#301= IFCRELCONTAINEDINSPATIALSTRUCTURE('2PpIvdtM18fv6m$JFq0ZXp',#5,$,$,(#106),#43);
#302= IFCRELDEFINESBYPROPERTIES('0ukn1eF5nBtAjp_JXcG0v6',#5,$,$,(#122),#128);
#303= IFCRELDEFINESBYPROPERTIES('0Qsjwy1nD85QZMZP_nVzLj',#5,$,$,(#287,#280,#259,#184),#188);
#304= IFCRELDEFINESBYPROPERTIES('2W5L7NZF56aR1NrivuPbX$',#5,$,$,(#106),#293);
#305= IFCRELDEFINESBYPROPERTIES('0X_EMUjcX00uZ0$aJT9dAy',#5,$,$,(#106),#296);
#306= IFCRELASSOCIATESMATERIAL('14Ge58Vhb6NhnTB21Oslak',#5,$,$,(#106),#297);
ENDSEC;

END-ISO-10303-21;
