ISO-10303-21;
HEADER;
FILE_DESCRIPTION(('ViewDefinition[AISC_Steel_Detailing]', 'Option [BaseQuantities:Off]', 'Option [GridExport:On]', 'Option [Assemblies:Off]', 'Option [Bolts:On]', 'Option [Rebars:On]', 'Option [PourObjects:Off]', 'Option [Welds:On]', 'Option [SurfaceTreatments:On]', 'Option [LocationBy:0]', 'Option [ViewColors:Off]', 'Option [SectionedSpine:Off]', 'Option [PropertySets:On]', 'Option [Export all:Off]'),'2;1');
FILE_NAME('1142_Qty_1.ifc','2026-05-16T11:52:57',('GIOVANNIPC\\gcorrea'),('Structural Designer'),'IFC Database version: Work','Tekla Structures 2020 Service Pack 5, IFC Export Version: 4.0.0.0 Dec  7 2020','');
FILE_SCHEMA(('IFC2X3'));
ENDSEC;

DATA;
#1= IFCPERSON('GIOVANNIPC\\gcorrea','Undefined',$,$,$,$,$,$);
#2= IFCORGANIZATION($,'Trimble Solutions Corporation',$,$,$);
#3= IFCPERSONANDORGANIZATION(#1,#2,$);
#4= IFCAPPLICATION(#2,'2020 Service Pack 5','Tekla Structures','Multi material modeling');
#5= IFCOWNERHISTORY(#3,#4,$,.NOCHANGE.,$,$,$,1778950377);
#6= IFCCARTESIANPOINT((0.,0.,0.));
#7= IFCDIRECTION((1.,0.,0.));
#8= IFCDIRECTION((0.,1.,0.));
#9= IFCDIRECTION((0.,0.,1.));
#10= IFCAXIS2PLACEMENT3D(#6,#9,#7);
#11= IFCGEOMETRICREPRESENTATIONCONTEXT($,'Model',3,1.E-05,#10,$);
#12= IFCGEOMETRICREPRESENTATIONSUBCONTEXT('Body','Model',*,*,*,*,#11,$,.MODEL_VIEW.,$);
#13= IFCGEOMETRICREPRESENTATIONSUBCONTEXT('Axis','Model',*,*,*,*,#11,$,.GRAPH_VIEW.,$);
#14= IFCGEOMETRICREPRESENTATIONSUBCONTEXT('FootPrint','Model',*,*,*,*,#11,$,.MODEL_VIEW.,$);
#15= IFCSIUNIT(*,.LENGTHUNIT.,.MILLI.,.METRE.);
#16= IFCMEASUREWITHUNIT(IFCRATIOMEASURE(304.8),#15);
#17= IFCDIMENSIONALEXPONENTS(1,0,0,0,0,0,0);
#18= IFCCONVERSIONBASEDUNIT(#17,.LENGTHUNIT.,'FOOT',#16);
#19= IFCSIUNIT(*,.AREAUNIT.,$,.SQUARE_METRE.);
#20= IFCMEASUREWITHUNIT(IFCRATIOMEASURE(0.09290304),#19);
#21= IFCDIMENSIONALEXPONENTS(2,0,0,0,0,0,0);
#22= IFCCONVERSIONBASEDUNIT(#21,.AREAUNIT.,'SQUARE FOOT',#20);
#23= IFCSIUNIT(*,.VOLUMEUNIT.,$,.CUBIC_METRE.);
#24= IFCMEASUREWITHUNIT(IFCRATIOMEASURE(0.028316846592),#23);
#25= IFCDIMENSIONALEXPONENTS(3,0,0,0,0,0,0);
#26= IFCCONVERSIONBASEDUNIT(#25,.VOLUMEUNIT.,'CUBIC FOOT',#24);
#27= IFCSIUNIT(*,.MASSUNIT.,.KILO.,.GRAM.);
#28= IFCSIUNIT(*,.TIMEUNIT.,$,.SECOND.);
#29= IFCSIUNIT(*,.PLANEANGLEUNIT.,$,.RADIAN.);
#30= IFCMEASUREWITHUNIT(IFCRATIOMEASURE(0.0174532925199433),#29);
#31= IFCDIMENSIONALEXPONENTS(0,0,0,0,0,0,0);
#32= IFCCONVERSIONBASEDUNIT(#31,.PLANEANGLEUNIT.,'DEGREE',#30);
#33= IFCSIUNIT(*,.SOLIDANGLEUNIT.,$,.STERADIAN.);
#34= IFCSIUNIT(*,.THERMODYNAMICTEMPERATUREUNIT.,$,.DEGREE_CELSIUS.);
#35= IFCSIUNIT(*,.LUMINOUSINTENSITYUNIT.,$,.LUMEN.);
#36= IFCUNITASSIGNMENT((#15,#19,#23,#27,#28,#29,#33,#34,#35));
#37= IFCPROJECT('2G7ZFDNE16yBDU14FA92Me',#5,'Proyecto',$,$,$,$,(#11),#36);
#38= IFCLOCALPLACEMENT($,#10);
#39= IFCSITE('2xvEzEinjBTea80yOTcujY',#5,'Obra',$,$,#38,$,$,.ELEMENT.,$,$,$,$,$);
#40= IFCLOCALPLACEMENT(#38,#10);
#41= IFCBUILDING('1uMsW0R5D8iRtYgwfWbu21',#5,'Undefined',$,$,#40,$,$,.ELEMENT.,$,$,$);
#42= IFCLOCALPLACEMENT(#40,#10);
#43= IFCBUILDINGSTOREY('29hdEUCErFze9E_VIAceOd',#5,'Undefined',$,$,#42,$,$,.ELEMENT.,0.);
#44= IFCOWNERHISTORY(#3,#4,$,.NOCHANGE.,$,$,$,1773172800);
#45= IFCCARTESIANPOINT((75827.5,22099.9006958008,13450.));
#46= IFCDIRECTION((0.,-1.,0.));
#47= IFCAXIS2PLACEMENT3D(#45,#9,#46);
#48= IFCLOCALPLACEMENT(#42,#47);
#49= IFCCARTESIANPOINT((0.,0.));
#50= IFCCARTESIANPOINT((200.,-2.03726813197136E-10));
#51= IFCCARTESIANPOINT((242.688652926331,342.326042633811));
#52= IFCPOLYLINE((#49,#50,#51));
#53= IFCCOMPOSITECURVESEGMENT(.CONTINUOUS.,.T.,#52);
#54= IFCDIRECTION((-0.99231496830506,0.123737640504928));
#55= IFCCARTESIANPOINT((441.151646589107,317.578514532606));
#56= IFCAXIS2PLACEMENT2D(#55,#54);
#57= IFCCIRCLE(#56,200.);
#58= IFCTRIMMEDCURVE(#57,(IFCPARAMETERVALUE(0.)),(IFCPARAMETERVALUE(4.91261411802598)),.F.,.PARAMETER.);
#59= IFCCOMPOSITECURVESEGMENT(.CONTINUOUS.,.T.,#58);
#60= IFCCARTESIANPOINT((425.932464270332,516.998615049727));
#61= IFCCARTESIANPOINT((757.09130859375,542.271728515625));
#62= IFCCARTESIANPOINT((766.233947753906,742.062683105469));
#63= IFCCARTESIANPOINT((404.161784419984,813.297196102837));
#64= IFCPOLYLINE((#60,#61,#62,#63));
#65= IFCCOMPOSITECURVESEGMENT(.CONTINUOUS.,.T.,#64);
#66= IFCDIRECTION((-0.1929370385499,-0.981211138927598));
#67= IFCCARTESIANPOINT((442.749192129955,1009.53942388831));
#68= IFCAXIS2PLACEMENT2D(#67,#66);
#69= IFCCIRCLE(#68,200.);
#70= IFCTRIMMEDCURVE(#69,(IFCPARAMETERVALUE(0.)),(IFCPARAMETERVALUE(5.02887822804055)),.F.,.PARAMETER.);
#71= IFCCOMPOSITECURVESEGMENT(.CONTINUOUS.,.T.,#70);
#72= IFCCARTESIANPOINT((244.243904444226,985.133466402733));
#73= IFCCARTESIANPOINT((200.,1344.990234375));
#74= IFCCARTESIANPOINT((-1.34605215862393E-09,1344.990234375));
#75= IFCCARTESIANPOINT((-41.1563644258256,1007.93536455909));
#76= IFCPOLYLINE((#72,#73,#74,#75));
#77= IFCCOMPOSITECURVESEGMENT(.CONTINUOUS.,.T.,#76);
#78= IFCDIRECTION((0.992627709887911,-0.121203257228022));
#79= IFCCARTESIANPOINT((-239.681906404821,1032.17601600487));
#80= IFCAXIS2PLACEMENT2D(#79,#78);
#81= IFCCIRCLE(#80,200.);
#82= IFCTRIMMEDCURVE(#81,(IFCPARAMETERVALUE(0.)),(IFCPARAMETERVALUE(4.88734284428871)),.F.,.PARAMETER.);
#83= IFCCOMPOSITECURVESEGMENT(.CONTINUOUS.,.T.,#82);
#84= IFCCARTESIANPOINT((-228.9966208545,832.461658300478));
#85= IFCCARTESIANPOINT((-832.2255859375,800.187194824219));
#86= IFCCARTESIANPOINT((-832.2255859375,550.187194824219));
#87= IFCCARTESIANPOINT((-228.134435100235,514.499695288445));
#88= IFCPOLYLINE((#84,#85,#86,#87));
#89= IFCCOMPOSITECURVESEGMENT(.CONTINUOUS.,.T.,#88);
#90= IFCDIRECTION((0.0589719021378112,0.998259642957807));
#91= IFCCARTESIANPOINT((-239.928815527789,314.847766697033));
#92= IFCAXIS2PLACEMENT2D(#91,#90);
#93= IFCCIRCLE(#92,200.);
#94= IFCTRIMMEDCURVE(#93,(IFCPARAMETERVALUE(0.)),(IFCPARAMETERVALUE(4.8928953939042)),.F.,.PARAMETER.);
#95= IFCCOMPOSITECURVESEGMENT(.CONTINUOUS.,.T.,#94);
#96= IFCCARTESIANPOINT((-41.4032320981405,339.088078655796));
#97= IFCPOLYLINE((#96,#49));
#98= IFCCOMPOSITECURVESEGMENT(.CONTINUOUS.,.T.,#97);
#99= IFCCOMPOSITECURVE((#53,#59,#65,#71,#77,#83,#89,#95,#98),.T.);
#100= IFCARBITRARYCLOSEDPROFILEDEF(.AREA.,'PL10*1354',#99);
#101= IFCCARTESIANPOINT((0.,0.,-5.));
#102= IFCAXIS2PLACEMENT3D(#101,#9,#7);
#103= IFCEXTRUDEDAREASOLID(#100,#102,#9,10.);
#104= IFCSHAPEREPRESENTATION(#12,'Body','SweptSolid',(#103));
#105= IFCPRODUCTDEFINITIONSHAPE($,$,(#104));
#106= IFCPLATE('3fBlw7lJfClRR_Zmo31G3$',#44,'PLATE','PL10*1354','PL10*1354',#48,#105,'IDe92efe87-bd3a-4cbd-b6fe-8f0c830500ff');
#107= IFCLOCALPLACEMENT(#42,#47);
#108= IFCDIRECTION((1.,0.));
#109= IFCAXIS2PLACEMENT2D(#49,#108);
#110= IFCCIRCLEPROFILEDEF(.AREA.,'\S\X315*1',#109,157.5);
#111= IFCDIRECTION((0.,0.,-1.));
#112= IFCCARTESIANPOINT((100.,672.5,10150.));
#113= IFCAXIS2PLACEMENT3D(#112,#111,#46);
#114= IFCEXTRUDEDAREASOLID(#110,#113,#9,15184.);
#115= IFCCARTESIANPOINT((257.5,672.5,-5034.));
#116= IFCAXIS2PLACEMENT3D(#115,#9,#46);
#117= IFCPLANE(#116);
#118= IFCHALFSPACESOLID(#117,.T.);
#119= IFCBOOLEANCLIPPINGRESULT(.DIFFERENCE.,#114,#118);
#120= IFCSHAPEREPRESENTATION(#12,'Body','Clipping',(#119));
#121= IFCPRODUCTDEFINITIONSHAPE($,$,(#120));
#122= IFCOPENINGELEMENT('2plZ7ca5j18gu7E95yoCzx',#5,$,$,'Recess',#107,#121,$);
#123= IFCRELVOIDSELEMENT('1j2ef2CV90ax0pJ2msQDsg',#5,$,$,#106,#122);
#124= IFCPROPERTYSINGLEVALUE('FeatureSubTypes',$,$,$);
#125= IFCPROPERTYSINGLEVALUE('RectangleOpeningWidth',$,$,$);
#126= IFCPROPERTYSINGLEVALUE('RectangleOpeningHeight',$,$,$);
#127= IFCPROPERTYSINGLEVALUE('OpeningDiameter',$,IFCPOSITIVELENGTHMEASURE(315.),$);
#128= IFCPROPERTYSET('1VEue1KXH3SfOyIqXKWHLt',#5,'AISC_EM11_Pset_Opening/Cope',$,(#124,#125,#126,#127));
#129= IFCCARTESIANPOINT((76490.7485081636,21797.7547428887,13450.));
#130= IFCDIRECTION((-0.998949728531943,0.0458196449785285,0.));
#131= IFCDIRECTION((-0.0458196449785294,-0.998949728531942,0.));
#132= IFCAXIS2PLACEMENT3D(#129,#130,#131);
#133= IFCLOCALPLACEMENT(#42,#132);
#134= IFCCIRCLEPROFILEDEF(.AREA.,$,#109,11.);
#135= IFCCARTESIANPOINT((0.,-5.10000000000023,0.));
#136= IFCAXIS2PLACEMENT3D(#135,#8,#7);
#137= IFCEXTRUDEDAREASOLID(#134,#136,#9,10.2);
#138= IFCSHAPEREPRESENTATION(#12,'Body','SweptSolid',(#137));
#139= IFCREPRESENTATIONMAP(#10,#138);
#140= IFCCARTESIANPOINT((-7.27595761418343E-12,0.,49.999999999578));
#141= IFCCARTESIANTRANSFORMATIONOPERATOR3D($,$,#140,$,$);
#142= IFCMAPPEDITEM(#139,#141);
#143= IFCCARTESIANPOINT((69.9999999999091,0.,49.9999999993161));
#144= IFCCARTESIANTRANSFORMATIONOPERATOR3D($,$,#143,$,$);
#145= IFCMAPPEDITEM(#139,#144);
#146= IFCCARTESIANPOINT((139.999999999825,0.,49.9999999990541));
#147= IFCCARTESIANTRANSFORMATIONOPERATOR3D($,$,#146,$,$);
#148= IFCMAPPEDITEM(#139,#147);
#149= IFCCARTESIANPOINT((209.999999999742,0.,49.9999999987776));
#150= IFCCARTESIANTRANSFORMATIONOPERATOR3D($,$,#149,$,$);
#151= IFCMAPPEDITEM(#139,#150);
#152= IFCCARTESIANPOINT((279.999999999654,0.,49.9999999985157));
#153= IFCCARTESIANTRANSFORMATIONOPERATOR3D($,$,#152,$,$);
#154= IFCMAPPEDITEM(#139,#153);
#155= IFCCARTESIANPOINT((349.999999999571,0.,49.9999999982538));
#156= IFCCARTESIANTRANSFORMATIONOPERATOR3D($,$,#155,$,$);
#157= IFCMAPPEDITEM(#139,#156);
#158= IFCCARTESIANPOINT((419.999999999487,0.,49.9999999979773));
#159= IFCCARTESIANTRANSFORMATIONOPERATOR3D($,$,#158,$,$);
#160= IFCMAPPEDITEM(#139,#159);
#161= IFCCARTESIANPOINT((1.09139364212751E-11,0.,-49.9999999995925));
#162= IFCCARTESIANTRANSFORMATIONOPERATOR3D($,$,#161,$,$);
#163= IFCMAPPEDITEM(#139,#162);
#164= IFCCARTESIANPOINT((69.9999999999272,0.,-49.999999999869));
#165= IFCCARTESIANTRANSFORMATIONOPERATOR3D($,$,#164,$,$);
#166= IFCMAPPEDITEM(#139,#165);
#167= IFCCARTESIANPOINT((139.99999999984,0.,-50.000000000131));
#168= IFCCARTESIANTRANSFORMATIONOPERATOR3D($,$,#167,$,$);
#169= IFCMAPPEDITEM(#139,#168);
#170= IFCCARTESIANPOINT((209.999999999756,0.,-50.0000000003929));
#171= IFCCARTESIANTRANSFORMATIONOPERATOR3D($,$,#170,$,$);
#172= IFCMAPPEDITEM(#139,#171);
#173= IFCCARTESIANPOINT((279.999999999673,0.,-50.0000000006548));
#174= IFCCARTESIANTRANSFORMATIONOPERATOR3D($,$,#173,$,$);
#175= IFCMAPPEDITEM(#139,#174);
#176= IFCCARTESIANPOINT((349.999999999593,0.,-50.0000000009168));
#177= IFCCARTESIANTRANSFORMATIONOPERATOR3D($,$,#176,$,$);
#178= IFCMAPPEDITEM(#139,#177);
#179= IFCCARTESIANPOINT((419.999999999505,0.,-50.0000000011787));
#180= IFCCARTESIANTRANSFORMATIONOPERATOR3D($,$,#179,$,$);
#181= IFCMAPPEDITEM(#139,#180);
#182= IFCSHAPEREPRESENTATION(#12,'Body','MappedRepresentation',(#142,#145,#148,#151,#154,#157,#160,#163,#166,#169,#172,#175,#178,#181));
#183= IFCPRODUCTDEFINITIONSHAPE($,$,(#182));
#184= IFCOPENINGELEMENT('0ssU5Qx7HEeujdVsE2qBdl',#5,$,$,'Opening',#133,#183,$);
#185= IFCRELVOIDSELEMENT('2MC89Gr2T33hl_AMmnfevP',#5,'Drill Hole',$,#106,#184);
#186= IFCPROPERTYSINGLEVALUE('FeatureSubTypes',$,IFCLABEL('TORNILLO'),$);
#187= IFCPROPERTYSINGLEVALUE('OpeningDiameter',$,$,$);
#188= IFCPROPERTYSET('3ApgSEg6HFGAU47ItoWrFD',#5,'AISC_EM11_Pset_Opening/Cope',$,(#186,#125,#126,#187));
#189= IFCCARTESIANPOINT((76500.,22202.4003391864,13450.));
#190= IFCAXIS2PLACEMENT3D(#189,#7,#8);
#191= IFCLOCALPLACEMENT(#42,#190);
#192= IFCCIRCLEPROFILEDEF(.AREA.,$,#109,11.5);
#193= IFCEXTRUDEDAREASOLID(#192,#136,#9,10.2);
#194= IFCSHAPEREPRESENTATION(#12,'Body','SweptSolid',(#193));
#195= IFCREPRESENTATIONMAP(#10,#194);
#196= IFCCARTESIANPOINT((0.,0.,75.));
#197= IFCCARTESIANTRANSFORMATIONOPERATOR3D($,$,#196,$,$);
#198= IFCMAPPEDITEM(#195,#197);
#199= IFCCARTESIANPOINT((75.0000000000073,0.,75.));
#200= IFCCARTESIANTRANSFORMATIONOPERATOR3D($,$,#199,$,$);
#201= IFCMAPPEDITEM(#195,#200);
#202= IFCCARTESIANPOINT((150.000000000011,0.,75.));
#203= IFCCARTESIANTRANSFORMATIONOPERATOR3D($,$,#202,$,$);
#204= IFCMAPPEDITEM(#195,#203);
#205= IFCCARTESIANPOINT((225.000000000018,0.,75.));
#206= IFCCARTESIANTRANSFORMATIONOPERATOR3D($,$,#205,$,$);
#207= IFCMAPPEDITEM(#195,#206);
#208= IFCCARTESIANPOINT((300.000000000025,0.,75.));
#209= IFCCARTESIANTRANSFORMATIONOPERATOR3D($,$,#208,$,$);
#210= IFCMAPPEDITEM(#195,#209);
#211= IFCCARTESIANPOINT((375.000000000029,0.,75.));
#212= IFCCARTESIANTRANSFORMATIONOPERATOR3D($,$,#211,$,$);
#213= IFCMAPPEDITEM(#195,#212);
#214= IFCCARTESIANPOINT((450.000000000036,0.,75.));
#215= IFCCARTESIANTRANSFORMATIONOPERATOR3D($,$,#214,$,$);
#216= IFCMAPPEDITEM(#195,#215);
#217= IFCCARTESIANPOINT((525.00000000004,0.,75.));
#218= IFCCARTESIANTRANSFORMATIONOPERATOR3D($,$,#217,$,$);
#219= IFCMAPPEDITEM(#195,#218);
#220= IFCCARTESIANPOINT((600.000000000047,0.,75.));
#221= IFCCARTESIANTRANSFORMATIONOPERATOR3D($,$,#220,$,$);
#222= IFCMAPPEDITEM(#195,#221);
#223= IFCCARTESIANPOINT((675.000000000055,0.,75.));
#224= IFCCARTESIANTRANSFORMATIONOPERATOR3D($,$,#223,$,$);
#225= IFCMAPPEDITEM(#195,#224);
#226= IFCCARTESIANPOINT((0.,0.,-75.0000000000146));
#227= IFCCARTESIANTRANSFORMATIONOPERATOR3D($,$,#226,$,$);
#228= IFCMAPPEDITEM(#195,#227);
#229= IFCCARTESIANPOINT((75.0000000000073,0.,-75.0000000000146));
#230= IFCCARTESIANTRANSFORMATIONOPERATOR3D($,$,#229,$,$);
#231= IFCMAPPEDITEM(#195,#230);
#232= IFCCARTESIANPOINT((150.000000000011,0.,-75.0000000000146));
#233= IFCCARTESIANTRANSFORMATIONOPERATOR3D($,$,#232,$,$);
#234= IFCMAPPEDITEM(#195,#233);
#235= IFCCARTESIANPOINT((225.000000000018,0.,-75.0000000000146));
#236= IFCCARTESIANTRANSFORMATIONOPERATOR3D($,$,#235,$,$);
#237= IFCMAPPEDITEM(#195,#236);
#238= IFCCARTESIANPOINT((300.000000000025,0.,-75.0000000000146));
#239= IFCCARTESIANTRANSFORMATIONOPERATOR3D($,$,#238,$,$);
#240= IFCMAPPEDITEM(#195,#239);
#241= IFCCARTESIANPOINT((375.000000000029,0.,-75.0000000000146));
#242= IFCCARTESIANTRANSFORMATIONOPERATOR3D($,$,#241,$,$);
#243= IFCMAPPEDITEM(#195,#242);
#244= IFCCARTESIANPOINT((450.000000000036,0.,-75.0000000000146));
#245= IFCCARTESIANTRANSFORMATIONOPERATOR3D($,$,#244,$,$);
#246= IFCMAPPEDITEM(#195,#245);
#247= IFCCARTESIANPOINT((525.00000000004,0.,-75.0000000000146));
#248= IFCCARTESIANTRANSFORMATIONOPERATOR3D($,$,#247,$,$);
#249= IFCMAPPEDITEM(#195,#248);
#250= IFCCARTESIANPOINT((600.000000000047,0.,-75.0000000000146));
#251= IFCCARTESIANTRANSFORMATIONOPERATOR3D($,$,#250,$,$);
#252= IFCMAPPEDITEM(#195,#251);
#253= IFCCARTESIANPOINT((675.000000000055,0.,-75.0000000000146));
#254= IFCCARTESIANTRANSFORMATIONOPERATOR3D($,$,#253,$,$);
#255= IFCMAPPEDITEM(#195,#254);
#256= IFCSHAPEREPRESENTATION(#12,'Body','MappedRepresentation',(#198,#201,#204,#207,#210,#213,#216,#219,#222,#225,#228,#231,#234,#237,#240,#243,#246,#249,#252,#255));
#257= IFCPRODUCTDEFINITIONSHAPE($,$,(#256));
#258= IFCOPENINGELEMENT('3cICPbggX05go_m5YlKUiB',#5,$,$,'Opening',#191,#257,$);
#259= IFCRELVOIDSELEMENT('2FLLrWUXP8mACKToXTRw69',#5,'Drill Hole',$,#106,#258);
#260= IFCCARTESIANPOINT((76297.5,21999.9006958008,13450.));
#261= IFCDIRECTION((-1.,0.,0.));
#262= IFCAXIS2PLACEMENT3D(#260,#8,#261);
#263= IFCLOCALPLACEMENT(#42,#262);
#264= IFCMAPPEDITEM(#195,#141);
#265= IFCMAPPEDITEM(#195,#144);
#266= IFCMAPPEDITEM(#195,#147);
#267= IFCMAPPEDITEM(#195,#150);
#268= IFCMAPPEDITEM(#195,#153);
#269= IFCMAPPEDITEM(#195,#156);
#270= IFCMAPPEDITEM(#195,#159);
#271= IFCMAPPEDITEM(#195,#162);
#272= IFCMAPPEDITEM(#195,#165);
#273= IFCMAPPEDITEM(#195,#168);
#274= IFCMAPPEDITEM(#195,#171);
#275= IFCMAPPEDITEM(#195,#174);
#276= IFCMAPPEDITEM(#195,#177);
#277= IFCMAPPEDITEM(#195,#180);
#278= IFCSHAPEREPRESENTATION(#12,'Body','MappedRepresentation',(#264,#265,#266,#267,#268,#269,#270,#271,#272,#273,#274,#275,#276,#277));
#279= IFCPRODUCTDEFINITIONSHAPE($,$,(#278));
#280= IFCOPENINGELEMENT('0p4B85dPz2HRK_QCYMZj4z',#5,$,$,'Opening',#263,#279,$);
#281= IFCRELVOIDSELEMENT('2z1Fd6GOb6dRsPh_qlxL89',#5,'Drill Hole',$,#106,#280);
#282= IFCCARTESIANPOINT((76702.4951064521,22000.0000658529,13450.));
#283= IFCAXIS2PLACEMENT3D(#282,#46,#7);
#284= IFCLOCALPLACEMENT(#42,#283);
#285= IFCSHAPEREPRESENTATION(#12,'Body','MappedRepresentation',(#264,#265,#266,#267,#268,#269,#270,#271,#272,#273,#274,#275,#276,#277));
#286= IFCPRODUCTDEFINITIONSHAPE($,$,(#285));
#287= IFCOPENINGELEMENT('0Jf6gsI3r42hEnnbFhFkrb',#5,$,$,'Opening',#284,#286,$);
#288= IFCRELVOIDSELEMENT('13JtgWjvn7bwHX7DOkTeL4',#5,'Drill Hole',$,#106,#287);
#289= IFCPROPERTYSINGLEVALUE('PieceMark',$,IFCIDENTIFIER('PLATE'),$);
#290= IFCPROPERTYSINGLEVALUE('IndicationMark',$,IFCIDENTIFIER('1142'),$);
#291= IFCPROPERTYSINGLEVALUE('PrelimMark',$,IFCIDENTIFIER(''),$);
#292= IFCPROPERTYSINGLEVALUE('MainPieceTag',$,IFCBOOLEAN(.T.),$);
#293= IFCPROPERTYSET('3HIL9bI91E6xmLhUMELQqH',#5,'AISC_EM11_Pset_PieceIdentification','PieceIdentity',(#289,#290,#291,#292));
#294= IFCPROPERTYSINGLEVALUE('MaterialType',$,IFCIDENTIFIER('STEEL'),$);
#295= IFCPROPERTYSINGLEVALUE('MaterialGrade',$,IFCIDENTIFIER('S235JR'),$);
#296= IFCPROPERTYSET('3DNKDj0nb9SeyjFeIIAY5y',#5,'AISC_EM11_Pset_Material',$,(#294,#295));
#297= IFCMATERIAL('STEEL/S235JR');
#298= IFCRELAGGREGATES('1rFMAv9_L7qPKhFScsci1O',#5,$,$,#37,(#39));
#299= IFCRELAGGREGATES('27XeSBRGdP6hczXku8u_Jg',#5,$,$,#39,(#41));
#300= IFCRELAGGREGATES('3M6LiSFFHBuh7ifHC0BFW4',#5,$,$,#41,(#43));
#301= IFCRELCONTAINEDINSPATIALSTRUCTURE('1my7aCd9f7ov9KWdx37vcY',#5,$,$,(#106),#43);
#302= IFCRELDEFINESBYPROPERTIES('2Tbbcxv1L6lfH1NSN8qZCa',#5,$,$,(#122),#128);
#303= IFCRELDEFINESBYPROPERTIES('2nPVZ1DtPE1h77VhDFA7Ce',#5,$,$,(#287,#280,#258,#184),#188);
#304= IFCRELDEFINESBYPROPERTIES('3lW_bd8xL7_w9oKKiv9sY4',#5,$,$,(#106),#293);
#305= IFCRELDEFINESBYPROPERTIES('0$PO0Knlv4PRD6RQj0ZLOb',#5,$,$,(#106),#296);
#306= IFCRELASSOCIATESMATERIAL('2QI4nc7i97k96bwwRpZMdR',#5,$,$,(#106),#297);
ENDSEC;

END-ISO-10303-21;
