ISO-10303-21;
HEADER;
FILE_DESCRIPTION(('ViewDefinition[AISC_Steel_Detailing]', 'Option [BaseQuantities:Off]', 'Option [GridExport:On]', 'Option [Assemblies:Off]', 'Option [Bolts:On]', 'Option [Rebars:On]', 'Option [PourObjects:Off]', 'Option [Welds:On]', 'Option [SurfaceTreatments:On]', 'Option [LocationBy:0]', 'Option [ViewColors:Off]', 'Option [SectionedSpine:Off]', 'Option [PropertySets:On]', 'Option [Export all:Off]'),'2;1');
FILE_NAME('1144_Qty_2.ifc','2026-05-16T11:52:57',('GIOVANNIPC\\gcorrea'),('Structural Designer'),'IFC Database version: Work','Tekla Structures 2020 Service Pack 5, IFC Export Version: 4.0.0.0 Dec  7 2020','');
FILE_SCHEMA(('IFC2X3'));
ENDSEC;

DATA;
#1= IFCPERSON('GIOVANNIPC\\gcorrea','Undefined',$,$,$,$,$,$);
#2= IFCORGANIZATION($,'Trimble Solutions Corporation',$,$,$);
#3= IFCPERSONANDORGANIZATION(#1,#2,$);
#4= IFCAPPLICATION(#2,'2020 Service Pack 5','Tekla Structures','Multi material modeling');
#5= IFCOWNERHISTORY(#3,#4,$,.NOCHANGE.,$,$,$,1778950377);
#6= IFCCARTESIANPOINT((0.,0.,0.));
#7= IFCDIRECTION((1.,0.,0.));
#8= IFCDIRECTION((0.,1.,0.));
#9= IFCDIRECTION((0.,0.,1.));
#10= IFCAXIS2PLACEMENT3D(#6,#9,#7);
#11= IFCGEOMETRICREPRESENTATIONCONTEXT($,'Model',3,1.E-05,#10,$);
#12= IFCGEOMETRICREPRESENTATIONSUBCONTEXT('Body','Model',*,*,*,*,#11,$,.MODEL_VIEW.,$);
#13= IFCGEOMETRICREPRESENTATIONSUBCONTEXT('Axis','Model',*,*,*,*,#11,$,.GRAPH_VIEW.,$);
#14= IFCGEOMETRICREPRESENTATIONSUBCONTEXT('FootPrint','Model',*,*,*,*,#11,$,.MODEL_VIEW.,$);
#15= IFCSIUNIT(*,.LENGTHUNIT.,.MILLI.,.METRE.);
#16= IFCMEASUREWITHUNIT(IFCRATIOMEASURE(304.8),#15);
#17= IFCDIMENSIONALEXPONENTS(1,0,0,0,0,0,0);
#18= IFCCONVERSIONBASEDUNIT(#17,.LENGTHUNIT.,'FOOT',#16);
#19= IFCSIUNIT(*,.AREAUNIT.,$,.SQUARE_METRE.);
#20= IFCMEASUREWITHUNIT(IFCRATIOMEASURE(0.09290304),#19);
#21= IFCDIMENSIONALEXPONENTS(2,0,0,0,0,0,0);
#22= IFCCONVERSIONBASEDUNIT(#21,.AREAUNIT.,'SQUARE FOOT',#20);
#23= IFCSIUNIT(*,.VOLUMEUNIT.,$,.CUBIC_METRE.);
#24= IFCMEASUREWITHUNIT(IFCRATIOMEASURE(0.028316846592),#23);
#25= IFCDIMENSIONALEXPONENTS(3,0,0,0,0,0,0);
#26= IFCCONVERSIONBASEDUNIT(#25,.VOLUMEUNIT.,'CUBIC FOOT',#24);
#27= IFCSIUNIT(*,.MASSUNIT.,.KILO.,.GRAM.);
#28= IFCSIUNIT(*,.TIMEUNIT.,$,.SECOND.);
#29= IFCSIUNIT(*,.PLANEANGLEUNIT.,$,.RADIAN.);
#30= IFCMEASUREWITHUNIT(IFCRATIOMEASURE(0.0174532925199433),#29);
#31= IFCDIMENSIONALEXPONENTS(0,0,0,0,0,0,0);
#32= IFCCONVERSIONBASEDUNIT(#31,.PLANEANGLEUNIT.,'DEGREE',#30);
#33= IFCSIUNIT(*,.SOLIDANGLEUNIT.,$,.STERADIAN.);
#34= IFCSIUNIT(*,.THERMODYNAMICTEMPERATUREUNIT.,$,.DEGREE_CELSIUS.);
#35= IFCSIUNIT(*,.LUMINOUSINTENSITYUNIT.,$,.LUMEN.);
#36= IFCUNITASSIGNMENT((#15,#19,#23,#27,#28,#29,#33,#34,#35));
#37= IFCPROJECT('2G7ZFDNE16yBDU14FA92Me',#5,'Proyecto',$,$,$,$,(#11),#36);
#38= IFCLOCALPLACEMENT($,#10);
#39= IFCSITE('2xvEzEinjBTea80yOTcujY',#5,'Obra',$,$,#38,$,$,.ELEMENT.,$,$,$,$,$);
#40= IFCLOCALPLACEMENT(#38,#10);
#41= IFCBUILDING('1qg8zFFUb3iexqTWOUQ2lU',#5,'Undefined',$,$,#40,$,$,.ELEMENT.,$,$,$);
#42= IFCLOCALPLACEMENT(#40,#10);
#43= IFCBUILDINGSTOREY('29hdEUCErFze9E_VIAceOd',#5,'Undefined',$,$,#42,$,$,.ELEMENT.,0.);
#44= IFCOWNERHISTORY(#3,#4,$,.NOCHANGE.,$,$,$,1773154800);
#45= IFCCARTESIANPOINT((80816.969466667,17505.7061771141,13909.5));
#46= IFCDIRECTION((7.12890000385333E-05,-0.999999997458939,0.));
#47= IFCAXIS2PLACEMENT3D(#45,#9,#46);
#48= IFCLOCALPLACEMENT(#42,#47);
#49= IFCCARTESIANPOINT((0.,0.));
#50= IFCCARTESIANPOINT((250.000000000877,5.67524693906307E-10));
#51= IFCCARTESIANPOINT((351.850402833261,982.966369619331));
#52= IFCCARTESIANPOINT((249.807113648334,1965.95605466669));
#53= IFCCARTESIANPOINT((-0.192885965112509,1965.9738769314));
#54= IFCCARTESIANPOINT((-60.8378375203461,1392.3986398465));
#55= IFCPOLYLINE((#49,#50,#51,#52,#53,#54));
#56= IFCCOMPOSITECURVESEGMENT(.CONTINUOUS.,.T.,#55);
#57= IFCDIRECTION((0.994456749162301,-0.105146440955219));
#58= IFCCARTESIANPOINT((-160.283512420417,1402.91328394031));
#59= IFCAXIS2PLACEMENT2D(#58,#57);
#60= IFCCIRCLE(#59,100.);
#61= IFCTRIMMEDCURVE(#60,(IFCPARAMETERVALUE(0.)),(IFCPARAMETERVALUE(4.53553404460515)),.F.,.PARAMETER.);
#62= IFCCOMPOSITECURVESEGMENT(.CONTINUOUS.,.T.,#61);
#63= IFCCARTESIANPOINT((-188.130067165668,1306.86866209416));
#64= IFCCARTESIANPOINT((-478.837677003634,1391.15454099851));
#65= IFCCARTESIANPOINT((-567.008239748084,1211.63867185956));
#66= IFCCARTESIANPOINT((-198.926533940495,942.454220918211));
#67= IFCPOLYLINE((#63,#64,#65,#66));
#68= IFCCOMPOSITECURVESEGMENT(.CONTINUOUS.,.T.,#67);
#69= IFCDIRECTION((0.589859296700693,0.807506043380335));
#70= IFCCARTESIANPOINT((-375.884322924919,700.202407939408));
#71= IFCAXIS2PLACEMENT2D(#70,#69);
#72= IFCCIRCLE(#71,300.);
#73= IFCTRIMMEDCURVE(#72,(IFCPARAMETERVALUE(0.)),(IFCPARAMETERVALUE(5.44885512992456)),.F.,.PARAMETER.);
#74= IFCCOMPOSITECURVESEGMENT(.CONTINUOUS.,.T.,#73);
#75= IFCCARTESIANPOINT((-77.5548902226262,731.818061614457));
#76= IFCPOLYLINE((#75,#49));
#77= IFCCOMPOSITECURVESEGMENT(.CONTINUOUS.,.T.,#76);
#78= IFCCOMPOSITECURVE((#56,#62,#68,#74,#77),.T.);
#79= IFCARBITRARYCLOSEDPROFILEDEF(.AREA.,'PL19*938',#78);
#80= IFCCARTESIANPOINT((0.,-1.45519152283669E-11,-9.5));
#81= IFCAXIS2PLACEMENT3D(#80,#9,#7);
#82= IFCEXTRUDEDAREASOLID(#79,#81,#9,19.);
#83= IFCSHAPEREPRESENTATION(#12,'Body','SweptSolid',(#82));
#84= IFCPRODUCTDEFINITIONSHAPE($,$,(#83));
#85= IFCPLATE('1aQnfr_mT9IvZwAShU$gMO',#44,'PLATE','PL19*938','PL19*938',#48,#84,'ID646b1a75-fb07-494b-98fa-29cadefea598');
#86= IFCLOCALPLACEMENT(#42,#47);
#87= IFCDIRECTION((1.,0.));
#88= IFCAXIS2PLACEMENT2D(#49,#87);
#89= IFCCIRCLEPROFILEDEF(.AREA.,'\S\X416*1',#88,208.);
#90= IFCDIRECTION((-7.12890000385333E-05,-0.999999997458939,0.));
#91= IFCDIRECTION((0.,0.,-1.));
#92= IFCCARTESIANPOINT((125.370415257497,982.982471796291,9690.5));
#93= IFCAXIS2PLACEMENT3D(#92,#91,#90);
#94= IFCEXTRUDEDAREASOLID(#89,#93,#9,15184.);
#95= IFCCARTESIANPOINT((333.370414728957,982.967643684286,-5493.5));
#96= IFCAXIS2PLACEMENT3D(#95,#9,#90);
#97= IFCPLANE(#96);
#98= IFCHALFSPACESOLID(#97,.T.);
#99= IFCBOOLEANCLIPPINGRESULT(.DIFFERENCE.,#94,#98);
#100= IFCSHAPEREPRESENTATION(#12,'Body','Clipping',(#99));
#101= IFCPRODUCTDEFINITIONSHAPE($,$,(#100));
#102= IFCOPENINGELEMENT('2Hg4YIKJD23wjkEtLw801F',#5,$,$,'Recess',#86,#101,$);
#103= IFCRELVOIDSELEMENT('1erQAI_T54xAE4KFXfjSca',#5,$,$,#85,#102);
#104= IFCPROPERTYSINGLEVALUE('FeatureSubTypes',$,$,$);
#105= IFCPROPERTYSINGLEVALUE('RectangleOpeningWidth',$,$,$);
#106= IFCPROPERTYSINGLEVALUE('RectangleOpeningHeight',$,$,$);
#107= IFCPROPERTYSINGLEVALUE('OpeningDiameter',$,IFCPOSITIVELENGTHMEASURE(416.),$);
#108= IFCPROPERTYSET('2Gg911D5b5HRZbiALhaT5D',#5,'AISC_EM11_Pset_Opening/Cope',$,(#104,#105,#106,#107));
#109= IFCCARTESIANPOINT((81531.960873497,17380.1324005127,13900.));
#110= IFCDIRECTION((-0.000754986999992979,-0.999999714997274,0.));
#111= IFCDIRECTION((-0.999999714997274,0.000754986999996731,0.));
#112= IFCAXIS2PLACEMENT3D(#109,#110,#111);
#113= IFCLOCALPLACEMENT(#42,#112);
#114= IFCCIRCLEPROFILEDEF(.AREA.,$,#88,11.5);
#115= IFCCARTESIANPOINT((0.,-19.0999999999996,0.));
#116= IFCAXIS2PLACEMENT3D(#115,#8,#7);
#117= IFCEXTRUDEDAREASOLID(#114,#116,#9,19.2);
#118= IFCSHAPEREPRESENTATION(#12,'Body','SweptSolid',(#117));
#119= IFCREPRESENTATIONMAP(#10,#118);
#120= IFCCARTESIANPOINT((5.38420863449574E-10,0.,-74.9999999999709));
#121= IFCCARTESIANTRANSFORMATIONOPERATOR3D($,$,#120,$,$);
#122= IFCMAPPEDITEM(#119,#121);
#123= IFCCARTESIANPOINT((75.0000000010477,0.,-74.9999999988795));
#124= IFCCARTESIANTRANSFORMATIONOPERATOR3D($,$,#123,$,$);
#125= IFCMAPPEDITEM(#119,#124);
#126= IFCCARTESIANPOINT((150.000000001586,0.,-74.9999999977881));
#127= IFCCARTESIANTRANSFORMATIONOPERATOR3D($,$,#126,$,$);
#128= IFCMAPPEDITEM(#119,#127);
#129= IFCCARTESIANPOINT((225.000000002095,0.,-74.9999999966967));
#130= IFCCARTESIANTRANSFORMATIONOPERATOR3D($,$,#129,$,$);
#131= IFCMAPPEDITEM(#119,#130);
#132= IFCCARTESIANPOINT((300.000000002605,0.,-74.9999999956053));
#133= IFCCARTESIANTRANSFORMATIONOPERATOR3D($,$,#132,$,$);
#134= IFCMAPPEDITEM(#119,#133);
#135= IFCCARTESIANPOINT((375.000000003129,0.,-74.9999999945139));
#136= IFCCARTESIANTRANSFORMATIONOPERATOR3D($,$,#135,$,$);
#137= IFCMAPPEDITEM(#119,#136);
#138= IFCCARTESIANPOINT((450.000000003653,0.,-74.9999999934225));
#139= IFCCARTESIANTRANSFORMATIONOPERATOR3D($,$,#138,$,$);
#140= IFCMAPPEDITEM(#119,#139);
#141= IFCCARTESIANPOINT((525.000000004176,0.,-74.9999999923311));
#142= IFCCARTESIANTRANSFORMATIONOPERATOR3D($,$,#141,$,$);
#143= IFCMAPPEDITEM(#119,#142);
#144= IFCCARTESIANPOINT((600.000000004686,0.,-74.9999999912397));
#145= IFCCARTESIANTRANSFORMATIONOPERATOR3D($,$,#144,$,$);
#146= IFCMAPPEDITEM(#119,#145);
#147= IFCCARTESIANPOINT((675.00000000521,0.,-74.9999999901484));
#148= IFCCARTESIANTRANSFORMATIONOPERATOR3D($,$,#147,$,$);
#149= IFCMAPPEDITEM(#119,#148);
#150= IFCCARTESIANPOINT((-5.5297277867794E-10,0.,74.9999999999745));
#151= IFCCARTESIANTRANSFORMATIONOPERATOR3D($,$,#150,$,$);
#152= IFCMAPPEDITEM(#119,#151);
#153= IFCCARTESIANPOINT((74.9999999999563,0.,75.0000000010659));
#154= IFCCARTESIANTRANSFORMATIONOPERATOR3D($,$,#153,$,$);
#155= IFCMAPPEDITEM(#119,#154);
#156= IFCCARTESIANPOINT((150.000000000495,0.,75.0000000021573));
#157= IFCCARTESIANTRANSFORMATIONOPERATOR3D($,$,#156,$,$);
#158= IFCMAPPEDITEM(#119,#157);
#159= IFCCARTESIANPOINT((225.000000001004,0.,75.0000000032487));
#160= IFCCARTESIANTRANSFORMATIONOPERATOR3D($,$,#159,$,$);
#161= IFCMAPPEDITEM(#119,#160);
#162= IFCCARTESIANPOINT((300.000000001513,0.,75.0000000043401));
#163= IFCCARTESIANTRANSFORMATIONOPERATOR3D($,$,#162,$,$);
#164= IFCMAPPEDITEM(#119,#163);
#165= IFCCARTESIANPOINT((375.000000002037,0.,75.0000000054315));
#166= IFCCARTESIANTRANSFORMATIONOPERATOR3D($,$,#165,$,$);
#167= IFCMAPPEDITEM(#119,#166);
#168= IFCCARTESIANPOINT((450.000000002561,0.,75.0000000065229));
#169= IFCCARTESIANTRANSFORMATIONOPERATOR3D($,$,#168,$,$);
#170= IFCMAPPEDITEM(#119,#169);
#171= IFCCARTESIANPOINT((525.000000003085,0.,75.0000000076143));
#172= IFCCARTESIANTRANSFORMATIONOPERATOR3D($,$,#171,$,$);
#173= IFCMAPPEDITEM(#119,#172);
#174= IFCCARTESIANPOINT((600.000000003594,0.,75.0000000087093));
#175= IFCCARTESIANTRANSFORMATIONOPERATOR3D($,$,#174,$,$);
#176= IFCMAPPEDITEM(#119,#175);
#177= IFCCARTESIANPOINT((675.000000004118,0.,75.0000000098007));
#178= IFCCARTESIANTRANSFORMATIONOPERATOR3D($,$,#177,$,$);
#179= IFCMAPPEDITEM(#119,#178);
#180= IFCSHAPEREPRESENTATION(#12,'Body','MappedRepresentation',(#122,#125,#128,#131,#134,#137,#140,#143,#146,#149,#152,#155,#158,#161,#164,#167,#170,#173,#176,#179));
#181= IFCPRODUCTDEFINITIONSHAPE($,$,(#180));
#182= IFCOPENINGELEMENT('3yR_yKhnLCzhuCYAmGG9u8',#5,$,$,'Opening',#113,#181,$);
#183= IFCRELVOIDSELEMENT('20XfbYL4D1vPVPILoDKHjQ',#5,'Drill Hole',$,#85,#182);
#184= IFCPROPERTYSINGLEVALUE('FeatureSubTypes',$,IFCLABEL('TORNILLO'),$);
#185= IFCPROPERTYSINGLEVALUE('OpeningDiameter',$,$,$);
#186= IFCPROPERTYSET('3PjhDdvzX7aOwPUkqf0171',#5,'AISC_EM11_Pset_Opening/Cope',$,(#184,#105,#106,#185));
#187= IFCCARTESIANPOINT((82062.9369508156,17380.1324005283,13900.));
#188= IFCAXIS2PLACEMENT3D(#187,#8,#7);
#189= IFCLOCALPLACEMENT(#42,#188);
#190= IFCSHAPEREPRESENTATION(#12,'Body','MappedRepresentation',(#122,#125,#128,#131,#134,#137,#140,#143,#146,#149,#152,#155,#158,#161,#164,#167,#170,#173,#176,#179));
#191= IFCPRODUCTDEFINITIONSHAPE($,$,(#190));
#192= IFCOPENINGELEMENT('3C$bLNUrf5EgY6LbforP0F',#5,$,$,'Opening',#189,#191,$);
#193= IFCRELVOIDSELEMENT('0hfir_qmL1peAX98_FvokJ',#5,'Drill Hole',$,#85,#192);
#194= IFCCARTESIANPOINT((81911.2846184044,17607.1025911487,13900.));
#195= IFCDIRECTION((-0.897610827009282,0.44078884200455,0.));
#196= IFCDIRECTION((0.440788842004549,0.897610827009283,0.));
#197= IFCAXIS2PLACEMENT3D(#194,#195,#196);
#198= IFCLOCALPLACEMENT(#42,#197);
#199= IFCCARTESIANPOINT((-2.40106601268053E-10,0.,-49.9999999998981));
#200= IFCCARTESIANTRANSFORMATIONOPERATOR3D($,$,#199,$,$);
#201= IFCMAPPEDITEM(#119,#200);
#202= IFCCARTESIANPOINT((70.0000000000655,0.,-50.0000000005821));
#203= IFCCARTESIANTRANSFORMATIONOPERATOR3D($,$,#202,$,$);
#204= IFCMAPPEDITEM(#119,#203);
#205= IFCCARTESIANPOINT((140.000000000364,0.,-50.000000001266));
#206= IFCCARTESIANTRANSFORMATIONOPERATOR3D($,$,#205,$,$);
#207= IFCMAPPEDITEM(#119,#206);
#208= IFCCARTESIANPOINT((210.000000000669,0.,-50.00000000195));
#209= IFCCARTESIANTRANSFORMATIONOPERATOR3D($,$,#208,$,$);
#210= IFCMAPPEDITEM(#119,#209);
#211= IFCCARTESIANPOINT((280.000000000968,0.,-50.0000000026193));
#212= IFCCARTESIANTRANSFORMATIONOPERATOR3D($,$,#211,$,$);
#213= IFCMAPPEDITEM(#119,#212);
#214= IFCCARTESIANPOINT((350.000000001273,0.,-50.0000000033178));
#215= IFCCARTESIANTRANSFORMATIONOPERATOR3D($,$,#214,$,$);
#216= IFCMAPPEDITEM(#119,#215);
#217= IFCCARTESIANPOINT((420.000000001579,0.,-50.0000000039872));
#218= IFCCARTESIANTRANSFORMATIONOPERATOR3D($,$,#217,$,$);
#219= IFCMAPPEDITEM(#119,#218);
#220= IFCCARTESIANPOINT((2.40106601268053E-10,0.,49.9999999998981));
#221= IFCCARTESIANTRANSFORMATIONOPERATOR3D($,$,#220,$,$);
#222= IFCMAPPEDITEM(#119,#221);
#223= IFCCARTESIANPOINT((70.0000000005457,0.,49.9999999991996));
#224= IFCCARTESIANTRANSFORMATIONOPERATOR3D($,$,#223,$,$);
#225= IFCMAPPEDITEM(#119,#224);
#226= IFCCARTESIANPOINT((140.000000000851,0.,49.9999999985303));
#227= IFCCARTESIANTRANSFORMATIONOPERATOR3D($,$,#226,$,$);
#228= IFCMAPPEDITEM(#119,#227);
#229= IFCCARTESIANPOINT((210.00000000115,0.,49.9999999978463));
#230= IFCCARTESIANTRANSFORMATIONOPERATOR3D($,$,#229,$,$);
#231= IFCMAPPEDITEM(#119,#230);
#232= IFCCARTESIANPOINT((280.000000001455,0.,49.9999999971624));
#233= IFCCARTESIANTRANSFORMATIONOPERATOR3D($,$,#232,$,$);
#234= IFCMAPPEDITEM(#119,#233);
#235= IFCCARTESIANPOINT((350.000000001754,0.,49.9999999964784));
#236= IFCCARTESIANTRANSFORMATIONOPERATOR3D($,$,#235,$,$);
#237= IFCMAPPEDITEM(#119,#236);
#238= IFCCARTESIANPOINT((420.000000002052,0.,49.999999995809));
#239= IFCCARTESIANTRANSFORMATIONOPERATOR3D($,$,#238,$,$);
#240= IFCMAPPEDITEM(#119,#239);
#241= IFCSHAPEREPRESENTATION(#12,'Body','MappedRepresentation',(#201,#204,#207,#210,#213,#216,#219,#222,#225,#228,#231,#234,#237,#240));
#242= IFCPRODUCTDEFINITIONSHAPE($,$,(#241));
#243= IFCOPENINGELEMENT('16Rjw0Bk9BxuTk_gnGxvi8',#5,$,$,'Opening',#198,#242,$);
#244= IFCRELVOIDSELEMENT('1ydoWl0MP2d8wmCZ_rP38O',#5,'Drill Hole',$,#85,#243);
#245= IFCPROPERTYSINGLEVALUE('PieceMark',$,IFCIDENTIFIER('PLATE'),$);
#246= IFCPROPERTYSINGLEVALUE('IndicationMark',$,IFCIDENTIFIER('1144'),$);
#247= IFCPROPERTYSINGLEVALUE('PrelimMark',$,IFCIDENTIFIER(''),$);
#248= IFCPROPERTYSINGLEVALUE('MainPieceTag',$,IFCBOOLEAN(.T.),$);
#249= IFCPROPERTYSET('3VyHUJa1HCsuWksK$r0JWK',#5,'AISC_EM11_Pset_PieceIdentification','PieceIdentity',(#245,#246,#247,#248));
#250= IFCPROPERTYSINGLEVALUE('MaterialType',$,IFCIDENTIFIER('STEEL'),$);
#251= IFCPROPERTYSINGLEVALUE('MaterialGrade',$,IFCIDENTIFIER('S235JR'),$);
#252= IFCPROPERTYSET('1bWcsQGc5FG8TX2wW4cy8j',#5,'AISC_EM11_Pset_Material',$,(#250,#251));
#253= IFCMATERIAL('STEEL/S235JR');
#254= IFCRELAGGREGATES('1XdFUKEgbFUOn8Ho9u$Nd9',#5,$,$,#37,(#39));
#255= IFCRELAGGREGATES('2pvXmcWytXmg3QZ4RAHfvR',#5,$,$,#39,(#41));
#256= IFCRELAGGREGATES('1kj$Lf4GH0iOhwgDSnXDih',#5,$,$,#41,(#43));
#257= IFCRELCONTAINEDINSPATIALSTRUCTURE('3Sel_1fYzDU885hw7dk2Ln',#5,$,$,(#85),#43);
#258= IFCRELDEFINESBYPROPERTIES('0fm7QwZcXFr8W6N4j3G5WA',#5,$,$,(#102),#108);
#259= IFCRELDEFINESBYPROPERTIES('1sgszgyY18eQfMqREFjl4x',#5,$,$,(#243,#192,#182),#186);
#260= IFCRELDEFINESBYPROPERTIES('2vbjOccSr8pAWp26almxIk',#5,$,$,(#85),#249);
#261= IFCRELDEFINESBYPROPERTIES('0czPeXh8f2K8NvZnAL1L0h',#5,$,$,(#85),#252);
#262= IFCRELASSOCIATESMATERIAL('2GraC47VrE2ha9u3n2HLB2',#5,$,$,(#85),#253);
ENDSEC;

END-ISO-10303-21;
