ISO-10303-21;
HEADER;
FILE_DESCRIPTION(('ViewDefinition[AISC_Steel_Detailing]', 'Option [BaseQuantities:Off]', 'Option [GridExport:On]', 'Option [Assemblies:Off]', 'Option [Bolts:On]', 'Option [Rebars:On]', 'Option [PourObjects:Off]', 'Option [Welds:On]', 'Option [SurfaceTreatments:On]', 'Option [LocationBy:0]', 'Option [ViewColors:Off]', 'Option [SectionedSpine:Off]', 'Option [PropertySets:On]', 'Option [Export all:Off]'),'2;1');
FILE_NAME('1146_Qty_2.ifc','2026-05-16T11:52:57',('GIOVANNIPC\\gcorrea'),('Structural Designer'),'IFC Database version: Work','Tekla Structures 2020 Service Pack 5, IFC Export Version: 4.0.0.0 Dec  7 2020','');
FILE_SCHEMA(('IFC2X3'));
ENDSEC;

DATA;
#1= IFCPERSON('GIOVANNIPC\\gcorrea','Undefined',$,$,$,$,$,$);
#2= IFCORGANIZATION($,'Trimble Solutions Corporation',$,$,$);
#3= IFCPERSONANDORGANIZATION(#1,#2,$);
#4= IFCAPPLICATION(#2,'2020 Service Pack 5','Tekla Structures','Multi material modeling');
#5= IFCOWNERHISTORY(#3,#4,$,.NOCHANGE.,$,$,$,1778950377);
#6= IFCCARTESIANPOINT((0.,0.,0.));
#7= IFCDIRECTION((1.,0.,0.));
#8= IFCDIRECTION((0.,1.,0.));
#9= IFCDIRECTION((0.,0.,1.));
#10= IFCAXIS2PLACEMENT3D(#6,#9,#7);
#11= IFCGEOMETRICREPRESENTATIONCONTEXT($,'Model',3,1.E-05,#10,$);
#12= IFCGEOMETRICREPRESENTATIONSUBCONTEXT('Body','Model',*,*,*,*,#11,$,.MODEL_VIEW.,$);
#13= IFCGEOMETRICREPRESENTATIONSUBCONTEXT('Axis','Model',*,*,*,*,#11,$,.GRAPH_VIEW.,$);
#14= IFCGEOMETRICREPRESENTATIONSUBCONTEXT('FootPrint','Model',*,*,*,*,#11,$,.MODEL_VIEW.,$);
#15= IFCSIUNIT(*,.LENGTHUNIT.,.MILLI.,.METRE.);
#16= IFCMEASUREWITHUNIT(IFCRATIOMEASURE(304.8),#15);
#17= IFCDIMENSIONALEXPONENTS(1,0,0,0,0,0,0);
#18= IFCCONVERSIONBASEDUNIT(#17,.LENGTHUNIT.,'FOOT',#16);
#19= IFCSIUNIT(*,.AREAUNIT.,$,.SQUARE_METRE.);
#20= IFCMEASUREWITHUNIT(IFCRATIOMEASURE(0.09290304),#19);
#21= IFCDIMENSIONALEXPONENTS(2,0,0,0,0,0,0);
#22= IFCCONVERSIONBASEDUNIT(#21,.AREAUNIT.,'SQUARE FOOT',#20);
#23= IFCSIUNIT(*,.VOLUMEUNIT.,$,.CUBIC_METRE.);
#24= IFCMEASUREWITHUNIT(IFCRATIOMEASURE(0.028316846592),#23);
#25= IFCDIMENSIONALEXPONENTS(3,0,0,0,0,0,0);
#26= IFCCONVERSIONBASEDUNIT(#25,.VOLUMEUNIT.,'CUBIC FOOT',#24);
#27= IFCSIUNIT(*,.MASSUNIT.,.KILO.,.GRAM.);
#28= IFCSIUNIT(*,.TIMEUNIT.,$,.SECOND.);
#29= IFCSIUNIT(*,.PLANEANGLEUNIT.,$,.RADIAN.);
#30= IFCMEASUREWITHUNIT(IFCRATIOMEASURE(0.0174532925199433),#29);
#31= IFCDIMENSIONALEXPONENTS(0,0,0,0,0,0,0);
#32= IFCCONVERSIONBASEDUNIT(#31,.PLANEANGLEUNIT.,'DEGREE',#30);
#33= IFCSIUNIT(*,.SOLIDANGLEUNIT.,$,.STERADIAN.);
#34= IFCSIUNIT(*,.THERMODYNAMICTEMPERATUREUNIT.,$,.DEGREE_CELSIUS.);
#35= IFCSIUNIT(*,.LUMINOUSINTENSITYUNIT.,$,.LUMEN.);
#36= IFCUNITASSIGNMENT((#15,#19,#23,#27,#28,#29,#33,#34,#35));
#37= IFCPROJECT('2G7ZFDNE16yBDU14FA92Me',#5,'Proyecto',$,$,$,$,(#11),#36);
#38= IFCLOCALPLACEMENT($,#10);
#39= IFCSITE('2xvEzEinjBTea80yOTcujY',#5,'Obra',$,$,#38,$,$,.ELEMENT.,$,$,$,$,$);
#40= IFCLOCALPLACEMENT(#38,#10);
#41= IFCBUILDING('1FQGkEOcP4Uv0F_LtM2rUb',#5,'Undefined',$,$,#40,$,$,.ELEMENT.,$,$,$);
#42= IFCLOCALPLACEMENT(#40,#10);
#43= IFCBUILDINGSTOREY('29hdEUCErFze9E_VIAceOd',#5,'Undefined',$,$,#42,$,$,.ELEMENT.,0.);
#44= IFCOWNERHISTORY(#3,#4,$,.NOCHANGE.,$,$,$,1773158400);
#45= IFCCARTESIANPOINT((84067.5134356777,24020.2270154958,13909.5));
#46= IFCDIRECTION((0.,-1.,0.));
#47= IFCAXIS2PLACEMENT3D(#45,#9,#46);
#48= IFCLOCALPLACEMENT(#42,#47);
#49= IFCCARTESIANPOINT((0.,0.));
#50= IFCCARTESIANPOINT((250.,2.47382558882236E-10));
#51= IFCCARTESIANPOINT((280.251184046755,554.466023245931));
#52= IFCPOLYLINE((#49,#50,#51));
#53= IFCCOMPOSITECURVESEGMENT(.CONTINUOUS.,.T.,#52);
#54= IFCDIRECTION((-0.998513145003993,0.0545114598431877));
#55= IFCCARTESIANPOINT((380.102498546376,549.014877261655));
#56= IFCAXIS2PLACEMENT2D(#55,#54);
#57= IFCCIRCLE(#56,100.);
#58= IFCTRIMMEDCURVE(#57,(IFCPARAMETERVALUE(0.)),(IFCPARAMETERVALUE(4.42569865113141)),.F.,.PARAMETER.);
#59= IFCCOMPOSITECURVESEGMENT(.CONTINUOUS.,.T.,#58);
#60= IFCCARTESIANPOINT((413.567030325122,643.249293016588));
#61= IFCCARTESIANPOINT((673.308837890625,551.009765625));
#62= IFCCARTESIANPOINT((761.466613769531,730.531921386719));
#63= IFCCARTESIANPOINT((413.035943245769,955.048701099482));
#64= IFCPOLYLINE((#60,#61,#62,#63));
#65= IFCCOMPOSITECURVESEGMENT(.CONTINUOUS.,.T.,#64);
#66= IFCDIRECTION((-0.541360660018495,-0.840790482691342));
#67= IFCCARTESIANPOINT((575.444141252124,1207.28584590814));
#68= IFCAXIS2PLACEMENT2D(#67,#66);
#69= IFCCIRCLE(#68,300.);
#70= IFCTRIMMEDCURVE(#69,(IFCPARAMETERVALUE(0.)),(IFCPARAMETERVALUE(5.41199428618561)),.F.,.PARAMETER.);
#71= IFCCOMPOSITECURVESEGMENT(.CONTINUOUS.,.T.,#70);
#72= IFCCARTESIANPOINT((277.881212676324,1169.12430062643));
#73= IFCCARTESIANPOINT((223.265899658203,1594.98474121094));
#74= IFCCARTESIANPOINT((23.2658996582031,1594.98474121094));
#75= IFCCARTESIANPOINT((-54.0405731201172,932.489868164063));
#76= IFCPOLYLINE((#72,#73,#74,#75,#49));
#77= IFCCOMPOSITECURVESEGMENT(.CONTINUOUS.,.T.,#76);
#78= IFCCOMPOSITECURVE((#53,#59,#65,#71,#77),.T.);
#79= IFCARBITRARYCLOSEDPROFILEDEF(.AREA.,'PL19*802',#78);
#80= IFCCARTESIANPOINT((0.,0.,-9.5));
#81= IFCAXIS2PLACEMENT3D(#80,#9,#7);
#82= IFCEXTRUDEDAREASOLID(#79,#81,#9,19.);
#83= IFCSHAPEREPRESENTATION(#12,'Body','SweptSolid',(#82));
#84= IFCPRODUCTDEFINITIONSHAPE($,$,(#83));
#85= IFCPLATE('0B08o$5Y12uQXaUW0Cf3kO',#44,'PLATE','PL19*802','PL19*802',#48,#84,'ID0b008cbf-1620-42e1-a864-7a000ca43b98');
#86= IFCLOCALPLACEMENT(#42,#47);
#87= IFCDIRECTION((1.,0.));
#88= IFCAXIS2PLACEMENT2D(#49,#87);
#89= IFCCIRCLEPROFILEDEF(.AREA.,'\S\X315*1',#88,157.5);
#90= IFCDIRECTION((0.,0.,-1.));
#91= IFCCARTESIANPOINT((123.28881359152,932.490104361408,9690.5));
#92= IFCAXIS2PLACEMENT3D(#91,#90,#46);
#93= IFCEXTRUDEDAREASOLID(#89,#92,#9,15184.);
#94= IFCCARTESIANPOINT((280.78881359152,932.490104361408,-5493.5));
#95= IFCAXIS2PLACEMENT3D(#94,#9,#46);
#96= IFCPLANE(#95);
#97= IFCHALFSPACESOLID(#96,.T.);
#98= IFCBOOLEANCLIPPINGRESULT(.DIFFERENCE.,#93,#97);
#99= IFCSHAPEREPRESENTATION(#12,'Body','Clipping',(#98));
#100= IFCPRODUCTDEFINITIONSHAPE($,$,(#99));
#101= IFCOPENINGELEMENT('3R1Nke5DP5BPdeC9GLZ5pl',#5,$,$,'Recess',#86,#100,$);
#102= IFCRELVOIDSELEMENT('1YgLAXUGzEi8zekvij7TJ5',#5,$,$,#85,#101);
#103= IFCPROPERTYSINGLEVALUE('FeatureSubTypes',$,$,$);
#104= IFCPROPERTYSINGLEVALUE('RectangleOpeningWidth',$,$,$);
#105= IFCPROPERTYSINGLEVALUE('RectangleOpeningHeight',$,$,$);
#106= IFCPROPERTYSINGLEVALUE('OpeningDiameter',$,IFCPOSITIVELENGTHMEASURE(315.),$);
#107= IFCPROPERTYSET('28V4YR2bvC6faGZ7l6LqGF',#5,'AISC_EM11_Pset_Opening/Cope',$,(#103,#104,#105,#106));
#108= IFCCARTESIANPOINT((85202.4982046107,23896.884030393,13900.));
#109= IFCAXIS2PLACEMENT3D(#108,#8,#7);
#110= IFCLOCALPLACEMENT(#42,#109);
#111= IFCCIRCLEPROFILEDEF(.AREA.,$,#88,11.5);
#112= IFCCARTESIANPOINT((0.,-19.0999999999997,0.));
#113= IFCAXIS2PLACEMENT3D(#112,#8,#7);
#114= IFCEXTRUDEDAREASOLID(#111,#113,#9,19.2);
#115= IFCSHAPEREPRESENTATION(#12,'Body','SweptSolid',(#114));
#116= IFCREPRESENTATIONMAP(#10,#115);
#117= IFCCARTESIANPOINT((0.,0.,-50.));
#118= IFCCARTESIANTRANSFORMATIONOPERATOR3D($,$,#117,$,$);
#119= IFCMAPPEDITEM(#116,#118);
#120= IFCCARTESIANPOINT((70.,0.,-50.));
#121= IFCCARTESIANTRANSFORMATIONOPERATOR3D($,$,#120,$,$);
#122= IFCMAPPEDITEM(#116,#121);
#123= IFCCARTESIANPOINT((140.,0.,-50.));
#124= IFCCARTESIANTRANSFORMATIONOPERATOR3D($,$,#123,$,$);
#125= IFCMAPPEDITEM(#116,#124);
#126= IFCCARTESIANPOINT((210.,0.,-50.));
#127= IFCCARTESIANTRANSFORMATIONOPERATOR3D($,$,#126,$,$);
#128= IFCMAPPEDITEM(#116,#127);
#129= IFCCARTESIANPOINT((280.,0.,-50.));
#130= IFCCARTESIANTRANSFORMATIONOPERATOR3D($,$,#129,$,$);
#131= IFCMAPPEDITEM(#116,#130);
#132= IFCCARTESIANPOINT((350.,0.,-50.));
#133= IFCCARTESIANTRANSFORMATIONOPERATOR3D($,$,#132,$,$);
#134= IFCMAPPEDITEM(#116,#133);
#135= IFCCARTESIANPOINT((420.,0.,-50.));
#136= IFCCARTESIANTRANSFORMATIONOPERATOR3D($,$,#135,$,$);
#137= IFCMAPPEDITEM(#116,#136);
#138= IFCCARTESIANPOINT((0.,0.,50.));
#139= IFCCARTESIANTRANSFORMATIONOPERATOR3D($,$,#138,$,$);
#140= IFCMAPPEDITEM(#116,#139);
#141= IFCCARTESIANPOINT((70.,0.,50.));
#142= IFCCARTESIANTRANSFORMATIONOPERATOR3D($,$,#141,$,$);
#143= IFCMAPPEDITEM(#116,#142);
#144= IFCCARTESIANPOINT((140.,0.,50.));
#145= IFCCARTESIANTRANSFORMATIONOPERATOR3D($,$,#144,$,$);
#146= IFCMAPPEDITEM(#116,#145);
#147= IFCCARTESIANPOINT((210.,0.,50.));
#148= IFCCARTESIANTRANSFORMATIONOPERATOR3D($,$,#147,$,$);
#149= IFCMAPPEDITEM(#116,#148);
#150= IFCCARTESIANPOINT((280.,0.,50.));
#151= IFCCARTESIANTRANSFORMATIONOPERATOR3D($,$,#150,$,$);
#152= IFCMAPPEDITEM(#116,#151);
#153= IFCCARTESIANPOINT((350.,0.,50.));
#154= IFCCARTESIANTRANSFORMATIONOPERATOR3D($,$,#153,$,$);
#155= IFCMAPPEDITEM(#116,#154);
#156= IFCCARTESIANPOINT((420.,0.,50.));
#157= IFCCARTESIANTRANSFORMATIONOPERATOR3D($,$,#156,$,$);
#158= IFCMAPPEDITEM(#116,#157);
#159= IFCSHAPEREPRESENTATION(#12,'Body','MappedRepresentation',(#119,#122,#125,#128,#131,#134,#137,#140,#143,#146,#149,#152,#155,#158));
#160= IFCPRODUCTDEFINITIONSHAPE($,$,(#159));
#161= IFCOPENINGELEMENT('36KGv7OBv6R9tAZb5AqoIG',#5,$,$,'Opening',#110,#160,$);
#162= IFCRELVOIDSELEMENT('346VCrkuLCRAFwn9yoAxZR',#5,'Drill Hole',$,#85,#161);
#163= IFCPROPERTYSINGLEVALUE('FeatureSubTypes',$,IFCLABEL('TORNILLO'),$);
#164= IFCPROPERTYSINGLEVALUE('OpeningDiameter',$,$,$);
#165= IFCPROPERTYSET('20Li$Q79fC4AFGpV4A6Lb6',#5,'AISC_EM11_Pset_Opening/Cope',$,(#163,#104,#105,#164));
#166= IFCCARTESIANPOINT((84792.50840433,23897.0367910989,13900.));
#167= IFCDIRECTION((-1.,0.,0.));
#168= IFCAXIS2PLACEMENT3D(#166,#46,#167);
#169= IFCLOCALPLACEMENT(#42,#168);
#170= IFCCARTESIANPOINT((0.,0.,-75.));
#171= IFCCARTESIANTRANSFORMATIONOPERATOR3D($,$,#170,$,$);
#172= IFCMAPPEDITEM(#116,#171);
#173= IFCCARTESIANPOINT((75.,0.,-75.));
#174= IFCCARTESIANTRANSFORMATIONOPERATOR3D($,$,#173,$,$);
#175= IFCMAPPEDITEM(#116,#174);
#176= IFCCARTESIANPOINT((150.,0.,-75.));
#177= IFCCARTESIANTRANSFORMATIONOPERATOR3D($,$,#176,$,$);
#178= IFCMAPPEDITEM(#116,#177);
#179= IFCCARTESIANPOINT((225.,0.,-75.));
#180= IFCCARTESIANTRANSFORMATIONOPERATOR3D($,$,#179,$,$);
#181= IFCMAPPEDITEM(#116,#180);
#182= IFCCARTESIANPOINT((300.,0.,-75.));
#183= IFCCARTESIANTRANSFORMATIONOPERATOR3D($,$,#182,$,$);
#184= IFCMAPPEDITEM(#116,#183);
#185= IFCCARTESIANPOINT((375.,0.,-75.));
#186= IFCCARTESIANTRANSFORMATIONOPERATOR3D($,$,#185,$,$);
#187= IFCMAPPEDITEM(#116,#186);
#188= IFCCARTESIANPOINT((450.,0.,-75.));
#189= IFCCARTESIANTRANSFORMATIONOPERATOR3D($,$,#188,$,$);
#190= IFCMAPPEDITEM(#116,#189);
#191= IFCCARTESIANPOINT((525.,0.,-75.));
#192= IFCCARTESIANTRANSFORMATIONOPERATOR3D($,$,#191,$,$);
#193= IFCMAPPEDITEM(#116,#192);
#194= IFCCARTESIANPOINT((600.,0.,-75.));
#195= IFCCARTESIANTRANSFORMATIONOPERATOR3D($,$,#194,$,$);
#196= IFCMAPPEDITEM(#116,#195);
#197= IFCCARTESIANPOINT((675.,0.,-75.));
#198= IFCCARTESIANTRANSFORMATIONOPERATOR3D($,$,#197,$,$);
#199= IFCMAPPEDITEM(#116,#198);
#200= IFCCARTESIANPOINT((0.,0.,75.));
#201= IFCCARTESIANTRANSFORMATIONOPERATOR3D($,$,#200,$,$);
#202= IFCMAPPEDITEM(#116,#201);
#203= IFCCARTESIANPOINT((75.,0.,75.));
#204= IFCCARTESIANTRANSFORMATIONOPERATOR3D($,$,#203,$,$);
#205= IFCMAPPEDITEM(#116,#204);
#206= IFCCARTESIANPOINT((150.,0.,75.));
#207= IFCCARTESIANTRANSFORMATIONOPERATOR3D($,$,#206,$,$);
#208= IFCMAPPEDITEM(#116,#207);
#209= IFCCARTESIANPOINT((225.,0.,75.));
#210= IFCCARTESIANTRANSFORMATIONOPERATOR3D($,$,#209,$,$);
#211= IFCMAPPEDITEM(#116,#210);
#212= IFCCARTESIANPOINT((300.,0.,75.));
#213= IFCCARTESIANTRANSFORMATIONOPERATOR3D($,$,#212,$,$);
#214= IFCMAPPEDITEM(#116,#213);
#215= IFCCARTESIANPOINT((375.,0.,75.));
#216= IFCCARTESIANTRANSFORMATIONOPERATOR3D($,$,#215,$,$);
#217= IFCMAPPEDITEM(#116,#216);
#218= IFCCARTESIANPOINT((450.,0.,75.));
#219= IFCCARTESIANTRANSFORMATIONOPERATOR3D($,$,#218,$,$);
#220= IFCMAPPEDITEM(#116,#219);
#221= IFCCARTESIANPOINT((525.,0.,75.));
#222= IFCCARTESIANTRANSFORMATIONOPERATOR3D($,$,#221,$,$);
#223= IFCMAPPEDITEM(#116,#222);
#224= IFCCARTESIANPOINT((600.,0.,75.));
#225= IFCCARTESIANTRANSFORMATIONOPERATOR3D($,$,#224,$,$);
#226= IFCMAPPEDITEM(#116,#225);
#227= IFCCARTESIANPOINT((675.,0.,75.));
#228= IFCCARTESIANTRANSFORMATIONOPERATOR3D($,$,#227,$,$);
#229= IFCMAPPEDITEM(#116,#228);
#230= IFCSHAPEREPRESENTATION(#12,'Body','MappedRepresentation',(#172,#175,#178,#181,#184,#187,#190,#193,#196,#199,#202,#205,#208,#211,#214,#217,#220,#223,#226,#229));
#231= IFCPRODUCTDEFINITIONSHAPE($,$,(#230));
#232= IFCOPENINGELEMENT('0ye3NFs2LA2PZnJnw8eHQn',#5,$,$,'Opening',#169,#231,$);
#233= IFCRELVOIDSELEMENT('2RYDt1bBP11RSF5BDjDY0h',#5,'Drill Hole',$,#85,#232);
#234= IFCCARTESIANPOINT((84910.8976773784,23715.46063965,13900.));
#235= IFCDIRECTION((0.897620448210156,-0.440769249103201,0.));
#236= IFCDIRECTION((-0.440769249103204,-0.897620448210154,0.));
#237= IFCAXIS2PLACEMENT3D(#234,#235,#236);
#238= IFCLOCALPLACEMENT(#42,#237);
#239= IFCSHAPEREPRESENTATION(#12,'Body','MappedRepresentation',(#119,#122,#125,#128,#131,#134,#137,#140,#143,#146,#149,#152,#155,#158));
#240= IFCPRODUCTDEFINITIONSHAPE($,$,(#239));
#241= IFCOPENINGELEMENT('2pzd202xf4NhP1riiUMpVs',#5,$,$,'Opening',#238,#240,$);
#242= IFCRELVOIDSELEMENT('0u3fImWhb0wPieXl2GN83u',#5,'Drill Hole',$,#85,#241);
#243= IFCPROPERTYSINGLEVALUE('PieceMark',$,IFCIDENTIFIER('PLATE'),$);
#244= IFCPROPERTYSINGLEVALUE('IndicationMark',$,IFCIDENTIFIER('1146'),$);
#245= IFCPROPERTYSINGLEVALUE('PrelimMark',$,IFCIDENTIFIER(''),$);
#246= IFCPROPERTYSINGLEVALUE('MainPieceTag',$,IFCBOOLEAN(.T.),$);
#247= IFCPROPERTYSET('1BPA852RnD7el1pxRD1lTl',#5,'AISC_EM11_Pset_PieceIdentification','PieceIdentity',(#243,#244,#245,#246));
#248= IFCPROPERTYSINGLEVALUE('MaterialType',$,IFCIDENTIFIER('STEEL'),$);
#249= IFCPROPERTYSINGLEVALUE('MaterialGrade',$,IFCIDENTIFIER('S235JR'),$);
#250= IFCPROPERTYSET('3GtsJifpDDYu2O6tyTf07G',#5,'AISC_EM11_Pset_Material',$,(#248,#249));
#251= IFCMATERIAL('STEEL/S235JR');
#252= IFCRELAGGREGATES('384LJnDUvDHhG9Lx0GyWSz',#5,$,$,#37,(#39));
#253= IFCRELAGGREGATES('2QMdb3VmBVZzYRdDIYEokF',#5,$,$,#39,(#41));
#254= IFCRELAGGREGATES('2tCI6kPwT9Bu6UsNW_4_2b',#5,$,$,#41,(#43));
#255= IFCRELCONTAINEDINSPATIALSTRUCTURE('1p2KaxF692Su1JdUN1F3N8',#5,$,$,(#85),#43);
#256= IFCRELDEFINESBYPROPERTIES('2zGXjE605DGAjqsbGtZmDA',#5,$,$,(#101),#107);
#257= IFCRELDEFINESBYPROPERTIES('0B$fdFusXB2eGudXcy8p4B',#5,$,$,(#241,#232,#161),#165);
#258= IFCRELDEFINESBYPROPERTIES('2L_fsWKWn60ur6MAOczLGt',#5,$,$,(#85),#247);
#259= IFCRELDEFINESBYPROPERTIES('1nEhkyvJD1Ou7DOuywz1O5',#5,$,$,(#85),#250);
#260= IFCRELASSOCIATESMATERIAL('1D0Z_CRwnEjQ0LffMn1RBu',#5,$,$,(#85),#251);
ENDSEC;

END-ISO-10303-21;
