ISO-10303-21;
HEADER;
FILE_DESCRIPTION(('ViewDefinition[AISC_Steel_Detailing]', 'Option [BaseQuantities:Off]', 'Option [GridExport:On]', 'Option [Assemblies:Off]', 'Option [Bolts:On]', 'Option [Rebars:On]', 'Option [PourObjects:Off]', 'Option [Welds:On]', 'Option [SurfaceTreatments:On]', 'Option [LocationBy:0]', 'Option [ViewColors:Off]', 'Option [SectionedSpine:Off]', 'Option [PropertySets:On]', 'Option [Export all:Off]'),'2;1');
FILE_NAME('1151_Qty_2.ifc','2026-05-16T11:52:57',('GIOVANNIPC\\gcorrea'),('Structural Designer'),'IFC Database version: Work','Tekla Structures 2020 Service Pack 5, IFC Export Version: 4.0.0.0 Dec  7 2020','');
FILE_SCHEMA(('IFC2X3'));
ENDSEC;

DATA;
#1= IFCPERSON('GIOVANNIPC\\gcorrea','Undefined',$,$,$,$,$,$);
#2= IFCORGANIZATION($,'Trimble Solutions Corporation',$,$,$);
#3= IFCPERSONANDORGANIZATION(#1,#2,$);
#4= IFCAPPLICATION(#2,'2020 Service Pack 5','Tekla Structures','Multi material modeling');
#5= IFCOWNERHISTORY(#3,#4,$,.NOCHANGE.,$,$,$,1778950377);
#6= IFCCARTESIANPOINT((0.,0.,0.));
#7= IFCDIRECTION((1.,0.,0.));
#8= IFCDIRECTION((0.,1.,0.));
#9= IFCDIRECTION((0.,0.,1.));
#10= IFCAXIS2PLACEMENT3D(#6,#9,#7);
#11= IFCGEOMETRICREPRESENTATIONCONTEXT($,'Model',3,1.E-05,#10,$);
#12= IFCGEOMETRICREPRESENTATIONSUBCONTEXT('Body','Model',*,*,*,*,#11,$,.MODEL_VIEW.,$);
#13= IFCGEOMETRICREPRESENTATIONSUBCONTEXT('Axis','Model',*,*,*,*,#11,$,.GRAPH_VIEW.,$);
#14= IFCGEOMETRICREPRESENTATIONSUBCONTEXT('FootPrint','Model',*,*,*,*,#11,$,.MODEL_VIEW.,$);
#15= IFCSIUNIT(*,.LENGTHUNIT.,.MILLI.,.METRE.);
#16= IFCMEASUREWITHUNIT(IFCRATIOMEASURE(304.8),#15);
#17= IFCDIMENSIONALEXPONENTS(1,0,0,0,0,0,0);
#18= IFCCONVERSIONBASEDUNIT(#17,.LENGTHUNIT.,'FOOT',#16);
#19= IFCSIUNIT(*,.AREAUNIT.,$,.SQUARE_METRE.);
#20= IFCMEASUREWITHUNIT(IFCRATIOMEASURE(0.09290304),#19);
#21= IFCDIMENSIONALEXPONENTS(2,0,0,0,0,0,0);
#22= IFCCONVERSIONBASEDUNIT(#21,.AREAUNIT.,'SQUARE FOOT',#20);
#23= IFCSIUNIT(*,.VOLUMEUNIT.,$,.CUBIC_METRE.);
#24= IFCMEASUREWITHUNIT(IFCRATIOMEASURE(0.028316846592),#23);
#25= IFCDIMENSIONALEXPONENTS(3,0,0,0,0,0,0);
#26= IFCCONVERSIONBASEDUNIT(#25,.VOLUMEUNIT.,'CUBIC FOOT',#24);
#27= IFCSIUNIT(*,.MASSUNIT.,.KILO.,.GRAM.);
#28= IFCSIUNIT(*,.TIMEUNIT.,$,.SECOND.);
#29= IFCSIUNIT(*,.PLANEANGLEUNIT.,$,.RADIAN.);
#30= IFCMEASUREWITHUNIT(IFCRATIOMEASURE(0.0174532925199433),#29);
#31= IFCDIMENSIONALEXPONENTS(0,0,0,0,0,0,0);
#32= IFCCONVERSIONBASEDUNIT(#31,.PLANEANGLEUNIT.,'DEGREE',#30);
#33= IFCSIUNIT(*,.SOLIDANGLEUNIT.,$,.STERADIAN.);
#34= IFCSIUNIT(*,.THERMODYNAMICTEMPERATUREUNIT.,$,.DEGREE_CELSIUS.);
#35= IFCSIUNIT(*,.LUMINOUSINTENSITYUNIT.,$,.LUMEN.);
#36= IFCUNITASSIGNMENT((#15,#19,#23,#27,#28,#29,#33,#34,#35));
#37= IFCPROJECT('2G7ZFDNE16yBDU14FA92Me',#5,'Proyecto',$,$,$,$,(#11),#36);
#38= IFCLOCALPLACEMENT($,#10);
#39= IFCSITE('2xvEzEinjBTea80yOTcujY',#5,'Obra',$,$,#38,$,$,.ELEMENT.,$,$,$,$,$);
#40= IFCLOCALPLACEMENT(#38,#10);
#41= IFCBUILDING('0zhPbsgyzBWe0CD$Nl4L8j',#5,'Undefined',$,$,#40,$,$,.ELEMENT.,$,$,$);
#42= IFCLOCALPLACEMENT(#40,#10);
#43= IFCBUILDINGSTOREY('29hdEUCErFze9E_VIAceOd',#5,'Undefined',$,$,#42,$,$,.ELEMENT.,0.);
#44= IFCOWNERHISTORY(#3,#4,$,.NOCHANGE.,$,$,$,1772744400);
#45= IFCCARTESIANPOINT((83409.2642091904,22100.0000658492,13909.5));
#46= IFCDIRECTION((0.,-1.,0.));
#47= IFCAXIS2PLACEMENT3D(#45,#9,#46);
#48= IFCLOCALPLACEMENT(#42,#47);
#49= IFCCARTESIANPOINT((0.,0.));
#50= IFCCARTESIANPOINT((200.,0.));
#51= IFCCARTESIANPOINT((199.909499707106,338.248957174362));
#52= IFCPOLYLINE((#49,#50,#51));
#53= IFCCOMPOSITECURVESEGMENT(.CONTINUOUS.,.T.,#52);
#54= IFCDIRECTION((-1.,1.27272414829248E-12));
#55= IFCCARTESIANPOINT((299.909499707185,338.248957174235));
#56= IFCAXIS2PLACEMENT2D(#55,#54);
#57= IFCCIRCLE(#56,100.);
#58= IFCTRIMMEDCURVE(#57,(IFCPARAMETERVALUE(0.)),(IFCPARAMETERVALUE(4.25591479300873)),.F.,.PARAMETER.);
#59= IFCCOMPOSITECURVESEGMENT(.CONTINUOUS.,.T.,#58);
#60= IFCCARTESIANPOINT((343.988103794172,428.010177429747));
#61= IFCCARTESIANPOINT((600.514709472656,302.038909912109));
#62= IFCCARTESIANPOINT((688.671875,481.561187744141));
#63= IFCCARTESIANPOINT((-388.461791992188,1010.50390625));
#64= IFCCARTESIANPOINT((-476.619506835938,830.98193359375));
#65= IFCCARTESIANPOINT((-167.764190097693,679.196466773502));
#66= IFCPOLYLINE((#60,#61,#62,#63,#64,#65));
#67= IFCCOMPOSITECURVESEGMENT(.CONTINUOUS.,.T.,#66);
#68= IFCDIRECTION((0.440786033011464,0.897612206413224));
#69= IFCCARTESIANPOINT((-300.000000002025,409.912804847717));
#70= IFCAXIS2PLACEMENT2D(#69,#68);
#71= IFCCIRCLE(#70,300.);
#72= IFCTRIMMEDCURVE(#71,(IFCPARAMETERVALUE(0.)),(IFCPARAMETERVALUE(5.16886315901174)),.F.,.PARAMETER.);
#73= IFCCOMPOSITECURVESEGMENT(.CONTINUOUS.,.T.,#72);
#74= IFCCARTESIANPOINT((0.,409.912804848978));
#75= IFCPOLYLINE((#74,#49));
#76= IFCCOMPOSITECURVESEGMENT(.CONTINUOUS.,.T.,#75);
#77= IFCCOMPOSITECURVE((#53,#59,#67,#73,#76),.T.);
#78= IFCARBITRARYCLOSEDPROFILEDEF(.AREA.,'PL19*736',#77);
#79= IFCCARTESIANPOINT((0.,0.,-9.5));
#80= IFCAXIS2PLACEMENT3D(#79,#9,#7);
#81= IFCEXTRUDEDAREASOLID(#78,#80,#9,19.);
#82= IFCSHAPEREPRESENTATION(#12,'Body','SweptSolid',(#81));
#83= IFCPRODUCTDEFINITIONSHAPE($,$,(#82));
#84= IFCPLATE('10SlkfJ8jBnfyINx$qcMWf',#44,'PLATE','PL19*736','PL19*736',#48,#83,'ID4072fba9-4c8b-4bc6-9f12-5fbff4996829');
#85= IFCCARTESIANPOINT((83869.264209189,22000.0000658492,13900.));
#86= IFCDIRECTION((-1.,0.,0.));
#87= IFCAXIS2PLACEMENT3D(#85,#46,#86);
#88= IFCLOCALPLACEMENT(#42,#87);
#89= IFCDIRECTION((1.,0.));
#90= IFCAXIS2PLACEMENT2D(#49,#89);
#91= IFCCIRCLEPROFILEDEF(.AREA.,$,#90,11.5);
#92= IFCCARTESIANPOINT((0.,-19.1,0.));
#93= IFCAXIS2PLACEMENT3D(#92,#8,#7);
#94= IFCEXTRUDEDAREASOLID(#91,#93,#9,19.2);
#95= IFCSHAPEREPRESENTATION(#12,'Body','SweptSolid',(#94));
#96= IFCREPRESENTATIONMAP(#10,#95);
#97= IFCCARTESIANPOINT((0.,0.,-50.));
#98= IFCCARTESIANTRANSFORMATIONOPERATOR3D($,$,#97,$,$);
#99= IFCMAPPEDITEM(#96,#98);
#100= IFCCARTESIANPOINT((70.,0.,-50.));
#101= IFCCARTESIANTRANSFORMATIONOPERATOR3D($,$,#100,$,$);
#102= IFCMAPPEDITEM(#96,#101);
#103= IFCCARTESIANPOINT((140.,0.,-50.));
#104= IFCCARTESIANTRANSFORMATIONOPERATOR3D($,$,#103,$,$);
#105= IFCMAPPEDITEM(#96,#104);
#106= IFCCARTESIANPOINT((210.,0.,-50.));
#107= IFCCARTESIANTRANSFORMATIONOPERATOR3D($,$,#106,$,$);
#108= IFCMAPPEDITEM(#96,#107);
#109= IFCCARTESIANPOINT((280.,0.,-50.));
#110= IFCCARTESIANTRANSFORMATIONOPERATOR3D($,$,#109,$,$);
#111= IFCMAPPEDITEM(#96,#110);
#112= IFCCARTESIANPOINT((350.,0.,-50.));
#113= IFCCARTESIANTRANSFORMATIONOPERATOR3D($,$,#112,$,$);
#114= IFCMAPPEDITEM(#96,#113);
#115= IFCCARTESIANPOINT((420.,0.,-50.));
#116= IFCCARTESIANTRANSFORMATIONOPERATOR3D($,$,#115,$,$);
#117= IFCMAPPEDITEM(#96,#116);
#118= IFCCARTESIANPOINT((0.,0.,50.));
#119= IFCCARTESIANTRANSFORMATIONOPERATOR3D($,$,#118,$,$);
#120= IFCMAPPEDITEM(#96,#119);
#121= IFCCARTESIANPOINT((70.,0.,50.));
#122= IFCCARTESIANTRANSFORMATIONOPERATOR3D($,$,#121,$,$);
#123= IFCMAPPEDITEM(#96,#122);
#124= IFCCARTESIANPOINT((140.,0.,50.));
#125= IFCCARTESIANTRANSFORMATIONOPERATOR3D($,$,#124,$,$);
#126= IFCMAPPEDITEM(#96,#125);
#127= IFCCARTESIANPOINT((210.,0.,50.));
#128= IFCCARTESIANTRANSFORMATIONOPERATOR3D($,$,#127,$,$);
#129= IFCMAPPEDITEM(#96,#128);
#130= IFCCARTESIANPOINT((280.,0.,50.));
#131= IFCCARTESIANTRANSFORMATIONOPERATOR3D($,$,#130,$,$);
#132= IFCMAPPEDITEM(#96,#131);
#133= IFCCARTESIANPOINT((350.,0.,50.));
#134= IFCCARTESIANTRANSFORMATIONOPERATOR3D($,$,#133,$,$);
#135= IFCMAPPEDITEM(#96,#134);
#136= IFCCARTESIANPOINT((420.,0.,50.));
#137= IFCCARTESIANTRANSFORMATIONOPERATOR3D($,$,#136,$,$);
#138= IFCMAPPEDITEM(#96,#137);
#139= IFCSHAPEREPRESENTATION(#12,'Body','MappedRepresentation',(#99,#102,#105,#108,#111,#114,#117,#120,#123,#126,#129,#132,#135,#138));
#140= IFCPRODUCTDEFINITIONSHAPE($,$,(#139));
#141= IFCOPENINGELEMENT('2WhbfEclTDbw5GaDEKc6FL',#5,$,$,'Opening',#88,#140,$);
#142= IFCRELVOIDSELEMENT('3Jr6EoTWv0QO6SqsLIeeFU',#5,'Drill Hole',$,#84,#141);
#143= IFCPROPERTYSINGLEVALUE('FeatureSubTypes',$,IFCLABEL('TORNILLO'),$);
#144= IFCPROPERTYSINGLEVALUE('RectangleOpeningWidth',$,$,$);
#145= IFCPROPERTYSINGLEVALUE('RectangleOpeningHeight',$,$,$);
#146= IFCPROPERTYSINGLEVALUE('OpeningDiameter',$,$,$);
#147= IFCPROPERTYSET('2V6VZtO3z5TepPvIrGsyQQ',#5,'AISC_EM11_Pset_Opening/Cope',$,(#143,#144,#145,#146));
#148= IFCCARTESIANPOINT((84003.8256575308,21868.3083096409,13900.));
#149= IFCDIRECTION((0.897612204366266,-0.440786037179869,0.));
#150= IFCDIRECTION((-0.440786037179865,-0.897612204366268,0.));
#151= IFCAXIS2PLACEMENT3D(#148,#149,#150);
#152= IFCLOCALPLACEMENT(#42,#151);
#153= IFCSHAPEREPRESENTATION(#12,'Body','MappedRepresentation',(#99,#102,#105,#108,#111,#114,#117,#120,#123,#126,#129,#132,#135,#138));
#154= IFCPRODUCTDEFINITIONSHAPE($,$,(#153));
#155= IFCOPENINGELEMENT('3oPTuMgbD31v75LwCamdkz',#5,$,$,'Opening',#152,#154,$);
#156= IFCRELVOIDSELEMENT('3jaRW3ndT8qOwrOUa9BUSj',#5,'Drill Hole',$,#84,#155);
#157= IFCCARTESIANPOINT((84127.2458875859,22119.6394536452,13900.));
#158= IFCDIRECTION((-0.897612222697052,0.440785999851242,0.));
#159= IFCDIRECTION((0.440785999851239,0.897612222697053,0.));
#160= IFCAXIS2PLACEMENT3D(#157,#158,#159);
#161= IFCLOCALPLACEMENT(#42,#160);
#162= IFCSHAPEREPRESENTATION(#12,'Body','MappedRepresentation',(#99,#102,#105,#108,#111,#114,#117,#120,#123,#126,#129,#132,#135,#138));
#163= IFCPRODUCTDEFINITIONSHAPE($,$,(#162));
#164= IFCOPENINGELEMENT('3RlCw321D0ZfYnX8x066oK',#5,$,$,'Opening',#161,#163,$);
#165= IFCRELVOIDSELEMENT('2bX$ANBpvEKQcCiMzczoz2',#5,'Drill Hole',$,#84,#164);
#166= IFCPROPERTYSINGLEVALUE('PieceMark',$,IFCIDENTIFIER('PLATE'),$);
#167= IFCPROPERTYSINGLEVALUE('IndicationMark',$,IFCIDENTIFIER('1151'),$);
#168= IFCPROPERTYSINGLEVALUE('PrelimMark',$,IFCIDENTIFIER(''),$);
#169= IFCPROPERTYSINGLEVALUE('MainPieceTag',$,IFCBOOLEAN(.T.),$);
#170= IFCPROPERTYSET('3HlaKCRCr9kgdf2nym3PMS',#5,'AISC_EM11_Pset_PieceIdentification','PieceIdentity',(#166,#167,#168,#169));
#171= IFCPROPERTYSINGLEVALUE('MaterialType',$,IFCIDENTIFIER('STEEL'),$);
#172= IFCPROPERTYSINGLEVALUE('MaterialGrade',$,IFCIDENTIFIER('S235JR'),$);
#173= IFCPROPERTYSET('30E3ibW0DAcQ5KBULh98P4',#5,'AISC_EM11_Pset_Material',$,(#171,#172));
#174= IFCMATERIAL('STEEL/S235JR');
#175= IFCRELAGGREGATES('1sAO3Zgs9EnxWlynGn4HXW',#5,$,$,#37,(#39));
#176= IFCRELAGGREGATES('28SgLry8RW3Do1E3Y3MZpo',#5,$,$,#39,(#41));
#177= IFCRELAGGREGATES('3vWCuda4T10wq8i5bjoTIh',#5,$,$,#41,(#43));
#178= IFCRELCONTAINEDINSPATIALSTRUCTURE('0gBWoHUEvBMRHRl6RTUBMe',#5,$,$,(#84),#43);
#179= IFCRELDEFINESBYPROPERTIES('2FSXaxWR12VhFUvpQNAm9J',#5,$,$,(#164,#155,#141),#147);
#180= IFCRELDEFINESBYPROPERTIES('3Npg0zMsX5u9AEIazZfU0F',#5,$,$,(#84),#170);
#181= IFCRELDEFINESBYPROPERTIES('1jXbPc3UTBH8aB7_$Nu3Fi',#5,$,$,(#84),#173);
#182= IFCRELASSOCIATESMATERIAL('1n9sFFov965PYHE01J5mFZ',#5,$,$,(#84),#174);
ENDSEC;

END-ISO-10303-21;
