ISO-10303-21;
HEADER;
FILE_DESCRIPTION(('ViewDefinition[AISC_Steel_Detailing]', 'Option [BaseQuantities:Off]', 'Option [GridExport:On]', 'Option [Assemblies:Off]', 'Option [Bolts:On]', 'Option [Rebars:On]', 'Option [PourObjects:Off]', 'Option [Welds:On]', 'Option [SurfaceTreatments:On]', 'Option [LocationBy:0]', 'Option [ViewColors:Off]', 'Option [SectionedSpine:Off]', 'Option [PropertySets:On]', 'Option [Export all:Off]'),'2;1');
FILE_NAME('1193_Qty_4.ifc','2026-05-16T11:52:56',('GIOVANNIPC\\gcorrea'),('Structural Designer'),'IFC Database version: Work','Tekla Structures 2020 Service Pack 5, IFC Export Version: 4.0.0.0 Dec  7 2020','');
FILE_SCHEMA(('IFC2X3'));
ENDSEC;

DATA;
#1= IFCPERSON('GIOVANNIPC\\gcorrea','Undefined',$,$,$,$,$,$);
#2= IFCORGANIZATION($,'Trimble Solutions Corporation',$,$,$);
#3= IFCPERSONANDORGANIZATION(#1,#2,$);
#4= IFCAPPLICATION(#2,'2020 Service Pack 5','Tekla Structures','Multi material modeling');
#5= IFCOWNERHISTORY(#3,#4,$,.NOCHANGE.,$,$,$,1778950376);
#6= IFCCARTESIANPOINT((0.,0.,0.));
#7= IFCDIRECTION((1.,0.,0.));
#8= IFCDIRECTION((0.,1.,0.));
#9= IFCDIRECTION((0.,0.,1.));
#10= IFCAXIS2PLACEMENT3D(#6,#9,#7);
#11= IFCGEOMETRICREPRESENTATIONCONTEXT($,'Model',3,1.E-05,#10,$);
#12= IFCGEOMETRICREPRESENTATIONSUBCONTEXT('Body','Model',*,*,*,*,#11,$,.MODEL_VIEW.,$);
#13= IFCGEOMETRICREPRESENTATIONSUBCONTEXT('Axis','Model',*,*,*,*,#11,$,.GRAPH_VIEW.,$);
#14= IFCGEOMETRICREPRESENTATIONSUBCONTEXT('FootPrint','Model',*,*,*,*,#11,$,.MODEL_VIEW.,$);
#15= IFCSIUNIT(*,.LENGTHUNIT.,.MILLI.,.METRE.);
#16= IFCMEASUREWITHUNIT(IFCRATIOMEASURE(304.8),#15);
#17= IFCDIMENSIONALEXPONENTS(1,0,0,0,0,0,0);
#18= IFCCONVERSIONBASEDUNIT(#17,.LENGTHUNIT.,'FOOT',#16);
#19= IFCSIUNIT(*,.AREAUNIT.,$,.SQUARE_METRE.);
#20= IFCMEASUREWITHUNIT(IFCRATIOMEASURE(0.09290304),#19);
#21= IFCDIMENSIONALEXPONENTS(2,0,0,0,0,0,0);
#22= IFCCONVERSIONBASEDUNIT(#21,.AREAUNIT.,'SQUARE FOOT',#20);
#23= IFCSIUNIT(*,.VOLUMEUNIT.,$,.CUBIC_METRE.);
#24= IFCMEASUREWITHUNIT(IFCRATIOMEASURE(0.028316846592),#23);
#25= IFCDIMENSIONALEXPONENTS(3,0,0,0,0,0,0);
#26= IFCCONVERSIONBASEDUNIT(#25,.VOLUMEUNIT.,'CUBIC FOOT',#24);
#27= IFCSIUNIT(*,.MASSUNIT.,.KILO.,.GRAM.);
#28= IFCSIUNIT(*,.TIMEUNIT.,$,.SECOND.);
#29= IFCSIUNIT(*,.PLANEANGLEUNIT.,$,.RADIAN.);
#30= IFCMEASUREWITHUNIT(IFCRATIOMEASURE(0.0174532925199433),#29);
#31= IFCDIMENSIONALEXPONENTS(0,0,0,0,0,0,0);
#32= IFCCONVERSIONBASEDUNIT(#31,.PLANEANGLEUNIT.,'DEGREE',#30);
#33= IFCSIUNIT(*,.SOLIDANGLEUNIT.,$,.STERADIAN.);
#34= IFCSIUNIT(*,.THERMODYNAMICTEMPERATUREUNIT.,$,.DEGREE_CELSIUS.);
#35= IFCSIUNIT(*,.LUMINOUSINTENSITYUNIT.,$,.LUMEN.);
#36= IFCUNITASSIGNMENT((#15,#19,#23,#27,#28,#29,#33,#34,#35));
#37= IFCPROJECT('2G7ZFDNE16yBDU14FA92Me',#5,'Proyecto',$,$,$,$,(#11),#36);
#38= IFCLOCALPLACEMENT($,#10);
#39= IFCSITE('2xvEzEinjBTea80yOTcujY',#5,'Obra',$,$,#38,$,$,.ELEMENT.,$,$,$,$,$);
#40= IFCLOCALPLACEMENT(#38,#10);
#41= IFCBUILDING('36uVE0z_LDXgD_q4HDh9i6',#5,'Undefined',$,$,#40,$,$,.ELEMENT.,$,$,$);
#42= IFCLOCALPLACEMENT(#40,#10);
#43= IFCBUILDINGSTOREY('29hdEUCErFze9E_VIAceOd',#5,'Undefined',$,$,#42,$,$,.ELEMENT.,0.);
#44= IFCOWNERHISTORY(#3,#4,$,.NOCHANGE.,$,$,$,1775592000);
#45= IFCCARTESIANPOINT((94546.3183014761,23991.4136236112,13440.5));
#46= IFCDIRECTION((0.,0.,-1.));
#47= IFCDIRECTION((0.00183665600062557,-0.999998313345945,0.));
#48= IFCAXIS2PLACEMENT3D(#45,#46,#47);
#49= IFCLOCALPLACEMENT(#42,#48);
#50= IFCCARTESIANPOINT((0.,0.));
#51= IFCCARTESIANPOINT((700.001770019197,2.8521753847599E-09));
#52= IFCCARTESIANPOINT((699.566894530915,190.482681276859));
#53= IFCCARTESIANPOINT((189.567199706937,189.801589966417));
#54= IFCCARTESIANPOINT((-0.433747738603415,189.999511718648));
#55= IFCPOLYLINE((#50,#51,#52,#53,#54,#50));
#56= IFCARBITRARYCLOSEDPROFILEDEF(.AREA.,'PL19*190',#55);
#57= IFCCARTESIANPOINT((0.,0.,-9.50000000000182));
#58= IFCAXIS2PLACEMENT3D(#57,#9,#7);
#59= IFCEXTRUDEDAREASOLID(#56,#58,#9,19.);
#60= IFCSHAPEREPRESENTATION(#12,'Body','SweptSolid',(#59));
#61= IFCPRODUCTDEFINITIONSHAPE($,$,(#60));
#62= IFCPLATE('23jcgfdoj2sxqjcIkWWvmF',#44,'PLATE','PL19*190','PL19*190',#49,#61,'ID83b66aa9-9f2b-42db-bd2d-992ba0839c0f');
#63= IFCCARTESIANPOINT((94453.5411620254,23752.0143033452,13450.));
#64= IFCDIRECTION((-0.999999999999363,1.12900000749505E-06,0.));
#65= IFCDIRECTION((-1.12900000859709E-06,-0.999999999999363,0.));
#66= IFCAXIS2PLACEMENT3D(#63,#64,#65);
#67= IFCLOCALPLACEMENT(#42,#66);
#68= IFCDIRECTION((1.,0.));
#69= IFCAXIS2PLACEMENT2D(#50,#68);
#70= IFCCIRCLEPROFILEDEF(.AREA.,$,#69,11.);
#71= IFCCARTESIANPOINT((0.,-19.100000000002,0.));
#72= IFCAXIS2PLACEMENT3D(#71,#8,#7);
#73= IFCEXTRUDEDAREASOLID(#70,#72,#9,19.2);
#74= IFCSHAPEREPRESENTATION(#12,'Body','SweptSolid',(#73));
#75= IFCREPRESENTATIONMAP(#10,#74);
#76= IFCCARTESIANPOINT((0.,0.,-50.0000000000728));
#77= IFCCARTESIANTRANSFORMATIONOPERATOR3D($,$,#76,$,$);
#78= IFCMAPPEDITEM(#75,#77);
#79= IFCCARTESIANPOINT((70.0000000000873,0.,-50.0000000003201));
#80= IFCCARTESIANTRANSFORMATIONOPERATOR3D($,$,#79,$,$);
#81= IFCMAPPEDITEM(#75,#80);
#82= IFCCARTESIANPOINT((140.000000000178,0.,-50.0000000005821));
#83= IFCCARTESIANTRANSFORMATIONOPERATOR3D($,$,#82,$,$);
#84= IFCMAPPEDITEM(#75,#83);
#85= IFCCARTESIANPOINT((210.000000000269,0.,-50.0000000008295));
#86= IFCCARTESIANTRANSFORMATIONOPERATOR3D($,$,#85,$,$);
#87= IFCMAPPEDITEM(#75,#86);
#88= IFCCARTESIANPOINT((280.000000000357,0.,-50.0000000010914));
#89= IFCCARTESIANTRANSFORMATIONOPERATOR3D($,$,#88,$,$);
#90= IFCMAPPEDITEM(#75,#89);
#91= IFCCARTESIANPOINT((350.000000000447,0.,-50.0000000013388));
#92= IFCCARTESIANTRANSFORMATIONOPERATOR3D($,$,#91,$,$);
#93= IFCMAPPEDITEM(#75,#92);
#94= IFCCARTESIANPOINT((420.000000000535,0.,-50.0000000016007));
#95= IFCCARTESIANTRANSFORMATIONOPERATOR3D($,$,#94,$,$);
#96= IFCMAPPEDITEM(#75,#95);
#97= IFCCARTESIANPOINT((0.,0.,50.0000000000582));
#98= IFCCARTESIANTRANSFORMATIONOPERATOR3D($,$,#97,$,$);
#99= IFCMAPPEDITEM(#75,#98);
#100= IFCCARTESIANPOINT((70.0000000000873,0.,49.9999999998108));
#101= IFCCARTESIANTRANSFORMATIONOPERATOR3D($,$,#100,$,$);
#102= IFCMAPPEDITEM(#75,#101);
#103= IFCCARTESIANPOINT((140.000000000178,0.,49.9999999995489));
#104= IFCCARTESIANTRANSFORMATIONOPERATOR3D($,$,#103,$,$);
#105= IFCMAPPEDITEM(#75,#104);
#106= IFCCARTESIANPOINT((210.000000000269,0.,49.9999999993015));
#107= IFCCARTESIANTRANSFORMATIONOPERATOR3D($,$,#106,$,$);
#108= IFCMAPPEDITEM(#75,#107);
#109= IFCCARTESIANPOINT((280.000000000357,0.,49.9999999990396));
#110= IFCCARTESIANTRANSFORMATIONOPERATOR3D($,$,#109,$,$);
#111= IFCMAPPEDITEM(#75,#110);
#112= IFCCARTESIANPOINT((350.000000000447,0.,49.9999999987922));
#113= IFCCARTESIANTRANSFORMATIONOPERATOR3D($,$,#112,$,$);
#114= IFCMAPPEDITEM(#75,#113);
#115= IFCCARTESIANPOINT((420.000000000535,0.,49.9999999985303));
#116= IFCCARTESIANTRANSFORMATIONOPERATOR3D($,$,#115,$,$);
#117= IFCMAPPEDITEM(#75,#116);
#118= IFCSHAPEREPRESENTATION(#12,'Body','MappedRepresentation',(#78,#81,#84,#87,#90,#93,#96,#99,#102,#105,#108,#111,#114,#117));
#119= IFCPRODUCTDEFINITIONSHAPE($,$,(#118));
#120= IFCOPENINGELEMENT('2jq_ej_F12Jgi4Y8F3tVt4',#5,$,$,'Opening',#67,#119,$);
#121= IFCRELVOIDSELEMENT('2VpYNy9wv7rfS3P$MrUFFE',#5,'Drill Hole',$,#62,#120);
#122= IFCPROPERTYSINGLEVALUE('FeatureSubTypes',$,IFCLABEL('TORNILLO'),$);
#123= IFCPROPERTYSINGLEVALUE('RectangleOpeningWidth',$,$,$);
#124= IFCPROPERTYSINGLEVALUE('RectangleOpeningHeight',$,$,$);
#125= IFCPROPERTYSINGLEVALUE('OpeningDiameter',$,$,$);
#126= IFCPROPERTYSET('1$nfWsjUzF28aiXQtOdl6b',#5,'AISC_EM11_Pset_Opening/Cope',$,(#122,#123,#124,#125));
#127= IFCPROPERTYSINGLEVALUE('PieceMark',$,IFCIDENTIFIER('PLATE'),$);
#128= IFCPROPERTYSINGLEVALUE('IndicationMark',$,IFCIDENTIFIER('1193'),$);
#129= IFCPROPERTYSINGLEVALUE('PrelimMark',$,IFCIDENTIFIER(''),$);
#130= IFCPROPERTYSINGLEVALUE('MainPieceTag',$,IFCBOOLEAN(.F.),$);
#131= IFCPROPERTYSET('389vs6QL1AbehCY_JmoU_g',#5,'AISC_EM11_Pset_PieceIdentification','PieceIdentity',(#127,#128,#129,#130));
#132= IFCPROPERTYSINGLEVALUE('MaterialType',$,IFCIDENTIFIER('STEEL'),$);
#133= IFCPROPERTYSINGLEVALUE('MaterialGrade',$,IFCIDENTIFIER('S235JR'),$);
#134= IFCPROPERTYSET('186AuKHJj3nA9GVgqjZtwI',#5,'AISC_EM11_Pset_Material',$,(#132,#133));
#135= IFCMATERIAL('STEEL/S235JR');
#136= IFCRELAGGREGATES('1vV7FQJ_59kB0vhB5iJ$t4',#5,$,$,#37,(#39));
#137= IFCRELAGGREGATES('2BnPXibGNR0TIBzTN_bH9M',#5,$,$,#39,(#41));
#138= IFCRELAGGREGATES('3486Lrz4jCifK$Z2XS$mDM',#5,$,$,#41,(#43));
#139= IFCRELCONTAINEDINSPATIALSTRUCTURE('265QaibbDA1e$WXj$aB1A6',#5,$,$,(#62),#43);
#140= IFCRELDEFINESBYPROPERTIES('1Nk0XEQ6r3$ghZJqdKzMXr',#5,$,$,(#120),#126);
#141= IFCRELDEFINESBYPROPERTIES('1Qnr$a$K99XvW6K$Y_qVEA',#5,$,$,(#62),#131);
#142= IFCRELDEFINESBYPROPERTIES('26X0MPtSb2cvQg9ah7c0PA',#5,$,$,(#62),#134);
#143= IFCRELASSOCIATESMATERIAL('2wmgqEltnEffnl1GBVL5bi',#5,$,$,(#62),#135);
ENDSEC;

END-ISO-10303-21;
