ISO-10303-21;
HEADER;
FILE_DESCRIPTION(('ViewDefinition[AISC_Steel_Detailing]', 'Option [BaseQuantities:Off]', 'Option [GridExport:On]', 'Option [Assemblies:Off]', 'Option [Bolts:On]', 'Option [Rebars:On]', 'Option [PourObjects:Off]', 'Option [Welds:On]', 'Option [SurfaceTreatments:On]', 'Option [LocationBy:0]', 'Option [ViewColors:Off]', 'Option [SectionedSpine:Off]', 'Option [PropertySets:On]', 'Option [Export all:Off]'),'2;1');
FILE_NAME('1214_Qty_1.ifc','2026-05-16T11:52:55',('GIOVANNIPC\\gcorrea'),('Structural Designer'),'IFC Database version: Work','Tekla Structures 2020 Service Pack 5, IFC Export Version: 4.0.0.0 Dec  7 2020','');
FILE_SCHEMA(('IFC2X3'));
ENDSEC;

DATA;
#1= IFCPERSON('GIOVANNIPC\\gcorrea','Undefined',$,$,$,$,$,$);
#2= IFCORGANIZATION($,'Trimble Solutions Corporation',$,$,$);
#3= IFCPERSONANDORGANIZATION(#1,#2,$);
#4= IFCAPPLICATION(#2,'2020 Service Pack 5','Tekla Structures','Multi material modeling');
#5= IFCOWNERHISTORY(#3,#4,$,.NOCHANGE.,$,$,$,1778950375);
#6= IFCCARTESIANPOINT((0.,0.,0.));
#7= IFCDIRECTION((1.,0.,0.));
#8= IFCDIRECTION((0.,1.,0.));
#9= IFCDIRECTION((0.,0.,1.));
#10= IFCAXIS2PLACEMENT3D(#6,#9,#7);
#11= IFCGEOMETRICREPRESENTATIONCONTEXT($,'Model',3,1.E-05,#10,$);
#12= IFCGEOMETRICREPRESENTATIONSUBCONTEXT('Body','Model',*,*,*,*,#11,$,.MODEL_VIEW.,$);
#13= IFCGEOMETRICREPRESENTATIONSUBCONTEXT('Axis','Model',*,*,*,*,#11,$,.GRAPH_VIEW.,$);
#14= IFCGEOMETRICREPRESENTATIONSUBCONTEXT('FootPrint','Model',*,*,*,*,#11,$,.MODEL_VIEW.,$);
#15= IFCSIUNIT(*,.LENGTHUNIT.,.MILLI.,.METRE.);
#16= IFCMEASUREWITHUNIT(IFCRATIOMEASURE(304.8),#15);
#17= IFCDIMENSIONALEXPONENTS(1,0,0,0,0,0,0);
#18= IFCCONVERSIONBASEDUNIT(#17,.LENGTHUNIT.,'FOOT',#16);
#19= IFCSIUNIT(*,.AREAUNIT.,$,.SQUARE_METRE.);
#20= IFCMEASUREWITHUNIT(IFCRATIOMEASURE(0.09290304),#19);
#21= IFCDIMENSIONALEXPONENTS(2,0,0,0,0,0,0);
#22= IFCCONVERSIONBASEDUNIT(#21,.AREAUNIT.,'SQUARE FOOT',#20);
#23= IFCSIUNIT(*,.VOLUMEUNIT.,$,.CUBIC_METRE.);
#24= IFCMEASUREWITHUNIT(IFCRATIOMEASURE(0.028316846592),#23);
#25= IFCDIMENSIONALEXPONENTS(3,0,0,0,0,0,0);
#26= IFCCONVERSIONBASEDUNIT(#25,.VOLUMEUNIT.,'CUBIC FOOT',#24);
#27= IFCSIUNIT(*,.MASSUNIT.,.KILO.,.GRAM.);
#28= IFCSIUNIT(*,.TIMEUNIT.,$,.SECOND.);
#29= IFCSIUNIT(*,.PLANEANGLEUNIT.,$,.RADIAN.);
#30= IFCMEASUREWITHUNIT(IFCRATIOMEASURE(0.0174532925199433),#29);
#31= IFCDIMENSIONALEXPONENTS(0,0,0,0,0,0,0);
#32= IFCCONVERSIONBASEDUNIT(#31,.PLANEANGLEUNIT.,'DEGREE',#30);
#33= IFCSIUNIT(*,.SOLIDANGLEUNIT.,$,.STERADIAN.);
#34= IFCSIUNIT(*,.THERMODYNAMICTEMPERATUREUNIT.,$,.DEGREE_CELSIUS.);
#35= IFCSIUNIT(*,.LUMINOUSINTENSITYUNIT.,$,.LUMEN.);
#36= IFCUNITASSIGNMENT((#15,#19,#23,#27,#28,#29,#33,#34,#35));
#37= IFCPROJECT('2G7ZFDNE16yBDU14FA92Me',#5,'Proyecto',$,$,$,$,(#11),#36);
#38= IFCLOCALPLACEMENT($,#10);
#39= IFCSITE('2xvEzEinjBTea80yOTcujY',#5,'Obra',$,$,#38,$,$,.ELEMENT.,$,$,$,$,$);
#40= IFCLOCALPLACEMENT(#38,#10);
#41= IFCBUILDING('3C7Yzyc4b5awUu$c95bVuo',#5,'Undefined',$,$,#40,$,$,.ELEMENT.,$,$,$);
#42= IFCLOCALPLACEMENT(#40,#10);
#43= IFCBUILDINGSTOREY('29hdEUCErFze9E_VIAceOd',#5,'Undefined',$,$,#42,$,$,.ELEMENT.,0.);
#44= IFCOWNERHISTORY(#3,#4,$,.NOCHANGE.,$,$,$,1773774000);
#45= IFCCARTESIANPOINT((25050.6208395371,1509.08195758433,18900.5));
#46= IFCAXIS2PLACEMENT3D(#45,#9,#7);
#47= IFCLOCALPLACEMENT(#42,#46);
#48= IFCCARTESIANPOINT((0.,0.));
#49= IFCCARTESIANPOINT((1122.375,0.));
#50= IFCCARTESIANPOINT((1122.19519042969,189.999908447266));
#51= IFCCARTESIANPOINT((0.187896117568016,188.733596801758));
#52= IFCPOLYLINE((#48,#49,#50,#51,#48));
#53= IFCARBITRARYCLOSEDPROFILEDEF(.AREA.,'PL19*190',#52);
#54= IFCCARTESIANPOINT((0.,0.,-9.5));
#55= IFCAXIS2PLACEMENT3D(#54,#9,#7);
#56= IFCEXTRUDEDAREASOLID(#53,#55,#9,19.);
#57= IFCSHAPEREPRESENTATION(#12,'Body','SweptSolid',(#56));
#58= IFCPRODUCTDEFINITIONSHAPE($,$,(#57));
#59= IFCPLATE('1Cv0ZdMMj4ngpeIJ5nFCUz',#44,'PLATE','PL19*190','PL19*190',#47,#58,'ID4ce408e7-596b-44c6-ace8-4931713cc7bd');
#60= IFCCARTESIANPOINT((25300.6208395371,1603.28932952881,18910.));
#61= IFCDIRECTION((-0.00128331599942248,0.999999176549684,0.));
#62= IFCDIRECTION((-0.999999176549684,-0.00128331599942208,0.));
#63= IFCAXIS2PLACEMENT3D(#60,#61,#62);
#64= IFCLOCALPLACEMENT(#42,#63);
#65= IFCDIRECTION((1.,0.));
#66= IFCAXIS2PLACEMENT2D(#48,#65);
#67= IFCCIRCLEPROFILEDEF(.AREA.,$,#66,11.5);
#68= IFCCARTESIANPOINT((0.,-19.1,0.));
#69= IFCAXIS2PLACEMENT3D(#68,#8,#7);
#70= IFCEXTRUDEDAREASOLID(#67,#69,#9,19.2);
#71= IFCSHAPEREPRESENTATION(#12,'Body','SweptSolid',(#70));
#72= IFCREPRESENTATIONMAP(#10,#71);
#73= IFCCARTESIANPOINT((-2.18278728425503E-11,0.,-49.9999999999952));
#74= IFCCARTESIANTRANSFORMATIONOPERATOR3D($,$,#73,$,$);
#75= IFCMAPPEDITEM(#72,#74);
#76= IFCCARTESIANPOINT((70.000000000131,0.,-49.9999999999316));
#77= IFCCARTESIANTRANSFORMATIONOPERATOR3D($,$,#76,$,$);
#78= IFCMAPPEDITEM(#72,#77);
#79= IFCCARTESIANPOINT((140.000000000284,0.,-49.9999999998677));
#80= IFCCARTESIANTRANSFORMATIONOPERATOR3D($,$,#79,$,$);
#81= IFCMAPPEDITEM(#72,#80);
#82= IFCCARTESIANPOINT((210.000000000433,0.,-49.999999999804));
#83= IFCCARTESIANTRANSFORMATIONOPERATOR3D($,$,#82,$,$);
#84= IFCMAPPEDITEM(#72,#83);
#85= IFCCARTESIANPOINT((2.18278728425503E-11,0.,49.9999999999952));
#86= IFCCARTESIANTRANSFORMATIONOPERATOR3D($,$,#85,$,$);
#87= IFCMAPPEDITEM(#72,#86);
#88= IFCCARTESIANPOINT((70.0000000001746,0.,50.0000000000591));
#89= IFCCARTESIANTRANSFORMATIONOPERATOR3D($,$,#88,$,$);
#90= IFCMAPPEDITEM(#72,#89);
#91= IFCCARTESIANPOINT((140.000000000327,0.,50.0000000001228));
#92= IFCCARTESIANTRANSFORMATIONOPERATOR3D($,$,#91,$,$);
#93= IFCMAPPEDITEM(#72,#92);
#94= IFCCARTESIANPOINT((210.00000000048,0.,50.0000000001867));
#95= IFCCARTESIANTRANSFORMATIONOPERATOR3D($,$,#94,$,$);
#96= IFCMAPPEDITEM(#72,#95);
#97= IFCSHAPEREPRESENTATION(#12,'Body','MappedRepresentation',(#75,#78,#81,#84,#87,#90,#93,#96));
#98= IFCPRODUCTDEFINITIONSHAPE($,$,(#97));
#99= IFCOPENINGELEMENT('166S_EX7fA9u_TIwiaXfdO',#5,$,$,'Opening',#64,#98,$);
#100= IFCRELVOIDSELEMENT('2NiYXHiiXAwBghdkjjBC19',#5,'Drill Hole',$,#59,#99);
#101= IFCPROPERTYSINGLEVALUE('FeatureSubTypes',$,IFCLABEL('TORNILLO'),$);
#102= IFCPROPERTYSINGLEVALUE('RectangleOpeningWidth',$,$,$);
#103= IFCPROPERTYSINGLEVALUE('RectangleOpeningHeight',$,$,$);
#104= IFCPROPERTYSINGLEVALUE('OpeningDiameter',$,$,$);
#105= IFCPROPERTYSET('0nvGngy7H0SP66szdEfUcW',#5,'AISC_EM11_Pset_Opening/Cope',$,(#101,#102,#103,#104));
#106= IFCCARTESIANPOINT((25712.8086144464,1602.3162756695,18910.));
#107= IFCDIRECTION((0.00127341800025897,-0.99999918920297,0.));
#108= IFCDIRECTION((0.99999918920297,0.00127341800025865,0.));
#109= IFCAXIS2PLACEMENT3D(#106,#107,#108);
#110= IFCLOCALPLACEMENT(#42,#109);
#111= IFCCARTESIANPOINT((280.000000000284,0.,50.0000000008924));
#112= IFCCARTESIANTRANSFORMATIONOPERATOR3D($,$,#111,$,$);
#113= IFCMAPPEDITEM(#72,#112);
#114= IFCCARTESIANPOINT((350.000000000382,0.,50.0000000011155));
#115= IFCCARTESIANTRANSFORMATIONOPERATOR3D($,$,#114,$,$);
#116= IFCMAPPEDITEM(#72,#115);
#117= IFCCARTESIANPOINT((420.00000000048,0.,50.0000000013383));
#118= IFCCARTESIANTRANSFORMATIONOPERATOR3D($,$,#117,$,$);
#119= IFCMAPPEDITEM(#72,#118);
#120= IFCCARTESIANPOINT((280.000000000491,0.,-49.9999999991098));
#121= IFCCARTESIANTRANSFORMATIONOPERATOR3D($,$,#120,$,$);
#122= IFCMAPPEDITEM(#72,#121);
#123= IFCCARTESIANPOINT((350.000000000589,0.,-49.9999999988868));
#124= IFCCARTESIANTRANSFORMATIONOPERATOR3D($,$,#123,$,$);
#125= IFCMAPPEDITEM(#72,#124);
#126= IFCCARTESIANPOINT((420.000000000684,0.,-49.999999998664));
#127= IFCCARTESIANTRANSFORMATIONOPERATOR3D($,$,#126,$,$);
#128= IFCMAPPEDITEM(#72,#127);
#129= IFCSHAPEREPRESENTATION(#12,'Body','MappedRepresentation',(#87,#90,#93,#96,#113,#116,#119,#75,#78,#81,#84,#122,#125,#128));
#130= IFCPRODUCTDEFINITIONSHAPE($,$,(#129));
#131= IFCOPENINGELEMENT('0Tz9lLMKn7_PorhIhR5oFe',#5,$,$,'Opening',#110,#130,$);
#132= IFCRELVOIDSELEMENT('0Hjh5W_s9ASxyqcf7sR2OF',#5,'Drill Hole',$,#59,#131);
#133= IFCPROPERTYSINGLEVALUE('PieceMark',$,IFCIDENTIFIER('PLATE'),$);
#134= IFCPROPERTYSINGLEVALUE('IndicationMark',$,IFCIDENTIFIER('1214'),$);
#135= IFCPROPERTYSINGLEVALUE('PrelimMark',$,IFCIDENTIFIER(''),$);
#136= IFCPROPERTYSINGLEVALUE('MainPieceTag',$,IFCBOOLEAN(.F.),$);
#137= IFCPROPERTYSET('2Ta6qeP1nCMuAgnWxYiX_P',#5,'AISC_EM11_Pset_PieceIdentification','PieceIdentity',(#133,#134,#135,#136));
#138= IFCPROPERTYSINGLEVALUE('MaterialType',$,IFCIDENTIFIER('STEEL'),$);
#139= IFCPROPERTYSINGLEVALUE('MaterialGrade',$,IFCIDENTIFIER('S235JR'),$);
#140= IFCPROPERTYSET('0mXVM$LfD3zRL4SVeKpZRv',#5,'AISC_EM11_Pset_Material',$,(#138,#139));
#141= IFCMATERIAL('STEEL/S235JR');
#142= IFCRELAGGREGATES('2EhPGSnRTDm89qXpsPH1uQ',#5,$,$,#37,(#39));
#143= IFCRELAGGREGATES('2WzhYk3jlV2QR6p58hZJAi',#5,$,$,#39,(#41));
#144= IFCRELAGGREGATES('1EJlR9ADb4HQUc7Bqa94Mc',#5,$,$,#41,(#43));
#145= IFCRELCONTAINEDINSPATIALSTRUCTURE('2Vpz39sqP0YunyEGUyKi2P',#5,$,$,(#59),#43);
#146= IFCRELDEFINESBYPROPERTIES('3m76holH90J8IuOVnS9ibI',#5,$,$,(#131,#99),#105);
#147= IFCRELDEFINESBYPROPERTIES('3KJAC9YHv99urFYqohmfo9',#5,$,$,(#59),#137);
#148= IFCRELDEFINESBYPROPERTIES('2CV1O3rT14Z8LklZ4JGYyd',#5,$,$,(#59),#140);
#149= IFCRELASSOCIATESMATERIAL('2Qeu8Zl$19vwTyfV$7iUq9',#5,$,$,(#59),#141);
ENDSEC;

END-ISO-10303-21;
