ISO-10303-21;
HEADER;
FILE_DESCRIPTION(('ViewDefinition[AISC_Steel_Detailing]', 'Option [BaseQuantities:Off]', 'Option [GridExport:On]', 'Option [Assemblies:Off]', 'Option [Bolts:On]', 'Option [Rebars:On]', 'Option [PourObjects:Off]', 'Option [Welds:On]', 'Option [SurfaceTreatments:On]', 'Option [LocationBy:0]', 'Option [ViewColors:Off]', 'Option [SectionedSpine:Off]', 'Option [PropertySets:On]', 'Option [Export all:Off]'),'2;1');
FILE_NAME('1224_Qty_2.ifc','2026-05-16T11:52:56',('GIOVANNIPC\\gcorrea'),('Structural Designer'),'IFC Database version: Work','Tekla Structures 2020 Service Pack 5, IFC Export Version: 4.0.0.0 Dec  7 2020','');
FILE_SCHEMA(('IFC2X3'));
ENDSEC;

DATA;
#1= IFCPERSON('GIOVANNIPC\\gcorrea','Undefined',$,$,$,$,$,$);
#2= IFCORGANIZATION($,'Trimble Solutions Corporation',$,$,$);
#3= IFCPERSONANDORGANIZATION(#1,#2,$);
#4= IFCAPPLICATION(#2,'2020 Service Pack 5','Tekla Structures','Multi material modeling');
#5= IFCOWNERHISTORY(#3,#4,$,.NOCHANGE.,$,$,$,1778950376);
#6= IFCCARTESIANPOINT((0.,0.,0.));
#7= IFCDIRECTION((1.,0.,0.));
#8= IFCDIRECTION((0.,1.,0.));
#9= IFCDIRECTION((0.,0.,1.));
#10= IFCAXIS2PLACEMENT3D(#6,#9,#7);
#11= IFCGEOMETRICREPRESENTATIONCONTEXT($,'Model',3,1.E-05,#10,$);
#12= IFCGEOMETRICREPRESENTATIONSUBCONTEXT('Body','Model',*,*,*,*,#11,$,.MODEL_VIEW.,$);
#13= IFCGEOMETRICREPRESENTATIONSUBCONTEXT('Axis','Model',*,*,*,*,#11,$,.GRAPH_VIEW.,$);
#14= IFCGEOMETRICREPRESENTATIONSUBCONTEXT('FootPrint','Model',*,*,*,*,#11,$,.MODEL_VIEW.,$);
#15= IFCSIUNIT(*,.LENGTHUNIT.,.MILLI.,.METRE.);
#16= IFCMEASUREWITHUNIT(IFCRATIOMEASURE(304.8),#15);
#17= IFCDIMENSIONALEXPONENTS(1,0,0,0,0,0,0);
#18= IFCCONVERSIONBASEDUNIT(#17,.LENGTHUNIT.,'FOOT',#16);
#19= IFCSIUNIT(*,.AREAUNIT.,$,.SQUARE_METRE.);
#20= IFCMEASUREWITHUNIT(IFCRATIOMEASURE(0.09290304),#19);
#21= IFCDIMENSIONALEXPONENTS(2,0,0,0,0,0,0);
#22= IFCCONVERSIONBASEDUNIT(#21,.AREAUNIT.,'SQUARE FOOT',#20);
#23= IFCSIUNIT(*,.VOLUMEUNIT.,$,.CUBIC_METRE.);
#24= IFCMEASUREWITHUNIT(IFCRATIOMEASURE(0.028316846592),#23);
#25= IFCDIMENSIONALEXPONENTS(3,0,0,0,0,0,0);
#26= IFCCONVERSIONBASEDUNIT(#25,.VOLUMEUNIT.,'CUBIC FOOT',#24);
#27= IFCSIUNIT(*,.MASSUNIT.,.KILO.,.GRAM.);
#28= IFCSIUNIT(*,.TIMEUNIT.,$,.SECOND.);
#29= IFCSIUNIT(*,.PLANEANGLEUNIT.,$,.RADIAN.);
#30= IFCMEASUREWITHUNIT(IFCRATIOMEASURE(0.0174532925199433),#29);
#31= IFCDIMENSIONALEXPONENTS(0,0,0,0,0,0,0);
#32= IFCCONVERSIONBASEDUNIT(#31,.PLANEANGLEUNIT.,'DEGREE',#30);
#33= IFCSIUNIT(*,.SOLIDANGLEUNIT.,$,.STERADIAN.);
#34= IFCSIUNIT(*,.THERMODYNAMICTEMPERATUREUNIT.,$,.DEGREE_CELSIUS.);
#35= IFCSIUNIT(*,.LUMINOUSINTENSITYUNIT.,$,.LUMEN.);
#36= IFCUNITASSIGNMENT((#15,#19,#23,#27,#28,#29,#33,#34,#35));
#37= IFCPROJECT('2G7ZFDNE16yBDU14FA92Me',#5,'Proyecto',$,$,$,$,(#11),#36);
#38= IFCLOCALPLACEMENT($,#10);
#39= IFCSITE('2xvEzEinjBTea80yOTcujY',#5,'Obra',$,$,#38,$,$,.ELEMENT.,$,$,$,$,$);
#40= IFCLOCALPLACEMENT(#38,#10);
#41= IFCBUILDING('0QRfoeQGv1Cue8CeIAK0Cz',#5,'Undefined',$,$,#40,$,$,.ELEMENT.,$,$,$);
#42= IFCLOCALPLACEMENT(#40,#10);
#43= IFCBUILDINGSTOREY('29hdEUCErFze9E_VIAceOd',#5,'Undefined',$,$,#42,$,$,.ELEMENT.,0.);
#44= IFCOWNERHISTORY(#3,#4,$,.NOCHANGE.,$,$,$,1775066400);
#45= IFCCARTESIANPOINT((58605.1196740912,1728.38116522339,19359.5));
#46= IFCDIRECTION((-0.000959589999608649,-0.99999953959341,0.));
#47= IFCAXIS2PLACEMENT3D(#45,#9,#46);
#48= IFCLOCALPLACEMENT(#42,#47);
#49= IFCCARTESIANPOINT((0.,0.));
#50= IFCCARTESIANPOINT((249.999999999953,5.60248736292124E-10));
#51= IFCCARTESIANPOINT((273.629699706981,760.142944334351));
#52= IFCCARTESIANPOINT((274.155639648387,796.295288084242));
#53= IFCCARTESIANPOINT((273.963684081981,996.295166013348));
#54= IFCCARTESIANPOINT((274.011566162059,1030.14343261481));
#55= IFCCARTESIANPOINT((248.282119750932,1790.23901366723));
#56= IFCCARTESIANPOINT((-1.71742391586054,1789.75927733854));
#57= IFCCARTESIANPOINT((-25.9883041381775,1029.85559081726));
#58= IFCCARTESIANPOINT((-25.7292213439885,759.855712888355));
#59= IFCPOLYLINE((#49,#50,#51,#52,#53,#54,#55,#56,#57,#58,#49));
#60= IFCARBITRARYCLOSEDPROFILEDEF(.AREA.,'PL19*308',#59);
#61= IFCCARTESIANPOINT((0.,0.,-9.50000000000364));
#62= IFCAXIS2PLACEMENT3D(#61,#9,#7);
#63= IFCEXTRUDEDAREASOLID(#60,#62,#9,19.);
#64= IFCSHAPEREPRESENTATION(#12,'Body','SweptSolid',(#63));
#65= IFCPRODUCTDEFINITIONSHAPE($,$,(#64));
#66= IFCPLATE('3O1Qs3KxvBuurjwHqvNTaG',#44,'PLATE','PL19*308','PL19*308',#48,#65,'IDd805ad83-53be-4be3-8d6d-e91d395dd910');
#67= IFCLOCALPLACEMENT(#42,#47);
#68= IFCDIRECTION((1.,0.));
#69= IFCAXIS2PLACEMENT2D(#49,#68);
#70= IFCRECTANGLEPROFILEDEF(.AREA.,'[]255*1',#69,255.,255.);
#71= IFCDIRECTION((0.000959589999608649,-0.99999953959341,0.));
#72= IFCDIRECTION((0.,0.,-1.));
#73= IFCCARTESIANPOINT((124.141030624289,894.999587805847,4240.5));
#74= IFCAXIS2PLACEMENT3D(#73,#72,#71);
#75= IFCEXTRUDEDAREASOLID(#70,#74,#9,9681.);
#76= IFCCARTESIANPOINT((124.021081874338,1019.99953025507,-5440.5));
#77= IFCDIRECTION((0.99999953959341,0.000959589999612945,0.));
#78= IFCAXIS2PLACEMENT3D(#76,#9,#77);
#79= IFCPLANE(#78);
#80= IFCHALFSPACESOLID(#79,.T.);
#81= IFCBOOLEANCLIPPINGRESULT(.DIFFERENCE.,#75,#80);
#82= IFCSHAPEREPRESENTATION(#12,'Body','Clipping',(#81));
#83= IFCPRODUCTDEFINITIONSHAPE($,$,(#82));
#84= IFCOPENINGELEMENT('0vju1IchHAxQFhNY0HTOVX',#5,$,$,'Recess',#67,#83,$);
#85= IFCRELVOIDSELEMENT('06plxzo2r91g_1VOG63Zd$',#5,$,$,#66,#84);
#86= IFCPROPERTYSINGLEVALUE('FeatureSubTypes',$,$,$);
#87= IFCPROPERTYSINGLEVALUE('RectangleOpeningWidth',$,$,$);
#88= IFCPROPERTYSINGLEVALUE('RectangleOpeningHeight',$,IFCPOSITIVELENGTHMEASURE(255.),$);
#89= IFCPROPERTYSINGLEVALUE('OpeningDiameter',$,$,$);
#90= IFCPROPERTYSET('0XyEBr2tn4GwF$CAhYirSR',#5,'AISC_EM11_Pset_Opening/Cope',$,(#86,#87,#88,#89));
#91= IFCCARTESIANPOINT((59324.9997253418,1603.38122277425,19350.));
#92= IFCDIRECTION((0.,-1.,0.));
#93= IFCDIRECTION((-1.,0.,0.));
#94= IFCAXIS2PLACEMENT3D(#91,#92,#93);
#95= IFCLOCALPLACEMENT(#42,#94);
#96= IFCCIRCLEPROFILEDEF(.AREA.,$,#69,12.5);
#97= IFCCARTESIANPOINT((0.,-19.0999999999996,0.));
#98= IFCAXIS2PLACEMENT3D(#97,#8,#7);
#99= IFCEXTRUDEDAREASOLID(#96,#98,#9,19.2);
#100= IFCSHAPEREPRESENTATION(#12,'Body','SweptSolid',(#99));
#101= IFCREPRESENTATIONMAP(#10,#100);
#102= IFCCARTESIANPOINT((0.,0.,-75.));
#103= IFCCARTESIANTRANSFORMATIONOPERATOR3D($,$,#102,$,$);
#104= IFCMAPPEDITEM(#101,#103);
#105= IFCCARTESIANPOINT((75.,0.,-75.));
#106= IFCCARTESIANTRANSFORMATIONOPERATOR3D($,$,#105,$,$);
#107= IFCMAPPEDITEM(#101,#106);
#108= IFCCARTESIANPOINT((150.,0.,-75.));
#109= IFCCARTESIANTRANSFORMATIONOPERATOR3D($,$,#108,$,$);
#110= IFCMAPPEDITEM(#101,#109);
#111= IFCCARTESIANPOINT((225.,0.,-75.));
#112= IFCCARTESIANTRANSFORMATIONOPERATOR3D($,$,#111,$,$);
#113= IFCMAPPEDITEM(#101,#112);
#114= IFCCARTESIANPOINT((300.,0.,-75.));
#115= IFCCARTESIANTRANSFORMATIONOPERATOR3D($,$,#114,$,$);
#116= IFCMAPPEDITEM(#101,#115);
#117= IFCCARTESIANPOINT((375.,0.,-75.));
#118= IFCCARTESIANTRANSFORMATIONOPERATOR3D($,$,#117,$,$);
#119= IFCMAPPEDITEM(#101,#118);
#120= IFCCARTESIANPOINT((450.,0.,-75.));
#121= IFCCARTESIANTRANSFORMATIONOPERATOR3D($,$,#120,$,$);
#122= IFCMAPPEDITEM(#101,#121);
#123= IFCCARTESIANPOINT((525.,0.,-75.));
#124= IFCCARTESIANTRANSFORMATIONOPERATOR3D($,$,#123,$,$);
#125= IFCMAPPEDITEM(#101,#124);
#126= IFCCARTESIANPOINT((600.,0.,-75.));
#127= IFCCARTESIANTRANSFORMATIONOPERATOR3D($,$,#126,$,$);
#128= IFCMAPPEDITEM(#101,#127);
#129= IFCCARTESIANPOINT((675.,0.,-75.));
#130= IFCCARTESIANTRANSFORMATIONOPERATOR3D($,$,#129,$,$);
#131= IFCMAPPEDITEM(#101,#130);
#132= IFCCARTESIANPOINT((0.,0.,75.));
#133= IFCCARTESIANTRANSFORMATIONOPERATOR3D($,$,#132,$,$);
#134= IFCMAPPEDITEM(#101,#133);
#135= IFCCARTESIANPOINT((75.,0.,75.));
#136= IFCCARTESIANTRANSFORMATIONOPERATOR3D($,$,#135,$,$);
#137= IFCMAPPEDITEM(#101,#136);
#138= IFCCARTESIANPOINT((150.,0.,75.));
#139= IFCCARTESIANTRANSFORMATIONOPERATOR3D($,$,#138,$,$);
#140= IFCMAPPEDITEM(#101,#139);
#141= IFCCARTESIANPOINT((225.,0.,75.));
#142= IFCCARTESIANTRANSFORMATIONOPERATOR3D($,$,#141,$,$);
#143= IFCMAPPEDITEM(#101,#142);
#144= IFCCARTESIANPOINT((300.,0.,75.));
#145= IFCCARTESIANTRANSFORMATIONOPERATOR3D($,$,#144,$,$);
#146= IFCMAPPEDITEM(#101,#145);
#147= IFCCARTESIANPOINT((375.,0.,75.));
#148= IFCCARTESIANTRANSFORMATIONOPERATOR3D($,$,#147,$,$);
#149= IFCMAPPEDITEM(#101,#148);
#150= IFCCARTESIANPOINT((450.,0.,75.));
#151= IFCCARTESIANTRANSFORMATIONOPERATOR3D($,$,#150,$,$);
#152= IFCMAPPEDITEM(#101,#151);
#153= IFCCARTESIANPOINT((525.,0.,75.));
#154= IFCCARTESIANTRANSFORMATIONOPERATOR3D($,$,#153,$,$);
#155= IFCMAPPEDITEM(#101,#154);
#156= IFCCARTESIANPOINT((600.,0.,75.));
#157= IFCCARTESIANTRANSFORMATIONOPERATOR3D($,$,#156,$,$);
#158= IFCMAPPEDITEM(#101,#157);
#159= IFCCARTESIANPOINT((675.,0.,75.));
#160= IFCCARTESIANTRANSFORMATIONOPERATOR3D($,$,#159,$,$);
#161= IFCMAPPEDITEM(#101,#160);
#162= IFCSHAPEREPRESENTATION(#12,'Body','MappedRepresentation',(#104,#107,#110,#113,#116,#119,#122,#125,#128,#131,#134,#137,#140,#143,#146,#149,#152,#155,#158,#161));
#163= IFCPRODUCTDEFINITIONSHAPE($,$,(#162));
#164= IFCOPENINGELEMENT('3ramYu0Z1A7O2H4am7Ssth',#5,$,$,'Opening',#95,#163,$);
#165= IFCRELVOIDSELEMENT('0NQwxd07f9agWjUAAN1NlN',#5,'Drill Hole',$,#66,#164);
#166= IFCPROPERTYSINGLEVALUE('FeatureSubTypes',$,IFCLABEL('TORNILLO'),$);
#167= IFCPROPERTYSINGLEVALUE('RectangleOpeningHeight',$,$,$);
#168= IFCPROPERTYSET('21hscrd9b6jPcJxFt$PIxe',#5,'AISC_EM11_Pset_Opening/Cope',$,(#166,#87,#167,#89));
#169= IFCCARTESIANPOINT((59679.9997253418,1603.38122277425,19350.));
#170= IFCAXIS2PLACEMENT3D(#169,#8,#7);
#171= IFCLOCALPLACEMENT(#42,#170);
#172= IFCSHAPEREPRESENTATION(#12,'Body','MappedRepresentation',(#104,#107,#110,#113,#116,#119,#122,#125,#128,#131,#134,#137,#140,#143,#146,#149,#152,#155,#158,#161));
#173= IFCPRODUCTDEFINITIONSHAPE($,$,(#172));
#174= IFCOPENINGELEMENT('2ngRxI_Lv2uf6ZBN4MwQR1',#5,$,$,'Opening',#171,#173,$);
#175= IFCRELVOIDSELEMENT('3GwNVlbMPD_BjF6HwJ4HD5',#5,'Drill Hole',$,#66,#174);
#176= IFCPROPERTYSINGLEVALUE('PieceMark',$,IFCIDENTIFIER('PLATE'),$);
#177= IFCPROPERTYSINGLEVALUE('IndicationMark',$,IFCIDENTIFIER('1224'),$);
#178= IFCPROPERTYSINGLEVALUE('PrelimMark',$,IFCIDENTIFIER(''),$);
#179= IFCPROPERTYSINGLEVALUE('MainPieceTag',$,IFCBOOLEAN(.F.),$);
#180= IFCPROPERTYSET('2NwA2_$J52zgWI9PcsStN8',#5,'AISC_EM11_Pset_PieceIdentification','PieceIdentity',(#176,#177,#178,#179));
#181= IFCPROPERTYSINGLEVALUE('MaterialType',$,IFCIDENTIFIER('STEEL'),$);
#182= IFCPROPERTYSINGLEVALUE('MaterialGrade',$,IFCIDENTIFIER('S235JR'),$);
#183= IFCPROPERTYSET('2X4OUI91bDYuPtfushM117',#5,'AISC_EM11_Pset_Material',$,(#181,#182));
#184= IFCMATERIAL('STEEL/S235JR');
#185= IFCRELAGGREGATES('1LZNslr6f96eKwOegE0y0b',#5,$,$,#37,(#39));
#186= IFCRELAGGREGATES('2drf817OxROwcCgwyWIEIt',#5,$,$,#39,(#41));
#187= IFCRELAGGREGATES('2RAc5Saur2FgyfkNkEB$pL',#5,$,$,#41,(#43));
#188= IFCRELCONTAINEDINSPATIALSTRUCTURE('1mYHEM0YvEAv0ZyTnWFY8w',#5,$,$,(#66),#43);
#189= IFCRELDEFINESBYPROPERTIES('30x5vodDb9euAHBWqXljHr',#5,$,$,(#84),#90);
#190= IFCRELDEFINESBYPROPERTIES('2MdHsl8EvARBxAXCPuCHyN',#5,$,$,(#174,#164),#168);
#191= IFCRELDEFINESBYPROPERTIES('2UAJVs7lvDi9rNLnQ6Mow7',#5,$,$,(#66),#180);
#192= IFCRELDEFINESBYPROPERTIES('2XeVPqEWf2av5S9BVNzbH3',#5,$,$,(#66),#183);
#193= IFCRELASSOCIATESMATERIAL('2l_eBZOGD6Sv2$IPCIueFI',#5,$,$,(#66),#184);
ENDSEC;

END-ISO-10303-21;
