ISO-10303-21;
HEADER;
FILE_DESCRIPTION(('ViewDefinition[AISC_Steel_Detailing]', 'Option [BaseQuantities:Off]', 'Option [GridExport:On]', 'Option [Assemblies:Off]', 'Option [Bolts:On]', 'Option [Rebars:On]', 'Option [PourObjects:Off]', 'Option [Welds:On]', 'Option [SurfaceTreatments:On]', 'Option [LocationBy:0]', 'Option [ViewColors:Off]', 'Option [SectionedSpine:Off]', 'Option [PropertySets:On]', 'Option [Export all:Off]'),'2;1');
FILE_NAME('1279_Qty_2.ifc','2026-05-16T11:52:53',('GIOVANNIPC\\gcorrea'),('Structural Designer'),'IFC Database version: Work','Tekla Structures 2020 Service Pack 5, IFC Export Version: 4.0.0.0 Dec  7 2020','');
FILE_SCHEMA(('IFC2X3'));
ENDSEC;

DATA;
#1= IFCPERSON('GIOVANNIPC\\gcorrea','Undefined',$,$,$,$,$,$);
#2= IFCORGANIZATION($,'Trimble Solutions Corporation',$,$,$);
#3= IFCPERSONANDORGANIZATION(#1,#2,$);
#4= IFCAPPLICATION(#2,'2020 Service Pack 5','Tekla Structures','Multi material modeling');
#5= IFCOWNERHISTORY(#3,#4,$,.NOCHANGE.,$,$,$,1778950373);
#6= IFCCARTESIANPOINT((0.,0.,0.));
#7= IFCDIRECTION((1.,0.,0.));
#8= IFCDIRECTION((0.,1.,0.));
#9= IFCDIRECTION((0.,0.,1.));
#10= IFCAXIS2PLACEMENT3D(#6,#9,#7);
#11= IFCGEOMETRICREPRESENTATIONCONTEXT($,'Model',3,1.E-05,#10,$);
#12= IFCGEOMETRICREPRESENTATIONSUBCONTEXT('Body','Model',*,*,*,*,#11,$,.MODEL_VIEW.,$);
#13= IFCGEOMETRICREPRESENTATIONSUBCONTEXT('Axis','Model',*,*,*,*,#11,$,.GRAPH_VIEW.,$);
#14= IFCGEOMETRICREPRESENTATIONSUBCONTEXT('FootPrint','Model',*,*,*,*,#11,$,.MODEL_VIEW.,$);
#15= IFCSIUNIT(*,.LENGTHUNIT.,.MILLI.,.METRE.);
#16= IFCMEASUREWITHUNIT(IFCRATIOMEASURE(304.8),#15);
#17= IFCDIMENSIONALEXPONENTS(1,0,0,0,0,0,0);
#18= IFCCONVERSIONBASEDUNIT(#17,.LENGTHUNIT.,'FOOT',#16);
#19= IFCSIUNIT(*,.AREAUNIT.,$,.SQUARE_METRE.);
#20= IFCMEASUREWITHUNIT(IFCRATIOMEASURE(0.09290304),#19);
#21= IFCDIMENSIONALEXPONENTS(2,0,0,0,0,0,0);
#22= IFCCONVERSIONBASEDUNIT(#21,.AREAUNIT.,'SQUARE FOOT',#20);
#23= IFCSIUNIT(*,.VOLUMEUNIT.,$,.CUBIC_METRE.);
#24= IFCMEASUREWITHUNIT(IFCRATIOMEASURE(0.028316846592),#23);
#25= IFCDIMENSIONALEXPONENTS(3,0,0,0,0,0,0);
#26= IFCCONVERSIONBASEDUNIT(#25,.VOLUMEUNIT.,'CUBIC FOOT',#24);
#27= IFCSIUNIT(*,.MASSUNIT.,.KILO.,.GRAM.);
#28= IFCSIUNIT(*,.TIMEUNIT.,$,.SECOND.);
#29= IFCSIUNIT(*,.PLANEANGLEUNIT.,$,.RADIAN.);
#30= IFCMEASUREWITHUNIT(IFCRATIOMEASURE(0.0174532925199433),#29);
#31= IFCDIMENSIONALEXPONENTS(0,0,0,0,0,0,0);
#32= IFCCONVERSIONBASEDUNIT(#31,.PLANEANGLEUNIT.,'DEGREE',#30);
#33= IFCSIUNIT(*,.SOLIDANGLEUNIT.,$,.STERADIAN.);
#34= IFCSIUNIT(*,.THERMODYNAMICTEMPERATUREUNIT.,$,.DEGREE_CELSIUS.);
#35= IFCSIUNIT(*,.LUMINOUSINTENSITYUNIT.,$,.LUMEN.);
#36= IFCUNITASSIGNMENT((#15,#19,#23,#27,#28,#29,#33,#34,#35));
#37= IFCPROJECT('2G7ZFDNE16yBDU14FA92Me',#5,'Proyecto',$,$,$,$,(#11),#36);
#38= IFCLOCALPLACEMENT($,#10);
#39= IFCSITE('2xvEzEinjBTea80yOTcujY',#5,'Obra',$,$,#38,$,$,.ELEMENT.,$,$,$,$,$);
#40= IFCLOCALPLACEMENT(#38,#10);
#41= IFCBUILDING('3Ej846h8bAZhV1csQgPNgh',#5,'Undefined',$,$,#40,$,$,.ELEMENT.,$,$,$);
#42= IFCLOCALPLACEMENT(#40,#10);
#43= IFCBUILDINGSTOREY('29hdEUCErFze9E_VIAceOd',#5,'Undefined',$,$,#42,$,$,.ELEMENT.,0.);
#44= IFCOWNERHISTORY(#3,#4,$,.NOCHANGE.,$,$,$,1773842400);
#45= IFCCARTESIANPOINT((41899.9993021861,1507.88193993734,23609.5));
#46= IFCAXIS2PLACEMENT3D(#45,#9,#7);
#47= IFCLOCALPLACEMENT(#42,#46);
#48= IFCCARTESIANPOINT((0.,0.));
#49= IFCCARTESIANPOINT((1207.88525390625,0.));
#50= IFCCARTESIANPOINT((1207.70080566406,192.264877319336));
#51= IFCCARTESIANPOINT((0.183280393481255,190.998565673828));
#52= IFCPOLYLINE((#48,#49,#50,#51,#48));
#53= IFCARBITRARYCLOSEDPROFILEDEF(.AREA.,'PL19*192',#52);
#54= IFCCARTESIANPOINT((0.,0.,-9.5));
#55= IFCAXIS2PLACEMENT3D(#54,#9,#7);
#56= IFCEXTRUDEDAREASOLID(#53,#55,#9,19.);
#57= IFCSHAPEREPRESENTATION(#12,'Body','SweptSolid',(#56));
#58= IFCPRODUCTDEFINITIONSHAPE($,$,(#57));
#59= IFCPLATE('3h5XVgmizA8gDG_8CBi3RN',#44,'PLATE','PL19*192','PL19*192',#47,#58,'IDeb1617ea-c2cf-4a22-a350-f8830bb036d7');
#60= IFCCARTESIANPOINT((42647.7637441421,1603.38122277425,23600.));
#61= IFCDIRECTION((-0.00127341800025897,0.99999918920297,0.));
#62= IFCDIRECTION((0.99999918920297,0.00127341800025866,0.));
#63= IFCAXIS2PLACEMENT3D(#60,#61,#62);
#64= IFCLOCALPLACEMENT(#42,#63);
#65= IFCDIRECTION((1.,0.));
#66= IFCAXIS2PLACEMENT2D(#48,#65);
#67= IFCCIRCLEPROFILEDEF(.AREA.,$,#66,11.5);
#68= IFCCARTESIANPOINT((0.,-19.1,0.));
#69= IFCAXIS2PLACEMENT3D(#68,#8,#7);
#70= IFCEXTRUDEDAREASOLID(#67,#69,#9,19.2);
#71= IFCSHAPEREPRESENTATION(#12,'Body','SweptSolid',(#70));
#72= IFCREPRESENTATIONMAP(#10,#71);
#73= IFCCARTESIANPOINT((2.61934474110603E-10,0.,-50.0000000000014));
#74= IFCCARTESIANTRANSFORMATIONOPERATOR3D($,$,#73,$,$);
#75= IFCMAPPEDITEM(#72,#74);
#76= IFCCARTESIANPOINT((70.0000000003565,0.,-49.9999999997149));
#77= IFCCARTESIANTRANSFORMATIONOPERATOR3D($,$,#76,$,$);
#78= IFCMAPPEDITEM(#72,#77);
#79= IFCCARTESIANPOINT((140.000000000458,0.,-49.9999999994284));
#80= IFCCARTESIANTRANSFORMATIONOPERATOR3D($,$,#79,$,$);
#81= IFCMAPPEDITEM(#72,#80);
#82= IFCCARTESIANPOINT((210.000000000553,0.,-49.9999999991421));
#83= IFCCARTESIANTRANSFORMATIONOPERATOR3D($,$,#82,$,$);
#84= IFCMAPPEDITEM(#72,#83);
#85= IFCCARTESIANPOINT((280.000000000648,0.,-49.9999999988556));
#86= IFCCARTESIANTRANSFORMATIONOPERATOR3D($,$,#85,$,$);
#87= IFCMAPPEDITEM(#72,#86);
#88= IFCCARTESIANPOINT((350.000000000749,0.,-49.9999999985691));
#89= IFCCARTESIANTRANSFORMATIONOPERATOR3D($,$,#88,$,$);
#90= IFCMAPPEDITEM(#72,#89);
#91= IFCCARTESIANPOINT((420.000000000844,0.,-49.9999999982826));
#92= IFCCARTESIANTRANSFORMATIONOPERATOR3D($,$,#91,$,$);
#93= IFCMAPPEDITEM(#72,#92);
#94= IFCCARTESIANPOINT((-2.69210431724787E-10,0.,50.0000000000016));
#95= IFCCARTESIANTRANSFORMATIONOPERATOR3D($,$,#94,$,$);
#96= IFCMAPPEDITEM(#72,#95);
#97= IFCCARTESIANPOINT((69.9999999998399,0.,50.0000000002879));
#98= IFCCARTESIANTRANSFORMATIONOPERATOR3D($,$,#97,$,$);
#99= IFCMAPPEDITEM(#72,#98);
#100= IFCCARTESIANPOINT((139.999999999935,0.,50.0000000005743));
#101= IFCCARTESIANTRANSFORMATIONOPERATOR3D($,$,#100,$,$);
#102= IFCMAPPEDITEM(#72,#101);
#103= IFCCARTESIANPOINT((210.000000000029,0.,50.0000000008606));
#104= IFCCARTESIANTRANSFORMATIONOPERATOR3D($,$,#103,$,$);
#105= IFCMAPPEDITEM(#72,#104);
#106= IFCCARTESIANPOINT((280.000000000131,0.,50.0000000011471));
#107= IFCCARTESIANTRANSFORMATIONOPERATOR3D($,$,#106,$,$);
#108= IFCMAPPEDITEM(#72,#107);
#109= IFCCARTESIANPOINT((350.000000000226,0.,50.0000000014336));
#110= IFCCARTESIANTRANSFORMATIONOPERATOR3D($,$,#109,$,$);
#111= IFCMAPPEDITEM(#72,#110);
#112= IFCCARTESIANPOINT((420.00000000032,0.,50.0000000017199));
#113= IFCCARTESIANTRANSFORMATIONOPERATOR3D($,$,#112,$,$);
#114= IFCMAPPEDITEM(#72,#113);
#115= IFCSHAPEREPRESENTATION(#12,'Body','MappedRepresentation',(#75,#78,#81,#84,#87,#90,#93,#96,#99,#102,#105,#108,#111,#114));
#116= IFCPRODUCTDEFINITIONSHAPE($,$,(#115));
#117= IFCOPENINGELEMENT('0ELRYGnFbBPgd0ilp0MOZJ',#5,$,$,'Opening',#64,#116,$);
#118= IFCRELVOIDSELEMENT('10nC7pe2XErPKNB1ovicKI',#5,'Drill Hole',$,#59,#117);
#119= IFCPROPERTYSINGLEVALUE('FeatureSubTypes',$,IFCLABEL('TORNILLO'),$);
#120= IFCPROPERTYSINGLEVALUE('RectangleOpeningWidth',$,$,$);
#121= IFCPROPERTYSINGLEVALUE('RectangleOpeningHeight',$,$,$);
#122= IFCPROPERTYSINGLEVALUE('OpeningDiameter',$,$,$);
#123= IFCPROPERTYSET('0QIzi94QL908i_u$kRKN5Z',#5,'AISC_EM11_Pset_Opening/Cope',$,(#119,#120,#121,#122));
#124= IFCCARTESIANPOINT((42354.9997253417,1603.23125536912,23600.));
#125= IFCDIRECTION((0.,-1.,0.));
#126= IFCDIRECTION((-1.,0.,0.));
#127= IFCAXIS2PLACEMENT3D(#124,#125,#126);
#128= IFCLOCALPLACEMENT(#42,#127);
#129= IFCSHAPEREPRESENTATION(#12,'Body','MappedRepresentation',(#75,#78,#81,#84,#87,#90,#93,#96,#99,#102,#105,#108,#111,#114));
#130= IFCPRODUCTDEFINITIONSHAPE($,$,(#129));
#131= IFCOPENINGELEMENT('2chyTbdGLD88zxJ2PBJxEQ',#5,$,$,'Opening',#128,#130,$);
#132= IFCRELVOIDSELEMENT('1d3vG$XLH4ees8bYgue2$N',#5,'Drill Hole',$,#59,#131);
#133= IFCPROPERTYSINGLEVALUE('PieceMark',$,IFCIDENTIFIER('PLATE'),$);
#134= IFCPROPERTYSINGLEVALUE('IndicationMark',$,IFCIDENTIFIER('1279'),$);
#135= IFCPROPERTYSINGLEVALUE('PrelimMark',$,IFCIDENTIFIER(''),$);
#136= IFCPROPERTYSINGLEVALUE('MainPieceTag',$,IFCBOOLEAN(.T.),$);
#137= IFCPROPERTYSET('3HlhgLMSfDFOqByijcbfrK',#5,'AISC_EM11_Pset_PieceIdentification','PieceIdentity',(#133,#134,#135,#136));
#138= IFCPROPERTYSINGLEVALUE('MaterialType',$,IFCIDENTIFIER('STEEL'),$);
#139= IFCPROPERTYSINGLEVALUE('MaterialGrade',$,IFCIDENTIFIER('S235JR'),$);
#140= IFCPROPERTYSET('0q0aZRg4nDOBZ0uSou5YT0',#5,'AISC_EM11_Pset_Material',$,(#138,#139));
#141= IFCMATERIAL('STEEL/S235JR');
#142= IFCRELAGGREGATES('2oMRLZ4HT66AYeRgpeLZ15',#5,$,$,#37,(#39));
#143= IFCRELAGGREGATES('24ejdrMZlOOSqwjy5wdrJN',#5,$,$,#39,(#41));
#144= IFCRELAGGREGATES('1HgR6kFeL4pAO5HaYMx2pH',#5,$,$,#41,(#43));
#145= IFCRELCONTAINEDINSPATIALSTRUCTURE('2T0NEmk4fFXhYAH1DZW2R5',#5,$,$,(#59),#43);
#146= IFCRELDEFINESBYPROPERTIES('07ZGdgo7n379_ZRfeHKNXw',#5,$,$,(#131,#117),#123);
#147= IFCRELDEFINESBYPROPERTIES('15Fv6UxWb61OKA3FOKV39L',#5,$,$,(#59),#137);
#148= IFCRELDEFINESBYPROPERTIES('3CnW_uJYH1nBtyRpSKOCU8',#5,$,$,(#59),#140);
#149= IFCRELASSOCIATESMATERIAL('2ke_iGnt5BUhsAWYkbaywD',#5,$,$,(#59),#141);
ENDSEC;

END-ISO-10303-21;
