ISO-10303-21;
HEADER;
FILE_DESCRIPTION(('ViewDefinition[AISC_Steel_Detailing]', 'Option [BaseQuantities:Off]', 'Option [GridExport:On]', 'Option [Assemblies:Off]', 'Option [Bolts:On]', 'Option [Rebars:On]', 'Option [PourObjects:Off]', 'Option [Welds:On]', 'Option [SurfaceTreatments:On]', 'Option [LocationBy:0]', 'Option [ViewColors:Off]', 'Option [SectionedSpine:Off]', 'Option [PropertySets:On]', 'Option [Export all:Off]'),'2;1');
FILE_NAME('1280_Qty_2.ifc','2026-05-16T11:52:53',('GIOVANNIPC\\gcorrea'),('Structural Designer'),'IFC Database version: Work','Tekla Structures 2020 Service Pack 5, IFC Export Version: 4.0.0.0 Dec  7 2020','');
FILE_SCHEMA(('IFC2X3'));
ENDSEC;

DATA;
#1= IFCPERSON('GIOVANNIPC\\gcorrea','Undefined',$,$,$,$,$,$);
#2= IFCORGANIZATION($,'Trimble Solutions Corporation',$,$,$);
#3= IFCPERSONANDORGANIZATION(#1,#2,$);
#4= IFCAPPLICATION(#2,'2020 Service Pack 5','Tekla Structures','Multi material modeling');
#5= IFCOWNERHISTORY(#3,#4,$,.NOCHANGE.,$,$,$,1778950373);
#6= IFCCARTESIANPOINT((0.,0.,0.));
#7= IFCDIRECTION((1.,0.,0.));
#8= IFCDIRECTION((0.,1.,0.));
#9= IFCDIRECTION((0.,0.,1.));
#10= IFCAXIS2PLACEMENT3D(#6,#9,#7);
#11= IFCGEOMETRICREPRESENTATIONCONTEXT($,'Model',3,1.E-05,#10,$);
#12= IFCGEOMETRICREPRESENTATIONSUBCONTEXT('Body','Model',*,*,*,*,#11,$,.MODEL_VIEW.,$);
#13= IFCGEOMETRICREPRESENTATIONSUBCONTEXT('Axis','Model',*,*,*,*,#11,$,.GRAPH_VIEW.,$);
#14= IFCGEOMETRICREPRESENTATIONSUBCONTEXT('FootPrint','Model',*,*,*,*,#11,$,.MODEL_VIEW.,$);
#15= IFCSIUNIT(*,.LENGTHUNIT.,.MILLI.,.METRE.);
#16= IFCMEASUREWITHUNIT(IFCRATIOMEASURE(304.8),#15);
#17= IFCDIMENSIONALEXPONENTS(1,0,0,0,0,0,0);
#18= IFCCONVERSIONBASEDUNIT(#17,.LENGTHUNIT.,'FOOT',#16);
#19= IFCSIUNIT(*,.AREAUNIT.,$,.SQUARE_METRE.);
#20= IFCMEASUREWITHUNIT(IFCRATIOMEASURE(0.09290304),#19);
#21= IFCDIMENSIONALEXPONENTS(2,0,0,0,0,0,0);
#22= IFCCONVERSIONBASEDUNIT(#21,.AREAUNIT.,'SQUARE FOOT',#20);
#23= IFCSIUNIT(*,.VOLUMEUNIT.,$,.CUBIC_METRE.);
#24= IFCMEASUREWITHUNIT(IFCRATIOMEASURE(0.028316846592),#23);
#25= IFCDIMENSIONALEXPONENTS(3,0,0,0,0,0,0);
#26= IFCCONVERSIONBASEDUNIT(#25,.VOLUMEUNIT.,'CUBIC FOOT',#24);
#27= IFCSIUNIT(*,.MASSUNIT.,.KILO.,.GRAM.);
#28= IFCSIUNIT(*,.TIMEUNIT.,$,.SECOND.);
#29= IFCSIUNIT(*,.PLANEANGLEUNIT.,$,.RADIAN.);
#30= IFCMEASUREWITHUNIT(IFCRATIOMEASURE(0.0174532925199433),#29);
#31= IFCDIMENSIONALEXPONENTS(0,0,0,0,0,0,0);
#32= IFCCONVERSIONBASEDUNIT(#31,.PLANEANGLEUNIT.,'DEGREE',#30);
#33= IFCSIUNIT(*,.SOLIDANGLEUNIT.,$,.STERADIAN.);
#34= IFCSIUNIT(*,.THERMODYNAMICTEMPERATUREUNIT.,$,.DEGREE_CELSIUS.);
#35= IFCSIUNIT(*,.LUMINOUSINTENSITYUNIT.,$,.LUMEN.);
#36= IFCUNITASSIGNMENT((#15,#19,#23,#27,#28,#29,#33,#34,#35));
#37= IFCPROJECT('2G7ZFDNE16yBDU14FA92Me',#5,'Proyecto',$,$,$,$,(#11),#36);
#38= IFCLOCALPLACEMENT($,#10);
#39= IFCSITE('2xvEzEinjBTea80yOTcujY',#5,'Obra',$,$,#38,$,$,.ELEMENT.,$,$,$,$,$);
#40= IFCLOCALPLACEMENT(#38,#10);
#41= IFCBUILDING('2WUsJMHsT58h1Mlz52wABP',#5,'Undefined',$,$,#40,$,$,.ELEMENT.,$,$,$);
#42= IFCLOCALPLACEMENT(#40,#10);
#43= IFCBUILDINGSTOREY('29hdEUCErFze9E_VIAceOd',#5,'Undefined',$,$,#42,$,$,.ELEMENT.,0.);
#44= IFCOWNERHISTORY(#3,#4,$,.NOCHANGE.,$,$,$,1775595600);
#45= IFCCARTESIANPOINT((86024.,1479.28853064979,23150.5));
#46= IFCAXIS2PLACEMENT3D(#45,#9,#8);
#47= IFCLOCALPLACEMENT(#42,#46);
#48= IFCCARTESIANPOINT((0.,0.));
#49= IFCCARTESIANPOINT((250.,0.));
#50= IFCCARTESIANPOINT((403.000793457031,1024.));
#51= IFCCARTESIANPOINT((249.666961669922,1787.99267578125));
#52= IFCCARTESIANPOINT((-0.333040356636047,1787.97485351563));
#53= IFCCARTESIANPOINT((-154.999206542969,1023.99993896484));
#54= IFCPOLYLINE((#48,#49,#50,#51,#52,#53,#48));
#55= IFCARBITRARYCLOSEDPROFILEDEF(.AREA.,'PL19*552',#54);
#56= IFCCARTESIANPOINT((0.,0.,-9.5));
#57= IFCAXIS2PLACEMENT3D(#56,#9,#7);
#58= IFCEXTRUDEDAREASOLID(#55,#57,#9,19.);
#59= IFCSHAPEREPRESENTATION(#12,'Body','SweptSolid',(#58));
#60= IFCPRODUCTDEFINITIONSHAPE($,$,(#59));
#61= IFCPLATE('0H2D7A2UfEIAgORotFYygr',#44,'PLATE','PL19*552','PL19*552',#47,#60,'ID1108d1ca-09ea-4e48-aa98-6f2dcf8bcab5');
#62= IFCLOCALPLACEMENT(#42,#46);
#63= IFCDIRECTION((1.,0.));
#64= IFCAXIS2PLACEMENT2D(#48,#63);
#65= IFCCIRCLEPROFILEDEF(.AREA.,'\S\X518*25',#64,259.);
#66= IFCCARTESIANPOINT((125.886617905667,1024.,-1090.5));
#67= IFCAXIS2PLACEMENT3D(#66,#9,#8);
#68= IFCEXTRUDEDAREASOLID(#65,#67,#9,3000.);
#69= IFCSHAPEREPRESENTATION(#12,'Body','SweptSolid',(#68));
#70= IFCPRODUCTDEFINITIONSHAPE($,$,(#69));
#71= IFCOPENINGELEMENT('3YqhSY9_HAOu7YX6mou7jD',#5,$,$,'Recess',#62,#70,$);
#72= IFCRELVOIDSELEMENT('0WrRJ76s5BE9_$1_aoz2da',#5,$,$,#61,#71);
#73= IFCPROPERTYSINGLEVALUE('FeatureSubTypes',$,$,$);
#74= IFCPROPERTYSINGLEVALUE('RectangleOpeningWidth',$,$,$);
#75= IFCPROPERTYSINGLEVALUE('RectangleOpeningHeight',$,$,$);
#76= IFCPROPERTYSINGLEVALUE('OpeningDiameter',$,IFCPOSITIVELENGTHMEASURE(518.),$);
#77= IFCPROPERTYSET('2f4STLPffA8gAVlw0JjOge',#5,'AISC_EM11_Pset_Opening/Cope',$,(#73,#74,#75,#76));
#78= IFCCARTESIANPOINT((84696.0126004331,1603.95549542573,23160.));
#79= IFCDIRECTION((-7.12890000286279E-05,0.999999997458939,0.));
#80= IFCDIRECTION((-0.999999997458939,-7.12890000326365E-05,0.));
#81= IFCAXIS2PLACEMENT3D(#78,#79,#80);
#82= IFCLOCALPLACEMENT(#42,#81);
#83= IFCCIRCLEPROFILEDEF(.AREA.,$,#64,11.5);
#84= IFCCARTESIANPOINT((0.,-19.1,0.));
#85= IFCAXIS2PLACEMENT3D(#84,#8,#7);
#86= IFCEXTRUDEDAREASOLID(#83,#85,#9,19.2);
#87= IFCSHAPEREPRESENTATION(#12,'Body','SweptSolid',(#86));
#88= IFCREPRESENTATIONMAP(#10,#87);
#89= IFCCARTESIANPOINT((-1.45519152283669E-10,0.,-49.9999999999934));
#90= IFCCARTESIANTRANSFORMATIONOPERATOR3D($,$,#89,$,$);
#91= IFCMAPPEDITEM(#88,#90);
#92= IFCCARTESIANPOINT((69.9999999990832,0.,-49.9999999995478));
#93= IFCCARTESIANTRANSFORMATIONOPERATOR3D($,$,#92,$,$);
#94= IFCMAPPEDITEM(#88,#93);
#95= IFCCARTESIANPOINT((139.999999998297,0.,-49.9999999991021));
#96= IFCCARTESIANTRANSFORMATIONOPERATOR3D($,$,#95,$,$);
#97= IFCMAPPEDITEM(#88,#96);
#98= IFCCARTESIANPOINT((209.999999997526,0.,-49.9999999986564));
#99= IFCCARTESIANTRANSFORMATIONOPERATOR3D($,$,#98,$,$);
#100= IFCMAPPEDITEM(#88,#99);
#101= IFCCARTESIANPOINT((279.999999996755,0.,-49.9999999982108));
#102= IFCCARTESIANTRANSFORMATIONOPERATOR3D($,$,#101,$,$);
#103= IFCMAPPEDITEM(#88,#102);
#104= IFCCARTESIANPOINT((349.999999995984,0.,-49.9999999977651));
#105= IFCCARTESIANTRANSFORMATIONOPERATOR3D($,$,#104,$,$);
#106= IFCMAPPEDITEM(#88,#105);
#107= IFCCARTESIANPOINT((419.999999995212,0.,-49.9999999973195));
#108= IFCCARTESIANTRANSFORMATIONOPERATOR3D($,$,#107,$,$);
#109= IFCMAPPEDITEM(#88,#108);
#110= IFCCARTESIANPOINT((1.74622982740402E-10,0.,49.9999999999932));
#111= IFCCARTESIANTRANSFORMATIONOPERATOR3D($,$,#110,$,$);
#112= IFCMAPPEDITEM(#88,#111);
#113= IFCCARTESIANPOINT((69.9999999994034,0.,50.0000000004388));
#114= IFCCARTESIANTRANSFORMATIONOPERATOR3D($,$,#113,$,$);
#115= IFCMAPPEDITEM(#88,#114);
#116= IFCCARTESIANPOINT((139.999999998618,0.,50.0000000008845));
#117= IFCCARTESIANTRANSFORMATIONOPERATOR3D($,$,#116,$,$);
#118= IFCMAPPEDITEM(#88,#117);
#119= IFCCARTESIANPOINT((209.999999997846,0.,50.0000000013301));
#120= IFCCARTESIANTRANSFORMATIONOPERATOR3D($,$,#119,$,$);
#121= IFCMAPPEDITEM(#88,#120);
#122= IFCCARTESIANPOINT((279.999999997075,0.,50.0000000017756));
#123= IFCCARTESIANTRANSFORMATIONOPERATOR3D($,$,#122,$,$);
#124= IFCMAPPEDITEM(#88,#123);
#125= IFCCARTESIANPOINT((349.999999996304,0.,50.0000000022214));
#126= IFCCARTESIANTRANSFORMATIONOPERATOR3D($,$,#125,$,$);
#127= IFCMAPPEDITEM(#88,#126);
#128= IFCCARTESIANPOINT((419.999999995533,0.,50.0000000026671));
#129= IFCCARTESIANTRANSFORMATIONOPERATOR3D($,$,#128,$,$);
#130= IFCMAPPEDITEM(#88,#129);
#131= IFCSHAPEREPRESENTATION(#12,'Body','MappedRepresentation',(#91,#94,#97,#100,#103,#106,#109,#112,#115,#118,#121,#124,#127,#130));
#132= IFCPRODUCTDEFINITIONSHAPE($,$,(#131));
#133= IFCOPENINGELEMENT('0FnvbOPPL55QjnDK2FcaFe',#5,$,$,'Opening',#82,#132,$);
#134= IFCRELVOIDSELEMENT('2c6zmPDQj0KPdcMWH8i9QZ',#5,'Drill Hole',$,#61,#133);
#135= IFCPROPERTYSINGLEVALUE('FeatureSubTypes',$,IFCLABEL('TORNILLO'),$);
#136= IFCPROPERTYSINGLEVALUE('OpeningDiameter',$,$,$);
#137= IFCPROPERTYSET('17T37MlvL5jv2TzCWvbZ0g',#5,'AISC_EM11_Pset_Opening/Cope',$,(#135,#74,#75,#136));
#138= IFCCARTESIANPOINT((85309.,1603.28929908432,23160.));
#139= IFCDIRECTION((0.,-1.,0.));
#140= IFCAXIS2PLACEMENT3D(#138,#139,#7);
#141= IFCLOCALPLACEMENT(#42,#140);
#142= IFCCARTESIANPOINT((0.,0.,75.));
#143= IFCCARTESIANTRANSFORMATIONOPERATOR3D($,$,#142,$,$);
#144= IFCMAPPEDITEM(#88,#143);
#145= IFCCARTESIANPOINT((75.,0.,75.));
#146= IFCCARTESIANTRANSFORMATIONOPERATOR3D($,$,#145,$,$);
#147= IFCMAPPEDITEM(#88,#146);
#148= IFCCARTESIANPOINT((150.,0.,75.));
#149= IFCCARTESIANTRANSFORMATIONOPERATOR3D($,$,#148,$,$);
#150= IFCMAPPEDITEM(#88,#149);
#151= IFCCARTESIANPOINT((225.,0.,75.));
#152= IFCCARTESIANTRANSFORMATIONOPERATOR3D($,$,#151,$,$);
#153= IFCMAPPEDITEM(#88,#152);
#154= IFCCARTESIANPOINT((300.,0.,75.));
#155= IFCCARTESIANTRANSFORMATIONOPERATOR3D($,$,#154,$,$);
#156= IFCMAPPEDITEM(#88,#155);
#157= IFCCARTESIANPOINT((375.,0.,75.));
#158= IFCCARTESIANTRANSFORMATIONOPERATOR3D($,$,#157,$,$);
#159= IFCMAPPEDITEM(#88,#158);
#160= IFCCARTESIANPOINT((450.,0.,75.));
#161= IFCCARTESIANTRANSFORMATIONOPERATOR3D($,$,#160,$,$);
#162= IFCMAPPEDITEM(#88,#161);
#163= IFCCARTESIANPOINT((525.,0.,75.));
#164= IFCCARTESIANTRANSFORMATIONOPERATOR3D($,$,#163,$,$);
#165= IFCMAPPEDITEM(#88,#164);
#166= IFCCARTESIANPOINT((600.,0.,75.));
#167= IFCCARTESIANTRANSFORMATIONOPERATOR3D($,$,#166,$,$);
#168= IFCMAPPEDITEM(#88,#167);
#169= IFCCARTESIANPOINT((675.,0.,75.));
#170= IFCCARTESIANTRANSFORMATIONOPERATOR3D($,$,#169,$,$);
#171= IFCMAPPEDITEM(#88,#170);
#172= IFCCARTESIANPOINT((0.,0.,-75.));
#173= IFCCARTESIANTRANSFORMATIONOPERATOR3D($,$,#172,$,$);
#174= IFCMAPPEDITEM(#88,#173);
#175= IFCCARTESIANPOINT((75.,0.,-75.));
#176= IFCCARTESIANTRANSFORMATIONOPERATOR3D($,$,#175,$,$);
#177= IFCMAPPEDITEM(#88,#176);
#178= IFCCARTESIANPOINT((150.,0.,-75.));
#179= IFCCARTESIANTRANSFORMATIONOPERATOR3D($,$,#178,$,$);
#180= IFCMAPPEDITEM(#88,#179);
#181= IFCCARTESIANPOINT((225.,0.,-75.));
#182= IFCCARTESIANTRANSFORMATIONOPERATOR3D($,$,#181,$,$);
#183= IFCMAPPEDITEM(#88,#182);
#184= IFCCARTESIANPOINT((300.,0.,-75.));
#185= IFCCARTESIANTRANSFORMATIONOPERATOR3D($,$,#184,$,$);
#186= IFCMAPPEDITEM(#88,#185);
#187= IFCCARTESIANPOINT((375.,0.,-75.));
#188= IFCCARTESIANTRANSFORMATIONOPERATOR3D($,$,#187,$,$);
#189= IFCMAPPEDITEM(#88,#188);
#190= IFCCARTESIANPOINT((450.,0.,-75.));
#191= IFCCARTESIANTRANSFORMATIONOPERATOR3D($,$,#190,$,$);
#192= IFCMAPPEDITEM(#88,#191);
#193= IFCCARTESIANPOINT((525.,0.,-75.));
#194= IFCCARTESIANTRANSFORMATIONOPERATOR3D($,$,#193,$,$);
#195= IFCMAPPEDITEM(#88,#194);
#196= IFCCARTESIANPOINT((600.,0.,-75.));
#197= IFCCARTESIANTRANSFORMATIONOPERATOR3D($,$,#196,$,$);
#198= IFCMAPPEDITEM(#88,#197);
#199= IFCCARTESIANPOINT((675.,0.,-75.));
#200= IFCCARTESIANTRANSFORMATIONOPERATOR3D($,$,#199,$,$);
#201= IFCMAPPEDITEM(#88,#200);
#202= IFCSHAPEREPRESENTATION(#12,'Body','MappedRepresentation',(#144,#147,#150,#153,#156,#159,#162,#165,#168,#171,#174,#177,#180,#183,#186,#189,#192,#195,#198,#201));
#203= IFCPRODUCTDEFINITIONSHAPE($,$,(#202));
#204= IFCOPENINGELEMENT('1E0UldlVHE8OcIXkeC$QB_',#5,$,$,'Opening',#141,#203,$);
#205= IFCRELVOIDSELEMENT('2Jshnx0Hn8Qw4xY9A$3ysK',#5,'Drill Hole',$,#61,#204);
#206= IFCPROPERTYSINGLEVALUE('PieceMark',$,IFCIDENTIFIER('PLATE'),$);
#207= IFCPROPERTYSINGLEVALUE('IndicationMark',$,IFCIDENTIFIER('1280'),$);
#208= IFCPROPERTYSINGLEVALUE('PrelimMark',$,IFCIDENTIFIER(''),$);
#209= IFCPROPERTYSINGLEVALUE('MainPieceTag',$,IFCBOOLEAN(.F.),$);
#210= IFCPROPERTYSET('3Db9VBIiP9xPq8LIzfvPJm',#5,'AISC_EM11_Pset_PieceIdentification','PieceIdentity',(#206,#207,#208,#209));
#211= IFCPROPERTYSINGLEVALUE('MaterialType',$,IFCIDENTIFIER('STEEL'),$);
#212= IFCPROPERTYSINGLEVALUE('MaterialGrade',$,IFCIDENTIFIER('S235JR'),$);
#213= IFCPROPERTYSET('2$2Bzg5g96P8KtQhLMxiV_',#5,'AISC_EM11_Pset_Material',$,(#211,#212));
#214= IFCMATERIAL('STEEL/S235JR');
#215= IFCRELAGGREGATES('3g1YQrmX13p8xvrEarFGbh',#5,$,$,#37,(#39));
#216= IFCRELAGGREGATES('2yJqi72pJL5QDB7Ws7XYtz',#5,$,$,#39,(#41));
#217= IFCRELAGGREGATES('3jXwZzbdzB3PfWF2P0aa_D',#5,$,$,#41,(#43));
#218= IFCRELCONTAINEDINSPATIALSTRUCTURE('2dSP_EU2PDKhndCNUpQ5ZR',#5,$,$,(#61),#43);
#219= IFCRELDEFINESBYPROPERTIES('0QauJsKgr14PoWI1ZeiGg1',#5,$,$,(#71),#77);
#220= IFCRELDEFINESBYPROPERTIES('2yrixO3Wv9UOXKvHwnUIxE',#5,$,$,(#204,#133),#137);
#221= IFCRELDEFINESBYPROPERTIES('2eTHXRu0D0ygqw0PDPDsl3',#5,$,$,(#61),#210);
#222= IFCRELDEFINESBYPROPERTIES('1FRWB_Xiv5qfVZTiuKQ5Fb',#5,$,$,(#61),#213);
#223= IFCRELASSOCIATESMATERIAL('2PfotUm7nAYAaC34ECykZq',#5,$,$,(#61),#214);
ENDSEC;

END-ISO-10303-21;
