ISO-10303-21;
HEADER;
FILE_DESCRIPTION(('ViewDefinition[AISC_Steel_Detailing]', 'Option [BaseQuantities:Off]', 'Option [GridExport:On]', 'Option [Assemblies:Off]', 'Option [Bolts:On]', 'Option [Rebars:On]', 'Option [PourObjects:Off]', 'Option [Welds:On]', 'Option [SurfaceTreatments:On]', 'Option [LocationBy:0]', 'Option [ViewColors:Off]', 'Option [SectionedSpine:Off]', 'Option [PropertySets:On]', 'Option [Export all:Off]'),'2;1');
FILE_NAME('1282_Qty_2.ifc','2026-05-16T11:52:54',('GIOVANNIPC\\gcorrea'),('Structural Designer'),'IFC Database version: Work','Tekla Structures 2020 Service Pack 5, IFC Export Version: 4.0.0.0 Dec  7 2020','');
FILE_SCHEMA(('IFC2X3'));
ENDSEC;

DATA;
#1= IFCPERSON('GIOVANNIPC\\gcorrea','Undefined',$,$,$,$,$,$);
#2= IFCORGANIZATION($,'Trimble Solutions Corporation',$,$,$);
#3= IFCPERSONANDORGANIZATION(#1,#2,$);
#4= IFCAPPLICATION(#2,'2020 Service Pack 5','Tekla Structures','Multi material modeling');
#5= IFCOWNERHISTORY(#3,#4,$,.NOCHANGE.,$,$,$,1778950374);
#6= IFCCARTESIANPOINT((0.,0.,0.));
#7= IFCDIRECTION((1.,0.,0.));
#8= IFCDIRECTION((0.,1.,0.));
#9= IFCDIRECTION((0.,0.,1.));
#10= IFCAXIS2PLACEMENT3D(#6,#9,#7);
#11= IFCGEOMETRICREPRESENTATIONCONTEXT($,'Model',3,1.E-05,#10,$);
#12= IFCGEOMETRICREPRESENTATIONSUBCONTEXT('Body','Model',*,*,*,*,#11,$,.MODEL_VIEW.,$);
#13= IFCGEOMETRICREPRESENTATIONSUBCONTEXT('Axis','Model',*,*,*,*,#11,$,.GRAPH_VIEW.,$);
#14= IFCGEOMETRICREPRESENTATIONSUBCONTEXT('FootPrint','Model',*,*,*,*,#11,$,.MODEL_VIEW.,$);
#15= IFCSIUNIT(*,.LENGTHUNIT.,.MILLI.,.METRE.);
#16= IFCMEASUREWITHUNIT(IFCRATIOMEASURE(304.8),#15);
#17= IFCDIMENSIONALEXPONENTS(1,0,0,0,0,0,0);
#18= IFCCONVERSIONBASEDUNIT(#17,.LENGTHUNIT.,'FOOT',#16);
#19= IFCSIUNIT(*,.AREAUNIT.,$,.SQUARE_METRE.);
#20= IFCMEASUREWITHUNIT(IFCRATIOMEASURE(0.09290304),#19);
#21= IFCDIMENSIONALEXPONENTS(2,0,0,0,0,0,0);
#22= IFCCONVERSIONBASEDUNIT(#21,.AREAUNIT.,'SQUARE FOOT',#20);
#23= IFCSIUNIT(*,.VOLUMEUNIT.,$,.CUBIC_METRE.);
#24= IFCMEASUREWITHUNIT(IFCRATIOMEASURE(0.028316846592),#23);
#25= IFCDIMENSIONALEXPONENTS(3,0,0,0,0,0,0);
#26= IFCCONVERSIONBASEDUNIT(#25,.VOLUMEUNIT.,'CUBIC FOOT',#24);
#27= IFCSIUNIT(*,.MASSUNIT.,.KILO.,.GRAM.);
#28= IFCSIUNIT(*,.TIMEUNIT.,$,.SECOND.);
#29= IFCSIUNIT(*,.PLANEANGLEUNIT.,$,.RADIAN.);
#30= IFCMEASUREWITHUNIT(IFCRATIOMEASURE(0.0174532925199433),#29);
#31= IFCDIMENSIONALEXPONENTS(0,0,0,0,0,0,0);
#32= IFCCONVERSIONBASEDUNIT(#31,.PLANEANGLEUNIT.,'DEGREE',#30);
#33= IFCSIUNIT(*,.SOLIDANGLEUNIT.,$,.STERADIAN.);
#34= IFCSIUNIT(*,.THERMODYNAMICTEMPERATUREUNIT.,$,.DEGREE_CELSIUS.);
#35= IFCSIUNIT(*,.LUMINOUSINTENSITYUNIT.,$,.LUMEN.);
#36= IFCUNITASSIGNMENT((#15,#19,#23,#27,#28,#29,#33,#34,#35));
#37= IFCPROJECT('2G7ZFDNE16yBDU14FA92Me',#5,'Proyecto',$,$,$,$,(#11),#36);
#38= IFCLOCALPLACEMENT($,#10);
#39= IFCSITE('2xvEzEinjBTea80yOTcujY',#5,'Obra',$,$,#38,$,$,.ELEMENT.,$,$,$,$,$);
#40= IFCLOCALPLACEMENT(#38,#10);
#41= IFCBUILDING('0dTuCt0zfDEARywmP05fpw',#5,'Undefined',$,$,#40,$,$,.ELEMENT.,$,$,$);
#42= IFCLOCALPLACEMENT(#40,#10);
#43= IFCBUILDINGSTOREY('29hdEUCErFze9E_VIAceOd',#5,'Undefined',$,$,#42,$,$,.ELEMENT.,0.);
#44= IFCOWNERHISTORY(#3,#4,$,.NOCHANGE.,$,$,$,1775595600);
#45= IFCCARTESIANPOINT((58605.1196740912,1728.38116522339,23609.5));
#46= IFCDIRECTION((-0.000959589999607744,-0.99999953959341,0.));
#47= IFCAXIS2PLACEMENT3D(#45,#9,#46);
#48= IFCLOCALPLACEMENT(#42,#47);
#49= IFCCARTESIANPOINT((0.,0.));
#50= IFCCARTESIANPOINT((249.999999999953,5.60248736292124E-10));
#51= IFCCARTESIANPOINT((268.032444930332,580.015566220608));
#52= IFCPOLYLINE((#49,#50,#51));
#53= IFCCOMPOSITECURVESEGMENT(.CONTINUOUS.,.T.,#52);
#54= IFCDIRECTION((-0.999517184440609,0.0310708546377248));
#55= IFCCARTESIANPOINT((467.93588182048,573.801395293));
#56= IFCAXIS2PLACEMENT2D(#55,#54);
#57= IFCCIRCLE(#56,200.);
#58= IFCTRIMMEDCURVE(#57,(IFCPARAMETERVALUE(0.)),(IFCPARAMETERVALUE(4.81637039515761)),.F.,.PARAMETER.);
#59= IFCCOMPOSITECURVESEGMENT(.CONTINUOUS.,.T.,#58);
#60= IFCCARTESIANPOINT((453.367683624188,773.270108634526));
#61= IFCCARTESIANPOINT((759.236694335795,795.609252929105));
#62= IFCCARTESIANPOINT((759.04473876939,995.609130858211));
#63= IFCCARTESIANPOINT((441.894832332498,1018.19087069272));
#64= IFCPOLYLINE((#60,#61,#62,#63));
#65= IFCCOMPOSITECURVESEGMENT(.CONTINUOUS.,.T.,#64);
#66= IFCDIRECTION((-0.0710200882079969,-0.997474885433678));
#67= IFCCARTESIANPOINT((456.098849974589,1217.68584778637));
#68= IFCAXIS2PLACEMENT2D(#67,#66);
#69= IFCCIRCLE(#68,200.);
#70= IFCTRIMMEDCURVE(#69,(IFCPARAMETERVALUE(0.)),(IFCPARAMETERVALUE(4.8840592451629)),.F.,.PARAMETER.);
#71= IFCCOMPOSITECURVESEGMENT(.CONTINUOUS.,.T.,#70);
#72= IFCCARTESIANPOINT((257.109838682576,1197.60169015406));
#73= IFCCARTESIANPOINT((223.53157043453,1530.28710937106));
#74= IFCCARTESIANPOINT((23.5319309234594,1529.9033203081));
#75= IFCCARTESIANPOINT((-9.40304590165042,1197.33813633336));
#76= IFCPOLYLINE((#72,#73,#74,#75));
#77= IFCCOMPOSITECURVESEGMENT(.CONTINUOUS.,.T.,#76);
#78= IFCDIRECTION((0.995132204121339,-0.0985489539295384));
#79= IFCCARTESIANPOINT((-208.429486721528,1217.04792711884));
#80= IFCAXIS2PLACEMENT2D(#79,#78);
#81= IFCCIRCLE(#80,200.);
#82= IFCTRIMMEDCURVE(#81,(IFCPARAMETERVALUE(0.)),(IFCPARAMETERVALUE(4.88409717442937)),.F.,.PARAMETER.);
#83= IFCCOMPOSITECURVESEGMENT(.CONTINUOUS.,.T.,#82);
#84= IFCCARTESIANPOINT((-193.842645437505,1017.58057625763));
#85= IFCCARTESIANPOINT((-510.954650878809,994.390502925628));
#86= IFCCARTESIANPOINT((-510.762725829981,794.390563961366));
#87= IFCCARTESIANPOINT((-205.317472589484,772.640306374541));
#88= IFCPOLYLINE((#84,#85,#86,#87));
#89= IFCCOMPOSITECURVESEGMENT(.CONTINUOUS.,.T.,#88);
#90= IFCDIRECTION((0.0710211637800572,0.997474808852498));
#91= IFCCARTESIANPOINT((-219.52170534511,573.145344609458));
#92= IFCAXIS2PLACEMENT2D(#91,#90);
#93= IFCCIRCLE(#92,200.);
#94= IFCTRIMMEDCURVE(#93,(IFCPARAMETERVALUE(0.)),(IFCPARAMETERVALUE(4.81731772033927)),.F.,.PARAMETER.);
#95= IFCCOMPOSITECURVESEGMENT(.CONTINUOUS.,.T.,#94);
#96= IFCCARTESIANPOINT((-19.6362613298067,579.913599084041));
#97= IFCPOLYLINE((#96,#49));
#98= IFCCOMPOSITECURVESEGMENT(.CONTINUOUS.,.T.,#97);
#99= IFCCOMPOSITECURVE((#53,#59,#65,#71,#77,#83,#89,#95,#98),.T.);
#100= IFCARBITRARYCLOSEDPROFILEDEF(.AREA.,'PL19*1276',#99);
#101= IFCCARTESIANPOINT((0.,0.,-9.50000000000364));
#102= IFCAXIS2PLACEMENT3D(#101,#9,#7);
#103= IFCEXTRUDEDAREASOLID(#100,#102,#9,19.);
#104= IFCSHAPEREPRESENTATION(#12,'Body','SweptSolid',(#103));
#105= IFCPRODUCTDEFINITIONSHAPE($,$,(#104));
#106= IFCPLATE('2MQTwtjA56sxhZYYW34SRg',#44,'PLATE','PL19*1276','PL19*1276',#48,#105,'ID9669deb7-b4a1-46db-bae3-8a280311c6ea');
#107= IFCLOCALPLACEMENT(#42,#47);
#108= IFCDIRECTION((1.,0.));
#109= IFCAXIS2PLACEMENT2D(#49,#108);
#110= IFCRECTANGLEPROFILEDEF(.AREA.,'[]255*1',#109,255.,255.);
#111= IFCDIRECTION((0.000959589999607744,-0.99999953959341,0.));
#112= IFCDIRECTION((0.,0.,-1.));
#113= IFCCARTESIANPOINT((124.14103062429,894.999587805847,40.4999999999964));
#114= IFCAXIS2PLACEMENT3D(#113,#112,#111);
#115= IFCEXTRUDEDAREASOLID(#110,#114,#9,9731.);
#116= IFCCARTESIANPOINT((124.021081874339,1019.99953025507,-9690.5));
#117= IFCDIRECTION((0.99999953959341,0.000959589999605668,0.));
#118= IFCAXIS2PLACEMENT3D(#116,#9,#117);
#119= IFCPLANE(#118);
#120= IFCHALFSPACESOLID(#119,.T.);
#121= IFCBOOLEANCLIPPINGRESULT(.DIFFERENCE.,#115,#120);
#122= IFCSHAPEREPRESENTATION(#12,'Body','Clipping',(#121));
#123= IFCPRODUCTDEFINITIONSHAPE($,$,(#122));
#124= IFCOPENINGELEMENT('33tiySPST3uBfJd1CkSdbh',#5,$,$,'Recess',#107,#123,$);
#125= IFCRELVOIDSELEMENT('32m2K43G91z8tgJT6D9$wN',#5,$,$,#106,#124);
#126= IFCPROPERTYSINGLEVALUE('FeatureSubTypes',$,$,$);
#127= IFCPROPERTYSINGLEVALUE('RectangleOpeningWidth',$,$,$);
#128= IFCPROPERTYSINGLEVALUE('RectangleOpeningHeight',$,IFCPOSITIVELENGTHMEASURE(255.),$);
#129= IFCPROPERTYSINGLEVALUE('OpeningDiameter',$,$,$);
#130= IFCPROPERTYSET('1eywcYKFX9LvTL$ZiP67Db',#5,'AISC_EM11_Pset_Opening/Cope',$,(#126,#127,#128,#129));
#131= IFCCARTESIANPOINT((59319.9997253405,1603.41821446168,23600.));
#132= IFCDIRECTION((-0.99999953959341,0.000959589999609728,0.));
#133= IFCAXIS2PLACEMENT3D(#131,#46,#132);
#134= IFCLOCALPLACEMENT(#42,#133);
#135= IFCCIRCLEPROFILEDEF(.AREA.,$,#109,12.5);
#136= IFCCARTESIANPOINT((0.,-19.100000000001,0.));
#137= IFCAXIS2PLACEMENT3D(#136,#8,#7);
#138= IFCEXTRUDEDAREASOLID(#135,#137,#9,19.2);
#139= IFCSHAPEREPRESENTATION(#12,'Body','SweptSolid',(#138));
#140= IFCREPRESENTATIONMAP(#10,#139);
#141= IFCCARTESIANPOINT((-3.71073838323355E-10,0.,-74.9999999999864));
#142= IFCCARTESIANTRANSFORMATIONOPERATOR3D($,$,#141,$,$);
#143= IFCMAPPEDITEM(#140,#142);
#144= IFCCARTESIANPOINT((74.9999999994034,0.,-75.0000000003274));
#145= IFCCARTESIANTRANSFORMATIONOPERATOR3D($,$,#144,$,$);
#146= IFCMAPPEDITEM(#140,#145);
#147= IFCCARTESIANPOINT((149.999999999185,0.,-75.0000000006685));
#148= IFCCARTESIANTRANSFORMATIONOPERATOR3D($,$,#147,$,$);
#149= IFCMAPPEDITEM(#140,#148);
#150= IFCCARTESIANPOINT((224.999999998967,0.,-75.0000000010098));
#151= IFCCARTESIANTRANSFORMATIONOPERATOR3D($,$,#150,$,$);
#152= IFCMAPPEDITEM(#140,#151);
#153= IFCCARTESIANPOINT((299.999999998749,0.,-75.0000000013508));
#154= IFCCARTESIANTRANSFORMATIONOPERATOR3D($,$,#153,$,$);
#155= IFCMAPPEDITEM(#140,#154);
#156= IFCCARTESIANPOINT((374.999999998538,0.,-75.0000000016921));
#157= IFCCARTESIANTRANSFORMATIONOPERATOR3D($,$,#156,$,$);
#158= IFCMAPPEDITEM(#140,#157);
#159= IFCCARTESIANPOINT((449.999999998312,0.,-75.0000000020332));
#160= IFCCARTESIANTRANSFORMATIONOPERATOR3D($,$,#159,$,$);
#161= IFCMAPPEDITEM(#140,#160);
#162= IFCCARTESIANPOINT((524.999999998094,0.,-75.0000000023745));
#163= IFCCARTESIANTRANSFORMATIONOPERATOR3D($,$,#162,$,$);
#164= IFCMAPPEDITEM(#140,#163);
#165= IFCCARTESIANPOINT((599.999999997875,0.,-75.0000000027155));
#166= IFCCARTESIANTRANSFORMATIONOPERATOR3D($,$,#165,$,$);
#167= IFCMAPPEDITEM(#140,#166);
#168= IFCCARTESIANPOINT((674.999999997657,0.,-75.0000000030566));
#169= IFCCARTESIANTRANSFORMATIONOPERATOR3D($,$,#168,$,$);
#170= IFCMAPPEDITEM(#140,#169);
#171= IFCCARTESIANPOINT((3.78349795937538E-10,0.,74.9999999999866));
#172= IFCCARTESIANTRANSFORMATIONOPERATOR3D($,$,#171,$,$);
#173= IFCMAPPEDITEM(#140,#172);
#174= IFCCARTESIANPOINT((75.0000000001601,0.,74.9999999996453));
#175= IFCCARTESIANTRANSFORMATIONOPERATOR3D($,$,#174,$,$);
#176= IFCMAPPEDITEM(#140,#175);
#177= IFCCARTESIANPOINT((149.999999999935,0.,74.9999999993042));
#178= IFCCARTESIANTRANSFORMATIONOPERATOR3D($,$,#177,$,$);
#179= IFCMAPPEDITEM(#140,#178);
#180= IFCCARTESIANPOINT((224.999999999716,0.,74.9999999989632));
#181= IFCCARTESIANTRANSFORMATIONOPERATOR3D($,$,#180,$,$);
#182= IFCMAPPEDITEM(#140,#181);
#183= IFCCARTESIANPOINT((299.999999999498,0.,74.9999999986219));
#184= IFCCARTESIANTRANSFORMATIONOPERATOR3D($,$,#183,$,$);
#185= IFCMAPPEDITEM(#140,#184);
#186= IFCCARTESIANPOINT((374.99999999928,0.,74.9999999982808));
#187= IFCCARTESIANTRANSFORMATIONOPERATOR3D($,$,#186,$,$);
#188= IFCMAPPEDITEM(#140,#187);
#189= IFCCARTESIANPOINT((449.999999999069,0.,74.9999999979395));
#190= IFCCARTESIANTRANSFORMATIONOPERATOR3D($,$,#189,$,$);
#191= IFCMAPPEDITEM(#140,#190);
#192= IFCCARTESIANPOINT((524.999999998843,0.,74.9999999975985));
#193= IFCCARTESIANTRANSFORMATIONOPERATOR3D($,$,#192,$,$);
#194= IFCMAPPEDITEM(#140,#193);
#195= IFCCARTESIANPOINT((599.999999998625,0.,74.9999999972574));
#196= IFCCARTESIANTRANSFORMATIONOPERATOR3D($,$,#195,$,$);
#197= IFCMAPPEDITEM(#140,#196);
#198= IFCCARTESIANPOINT((674.999999998407,0.,74.9999999969161));
#199= IFCCARTESIANTRANSFORMATIONOPERATOR3D($,$,#198,$,$);
#200= IFCMAPPEDITEM(#140,#199);
#201= IFCSHAPEREPRESENTATION(#12,'Body','MappedRepresentation',(#143,#146,#149,#152,#155,#158,#161,#164,#167,#170,#173,#176,#179,#182,#185,#188,#191,#194,#197,#200));
#202= IFCPRODUCTDEFINITIONSHAPE($,$,(#201));
#203= IFCOPENINGELEMENT('2Ivj7qMpv0GhW1qXGq$6Vv',#5,$,$,'Opening',#134,#202,$);
#204= IFCRELVOIDSELEMENT('2WPqmpzTj1ghENtLTex8JU',#5,'Drill Hole',$,#106,#203);
#205= IFCPROPERTYSINGLEVALUE('FeatureSubTypes',$,IFCLABEL('TORNILLO'),$);
#206= IFCPROPERTYSINGLEVALUE('RectangleOpeningHeight',$,$,$);
#207= IFCPROPERTYSET('0H9wQRs81B8OyAytcttc8m',#5,'AISC_EM11_Pset_Opening/Cope',$,(#205,#127,#206,#129));
#208= IFCCARTESIANPOINT((59499.9997277552,1428.38132995048,23600.));
#209= IFCDIRECTION((5.82999997015027E-07,-0.99999999999983,0.));
#210= IFCAXIS2PLACEMENT3D(#208,#7,#209);
#211= IFCLOCALPLACEMENT(#42,#210);
#212= IFCCARTESIANPOINT((0.,0.,50.0000000000146));
#213= IFCCARTESIANTRANSFORMATIONOPERATOR3D($,$,#212,$,$);
#214= IFCMAPPEDITEM(#140,#213);
#215= IFCCARTESIANPOINT((69.999999999992,0.,50.0000000000655));
#216= IFCCARTESIANTRANSFORMATIONOPERATOR3D($,$,#215,$,$);
#217= IFCMAPPEDITEM(#140,#216);
#218= IFCCARTESIANPOINT((139.999999999984,0.,50.0000000001091));
#219= IFCCARTESIANTRANSFORMATIONOPERATOR3D($,$,#218,$,$);
#220= IFCMAPPEDITEM(#140,#219);
#221= IFCCARTESIANPOINT((209.999999999976,0.,50.0000000001601));
#222= IFCCARTESIANTRANSFORMATIONOPERATOR3D($,$,#221,$,$);
#223= IFCMAPPEDITEM(#140,#222);
#224= IFCCARTESIANPOINT((279.999999999968,0.,50.0000000002037));
#225= IFCCARTESIANTRANSFORMATIONOPERATOR3D($,$,#224,$,$);
#226= IFCMAPPEDITEM(#140,#225);
#227= IFCCARTESIANPOINT((349.99999999996,0.,50.0000000002547));
#228= IFCCARTESIANTRANSFORMATIONOPERATOR3D($,$,#227,$,$);
#229= IFCMAPPEDITEM(#140,#228);
#230= IFCCARTESIANPOINT((419.999999999952,0.,50.0000000003056));
#231= IFCCARTESIANTRANSFORMATIONOPERATOR3D($,$,#230,$,$);
#232= IFCMAPPEDITEM(#140,#231);
#233= IFCCARTESIANPOINT((0.,0.,-50.0000000000146));
#234= IFCCARTESIANTRANSFORMATIONOPERATOR3D($,$,#233,$,$);
#235= IFCMAPPEDITEM(#140,#234);
#236= IFCCARTESIANPOINT((69.999999999992,0.,-49.9999999999709));
#237= IFCCARTESIANTRANSFORMATIONOPERATOR3D($,$,#236,$,$);
#238= IFCMAPPEDITEM(#140,#237);
#239= IFCCARTESIANPOINT((139.999999999984,0.,-49.99999999992));
#240= IFCCARTESIANTRANSFORMATIONOPERATOR3D($,$,#239,$,$);
#241= IFCMAPPEDITEM(#140,#240);
#242= IFCCARTESIANPOINT((209.999999999976,0.,-49.9999999998763));
#243= IFCCARTESIANTRANSFORMATIONOPERATOR3D($,$,#242,$,$);
#244= IFCMAPPEDITEM(#140,#243);
#245= IFCCARTESIANPOINT((279.999999999968,0.,-49.9999999998254));
#246= IFCCARTESIANTRANSFORMATIONOPERATOR3D($,$,#245,$,$);
#247= IFCMAPPEDITEM(#140,#246);
#248= IFCCARTESIANPOINT((349.99999999996,0.,-49.9999999997817));
#249= IFCCARTESIANTRANSFORMATIONOPERATOR3D($,$,#248,$,$);
#250= IFCMAPPEDITEM(#140,#249);
#251= IFCCARTESIANPOINT((419.999999999952,0.,-49.9999999997308));
#252= IFCCARTESIANTRANSFORMATIONOPERATOR3D($,$,#251,$,$);
#253= IFCMAPPEDITEM(#140,#252);
#254= IFCSHAPEREPRESENTATION(#12,'Body','MappedRepresentation',(#214,#217,#220,#223,#226,#229,#232,#235,#238,#241,#244,#247,#250,#253));
#255= IFCPRODUCTDEFINITIONSHAPE($,$,(#254));
#256= IFCOPENINGELEMENT('2zyWjwnSP57hkLOTtZ4O7D',#5,$,$,'Opening',#211,#255,$);
#257= IFCRELVOIDSELEMENT('1eflSF$jj3SgIY16ipGLLj',#5,'Drill Hole',$,#106,#256);
#258= IFCCARTESIANPOINT((59674.9997253418,1603.38125423697,23600.));
#259= IFCDIRECTION((-0.000959355999824765,0.999999539817927,0.));
#260= IFCAXIS2PLACEMENT3D(#258,#259,#117);
#261= IFCLOCALPLACEMENT(#42,#260);
#262= IFCSHAPEREPRESENTATION(#12,'Body','MappedRepresentation',(#235,#238,#241,#244,#247,#250,#253,#214,#217,#220,#223,#226,#229,#232));
#263= IFCPRODUCTDEFINITIONSHAPE($,$,(#262));
#264= IFCOPENINGELEMENT('3k1bbjbX93gvOlTvOXebPj',#5,$,$,'Opening',#261,#263,$);
#265= IFCRELVOIDSELEMENT('220wXQHj10$f3zpDhER2Sd',#5,'Drill Hole',$,#106,#264);
#266= IFCCARTESIANPOINT((59499.9997277553,1778.38132995034,23600.));
#267= IFCDIRECTION((-0.99999999999983,5.82999997050136E-07,0.));
#268= IFCAXIS2PLACEMENT3D(#266,#267,#8);
#269= IFCLOCALPLACEMENT(#42,#268);
#270= IFCSHAPEREPRESENTATION(#12,'Body','MappedRepresentation',(#235,#238,#241,#244,#247,#250,#253,#214,#217,#220,#223,#226,#229,#232));
#271= IFCPRODUCTDEFINITIONSHAPE($,$,(#270));
#272= IFCOPENINGELEMENT('1Jy4v0NPb9Cgqw5eQq6POH',#5,$,$,'Opening',#269,#271,$);
#273= IFCRELVOIDSELEMENT('2DsPCIsSjDTABIN9qTBUC8',#5,'Drill Hole',$,#106,#272);
#274= IFCPROPERTYSINGLEVALUE('PieceMark',$,IFCIDENTIFIER('PLATE'),$);
#275= IFCPROPERTYSINGLEVALUE('IndicationMark',$,IFCIDENTIFIER('1282'),$);
#276= IFCPROPERTYSINGLEVALUE('PrelimMark',$,IFCIDENTIFIER(''),$);
#277= IFCPROPERTYSINGLEVALUE('MainPieceTag',$,IFCBOOLEAN(.F.),$);
#278= IFCPROPERTYSET('2eZnkz_7zFBh7rcgPH4mNj',#5,'AISC_EM11_Pset_PieceIdentification','PieceIdentity',(#274,#275,#276,#277));
#279= IFCPROPERTYSINGLEVALUE('MaterialType',$,IFCIDENTIFIER('STEEL'),$);
#280= IFCPROPERTYSINGLEVALUE('MaterialGrade',$,IFCIDENTIFIER('S235JR'),$);
#281= IFCPROPERTYSET('3wwj5QbejBCwVAaLzul3Ra',#5,'AISC_EM11_Pset_Material',$,(#279,#280));
#282= IFCMATERIAL('STEEL/S235JR');
#283= IFCRELAGGREGATES('122fSudwD4bgYDIU5sBXKM',#5,$,$,#37,(#39));
#284= IFCRELAGGREGATES('2KKxkAvCVMtyqVamN8Tpce',#5,$,$,#39,(#41));
#285= IFCRELAGGREGATES('1ywRf_9h56D8k7yFv0TB56',#5,$,$,#41,(#43));
#286= IFCRELCONTAINEDINSPATIALSTRUCTURE('2iWbF13w145h_k87mthCTc',#5,$,$,(#106),#43);
#287= IFCRELDEFINESBYPROPERTIES('0hDUpurV91pfb1AB8IpJoS',#5,$,$,(#124),#130);
#288= IFCRELDEFINESBYPROPERTIES('2H2F9ZKn1FgBFU2NDOhJBh',#5,$,$,(#272,#264,#256,#203),#207);
#289= IFCRELDEFINESBYPROPERTIES('1V7WtPS3T1LghSvilbEzFS',#5,$,$,(#106),#278);
#290= IFCRELDEFINESBYPROPERTIES('0KL5GerQ5EtvBckkFUP2ig',#5,$,$,(#106),#281);
#291= IFCRELASSOCIATESMATERIAL('15$J57YkD30hS1sj8tDnMr',#5,$,$,(#106),#282);
ENDSEC;

END-ISO-10303-21;
