ISO-10303-21;
HEADER;
FILE_DESCRIPTION(('ViewDefinition[AISC_Steel_Detailing]', 'Option [BaseQuantities:Off]', 'Option [GridExport:On]', 'Option [Assemblies:Off]', 'Option [Bolts:On]', 'Option [Rebars:On]', 'Option [PourObjects:Off]', 'Option [Welds:On]', 'Option [SurfaceTreatments:On]', 'Option [LocationBy:0]', 'Option [ViewColors:Off]', 'Option [SectionedSpine:Off]', 'Option [PropertySets:On]', 'Option [Export all:Off]'),'2;1');
FILE_NAME('1287_Qty_2.ifc','2026-05-16T11:52:53',('GIOVANNIPC\\gcorrea'),('Structural Designer'),'IFC Database version: Work','Tekla Structures 2020 Service Pack 5, IFC Export Version: 4.0.0.0 Dec  7 2020','');
FILE_SCHEMA(('IFC2X3'));
ENDSEC;

DATA;
#1= IFCPERSON('GIOVANNIPC\\gcorrea','Undefined',$,$,$,$,$,$);
#2= IFCORGANIZATION($,'Trimble Solutions Corporation',$,$,$);
#3= IFCPERSONANDORGANIZATION(#1,#2,$);
#4= IFCAPPLICATION(#2,'2020 Service Pack 5','Tekla Structures','Multi material modeling');
#5= IFCOWNERHISTORY(#3,#4,$,.NOCHANGE.,$,$,$,1778950373);
#6= IFCCARTESIANPOINT((0.,0.,0.));
#7= IFCDIRECTION((1.,0.,0.));
#8= IFCDIRECTION((0.,1.,0.));
#9= IFCDIRECTION((0.,0.,1.));
#10= IFCAXIS2PLACEMENT3D(#6,#9,#7);
#11= IFCGEOMETRICREPRESENTATIONCONTEXT($,'Model',3,1.E-05,#10,$);
#12= IFCGEOMETRICREPRESENTATIONSUBCONTEXT('Body','Model',*,*,*,*,#11,$,.MODEL_VIEW.,$);
#13= IFCGEOMETRICREPRESENTATIONSUBCONTEXT('Axis','Model',*,*,*,*,#11,$,.GRAPH_VIEW.,$);
#14= IFCGEOMETRICREPRESENTATIONSUBCONTEXT('FootPrint','Model',*,*,*,*,#11,$,.MODEL_VIEW.,$);
#15= IFCSIUNIT(*,.LENGTHUNIT.,.MILLI.,.METRE.);
#16= IFCMEASUREWITHUNIT(IFCRATIOMEASURE(304.8),#15);
#17= IFCDIMENSIONALEXPONENTS(1,0,0,0,0,0,0);
#18= IFCCONVERSIONBASEDUNIT(#17,.LENGTHUNIT.,'FOOT',#16);
#19= IFCSIUNIT(*,.AREAUNIT.,$,.SQUARE_METRE.);
#20= IFCMEASUREWITHUNIT(IFCRATIOMEASURE(0.09290304),#19);
#21= IFCDIMENSIONALEXPONENTS(2,0,0,0,0,0,0);
#22= IFCCONVERSIONBASEDUNIT(#21,.AREAUNIT.,'SQUARE FOOT',#20);
#23= IFCSIUNIT(*,.VOLUMEUNIT.,$,.CUBIC_METRE.);
#24= IFCMEASUREWITHUNIT(IFCRATIOMEASURE(0.028316846592),#23);
#25= IFCDIMENSIONALEXPONENTS(3,0,0,0,0,0,0);
#26= IFCCONVERSIONBASEDUNIT(#25,.VOLUMEUNIT.,'CUBIC FOOT',#24);
#27= IFCSIUNIT(*,.MASSUNIT.,.KILO.,.GRAM.);
#28= IFCSIUNIT(*,.TIMEUNIT.,$,.SECOND.);
#29= IFCSIUNIT(*,.PLANEANGLEUNIT.,$,.RADIAN.);
#30= IFCMEASUREWITHUNIT(IFCRATIOMEASURE(0.0174532925199433),#29);
#31= IFCDIMENSIONALEXPONENTS(0,0,0,0,0,0,0);
#32= IFCCONVERSIONBASEDUNIT(#31,.PLANEANGLEUNIT.,'DEGREE',#30);
#33= IFCSIUNIT(*,.SOLIDANGLEUNIT.,$,.STERADIAN.);
#34= IFCSIUNIT(*,.THERMODYNAMICTEMPERATUREUNIT.,$,.DEGREE_CELSIUS.);
#35= IFCSIUNIT(*,.LUMINOUSINTENSITYUNIT.,$,.LUMEN.);
#36= IFCUNITASSIGNMENT((#15,#19,#23,#27,#28,#29,#33,#34,#35));
#37= IFCPROJECT('2G7ZFDNE16yBDU14FA92Me',#5,'Proyecto',$,$,$,$,(#11),#36);
#38= IFCLOCALPLACEMENT($,#10);
#39= IFCSITE('2xvEzEinjBTea80yOTcujY',#5,'Obra',$,$,#38,$,$,.ELEMENT.,$,$,$,$,$);
#40= IFCLOCALPLACEMENT(#38,#10);
#41= IFCBUILDING('212bCKIiH8P8GIjWQ4k1yq',#5,'Undefined',$,$,#40,$,$,.ELEMENT.,$,$,$);
#42= IFCLOCALPLACEMENT(#40,#10);
#43= IFCBUILDINGSTOREY('29hdEUCErFze9E_VIAceOd',#5,'Undefined',$,$,#42,$,$,.ELEMENT.,0.);
#44= IFCOWNERHISTORY(#3,#4,$,.NOCHANGE.,$,$,$,1775070000);
#45= IFCCARTESIANPOINT((75865.1196740912,1703.38116522339,23609.5));
#46= IFCDIRECTION((-0.00119948699950375,-0.99999928061521,0.));
#47= IFCAXIS2PLACEMENT3D(#45,#9,#46);
#48= IFCLOCALPLACEMENT(#42,#47);
#49= IFCCARTESIANPOINT((0.,0.));
#50= IFCCARTESIANPOINT((200.000030517557,-1.45519152283669E-10));
#51= IFCCARTESIANPOINT((232.407653099038,332.435192930829));
#52= IFCPOLYLINE((#49,#50,#51));
#53= IFCCOMPOSITECURVESEGMENT(.CONTINUOUS.,.T.,#52);
#54= IFCDIRECTION((-0.99528208136893,0.0970235976756697));
#55= IFCCARTESIANPOINT((431.464069381046,313.030473394894));
#56= IFCAXIS2PLACEMENT2D(#55,#54);
#57= IFCCIRCLE(#56,200.);
#58= IFCTRIMMEDCURVE(#57,(IFCPARAMETERVALUE(0.)),(IFCPARAMETERVALUE(4.88271095282471)),.F.,.PARAMETER.);
#59= IFCCOMPOSITECURVESEGMENT(.CONTINUOUS.,.T.,#58);
#60= IFCCARTESIANPOINT((416.848010200859,512.495685442874));
#61= IFCCARTESIANPOINT((734.35766601555,535.761596675235));
#62= IFCCARTESIANPOINT((734.117797851488,735.761352533125));
#63= IFCCARTESIANPOINT((416.959989603467,758.26719993129));
#64= IFCPOLYLINE((#60,#61,#62,#63));
#65= IFCCOMPOSITECURVESEGMENT(.CONTINUOUS.,.T.,#64);
#66= IFCDIRECTION((-0.0707808393070017,-0.997491891088342));
#67= IFCCARTESIANPOINT((431.116157465188,957.765578153476));
#68= IFCAXIS2PLACEMENT2D(#67,#66);
#69= IFCCIRCLE(#68,200.);
#70= IFCTRIMMEDCURVE(#69,(IFCPARAMETERVALUE(0.)),(IFCPARAMETERVALUE(4.88407352114234)),.F.,.PARAMETER.);
#71= IFCCOMPOSITECURVESEGMENT(.CONTINUOUS.,.T.,#70);
#72= IFCCARTESIANPOINT((232.132256557745,937.630852392529));
#73= IFCCARTESIANPOINT((198.476409912094,1270.23889159205));
#74= IFCCARTESIANPOINT((-1.52304923533825,1269.75915526407));
#75= IFCCARTESIANPOINT((-37.1978510203299,908.815648991142));
#76= IFCPOLYLINE((#72,#73,#74,#75));
#77= IFCCOMPOSITECURVESEGMENT(.CONTINUOUS.,.T.,#76);
#78= IFCDIRECTION((0.995153478207243,-0.0983338945228264));
#79= IFCCARTESIANPOINT((-236.228546646664,928.482427894214));
#80= IFCAXIS2PLACEMENT2D(#79,#78);
#81= IFCCIRCLE(#80,200.);
#82= IFCTRIMMEDCURVE(#81,(IFCPARAMETERVALUE(0.)),(IFCPARAMETERVALUE(5.06391323272944)),.F.,.PARAMETER.);
#83= IFCCOMPOSITECURVESEGMENT(.CONTINUOUS.,.T.,#82);
#84= IFCCARTESIANPOINT((-186.160591469471,734.850819270261));
#85= IFCCARTESIANPOINT((-535.773559570253,644.450256343262));
#86= IFCCARTESIANPOINT((-535.533691406192,444.450408932622));
#87= IFCCARTESIANPOINT((-226.047939030532,444.821546219706));
#88= IFCPOLYLINE((#84,#85,#86,#87));
#89= IFCCOMPOSITECURVESEGMENT(.CONTINUOUS.,.T.,#88);
#90= IFCDIRECTION((-0.00120488697254131,0.999999274123428));
#91= IFCCARTESIANPOINT((-225.806961636025,244.821691396576));
#92= IFCAXIS2PLACEMENT2D(#91,#90);
#93= IFCCIRCLE(#92,200.);
#94= IFCTRIMMEDCURVE(#93,(IFCPARAMETERVALUE(0.)),(IFCPARAMETERVALUE(4.81207610605296)),.F.,.PARAMETER.);
#95= IFCCOMPOSITECURVESEGMENT(.CONTINUOUS.,.T.,#94);
#96= IFCCARTESIANPOINT((-26.8240182905414,264.965878075262));
#97= IFCPOLYLINE((#96,#49));
#98= IFCCOMPOSITECURVESEGMENT(.CONTINUOUS.,.T.,#97);
#99= IFCCOMPOSITECURVE((#53,#59,#65,#71,#77,#83,#89,#95,#98),.T.);
#100= IFCARBITRARYCLOSEDPROFILEDEF(.AREA.,'PL19*1270',#99);
#101= IFCCARTESIANPOINT((0.,0.,-9.5));
#102= IFCAXIS2PLACEMENT3D(#101,#9,#7);
#103= IFCEXTRUDEDAREASOLID(#100,#102,#9,19.);
#104= IFCSHAPEREPRESENTATION(#12,'Body','SweptSolid',(#103));
#105= IFCPRODUCTDEFINITIONSHAPE($,$,(#104));
#106= IFCPLATE('1c04crWUL10PZgOo2KQSKW',#44,'PLATE','PL19*1270','PL19*1270',#48,#105,'ID660049b5-81e5-4101-98ea-63209469c520');
#107= IFCLOCALPLACEMENT(#42,#47);
#108= IFCDIRECTION((1.,0.));
#109= IFCAXIS2PLACEMENT2D(#49,#108);
#110= IFCRECTANGLEPROFILEDEF(.AREA.,'[]255*1',#109,255.,255.);
#111= IFCDIRECTION((0.00119948699950375,-0.99999928061521,0.));
#112= IFCDIRECTION((0.,0.,-1.));
#113= IFCCARTESIANPOINT((99.238203487545,634.999817652963,40.5));
#114= IFCAXIS2PLACEMENT3D(#113,#112,#111);
#115= IFCEXTRUDEDAREASOLID(#110,#114,#9,9750.);
#116= IFCSHAPEREPRESENTATION(#12,'Body','SweptSolid',(#115));
#117= IFCPRODUCTDEFINITIONSHAPE($,$,(#116));
#118= IFCOPENINGELEMENT('2BfdbsKdv6LhQuQ1vmq46H',#5,$,$,'Recess',#107,#117,$);
#119= IFCRELVOIDSELEMENT('1yvBMUZSz5DOITRVvU1jpN',#5,$,$,#106,#118);
#120= IFCPROPERTYSINGLEVALUE('FeatureSubTypes',$,$,$);
#121= IFCPROPERTYSINGLEVALUE('RectangleOpeningWidth',$,$,$);
#122= IFCPROPERTYSINGLEVALUE('RectangleOpeningHeight',$,IFCPOSITIVELENGTHMEASURE(255.),$);
#123= IFCPROPERTYSINGLEVALUE('OpeningDiameter',$,$,$);
#124= IFCPROPERTYSET('3PnRYt5a10jOq9WitOxJxC',#5,'AISC_EM11_Pset_Opening/Cope',$,(#120,#121,#122,#123));
#125= IFCCARTESIANPOINT((76405.2121276855,1778.38135910034,23600.));
#126= IFCDIRECTION((-1.,0.,0.));
#127= IFCAXIS2PLACEMENT3D(#125,#126,#8);
#128= IFCLOCALPLACEMENT(#42,#127);
#129= IFCCIRCLEPROFILEDEF(.AREA.,$,#109,12.5);
#130= IFCCARTESIANPOINT((0.,-19.0999999999989,0.));
#131= IFCAXIS2PLACEMENT3D(#130,#8,#7);
#132= IFCEXTRUDEDAREASOLID(#129,#131,#9,19.2);
#133= IFCSHAPEREPRESENTATION(#12,'Body','SweptSolid',(#132));
#134= IFCREPRESENTATIONMAP(#10,#133);
#135= IFCCARTESIANPOINT((0.,0.,-50.));
#136= IFCCARTESIANTRANSFORMATIONOPERATOR3D($,$,#135,$,$);
#137= IFCMAPPEDITEM(#134,#136);
#138= IFCCARTESIANPOINT((70.,0.,-50.));
#139= IFCCARTESIANTRANSFORMATIONOPERATOR3D($,$,#138,$,$);
#140= IFCMAPPEDITEM(#134,#139);
#141= IFCCARTESIANPOINT((140.,0.,-50.));
#142= IFCCARTESIANTRANSFORMATIONOPERATOR3D($,$,#141,$,$);
#143= IFCMAPPEDITEM(#134,#142);
#144= IFCCARTESIANPOINT((210.,0.,-50.));
#145= IFCCARTESIANTRANSFORMATIONOPERATOR3D($,$,#144,$,$);
#146= IFCMAPPEDITEM(#134,#145);
#147= IFCCARTESIANPOINT((280.,0.,-50.));
#148= IFCCARTESIANTRANSFORMATIONOPERATOR3D($,$,#147,$,$);
#149= IFCMAPPEDITEM(#134,#148);
#150= IFCCARTESIANPOINT((350.,0.,-50.));
#151= IFCCARTESIANTRANSFORMATIONOPERATOR3D($,$,#150,$,$);
#152= IFCMAPPEDITEM(#134,#151);
#153= IFCCARTESIANPOINT((420.,0.,-50.));
#154= IFCCARTESIANTRANSFORMATIONOPERATOR3D($,$,#153,$,$);
#155= IFCMAPPEDITEM(#134,#154);
#156= IFCCARTESIANPOINT((0.,0.,50.));
#157= IFCCARTESIANTRANSFORMATIONOPERATOR3D($,$,#156,$,$);
#158= IFCMAPPEDITEM(#134,#157);
#159= IFCCARTESIANPOINT((70.,0.,50.));
#160= IFCCARTESIANTRANSFORMATIONOPERATOR3D($,$,#159,$,$);
#161= IFCMAPPEDITEM(#134,#160);
#162= IFCCARTESIANPOINT((140.,0.,50.));
#163= IFCCARTESIANTRANSFORMATIONOPERATOR3D($,$,#162,$,$);
#164= IFCMAPPEDITEM(#134,#163);
#165= IFCCARTESIANPOINT((210.,0.,50.));
#166= IFCCARTESIANTRANSFORMATIONOPERATOR3D($,$,#165,$,$);
#167= IFCMAPPEDITEM(#134,#166);
#168= IFCCARTESIANPOINT((280.,0.,50.));
#169= IFCCARTESIANTRANSFORMATIONOPERATOR3D($,$,#168,$,$);
#170= IFCMAPPEDITEM(#134,#169);
#171= IFCCARTESIANPOINT((350.,0.,50.));
#172= IFCCARTESIANTRANSFORMATIONOPERATOR3D($,$,#171,$,$);
#173= IFCMAPPEDITEM(#134,#172);
#174= IFCCARTESIANPOINT((420.,0.,50.));
#175= IFCCARTESIANTRANSFORMATIONOPERATOR3D($,$,#174,$,$);
#176= IFCMAPPEDITEM(#134,#175);
#177= IFCSHAPEREPRESENTATION(#12,'Body','MappedRepresentation',(#137,#140,#143,#146,#149,#152,#155,#158,#161,#164,#167,#170,#173,#176));
#178= IFCPRODUCTDEFINITIONSHAPE($,$,(#177));
#179= IFCOPENINGELEMENT('3lnz7IfZv8CBTX$7JWpUoY',#5,$,$,'Opening',#128,#178,$);
#180= IFCRELVOIDSELEMENT('19O4oMkOvFwesFtsBgVvOp',#5,'Drill Hole',$,#106,#179);
#181= IFCPROPERTYSINGLEVALUE('FeatureSubTypes',$,IFCLABEL('TORNILLO'),$);
#182= IFCPROPERTYSINGLEVALUE('RectangleOpeningHeight',$,$,$);
#183= IFCPROPERTYSET('2$ZlBHMHDBHhycEEZrzVmn',#5,'AISC_EM11_Pset_Opening/Cope',$,(#181,#121,#182,#123));
#184= IFCCARTESIANPOINT((76500.,1428.38135910034,23600.));
#185= IFCDIRECTION((-3.50000056063788E-08,-0.999999999999999,0.));
#186= IFCAXIS2PLACEMENT3D(#184,#7,#185);
#187= IFCLOCALPLACEMENT(#42,#186);
#188= IFCSHAPEREPRESENTATION(#12,'Body','MappedRepresentation',(#137,#140,#143,#146,#149,#152,#155,#158,#161,#164,#167,#170,#173,#176));
#189= IFCPRODUCTDEFINITIONSHAPE($,$,(#188));
#190= IFCOPENINGELEMENT('2fvdAx3Cz1VPetIBtJfWJe',#5,$,$,'Opening',#187,#189,$);
#191= IFCRELVOIDSELEMENT('2Pvke41Ln3wvN7DDo1ZcC_',#5,'Drill Hole',$,#106,#190);
#192= IFCCARTESIANPOINT((76675.,1603.38125393697,23600.));
#193= IFCDIRECTION((-0.00119919599995774,0.999999280964218,0.));
#194= IFCDIRECTION((0.999999280964218,0.00119919599995715,0.));
#195= IFCAXIS2PLACEMENT3D(#192,#193,#194);
#196= IFCLOCALPLACEMENT(#42,#195);
#197= IFCSHAPEREPRESENTATION(#12,'Body','MappedRepresentation',(#137,#140,#143,#146,#149,#152,#155,#158,#161,#164,#167,#170,#173,#176));
#198= IFCPRODUCTDEFINITIONSHAPE($,$,(#197));
#199= IFCOPENINGELEMENT('3lUYLNGkHFuhMqn8171BpU',#5,$,$,'Opening',#196,#198,$);
#200= IFCRELVOIDSELEMENT('2hVB7coY1Beh1_2K4LT5DE',#5,'Drill Hole',$,#106,#199);
#201= IFCCARTESIANPOINT((76325.,1603.38125423697,23600.));
#202= IFCAXIS2PLACEMENT3D(#201,#185,#126);
#203= IFCLOCALPLACEMENT(#42,#202);
#204= IFCSHAPEREPRESENTATION(#12,'Body','MappedRepresentation',(#137,#140,#143,#146,#149,#152,#155,#158,#161,#164,#167,#170,#173,#176));
#205= IFCPRODUCTDEFINITIONSHAPE($,$,(#204));
#206= IFCOPENINGELEMENT('1HMiZDZFv0tOln9KkfgA7m',#5,$,$,'Opening',#203,#205,$);
#207= IFCRELVOIDSELEMENT('1e5l4_pdb3_eMcbROxNf03',#5,'Drill Hole',$,#106,#206);
#208= IFCPROPERTYSINGLEVALUE('PieceMark',$,IFCIDENTIFIER('PLATE'),$);
#209= IFCPROPERTYSINGLEVALUE('IndicationMark',$,IFCIDENTIFIER('1287'),$);
#210= IFCPROPERTYSINGLEVALUE('PrelimMark',$,IFCIDENTIFIER(''),$);
#211= IFCPROPERTYSINGLEVALUE('MainPieceTag',$,IFCBOOLEAN(.F.),$);
#212= IFCPROPERTYSET('0doRCd0xH27AKdiw$OGiIP',#5,'AISC_EM11_Pset_PieceIdentification','PieceIdentity',(#208,#209,#210,#211));
#213= IFCPROPERTYSINGLEVALUE('MaterialType',$,IFCIDENTIFIER('STEEL'),$);
#214= IFCPROPERTYSINGLEVALUE('MaterialGrade',$,IFCIDENTIFIER('S235JR'),$);
#215= IFCPROPERTYSET('1bW6_wswf2FORFjpcu9ium',#5,'AISC_EM11_Pset_Material',$,(#213,#214));
#216= IFCMATERIAL('STEEL/S235JR');
#217= IFCRELAGGREGATES('23AnQ2M5z3eeEZ6TqBqzRw',#5,$,$,#37,(#39));
#218= IFCRELAGGREGATES('2LS3iKeNFLwwWrOl6T6FjC',#5,$,$,#39,(#41));
#219= IFCRELAGGREGATES('1H7LLmBpP9xRok_7$MeVOh',#5,$,$,#41,(#43));
#220= IFCRELCONTAINEDINSPATIALSTRUCTURE('1xtmpx8Xn6cg0Bm0C5qHMB',#5,$,$,(#106),#43);
#221= IFCRELDEFINESBYPROPERTIES('0Usrhuz_D6_f5R322VbBuw',#5,$,$,(#118),#124);
#222= IFCRELDEFINESBYPROPERTIES('3TiipKt6X7iuCxSqtX6IGe',#5,$,$,(#206,#199,#190,#179),#183);
#223= IFCRELDEFINESBYPROPERTIES('1KLjnbGGP6m8a3iU2XuxCB',#5,$,$,(#106),#212);
#224= IFCRELDEFINESBYPROPERTIES('006O7Wbo5EsudZaV_yhZS8',#5,$,$,(#106),#215);
#225= IFCRELASSOCIATESMATERIAL('2xzxcpmaf8rQrzPZ3OhkA5',#5,$,$,(#106),#216);
ENDSEC;

END-ISO-10303-21;
