ISO-10303-21;
HEADER;
FILE_DESCRIPTION(('ViewDefinition[AISC_Steel_Detailing]', 'Option [BaseQuantities:Off]', 'Option [GridExport:On]', 'Option [Assemblies:Off]', 'Option [Bolts:On]', 'Option [Rebars:On]', 'Option [PourObjects:Off]', 'Option [Welds:On]', 'Option [SurfaceTreatments:On]', 'Option [LocationBy:0]', 'Option [ViewColors:Off]', 'Option [SectionedSpine:Off]', 'Option [PropertySets:On]', 'Option [Export all:Off]'),'2;1');
FILE_NAME('1296_Qty_1.ifc','2026-05-16T11:52:56',('GIOVANNIPC\\gcorrea'),('Structural Designer'),'IFC Database version: Work','Tekla Structures 2020 Service Pack 5, IFC Export Version: 4.0.0.0 Dec  7 2020','');
FILE_SCHEMA(('IFC2X3'));
ENDSEC;

DATA;
#1= IFCPERSON('GIOVANNIPC\\gcorrea','Undefined',$,$,$,$,$,$);
#2= IFCORGANIZATION($,'Trimble Solutions Corporation',$,$,$);
#3= IFCPERSONANDORGANIZATION(#1,#2,$);
#4= IFCAPPLICATION(#2,'2020 Service Pack 5','Tekla Structures','Multi material modeling');
#5= IFCOWNERHISTORY(#3,#4,$,.NOCHANGE.,$,$,$,1778950376);
#6= IFCCARTESIANPOINT((0.,0.,0.));
#7= IFCDIRECTION((1.,0.,0.));
#8= IFCDIRECTION((0.,1.,0.));
#9= IFCDIRECTION((0.,0.,1.));
#10= IFCAXIS2PLACEMENT3D(#6,#9,#7);
#11= IFCGEOMETRICREPRESENTATIONCONTEXT($,'Model',3,1.E-05,#10,$);
#12= IFCGEOMETRICREPRESENTATIONSUBCONTEXT('Body','Model',*,*,*,*,#11,$,.MODEL_VIEW.,$);
#13= IFCGEOMETRICREPRESENTATIONSUBCONTEXT('Axis','Model',*,*,*,*,#11,$,.GRAPH_VIEW.,$);
#14= IFCGEOMETRICREPRESENTATIONSUBCONTEXT('FootPrint','Model',*,*,*,*,#11,$,.MODEL_VIEW.,$);
#15= IFCSIUNIT(*,.LENGTHUNIT.,.MILLI.,.METRE.);
#16= IFCMEASUREWITHUNIT(IFCRATIOMEASURE(304.8),#15);
#17= IFCDIMENSIONALEXPONENTS(1,0,0,0,0,0,0);
#18= IFCCONVERSIONBASEDUNIT(#17,.LENGTHUNIT.,'FOOT',#16);
#19= IFCSIUNIT(*,.AREAUNIT.,$,.SQUARE_METRE.);
#20= IFCMEASUREWITHUNIT(IFCRATIOMEASURE(0.09290304),#19);
#21= IFCDIMENSIONALEXPONENTS(2,0,0,0,0,0,0);
#22= IFCCONVERSIONBASEDUNIT(#21,.AREAUNIT.,'SQUARE FOOT',#20);
#23= IFCSIUNIT(*,.VOLUMEUNIT.,$,.CUBIC_METRE.);
#24= IFCMEASUREWITHUNIT(IFCRATIOMEASURE(0.028316846592),#23);
#25= IFCDIMENSIONALEXPONENTS(3,0,0,0,0,0,0);
#26= IFCCONVERSIONBASEDUNIT(#25,.VOLUMEUNIT.,'CUBIC FOOT',#24);
#27= IFCSIUNIT(*,.MASSUNIT.,.KILO.,.GRAM.);
#28= IFCSIUNIT(*,.TIMEUNIT.,$,.SECOND.);
#29= IFCSIUNIT(*,.PLANEANGLEUNIT.,$,.RADIAN.);
#30= IFCMEASUREWITHUNIT(IFCRATIOMEASURE(0.0174532925199433),#29);
#31= IFCDIMENSIONALEXPONENTS(0,0,0,0,0,0,0);
#32= IFCCONVERSIONBASEDUNIT(#31,.PLANEANGLEUNIT.,'DEGREE',#30);
#33= IFCSIUNIT(*,.SOLIDANGLEUNIT.,$,.STERADIAN.);
#34= IFCSIUNIT(*,.THERMODYNAMICTEMPERATUREUNIT.,$,.DEGREE_CELSIUS.);
#35= IFCSIUNIT(*,.LUMINOUSINTENSITYUNIT.,$,.LUMEN.);
#36= IFCUNITASSIGNMENT((#15,#19,#23,#27,#28,#29,#33,#34,#35));
#37= IFCPROJECT('2G7ZFDNE16yBDU14FA92Me',#5,'Proyecto',$,$,$,$,(#11),#36);
#38= IFCLOCALPLACEMENT($,#10);
#39= IFCSITE('2xvEzEinjBTea80yOTcujY',#5,'Obra',$,$,#38,$,$,.ELEMENT.,$,$,$,$,$);
#40= IFCLOCALPLACEMENT(#38,#10);
#41= IFCBUILDING('1uV0nusBjFM8nKxwLO87Lc',#5,'Undefined',$,$,#40,$,$,.ELEMENT.,$,$,$);
#42= IFCLOCALPLACEMENT(#40,#10);
#43= IFCBUILDINGSTOREY('29hdEUCErFze9E_VIAceOd',#5,'Undefined',$,$,#42,$,$,.ELEMENT.,0.);
#44= IFCOWNERHISTORY(#3,#4,$,.NOCHANGE.,$,$,$,1775066400);
#45= IFCCARTESIANPOINT((58605.1196740912,1728.38116522339,18900.5));
#46= IFCDIRECTION((-0.000959589999608831,-0.99999953959341,0.));
#47= IFCAXIS2PLACEMENT3D(#45,#9,#46);
#48= IFCLOCALPLACEMENT(#42,#47);
#49= IFCCARTESIANPOINT((0.,0.));
#50= IFCCARTESIANPOINT((249.999999999953,5.60248736292124E-10));
#51= IFCCARTESIANPOINT((273.629699706981,760.142944334351));
#52= IFCCARTESIANPOINT((274.14956665034,802.616638181884));
#53= IFCCARTESIANPOINT((273.957611083934,1002.61651611099));
#54= IFCCARTESIANPOINT((274.011566162059,1030.14343261481));
#55= IFCCARTESIANPOINT((248.282119750932,1790.23901366723));
#56= IFCCARTESIANPOINT((-1.71742391586054,1789.75927733854));
#57= IFCCARTESIANPOINT((-25.9883041381775,1029.85559081726));
#58= IFCCARTESIANPOINT((-25.7292213439885,759.855712888355));
#59= IFCPOLYLINE((#49,#50,#51,#52,#53,#54,#55,#56,#57,#58,#49));
#60= IFCARBITRARYCLOSEDPROFILEDEF(.AREA.,'PL19*308',#59);
#61= IFCCARTESIANPOINT((0.,0.,-9.5));
#62= IFCAXIS2PLACEMENT3D(#61,#9,#7);
#63= IFCEXTRUDEDAREASOLID(#60,#62,#9,19.);
#64= IFCSHAPEREPRESENTATION(#12,'Body','SweptSolid',(#63));
#65= IFCPRODUCTDEFINITIONSHAPE($,$,(#64));
#66= IFCPLATE('0nrrpSKC193gqaB3WLtrKF',#44,'PLATE','PL19*308','PL19*308',#48,#65,'ID31d75cdc-50c0-490e-ad24-2c3815df550f');
#67= IFCLOCALPLACEMENT(#42,#47);
#68= IFCDIRECTION((1.,0.));
#69= IFCAXIS2PLACEMENT2D(#49,#68);
#70= IFCRECTANGLEPROFILEDEF(.AREA.,'[]255*1',#69,255.,255.);
#71= IFCDIRECTION((0.000959589999608831,-0.99999953959341,0.));
#72= IFCDIRECTION((0.,0.,-1.));
#73= IFCCARTESIANPOINT((124.141030624289,894.999587805847,4699.5));
#74= IFCAXIS2PLACEMENT3D(#73,#72,#71);
#75= IFCEXTRUDEDAREASOLID(#70,#74,#9,9681.);
#76= IFCCARTESIANPOINT((124.021081874338,1019.99953025507,-4981.5));
#77= IFCDIRECTION((0.99999953959341,0.000959589999612945,0.));
#78= IFCAXIS2PLACEMENT3D(#76,#9,#77);
#79= IFCPLANE(#78);
#80= IFCHALFSPACESOLID(#79,.T.);
#81= IFCBOOLEANCLIPPINGRESULT(.DIFFERENCE.,#75,#80);
#82= IFCSHAPEREPRESENTATION(#12,'Body','Clipping',(#81));
#83= IFCPRODUCTDEFINITIONSHAPE($,$,(#82));
#84= IFCOPENINGELEMENT('02SrMOmBn4MPEweZKo5xTp',#5,$,$,'Recess',#67,#83,$);
#85= IFCRELVOIDSELEMENT('3ifCkmChT7xR0ju5k59l9I',#5,$,$,#66,#84);
#86= IFCPROPERTYSINGLEVALUE('FeatureSubTypes',$,$,$);
#87= IFCPROPERTYSINGLEVALUE('RectangleOpeningWidth',$,$,$);
#88= IFCPROPERTYSINGLEVALUE('RectangleOpeningHeight',$,IFCPOSITIVELENGTHMEASURE(255.),$);
#89= IFCPROPERTYSINGLEVALUE('OpeningDiameter',$,$,$);
#90= IFCPROPERTYSET('1EtJb7fTvBVgbQZgOqA4mT',#5,'AISC_EM11_Pset_Opening/Cope',$,(#86,#87,#88,#89));
#91= IFCCARTESIANPOINT((59324.9997253418,1603.38122277425,18910.));
#92= IFCDIRECTION((-1.,0.,0.));
#93= IFCAXIS2PLACEMENT3D(#91,#8,#92);
#94= IFCLOCALPLACEMENT(#42,#93);
#95= IFCCIRCLEPROFILEDEF(.AREA.,$,#69,12.5);
#96= IFCCARTESIANPOINT((0.,-19.0999999999991,0.));
#97= IFCAXIS2PLACEMENT3D(#96,#8,#7);
#98= IFCEXTRUDEDAREASOLID(#95,#97,#9,19.2);
#99= IFCSHAPEREPRESENTATION(#12,'Body','SweptSolid',(#98));
#100= IFCREPRESENTATIONMAP(#10,#99);
#101= IFCCARTESIANPOINT((0.,0.,-75.));
#102= IFCCARTESIANTRANSFORMATIONOPERATOR3D($,$,#101,$,$);
#103= IFCMAPPEDITEM(#100,#102);
#104= IFCCARTESIANPOINT((75.,0.,-75.));
#105= IFCCARTESIANTRANSFORMATIONOPERATOR3D($,$,#104,$,$);
#106= IFCMAPPEDITEM(#100,#105);
#107= IFCCARTESIANPOINT((150.,0.,-75.));
#108= IFCCARTESIANTRANSFORMATIONOPERATOR3D($,$,#107,$,$);
#109= IFCMAPPEDITEM(#100,#108);
#110= IFCCARTESIANPOINT((225.,0.,-75.));
#111= IFCCARTESIANTRANSFORMATIONOPERATOR3D($,$,#110,$,$);
#112= IFCMAPPEDITEM(#100,#111);
#113= IFCCARTESIANPOINT((300.,0.,-75.));
#114= IFCCARTESIANTRANSFORMATIONOPERATOR3D($,$,#113,$,$);
#115= IFCMAPPEDITEM(#100,#114);
#116= IFCCARTESIANPOINT((375.,0.,-75.));
#117= IFCCARTESIANTRANSFORMATIONOPERATOR3D($,$,#116,$,$);
#118= IFCMAPPEDITEM(#100,#117);
#119= IFCCARTESIANPOINT((450.,0.,-75.));
#120= IFCCARTESIANTRANSFORMATIONOPERATOR3D($,$,#119,$,$);
#121= IFCMAPPEDITEM(#100,#120);
#122= IFCCARTESIANPOINT((525.,0.,-75.));
#123= IFCCARTESIANTRANSFORMATIONOPERATOR3D($,$,#122,$,$);
#124= IFCMAPPEDITEM(#100,#123);
#125= IFCCARTESIANPOINT((600.,0.,-75.));
#126= IFCCARTESIANTRANSFORMATIONOPERATOR3D($,$,#125,$,$);
#127= IFCMAPPEDITEM(#100,#126);
#128= IFCCARTESIANPOINT((675.,0.,-75.));
#129= IFCCARTESIANTRANSFORMATIONOPERATOR3D($,$,#128,$,$);
#130= IFCMAPPEDITEM(#100,#129);
#131= IFCCARTESIANPOINT((0.,0.,75.));
#132= IFCCARTESIANTRANSFORMATIONOPERATOR3D($,$,#131,$,$);
#133= IFCMAPPEDITEM(#100,#132);
#134= IFCCARTESIANPOINT((75.,0.,75.));
#135= IFCCARTESIANTRANSFORMATIONOPERATOR3D($,$,#134,$,$);
#136= IFCMAPPEDITEM(#100,#135);
#137= IFCCARTESIANPOINT((150.,0.,75.));
#138= IFCCARTESIANTRANSFORMATIONOPERATOR3D($,$,#137,$,$);
#139= IFCMAPPEDITEM(#100,#138);
#140= IFCCARTESIANPOINT((225.,0.,75.));
#141= IFCCARTESIANTRANSFORMATIONOPERATOR3D($,$,#140,$,$);
#142= IFCMAPPEDITEM(#100,#141);
#143= IFCCARTESIANPOINT((300.,0.,75.));
#144= IFCCARTESIANTRANSFORMATIONOPERATOR3D($,$,#143,$,$);
#145= IFCMAPPEDITEM(#100,#144);
#146= IFCCARTESIANPOINT((375.,0.,75.));
#147= IFCCARTESIANTRANSFORMATIONOPERATOR3D($,$,#146,$,$);
#148= IFCMAPPEDITEM(#100,#147);
#149= IFCCARTESIANPOINT((450.,0.,75.));
#150= IFCCARTESIANTRANSFORMATIONOPERATOR3D($,$,#149,$,$);
#151= IFCMAPPEDITEM(#100,#150);
#152= IFCCARTESIANPOINT((525.,0.,75.));
#153= IFCCARTESIANTRANSFORMATIONOPERATOR3D($,$,#152,$,$);
#154= IFCMAPPEDITEM(#100,#153);
#155= IFCCARTESIANPOINT((600.,0.,75.));
#156= IFCCARTESIANTRANSFORMATIONOPERATOR3D($,$,#155,$,$);
#157= IFCMAPPEDITEM(#100,#156);
#158= IFCCARTESIANPOINT((675.,0.,75.));
#159= IFCCARTESIANTRANSFORMATIONOPERATOR3D($,$,#158,$,$);
#160= IFCMAPPEDITEM(#100,#159);
#161= IFCSHAPEREPRESENTATION(#12,'Body','MappedRepresentation',(#103,#106,#109,#112,#115,#118,#121,#124,#127,#130,#133,#136,#139,#142,#145,#148,#151,#154,#157,#160));
#162= IFCPRODUCTDEFINITIONSHAPE($,$,(#161));
#163= IFCOPENINGELEMENT('3YBhv7ZnD26A$PQVXO7pLJ',#5,$,$,'Opening',#94,#162,$);
#164= IFCRELVOIDSELEMENT('09O$ATd2fDyR0Dfc5T6Knx',#5,'Drill Hole',$,#66,#163);
#165= IFCPROPERTYSINGLEVALUE('FeatureSubTypes',$,IFCLABEL('TORNILLO'),$);
#166= IFCPROPERTYSINGLEVALUE('RectangleOpeningHeight',$,$,$);
#167= IFCPROPERTYSET('1rtpLbvJDBNPZc_DpeUv15',#5,'AISC_EM11_Pset_Opening/Cope',$,(#165,#87,#166,#89));
#168= IFCCARTESIANPOINT((59679.9997253418,1603.38122277425,18910.));
#169= IFCDIRECTION((0.,-1.,0.));
#170= IFCAXIS2PLACEMENT3D(#168,#169,#7);
#171= IFCLOCALPLACEMENT(#42,#170);
#172= IFCSHAPEREPRESENTATION(#12,'Body','MappedRepresentation',(#103,#106,#109,#112,#115,#118,#121,#124,#127,#130,#133,#136,#139,#142,#145,#148,#151,#154,#157,#160));
#173= IFCPRODUCTDEFINITIONSHAPE($,$,(#172));
#174= IFCOPENINGELEMENT('0X40sZ$XX4aP4K8GOBWnF_',#5,$,$,'Opening',#171,#173,$);
#175= IFCRELVOIDSELEMENT('31VYQ6keH55R38FRHJrIs0',#5,'Drill Hole',$,#66,#174);
#176= IFCPROPERTYSINGLEVALUE('PieceMark',$,IFCIDENTIFIER('PLATE'),$);
#177= IFCPROPERTYSINGLEVALUE('IndicationMark',$,IFCIDENTIFIER('1296'),$);
#178= IFCPROPERTYSINGLEVALUE('PrelimMark',$,IFCIDENTIFIER(''),$);
#179= IFCPROPERTYSINGLEVALUE('MainPieceTag',$,IFCBOOLEAN(.F.),$);
#180= IFCPROPERTYSET('3L7Q8u3GP7a8Dtb$HEnDY0',#5,'AISC_EM11_Pset_PieceIdentification','PieceIdentity',(#176,#177,#178,#179));
#181= IFCPROPERTYSINGLEVALUE('MaterialType',$,IFCIDENTIFIER('STEEL'),$);
#182= IFCPROPERTYSINGLEVALUE('MaterialGrade',$,IFCIDENTIFIER('S235JR'),$);
#183= IFCPROPERTYSET('3akUADGyX0t9OXB1GWV55O',#5,'AISC_EM11_Pset_Material',$,(#181,#182));
#184= IFCMATERIAL('STEEL/S235JR');
#185= IFCRELAGGREGATES('3VAAD7xFT11fJEgGVWue8R',#5,$,$,#37,(#39));
#186= IFCRELAGGREGATES('2nSSVPDXlJJxbWyYnoAwQj',#5,$,$,#39,(#41));
#187= IFCRELAGGREGATES('2t3MNYlgb3LPf0qYci63Mc',#5,$,$,#41,(#43));
#188= IFCRELCONTAINEDINSPATIALSTRUCTURE('0WUlY0E$j5uBc8cYm4DrzS',#5,$,$,(#66),#43);
#189= IFCRELDEFINESBYPROPERTIES('311jHwhuLCiRa94tm_KUZ$',#5,$,$,(#84),#90);
#190= IFCRELDEFINESBYPROPERTIES('0PnKar8x9BO8dCAE0id6AF',#5,$,$,(#174,#163),#167);
#191= IFCRELDEFINESBYPROPERTIES('0fso7jcIX228L$wERXN1uM',#5,$,$,(#66),#180);
#192= IFCRELDEFINESBYPROPERTIES('2kYEFonur9Ahc2T2MQrVOL',#5,$,$,(#66),#183);
#193= IFCRELASSOCIATESMATERIAL('3F62oEzOTCfPXRLwzBqMxM',#5,$,$,(#66),#184);
ENDSEC;

END-ISO-10303-21;
