ISO-10303-21;
HEADER;
FILE_DESCRIPTION(('ViewDefinition[AISC_Steel_Detailing]', 'Option [BaseQuantities:Off]', 'Option [GridExport:On]', 'Option [Assemblies:Off]', 'Option [Bolts:On]', 'Option [Rebars:On]', 'Option [PourObjects:Off]', 'Option [Welds:On]', 'Option [SurfaceTreatments:On]', 'Option [LocationBy:0]', 'Option [ViewColors:Off]', 'Option [SectionedSpine:Off]', 'Option [PropertySets:On]', 'Option [Export all:Off]'),'2;1');
FILE_NAME('1298_Qty_4.ifc','2026-05-16T11:52:52',('GIOVANNIPC\\gcorrea'),('Structural Designer'),'IFC Database version: Work','Tekla Structures 2020 Service Pack 5, IFC Export Version: 4.0.0.0 Dec  7 2020','');
FILE_SCHEMA(('IFC2X3'));
ENDSEC;

DATA;
#1= IFCPERSON('GIOVANNIPC\\gcorrea','Undefined',$,$,$,$,$,$);
#2= IFCORGANIZATION($,'Trimble Solutions Corporation',$,$,$);
#3= IFCPERSONANDORGANIZATION(#1,#2,$);
#4= IFCAPPLICATION(#2,'2020 Service Pack 5','Tekla Structures','Multi material modeling');
#5= IFCOWNERHISTORY(#3,#4,$,.NOCHANGE.,$,$,$,1778950372);
#6= IFCCARTESIANPOINT((0.,0.,0.));
#7= IFCDIRECTION((1.,0.,0.));
#8= IFCDIRECTION((0.,1.,0.));
#9= IFCDIRECTION((0.,0.,1.));
#10= IFCAXIS2PLACEMENT3D(#6,#9,#7);
#11= IFCGEOMETRICREPRESENTATIONCONTEXT($,'Model',3,1.E-05,#10,$);
#12= IFCGEOMETRICREPRESENTATIONSUBCONTEXT('Body','Model',*,*,*,*,#11,$,.MODEL_VIEW.,$);
#13= IFCGEOMETRICREPRESENTATIONSUBCONTEXT('Axis','Model',*,*,*,*,#11,$,.GRAPH_VIEW.,$);
#14= IFCGEOMETRICREPRESENTATIONSUBCONTEXT('FootPrint','Model',*,*,*,*,#11,$,.MODEL_VIEW.,$);
#15= IFCSIUNIT(*,.LENGTHUNIT.,.MILLI.,.METRE.);
#16= IFCMEASUREWITHUNIT(IFCRATIOMEASURE(304.8),#15);
#17= IFCDIMENSIONALEXPONENTS(1,0,0,0,0,0,0);
#18= IFCCONVERSIONBASEDUNIT(#17,.LENGTHUNIT.,'FOOT',#16);
#19= IFCSIUNIT(*,.AREAUNIT.,$,.SQUARE_METRE.);
#20= IFCMEASUREWITHUNIT(IFCRATIOMEASURE(0.09290304),#19);
#21= IFCDIMENSIONALEXPONENTS(2,0,0,0,0,0,0);
#22= IFCCONVERSIONBASEDUNIT(#21,.AREAUNIT.,'SQUARE FOOT',#20);
#23= IFCSIUNIT(*,.VOLUMEUNIT.,$,.CUBIC_METRE.);
#24= IFCMEASUREWITHUNIT(IFCRATIOMEASURE(0.028316846592),#23);
#25= IFCDIMENSIONALEXPONENTS(3,0,0,0,0,0,0);
#26= IFCCONVERSIONBASEDUNIT(#25,.VOLUMEUNIT.,'CUBIC FOOT',#24);
#27= IFCSIUNIT(*,.MASSUNIT.,.KILO.,.GRAM.);
#28= IFCSIUNIT(*,.TIMEUNIT.,$,.SECOND.);
#29= IFCSIUNIT(*,.PLANEANGLEUNIT.,$,.RADIAN.);
#30= IFCMEASUREWITHUNIT(IFCRATIOMEASURE(0.0174532925199433),#29);
#31= IFCDIMENSIONALEXPONENTS(0,0,0,0,0,0,0);
#32= IFCCONVERSIONBASEDUNIT(#31,.PLANEANGLEUNIT.,'DEGREE',#30);
#33= IFCSIUNIT(*,.SOLIDANGLEUNIT.,$,.STERADIAN.);
#34= IFCSIUNIT(*,.THERMODYNAMICTEMPERATUREUNIT.,$,.DEGREE_CELSIUS.);
#35= IFCSIUNIT(*,.LUMINOUSINTENSITYUNIT.,$,.LUMEN.);
#36= IFCUNITASSIGNMENT((#15,#19,#23,#27,#28,#29,#33,#34,#35));
#37= IFCPROJECT('2G7ZFDNE16yBDU14FA92Me',#5,'Proyecto',$,$,$,$,(#11),#36);
#38= IFCLOCALPLACEMENT($,#10);
#39= IFCSITE('2xvEzEinjBTea80yOTcujY',#5,'Obra',$,$,#38,$,$,.ELEMENT.,$,$,$,$,$);
#40= IFCLOCALPLACEMENT(#38,#10);
#41= IFCBUILDING('0raXAydcD0XRBI_IOcAX1F',#5,'Undefined',$,$,#40,$,$,.ELEMENT.,$,$,$);
#42= IFCLOCALPLACEMENT(#40,#10);
#43= IFCBUILDINGSTOREY('29hdEUCErFze9E_VIAceOd',#5,'Undefined',$,$,#42,$,$,.ELEMENT.,0.);
#44= IFCOWNERHISTORY(#3,#4,$,.NOCHANGE.,$,$,$,1774029600);
#45= IFCCARTESIANPOINT((50104.9997834091,24024.5714560438,19359.5));
#46= IFCDIRECTION((0.,-1.,0.));
#47= IFCAXIS2PLACEMENT3D(#45,#9,#46);
#48= IFCLOCALPLACEMENT(#42,#47);
#49= IFCCARTESIANPOINT((0.,0.));
#50= IFCCARTESIANPOINT((250.,0.));
#51= IFCCARTESIANPOINT((277.687438964844,722.508117675781));
#52= IFCCARTESIANPOINT((277.687438964844,1067.49011230469));
#53= IFCCARTESIANPOINT((251.030410766602,1790.));
#54= IFCCARTESIANPOINT((1.03041195869446,1790.));
#55= IFCCARTESIANPOINT((-22.3125743865967,1067.49011230469));
#56= IFCCARTESIANPOINT((-22.3125743865967,722.508117675781));
#57= IFCPOLYLINE((#49,#50,#51,#52,#53,#54,#55,#56,#49));
#58= IFCARBITRARYCLOSEDPROFILEDEF(.AREA.,'PL19*317',#57);
#59= IFCCARTESIANPOINT((0.,0.,-9.5));
#60= IFCAXIS2PLACEMENT3D(#59,#9,#7);
#61= IFCEXTRUDEDAREASOLID(#58,#60,#9,19.);
#62= IFCSHAPEREPRESENTATION(#12,'Body','SweptSolid',(#61));
#63= IFCPRODUCTDEFINITIONSHAPE($,$,(#62));
#64= IFCPLATE('3fuocCd6P7AQe7Bx$n5wz4',#44,'PLATE','PL19*317','PL19*317',#48,#63,'IDe9e3298c-9c66-4729-aa07-2fbff117af44');
#65= IFCLOCALPLACEMENT(#42,#47);
#66= IFCDIRECTION((1.,0.));
#67= IFCAXIS2PLACEMENT2D(#49,#66);
#68= IFCRECTANGLEPROFILEDEF(.AREA.,'[]255*1',#67,255.,255.);
#69= IFCDIRECTION((0.,0.,-1.));
#70= IFCCARTESIANPOINT((127.687425652377,895.,4240.5));
#71= IFCAXIS2PLACEMENT3D(#70,#69,#46);
#72= IFCEXTRUDEDAREASOLID(#68,#71,#9,9684.);
#73= IFCCARTESIANPOINT((255.187425652377,895.,-5443.5));
#74= IFCAXIS2PLACEMENT3D(#73,#9,#46);
#75= IFCPLANE(#74);
#76= IFCHALFSPACESOLID(#75,.T.);
#77= IFCBOOLEANCLIPPINGRESULT(.DIFFERENCE.,#72,#76);
#78= IFCSHAPEREPRESENTATION(#12,'Body','Clipping',(#77));
#79= IFCPRODUCTDEFINITIONSHAPE($,$,(#78));
#80= IFCOPENINGELEMENT('06Ql6yt5j3uurVyx1YRr_1',#5,$,$,'Recess',#65,#79,$);
#81= IFCRELVOIDSELEMENT('0GaCyPST51LQRpgEq38mON',#5,$,$,#64,#80);
#82= IFCPROPERTYSINGLEVALUE('FeatureSubTypes',$,$,$);
#83= IFCPROPERTYSINGLEVALUE('RectangleOpeningWidth',$,$,$);
#84= IFCPROPERTYSINGLEVALUE('RectangleOpeningHeight',$,IFCPOSITIVELENGTHMEASURE(255.),$);
#85= IFCPROPERTYSINGLEVALUE('OpeningDiameter',$,$,$);
#86= IFCPROPERTYSET('2_Ur5B1xbA9ulEkPJVvXaA',#5,'AISC_EM11_Pset_Opening/Cope',$,(#82,#83,#84,#85));
#87= IFCCARTESIANPOINT((50820.0002165909,23896.8840303914,19350.));
#88= IFCDIRECTION((-0.00218027700042148,-0.999997623193276,0.));
#89= IFCDIRECTION((-0.999997623193276,0.00218027700041918,0.));
#90= IFCAXIS2PLACEMENT3D(#87,#88,#89);
#91= IFCLOCALPLACEMENT(#42,#90);
#92= IFCCIRCLEPROFILEDEF(.AREA.,$,#67,11.);
#93= IFCCARTESIANPOINT((0.,-19.1,0.));
#94= IFCAXIS2PLACEMENT3D(#93,#8,#7);
#95= IFCEXTRUDEDAREASOLID(#92,#94,#9,19.2);
#96= IFCSHAPEREPRESENTATION(#12,'Body','SweptSolid',(#95));
#97= IFCREPRESENTATIONMAP(#10,#96);
#98= IFCCARTESIANPOINT((0.,0.,74.9999999998145));
#99= IFCCARTESIANTRANSFORMATIONOPERATOR3D($,$,#98,$,$);
#100= IFCMAPPEDITEM(#97,#99);
#101= IFCCARTESIANPOINT((74.9999999998108,0.,74.9999999998145));
#102= IFCCARTESIANTRANSFORMATIONOPERATOR3D($,$,#101,$,$);
#103= IFCMAPPEDITEM(#97,#102);
#104= IFCCARTESIANPOINT((149.999999999629,0.,74.9999999998145));
#105= IFCCARTESIANTRANSFORMATIONOPERATOR3D($,$,#104,$,$);
#106= IFCMAPPEDITEM(#97,#105);
#107= IFCCARTESIANPOINT((224.99999999944,0.,74.9999999998145));
#108= IFCCARTESIANTRANSFORMATIONOPERATOR3D($,$,#107,$,$);
#109= IFCMAPPEDITEM(#97,#108);
#110= IFCCARTESIANPOINT((299.999999999251,0.,74.9999999998145));
#111= IFCCARTESIANTRANSFORMATIONOPERATOR3D($,$,#110,$,$);
#112= IFCMAPPEDITEM(#97,#111);
#113= IFCCARTESIANPOINT((374.999999999061,0.,74.9999999998145));
#114= IFCCARTESIANTRANSFORMATIONOPERATOR3D($,$,#113,$,$);
#115= IFCMAPPEDITEM(#97,#114);
#116= IFCCARTESIANPOINT((449.999999998872,0.,74.9999999998145));
#117= IFCCARTESIANTRANSFORMATIONOPERATOR3D($,$,#116,$,$);
#118= IFCMAPPEDITEM(#97,#117);
#119= IFCCARTESIANPOINT((524.99999999869,0.,74.9999999998108));
#120= IFCCARTESIANTRANSFORMATIONOPERATOR3D($,$,#119,$,$);
#121= IFCMAPPEDITEM(#97,#120);
#122= IFCCARTESIANPOINT((599.999999998501,0.,74.9999999998145));
#123= IFCCARTESIANTRANSFORMATIONOPERATOR3D($,$,#122,$,$);
#124= IFCMAPPEDITEM(#97,#123);
#125= IFCCARTESIANPOINT((674.999999998312,0.,74.9999999998145));
#126= IFCCARTESIANTRANSFORMATIONOPERATOR3D($,$,#125,$,$);
#127= IFCMAPPEDITEM(#97,#126);
#128= IFCCARTESIANPOINT((0.,0.,-74.9999999998108));
#129= IFCCARTESIANTRANSFORMATIONOPERATOR3D($,$,#128,$,$);
#130= IFCMAPPEDITEM(#97,#129);
#131= IFCCARTESIANPOINT((74.9999999998181,0.,-74.9999999998108));
#132= IFCCARTESIANTRANSFORMATIONOPERATOR3D($,$,#131,$,$);
#133= IFCMAPPEDITEM(#97,#132);
#134= IFCCARTESIANPOINT((149.999999999629,0.,-74.9999999998108));
#135= IFCCARTESIANTRANSFORMATIONOPERATOR3D($,$,#134,$,$);
#136= IFCMAPPEDITEM(#97,#135);
#137= IFCCARTESIANPOINT((224.99999999944,0.,-74.9999999998108));
#138= IFCCARTESIANTRANSFORMATIONOPERATOR3D($,$,#137,$,$);
#139= IFCMAPPEDITEM(#97,#138);
#140= IFCCARTESIANPOINT((299.999999999251,0.,-74.9999999998108));
#141= IFCCARTESIANTRANSFORMATIONOPERATOR3D($,$,#140,$,$);
#142= IFCMAPPEDITEM(#97,#141);
#143= IFCCARTESIANPOINT((374.999999999069,0.,-74.9999999998108));
#144= IFCCARTESIANTRANSFORMATIONOPERATOR3D($,$,#143,$,$);
#145= IFCMAPPEDITEM(#97,#144);
#146= IFCCARTESIANPOINT((449.99999999888,0.,-74.9999999998108));
#147= IFCCARTESIANTRANSFORMATIONOPERATOR3D($,$,#146,$,$);
#148= IFCMAPPEDITEM(#97,#147);
#149= IFCCARTESIANPOINT((524.99999999869,0.,-74.9999999998145));
#150= IFCCARTESIANTRANSFORMATIONOPERATOR3D($,$,#149,$,$);
#151= IFCMAPPEDITEM(#97,#150);
#152= IFCCARTESIANPOINT((599.999999998501,0.,-74.9999999998108));
#153= IFCCARTESIANTRANSFORMATIONOPERATOR3D($,$,#152,$,$);
#154= IFCMAPPEDITEM(#97,#153);
#155= IFCCARTESIANPOINT((674.999999998319,0.,-74.9999999998108));
#156= IFCCARTESIANTRANSFORMATIONOPERATOR3D($,$,#155,$,$);
#157= IFCMAPPEDITEM(#97,#156);
#158= IFCSHAPEREPRESENTATION(#12,'Body','MappedRepresentation',(#100,#103,#106,#109,#112,#115,#118,#121,#124,#127,#130,#133,#136,#139,#142,#145,#148,#151,#154,#157));
#159= IFCPRODUCTDEFINITIONSHAPE($,$,(#158));
#160= IFCOPENINGELEMENT('1X12kbVi594e4iNB1hlkF5',#5,$,$,'Opening',#91,#159,$);
#161= IFCRELVOIDSELEMENT('1nQHstN0j2ofLv6IZpVC$d',#5,'Drill Hole',$,#64,#160);
#162= IFCPROPERTYSINGLEVALUE('FeatureSubTypes',$,IFCLABEL('TORNILLO'),$);
#163= IFCPROPERTYSINGLEVALUE('RectangleOpeningHeight',$,$,$);
#164= IFCPROPERTYSET('0$dNQs8hb3I8NL51Yu_qZP',#5,'AISC_EM11_Pset_Opening/Cope',$,(#162,#83,#163,#85));
#165= IFCCARTESIANPOINT((51179.9997834091,23896.8840303914,19350.));
#166= IFCDIRECTION((-0.00218027700042148,0.999997623193276,0.));
#167= IFCDIRECTION((0.999997623193276,0.00218027700041918,0.));
#168= IFCAXIS2PLACEMENT3D(#165,#166,#167);
#169= IFCLOCALPLACEMENT(#42,#168);
#170= IFCSHAPEREPRESENTATION(#12,'Body','MappedRepresentation',(#130,#133,#136,#139,#142,#145,#148,#151,#154,#157,#100,#103,#106,#109,#112,#115,#118,#121,#124,#127));
#171= IFCPRODUCTDEFINITIONSHAPE($,$,(#170));
#172= IFCOPENINGELEMENT('0fpH_epvzCWeD4rjGGnDL9',#5,$,$,'Opening',#169,#171,$);
#173= IFCRELVOIDSELEMENT('1wU8npLUjE9AQ8Jcf2Yhnw',#5,'Drill Hole',$,#64,#172);
#174= IFCPROPERTYSINGLEVALUE('PieceMark',$,IFCIDENTIFIER('PLATE'),$);
#175= IFCPROPERTYSINGLEVALUE('IndicationMark',$,IFCIDENTIFIER('1298'),$);
#176= IFCPROPERTYSINGLEVALUE('PrelimMark',$,IFCIDENTIFIER(''),$);
#177= IFCPROPERTYSINGLEVALUE('MainPieceTag',$,IFCBOOLEAN(.T.),$);
#178= IFCPROPERTYSET('0tyw4731n7DhfwWvne4WTG',#5,'AISC_EM11_Pset_PieceIdentification','PieceIdentity',(#174,#175,#176,#177));
#179= IFCPROPERTYSINGLEVALUE('MaterialType',$,IFCIDENTIFIER('STEEL'),$);
#180= IFCPROPERTYSINGLEVALUE('MaterialGrade',$,IFCIDENTIFIER('S235JR'),$);
#181= IFCPROPERTYSET('2IuOoWEV9FLg7RhKrDf0dR',#5,'AISC_EM11_Pset_Material',$,(#179,#180));
#182= IFCMATERIAL('STEEL/S235JR');
#183= IFCRELAGGREGATES('1sM6MEQ7LEHP$lXpz5_Goe',#5,$,$,#37,(#39));
#184= IFCRELAGGREGATES('28eOeWiPdWZhH1p5FNGY4w',#5,$,$,#39,(#41));
#185= IFCRELAGGREGATES('3Q8qiL9prBIxwZKFVYvV23',#5,$,$,#41,(#43));
#186= IFCRELCONTAINEDINSPATIALSTRUCTURE('1ZwArkcQ53xxivBAqrH8DD',#5,$,$,(#64),#43);
#187= IFCRELDEFINESBYPROPERTIES('3naKcFvq16fh4pB53Pj6tm',#5,$,$,(#80),#86);
#188= IFCRELDEFINESBYPROPERTIES('2BGB_sZoX8Evy2WK1igeCq',#5,$,$,(#172,#160),#164);
#189= IFCRELDEFINESBYPROPERTIES('2x3MvKl_n7bPgGgR2vA8ew',#5,$,$,(#64),#178);
#190= IFCRELDEFINESBYPROPERTIES('3gxBkqYvjFHvFzwUooe87a',#5,$,$,(#64),#181);
#191= IFCRELASSOCIATESMATERIAL('2kVXOt1AfBrOCxX6_gl5ec',#5,$,$,(#64),#182);
ENDSEC;

END-ISO-10303-21;
