ISO-10303-21;
HEADER;
FILE_DESCRIPTION(('ViewDefinition[AISC_Steel_Detailing]', 'Option [BaseQuantities:Off]', 'Option [GridExport:On]', 'Option [Assemblies:Off]', 'Option [Bolts:On]', 'Option [Rebars:On]', 'Option [PourObjects:Off]', 'Option [Welds:On]', 'Option [SurfaceTreatments:On]', 'Option [LocationBy:0]', 'Option [ViewColors:Off]', 'Option [SectionedSpine:Off]', 'Option [PropertySets:On]', 'Option [Export all:Off]'),'2;1');
FILE_NAME('1305_Qty_2.ifc','2026-05-16T11:52:52',('GIOVANNIPC\\gcorrea'),('Structural Designer'),'IFC Database version: Work','Tekla Structures 2020 Service Pack 5, IFC Export Version: 4.0.0.0 Dec  7 2020','');
FILE_SCHEMA(('IFC2X3'));
ENDSEC;

DATA;
#1= IFCPERSON('GIOVANNIPC\\gcorrea','Undefined',$,$,$,$,$,$);
#2= IFCORGANIZATION($,'Trimble Solutions Corporation',$,$,$);
#3= IFCPERSONANDORGANIZATION(#1,#2,$);
#4= IFCAPPLICATION(#2,'2020 Service Pack 5','Tekla Structures','Multi material modeling');
#5= IFCOWNERHISTORY(#3,#4,$,.NOCHANGE.,$,$,$,1778950372);
#6= IFCCARTESIANPOINT((0.,0.,0.));
#7= IFCDIRECTION((1.,0.,0.));
#8= IFCDIRECTION((0.,1.,0.));
#9= IFCDIRECTION((0.,0.,1.));
#10= IFCAXIS2PLACEMENT3D(#6,#9,#7);
#11= IFCGEOMETRICREPRESENTATIONCONTEXT($,'Model',3,1.E-05,#10,$);
#12= IFCGEOMETRICREPRESENTATIONSUBCONTEXT('Body','Model',*,*,*,*,#11,$,.MODEL_VIEW.,$);
#13= IFCGEOMETRICREPRESENTATIONSUBCONTEXT('Axis','Model',*,*,*,*,#11,$,.GRAPH_VIEW.,$);
#14= IFCGEOMETRICREPRESENTATIONSUBCONTEXT('FootPrint','Model',*,*,*,*,#11,$,.MODEL_VIEW.,$);
#15= IFCSIUNIT(*,.LENGTHUNIT.,.MILLI.,.METRE.);
#16= IFCMEASUREWITHUNIT(IFCRATIOMEASURE(304.8),#15);
#17= IFCDIMENSIONALEXPONENTS(1,0,0,0,0,0,0);
#18= IFCCONVERSIONBASEDUNIT(#17,.LENGTHUNIT.,'FOOT',#16);
#19= IFCSIUNIT(*,.AREAUNIT.,$,.SQUARE_METRE.);
#20= IFCMEASUREWITHUNIT(IFCRATIOMEASURE(0.09290304),#19);
#21= IFCDIMENSIONALEXPONENTS(2,0,0,0,0,0,0);
#22= IFCCONVERSIONBASEDUNIT(#21,.AREAUNIT.,'SQUARE FOOT',#20);
#23= IFCSIUNIT(*,.VOLUMEUNIT.,$,.CUBIC_METRE.);
#24= IFCMEASUREWITHUNIT(IFCRATIOMEASURE(0.028316846592),#23);
#25= IFCDIMENSIONALEXPONENTS(3,0,0,0,0,0,0);
#26= IFCCONVERSIONBASEDUNIT(#25,.VOLUMEUNIT.,'CUBIC FOOT',#24);
#27= IFCSIUNIT(*,.MASSUNIT.,.KILO.,.GRAM.);
#28= IFCSIUNIT(*,.TIMEUNIT.,$,.SECOND.);
#29= IFCSIUNIT(*,.PLANEANGLEUNIT.,$,.RADIAN.);
#30= IFCMEASUREWITHUNIT(IFCRATIOMEASURE(0.0174532925199433),#29);
#31= IFCDIMENSIONALEXPONENTS(0,0,0,0,0,0,0);
#32= IFCCONVERSIONBASEDUNIT(#31,.PLANEANGLEUNIT.,'DEGREE',#30);
#33= IFCSIUNIT(*,.SOLIDANGLEUNIT.,$,.STERADIAN.);
#34= IFCSIUNIT(*,.THERMODYNAMICTEMPERATUREUNIT.,$,.DEGREE_CELSIUS.);
#35= IFCSIUNIT(*,.LUMINOUSINTENSITYUNIT.,$,.LUMEN.);
#36= IFCUNITASSIGNMENT((#15,#19,#23,#27,#28,#29,#33,#34,#35));
#37= IFCPROJECT('2G7ZFDNE16yBDU14FA92Me',#5,'Proyecto',$,$,$,$,(#11),#36);
#38= IFCLOCALPLACEMENT($,#10);
#39= IFCSITE('2xvEzEinjBTea80yOTcujY',#5,'Obra',$,$,#38,$,$,.ELEMENT.,$,$,$,$,$);
#40= IFCLOCALPLACEMENT(#38,#10);
#41= IFCBUILDING('3_ZYl4zdX5ZA0LnLXAdgaM',#5,'Undefined',$,$,#40,$,$,.ELEMENT.,$,$,$);
#42= IFCLOCALPLACEMENT(#40,#10);
#43= IFCBUILDINGSTOREY('29hdEUCErFze9E_VIAceOd',#5,'Undefined',$,$,#42,$,$,.ELEMENT.,0.);
#44= IFCOWNERHISTORY(#3,#4,$,.NOCHANGE.,$,$,$,1774036800);
#45= IFCCARTESIANPOINT((67365.,23999.5713686697,19359.5));
#46= IFCDIRECTION((0.,-1.,0.));
#47= IFCAXIS2PLACEMENT3D(#45,#9,#46);
#48= IFCLOCALPLACEMENT(#42,#47);
#49= IFCCARTESIANPOINT((0.,0.));
#50= IFCCARTESIANPOINT((200.,0.));
#51= IFCCARTESIANPOINT((252.687347412109,462.507904052734));
#52= IFCCARTESIANPOINT((252.687347412109,807.489868164063));
#53= IFCCARTESIANPOINT((226.030319213867,1529.99975585938));
#54= IFCCARTESIANPOINT((-23.9696750640869,1529.99975585938));
#55= IFCCARTESIANPOINT((-47.3126640319824,807.489868164063));
#56= IFCCARTESIANPOINT((-47.3126640319824,462.507904052734));
#57= IFCPOLYLINE((#49,#50,#51,#52,#53,#54,#55,#56,#49));
#58= IFCARBITRARYCLOSEDPROFILEDEF(.AREA.,'PL19*313',#57);
#59= IFCCARTESIANPOINT((0.,0.,-9.5));
#60= IFCAXIS2PLACEMENT3D(#59,#9,#7);
#61= IFCEXTRUDEDAREASOLID(#58,#60,#9,19.);
#62= IFCSHAPEREPRESENTATION(#12,'Body','SweptSolid',(#61));
#63= IFCPRODUCTDEFINITIONSHAPE($,$,(#62));
#64= IFCPLATE('2sduRiQpLB$PS2qkxZ6cW_',#44,'PLATE','PL19*313','PL19*313',#48,#63,'IDb69f86ec-6b35-4bfd-9702-d2eee31a683e');
#65= IFCLOCALPLACEMENT(#42,#47);
#66= IFCDIRECTION((1.,0.));
#67= IFCAXIS2PLACEMENT2D(#49,#66);
#68= IFCRECTANGLEPROFILEDEF(.AREA.,'[]255*1',#67,255.,255.);
#69= IFCDIRECTION((0.,0.,-1.));
#70= IFCCARTESIANPOINT((102.687338278258,634.999783409148,4240.5));
#71= IFCAXIS2PLACEMENT3D(#70,#69,#46);
#72= IFCEXTRUDEDAREASOLID(#68,#71,#9,9684.);
#73= IFCCARTESIANPOINT((230.187338278258,634.999783409148,-5443.5));
#74= IFCAXIS2PLACEMENT3D(#73,#9,#46);
#75= IFCPLANE(#74);
#76= IFCHALFSPACESOLID(#75,.T.);
#77= IFCBOOLEANCLIPPINGRESULT(.DIFFERENCE.,#72,#76);
#78= IFCSHAPEREPRESENTATION(#12,'Body','Clipping',(#77));
#79= IFCPRODUCTDEFINITIONSHAPE($,$,(#78));
#80= IFCOPENINGELEMENT('3B77SoDOL0RB5SkEeGem1h',#5,$,$,'Recess',#65,#79,$);
#81= IFCRELVOIDSELEMENT('1pwk7TKgf5xxOnwSxtGi0z',#5,$,$,#64,#80);
#82= IFCPROPERTYSINGLEVALUE('FeatureSubTypes',$,$,$);
#83= IFCPROPERTYSINGLEVALUE('RectangleOpeningWidth',$,$,$);
#84= IFCPROPERTYSINGLEVALUE('RectangleOpeningHeight',$,IFCPOSITIVELENGTHMEASURE(255.),$);
#85= IFCPROPERTYSINGLEVALUE('OpeningDiameter',$,$,$);
#86= IFCPROPERTYSET('0RN5zYQ4HAV8Pxy6M5psMi',#5,'AISC_EM11_Pset_Opening/Cope',$,(#82,#83,#84,#85));
#87= IFCCARTESIANPOINT((67820.0002165909,23896.8840303914,19350.));
#88= IFCDIRECTION((-0.0021802770004142,-0.999997623193276,0.));
#89= IFCDIRECTION((-0.999997623193276,0.00218027700041918,0.));
#90= IFCAXIS2PLACEMENT3D(#87,#88,#89);
#91= IFCLOCALPLACEMENT(#42,#90);
#92= IFCCIRCLEPROFILEDEF(.AREA.,$,#67,11.);
#93= IFCCARTESIANPOINT((0.,-19.1,0.));
#94= IFCAXIS2PLACEMENT3D(#93,#8,#7);
#95= IFCEXTRUDEDAREASOLID(#92,#94,#9,19.2);
#96= IFCSHAPEREPRESENTATION(#12,'Body','SweptSolid',(#95));
#97= IFCREPRESENTATIONMAP(#10,#96);
#98= IFCCARTESIANPOINT((3.63797880709171E-10,0.,-49.9999999998727));
#99= IFCCARTESIANTRANSFORMATIONOPERATOR3D($,$,#98,$,$);
#100= IFCMAPPEDITEM(#97,#99);
#101= IFCCARTESIANPOINT((70.0000000001892,0.,-49.999999998854));
#102= IFCCARTESIANTRANSFORMATIONOPERATOR3D($,$,#101,$,$);
#103= IFCMAPPEDITEM(#97,#102);
#104= IFCCARTESIANPOINT((140.000000000015,0.,-49.9999999978354));
#105= IFCCARTESIANTRANSFORMATIONOPERATOR3D($,$,#104,$,$);
#106= IFCMAPPEDITEM(#97,#105);
#107= IFCCARTESIANPOINT((209.999999999825,0.,-49.9999999968168));
#108= IFCCARTESIANTRANSFORMATIONOPERATOR3D($,$,#107,$,$);
#109= IFCMAPPEDITEM(#97,#108);
#110= IFCCARTESIANPOINT((279.999999999665,0.,-49.9999999958018));
#111= IFCCARTESIANTRANSFORMATIONOPERATOR3D($,$,#110,$,$);
#112= IFCMAPPEDITEM(#97,#111);
#113= IFCCARTESIANPOINT((349.999999999491,0.,-49.9999999947831));
#114= IFCCARTESIANTRANSFORMATIONOPERATOR3D($,$,#113,$,$);
#115= IFCMAPPEDITEM(#97,#114);
#116= IFCCARTESIANPOINT((419.999999999302,0.,-49.9999999937645));
#117= IFCCARTESIANTRANSFORMATIONOPERATOR3D($,$,#116,$,$);
#118= IFCMAPPEDITEM(#97,#117);
#119= IFCCARTESIANPOINT((-3.63797880709171E-10,0.,49.9999999998763));
#120= IFCCARTESIANTRANSFORMATIONOPERATOR3D($,$,#119,$,$);
#121= IFCMAPPEDITEM(#97,#120);
#122= IFCCARTESIANPOINT((69.9999999994616,0.,50.0000000008949));
#123= IFCCARTESIANTRANSFORMATIONOPERATOR3D($,$,#122,$,$);
#124= IFCMAPPEDITEM(#97,#123);
#125= IFCCARTESIANPOINT((139.999999999287,0.,50.0000000019136));
#126= IFCCARTESIANTRANSFORMATIONOPERATOR3D($,$,#125,$,$);
#127= IFCMAPPEDITEM(#97,#126);
#128= IFCCARTESIANPOINT((209.999999999098,0.,50.0000000029322));
#129= IFCCARTESIANTRANSFORMATIONOPERATOR3D($,$,#128,$,$);
#130= IFCMAPPEDITEM(#97,#129);
#131= IFCCARTESIANPOINT((279.999999998938,0.,50.0000000039508));
#132= IFCCARTESIANTRANSFORMATIONOPERATOR3D($,$,#131,$,$);
#133= IFCMAPPEDITEM(#97,#132);
#134= IFCCARTESIANPOINT((349.999999998763,0.,50.0000000049695));
#135= IFCCARTESIANTRANSFORMATIONOPERATOR3D($,$,#134,$,$);
#136= IFCMAPPEDITEM(#97,#135);
#137= IFCCARTESIANPOINT((419.999999998588,0.,50.0000000059881));
#138= IFCCARTESIANTRANSFORMATIONOPERATOR3D($,$,#137,$,$);
#139= IFCMAPPEDITEM(#97,#138);
#140= IFCSHAPEREPRESENTATION(#12,'Body','MappedRepresentation',(#100,#103,#106,#109,#112,#115,#118,#121,#124,#127,#130,#133,#136,#139));
#141= IFCPRODUCTDEFINITIONSHAPE($,$,(#140));
#142= IFCOPENINGELEMENT('3ZNChyPrHB9OXcxZP57iuw',#5,$,$,'Opening',#91,#141,$);
#143= IFCRELVOIDSELEMENT('2DWDO7g99AxAXwFI4LHNe5',#5,'Drill Hole',$,#64,#142);
#144= IFCPROPERTYSINGLEVALUE('FeatureSubTypes',$,IFCLABEL('TORNILLO'),$);
#145= IFCPROPERTYSINGLEVALUE('RectangleOpeningHeight',$,$,$);
#146= IFCPROPERTYSET('15NoY__$r0R9Lw4oxDx5dE',#5,'AISC_EM11_Pset_Opening/Cope',$,(#144,#83,#145,#85));
#147= IFCCARTESIANPOINT((68179.9997834091,23896.8840303914,19350.));
#148= IFCDIRECTION((-0.0021802770004142,0.999997623193276,0.));
#149= IFCDIRECTION((0.999997623193276,0.00218027700041986,0.));
#150= IFCAXIS2PLACEMENT3D(#147,#148,#149);
#151= IFCLOCALPLACEMENT(#42,#150);
#152= IFCCARTESIANPOINT((-5.5297277867794E-10,0.,-74.9999999998145));
#153= IFCCARTESIANTRANSFORMATIONOPERATOR3D($,$,#152,$,$);
#154= IFCMAPPEDITEM(#97,#153);
#155= IFCCARTESIANPOINT((74.9999999992579,0.,-75.0000000009059));
#156= IFCCARTESIANTRANSFORMATIONOPERATOR3D($,$,#155,$,$);
#157= IFCMAPPEDITEM(#97,#156);
#158= IFCCARTESIANPOINT((149.999999999069,0.,-75.0000000019973));
#159= IFCCARTESIANTRANSFORMATIONOPERATOR3D($,$,#158,$,$);
#160= IFCMAPPEDITEM(#97,#159);
#161= IFCCARTESIANPOINT((224.99999999888,0.,-75.0000000030886));
#162= IFCCARTESIANTRANSFORMATIONOPERATOR3D($,$,#161,$,$);
#163= IFCMAPPEDITEM(#97,#162);
#164= IFCCARTESIANPOINT((299.999999998705,0.,-75.00000000418));
#165= IFCCARTESIANTRANSFORMATIONOPERATOR3D($,$,#164,$,$);
#166= IFCMAPPEDITEM(#97,#165);
#167= IFCCARTESIANPOINT((374.999999998516,0.,-75.0000000052714));
#168= IFCCARTESIANTRANSFORMATIONOPERATOR3D($,$,#167,$,$);
#169= IFCMAPPEDITEM(#97,#168);
#170= IFCCARTESIANPOINT((449.999999998327,0.,-75.0000000063628));
#171= IFCCARTESIANTRANSFORMATIONOPERATOR3D($,$,#170,$,$);
#172= IFCMAPPEDITEM(#97,#171);
#173= IFCCARTESIANPOINT((524.999999998137,0.,-75.0000000074506));
#174= IFCCARTESIANTRANSFORMATIONOPERATOR3D($,$,#173,$,$);
#175= IFCMAPPEDITEM(#97,#174);
#176= IFCCARTESIANPOINT((599.999999997948,0.,-75.0000000085456));
#177= IFCCARTESIANTRANSFORMATIONOPERATOR3D($,$,#176,$,$);
#178= IFCMAPPEDITEM(#97,#177);
#179= IFCCARTESIANPOINT((674.999999997759,0.,-75.000000009637));
#180= IFCCARTESIANTRANSFORMATIONOPERATOR3D($,$,#179,$,$);
#181= IFCMAPPEDITEM(#97,#180);
#182= IFCCARTESIANPOINT((5.5297277867794E-10,0.,74.9999999998108));
#183= IFCCARTESIANTRANSFORMATIONOPERATOR3D($,$,#182,$,$);
#184= IFCMAPPEDITEM(#97,#183);
#185= IFCCARTESIANPOINT((75.0000000003638,0.,74.9999999987194));
#186= IFCCARTESIANTRANSFORMATIONOPERATOR3D($,$,#185,$,$);
#187= IFCMAPPEDITEM(#97,#186);
#188= IFCCARTESIANPOINT((150.000000000175,0.,74.999999997628));
#189= IFCCARTESIANTRANSFORMATIONOPERATOR3D($,$,#188,$,$);
#190= IFCMAPPEDITEM(#97,#189);
#191= IFCCARTESIANPOINT((224.999999999985,0.,74.9999999965366));
#192= IFCCARTESIANTRANSFORMATIONOPERATOR3D($,$,#191,$,$);
#193= IFCMAPPEDITEM(#97,#192);
#194= IFCCARTESIANPOINT((299.999999999782,0.,74.9999999954453));
#195= IFCCARTESIANTRANSFORMATIONOPERATOR3D($,$,#194,$,$);
#196= IFCMAPPEDITEM(#97,#195);
#197= IFCCARTESIANPOINT((374.999999999593,0.,74.9999999943539));
#198= IFCCARTESIANTRANSFORMATIONOPERATOR3D($,$,#197,$,$);
#199= IFCMAPPEDITEM(#97,#198);
#200= IFCCARTESIANPOINT((449.999999999403,0.,74.9999999932625));
#201= IFCCARTESIANTRANSFORMATIONOPERATOR3D($,$,#200,$,$);
#202= IFCMAPPEDITEM(#97,#201);
#203= IFCCARTESIANPOINT((524.999999999229,0.,74.9999999921747));
#204= IFCCARTESIANTRANSFORMATIONOPERATOR3D($,$,#203,$,$);
#205= IFCMAPPEDITEM(#97,#204);
#206= IFCCARTESIANPOINT((599.99999999904,0.,74.9999999910797));
#207= IFCCARTESIANTRANSFORMATIONOPERATOR3D($,$,#206,$,$);
#208= IFCMAPPEDITEM(#97,#207);
#209= IFCCARTESIANPOINT((674.99999999885,0.,74.9999999899883));
#210= IFCCARTESIANTRANSFORMATIONOPERATOR3D($,$,#209,$,$);
#211= IFCMAPPEDITEM(#97,#210);
#212= IFCSHAPEREPRESENTATION(#12,'Body','MappedRepresentation',(#154,#157,#160,#163,#166,#169,#172,#175,#178,#181,#184,#187,#190,#193,#196,#199,#202,#205,#208,#211));
#213= IFCPRODUCTDEFINITIONSHAPE($,$,(#212));
#214= IFCOPENINGELEMENT('23N1ZsXt96iOjvOYp$MJAh',#5,$,$,'Opening',#151,#213,$);
#215= IFCRELVOIDSELEMENT('2QamesH9HDrfmzBD3VbrhO',#5,'Drill Hole',$,#64,#214);
#216= IFCPROPERTYSINGLEVALUE('PieceMark',$,IFCIDENTIFIER('PLATE'),$);
#217= IFCPROPERTYSINGLEVALUE('IndicationMark',$,IFCIDENTIFIER('1305'),$);
#218= IFCPROPERTYSINGLEVALUE('PrelimMark',$,IFCIDENTIFIER(''),$);
#219= IFCPROPERTYSINGLEVALUE('MainPieceTag',$,IFCBOOLEAN(.T.),$);
#220= IFCPROPERTYSET('1Nc16weSfBHxx3pnVSXvY9',#5,'AISC_EM11_Pset_PieceIdentification','PieceIdentity',(#216,#217,#218,#219));
#221= IFCPROPERTYSINGLEVALUE('MaterialType',$,IFCIDENTIFIER('STEEL'),$);
#222= IFCPROPERTYSINGLEVALUE('MaterialGrade',$,IFCIDENTIFIER('S235JR'),$);
#223= IFCPROPERTYSET('0COqe3dpH7Ze5jMzNqpGhg',#5,'AISC_EM11_Pset_Material',$,(#221,#222));
#224= IFCMATERIAL('STEEL/S235JR');
#225= IFCRELAGGREGATES('3baF9Soe9BgQh69vCL5Rle',#5,$,$,#37,(#39));
#226= IFCRELAGGREGATES('2tsXRk4wRTyizORBUdNj1w',#5,$,$,#39,(#41));
#227= IFCRELAGGREGATES('0xdvDdm$95nQsXYK1VJRov',#5,$,$,#41,(#43));
#228= IFCRELCONTAINEDINSPATIALSTRUCTURE('0qWVVoPs9AWuUiDtXpUUs3',#5,$,$,(#64),#43);
#229= IFCRELDEFINESBYPROPERTIES('2gi6nIpfnCzvKJZWZVsSGo',#5,$,$,(#80),#86);
#230= IFCRELDEFINESBYPROPERTIES('341BdqT$L6uRHarCacX9z6',#5,$,$,(#214,#142),#146);
#231= IFCRELDEFINESBYPROPERTIES('20QzW1aQb13u18I5dqo44u',#5,$,$,(#64),#220);
#232= IFCRELDEFINESBYPROPERTIES('1CdzksRGLDrvBdqkJHv8ei',#5,$,$,(#64),#223);
#233= IFCRELASSOCIATESMATERIAL('3xDgMTdP99fwniekRPbWE2',#5,$,$,(#64),#224);
ENDSEC;

END-ISO-10303-21;
