ISO-10303-21;
HEADER;
FILE_DESCRIPTION(('ViewDefinition[AISC_Steel_Detailing]', 'Option [BaseQuantities:Off]', 'Option [GridExport:On]', 'Option [Assemblies:Off]', 'Option [Bolts:On]', 'Option [Rebars:On]', 'Option [PourObjects:Off]', 'Option [Welds:On]', 'Option [SurfaceTreatments:On]', 'Option [LocationBy:0]', 'Option [ViewColors:Off]', 'Option [SectionedSpine:Off]', 'Option [PropertySets:On]', 'Option [Export all:Off]'),'2;1');
FILE_NAME('1308_Qty_1.ifc','2026-05-16T11:52:52',('GIOVANNIPC\\gcorrea'),('Structural Designer'),'IFC Database version: Work','Tekla Structures 2020 Service Pack 5, IFC Export Version: 4.0.0.0 Dec  7 2020','');
FILE_SCHEMA(('IFC2X3'));
ENDSEC;

DATA;
#1= IFCPERSON('GIOVANNIPC\\gcorrea','Undefined',$,$,$,$,$,$);
#2= IFCORGANIZATION($,'Trimble Solutions Corporation',$,$,$);
#3= IFCPERSONANDORGANIZATION(#1,#2,$);
#4= IFCAPPLICATION(#2,'2020 Service Pack 5','Tekla Structures','Multi material modeling');
#5= IFCOWNERHISTORY(#3,#4,$,.NOCHANGE.,$,$,$,1778950372);
#6= IFCCARTESIANPOINT((0.,0.,0.));
#7= IFCDIRECTION((1.,0.,0.));
#8= IFCDIRECTION((0.,1.,0.));
#9= IFCDIRECTION((0.,0.,1.));
#10= IFCAXIS2PLACEMENT3D(#6,#9,#7);
#11= IFCGEOMETRICREPRESENTATIONCONTEXT($,'Model',3,1.E-05,#10,$);
#12= IFCGEOMETRICREPRESENTATIONSUBCONTEXT('Body','Model',*,*,*,*,#11,$,.MODEL_VIEW.,$);
#13= IFCGEOMETRICREPRESENTATIONSUBCONTEXT('Axis','Model',*,*,*,*,#11,$,.GRAPH_VIEW.,$);
#14= IFCGEOMETRICREPRESENTATIONSUBCONTEXT('FootPrint','Model',*,*,*,*,#11,$,.MODEL_VIEW.,$);
#15= IFCSIUNIT(*,.LENGTHUNIT.,.MILLI.,.METRE.);
#16= IFCMEASUREWITHUNIT(IFCRATIOMEASURE(304.8),#15);
#17= IFCDIMENSIONALEXPONENTS(1,0,0,0,0,0,0);
#18= IFCCONVERSIONBASEDUNIT(#17,.LENGTHUNIT.,'FOOT',#16);
#19= IFCSIUNIT(*,.AREAUNIT.,$,.SQUARE_METRE.);
#20= IFCMEASUREWITHUNIT(IFCRATIOMEASURE(0.09290304),#19);
#21= IFCDIMENSIONALEXPONENTS(2,0,0,0,0,0,0);
#22= IFCCONVERSIONBASEDUNIT(#21,.AREAUNIT.,'SQUARE FOOT',#20);
#23= IFCSIUNIT(*,.VOLUMEUNIT.,$,.CUBIC_METRE.);
#24= IFCMEASUREWITHUNIT(IFCRATIOMEASURE(0.028316846592),#23);
#25= IFCDIMENSIONALEXPONENTS(3,0,0,0,0,0,0);
#26= IFCCONVERSIONBASEDUNIT(#25,.VOLUMEUNIT.,'CUBIC FOOT',#24);
#27= IFCSIUNIT(*,.MASSUNIT.,.KILO.,.GRAM.);
#28= IFCSIUNIT(*,.TIMEUNIT.,$,.SECOND.);
#29= IFCSIUNIT(*,.PLANEANGLEUNIT.,$,.RADIAN.);
#30= IFCMEASUREWITHUNIT(IFCRATIOMEASURE(0.0174532925199433),#29);
#31= IFCDIMENSIONALEXPONENTS(0,0,0,0,0,0,0);
#32= IFCCONVERSIONBASEDUNIT(#31,.PLANEANGLEUNIT.,'DEGREE',#30);
#33= IFCSIUNIT(*,.SOLIDANGLEUNIT.,$,.STERADIAN.);
#34= IFCSIUNIT(*,.THERMODYNAMICTEMPERATUREUNIT.,$,.DEGREE_CELSIUS.);
#35= IFCSIUNIT(*,.LUMINOUSINTENSITYUNIT.,$,.LUMEN.);
#36= IFCUNITASSIGNMENT((#15,#19,#23,#27,#28,#29,#33,#34,#35));
#37= IFCPROJECT('2G7ZFDNE16yBDU14FA92Me',#5,'Proyecto',$,$,$,$,(#11),#36);
#38= IFCLOCALPLACEMENT($,#10);
#39= IFCSITE('2xvEzEinjBTea80yOTcujY',#5,'Obra',$,$,#38,$,$,.ELEMENT.,$,$,$,$,$);
#40= IFCLOCALPLACEMENT(#38,#10);
#41= IFCBUILDING('1JnlaKwkzEARNsrKa2K9hg',#5,'Undefined',$,$,#40,$,$,.ELEMENT.,$,$,$);
#42= IFCLOCALPLACEMENT(#40,#10);
#43= IFCBUILDINGSTOREY('29hdEUCErFze9E_VIAceOd',#5,'Undefined',$,$,#42,$,$,.ELEMENT.,0.);
#44= IFCOWNERHISTORY(#3,#4,$,.NOCHANGE.,$,$,$,1774040400);
#45= IFCCARTESIANPOINT((77164.8379154989,23999.5714171393,19359.5));
#46= IFCDIRECTION((0.,0.,-1.));
#47= IFCDIRECTION((0.,-1.,0.));
#48= IFCAXIS2PLACEMENT3D(#45,#46,#47);
#49= IFCLOCALPLACEMENT(#42,#48);
#50= IFCCARTESIANPOINT((0.,0.));
#51= IFCCARTESIANPOINT((200.,0.));
#52= IFCCARTESIANPOINT((252.687347412109,462.507904052734));
#53= IFCCARTESIANPOINT((252.687347412109,807.489868164063));
#54= IFCCARTESIANPOINT((226.030319213867,1529.99975585938));
#55= IFCCARTESIANPOINT((-23.9696750640869,1529.99975585938));
#56= IFCCARTESIANPOINT((-47.3126640319824,807.489868164063));
#57= IFCCARTESIANPOINT((-47.3126640319824,462.507904052734));
#58= IFCPOLYLINE((#50,#51,#52,#53,#54,#55,#56,#57,#50));
#59= IFCARBITRARYCLOSEDPROFILEDEF(.AREA.,'PL19*313',#58);
#60= IFCCARTESIANPOINT((0.,0.,-9.5));
#61= IFCAXIS2PLACEMENT3D(#60,#9,#7);
#62= IFCEXTRUDEDAREASOLID(#59,#61,#9,19.);
#63= IFCSHAPEREPRESENTATION(#12,'Body','SweptSolid',(#62));
#64= IFCPRODUCTDEFINITIONSHAPE($,$,(#63));
#65= IFCPLATE('1CKvAtNpL2wOGTp0FQ7M7X',#44,'PLATE','PL19*313','PL19*313',#49,#64,'ID4c5392b7-5f35-42e9-841d-cc03da1d61e1');
#66= IFCCARTESIANPOINT((76709.8376989081,23896.8840788611,19350.));
#67= IFCDIRECTION((-0.0021802770004142,0.999997623193276,0.));
#68= IFCDIRECTION((0.999997623193276,0.00218027700041918,0.));
#69= IFCAXIS2PLACEMENT3D(#66,#67,#68);
#70= IFCLOCALPLACEMENT(#42,#69);
#71= IFCDIRECTION((1.,0.));
#72= IFCAXIS2PLACEMENT2D(#50,#71);
#73= IFCCIRCLEPROFILEDEF(.AREA.,$,#72,11.);
#74= IFCCARTESIANPOINT((0.,-19.1,0.));
#75= IFCAXIS2PLACEMENT3D(#74,#8,#7);
#76= IFCEXTRUDEDAREASOLID(#73,#75,#9,19.2);
#77= IFCSHAPEREPRESENTATION(#12,'Body','SweptSolid',(#76));
#78= IFCREPRESENTATIONMAP(#10,#77);
#79= IFCCARTESIANPOINT((3.63797880709171E-10,0.,49.9999999998763));
#80= IFCCARTESIANTRANSFORMATIONOPERATOR3D($,$,#79,$,$);
#81= IFCMAPPEDITEM(#78,#80);
#82= IFCCARTESIANPOINT((70.0000000001892,0.,49.9999999988577));
#83= IFCCARTESIANTRANSFORMATIONOPERATOR3D($,$,#82,$,$);
#84= IFCMAPPEDITEM(#78,#83);
#85= IFCCARTESIANPOINT((140.000000000015,0.,49.9999999978354));
#86= IFCCARTESIANTRANSFORMATIONOPERATOR3D($,$,#85,$,$);
#87= IFCMAPPEDITEM(#78,#86);
#88= IFCCARTESIANPOINT((209.999999999825,0.,49.9999999968204));
#89= IFCCARTESIANTRANSFORMATIONOPERATOR3D($,$,#88,$,$);
#90= IFCMAPPEDITEM(#78,#89);
#91= IFCCARTESIANPOINT((279.999999999651,0.,49.9999999958018));
#92= IFCCARTESIANTRANSFORMATIONOPERATOR3D($,$,#91,$,$);
#93= IFCMAPPEDITEM(#78,#92);
#94= IFCCARTESIANPOINT((349.999999999491,0.,49.9999999947831));
#95= IFCCARTESIANTRANSFORMATIONOPERATOR3D($,$,#94,$,$);
#96= IFCMAPPEDITEM(#78,#95);
#97= IFCCARTESIANPOINT((419.999999999302,0.,49.9999999937645));
#98= IFCCARTESIANTRANSFORMATIONOPERATOR3D($,$,#97,$,$);
#99= IFCMAPPEDITEM(#78,#98);
#100= IFCCARTESIANPOINT((-3.63797880709171E-10,0.,-49.9999999998763));
#101= IFCCARTESIANTRANSFORMATIONOPERATOR3D($,$,#100,$,$);
#102= IFCMAPPEDITEM(#78,#101);
#103= IFCCARTESIANPOINT((69.9999999994616,0.,-50.0000000008949));
#104= IFCCARTESIANTRANSFORMATIONOPERATOR3D($,$,#103,$,$);
#105= IFCMAPPEDITEM(#78,#104);
#106= IFCCARTESIANPOINT((139.999999999287,0.,-50.0000000019136));
#107= IFCCARTESIANTRANSFORMATIONOPERATOR3D($,$,#106,$,$);
#108= IFCMAPPEDITEM(#78,#107);
#109= IFCCARTESIANPOINT((209.999999999098,0.,-50.0000000029286));
#110= IFCCARTESIANTRANSFORMATIONOPERATOR3D($,$,#109,$,$);
#111= IFCMAPPEDITEM(#78,#110);
#112= IFCCARTESIANPOINT((279.999999998923,0.,-50.0000000039472));
#113= IFCCARTESIANTRANSFORMATIONOPERATOR3D($,$,#112,$,$);
#114= IFCMAPPEDITEM(#78,#113);
#115= IFCCARTESIANPOINT((349.999999998749,0.,-50.0000000049658));
#116= IFCCARTESIANTRANSFORMATIONOPERATOR3D($,$,#115,$,$);
#117= IFCMAPPEDITEM(#78,#116);
#118= IFCCARTESIANPOINT((419.999999998588,0.,-50.0000000059845));
#119= IFCCARTESIANTRANSFORMATIONOPERATOR3D($,$,#118,$,$);
#120= IFCMAPPEDITEM(#78,#119);
#121= IFCSHAPEREPRESENTATION(#12,'Body','MappedRepresentation',(#81,#84,#87,#90,#93,#96,#99,#102,#105,#108,#111,#114,#117,#120));
#122= IFCPRODUCTDEFINITIONSHAPE($,$,(#121));
#123= IFCOPENINGELEMENT('03hDMuF8D48P_ViyPjNeRG',#5,$,$,'Opening',#70,#122,$);
#124= IFCRELVOIDSELEMENT('3sdadtL0j5veSwZblVVwCl',#5,'Drill Hole',$,#65,#123);
#125= IFCPROPERTYSINGLEVALUE('FeatureSubTypes',$,IFCLABEL('TORNILLO'),$);
#126= IFCPROPERTYSINGLEVALUE('RectangleOpeningWidth',$,$,$);
#127= IFCPROPERTYSINGLEVALUE('RectangleOpeningHeight',$,$,$);
#128= IFCPROPERTYSINGLEVALUE('OpeningDiameter',$,$,$);
#129= IFCPROPERTYSET('2Bb49m0C5AFOln72pQr2TU',#5,'AISC_EM11_Pset_Opening/Cope',$,(#125,#126,#127,#128));
#130= IFCCARTESIANPOINT((76349.8381320898,23896.8840788611,19350.));
#131= IFCDIRECTION((-0.0021802770004142,-0.999997623193276,0.));
#132= IFCDIRECTION((-0.999997623193276,0.00218027700041986,0.));
#133= IFCAXIS2PLACEMENT3D(#130,#131,#132);
#134= IFCLOCALPLACEMENT(#42,#133);
#135= IFCCARTESIANPOINT((-5.5297277867794E-10,0.,74.9999999998108));
#136= IFCCARTESIANTRANSFORMATIONOPERATOR3D($,$,#135,$,$);
#137= IFCMAPPEDITEM(#78,#136);
#138= IFCCARTESIANPOINT((74.9999999992433,0.,75.0000000009059));
#139= IFCCARTESIANTRANSFORMATIONOPERATOR3D($,$,#138,$,$);
#140= IFCMAPPEDITEM(#78,#139);
#141= IFCCARTESIANPOINT((149.999999999069,0.,75.0000000019936));
#142= IFCCARTESIANTRANSFORMATIONOPERATOR3D($,$,#141,$,$);
#143= IFCMAPPEDITEM(#78,#142);
#144= IFCCARTESIANPOINT((224.99999999888,0.,75.0000000030886));
#145= IFCCARTESIANTRANSFORMATIONOPERATOR3D($,$,#144,$,$);
#146= IFCMAPPEDITEM(#78,#145);
#147= IFCCARTESIANPOINT((299.99999999869,0.,75.00000000418));
#148= IFCCARTESIANTRANSFORMATIONOPERATOR3D($,$,#147,$,$);
#149= IFCMAPPEDITEM(#78,#148);
#150= IFCCARTESIANPOINT((374.999999998501,0.,75.0000000052678));
#151= IFCCARTESIANTRANSFORMATIONOPERATOR3D($,$,#150,$,$);
#152= IFCMAPPEDITEM(#78,#151);
#153= IFCCARTESIANPOINT((449.999999998312,0.,75.0000000063628));
#154= IFCCARTESIANTRANSFORMATIONOPERATOR3D($,$,#153,$,$);
#155= IFCMAPPEDITEM(#78,#154);
#156= IFCCARTESIANPOINT((524.999999998123,0.,75.0000000074542));
#157= IFCCARTESIANTRANSFORMATIONOPERATOR3D($,$,#156,$,$);
#158= IFCMAPPEDITEM(#78,#157);
#159= IFCCARTESIANPOINT((599.999999997934,0.,75.000000008542));
#160= IFCCARTESIANTRANSFORMATIONOPERATOR3D($,$,#159,$,$);
#161= IFCMAPPEDITEM(#78,#160);
#162= IFCCARTESIANPOINT((674.999999997744,0.,75.000000009637));
#163= IFCCARTESIANTRANSFORMATIONOPERATOR3D($,$,#162,$,$);
#164= IFCMAPPEDITEM(#78,#163);
#165= IFCCARTESIANPOINT((5.38420863449574E-10,0.,-74.9999999998108));
#166= IFCCARTESIANTRANSFORMATIONOPERATOR3D($,$,#165,$,$);
#167= IFCMAPPEDITEM(#78,#166);
#168= IFCCARTESIANPOINT((75.0000000003492,0.,-74.9999999987194));
#169= IFCCARTESIANTRANSFORMATIONOPERATOR3D($,$,#168,$,$);
#170= IFCMAPPEDITEM(#78,#169);
#171= IFCCARTESIANPOINT((150.00000000016,0.,-74.9999999976317));
#172= IFCCARTESIANTRANSFORMATIONOPERATOR3D($,$,#171,$,$);
#173= IFCMAPPEDITEM(#78,#172);
#174= IFCCARTESIANPOINT((224.999999999971,0.,-74.9999999965366));
#175= IFCCARTESIANTRANSFORMATIONOPERATOR3D($,$,#174,$,$);
#176= IFCMAPPEDITEM(#78,#175);
#177= IFCCARTESIANPOINT((299.999999999782,0.,-74.9999999954453));
#178= IFCCARTESIANTRANSFORMATIONOPERATOR3D($,$,#177,$,$);
#179= IFCMAPPEDITEM(#78,#178);
#180= IFCCARTESIANPOINT((374.999999999593,0.,-74.9999999943575));
#181= IFCCARTESIANTRANSFORMATIONOPERATOR3D($,$,#180,$,$);
#182= IFCMAPPEDITEM(#78,#181);
#183= IFCCARTESIANPOINT((449.999999999403,0.,-74.9999999932625));
#184= IFCCARTESIANTRANSFORMATIONOPERATOR3D($,$,#183,$,$);
#185= IFCMAPPEDITEM(#78,#184);
#186= IFCCARTESIANPOINT((524.999999999214,0.,-74.9999999921711));
#187= IFCCARTESIANTRANSFORMATIONOPERATOR3D($,$,#186,$,$);
#188= IFCMAPPEDITEM(#78,#187);
#189= IFCCARTESIANPOINT((599.999999999025,0.,-74.9999999910833));
#190= IFCCARTESIANTRANSFORMATIONOPERATOR3D($,$,#189,$,$);
#191= IFCMAPPEDITEM(#78,#190);
#192= IFCCARTESIANPOINT((674.999999998836,0.,-74.9999999899883));
#193= IFCCARTESIANTRANSFORMATIONOPERATOR3D($,$,#192,$,$);
#194= IFCMAPPEDITEM(#78,#193);
#195= IFCSHAPEREPRESENTATION(#12,'Body','MappedRepresentation',(#137,#140,#143,#146,#149,#152,#155,#158,#161,#164,#167,#170,#173,#176,#179,#182,#185,#188,#191,#194));
#196= IFCPRODUCTDEFINITIONSHAPE($,$,(#195));
#197= IFCOPENINGELEMENT('2Wi8kodpnDLfZQ_tSwmyMB',#5,$,$,'Opening',#134,#196,$);
#198= IFCRELVOIDSELEMENT('3Q5U_Orhn07AXylptX38dy',#5,'Drill Hole',$,#65,#197);
#199= IFCPROPERTYSINGLEVALUE('PieceMark',$,IFCIDENTIFIER('PLATE'),$);
#200= IFCPROPERTYSINGLEVALUE('IndicationMark',$,IFCIDENTIFIER('1308'),$);
#201= IFCPROPERTYSINGLEVALUE('PrelimMark',$,IFCIDENTIFIER(''),$);
#202= IFCPROPERTYSINGLEVALUE('MainPieceTag',$,IFCBOOLEAN(.T.),$);
#203= IFCPROPERTYSET('3fcKiA03XDLf5Tiu9ffkK6',#5,'AISC_EM11_Pset_PieceIdentification','PieceIdentity',(#199,#200,#201,#202));
#204= IFCPROPERTYSINGLEVALUE('MaterialType',$,IFCIDENTIFIER('STEEL'),$);
#205= IFCPROPERTYSINGLEVALUE('MaterialGrade',$,IFCIDENTIFIER('S235JR'),$);
#206= IFCPROPERTYSET('0LuLi0xWL0zhawImt5TOqQ',#5,'AISC_EM11_Pset_Material',$,(#204,#205));
#207= IFCMATERIAL('STEEL/S235JR');
#208= IFCRELAGGREGATES('1J2uFRdw18IRQm8ZoOqL42',#5,$,$,#37,(#39));
#209= IFCRELAGGREGATES('2bKAXjvCJQaji2Qr4g6dMK',#5,$,$,#39,(#41));
#210= IFCRELAGGREGATES('3PYYvGjif3kuyv1yr2sqw8',#5,$,$,#41,(#43));
#211= IFCRELCONTAINEDINSPATIALSTRUCTURE('2CnKXtL7v8OhxgZVN5ihRj',#5,$,$,(#65),#43);
#212= IFCRELDEFINESBYPROPERTIES('13MDkK$YnFIPu9A$mayUr8',#5,$,$,(#197,#123),#129);
#213= IFCRELDEFINESBYPROPERTIES('1hhM3iMvTF$RUrbPHtZ3IH',#5,$,$,(#65),#203);
#214= IFCRELDEFINESBYPROPERTIES('37Uvx95D1Diw5RyDNeG3if',#5,$,$,(#65),#206);
#215= IFCRELASSOCIATESMATERIAL('3gnQsHwF17ER6dqjUhCzdJ',#5,$,$,(#65),#207);
ENDSEC;

END-ISO-10303-21;
