ISO-10303-21;
HEADER;
FILE_DESCRIPTION(('ViewDefinition[AISC_Steel_Detailing]', 'Option [BaseQuantities:Off]', 'Option [GridExport:On]', 'Option [Assemblies:Off]', 'Option [Bolts:On]', 'Option [Rebars:On]', 'Option [PourObjects:Off]', 'Option [Welds:On]', 'Option [SurfaceTreatments:On]', 'Option [LocationBy:0]', 'Option [ViewColors:Off]', 'Option [SectionedSpine:Off]', 'Option [PropertySets:On]', 'Option [Export all:Off]'),'2;1');
FILE_NAME('1341_Qty_8.ifc','2026-05-16T11:52:53',('GIOVANNIPC\\gcorrea'),('Structural Designer'),'IFC Database version: Work','Tekla Structures 2020 Service Pack 5, IFC Export Version: 4.0.0.0 Dec  7 2020','');
FILE_SCHEMA(('IFC2X3'));
ENDSEC;

DATA;
#1= IFCPERSON('GIOVANNIPC\\gcorrea','Undefined',$,$,$,$,$,$);
#2= IFCORGANIZATION($,'Trimble Solutions Corporation',$,$,$);
#3= IFCPERSONANDORGANIZATION(#1,#2,$);
#4= IFCAPPLICATION(#2,'2020 Service Pack 5','Tekla Structures','Multi material modeling');
#5= IFCOWNERHISTORY(#3,#4,$,.NOCHANGE.,$,$,$,1778950373);
#6= IFCCARTESIANPOINT((0.,0.,0.));
#7= IFCDIRECTION((1.,0.,0.));
#8= IFCDIRECTION((0.,1.,0.));
#9= IFCDIRECTION((0.,0.,1.));
#10= IFCAXIS2PLACEMENT3D(#6,#9,#7);
#11= IFCGEOMETRICREPRESENTATIONCONTEXT($,'Model',3,1.E-05,#10,$);
#12= IFCGEOMETRICREPRESENTATIONSUBCONTEXT('Body','Model',*,*,*,*,#11,$,.MODEL_VIEW.,$);
#13= IFCGEOMETRICREPRESENTATIONSUBCONTEXT('Axis','Model',*,*,*,*,#11,$,.GRAPH_VIEW.,$);
#14= IFCGEOMETRICREPRESENTATIONSUBCONTEXT('FootPrint','Model',*,*,*,*,#11,$,.MODEL_VIEW.,$);
#15= IFCSIUNIT(*,.LENGTHUNIT.,.MILLI.,.METRE.);
#16= IFCMEASUREWITHUNIT(IFCRATIOMEASURE(304.8),#15);
#17= IFCDIMENSIONALEXPONENTS(1,0,0,0,0,0,0);
#18= IFCCONVERSIONBASEDUNIT(#17,.LENGTHUNIT.,'FOOT',#16);
#19= IFCSIUNIT(*,.AREAUNIT.,$,.SQUARE_METRE.);
#20= IFCMEASUREWITHUNIT(IFCRATIOMEASURE(0.09290304),#19);
#21= IFCDIMENSIONALEXPONENTS(2,0,0,0,0,0,0);
#22= IFCCONVERSIONBASEDUNIT(#21,.AREAUNIT.,'SQUARE FOOT',#20);
#23= IFCSIUNIT(*,.VOLUMEUNIT.,$,.CUBIC_METRE.);
#24= IFCMEASUREWITHUNIT(IFCRATIOMEASURE(0.028316846592),#23);
#25= IFCDIMENSIONALEXPONENTS(3,0,0,0,0,0,0);
#26= IFCCONVERSIONBASEDUNIT(#25,.VOLUMEUNIT.,'CUBIC FOOT',#24);
#27= IFCSIUNIT(*,.MASSUNIT.,.KILO.,.GRAM.);
#28= IFCSIUNIT(*,.TIMEUNIT.,$,.SECOND.);
#29= IFCSIUNIT(*,.PLANEANGLEUNIT.,$,.RADIAN.);
#30= IFCMEASUREWITHUNIT(IFCRATIOMEASURE(0.0174532925199433),#29);
#31= IFCDIMENSIONALEXPONENTS(0,0,0,0,0,0,0);
#32= IFCCONVERSIONBASEDUNIT(#31,.PLANEANGLEUNIT.,'DEGREE',#30);
#33= IFCSIUNIT(*,.SOLIDANGLEUNIT.,$,.STERADIAN.);
#34= IFCSIUNIT(*,.THERMODYNAMICTEMPERATUREUNIT.,$,.DEGREE_CELSIUS.);
#35= IFCSIUNIT(*,.LUMINOUSINTENSITYUNIT.,$,.LUMEN.);
#36= IFCUNITASSIGNMENT((#15,#19,#23,#27,#28,#29,#33,#34,#35));
#37= IFCPROJECT('2G7ZFDNE16yBDU14FA92Me',#5,'Proyecto',$,$,$,$,(#11),#36);
#38= IFCLOCALPLACEMENT($,#10);
#39= IFCSITE('2xvEzEinjBTea80yOTcujY',#5,'Obra',$,$,#38,$,$,.ELEMENT.,$,$,$,$,$);
#40= IFCLOCALPLACEMENT(#38,#10);
#41= IFCBUILDING('3UPdXeUnf738l_W3vWp383',#5,'Undefined',$,$,#40,$,$,.ELEMENT.,$,$,$);
#42= IFCLOCALPLACEMENT(#40,#10);
#43= IFCBUILDINGSTOREY('29hdEUCErFze9E_VIAceOd',#5,'Undefined',$,$,#42,$,$,.ELEMENT.,0.);
#44= IFCOWNERHISTORY(#3,#4,$,.NOCHANGE.,$,$,$,1774890000);
#45= IFCCARTESIANPOINT((16026.9821604105,1477.71554607466,19359.5));
#46= IFCDIRECTION((0.,0.,-1.));
#47= IFCDIRECTION((7.11260000335885E-05,0.999999997470546,0.));
#48= IFCAXIS2PLACEMENT3D(#45,#46,#47);
#49= IFCLOCALPLACEMENT(#42,#48);
#50= IFCCARTESIANPOINT((0.,0.));
#51= IFCCARTESIANPOINT((250.573776245078,-1.09139364212751E-11));
#52= IFCCARTESIANPOINT((338.208374023384,872.993957518203));
#53= IFCCARTESIANPOINT((351.656188964788,972.992858885242));
#54= IFCCARTESIANPOINT((338.102386474556,1072.99401855305));
#55= IFCCARTESIANPOINT((250.718200683554,1945.99951171579));
#56= IFCCARTESIANPOINT((0.718212187289737,1946.01733398142));
#57= IFCCARTESIANPOINT((-104.407409667953,973.254882811019));
#58= IFCPOLYLINE((#50,#51,#52,#53,#54,#55,#56,#57,#50));
#59= IFCARBITRARYCLOSEDPROFILEDEF(.AREA.,'PL19*457',#58);
#60= IFCCARTESIANPOINT((0.,0.,-9.50000000000364));
#61= IFCAXIS2PLACEMENT3D(#60,#9,#7);
#62= IFCEXTRUDEDAREASOLID(#59,#61,#9,19.);
#63= IFCSHAPEREPRESENTATION(#12,'Body','SweptSolid',(#62));
#64= IFCPRODUCTDEFINITIONSHAPE($,$,(#63));
#65= IFCPLATE('1e7cc3XpnCpO6olo_b1SJy',#44,'PLATE','PL19*457','PL19*457',#49,#64,'ID681e6983-873c-4ccd-81b2-bf2fa505c4fc');
#66= IFCLOCALPLACEMENT(#42,#48);
#67= IFCDIRECTION((1.,0.));
#68= IFCAXIS2PLACEMENT2D(#50,#67);
#69= IFCCIRCLEPROFILEDEF(.AREA.,'\S\X416*1',#68,208.);
#70= IFCCARTESIANPOINT((125.44962246005,973.008627383513,-4240.5));
#71= IFCAXIS2PLACEMENT3D(#70,#9,#47);
#72= IFCEXTRUDEDAREASOLID(#69,#71,#9,15184.);
#73= IFCCARTESIANPOINT((333.449621933924,972.993833175509,10943.5));
#74= IFCDIRECTION((-0.999999997470546,7.11260000316543E-05,0.));
#75= IFCAXIS2PLACEMENT3D(#73,#46,#74);
#76= IFCPLANE(#75);
#77= IFCHALFSPACESOLID(#76,.T.);
#78= IFCBOOLEANCLIPPINGRESULT(.DIFFERENCE.,#72,#77);
#79= IFCSHAPEREPRESENTATION(#12,'Body','Clipping',(#78));
#80= IFCPRODUCTDEFINITIONSHAPE($,$,(#79));
#81= IFCOPENINGELEMENT('2_Rw82IZzBAgohRhQpSQhO',#5,$,$,'Recess',#66,#80,$);
#82= IFCRELVOIDSELEMENT('0URceipdX0Vuwv7a1$U1d$',#5,$,$,#65,#81);
#83= IFCPROPERTYSINGLEVALUE('FeatureSubTypes',$,$,$);
#84= IFCPROPERTYSINGLEVALUE('RectangleOpeningWidth',$,$,$);
#85= IFCPROPERTYSINGLEVALUE('RectangleOpeningHeight',$,$,$);
#86= IFCPROPERTYSINGLEVALUE('OpeningDiameter',$,IFCPOSITIVELENGTHMEASURE(416.),$);
#87= IFCPROPERTYSET('3X96JuYL95nx4agh5oHulo',#5,'AISC_EM11_Pset_Opening/Cope',$,(#83,#84,#85,#86));
#88= IFCCARTESIANPOINT((16742.1079479209,1603.2953486024,19350.));
#89= IFCDIRECTION((0.00143953599980887,-0.999998963867516,0.));
#90= IFCDIRECTION((-0.999998963867516,-0.00143953599980911,0.));
#91= IFCAXIS2PLACEMENT3D(#88,#89,#90);
#92= IFCLOCALPLACEMENT(#42,#91);
#93= IFCCIRCLEPROFILEDEF(.AREA.,$,#68,12.5);
#94= IFCCARTESIANPOINT((0.,-19.1,0.));
#95= IFCAXIS2PLACEMENT3D(#94,#8,#7);
#96= IFCEXTRUDEDAREASOLID(#93,#95,#9,19.2);
#97= IFCSHAPEREPRESENTATION(#12,'Body','SweptSolid',(#96));
#98= IFCREPRESENTATIONMAP(#10,#97);
#99= IFCCARTESIANPOINT((-1.74622982740402E-10,0.,-74.999999999995));
#100= IFCCARTESIANTRANSFORMATIONOPERATOR3D($,$,#99,$,$);
#101= IFCMAPPEDITEM(#98,#100);
#102= IFCCARTESIANPOINT((74.999999999789,0.,-75.0000000001996));
#103= IFCCARTESIANTRANSFORMATIONOPERATOR3D($,$,#102,$,$);
#104= IFCMAPPEDITEM(#98,#103);
#105= IFCCARTESIANPOINT((149.999999999749,0.,-75.0000000004043));
#106= IFCCARTESIANTRANSFORMATIONOPERATOR3D($,$,#105,$,$);
#107= IFCMAPPEDITEM(#98,#106);
#108= IFCCARTESIANPOINT((224.999999999709,0.,-75.0000000006089));
#109= IFCCARTESIANTRANSFORMATIONOPERATOR3D($,$,#108,$,$);
#110= IFCMAPPEDITEM(#98,#109);
#111= IFCCARTESIANPOINT((299.999999999673,0.,-75.0000000008135));
#112= IFCCARTESIANTRANSFORMATIONOPERATOR3D($,$,#111,$,$);
#113= IFCMAPPEDITEM(#98,#112);
#114= IFCCARTESIANPOINT((374.999999999631,0.,-75.0000000010182));
#115= IFCCARTESIANTRANSFORMATIONOPERATOR3D($,$,#114,$,$);
#116= IFCMAPPEDITEM(#98,#115);
#117= IFCCARTESIANPOINT((449.999999999593,0.,-75.0000000012228));
#118= IFCCARTESIANTRANSFORMATIONOPERATOR3D($,$,#117,$,$);
#119= IFCMAPPEDITEM(#98,#118);
#120= IFCCARTESIANPOINT((524.999999999554,0.,-75.0000000014275));
#121= IFCCARTESIANTRANSFORMATIONOPERATOR3D($,$,#120,$,$);
#122= IFCMAPPEDITEM(#98,#121);
#123= IFCCARTESIANPOINT((599.999999999514,0.,-75.0000000016321));
#124= IFCCARTESIANTRANSFORMATIONOPERATOR3D($,$,#123,$,$);
#125= IFCMAPPEDITEM(#98,#124);
#126= IFCCARTESIANPOINT((674.999999999476,0.,-75.0000000018367));
#127= IFCCARTESIANTRANSFORMATIONOPERATOR3D($,$,#126,$,$);
#128= IFCMAPPEDITEM(#98,#127);
#129= IFCCARTESIANPOINT((1.67347025126219E-10,0.,74.9999999999952));
#130= IFCCARTESIANTRANSFORMATIONOPERATOR3D($,$,#129,$,$);
#131= IFCMAPPEDITEM(#98,#130);
#132= IFCCARTESIANPOINT((75.0000000001273,0.,74.9999999997906));
#133= IFCCARTESIANTRANSFORMATIONOPERATOR3D($,$,#132,$,$);
#134= IFCMAPPEDITEM(#98,#133);
#135= IFCCARTESIANPOINT((150.000000000087,0.,74.999999999586));
#136= IFCCARTESIANTRANSFORMATIONOPERATOR3D($,$,#135,$,$);
#137= IFCMAPPEDITEM(#98,#136);
#138= IFCCARTESIANPOINT((225.000000000051,0.,74.9999999993813));
#139= IFCCARTESIANTRANSFORMATIONOPERATOR3D($,$,#138,$,$);
#140= IFCMAPPEDITEM(#98,#139);
#141= IFCCARTESIANPOINT((300.000000000015,0.,74.9999999991767));
#142= IFCCARTESIANTRANSFORMATIONOPERATOR3D($,$,#141,$,$);
#143= IFCMAPPEDITEM(#98,#142);
#144= IFCCARTESIANPOINT((374.999999999973,0.,74.999999998972));
#145= IFCCARTESIANTRANSFORMATIONOPERATOR3D($,$,#144,$,$);
#146= IFCMAPPEDITEM(#98,#145);
#147= IFCCARTESIANPOINT((449.999999999935,0.,74.9999999987674));
#148= IFCCARTESIANTRANSFORMATIONOPERATOR3D($,$,#147,$,$);
#149= IFCMAPPEDITEM(#98,#148);
#150= IFCCARTESIANPOINT((524.999999999894,0.,74.9999999985628));
#151= IFCCARTESIANTRANSFORMATIONOPERATOR3D($,$,#150,$,$);
#152= IFCMAPPEDITEM(#98,#151);
#153= IFCCARTESIANPOINT((599.999999999856,0.,74.9999999983581));
#154= IFCCARTESIANTRANSFORMATIONOPERATOR3D($,$,#153,$,$);
#155= IFCMAPPEDITEM(#98,#154);
#156= IFCCARTESIANPOINT((674.999999999816,0.,74.9999999981537));
#157= IFCCARTESIANTRANSFORMATIONOPERATOR3D($,$,#156,$,$);
#158= IFCMAPPEDITEM(#98,#157);
#159= IFCSHAPEREPRESENTATION(#12,'Body','MappedRepresentation',(#101,#104,#107,#110,#113,#116,#119,#122,#125,#128,#131,#134,#137,#140,#143,#146,#149,#152,#155,#158));
#160= IFCPRODUCTDEFINITIONSHAPE($,$,(#159));
#161= IFCOPENINGELEMENT('2IcMRG0N90jR8Hg9$qmN9h',#5,$,$,'Opening',#92,#160,$);
#162= IFCRELVOIDSELEMENT('2bhZUErTDDOOD4OKfLFjoK',#5,'Drill Hole',$,#65,#161);
#163= IFCPROPERTYSINGLEVALUE('FeatureSubTypes',$,IFCLABEL('TORNILLO'),$);
#164= IFCPROPERTYSINGLEVALUE('OpeningDiameter',$,$,$);
#165= IFCPROPERTYSET('0nqSfAQHnD3fR_GWrTE6N2',#5,'AISC_EM11_Pset_Opening/Cope',$,(#163,#84,#85,#164));
#166= IFCCARTESIANPOINT((17257.9994554341,1603.2953486024,19350.));
#167= IFCAXIS2PLACEMENT3D(#166,#8,#7);
#168= IFCLOCALPLACEMENT(#42,#167);
#169= IFCSHAPEREPRESENTATION(#12,'Body','MappedRepresentation',(#101,#104,#107,#110,#113,#116,#119,#122,#125,#128,#131,#134,#137,#140,#143,#146,#149,#152,#155,#158));
#170= IFCPRODUCTDEFINITIONSHAPE($,$,(#169));
#171= IFCOPENINGELEMENT('2dHJ4lqdj8bOJIhabaI2aD',#5,$,$,'Opening',#168,#170,$);
#172= IFCRELVOIDSELEMENT('3BwaKJMf9EVv3rVKADUFTj',#5,'Drill Hole',$,#65,#171);
#173= IFCPROPERTYSINGLEVALUE('PieceMark',$,IFCIDENTIFIER('PLATE'),$);
#174= IFCPROPERTYSINGLEVALUE('IndicationMark',$,IFCIDENTIFIER('1341'),$);
#175= IFCPROPERTYSINGLEVALUE('PrelimMark',$,IFCIDENTIFIER(''),$);
#176= IFCPROPERTYSINGLEVALUE('MainPieceTag',$,IFCBOOLEAN(.T.),$);
#177= IFCPROPERTYSET('3ox1NXq$L6jv4Qvid8kUc6',#5,'AISC_EM11_Pset_PieceIdentification','PieceIdentity',(#173,#174,#175,#176));
#178= IFCPROPERTYSINGLEVALUE('MaterialType',$,IFCIDENTIFIER('STEEL'),$);
#179= IFCPROPERTYSINGLEVALUE('MaterialGrade',$,IFCIDENTIFIER('S235JR'),$);
#180= IFCPROPERTYSET('2$PXjT4i56kvC_Usfb4sKN',#5,'AISC_EM11_Pset_Material',$,(#178,#179));
#181= IFCMATERIAL('STEEL/S235JR');
#182= IFCRELAGGREGATES('3$4g3S_zD1bBV3d1DLzkaw',#5,$,$,#37,(#39));
#183= IFCRELAGGREGATES('2HMyLkGFVJtTnLvJVdF0sC',#5,$,$,#39,(#41));
#184= IFCRELAGGREGATES('1$7URjVaH6Wvs2gOh0mV1q',#5,$,$,#41,(#43));
#185= IFCRELCONTAINEDINSPATIALSTRUCTURE('2zDaUAYoP7iBe9jRWMnbh0',#5,$,$,(#65),#43);
#186= IFCRELDEFINESBYPROPERTIES('04em$36WTAlfdw5ouXeCTl',#5,$,$,(#81),#87);
#187= IFCRELDEFINESBYPROPERTIES('0UiDx5q_bDufIQjzfiCXvf',#5,$,$,(#171,#161),#165);
#188= IFCRELDEFINESBYPROPERTIES('1nW$AY46r9199bP44RZXmD',#5,$,$,(#65),#177);
#189= IFCRELDEFINESBYPROPERTIES('3aHil8WN5DDBEnGbtxAd1C',#5,$,$,(#65),#180);
#190= IFCRELASSOCIATESMATERIAL('0ExQSxPbr2ZQLTuA478sgv',#5,$,$,(#65),#181);
ENDSEC;

END-ISO-10303-21;
