ISO-10303-21;
HEADER;
FILE_DESCRIPTION(('ViewDefinition[AISC_Steel_Detailing]', 'Option [BaseQuantities:Off]', 'Option [GridExport:On]', 'Option [Assemblies:Off]', 'Option [Bolts:On]', 'Option [Rebars:On]', 'Option [PourObjects:Off]', 'Option [Welds:On]', 'Option [SurfaceTreatments:On]', 'Option [LocationBy:0]', 'Option [ViewColors:Off]', 'Option [SectionedSpine:Off]', 'Option [PropertySets:On]', 'Option [Export all:Off]'),'2;1');
FILE_NAME('1344_Qty_8.ifc','2026-05-16T11:52:51',('GIOVANNIPC\\gcorrea'),('Structural Designer'),'IFC Database version: Work','Tekla Structures 2020 Service Pack 5, IFC Export Version: 4.0.0.0 Dec  7 2020','');
FILE_SCHEMA(('IFC2X3'));
ENDSEC;

DATA;
#1= IFCPERSON('GIOVANNIPC\\gcorrea','Undefined',$,$,$,$,$,$);
#2= IFCORGANIZATION($,'Trimble Solutions Corporation',$,$,$);
#3= IFCPERSONANDORGANIZATION(#1,#2,$);
#4= IFCAPPLICATION(#2,'2020 Service Pack 5','Tekla Structures','Multi material modeling');
#5= IFCOWNERHISTORY(#3,#4,$,.NOCHANGE.,$,$,$,1778950371);
#6= IFCCARTESIANPOINT((0.,0.,0.));
#7= IFCDIRECTION((1.,0.,0.));
#8= IFCDIRECTION((0.,1.,0.));
#9= IFCDIRECTION((0.,0.,1.));
#10= IFCAXIS2PLACEMENT3D(#6,#9,#7);
#11= IFCGEOMETRICREPRESENTATIONCONTEXT($,'Model',3,1.E-05,#10,$);
#12= IFCGEOMETRICREPRESENTATIONSUBCONTEXT('Body','Model',*,*,*,*,#11,$,.MODEL_VIEW.,$);
#13= IFCGEOMETRICREPRESENTATIONSUBCONTEXT('Axis','Model',*,*,*,*,#11,$,.GRAPH_VIEW.,$);
#14= IFCGEOMETRICREPRESENTATIONSUBCONTEXT('FootPrint','Model',*,*,*,*,#11,$,.MODEL_VIEW.,$);
#15= IFCSIUNIT(*,.LENGTHUNIT.,.MILLI.,.METRE.);
#16= IFCMEASUREWITHUNIT(IFCRATIOMEASURE(304.8),#15);
#17= IFCDIMENSIONALEXPONENTS(1,0,0,0,0,0,0);
#18= IFCCONVERSIONBASEDUNIT(#17,.LENGTHUNIT.,'FOOT',#16);
#19= IFCSIUNIT(*,.AREAUNIT.,$,.SQUARE_METRE.);
#20= IFCMEASUREWITHUNIT(IFCRATIOMEASURE(0.09290304),#19);
#21= IFCDIMENSIONALEXPONENTS(2,0,0,0,0,0,0);
#22= IFCCONVERSIONBASEDUNIT(#21,.AREAUNIT.,'SQUARE FOOT',#20);
#23= IFCSIUNIT(*,.VOLUMEUNIT.,$,.CUBIC_METRE.);
#24= IFCMEASUREWITHUNIT(IFCRATIOMEASURE(0.028316846592),#23);
#25= IFCDIMENSIONALEXPONENTS(3,0,0,0,0,0,0);
#26= IFCCONVERSIONBASEDUNIT(#25,.VOLUMEUNIT.,'CUBIC FOOT',#24);
#27= IFCSIUNIT(*,.MASSUNIT.,.KILO.,.GRAM.);
#28= IFCSIUNIT(*,.TIMEUNIT.,$,.SECOND.);
#29= IFCSIUNIT(*,.PLANEANGLEUNIT.,$,.RADIAN.);
#30= IFCMEASUREWITHUNIT(IFCRATIOMEASURE(0.0174532925199433),#29);
#31= IFCDIMENSIONALEXPONENTS(0,0,0,0,0,0,0);
#32= IFCCONVERSIONBASEDUNIT(#31,.PLANEANGLEUNIT.,'DEGREE',#30);
#33= IFCSIUNIT(*,.SOLIDANGLEUNIT.,$,.STERADIAN.);
#34= IFCSIUNIT(*,.THERMODYNAMICTEMPERATUREUNIT.,$,.DEGREE_CELSIUS.);
#35= IFCSIUNIT(*,.LUMINOUSINTENSITYUNIT.,$,.LUMEN.);
#36= IFCUNITASSIGNMENT((#15,#19,#23,#27,#28,#29,#33,#34,#35));
#37= IFCPROJECT('2G7ZFDNE16yBDU14FA92Me',#5,'Proyecto',$,$,$,$,(#11),#36);
#38= IFCLOCALPLACEMENT($,#10);
#39= IFCSITE('2xvEzEinjBTea80yOTcujY',#5,'Obra',$,$,#38,$,$,.ELEMENT.,$,$,$,$,$);
#40= IFCLOCALPLACEMENT(#38,#10);
#41= IFCBUILDING('3qwsHdS090guDTYwILLehF',#5,'Undefined',$,$,#40,$,$,.ELEMENT.,$,$,$);
#42= IFCLOCALPLACEMENT(#40,#10);
#43= IFCBUILDINGSTOREY('29hdEUCErFze9E_VIAceOd',#5,'Undefined',$,$,#42,$,$,.ELEMENT.,0.);
#44= IFCOWNERHISTORY(#3,#4,$,.NOCHANGE.,$,$,$,1774897200);
#45= IFCCARTESIANPOINT((7526.98213167589,23775.385803998,22460.5));
#46= IFCDIRECTION((0.,0.,-1.));
#47= IFCDIRECTION((7.11260000335883E-05,0.999999997470546,0.));
#48= IFCAXIS2PLACEMENT3D(#45,#46,#47);
#49= IFCLOCALPLACEMENT(#42,#48);
#50= IFCCARTESIANPOINT((0.,0.));
#51= IFCCARTESIANPOINT((250.573776245645,-9.09494701772928E-13));
#52= IFCCARTESIANPOINT((338.208374024154,872.993957519791));
#53= IFCCARTESIANPOINT((351.65618896559,972.99285888701));
#54= IFCCARTESIANPOINT((338.102386475326,1072.99401855501));
#55= IFCCARTESIANPOINT((250.718200684125,1945.99951171933));
#56= IFCCARTESIANPOINT((0.718205988410773,1946.01733398496));
#57= IFCCARTESIANPOINT((-104.407409668191,973.254882812791));
#58= IFCPOLYLINE((#50,#51,#52,#53,#54,#55,#56,#57,#50));
#59= IFCARBITRARYCLOSEDPROFILEDEF(.AREA.,'PL19*457',#58);
#60= IFCCARTESIANPOINT((-3.63797880709171E-12,0.,-9.5));
#61= IFCAXIS2PLACEMENT3D(#60,#9,#7);
#62= IFCEXTRUDEDAREASOLID(#59,#61,#9,19.);
#63= IFCSHAPEREPRESENTATION(#12,'Body','SweptSolid',(#62));
#64= IFCPRODUCTDEFINITIONSHAPE($,$,(#63));
#65= IFCPLATE('2$vdQmIPX9aAz1S9Bn4nRR',#44,'PLATE','PL19*457','PL19*457',#49,#64,'IDbfe676b0-4998-4990-af41-7092f11316db');
#66= IFCLOCALPLACEMENT(#42,#48);
#67= IFCDIRECTION((1.,0.));
#68= IFCAXIS2PLACEMENT2D(#50,#67);
#69= IFCCIRCLEPROFILEDEF(.AREA.,'\S\X416*1',#68,208.);
#70= IFCCARTESIANPOINT((125.449622460048,973.008627383529,-5089.5));
#71= IFCAXIS2PLACEMENT3D(#70,#9,#47);
#72= IFCEXTRUDEDAREASOLID(#69,#71,#9,15184.);
#73= IFCCARTESIANPOINT((333.449621933923,972.993833175521,10094.5));
#74= IFCDIRECTION((-0.999999997470546,7.11260000334732E-05,0.));
#75= IFCAXIS2PLACEMENT3D(#73,#46,#74);
#76= IFCPLANE(#75);
#77= IFCHALFSPACESOLID(#76,.T.);
#78= IFCBOOLEANCLIPPINGRESULT(.DIFFERENCE.,#72,#77);
#79= IFCSHAPEREPRESENTATION(#12,'Body','Clipping',(#78));
#80= IFCPRODUCTDEFINITIONSHAPE($,$,(#79));
#81= IFCOPENINGELEMENT('363EAcUpH9EBzUDUO6w0Lm',#5,$,$,'Recess',#66,#80,$);
#82= IFCRELVOIDSELEMENT('1ww3LWJEn8A91IMnGMzPab',#5,$,$,#65,#81);
#83= IFCPROPERTYSINGLEVALUE('FeatureSubTypes',$,$,$);
#84= IFCPROPERTYSINGLEVALUE('RectangleOpeningWidth',$,$,$);
#85= IFCPROPERTYSINGLEVALUE('RectangleOpeningHeight',$,$,$);
#86= IFCPROPERTYSINGLEVALUE('OpeningDiameter',$,IFCPOSITIVELENGTHMEASURE(416.),$);
#87= IFCPROPERTYSET('1vw17PubX4Dhg2enHwAdf7',#5,'AISC_EM11_Pset_Opening/Cope',$,(#83,#84,#85,#86));
#88= IFCLOCALPLACEMENT(#42,#48);
#89= IFCPLANE(#75);
#90= IFCHALFSPACESOLID(#89,.T.);
#91= IFCBOOLEANCLIPPINGRESULT(.DIFFERENCE.,#72,#90);
#92= IFCSHAPEREPRESENTATION(#12,'Body','Clipping',(#91));
#93= IFCPRODUCTDEFINITIONSHAPE($,$,(#92));
#94= IFCOPENINGELEMENT('06RIfmXiX7Bg$NWoYVoQXA',#5,$,$,'Recess',#88,#93,$);
#95= IFCRELVOIDSELEMENT('1b_by_PLTDtxv8VVbbq6Xw',#5,$,$,#65,#94);
#96= IFCCARTESIANPOINT((8242.10791918625,23900.9656065257,22470.));
#97= IFCDIRECTION((-0.00143953599980705,0.999998963867516,0.));
#98= IFCDIRECTION((-0.999998963867516,-0.00143953599980616,0.));
#99= IFCAXIS2PLACEMENT3D(#96,#97,#98);
#100= IFCLOCALPLACEMENT(#42,#99);
#101= IFCCIRCLEPROFILEDEF(.AREA.,$,#68,11.5);
#102= IFCCARTESIANPOINT((0.,-19.100000000001,0.));
#103= IFCAXIS2PLACEMENT3D(#102,#8,#7);
#104= IFCEXTRUDEDAREASOLID(#101,#103,#9,19.2);
#105= IFCSHAPEREPRESENTATION(#12,'Body','SweptSolid',(#104));
#106= IFCREPRESENTATIONMAP(#10,#105);
#107= IFCCARTESIANPOINT((-1.81898940354586E-12,0.,-74.9999999999636));
#108= IFCCARTESIANTRANSFORMATIONOPERATOR3D($,$,#107,$,$);
#109= IFCMAPPEDITEM(#106,#108);
#110= IFCCARTESIANPOINT((74.99999999996,0.,-75.0000000000982));
#111= IFCCARTESIANTRANSFORMATIONOPERATOR3D($,$,#110,$,$);
#112= IFCMAPPEDITEM(#106,#111);
#113= IFCCARTESIANPOINT((149.999999999922,0.,-75.0000000002328));
#114= IFCCARTESIANTRANSFORMATIONOPERATOR3D($,$,#113,$,$);
#115= IFCMAPPEDITEM(#106,#114);
#116= IFCCARTESIANPOINT((224.999999999884,0.,-75.0000000003711));
#117= IFCCARTESIANTRANSFORMATIONOPERATOR3D($,$,#116,$,$);
#118= IFCMAPPEDITEM(#106,#117);
#119= IFCCARTESIANPOINT((299.999999999844,0.,-75.0000000005057));
#120= IFCCARTESIANTRANSFORMATIONOPERATOR3D($,$,#119,$,$);
#121= IFCMAPPEDITEM(#106,#120);
#122= IFCCARTESIANPOINT((374.999999999806,0.,-75.0000000006439));
#123= IFCCARTESIANTRANSFORMATIONOPERATOR3D($,$,#122,$,$);
#124= IFCMAPPEDITEM(#106,#123);
#125= IFCCARTESIANPOINT((449.999999999767,0.,-75.0000000007785));
#126= IFCCARTESIANTRANSFORMATIONOPERATOR3D($,$,#125,$,$);
#127= IFCMAPPEDITEM(#106,#126);
#128= IFCCARTESIANPOINT((524.999999999729,0.,-75.0000000009168));
#129= IFCCARTESIANTRANSFORMATIONOPERATOR3D($,$,#128,$,$);
#130= IFCMAPPEDITEM(#106,#129);
#131= IFCCARTESIANPOINT((599.99999999969,0.,-75.0000000010514));
#132= IFCCARTESIANTRANSFORMATIONOPERATOR3D($,$,#131,$,$);
#133= IFCMAPPEDITEM(#106,#132);
#134= IFCCARTESIANPOINT((674.999999999652,0.,-75.000000001186));
#135= IFCCARTESIANTRANSFORMATIONOPERATOR3D($,$,#134,$,$);
#136= IFCMAPPEDITEM(#106,#135);
#137= IFCCARTESIANPOINT((0.,0.,74.9999999999636));
#138= IFCCARTESIANTRANSFORMATIONOPERATOR3D($,$,#137,$,$);
#139= IFCMAPPEDITEM(#106,#138);
#140= IFCCARTESIANPOINT((74.99999999996,0.,74.9999999998217));
#141= IFCCARTESIANTRANSFORMATIONOPERATOR3D($,$,#140,$,$);
#142= IFCMAPPEDITEM(#106,#141);
#143= IFCCARTESIANPOINT((149.999999999922,0.,74.9999999996871));
#144= IFCCARTESIANTRANSFORMATIONOPERATOR3D($,$,#143,$,$);
#145= IFCMAPPEDITEM(#106,#144);
#146= IFCCARTESIANPOINT((224.999999999883,0.,74.9999999995489));
#147= IFCCARTESIANTRANSFORMATIONOPERATOR3D($,$,#146,$,$);
#148= IFCMAPPEDITEM(#106,#147);
#149= IFCCARTESIANPOINT((299.999999999844,0.,74.9999999994143));
#150= IFCCARTESIANTRANSFORMATIONOPERATOR3D($,$,#149,$,$);
#151= IFCMAPPEDITEM(#106,#150);
#152= IFCCARTESIANPOINT((374.999999999805,0.,74.9999999992797));
#153= IFCCARTESIANTRANSFORMATIONOPERATOR3D($,$,#152,$,$);
#154= IFCMAPPEDITEM(#106,#153);
#155= IFCCARTESIANPOINT((449.999999999767,0.,74.9999999991414));
#156= IFCCARTESIANTRANSFORMATIONOPERATOR3D($,$,#155,$,$);
#157= IFCMAPPEDITEM(#106,#156);
#158= IFCCARTESIANPOINT((524.999999999728,0.,74.9999999990068));
#159= IFCCARTESIANTRANSFORMATIONOPERATOR3D($,$,#158,$,$);
#160= IFCMAPPEDITEM(#106,#159);
#161= IFCCARTESIANPOINT((599.99999999969,0.,74.9999999988686));
#162= IFCCARTESIANTRANSFORMATIONOPERATOR3D($,$,#161,$,$);
#163= IFCMAPPEDITEM(#106,#162);
#164= IFCCARTESIANPOINT((674.999999999651,0.,74.999999998734));
#165= IFCCARTESIANTRANSFORMATIONOPERATOR3D($,$,#164,$,$);
#166= IFCMAPPEDITEM(#106,#165);
#167= IFCSHAPEREPRESENTATION(#12,'Body','MappedRepresentation',(#109,#112,#115,#118,#121,#124,#127,#130,#133,#136,#139,#142,#145,#148,#151,#154,#157,#160,#163,#166));
#168= IFCPRODUCTDEFINITIONSHAPE($,$,(#167));
#169= IFCOPENINGELEMENT('3$_rG_vFDC9ud6OLAQXZX8',#5,$,$,'Opening',#100,#168,$);
#170= IFCRELVOIDSELEMENT('3eBfFOE5D1eeGmpprySom1',#5,'Drill Hole',$,#65,#169);
#171= IFCPROPERTYSINGLEVALUE('FeatureSubTypes',$,IFCLABEL('TORNILLO'),$);
#172= IFCPROPERTYSINGLEVALUE('OpeningDiameter',$,$,$);
#173= IFCPROPERTYSET('2nVJBsZOr38Q4ciOmXxxg2',#5,'AISC_EM11_Pset_Opening/Cope',$,(#171,#84,#85,#172));
#174= IFCCARTESIANPOINT((8757.99942669942,23900.9656065257,22470.));
#175= IFCDIRECTION((0.,-1.,0.));
#176= IFCAXIS2PLACEMENT3D(#174,#175,#7);
#177= IFCLOCALPLACEMENT(#42,#176);
#178= IFCSHAPEREPRESENTATION(#12,'Body','MappedRepresentation',(#109,#112,#115,#118,#121,#124,#127,#130,#133,#136,#139,#142,#145,#148,#151,#154,#157,#160,#163,#166));
#179= IFCPRODUCTDEFINITIONSHAPE($,$,(#178));
#180= IFCOPENINGELEMENT('3833YZmCfBUPaNKCfDj9iN',#5,$,$,'Opening',#177,#179,$);
#181= IFCRELVOIDSELEMENT('2LHO4hajb0WuyAhmkludVN',#5,'Drill Hole',$,#65,#180);
#182= IFCPROPERTYSINGLEVALUE('PieceMark',$,IFCIDENTIFIER('PLATE'),$);
#183= IFCPROPERTYSINGLEVALUE('IndicationMark',$,IFCIDENTIFIER('1344'),$);
#184= IFCPROPERTYSINGLEVALUE('PrelimMark',$,IFCIDENTIFIER(''),$);
#185= IFCPROPERTYSINGLEVALUE('MainPieceTag',$,IFCBOOLEAN(.F.),$);
#186= IFCPROPERTYSET('0lHjIDT2zCRQ3mdRaB5JeX',#5,'AISC_EM11_Pset_PieceIdentification','PieceIdentity',(#182,#183,#184,#185));
#187= IFCPROPERTYSINGLEVALUE('MaterialType',$,IFCIDENTIFIER('STEEL'),$);
#188= IFCPROPERTYSINGLEVALUE('MaterialGrade',$,IFCIDENTIFIER('S235JR'),$);
#189= IFCPROPERTYSET('0pwGiqxoX8oxNdnjixpugV',#5,'AISC_EM11_Pset_Material',$,(#187,#188));
#190= IFCMATERIAL('STEEL/S235JR');
#191= IFCRELAGGREGATES('0WzVkfgc924Rcm_fReJwe9',#5,$,$,#37,(#39));
#192= IFCRELAGGREGATES('2oFn0xyuRKMju2GxjwbCwR',#5,$,$,#39,(#41));
#193= IFCRELAGGREGATES('3H2zOLQ3T1dPbYjMlx9jpI',#5,$,$,#41,(#43));
#194= IFCRELCONTAINEDINSPATIALSTRUCTURE('03St3JXoT9ue529CtqQ0wc',#5,$,$,(#65),#43);
#195= IFCRELDEFINESBYPROPERTIES('2T1rugesH9_x0WFWzHXHNT',#5,$,$,(#94,#81),#87);
#196= IFCRELDEFINESBYPROPERTIES('38nmZ0MzXBBBmDZAnORxY4',#5,$,$,(#180,#169),#173);
#197= IFCRELDEFINESBYPROPERTIES('2IBXSSSLP4KRIgSVoHsNij',#5,$,$,(#65),#186);
#198= IFCRELDEFINESBYPROPERTIES('2KfU0R4avAMACKTWmreH_t',#5,$,$,(#65),#189);
#199= IFCRELASSOCIATESMATERIAL('3giSLLrO95p9JpZ062qE7l',#5,$,$,(#65),#190);
ENDSEC;

END-ISO-10303-21;
