ISO-10303-21;
HEADER;
FILE_DESCRIPTION(('ViewDefinition[AISC_Steel_Detailing]', 'Option [BaseQuantities:Off]', 'Option [GridExport:On]', 'Option [Assemblies:Off]', 'Option [Bolts:On]', 'Option [Rebars:On]', 'Option [PourObjects:Off]', 'Option [Welds:On]', 'Option [SurfaceTreatments:On]', 'Option [LocationBy:0]', 'Option [ViewColors:Off]', 'Option [SectionedSpine:Off]', 'Option [PropertySets:On]', 'Option [Export all:Off]'),'2;1');
FILE_NAME('1446_Qty_1.ifc','2026-05-16T11:52:50',('GIOVANNIPC\\gcorrea'),('Structural Designer'),'IFC Database version: Work','Tekla Structures 2020 Service Pack 5, IFC Export Version: 4.0.0.0 Dec  7 2020','');
FILE_SCHEMA(('IFC2X3'));
ENDSEC;

DATA;
#1= IFCPERSON('GIOVANNIPC\\gcorrea','Undefined',$,$,$,$,$,$);
#2= IFCORGANIZATION($,'Trimble Solutions Corporation',$,$,$);
#3= IFCPERSONANDORGANIZATION(#1,#2,$);
#4= IFCAPPLICATION(#2,'2020 Service Pack 5','Tekla Structures','Multi material modeling');
#5= IFCOWNERHISTORY(#3,#4,$,.NOCHANGE.,$,$,$,1778950370);
#6= IFCCARTESIANPOINT((0.,0.,0.));
#7= IFCDIRECTION((1.,0.,0.));
#8= IFCDIRECTION((0.,1.,0.));
#9= IFCDIRECTION((0.,0.,1.));
#10= IFCAXIS2PLACEMENT3D(#6,#9,#7);
#11= IFCGEOMETRICREPRESENTATIONCONTEXT($,'Model',3,1.E-05,#10,$);
#12= IFCGEOMETRICREPRESENTATIONSUBCONTEXT('Body','Model',*,*,*,*,#11,$,.MODEL_VIEW.,$);
#13= IFCGEOMETRICREPRESENTATIONSUBCONTEXT('Axis','Model',*,*,*,*,#11,$,.GRAPH_VIEW.,$);
#14= IFCGEOMETRICREPRESENTATIONSUBCONTEXT('FootPrint','Model',*,*,*,*,#11,$,.MODEL_VIEW.,$);
#15= IFCSIUNIT(*,.LENGTHUNIT.,.MILLI.,.METRE.);
#16= IFCMEASUREWITHUNIT(IFCRATIOMEASURE(304.8),#15);
#17= IFCDIMENSIONALEXPONENTS(1,0,0,0,0,0,0);
#18= IFCCONVERSIONBASEDUNIT(#17,.LENGTHUNIT.,'FOOT',#16);
#19= IFCSIUNIT(*,.AREAUNIT.,$,.SQUARE_METRE.);
#20= IFCMEASUREWITHUNIT(IFCRATIOMEASURE(0.09290304),#19);
#21= IFCDIMENSIONALEXPONENTS(2,0,0,0,0,0,0);
#22= IFCCONVERSIONBASEDUNIT(#21,.AREAUNIT.,'SQUARE FOOT',#20);
#23= IFCSIUNIT(*,.VOLUMEUNIT.,$,.CUBIC_METRE.);
#24= IFCMEASUREWITHUNIT(IFCRATIOMEASURE(0.028316846592),#23);
#25= IFCDIMENSIONALEXPONENTS(3,0,0,0,0,0,0);
#26= IFCCONVERSIONBASEDUNIT(#25,.VOLUMEUNIT.,'CUBIC FOOT',#24);
#27= IFCSIUNIT(*,.MASSUNIT.,.KILO.,.GRAM.);
#28= IFCSIUNIT(*,.TIMEUNIT.,$,.SECOND.);
#29= IFCSIUNIT(*,.PLANEANGLEUNIT.,$,.RADIAN.);
#30= IFCMEASUREWITHUNIT(IFCRATIOMEASURE(0.0174532925199433),#29);
#31= IFCDIMENSIONALEXPONENTS(0,0,0,0,0,0,0);
#32= IFCCONVERSIONBASEDUNIT(#31,.PLANEANGLEUNIT.,'DEGREE',#30);
#33= IFCSIUNIT(*,.SOLIDANGLEUNIT.,$,.STERADIAN.);
#34= IFCSIUNIT(*,.THERMODYNAMICTEMPERATUREUNIT.,$,.DEGREE_CELSIUS.);
#35= IFCSIUNIT(*,.LUMINOUSINTENSITYUNIT.,$,.LUMEN.);
#36= IFCUNITASSIGNMENT((#15,#19,#23,#27,#28,#29,#33,#34,#35));
#37= IFCPROJECT('2G7ZFDNE16yBDU14FA92Me',#5,'Proyecto',$,$,$,$,(#11),#36);
#38= IFCLOCALPLACEMENT($,#10);
#39= IFCSITE('2xvEzEinjBTea80yOTcujY',#5,'Obra',$,$,#38,$,$,.ELEMENT.,$,$,$,$,$);
#40= IFCLOCALPLACEMENT(#38,#10);
#41= IFCBUILDING('03L77L8e513wlEQVCpSrPb',#5,'Undefined',$,$,#40,$,$,.ELEMENT.,$,$,$);
#42= IFCLOCALPLACEMENT(#40,#10);
#43= IFCBUILDINGSTOREY('29hdEUCErFze9E_VIAceOd',#5,'Undefined',$,$,#42,$,$,.ELEMENT.,0.);
#44= IFCOWNERHISTORY(#3,#4,$,.NOCHANGE.,$,$,$,1776373200);
#45= IFCCARTESIANPOINT((22027.6333142129,19549.3137691364,48575.6981992729));
#46= IFCDIRECTION((-8.66912900696253E-07,-0.999999999999624,-1.32615331692648E-14));
#47= IFCDIRECTION((0.707106781186415,-6.12999981403215E-07,-0.707106781186415));
#48= IFCAXIS2PLACEMENT3D(#45,#46,#47);
#49= IFCLOCALPLACEMENT(#42,#48);
#50= IFCCARTESIANPOINT((0.,0.));
#51= IFCCARTESIANPOINT((21.2132034301358,6.54836185276508E-11));
#52= IFCCARTESIANPOINT((61.12938308706,39.9161796569897));
#53= IFCCARTESIANPOINT((36.8756193896351,64.1699385349815));
#54= IFCCARTESIANPOINT((36.8756172909716,92.4542090709417));
#55= IFCCARTESIANPOINT((100.515228271353,156.093826293552));
#56= IFCCARTESIANPOINT((-40.9061279294983,297.515167234887));
#57= IFCCARTESIANPOINT((-104.545737522719,233.875563883916));
#58= IFCCARTESIANPOINT((-132.830012603473,233.875561437791));
#59= IFCCARTESIANPOINT((-135.870574950834,236.916122435076));
#60= IFCCARTESIANPOINT((-175.786743163662,196.99995422225));
#61= IFCCARTESIANPOINT((-175.786743163673,175.786743162767));
#62= IFCPOLYLINE((#50,#51,#52,#53,#54,#55,#56,#57,#58,#59,#60,#61,#50));
#63= IFCARBITRARYCLOSEDPROFILEDEF(.AREA.,'PL10*181',#62);
#64= IFCCARTESIANPOINT((-7.27595761399558E-12,1.4551915228179E-11,-5.));
#65= IFCAXIS2PLACEMENT3D(#64,#9,#7);
#66= IFCEXTRUDEDAREASOLID(#63,#65,#9,10.);
#67= IFCSHAPEREPRESENTATION(#12,'Body','SweptSolid',(#66));
#68= IFCPRODUCTDEFINITIONSHAPE($,$,(#67));
#69= IFCPLATE('2TJ4guJB9BChLVVAv16W1_',#44,'PLACA','PL10*181','PL10*181',#49,#68,'ID9d4c4ab8-4cb2-4b32-b55f-7cae411a007e');
#70= IFCCARTESIANPOINT((22119.1061346527,19557.6124080678,48814.9981994629));
#71= IFCDIRECTION((0.,0.,-1.));
#72= IFCAXIS2PLACEMENT3D(#70,#7,#71);
#73= IFCLOCALPLACEMENT(#42,#72);
#74= IFCDIRECTION((1.,0.));
#75= IFCAXIS2PLACEMENT2D(#50,#74);
#76= IFCCIRCLEPROFILEDEF(.AREA.,$,#75,11.5);
#77= IFCCARTESIANPOINT((0.,-13.3987182259344,0.));
#78= IFCAXIS2PLACEMENT3D(#77,#8,#7);
#79= IFCEXTRUDEDAREASOLID(#76,#78,#9,10.2);
#80= IFCSHAPEREPRESENTATION(#12,'Body','SweptSolid',(#79));
#81= IFCREPRESENTATIONMAP(#10,#80);
#82= IFCCARTESIANPOINT((40.,0.,50.0000000000364));
#83= IFCCARTESIANTRANSFORMATIONOPERATOR3D($,$,#82,$,$);
#84= IFCMAPPEDITEM(#81,#83);
#85= IFCCARTESIANPOINT((100.,0.,50.0000000000364));
#86= IFCCARTESIANTRANSFORMATIONOPERATOR3D($,$,#85,$,$);
#87= IFCMAPPEDITEM(#81,#86);
#88= IFCCARTESIANPOINT((160.,0.,50.0000000000364));
#89= IFCCARTESIANTRANSFORMATIONOPERATOR3D($,$,#88,$,$);
#90= IFCMAPPEDITEM(#81,#89);
#91= IFCSHAPEREPRESENTATION(#12,'Body','MappedRepresentation',(#84,#87,#90));
#92= IFCPRODUCTDEFINITIONSHAPE($,$,(#91));
#93= IFCOPENINGELEMENT('105d3Q0zn69hd8FZMb7ndP',#5,$,$,'Opening',#73,#92,$);
#94= IFCRELVOIDSELEMENT('0wDGcUZR5FRATBdj$X6U0N',#5,'Drill Hole',$,#69,#93);
#95= IFCPROPERTYSINGLEVALUE('FeatureSubTypes',$,IFCLABEL('TORNILLO'),$);
#96= IFCPROPERTYSINGLEVALUE('RectangleOpeningWidth',$,$,$);
#97= IFCPROPERTYSINGLEVALUE('RectangleOpeningHeight',$,$,$);
#98= IFCPROPERTYSINGLEVALUE('OpeningDiameter',$,$,$);
#99= IFCPROPERTYSET('0PMWnpaAv4lv_DQkC$seHc',#5,'AISC_EM11_Pset_Opening/Cope',$,(#95,#96,#97,#98));
#100= IFCPROPERTYSINGLEVALUE('PieceMark',$,IFCIDENTIFIER('PLACA'),$);
#101= IFCPROPERTYSINGLEVALUE('IndicationMark',$,IFCIDENTIFIER('1446'),$);
#102= IFCPROPERTYSINGLEVALUE('PrelimMark',$,IFCIDENTIFIER(''),$);
#103= IFCPROPERTYSINGLEVALUE('MainPieceTag',$,IFCBOOLEAN(.F.),$);
#104= IFCPROPERTYSET('1o0j0F4qP1UwTPhSWITkYL',#5,'AISC_EM11_Pset_PieceIdentification','PieceIdentity',(#100,#101,#102,#103));
#105= IFCPROPERTYSINGLEVALUE('MaterialType',$,IFCIDENTIFIER('STEEL'),$);
#106= IFCPROPERTYSINGLEVALUE('MaterialGrade',$,IFCIDENTIFIER('S235JR'),$);
#107= IFCPROPERTYSET('3mvBOG1Vb8MxA8SZFu5WoD',#5,'AISC_EM11_Pset_Material',$,(#105,#106));
#108= IFCMATERIAL('STEEL/S235JR');
#109= IFCRELAGGREGATES('0TGy3nY3jF1gUKPLG6UwF5',#5,$,$,#37,(#39));
#110= IFCRELAGGREGATES('2lYEL3qL$XJymchdYOmCXN',#5,$,$,#39,(#41));
#111= IFCRELAGGREGATES('0puprfq8XAzgBvAwPgExe2',#5,$,$,#41,(#43));
#112= IFCRELCONTAINEDINSPATIALSTRUCTURE('1ZYvtGpPPCXgNulLfvVSPu',#5,$,$,(#69),#43);
#113= IFCRELDEFINESBYPROPERTIES('21lOdH7n15Vfsr7BUsXeMh',#5,$,$,(#93),#99);
#114= IFCRELDEFINESBYPROPERTIES('0_P4Fk80z8bRAayY2uUphv',#5,$,$,(#69),#104);
#115= IFCRELDEFINESBYPROPERTIES('2lJ9n_Ee90kxJTOEoUcUhm',#5,$,$,(#69),#107);
#116= IFCRELASSOCIATESMATERIAL('1M7zMHYuTFvv26X1dzAFRT',#5,$,$,(#69),#108);
ENDSEC;

END-ISO-10303-21;
