ISO-10303-21;
HEADER;
FILE_DESCRIPTION(('ViewDefinition[AISC_Steel_Detailing]', 'Option [BaseQuantities:Off]', 'Option [GridExport:On]', 'Option [Assemblies:Off]', 'Option [Bolts:On]', 'Option [Rebars:On]', 'Option [PourObjects:Off]', 'Option [Welds:On]', 'Option [SurfaceTreatments:On]', 'Option [LocationBy:0]', 'Option [ViewColors:Off]', 'Option [SectionedSpine:Off]', 'Option [PropertySets:On]', 'Option [Export all:Off]'),'2;1');
FILE_NAME('1448_Qty_1.ifc','2026-05-16T11:52:50',('GIOVANNIPC\\gcorrea'),('Structural Designer'),'IFC Database version: Work','Tekla Structures 2020 Service Pack 5, IFC Export Version: 4.0.0.0 Dec  7 2020','');
FILE_SCHEMA(('IFC2X3'));
ENDSEC;

DATA;
#1= IFCPERSON('GIOVANNIPC\\gcorrea','Undefined',$,$,$,$,$,$);
#2= IFCORGANIZATION($,'Trimble Solutions Corporation',$,$,$);
#3= IFCPERSONANDORGANIZATION(#1,#2,$);
#4= IFCAPPLICATION(#2,'2020 Service Pack 5','Tekla Structures','Multi material modeling');
#5= IFCOWNERHISTORY(#3,#4,$,.NOCHANGE.,$,$,$,1778950370);
#6= IFCCARTESIANPOINT((0.,0.,0.));
#7= IFCDIRECTION((1.,0.,0.));
#8= IFCDIRECTION((0.,1.,0.));
#9= IFCDIRECTION((0.,0.,1.));
#10= IFCAXIS2PLACEMENT3D(#6,#9,#7);
#11= IFCGEOMETRICREPRESENTATIONCONTEXT($,'Model',3,1.E-05,#10,$);
#12= IFCGEOMETRICREPRESENTATIONSUBCONTEXT('Body','Model',*,*,*,*,#11,$,.MODEL_VIEW.,$);
#13= IFCGEOMETRICREPRESENTATIONSUBCONTEXT('Axis','Model',*,*,*,*,#11,$,.GRAPH_VIEW.,$);
#14= IFCGEOMETRICREPRESENTATIONSUBCONTEXT('FootPrint','Model',*,*,*,*,#11,$,.MODEL_VIEW.,$);
#15= IFCSIUNIT(*,.LENGTHUNIT.,.MILLI.,.METRE.);
#16= IFCMEASUREWITHUNIT(IFCRATIOMEASURE(304.8),#15);
#17= IFCDIMENSIONALEXPONENTS(1,0,0,0,0,0,0);
#18= IFCCONVERSIONBASEDUNIT(#17,.LENGTHUNIT.,'FOOT',#16);
#19= IFCSIUNIT(*,.AREAUNIT.,$,.SQUARE_METRE.);
#20= IFCMEASUREWITHUNIT(IFCRATIOMEASURE(0.09290304),#19);
#21= IFCDIMENSIONALEXPONENTS(2,0,0,0,0,0,0);
#22= IFCCONVERSIONBASEDUNIT(#21,.AREAUNIT.,'SQUARE FOOT',#20);
#23= IFCSIUNIT(*,.VOLUMEUNIT.,$,.CUBIC_METRE.);
#24= IFCMEASUREWITHUNIT(IFCRATIOMEASURE(0.028316846592),#23);
#25= IFCDIMENSIONALEXPONENTS(3,0,0,0,0,0,0);
#26= IFCCONVERSIONBASEDUNIT(#25,.VOLUMEUNIT.,'CUBIC FOOT',#24);
#27= IFCSIUNIT(*,.MASSUNIT.,.KILO.,.GRAM.);
#28= IFCSIUNIT(*,.TIMEUNIT.,$,.SECOND.);
#29= IFCSIUNIT(*,.PLANEANGLEUNIT.,$,.RADIAN.);
#30= IFCMEASUREWITHUNIT(IFCRATIOMEASURE(0.0174532925199433),#29);
#31= IFCDIMENSIONALEXPONENTS(0,0,0,0,0,0,0);
#32= IFCCONVERSIONBASEDUNIT(#31,.PLANEANGLEUNIT.,'DEGREE',#30);
#33= IFCSIUNIT(*,.SOLIDANGLEUNIT.,$,.STERADIAN.);
#34= IFCSIUNIT(*,.THERMODYNAMICTEMPERATUREUNIT.,$,.DEGREE_CELSIUS.);
#35= IFCSIUNIT(*,.LUMINOUSINTENSITYUNIT.,$,.LUMEN.);
#36= IFCUNITASSIGNMENT((#15,#19,#23,#27,#28,#29,#33,#34,#35));
#37= IFCPROJECT('2G7ZFDNE16yBDU14FA92Me',#5,'Proyecto',$,$,$,$,(#11),#36);
#38= IFCLOCALPLACEMENT($,#10);
#39= IFCSITE('2xvEzEinjBTea80yOTcujY',#5,'Obra',$,$,#38,$,$,.ELEMENT.,$,$,$,$,$);
#40= IFCLOCALPLACEMENT(#38,#10);
#41= IFCBUILDING('1ZuhRgACv7fgB1k3Wz1aWv',#5,'Undefined',$,$,#40,$,$,.ELEMENT.,$,$,$);
#42= IFCLOCALPLACEMENT(#40,#10);
#43= IFCBUILDINGSTOREY('29hdEUCErFze9E_VIAceOd',#5,'Undefined',$,$,#42,$,$,.ELEMENT.,0.);
#44= IFCOWNERHISTORY(#3,#4,$,.NOCHANGE.,$,$,$,1776373200);
#45= IFCCARTESIANPOINT((17396.925286647,24504.6679064683,48820.498198461));
#46= IFCDIRECTION((-0.999999999998402,-1.78800001257829E-06,-8.76120107620125E-14));
#47= IFCDIRECTION((-1.78800001257829E-06,0.9999999999984,4.90000072540397E-08));
#48= IFCAXIS2PLACEMENT3D(#45,#46,#47);
#49= IFCLOCALPLACEMENT(#42,#48);
#50= IFCCARTESIANPOINT((0.,0.));
#51= IFCCARTESIANPOINT((90.6999969485332,-4.8748916015029E-10));
#52= IFCCARTESIANPOINT((110.000000000353,-19.2999973301121));
#53= IFCCARTESIANPOINT((159.200012207541,-19.2999954229454));
#54= IFCCARTESIANPOINT((174.200027466377,-4.29999256197334));
#55= IFCCARTESIANPOINT((174.200012207588,215.300003051125));
#56= IFCCARTESIANPOINT((159.199981689962,230.300003051176));
#57= IFCCARTESIANPOINT((100.000015259109,230.300003051394));
#58= IFCCARTESIANPOINT((71.3000106813815,258.999999999738));
#59= IFCCARTESIANPOINT((-1.277897899854E-05,259.));
#60= IFCPOLYLINE((#50,#51,#52,#53,#54,#55,#56,#57,#58,#59,#50));
#61= IFCARBITRARYCLOSEDPROFILEDEF(.AREA.,'PL10*174',#60);
#62= IFCCARTESIANPOINT((2.89122133040573E-22,-7.27595761418343E-12,-5.));
#63= IFCAXIS2PLACEMENT3D(#62,#9,#7);
#64= IFCEXTRUDEDAREASOLID(#61,#63,#9,10.);
#65= IFCSHAPEREPRESENTATION(#12,'Body','SweptSolid',(#64));
#66= IFCPRODUCTDEFINITIONSHAPE($,$,(#65));
#67= IFCPLATE('1E6EkwUcH6ZQEwwNhyBE_5',#44,'PLACA','PL10*174','PL10*174',#49,#66,'ID4e18ebba-7a64-468d-a3ba-e97afc2cef85');
#68= IFCCARTESIANPOINT((17391.9252055612,24550.0178979622,48780.4982006836));
#69= IFCDIRECTION((0.,-0.999999999999999,-4.90000020363367E-08));
#70= IFCDIRECTION((0.,4.90000029993704E-08,-0.999999999999999));
#71= IFCAXIS2PLACEMENT3D(#68,#69,#70);
#72= IFCLOCALPLACEMENT(#42,#71);
#73= IFCDIRECTION((1.,0.));
#74= IFCAXIS2PLACEMENT2D(#50,#73);
#75= IFCCIRCLEPROFILEDEF(.AREA.,$,#74,11.5);
#76= IFCCARTESIANPOINT((0.,-0.100000000001499,0.));
#77= IFCAXIS2PLACEMENT3D(#76,#8,#7);
#78= IFCEXTRUDEDAREASOLID(#75,#77,#9,10.2);
#79= IFCSHAPEREPRESENTATION(#12,'Body','SweptSolid',(#78));
#80= IFCREPRESENTATIONMAP(#10,#79);
#81= IFCCARTESIANTRANSFORMATIONOPERATOR3D($,$,#6,$,$);
#82= IFCMAPPEDITEM(#80,#81);
#83= IFCCARTESIANPOINT((60.,0.,4.36557456851006E-10));
#84= IFCCARTESIANTRANSFORMATIONOPERATOR3D($,$,#83,$,$);
#85= IFCMAPPEDITEM(#80,#84);
#86= IFCCARTESIANPOINT((120.,0.,8.73114913702011E-10));
#87= IFCCARTESIANTRANSFORMATIONOPERATOR3D($,$,#86,$,$);
#88= IFCMAPPEDITEM(#80,#87);
#89= IFCCARTESIANPOINT((180.,0.,1.30967237055302E-09));
#90= IFCCARTESIANTRANSFORMATIONOPERATOR3D($,$,#89,$,$);
#91= IFCMAPPEDITEM(#80,#90);
#92= IFCSHAPEREPRESENTATION(#12,'Body','MappedRepresentation',(#82,#85,#88,#91));
#93= IFCPRODUCTDEFINITIONSHAPE($,$,(#92));
#94= IFCOPENINGELEMENT('0LciSKcAf6K8QMQmeomTAq',#5,$,$,'Opening',#72,#93,$);
#95= IFCRELVOIDSELEMENT('0T341U_dj0B87g8NlFIa3r',#5,'Drill Hole',$,#67,#94);
#96= IFCPROPERTYSINGLEVALUE('FeatureSubTypes',$,IFCLABEL('TORNILLO'),$);
#97= IFCPROPERTYSINGLEVALUE('RectangleOpeningWidth',$,$,$);
#98= IFCPROPERTYSINGLEVALUE('RectangleOpeningHeight',$,$,$);
#99= IFCPROPERTYSINGLEVALUE('OpeningDiameter',$,$,$);
#100= IFCPROPERTYSET('2NQW5AZxrBHPOT4sWCtYRE',#5,'AISC_EM11_Pset_Opening/Cope',$,(#96,#97,#98,#99));
#101= IFCPROPERTYSINGLEVALUE('PieceMark',$,IFCIDENTIFIER('PLACA'),$);
#102= IFCPROPERTYSINGLEVALUE('IndicationMark',$,IFCIDENTIFIER('1448'),$);
#103= IFCPROPERTYSINGLEVALUE('PrelimMark',$,IFCIDENTIFIER(''),$);
#104= IFCPROPERTYSINGLEVALUE('MainPieceTag',$,IFCBOOLEAN(.T.),$);
#105= IFCPROPERTYSET('0mFq53ISvExuotZ$FANl_$',#5,'AISC_EM11_Pset_PieceIdentification','PieceIdentity',(#101,#102,#103,#104));
#106= IFCPROPERTYSINGLEVALUE('MaterialType',$,IFCIDENTIFIER('STEEL'),$);
#107= IFCPROPERTYSINGLEVALUE('MaterialGrade',$,IFCIDENTIFIER('S235JR'),$);
#108= IFCPROPERTYSET('2g7s1udRH5Ixeyx8U1i2TT',#5,'AISC_EM11_Pset_Material',$,(#106,#107));
#109= IFCMATERIAL('STEEL/S235JR');
#110= IFCRELAGGREGATES('2fvCaUYpn0zhOVlYHsP1hD',#5,$,$,#37,(#39));
#111= IFCRELAGGREGATES('2xBUsmq53IFzgn1qZ8hJzV',#5,$,$,#39,(#41));
#112= IFCRELAGGREGATES('1YvJJnICn8Kfa1sAgIWT3v',#5,$,$,#41,(#43));
#113= IFCRELCONTAINEDINSPATIALSTRUCTURE('1Ipyc3IRb9$QqT0oqQf_ie',#5,$,$,(#67),#43);
#114= IFCRELDEFINESBYPROPERTIES('0YBFAv0HzCfAfCGrJRI2x3',#5,$,$,(#94),#100);
#115= IFCRELDEFINESBYPROPERTIES('1sKhNpbzr6vBRKlLGZjJ9w',#5,$,$,(#67),#105);
#116= IFCRELDEFINESBYPROPERTIES('2kGcStnuL8sAqEhNsYPyHf',#5,$,$,(#67),#108);
#117= IFCRELASSOCIATESMATERIAL('23HsDDJCzDwubIB4sCm2nH',#5,$,$,(#67),#109);
ENDSEC;

END-ISO-10303-21;
