ISO-10303-21;
HEADER;
FILE_DESCRIPTION(('ViewDefinition[AISC_Steel_Detailing]', 'Option [BaseQuantities:Off]', 'Option [GridExport:On]', 'Option [Assemblies:Off]', 'Option [Bolts:On]', 'Option [Rebars:On]', 'Option [PourObjects:Off]', 'Option [Welds:On]', 'Option [SurfaceTreatments:On]', 'Option [LocationBy:0]', 'Option [ViewColors:Off]', 'Option [SectionedSpine:Off]', 'Option [PropertySets:On]', 'Option [Export all:Off]'),'2;1');
FILE_NAME('b_10_Qty_1.ifc','2026-05-16T11:53:17',('GIOVANNIPC\\gcorrea'),('Structural Designer'),'IFC Database version: Work','Tekla Structures 2020 Service Pack 5, IFC Export Version: 4.0.0.0 Dec  7 2020','');
FILE_SCHEMA(('IFC2X3'));
ENDSEC;

DATA;
#1= IFCPERSON('GIOVANNIPC\\gcorrea','Undefined',$,$,$,$,$,$);
#2= IFCORGANIZATION($,'Trimble Solutions Corporation',$,$,$);
#3= IFCPERSONANDORGANIZATION(#1,#2,$);
#4= IFCAPPLICATION(#2,'2020 Service Pack 5','Tekla Structures','Multi material modeling');
#5= IFCOWNERHISTORY(#3,#4,$,.NOCHANGE.,$,$,$,1778950397);
#6= IFCCARTESIANPOINT((0.,0.,0.));
#7= IFCDIRECTION((1.,0.,0.));
#8= IFCDIRECTION((0.,1.,0.));
#9= IFCDIRECTION((0.,0.,1.));
#10= IFCAXIS2PLACEMENT3D(#6,#9,#7);
#11= IFCGEOMETRICREPRESENTATIONCONTEXT($,'Model',3,1.E-05,#10,$);
#12= IFCGEOMETRICREPRESENTATIONSUBCONTEXT('Body','Model',*,*,*,*,#11,$,.MODEL_VIEW.,$);
#13= IFCGEOMETRICREPRESENTATIONSUBCONTEXT('Axis','Model',*,*,*,*,#11,$,.GRAPH_VIEW.,$);
#14= IFCGEOMETRICREPRESENTATIONSUBCONTEXT('FootPrint','Model',*,*,*,*,#11,$,.MODEL_VIEW.,$);
#15= IFCSIUNIT(*,.LENGTHUNIT.,.MILLI.,.METRE.);
#16= IFCMEASUREWITHUNIT(IFCRATIOMEASURE(304.8),#15);
#17= IFCDIMENSIONALEXPONENTS(1,0,0,0,0,0,0);
#18= IFCCONVERSIONBASEDUNIT(#17,.LENGTHUNIT.,'FOOT',#16);
#19= IFCSIUNIT(*,.AREAUNIT.,$,.SQUARE_METRE.);
#20= IFCMEASUREWITHUNIT(IFCRATIOMEASURE(0.09290304),#19);
#21= IFCDIMENSIONALEXPONENTS(2,0,0,0,0,0,0);
#22= IFCCONVERSIONBASEDUNIT(#21,.AREAUNIT.,'SQUARE FOOT',#20);
#23= IFCSIUNIT(*,.VOLUMEUNIT.,$,.CUBIC_METRE.);
#24= IFCMEASUREWITHUNIT(IFCRATIOMEASURE(0.028316846592),#23);
#25= IFCDIMENSIONALEXPONENTS(3,0,0,0,0,0,0);
#26= IFCCONVERSIONBASEDUNIT(#25,.VOLUMEUNIT.,'CUBIC FOOT',#24);
#27= IFCSIUNIT(*,.MASSUNIT.,.KILO.,.GRAM.);
#28= IFCSIUNIT(*,.TIMEUNIT.,$,.SECOND.);
#29= IFCSIUNIT(*,.PLANEANGLEUNIT.,$,.RADIAN.);
#30= IFCMEASUREWITHUNIT(IFCRATIOMEASURE(0.0174532925199433),#29);
#31= IFCDIMENSIONALEXPONENTS(0,0,0,0,0,0,0);
#32= IFCCONVERSIONBASEDUNIT(#31,.PLANEANGLEUNIT.,'DEGREE',#30);
#33= IFCSIUNIT(*,.SOLIDANGLEUNIT.,$,.STERADIAN.);
#34= IFCSIUNIT(*,.THERMODYNAMICTEMPERATUREUNIT.,$,.DEGREE_CELSIUS.);
#35= IFCSIUNIT(*,.LUMINOUSINTENSITYUNIT.,$,.LUMEN.);
#36= IFCUNITASSIGNMENT((#15,#19,#23,#27,#28,#29,#33,#34,#35));
#37= IFCPROJECT('2G7ZFDNE16yBDU14FA92Me',#5,'Proyecto',$,$,$,$,(#11),#36);
#38= IFCLOCALPLACEMENT($,#10);
#39= IFCSITE('2xvEzEinjBTea80yOTcujY',#5,'Obra',$,$,#38,$,$,.ELEMENT.,$,$,$,$,$);
#40= IFCLOCALPLACEMENT(#38,#10);
#41= IFCBUILDING('0lYqRoCD13ehbgtXZ34U2_',#5,'Undefined',$,$,#40,$,$,.ELEMENT.,$,$,$);
#42= IFCLOCALPLACEMENT(#40,#10);
#43= IFCBUILDINGSTOREY('29hdEUCErFze9E_VIAceOd',#5,'Undefined',$,$,#42,$,$,.ELEMENT.,0.);
#44= IFCOWNERHISTORY(#3,#4,$,.NOCHANGE.,$,$,$,1775667600);
#45= IFCCARTESIANPOINT((82015.8650512695,17380.1324005127,13680.));
#46= IFCAXIS2PLACEMENT3D(#45,#9,#7);
#47= IFCLOCALPLACEMENT(#42,#46);
#48= IFCDIRECTION((1.,0.));
#49= IFCCARTESIANPOINT((0.,0.));
#50= IFCAXIS2PLACEMENT2D(#49,#48);
#51= IFCISHAPEPROFILEDEF(.AREA.,'HEA450',#50,300.,440.,11.5,21.,27.);
#52= IFCDIRECTION((0.,-1.,0.));
#53= IFCDIRECTION((-1.,0.,0.));
#54= IFCCARTESIANPOINT((9265.13634957124,0.,0.));
#55= IFCAXIS2PLACEMENT3D(#54,#53,#52);
#56= IFCEXTRUDEDAREASOLID(#51,#55,#9,9268.06);
#57= IFCCARTESIANPOINT((9265.13634957124,1.21965348500817,-325.));
#58= IFCAXIS2PLACEMENT3D(#57,#53,#8);
#59= IFCPLANE(#58);
#60= IFCHALFSPACESOLID(#59,.T.);
#61= IFCBOOLEANCLIPPINGRESULT(.DIFFERENCE.,#56,#60);
#62= IFCCARTESIANPOINT((-2.92812806085567,0.,-320.));
#63= IFCAXIS2PLACEMENT3D(#62,#7,#52);
#64= IFCPLANE(#63);
#65= IFCHALFSPACESOLID(#64,.T.);
#66= IFCBOOLEANCLIPPINGRESULT(.DIFFERENCE.,#61,#65);
#67= IFCSHAPEREPRESENTATION(#12,'Body','Clipping',(#66));
#68= IFCPRODUCTDEFINITIONSHAPE($,$,(#67));
#69= IFCBEAM('2ak_bYPnn5seopUxy4kEQJ',#44,'BEAM','HEA450','HEA450',#47,#68,'IDa4bbe962-671c-45da-8cb3-7bbf04b8e693');
#70= IFCLOCALPLACEMENT(#42,#46);
#71= IFCRECTANGLEPROFILEDEF(.AREA.,'PL162.7*12',#50,12.,162.7);
#72= IFCDIRECTION((0.,0.,-1.));
#73= IFCCARTESIANPOINT((-8.91615291667404,69.6368765243387,221.));
#74= IFCAXIS2PLACEMENT3D(#73,#72,#7);
#75= IFCEXTRUDEDAREASOLID(#71,#74,#9,442.);
#76= IFCSHAPEREPRESENTATION(#12,'Body','SweptSolid',(#75));
#77= IFCPRODUCTDEFINITIONSHAPE($,$,(#76));
#78= IFCOPENINGELEMENT('2L7MKWdG12MeOjKdSGJu_v',#5,$,$,'Recess',#70,#77,$);
#79= IFCRELVOIDSELEMENT('0D$0iVUk522Ool6QnWtvet',#5,$,$,#69,#78);
#80= IFCPROPERTYSINGLEVALUE('FeatureSubTypes',$,$,$);
#81= IFCPROPERTYSINGLEVALUE('RectangleOpeningWidth',$,IFCPOSITIVELENGTHMEASURE(12.),$);
#82= IFCPROPERTYSINGLEVALUE('RectangleOpeningHeight',$,IFCPOSITIVELENGTHMEASURE(162.7),$);
#83= IFCPROPERTYSINGLEVALUE('OpeningDiameter',$,$,$);
#84= IFCPROPERTYSET('0u5tX_cBP42x$aavx4g_mA',#5,'AISC_EM11_Pset_Opening/Cope',$,(#80,#81,#82,#83));
#85= IFCLOCALPLACEMENT(#42,#46);
#86= IFCRECTANGLEPROFILEDEF(.AREA.,'PL163.3*12',#50,12.,163.3);
#87= IFCCARTESIANPOINT((-8.91615291667404,-69.3631234756613,221.));
#88= IFCAXIS2PLACEMENT3D(#87,#72,#7);
#89= IFCEXTRUDEDAREASOLID(#86,#88,#9,442.);
#90= IFCSHAPEREPRESENTATION(#12,'Body','SweptSolid',(#89));
#91= IFCPRODUCTDEFINITIONSHAPE($,$,(#90));
#92= IFCOPENINGELEMENT('27XmwWfvjBKeXEr7nEVK11',#5,$,$,'Recess',#85,#91,$);
#93= IFCRELVOIDSELEMENT('1eHNsMEJf5dR96RXWzG6dO',#5,$,$,#69,#92);
#94= IFCPROPERTYSINGLEVALUE('RectangleOpeningHeight',$,IFCPOSITIVELENGTHMEASURE(163.3),$);
#95= IFCPROPERTYSET('0T2MunQ3vCBxb3TsRhI9BW',#5,'AISC_EM11_Pset_Opening/Cope',$,(#80,#81,#94,#83));
#96= IFCLOCALPLACEMENT(#42,#46);
#97= IFCRECTANGLEPROFILEDEF(.AREA.,'PL163.2*12',#50,12.,163.2);
#98= IFCCARTESIANPOINT((9281.14511332252,-69.399829864502,221.));
#99= IFCAXIS2PLACEMENT3D(#98,#72,#53);
#100= IFCEXTRUDEDAREASOLID(#97,#99,#9,442.);
#101= IFCSHAPEREPRESENTATION(#12,'Body','SweptSolid',(#100));
#102= IFCPRODUCTDEFINITIONSHAPE($,$,(#101));
#103= IFCOPENINGELEMENT('0zN41BMdHEfwes83r0Uahe',#5,$,$,'Recess',#96,#102,$);
#104= IFCRELVOIDSELEMENT('0y0ey1j2DBARUSy3HToPEQ',#5,$,$,#69,#103);
#105= IFCLOCALPLACEMENT(#42,#46);
#106= IFCRECTANGLEPROFILEDEF(.AREA.,'PL162.8*12',#50,12.,162.8);
#107= IFCCARTESIANPOINT((9281.14511332252,69.600170135498,221.));
#108= IFCAXIS2PLACEMENT3D(#107,#72,#53);
#109= IFCEXTRUDEDAREASOLID(#106,#108,#9,442.);
#110= IFCSHAPEREPRESENTATION(#12,'Body','SweptSolid',(#109));
#111= IFCPRODUCTDEFINITIONSHAPE($,$,(#110));
#112= IFCOPENINGELEMENT('0J218_5O5ANQPOcrb7rjDB',#5,$,$,'Recess',#105,#111,$);
#113= IFCRELVOIDSELEMENT('15HIo5cQrDrxVJRltC9Buf',#5,$,$,#69,#112);
#114= IFCLOCALPLACEMENT(#42,#46);
#115= IFCRECTANGLEPROFILEDEF(.AREA.,'PL108*12',#50,12.,108.);
#116= IFCCARTESIANPOINT((9281.13634957124,-40.7803465149918,226.));
#117= IFCAXIS2PLACEMENT3D(#116,#72,#53);
#118= IFCEXTRUDEDAREASOLID(#115,#117,#9,452.);
#119= IFCSHAPEREPRESENTATION(#12,'Body','SweptSolid',(#118));
#120= IFCPRODUCTDEFINITIONSHAPE($,$,(#119));
#121= IFCOPENINGELEMENT('0vAeP0J6j6qxHTSqU0rfZE',#5,$,$,'Recess',#114,#120,$);
#122= IFCRELVOIDSELEMENT('3QyvbPGQX859oxCoPjxFj2',#5,$,$,#69,#121);
#123= IFCPROPERTYSINGLEVALUE('RectangleOpeningHeight',$,IFCPOSITIVELENGTHMEASURE(108.),$);
#124= IFCPROPERTYSET('0UHBreaK9DcvNB5OdmkJTT',#5,'AISC_EM11_Pset_Opening/Cope',$,(#80,#81,#123,#83));
#125= IFCLOCALPLACEMENT(#42,#46);
#126= IFCCARTESIANPOINT((9281.13634957124,43.2196534850082,226.));
#127= IFCAXIS2PLACEMENT3D(#126,#72,#53);
#128= IFCEXTRUDEDAREASOLID(#115,#127,#9,452.);
#129= IFCSHAPEREPRESENTATION(#12,'Body','SweptSolid',(#128));
#130= IFCPRODUCTDEFINITIONSHAPE($,$,(#129));
#131= IFCOPENINGELEMENT('0mQi$01rXBzu415TSeyyNY',#5,$,$,'Recess',#125,#130,$);
#132= IFCRELVOIDSELEMENT('243mIhvOv6oRve3zaE3DMX',#5,$,$,#69,#131);
#133= IFCCARTESIANPOINT((82012.9369232087,17380.1324005127,13900.));
#134= IFCAXIS2PLACEMENT3D(#133,#7,#72);
#135= IFCLOCALPLACEMENT(#42,#134);
#136= IFCCIRCLEPROFILEDEF(.AREA.,$,#50,11.5);
#137= IFCCARTESIANPOINT((0.,-5.85,0.));
#138= IFCAXIS2PLACEMENT3D(#137,#8,#7);
#139= IFCEXTRUDEDAREASOLID(#136,#138,#9,11.7);
#140= IFCSHAPEREPRESENTATION(#12,'Body','SweptSolid',(#139));
#141= IFCREPRESENTATIONMAP(#10,#140);
#142= IFCCARTESIANPOINT((80.,0.,50.));
#143= IFCCARTESIANTRANSFORMATIONOPERATOR3D($,$,#142,$,$);
#144= IFCMAPPEDITEM(#141,#143);
#145= IFCCARTESIANPOINT((150.,0.,50.));
#146= IFCCARTESIANTRANSFORMATIONOPERATOR3D($,$,#145,$,$);
#147= IFCMAPPEDITEM(#141,#146);
#148= IFCCARTESIANPOINT((220.,0.,50.));
#149= IFCCARTESIANTRANSFORMATIONOPERATOR3D($,$,#148,$,$);
#150= IFCMAPPEDITEM(#141,#149);
#151= IFCCARTESIANPOINT((290.,0.,50.));
#152= IFCCARTESIANTRANSFORMATIONOPERATOR3D($,$,#151,$,$);
#153= IFCMAPPEDITEM(#141,#152);
#154= IFCCARTESIANPOINT((360.,0.,50.));
#155= IFCCARTESIANTRANSFORMATIONOPERATOR3D($,$,#154,$,$);
#156= IFCMAPPEDITEM(#141,#155);
#157= IFCSHAPEREPRESENTATION(#12,'Body','MappedRepresentation',(#144,#147,#150,#153,#156));
#158= IFCPRODUCTDEFINITIONSHAPE($,$,(#157));
#159= IFCOPENINGELEMENT('091qazdvn3CO$Ydktcy4H8',#5,$,$,'Opening',#135,#158,$);
#160= IFCRELVOIDSELEMENT('0a6_ARNSHChhvTWJxyVmeO',#5,'Drill Hole',$,#69,#159);
#161= IFCPROPERTYSINGLEVALUE('FeatureSubTypes',$,IFCLABEL('TORNILLO'),$);
#162= IFCPROPERTYSINGLEVALUE('RectangleOpeningWidth',$,$,$);
#163= IFCPROPERTYSINGLEVALUE('RectangleOpeningHeight',$,$,$);
#164= IFCPROPERTYSET('2H1FxHaqPB19R5meQOVSyq',#5,'AISC_EM11_Pset_Opening/Cope',$,(#161,#162,#163,#83));
#165= IFCCARTESIANPOINT((82062.9369508156,17380.1324005283,13450.));
#166= IFCAXIS2PLACEMENT3D(#165,#52,#7);
#167= IFCLOCALPLACEMENT(#42,#166);
#168= IFCCARTESIANPOINT((0.,9.9,0.));
#169= IFCAXIS2PLACEMENT3D(#168,#8,#7);
#170= IFCEXTRUDEDAREASOLID(#136,#169,#9,21.2);
#171= IFCSHAPEREPRESENTATION(#12,'Body','SweptSolid',(#170));
#172= IFCREPRESENTATIONMAP(#10,#171);
#173= IFCCARTESIANPOINT((0.,0.,75.));
#174= IFCCARTESIANTRANSFORMATIONOPERATOR3D($,$,#173,$,$);
#175= IFCMAPPEDITEM(#172,#174);
#176= IFCCARTESIANPOINT((75.,0.,75.));
#177= IFCCARTESIANTRANSFORMATIONOPERATOR3D($,$,#176,$,$);
#178= IFCMAPPEDITEM(#172,#177);
#179= IFCCARTESIANPOINT((150.,0.,75.));
#180= IFCCARTESIANTRANSFORMATIONOPERATOR3D($,$,#179,$,$);
#181= IFCMAPPEDITEM(#172,#180);
#182= IFCCARTESIANPOINT((225.,0.,75.));
#183= IFCCARTESIANTRANSFORMATIONOPERATOR3D($,$,#182,$,$);
#184= IFCMAPPEDITEM(#172,#183);
#185= IFCCARTESIANPOINT((300.,0.,75.));
#186= IFCCARTESIANTRANSFORMATIONOPERATOR3D($,$,#185,$,$);
#187= IFCMAPPEDITEM(#172,#186);
#188= IFCCARTESIANPOINT((375.,0.,75.));
#189= IFCCARTESIANTRANSFORMATIONOPERATOR3D($,$,#188,$,$);
#190= IFCMAPPEDITEM(#172,#189);
#191= IFCCARTESIANPOINT((450.,0.,75.));
#192= IFCCARTESIANTRANSFORMATIONOPERATOR3D($,$,#191,$,$);
#193= IFCMAPPEDITEM(#172,#192);
#194= IFCCARTESIANPOINT((525.,0.,75.));
#195= IFCCARTESIANTRANSFORMATIONOPERATOR3D($,$,#194,$,$);
#196= IFCMAPPEDITEM(#172,#195);
#197= IFCCARTESIANPOINT((600.,0.,75.));
#198= IFCCARTESIANTRANSFORMATIONOPERATOR3D($,$,#197,$,$);
#199= IFCMAPPEDITEM(#172,#198);
#200= IFCCARTESIANPOINT((675.,0.,75.));
#201= IFCCARTESIANTRANSFORMATIONOPERATOR3D($,$,#200,$,$);
#202= IFCMAPPEDITEM(#172,#201);
#203= IFCCARTESIANPOINT((0.,0.,-75.));
#204= IFCCARTESIANTRANSFORMATIONOPERATOR3D($,$,#203,$,$);
#205= IFCMAPPEDITEM(#172,#204);
#206= IFCCARTESIANPOINT((75.,0.,-75.));
#207= IFCCARTESIANTRANSFORMATIONOPERATOR3D($,$,#206,$,$);
#208= IFCMAPPEDITEM(#172,#207);
#209= IFCCARTESIANPOINT((150.,0.,-75.));
#210= IFCCARTESIANTRANSFORMATIONOPERATOR3D($,$,#209,$,$);
#211= IFCMAPPEDITEM(#172,#210);
#212= IFCCARTESIANPOINT((225.,0.,-75.));
#213= IFCCARTESIANTRANSFORMATIONOPERATOR3D($,$,#212,$,$);
#214= IFCMAPPEDITEM(#172,#213);
#215= IFCCARTESIANPOINT((300.,0.,-75.));
#216= IFCCARTESIANTRANSFORMATIONOPERATOR3D($,$,#215,$,$);
#217= IFCMAPPEDITEM(#172,#216);
#218= IFCCARTESIANPOINT((375.,0.,-75.));
#219= IFCCARTESIANTRANSFORMATIONOPERATOR3D($,$,#218,$,$);
#220= IFCMAPPEDITEM(#172,#219);
#221= IFCCARTESIANPOINT((450.,0.,-75.));
#222= IFCCARTESIANTRANSFORMATIONOPERATOR3D($,$,#221,$,$);
#223= IFCMAPPEDITEM(#172,#222);
#224= IFCCARTESIANPOINT((525.,0.,-75.));
#225= IFCCARTESIANTRANSFORMATIONOPERATOR3D($,$,#224,$,$);
#226= IFCMAPPEDITEM(#172,#225);
#227= IFCCARTESIANPOINT((600.,0.,-75.));
#228= IFCCARTESIANTRANSFORMATIONOPERATOR3D($,$,#227,$,$);
#229= IFCMAPPEDITEM(#172,#228);
#230= IFCCARTESIANPOINT((675.,0.,-75.));
#231= IFCCARTESIANTRANSFORMATIONOPERATOR3D($,$,#230,$,$);
#232= IFCMAPPEDITEM(#172,#231);
#233= IFCSHAPEREPRESENTATION(#12,'Body','MappedRepresentation',(#175,#178,#181,#184,#187,#190,#193,#196,#199,#202,#205,#208,#211,#214,#217,#220,#223,#226,#229,#232));
#234= IFCPRODUCTDEFINITIONSHAPE($,$,(#233));
#235= IFCOPENINGELEMENT('2$LHTPwY1AxeCZx8tsJfNK',#5,$,$,'Opening',#167,#234,$);
#236= IFCRELVOIDSELEMENT('2xmUhBRU53hujDqU4dLN66',#5,'Drill Hole',$,#69,#235);
#237= IFCCARTESIANPOINT((82062.9369508156,17380.1324005283,13900.));
#238= IFCAXIS2PLACEMENT3D(#237,#8,#7);
#239= IFCLOCALPLACEMENT(#42,#238);
#240= IFCCARTESIANPOINT((0.,-0.1,0.));
#241= IFCAXIS2PLACEMENT3D(#240,#8,#7);
#242= IFCEXTRUDEDAREASOLID(#136,#241,#9,21.2);
#243= IFCSHAPEREPRESENTATION(#12,'Body','SweptSolid',(#242));
#244= IFCREPRESENTATIONMAP(#10,#243);
#245= IFCMAPPEDITEM(#244,#204);
#246= IFCMAPPEDITEM(#244,#207);
#247= IFCMAPPEDITEM(#244,#210);
#248= IFCMAPPEDITEM(#244,#213);
#249= IFCMAPPEDITEM(#244,#216);
#250= IFCMAPPEDITEM(#244,#219);
#251= IFCMAPPEDITEM(#244,#222);
#252= IFCMAPPEDITEM(#244,#225);
#253= IFCMAPPEDITEM(#244,#228);
#254= IFCMAPPEDITEM(#244,#231);
#255= IFCMAPPEDITEM(#244,#174);
#256= IFCMAPPEDITEM(#244,#177);
#257= IFCMAPPEDITEM(#244,#180);
#258= IFCMAPPEDITEM(#244,#183);
#259= IFCMAPPEDITEM(#244,#186);
#260= IFCMAPPEDITEM(#244,#189);
#261= IFCMAPPEDITEM(#244,#192);
#262= IFCMAPPEDITEM(#244,#195);
#263= IFCMAPPEDITEM(#244,#198);
#264= IFCMAPPEDITEM(#244,#201);
#265= IFCSHAPEREPRESENTATION(#12,'Body','MappedRepresentation',(#245,#246,#247,#248,#249,#250,#251,#252,#253,#254,#255,#256,#257,#258,#259,#260,#261,#262,#263,#264));
#266= IFCPRODUCTDEFINITIONSHAPE($,$,(#265));
#267= IFCOPENINGELEMENT('0IvMVU1o5E6e7jV4le47Oc',#5,$,$,'Opening',#239,#266,$);
#268= IFCRELVOIDSELEMENT('3jJNWpgJL4HP9FJ4ll7PEC',#5,'Drill Hole',$,#69,#267);
#269= IFCCARTESIANPOINT((91236.0189092897,17380.7061802192,13460.));
#270= IFCDIRECTION((-7.12890000286281E-05,0.999999997458939,0.));
#271= IFCDIRECTION((-0.999999997458939,-7.12890000318489E-05,0.));
#272= IFCAXIS2PLACEMENT3D(#269,#270,#271);
#273= IFCLOCALPLACEMENT(#42,#272);
#274= IFCSHAPEREPRESENTATION(#12,'Body','MappedRepresentation',(#255,#256,#257,#258,#259,#260,#261,#262,#263,#264,#245,#246,#247,#248,#249,#250,#251,#252,#253,#254));
#275= IFCPRODUCTDEFINITIONSHAPE($,$,(#274));
#276= IFCOPENINGELEMENT('2ys42UDPX8eAQsipt3V26L',#5,$,$,'Opening',#273,#275,$);
#277= IFCRELVOIDSELEMENT('2kGmYQ1kj4JPUEyGdka1zB',#5,'Drill Hole',$,#69,#276);
#278= IFCCARTESIANPOINT((91236.0189092897,17380.7061802192,13900.));
#279= IFCDIRECTION((7.12890000286279E-05,-0.999999997458939,0.));
#280= IFCAXIS2PLACEMENT3D(#278,#279,#271);
#281= IFCLOCALPLACEMENT(#42,#280);
#282= IFCSHAPEREPRESENTATION(#12,'Body','MappedRepresentation',(#245,#246,#247,#248,#249,#250,#251,#252,#253,#254,#255,#256,#257,#258,#259,#260,#261,#262,#263,#264));
#283= IFCPRODUCTDEFINITIONSHAPE($,$,(#282));
#284= IFCOPENINGELEMENT('3$WEsJcWf5ufXbR$$OfMce',#5,$,$,'Opening',#281,#283,$);
#285= IFCRELVOIDSELEMENT('1tq1srEjz3yuLeaqHsgEdT',#5,'Drill Hole',$,#69,#284);
#286= IFCCARTESIANPOINT((91281.0189283433,17380.1324005127,13900.));
#287= IFCAXIS2PLACEMENT3D(#286,#53,#72);
#288= IFCLOCALPLACEMENT(#42,#287);
#289= IFCCIRCLEPROFILEDEF(.AREA.,$,#50,12.5);
#290= IFCEXTRUDEDAREASOLID(#289,#138,#9,11.7);
#291= IFCSHAPEREPRESENTATION(#12,'Body','SweptSolid',(#290));
#292= IFCREPRESENTATIONMAP(#10,#291);
#293= IFCCARTESIANPOINT((107.5,0.,45.));
#294= IFCCARTESIANTRANSFORMATIONOPERATOR3D($,$,#293,$,$);
#295= IFCMAPPEDITEM(#292,#294);
#296= IFCCARTESIANPOINT((182.5,0.,45.));
#297= IFCCARTESIANTRANSFORMATIONOPERATOR3D($,$,#296,$,$);
#298= IFCMAPPEDITEM(#292,#297);
#299= IFCCARTESIANPOINT((257.5,0.,45.));
#300= IFCCARTESIANTRANSFORMATIONOPERATOR3D($,$,#299,$,$);
#301= IFCMAPPEDITEM(#292,#300);
#302= IFCCARTESIANPOINT((332.5,0.,45.));
#303= IFCCARTESIANTRANSFORMATIONOPERATOR3D($,$,#302,$,$);
#304= IFCMAPPEDITEM(#292,#303);
#305= IFCSHAPEREPRESENTATION(#12,'Body','MappedRepresentation',(#295,#298,#301,#304));
#306= IFCPRODUCTDEFINITIONSHAPE($,$,(#305));
#307= IFCOPENINGELEMENT('2aGbRu7On1pfv7uKkaxXMf',#5,$,$,'Opening',#288,#306,$);
#308= IFCRELVOIDSELEMENT('1WQQoKA9PD4wI3Z7_y02Y0',#5,'Drill Hole',$,#69,#307);
#309= IFCPROPERTYSINGLEVALUE('PieceMark',$,IFCIDENTIFIER('BEAM'),$);
#310= IFCPROPERTYSINGLEVALUE('IndicationMark',$,IFCIDENTIFIER('b/10'),$);
#311= IFCPROPERTYSINGLEVALUE('PrelimMark',$,IFCIDENTIFIER(''),$);
#312= IFCPROPERTYSINGLEVALUE('MainPieceTag',$,IFCBOOLEAN(.T.),$);
#313= IFCPROPERTYSET('1fNAirquL47g4sLIjWHQ$F',#5,'AISC_EM11_Pset_PieceIdentification','PieceIdentity',(#309,#310,#311,#312));
#314= IFCPROPERTYSINGLEVALUE('MaterialType',$,IFCIDENTIFIER('STEEL'),$);
#315= IFCPROPERTYSINGLEVALUE('MaterialGrade',$,IFCIDENTIFIER('S235JR'),$);
#316= IFCPROPERTYSET('29h7LB1ZX60uTELb_jUBZA',#5,'AISC_EM11_Pset_Material',$,(#314,#315));
#317= IFCPROPERTYSINGLEVALUE('SkewedAngleY',$,IFCREAL(0.),$);
#318= IFCPROPERTYSINGLEVALUE('SkewedAngleX',$,IFCREAL(0.),$);
#319= IFCPROPERTYSET('3nT2CTmUH3RedO66D_pH3s',#5,'AISC_EM11_Pset_SkewedEnd',$,(#317,#318));
#320= IFCPROPERTYSET('1mWQuePpD509bUCiLNcizr',#5,'AISC_EM11_Pset_SkewedEnd_2',$,(#317,#318));
#321= IFCMATERIAL('STEEL/S235JR');
#322= IFCRELAGGREGATES('2tqn5e2q17K9hhFHKLC7Jv',#5,$,$,#37,(#39));
#323= IFCRELAGGREGATES('2963NwK6JPcRzzXZcdUPbB',#5,$,$,#39,(#41));
#324= IFCRELAGGREGATES('1vBlAjUh56dxTbwpsUEtlE',#5,$,$,#41,(#43));
#325= IFCRELCONTAINEDINSPATIALSTRUCTURE('2CrBvbmkD7IfudcmRoMlxG',#5,$,$,(#69),#43);
#326= IFCRELDEFINESBYPROPERTIES('3zM$pNpy9FJxK4WVx7SSnD',#5,$,$,(#112,#78),#84);
#327= IFCRELDEFINESBYPROPERTIES('3$Ywi2OoD0gwFN18_fhM2S',#5,$,$,(#103,#92),#95);
#328= IFCRELDEFINESBYPROPERTIES('2$tmHWoUr1OOvJF14Xflws',#5,$,$,(#131,#121),#124);
#329= IFCRELDEFINESBYPROPERTIES('2sKbKjA8H28RJZC56PRlio',#5,$,$,(#307,#284,#276,#267,#235,#159),#164);
#330= IFCRELDEFINESBYPROPERTIES('0fOxAozoD1KgmknNA6wvOO',#5,$,$,(#69),#313);
#331= IFCRELDEFINESBYPROPERTIES('0wNlZO1CHAQRL644n3j2QP',#5,$,$,(#69),#316);
#332= IFCRELDEFINESBYPROPERTIES('2pu3GuWTr3uP2YiUg5ehl1',#5,$,$,(#69),#319);
#333= IFCRELDEFINESBYPROPERTIES('3K3fgx9UXBtucNDw_uE9WN',#5,$,$,(#69),#320);
#334= IFCRELASSOCIATESMATERIAL('0YAtIjE4LCCQ0P2S40MmnB',#5,$,$,(#69),#321);
ENDSEC;

END-ISO-10303-21;
