ISO-10303-21;
HEADER;
FILE_DESCRIPTION(('ViewDefinition[AISC_Steel_Detailing]', 'Option [BaseQuantities:Off]', 'Option [GridExport:On]', 'Option [Assemblies:Off]', 'Option [Bolts:On]', 'Option [Rebars:On]', 'Option [PourObjects:Off]', 'Option [Welds:On]', 'Option [SurfaceTreatments:On]', 'Option [LocationBy:0]', 'Option [ViewColors:Off]', 'Option [SectionedSpine:Off]', 'Option [PropertySets:On]', 'Option [Export all:Off]'),'2;1');
FILE_NAME('b_106_Qty_1.ifc','2026-05-16T11:53:19',('GIOVANNIPC\\gcorrea'),('Structural Designer'),'IFC Database version: Work','Tekla Structures 2020 Service Pack 5, IFC Export Version: 4.0.0.0 Dec  7 2020','');
FILE_SCHEMA(('IFC2X3'));
ENDSEC;

DATA;
#1= IFCPERSON('GIOVANNIPC\\gcorrea','Undefined',$,$,$,$,$,$);
#2= IFCORGANIZATION($,'Trimble Solutions Corporation',$,$,$);
#3= IFCPERSONANDORGANIZATION(#1,#2,$);
#4= IFCAPPLICATION(#2,'2020 Service Pack 5','Tekla Structures','Multi material modeling');
#5= IFCOWNERHISTORY(#3,#4,$,.NOCHANGE.,$,$,$,1778950399);
#6= IFCCARTESIANPOINT((0.,0.,0.));
#7= IFCDIRECTION((1.,0.,0.));
#8= IFCDIRECTION((0.,1.,0.));
#9= IFCDIRECTION((0.,0.,1.));
#10= IFCAXIS2PLACEMENT3D(#6,#9,#7);
#11= IFCGEOMETRICREPRESENTATIONCONTEXT($,'Model',3,1.E-05,#10,$);
#12= IFCGEOMETRICREPRESENTATIONSUBCONTEXT('Body','Model',*,*,*,*,#11,$,.MODEL_VIEW.,$);
#13= IFCGEOMETRICREPRESENTATIONSUBCONTEXT('Axis','Model',*,*,*,*,#11,$,.GRAPH_VIEW.,$);
#14= IFCGEOMETRICREPRESENTATIONSUBCONTEXT('FootPrint','Model',*,*,*,*,#11,$,.MODEL_VIEW.,$);
#15= IFCSIUNIT(*,.LENGTHUNIT.,.MILLI.,.METRE.);
#16= IFCMEASUREWITHUNIT(IFCRATIOMEASURE(304.8),#15);
#17= IFCDIMENSIONALEXPONENTS(1,0,0,0,0,0,0);
#18= IFCCONVERSIONBASEDUNIT(#17,.LENGTHUNIT.,'FOOT',#16);
#19= IFCSIUNIT(*,.AREAUNIT.,$,.SQUARE_METRE.);
#20= IFCMEASUREWITHUNIT(IFCRATIOMEASURE(0.09290304),#19);
#21= IFCDIMENSIONALEXPONENTS(2,0,0,0,0,0,0);
#22= IFCCONVERSIONBASEDUNIT(#21,.AREAUNIT.,'SQUARE FOOT',#20);
#23= IFCSIUNIT(*,.VOLUMEUNIT.,$,.CUBIC_METRE.);
#24= IFCMEASUREWITHUNIT(IFCRATIOMEASURE(0.028316846592),#23);
#25= IFCDIMENSIONALEXPONENTS(3,0,0,0,0,0,0);
#26= IFCCONVERSIONBASEDUNIT(#25,.VOLUMEUNIT.,'CUBIC FOOT',#24);
#27= IFCSIUNIT(*,.MASSUNIT.,.KILO.,.GRAM.);
#28= IFCSIUNIT(*,.TIMEUNIT.,$,.SECOND.);
#29= IFCSIUNIT(*,.PLANEANGLEUNIT.,$,.RADIAN.);
#30= IFCMEASUREWITHUNIT(IFCRATIOMEASURE(0.0174532925199433),#29);
#31= IFCDIMENSIONALEXPONENTS(0,0,0,0,0,0,0);
#32= IFCCONVERSIONBASEDUNIT(#31,.PLANEANGLEUNIT.,'DEGREE',#30);
#33= IFCSIUNIT(*,.SOLIDANGLEUNIT.,$,.STERADIAN.);
#34= IFCSIUNIT(*,.THERMODYNAMICTEMPERATUREUNIT.,$,.DEGREE_CELSIUS.);
#35= IFCSIUNIT(*,.LUMINOUSINTENSITYUNIT.,$,.LUMEN.);
#36= IFCUNITASSIGNMENT((#15,#19,#23,#27,#28,#29,#33,#34,#35));
#37= IFCPROJECT('2G7ZFDNE16yBDU14FA92Me',#5,'Proyecto',$,$,$,$,(#11),#36);
#38= IFCLOCALPLACEMENT($,#10);
#39= IFCSITE('2xvEzEinjBTea80yOTcujY',#5,'Obra',$,$,#38,$,$,.ELEMENT.,$,$,$,$,$);
#40= IFCLOCALPLACEMENT(#38,#10);
#41= IFCBUILDING('15nfVF1Qb3BP_TeJtKiVeB',#5,'Undefined',$,$,#40,$,$,.ELEMENT.,$,$,$);
#42= IFCLOCALPLACEMENT(#40,#10);
#43= IFCBUILDINGSTOREY('29hdEUCErFze9E_VIAceOd',#5,'Undefined',$,$,#42,$,$,.ELEMENT.,0.);
#44= IFCOWNERHISTORY(#3,#4,$,.NOCHANGE.,$,$,$,1774555200);
#45= IFCCARTESIANPOINT((25756.3588837509,21999.9006958008,13675.));
#46= IFCAXIS2PLACEMENT3D(#45,#9,#7);
#47= IFCLOCALPLACEMENT(#42,#46);
#48= IFCDIRECTION((1.,0.));
#49= IFCCARTESIANPOINT((0.,0.));
#50= IFCAXIS2PLACEMENT2D(#49,#48);
#51= IFCISHAPEPROFILEDEF(.AREA.,'IPE450',#50,190.,450.,9.399999619,14.60000038,21.);
#52= IFCDIRECTION((0.,-1.,0.));
#53= IFCDIRECTION((-1.,0.,0.));
#54= IFCCARTESIANPOINT((8071.14084159087,0.,0.));
#55= IFCAXIS2PLACEMENT3D(#54,#53,#52);
#56= IFCEXTRUDEDAREASOLID(#51,#55,#9,8099.49);
#57= IFCCARTESIANPOINT((8071.14084159087,0.,-325.));
#58= IFCAXIS2PLACEMENT3D(#57,#53,#8);
#59= IFCPLANE(#58);
#60= IFCHALFSPACESOLID(#59,.T.);
#61= IFCBOOLEANCLIPPINGRESULT(.DIFFERENCE.,#56,#60);
#62= IFCCARTESIANPOINT((-28.3532095811534,5.60248736292124E-10,-325.));
#63= IFCAXIS2PLACEMENT3D(#62,#7,#52);
#64= IFCPLANE(#63);
#65= IFCHALFSPACESOLID(#64,.T.);
#66= IFCBOOLEANCLIPPINGRESULT(.DIFFERENCE.,#61,#65);
#67= IFCSHAPEREPRESENTATION(#12,'Body','Clipping',(#66));
#68= IFCPRODUCTDEFINITIONSHAPE($,$,(#67));
#69= IFCBEAM('3_oWRttZj1$xwsb4cTpFgY',#44,'BEAM','IPE450','IPE450',#47,#68,'IDfeca06f7-de3b-41ff-beb6-94499dccfaa2');
#70= IFCLOCALPLACEMENT(#42,#46);
#71= IFCRECTANGLEPROFILEDEF(.AREA.,'PL59*144',#50,59.,144.);
#72= IFCDIRECTION((0.,0.,-1.));
#73= IFCCARTESIANPOINT((-100.353209581153,-96.0000000590626,-196.5));
#74= IFCAXIS2PLACEMENT3D(#73,#8,#72);
#75= IFCEXTRUDEDAREASOLID(#71,#74,#9,192.);
#76= IFCSHAPEREPRESENTATION(#12,'Body','SweptSolid',(#75));
#77= IFCPRODUCTDEFINITIONSHAPE($,$,(#76));
#78= IFCOPENINGELEMENT('01cfZi2rP6WOC10_PV8axg',#5,$,$,'Recess',#70,#77,$);
#79= IFCRELVOIDSELEMENT('1SlgD7N_D4NAB$3XEiUTe9',#5,$,$,#69,#78);
#80= IFCPROPERTYSINGLEVALUE('FeatureSubTypes',$,$,$);
#81= IFCPROPERTYSINGLEVALUE('RectangleOpeningWidth',$,IFCPOSITIVELENGTHMEASURE(59.),$);
#82= IFCPROPERTYSINGLEVALUE('RectangleOpeningHeight',$,IFCPOSITIVELENGTHMEASURE(144.),$);
#83= IFCPROPERTYSINGLEVALUE('OpeningDiameter',$,$,$);
#84= IFCPROPERTYSET('1Knr8ic2j70Qe7aDjCykp$',#5,'AISC_EM11_Pset_Opening/Cope',$,(#80,#81,#82,#83));
#85= IFCLOCALPLACEMENT(#42,#46);
#86= IFCRECTANGLEPROFILEDEF(.AREA.,'PL49*144',#50,49.,144.);
#87= IFCCARTESIANPOINT((-100.177453196877,-96.0000000590626,201.5));
#88= IFCAXIS2PLACEMENT3D(#87,#8,#72);
#89= IFCEXTRUDEDAREASOLID(#86,#88,#9,192.);
#90= IFCSHAPEREPRESENTATION(#12,'Body','SweptSolid',(#89));
#91= IFCPRODUCTDEFINITIONSHAPE($,$,(#90));
#92= IFCOPENINGELEMENT('0oIPopTmX2_BuXOBpQbwDu',#5,$,$,'Recess',#85,#91,$);
#93= IFCRELVOIDSELEMENT('30D8SZoZL7hRBuISo5SiW$',#5,$,$,#69,#92);
#94= IFCPROPERTYSINGLEVALUE('RectangleOpeningWidth',$,IFCPOSITIVELENGTHMEASURE(49.),$);
#95= IFCPROPERTYSET('0vPhEYNLH4rPQxP$vkw5$X',#5,'AISC_EM11_Pset_Opening/Cope',$,(#80,#94,#82,#83));
#96= IFCLOCALPLACEMENT(#42,#46);
#97= IFCRECTANGLEPROFILEDEF(.AREA.,'PL106*12',#50,12.,106.);
#98= IFCCARTESIANPOINT((8087.14084159087,-43.,226.));
#99= IFCAXIS2PLACEMENT3D(#98,#72,#53);
#100= IFCEXTRUDEDAREASOLID(#97,#99,#9,452.);
#101= IFCSHAPEREPRESENTATION(#12,'Body','SweptSolid',(#100));
#102= IFCPRODUCTDEFINITIONSHAPE($,$,(#101));
#103= IFCOPENINGELEMENT('1jF1dvKBTAbu0fFdDuBIu5',#5,$,$,'Recess',#96,#102,$);
#104= IFCRELVOIDSELEMENT('1Vw0ZOI2PFBADuOD6CDMf3',#5,$,$,#69,#103);
#105= IFCPROPERTYSINGLEVALUE('RectangleOpeningWidth',$,IFCPOSITIVELENGTHMEASURE(12.),$);
#106= IFCPROPERTYSINGLEVALUE('RectangleOpeningHeight',$,IFCPOSITIVELENGTHMEASURE(106.),$);
#107= IFCPROPERTYSET('3IF4eTClPFBAPfQunD9FC7',#5,'AISC_EM11_Pset_Opening/Cope',$,(#80,#105,#106,#83));
#108= IFCLOCALPLACEMENT(#42,#46);
#109= IFCCARTESIANPOINT((8087.14084159087,43.,226.));
#110= IFCAXIS2PLACEMENT3D(#109,#72,#53);
#111= IFCEXTRUDEDAREASOLID(#97,#110,#9,452.);
#112= IFCSHAPEREPRESENTATION(#12,'Body','SweptSolid',(#111));
#113= IFCPRODUCTDEFINITIONSHAPE($,$,(#112));
#114= IFCOPENINGELEMENT('1R5M89VdDDVOSQt7EWWS_P',#5,$,$,'Recess',#108,#113,$);
#115= IFCRELVOIDSELEMENT('0tulBOJ2zCLRH$9aCCe3iJ',#5,$,$,#69,#114);
#116= IFCCARTESIANPOINT((25768.0935523186,21999.9006957712,13460.));
#117= IFCAXIS2PLACEMENT3D(#116,#52,#7);
#118= IFCLOCALPLACEMENT(#42,#117);
#119= IFCCIRCLEPROFILEDEF(.AREA.,$,#50,11.5);
#120= IFCCARTESIANPOINT((0.,-10.1,0.));
#121= IFCAXIS2PLACEMENT3D(#120,#8,#7);
#122= IFCEXTRUDEDAREASOLID(#119,#121,#9,14.8);
#123= IFCSHAPEREPRESENTATION(#12,'Body','SweptSolid',(#122));
#124= IFCREPRESENTATIONMAP(#10,#123);
#125= IFCCARTESIANPOINT((0.,0.,50.));
#126= IFCCARTESIANTRANSFORMATIONOPERATOR3D($,$,#125,$,$);
#127= IFCMAPPEDITEM(#124,#126);
#128= IFCCARTESIANPOINT((70.,0.,50.));
#129= IFCCARTESIANTRANSFORMATIONOPERATOR3D($,$,#128,$,$);
#130= IFCMAPPEDITEM(#124,#129);
#131= IFCCARTESIANPOINT((140.,0.,50.));
#132= IFCCARTESIANTRANSFORMATIONOPERATOR3D($,$,#131,$,$);
#133= IFCMAPPEDITEM(#124,#132);
#134= IFCCARTESIANPOINT((210.,0.,50.));
#135= IFCCARTESIANTRANSFORMATIONOPERATOR3D($,$,#134,$,$);
#136= IFCMAPPEDITEM(#124,#135);
#137= IFCCARTESIANPOINT((280.,0.,50.));
#138= IFCCARTESIANTRANSFORMATIONOPERATOR3D($,$,#137,$,$);
#139= IFCMAPPEDITEM(#124,#138);
#140= IFCCARTESIANPOINT((350.,0.,50.));
#141= IFCCARTESIANTRANSFORMATIONOPERATOR3D($,$,#140,$,$);
#142= IFCMAPPEDITEM(#124,#141);
#143= IFCCARTESIANPOINT((420.,0.,50.));
#144= IFCCARTESIANTRANSFORMATIONOPERATOR3D($,$,#143,$,$);
#145= IFCMAPPEDITEM(#124,#144);
#146= IFCCARTESIANPOINT((0.,0.,-50.));
#147= IFCCARTESIANTRANSFORMATIONOPERATOR3D($,$,#146,$,$);
#148= IFCMAPPEDITEM(#124,#147);
#149= IFCCARTESIANPOINT((70.,0.,-50.));
#150= IFCCARTESIANTRANSFORMATIONOPERATOR3D($,$,#149,$,$);
#151= IFCMAPPEDITEM(#124,#150);
#152= IFCCARTESIANPOINT((140.,0.,-50.));
#153= IFCCARTESIANTRANSFORMATIONOPERATOR3D($,$,#152,$,$);
#154= IFCMAPPEDITEM(#124,#153);
#155= IFCCARTESIANPOINT((210.,0.,-50.));
#156= IFCCARTESIANTRANSFORMATIONOPERATOR3D($,$,#155,$,$);
#157= IFCMAPPEDITEM(#124,#156);
#158= IFCCARTESIANPOINT((280.,0.,-50.));
#159= IFCCARTESIANTRANSFORMATIONOPERATOR3D($,$,#158,$,$);
#160= IFCMAPPEDITEM(#124,#159);
#161= IFCCARTESIANPOINT((350.,0.,-50.));
#162= IFCCARTESIANTRANSFORMATIONOPERATOR3D($,$,#161,$,$);
#163= IFCMAPPEDITEM(#124,#162);
#164= IFCCARTESIANPOINT((420.,0.,-50.));
#165= IFCCARTESIANTRANSFORMATIONOPERATOR3D($,$,#164,$,$);
#166= IFCMAPPEDITEM(#124,#165);
#167= IFCSHAPEREPRESENTATION(#12,'Body','MappedRepresentation',(#127,#130,#133,#136,#139,#142,#145,#148,#151,#154,#157,#160,#163,#166));
#168= IFCPRODUCTDEFINITIONSHAPE($,$,(#167));
#169= IFCOPENINGELEMENT('0fq3yJPo1Eh8TfIXhooLGc',#5,$,$,'Opening',#118,#168,$);
#170= IFCRELVOIDSELEMENT('3Qq00ahar5vvi2PGZTtrfG',#5,'Drill Hole',$,#69,#169);
#171= IFCPROPERTYSINGLEVALUE('FeatureSubTypes',$,IFCLABEL('TORNILLO'),$);
#172= IFCPROPERTYSINGLEVALUE('RectangleOpeningWidth',$,$,$);
#173= IFCPROPERTYSINGLEVALUE('RectangleOpeningHeight',$,$,$);
#174= IFCPROPERTYSET('0GMKmXKSLCvOmbT2cRC4C2',#5,'AISC_EM11_Pset_Opening/Cope',$,(#171,#172,#173,#83));
#175= IFCCARTESIANPOINT((25768.0935523186,21999.9006957712,13900.));
#176= IFCAXIS2PLACEMENT3D(#175,#8,#7);
#177= IFCLOCALPLACEMENT(#42,#176);
#178= IFCCARTESIANPOINT((0.,-0.1,0.));
#179= IFCAXIS2PLACEMENT3D(#178,#8,#7);
#180= IFCEXTRUDEDAREASOLID(#119,#179,#9,14.8);
#181= IFCSHAPEREPRESENTATION(#12,'Body','SweptSolid',(#180));
#182= IFCREPRESENTATIONMAP(#10,#181);
#183= IFCMAPPEDITEM(#182,#147);
#184= IFCMAPPEDITEM(#182,#150);
#185= IFCMAPPEDITEM(#182,#153);
#186= IFCMAPPEDITEM(#182,#156);
#187= IFCMAPPEDITEM(#182,#159);
#188= IFCMAPPEDITEM(#182,#162);
#189= IFCMAPPEDITEM(#182,#165);
#190= IFCMAPPEDITEM(#182,#126);
#191= IFCMAPPEDITEM(#182,#129);
#192= IFCMAPPEDITEM(#182,#132);
#193= IFCMAPPEDITEM(#182,#135);
#194= IFCMAPPEDITEM(#182,#138);
#195= IFCMAPPEDITEM(#182,#141);
#196= IFCMAPPEDITEM(#182,#144);
#197= IFCSHAPEREPRESENTATION(#12,'Body','MappedRepresentation',(#183,#184,#185,#186,#187,#188,#189,#190,#191,#192,#193,#194,#195,#196));
#198= IFCPRODUCTDEFINITIONSHAPE($,$,(#197));
#199= IFCOPENINGELEMENT('1HLp39Tm57jPUEUV8oW0BT',#5,$,$,'Opening',#177,#198,$);
#200= IFCRELVOIDSELEMENT('1uabagq2PAO8NzL5_Fgoo6',#5,'Drill Hole',$,#69,#199);
#201= IFCCARTESIANPOINT((25718.005674174,21999.9006958024,13879.));
#202= IFCAXIS2PLACEMENT3D(#201,#7,#72);
#203= IFCLOCALPLACEMENT(#42,#202);
#204= IFCCARTESIANPOINT((0.,-4.79999981110233,0.));
#205= IFCAXIS2PLACEMENT3D(#204,#8,#7);
#206= IFCEXTRUDEDAREASOLID(#119,#205,#9,9.6);
#207= IFCSHAPEREPRESENTATION(#12,'Body','SweptSolid',(#206));
#208= IFCREPRESENTATIONMAP(#10,#207);
#209= IFCCARTESIANPOINT((40.,0.,50.));
#210= IFCCARTESIANTRANSFORMATIONOPERATOR3D($,$,#209,$,$);
#211= IFCMAPPEDITEM(#208,#210);
#212= IFCCARTESIANPOINT((110.,0.,50.));
#213= IFCCARTESIANTRANSFORMATIONOPERATOR3D($,$,#212,$,$);
#214= IFCMAPPEDITEM(#208,#213);
#215= IFCCARTESIANPOINT((180.,0.,50.));
#216= IFCCARTESIANTRANSFORMATIONOPERATOR3D($,$,#215,$,$);
#217= IFCMAPPEDITEM(#208,#216);
#218= IFCCARTESIANPOINT((250.,0.,50.));
#219= IFCCARTESIANTRANSFORMATIONOPERATOR3D($,$,#218,$,$);
#220= IFCMAPPEDITEM(#208,#219);
#221= IFCCARTESIANPOINT((320.,0.,50.));
#222= IFCCARTESIANTRANSFORMATIONOPERATOR3D($,$,#221,$,$);
#223= IFCMAPPEDITEM(#208,#222);
#224= IFCSHAPEREPRESENTATION(#12,'Body','MappedRepresentation',(#211,#214,#217,#220,#223));
#225= IFCPRODUCTDEFINITIONSHAPE($,$,(#224));
#226= IFCOPENINGELEMENT('1TDrDctEb7HewMpjtnmzL1',#5,$,$,'Opening',#203,#225,$);
#227= IFCRELVOIDSELEMENT('1ihJmO3Ar70O_9NBzQ_2eC',#5,'Drill Hole',$,#69,#226);
#228= IFCCARTESIANPOINT((33367.523154622,21999.9006958008,13450.));
#229= IFCDIRECTION((0.000467666999837092,-0.999999890643783,0.));
#230= IFCDIRECTION((0.999999890643783,0.000467666999833853,0.));
#231= IFCAXIS2PLACEMENT3D(#228,#229,#230);
#232= IFCLOCALPLACEMENT(#42,#231);
#233= IFCSHAPEREPRESENTATION(#12,'Body','MappedRepresentation',(#183,#184,#185,#186,#187,#188,#189,#190,#191,#192,#193,#194,#195,#196));
#234= IFCPRODUCTDEFINITIONSHAPE($,$,(#233));
#235= IFCOPENINGELEMENT('2OvypRuNbAHPt0myahtUj2',#5,$,$,'Opening',#232,#234,$);
#236= IFCRELVOIDSELEMENT('1ULL1M8VT6vOZUjYioG9cf',#5,'Drill Hole',$,#69,#235);
#237= IFCCARTESIANPOINT((33827.4997253418,21999.9006958008,13900.));
#238= IFCAXIS2PLACEMENT3D(#237,#53,#72);
#239= IFCLOCALPLACEMENT(#42,#238);
#240= IFCCARTESIANPOINT((85.,0.,40.));
#241= IFCCARTESIANTRANSFORMATIONOPERATOR3D($,$,#240,$,$);
#242= IFCMAPPEDITEM(#208,#241);
#243= IFCCARTESIANPOINT((155.,0.,40.));
#244= IFCCARTESIANTRANSFORMATIONOPERATOR3D($,$,#243,$,$);
#245= IFCMAPPEDITEM(#208,#244);
#246= IFCCARTESIANPOINT((225.,0.,40.));
#247= IFCCARTESIANTRANSFORMATIONOPERATOR3D($,$,#246,$,$);
#248= IFCMAPPEDITEM(#208,#247);
#249= IFCCARTESIANPOINT((295.,0.,40.));
#250= IFCCARTESIANTRANSFORMATIONOPERATOR3D($,$,#249,$,$);
#251= IFCMAPPEDITEM(#208,#250);
#252= IFCCARTESIANPOINT((365.,0.,40.));
#253= IFCCARTESIANTRANSFORMATIONOPERATOR3D($,$,#252,$,$);
#254= IFCMAPPEDITEM(#208,#253);
#255= IFCSHAPEREPRESENTATION(#12,'Body','MappedRepresentation',(#242,#245,#248,#251,#254));
#256= IFCPRODUCTDEFINITIONSHAPE($,$,(#255));
#257= IFCOPENINGELEMENT('0JktMHokzAxOcvoW5YThXj',#5,$,$,'Opening',#239,#256,$);
#258= IFCRELVOIDSELEMENT('3cD_$fHnH5MgWzOukeBUL2',#5,'Drill Hole',$,#69,#257);
#259= IFCCARTESIANPOINT((33367.523154622,21999.9006958008,13900.));
#260= IFCDIRECTION((-0.000467666999829816,0.999999890643783,0.));
#261= IFCAXIS2PLACEMENT3D(#259,#260,#230);
#262= IFCLOCALPLACEMENT(#42,#261);
#263= IFCSHAPEREPRESENTATION(#12,'Body','MappedRepresentation',(#183,#184,#185,#186,#187,#188,#189,#190,#191,#192,#193,#194,#195,#196));
#264= IFCPRODUCTDEFINITIONSHAPE($,$,(#263));
#265= IFCOPENINGELEMENT('2vX_Kr161BIfmA8qwq3mf5',#5,$,$,'Opening',#262,#264,$);
#266= IFCRELVOIDSELEMENT('0RFEQVfjX2jQycZ129X6tX',#5,'Drill Hole',$,#69,#265);
#267= IFCPROPERTYSINGLEVALUE('PieceMark',$,IFCIDENTIFIER('BEAM'),$);
#268= IFCPROPERTYSINGLEVALUE('IndicationMark',$,IFCIDENTIFIER('b/106'),$);
#269= IFCPROPERTYSINGLEVALUE('PrelimMark',$,IFCIDENTIFIER(''),$);
#270= IFCPROPERTYSINGLEVALUE('MainPieceTag',$,IFCBOOLEAN(.T.),$);
#271= IFCPROPERTYSET('3f63hj8F152PDtkCgzZoge',#5,'AISC_EM11_Pset_PieceIdentification','PieceIdentity',(#267,#268,#269,#270));
#272= IFCPROPERTYSINGLEVALUE('MaterialType',$,IFCIDENTIFIER('STEEL'),$);
#273= IFCPROPERTYSINGLEVALUE('MaterialGrade',$,IFCIDENTIFIER('S235JR'),$);
#274= IFCPROPERTYSET('11YSSojrP4whKFKr2N76HW',#5,'AISC_EM11_Pset_Material',$,(#272,#273));
#275= IFCPROPERTYSINGLEVALUE('SkewedAngleY',$,IFCREAL(0.),$);
#276= IFCPROPERTYSINGLEVALUE('SkewedAngleX',$,IFCREAL(0.),$);
#277= IFCPROPERTYSET('20d2TIZ3D5BhkdYb8jYOeD',#5,'AISC_EM11_Pset_SkewedEnd',$,(#275,#276));
#278= IFCPROPERTYSET('3PPKSXLzXB1wX086wCYjcI',#5,'AISC_EM11_Pset_SkewedEnd_2',$,(#275,#276));
#279= IFCMATERIAL('STEEL/S235JR');
#280= IFCRELAGGREGATES('0cI09IVgn78g0ZdG0t373N',#5,$,$,#37,(#39));
#281= IFCRELAGGREGATES('2uaIRany3PQyIrvYI9LPLf',#5,$,$,#39,(#41));
#282= IFCRELAGGREGATES('1lF7LnXijCS9QfIYvIFrxr',#5,$,$,#41,(#43));
#283= IFCRELCONTAINEDINSPATIALSTRUCTURE('0iPwXGE9rCRgP41VkYRNJr',#5,$,$,(#69),#43);
#284= IFCRELDEFINESBYPROPERTIES('20j2EFcCrBfxvCcuSqH7MJ',#5,$,$,(#78),#84);
#285= IFCRELDEFINESBYPROPERTIES('2fkyDru5D7LRAnsx7i_qRd',#5,$,$,(#92),#95);
#286= IFCRELDEFINESBYPROPERTIES('0giKP1jVfFrucT4Den1W03',#5,$,$,(#114,#103),#107);
#287= IFCRELDEFINESBYPROPERTIES('0gH4dZXwjC_wFABKWglGwi',#5,$,$,(#265,#257,#235,#226,#199,#169),#174);
#288= IFCRELDEFINESBYPROPERTIES('3Hev6r0Mv1hg8u_9Q4Nsvh',#5,$,$,(#69),#271);
#289= IFCRELDEFINESBYPROPERTIES('1WeeJLOCXA9B2VCjuwUSwc',#5,$,$,(#69),#274);
#290= IFCRELDEFINESBYPROPERTIES('3ENDGiwPL7gwIslw$lLtQ_',#5,$,$,(#69),#277);
#291= IFCRELDEFINESBYPROPERTIES('0SoiU3zlX6cwg7Libk1tqa',#5,$,$,(#69),#278);
#292= IFCRELASSOCIATESMATERIAL('0X56xVc2r6uvgXXTniARhU',#5,$,$,(#69),#279);
ENDSEC;

END-ISO-10303-21;
