ISO-10303-21;
HEADER;
FILE_DESCRIPTION(('ViewDefinition[AISC_Steel_Detailing]', 'Option [BaseQuantities:Off]', 'Option [GridExport:On]', 'Option [Assemblies:Off]', 'Option [Bolts:On]', 'Option [Rebars:On]', 'Option [PourObjects:Off]', 'Option [Welds:On]', 'Option [SurfaceTreatments:On]', 'Option [LocationBy:0]', 'Option [ViewColors:Off]', 'Option [SectionedSpine:Off]', 'Option [PropertySets:On]', 'Option [Export all:Off]'),'2;1');
FILE_NAME('b_1036_Qty_2.ifc','2026-05-16T11:53:12',('GIOVANNIPC\\gcorrea'),('Structural Designer'),'IFC Database version: Work','Tekla Structures 2020 Service Pack 5, IFC Export Version: 4.0.0.0 Dec  7 2020','');
FILE_SCHEMA(('IFC2X3'));
ENDSEC;

DATA;
#1= IFCPERSON('GIOVANNIPC\\gcorrea','Undefined',$,$,$,$,$,$);
#2= IFCORGANIZATION($,'Trimble Solutions Corporation',$,$,$);
#3= IFCPERSONANDORGANIZATION(#1,#2,$);
#4= IFCAPPLICATION(#2,'2020 Service Pack 5','Tekla Structures','Multi material modeling');
#5= IFCOWNERHISTORY(#3,#4,$,.NOCHANGE.,$,$,$,1778950392);
#6= IFCCARTESIANPOINT((0.,0.,0.));
#7= IFCDIRECTION((1.,0.,0.));
#8= IFCDIRECTION((0.,1.,0.));
#9= IFCDIRECTION((0.,0.,1.));
#10= IFCAXIS2PLACEMENT3D(#6,#9,#7);
#11= IFCGEOMETRICREPRESENTATIONCONTEXT($,'Model',3,1.E-05,#10,$);
#12= IFCGEOMETRICREPRESENTATIONSUBCONTEXT('Body','Model',*,*,*,*,#11,$,.MODEL_VIEW.,$);
#13= IFCGEOMETRICREPRESENTATIONSUBCONTEXT('Axis','Model',*,*,*,*,#11,$,.GRAPH_VIEW.,$);
#14= IFCGEOMETRICREPRESENTATIONSUBCONTEXT('FootPrint','Model',*,*,*,*,#11,$,.MODEL_VIEW.,$);
#15= IFCSIUNIT(*,.LENGTHUNIT.,.MILLI.,.METRE.);
#16= IFCMEASUREWITHUNIT(IFCRATIOMEASURE(304.8),#15);
#17= IFCDIMENSIONALEXPONENTS(1,0,0,0,0,0,0);
#18= IFCCONVERSIONBASEDUNIT(#17,.LENGTHUNIT.,'FOOT',#16);
#19= IFCSIUNIT(*,.AREAUNIT.,$,.SQUARE_METRE.);
#20= IFCMEASUREWITHUNIT(IFCRATIOMEASURE(0.09290304),#19);
#21= IFCDIMENSIONALEXPONENTS(2,0,0,0,0,0,0);
#22= IFCCONVERSIONBASEDUNIT(#21,.AREAUNIT.,'SQUARE FOOT',#20);
#23= IFCSIUNIT(*,.VOLUMEUNIT.,$,.CUBIC_METRE.);
#24= IFCMEASUREWITHUNIT(IFCRATIOMEASURE(0.028316846592),#23);
#25= IFCDIMENSIONALEXPONENTS(3,0,0,0,0,0,0);
#26= IFCCONVERSIONBASEDUNIT(#25,.VOLUMEUNIT.,'CUBIC FOOT',#24);
#27= IFCSIUNIT(*,.MASSUNIT.,.KILO.,.GRAM.);
#28= IFCSIUNIT(*,.TIMEUNIT.,$,.SECOND.);
#29= IFCSIUNIT(*,.PLANEANGLEUNIT.,$,.RADIAN.);
#30= IFCMEASUREWITHUNIT(IFCRATIOMEASURE(0.0174532925199433),#29);
#31= IFCDIMENSIONALEXPONENTS(0,0,0,0,0,0,0);
#32= IFCCONVERSIONBASEDUNIT(#31,.PLANEANGLEUNIT.,'DEGREE',#30);
#33= IFCSIUNIT(*,.SOLIDANGLEUNIT.,$,.STERADIAN.);
#34= IFCSIUNIT(*,.THERMODYNAMICTEMPERATUREUNIT.,$,.DEGREE_CELSIUS.);
#35= IFCSIUNIT(*,.LUMINOUSINTENSITYUNIT.,$,.LUMEN.);
#36= IFCUNITASSIGNMENT((#15,#19,#23,#27,#28,#29,#33,#34,#35));
#37= IFCPROJECT('2G7ZFDNE16yBDU14FA92Me',#5,'Proyecto',$,$,$,$,(#11),#36);
#38= IFCLOCALPLACEMENT($,#10);
#39= IFCSITE('2xvEzEinjBTea80yOTcujY',#5,'Obra',$,$,#38,$,$,.ELEMENT.,$,$,$,$,$);
#40= IFCLOCALPLACEMENT(#38,#10);
#41= IFCBUILDING('0hgdmXG19BnAMdsKsJLIdu',#5,'Undefined',$,$,#40,$,$,.ELEMENT.,$,$,$);
#42= IFCLOCALPLACEMENT(#40,#10);
#43= IFCBUILDINGSTOREY('29hdEUCErFze9E_VIAceOd',#5,'Undefined',$,$,#42,$,$,.ELEMENT.,0.);
#44= IFCOWNERHISTORY(#3,#4,$,.NOCHANGE.,$,$,$,1773849600);
#45= IFCCARTESIANPOINT((59645.0001831055,1603.38125423697,23375.));
#46= IFCAXIS2PLACEMENT3D(#45,#9,#7);
#47= IFCLOCALPLACEMENT(#42,#46);
#48= IFCDIRECTION((1.,0.));
#49= IFCCARTESIANPOINT((0.,0.));
#50= IFCAXIS2PLACEMENT2D(#49,#48);
#51= IFCISHAPEPROFILEDEF(.AREA.,'IPE450',#50,190.,450.,9.399999619,14.60000038,21.);
#52= IFCDIRECTION((0.,-1.,0.));
#53= IFCDIRECTION((-1.,0.,0.));
#54= IFCCARTESIANPOINT((8132.0986297029,0.,0.));
#55= IFCAXIS2PLACEMENT3D(#54,#53,#52);
#56= IFCEXTRUDEDAREASOLID(#51,#55,#9,8139.6);
#57= IFCCARTESIANPOINT((8132.0986297029,-0.0905314752601498,-325.));
#58= IFCAXIS2PLACEMENT3D(#57,#53,#8);
#59= IFCPLANE(#58);
#60= IFCHALFSPACESOLID(#59,.T.);
#61= IFCBOOLEANCLIPPINGRESULT(.DIFFERENCE.,#56,#60);
#62= IFCCARTESIANPOINT((-7.50045776367188,0.,-325.));
#63= IFCAXIS2PLACEMENT3D(#62,#7,#52);
#64= IFCPLANE(#63);
#65= IFCHALFSPACESOLID(#64,.T.);
#66= IFCBOOLEANCLIPPINGRESULT(.DIFFERENCE.,#61,#65);
#67= IFCSHAPEREPRESENTATION(#12,'Body','Clipping',(#66));
#68= IFCPRODUCTDEFINITIONSHAPE($,$,(#67));
#69= IFCBEAM('3iuTSYMoT0BOjt1fZPoFZM',#44,'BEAM','IPE450','IPE450',#47,#68,'IDece1d722-5b27-402d-8b77-0698d9c8f8d6');
#70= IFCLOCALPLACEMENT(#42,#46);
#71= IFCRECTANGLEPROFILEDEF(.AREA.,'PL108*12.1',#50,12.1,108.);
#72= IFCDIRECTION((0.,0.,-1.));
#73= IFCCARTESIANPOINT((8148.04924227878,-43.219791262183,226.));
#74= IFCAXIS2PLACEMENT3D(#73,#72,#53);
#75= IFCEXTRUDEDAREASOLID(#71,#74,#9,452.);
#76= IFCSHAPEREPRESENTATION(#12,'Body','SweptSolid',(#75));
#77= IFCPRODUCTDEFINITIONSHAPE($,$,(#76));
#78= IFCOPENINGELEMENT('0fO$1zfEP0dh_UW4RSWoxs',#5,$,$,'Recess',#70,#77,$);
#79= IFCRELVOIDSELEMENT('3hDdjoT1f8$BNQxGpqKdRq',#5,$,$,#69,#78);
#80= IFCPROPERTYSINGLEVALUE('FeatureSubTypes',$,$,$);
#81= IFCPROPERTYSINGLEVALUE('RectangleOpeningWidth',$,IFCPOSITIVELENGTHMEASURE(12.1),$);
#82= IFCPROPERTYSINGLEVALUE('RectangleOpeningHeight',$,IFCPOSITIVELENGTHMEASURE(108.),$);
#83= IFCPROPERTYSINGLEVALUE('OpeningDiameter',$,$,$);
#84= IFCPROPERTYSET('1X_m8jsML358XE9INoUq09',#5,'AISC_EM11_Pset_Opening/Cope',$,(#80,#81,#82,#83));
#85= IFCLOCALPLACEMENT(#42,#46);
#86= IFCRECTANGLEPROFILEDEF(.AREA.,'PL109.1*12.1',#50,12.1,109.1);
#87= IFCCARTESIANPOINT((8148.04924227878,41.3426345431749,226.));
#88= IFCAXIS2PLACEMENT3D(#87,#72,#53);
#89= IFCEXTRUDEDAREASOLID(#86,#88,#9,452.);
#90= IFCSHAPEREPRESENTATION(#12,'Body','SweptSolid',(#89));
#91= IFCPRODUCTDEFINITIONSHAPE($,$,(#90));
#92= IFCOPENINGELEMENT('2s5XGIU3XCqgOynBcJG5OW',#5,$,$,'Recess',#85,#91,$);
#93= IFCRELVOIDSELEMENT('0PPhcSCTH9DhlIigDyRrZC',#5,$,$,#69,#92);
#94= IFCPROPERTYSINGLEVALUE('RectangleOpeningHeight',$,IFCPOSITIVELENGTHMEASURE(109.1),$);
#95= IFCPROPERTYSET('1sFn91dHLE4BmfJ9Ex19jU',#5,'AISC_EM11_Pset_Opening/Cope',$,(#80,#81,#94,#83));
#96= IFCCARTESIANPOINT((59674.9997253418,1603.38125423697,23150.));
#97= IFCDIRECTION((0.000959355999824766,-0.999999539817927,0.));
#98= IFCDIRECTION((0.999999539817927,0.000959355999825416,0.));
#99= IFCAXIS2PLACEMENT3D(#96,#97,#98);
#100= IFCLOCALPLACEMENT(#42,#99);
#101= IFCCIRCLEPROFILEDEF(.AREA.,$,#50,12.5);
#102= IFCCARTESIANPOINT((0.,-0.0999999999999929,0.));
#103= IFCAXIS2PLACEMENT3D(#102,#8,#7);
#104= IFCEXTRUDEDAREASOLID(#101,#103,#9,14.8);
#105= IFCSHAPEREPRESENTATION(#12,'Body','SweptSolid',(#104));
#106= IFCREPRESENTATIONMAP(#10,#105);
#107= IFCCARTESIANPOINT((-2.25554686039686E-10,0.,50.0000000000036));
#108= IFCCARTESIANTRANSFORMATIONOPERATOR3D($,$,#107,$,$);
#109= IFCMAPPEDITEM(#106,#108);
#110= IFCCARTESIANPOINT((69.9999999997162,0.,50.0000000003856));
#111= IFCCARTESIANTRANSFORMATIONOPERATOR3D($,$,#110,$,$);
#112= IFCMAPPEDITEM(#106,#111);
#113= IFCCARTESIANPOINT((139.999999999658,0.,50.0000000007676));
#114= IFCCARTESIANTRANSFORMATIONOPERATOR3D($,$,#113,$,$);
#115= IFCMAPPEDITEM(#106,#114);
#116= IFCCARTESIANPOINT((209.9999999996,0.,50.0000000011496));
#117= IFCCARTESIANTRANSFORMATIONOPERATOR3D($,$,#116,$,$);
#118= IFCMAPPEDITEM(#106,#117);
#119= IFCCARTESIANPOINT((279.999999999542,0.,50.0000000015314));
#120= IFCCARTESIANTRANSFORMATIONOPERATOR3D($,$,#119,$,$);
#121= IFCMAPPEDITEM(#106,#120);
#122= IFCCARTESIANPOINT((349.999999999483,0.,50.0000000019133));
#123= IFCCARTESIANTRANSFORMATIONOPERATOR3D($,$,#122,$,$);
#124= IFCMAPPEDITEM(#106,#123);
#125= IFCCARTESIANPOINT((419.999999999425,0.,50.0000000022953));
#126= IFCCARTESIANTRANSFORMATIONOPERATOR3D($,$,#125,$,$);
#127= IFCMAPPEDITEM(#106,#126);
#128= IFCCARTESIANPOINT((2.25554686039686E-10,0.,-50.0000000000034));
#129= IFCCARTESIANTRANSFORMATIONOPERATOR3D($,$,#128,$,$);
#130= IFCMAPPEDITEM(#106,#129);
#131= IFCCARTESIANPOINT((70.0000000001673,0.,-49.9999999996217));
#132= IFCCARTESIANTRANSFORMATIONOPERATOR3D($,$,#131,$,$);
#133= IFCMAPPEDITEM(#106,#132);
#134= IFCCARTESIANPOINT((140.000000000109,0.,-49.9999999992397));
#135= IFCCARTESIANTRANSFORMATIONOPERATOR3D($,$,#134,$,$);
#136= IFCMAPPEDITEM(#106,#135);
#137= IFCCARTESIANPOINT((210.000000000051,0.,-49.9999999988577));
#138= IFCCARTESIANTRANSFORMATIONOPERATOR3D($,$,#137,$,$);
#139= IFCMAPPEDITEM(#106,#138);
#140= IFCCARTESIANPOINT((279.999999999993,0.,-49.9999999984757));
#141= IFCCARTESIANTRANSFORMATIONOPERATOR3D($,$,#140,$,$);
#142= IFCMAPPEDITEM(#106,#141);
#143= IFCCARTESIANPOINT((349.999999999935,0.,-49.9999999980937));
#144= IFCCARTESIANTRANSFORMATIONOPERATOR3D($,$,#143,$,$);
#145= IFCMAPPEDITEM(#106,#144);
#146= IFCCARTESIANPOINT((419.999999999876,0.,-49.9999999977117));
#147= IFCCARTESIANTRANSFORMATIONOPERATOR3D($,$,#146,$,$);
#148= IFCMAPPEDITEM(#106,#147);
#149= IFCSHAPEREPRESENTATION(#12,'Body','MappedRepresentation',(#109,#112,#115,#118,#121,#124,#127,#130,#133,#136,#139,#142,#145,#148));
#150= IFCPRODUCTDEFINITIONSHAPE($,$,(#149));
#151= IFCOPENINGELEMENT('0vMHeiQij4hQKVdxvUW_rK',#5,$,$,'Opening',#100,#150,$);
#152= IFCRELVOIDSELEMENT('38rtCxT3f3OBVE5745aiiy',#5,'Drill Hole',$,#69,#151);
#153= IFCPROPERTYSINGLEVALUE('FeatureSubTypes',$,IFCLABEL('TORNILLO'),$);
#154= IFCPROPERTYSINGLEVALUE('RectangleOpeningWidth',$,$,$);
#155= IFCPROPERTYSINGLEVALUE('RectangleOpeningHeight',$,$,$);
#156= IFCPROPERTYSET('0qhMYUHab4wej3THNzMPNZ',#5,'AISC_EM11_Pset_Opening/Cope',$,(#153,#154,#155,#83));
#157= IFCCARTESIANPOINT((59674.9997253418,1603.38125423697,23600.));
#158= IFCDIRECTION((-0.000959355999824765,0.999999539817927,0.));
#159= IFCAXIS2PLACEMENT3D(#157,#158,#98);
#160= IFCLOCALPLACEMENT(#42,#159);
#161= IFCSHAPEREPRESENTATION(#12,'Body','MappedRepresentation',(#130,#133,#136,#139,#142,#145,#148,#109,#112,#115,#118,#121,#124,#127));
#162= IFCPRODUCTDEFINITIONSHAPE($,$,(#161));
#163= IFCOPENINGELEMENT('2S1PReiVT2vw7aIfGK60ms',#5,$,$,'Opening',#160,#162,$);
#164= IFCRELVOIDSELEMENT('1o1uKJdaX1yukPDUaZiNVL',#5,'Drill Hole',$,#69,#163);
#165= IFCCARTESIANPOINT((59634.9997253418,1603.38125423697,23600.));
#166= IFCAXIS2PLACEMENT3D(#165,#7,#72);
#167= IFCLOCALPLACEMENT(#42,#166);
#168= IFCCIRCLEPROFILEDEF(.AREA.,$,#50,11.5);
#169= IFCCARTESIANPOINT((0.,-4.79999980950001,0.));
#170= IFCAXIS2PLACEMENT3D(#169,#8,#7);
#171= IFCEXTRUDEDAREASOLID(#168,#170,#9,9.6);
#172= IFCSHAPEREPRESENTATION(#12,'Body','SweptSolid',(#171));
#173= IFCREPRESENTATIONMAP(#10,#172);
#174= IFCCARTESIANPOINT((85.,0.,40.));
#175= IFCCARTESIANTRANSFORMATIONOPERATOR3D($,$,#174,$,$);
#176= IFCMAPPEDITEM(#173,#175);
#177= IFCCARTESIANPOINT((155.,0.,40.));
#178= IFCCARTESIANTRANSFORMATIONOPERATOR3D($,$,#177,$,$);
#179= IFCMAPPEDITEM(#173,#178);
#180= IFCCARTESIANPOINT((225.,0.,40.));
#181= IFCCARTESIANTRANSFORMATIONOPERATOR3D($,$,#180,$,$);
#182= IFCMAPPEDITEM(#173,#181);
#183= IFCCARTESIANPOINT((295.,0.,40.));
#184= IFCCARTESIANTRANSFORMATIONOPERATOR3D($,$,#183,$,$);
#185= IFCMAPPEDITEM(#173,#184);
#186= IFCCARTESIANPOINT((365.,0.,40.));
#187= IFCCARTESIANTRANSFORMATIONOPERATOR3D($,$,#186,$,$);
#188= IFCMAPPEDITEM(#173,#187);
#189= IFCSHAPEREPRESENTATION(#12,'Body','MappedRepresentation',(#176,#179,#182,#185,#188));
#190= IFCPRODUCTDEFINITIONSHAPE($,$,(#189));
#191= IFCOPENINGELEMENT('31RGpqm4LBUwDsrBAMFHbZ',#5,$,$,'Opening',#167,#190,$);
#192= IFCRELVOIDSELEMENT('1STIL$mK10vPIDUjdOHWFY',#5,'Drill Hole',$,#69,#191);
#193= IFCCARTESIANPOINT((67316.9020226211,1603.0829527602,23150.));
#194= IFCDIRECTION((0.000467666999829817,-0.999999890643783,0.));
#195= IFCDIRECTION((0.999999890643783,0.000467666999833569,0.));
#196= IFCAXIS2PLACEMENT3D(#193,#194,#195);
#197= IFCLOCALPLACEMENT(#42,#196);
#198= IFCEXTRUDEDAREASOLID(#168,#103,#9,14.8);
#199= IFCSHAPEREPRESENTATION(#12,'Body','SweptSolid',(#198));
#200= IFCREPRESENTATIONMAP(#10,#199);
#201= IFCMAPPEDITEM(#200,#129);
#202= IFCMAPPEDITEM(#200,#132);
#203= IFCMAPPEDITEM(#200,#135);
#204= IFCMAPPEDITEM(#200,#138);
#205= IFCMAPPEDITEM(#200,#141);
#206= IFCMAPPEDITEM(#200,#144);
#207= IFCMAPPEDITEM(#200,#147);
#208= IFCMAPPEDITEM(#200,#108);
#209= IFCMAPPEDITEM(#200,#111);
#210= IFCMAPPEDITEM(#200,#114);
#211= IFCMAPPEDITEM(#200,#117);
#212= IFCMAPPEDITEM(#200,#120);
#213= IFCMAPPEDITEM(#200,#123);
#214= IFCMAPPEDITEM(#200,#126);
#215= IFCSHAPEREPRESENTATION(#12,'Body','MappedRepresentation',(#201,#202,#203,#204,#205,#206,#207,#208,#209,#210,#211,#212,#213,#214));
#216= IFCPRODUCTDEFINITIONSHAPE($,$,(#215));
#217= IFCOPENINGELEMENT('1d74mqj7n4$9baVf26mDPW',#5,$,$,'Opening',#197,#216,$);
#218= IFCRELVOIDSELEMENT('2ECi8SfPT3iwBG5BlPeOM_',#5,'Drill Hole',$,#69,#217);
#219= IFCCARTESIANPOINT((67777.0988128084,1603.27733721037,23600.));
#220= IFCAXIS2PLACEMENT3D(#219,#53,#72);
#221= IFCLOCALPLACEMENT(#42,#220);
#222= IFCCARTESIANPOINT((0.,-4.90391683609763,0.));
#223= IFCAXIS2PLACEMENT3D(#222,#8,#7);
#224= IFCEXTRUDEDAREASOLID(#168,#223,#9,9.6);
#225= IFCSHAPEREPRESENTATION(#12,'Body','SweptSolid',(#224));
#226= IFCREPRESENTATIONMAP(#10,#225);
#227= IFCMAPPEDITEM(#226,#175);
#228= IFCMAPPEDITEM(#226,#178);
#229= IFCMAPPEDITEM(#226,#181);
#230= IFCMAPPEDITEM(#226,#184);
#231= IFCMAPPEDITEM(#226,#187);
#232= IFCSHAPEREPRESENTATION(#12,'Body','MappedRepresentation',(#227,#228,#229,#230,#231));
#233= IFCPRODUCTDEFINITIONSHAPE($,$,(#232));
#234= IFCOPENINGELEMENT('1K3SFkai5B29cYe_GP8e7i',#5,$,$,'Opening',#221,#233,$);
#235= IFCRELVOIDSELEMENT('3q5pNJuRb1ohMSSARA7aS8',#5,'Drill Hole',$,#69,#234);
#236= IFCCARTESIANPOINT((67316.9020226211,1603.0829527602,23600.));
#237= IFCDIRECTION((-0.000467666999829817,0.999999890643783,0.));
#238= IFCAXIS2PLACEMENT3D(#236,#237,#195);
#239= IFCLOCALPLACEMENT(#42,#238);
#240= IFCSHAPEREPRESENTATION(#12,'Body','MappedRepresentation',(#201,#202,#203,#204,#205,#206,#207,#208,#209,#210,#211,#212,#213,#214));
#241= IFCPRODUCTDEFINITIONSHAPE($,$,(#240));
#242= IFCOPENINGELEMENT('3$HeNsMETCjgw0Mcnh7aoW',#5,$,$,'Opening',#239,#241,$);
#243= IFCRELVOIDSELEMENT('1KFEJ8alj8ORG_ADh1gg9l',#5,'Drill Hole',$,#69,#242);
#244= IFCPROPERTYSINGLEVALUE('PieceMark',$,IFCIDENTIFIER('BEAM'),$);
#245= IFCPROPERTYSINGLEVALUE('IndicationMark',$,IFCIDENTIFIER('b/1036'),$);
#246= IFCPROPERTYSINGLEVALUE('PrelimMark',$,IFCIDENTIFIER(''),$);
#247= IFCPROPERTYSINGLEVALUE('MainPieceTag',$,IFCBOOLEAN(.F.),$);
#248= IFCPROPERTYSET('1rvRR9plnE1QfeWpjMVECw',#5,'AISC_EM11_Pset_PieceIdentification','PieceIdentity',(#244,#245,#246,#247));
#249= IFCPROPERTYSINGLEVALUE('MaterialType',$,IFCIDENTIFIER('STEEL'),$);
#250= IFCPROPERTYSINGLEVALUE('MaterialGrade',$,IFCIDENTIFIER('S235JR'),$);
#251= IFCPROPERTYSET('3K1tcgsND4KglzjyIFVroO',#5,'AISC_EM11_Pset_Material',$,(#249,#250));
#252= IFCPROPERTYSINGLEVALUE('SkewedAngleY',$,IFCREAL(0.),$);
#253= IFCPROPERTYSINGLEVALUE('SkewedAngleX',$,IFCREAL(0.),$);
#254= IFCPROPERTYSET('1hdMlojer5IBOxpElkwGZg',#5,'AISC_EM11_Pset_SkewedEnd',$,(#252,#253));
#255= IFCPROPERTYSET('2Bxdl9_b95mQnEuQ_ngrTh',#5,'AISC_EM11_Pset_SkewedEnd_2',$,(#252,#253));
#256= IFCMATERIAL('STEEL/S235JR');
#257= IFCRELAGGREGATES('08VIUGx7L2gAeoV1GTmdm6',#5,$,$,#37,(#39));
#258= IFCRELAGGREGATES('2QnamYDPdKySw4nJYl2v2O',#5,$,$,#39,(#41));
#259= IFCRELAGGREGATES('2mzIJC9Hv3uPrHuI85fnMF',#5,$,$,#41,(#43));
#260= IFCRELCONTAINEDINSPATIALSTRUCTURE('1z2Rg3eiL2Z9dpH_1FYpJR',#5,$,$,(#69),#43);
#261= IFCRELDEFINESBYPROPERTIES('3SnKZhBU19lBnFxNDgjELl',#5,$,$,(#78),#84);
#262= IFCRELDEFINESBYPROPERTIES('27RvSS3$r84RckG0j9rzwh',#5,$,$,(#92),#95);
#263= IFCRELDEFINESBYPROPERTIES('1HP66_qUvDlA9XN51vrbTk',#5,$,$,(#242,#234,#217,#191,#163,#151),#156);
#264= IFCRELDEFINESBYPROPERTIES('2ZX13FTyzA8B9WUkH1UlGW',#5,$,$,(#69),#248);
#265= IFCRELDEFINESBYPROPERTIES('3ZW2sbYMP6GQGZP7hEQFT$',#5,$,$,(#69),#251);
#266= IFCRELDEFINESBYPROPERTIES('0HYsSV_xb6fxxWUAqdlf9t',#5,$,$,(#69),#254);
#267= IFCRELDEFINESBYPROPERTIES('2dFhBovZz4AAGjPQTjjEpc',#5,$,$,(#69),#255);
#268= IFCRELASSOCIATESMATERIAL('0zQ75ctpf40hV19wV9IYkR',#5,$,$,(#69),#256);
ENDSEC;

END-ISO-10303-21;
