ISO-10303-21;
HEADER;
FILE_DESCRIPTION(('ViewDefinition[AISC_Steel_Detailing]', 'Option [BaseQuantities:Off]', 'Option [GridExport:On]', 'Option [Assemblies:Off]', 'Option [Bolts:On]', 'Option [Rebars:On]', 'Option [PourObjects:Off]', 'Option [Welds:On]', 'Option [SurfaceTreatments:On]', 'Option [LocationBy:0]', 'Option [ViewColors:Off]', 'Option [SectionedSpine:Off]', 'Option [PropertySets:On]', 'Option [Export all:Off]'),'2;1');
FILE_NAME('b_1049_Qty_1.ifc','2026-05-16T11:53:20',('GIOVANNIPC\\gcorrea'),('Structural Designer'),'IFC Database version: Work','Tekla Structures 2020 Service Pack 5, IFC Export Version: 4.0.0.0 Dec  7 2020','');
FILE_SCHEMA(('IFC2X3'));
ENDSEC;

DATA;
#1= IFCPERSON('GIOVANNIPC\\gcorrea','Undefined',$,$,$,$,$,$);
#2= IFCORGANIZATION($,'Trimble Solutions Corporation',$,$,$);
#3= IFCPERSONANDORGANIZATION(#1,#2,$);
#4= IFCAPPLICATION(#2,'2020 Service Pack 5','Tekla Structures','Multi material modeling');
#5= IFCOWNERHISTORY(#3,#4,$,.NOCHANGE.,$,$,$,1778950400);
#6= IFCCARTESIANPOINT((0.,0.,0.));
#7= IFCDIRECTION((1.,0.,0.));
#8= IFCDIRECTION((0.,1.,0.));
#9= IFCDIRECTION((0.,0.,1.));
#10= IFCAXIS2PLACEMENT3D(#6,#9,#7);
#11= IFCGEOMETRICREPRESENTATIONCONTEXT($,'Model',3,1.E-05,#10,$);
#12= IFCGEOMETRICREPRESENTATIONSUBCONTEXT('Body','Model',*,*,*,*,#11,$,.MODEL_VIEW.,$);
#13= IFCGEOMETRICREPRESENTATIONSUBCONTEXT('Axis','Model',*,*,*,*,#11,$,.GRAPH_VIEW.,$);
#14= IFCGEOMETRICREPRESENTATIONSUBCONTEXT('FootPrint','Model',*,*,*,*,#11,$,.MODEL_VIEW.,$);
#15= IFCSIUNIT(*,.LENGTHUNIT.,.MILLI.,.METRE.);
#16= IFCMEASUREWITHUNIT(IFCRATIOMEASURE(304.8),#15);
#17= IFCDIMENSIONALEXPONENTS(1,0,0,0,0,0,0);
#18= IFCCONVERSIONBASEDUNIT(#17,.LENGTHUNIT.,'FOOT',#16);
#19= IFCSIUNIT(*,.AREAUNIT.,$,.SQUARE_METRE.);
#20= IFCMEASUREWITHUNIT(IFCRATIOMEASURE(0.09290304),#19);
#21= IFCDIMENSIONALEXPONENTS(2,0,0,0,0,0,0);
#22= IFCCONVERSIONBASEDUNIT(#21,.AREAUNIT.,'SQUARE FOOT',#20);
#23= IFCSIUNIT(*,.VOLUMEUNIT.,$,.CUBIC_METRE.);
#24= IFCMEASUREWITHUNIT(IFCRATIOMEASURE(0.028316846592),#23);
#25= IFCDIMENSIONALEXPONENTS(3,0,0,0,0,0,0);
#26= IFCCONVERSIONBASEDUNIT(#25,.VOLUMEUNIT.,'CUBIC FOOT',#24);
#27= IFCSIUNIT(*,.MASSUNIT.,.KILO.,.GRAM.);
#28= IFCSIUNIT(*,.TIMEUNIT.,$,.SECOND.);
#29= IFCSIUNIT(*,.PLANEANGLEUNIT.,$,.RADIAN.);
#30= IFCMEASUREWITHUNIT(IFCRATIOMEASURE(0.0174532925199433),#29);
#31= IFCDIMENSIONALEXPONENTS(0,0,0,0,0,0,0);
#32= IFCCONVERSIONBASEDUNIT(#31,.PLANEANGLEUNIT.,'DEGREE',#30);
#33= IFCSIUNIT(*,.SOLIDANGLEUNIT.,$,.STERADIAN.);
#34= IFCSIUNIT(*,.THERMODYNAMICTEMPERATUREUNIT.,$,.DEGREE_CELSIUS.);
#35= IFCSIUNIT(*,.LUMINOUSINTENSITYUNIT.,$,.LUMEN.);
#36= IFCUNITASSIGNMENT((#15,#19,#23,#27,#28,#29,#33,#34,#35));
#37= IFCPROJECT('2G7ZFDNE16yBDU14FA92Me',#5,'Proyecto',$,$,$,$,(#11),#36);
#38= IFCLOCALPLACEMENT($,#10);
#39= IFCSITE('2xvEzEinjBTea80yOTcujY',#5,'Obra',$,$,#38,$,$,.ELEMENT.,$,$,$,$,$);
#40= IFCLOCALPLACEMENT(#38,#10);
#41= IFCBUILDING('3caWggqgfCYwxDJZKaBjLM',#5,'Undefined',$,$,#40,$,$,.ELEMENT.,$,$,$);
#42= IFCLOCALPLACEMENT(#40,#10);
#43= IFCBUILDINGSTOREY('29hdEUCErFze9E_VIAceOd',#5,'Undefined',$,$,#42,$,$,.ELEMENT.,0.);
#44= IFCOWNERHISTORY(#3,#4,$,.NOCHANGE.,$,$,$,1774026000);
#45= IFCCARTESIANPOINT((51223.2015351181,1603.38122277425,19130.));
#46= IFCAXIS2PLACEMENT3D(#45,#9,#7);
#47= IFCLOCALPLACEMENT(#42,#46);
#48= IFCDIRECTION((1.,0.));
#49= IFCCARTESIANPOINT((0.,0.));
#50= IFCAXIS2PLACEMENT2D(#49,#48);
#51= IFCISHAPEPROFILEDEF(.AREA.,'HEA450',#50,300.,440.,11.5,21.,27.);
#52= IFCDIRECTION((0.,-1.,0.));
#53= IFCDIRECTION((-1.,0.,0.));
#54= IFCCARTESIANPOINT((8139.29819022367,0.,0.));
#55= IFCAXIS2PLACEMENT3D(#54,#53,#52);
#56= IFCEXTRUDEDAREASOLID(#51,#55,#9,8139.6);
#57= IFCCARTESIANPOINT((8139.29819022367,0.,-320.));
#58= IFCAXIS2PLACEMENT3D(#57,#53,#8);
#59= IFCPLANE(#58);
#60= IFCHALFSPACESOLID(#59,.T.);
#61= IFCBOOLEANCLIPPINGRESULT(.DIFFERENCE.,#56,#60);
#62= IFCCARTESIANPOINT((-0.300347926495306,0.090217917215341,-325.));
#63= IFCAXIS2PLACEMENT3D(#62,#7,#52);
#64= IFCPLANE(#63);
#65= IFCHALFSPACESOLID(#64,.T.);
#66= IFCBOOLEANCLIPPINGRESULT(.DIFFERENCE.,#61,#65);
#67= IFCSHAPEREPRESENTATION(#12,'Body','Clipping',(#66));
#68= IFCPRODUCTDEFINITIONSHAPE($,$,(#67));
#69= IFCBEAM('3xJNGEpZnBpRAHwo8QJoTi',#44,'BEAM','HEA450','HEA450',#47,#68,'IDfb4d740e-ce3c-4bcd-b291-eb221a4f276c');
#70= IFCLOCALPLACEMENT(#42,#46);
#71= IFCRECTANGLEPROFILEDEF(.AREA.,'PL162.8*12',#50,12.,162.8);
#72= IFCDIRECTION((0.,0.,-1.));
#73= IFCCARTESIANPOINT((-16.2103000659336,69.6021625750873,221.));
#74= IFCAXIS2PLACEMENT3D(#73,#72,#7);
#75= IFCEXTRUDEDAREASOLID(#71,#74,#9,442.);
#76= IFCSHAPEREPRESENTATION(#12,'Body','SweptSolid',(#75));
#77= IFCPRODUCTDEFINITIONSHAPE($,$,(#76));
#78= IFCOPENINGELEMENT('3QOn6zaZT8TAa1yxOFonZE',#5,$,$,'Recess',#70,#77,$);
#79= IFCRELVOIDSELEMENT('1leBmtw4H5cBnD8PnUZZV5',#5,$,$,#69,#78);
#80= IFCPROPERTYSINGLEVALUE('FeatureSubTypes',$,$,$);
#81= IFCPROPERTYSINGLEVALUE('RectangleOpeningWidth',$,IFCPOSITIVELENGTHMEASURE(12.),$);
#82= IFCPROPERTYSINGLEVALUE('RectangleOpeningHeight',$,IFCPOSITIVELENGTHMEASURE(162.8),$);
#83= IFCPROPERTYSINGLEVALUE('OpeningDiameter',$,$,$);
#84= IFCPROPERTYSET('1VFkKt4d58YuQh7aH7rtJP',#5,'AISC_EM11_Pset_Opening/Cope',$,(#80,#81,#82,#83));
#85= IFCLOCALPLACEMENT(#42,#46);
#86= IFCRECTANGLEPROFILEDEF(.AREA.,'PL163.2*12',#50,12.,163.2);
#87= IFCCARTESIANPOINT((-16.2103000659336,-69.3998364909621,221.));
#88= IFCAXIS2PLACEMENT3D(#87,#72,#7);
#89= IFCEXTRUDEDAREASOLID(#86,#88,#9,442.);
#90= IFCSHAPEREPRESENTATION(#12,'Body','SweptSolid',(#89));
#91= IFCPRODUCTDEFINITIONSHAPE($,$,(#90));
#92= IFCOPENINGELEMENT('0ke4_RLXrAXR66VPh8zmfx',#5,$,$,'Recess',#85,#91,$);
#93= IFCRELVOIDSELEMENT('0RB3bY17D99xerNeCl5aCO',#5,$,$,#69,#92);
#94= IFCPROPERTYSINGLEVALUE('RectangleOpeningHeight',$,IFCPOSITIVELENGTHMEASURE(163.2),$);
#95= IFCPROPERTYSET('0Omo4ZaGn3m92kUFh3RnOQ',#5,'AISC_EM11_Pset_Opening/Cope',$,(#80,#81,#94,#83));
#96= IFCLOCALPLACEMENT(#42,#46);
#97= IFCRECTANGLEPROFILEDEF(.AREA.,'PL108*12.1',#50,12.1,108.);
#98= IFCCARTESIANPOINT((-16.2509605023733,43.2194777041386,226.));
#99= IFCAXIS2PLACEMENT3D(#98,#72,#7);
#100= IFCEXTRUDEDAREASOLID(#97,#99,#9,452.);
#101= IFCSHAPEREPRESENTATION(#12,'Body','SweptSolid',(#100));
#102= IFCPRODUCTDEFINITIONSHAPE($,$,(#101));
#103= IFCOPENINGELEMENT('2e3iFIMwr2u9YXnbAaqTvV',#5,$,$,'Recess',#96,#102,$);
#104= IFCRELVOIDSELEMENT('1vCE9hgvb0cui6p$zjl$qK',#5,$,$,#69,#103);
#105= IFCPROPERTYSINGLEVALUE('RectangleOpeningWidth',$,IFCPOSITIVELENGTHMEASURE(12.1),$);
#106= IFCPROPERTYSINGLEVALUE('RectangleOpeningHeight',$,IFCPOSITIVELENGTHMEASURE(108.),$);
#107= IFCPROPERTYSET('0AP6c6A29Ay96g7vnDvkxH',#5,'AISC_EM11_Pset_Opening/Cope',$,(#80,#105,#106,#83));
#108= IFCLOCALPLACEMENT(#42,#46);
#109= IFCRECTANGLEPROFILEDEF(.AREA.,'PL109.1*12.1',#50,12.1,109.1);
#110= IFCCARTESIANPOINT((-16.2509605023733,-41.342948101219,226.));
#111= IFCAXIS2PLACEMENT3D(#110,#72,#7);
#112= IFCEXTRUDEDAREASOLID(#109,#111,#9,452.);
#113= IFCSHAPEREPRESENTATION(#12,'Body','SweptSolid',(#112));
#114= IFCPRODUCTDEFINITIONSHAPE($,$,(#113));
#115= IFCOPENINGELEMENT('3I0eBl6$1ELwJzAKc2$X_p',#5,$,$,'Recess',#108,#114,$);
#116= IFCRELVOIDSELEMENT('1_XwzwN8X6TvV9m2SiL07P',#5,$,$,#69,#115);
#117= IFCPROPERTYSINGLEVALUE('RectangleOpeningHeight',$,IFCPOSITIVELENGTHMEASURE(109.1),$);
#118= IFCPROPERTYSET('1H1J9Boxj1QRGiwxjMmRlH',#5,'AISC_EM11_Pset_Opening/Cope',$,(#80,#105,#117,#83));
#119= IFCCARTESIANPOINT((59362.4997253418,1603.38122277425,19350.));
#120= IFCAXIS2PLACEMENT3D(#119,#53,#72);
#121= IFCLOCALPLACEMENT(#42,#120);
#122= IFCCIRCLEPROFILEDEF(.AREA.,$,#50,11.);
#123= IFCCARTESIANPOINT((0.,-5.85000000000001,0.));
#124= IFCAXIS2PLACEMENT3D(#123,#8,#7);
#125= IFCEXTRUDEDAREASOLID(#122,#124,#9,11.7);
#126= IFCSHAPEREPRESENTATION(#12,'Body','SweptSolid',(#125));
#127= IFCREPRESENTATIONMAP(#10,#126);
#128= IFCCARTESIANPOINT((80.,0.,40.));
#129= IFCCARTESIANTRANSFORMATIONOPERATOR3D($,$,#128,$,$);
#130= IFCMAPPEDITEM(#127,#129);
#131= IFCCARTESIANPOINT((150.,0.,40.));
#132= IFCCARTESIANTRANSFORMATIONOPERATOR3D($,$,#131,$,$);
#133= IFCMAPPEDITEM(#127,#132);
#134= IFCCARTESIANPOINT((220.,0.,40.));
#135= IFCCARTESIANTRANSFORMATIONOPERATOR3D($,$,#134,$,$);
#136= IFCMAPPEDITEM(#127,#135);
#137= IFCCARTESIANPOINT((290.,0.,40.));
#138= IFCCARTESIANTRANSFORMATIONOPERATOR3D($,$,#137,$,$);
#139= IFCMAPPEDITEM(#127,#138);
#140= IFCCARTESIANPOINT((360.,0.,40.));
#141= IFCCARTESIANTRANSFORMATIONOPERATOR3D($,$,#140,$,$);
#142= IFCMAPPEDITEM(#127,#141);
#143= IFCSHAPEREPRESENTATION(#12,'Body','MappedRepresentation',(#130,#133,#136,#139,#142));
#144= IFCPRODUCTDEFINITIONSHAPE($,$,(#143));
#145= IFCOPENINGELEMENT('3nqzdNySPCZwLUDiIsv7Ew',#5,$,$,'Opening',#121,#144,$);
#146= IFCRELVOIDSELEMENT('2Hu0FGum96y8PYpBJVvUTR',#5,'Drill Hole',$,#69,#145);
#147= IFCPROPERTYSINGLEVALUE('FeatureSubTypes',$,IFCLABEL('TORNILLO'),$);
#148= IFCPROPERTYSINGLEVALUE('RectangleOpeningWidth',$,$,$);
#149= IFCPROPERTYSINGLEVALUE('RectangleOpeningHeight',$,$,$);
#150= IFCPROPERTYSET('3EEGqENBv3cuqylZp5UvsT',#5,'AISC_EM11_Pset_Opening/Cope',$,(#147,#148,#149,#83));
#151= IFCCARTESIANPOINT((59324.9997253418,1603.38122277425,18910.));
#152= IFCAXIS2PLACEMENT3D(#151,#8,#53);
#153= IFCLOCALPLACEMENT(#42,#152);
#154= IFCCIRCLEPROFILEDEF(.AREA.,$,#50,12.5);
#155= IFCCARTESIANPOINT((0.,-0.1,0.));
#156= IFCAXIS2PLACEMENT3D(#155,#8,#7);
#157= IFCEXTRUDEDAREASOLID(#154,#156,#9,21.2);
#158= IFCSHAPEREPRESENTATION(#12,'Body','SweptSolid',(#157));
#159= IFCREPRESENTATIONMAP(#10,#158);
#160= IFCCARTESIANPOINT((0.,0.,-75.));
#161= IFCCARTESIANTRANSFORMATIONOPERATOR3D($,$,#160,$,$);
#162= IFCMAPPEDITEM(#159,#161);
#163= IFCCARTESIANPOINT((75.,0.,-75.));
#164= IFCCARTESIANTRANSFORMATIONOPERATOR3D($,$,#163,$,$);
#165= IFCMAPPEDITEM(#159,#164);
#166= IFCCARTESIANPOINT((150.,0.,-75.));
#167= IFCCARTESIANTRANSFORMATIONOPERATOR3D($,$,#166,$,$);
#168= IFCMAPPEDITEM(#159,#167);
#169= IFCCARTESIANPOINT((225.,0.,-75.));
#170= IFCCARTESIANTRANSFORMATIONOPERATOR3D($,$,#169,$,$);
#171= IFCMAPPEDITEM(#159,#170);
#172= IFCCARTESIANPOINT((300.,0.,-75.));
#173= IFCCARTESIANTRANSFORMATIONOPERATOR3D($,$,#172,$,$);
#174= IFCMAPPEDITEM(#159,#173);
#175= IFCCARTESIANPOINT((375.,0.,-75.));
#176= IFCCARTESIANTRANSFORMATIONOPERATOR3D($,$,#175,$,$);
#177= IFCMAPPEDITEM(#159,#176);
#178= IFCCARTESIANPOINT((450.,0.,-75.));
#179= IFCCARTESIANTRANSFORMATIONOPERATOR3D($,$,#178,$,$);
#180= IFCMAPPEDITEM(#159,#179);
#181= IFCCARTESIANPOINT((525.,0.,-75.));
#182= IFCCARTESIANTRANSFORMATIONOPERATOR3D($,$,#181,$,$);
#183= IFCMAPPEDITEM(#159,#182);
#184= IFCCARTESIANPOINT((600.,0.,-75.));
#185= IFCCARTESIANTRANSFORMATIONOPERATOR3D($,$,#184,$,$);
#186= IFCMAPPEDITEM(#159,#185);
#187= IFCCARTESIANPOINT((675.,0.,-75.));
#188= IFCCARTESIANTRANSFORMATIONOPERATOR3D($,$,#187,$,$);
#189= IFCMAPPEDITEM(#159,#188);
#190= IFCCARTESIANPOINT((0.,0.,75.));
#191= IFCCARTESIANTRANSFORMATIONOPERATOR3D($,$,#190,$,$);
#192= IFCMAPPEDITEM(#159,#191);
#193= IFCCARTESIANPOINT((75.,0.,75.));
#194= IFCCARTESIANTRANSFORMATIONOPERATOR3D($,$,#193,$,$);
#195= IFCMAPPEDITEM(#159,#194);
#196= IFCCARTESIANPOINT((150.,0.,75.));
#197= IFCCARTESIANTRANSFORMATIONOPERATOR3D($,$,#196,$,$);
#198= IFCMAPPEDITEM(#159,#197);
#199= IFCCARTESIANPOINT((225.,0.,75.));
#200= IFCCARTESIANTRANSFORMATIONOPERATOR3D($,$,#199,$,$);
#201= IFCMAPPEDITEM(#159,#200);
#202= IFCCARTESIANPOINT((300.,0.,75.));
#203= IFCCARTESIANTRANSFORMATIONOPERATOR3D($,$,#202,$,$);
#204= IFCMAPPEDITEM(#159,#203);
#205= IFCCARTESIANPOINT((375.,0.,75.));
#206= IFCCARTESIANTRANSFORMATIONOPERATOR3D($,$,#205,$,$);
#207= IFCMAPPEDITEM(#159,#206);
#208= IFCCARTESIANPOINT((450.,0.,75.));
#209= IFCCARTESIANTRANSFORMATIONOPERATOR3D($,$,#208,$,$);
#210= IFCMAPPEDITEM(#159,#209);
#211= IFCCARTESIANPOINT((525.,0.,75.));
#212= IFCCARTESIANTRANSFORMATIONOPERATOR3D($,$,#211,$,$);
#213= IFCMAPPEDITEM(#159,#212);
#214= IFCCARTESIANPOINT((600.,0.,75.));
#215= IFCCARTESIANTRANSFORMATIONOPERATOR3D($,$,#214,$,$);
#216= IFCMAPPEDITEM(#159,#215);
#217= IFCCARTESIANPOINT((675.,0.,75.));
#218= IFCCARTESIANTRANSFORMATIONOPERATOR3D($,$,#217,$,$);
#219= IFCMAPPEDITEM(#159,#218);
#220= IFCSHAPEREPRESENTATION(#12,'Body','MappedRepresentation',(#162,#165,#168,#171,#174,#177,#180,#183,#186,#189,#192,#195,#198,#201,#204,#207,#210,#213,#216,#219));
#221= IFCPRODUCTDEFINITIONSHAPE($,$,(#220));
#222= IFCOPENINGELEMENT('0S$7PzL7r5yP2HLRO2YeU_',#5,$,$,'Opening',#153,#221,$);
#223= IFCRELVOIDSELEMENT('0We$fEltb33RAwsTO$xRwo',#5,'Drill Hole',$,#69,#222);
#224= IFCCARTESIANPOINT((59324.9997253418,1603.38122277425,19350.));
#225= IFCAXIS2PLACEMENT3D(#224,#52,#53);
#226= IFCLOCALPLACEMENT(#42,#225);
#227= IFCSHAPEREPRESENTATION(#12,'Body','MappedRepresentation',(#162,#165,#168,#171,#174,#177,#180,#183,#186,#189,#192,#195,#198,#201,#204,#207,#210,#213,#216,#219));
#228= IFCPRODUCTDEFINITIONSHAPE($,$,(#227));
#229= IFCOPENINGELEMENT('3_KM8XJBDAhRBR7DflZFXc',#5,$,$,'Opening',#226,#228,$);
#230= IFCRELVOIDSELEMENT('2oaZZFsvvCWxnP$6LiomHA',#5,'Drill Hole',$,#69,#229);
#231= IFCCARTESIANPOINT((51267.9824510498,1603.955003328,18910.));
#232= IFCAXIS2PLACEMENT3D(#231,#52,#7);
#233= IFCLOCALPLACEMENT(#42,#232);
#234= IFCCIRCLEPROFILEDEF(.AREA.,$,#50,11.5);
#235= IFCEXTRUDEDAREASOLID(#234,#156,#9,21.2);
#236= IFCSHAPEREPRESENTATION(#12,'Body','SweptSolid',(#235));
#237= IFCREPRESENTATIONMAP(#10,#236);
#238= IFCMAPPEDITEM(#237,#191);
#239= IFCMAPPEDITEM(#237,#194);
#240= IFCMAPPEDITEM(#237,#197);
#241= IFCMAPPEDITEM(#237,#200);
#242= IFCMAPPEDITEM(#237,#203);
#243= IFCMAPPEDITEM(#237,#206);
#244= IFCMAPPEDITEM(#237,#209);
#245= IFCMAPPEDITEM(#237,#212);
#246= IFCMAPPEDITEM(#237,#215);
#247= IFCMAPPEDITEM(#237,#218);
#248= IFCMAPPEDITEM(#237,#161);
#249= IFCMAPPEDITEM(#237,#164);
#250= IFCMAPPEDITEM(#237,#167);
#251= IFCMAPPEDITEM(#237,#170);
#252= IFCMAPPEDITEM(#237,#173);
#253= IFCMAPPEDITEM(#237,#176);
#254= IFCMAPPEDITEM(#237,#179);
#255= IFCMAPPEDITEM(#237,#182);
#256= IFCMAPPEDITEM(#237,#185);
#257= IFCMAPPEDITEM(#237,#188);
#258= IFCSHAPEREPRESENTATION(#12,'Body','MappedRepresentation',(#238,#239,#240,#241,#242,#243,#244,#245,#246,#247,#248,#249,#250,#251,#252,#253,#254,#255,#256,#257));
#259= IFCPRODUCTDEFINITIONSHAPE($,$,(#258));
#260= IFCOPENINGELEMENT('3hTJDYSSH1_QBxQvZMU_2d',#5,$,$,'Opening',#233,#259,$);
#261= IFCRELVOIDSELEMENT('3CW8Gb2GP7AAEtORibZH_c',#5,'Drill Hole',$,#69,#260);
#262= IFCCARTESIANPOINT((51267.9824510498,1603.955003328,19350.));
#263= IFCAXIS2PLACEMENT3D(#262,#8,#7);
#264= IFCLOCALPLACEMENT(#42,#263);
#265= IFCSHAPEREPRESENTATION(#12,'Body','MappedRepresentation',(#248,#249,#250,#251,#252,#253,#254,#255,#256,#257,#238,#239,#240,#241,#242,#243,#244,#245,#246,#247));
#266= IFCPRODUCTDEFINITIONSHAPE($,$,(#265));
#267= IFCOPENINGELEMENT('2$Ps3Oy$zC2wrvobCds8Ju',#5,$,$,'Opening',#264,#266,$);
#268= IFCRELVOIDSELEMENT('3z59jkS_zBGeWnhFHMcs_Q',#5,'Drill Hole',$,#69,#267);
#269= IFCCARTESIANPOINT((51222.9824701044,1603.38123772149,19350.));
#270= IFCAXIS2PLACEMENT3D(#269,#7,#72);
#271= IFCLOCALPLACEMENT(#42,#270);
#272= IFCEXTRUDEDAREASOLID(#154,#124,#9,11.7);
#273= IFCSHAPEREPRESENTATION(#12,'Body','SweptSolid',(#272));
#274= IFCREPRESENTATIONMAP(#10,#273);
#275= IFCCARTESIANPOINT((107.5,0.,45.));
#276= IFCCARTESIANTRANSFORMATIONOPERATOR3D($,$,#275,$,$);
#277= IFCMAPPEDITEM(#274,#276);
#278= IFCCARTESIANPOINT((182.5,0.,45.));
#279= IFCCARTESIANTRANSFORMATIONOPERATOR3D($,$,#278,$,$);
#280= IFCMAPPEDITEM(#274,#279);
#281= IFCCARTESIANPOINT((257.5,0.,45.));
#282= IFCCARTESIANTRANSFORMATIONOPERATOR3D($,$,#281,$,$);
#283= IFCMAPPEDITEM(#274,#282);
#284= IFCCARTESIANPOINT((332.5,0.,45.));
#285= IFCCARTESIANTRANSFORMATIONOPERATOR3D($,$,#284,$,$);
#286= IFCMAPPEDITEM(#274,#285);
#287= IFCSHAPEREPRESENTATION(#12,'Body','MappedRepresentation',(#277,#280,#283,#286));
#288= IFCPRODUCTDEFINITIONSHAPE($,$,(#287));
#289= IFCOPENINGELEMENT('2sQDJ24$1BJPXd6STfdyTl',#5,$,$,'Opening',#271,#288,$);
#290= IFCRELVOIDSELEMENT('2KvW_mqi9AT9WbwSdYOjS1',#5,'Drill Hole',$,#69,#289);
#291= IFCPROPERTYSINGLEVALUE('PieceMark',$,IFCIDENTIFIER('BEAM'),$);
#292= IFCPROPERTYSINGLEVALUE('IndicationMark',$,IFCIDENTIFIER('b/1049'),$);
#293= IFCPROPERTYSINGLEVALUE('PrelimMark',$,IFCIDENTIFIER(''),$);
#294= IFCPROPERTYSINGLEVALUE('MainPieceTag',$,IFCBOOLEAN(.F.),$);
#295= IFCPROPERTYSET('1jN_jKzzL3sRR0vZLipa2U',#5,'AISC_EM11_Pset_PieceIdentification','PieceIdentity',(#291,#292,#293,#294));
#296= IFCPROPERTYSINGLEVALUE('MaterialType',$,IFCIDENTIFIER('STEEL'),$);
#297= IFCPROPERTYSINGLEVALUE('MaterialGrade',$,IFCIDENTIFIER('S235JR'),$);
#298= IFCPROPERTYSET('3gOcOarVv1FQ66J0dYRlih',#5,'AISC_EM11_Pset_Material',$,(#296,#297));
#299= IFCPROPERTYSINGLEVALUE('SkewedAngleY',$,IFCREAL(0.),$);
#300= IFCPROPERTYSINGLEVALUE('SkewedAngleX',$,IFCREAL(0.),$);
#301= IFCPROPERTYSET('1nmvzpke5BOQs9SaiL3uIA',#5,'AISC_EM11_Pset_SkewedEnd',$,(#299,#300));
#302= IFCPROPERTYSET('0lPPGBLYXBxOGzmkC9d5Td',#5,'AISC_EM11_Pset_SkewedEnd_2',$,(#299,#300));
#303= IFCMATERIAL('STEEL/S235JR');
#304= IFCRELAGGREGATES('1ZaAMQFo920vsOGXiZEzxT',#5,$,$,#37,(#39));
#305= IFCRELAGGREGATES('2rsSeiX4RKIB8gYp_rWFDl',#5,$,$,#39,(#41));
#306= IFCRELAGGREGATES('1v5Vt5pZ1FMO0olw2nnpSm',#5,$,$,#41,(#43));
#307= IFCRELCONTAINEDINSPATIALSTRUCTURE('1YDYzRb0fA6fSYrA6L3TUw',#5,$,$,(#69),#43);
#308= IFCRELDEFINESBYPROPERTIES('1VJDurFW19dvC5oGwJj_b_',#5,$,$,(#78),#84);
#309= IFCRELDEFINESBYPROPERTIES('3bBfTHbyPElO0L6ILJnxTx',#5,$,$,(#92),#95);
#310= IFCRELDEFINESBYPROPERTIES('1RzxZX9OP1ORktPrzX8_mU',#5,$,$,(#103),#107);
#311= IFCRELDEFINESBYPROPERTIES('2az5mLCtD1HuVHibMEyQOu',#5,$,$,(#115),#118);
#312= IFCRELDEFINESBYPROPERTIES('1nAEKiDznFlO0j3IRg94RB',#5,$,$,(#289,#267,#260,#229,#222,#145),#150);
#313= IFCRELDEFINESBYPROPERTIES('0mO_2F2w97UwIKyKW0ItVM',#5,$,$,(#69),#295);
#314= IFCRELDEFINESBYPROPERTIES('0L2zBt_s99XOwGAXwIAzaJ',#5,$,$,(#69),#298);
#315= IFCRELDEFINESBYPROPERTIES('3j_7i4NMr3UBULVAV1Cnzp',#5,$,$,(#69),#301);
#316= IFCRELDEFINESBYPROPERTIES('2FiGZP8QLFBOt3mCouhrpk',#5,$,$,(#69),#302);
#317= IFCRELASSOCIATESMATERIAL('02HI30hZn3ufqTRr1dOCp2',#5,$,$,(#69),#303);
ENDSEC;

END-ISO-10303-21;
