ISO-10303-21;
HEADER;
FILE_DESCRIPTION(('ViewDefinition[AISC_Steel_Detailing]', 'Option [BaseQuantities:Off]', 'Option [GridExport:On]', 'Option [Assemblies:Off]', 'Option [Bolts:On]', 'Option [Rebars:On]', 'Option [PourObjects:Off]', 'Option [Welds:On]', 'Option [SurfaceTreatments:On]', 'Option [LocationBy:0]', 'Option [ViewColors:Off]', 'Option [SectionedSpine:Off]', 'Option [PropertySets:On]', 'Option [Export all:Off]'),'2;1');
FILE_NAME('b_108_Qty_2.ifc','2026-05-16T11:53:19',('GIOVANNIPC\\gcorrea'),('Structural Designer'),'IFC Database version: Work','Tekla Structures 2020 Service Pack 5, IFC Export Version: 4.0.0.0 Dec  7 2020','');
FILE_SCHEMA(('IFC2X3'));
ENDSEC;

DATA;
#1= IFCPERSON('GIOVANNIPC\\gcorrea','Undefined',$,$,$,$,$,$);
#2= IFCORGANIZATION($,'Trimble Solutions Corporation',$,$,$);
#3= IFCPERSONANDORGANIZATION(#1,#2,$);
#4= IFCAPPLICATION(#2,'2020 Service Pack 5','Tekla Structures','Multi material modeling');
#5= IFCOWNERHISTORY(#3,#4,$,.NOCHANGE.,$,$,$,1778950399);
#6= IFCCARTESIANPOINT((0.,0.,0.));
#7= IFCDIRECTION((1.,0.,0.));
#8= IFCDIRECTION((0.,1.,0.));
#9= IFCDIRECTION((0.,0.,1.));
#10= IFCAXIS2PLACEMENT3D(#6,#9,#7);
#11= IFCGEOMETRICREPRESENTATIONCONTEXT($,'Model',3,1.E-05,#10,$);
#12= IFCGEOMETRICREPRESENTATIONSUBCONTEXT('Body','Model',*,*,*,*,#11,$,.MODEL_VIEW.,$);
#13= IFCGEOMETRICREPRESENTATIONSUBCONTEXT('Axis','Model',*,*,*,*,#11,$,.GRAPH_VIEW.,$);
#14= IFCGEOMETRICREPRESENTATIONSUBCONTEXT('FootPrint','Model',*,*,*,*,#11,$,.MODEL_VIEW.,$);
#15= IFCSIUNIT(*,.LENGTHUNIT.,.MILLI.,.METRE.);
#16= IFCMEASUREWITHUNIT(IFCRATIOMEASURE(304.8),#15);
#17= IFCDIMENSIONALEXPONENTS(1,0,0,0,0,0,0);
#18= IFCCONVERSIONBASEDUNIT(#17,.LENGTHUNIT.,'FOOT',#16);
#19= IFCSIUNIT(*,.AREAUNIT.,$,.SQUARE_METRE.);
#20= IFCMEASUREWITHUNIT(IFCRATIOMEASURE(0.09290304),#19);
#21= IFCDIMENSIONALEXPONENTS(2,0,0,0,0,0,0);
#22= IFCCONVERSIONBASEDUNIT(#21,.AREAUNIT.,'SQUARE FOOT',#20);
#23= IFCSIUNIT(*,.VOLUMEUNIT.,$,.CUBIC_METRE.);
#24= IFCMEASUREWITHUNIT(IFCRATIOMEASURE(0.028316846592),#23);
#25= IFCDIMENSIONALEXPONENTS(3,0,0,0,0,0,0);
#26= IFCCONVERSIONBASEDUNIT(#25,.VOLUMEUNIT.,'CUBIC FOOT',#24);
#27= IFCSIUNIT(*,.MASSUNIT.,.KILO.,.GRAM.);
#28= IFCSIUNIT(*,.TIMEUNIT.,$,.SECOND.);
#29= IFCSIUNIT(*,.PLANEANGLEUNIT.,$,.RADIAN.);
#30= IFCMEASUREWITHUNIT(IFCRATIOMEASURE(0.0174532925199433),#29);
#31= IFCDIMENSIONALEXPONENTS(0,0,0,0,0,0,0);
#32= IFCCONVERSIONBASEDUNIT(#31,.PLANEANGLEUNIT.,'DEGREE',#30);
#33= IFCSIUNIT(*,.SOLIDANGLEUNIT.,$,.STERADIAN.);
#34= IFCSIUNIT(*,.THERMODYNAMICTEMPERATUREUNIT.,$,.DEGREE_CELSIUS.);
#35= IFCSIUNIT(*,.LUMINOUSINTENSITYUNIT.,$,.LUMEN.);
#36= IFCUNITASSIGNMENT((#15,#19,#23,#27,#28,#29,#33,#34,#35));
#37= IFCPROJECT('2G7ZFDNE16yBDU14FA92Me',#5,'Proyecto',$,$,$,$,(#11),#36);
#38= IFCLOCALPLACEMENT($,#10);
#39= IFCSITE('2xvEzEinjBTea80yOTcujY',#5,'Obra',$,$,#38,$,$,.ELEMENT.,$,$,$,$,$);
#40= IFCLOCALPLACEMENT(#38,#10);
#41= IFCBUILDING('1MR7X2RefCr9PtZJd7uJ6i',#5,'Undefined',$,$,#40,$,$,.ELEMENT.,$,$,$);
#42= IFCLOCALPLACEMENT(#40,#10);
#43= IFCBUILDINGSTOREY('29hdEUCErFze9E_VIAceOd',#5,'Undefined',$,$,#42,$,$,.ELEMENT.,0.);
#44= IFCOWNERHISTORY(#3,#4,$,.NOCHANGE.,$,$,$,1773068400);
#45= IFCCARTESIANPOINT((51165.0998810654,22000.0000658529,13675.));
#46= IFCAXIS2PLACEMENT3D(#45,#9,#7);
#47= IFCLOCALPLACEMENT(#42,#46);
#48= IFCDIRECTION((1.,0.));
#49= IFCCARTESIANPOINT((0.,0.));
#50= IFCAXIS2PLACEMENT2D(#49,#48);
#51= IFCISHAPEPROFILEDEF(.AREA.,'IPE450',#50,190.,450.,9.399999619,14.60000038,21.);
#52= IFCDIRECTION((0.,-1.,0.));
#53= IFCDIRECTION((-1.,0.,0.));
#54= IFCCARTESIANPOINT((8162.31065989863,0.,0.));
#55= IFCAXIS2PLACEMENT3D(#54,#53,#52);
#56= IFCEXTRUDEDAREASOLID(#51,#55,#9,8154.92);
#57= IFCCARTESIANPOINT((8162.31065989863,-0.0993700520848506,-325.));
#58= IFCAXIS2PLACEMENT3D(#57,#53,#8);
#59= IFCPLANE(#58);
#60= IFCHALFSPACESOLID(#59,.T.);
#61= IFCBOOLEANCLIPPINGRESULT(.DIFFERENCE.,#56,#60);
#62= IFCCARTESIANPOINT((7.3903318387238,0.0993700520848506,-325.));
#63= IFCAXIS2PLACEMENT3D(#62,#7,#52);
#64= IFCPLANE(#63);
#65= IFCHALFSPACESOLID(#64,.T.);
#66= IFCBOOLEANCLIPPINGRESULT(.DIFFERENCE.,#61,#65);
#67= IFCSHAPEREPRESENTATION(#12,'Body','Clipping',(#66));
#68= IFCPRODUCTDEFINITIONSHAPE($,$,(#67));
#69= IFCBEAM('0OSLzVOIz4eQehWqF56O4Y',#44,'BEAM','IPE450','IPE450',#47,#68,'ID18715f5f-612f-44a1-aa2b-8343c5198122');
#70= IFCLOCALPLACEMENT(#42,#46);
#71= IFCRECTANGLEPROFILEDEF(.AREA.,'PL106.1*12',#50,12.,106.1);
#72= IFCDIRECTION((0.,0.,-1.));
#73= IFCCARTESIANPOINT((8178.30576635068,-43.0496850260424,226.));
#74= IFCAXIS2PLACEMENT3D(#73,#72,#53);
#75= IFCEXTRUDEDAREASOLID(#71,#74,#9,452.);
#76= IFCSHAPEREPRESENTATION(#12,'Body','SweptSolid',(#75));
#77= IFCPRODUCTDEFINITIONSHAPE($,$,(#76));
#78= IFCOPENINGELEMENT('2CQKIU2g1BTwE5W8HCQcSI',#5,$,$,'Recess',#70,#77,$);
#79= IFCRELVOIDSELEMENT('0L6ckyVS53me9D$zdDkxTi',#5,$,$,#69,#78);
#80= IFCPROPERTYSINGLEVALUE('FeatureSubTypes',$,$,$);
#81= IFCPROPERTYSINGLEVALUE('RectangleOpeningWidth',$,IFCPOSITIVELENGTHMEASURE(12.),$);
#82= IFCPROPERTYSINGLEVALUE('RectangleOpeningHeight',$,IFCPOSITIVELENGTHMEASURE(106.1),$);
#83= IFCPROPERTYSINGLEVALUE('OpeningDiameter',$,$,$);
#84= IFCPROPERTYSET('3tJpiv8dD1muqTfOb5bmWE',#5,'AISC_EM11_Pset_Opening/Cope',$,(#80,#81,#82,#83));
#85= IFCLOCALPLACEMENT(#42,#46);
#86= IFCRECTANGLEPROFILEDEF(.AREA.,'PL105.9*12',#50,12.,105.9);
#87= IFCCARTESIANPOINT((8178.30576635068,42.9503149739576,226.));
#88= IFCAXIS2PLACEMENT3D(#87,#72,#53);
#89= IFCEXTRUDEDAREASOLID(#86,#88,#9,452.);
#90= IFCSHAPEREPRESENTATION(#12,'Body','SweptSolid',(#89));
#91= IFCPRODUCTDEFINITIONSHAPE($,$,(#90));
#92= IFCOPENINGELEMENT('2giQMwBM1EjgCe3z4XuFN8',#5,$,$,'Recess',#85,#91,$);
#93= IFCRELVOIDSELEMENT('0ryXsZ8ZjBSgi5c9XFC$Zt',#5,$,$,#69,#92);
#94= IFCPROPERTYSINGLEVALUE('RectangleOpeningHeight',$,IFCPOSITIVELENGTHMEASURE(105.9),$);
#95= IFCPROPERTYSET('36C6wWKGPFChsdr$3LvM1S',#5,'AISC_EM11_Pset_Opening/Cope',$,(#80,#81,#94,#83));
#96= IFCLOCALPLACEMENT(#42,#46);
#97= IFCCARTESIANPOINT((-8.60477461333357,43.0496850260424,226.));
#98= IFCAXIS2PLACEMENT3D(#97,#72,#7);
#99= IFCEXTRUDEDAREASOLID(#71,#98,#9,452.);
#100= IFCSHAPEREPRESENTATION(#12,'Body','SweptSolid',(#99));
#101= IFCPRODUCTDEFINITIONSHAPE($,$,(#100));
#102= IFCOPENINGELEMENT('2zYAF93Of19BHd8o0QqTnj',#5,$,$,'Recess',#96,#101,$);
#103= IFCRELVOIDSELEMENT('196pzSixj97Bkx61YPpXYd',#5,$,$,#69,#102);
#104= IFCLOCALPLACEMENT(#42,#46);
#105= IFCCARTESIANPOINT((-8.60477461333357,-42.9503149739576,226.));
#106= IFCAXIS2PLACEMENT3D(#105,#72,#7);
#107= IFCEXTRUDEDAREASOLID(#86,#106,#9,452.);
#108= IFCSHAPEREPRESENTATION(#12,'Body','SweptSolid',(#107));
#109= IFCPRODUCTDEFINITIONSHAPE($,$,(#108));
#110= IFCOPENINGELEMENT('31_BwwKlr3KOPCpIFgIrMr',#5,$,$,'Recess',#104,#109,$);
#111= IFCRELVOIDSELEMENT('3HUsEY2BzAvuMsfhgdyAWB',#5,$,$,#69,#110);
#112= IFCCARTESIANPOINT((59327.4106254452,21999.9612007851,13900.));
#113= IFCDIRECTION((0.999996100900047,-0.00279252299971995,0.));
#114= IFCAXIS2PLACEMENT3D(#112,#113,#72);
#115= IFCLOCALPLACEMENT(#42,#114);
#116= IFCCIRCLEPROFILEDEF(.AREA.,$,#50,11.5);
#117= IFCCARTESIANPOINT((0.,-4.87285430118573,0.));
#118= IFCAXIS2PLACEMENT3D(#117,#8,#7);
#119= IFCEXTRUDEDAREASOLID(#116,#118,#9,9.6);
#120= IFCSHAPEREPRESENTATION(#12,'Body','SweptSolid',(#119));
#121= IFCREPRESENTATIONMAP(#10,#120);
#122= IFCCARTESIANPOINT((85.,0.,-40.0000000001237));
#123= IFCCARTESIANTRANSFORMATIONOPERATOR3D($,$,#122,$,$);
#124= IFCMAPPEDITEM(#121,#123);
#125= IFCCARTESIANPOINT((155.,0.,-40.0000000001237));
#126= IFCCARTESIANTRANSFORMATIONOPERATOR3D($,$,#125,$,$);
#127= IFCMAPPEDITEM(#121,#126);
#128= IFCCARTESIANPOINT((225.,0.,-40.0000000001237));
#129= IFCCARTESIANTRANSFORMATIONOPERATOR3D($,$,#128,$,$);
#130= IFCMAPPEDITEM(#121,#129);
#131= IFCCARTESIANPOINT((295.,0.,-40.0000000001237));
#132= IFCCARTESIANTRANSFORMATIONOPERATOR3D($,$,#131,$,$);
#133= IFCMAPPEDITEM(#121,#132);
#134= IFCCARTESIANPOINT((365.,0.,-40.0000000001237));
#135= IFCCARTESIANTRANSFORMATIONOPERATOR3D($,$,#134,$,$);
#136= IFCMAPPEDITEM(#121,#135);
#137= IFCSHAPEREPRESENTATION(#12,'Body','MappedRepresentation',(#124,#127,#130,#133,#136));
#138= IFCPRODUCTDEFINITIONSHAPE($,$,(#137));
#139= IFCOPENINGELEMENT('3ktnoW4XzBrxxtW2YP_yhC',#5,$,$,'Opening',#115,#138,$);
#140= IFCRELVOIDSELEMENT('1OiHh0TG524fOPPuC3v6M0',#5,'Drill Hole',$,#69,#139);
#141= IFCPROPERTYSINGLEVALUE('FeatureSubTypes',$,IFCLABEL('TORNILLO'),$);
#142= IFCPROPERTYSINGLEVALUE('RectangleOpeningWidth',$,$,$);
#143= IFCPROPERTYSINGLEVALUE('RectangleOpeningHeight',$,$,$);
#144= IFCPROPERTYSET('0u5qrDnbT2vRT3rcUm7c1j',#5,'AISC_EM11_Pset_Opening/Cope',$,(#141,#142,#143,#83));
#145= IFCCARTESIANPOINT((59287.387157614,22000.2526060052,13450.));
#146= IFCDIRECTION((-0.000467666999837092,0.999999890643783,0.));
#147= IFCDIRECTION((-0.999999890643783,-0.000467666999833834,0.));
#148= IFCAXIS2PLACEMENT3D(#145,#146,#147);
#149= IFCLOCALPLACEMENT(#42,#148);
#150= IFCCARTESIANPOINT((0.,-0.0999999999999929,0.));
#151= IFCAXIS2PLACEMENT3D(#150,#8,#7);
#152= IFCEXTRUDEDAREASOLID(#116,#151,#9,14.8);
#153= IFCSHAPEREPRESENTATION(#12,'Body','SweptSolid',(#152));
#154= IFCREPRESENTATIONMAP(#10,#153);
#155= IFCCARTESIANPOINT((-7.27595761418343E-12,0.,-49.9999999998581));
#156= IFCCARTESIANTRANSFORMATIONOPERATOR3D($,$,#155,$,$);
#157= IFCMAPPEDITEM(#154,#156);
#158= IFCCARTESIANPOINT((69.9999999998035,0.,-49.9999999998545));
#159= IFCCARTESIANTRANSFORMATIONOPERATOR3D($,$,#158,$,$);
#160= IFCMAPPEDITEM(#154,#159);
#161= IFCCARTESIANPOINT((139.9999999996,0.,-49.9999999998545));
#162= IFCCARTESIANTRANSFORMATIONOPERATOR3D($,$,#161,$,$);
#163= IFCMAPPEDITEM(#154,#162);
#164= IFCCARTESIANPOINT((209.999999999396,0.,-49.9999999998545));
#165= IFCCARTESIANTRANSFORMATIONOPERATOR3D($,$,#164,$,$);
#166= IFCMAPPEDITEM(#154,#165);
#167= IFCCARTESIANPOINT((279.9999999992,0.,-49.9999999998581));
#168= IFCCARTESIANTRANSFORMATIONOPERATOR3D($,$,#167,$,$);
#169= IFCMAPPEDITEM(#154,#168);
#170= IFCCARTESIANPOINT((349.999999998996,0.,-49.9999999998581));
#171= IFCCARTESIANTRANSFORMATIONOPERATOR3D($,$,#170,$,$);
#172= IFCMAPPEDITEM(#154,#171);
#173= IFCCARTESIANPOINT((419.999999998799,0.,-49.9999999998581));
#174= IFCCARTESIANTRANSFORMATIONOPERATOR3D($,$,#173,$,$);
#175= IFCMAPPEDITEM(#154,#174);
#176= IFCCARTESIANPOINT((0.,0.,49.9999999998581));
#177= IFCCARTESIANTRANSFORMATIONOPERATOR3D($,$,#176,$,$);
#178= IFCMAPPEDITEM(#154,#177);
#179= IFCCARTESIANPOINT((69.9999999997963,0.,49.9999999998581));
#180= IFCCARTESIANTRANSFORMATIONOPERATOR3D($,$,#179,$,$);
#181= IFCMAPPEDITEM(#154,#180);
#182= IFCCARTESIANPOINT((139.9999999996,0.,49.9999999998581));
#183= IFCCARTESIANTRANSFORMATIONOPERATOR3D($,$,#182,$,$);
#184= IFCMAPPEDITEM(#154,#183);
#185= IFCCARTESIANPOINT((209.999999999396,0.,49.9999999998581));
#186= IFCCARTESIANTRANSFORMATIONOPERATOR3D($,$,#185,$,$);
#187= IFCMAPPEDITEM(#154,#186);
#188= IFCCARTESIANPOINT((279.9999999992,0.,49.9999999998581));
#189= IFCCARTESIANTRANSFORMATIONOPERATOR3D($,$,#188,$,$);
#190= IFCMAPPEDITEM(#154,#189);
#191= IFCCARTESIANPOINT((349.999999998996,0.,49.9999999998581));
#192= IFCCARTESIANTRANSFORMATIONOPERATOR3D($,$,#191,$,$);
#193= IFCMAPPEDITEM(#154,#192);
#194= IFCCARTESIANPOINT((419.999999998799,0.,49.9999999998581));
#195= IFCCARTESIANTRANSFORMATIONOPERATOR3D($,$,#194,$,$);
#196= IFCMAPPEDITEM(#154,#195);
#197= IFCSHAPEREPRESENTATION(#12,'Body','MappedRepresentation',(#157,#160,#163,#166,#169,#172,#175,#178,#181,#184,#187,#190,#193,#196));
#198= IFCPRODUCTDEFINITIONSHAPE($,$,(#197));
#199= IFCOPENINGELEMENT('2vb_LJs792hRYDpNcpUE3U',#5,$,$,'Opening',#149,#198,$);
#200= IFCRELVOIDSELEMENT('0ZyIf5Jlf3qPgAdG7mR$91',#5,'Drill Hole',$,#69,#199);
#201= IFCCARTESIANPOINT((59287.387157614,22000.2526060052,13900.));
#202= IFCDIRECTION((0.000467666999829816,-0.999999890643783,0.));
#203= IFCAXIS2PLACEMENT3D(#201,#202,#147);
#204= IFCLOCALPLACEMENT(#42,#203);
#205= IFCSHAPEREPRESENTATION(#12,'Body','MappedRepresentation',(#157,#160,#163,#166,#169,#172,#175,#178,#181,#184,#187,#190,#193,#196));
#206= IFCPRODUCTDEFINITIONSHAPE($,$,(#205));
#207= IFCOPENINGELEMENT('1zNF5NHEn9YxN7CIF8FPTM',#5,$,$,'Opening',#204,#206,$);
#208= IFCRELVOIDSELEMENT('2Apaj2paH3T9IePVHzgXgV',#5,'Drill Hole',$,#69,#207);
#209= IFCCARTESIANPOINT((51172.490128423,22000.0389309206,13900.));
#210= IFCDIRECTION((-0.999996100900047,0.00279252299971995,0.));
#211= IFCAXIS2PLACEMENT3D(#209,#210,#72);
#212= IFCLOCALPLACEMENT(#42,#211);
#213= IFCSHAPEREPRESENTATION(#12,'Body','MappedRepresentation',(#124,#127,#130,#133,#136));
#214= IFCPRODUCTDEFINITIONSHAPE($,$,(#213));
#215= IFCOPENINGELEMENT('0ISjC3lSH7dfAl7j05j4oO',#5,$,$,'Opening',#212,#214,$);
#216= IFCRELVOIDSELEMENT('2Q$fuqYSP3C80Wlo4RJELG',#5,'Drill Hole',$,#69,#215);
#217= IFCCARTESIANPOINT((51212.5135962541,21999.7475257006,13450.));
#218= IFCDIRECTION((0.999999890643783,0.000467666999833834,0.));
#219= IFCAXIS2PLACEMENT3D(#217,#202,#218);
#220= IFCLOCALPLACEMENT(#42,#219);
#221= IFCSHAPEREPRESENTATION(#12,'Body','MappedRepresentation',(#157,#160,#163,#166,#169,#172,#175,#178,#181,#184,#187,#190,#193,#196));
#222= IFCPRODUCTDEFINITIONSHAPE($,$,(#221));
#223= IFCOPENINGELEMENT('3Eyf9naBf0GB_yucf5$8cC',#5,$,$,'Opening',#220,#222,$);
#224= IFCRELVOIDSELEMENT('1czBqqzF98_g1Qx6urY2DG',#5,'Drill Hole',$,#69,#223);
#225= IFCCARTESIANPOINT((51212.5135962541,21999.7475257006,13900.));
#226= IFCAXIS2PLACEMENT3D(#225,#146,#218);
#227= IFCLOCALPLACEMENT(#42,#226);
#228= IFCSHAPEREPRESENTATION(#12,'Body','MappedRepresentation',(#157,#160,#163,#166,#169,#172,#175,#178,#181,#184,#187,#190,#193,#196));
#229= IFCPRODUCTDEFINITIONSHAPE($,$,(#228));
#230= IFCOPENINGELEMENT('1CVFLt2ef0SvAI9_59OFVZ',#5,$,$,'Opening',#227,#229,$);
#231= IFCRELVOIDSELEMENT('1_xnbN_z58qgHpGmYqdHag',#5,'Drill Hole',$,#69,#230);
#232= IFCPROPERTYSINGLEVALUE('PieceMark',$,IFCIDENTIFIER('BEAM'),$);
#233= IFCPROPERTYSINGLEVALUE('IndicationMark',$,IFCIDENTIFIER('b/108'),$);
#234= IFCPROPERTYSINGLEVALUE('PrelimMark',$,IFCIDENTIFIER(''),$);
#235= IFCPROPERTYSINGLEVALUE('MainPieceTag',$,IFCBOOLEAN(.T.),$);
#236= IFCPROPERTYSET('2ah4WuvpXBGvu5r5Ko$XBr',#5,'AISC_EM11_Pset_PieceIdentification','PieceIdentity',(#232,#233,#234,#235));
#237= IFCPROPERTYSINGLEVALUE('MaterialType',$,IFCIDENTIFIER('STEEL'),$);
#238= IFCPROPERTYSINGLEVALUE('MaterialGrade',$,IFCIDENTIFIER('S235JR'),$);
#239= IFCPROPERTYSET('2NgoHur7v25u6_Gzrxhw1Y',#5,'AISC_EM11_Pset_Material',$,(#237,#238));
#240= IFCPROPERTYSINGLEVALUE('SkewedAngleY',$,IFCREAL(0.),$);
#241= IFCPROPERTYSINGLEVALUE('SkewedAngleX',$,IFCREAL(0.),$);
#242= IFCPROPERTYSET('11uTwnUJ15TuNG1GMcb2dL',#5,'AISC_EM11_Pset_SkewedEnd',$,(#240,#241));
#243= IFCPROPERTYSET('18vbf44rX1aA$CO2aXg79L',#5,'AISC_EM11_Pset_SkewedEnd_2',$,(#240,#241));
#244= IFCMATERIAL('STEEL/S235JR');
#245= IFCRELAGGREGATES('3TXhlV7L12JQS5XznqZKV9',#5,$,$,#37,(#39));
#246= IFCRELAGGREGATES('2lpz1nPdJKbikNpF36rcnR',#5,$,$,#39,(#41));
#247= IFCRELAGGREGATES('0077RcZ1H0WOmVuub8DxRM',#5,$,$,#41,(#43));
#248= IFCRELCONTAINEDINSPATIALSTRUCTURE('1FBkNM6fDDDghGulYBgq1J',#5,$,$,(#69),#43);
#249= IFCRELDEFINESBYPROPERTIES('0kErLqStr8zvfWMXZ7rUhz',#5,$,$,(#102,#78),#84);
#250= IFCRELDEFINESBYPROPERTIES('1fTHfoD816JQCQtjlWk5Uc',#5,$,$,(#110,#92),#95);
#251= IFCRELDEFINESBYPROPERTIES('31u6JRfsX4B8V4Mq3jZ6kq',#5,$,$,(#230,#223,#215,#207,#199,#139),#144);
#252= IFCRELDEFINESBYPROPERTIES('3SixKCEdr1fvcrMvKNet6K',#5,$,$,(#69),#236);
#253= IFCRELDEFINESBYPROPERTIES('3yiybDqnLEEvydKzJ7pkMW',#5,$,$,(#69),#239);
#254= IFCRELDEFINESBYPROPERTIES('2w7MoabVD0avef0A0CGKc1',#5,$,$,(#69),#242);
#255= IFCRELDEFINESBYPROPERTIES('1RjQrwjq13MRP52bUlzahu',#5,$,$,(#69),#243);
#256= IFCRELASSOCIATESMATERIAL('1sjLoW6zTDx9r4AslwcAIS',#5,$,$,(#69),#244);
ENDSEC;

END-ISO-10303-21;
