ISO-10303-21;
HEADER;
FILE_DESCRIPTION(('ViewDefinition[AISC_Steel_Detailing]', 'Option [BaseQuantities:Off]', 'Option [GridExport:On]', 'Option [Assemblies:Off]', 'Option [Bolts:On]', 'Option [Rebars:On]', 'Option [PourObjects:Off]', 'Option [Welds:On]', 'Option [SurfaceTreatments:On]', 'Option [LocationBy:0]', 'Option [ViewColors:Off]', 'Option [SectionedSpine:Off]', 'Option [PropertySets:On]', 'Option [Export all:Off]'),'2;1');
FILE_NAME('b_1048_Qty_1.ifc','2026-05-16T11:53:10',('GIOVANNIPC\\gcorrea'),('Structural Designer'),'IFC Database version: Work','Tekla Structures 2020 Service Pack 5, IFC Export Version: 4.0.0.0 Dec  7 2020','');
FILE_SCHEMA(('IFC2X3'));
ENDSEC;

DATA;
#1= IFCPERSON('GIOVANNIPC\\gcorrea','Undefined',$,$,$,$,$,$);
#2= IFCORGANIZATION($,'Trimble Solutions Corporation',$,$,$);
#3= IFCPERSONANDORGANIZATION(#1,#2,$);
#4= IFCAPPLICATION(#2,'2020 Service Pack 5','Tekla Structures','Multi material modeling');
#5= IFCOWNERHISTORY(#3,#4,$,.NOCHANGE.,$,$,$,1778950390);
#6= IFCCARTESIANPOINT((0.,0.,0.));
#7= IFCDIRECTION((1.,0.,0.));
#8= IFCDIRECTION((0.,1.,0.));
#9= IFCDIRECTION((0.,0.,1.));
#10= IFCAXIS2PLACEMENT3D(#6,#9,#7);
#11= IFCGEOMETRICREPRESENTATIONCONTEXT($,'Model',3,1.E-05,#10,$);
#12= IFCGEOMETRICREPRESENTATIONSUBCONTEXT('Body','Model',*,*,*,*,#11,$,.MODEL_VIEW.,$);
#13= IFCGEOMETRICREPRESENTATIONSUBCONTEXT('Axis','Model',*,*,*,*,#11,$,.GRAPH_VIEW.,$);
#14= IFCGEOMETRICREPRESENTATIONSUBCONTEXT('FootPrint','Model',*,*,*,*,#11,$,.MODEL_VIEW.,$);
#15= IFCSIUNIT(*,.LENGTHUNIT.,.MILLI.,.METRE.);
#16= IFCMEASUREWITHUNIT(IFCRATIOMEASURE(304.8),#15);
#17= IFCDIMENSIONALEXPONENTS(1,0,0,0,0,0,0);
#18= IFCCONVERSIONBASEDUNIT(#17,.LENGTHUNIT.,'FOOT',#16);
#19= IFCSIUNIT(*,.AREAUNIT.,$,.SQUARE_METRE.);
#20= IFCMEASUREWITHUNIT(IFCRATIOMEASURE(0.09290304),#19);
#21= IFCDIMENSIONALEXPONENTS(2,0,0,0,0,0,0);
#22= IFCCONVERSIONBASEDUNIT(#21,.AREAUNIT.,'SQUARE FOOT',#20);
#23= IFCSIUNIT(*,.VOLUMEUNIT.,$,.CUBIC_METRE.);
#24= IFCMEASUREWITHUNIT(IFCRATIOMEASURE(0.028316846592),#23);
#25= IFCDIMENSIONALEXPONENTS(3,0,0,0,0,0,0);
#26= IFCCONVERSIONBASEDUNIT(#25,.VOLUMEUNIT.,'CUBIC FOOT',#24);
#27= IFCSIUNIT(*,.MASSUNIT.,.KILO.,.GRAM.);
#28= IFCSIUNIT(*,.TIMEUNIT.,$,.SECOND.);
#29= IFCSIUNIT(*,.PLANEANGLEUNIT.,$,.RADIAN.);
#30= IFCMEASUREWITHUNIT(IFCRATIOMEASURE(0.0174532925199433),#29);
#31= IFCDIMENSIONALEXPONENTS(0,0,0,0,0,0,0);
#32= IFCCONVERSIONBASEDUNIT(#31,.PLANEANGLEUNIT.,'DEGREE',#30);
#33= IFCSIUNIT(*,.SOLIDANGLEUNIT.,$,.STERADIAN.);
#34= IFCSIUNIT(*,.THERMODYNAMICTEMPERATUREUNIT.,$,.DEGREE_CELSIUS.);
#35= IFCSIUNIT(*,.LUMINOUSINTENSITYUNIT.,$,.LUMEN.);
#36= IFCUNITASSIGNMENT((#15,#19,#23,#27,#28,#29,#33,#34,#35));
#37= IFCPROJECT('2G7ZFDNE16yBDU14FA92Me',#5,'Proyecto',$,$,$,$,(#11),#36);
#38= IFCLOCALPLACEMENT($,#10);
#39= IFCSITE('2xvEzEinjBTea80yOTcujY',#5,'Obra',$,$,#38,$,$,.ELEMENT.,$,$,$,$,$);
#40= IFCLOCALPLACEMENT(#38,#10);
#41= IFCBUILDING('2GSqjO5MP41vLhsTMWoTpT',#5,'Undefined',$,$,#40,$,$,.ELEMENT.,$,$,$);
#42= IFCLOCALPLACEMENT(#40,#10);
#43= IFCBUILDINGSTOREY('29hdEUCErFze9E_VIAceOd',#5,'Undefined',$,$,#42,$,$,.ELEMENT.,0.);
#44= IFCOWNERHISTORY(#3,#4,$,.NOCHANGE.,$,$,$,1774022400);
#45= IFCCARTESIANPOINT((34165.0998810654,22000.0000658529,19125.));
#46= IFCAXIS2PLACEMENT3D(#45,#9,#7);
#47= IFCLOCALPLACEMENT(#42,#46);
#48= IFCDIRECTION((1.,0.));
#49= IFCCARTESIANPOINT((0.,0.));
#50= IFCAXIS2PLACEMENT2D(#49,#48);
#51= IFCISHAPEPROFILEDEF(.AREA.,'IPE450',#50,190.,450.,9.399999619,14.60000038,21.);
#52= IFCDIRECTION((0.,-1.,0.));
#53= IFCDIRECTION((-1.,0.,0.));
#54= IFCCARTESIANPOINT((8169.7998046875,0.,0.));
#55= IFCAXIS2PLACEMENT3D(#54,#53,#52);
#56= IFCEXTRUDEDAREASOLID(#51,#55,#9,8162.4);
#57= IFCCARTESIANPOINT((7.39984427640593,0.,-325.));
#58= IFCAXIS2PLACEMENT3D(#57,#7,#52);
#59= IFCPLANE(#58);
#60= IFCHALFSPACESOLID(#59,.T.);
#61= IFCBOOLEANCLIPPINGRESULT(.DIFFERENCE.,#56,#60);
#62= IFCSHAPEREPRESENTATION(#12,'Body','Clipping',(#61));
#63= IFCPRODUCTDEFINITIONSHAPE($,$,(#62));
#64= IFCBEAM('0eOiaazC9CbPjT6pRg7uN8',#44,'BEAM','IPE450','IPE450',#47,#63,'ID2862c924-f4c2-4c95-9b5d-1b36ea1f85c8');
#65= IFCLOCALPLACEMENT(#42,#46);
#66= IFCRECTANGLEPROFILEDEF(.AREA.,'PL106*12',#50,12.,106.);
#67= IFCDIRECTION((0.,0.,-1.));
#68= IFCCARTESIANPOINT((-8.60015572359407,43.,226.));
#69= IFCAXIS2PLACEMENT3D(#68,#67,#7);
#70= IFCEXTRUDEDAREASOLID(#66,#69,#9,452.);
#71= IFCSHAPEREPRESENTATION(#12,'Body','SweptSolid',(#70));
#72= IFCPRODUCTDEFINITIONSHAPE($,$,(#71));
#73= IFCOPENINGELEMENT('3ktb_9Jtr1k9iHaeONLzUD',#5,$,$,'Recess',#65,#72,$);
#74= IFCRELVOIDSELEMENT('07E_75ezjEsgBONdZv6LCO',#5,$,$,#64,#73);
#75= IFCPROPERTYSINGLEVALUE('FeatureSubTypes',$,$,$);
#76= IFCPROPERTYSINGLEVALUE('RectangleOpeningWidth',$,IFCPOSITIVELENGTHMEASURE(12.),$);
#77= IFCPROPERTYSINGLEVALUE('RectangleOpeningHeight',$,IFCPOSITIVELENGTHMEASURE(106.),$);
#78= IFCPROPERTYSINGLEVALUE('OpeningDiameter',$,$,$);
#79= IFCPROPERTYSET('2gPQIlifb6qxzvFZ1Zj6K4',#5,'AISC_EM11_Pset_Opening/Cope',$,(#75,#76,#77,#78));
#80= IFCLOCALPLACEMENT(#42,#46);
#81= IFCCARTESIANPOINT((-8.60015572359407,-43.,226.));
#82= IFCAXIS2PLACEMENT3D(#81,#67,#7);
#83= IFCEXTRUDEDAREASOLID(#66,#82,#9,452.);
#84= IFCSHAPEREPRESENTATION(#12,'Body','SweptSolid',(#83));
#85= IFCPRODUCTDEFINITIONSHAPE($,$,(#84));
#86= IFCOPENINGELEMENT('2gINyd3998curkzjhWPjhA',#5,$,$,'Recess',#80,#85,$);
#87= IFCRELVOIDSELEMENT('2MuwcyhVjAXeZbmDuSnBSW',#5,$,$,#64,#86);
#88= IFCCARTESIANPOINT((34632.4762960616,22000.0000658529,18900.));
#89= IFCDIRECTION((-0.000467666999837092,0.999999890643783,0.));
#90= IFCDIRECTION((-0.999999890643783,-0.000467666999833853,0.));
#91= IFCAXIS2PLACEMENT3D(#88,#89,#90);
#92= IFCLOCALPLACEMENT(#42,#91);
#93= IFCCIRCLEPROFILEDEF(.AREA.,$,#50,11.5);
#94= IFCCARTESIANPOINT((0.,-0.0999999999999929,0.));
#95= IFCAXIS2PLACEMENT3D(#94,#8,#7);
#96= IFCEXTRUDEDAREASOLID(#93,#95,#9,14.8);
#97= IFCSHAPEREPRESENTATION(#12,'Body','SweptSolid',(#96));
#98= IFCREPRESENTATIONMAP(#10,#97);
#99= IFCCARTESIANPOINT((0.,0.,-49.9999999998581));
#100= IFCCARTESIANTRANSFORMATIONOPERATOR3D($,$,#99,$,$);
#101= IFCMAPPEDITEM(#98,#100);
#102= IFCCARTESIANPOINT((69.9999999997963,0.,-49.9999999998581));
#103= IFCCARTESIANTRANSFORMATIONOPERATOR3D($,$,#102,$,$);
#104= IFCMAPPEDITEM(#98,#103);
#105= IFCCARTESIANPOINT((139.9999999996,0.,-49.9999999998581));
#106= IFCCARTESIANTRANSFORMATIONOPERATOR3D($,$,#105,$,$);
#107= IFCMAPPEDITEM(#98,#106);
#108= IFCCARTESIANPOINT((209.999999999403,0.,-49.9999999998581));
#109= IFCCARTESIANTRANSFORMATIONOPERATOR3D($,$,#108,$,$);
#110= IFCMAPPEDITEM(#98,#109);
#111= IFCCARTESIANPOINT((279.999999999207,0.,-49.9999999998581));
#112= IFCCARTESIANTRANSFORMATIONOPERATOR3D($,$,#111,$,$);
#113= IFCMAPPEDITEM(#98,#112);
#114= IFCCARTESIANPOINT((349.999999999003,0.,-49.9999999998581));
#115= IFCCARTESIANTRANSFORMATIONOPERATOR3D($,$,#114,$,$);
#116= IFCMAPPEDITEM(#98,#115);
#117= IFCCARTESIANPOINT((419.999999998807,0.,-49.9999999998581));
#118= IFCCARTESIANTRANSFORMATIONOPERATOR3D($,$,#117,$,$);
#119= IFCMAPPEDITEM(#98,#118);
#120= IFCCARTESIANPOINT((0.,0.,49.9999999998545));
#121= IFCCARTESIANTRANSFORMATIONOPERATOR3D($,$,#120,$,$);
#122= IFCMAPPEDITEM(#98,#121);
#123= IFCCARTESIANPOINT((69.9999999997963,0.,49.9999999998545));
#124= IFCCARTESIANTRANSFORMATIONOPERATOR3D($,$,#123,$,$);
#125= IFCMAPPEDITEM(#98,#124);
#126= IFCCARTESIANPOINT((139.999999999607,0.,49.9999999998545));
#127= IFCCARTESIANTRANSFORMATIONOPERATOR3D($,$,#126,$,$);
#128= IFCMAPPEDITEM(#98,#127);
#129= IFCCARTESIANPOINT((209.999999999403,0.,49.9999999998545));
#130= IFCCARTESIANTRANSFORMATIONOPERATOR3D($,$,#129,$,$);
#131= IFCMAPPEDITEM(#98,#130);
#132= IFCCARTESIANPOINT((279.999999999207,0.,49.9999999998545));
#133= IFCCARTESIANTRANSFORMATIONOPERATOR3D($,$,#132,$,$);
#134= IFCMAPPEDITEM(#98,#133);
#135= IFCCARTESIANPOINT((349.999999999003,0.,49.9999999998581));
#136= IFCCARTESIANTRANSFORMATIONOPERATOR3D($,$,#135,$,$);
#137= IFCMAPPEDITEM(#98,#136);
#138= IFCCARTESIANPOINT((419.999999998799,0.,49.9999999998581));
#139= IFCCARTESIANTRANSFORMATIONOPERATOR3D($,$,#138,$,$);
#140= IFCMAPPEDITEM(#98,#139);
#141= IFCSHAPEREPRESENTATION(#12,'Body','MappedRepresentation',(#101,#104,#107,#110,#113,#116,#119,#122,#125,#128,#131,#134,#137,#140));
#142= IFCPRODUCTDEFINITIONSHAPE($,$,(#141));
#143= IFCOPENINGELEMENT('2FUEgmbkHChOM0h3QUkCJ7',#5,$,$,'Opening',#92,#142,$);
#144= IFCRELVOIDSELEMENT('2OAGFFKB9BkeMYiBeTohPL',#5,'Drill Hole',$,#64,#143);
#145= IFCPROPERTYSINGLEVALUE('FeatureSubTypes',$,IFCLABEL('TORNILLO'),$);
#146= IFCPROPERTYSINGLEVALUE('RectangleOpeningWidth',$,$,$);
#147= IFCPROPERTYSINGLEVALUE('RectangleOpeningHeight',$,$,$);
#148= IFCPROPERTYSET('3pyy0YpJf3mBKyyzPwAZv5',#5,'AISC_EM11_Pset_Opening/Cope',$,(#145,#146,#147,#78));
#149= IFCCARTESIANPOINT((34172.4997253418,22000.0000658529,19350.));
#150= IFCAXIS2PLACEMENT3D(#149,#7,#67);
#151= IFCLOCALPLACEMENT(#42,#150);
#152= IFCCARTESIANPOINT((0.,-4.7999998095016,0.));
#153= IFCAXIS2PLACEMENT3D(#152,#8,#7);
#154= IFCEXTRUDEDAREASOLID(#93,#153,#9,9.6);
#155= IFCSHAPEREPRESENTATION(#12,'Body','SweptSolid',(#154));
#156= IFCREPRESENTATIONMAP(#10,#155);
#157= IFCCARTESIANPOINT((85.,0.,40.));
#158= IFCCARTESIANTRANSFORMATIONOPERATOR3D($,$,#157,$,$);
#159= IFCMAPPEDITEM(#156,#158);
#160= IFCCARTESIANPOINT((155.,0.,40.));
#161= IFCCARTESIANTRANSFORMATIONOPERATOR3D($,$,#160,$,$);
#162= IFCMAPPEDITEM(#156,#161);
#163= IFCCARTESIANPOINT((225.,0.,40.));
#164= IFCCARTESIANTRANSFORMATIONOPERATOR3D($,$,#163,$,$);
#165= IFCMAPPEDITEM(#156,#164);
#166= IFCCARTESIANPOINT((295.,0.,40.));
#167= IFCCARTESIANTRANSFORMATIONOPERATOR3D($,$,#166,$,$);
#168= IFCMAPPEDITEM(#156,#167);
#169= IFCCARTESIANPOINT((365.,0.,40.));
#170= IFCCARTESIANTRANSFORMATIONOPERATOR3D($,$,#169,$,$);
#171= IFCMAPPEDITEM(#156,#170);
#172= IFCSHAPEREPRESENTATION(#12,'Body','MappedRepresentation',(#159,#162,#165,#168,#171));
#173= IFCPRODUCTDEFINITIONSHAPE($,$,(#172));
#174= IFCOPENINGELEMENT('3xs0BsPGTCCucXi_oQi1Iq',#5,$,$,'Opening',#151,#173,$);
#175= IFCRELVOIDSELEMENT('2LwJcufW9CH8QByjyLN8tu',#5,'Drill Hole',$,#64,#174);
#176= IFCCARTESIANPOINT((34632.4762960616,22000.0000658529,19350.));
#177= IFCDIRECTION((0.000467666999829816,-0.999999890643783,0.));
#178= IFCAXIS2PLACEMENT3D(#176,#177,#90);
#179= IFCLOCALPLACEMENT(#42,#178);
#180= IFCSHAPEREPRESENTATION(#12,'Body','MappedRepresentation',(#101,#104,#107,#110,#113,#116,#119,#122,#125,#128,#131,#134,#137,#140));
#181= IFCPRODUCTDEFINITIONSHAPE($,$,(#180));
#182= IFCOPENINGELEMENT('3y2iXboxvBMwaI3vmQyRnS',#5,$,$,'Opening',#179,#181,$);
#183= IFCRELVOIDSELEMENT('2s_hExezrDW93y9F0AP06h',#5,'Drill Hole',$,#64,#182);
#184= IFCPROPERTYSINGLEVALUE('PieceMark',$,IFCIDENTIFIER('BEAM'),$);
#185= IFCPROPERTYSINGLEVALUE('IndicationMark',$,IFCIDENTIFIER('b/1048'),$);
#186= IFCPROPERTYSINGLEVALUE('PrelimMark',$,IFCIDENTIFIER(''),$);
#187= IFCPROPERTYSINGLEVALUE('MainPieceTag',$,IFCBOOLEAN(.T.),$);
#188= IFCPROPERTYSET('2ZIppZw9v7qvjDO6hDFT6k',#5,'AISC_EM11_Pset_PieceIdentification','PieceIdentity',(#184,#185,#186,#187));
#189= IFCPROPERTYSINGLEVALUE('MaterialType',$,IFCIDENTIFIER('STEEL'),$);
#190= IFCPROPERTYSINGLEVALUE('MaterialGrade',$,IFCIDENTIFIER('S235JR'),$);
#191= IFCPROPERTYSET('3zMwkwnRLA68$GQV1pU6F0',#5,'AISC_EM11_Pset_Material',$,(#189,#190));
#192= IFCPROPERTYSINGLEVALUE('SkewedAngleY',$,IFCREAL(0.),$);
#193= IFCPROPERTYSINGLEVALUE('SkewedAngleX',$,IFCREAL(0.),$);
#194= IFCPROPERTYSET('1o0khEaqP4CxKC9h4Wiklj',#5,'AISC_EM11_Pset_SkewedEnd',$,(#192,#193));
#195= IFCPROPERTYSET('3IYIy6AkP31RddnGArHEkh',#5,'AISC_EM11_Pset_SkewedEnd_2',$,(#192,#193));
#196= IFCMATERIAL('STEEL/S235JR');
#197= IFCRELAGGREGATES('2xMUS$wWf01QyRd4r6ymt8',#5,$,$,#37,(#39));
#198= IFCRELAGGREGATES('2DemkHCoxIJiEjvM7OE29Q',#5,$,$,#39,(#41));
#199= IFCRELAGGREGATES('0Zq_yNPPX8HgQxcWlnvLkv',#5,$,$,#41,(#43));
#200= IFCRELCONTAINEDINSPATIALSTRUCTURE('24YNpN6oL80uJ$MeuIn7oc',#5,$,$,(#64),#43);
#201= IFCRELDEFINESBYPROPERTIES('3utXR6aYjDQhH8UhXpdrsl',#5,$,$,(#86,#73),#79);
#202= IFCRELDEFINESBYPROPERTIES('1kqitmXqr4fPui9abUQ0nf',#5,$,$,(#182,#174,#143),#148);
#203= IFCRELDEFINESBYPROPERTIES('24bu1Gu0L1ohUeaPuvkn5x',#5,$,$,(#64),#188);
#204= IFCRELDEFINESBYPROPERTIES('0uekC4H2jATfcAYcKxRLYw',#5,$,$,(#64),#191);
#205= IFCRELDEFINESBYPROPERTIES('2jlE8Lc490ORBO7$cy8ufI',#5,$,$,(#64),#194);
#206= IFCRELDEFINESBYPROPERTIES('3f6KE$ufL7Dx4DtafAXNNo',#5,$,$,(#64),#195);
#207= IFCRELASSOCIATESMATERIAL('1FheK389z3FBqVO$yjh8Nb',#5,$,$,(#64),#196);
ENDSEC;

END-ISO-10303-21;
