ISO-10303-21;
HEADER;
FILE_DESCRIPTION(('ViewDefinition[AISC_Steel_Detailing]', 'Option [BaseQuantities:Off]', 'Option [GridExport:On]', 'Option [Assemblies:Off]', 'Option [Bolts:On]', 'Option [Rebars:On]', 'Option [PourObjects:Off]', 'Option [Welds:On]', 'Option [SurfaceTreatments:On]', 'Option [LocationBy:0]', 'Option [ViewColors:Off]', 'Option [SectionedSpine:Off]', 'Option [PropertySets:On]', 'Option [Export all:Off]'),'2;1');
FILE_NAME('b_109_Qty_3.ifc','2026-05-16T11:53:19',('GIOVANNIPC\\gcorrea'),('Structural Designer'),'IFC Database version: Work','Tekla Structures 2020 Service Pack 5, IFC Export Version: 4.0.0.0 Dec  7 2020','');
FILE_SCHEMA(('IFC2X3'));
ENDSEC;

DATA;
#1= IFCPERSON('GIOVANNIPC\\gcorrea','Undefined',$,$,$,$,$,$);
#2= IFCORGANIZATION($,'Trimble Solutions Corporation',$,$,$);
#3= IFCPERSONANDORGANIZATION(#1,#2,$);
#4= IFCAPPLICATION(#2,'2020 Service Pack 5','Tekla Structures','Multi material modeling');
#5= IFCOWNERHISTORY(#3,#4,$,.NOCHANGE.,$,$,$,1778950399);
#6= IFCCARTESIANPOINT((0.,0.,0.));
#7= IFCDIRECTION((1.,0.,0.));
#8= IFCDIRECTION((0.,1.,0.));
#9= IFCDIRECTION((0.,0.,1.));
#10= IFCAXIS2PLACEMENT3D(#6,#9,#7);
#11= IFCGEOMETRICREPRESENTATIONCONTEXT($,'Model',3,1.E-05,#10,$);
#12= IFCGEOMETRICREPRESENTATIONSUBCONTEXT('Body','Model',*,*,*,*,#11,$,.MODEL_VIEW.,$);
#13= IFCGEOMETRICREPRESENTATIONSUBCONTEXT('Axis','Model',*,*,*,*,#11,$,.GRAPH_VIEW.,$);
#14= IFCGEOMETRICREPRESENTATIONSUBCONTEXT('FootPrint','Model',*,*,*,*,#11,$,.MODEL_VIEW.,$);
#15= IFCSIUNIT(*,.LENGTHUNIT.,.MILLI.,.METRE.);
#16= IFCMEASUREWITHUNIT(IFCRATIOMEASURE(304.8),#15);
#17= IFCDIMENSIONALEXPONENTS(1,0,0,0,0,0,0);
#18= IFCCONVERSIONBASEDUNIT(#17,.LENGTHUNIT.,'FOOT',#16);
#19= IFCSIUNIT(*,.AREAUNIT.,$,.SQUARE_METRE.);
#20= IFCMEASUREWITHUNIT(IFCRATIOMEASURE(0.09290304),#19);
#21= IFCDIMENSIONALEXPONENTS(2,0,0,0,0,0,0);
#22= IFCCONVERSIONBASEDUNIT(#21,.AREAUNIT.,'SQUARE FOOT',#20);
#23= IFCSIUNIT(*,.VOLUMEUNIT.,$,.CUBIC_METRE.);
#24= IFCMEASUREWITHUNIT(IFCRATIOMEASURE(0.028316846592),#23);
#25= IFCDIMENSIONALEXPONENTS(3,0,0,0,0,0,0);
#26= IFCCONVERSIONBASEDUNIT(#25,.VOLUMEUNIT.,'CUBIC FOOT',#24);
#27= IFCSIUNIT(*,.MASSUNIT.,.KILO.,.GRAM.);
#28= IFCSIUNIT(*,.TIMEUNIT.,$,.SECOND.);
#29= IFCSIUNIT(*,.PLANEANGLEUNIT.,$,.RADIAN.);
#30= IFCMEASUREWITHUNIT(IFCRATIOMEASURE(0.0174532925199433),#29);
#31= IFCDIMENSIONALEXPONENTS(0,0,0,0,0,0,0);
#32= IFCCONVERSIONBASEDUNIT(#31,.PLANEANGLEUNIT.,'DEGREE',#30);
#33= IFCSIUNIT(*,.SOLIDANGLEUNIT.,$,.STERADIAN.);
#34= IFCSIUNIT(*,.THERMODYNAMICTEMPERATUREUNIT.,$,.DEGREE_CELSIUS.);
#35= IFCSIUNIT(*,.LUMINOUSINTENSITYUNIT.,$,.LUMEN.);
#36= IFCUNITASSIGNMENT((#15,#19,#23,#27,#28,#29,#33,#34,#35));
#37= IFCPROJECT('2G7ZFDNE16yBDU14FA92Me',#5,'Proyecto',$,$,$,$,(#11),#36);
#38= IFCLOCALPLACEMENT($,#10);
#39= IFCSITE('2xvEzEinjBTea80yOTcujY',#5,'Obra',$,$,#38,$,$,.ELEMENT.,$,$,$,$,$);
#40= IFCLOCALPLACEMENT(#38,#10);
#41= IFCBUILDING('3I65rSFA15EwCtHVDDwbqO',#5,'Undefined',$,$,#40,$,$,.ELEMENT.,$,$,$);
#42= IFCLOCALPLACEMENT(#40,#10);
#43= IFCBUILDINGSTOREY('29hdEUCErFze9E_VIAceOd',#5,'Undefined',$,$,#42,$,$,.ELEMENT.,0.);
#44= IFCOWNERHISTORY(#3,#4,$,.NOCHANGE.,$,$,$,1773147600);
#45= IFCCARTESIANPOINT((34165.0998810654,21999.9006958008,13675.));
#46= IFCAXIS2PLACEMENT3D(#45,#9,#7);
#47= IFCLOCALPLACEMENT(#42,#46);
#48= IFCDIRECTION((1.,0.));
#49= IFCCARTESIANPOINT((0.,0.));
#50= IFCAXIS2PLACEMENT2D(#49,#48);
#51= IFCISHAPEPROFILEDEF(.AREA.,'IPE450',#50,190.,450.,9.399999619,14.60000038,21.);
#52= IFCDIRECTION((0.,-1.,0.));
#53= IFCDIRECTION((-1.,0.,0.));
#54= IFCCARTESIANPOINT((8172.40011893461,0.,0.));
#55= IFCAXIS2PLACEMENT3D(#54,#53,#52);
#56= IFCEXTRUDEDAREASOLID(#51,#55,#9,8165.01);
#57= IFCCARTESIANPOINT((8172.40011893461,0.,-325.));
#58= IFCAXIS2PLACEMENT3D(#57,#53,#8);
#59= IFCPLANE(#58);
#60= IFCHALFSPACESOLID(#59,.T.);
#61= IFCBOOLEANCLIPPINGRESULT(.DIFFERENCE.,#56,#60);
#62= IFCCARTESIANPOINT((7.39005718052067,0.0993700520848506,-325.));
#63= IFCAXIS2PLACEMENT3D(#62,#7,#52);
#64= IFCPLANE(#63);
#65= IFCHALFSPACESOLID(#64,.T.);
#66= IFCBOOLEANCLIPPINGRESULT(.DIFFERENCE.,#61,#65);
#67= IFCSHAPEREPRESENTATION(#12,'Body','Clipping',(#66));
#68= IFCPRODUCTDEFINITIONSHAPE($,$,(#67));
#69= IFCBEAM('0w2NMJcIr7hRdDqmErGNzt',#44,'BEAM','IPE450','IPE450',#47,#68,'ID3a097593-992d-47ad-b9cd-d303b5417f77');
#70= IFCLOCALPLACEMENT(#42,#46);
#71= IFCRECTANGLEPROFILEDEF(.AREA.,'PL106*12',#50,12.,106.);
#72= IFCDIRECTION((0.,0.,-1.));
#73= IFCCARTESIANPOINT((8178.40011893461,-43.,226.));
#74= IFCAXIS2PLACEMENT3D(#73,#72,#53);
#75= IFCEXTRUDEDAREASOLID(#71,#74,#9,452.);
#76= IFCSHAPEREPRESENTATION(#12,'Body','SweptSolid',(#75));
#77= IFCPRODUCTDEFINITIONSHAPE($,$,(#76));
#78= IFCOPENINGELEMENT('2JzYpwOb5BFxTVHUbQrC9E',#5,$,$,'Recess',#70,#77,$);
#79= IFCRELVOIDSELEMENT('3uAetqOGv0s9jR3Ox_xxSx',#5,$,$,#69,#78);
#80= IFCPROPERTYSINGLEVALUE('FeatureSubTypes',$,$,$);
#81= IFCPROPERTYSINGLEVALUE('RectangleOpeningWidth',$,IFCPOSITIVELENGTHMEASURE(12.),$);
#82= IFCPROPERTYSINGLEVALUE('RectangleOpeningHeight',$,IFCPOSITIVELENGTHMEASURE(106.),$);
#83= IFCPROPERTYSINGLEVALUE('OpeningDiameter',$,$,$);
#84= IFCPROPERTYSET('0ocTz5ceLEfxMQYJsg8voG',#5,'AISC_EM11_Pset_Opening/Cope',$,(#80,#81,#82,#83));
#85= IFCLOCALPLACEMENT(#42,#46);
#86= IFCCARTESIANPOINT((8178.40011893461,43.,226.));
#87= IFCAXIS2PLACEMENT3D(#86,#72,#53);
#88= IFCEXTRUDEDAREASOLID(#71,#87,#9,452.);
#89= IFCSHAPEREPRESENTATION(#12,'Body','SweptSolid',(#88));
#90= IFCPRODUCTDEFINITIONSHAPE($,$,(#89));
#91= IFCOPENINGELEMENT('3depUKKhb5LgbOh5SVhgNR',#5,$,$,'Recess',#85,#90,$);
#92= IFCRELVOIDSELEMENT('10bmUKOeTEJPbF4sfbgLJN',#5,$,$,#69,#91);
#93= IFCLOCALPLACEMENT(#42,#46);
#94= IFCRECTANGLEPROFILEDEF(.AREA.,'PL106.1*12',#50,12.,106.1);
#95= IFCCARTESIANPOINT((-8.6050492715367,43.0496850260424,226.));
#96= IFCAXIS2PLACEMENT3D(#95,#72,#7);
#97= IFCEXTRUDEDAREASOLID(#94,#96,#9,452.);
#98= IFCSHAPEREPRESENTATION(#12,'Body','SweptSolid',(#97));
#99= IFCPRODUCTDEFINITIONSHAPE($,$,(#98));
#100= IFCOPENINGELEMENT('32FUfrD8P3MPZkHMpILHeF',#5,$,$,'Recess',#93,#99,$);
#101= IFCRELVOIDSELEMENT('1dZh1FijT3pPt9wzKz3Hw4',#5,$,$,#69,#100);
#102= IFCPROPERTYSINGLEVALUE('RectangleOpeningHeight',$,IFCPOSITIVELENGTHMEASURE(106.1),$);
#103= IFCPROPERTYSET('1Y50RvUET3$vW2LGJJCHSD',#5,'AISC_EM11_Pset_Opening/Cope',$,(#80,#81,#102,#83));
#104= IFCLOCALPLACEMENT(#42,#46);
#105= IFCRECTANGLEPROFILEDEF(.AREA.,'PL105.9*12',#50,12.,105.9);
#106= IFCCARTESIANPOINT((-8.6050492715367,-42.9503149739576,226.));
#107= IFCAXIS2PLACEMENT3D(#106,#72,#7);
#108= IFCEXTRUDEDAREASOLID(#105,#107,#9,452.);
#109= IFCSHAPEREPRESENTATION(#12,'Body','SweptSolid',(#108));
#110= IFCPRODUCTDEFINITIONSHAPE($,$,(#109));
#111= IFCOPENINGELEMENT('2oBpuPkfj1Vu4DtI93uNde',#5,$,$,'Recess',#104,#110,$);
#112= IFCRELVOIDSELEMENT('2jSDyP2ILBch0Qu_cchGyw',#5,$,$,#69,#111);
#113= IFCCARTESIANPOINT((42297.5,21999.9006958008,13450.));
#114= IFCAXIS2PLACEMENT3D(#113,#8,#53);
#115= IFCLOCALPLACEMENT(#42,#114);
#116= IFCCIRCLEPROFILEDEF(.AREA.,$,#50,11.5);
#117= IFCCARTESIANPOINT((0.,-0.1,0.));
#118= IFCAXIS2PLACEMENT3D(#117,#8,#7);
#119= IFCEXTRUDEDAREASOLID(#116,#118,#9,14.8);
#120= IFCSHAPEREPRESENTATION(#12,'Body','SweptSolid',(#119));
#121= IFCREPRESENTATIONMAP(#10,#120);
#122= IFCCARTESIANPOINT((0.,0.,50.));
#123= IFCCARTESIANTRANSFORMATIONOPERATOR3D($,$,#122,$,$);
#124= IFCMAPPEDITEM(#121,#123);
#125= IFCCARTESIANPOINT((70.,0.,50.));
#126= IFCCARTESIANTRANSFORMATIONOPERATOR3D($,$,#125,$,$);
#127= IFCMAPPEDITEM(#121,#126);
#128= IFCCARTESIANPOINT((140.,0.,50.));
#129= IFCCARTESIANTRANSFORMATIONOPERATOR3D($,$,#128,$,$);
#130= IFCMAPPEDITEM(#121,#129);
#131= IFCCARTESIANPOINT((210.,0.,50.));
#132= IFCCARTESIANTRANSFORMATIONOPERATOR3D($,$,#131,$,$);
#133= IFCMAPPEDITEM(#121,#132);
#134= IFCCARTESIANPOINT((280.,0.,50.));
#135= IFCCARTESIANTRANSFORMATIONOPERATOR3D($,$,#134,$,$);
#136= IFCMAPPEDITEM(#121,#135);
#137= IFCCARTESIANPOINT((350.,0.,50.));
#138= IFCCARTESIANTRANSFORMATIONOPERATOR3D($,$,#137,$,$);
#139= IFCMAPPEDITEM(#121,#138);
#140= IFCCARTESIANPOINT((420.,0.,50.));
#141= IFCCARTESIANTRANSFORMATIONOPERATOR3D($,$,#140,$,$);
#142= IFCMAPPEDITEM(#121,#141);
#143= IFCCARTESIANPOINT((0.,0.,-50.));
#144= IFCCARTESIANTRANSFORMATIONOPERATOR3D($,$,#143,$,$);
#145= IFCMAPPEDITEM(#121,#144);
#146= IFCCARTESIANPOINT((70.,0.,-50.));
#147= IFCCARTESIANTRANSFORMATIONOPERATOR3D($,$,#146,$,$);
#148= IFCMAPPEDITEM(#121,#147);
#149= IFCCARTESIANPOINT((140.,0.,-50.));
#150= IFCCARTESIANTRANSFORMATIONOPERATOR3D($,$,#149,$,$);
#151= IFCMAPPEDITEM(#121,#150);
#152= IFCCARTESIANPOINT((210.,0.,-50.));
#153= IFCCARTESIANTRANSFORMATIONOPERATOR3D($,$,#152,$,$);
#154= IFCMAPPEDITEM(#121,#153);
#155= IFCCARTESIANPOINT((280.,0.,-50.));
#156= IFCCARTESIANTRANSFORMATIONOPERATOR3D($,$,#155,$,$);
#157= IFCMAPPEDITEM(#121,#156);
#158= IFCCARTESIANPOINT((350.,0.,-50.));
#159= IFCCARTESIANTRANSFORMATIONOPERATOR3D($,$,#158,$,$);
#160= IFCMAPPEDITEM(#121,#159);
#161= IFCCARTESIANPOINT((420.,0.,-50.));
#162= IFCCARTESIANTRANSFORMATIONOPERATOR3D($,$,#161,$,$);
#163= IFCMAPPEDITEM(#121,#162);
#164= IFCSHAPEREPRESENTATION(#12,'Body','MappedRepresentation',(#124,#127,#130,#133,#136,#139,#142,#145,#148,#151,#154,#157,#160,#163));
#165= IFCPRODUCTDEFINITIONSHAPE($,$,(#164));
#166= IFCOPENINGELEMENT('1hZViwgs16$eWpKvDFP69t',#5,$,$,'Opening',#115,#165,$);
#167= IFCRELVOIDSELEMENT('3_H80xEdTB$8LujulyFFpc',#5,'Drill Hole',$,#69,#166);
#168= IFCPROPERTYSINGLEVALUE('FeatureSubTypes',$,IFCLABEL('TORNILLO'),$);
#169= IFCPROPERTYSINGLEVALUE('RectangleOpeningWidth',$,$,$);
#170= IFCPROPERTYSINGLEVALUE('RectangleOpeningHeight',$,$,$);
#171= IFCPROPERTYSET('1GGYouE012a9RHp9G51ga4',#5,'AISC_EM11_Pset_Opening/Cope',$,(#168,#169,#170,#83));
#172= IFCCARTESIANPOINT((42297.5,21999.9006958008,13900.));
#173= IFCAXIS2PLACEMENT3D(#172,#52,#53);
#174= IFCLOCALPLACEMENT(#42,#173);
#175= IFCSHAPEREPRESENTATION(#12,'Body','MappedRepresentation',(#145,#148,#151,#154,#157,#160,#163,#124,#127,#130,#133,#136,#139,#142));
#176= IFCPRODUCTDEFINITIONSHAPE($,$,(#175));
#177= IFCOPENINGELEMENT('14OXv3r8P53PvFW_qN0pyn',#5,$,$,'Opening',#174,#176,$);
#178= IFCRELVOIDSELEMENT('0AER2G_af4I98HPJrxGDrH',#5,'Drill Hole',$,#69,#177);
#179= IFCCARTESIANPOINT((42337.5,21999.9006958008,13900.));
#180= IFCAXIS2PLACEMENT3D(#179,#53,#72);
#181= IFCLOCALPLACEMENT(#42,#180);
#182= IFCCARTESIANPOINT((0.,-4.79999980950159,0.));
#183= IFCAXIS2PLACEMENT3D(#182,#8,#7);
#184= IFCEXTRUDEDAREASOLID(#116,#183,#9,9.6);
#185= IFCSHAPEREPRESENTATION(#12,'Body','SweptSolid',(#184));
#186= IFCREPRESENTATIONMAP(#10,#185);
#187= IFCCARTESIANPOINT((85.,0.,40.));
#188= IFCCARTESIANTRANSFORMATIONOPERATOR3D($,$,#187,$,$);
#189= IFCMAPPEDITEM(#186,#188);
#190= IFCCARTESIANPOINT((155.,0.,40.));
#191= IFCCARTESIANTRANSFORMATIONOPERATOR3D($,$,#190,$,$);
#192= IFCMAPPEDITEM(#186,#191);
#193= IFCCARTESIANPOINT((225.,0.,40.));
#194= IFCCARTESIANTRANSFORMATIONOPERATOR3D($,$,#193,$,$);
#195= IFCMAPPEDITEM(#186,#194);
#196= IFCCARTESIANPOINT((295.,0.,40.));
#197= IFCCARTESIANTRANSFORMATIONOPERATOR3D($,$,#196,$,$);
#198= IFCMAPPEDITEM(#186,#197);
#199= IFCCARTESIANPOINT((365.,0.,40.));
#200= IFCCARTESIANTRANSFORMATIONOPERATOR3D($,$,#199,$,$);
#201= IFCMAPPEDITEM(#186,#200);
#202= IFCSHAPEREPRESENTATION(#12,'Body','MappedRepresentation',(#189,#192,#195,#198,#201));
#203= IFCPRODUCTDEFINITIONSHAPE($,$,(#202));
#204= IFCOPENINGELEMENT('16WFPNSgb2qAWtbmxcmOeN',#5,$,$,'Opening',#181,#203,$);
#205= IFCRELVOIDSELEMENT('0Je0AzxCDAcA9jW$rkaWMi',#5,'Drill Hole',$,#69,#204);
#206= IFCCARTESIANPOINT((34172.4898537648,21999.9395608686,13900.));
#207= IFCDIRECTION((-0.999996100900047,0.00279252299971995,0.));
#208= IFCAXIS2PLACEMENT3D(#206,#207,#72);
#209= IFCLOCALPLACEMENT(#42,#208);
#210= IFCCARTESIANPOINT((0.,-4.87285427137491,0.));
#211= IFCAXIS2PLACEMENT3D(#210,#8,#7);
#212= IFCEXTRUDEDAREASOLID(#116,#211,#9,9.6);
#213= IFCSHAPEREPRESENTATION(#12,'Body','SweptSolid',(#212));
#214= IFCREPRESENTATIONMAP(#10,#213);
#215= IFCCARTESIANPOINT((85.,0.,-40.0000000001237));
#216= IFCCARTESIANTRANSFORMATIONOPERATOR3D($,$,#215,$,$);
#217= IFCMAPPEDITEM(#214,#216);
#218= IFCCARTESIANPOINT((155.,0.,-40.0000000001237));
#219= IFCCARTESIANTRANSFORMATIONOPERATOR3D($,$,#218,$,$);
#220= IFCMAPPEDITEM(#214,#219);
#221= IFCCARTESIANPOINT((225.,0.,-40.0000000001237));
#222= IFCCARTESIANTRANSFORMATIONOPERATOR3D($,$,#221,$,$);
#223= IFCMAPPEDITEM(#214,#222);
#224= IFCCARTESIANPOINT((295.,0.,-40.0000000001237));
#225= IFCCARTESIANTRANSFORMATIONOPERATOR3D($,$,#224,$,$);
#226= IFCMAPPEDITEM(#214,#225);
#227= IFCCARTESIANPOINT((365.,0.,-40.0000000001237));
#228= IFCCARTESIANTRANSFORMATIONOPERATOR3D($,$,#227,$,$);
#229= IFCMAPPEDITEM(#214,#228);
#230= IFCSHAPEREPRESENTATION(#12,'Body','MappedRepresentation',(#217,#220,#223,#226,#229));
#231= IFCPRODUCTDEFINITIONSHAPE($,$,(#230));
#232= IFCOPENINGELEMENT('0lXifLO8L7Bgm4UzST4QC5',#5,$,$,'Opening',#209,#231,$);
#233= IFCRELVOIDSELEMENT('2W8nvQ0Nv1VxmxHf4w2sAS',#5,'Drill Hole',$,#69,#232);
#234= IFCCARTESIANPOINT((34212.5133215959,21999.6481556485,13450.));
#235= IFCDIRECTION((0.000467666999837092,-0.999999890643783,0.));
#236= IFCDIRECTION((0.999999890643783,0.000467666999833834,0.));
#237= IFCAXIS2PLACEMENT3D(#234,#235,#236);
#238= IFCLOCALPLACEMENT(#42,#237);
#239= IFCSHAPEREPRESENTATION(#12,'Body','MappedRepresentation',(#145,#148,#151,#154,#157,#160,#163,#124,#127,#130,#133,#136,#139,#142));
#240= IFCPRODUCTDEFINITIONSHAPE($,$,(#239));
#241= IFCOPENINGELEMENT('0pHlJ77zPEIO940j8zvMMi',#5,$,$,'Opening',#238,#240,$);
#242= IFCRELVOIDSELEMENT('1Dr18EcK9BzPJJZuv$1Dw_',#5,'Drill Hole',$,#69,#241);
#243= IFCCARTESIANPOINT((34212.5133215959,21999.6481556485,13900.));
#244= IFCDIRECTION((-0.000467666999829816,0.999999890643783,0.));
#245= IFCAXIS2PLACEMENT3D(#243,#244,#236);
#246= IFCLOCALPLACEMENT(#42,#245);
#247= IFCSHAPEREPRESENTATION(#12,'Body','MappedRepresentation',(#145,#148,#151,#154,#157,#160,#163,#124,#127,#130,#133,#136,#139,#142));
#248= IFCPRODUCTDEFINITIONSHAPE($,$,(#247));
#249= IFCOPENINGELEMENT('0sGFPydDT0rOp7AiGK7iOi',#5,$,$,'Opening',#246,#248,$);
#250= IFCRELVOIDSELEMENT('2zBSaihL17b96IcduIw6nJ',#5,'Drill Hole',$,#69,#249);
#251= IFCPROPERTYSINGLEVALUE('PieceMark',$,IFCIDENTIFIER('BEAM'),$);
#252= IFCPROPERTYSINGLEVALUE('IndicationMark',$,IFCIDENTIFIER('b/109'),$);
#253= IFCPROPERTYSINGLEVALUE('PrelimMark',$,IFCIDENTIFIER(''),$);
#254= IFCPROPERTYSINGLEVALUE('MainPieceTag',$,IFCBOOLEAN(.T.),$);
#255= IFCPROPERTYSET('1Iw6mRDqj08vGDxhYIfEey',#5,'AISC_EM11_Pset_PieceIdentification','PieceIdentity',(#251,#252,#253,#254));
#256= IFCPROPERTYSINGLEVALUE('MaterialType',$,IFCIDENTIFIER('STEEL'),$);
#257= IFCPROPERTYSINGLEVALUE('MaterialGrade',$,IFCIDENTIFIER('S235JR'),$);
#258= IFCPROPERTYSET('1ML7Unxbv60vcOhwQvuEWv',#5,'AISC_EM11_Pset_Material',$,(#256,#257));
#259= IFCPROPERTYSINGLEVALUE('SkewedAngleY',$,IFCREAL(0.),$);
#260= IFCPROPERTYSINGLEVALUE('SkewedAngleX',$,IFCREAL(0.),$);
#261= IFCPROPERTYSET('31LhnADxf8xeGcggtYW$we',#5,'AISC_EM11_Pset_SkewedEnd',$,(#259,#260));
#262= IFCPROPERTYSET('0PKPa73oLA6P5uhBzSvt1u',#5,'AISC_EM11_Pset_SkewedEnd_2',$,(#259,#260));
#263= IFCMATERIAL('STEEL/S235JR');
#264= IFCRELAGGREGATES('1x0nZkN4HA6OmhmTJou14D',#5,$,$,#37,(#39));
#265= IFCRELAGGREGATES('2DI3r0fMZSOg2z2lb4AJMV',#5,$,$,#39,(#41));
#266= IFCRELAGGREGATES('1vBdF7M1b1RPy6KRL38Khp',#5,$,$,#41,(#43));
#267= IFCRELCONTAINEDINSPATIALSTRUCTURE('0hpfP2vVr7lA4YMbrlKqkx',#5,$,$,(#69),#43);
#268= IFCRELDEFINESBYPROPERTIES('00uYCVJon8ROrx1ONOBZq0',#5,$,$,(#111,#91,#78),#84);
#269= IFCRELDEFINESBYPROPERTIES('0UxCzKnZn28Rx0lk$U5wse',#5,$,$,(#100),#103);
#270= IFCRELDEFINESBYPROPERTIES('2CtX8Myjn8PuzG2WseG$6Q',#5,$,$,(#249,#241,#232,#204,#177,#166),#171);
#271= IFCRELDEFINESBYPROPERTIES('0qaQD8pWL7BOBK1tYL33Ee',#5,$,$,(#69),#255);
#272= IFCRELDEFINESBYPROPERTIES('3s9BAG0_jCrBUT0ymeGiV$',#5,$,$,(#69),#258);
#273= IFCRELDEFINESBYPROPERTIES('275R4jBij5fRmA0WbcN95r',#5,$,$,(#69),#261);
#274= IFCRELDEFINESBYPROPERTIES('1EsT7WBBH2DuNCcUfZlZef',#5,$,$,(#69),#262);
#275= IFCRELASSOCIATESMATERIAL('2sTq1PPyjDefKMGTXZ2Bfb',#5,$,$,(#69),#263);
ENDSEC;

END-ISO-10303-21;
