ISO-10303-21;
HEADER;
FILE_DESCRIPTION(('ViewDefinition[AISC_Steel_Detailing]', 'Option [BaseQuantities:Off]', 'Option [GridExport:On]', 'Option [Assemblies:Off]', 'Option [Bolts:On]', 'Option [Rebars:On]', 'Option [PourObjects:Off]', 'Option [Welds:On]', 'Option [SurfaceTreatments:On]', 'Option [LocationBy:0]', 'Option [ViewColors:Off]', 'Option [SectionedSpine:Off]', 'Option [PropertySets:On]', 'Option [Export all:Off]'),'2;1');
FILE_NAME('b_1047_Qty_1.ifc','2026-05-16T11:52:53',('GIOVANNIPC\\gcorrea'),('Structural Designer'),'IFC Database version: Work','Tekla Structures 2020 Service Pack 5, IFC Export Version: 4.0.0.0 Dec  7 2020','');
FILE_SCHEMA(('IFC2X3'));
ENDSEC;

DATA;
#1= IFCPERSON('GIOVANNIPC\\gcorrea','Undefined',$,$,$,$,$,$);
#2= IFCORGANIZATION($,'Trimble Solutions Corporation',$,$,$);
#3= IFCPERSONANDORGANIZATION(#1,#2,$);
#4= IFCAPPLICATION(#2,'2020 Service Pack 5','Tekla Structures','Multi material modeling');
#5= IFCOWNERHISTORY(#3,#4,$,.NOCHANGE.,$,$,$,1778950373);
#6= IFCCARTESIANPOINT((0.,0.,0.));
#7= IFCDIRECTION((1.,0.,0.));
#8= IFCDIRECTION((0.,1.,0.));
#9= IFCDIRECTION((0.,0.,1.));
#10= IFCAXIS2PLACEMENT3D(#6,#9,#7);
#11= IFCGEOMETRICREPRESENTATIONCONTEXT($,'Model',3,1.E-05,#10,$);
#12= IFCGEOMETRICREPRESENTATIONSUBCONTEXT('Body','Model',*,*,*,*,#11,$,.MODEL_VIEW.,$);
#13= IFCGEOMETRICREPRESENTATIONSUBCONTEXT('Axis','Model',*,*,*,*,#11,$,.GRAPH_VIEW.,$);
#14= IFCGEOMETRICREPRESENTATIONSUBCONTEXT('FootPrint','Model',*,*,*,*,#11,$,.MODEL_VIEW.,$);
#15= IFCSIUNIT(*,.LENGTHUNIT.,.MILLI.,.METRE.);
#16= IFCMEASUREWITHUNIT(IFCRATIOMEASURE(304.8),#15);
#17= IFCDIMENSIONALEXPONENTS(1,0,0,0,0,0,0);
#18= IFCCONVERSIONBASEDUNIT(#17,.LENGTHUNIT.,'FOOT',#16);
#19= IFCSIUNIT(*,.AREAUNIT.,$,.SQUARE_METRE.);
#20= IFCMEASUREWITHUNIT(IFCRATIOMEASURE(0.09290304),#19);
#21= IFCDIMENSIONALEXPONENTS(2,0,0,0,0,0,0);
#22= IFCCONVERSIONBASEDUNIT(#21,.AREAUNIT.,'SQUARE FOOT',#20);
#23= IFCSIUNIT(*,.VOLUMEUNIT.,$,.CUBIC_METRE.);
#24= IFCMEASUREWITHUNIT(IFCRATIOMEASURE(0.028316846592),#23);
#25= IFCDIMENSIONALEXPONENTS(3,0,0,0,0,0,0);
#26= IFCCONVERSIONBASEDUNIT(#25,.VOLUMEUNIT.,'CUBIC FOOT',#24);
#27= IFCSIUNIT(*,.MASSUNIT.,.KILO.,.GRAM.);
#28= IFCSIUNIT(*,.TIMEUNIT.,$,.SECOND.);
#29= IFCSIUNIT(*,.PLANEANGLEUNIT.,$,.RADIAN.);
#30= IFCMEASUREWITHUNIT(IFCRATIOMEASURE(0.0174532925199433),#29);
#31= IFCDIMENSIONALEXPONENTS(0,0,0,0,0,0,0);
#32= IFCCONVERSIONBASEDUNIT(#31,.PLANEANGLEUNIT.,'DEGREE',#30);
#33= IFCSIUNIT(*,.SOLIDANGLEUNIT.,$,.STERADIAN.);
#34= IFCSIUNIT(*,.THERMODYNAMICTEMPERATUREUNIT.,$,.DEGREE_CELSIUS.);
#35= IFCSIUNIT(*,.LUMINOUSINTENSITYUNIT.,$,.LUMEN.);
#36= IFCUNITASSIGNMENT((#15,#19,#23,#27,#28,#29,#33,#34,#35));
#37= IFCPROJECT('2G7ZFDNE16yBDU14FA92Me',#5,'Proyecto',$,$,$,$,(#11),#36);
#38= IFCLOCALPLACEMENT($,#10);
#39= IFCSITE('2xvEzEinjBTea80yOTcujY',#5,'Obra',$,$,#38,$,$,.ELEMENT.,$,$,$,$,$);
#40= IFCLOCALPLACEMENT(#38,#10);
#41= IFCBUILDING('0mtPsJ21PA0v6i8974Cx75',#5,'Undefined',$,$,#40,$,$,.ELEMENT.,$,$,$);
#42= IFCLOCALPLACEMENT(#40,#10);
#43= IFCBUILDINGSTOREY('29hdEUCErFze9E_VIAceOd',#5,'Undefined',$,$,#42,$,$,.ELEMENT.,0.);
#44= IFCOWNERHISTORY(#3,#4,$,.NOCHANGE.,$,$,$,1774018800);
#45= IFCCARTESIANPOINT((76700.0963916602,8120.13871810794,19130.));
#46= IFCDIRECTION((0.999999999902294,1.39789999986351E-05,0.));
#47= IFCAXIS2PLACEMENT3D(#45,#9,#46);
#48= IFCLOCALPLACEMENT(#42,#47);
#49= IFCDIRECTION((1.,0.));
#50= IFCCARTESIANPOINT((0.,0.));
#51= IFCAXIS2PLACEMENT2D(#50,#49);
#52= IFCISHAPEPROFILEDEF(.AREA.,'HEA450',#51,300.,440.,11.5,21.,27.);
#53= IFCDIRECTION((0.,-1.,0.));
#54= IFCDIRECTION((-1.,0.,0.));
#55= IFCCARTESIANPOINT((4876.86865984244,0.,0.));
#56= IFCAXIS2PLACEMENT3D(#55,#54,#53);
#57= IFCEXTRUDEDAREASOLID(#52,#56,#9,4857.87);
#58= IFCDIRECTION((-0.999999999902294,1.39789999957429E-05,0.));
#59= IFCCARTESIANPOINT((4876.86444134077,1.22289012503734,-325.));
#60= IFCDIRECTION((1.39789999957429E-05,0.999999999902294,0.));
#61= IFCAXIS2PLACEMENT3D(#59,#58,#60);
#62= IFCPLANE(#61);
#63= IFCHALFSPACESOLID(#62,.T.);
#64= IFCBOOLEANCLIPPINGRESULT(.DIFFERENCE.,#57,#63);
#65= IFCDIRECTION((0.999999999902294,-1.39790000186302E-05,0.));
#66= IFCCARTESIANPOINT((18.9979031714029,-150.,0.));
#67= IFCAXIS2PLACEMENT3D(#66,#65,#9);
#68= IFCPLANE(#67);
#69= IFCHALFSPACESOLID(#68,.T.);
#70= IFCBOOLEANCLIPPINGRESULT(.DIFFERENCE.,#64,#69);
#71= IFCSHAPEREPRESENTATION(#12,'Body','Clipping',(#70));
#72= IFCPRODUCTDEFINITIONSHAPE($,$,(#71));
#73= IFCBEAM('3mMyi_kg55jRrOy6IytA3s',#44,'BEAM','HEA450','HEA450',#48,#72,'IDf05bcb3e-baa1-45b5-bd58-f064bcdca0f6');
#74= IFCLOCALPLACEMENT(#42,#47);
#75= IFCRECTANGLEPROFILEDEF(.AREA.,'PL163.2*12',#51,12.,163.2);
#76= IFCDIRECTION((0.,0.,-1.));
#77= IFCCARTESIANPOINT((4892.87221790075,-69.3968170040825,221.));
#78= IFCAXIS2PLACEMENT3D(#77,#76,#58);
#79= IFCEXTRUDEDAREASOLID(#75,#78,#9,442.);
#80= IFCSHAPEREPRESENTATION(#12,'Body','SweptSolid',(#79));
#81= IFCPRODUCTDEFINITIONSHAPE($,$,(#80));
#82= IFCOPENINGELEMENT('2lKAn58wz7p9CsIa0wyBEF',#5,$,$,'Recess',#74,#81,$);
#83= IFCRELVOIDSELEMENT('0knobyC3f1DQ$5WieDteXT',#5,$,$,#73,#82);
#84= IFCPROPERTYSINGLEVALUE('FeatureSubTypes',$,$,$);
#85= IFCPROPERTYSINGLEVALUE('RectangleOpeningWidth',$,IFCPOSITIVELENGTHMEASURE(12.),$);
#86= IFCPROPERTYSINGLEVALUE('RectangleOpeningHeight',$,IFCPOSITIVELENGTHMEASURE(163.2),$);
#87= IFCPROPERTYSINGLEVALUE('OpeningDiameter',$,$,$);
#88= IFCPROPERTYSET('3WYpDYOYLAC8Jmnl2HNqyH',#5,'AISC_EM11_Pset_Opening/Cope',$,(#84,#85,#86,#87));
#89= IFCLOCALPLACEMENT(#42,#47);
#90= IFCRECTANGLEPROFILEDEF(.AREA.,'PL162.8*12',#51,12.,162.8);
#91= IFCCARTESIANPOINT((4892.87416098174,69.603182982336,221.));
#92= IFCAXIS2PLACEMENT3D(#91,#76,#58);
#93= IFCEXTRUDEDAREASOLID(#90,#92,#9,442.);
#94= IFCSHAPEREPRESENTATION(#12,'Body','SweptSolid',(#93));
#95= IFCPRODUCTDEFINITIONSHAPE($,$,(#94));
#96= IFCOPENINGELEMENT('2YEMWEEDn2ke3gGM0NfVHP',#5,$,$,'Recess',#89,#95,$);
#97= IFCRELVOIDSELEMENT('2tYeV5Aqb3_gRCad3VKjdQ',#5,$,$,#73,#96);
#98= IFCPROPERTYSINGLEVALUE('RectangleOpeningHeight',$,IFCPOSITIVELENGTHMEASURE(162.8),$);
#99= IFCPROPERTYSET('3$XGwBQ3r6BvLxXDHafyC5',#5,'AISC_EM11_Pset_Opening/Cope',$,(#84,#85,#98,#87));
#100= IFCLOCALPLACEMENT(#42,#47);
#101= IFCRECTANGLEPROFILEDEF(.AREA.,'PL108*12',#51,12.,108.);
#102= IFCCARTESIANPOINT((4892.86385422121,-40.7773335348584,226.));
#103= IFCAXIS2PLACEMENT3D(#102,#76,#58);
#104= IFCEXTRUDEDAREASOLID(#101,#103,#9,452.);
#105= IFCSHAPEREPRESENTATION(#12,'Body','SweptSolid',(#104));
#106= IFCPRODUCTDEFINITIONSHAPE($,$,(#105));
#107= IFCOPENINGELEMENT('2$eckbBLb7iR1KoCo4BIGS',#5,$,$,'Recess',#100,#106,$);
#108= IFCRELVOIDSELEMENT('31XQ2gRQvAqQCxkOkfEz$R',#5,$,$,#73,#107);
#109= IFCPROPERTYSINGLEVALUE('RectangleOpeningHeight',$,IFCPOSITIVELENGTHMEASURE(108.),$);
#110= IFCPROPERTYSET('3uPMb0LKHFfRfhOCTr3oz2',#5,'AISC_EM11_Pset_Opening/Cope',$,(#84,#85,#109,#87));
#111= IFCLOCALPLACEMENT(#42,#47);
#112= IFCCARTESIANPOINT((4892.86502845722,43.2226664569343,226.));
#113= IFCAXIS2PLACEMENT3D(#112,#76,#58);
#114= IFCEXTRUDEDAREASOLID(#101,#113,#9,452.);
#115= IFCSHAPEREPRESENTATION(#12,'Body','SweptSolid',(#114));
#116= IFCPRODUCTDEFINITIONSHAPE($,$,(#115));
#117= IFCOPENINGELEMENT('1HsHYM14f4MQFGp4FHzL_6',#5,$,$,'Recess',#111,#116,$);
#118= IFCRELVOIDSELEMENT('3h7AtFpSn6kgsEOnEoCG_B',#5,$,$,#73,#117);
#119= IFCCARTESIANPOINT((81531.9783238786,8120.78390814237,18910.));
#120= IFCDIRECTION((-7.12890000286279E-05,0.999999997458939,0.));
#121= IFCDIRECTION((-0.999999997458939,-7.12890000326365E-05,0.));
#122= IFCAXIS2PLACEMENT3D(#119,#120,#121);
#123= IFCLOCALPLACEMENT(#42,#122);
#124= IFCCIRCLEPROFILEDEF(.AREA.,$,#51,11.5);
#125= IFCCARTESIANPOINT((0.,-0.0999999999969234,0.));
#126= IFCAXIS2PLACEMENT3D(#125,#8,#7);
#127= IFCEXTRUDEDAREASOLID(#124,#126,#9,21.2);
#128= IFCSHAPEREPRESENTATION(#12,'Body','SweptSolid',(#127));
#129= IFCREPRESENTATIONMAP(#10,#128);
#130= IFCCARTESIANPOINT((2.7648638933897E-10,0.,74.99999999999));
#131= IFCCARTESIANTRANSFORMATIONOPERATOR3D($,$,#130,$,$);
#132= IFCMAPPEDITEM(#129,#131);
#133= IFCCARTESIANPOINT((74.999999999447,0.,75.0000000005348));
#134= IFCCARTESIANTRANSFORMATIONOPERATOR3D($,$,#133,$,$);
#135= IFCMAPPEDITEM(#129,#134);
#136= IFCCARTESIANPOINT((149.999999998618,0.,75.0000000010814));
#137= IFCCARTESIANTRANSFORMATIONOPERATOR3D($,$,#136,$,$);
#138= IFCMAPPEDITEM(#129,#137);
#139= IFCCARTESIANPOINT((224.999999997788,0.,75.0000000016262));
#140= IFCCARTESIANTRANSFORMATIONOPERATOR3D($,$,#139,$,$);
#141= IFCMAPPEDITEM(#129,#140);
#142= IFCCARTESIANPOINT((299.999999996959,0.,75.0000000021728));
#143= IFCCARTESIANTRANSFORMATIONOPERATOR3D($,$,#142,$,$);
#144= IFCMAPPEDITEM(#129,#143);
#145= IFCCARTESIANPOINT((374.999999996129,0.,75.0000000027176));
#146= IFCCARTESIANTRANSFORMATIONOPERATOR3D($,$,#145,$,$);
#147= IFCMAPPEDITEM(#129,#146);
#148= IFCCARTESIANPOINT((449.9999999953,0.,75.0000000032642));
#149= IFCCARTESIANTRANSFORMATIONOPERATOR3D($,$,#148,$,$);
#150= IFCMAPPEDITEM(#129,#149);
#151= IFCCARTESIANPOINT((524.99999999447,0.,75.000000003809));
#152= IFCCARTESIANTRANSFORMATIONOPERATOR3D($,$,#151,$,$);
#153= IFCMAPPEDITEM(#129,#152);
#154= IFCCARTESIANPOINT((599.999999993641,0.,75.0000000043556));
#155= IFCCARTESIANTRANSFORMATIONOPERATOR3D($,$,#154,$,$);
#156= IFCMAPPEDITEM(#129,#155);
#157= IFCCARTESIANPOINT((674.999999992811,0.,75.0000000049013));
#158= IFCCARTESIANTRANSFORMATIONOPERATOR3D($,$,#157,$,$);
#159= IFCMAPPEDITEM(#129,#158);
#160= IFCCARTESIANPOINT((-2.7648638933897E-10,0.,-74.99999999999));
#161= IFCCARTESIANTRANSFORMATIONOPERATOR3D($,$,#160,$,$);
#162= IFCMAPPEDITEM(#129,#161);
#163= IFCCARTESIANPOINT((74.9999999988941,0.,-74.9999999994443));
#164= IFCCARTESIANTRANSFORMATIONOPERATOR3D($,$,#163,$,$);
#165= IFCMAPPEDITEM(#129,#164);
#166= IFCCARTESIANPOINT((149.999999998065,0.,-74.9999999988986));
#167= IFCCARTESIANTRANSFORMATIONOPERATOR3D($,$,#166,$,$);
#168= IFCMAPPEDITEM(#129,#167);
#169= IFCCARTESIANPOINT((224.999999997235,0.,-74.9999999983529));
#170= IFCCARTESIANTRANSFORMATIONOPERATOR3D($,$,#169,$,$);
#171= IFCMAPPEDITEM(#129,#170);
#172= IFCCARTESIANPOINT((299.999999996406,0.,-74.9999999978063));
#173= IFCCARTESIANTRANSFORMATIONOPERATOR3D($,$,#172,$,$);
#174= IFCMAPPEDITEM(#129,#173);
#175= IFCCARTESIANPOINT((374.999999995576,0.,-74.9999999972615));
#176= IFCCARTESIANTRANSFORMATIONOPERATOR3D($,$,#175,$,$);
#177= IFCMAPPEDITEM(#129,#176);
#178= IFCCARTESIANPOINT((449.999999994761,0.,-74.9999999967158));
#179= IFCCARTESIANTRANSFORMATIONOPERATOR3D($,$,#178,$,$);
#180= IFCMAPPEDITEM(#129,#179);
#181= IFCCARTESIANPOINT((524.999999993932,0.,-74.9999999961701));
#182= IFCCARTESIANTRANSFORMATIONOPERATOR3D($,$,#181,$,$);
#183= IFCMAPPEDITEM(#129,#182);
#184= IFCCARTESIANPOINT((599.999999993102,0.,-74.9999999956244));
#185= IFCCARTESIANTRANSFORMATIONOPERATOR3D($,$,#184,$,$);
#186= IFCMAPPEDITEM(#129,#185);
#187= IFCCARTESIANPOINT((674.999999992273,0.,-74.9999999950787));
#188= IFCCARTESIANTRANSFORMATIONOPERATOR3D($,$,#187,$,$);
#189= IFCMAPPEDITEM(#129,#188);
#190= IFCSHAPEREPRESENTATION(#12,'Body','MappedRepresentation',(#132,#135,#138,#141,#144,#147,#150,#153,#156,#159,#162,#165,#168,#171,#174,#177,#180,#183,#186,#189));
#191= IFCPRODUCTDEFINITIONSHAPE($,$,(#190));
#192= IFCOPENINGELEMENT('3nKegNSln8YwOr5LHkHtfs',#5,$,$,'Opening',#123,#191,$);
#193= IFCRELVOIDSELEMENT('3XAM_KS5f2ixLcQ03RIhni',#5,'Drill Hole',$,#73,#192);
#194= IFCPROPERTYSINGLEVALUE('FeatureSubTypes',$,IFCLABEL('TORNILLO'),$);
#195= IFCPROPERTYSINGLEVALUE('RectangleOpeningWidth',$,$,$);
#196= IFCPROPERTYSINGLEVALUE('RectangleOpeningHeight',$,$,$);
#197= IFCPROPERTYSET('2gAK65NT17yhUIA2sCCX$j',#5,'AISC_EM11_Pset_Opening/Cope',$,(#194,#195,#196,#87));
#198= IFCCARTESIANPOINT((81531.9783238786,8120.78390814237,19350.));
#199= IFCDIRECTION((7.12890000286279E-05,-0.999999997458939,0.));
#200= IFCAXIS2PLACEMENT3D(#198,#199,#121);
#201= IFCLOCALPLACEMENT(#42,#200);
#202= IFCSHAPEREPRESENTATION(#12,'Body','MappedRepresentation',(#162,#165,#168,#171,#174,#177,#180,#183,#186,#189,#132,#135,#138,#141,#144,#147,#150,#153,#156,#159));
#203= IFCPRODUCTDEFINITIONSHAPE($,$,(#202));
#204= IFCOPENINGELEMENT('1pndk8Z7X33RA3jES5XqWZ',#5,$,$,'Opening',#201,#203,$);
#205= IFCRELVOIDSELEMENT('0UhFdkPRL4rAzT27iv2Ug$',#5,'Drill Hole',$,#73,#204);
#206= IFCCARTESIANPOINT((81576.9783429322,8120.21012843586,19350.));
#207= IFCAXIS2PLACEMENT3D(#206,#54,#76);
#208= IFCLOCALPLACEMENT(#42,#207);
#209= IFCCIRCLEPROFILEDEF(.AREA.,$,#51,12.5);
#210= IFCCARTESIANPOINT((0.,-5.84613455024478,0.));
#211= IFCAXIS2PLACEMENT3D(#210,#8,#7);
#212= IFCEXTRUDEDAREASOLID(#209,#211,#9,11.7);
#213= IFCSHAPEREPRESENTATION(#12,'Body','SweptSolid',(#212));
#214= IFCREPRESENTATIONMAP(#10,#213);
#215= IFCCARTESIANPOINT((107.5,0.,45.));
#216= IFCCARTESIANTRANSFORMATIONOPERATOR3D($,$,#215,$,$);
#217= IFCMAPPEDITEM(#214,#216);
#218= IFCCARTESIANPOINT((182.5,0.,45.));
#219= IFCCARTESIANTRANSFORMATIONOPERATOR3D($,$,#218,$,$);
#220= IFCMAPPEDITEM(#214,#219);
#221= IFCCARTESIANPOINT((257.5,0.,45.));
#222= IFCCARTESIANTRANSFORMATIONOPERATOR3D($,$,#221,$,$);
#223= IFCMAPPEDITEM(#214,#222);
#224= IFCCARTESIANPOINT((332.5,0.,45.));
#225= IFCCARTESIANTRANSFORMATIONOPERATOR3D($,$,#224,$,$);
#226= IFCMAPPEDITEM(#214,#225);
#227= IFCSHAPEREPRESENTATION(#12,'Body','MappedRepresentation',(#217,#220,#223,#226));
#228= IFCPRODUCTDEFINITIONSHAPE($,$,(#227));
#229= IFCOPENINGELEMENT('3SFjSLpm5BRBdJLOvRNqQ5',#5,$,$,'Opening',#208,#228,$);
#230= IFCRELVOIDSELEMENT('1ijpe2UDL04gOSnlhEmX9h',#5,'Drill Hole',$,#73,#229);
#231= IFCPROPERTYSINGLEVALUE('PieceMark',$,IFCIDENTIFIER('BEAM'),$);
#232= IFCPROPERTYSINGLEVALUE('IndicationMark',$,IFCIDENTIFIER('b/1047'),$);
#233= IFCPROPERTYSINGLEVALUE('PrelimMark',$,IFCIDENTIFIER(''),$);
#234= IFCPROPERTYSINGLEVALUE('MainPieceTag',$,IFCBOOLEAN(.T.),$);
#235= IFCPROPERTYSET('0i5sclzVr57esnu5nZ56ug',#5,'AISC_EM11_Pset_PieceIdentification','PieceIdentity',(#231,#232,#233,#234));
#236= IFCPROPERTYSINGLEVALUE('MaterialType',$,IFCIDENTIFIER('STEEL'),$);
#237= IFCPROPERTYSINGLEVALUE('MaterialGrade',$,IFCIDENTIFIER('S235JR'),$);
#238= IFCPROPERTYSET('2sks7bomD9e8eKy2uii1D3',#5,'AISC_EM11_Pset_Material',$,(#236,#237));
#239= IFCPROPERTYSINGLEVALUE('SkewedAngleY',$,IFCREAL(0.),$);
#240= IFCPROPERTYSINGLEVALUE('SkewedAngleX',$,IFCREAL(0.0008),$);
#241= IFCPROPERTYSET('1rPIoChWD5O8WleADGJy$0',#5,'AISC_EM11_Pset_SkewedEnd',$,(#239,#240));
#242= IFCPROPERTYSET('1AzRPIAXr7B9nb9bcuAsYG',#5,'AISC_EM11_Pset_SkewedEnd_2',$,(#239,#240));
#243= IFCMATERIAL('STEEL/S235JR');
#244= IFCRELAGGREGATES('2aJYgtRMXC6w9quJA918nd',#5,$,$,#37,(#39));
#245= IFCRELAGGREGATES('2sbqy9jepUOCR6AbSRJQ3v',#5,$,$,#39,(#41));
#246= IFCRELAGGREGATES('1TR6BRx8vDzOl7FlPrupZ6',#5,$,$,#41,(#43));
#247= IFCRELCONTAINEDINSPATIALSTRUCTURE('0UTdiUFeL3MeRU0Ga$Neas',#5,$,$,(#73),#43);
#248= IFCRELDEFINESBYPROPERTIES('39UTXuuRPAZAAdGT4t2HBN',#5,$,$,(#82),#88);
#249= IFCRELDEFINESBYPROPERTIES('25Ipg6DgHEmB1MkwEDHo7S',#5,$,$,(#96),#99);
#250= IFCRELDEFINESBYPROPERTIES('0ZLA$8afH3kw0OxUbjhgMX',#5,$,$,(#117,#107),#110);
#251= IFCRELDEFINESBYPROPERTIES('0HYZeCRQbD585eZD$LqngD',#5,$,$,(#229,#204,#192),#197);
#252= IFCRELDEFINESBYPROPERTIES('3EgB89Ru96JhutTw6MHjbV',#5,$,$,(#73),#235);
#253= IFCRELDEFINESBYPROPERTIES('2W2uV7cTD6IQ$qMZRoZdKG',#5,$,$,(#73),#238);
#254= IFCRELDEFINESBYPROPERTIES('1ATuoctpz1u92r4Hjkyjc0',#5,$,$,(#73),#241);
#255= IFCRELDEFINESBYPROPERTIES('0DwLL4bDj19eNZf6m$jHI1',#5,$,$,(#73),#242);
#256= IFCRELASSOCIATESMATERIAL('0VLknEVI12Oe82hGww8Y70',#5,$,$,(#73),#243);
ENDSEC;

END-ISO-10303-21;
