ISO-10303-21;
HEADER;
FILE_DESCRIPTION(('ViewDefinition[AISC_Steel_Detailing]', 'Option [BaseQuantities:Off]', 'Option [GridExport:On]', 'Option [Assemblies:Off]', 'Option [Bolts:On]', 'Option [Rebars:On]', 'Option [PourObjects:Off]', 'Option [Welds:On]', 'Option [SurfaceTreatments:On]', 'Option [LocationBy:0]', 'Option [ViewColors:Off]', 'Option [SectionedSpine:Off]', 'Option [PropertySets:On]', 'Option [Export all:Off]'),'2;1');
FILE_NAME('b_1039_Qty_1.ifc','2026-05-16T11:52:54',('GIOVANNIPC\\gcorrea'),('Structural Designer'),'IFC Database version: Work','Tekla Structures 2020 Service Pack 5, IFC Export Version: 4.0.0.0 Dec  7 2020','');
FILE_SCHEMA(('IFC2X3'));
ENDSEC;

DATA;
#1= IFCPERSON('GIOVANNIPC\\gcorrea','Undefined',$,$,$,$,$,$);
#2= IFCORGANIZATION($,'Trimble Solutions Corporation',$,$,$);
#3= IFCPERSONANDORGANIZATION(#1,#2,$);
#4= IFCAPPLICATION(#2,'2020 Service Pack 5','Tekla Structures','Multi material modeling');
#5= IFCOWNERHISTORY(#3,#4,$,.NOCHANGE.,$,$,$,1778950373);
#6= IFCCARTESIANPOINT((0.,0.,0.));
#7= IFCDIRECTION((1.,0.,0.));
#8= IFCDIRECTION((0.,1.,0.));
#9= IFCDIRECTION((0.,0.,1.));
#10= IFCAXIS2PLACEMENT3D(#6,#9,#7);
#11= IFCGEOMETRICREPRESENTATIONCONTEXT($,'Model',3,1.E-05,#10,$);
#12= IFCGEOMETRICREPRESENTATIONSUBCONTEXT('Body','Model',*,*,*,*,#11,$,.MODEL_VIEW.,$);
#13= IFCGEOMETRICREPRESENTATIONSUBCONTEXT('Axis','Model',*,*,*,*,#11,$,.GRAPH_VIEW.,$);
#14= IFCGEOMETRICREPRESENTATIONSUBCONTEXT('FootPrint','Model',*,*,*,*,#11,$,.MODEL_VIEW.,$);
#15= IFCSIUNIT(*,.LENGTHUNIT.,.MILLI.,.METRE.);
#16= IFCMEASUREWITHUNIT(IFCRATIOMEASURE(304.8),#15);
#17= IFCDIMENSIONALEXPONENTS(1,0,0,0,0,0,0);
#18= IFCCONVERSIONBASEDUNIT(#17,.LENGTHUNIT.,'FOOT',#16);
#19= IFCSIUNIT(*,.AREAUNIT.,$,.SQUARE_METRE.);
#20= IFCMEASUREWITHUNIT(IFCRATIOMEASURE(0.09290304),#19);
#21= IFCDIMENSIONALEXPONENTS(2,0,0,0,0,0,0);
#22= IFCCONVERSIONBASEDUNIT(#21,.AREAUNIT.,'SQUARE FOOT',#20);
#23= IFCSIUNIT(*,.VOLUMEUNIT.,$,.CUBIC_METRE.);
#24= IFCMEASUREWITHUNIT(IFCRATIOMEASURE(0.028316846592),#23);
#25= IFCDIMENSIONALEXPONENTS(3,0,0,0,0,0,0);
#26= IFCCONVERSIONBASEDUNIT(#25,.VOLUMEUNIT.,'CUBIC FOOT',#24);
#27= IFCSIUNIT(*,.MASSUNIT.,.KILO.,.GRAM.);
#28= IFCSIUNIT(*,.TIMEUNIT.,$,.SECOND.);
#29= IFCSIUNIT(*,.PLANEANGLEUNIT.,$,.RADIAN.);
#30= IFCMEASUREWITHUNIT(IFCRATIOMEASURE(0.0174532925199433),#29);
#31= IFCDIMENSIONALEXPONENTS(0,0,0,0,0,0,0);
#32= IFCCONVERSIONBASEDUNIT(#31,.PLANEANGLEUNIT.,'DEGREE',#30);
#33= IFCSIUNIT(*,.SOLIDANGLEUNIT.,$,.STERADIAN.);
#34= IFCSIUNIT(*,.THERMODYNAMICTEMPERATUREUNIT.,$,.DEGREE_CELSIUS.);
#35= IFCSIUNIT(*,.LUMINOUSINTENSITYUNIT.,$,.LUMEN.);
#36= IFCUNITASSIGNMENT((#15,#19,#23,#27,#28,#29,#33,#34,#35));
#37= IFCPROJECT('2G7ZFDNE16yBDU14FA92Me',#5,'Proyecto',$,$,$,$,(#11),#36);
#38= IFCLOCALPLACEMENT($,#10);
#39= IFCSITE('2xvEzEinjBTea80yOTcujY',#5,'Obra',$,$,#38,$,$,.ELEMENT.,$,$,$,$,$);
#40= IFCLOCALPLACEMENT(#38,#10);
#41= IFCBUILDING('3cCJf_Q2P3M8DHJ0aAaXC_',#5,'Undefined',$,$,#40,$,$,.ELEMENT.,$,$,$);
#42= IFCLOCALPLACEMENT(#40,#10);
#43= IFCBUILDINGSTOREY('29hdEUCErFze9E_VIAceOd',#5,'Undefined',$,$,#42,$,$,.ELEMENT.,0.);
#44= IFCOWNERHISTORY(#3,#4,$,.NOCHANGE.,$,$,$,1773849600);
#45= IFCCARTESIANPOINT((59500.,0.290658480914317,23375.));
#46= IFCDIRECTION((1.41100000010919E-05,0.999999999900454,0.));
#47= IFCAXIS2PLACEMENT3D(#45,#9,#46);
#48= IFCLOCALPLACEMENT(#42,#47);
#49= IFCDIRECTION((1.,0.));
#50= IFCCARTESIANPOINT((0.,0.));
#51= IFCAXIS2PLACEMENT2D(#50,#49);
#52= IFCISHAPEPROFILEDEF(.AREA.,'IPE450',#51,190.,450.,9.399999619,14.60000038,21.);
#53= IFCDIRECTION((-1.6940658945086E-21,-1.,0.));
#54= IFCDIRECTION((-1.,1.6940658945086E-21,0.));
#55= IFCCARTESIANPOINT((1465.59205462033,-2.48280951499509E-18,-3.63797880709171E-12));
#56= IFCAXIS2PLACEMENT3D(#55,#54,#53);
#57= IFCEXTRUDEDAREASOLID(#52,#56,#9,1465.59);
#58= IFCDIRECTION((-0.999999999900454,-1.41100000012103E-05,0.));
#59= IFCCARTESIANPOINT((1465.59070076731,-0.00014109999028733,-325.000000000004));
#60= IFCDIRECTION((-1.41100000012103E-05,0.999999999900454,0.));
#61= IFCAXIS2PLACEMENT3D(#59,#58,#60);
#62= IFCPLANE(#61);
#63= IFCHALFSPACESOLID(#62,.T.);
#64= IFCBOOLEANCLIPPINGRESULT(.DIFFERENCE.,#57,#63);
#65= IFCSHAPEREPRESENTATION(#12,'Body','Clipping',(#64));
#66= IFCPRODUCTDEFINITIONSHAPE($,$,(#65));
#67= IFCBEAM('2zT98q8W58UeeHnRP42c$i',#44,'BEAM','IPE450','IPE450',#48,#66,'IDbd749234-2201-487a-8a11-c5b6440a6fec');
#68= IFCLOCALPLACEMENT(#42,#47);
#69= IFCCIRCLEPROFILEDEF(.AREA.,'D325',#51,162.5);
#70= IFCCARTESIANPOINT((-0.290658480885383,-4.10118809668347E-06,-285.000000000004));
#71= IFCAXIS2PLACEMENT3D(#70,#9,#54);
#72= IFCEXTRUDEDAREASOLID(#69,#71,#9,570.);
#73= IFCSHAPEREPRESENTATION(#12,'Body','SweptSolid',(#72));
#74= IFCPRODUCTDEFINITIONSHAPE($,$,(#73));
#75= IFCOPENINGELEMENT('3EedIhO$jEgfepdujSkZ_f',#5,$,$,'Recess',#68,#74,$);
#76= IFCRELVOIDSELEMENT('2w3kK7L1P0SQLyMwqL7ZRC',#5,$,$,#67,#75);
#77= IFCPROPERTYSINGLEVALUE('FeatureSubTypes',$,$,$);
#78= IFCPROPERTYSINGLEVALUE('RectangleOpeningWidth',$,$,$);
#79= IFCPROPERTYSINGLEVALUE('RectangleOpeningHeight',$,$,$);
#80= IFCPROPERTYSINGLEVALUE('OpeningDiameter',$,IFCPOSITIVELENGTHMEASURE(325.),$);
#81= IFCPROPERTYSET('004dWXhUTChxT8pZnqe44c',#5,'AISC_EM11_Pset_Opening/Cope',$,(#77,#78,#79,#80));
#82= IFCCARTESIANPOINT((59499.9997277552,1428.38132995048,23150.));
#83= IFCAXIS2PLACEMENT3D(#82,#54,#53);
#84= IFCLOCALPLACEMENT(#42,#83);
#85= IFCCIRCLEPROFILEDEF(.AREA.,$,#51,12.5);
#86= IFCCARTESIANPOINT((0.,-0.100000000000021,0.));
#87= IFCAXIS2PLACEMENT3D(#86,#8,#7);
#88= IFCEXTRUDEDAREASOLID(#85,#87,#9,14.8);
#89= IFCSHAPEREPRESENTATION(#12,'Body','SweptSolid',(#88));
#90= IFCREPRESENTATIONMAP(#10,#89);
#91= IFCCARTESIANPOINT((0.,0.,-50.0000000000146));
#92= IFCCARTESIANTRANSFORMATIONOPERATOR3D($,$,#91,$,$);
#93= IFCMAPPEDITEM(#90,#92);
#94= IFCCARTESIANPOINT((69.999999999992,0.,-50.0000000000655));
#95= IFCCARTESIANTRANSFORMATIONOPERATOR3D($,$,#94,$,$);
#96= IFCMAPPEDITEM(#90,#95);
#97= IFCCARTESIANPOINT((139.999999999984,0.,-50.0000000001091));
#98= IFCCARTESIANTRANSFORMATIONOPERATOR3D($,$,#97,$,$);
#99= IFCMAPPEDITEM(#90,#98);
#100= IFCCARTESIANPOINT((209.999999999976,0.,-50.0000000001601));
#101= IFCCARTESIANTRANSFORMATIONOPERATOR3D($,$,#100,$,$);
#102= IFCMAPPEDITEM(#90,#101);
#103= IFCCARTESIANPOINT((279.999999999968,0.,-50.0000000002037));
#104= IFCCARTESIANTRANSFORMATIONOPERATOR3D($,$,#103,$,$);
#105= IFCMAPPEDITEM(#90,#104);
#106= IFCCARTESIANPOINT((349.99999999996,0.,-50.0000000002547));
#107= IFCCARTESIANTRANSFORMATIONOPERATOR3D($,$,#106,$,$);
#108= IFCMAPPEDITEM(#90,#107);
#109= IFCCARTESIANPOINT((419.999999999952,0.,-50.0000000003056));
#110= IFCCARTESIANTRANSFORMATIONOPERATOR3D($,$,#109,$,$);
#111= IFCMAPPEDITEM(#90,#110);
#112= IFCCARTESIANPOINT((0.,0.,50.0000000000146));
#113= IFCCARTESIANTRANSFORMATIONOPERATOR3D($,$,#112,$,$);
#114= IFCMAPPEDITEM(#90,#113);
#115= IFCCARTESIANPOINT((69.999999999992,0.,49.9999999999709));
#116= IFCCARTESIANTRANSFORMATIONOPERATOR3D($,$,#115,$,$);
#117= IFCMAPPEDITEM(#90,#116);
#118= IFCCARTESIANPOINT((139.999999999984,0.,49.99999999992));
#119= IFCCARTESIANTRANSFORMATIONOPERATOR3D($,$,#118,$,$);
#120= IFCMAPPEDITEM(#90,#119);
#121= IFCCARTESIANPOINT((209.999999999976,0.,49.9999999998763));
#122= IFCCARTESIANTRANSFORMATIONOPERATOR3D($,$,#121,$,$);
#123= IFCMAPPEDITEM(#90,#122);
#124= IFCCARTESIANPOINT((279.999999999968,0.,49.9999999998254));
#125= IFCCARTESIANTRANSFORMATIONOPERATOR3D($,$,#124,$,$);
#126= IFCMAPPEDITEM(#90,#125);
#127= IFCCARTESIANPOINT((349.99999999996,0.,49.9999999997817));
#128= IFCCARTESIANTRANSFORMATIONOPERATOR3D($,$,#127,$,$);
#129= IFCMAPPEDITEM(#90,#128);
#130= IFCCARTESIANPOINT((419.999999999952,0.,49.9999999997308));
#131= IFCCARTESIANTRANSFORMATIONOPERATOR3D($,$,#130,$,$);
#132= IFCMAPPEDITEM(#90,#131);
#133= IFCSHAPEREPRESENTATION(#12,'Body','MappedRepresentation',(#93,#96,#99,#102,#105,#108,#111,#114,#117,#120,#123,#126,#129,#132));
#134= IFCPRODUCTDEFINITIONSHAPE($,$,(#133));
#135= IFCOPENINGELEMENT('3xwDD8xQX2NO0o3Q272Hk9',#5,$,$,'Opening',#84,#134,$);
#136= IFCRELVOIDSELEMENT('0ux5km5F955wsUChwZzTG6',#5,'Drill Hole',$,#67,#135);
#137= IFCPROPERTYSINGLEVALUE('FeatureSubTypes',$,IFCLABEL('TORNILLO'),$);
#138= IFCPROPERTYSINGLEVALUE('OpeningDiameter',$,$,$);
#139= IFCPROPERTYSET('0Y1dmSm6r9FQwoV2kp9VzW',#5,'AISC_EM11_Pset_Opening/Cope',$,(#137,#78,#79,#138));
#140= IFCCARTESIANPOINT((59499.9997277552,1428.38132995048,23600.));
#141= IFCAXIS2PLACEMENT3D(#140,#7,#53);
#142= IFCLOCALPLACEMENT(#42,#141);
#143= IFCSHAPEREPRESENTATION(#12,'Body','MappedRepresentation',(#114,#117,#120,#123,#126,#129,#132,#93,#96,#99,#102,#105,#108,#111));
#144= IFCPRODUCTDEFINITIONSHAPE($,$,(#143));
#145= IFCOPENINGELEMENT('0hAUeLKFn70Q5L4qV3gc8d',#5,$,$,'Opening',#142,#144,$);
#146= IFCRELVOIDSELEMENT('051pqnahbEthUAPrDCknUV',#5,'Drill Hole',$,#67,#145);
#147= IFCCARTESIANPOINT((59500.0205736637,1468.38135910034,23600.));
#148= IFCDIRECTION((0.,0.,-1.));
#149= IFCAXIS2PLACEMENT3D(#147,#53,#148);
#150= IFCLOCALPLACEMENT(#42,#149);
#151= IFCCIRCLEPROFILEDEF(.AREA.,$,#51,11.5);
#152= IFCCARTESIANPOINT((0.,-4.80042311003636,0.));
#153= IFCAXIS2PLACEMENT3D(#152,#8,#7);
#154= IFCEXTRUDEDAREASOLID(#151,#153,#9,9.6);
#155= IFCSHAPEREPRESENTATION(#12,'Body','SweptSolid',(#154));
#156= IFCREPRESENTATIONMAP(#10,#155);
#157= IFCCARTESIANPOINT((85.,0.,40.));
#158= IFCCARTESIANTRANSFORMATIONOPERATOR3D($,$,#157,$,$);
#159= IFCMAPPEDITEM(#156,#158);
#160= IFCCARTESIANPOINT((155.,0.,40.));
#161= IFCCARTESIANTRANSFORMATIONOPERATOR3D($,$,#160,$,$);
#162= IFCMAPPEDITEM(#156,#161);
#163= IFCCARTESIANPOINT((225.,0.,40.));
#164= IFCCARTESIANTRANSFORMATIONOPERATOR3D($,$,#163,$,$);
#165= IFCMAPPEDITEM(#156,#164);
#166= IFCCARTESIANPOINT((295.,0.,40.));
#167= IFCCARTESIANTRANSFORMATIONOPERATOR3D($,$,#166,$,$);
#168= IFCMAPPEDITEM(#156,#167);
#169= IFCCARTESIANPOINT((365.,0.,40.));
#170= IFCCARTESIANTRANSFORMATIONOPERATOR3D($,$,#169,$,$);
#171= IFCMAPPEDITEM(#156,#170);
#172= IFCSHAPEREPRESENTATION(#12,'Body','MappedRepresentation',(#159,#162,#165,#168,#171));
#173= IFCPRODUCTDEFINITIONSHAPE($,$,(#172));
#174= IFCOPENINGELEMENT('3os4ptY$DEVO1IllRWX$nY',#5,$,$,'Opening',#150,#173,$);
#175= IFCRELVOIDSELEMENT('1ZztJ2C$r1ePOI1zuCAJNJ',#5,'Drill Hole',$,#67,#174);
#176= IFCPROPERTYSINGLEVALUE('PieceMark',$,IFCIDENTIFIER('BEAM'),$);
#177= IFCPROPERTYSINGLEVALUE('IndicationMark',$,IFCIDENTIFIER('b/1039'),$);
#178= IFCPROPERTYSINGLEVALUE('PrelimMark',$,IFCIDENTIFIER(''),$);
#179= IFCPROPERTYSINGLEVALUE('MainPieceTag',$,IFCBOOLEAN(.T.),$);
#180= IFCPROPERTYSET('0UHaetTxv4TxfujqFZb_$d',#5,'AISC_EM11_Pset_PieceIdentification','PieceIdentity',(#176,#177,#178,#179));
#181= IFCPROPERTYSINGLEVALUE('MaterialType',$,IFCIDENTIFIER('STEEL'),$);
#182= IFCPROPERTYSINGLEVALUE('MaterialGrade',$,IFCIDENTIFIER('S235JR'),$);
#183= IFCPROPERTYSET('0RThvHOlj3h8rRuK4ju4gV',#5,'AISC_EM11_Pset_Material',$,(#181,#182));
#184= IFCPROPERTYSINGLEVALUE('SkewedAngleY',$,IFCREAL(0.),$);
#185= IFCPROPERTYSINGLEVALUE('SkewedAngleX',$,IFCREAL(0.),$);
#186= IFCPROPERTYSET('2cc71BIB13U81PBLarxMD7',#5,'AISC_EM11_Pset_SkewedEnd',$,(#184,#185));
#187= IFCPROPERTYSINGLEVALUE('SkewedAngleX',$,IFCREAL(-0.00081),$);
#188= IFCPROPERTYSET('04XkppShX9Qh96wRDEqMrO',#5,'AISC_EM11_Pset_SkewedEnd_2',$,(#184,#187));
#189= IFCMATERIAL('STEEL/S235JR');
#190= IFCRELAGGREGATES('2ZysBwLqv3RBdyFiv8r_Kv',#5,$,$,#37,(#39));
#191= IFCRELAGGREGATES('2rE8TCd6BLjTvEX_BQ7GcB',#5,$,$,#39,(#41));
#192= IFCRELAGGREGATES('081_f0Oez7h8u2vsew8_yp',#5,$,$,#41,(#43));
#193= IFCRELCONTAINEDINSPATIALSTRUCTURE('2dxTyCJejDqA9iD$USSAyi',#5,$,$,(#67),#43);
#194= IFCRELDEFINESBYPROPERTIES('2H2oWHSO54bRHEThGYhqwp',#5,$,$,(#75),#81);
#195= IFCRELDEFINESBYPROPERTIES('2lNsD0GGDCthtTMTatXik0',#5,$,$,(#174,#145,#135),#139);
#196= IFCRELDEFINESBYPROPERTIES('3fZ27TO8vCQhjuBurHKIga',#5,$,$,(#67),#180);
#197= IFCRELDEFINESBYPROPERTIES('1JwNTJ0SLF_vE05FGsTFj3',#5,$,$,(#67),#183);
#198= IFCRELDEFINESBYPROPERTIES('1BtwdNm59BB9_$EJDYQ_ob',#5,$,$,(#67),#186);
#199= IFCRELDEFINESBYPROPERTIES('1zJOAvZKHDcAl0pui7Ug08',#5,$,$,(#67),#188);
#200= IFCRELASSOCIATESMATERIAL('268dmgWGvCWhayyTdl95VU',#5,$,$,(#67),#189);
ENDSEC;

END-ISO-10303-21;
