ISO-10303-21;
HEADER;
FILE_DESCRIPTION(('ViewDefinition[AISC_Steel_Detailing]', 'Option [BaseQuantities:Off]', 'Option [GridExport:On]', 'Option [Assemblies:Off]', 'Option [Bolts:On]', 'Option [Rebars:On]', 'Option [PourObjects:Off]', 'Option [Welds:On]', 'Option [SurfaceTreatments:On]', 'Option [LocationBy:0]', 'Option [ViewColors:Off]', 'Option [SectionedSpine:Off]', 'Option [PropertySets:On]', 'Option [Export all:Off]'),'2;1');
FILE_NAME('b_1020_Qty_1.ifc','2026-05-16T11:53:12',('GIOVANNIPC\\gcorrea'),('Structural Designer'),'IFC Database version: Work','Tekla Structures 2020 Service Pack 5, IFC Export Version: 4.0.0.0 Dec  7 2020','');
FILE_SCHEMA(('IFC2X3'));
ENDSEC;

DATA;
#1= IFCPERSON('GIOVANNIPC\\gcorrea','Undefined',$,$,$,$,$,$);
#2= IFCORGANIZATION($,'Trimble Solutions Corporation',$,$,$);
#3= IFCPERSONANDORGANIZATION(#1,#2,$);
#4= IFCAPPLICATION(#2,'2020 Service Pack 5','Tekla Structures','Multi material modeling');
#5= IFCOWNERHISTORY(#3,#4,$,.NOCHANGE.,$,$,$,1778950392);
#6= IFCCARTESIANPOINT((0.,0.,0.));
#7= IFCDIRECTION((1.,0.,0.));
#8= IFCDIRECTION((0.,1.,0.));
#9= IFCDIRECTION((0.,0.,1.));
#10= IFCAXIS2PLACEMENT3D(#6,#9,#7);
#11= IFCGEOMETRICREPRESENTATIONCONTEXT($,'Model',3,1.E-05,#10,$);
#12= IFCGEOMETRICREPRESENTATIONSUBCONTEXT('Body','Model',*,*,*,*,#11,$,.MODEL_VIEW.,$);
#13= IFCGEOMETRICREPRESENTATIONSUBCONTEXT('Axis','Model',*,*,*,*,#11,$,.GRAPH_VIEW.,$);
#14= IFCGEOMETRICREPRESENTATIONSUBCONTEXT('FootPrint','Model',*,*,*,*,#11,$,.MODEL_VIEW.,$);
#15= IFCSIUNIT(*,.LENGTHUNIT.,.MILLI.,.METRE.);
#16= IFCMEASUREWITHUNIT(IFCRATIOMEASURE(304.8),#15);
#17= IFCDIMENSIONALEXPONENTS(1,0,0,0,0,0,0);
#18= IFCCONVERSIONBASEDUNIT(#17,.LENGTHUNIT.,'FOOT',#16);
#19= IFCSIUNIT(*,.AREAUNIT.,$,.SQUARE_METRE.);
#20= IFCMEASUREWITHUNIT(IFCRATIOMEASURE(0.09290304),#19);
#21= IFCDIMENSIONALEXPONENTS(2,0,0,0,0,0,0);
#22= IFCCONVERSIONBASEDUNIT(#21,.AREAUNIT.,'SQUARE FOOT',#20);
#23= IFCSIUNIT(*,.VOLUMEUNIT.,$,.CUBIC_METRE.);
#24= IFCMEASUREWITHUNIT(IFCRATIOMEASURE(0.028316846592),#23);
#25= IFCDIMENSIONALEXPONENTS(3,0,0,0,0,0,0);
#26= IFCCONVERSIONBASEDUNIT(#25,.VOLUMEUNIT.,'CUBIC FOOT',#24);
#27= IFCSIUNIT(*,.MASSUNIT.,.KILO.,.GRAM.);
#28= IFCSIUNIT(*,.TIMEUNIT.,$,.SECOND.);
#29= IFCSIUNIT(*,.PLANEANGLEUNIT.,$,.RADIAN.);
#30= IFCMEASUREWITHUNIT(IFCRATIOMEASURE(0.0174532925199433),#29);
#31= IFCDIMENSIONALEXPONENTS(0,0,0,0,0,0,0);
#32= IFCCONVERSIONBASEDUNIT(#31,.PLANEANGLEUNIT.,'DEGREE',#30);
#33= IFCSIUNIT(*,.SOLIDANGLEUNIT.,$,.STERADIAN.);
#34= IFCSIUNIT(*,.THERMODYNAMICTEMPERATUREUNIT.,$,.DEGREE_CELSIUS.);
#35= IFCSIUNIT(*,.LUMINOUSINTENSITYUNIT.,$,.LUMEN.);
#36= IFCUNITASSIGNMENT((#15,#19,#23,#27,#28,#29,#33,#34,#35));
#37= IFCPROJECT('2G7ZFDNE16yBDU14FA92Me',#5,'Proyecto',$,$,$,$,(#11),#36);
#38= IFCLOCALPLACEMENT($,#10);
#39= IFCSITE('2xvEzEinjBTea80yOTcujY',#5,'Obra',$,$,#38,$,$,.ELEMENT.,$,$,$,$,$);
#40= IFCLOCALPLACEMENT(#38,#10);
#41= IFCBUILDING('37gckA$kLBVOzDwgKdbbsW',#5,'Undefined',$,$,#40,$,$,.ELEMENT.,$,$,$);
#42= IFCLOCALPLACEMENT(#40,#10);
#43= IFCBUILDINGSTOREY('29hdEUCErFze9E_VIAceOd',#5,'Undefined',$,$,#42,$,$,.ELEMENT.,0.);
#44= IFCOWNERHISTORY(#3,#4,$,.NOCHANGE.,$,$,$,1773842400);
#45= IFCCARTESIANPOINT((34222.3851899033,1603.38122277425,23375.));
#46= IFCAXIS2PLACEMENT3D(#45,#9,#7);
#47= IFCLOCALPLACEMENT(#42,#46);
#48= IFCDIRECTION((1.,0.));
#49= IFCCARTESIANPOINT((0.,0.));
#50= IFCAXIS2PLACEMENT2D(#49,#48);
#51= IFCISHAPEPROFILEDEF(.AREA.,'IPE450',#50,190.,450.,9.399999619,14.60000038,21.);
#52= IFCDIRECTION((0.,-1.,0.));
#53= IFCDIRECTION((-1.,0.,0.));
#54= IFCCARTESIANPOINT((8172.61453620612,0.,0.));
#55= IFCAXIS2PLACEMENT3D(#54,#53,#52);
#56= IFCEXTRUDEDAREASOLID(#51,#55,#9,8172.);
#57= IFCCARTESIANPOINT((8172.61453543852,4.01199940824881E-07,-325.));
#58= IFCAXIS2PLACEMENT3D(#57,#53,#8);
#59= IFCPLANE(#58);
#60= IFCHALFSPACESOLID(#59,.T.);
#61= IFCBOOLEANCLIPPINGRESULT(.DIFFERENCE.,#56,#60);
#62= IFCCARTESIANPOINT((0.614810091850813,-1.21717627095791,-325.));
#63= IFCAXIS2PLACEMENT3D(#62,#7,#52);
#64= IFCPLANE(#63);
#65= IFCHALFSPACESOLID(#64,.T.);
#66= IFCBOOLEANCLIPPINGRESULT(.DIFFERENCE.,#61,#65);
#67= IFCSHAPEREPRESENTATION(#12,'Body','Clipping',(#66));
#68= IFCPRODUCTDEFINITIONSHAPE($,$,(#67));
#69= IFCBEAM('1Wc8xSNJjBKfc20Qct0YaY',#44,'BEAM','IPE450','IPE450',#47,#68,'ID60988edc-5d3b-4b52-9982-01a9b7022922');
#70= IFCLOCALPLACEMENT(#42,#46);
#71= IFCRECTANGLEPROFILEDEF(.AREA.,'PL36.6*102.3',#50,36.6,102.3);
#72= IFCDIRECTION((0.,0.,-1.));
#73= IFCCARTESIANPOINT((8223.76453591777,95.9999997950545,-207.69999981));
#74= IFCAXIS2PLACEMENT3D(#73,#52,#72);
#75= IFCEXTRUDEDAREASOLID(#71,#74,#9,192.);
#76= IFCSHAPEREPRESENTATION(#12,'Body','SweptSolid',(#75));
#77= IFCPRODUCTDEFINITIONSHAPE($,$,(#76));
#78= IFCOPENINGELEMENT('3pHBudS6X7sQXCMe1GO3WT',#5,$,$,'Recess',#70,#77,$);
#79= IFCRELVOIDSELEMENT('2h0G7JNQX1rQvsPJWXpcLY',#5,$,$,#69,#78);
#80= IFCPROPERTYSINGLEVALUE('FeatureSubTypes',$,$,$);
#81= IFCPROPERTYSINGLEVALUE('RectangleOpeningWidth',$,IFCPOSITIVELENGTHMEASURE(36.6),$);
#82= IFCPROPERTYSINGLEVALUE('RectangleOpeningHeight',$,IFCPOSITIVELENGTHMEASURE(102.3),$);
#83= IFCPROPERTYSINGLEVALUE('OpeningDiameter',$,$,$);
#84= IFCPROPERTYSET('0GKscH8xLFhwXl9F3mWqPM',#5,'AISC_EM11_Pset_Opening/Cope',$,(#80,#81,#82,#83));
#85= IFCLOCALPLACEMENT(#42,#46);
#86= IFCCARTESIANPOINT((8223.76453591777,95.9999997950545,207.69999981));
#87= IFCAXIS2PLACEMENT3D(#86,#52,#72);
#88= IFCEXTRUDEDAREASOLID(#71,#87,#9,192.);
#89= IFCSHAPEREPRESENTATION(#12,'Body','SweptSolid',(#88));
#90= IFCPRODUCTDEFINITIONSHAPE($,$,(#89));
#91= IFCOPENINGELEMENT('1U75prEv98N9imdoeb9LsT',#5,$,$,'Recess',#85,#90,$);
#92= IFCRELVOIDSELEMENT('1qwMzGwvjBIQsgMRuqXz9Y',#5,$,$,#69,#91);
#93= IFCLOCALPLACEMENT(#42,#46);
#94= IFCRECTANGLEPROFILEDEF(.AREA.,'PL108*12',#50,12.,108.);
#95= IFCCARTESIANPOINT((-15.3851897401473,40.7828237930421,226.));
#96= IFCAXIS2PLACEMENT3D(#95,#72,#7);
#97= IFCEXTRUDEDAREASOLID(#94,#96,#9,452.);
#98= IFCSHAPEREPRESENTATION(#12,'Body','SweptSolid',(#97));
#99= IFCPRODUCTDEFINITIONSHAPE($,$,(#98));
#100= IFCOPENINGELEMENT('3bPk$MGML6$QiIGI3kNz8k',#5,$,$,'Recess',#93,#99,$);
#101= IFCRELVOIDSELEMENT('099M94hqr0UOeC531tIR9j',#5,$,$,#69,#100);
#102= IFCPROPERTYSINGLEVALUE('RectangleOpeningWidth',$,IFCPOSITIVELENGTHMEASURE(12.),$);
#103= IFCPROPERTYSINGLEVALUE('RectangleOpeningHeight',$,IFCPOSITIVELENGTHMEASURE(108.),$);
#104= IFCPROPERTYSET('15_ay2CuT93xbNvUIhpqo_',#5,'AISC_EM11_Pset_Opening/Cope',$,(#80,#102,#103,#83));
#105= IFCLOCALPLACEMENT(#42,#46);
#106= IFCCARTESIANPOINT((-15.385190076151,-43.2171762069579,226.));
#107= IFCAXIS2PLACEMENT3D(#106,#72,#7);
#108= IFCEXTRUDEDAREASOLID(#94,#107,#9,452.);
#109= IFCSHAPEREPRESENTATION(#12,'Body','SweptSolid',(#108));
#110= IFCPRODUCTDEFINITIONSHAPE($,$,(#109));
#111= IFCOPENINGELEMENT('1QkNTaTzH0h94Ia2uyKZkX',#5,$,$,'Recess',#105,#110,$);
#112= IFCRELVOIDSELEMENT('1kpVLMQ9r7yPyL1NhM4DpL',#5,$,$,#69,#111);
#113= IFCCARTESIANPOINT((42354.9997253417,1603.23125536912,23160.));
#114= IFCAXIS2PLACEMENT3D(#113,#8,#53);
#115= IFCLOCALPLACEMENT(#42,#114);
#116= IFCCIRCLEPROFILEDEF(.AREA.,$,#50,11.5);
#117= IFCCARTESIANPOINT((0.,-10.1,0.));
#118= IFCAXIS2PLACEMENT3D(#117,#8,#7);
#119= IFCEXTRUDEDAREASOLID(#116,#118,#9,14.8);
#120= IFCSHAPEREPRESENTATION(#12,'Body','SweptSolid',(#119));
#121= IFCREPRESENTATIONMAP(#10,#120);
#122= IFCCARTESIANPOINT((0.,0.,50.));
#123= IFCCARTESIANTRANSFORMATIONOPERATOR3D($,$,#122,$,$);
#124= IFCMAPPEDITEM(#121,#123);
#125= IFCCARTESIANPOINT((70.,0.,50.));
#126= IFCCARTESIANTRANSFORMATIONOPERATOR3D($,$,#125,$,$);
#127= IFCMAPPEDITEM(#121,#126);
#128= IFCCARTESIANPOINT((140.,0.,50.));
#129= IFCCARTESIANTRANSFORMATIONOPERATOR3D($,$,#128,$,$);
#130= IFCMAPPEDITEM(#121,#129);
#131= IFCCARTESIANPOINT((210.,0.,50.));
#132= IFCCARTESIANTRANSFORMATIONOPERATOR3D($,$,#131,$,$);
#133= IFCMAPPEDITEM(#121,#132);
#134= IFCCARTESIANPOINT((280.,0.,50.));
#135= IFCCARTESIANTRANSFORMATIONOPERATOR3D($,$,#134,$,$);
#136= IFCMAPPEDITEM(#121,#135);
#137= IFCCARTESIANPOINT((350.,0.,50.));
#138= IFCCARTESIANTRANSFORMATIONOPERATOR3D($,$,#137,$,$);
#139= IFCMAPPEDITEM(#121,#138);
#140= IFCCARTESIANPOINT((420.,0.,50.));
#141= IFCCARTESIANTRANSFORMATIONOPERATOR3D($,$,#140,$,$);
#142= IFCMAPPEDITEM(#121,#141);
#143= IFCCARTESIANPOINT((0.,0.,-50.));
#144= IFCCARTESIANTRANSFORMATIONOPERATOR3D($,$,#143,$,$);
#145= IFCMAPPEDITEM(#121,#144);
#146= IFCCARTESIANPOINT((70.,0.,-50.));
#147= IFCCARTESIANTRANSFORMATIONOPERATOR3D($,$,#146,$,$);
#148= IFCMAPPEDITEM(#121,#147);
#149= IFCCARTESIANPOINT((140.,0.,-50.));
#150= IFCCARTESIANTRANSFORMATIONOPERATOR3D($,$,#149,$,$);
#151= IFCMAPPEDITEM(#121,#150);
#152= IFCCARTESIANPOINT((210.,0.,-50.));
#153= IFCCARTESIANTRANSFORMATIONOPERATOR3D($,$,#152,$,$);
#154= IFCMAPPEDITEM(#121,#153);
#155= IFCCARTESIANPOINT((280.,0.,-50.));
#156= IFCCARTESIANTRANSFORMATIONOPERATOR3D($,$,#155,$,$);
#157= IFCMAPPEDITEM(#121,#156);
#158= IFCCARTESIANPOINT((350.,0.,-50.));
#159= IFCCARTESIANTRANSFORMATIONOPERATOR3D($,$,#158,$,$);
#160= IFCMAPPEDITEM(#121,#159);
#161= IFCCARTESIANPOINT((420.,0.,-50.));
#162= IFCCARTESIANTRANSFORMATIONOPERATOR3D($,$,#161,$,$);
#163= IFCMAPPEDITEM(#121,#162);
#164= IFCSHAPEREPRESENTATION(#12,'Body','MappedRepresentation',(#124,#127,#130,#133,#136,#139,#142,#145,#148,#151,#154,#157,#160,#163));
#165= IFCPRODUCTDEFINITIONSHAPE($,$,(#164));
#166= IFCOPENINGELEMENT('1GqQzIj3f1SRuGZ9wc8GGO',#5,$,$,'Opening',#115,#165,$);
#167= IFCRELVOIDSELEMENT('07a9$1rkX5YPEuxLfJprSQ',#5,'Drill Hole',$,#69,#166);
#168= IFCPROPERTYSINGLEVALUE('FeatureSubTypes',$,IFCLABEL('TORNILLO'),$);
#169= IFCPROPERTYSINGLEVALUE('RectangleOpeningWidth',$,$,$);
#170= IFCPROPERTYSINGLEVALUE('RectangleOpeningHeight',$,$,$);
#171= IFCPROPERTYSET('2CdZni4eT8chM8aQgmjUPG',#5,'AISC_EM11_Pset_Opening/Cope',$,(#168,#169,#170,#83));
#172= IFCCARTESIANPOINT((42354.9997253417,1603.23125536912,23600.));
#173= IFCAXIS2PLACEMENT3D(#172,#52,#53);
#174= IFCLOCALPLACEMENT(#42,#173);
#175= IFCCARTESIANPOINT((0.,-0.0999999999999929,0.));
#176= IFCAXIS2PLACEMENT3D(#175,#8,#7);
#177= IFCEXTRUDEDAREASOLID(#116,#176,#9,14.8);
#178= IFCSHAPEREPRESENTATION(#12,'Body','SweptSolid',(#177));
#179= IFCREPRESENTATIONMAP(#10,#178);
#180= IFCMAPPEDITEM(#179,#144);
#181= IFCMAPPEDITEM(#179,#147);
#182= IFCMAPPEDITEM(#179,#150);
#183= IFCMAPPEDITEM(#179,#153);
#184= IFCMAPPEDITEM(#179,#156);
#185= IFCMAPPEDITEM(#179,#159);
#186= IFCMAPPEDITEM(#179,#162);
#187= IFCMAPPEDITEM(#179,#123);
#188= IFCMAPPEDITEM(#179,#126);
#189= IFCMAPPEDITEM(#179,#129);
#190= IFCMAPPEDITEM(#179,#132);
#191= IFCMAPPEDITEM(#179,#135);
#192= IFCMAPPEDITEM(#179,#138);
#193= IFCMAPPEDITEM(#179,#141);
#194= IFCSHAPEREPRESENTATION(#12,'Body','MappedRepresentation',(#180,#181,#182,#183,#184,#185,#186,#187,#188,#189,#190,#191,#192,#193));
#195= IFCPRODUCTDEFINITIONSHAPE($,$,(#194));
#196= IFCOPENINGELEMENT('0VnBlms297VvxiGLGBsTce',#5,$,$,'Opening',#174,#195,$);
#197= IFCRELVOIDSELEMENT('115n1GDoPCihlLtutmuXiw',#5,'Drill Hole',$,#69,#196);
#198= IFCCARTESIANPOINT((42394.9997253418,1603.38125586591,23555.));
#199= IFCAXIS2PLACEMENT3D(#198,#53,#72);
#200= IFCLOCALPLACEMENT(#42,#199);
#201= IFCCARTESIANPOINT((0.,-4.79999924795616,0.));
#202= IFCAXIS2PLACEMENT3D(#201,#8,#7);
#203= IFCEXTRUDEDAREASOLID(#116,#202,#9,9.6);
#204= IFCSHAPEREPRESENTATION(#12,'Body','SweptSolid',(#203));
#205= IFCREPRESENTATIONMAP(#10,#204);
#206= IFCCARTESIANPOINT((40.,0.,40.));
#207= IFCCARTESIANTRANSFORMATIONOPERATOR3D($,$,#206,$,$);
#208= IFCMAPPEDITEM(#205,#207);
#209= IFCCARTESIANPOINT((110.,0.,40.));
#210= IFCCARTESIANTRANSFORMATIONOPERATOR3D($,$,#209,$,$);
#211= IFCMAPPEDITEM(#205,#210);
#212= IFCCARTESIANPOINT((180.,0.,40.));
#213= IFCCARTESIANTRANSFORMATIONOPERATOR3D($,$,#212,$,$);
#214= IFCMAPPEDITEM(#205,#213);
#215= IFCCARTESIANPOINT((250.,0.,40.));
#216= IFCCARTESIANTRANSFORMATIONOPERATOR3D($,$,#215,$,$);
#217= IFCMAPPEDITEM(#205,#216);
#218= IFCCARTESIANPOINT((320.,0.,40.));
#219= IFCCARTESIANTRANSFORMATIONOPERATOR3D($,$,#218,$,$);
#220= IFCMAPPEDITEM(#205,#219);
#221= IFCSHAPEREPRESENTATION(#12,'Body','MappedRepresentation',(#208,#211,#214,#217,#220));
#222= IFCPRODUCTDEFINITIONSHAPE($,$,(#221));
#223= IFCOPENINGELEMENT('2C7ZRTUir5A8FDpl1_DWIQ',#5,$,$,'Opening',#200,#222,$);
#224= IFCRELVOIDSELEMENT('3wR57zmMH74ubCXbBIBJlH',#5,'Drill Hole',$,#69,#223);
#225= IFCCARTESIANPOINT((34262.964924975,1602.47114135475,23150.));
#226= IFCDIRECTION((0.000467666999837093,-0.999999890643783,0.));
#227= IFCDIRECTION((0.999999890643783,0.000467666999833569,0.));
#228= IFCAXIS2PLACEMENT3D(#225,#226,#227);
#229= IFCLOCALPLACEMENT(#42,#228);
#230= IFCSHAPEREPRESENTATION(#12,'Body','MappedRepresentation',(#180,#181,#182,#183,#184,#185,#186,#187,#188,#189,#190,#191,#192,#193));
#231= IFCPRODUCTDEFINITIONSHAPE($,$,(#230));
#232= IFCOPENINGELEMENT('2y0szy7JjExxdMPY08gUFo',#5,$,$,'Opening',#229,#231,$);
#233= IFCRELVOIDSELEMENT('2xofZ50lb6iQvdfhCvktLR',#5,'Drill Hole',$,#69,#232);
#234= IFCCARTESIANPOINT((34223.,1602.16404650575,23600.));
#235= IFCAXIS2PLACEMENT3D(#234,#7,#72);
#236= IFCLOCALPLACEMENT(#42,#235);
#237= IFCCARTESIANPOINT((0.,-3.5828233785438,0.));
#238= IFCAXIS2PLACEMENT3D(#237,#8,#7);
#239= IFCEXTRUDEDAREASOLID(#116,#238,#9,9.6);
#240= IFCSHAPEREPRESENTATION(#12,'Body','SweptSolid',(#239));
#241= IFCREPRESENTATIONMAP(#10,#240);
#242= IFCCARTESIANPOINT((85.,0.,40.));
#243= IFCCARTESIANTRANSFORMATIONOPERATOR3D($,$,#242,$,$);
#244= IFCMAPPEDITEM(#241,#243);
#245= IFCCARTESIANPOINT((155.,0.,40.));
#246= IFCCARTESIANTRANSFORMATIONOPERATOR3D($,$,#245,$,$);
#247= IFCMAPPEDITEM(#241,#246);
#248= IFCCARTESIANPOINT((225.,0.,40.));
#249= IFCCARTESIANTRANSFORMATIONOPERATOR3D($,$,#248,$,$);
#250= IFCMAPPEDITEM(#241,#249);
#251= IFCCARTESIANPOINT((295.,0.,40.));
#252= IFCCARTESIANTRANSFORMATIONOPERATOR3D($,$,#251,$,$);
#253= IFCMAPPEDITEM(#241,#252);
#254= IFCCARTESIANPOINT((365.,0.,40.));
#255= IFCCARTESIANTRANSFORMATIONOPERATOR3D($,$,#254,$,$);
#256= IFCMAPPEDITEM(#241,#255);
#257= IFCSHAPEREPRESENTATION(#12,'Body','MappedRepresentation',(#244,#247,#250,#253,#256));
#258= IFCPRODUCTDEFINITIONSHAPE($,$,(#257));
#259= IFCOPENINGELEMENT('1ttIz_Hr5BKfwhpbyr4kOE',#5,$,$,'Opening',#236,#258,$);
#260= IFCRELVOIDSELEMENT('2wgljbmcfBfRwq3y22wScQ',#5,'Drill Hole',$,#69,#259);
#261= IFCCARTESIANPOINT((34262.964924975,1602.47114135475,23600.));
#262= IFCDIRECTION((-0.000467666999837093,0.999999890643783,0.));
#263= IFCAXIS2PLACEMENT3D(#261,#262,#227);
#264= IFCLOCALPLACEMENT(#42,#263);
#265= IFCSHAPEREPRESENTATION(#12,'Body','MappedRepresentation',(#180,#181,#182,#183,#184,#185,#186,#187,#188,#189,#190,#191,#192,#193));
#266= IFCPRODUCTDEFINITIONSHAPE($,$,(#265));
#267= IFCOPENINGELEMENT('29sHCkc$H4Tx0DmJMBTnlV',#5,$,$,'Opening',#264,#266,$);
#268= IFCRELVOIDSELEMENT('2JV4hOZRPDkBYFUganeGvw',#5,'Drill Hole',$,#69,#267);
#269= IFCPROPERTYSINGLEVALUE('PieceMark',$,IFCIDENTIFIER('BEAM'),$);
#270= IFCPROPERTYSINGLEVALUE('IndicationMark',$,IFCIDENTIFIER('b/1020'),$);
#271= IFCPROPERTYSINGLEVALUE('PrelimMark',$,IFCIDENTIFIER(''),$);
#272= IFCPROPERTYSINGLEVALUE('MainPieceTag',$,IFCBOOLEAN(.F.),$);
#273= IFCPROPERTYSET('0CDvr5ztn9iQqActL6nrGh',#5,'AISC_EM11_Pset_PieceIdentification','PieceIdentity',(#269,#270,#271,#272));
#274= IFCPROPERTYSINGLEVALUE('MaterialType',$,IFCIDENTIFIER('STEEL'),$);
#275= IFCPROPERTYSINGLEVALUE('MaterialGrade',$,IFCIDENTIFIER('S235JR'),$);
#276= IFCPROPERTYSET('3tF1Qh8FvDMuuDG1H_4B59',#5,'AISC_EM11_Pset_Material',$,(#274,#275));
#277= IFCPROPERTYSINGLEVALUE('SkewedAngleY',$,IFCREAL(0.),$);
#278= IFCPROPERTYSINGLEVALUE('SkewedAngleX',$,IFCREAL(0.),$);
#279= IFCPROPERTYSET('3KtA$HClf9oxXiM6ptpVf6',#5,'AISC_EM11_Pset_SkewedEnd',$,(#277,#278));
#280= IFCPROPERTYSET('2NiINwN85D5Bt7Y24tCReZ',#5,'AISC_EM11_Pset_SkewedEnd_2',$,(#277,#278));
#281= IFCMATERIAL('STEEL/S235JR');
#282= IFCRELAGGREGATES('3QMu_Z4uLC0QXDkCJZrozV',#5,$,$,#37,(#39));
#283= IFCRELAGGREGATES('2ieAGrMAdUIipV0Ubr74Fn',#5,$,$,#39,(#41));
#284= IFCRELAGGREGATES('0TwNXqbJz4SuGcjelpexL7',#5,$,$,#41,(#43));
#285= IFCRELCONTAINEDINSPATIALSTRUCTURE('0YUBBpdU9Eh94IcZnPt1mu',#5,$,$,(#69),#43);
#286= IFCRELDEFINESBYPROPERTIES('1vSmfSAML2FeT5vyr$eFDy',#5,$,$,(#91,#78),#84);
#287= IFCRELDEFINESBYPROPERTIES('1x5wrA35D4W9xc0NIF6HbI',#5,$,$,(#111,#100),#104);
#288= IFCRELDEFINESBYPROPERTIES('0DyBD5tMn31O2OBlvJGAPU',#5,$,$,(#267,#259,#232,#223,#196,#166),#171);
#289= IFCRELDEFINESBYPROPERTIES('1Spz8ex0r8mgoZtHlVU9xv',#5,$,$,(#69),#273);
#290= IFCRELDEFINESBYPROPERTIES('09PcFMXBr6x95UFhUTXQqd',#5,$,$,(#69),#276);
#291= IFCRELDEFINESBYPROPERTIES('2iGI331kbE48pMsPJtLvPH',#5,$,$,(#69),#279);
#292= IFCRELDEFINESBYPROPERTIES('3tBTcY4bP3$gKQbUJrIjPv',#5,$,$,(#69),#280);
#293= IFCRELASSOCIATESMATERIAL('1ukBjTZJ9CyPp4dsqhtmIX',#5,$,$,(#69),#281);
ENDSEC;

END-ISO-10303-21;
