ISO-10303-21;
HEADER;
FILE_DESCRIPTION(('ViewDefinition[AISC_Steel_Detailing]', 'Option [BaseQuantities:Off]', 'Option [GridExport:On]', 'Option [Assemblies:Off]', 'Option [Bolts:On]', 'Option [Rebars:On]', 'Option [PourObjects:Off]', 'Option [Welds:On]', 'Option [SurfaceTreatments:On]', 'Option [LocationBy:0]', 'Option [ViewColors:Off]', 'Option [SectionedSpine:Off]', 'Option [PropertySets:On]', 'Option [Export all:Off]'),'2;1');
FILE_NAME('b_1038_Qty_1.ifc','2026-05-16T11:52:53',('GIOVANNIPC\\gcorrea'),('Structural Designer'),'IFC Database version: Work','Tekla Structures 2020 Service Pack 5, IFC Export Version: 4.0.0.0 Dec  7 2020','');
FILE_SCHEMA(('IFC2X3'));
ENDSEC;

DATA;
#1= IFCPERSON('GIOVANNIPC\\gcorrea','Undefined',$,$,$,$,$,$);
#2= IFCORGANIZATION($,'Trimble Solutions Corporation',$,$,$);
#3= IFCPERSONANDORGANIZATION(#1,#2,$);
#4= IFCAPPLICATION(#2,'2020 Service Pack 5','Tekla Structures','Multi material modeling');
#5= IFCOWNERHISTORY(#3,#4,$,.NOCHANGE.,$,$,$,1778950373);
#6= IFCCARTESIANPOINT((0.,0.,0.));
#7= IFCDIRECTION((1.,0.,0.));
#8= IFCDIRECTION((0.,1.,0.));
#9= IFCDIRECTION((0.,0.,1.));
#10= IFCAXIS2PLACEMENT3D(#6,#9,#7);
#11= IFCGEOMETRICREPRESENTATIONCONTEXT($,'Model',3,1.E-05,#10,$);
#12= IFCGEOMETRICREPRESENTATIONSUBCONTEXT('Body','Model',*,*,*,*,#11,$,.MODEL_VIEW.,$);
#13= IFCGEOMETRICREPRESENTATIONSUBCONTEXT('Axis','Model',*,*,*,*,#11,$,.GRAPH_VIEW.,$);
#14= IFCGEOMETRICREPRESENTATIONSUBCONTEXT('FootPrint','Model',*,*,*,*,#11,$,.MODEL_VIEW.,$);
#15= IFCSIUNIT(*,.LENGTHUNIT.,.MILLI.,.METRE.);
#16= IFCMEASUREWITHUNIT(IFCRATIOMEASURE(304.8),#15);
#17= IFCDIMENSIONALEXPONENTS(1,0,0,0,0,0,0);
#18= IFCCONVERSIONBASEDUNIT(#17,.LENGTHUNIT.,'FOOT',#16);
#19= IFCSIUNIT(*,.AREAUNIT.,$,.SQUARE_METRE.);
#20= IFCMEASUREWITHUNIT(IFCRATIOMEASURE(0.09290304),#19);
#21= IFCDIMENSIONALEXPONENTS(2,0,0,0,0,0,0);
#22= IFCCONVERSIONBASEDUNIT(#21,.AREAUNIT.,'SQUARE FOOT',#20);
#23= IFCSIUNIT(*,.VOLUMEUNIT.,$,.CUBIC_METRE.);
#24= IFCMEASUREWITHUNIT(IFCRATIOMEASURE(0.028316846592),#23);
#25= IFCDIMENSIONALEXPONENTS(3,0,0,0,0,0,0);
#26= IFCCONVERSIONBASEDUNIT(#25,.VOLUMEUNIT.,'CUBIC FOOT',#24);
#27= IFCSIUNIT(*,.MASSUNIT.,.KILO.,.GRAM.);
#28= IFCSIUNIT(*,.TIMEUNIT.,$,.SECOND.);
#29= IFCSIUNIT(*,.PLANEANGLEUNIT.,$,.RADIAN.);
#30= IFCMEASUREWITHUNIT(IFCRATIOMEASURE(0.0174532925199433),#29);
#31= IFCDIMENSIONALEXPONENTS(0,0,0,0,0,0,0);
#32= IFCCONVERSIONBASEDUNIT(#31,.PLANEANGLEUNIT.,'DEGREE',#30);
#33= IFCSIUNIT(*,.SOLIDANGLEUNIT.,$,.STERADIAN.);
#34= IFCSIUNIT(*,.THERMODYNAMICTEMPERATUREUNIT.,$,.DEGREE_CELSIUS.);
#35= IFCSIUNIT(*,.LUMINOUSINTENSITYUNIT.,$,.LUMEN.);
#36= IFCUNITASSIGNMENT((#15,#19,#23,#27,#28,#29,#33,#34,#35));
#37= IFCPROJECT('2G7ZFDNE16yBDU14FA92Me',#5,'Proyecto',$,$,$,$,(#11),#36);
#38= IFCLOCALPLACEMENT($,#10);
#39= IFCSITE('2xvEzEinjBTea80yOTcujY',#5,'Obra',$,$,#38,$,$,.ELEMENT.,$,$,$,$,$);
#40= IFCLOCALPLACEMENT(#38,#10);
#41= IFCBUILDING('0Gi0U2QR97$uZ7MG0RL5CQ',#5,'Undefined',$,$,#40,$,$,.ELEMENT.,$,$,$);
#42= IFCLOCALPLACEMENT(#40,#10);
#43= IFCBUILDINGSTOREY('29hdEUCErFze9E_VIAceOd',#5,'Undefined',$,$,#42,$,$,.ELEMENT.,0.);
#44= IFCOWNERHISTORY(#3,#4,$,.NOCHANGE.,$,$,$,1773849600);
#45= IFCCARTESIANPOINT((59499.9997253418,1728.38135910034,23375.));
#46= IFCAXIS2PLACEMENT3D(#45,#9,#8);
#47= IFCLOCALPLACEMENT(#42,#46);
#48= IFCDIRECTION((1.,0.));
#49= IFCCARTESIANPOINT((0.,0.));
#50= IFCAXIS2PLACEMENT2D(#49,#48);
#51= IFCISHAPEPROFILEDEF(.AREA.,'IPE450',#50,190.,450.,9.399999619,14.60000038,21.);
#52= IFCDIRECTION((0.,-1.,0.));
#53= IFCDIRECTION((-1.,0.,0.));
#54= IFCCARTESIANPOINT((6758.03340915946,0.,0.));
#55= IFCAXIS2PLACEMENT3D(#54,#53,#52);
#56= IFCEXTRUDEDAREASOLID(#51,#55,#9,6745.53);
#57= IFCCARTESIANPOINT((6731.8823964809,-95.0000039297665,-225.));
#58= IFCAXIS2PLACEMENT3D(#57,#7,#9);
#59= IFCPLANE(#58);
#60= IFCHALFSPACESOLID(#59,.F.);
#61= IFCBOOLEANCLIPPINGRESULT(.DIFFERENCE.,#56,#60);
#62= IFCCARTESIANPOINT((12.5000000000002,0.,-325.));
#63= IFCAXIS2PLACEMENT3D(#62,#7,#52);
#64= IFCPLANE(#63);
#65= IFCHALFSPACESOLID(#64,.T.);
#66= IFCBOOLEANCLIPPINGRESULT(.DIFFERENCE.,#61,#65);
#67= IFCSHAPEREPRESENTATION(#12,'Body','Clipping',(#66));
#68= IFCPRODUCTDEFINITIONSHAPE($,$,(#67));
#69= IFCBEAM('0ko0WLoh1Dnx249wRWFz1L',#44,'BEAM','IPE450','IPE450',#47,#68,'ID2ec80815-cab0-4dc7-b084-27a6e03fd055');
#70= IFCCARTESIANPOINT((59499.9997277553,1778.38132995034,23150.));
#71= IFCAXIS2PLACEMENT3D(#70,#7,#8);
#72= IFCLOCALPLACEMENT(#42,#71);
#73= IFCCIRCLEPROFILEDEF(.AREA.,$,#50,12.5);
#74= IFCCARTESIANPOINT((0.,-0.0999999999999929,0.));
#75= IFCAXIS2PLACEMENT3D(#74,#8,#7);
#76= IFCEXTRUDEDAREASOLID(#73,#75,#9,14.8);
#77= IFCSHAPEREPRESENTATION(#12,'Body','SweptSolid',(#76));
#78= IFCREPRESENTATIONMAP(#10,#77);
#79= IFCCARTESIANPOINT((0.,0.,50.0000000000146));
#80= IFCCARTESIANTRANSFORMATIONOPERATOR3D($,$,#79,$,$);
#81= IFCMAPPEDITEM(#78,#80);
#82= IFCCARTESIANPOINT((69.999999999992,0.,50.0000000000655));
#83= IFCCARTESIANTRANSFORMATIONOPERATOR3D($,$,#82,$,$);
#84= IFCMAPPEDITEM(#78,#83);
#85= IFCCARTESIANPOINT((139.999999999984,0.,50.0000000001091));
#86= IFCCARTESIANTRANSFORMATIONOPERATOR3D($,$,#85,$,$);
#87= IFCMAPPEDITEM(#78,#86);
#88= IFCCARTESIANPOINT((209.999999999976,0.,50.0000000001601));
#89= IFCCARTESIANTRANSFORMATIONOPERATOR3D($,$,#88,$,$);
#90= IFCMAPPEDITEM(#78,#89);
#91= IFCCARTESIANPOINT((279.999999999968,0.,50.0000000002037));
#92= IFCCARTESIANTRANSFORMATIONOPERATOR3D($,$,#91,$,$);
#93= IFCMAPPEDITEM(#78,#92);
#94= IFCCARTESIANPOINT((349.99999999996,0.,50.0000000002547));
#95= IFCCARTESIANTRANSFORMATIONOPERATOR3D($,$,#94,$,$);
#96= IFCMAPPEDITEM(#78,#95);
#97= IFCCARTESIANPOINT((419.999999999952,0.,50.0000000003056));
#98= IFCCARTESIANTRANSFORMATIONOPERATOR3D($,$,#97,$,$);
#99= IFCMAPPEDITEM(#78,#98);
#100= IFCCARTESIANPOINT((0.,0.,-50.0000000000146));
#101= IFCCARTESIANTRANSFORMATIONOPERATOR3D($,$,#100,$,$);
#102= IFCMAPPEDITEM(#78,#101);
#103= IFCCARTESIANPOINT((69.999999999992,0.,-49.9999999999709));
#104= IFCCARTESIANTRANSFORMATIONOPERATOR3D($,$,#103,$,$);
#105= IFCMAPPEDITEM(#78,#104);
#106= IFCCARTESIANPOINT((139.999999999984,0.,-49.99999999992));
#107= IFCCARTESIANTRANSFORMATIONOPERATOR3D($,$,#106,$,$);
#108= IFCMAPPEDITEM(#78,#107);
#109= IFCCARTESIANPOINT((209.999999999976,0.,-49.9999999998763));
#110= IFCCARTESIANTRANSFORMATIONOPERATOR3D($,$,#109,$,$);
#111= IFCMAPPEDITEM(#78,#110);
#112= IFCCARTESIANPOINT((279.999999999968,0.,-49.9999999998254));
#113= IFCCARTESIANTRANSFORMATIONOPERATOR3D($,$,#112,$,$);
#114= IFCMAPPEDITEM(#78,#113);
#115= IFCCARTESIANPOINT((349.99999999996,0.,-49.9999999997817));
#116= IFCCARTESIANTRANSFORMATIONOPERATOR3D($,$,#115,$,$);
#117= IFCMAPPEDITEM(#78,#116);
#118= IFCCARTESIANPOINT((419.999999999952,0.,-49.9999999997308));
#119= IFCCARTESIANTRANSFORMATIONOPERATOR3D($,$,#118,$,$);
#120= IFCMAPPEDITEM(#78,#119);
#121= IFCSHAPEREPRESENTATION(#12,'Body','MappedRepresentation',(#81,#84,#87,#90,#93,#96,#99,#102,#105,#108,#111,#114,#117,#120));
#122= IFCPRODUCTDEFINITIONSHAPE($,$,(#121));
#123= IFCOPENINGELEMENT('2hxsKHuP1BFhpGoYsIY1ai',#5,$,$,'Opening',#72,#122,$);
#124= IFCRELVOIDSELEMENT('2tsgnsKO1BYf0ZbSEDBquc',#5,'Drill Hole',$,#69,#123);
#125= IFCPROPERTYSINGLEVALUE('FeatureSubTypes',$,IFCLABEL('TORNILLO'),$);
#126= IFCPROPERTYSINGLEVALUE('RectangleOpeningWidth',$,$,$);
#127= IFCPROPERTYSINGLEVALUE('RectangleOpeningHeight',$,$,$);
#128= IFCPROPERTYSINGLEVALUE('OpeningDiameter',$,$,$);
#129= IFCPROPERTYSET('0IU89KO7X82uHB2EDIWqkx',#5,'AISC_EM11_Pset_Opening/Cope',$,(#125,#126,#127,#128));
#130= IFCCARTESIANPOINT((59499.9997277553,1778.38132995034,23600.));
#131= IFCAXIS2PLACEMENT3D(#130,#53,#8);
#132= IFCLOCALPLACEMENT(#42,#131);
#133= IFCSHAPEREPRESENTATION(#12,'Body','MappedRepresentation',(#102,#105,#108,#111,#114,#117,#120,#81,#84,#87,#90,#93,#96,#99));
#134= IFCPRODUCTDEFINITIONSHAPE($,$,(#133));
#135= IFCOPENINGELEMENT('2EKpu4MZvAEgrweWi0N0Ti',#5,$,$,'Opening',#132,#134,$);
#136= IFCRELVOIDSELEMENT('1Q1HK5OAz3hwen5fnzHb4K',#5,'Drill Hole',$,#69,#135);
#137= IFCCARTESIANPOINT((59499.9997253418,1738.38135910034,23600.));
#138= IFCDIRECTION((0.,0.,-1.));
#139= IFCAXIS2PLACEMENT3D(#137,#8,#138);
#140= IFCLOCALPLACEMENT(#42,#139);
#141= IFCCIRCLEPROFILEDEF(.AREA.,$,#50,11.5);
#142= IFCCARTESIANPOINT((0.,-4.79999980949797,0.));
#143= IFCAXIS2PLACEMENT3D(#142,#8,#7);
#144= IFCEXTRUDEDAREASOLID(#141,#143,#9,9.6);
#145= IFCSHAPEREPRESENTATION(#12,'Body','SweptSolid',(#144));
#146= IFCREPRESENTATIONMAP(#10,#145);
#147= IFCCARTESIANPOINT((85.,0.,40.));
#148= IFCCARTESIANTRANSFORMATIONOPERATOR3D($,$,#147,$,$);
#149= IFCMAPPEDITEM(#146,#148);
#150= IFCCARTESIANPOINT((155.,0.,40.));
#151= IFCCARTESIANTRANSFORMATIONOPERATOR3D($,$,#150,$,$);
#152= IFCMAPPEDITEM(#146,#151);
#153= IFCCARTESIANPOINT((225.,0.,40.));
#154= IFCCARTESIANTRANSFORMATIONOPERATOR3D($,$,#153,$,$);
#155= IFCMAPPEDITEM(#146,#154);
#156= IFCCARTESIANPOINT((295.,0.,40.));
#157= IFCCARTESIANTRANSFORMATIONOPERATOR3D($,$,#156,$,$);
#158= IFCMAPPEDITEM(#146,#157);
#159= IFCCARTESIANPOINT((365.,0.,40.));
#160= IFCCARTESIANTRANSFORMATIONOPERATOR3D($,$,#159,$,$);
#161= IFCMAPPEDITEM(#146,#160);
#162= IFCSHAPEREPRESENTATION(#12,'Body','MappedRepresentation',(#149,#152,#155,#158,#161));
#163= IFCPRODUCTDEFINITIONSHAPE($,$,(#162));
#164= IFCOPENINGELEMENT('3_V4g9uEP39fMNjdCTZaKY',#5,$,$,'Opening',#140,#163,$);
#165= IFCRELVOIDSELEMENT('0tPsjeBU11fvwHOftFcN06',#5,'Drill Hole',$,#69,#164);
#166= IFCPROPERTYSINGLEVALUE('PieceMark',$,IFCIDENTIFIER('BEAM'),$);
#167= IFCPROPERTYSINGLEVALUE('IndicationMark',$,IFCIDENTIFIER('b/1038'),$);
#168= IFCPROPERTYSINGLEVALUE('PrelimMark',$,IFCIDENTIFIER(''),$);
#169= IFCPROPERTYSINGLEVALUE('MainPieceTag',$,IFCBOOLEAN(.T.),$);
#170= IFCPROPERTYSET('1BA7jvrzn03vnS7J2XlbdA',#5,'AISC_EM11_Pset_PieceIdentification','PieceIdentity',(#166,#167,#168,#169));
#171= IFCPROPERTYSINGLEVALUE('MaterialType',$,IFCIDENTIFIER('STEEL'),$);
#172= IFCPROPERTYSINGLEVALUE('MaterialGrade',$,IFCIDENTIFIER('S235JR'),$);
#173= IFCPROPERTYSET('3486dYmmL7uOA5dHhOOjCn',#5,'AISC_EM11_Pset_Material',$,(#171,#172));
#174= IFCPROPERTYSINGLEVALUE('SkewedAngleY',$,IFCREAL(0.),$);
#175= IFCPROPERTYSINGLEVALUE('SkewedAngleX',$,IFCREAL(0.),$);
#176= IFCPROPERTYSET('3HMGJSjz9EQ9AVOXoHC4cq',#5,'AISC_EM11_Pset_SkewedEnd',$,(#174,#175));
#177= IFCPROPERTYSET('3bdAvJL51EIgwDMimdVfF7',#5,'AISC_EM11_Pset_SkewedEnd_2',$,(#174,#175));
#178= IFCMATERIAL('STEEL/S235JR');
#179= IFCRELAGGREGATES('2qldZmU8LBPODZNQq1k7he',#5,$,$,#37,(#39));
#180= IFCRELAGGREGATES('261vr2mQdThgVrfi6J0Pzw',#5,$,$,#39,(#41));
#181= IFCRELAGGREGATES('12Fuq$ZKP5cOLEThoJOueb',#5,$,$,#41,(#43));
#182= IFCRELCONTAINEDINSPATIALSTRUCTURE('0Fu_Ans9n8R8xEMaTeyuy8',#5,$,$,(#69),#43);
#183= IFCRELDEFINESBYPROPERTIES('0Du1oqcJX3$A00NqbXHbjS',#5,$,$,(#164,#135,#123),#129);
#184= IFCRELDEFINESBYPROPERTIES('0Ner68pfr7RhOroxIDD_cM',#5,$,$,(#69),#170);
#185= IFCRELDEFINESBYPROPERTIES('0g_5n_J0LFEfctFOj1eY97',#5,$,$,(#69),#173);
#186= IFCRELDEFINESBYPROPERTIES('23hjtavxX3HwjGP9wdQ4Pa',#5,$,$,(#69),#176);
#187= IFCRELDEFINESBYPROPERTIES('1qMnbs9gb7vBV2CA4Ul7YE',#5,$,$,(#69),#177);
#188= IFCRELASSOCIATESMATERIAL('2MU44pNBz9TAQORs5Q9X6Z',#5,$,$,(#69),#178);
ENDSEC;

END-ISO-10303-21;
