ISO-10303-21;
HEADER;
FILE_DESCRIPTION(('ViewDefinition[AISC_Steel_Detailing]', 'Option [BaseQuantities:Off]', 'Option [GridExport:On]', 'Option [Assemblies:Off]', 'Option [Bolts:On]', 'Option [Rebars:On]', 'Option [PourObjects:Off]', 'Option [Welds:On]', 'Option [SurfaceTreatments:On]', 'Option [LocationBy:0]', 'Option [ViewColors:Off]', 'Option [SectionedSpine:Off]', 'Option [PropertySets:On]', 'Option [Export all:Off]'),'2;1');
FILE_NAME('b_1035_Qty_1.ifc','2026-05-16T11:53:20',('GIOVANNIPC\\gcorrea'),('Structural Designer'),'IFC Database version: Work','Tekla Structures 2020 Service Pack 5, IFC Export Version: 4.0.0.0 Dec  7 2020','');
FILE_SCHEMA(('IFC2X3'));
ENDSEC;

DATA;
#1= IFCPERSON('GIOVANNIPC\\gcorrea','Undefined',$,$,$,$,$,$);
#2= IFCORGANIZATION($,'Trimble Solutions Corporation',$,$,$);
#3= IFCPERSONANDORGANIZATION(#1,#2,$);
#4= IFCAPPLICATION(#2,'2020 Service Pack 5','Tekla Structures','Multi material modeling');
#5= IFCOWNERHISTORY(#3,#4,$,.NOCHANGE.,$,$,$,1778950400);
#6= IFCCARTESIANPOINT((0.,0.,0.));
#7= IFCDIRECTION((1.,0.,0.));
#8= IFCDIRECTION((0.,1.,0.));
#9= IFCDIRECTION((0.,0.,1.));
#10= IFCAXIS2PLACEMENT3D(#6,#9,#7);
#11= IFCGEOMETRICREPRESENTATIONCONTEXT($,'Model',3,1.E-05,#10,$);
#12= IFCGEOMETRICREPRESENTATIONSUBCONTEXT('Body','Model',*,*,*,*,#11,$,.MODEL_VIEW.,$);
#13= IFCGEOMETRICREPRESENTATIONSUBCONTEXT('Axis','Model',*,*,*,*,#11,$,.GRAPH_VIEW.,$);
#14= IFCGEOMETRICREPRESENTATIONSUBCONTEXT('FootPrint','Model',*,*,*,*,#11,$,.MODEL_VIEW.,$);
#15= IFCSIUNIT(*,.LENGTHUNIT.,.MILLI.,.METRE.);
#16= IFCMEASUREWITHUNIT(IFCRATIOMEASURE(304.8),#15);
#17= IFCDIMENSIONALEXPONENTS(1,0,0,0,0,0,0);
#18= IFCCONVERSIONBASEDUNIT(#17,.LENGTHUNIT.,'FOOT',#16);
#19= IFCSIUNIT(*,.AREAUNIT.,$,.SQUARE_METRE.);
#20= IFCMEASUREWITHUNIT(IFCRATIOMEASURE(0.09290304),#19);
#21= IFCDIMENSIONALEXPONENTS(2,0,0,0,0,0,0);
#22= IFCCONVERSIONBASEDUNIT(#21,.AREAUNIT.,'SQUARE FOOT',#20);
#23= IFCSIUNIT(*,.VOLUMEUNIT.,$,.CUBIC_METRE.);
#24= IFCMEASUREWITHUNIT(IFCRATIOMEASURE(0.028316846592),#23);
#25= IFCDIMENSIONALEXPONENTS(3,0,0,0,0,0,0);
#26= IFCCONVERSIONBASEDUNIT(#25,.VOLUMEUNIT.,'CUBIC FOOT',#24);
#27= IFCSIUNIT(*,.MASSUNIT.,.KILO.,.GRAM.);
#28= IFCSIUNIT(*,.TIMEUNIT.,$,.SECOND.);
#29= IFCSIUNIT(*,.PLANEANGLEUNIT.,$,.RADIAN.);
#30= IFCMEASUREWITHUNIT(IFCRATIOMEASURE(0.0174532925199433),#29);
#31= IFCDIMENSIONALEXPONENTS(0,0,0,0,0,0,0);
#32= IFCCONVERSIONBASEDUNIT(#31,.PLANEANGLEUNIT.,'DEGREE',#30);
#33= IFCSIUNIT(*,.SOLIDANGLEUNIT.,$,.STERADIAN.);
#34= IFCSIUNIT(*,.THERMODYNAMICTEMPERATUREUNIT.,$,.DEGREE_CELSIUS.);
#35= IFCSIUNIT(*,.LUMINOUSINTENSITYUNIT.,$,.LUMEN.);
#36= IFCUNITASSIGNMENT((#15,#19,#23,#27,#28,#29,#33,#34,#35));
#37= IFCPROJECT('2G7ZFDNE16yBDU14FA92Me',#5,'Proyecto',$,$,$,$,(#11),#36);
#38= IFCLOCALPLACEMENT($,#10);
#39= IFCSITE('2xvEzEinjBTea80yOTcujY',#5,'Obra',$,$,#38,$,$,.ELEMENT.,$,$,$,$,$);
#40= IFCLOCALPLACEMENT(#38,#10);
#41= IFCBUILDING('1hVlYyfcz7bwFCxuNXkQNN',#5,'Undefined',$,$,#40,$,$,.ELEMENT.,$,$,$);
#42= IFCLOCALPLACEMENT(#40,#10);
#43= IFCBUILDINGSTOREY('29hdEUCErFze9E_VIAceOd',#5,'Undefined',$,$,#42,$,$,.ELEMENT.,0.);
#44= IFCOWNERHISTORY(#3,#4,$,.NOCHANGE.,$,$,$,1774022400);
#45= IFCCARTESIANPOINT((68222.3851899033,1603.38169961141,19130.));
#46= IFCAXIS2PLACEMENT3D(#45,#9,#7);
#47= IFCLOCALPLACEMENT(#42,#46);
#48= IFCDIRECTION((1.,0.));
#49= IFCCARTESIANPOINT((0.,0.));
#50= IFCAXIS2PLACEMENT2D(#49,#48);
#51= IFCISHAPEPROFILEDEF(.AREA.,'HEA450',#50,300.,440.,11.5,21.,27.);
#52= IFCDIRECTION((0.,-1.,0.));
#53= IFCDIRECTION((-1.,0.,0.));
#54= IFCCARTESIANPOINT((8140.11482797777,2.27373675443232E-13,3.63797880709171E-12));
#55= IFCAXIS2PLACEMENT3D(#54,#53,#52);
#56= IFCEXTRUDEDAREASOLID(#51,#55,#9,8139.6);
#57= IFCCARTESIANPOINT((8140.11481009674,-5.89999899602844E-07,-319.999999999996));
#58= IFCAXIS2PLACEMENT3D(#57,#53,#8);
#59= IFCPLANE(#58);
#60= IFCHALFSPACESOLID(#59,.T.);
#61= IFCBOOLEANCLIPPINGRESULT(.DIFFERENCE.,#56,#60);
#62= IFCCARTESIANPOINT((0.515997283073375,0.0897411105011088,-324.999999999996));
#63= IFCAXIS2PLACEMENT3D(#62,#7,#52);
#64= IFCPLANE(#63);
#65= IFCHALFSPACESOLID(#64,.T.);
#66= IFCBOOLEANCLIPPINGRESULT(.DIFFERENCE.,#61,#65);
#67= IFCSHAPEREPRESENTATION(#12,'Body','Clipping',(#66));
#68= IFCPRODUCTDEFINITIONSHAPE($,$,(#67));
#69= IFCBEAM('3Wk7zX24D2bBmOorsLxadc',#44,'BEAM','HEA450','HEA450',#47,#68,'IDe0b87f61-0843-4294-bc18-cb5d95ee49e6');
#70= IFCLOCALPLACEMENT(#42,#46);
#71= IFCRECTANGLEPROFILEDEF(.AREA.,'PL162.8*12',#50,12.,162.8);
#72= IFCDIRECTION((0.,0.,-1.));
#73= IFCCARTESIANPOINT((-15.3939589575748,69.6016848296856,221.000000000004));
#74= IFCAXIS2PLACEMENT3D(#73,#72,#7);
#75= IFCEXTRUDEDAREASOLID(#71,#74,#9,442.);
#76= IFCSHAPEREPRESENTATION(#12,'Body','SweptSolid',(#75));
#77= IFCPRODUCTDEFINITIONSHAPE($,$,(#76));
#78= IFCOPENINGELEMENT('3XvoznI$T6_Ah3JLFS8_8X',#5,$,$,'Recess',#70,#77,$);
#79= IFCRELVOIDSELEMENT('3Ge$YeUIn2YRPVbANFMxlc',#5,$,$,#69,#78);
#80= IFCPROPERTYSINGLEVALUE('FeatureSubTypes',$,$,$);
#81= IFCPROPERTYSINGLEVALUE('RectangleOpeningWidth',$,IFCPOSITIVELENGTHMEASURE(12.),$);
#82= IFCPROPERTYSINGLEVALUE('RectangleOpeningHeight',$,IFCPOSITIVELENGTHMEASURE(162.8),$);
#83= IFCPROPERTYSINGLEVALUE('OpeningDiameter',$,$,$);
#84= IFCPROPERTYSET('3EEHPpGIv8bOO3LHhg0Uzl',#5,'AISC_EM11_Pset_Opening/Cope',$,(#80,#81,#82,#83));
#85= IFCLOCALPLACEMENT(#42,#46);
#86= IFCRECTANGLEPROFILEDEF(.AREA.,'PL163.2*12',#50,12.,163.2);
#87= IFCCARTESIANPOINT((-15.3939507564501,-69.4003142363636,221.000000000004));
#88= IFCAXIS2PLACEMENT3D(#87,#72,#7);
#89= IFCEXTRUDEDAREASOLID(#86,#88,#9,442.);
#90= IFCSHAPEREPRESENTATION(#12,'Body','SweptSolid',(#89));
#91= IFCPRODUCTDEFINITIONSHAPE($,$,(#90));
#92= IFCOPENINGELEMENT('3Nx9rC2_LAdfqaO7U1H3NS',#5,$,$,'Recess',#85,#91,$);
#93= IFCRELVOIDSELEMENT('2LoBoLySHAaPZE9nsJaUd9',#5,$,$,#69,#92);
#94= IFCPROPERTYSINGLEVALUE('RectangleOpeningHeight',$,IFCPOSITIVELENGTHMEASURE(163.2),$);
#95= IFCPROPERTYSET('181S0ui1b4hx9c0FkJ0Tvj',#5,'AISC_EM11_Pset_Opening/Cope',$,(#80,#81,#94,#83));
#96= IFCLOCALPLACEMENT(#42,#46);
#97= IFCRECTANGLEPROFILEDEF(.AREA.,'PL108*12.1',#50,12.1,108.);
#98= IFCCARTESIANPOINT((-15.4346178374399,43.2189999563382,226.000000000004));
#99= IFCAXIS2PLACEMENT3D(#98,#72,#7);
#100= IFCEXTRUDEDAREASOLID(#97,#99,#9,452.);
#101= IFCSHAPEREPRESENTATION(#12,'Body','SweptSolid',(#100));
#102= IFCPRODUCTDEFINITIONSHAPE($,$,(#101));
#103= IFCOPENINGELEMENT('2PCiMd9y51nway7nHa2ZQ_',#5,$,$,'Recess',#96,#102,$);
#104= IFCRELVOIDSELEMENT('3t1PFlJfD0nuLeJM1idOw0',#5,$,$,#69,#103);
#105= IFCPROPERTYSINGLEVALUE('RectangleOpeningWidth',$,IFCPOSITIVELENGTHMEASURE(12.1),$);
#106= IFCPROPERTYSINGLEVALUE('RectangleOpeningHeight',$,IFCPOSITIVELENGTHMEASURE(108.),$);
#107= IFCPROPERTYSET('1P3Mspzh15rv1rG5ou5RZ5',#5,'AISC_EM11_Pset_Opening/Cope',$,(#80,#105,#106,#83));
#108= IFCLOCALPLACEMENT(#42,#46);
#109= IFCRECTANGLEPROFILEDEF(.AREA.,'PL109.1*12.1',#50,12.1,109.1);
#110= IFCCARTESIANPOINT((-15.4346128482575,-41.3434258490192,226.000000000004));
#111= IFCAXIS2PLACEMENT3D(#110,#72,#7);
#112= IFCEXTRUDEDAREASOLID(#109,#111,#9,452.);
#113= IFCSHAPEREPRESENTATION(#12,'Body','SweptSolid',(#112));
#114= IFCPRODUCTDEFINITIONSHAPE($,$,(#113));
#115= IFCOPENINGELEMENT('1S1RzUd2975uHBuy169flK',#5,$,$,'Recess',#108,#114,$);
#116= IFCRELVOIDSELEMENT('0VOiYURxz6vBvVu0bnFE8E',#5,$,$,#69,#115);
#117= IFCPROPERTYSINGLEVALUE('RectangleOpeningHeight',$,IFCPOSITIVELENGTHMEASURE(109.1),$);
#118= IFCPROPERTYSET('1ue99hSnz3qu86CzATj0ZO',#5,'AISC_EM11_Pset_Opening/Cope',$,(#80,#105,#117,#83));
#119= IFCCARTESIANPOINT((76362.5,1603.38121993416,19350.));
#120= IFCAXIS2PLACEMENT3D(#119,#53,#72);
#121= IFCLOCALPLACEMENT(#42,#120);
#122= IFCCIRCLEPROFILEDEF(.AREA.,$,#50,11.);
#123= IFCCARTESIANPOINT((0.,-5.85000177000197,0.));
#124= IFCAXIS2PLACEMENT3D(#123,#8,#7);
#125= IFCEXTRUDEDAREASOLID(#122,#124,#9,11.7);
#126= IFCSHAPEREPRESENTATION(#12,'Body','SweptSolid',(#125));
#127= IFCREPRESENTATIONMAP(#10,#126);
#128= IFCCARTESIANPOINT((80.,0.,40.));
#129= IFCCARTESIANTRANSFORMATIONOPERATOR3D($,$,#128,$,$);
#130= IFCMAPPEDITEM(#127,#129);
#131= IFCCARTESIANPOINT((150.,0.,40.));
#132= IFCCARTESIANTRANSFORMATIONOPERATOR3D($,$,#131,$,$);
#133= IFCMAPPEDITEM(#127,#132);
#134= IFCCARTESIANPOINT((220.,0.,40.));
#135= IFCCARTESIANTRANSFORMATIONOPERATOR3D($,$,#134,$,$);
#136= IFCMAPPEDITEM(#127,#135);
#137= IFCCARTESIANPOINT((290.,0.,40.));
#138= IFCCARTESIANTRANSFORMATIONOPERATOR3D($,$,#137,$,$);
#139= IFCMAPPEDITEM(#127,#138);
#140= IFCCARTESIANPOINT((360.,0.,40.));
#141= IFCCARTESIANTRANSFORMATIONOPERATOR3D($,$,#140,$,$);
#142= IFCMAPPEDITEM(#127,#141);
#143= IFCSHAPEREPRESENTATION(#12,'Body','MappedRepresentation',(#130,#133,#136,#139,#142));
#144= IFCPRODUCTDEFINITIONSHAPE($,$,(#143));
#145= IFCOPENINGELEMENT('1pBnSxK$HFSg6n$k8ql_sZ',#5,$,$,'Opening',#121,#144,$);
#146= IFCRELVOIDSELEMENT('2GSWT5ZG93tvt6eeA0qqVW',#5,'Drill Hole',$,#69,#145);
#147= IFCPROPERTYSINGLEVALUE('FeatureSubTypes',$,IFCLABEL('TORNILLO'),$);
#148= IFCPROPERTYSINGLEVALUE('RectangleOpeningWidth',$,$,$);
#149= IFCPROPERTYSINGLEVALUE('RectangleOpeningHeight',$,$,$);
#150= IFCPROPERTYSET('10AmBvucj8GR922bnsmZny',#5,'AISC_EM11_Pset_Opening/Cope',$,(#147,#148,#149,#83));
#151= IFCCARTESIANPOINT((76324.9997253418,1603.38122277425,18910.));
#152= IFCAXIS2PLACEMENT3D(#151,#8,#53);
#153= IFCLOCALPLACEMENT(#42,#152);
#154= IFCCIRCLEPROFILEDEF(.AREA.,$,#50,12.5);
#155= IFCCARTESIANPOINT((0.,-0.1,0.));
#156= IFCAXIS2PLACEMENT3D(#155,#8,#7);
#157= IFCEXTRUDEDAREASOLID(#154,#156,#9,21.2);
#158= IFCSHAPEREPRESENTATION(#12,'Body','SweptSolid',(#157));
#159= IFCREPRESENTATIONMAP(#10,#158);
#160= IFCCARTESIANPOINT((0.,0.,-75.));
#161= IFCCARTESIANTRANSFORMATIONOPERATOR3D($,$,#160,$,$);
#162= IFCMAPPEDITEM(#159,#161);
#163= IFCCARTESIANPOINT((75.,0.,-75.));
#164= IFCCARTESIANTRANSFORMATIONOPERATOR3D($,$,#163,$,$);
#165= IFCMAPPEDITEM(#159,#164);
#166= IFCCARTESIANPOINT((150.,0.,-75.));
#167= IFCCARTESIANTRANSFORMATIONOPERATOR3D($,$,#166,$,$);
#168= IFCMAPPEDITEM(#159,#167);
#169= IFCCARTESIANPOINT((225.,0.,-75.));
#170= IFCCARTESIANTRANSFORMATIONOPERATOR3D($,$,#169,$,$);
#171= IFCMAPPEDITEM(#159,#170);
#172= IFCCARTESIANPOINT((300.,0.,-75.));
#173= IFCCARTESIANTRANSFORMATIONOPERATOR3D($,$,#172,$,$);
#174= IFCMAPPEDITEM(#159,#173);
#175= IFCCARTESIANPOINT((375.,0.,-75.));
#176= IFCCARTESIANTRANSFORMATIONOPERATOR3D($,$,#175,$,$);
#177= IFCMAPPEDITEM(#159,#176);
#178= IFCCARTESIANPOINT((450.,0.,-75.));
#179= IFCCARTESIANTRANSFORMATIONOPERATOR3D($,$,#178,$,$);
#180= IFCMAPPEDITEM(#159,#179);
#181= IFCCARTESIANPOINT((525.,0.,-75.));
#182= IFCCARTESIANTRANSFORMATIONOPERATOR3D($,$,#181,$,$);
#183= IFCMAPPEDITEM(#159,#182);
#184= IFCCARTESIANPOINT((600.,0.,-75.));
#185= IFCCARTESIANTRANSFORMATIONOPERATOR3D($,$,#184,$,$);
#186= IFCMAPPEDITEM(#159,#185);
#187= IFCCARTESIANPOINT((675.,0.,-75.));
#188= IFCCARTESIANTRANSFORMATIONOPERATOR3D($,$,#187,$,$);
#189= IFCMAPPEDITEM(#159,#188);
#190= IFCCARTESIANPOINT((0.,0.,75.));
#191= IFCCARTESIANTRANSFORMATIONOPERATOR3D($,$,#190,$,$);
#192= IFCMAPPEDITEM(#159,#191);
#193= IFCCARTESIANPOINT((75.,0.,75.));
#194= IFCCARTESIANTRANSFORMATIONOPERATOR3D($,$,#193,$,$);
#195= IFCMAPPEDITEM(#159,#194);
#196= IFCCARTESIANPOINT((150.,0.,75.));
#197= IFCCARTESIANTRANSFORMATIONOPERATOR3D($,$,#196,$,$);
#198= IFCMAPPEDITEM(#159,#197);
#199= IFCCARTESIANPOINT((225.,0.,75.));
#200= IFCCARTESIANTRANSFORMATIONOPERATOR3D($,$,#199,$,$);
#201= IFCMAPPEDITEM(#159,#200);
#202= IFCCARTESIANPOINT((300.,0.,75.));
#203= IFCCARTESIANTRANSFORMATIONOPERATOR3D($,$,#202,$,$);
#204= IFCMAPPEDITEM(#159,#203);
#205= IFCCARTESIANPOINT((375.,0.,75.));
#206= IFCCARTESIANTRANSFORMATIONOPERATOR3D($,$,#205,$,$);
#207= IFCMAPPEDITEM(#159,#206);
#208= IFCCARTESIANPOINT((450.,0.,75.));
#209= IFCCARTESIANTRANSFORMATIONOPERATOR3D($,$,#208,$,$);
#210= IFCMAPPEDITEM(#159,#209);
#211= IFCCARTESIANPOINT((525.,0.,75.));
#212= IFCCARTESIANTRANSFORMATIONOPERATOR3D($,$,#211,$,$);
#213= IFCMAPPEDITEM(#159,#212);
#214= IFCCARTESIANPOINT((600.,0.,75.));
#215= IFCCARTESIANTRANSFORMATIONOPERATOR3D($,$,#214,$,$);
#216= IFCMAPPEDITEM(#159,#215);
#217= IFCCARTESIANPOINT((675.,0.,75.));
#218= IFCCARTESIANTRANSFORMATIONOPERATOR3D($,$,#217,$,$);
#219= IFCMAPPEDITEM(#159,#218);
#220= IFCSHAPEREPRESENTATION(#12,'Body','MappedRepresentation',(#162,#165,#168,#171,#174,#177,#180,#183,#186,#189,#192,#195,#198,#201,#204,#207,#210,#213,#216,#219));
#221= IFCPRODUCTDEFINITIONSHAPE($,$,(#220));
#222= IFCOPENINGELEMENT('120QAQoPrFOPyj0yRT2kuV',#5,$,$,'Opening',#153,#221,$);
#223= IFCRELVOIDSELEMENT('3HHycmxDv4EwNExcWP0NjU',#5,'Drill Hole',$,#69,#222);
#224= IFCCARTESIANPOINT((76365.,1603.38121978666,19350.));
#225= IFCAXIS2PLACEMENT3D(#224,#53,#72);
#226= IFCLOCALPLACEMENT(#42,#225);
#227= IFCSHAPEREPRESENTATION(#12,'Body','MappedRepresentation',(#130,#133,#136,#139,#142));
#228= IFCPRODUCTDEFINITIONSHAPE($,$,(#227));
#229= IFCOPENINGELEMENT('2OeYDjEHP4o9XPBznBPTJo',#5,$,$,'Opening',#226,#228,$);
#230= IFCRELVOIDSELEMENT('0qi9ATFZb9juZpQE_1f923',#5,'Drill Hole',$,#69,#229);
#231= IFCCARTESIANPOINT((76324.9997253418,1603.38122277425,19350.));
#232= IFCAXIS2PLACEMENT3D(#231,#52,#53);
#233= IFCLOCALPLACEMENT(#42,#232);
#234= IFCSHAPEREPRESENTATION(#12,'Body','MappedRepresentation',(#162,#165,#168,#171,#174,#177,#180,#183,#186,#189,#192,#195,#198,#201,#204,#207,#210,#213,#216,#219));
#235= IFCPRODUCTDEFINITIONSHAPE($,$,(#234));
#236= IFCOPENINGELEMENT('0dRoQoQ_T5sulz6K9x4Jpc',#5,$,$,'Opening',#233,#235,$);
#237= IFCRELVOIDSELEMENT('2AUZemB8fB9O17XddZB0Fk',#5,'Drill Hole',$,#69,#236);
#238= IFCCARTESIANPOINT((68267.9824510498,1603.955003328,18910.));
#239= IFCAXIS2PLACEMENT3D(#238,#52,#7);
#240= IFCLOCALPLACEMENT(#42,#239);
#241= IFCCIRCLEPROFILEDEF(.AREA.,$,#50,11.5);
#242= IFCEXTRUDEDAREASOLID(#241,#156,#9,21.2);
#243= IFCSHAPEREPRESENTATION(#12,'Body','SweptSolid',(#242));
#244= IFCREPRESENTATIONMAP(#10,#243);
#245= IFCMAPPEDITEM(#244,#191);
#246= IFCMAPPEDITEM(#244,#194);
#247= IFCMAPPEDITEM(#244,#197);
#248= IFCMAPPEDITEM(#244,#200);
#249= IFCMAPPEDITEM(#244,#203);
#250= IFCMAPPEDITEM(#244,#206);
#251= IFCMAPPEDITEM(#244,#209);
#252= IFCMAPPEDITEM(#244,#212);
#253= IFCMAPPEDITEM(#244,#215);
#254= IFCMAPPEDITEM(#244,#218);
#255= IFCMAPPEDITEM(#244,#161);
#256= IFCMAPPEDITEM(#244,#164);
#257= IFCMAPPEDITEM(#244,#167);
#258= IFCMAPPEDITEM(#244,#170);
#259= IFCMAPPEDITEM(#244,#173);
#260= IFCMAPPEDITEM(#244,#176);
#261= IFCMAPPEDITEM(#244,#179);
#262= IFCMAPPEDITEM(#244,#182);
#263= IFCMAPPEDITEM(#244,#185);
#264= IFCMAPPEDITEM(#244,#188);
#265= IFCSHAPEREPRESENTATION(#12,'Body','MappedRepresentation',(#245,#246,#247,#248,#249,#250,#251,#252,#253,#254,#255,#256,#257,#258,#259,#260,#261,#262,#263,#264));
#266= IFCPRODUCTDEFINITIONSHAPE($,$,(#265));
#267= IFCOPENINGELEMENT('12Nil7irbD7uattYhw_eAw',#5,$,$,'Opening',#240,#266,$);
#268= IFCRELVOIDSELEMENT('2aXoL6uMn6yuAmHoemalwn',#5,'Drill Hole',$,#69,#267);
#269= IFCCARTESIANPOINT((68267.9824510498,1603.955003328,19350.));
#270= IFCAXIS2PLACEMENT3D(#269,#8,#7);
#271= IFCLOCALPLACEMENT(#42,#270);
#272= IFCSHAPEREPRESENTATION(#12,'Body','MappedRepresentation',(#255,#256,#257,#258,#259,#260,#261,#262,#263,#264,#245,#246,#247,#248,#249,#250,#251,#252,#253,#254));
#273= IFCPRODUCTDEFINITIONSHAPE($,$,(#272));
#274= IFCOPENINGELEMENT('1ZiNKkWbDF4g0EMIUAJqUo',#5,$,$,'Opening',#271,#273,$);
#275= IFCRELVOIDSELEMENT('2CHJKKWUf5if51r3svY$iF',#5,'Drill Hole',$,#69,#274);
#276= IFCCARTESIANPOINT((68222.9824701044,1603.38123772149,19350.));
#277= IFCAXIS2PLACEMENT3D(#276,#7,#72);
#278= IFCLOCALPLACEMENT(#42,#277);
#279= IFCCARTESIANPOINT((0.,-5.84954080031846,0.));
#280= IFCAXIS2PLACEMENT3D(#279,#8,#7);
#281= IFCEXTRUDEDAREASOLID(#154,#280,#9,11.7);
#282= IFCSHAPEREPRESENTATION(#12,'Body','SweptSolid',(#281));
#283= IFCREPRESENTATIONMAP(#10,#282);
#284= IFCCARTESIANPOINT((107.5,0.,45.));
#285= IFCCARTESIANTRANSFORMATIONOPERATOR3D($,$,#284,$,$);
#286= IFCMAPPEDITEM(#283,#285);
#287= IFCCARTESIANPOINT((182.5,0.,45.));
#288= IFCCARTESIANTRANSFORMATIONOPERATOR3D($,$,#287,$,$);
#289= IFCMAPPEDITEM(#283,#288);
#290= IFCCARTESIANPOINT((257.5,0.,45.));
#291= IFCCARTESIANTRANSFORMATIONOPERATOR3D($,$,#290,$,$);
#292= IFCMAPPEDITEM(#283,#291);
#293= IFCCARTESIANPOINT((332.5,0.,45.));
#294= IFCCARTESIANTRANSFORMATIONOPERATOR3D($,$,#293,$,$);
#295= IFCMAPPEDITEM(#283,#294);
#296= IFCSHAPEREPRESENTATION(#12,'Body','MappedRepresentation',(#286,#289,#292,#295));
#297= IFCPRODUCTDEFINITIONSHAPE($,$,(#296));
#298= IFCOPENINGELEMENT('1$3TwsWfHCHhFBsv03F46v',#5,$,$,'Opening',#278,#297,$);
#299= IFCRELVOIDSELEMENT('2aFwhFEdX00Au_7q4u3dNl',#5,'Drill Hole',$,#69,#298);
#300= IFCPROPERTYSINGLEVALUE('PieceMark',$,IFCIDENTIFIER('BEAM'),$);
#301= IFCPROPERTYSINGLEVALUE('IndicationMark',$,IFCIDENTIFIER('b/1035'),$);
#302= IFCPROPERTYSINGLEVALUE('PrelimMark',$,IFCIDENTIFIER(''),$);
#303= IFCPROPERTYSINGLEVALUE('MainPieceTag',$,IFCBOOLEAN(.T.),$);
#304= IFCPROPERTYSET('2QlDYQeSH5hRDuxxD3Ky3O',#5,'AISC_EM11_Pset_PieceIdentification','PieceIdentity',(#300,#301,#302,#303));
#305= IFCPROPERTYSINGLEVALUE('MaterialType',$,IFCIDENTIFIER('STEEL'),$);
#306= IFCPROPERTYSINGLEVALUE('MaterialGrade',$,IFCIDENTIFIER('S235JR'),$);
#307= IFCPROPERTYSET('0t4IvCRpT1mORNYr6UVDJa',#5,'AISC_EM11_Pset_Material',$,(#305,#306));
#308= IFCPROPERTYSINGLEVALUE('SkewedAngleY',$,IFCREAL(0.),$);
#309= IFCPROPERTYSINGLEVALUE('SkewedAngleX',$,IFCREAL(0.),$);
#310= IFCPROPERTYSET('2Mu_dO9MX9pQ1WBYHo9LBv',#5,'AISC_EM11_Pset_SkewedEnd',$,(#308,#309));
#311= IFCPROPERTYSET('3mZRRT6gTA5RmSeToqhAEj',#5,'AISC_EM11_Pset_SkewedEnd_2',$,(#308,#309));
#312= IFCMATERIAL('STEEL/S235JR');
#313= IFCRELAGGREGATES('1enuF6zpz1IR6FDU6C6vlS',#5,$,$,#37,(#39));
#314= IFCRELAGGREGATES('2w3AXOF5FJajOXVmOUOB1k',#5,$,$,#39,(#41));
#315= IFCRELAGGREGATES('2usqX5plv9PgsHc1CY2o$G',#5,$,$,#41,(#43));
#316= IFCRELCONTAINEDINSPATIALSTRUCTURE('28jC0cEC53vvpKFsDdsvWx',#5,$,$,(#69),#43);
#317= IFCRELDEFINESBYPROPERTIES('1aL4jLYwb9Vv3Yi8uJrdoV',#5,$,$,(#78),#84);
#318= IFCRELDEFINESBYPROPERTIES('3ohqhzoeDE885IriY9mzrS',#5,$,$,(#92),#95);
#319= IFCRELDEFINESBYPROPERTIES('3t_iDUufXD3wcRo1QGpzzp',#5,$,$,(#103),#107);
#320= IFCRELDEFINESBYPROPERTIES('1e1Ta6uiHC5gpX3ZKQievs',#5,$,$,(#115),#118);
#321= IFCRELDEFINESBYPROPERTIES('1ZOL14kmX5khumlAdVvSgj',#5,$,$,(#298,#274,#267,#236,#229,#222,#145),#150);
#322= IFCRELDEFINESBYPROPERTIES('1q6Cjp275EnvLX85b9U52z',#5,$,$,(#69),#304);
#323= IFCRELDEFINESBYPROPERTIES('0GewQMN5T2OhOZotfjOHOB',#5,$,$,(#69),#307);
#324= IFCRELDEFINESBYPROPERTIES('2uHnfq89j24OqErMwPtvjK',#5,$,$,(#69),#310);
#325= IFCRELDEFINESBYPROPERTIES('25UomegvD20B9zhwYlHM9M',#5,$,$,(#69),#311);
#326= IFCRELASSOCIATESMATERIAL('2zaX0iwg5CLhORgJWFSRSj',#5,$,$,(#69),#312);
ENDSEC;

END-ISO-10303-21;
