ISO-10303-21;
HEADER;
FILE_DESCRIPTION(('ViewDefinition[AISC_Steel_Detailing]', 'Option [BaseQuantities:Off]', 'Option [GridExport:On]', 'Option [Assemblies:Off]', 'Option [Bolts:On]', 'Option [Rebars:On]', 'Option [PourObjects:Off]', 'Option [Welds:On]', 'Option [SurfaceTreatments:On]', 'Option [LocationBy:0]', 'Option [ViewColors:Off]', 'Option [SectionedSpine:Off]', 'Option [PropertySets:On]', 'Option [Export all:Off]'),'2;1');
FILE_NAME('b_102_Qty_1.ifc','2026-05-16T11:53:19',('GIOVANNIPC\\gcorrea'),('Structural Designer'),'IFC Database version: Work','Tekla Structures 2020 Service Pack 5, IFC Export Version: 4.0.0.0 Dec  7 2020','');
FILE_SCHEMA(('IFC2X3'));
ENDSEC;

DATA;
#1= IFCPERSON('GIOVANNIPC\\gcorrea','Undefined',$,$,$,$,$,$);
#2= IFCORGANIZATION($,'Trimble Solutions Corporation',$,$,$);
#3= IFCPERSONANDORGANIZATION(#1,#2,$);
#4= IFCAPPLICATION(#2,'2020 Service Pack 5','Tekla Structures','Multi material modeling');
#5= IFCOWNERHISTORY(#3,#4,$,.NOCHANGE.,$,$,$,1778950399);
#6= IFCCARTESIANPOINT((0.,0.,0.));
#7= IFCDIRECTION((1.,0.,0.));
#8= IFCDIRECTION((0.,1.,0.));
#9= IFCDIRECTION((0.,0.,1.));
#10= IFCAXIS2PLACEMENT3D(#6,#9,#7);
#11= IFCGEOMETRICREPRESENTATIONCONTEXT($,'Model',3,1.E-05,#10,$);
#12= IFCGEOMETRICREPRESENTATIONSUBCONTEXT('Body','Model',*,*,*,*,#11,$,.MODEL_VIEW.,$);
#13= IFCGEOMETRICREPRESENTATIONSUBCONTEXT('Axis','Model',*,*,*,*,#11,$,.GRAPH_VIEW.,$);
#14= IFCGEOMETRICREPRESENTATIONSUBCONTEXT('FootPrint','Model',*,*,*,*,#11,$,.MODEL_VIEW.,$);
#15= IFCSIUNIT(*,.LENGTHUNIT.,.MILLI.,.METRE.);
#16= IFCMEASUREWITHUNIT(IFCRATIOMEASURE(304.8),#15);
#17= IFCDIMENSIONALEXPONENTS(1,0,0,0,0,0,0);
#18= IFCCONVERSIONBASEDUNIT(#17,.LENGTHUNIT.,'FOOT',#16);
#19= IFCSIUNIT(*,.AREAUNIT.,$,.SQUARE_METRE.);
#20= IFCMEASUREWITHUNIT(IFCRATIOMEASURE(0.09290304),#19);
#21= IFCDIMENSIONALEXPONENTS(2,0,0,0,0,0,0);
#22= IFCCONVERSIONBASEDUNIT(#21,.AREAUNIT.,'SQUARE FOOT',#20);
#23= IFCSIUNIT(*,.VOLUMEUNIT.,$,.CUBIC_METRE.);
#24= IFCMEASUREWITHUNIT(IFCRATIOMEASURE(0.028316846592),#23);
#25= IFCDIMENSIONALEXPONENTS(3,0,0,0,0,0,0);
#26= IFCCONVERSIONBASEDUNIT(#25,.VOLUMEUNIT.,'CUBIC FOOT',#24);
#27= IFCSIUNIT(*,.MASSUNIT.,.KILO.,.GRAM.);
#28= IFCSIUNIT(*,.TIMEUNIT.,$,.SECOND.);
#29= IFCSIUNIT(*,.PLANEANGLEUNIT.,$,.RADIAN.);
#30= IFCMEASUREWITHUNIT(IFCRATIOMEASURE(0.0174532925199433),#29);
#31= IFCDIMENSIONALEXPONENTS(0,0,0,0,0,0,0);
#32= IFCCONVERSIONBASEDUNIT(#31,.PLANEANGLEUNIT.,'DEGREE',#30);
#33= IFCSIUNIT(*,.SOLIDANGLEUNIT.,$,.STERADIAN.);
#34= IFCSIUNIT(*,.THERMODYNAMICTEMPERATUREUNIT.,$,.DEGREE_CELSIUS.);
#35= IFCSIUNIT(*,.LUMINOUSINTENSITYUNIT.,$,.LUMEN.);
#36= IFCUNITASSIGNMENT((#15,#19,#23,#27,#28,#29,#33,#34,#35));
#37= IFCPROJECT('2G7ZFDNE16yBDU14FA92Me',#5,'Proyecto',$,$,$,$,(#11),#36);
#38= IFCLOCALPLACEMENT($,#10);
#39= IFCSITE('2xvEzEinjBTea80yOTcujY',#5,'Obra',$,$,#38,$,$,.ELEMENT.,$,$,$,$,$);
#40= IFCLOCALPLACEMENT(#38,#10);
#41= IFCBUILDING('2L8mUVKYnAQBs5bfCY8plb',#5,'Undefined',$,$,#40,$,$,.ELEMENT.,$,$,$);
#42= IFCLOCALPLACEMENT(#40,#10);
#43= IFCBUILDINGSTOREY('29hdEUCErFze9E_VIAceOd',#5,'Undefined',$,$,#42,$,$,.ELEMENT.,0.);
#44= IFCOWNERHISTORY(#3,#4,$,.NOCHANGE.,$,$,$,1775667600);
#45= IFCCARTESIANPOINT((82730.251095665,17385.8824005127,13780.));
#46= IFCAXIS2PLACEMENT3D(#45,#9,#8);
#47= IFCLOCALPLACEMENT(#42,#46);
#48= IFCDIRECTION((1.,0.));
#49= IFCCARTESIANPOINT((0.,0.));
#50= IFCAXIS2PLACEMENT2D(#49,#48);
#51= IFCISHAPEPROFILEDEF(.AREA.,'IPE240',#50,120.,240.,6.199999809,9.800000191,15.);
#52= IFCDIRECTION((0.,-1.,0.));
#53= IFCDIRECTION((-1.,0.,0.));
#54= IFCCARTESIANPOINT((2001.68358466051,0.,0.));
#55= IFCAXIS2PLACEMENT3D(#54,#53,#52);
#56= IFCEXTRUDEDAREASOLID(#51,#55,#9,2001.68);
#57= IFCDIRECTION((0.440788839997484,0.89761082799489,0.));
#58= IFCCARTESIANPOINT((1878.27933473258,0.,1000.));
#59= IFCDIRECTION((-0.89761082799489,0.440788839997484,0.));
#60= IFCAXIS2PLACEMENT3D(#58,#57,#59);
#61= IFCPLANE(#60);
#62= IFCHALFSPACESOLID(#61,.F.);
#63= IFCBOOLEANCLIPPINGRESULT(.DIFFERENCE.,#56,#62);
#64= IFCCARTESIANPOINT((0.,0.,1000.));
#65= IFCAXIS2PLACEMENT3D(#64,#53,#52);
#66= IFCPLANE(#65);
#67= IFCHALFSPACESOLID(#66,.F.);
#68= IFCBOOLEANCLIPPINGRESULT(.DIFFERENCE.,#63,#67);
#69= IFCSHAPEREPRESENTATION(#12,'Body','Clipping',(#68));
#70= IFCPRODUCTDEFINITIONSHAPE($,$,(#69));
#71= IFCBEAM('06iZ4qGG9A4Rc3DVpJX1d1',#44,'BEAM','IPE240','IPE240',#47,#70,'ID06b23134-4102-4a11-b983-35fcd38419c1');
#72= IFCLOCALPLACEMENT(#42,#46);
#73= IFCCARTESIANPOINT((7.84000015250058,0.));
#74= IFCPOLYLINE((#49,#73));
#75= IFCCOMPOSITECURVESEGMENT(.CONTINUOUS.,.T.,#74);
#76= IFCCARTESIANPOINT((3.92000007625029,1.16415765916145E-10));
#77= IFCAXIS2PLACEMENT2D(#76,#48);
#78= IFCCIRCLE(#77,3.92);
#79= IFCTRIMMEDCURVE(#78,(IFCPARAMETERVALUE(0.)),(IFCPARAMETERVALUE(3.14159265364919)),.T.,.PARAMETER.);
#80= IFCCOMPOSITECURVESEGMENT(.DISCONTINUOUS.,.T.,#79);
#81= IFCCOMPOSITECURVE((#75,#80),.T.);
#82= IFCARBITRARYCLOSEDPROFILEDEF(.AREA.,'PL91.3*7',#81);
#83= IFCDIRECTION((-0.440788839997482,-0.897610827994891,0.));
#84= IFCCARTESIANPOINT((1917.40079655898,-14.844187798917,-110.199999809));
#85= IFCAXIS2PLACEMENT3D(#84,#59,#83);
#86= IFCEXTRUDEDAREASOLID(#82,#85,#9,91.3);
#87= IFCSHAPEREPRESENTATION(#12,'Body','SweptSolid',(#86));
#88= IFCPRODUCTDEFINITIONSHAPE($,$,(#87));
#89= IFCOPENINGELEMENT('0jEPWYFebFUv8ZEh0xtAun',#5,$,$,'Recess',#72,#88,$);
#90= IFCRELVOIDSELEMENT('2pajj649vEmRA0iAdctgL8',#5,$,$,#71,#89);
#91= IFCPROPERTYSINGLEVALUE('FeatureSubTypes',$,$,$);
#92= IFCPROPERTYSINGLEVALUE('RectangleOpeningWidth',$,IFCPOSITIVELENGTHMEASURE(91.3),$);
#93= IFCPROPERTYSINGLEVALUE('RectangleOpeningHeight',$,IFCPOSITIVELENGTHMEASURE(91.3),$);
#94= IFCPROPERTYSINGLEVALUE('OpeningDiameter',$,$,$);
#95= IFCPROPERTYSET('1mCEjEXFLC8glaSoOJQE3y',#5,'AISC_EM11_Pset_Opening/Cope',$,(#91,#92,#93,#94));
#96= IFCLOCALPLACEMENT(#42,#46);
#97= IFCDIRECTION((-0.707106781185087,-0.707106781188008));
#98= IFCCARTESIANPOINT((6.16597127914429,6.16597127916975));
#99= IFCAXIS2PLACEMENT2D(#98,#97);
#100= IFCCIRCLE(#99,8.72);
#101= IFCTRIMMEDCURVE(#100,(IFCPARAMETERVALUE(0.)),(IFCPARAMETERVALUE(3.14159265359333)),.T.,.PARAMETER.);
#102= IFCCOMPOSITECURVESEGMENT(.CONTINUOUS.,.T.,#101);
#103= IFCCARTESIANPOINT((12.3319425582667,12.3319425583613));
#104= IFCPOLYLINE((#103,#49));
#105= IFCCOMPOSITECURVESEGMENT(.CONTINUOUS.,.T.,#104);
#106= IFCCOMPOSITECURVE((#102,#105),.T.);
#107= IFCARBITRARYCLOSEDPROFILEDEF(.AREA.,'PL118.8*15',#106);
#108= IFCDIRECTION((-0.311684778092366,-0.634706703188674,-0.707106781209795));
#109= IFCCARTESIANPOINT((1723.77572722222,-18.3559884357683,110.199999768934));
#110= IFCAXIS2PLACEMENT3D(#109,#59,#108);
#111= IFCEXTRUDEDAREASOLID(#107,#110,#9,118.8);
#112= IFCSHAPEREPRESENTATION(#12,'Body','SweptSolid',(#111));
#113= IFCPRODUCTDEFINITIONSHAPE($,$,(#112));
#114= IFCOPENINGELEMENT('0nSdAROxf4Ivx1a$HJbBbh',#5,$,$,'Recess',#96,#113,$);
#115= IFCRELVOIDSELEMENT('36h5ZVOMr4GBS7W6NOxnnO',#5,$,$,#71,#114);
#116= IFCPROPERTYSINGLEVALUE('RectangleOpeningWidth',$,IFCPOSITIVELENGTHMEASURE(118.8),$);
#117= IFCPROPERTYSINGLEVALUE('RectangleOpeningHeight',$,IFCPOSITIVELENGTHMEASURE(118.8),$);
#118= IFCPROPERTYSET('08jLXsqJH5dwpXa1SB$hqj',#5,'AISC_EM11_Pset_Opening/Cope',$,(#91,#116,#117,#94));
#119= IFCLOCALPLACEMENT(#42,#46);
#120= IFCCARTESIANPOINT((12.6713533401344,-8.73114913702011E-11));
#121= IFCCARTESIANPOINT((6.33567667007446,6.33567667007446));
#122= IFCPOLYLINE((#49,#120,#121,#49));
#123= IFCARBITRARYCLOSEDPROFILEDEF(.AREA.,'PL95.5*9',#122);
#124= IFCDIRECTION((-0.311684778092482,-0.634706703188561,0.707106781209845));
#125= IFCCARTESIANPOINT((1915.8770327667,-17.9060292300535,96.939999581797));
#126= IFCAXIS2PLACEMENT3D(#125,#59,#124);
#127= IFCEXTRUDEDAREASOLID(#123,#126,#9,95.5);
#128= IFCSHAPEREPRESENTATION(#12,'Body','SweptSolid',(#127));
#129= IFCPRODUCTDEFINITIONSHAPE($,$,(#128));
#130= IFCOPENINGELEMENT('3BgPBDHcbBehIz3oXsxNvF',#5,$,$,'Recess',#119,#129,$);
#131= IFCRELVOIDSELEMENT('0JhAb44PD6euJNI43Xq81z',#5,$,$,#71,#130);
#132= IFCPROPERTYSINGLEVALUE('RectangleOpeningWidth',$,IFCPOSITIVELENGTHMEASURE(95.5),$);
#133= IFCPROPERTYSINGLEVALUE('RectangleOpeningHeight',$,IFCPOSITIVELENGTHMEASURE(95.5),$);
#134= IFCPROPERTYSET('3ULKwR48TBTBPP4dgd$5nv',#5,'AISC_EM11_Pset_Opening/Cope',$,(#91,#132,#133,#94));
#135= IFCLOCALPLACEMENT(#42,#46);
#136= IFCRECTANGLEPROFILEDEF(.AREA.,'PL18.6*96',#50,18.6,96.);
#137= IFCDIRECTION((0.,0.,-1.));
#138= IFCDIRECTION((0.897610827994889,-0.440788839997486,0.));
#139= IFCCARTESIANPOINT((319.437544056888,715.031553146778,112.719999790901));
#140= IFCAXIS2PLACEMENT3D(#139,#138,#137);
#141= IFCEXTRUDEDAREASOLID(#136,#140,#9,1852.53);
#142= IFCSHAPEREPRESENTATION(#12,'Body','SweptSolid',(#141));
#143= IFCPRODUCTDEFINITIONSHAPE($,$,(#142));
#144= IFCOPENINGELEMENT('1fY67hp1z2HOw0UwpNN9U4',#5,$,$,'Recess',#135,#143,$);
#145= IFCRELVOIDSELEMENT('3g0QFMFp5FC9M$zrQXJnsY',#5,$,$,#71,#144);
#146= IFCPROPERTYSINGLEVALUE('RectangleOpeningWidth',$,IFCPOSITIVELENGTHMEASURE(18.6),$);
#147= IFCPROPERTYSINGLEVALUE('RectangleOpeningHeight',$,IFCPOSITIVELENGTHMEASURE(96.),$);
#148= IFCPROPERTYSET('0ILmH37L5DhRhJXCxwU8yD',#5,'AISC_EM11_Pset_Opening/Cope',$,(#91,#146,#147,#94));
#149= IFCLOCALPLACEMENT(#42,#46);
#150= IFCARBITRARYCLOSEDPROFILEDEF(.AREA.,'PL37.4*7',#81);
#151= IFCCARTESIANPOINT((-3.92000007639945,18.7,-110.199999809));
#152= IFCAXIS2PLACEMENT3D(#151,#52,#7);
#153= IFCEXTRUDEDAREASOLID(#150,#152,#9,37.4);
#154= IFCSHAPEREPRESENTATION(#12,'Body','SweptSolid',(#153));
#155= IFCPRODUCTDEFINITIONSHAPE($,$,(#154));
#156= IFCOPENINGELEMENT('24sEaeJNj1JQcXlBrZ58nM',#5,$,$,'Recess',#149,#155,$);
#157= IFCRELVOIDSELEMENT('0UMep3ESH8ng7Yz18p8uPd',#5,$,$,#71,#156);
#158= IFCPROPERTYSINGLEVALUE('RectangleOpeningWidth',$,IFCPOSITIVELENGTHMEASURE(37.4),$);
#159= IFCPROPERTYSINGLEVALUE('RectangleOpeningHeight',$,IFCPOSITIVELENGTHMEASURE(37.4),$);
#160= IFCPROPERTYSET('04hHspXI1EPxeuSGW7aSbP',#5,'AISC_EM11_Pset_Opening/Cope',$,(#91,#158,#159,#94));
#161= IFCLOCALPLACEMENT(#42,#46);
#162= IFCCARTESIANPOINT((10.691454887412,10.6914548873201));
#163= IFCAXIS2PLACEMENT2D(#162,#97);
#164= IFCCIRCLE(#163,15.12);
#165= IFCTRIMMEDCURVE(#164,(IFCPARAMETERVALUE(0.)),(IFCPARAMETERVALUE(3.14159265359303)),.T.,.PARAMETER.);
#166= IFCCOMPOSITECURVESEGMENT(.CONTINUOUS.,.T.,#165);
#167= IFCCARTESIANPOINT((21.3829097747894,21.3829097746748));
#168= IFCPOLYLINE((#167,#49));
#169= IFCCOMPOSITECURVESEGMENT(.CONTINUOUS.,.T.,#168);
#170= IFCCOMPOSITECURVE((#166,#169),.T.);
#171= IFCARBITRARYCLOSEDPROFILEDEF(.AREA.,'PL37.4*26',#170);
#172= IFCDIRECTION((0.707106781186548,0.,-0.707106781186548));
#173= IFCCARTESIANPOINT((132.130000114601,18.7,110.199999809));
#174= IFCAXIS2PLACEMENT3D(#173,#52,#172);
#175= IFCEXTRUDEDAREASOLID(#171,#174,#9,37.4);
#176= IFCSHAPEREPRESENTATION(#12,'Body','SweptSolid',(#175));
#177= IFCPRODUCTDEFINITIONSHAPE($,$,(#176));
#178= IFCOPENINGELEMENT('3Dupwo57f7HeofDP4g8KIC',#5,$,$,'Recess',#161,#177,$);
#179= IFCRELVOIDSELEMENT('29OQ88L0X2RQWIj2EOYGQD',#5,$,$,#71,#178);
#180= IFCLOCALPLACEMENT(#42,#46);
#181= IFCARBITRARYCLOSEDPROFILEDEF(.AREA.,'PL37.4*9',#122);
#182= IFCDIRECTION((0.707106781186619,0.,0.707106781186476));
#183= IFCCARTESIANPOINT((-0.5,18.7,90.5399999618003));
#184= IFCAXIS2PLACEMENT3D(#183,#52,#182);
#185= IFCEXTRUDEDAREASOLID(#181,#184,#9,37.4);
#186= IFCSHAPEREPRESENTATION(#12,'Body','SweptSolid',(#185));
#187= IFCPRODUCTDEFINITIONSHAPE($,$,(#186));
#188= IFCOPENINGELEMENT('3eHNC23vv0JvssWERujUvT',#5,$,$,'Recess',#180,#187,$);
#189= IFCRELVOIDSELEMENT('2PSuFsbTD7hwz8PrfL2J67',#5,$,$,#71,#188);
#190= IFCLOCALPLACEMENT(#42,#46);
#191= IFCRECTANGLEPROFILEDEF(.AREA.,'PL25*150',#50,25.,150.);
#192= IFCCARTESIANPOINT((72.25,-62.,109.519999980899));
#193= IFCAXIS2PLACEMENT3D(#192,#8,#137);
#194= IFCEXTRUDEDAREASOLID(#191,#193,#9,124.);
#195= IFCSHAPEREPRESENTATION(#12,'Body','SweptSolid',(#194));
#196= IFCPRODUCTDEFINITIONSHAPE($,$,(#195));
#197= IFCOPENINGELEMENT('3wUEKUVlbAheeq$C02ctu7',#5,$,$,'Recess',#190,#196,$);
#198= IFCRELVOIDSELEMENT('3Pa_13F799iPzEcpNuIP1f',#5,$,$,#71,#197);
#199= IFCPROPERTYSINGLEVALUE('RectangleOpeningWidth',$,IFCPOSITIVELENGTHMEASURE(25.),$);
#200= IFCPROPERTYSINGLEVALUE('RectangleOpeningHeight',$,IFCPOSITIVELENGTHMEASURE(150.),$);
#201= IFCPROPERTYSET('3dWQJEeWTFnQXJ9WHBY6mh',#5,'AISC_EM11_Pset_Opening/Cope',$,(#91,#199,#200,#94));
#202= IFCPROPERTYSINGLEVALUE('PieceMark',$,IFCIDENTIFIER('BEAM'),$);
#203= IFCPROPERTYSINGLEVALUE('IndicationMark',$,IFCIDENTIFIER('b/102'),$);
#204= IFCPROPERTYSINGLEVALUE('PrelimMark',$,IFCIDENTIFIER(''),$);
#205= IFCPROPERTYSINGLEVALUE('MainPieceTag',$,IFCBOOLEAN(.F.),$);
#206= IFCPROPERTYSET('2mq9701yb8zxS0H3aSHeAq',#5,'AISC_EM11_Pset_PieceIdentification','PieceIdentity',(#202,#203,#204,#205));
#207= IFCPROPERTYSINGLEVALUE('MaterialType',$,IFCIDENTIFIER('STEEL'),$);
#208= IFCPROPERTYSINGLEVALUE('MaterialGrade',$,IFCIDENTIFIER('S235JR'),$);
#209= IFCPROPERTYSET('1I0jzS5HXBlACy45lNftPJ',#5,'AISC_EM11_Pset_Material',$,(#207,#208));
#210= IFCPROPERTYSINGLEVALUE('SkewedAngleY',$,IFCREAL(0.),$);
#211= IFCPROPERTYSINGLEVALUE('SkewedAngleX',$,IFCREAL(0.),$);
#212= IFCPROPERTYSET('2PS2sjdO57O8k6hJXQCwRz',#5,'AISC_EM11_Pset_SkewedEnd',$,(#210,#211));
#213= IFCPROPERTYSINGLEVALUE('SkewedAngleX',$,IFCREAL(-63.84578),$);
#214= IFCPROPERTYSET('0V2Nd$ZXLBLhs4fRtxYisz',#5,'AISC_EM11_Pset_SkewedEnd_2',$,(#210,#213));
#215= IFCMATERIAL('STEEL/S235JR');
#216= IFCRELAGGREGATES('0sHVe_ECz5zg5AJuteX$y7',#5,$,$,#37,(#39));
#217= IFCRELAGGREGATES('28ZnwGWUFNFyNSbA9wpHEP',#5,$,$,#39,(#41));
#218= IFCRELAGGREGATES('3y4XIYzkr218oJBWehDHmL',#5,$,$,#41,(#43));
#219= IFCRELCONTAINEDINSPATIALSTRUCTURE('1RRXcHbmr5pxq5_VLZK5TR',#5,$,$,(#71),#43);
#220= IFCRELDEFINESBYPROPERTIES('3h5RxWixv4DP7YmQrRc0OP',#5,$,$,(#89),#95);
#221= IFCRELDEFINESBYPROPERTIES('0Efu2c$In4$ARXZyAkOiRP',#5,$,$,(#114),#118);
#222= IFCRELDEFINESBYPROPERTIES('3FgBnCn0n7XRDnpi76P2Wn',#5,$,$,(#130),#134);
#223= IFCRELDEFINESBYPROPERTIES('13WSTE7SLE3vaJ5wSIp76q',#5,$,$,(#144),#148);
#224= IFCRELDEFINESBYPROPERTIES('1jsT_s5JDD4hzHd3qP9i15',#5,$,$,(#188,#178,#156),#160);
#225= IFCRELDEFINESBYPROPERTIES('06lEbHtn5EUvPkmJcq1a$N',#5,$,$,(#197),#201);
#226= IFCRELDEFINESBYPROPERTIES('1b1eAYauL9qAt6AKDrz0Ml',#5,$,$,(#71),#206);
#227= IFCRELDEFINESBYPROPERTIES('0B1cGFC6HFPwcLlp70YqeB',#5,$,$,(#71),#209);
#228= IFCRELDEFINESBYPROPERTIES('0_UA6wSKX75BZU2trukmCs',#5,$,$,(#71),#212);
#229= IFCRELDEFINESBYPROPERTIES('3q1vKm0xHApu5Z3av_maA8',#5,$,$,(#71),#214);
#230= IFCRELASSOCIATESMATERIAL('3kkbZmBP1FPver$L$pF7uW',#5,$,$,(#71),#215);
ENDSEC;

END-ISO-10303-21;
