ISO-10303-21;
HEADER;
FILE_DESCRIPTION(('ViewDefinition[AISC_Steel_Detailing]', 'Option [BaseQuantities:Off]', 'Option [GridExport:On]', 'Option [Assemblies:Off]', 'Option [Bolts:On]', 'Option [Rebars:On]', 'Option [PourObjects:Off]', 'Option [Welds:On]', 'Option [SurfaceTreatments:On]', 'Option [LocationBy:0]', 'Option [ViewColors:Off]', 'Option [SectionedSpine:Off]', 'Option [PropertySets:On]', 'Option [Export all:Off]'),'2;1');
FILE_NAME('b_11_Qty_2.ifc','2026-05-16T11:53:09',('GIOVANNIPC\\gcorrea'),('Structural Designer'),'IFC Database version: Work','Tekla Structures 2020 Service Pack 5, IFC Export Version: 4.0.0.0 Dec  7 2020','');
FILE_SCHEMA(('IFC2X3'));
ENDSEC;

DATA;
#1= IFCPERSON('GIOVANNIPC\\gcorrea','Undefined',$,$,$,$,$,$);
#2= IFCORGANIZATION($,'Trimble Solutions Corporation',$,$,$);
#3= IFCPERSONANDORGANIZATION(#1,#2,$);
#4= IFCAPPLICATION(#2,'2020 Service Pack 5','Tekla Structures','Multi material modeling');
#5= IFCOWNERHISTORY(#3,#4,$,.NOCHANGE.,$,$,$,1778950389);
#6= IFCCARTESIANPOINT((0.,0.,0.));
#7= IFCDIRECTION((1.,0.,0.));
#8= IFCDIRECTION((0.,1.,0.));
#9= IFCDIRECTION((0.,0.,1.));
#10= IFCAXIS2PLACEMENT3D(#6,#9,#7);
#11= IFCGEOMETRICREPRESENTATIONCONTEXT($,'Model',3,1.E-05,#10,$);
#12= IFCGEOMETRICREPRESENTATIONSUBCONTEXT('Body','Model',*,*,*,*,#11,$,.MODEL_VIEW.,$);
#13= IFCGEOMETRICREPRESENTATIONSUBCONTEXT('Axis','Model',*,*,*,*,#11,$,.GRAPH_VIEW.,$);
#14= IFCGEOMETRICREPRESENTATIONSUBCONTEXT('FootPrint','Model',*,*,*,*,#11,$,.MODEL_VIEW.,$);
#15= IFCSIUNIT(*,.LENGTHUNIT.,.MILLI.,.METRE.);
#16= IFCMEASUREWITHUNIT(IFCRATIOMEASURE(304.8),#15);
#17= IFCDIMENSIONALEXPONENTS(1,0,0,0,0,0,0);
#18= IFCCONVERSIONBASEDUNIT(#17,.LENGTHUNIT.,'FOOT',#16);
#19= IFCSIUNIT(*,.AREAUNIT.,$,.SQUARE_METRE.);
#20= IFCMEASUREWITHUNIT(IFCRATIOMEASURE(0.09290304),#19);
#21= IFCDIMENSIONALEXPONENTS(2,0,0,0,0,0,0);
#22= IFCCONVERSIONBASEDUNIT(#21,.AREAUNIT.,'SQUARE FOOT',#20);
#23= IFCSIUNIT(*,.VOLUMEUNIT.,$,.CUBIC_METRE.);
#24= IFCMEASUREWITHUNIT(IFCRATIOMEASURE(0.028316846592),#23);
#25= IFCDIMENSIONALEXPONENTS(3,0,0,0,0,0,0);
#26= IFCCONVERSIONBASEDUNIT(#25,.VOLUMEUNIT.,'CUBIC FOOT',#24);
#27= IFCSIUNIT(*,.MASSUNIT.,.KILO.,.GRAM.);
#28= IFCSIUNIT(*,.TIMEUNIT.,$,.SECOND.);
#29= IFCSIUNIT(*,.PLANEANGLEUNIT.,$,.RADIAN.);
#30= IFCMEASUREWITHUNIT(IFCRATIOMEASURE(0.0174532925199433),#29);
#31= IFCDIMENSIONALEXPONENTS(0,0,0,0,0,0,0);
#32= IFCCONVERSIONBASEDUNIT(#31,.PLANEANGLEUNIT.,'DEGREE',#30);
#33= IFCSIUNIT(*,.SOLIDANGLEUNIT.,$,.STERADIAN.);
#34= IFCSIUNIT(*,.THERMODYNAMICTEMPERATUREUNIT.,$,.DEGREE_CELSIUS.);
#35= IFCSIUNIT(*,.LUMINOUSINTENSITYUNIT.,$,.LUMEN.);
#36= IFCUNITASSIGNMENT((#15,#19,#23,#27,#28,#29,#33,#34,#35));
#37= IFCPROJECT('2G7ZFDNE16yBDU14FA92Me',#5,'Proyecto',$,$,$,$,(#11),#36);
#38= IFCLOCALPLACEMENT($,#10);
#39= IFCSITE('2xvEzEinjBTea80yOTcujY',#5,'Obra',$,$,#38,$,$,.ELEMENT.,$,$,$,$,$);
#40= IFCLOCALPLACEMENT(#38,#10);
#41= IFCBUILDING('0IFviikIf2u8Ful_lvSPD3',#5,'Undefined',$,$,#40,$,$,.ELEMENT.,$,$,$);
#42= IFCLOCALPLACEMENT(#40,#10);
#43= IFCBUILDINGSTOREY('29hdEUCErFze9E_VIAceOd',#5,'Undefined',$,$,#42,$,$,.ELEMENT.,0.);
#44= IFCOWNERHISTORY(#3,#4,$,.NOCHANGE.,$,$,$,1773349200);
#45= IFCCARTESIANPOINT((91715.9002045517,17380.2061739461,19130.));
#46= IFCDIRECTION((0.999999999999006,1.4099999994927E-06,0.));
#47= IFCAXIS2PLACEMENT3D(#45,#9,#46);
#48= IFCLOCALPLACEMENT(#42,#47);
#49= IFCDIRECTION((1.,0.));
#50= IFCCARTESIANPOINT((0.,0.));
#51= IFCAXIS2PLACEMENT2D(#50,#49);
#52= IFCISHAPEPROFILEDEF(.AREA.,'HEA450',#51,300.,440.,11.5,21.,27.);
#53= IFCDIRECTION((-2.11758236813575E-22,-1.,0.));
#54= IFCDIRECTION((-1.,2.11758236813575E-22,0.));
#55= IFCCARTESIANPOINT((2832.62819023769,-5.99832351113161E-19,3.63797880709171E-12));
#56= IFCAXIS2PLACEMENT3D(#55,#54,#53);
#57= IFCEXTRUDEDAREASOLID(#52,#56,#9,2821.63);
#58= IFCDIRECTION((0.999999999999006,-1.40999999712222E-06,0.));
#59= IFCCARTESIANPOINT((11.0023836078763,0.0902024038514355,-324.999999999996));
#60= IFCDIRECTION((-1.40999999712222E-06,-0.999999999999006,0.));
#61= IFCAXIS2PLACEMENT3D(#59,#58,#60);
#62= IFCPLANE(#61);
#63= IFCHALFSPACESOLID(#62,.T.);
#64= IFCBOOLEANCLIPPINGRESULT(.DIFFERENCE.,#57,#63);
#65= IFCSHAPEREPRESENTATION(#12,'Body','Clipping',(#64));
#66= IFCPRODUCTDEFINITIONSHAPE($,$,(#65));
#67= IFCBEAM('0N3$ZPR2H1HAept7DjB4R2',#44,'BEAM','HEA450','HEA450',#48,#66,'ID170ff8d9-6c24-4144-aa33-dc736d2c46c2');
#68= IFCLOCALPLACEMENT(#42,#47);
#69= IFCRECTANGLEPROFILEDEF(.AREA.,'PL162.8*12',#51,12.,162.8);
#70= IFCDIRECTION((0.,0.,-1.));
#71= IFCCARTESIANPOINT((-4.90747051969811,69.6021694946867,221.000000000004));
#72= IFCAXIS2PLACEMENT3D(#71,#70,#58);
#73= IFCEXTRUDEDAREASOLID(#69,#72,#9,442.);
#74= IFCSHAPEREPRESENTATION(#12,'Body','SweptSolid',(#73));
#75= IFCPRODUCTDEFINITIONSHAPE($,$,(#74));
#76= IFCOPENINGELEMENT('2GGVDKT4H2FhXGm4QfSzJr',#5,$,$,'Recess',#68,#75,$);
#77= IFCRELVOIDSELEMENT('3gA0DnWy5CUPQU5iUnrJs7',#5,$,$,#67,#76);
#78= IFCPROPERTYSINGLEVALUE('FeatureSubTypes',$,$,$);
#79= IFCPROPERTYSINGLEVALUE('RectangleOpeningWidth',$,IFCPOSITIVELENGTHMEASURE(12.),$);
#80= IFCPROPERTYSINGLEVALUE('RectangleOpeningHeight',$,IFCPOSITIVELENGTHMEASURE(162.8),$);
#81= IFCPROPERTYSINGLEVALUE('OpeningDiameter',$,$,$);
#82= IFCPROPERTYSET('1mMc$Zh297gAF$5Er1pF$3',#5,'AISC_EM11_Pset_Opening/Cope',$,(#78,#79,#80,#81));
#83= IFCLOCALPLACEMENT(#42,#47);
#84= IFCRECTANGLEPROFILEDEF(.AREA.,'PL163.2*12',#51,12.,163.2);
#85= IFCCARTESIANPOINT((-4.90766651251761,-69.3998295712263,221.000000000004));
#86= IFCAXIS2PLACEMENT3D(#85,#70,#58);
#87= IFCEXTRUDEDAREASOLID(#84,#86,#9,442.);
#88= IFCSHAPEREPRESENTATION(#12,'Body','SweptSolid',(#87));
#89= IFCPRODUCTDEFINITIONSHAPE($,$,(#88));
#90= IFCOPENINGELEMENT('1Qltqj$mfD59XWJoT4LNrp',#5,$,$,'Recess',#83,#89,$);
#91= IFCRELVOIDSELEMENT('0uz72ttN9Cy9o9yBeCS6mr',#5,$,$,#67,#90);
#92= IFCPROPERTYSINGLEVALUE('RectangleOpeningHeight',$,IFCPOSITIVELENGTHMEASURE(163.2),$);
#93= IFCPROPERTYSET('0Zro0W2pP8wRgWVH$GdAjR',#5,'AISC_EM11_Pset_Opening/Cope',$,(#78,#79,#92,#81));
#94= IFCLOCALPLACEMENT(#42,#47);
#95= IFCRECTANGLEPROFILEDEF(.AREA.,'PL108*12.1',#51,12.1,108.);
#96= IFCCARTESIANPOINT((-4.94816815572267,43.2194846810962,226.000000000004));
#97= IFCAXIS2PLACEMENT3D(#96,#70,#58);
#98= IFCEXTRUDEDAREASOLID(#95,#97,#9,452.);
#99= IFCSHAPEREPRESENTATION(#12,'Body','SweptSolid',(#98));
#100= IFCPRODUCTDEFINITIONSHAPE($,$,(#99));
#101= IFCOPENINGELEMENT('3YAbguPPjCWxVhajOJJ$Yn',#5,$,$,'Recess',#94,#100,$);
#102= IFCRELVOIDSELEMENT('0P_5ftddbCtR4lb_UGsMCJ',#5,$,$,#67,#101);
#103= IFCPROPERTYSINGLEVALUE('RectangleOpeningWidth',$,IFCPOSITIVELENGTHMEASURE(12.1),$);
#104= IFCPROPERTYSINGLEVALUE('RectangleOpeningHeight',$,IFCPOSITIVELENGTHMEASURE(108.),$);
#105= IFCPROPERTYSET('240BxWJGn8JfgZAqUSHcz5',#5,'AISC_EM11_Pset_Opening/Cope',$,(#78,#103,#104,#81));
#106= IFCLOCALPLACEMENT(#42,#47);
#107= IFCRECTANGLEPROFILEDEF(.AREA.,'PL109.1*12.1',#51,12.1,109.1);
#108= IFCCARTESIANPOINT((-4.94828738874639,-41.3429411241741,226.000000000004));
#109= IFCAXIS2PLACEMENT3D(#108,#70,#58);
#110= IFCEXTRUDEDAREASOLID(#107,#109,#9,452.);
#111= IFCSHAPEREPRESENTATION(#12,'Body','SweptSolid',(#110));
#112= IFCPRODUCTDEFINITIONSHAPE($,$,(#111));
#113= IFCOPENINGELEMENT('1Kc1rM3uD8p8Lezzs$SA$u',#5,$,$,'Recess',#106,#112,$);
#114= IFCRELVOIDSELEMENT('3NizysxUbCK9D8BZS0mx8L',#5,$,$,#67,#113);
#115= IFCPROPERTYSINGLEVALUE('RectangleOpeningHeight',$,IFCPOSITIVELENGTHMEASURE(109.1),$);
#116= IFCPROPERTYSET('3ajD_oT9D1aB2PgvoP7Fx1',#5,'AISC_EM11_Pset_Opening/Cope',$,(#78,#103,#115,#81));
#117= IFCCARTESIANPOINT((91771.9838518906,17380.7799544999,18910.));
#118= IFCAXIS2PLACEMENT3D(#117,#53,#7);
#119= IFCLOCALPLACEMENT(#42,#118);
#120= IFCCIRCLEPROFILEDEF(.AREA.,$,#51,11.5);
#121= IFCCARTESIANPOINT((0.,-0.0999999999999503,0.));
#122= IFCAXIS2PLACEMENT3D(#121,#8,#7);
#123= IFCEXTRUDEDAREASOLID(#120,#122,#9,21.2);
#124= IFCSHAPEREPRESENTATION(#12,'Body','SweptSolid',(#123));
#125= IFCREPRESENTATIONMAP(#10,#124);
#126= IFCCARTESIANPOINT((0.,0.,75.));
#127= IFCCARTESIANTRANSFORMATIONOPERATOR3D($,$,#126,$,$);
#128= IFCMAPPEDITEM(#125,#127);
#129= IFCCARTESIANPOINT((75.,0.,75.));
#130= IFCCARTESIANTRANSFORMATIONOPERATOR3D($,$,#129,$,$);
#131= IFCMAPPEDITEM(#125,#130);
#132= IFCCARTESIANPOINT((150.,0.,75.));
#133= IFCCARTESIANTRANSFORMATIONOPERATOR3D($,$,#132,$,$);
#134= IFCMAPPEDITEM(#125,#133);
#135= IFCCARTESIANPOINT((225.,0.,75.));
#136= IFCCARTESIANTRANSFORMATIONOPERATOR3D($,$,#135,$,$);
#137= IFCMAPPEDITEM(#125,#136);
#138= IFCCARTESIANPOINT((300.,0.,75.));
#139= IFCCARTESIANTRANSFORMATIONOPERATOR3D($,$,#138,$,$);
#140= IFCMAPPEDITEM(#125,#139);
#141= IFCCARTESIANPOINT((375.,0.,75.));
#142= IFCCARTESIANTRANSFORMATIONOPERATOR3D($,$,#141,$,$);
#143= IFCMAPPEDITEM(#125,#142);
#144= IFCCARTESIANPOINT((450.,0.,75.));
#145= IFCCARTESIANTRANSFORMATIONOPERATOR3D($,$,#144,$,$);
#146= IFCMAPPEDITEM(#125,#145);
#147= IFCCARTESIANPOINT((525.,0.,75.));
#148= IFCCARTESIANTRANSFORMATIONOPERATOR3D($,$,#147,$,$);
#149= IFCMAPPEDITEM(#125,#148);
#150= IFCCARTESIANPOINT((600.,0.,75.));
#151= IFCCARTESIANTRANSFORMATIONOPERATOR3D($,$,#150,$,$);
#152= IFCMAPPEDITEM(#125,#151);
#153= IFCCARTESIANPOINT((675.,0.,75.));
#154= IFCCARTESIANTRANSFORMATIONOPERATOR3D($,$,#153,$,$);
#155= IFCMAPPEDITEM(#125,#154);
#156= IFCCARTESIANPOINT((0.,0.,-75.));
#157= IFCCARTESIANTRANSFORMATIONOPERATOR3D($,$,#156,$,$);
#158= IFCMAPPEDITEM(#125,#157);
#159= IFCCARTESIANPOINT((75.,0.,-75.));
#160= IFCCARTESIANTRANSFORMATIONOPERATOR3D($,$,#159,$,$);
#161= IFCMAPPEDITEM(#125,#160);
#162= IFCCARTESIANPOINT((150.,0.,-75.));
#163= IFCCARTESIANTRANSFORMATIONOPERATOR3D($,$,#162,$,$);
#164= IFCMAPPEDITEM(#125,#163);
#165= IFCCARTESIANPOINT((225.,0.,-75.));
#166= IFCCARTESIANTRANSFORMATIONOPERATOR3D($,$,#165,$,$);
#167= IFCMAPPEDITEM(#125,#166);
#168= IFCCARTESIANPOINT((300.,0.,-75.));
#169= IFCCARTESIANTRANSFORMATIONOPERATOR3D($,$,#168,$,$);
#170= IFCMAPPEDITEM(#125,#169);
#171= IFCCARTESIANPOINT((375.,0.,-75.));
#172= IFCCARTESIANTRANSFORMATIONOPERATOR3D($,$,#171,$,$);
#173= IFCMAPPEDITEM(#125,#172);
#174= IFCCARTESIANPOINT((450.,0.,-75.));
#175= IFCCARTESIANTRANSFORMATIONOPERATOR3D($,$,#174,$,$);
#176= IFCMAPPEDITEM(#125,#175);
#177= IFCCARTESIANPOINT((525.,0.,-75.));
#178= IFCCARTESIANTRANSFORMATIONOPERATOR3D($,$,#177,$,$);
#179= IFCMAPPEDITEM(#125,#178);
#180= IFCCARTESIANPOINT((600.,0.,-75.));
#181= IFCCARTESIANTRANSFORMATIONOPERATOR3D($,$,#180,$,$);
#182= IFCMAPPEDITEM(#125,#181);
#183= IFCCARTESIANPOINT((675.,0.,-75.));
#184= IFCCARTESIANTRANSFORMATIONOPERATOR3D($,$,#183,$,$);
#185= IFCMAPPEDITEM(#125,#184);
#186= IFCSHAPEREPRESENTATION(#12,'Body','MappedRepresentation',(#128,#131,#134,#137,#140,#143,#146,#149,#152,#155,#158,#161,#164,#167,#170,#173,#176,#179,#182,#185));
#187= IFCPRODUCTDEFINITIONSHAPE($,$,(#186));
#188= IFCOPENINGELEMENT('14Hu3suEb2wRAg3oNF$TLe',#5,$,$,'Opening',#119,#187,$);
#189= IFCRELVOIDSELEMENT('1AXYzDP1r1Sv$Dqr0JVC2c',#5,'Drill Hole',$,#67,#188);
#190= IFCPROPERTYSINGLEVALUE('FeatureSubTypes',$,IFCLABEL('TORNILLO'),$);
#191= IFCPROPERTYSINGLEVALUE('RectangleOpeningWidth',$,$,$);
#192= IFCPROPERTYSINGLEVALUE('RectangleOpeningHeight',$,$,$);
#193= IFCPROPERTYSET('3$XSkGU890hu_cYxt9P0TD',#5,'AISC_EM11_Pset_Opening/Cope',$,(#190,#191,#192,#81));
#194= IFCCARTESIANPOINT((91771.9838518906,17380.7799544999,19350.));
#195= IFCAXIS2PLACEMENT3D(#194,#8,#7);
#196= IFCLOCALPLACEMENT(#42,#195);
#197= IFCSHAPEREPRESENTATION(#12,'Body','MappedRepresentation',(#158,#161,#164,#167,#170,#173,#176,#179,#182,#185,#128,#131,#134,#137,#140,#143,#146,#149,#152,#155));
#198= IFCPRODUCTDEFINITIONSHAPE($,$,(#197));
#199= IFCOPENINGELEMENT('29n38xSJz0gfLKq_UOceJM',#5,$,$,'Opening',#196,#198,$);
#200= IFCRELVOIDSELEMENT('2vjmju4Fn5hv_jZvuXRs3N',#5,'Drill Hole',$,#67,#199);
#201= IFCCARTESIANPOINT((91726.9838709452,17380.2061888934,19350.));
#202= IFCAXIS2PLACEMENT3D(#201,#7,#70);
#203= IFCLOCALPLACEMENT(#42,#202);
#204= IFCCIRCLEPROFILEDEF(.AREA.,$,#51,12.5);
#205= IFCCARTESIANPOINT((0.,-5.84993586924221,0.));
#206= IFCAXIS2PLACEMENT3D(#205,#8,#7);
#207= IFCEXTRUDEDAREASOLID(#204,#206,#9,11.7);
#208= IFCSHAPEREPRESENTATION(#12,'Body','SweptSolid',(#207));
#209= IFCREPRESENTATIONMAP(#10,#208);
#210= IFCCARTESIANPOINT((107.5,0.,45.));
#211= IFCCARTESIANTRANSFORMATIONOPERATOR3D($,$,#210,$,$);
#212= IFCMAPPEDITEM(#209,#211);
#213= IFCCARTESIANPOINT((182.5,0.,45.));
#214= IFCCARTESIANTRANSFORMATIONOPERATOR3D($,$,#213,$,$);
#215= IFCMAPPEDITEM(#209,#214);
#216= IFCCARTESIANPOINT((257.5,0.,45.));
#217= IFCCARTESIANTRANSFORMATIONOPERATOR3D($,$,#216,$,$);
#218= IFCMAPPEDITEM(#209,#217);
#219= IFCCARTESIANPOINT((332.5,0.,45.));
#220= IFCCARTESIANTRANSFORMATIONOPERATOR3D($,$,#219,$,$);
#221= IFCMAPPEDITEM(#209,#220);
#222= IFCSHAPEREPRESENTATION(#12,'Body','MappedRepresentation',(#212,#215,#218,#221));
#223= IFCPRODUCTDEFINITIONSHAPE($,$,(#222));
#224= IFCOPENINGELEMENT('21yzA8vNX51BN56zKB0k18',#5,$,$,'Opening',#203,#223,$);
#225= IFCRELVOIDSELEMENT('3F3aAj1zP0SB4Ho3NEZANg',#5,'Drill Hole',$,#67,#224);
#226= IFCPROPERTYSINGLEVALUE('PieceMark',$,IFCIDENTIFIER('BEAM'),$);
#227= IFCPROPERTYSINGLEVALUE('IndicationMark',$,IFCIDENTIFIER('b/11'),$);
#228= IFCPROPERTYSINGLEVALUE('PrelimMark',$,IFCIDENTIFIER(''),$);
#229= IFCPROPERTYSINGLEVALUE('MainPieceTag',$,IFCBOOLEAN(.F.),$);
#230= IFCPROPERTYSET('1WJmPpO8PD2PNQnhPhbAa7',#5,'AISC_EM11_Pset_PieceIdentification','PieceIdentity',(#226,#227,#228,#229));
#231= IFCPROPERTYSINGLEVALUE('MaterialType',$,IFCIDENTIFIER('STEEL'),$);
#232= IFCPROPERTYSINGLEVALUE('MaterialGrade',$,IFCIDENTIFIER('S235JR'),$);
#233= IFCPROPERTYSET('3TZ9ile3vEz9w6dKW_JIdR',#5,'AISC_EM11_Pset_Material',$,(#231,#232));
#234= IFCPROPERTYSINGLEVALUE('SkewedAngleY',$,IFCREAL(0.),$);
#235= IFCPROPERTYSINGLEVALUE('SkewedAngleX',$,IFCREAL(8.E-05),$);
#236= IFCPROPERTYSET('3A3rIbtO9F_eD3$yOplTun',#5,'AISC_EM11_Pset_SkewedEnd',$,(#234,#235));
#237= IFCPROPERTYSINGLEVALUE('SkewedAngleX',$,IFCREAL(0.),$);
#238= IFCPROPERTYSET('0gH4Dfi7n7_ewYY3wErifp',#5,'AISC_EM11_Pset_SkewedEnd_2',$,(#234,#237));
#239= IFCMATERIAL('STEEL/S235JR');
#240= IFCRELAGGREGATES('3ZwlSh76rFUuVsJqC4g8RK',#5,$,$,#37,(#39));
#241= IFCRELAGGREGATES('2rC1kzPO7XmAn8b6UMyQjc',#5,$,$,#39,(#41));
#242= IFCRELAGGREGATES('33WO5dnNX8gh5NvwiQaIgP',#5,$,$,#41,(#43));
#243= IFCRELCONTAINEDINSPATIALSTRUCTURE('2gD54HSb91WAQajaiU$itf',#5,$,$,(#67),#43);
#244= IFCRELDEFINESBYPROPERTIES('3uqY77_SfEGeY_5o$x6P6D',#5,$,$,(#76),#82);
#245= IFCRELDEFINESBYPROPERTIES('2jGzYGFRr52xJiVrzzhD_e',#5,$,$,(#90),#93);
#246= IFCRELDEFINESBYPROPERTIES('1LojnK91fCiPollGunb2$Y',#5,$,$,(#101),#105);
#247= IFCRELDEFINESBYPROPERTIES('09SDmNMuL368sn2Hgz0kSZ',#5,$,$,(#113),#116);
#248= IFCRELDEFINESBYPROPERTIES('0iH49toeXDSgXX$Z5KeE11',#5,$,$,(#224,#199,#188),#193);
#249= IFCRELDEFINESBYPROPERTIES('3jyDs7Wh9CcfWBcSnmL9$K',#5,$,$,(#67),#230);
#250= IFCRELDEFINESBYPROPERTIES('27hMZABf5CjQ2yZoXHKnvD',#5,$,$,(#67),#233);
#251= IFCRELDEFINESBYPROPERTIES('3RINxZDwfF_QzHGiTmlb0J',#5,$,$,(#67),#236);
#252= IFCRELDEFINESBYPROPERTIES('2KF$Jlk$LF7QYH_IrwodlL',#5,$,$,(#67),#238);
#253= IFCRELASSOCIATESMATERIAL('0Fw82hKe1AnwDGIOdpygAj',#5,$,$,(#67),#239);
ENDSEC;

END-ISO-10303-21;
