ISO-10303-21;
HEADER;
FILE_DESCRIPTION(('ViewDefinition[AISC_Steel_Detailing]', 'Option [BaseQuantities:Off]', 'Option [GridExport:On]', 'Option [Assemblies:Off]', 'Option [Bolts:On]', 'Option [Rebars:On]', 'Option [PourObjects:Off]', 'Option [Welds:On]', 'Option [SurfaceTreatments:On]', 'Option [LocationBy:0]', 'Option [ViewColors:Off]', 'Option [SectionedSpine:Off]', 'Option [PropertySets:On]', 'Option [Export all:Off]'),'2;1');
FILE_NAME('b_1137_Qty_2.ifc','2026-05-16T11:53:15',('GIOVANNIPC\\gcorrea'),('Structural Designer'),'IFC Database version: Work','Tekla Structures 2020 Service Pack 5, IFC Export Version: 4.0.0.0 Dec  7 2020','');
FILE_SCHEMA(('IFC2X3'));
ENDSEC;

DATA;
#1= IFCPERSON('GIOVANNIPC\\gcorrea','Undefined',$,$,$,$,$,$);
#2= IFCORGANIZATION($,'Trimble Solutions Corporation',$,$,$);
#3= IFCPERSONANDORGANIZATION(#1,#2,$);
#4= IFCAPPLICATION(#2,'2020 Service Pack 5','Tekla Structures','Multi material modeling');
#5= IFCOWNERHISTORY(#3,#4,$,.NOCHANGE.,$,$,$,1778950395);
#6= IFCCARTESIANPOINT((0.,0.,0.));
#7= IFCDIRECTION((1.,0.,0.));
#8= IFCDIRECTION((0.,1.,0.));
#9= IFCDIRECTION((0.,0.,1.));
#10= IFCAXIS2PLACEMENT3D(#6,#9,#7);
#11= IFCGEOMETRICREPRESENTATIONCONTEXT($,'Model',3,1.E-05,#10,$);
#12= IFCGEOMETRICREPRESENTATIONSUBCONTEXT('Body','Model',*,*,*,*,#11,$,.MODEL_VIEW.,$);
#13= IFCGEOMETRICREPRESENTATIONSUBCONTEXT('Axis','Model',*,*,*,*,#11,$,.GRAPH_VIEW.,$);
#14= IFCGEOMETRICREPRESENTATIONSUBCONTEXT('FootPrint','Model',*,*,*,*,#11,$,.MODEL_VIEW.,$);
#15= IFCSIUNIT(*,.LENGTHUNIT.,.MILLI.,.METRE.);
#16= IFCMEASUREWITHUNIT(IFCRATIOMEASURE(304.8),#15);
#17= IFCDIMENSIONALEXPONENTS(1,0,0,0,0,0,0);
#18= IFCCONVERSIONBASEDUNIT(#17,.LENGTHUNIT.,'FOOT',#16);
#19= IFCSIUNIT(*,.AREAUNIT.,$,.SQUARE_METRE.);
#20= IFCMEASUREWITHUNIT(IFCRATIOMEASURE(0.09290304),#19);
#21= IFCDIMENSIONALEXPONENTS(2,0,0,0,0,0,0);
#22= IFCCONVERSIONBASEDUNIT(#21,.AREAUNIT.,'SQUARE FOOT',#20);
#23= IFCSIUNIT(*,.VOLUMEUNIT.,$,.CUBIC_METRE.);
#24= IFCMEASUREWITHUNIT(IFCRATIOMEASURE(0.028316846592),#23);
#25= IFCDIMENSIONALEXPONENTS(3,0,0,0,0,0,0);
#26= IFCCONVERSIONBASEDUNIT(#25,.VOLUMEUNIT.,'CUBIC FOOT',#24);
#27= IFCSIUNIT(*,.MASSUNIT.,.KILO.,.GRAM.);
#28= IFCSIUNIT(*,.TIMEUNIT.,$,.SECOND.);
#29= IFCSIUNIT(*,.PLANEANGLEUNIT.,$,.RADIAN.);
#30= IFCMEASUREWITHUNIT(IFCRATIOMEASURE(0.0174532925199433),#29);
#31= IFCDIMENSIONALEXPONENTS(0,0,0,0,0,0,0);
#32= IFCCONVERSIONBASEDUNIT(#31,.PLANEANGLEUNIT.,'DEGREE',#30);
#33= IFCSIUNIT(*,.SOLIDANGLEUNIT.,$,.STERADIAN.);
#34= IFCSIUNIT(*,.THERMODYNAMICTEMPERATUREUNIT.,$,.DEGREE_CELSIUS.);
#35= IFCSIUNIT(*,.LUMINOUSINTENSITYUNIT.,$,.LUMEN.);
#36= IFCUNITASSIGNMENT((#15,#19,#23,#27,#28,#29,#33,#34,#35));
#37= IFCPROJECT('2G7ZFDNE16yBDU14FA92Me',#5,'Proyecto',$,$,$,$,(#11),#36);
#38= IFCLOCALPLACEMENT($,#10);
#39= IFCSITE('2xvEzEinjBTea80yOTcujY',#5,'Obra',$,$,#38,$,$,.ELEMENT.,$,$,$,$,$);
#40= IFCLOCALPLACEMENT(#38,#10);
#41= IFCBUILDING('1uD_9ltb93pRHAhWx0QEbu',#5,'Undefined',$,$,#40,$,$,.ELEMENT.,$,$,$);
#42= IFCLOCALPLACEMENT(#40,#10);
#43= IFCBUILDINGSTOREY('29hdEUCErFze9E_VIAceOd',#5,'Undefined',$,$,#42,$,$,.ELEMENT.,0.);
#44= IFCOWNERHISTORY(#3,#4,$,.NOCHANGE.,$,$,$,1775851200);
#45= IFCCARTESIANPOINT((76512.9353637695,8120.20678724092,28025.));
#46= IFCAXIS2PLACEMENT3D(#45,#9,#7);
#47= IFCLOCALPLACEMENT(#42,#46);
#48= IFCDIRECTION((1.,0.));
#49= IFCCARTESIANPOINT((0.,0.));
#50= IFCAXIS2PLACEMENT2D(#49,#48);
#51= IFCISHAPEPROFILEDEF(.AREA.,'IPE550',#50,210.,550.,11.10000038,17.20000076,24.);
#52= IFCDIRECTION((0.,-1.,0.));
#53= IFCDIRECTION((-1.,0.,0.));
#54= IFCCARTESIANPOINT((5064.12429437468,0.,0.));
#55= IFCAXIS2PLACEMENT3D(#54,#53,#52);
#56= IFCEXTRUDEDAREASOLID(#51,#55,#9,5064.12);
#57= IFCCARTESIANPOINT((5064.12426447705,-0.0905524279714882,-325.));
#58= IFCAXIS2PLACEMENT3D(#57,#53,#8);
#59= IFCPLANE(#58);
#60= IFCHALFSPACESOLID(#59,.T.);
#61= IFCBOOLEANCLIPPINGRESULT(.DIFFERENCE.,#56,#60);
#62= IFCSHAPEREPRESENTATION(#12,'Body','Clipping',(#61));
#63= IFCPRODUCTDEFINITIONSHAPE($,$,(#62));
#64= IFCBEAM('0rjC99ScD92xRpyQqM43Nq',#44,'BEAM','IPE550','IPE550',#47,#63,'ID35b4c249-7263-490b-b6f3-f1ad161035f4');
#65= IFCLOCALPLACEMENT(#42,#46);
#66= IFCRECTANGLEPROFILEDEF(.AREA.,'PL108*12.1',#50,12.1,108.);
#67= IFCDIRECTION((0.,0.,-1.));
#68= IFCCARTESIANPOINT((5080.07488110708,-43.2198107155364,226.));
#69= IFCAXIS2PLACEMENT3D(#68,#67,#53);
#70= IFCEXTRUDEDAREASOLID(#66,#69,#9,452.);
#71= IFCSHAPEREPRESENTATION(#12,'Body','SweptSolid',(#70));
#72= IFCPRODUCTDEFINITIONSHAPE($,$,(#71));
#73= IFCOPENINGELEMENT('1yCCKgEnn8Mx_Ux$cTpgWL',#5,$,$,'Recess',#65,#72,$);
#74= IFCRELVOIDSELEMENT('02vUWTHB143BWzeMsbmo1A',#5,$,$,#64,#73);
#75= IFCPROPERTYSINGLEVALUE('FeatureSubTypes',$,$,$);
#76= IFCPROPERTYSINGLEVALUE('RectangleOpeningWidth',$,IFCPOSITIVELENGTHMEASURE(12.1),$);
#77= IFCPROPERTYSINGLEVALUE('RectangleOpeningHeight',$,IFCPOSITIVELENGTHMEASURE(108.),$);
#78= IFCPROPERTYSINGLEVALUE('OpeningDiameter',$,$,$);
#79= IFCPROPERTYSET('0Xf0XnhePCHvq5qN79g8VY',#5,'AISC_EM11_Pset_Opening/Cope',$,(#75,#76,#77,#78));
#80= IFCLOCALPLACEMENT(#42,#46);
#81= IFCRECTANGLEPROFILEDEF(.AREA.,'PL109.1*12.1',#50,12.1,109.1);
#82= IFCCARTESIANPOINT((5080.07487315821,41.3426150898204,226.));
#83= IFCAXIS2PLACEMENT3D(#82,#67,#53);
#84= IFCEXTRUDEDAREASOLID(#81,#83,#9,452.);
#85= IFCSHAPEREPRESENTATION(#12,'Body','SweptSolid',(#84));
#86= IFCPRODUCTDEFINITIONSHAPE($,$,(#85));
#87= IFCOPENINGELEMENT('3ILuNRKIbE09UfIZJoAP62',#5,$,$,'Recess',#80,#86,$);
#88= IFCRELVOIDSELEMENT('2_zF21g0L3o9AavTPZoUSb',#5,$,$,#64,#87);
#89= IFCPROPERTYSINGLEVALUE('RectangleOpeningHeight',$,IFCPOSITIVELENGTHMEASURE(109.1),$);
#90= IFCPROPERTYSET('3TRiyhJ0H7tw2YejCSYsj$',#5,'AISC_EM11_Pset_Opening/Cope',$,(#75,#76,#89,#78));
#91= IFCCARTESIANPOINT((81116.8628380508,8119.90798878376,27760.));
#92= IFCDIRECTION((0.000467666999829817,-0.999999890643783,0.));
#93= IFCDIRECTION((0.999999890643783,0.000467666999833569,0.));
#94= IFCAXIS2PLACEMENT3D(#91,#92,#93);
#95= IFCLOCALPLACEMENT(#42,#94);
#96= IFCCIRCLEPROFILEDEF(.AREA.,$,#50,11.5);
#97= IFCCARTESIANPOINT((0.,-10.1,0.));
#98= IFCAXIS2PLACEMENT3D(#97,#8,#7);
#99= IFCEXTRUDEDAREASOLID(#96,#98,#9,17.4);
#100= IFCSHAPEREPRESENTATION(#12,'Body','SweptSolid',(#99));
#101= IFCREPRESENTATIONMAP(#10,#100);
#102= IFCCARTESIANPOINT((3.49245965480804E-10,0.,-50.0000000000391));
#103= IFCCARTESIANTRANSFORMATIONOPERATOR3D($,$,#102,$,$);
#104= IFCMAPPEDITEM(#101,#103);
#105= IFCCARTESIANPOINT((70.0000000001746,0.,-49.9999999990214));
#106= IFCCARTESIANTRANSFORMATIONOPERATOR3D($,$,#105,$,$);
#107= IFCMAPPEDITEM(#101,#106);
#108= IFCCARTESIANPOINT((139.999999999971,0.,-49.9999999980027));
#109= IFCCARTESIANTRANSFORMATIONOPERATOR3D($,$,#108,$,$);
#110= IFCMAPPEDITEM(#101,#109);
#111= IFCCARTESIANPOINT((209.999999999767,0.,-49.9999999969832));
#112= IFCCARTESIANTRANSFORMATIONOPERATOR3D($,$,#111,$,$);
#113= IFCMAPPEDITEM(#101,#112);
#114= IFCCARTESIANPOINT((279.999999999563,0.,-49.9999999959655));
#115= IFCCARTESIANTRANSFORMATIONOPERATOR3D($,$,#114,$,$);
#116= IFCMAPPEDITEM(#101,#115);
#117= IFCCARTESIANPOINT((349.99999999936,0.,-49.9999999949468));
#118= IFCCARTESIANTRANSFORMATIONOPERATOR3D($,$,#117,$,$);
#119= IFCMAPPEDITEM(#101,#118);
#120= IFCCARTESIANPOINT((419.999999999171,0.,-49.9999999939282));
#121= IFCCARTESIANTRANSFORMATIONOPERATOR3D($,$,#120,$,$);
#122= IFCMAPPEDITEM(#101,#121);
#123= IFCCARTESIANPOINT((-3.63797880709171E-10,0.,50.0000000000391));
#124= IFCCARTESIANTRANSFORMATIONOPERATOR3D($,$,#123,$,$);
#125= IFCMAPPEDITEM(#101,#124);
#126= IFCCARTESIANPOINT((69.9999999994325,0.,50.0000000010577));
#127= IFCCARTESIANTRANSFORMATIONOPERATOR3D($,$,#126,$,$);
#128= IFCMAPPEDITEM(#101,#127);
#129= IFCCARTESIANPOINT((139.999999999229,0.,50.0000000020764));
#130= IFCCARTESIANTRANSFORMATIONOPERATOR3D($,$,#129,$,$);
#131= IFCMAPPEDITEM(#101,#130);
#132= IFCCARTESIANPOINT((209.999999999025,0.,50.000000003095));
#133= IFCCARTESIANTRANSFORMATIONOPERATOR3D($,$,#132,$,$);
#134= IFCMAPPEDITEM(#101,#133);
#135= IFCCARTESIANPOINT((279.999999998836,0.,50.0000000041136));
#136= IFCCARTESIANTRANSFORMATIONOPERATOR3D($,$,#135,$,$);
#137= IFCMAPPEDITEM(#101,#136);
#138= IFCCARTESIANPOINT((349.999999998632,0.,50.0000000051314));
#139= IFCCARTESIANTRANSFORMATIONOPERATOR3D($,$,#138,$,$);
#140= IFCMAPPEDITEM(#101,#139);
#141= IFCCARTESIANPOINT((419.999999998428,0.,50.0000000061509));
#142= IFCCARTESIANTRANSFORMATIONOPERATOR3D($,$,#141,$,$);
#143= IFCMAPPEDITEM(#101,#142);
#144= IFCSHAPEREPRESENTATION(#12,'Body','MappedRepresentation',(#104,#107,#110,#113,#116,#119,#122,#125,#128,#131,#134,#137,#140,#143));
#145= IFCPRODUCTDEFINITIONSHAPE($,$,(#144));
#146= IFCOPENINGELEMENT('3DDeo6sxjBcPsNA2pIVe0F',#5,$,$,'Opening',#95,#145,$);
#147= IFCRELVOIDSELEMENT('2ThWfgHsD3L9$LZwjynID0',#5,'Drill Hole',$,#64,#146);
#148= IFCPROPERTYSINGLEVALUE('FeatureSubTypes',$,IFCLABEL('TORNILLO'),$);
#149= IFCPROPERTYSINGLEVALUE('RectangleOpeningWidth',$,$,$);
#150= IFCPROPERTYSINGLEVALUE('RectangleOpeningHeight',$,$,$);
#151= IFCPROPERTYSET('0xhG0uc397mfCRTs7P$ACY',#5,'AISC_EM11_Pset_Opening/Cope',$,(#148,#149,#150,#78));
#152= IFCCARTESIANPOINT((81577.0596282381,8120.10237323393,28250.));
#153= IFCAXIS2PLACEMENT3D(#152,#53,#67);
#154= IFCLOCALPLACEMENT(#42,#153);
#155= IFCCARTESIANPOINT((0.,-5.75394192973417,0.));
#156= IFCAXIS2PLACEMENT3D(#155,#8,#7);
#157= IFCEXTRUDEDAREASOLID(#96,#156,#9,11.3);
#158= IFCSHAPEREPRESENTATION(#12,'Body','SweptSolid',(#157));
#159= IFCREPRESENTATIONMAP(#10,#158);
#160= IFCCARTESIANPOINT((85.,0.,40.));
#161= IFCCARTESIANTRANSFORMATIONOPERATOR3D($,$,#160,$,$);
#162= IFCMAPPEDITEM(#159,#161);
#163= IFCCARTESIANPOINT((155.,0.,40.));
#164= IFCCARTESIANTRANSFORMATIONOPERATOR3D($,$,#163,$,$);
#165= IFCMAPPEDITEM(#159,#164);
#166= IFCCARTESIANPOINT((225.,0.,40.));
#167= IFCCARTESIANTRANSFORMATIONOPERATOR3D($,$,#166,$,$);
#168= IFCMAPPEDITEM(#159,#167);
#169= IFCCARTESIANPOINT((295.,0.,40.));
#170= IFCCARTESIANTRANSFORMATIONOPERATOR3D($,$,#169,$,$);
#171= IFCMAPPEDITEM(#159,#170);
#172= IFCCARTESIANPOINT((365.,0.,40.));
#173= IFCCARTESIANTRANSFORMATIONOPERATOR3D($,$,#172,$,$);
#174= IFCMAPPEDITEM(#159,#173);
#175= IFCSHAPEREPRESENTATION(#12,'Body','MappedRepresentation',(#162,#165,#168,#171,#174));
#176= IFCPRODUCTDEFINITIONSHAPE($,$,(#175));
#177= IFCOPENINGELEMENT('08eBvQSUjBvxadFxBbatXx',#5,$,$,'Opening',#154,#176,$);
#178= IFCRELVOIDSELEMENT('1zND40J1f5BBbrXvS6amQ$',#5,'Drill Hole',$,#64,#177);
#179= IFCCARTESIANPOINT((81116.8628380508,8119.90798878376,28300.));
#180= IFCDIRECTION((-0.000467666999829816,0.999999890643783,0.));
#181= IFCAXIS2PLACEMENT3D(#179,#180,#93);
#182= IFCLOCALPLACEMENT(#42,#181);
#183= IFCCARTESIANPOINT((0.,-0.0999999999999929,0.));
#184= IFCAXIS2PLACEMENT3D(#183,#8,#7);
#185= IFCEXTRUDEDAREASOLID(#96,#184,#9,17.4);
#186= IFCSHAPEREPRESENTATION(#12,'Body','SweptSolid',(#185));
#187= IFCREPRESENTATIONMAP(#10,#186);
#188= IFCMAPPEDITEM(#187,#103);
#189= IFCMAPPEDITEM(#187,#106);
#190= IFCMAPPEDITEM(#187,#109);
#191= IFCMAPPEDITEM(#187,#112);
#192= IFCMAPPEDITEM(#187,#115);
#193= IFCMAPPEDITEM(#187,#118);
#194= IFCMAPPEDITEM(#187,#121);
#195= IFCMAPPEDITEM(#187,#124);
#196= IFCMAPPEDITEM(#187,#127);
#197= IFCMAPPEDITEM(#187,#130);
#198= IFCMAPPEDITEM(#187,#133);
#199= IFCMAPPEDITEM(#187,#136);
#200= IFCMAPPEDITEM(#187,#139);
#201= IFCMAPPEDITEM(#187,#142);
#202= IFCSHAPEREPRESENTATION(#12,'Body','MappedRepresentation',(#188,#189,#190,#191,#192,#193,#194,#195,#196,#197,#198,#199,#200,#201));
#203= IFCPRODUCTDEFINITIONSHAPE($,$,(#202));
#204= IFCOPENINGELEMENT('0OiqQOLkb0uPFr$pDWoCEL',#5,$,$,'Opening',#182,#203,$);
#205= IFCRELVOIDSELEMENT('01jB$boF94U90GS_XQEggF',#5,'Drill Hole',$,#64,#204);
#206= IFCPROPERTYSINGLEVALUE('PieceMark',$,IFCIDENTIFIER('BEAM'),$);
#207= IFCPROPERTYSINGLEVALUE('IndicationMark',$,IFCIDENTIFIER('b/1137'),$);
#208= IFCPROPERTYSINGLEVALUE('PrelimMark',$,IFCIDENTIFIER(''),$);
#209= IFCPROPERTYSINGLEVALUE('MainPieceTag',$,IFCBOOLEAN(.T.),$);
#210= IFCPROPERTYSET('0B1D2vQGP68OC$tzk94SNY',#5,'AISC_EM11_Pset_PieceIdentification','PieceIdentity',(#206,#207,#208,#209));
#211= IFCPROPERTYSINGLEVALUE('MaterialType',$,IFCIDENTIFIER('STEEL'),$);
#212= IFCPROPERTYSINGLEVALUE('MaterialGrade',$,IFCIDENTIFIER('S235JR'),$);
#213= IFCPROPERTYSET('10d9EJRebFKe$QrG6nWUB6',#5,'AISC_EM11_Pset_Material',$,(#211,#212));
#214= IFCPROPERTYSINGLEVALUE('SkewedAngleY',$,IFCREAL(0.),$);
#215= IFCPROPERTYSINGLEVALUE('SkewedAngleX',$,IFCREAL(0.),$);
#216= IFCPROPERTYSET('19xOUgTxPChgewaFFxBAy2',#5,'AISC_EM11_Pset_SkewedEnd',$,(#214,#215));
#217= IFCPROPERTYSINGLEVALUE('SkewedAngleX',$,IFCREAL(-1.E-05),$);
#218= IFCPROPERTYSET('29aoN5PuT7fvELE0dYlYFN',#5,'AISC_EM11_Pset_SkewedEnd_2',$,(#214,#217));
#219= IFCMATERIAL('STEEL/S235JR');
#220= IFCRELAGGREGATES('0FFXZEcI9BDPb6_tgFmCAO',#5,$,$,#37,(#39));
#221= IFCRELAGGREGATES('2XXprWuaRTVhtOG9yX2USg',#5,$,$,#39,(#41));
#222= IFCRELAGGREGATES('1jjN8qB3z7j9QXY64oihjm',#5,$,$,#41,(#43));
#223= IFCRELCONTAINEDINSPATIALSTRUCTURE('3sN_na1kj80xcKpFRhHIQN',#5,$,$,(#64),#43);
#224= IFCRELDEFINESBYPROPERTIES('1Yoa06PqHDRv37ncAn8WJF',#5,$,$,(#73),#79);
#225= IFCRELDEFINESBYPROPERTIES('2_y5uY4tTE2AVakgia8ih7',#5,$,$,(#87),#90);
#226= IFCRELDEFINESBYPROPERTIES('13ZPkt5017exJWa0f3R9ky',#5,$,$,(#204,#177,#146),#151);
#227= IFCRELDEFINESBYPROPERTIES('1Nc9Y2M6j4zPQNFXr7h1py',#5,$,$,(#64),#210);
#228= IFCRELDEFINESBYPROPERTIES('3JZi$AGvr9axGyxZv77qnq',#5,$,$,(#64),#213);
#229= IFCRELDEFINESBYPROPERTIES('0WPcQUihz5IObBUD9dmC$6',#5,$,$,(#64),#216);
#230= IFCRELDEFINESBYPROPERTIES('0MesVcSfrBlvtPIM1o4dG$',#5,$,$,(#64),#218);
#231= IFCRELASSOCIATESMATERIAL('1MW3NC6vb3lgA3IeWcedcc',#5,$,$,(#64),#219);
ENDSEC;

END-ISO-10303-21;
