ISO-10303-21;
HEADER;
FILE_DESCRIPTION(('ViewDefinition[AISC_Steel_Detailing]', 'Option [BaseQuantities:Off]', 'Option [GridExport:On]', 'Option [Assemblies:Off]', 'Option [Bolts:On]', 'Option [Rebars:On]', 'Option [PourObjects:Off]', 'Option [Welds:On]', 'Option [SurfaceTreatments:On]', 'Option [LocationBy:0]', 'Option [ViewColors:Off]', 'Option [SectionedSpine:Off]', 'Option [PropertySets:On]', 'Option [Export all:Off]'),'2;1');
FILE_NAME('b_1134_Qty_2.ifc','2026-05-16T11:52:52',('GIOVANNIPC\\gcorrea'),('Structural Designer'),'IFC Database version: Work','Tekla Structures 2020 Service Pack 5, IFC Export Version: 4.0.0.0 Dec  7 2020','');
FILE_SCHEMA(('IFC2X3'));
ENDSEC;

DATA;
#1= IFCPERSON('GIOVANNIPC\\gcorrea','Undefined',$,$,$,$,$,$);
#2= IFCORGANIZATION($,'Trimble Solutions Corporation',$,$,$);
#3= IFCPERSONANDORGANIZATION(#1,#2,$);
#4= IFCAPPLICATION(#2,'2020 Service Pack 5','Tekla Structures','Multi material modeling');
#5= IFCOWNERHISTORY(#3,#4,$,.NOCHANGE.,$,$,$,1778950372);
#6= IFCCARTESIANPOINT((0.,0.,0.));
#7= IFCDIRECTION((1.,0.,0.));
#8= IFCDIRECTION((0.,1.,0.));
#9= IFCDIRECTION((0.,0.,1.));
#10= IFCAXIS2PLACEMENT3D(#6,#9,#7);
#11= IFCGEOMETRICREPRESENTATIONCONTEXT($,'Model',3,1.E-05,#10,$);
#12= IFCGEOMETRICREPRESENTATIONSUBCONTEXT('Body','Model',*,*,*,*,#11,$,.MODEL_VIEW.,$);
#13= IFCGEOMETRICREPRESENTATIONSUBCONTEXT('Axis','Model',*,*,*,*,#11,$,.GRAPH_VIEW.,$);
#14= IFCGEOMETRICREPRESENTATIONSUBCONTEXT('FootPrint','Model',*,*,*,*,#11,$,.MODEL_VIEW.,$);
#15= IFCSIUNIT(*,.LENGTHUNIT.,.MILLI.,.METRE.);
#16= IFCMEASUREWITHUNIT(IFCRATIOMEASURE(304.8),#15);
#17= IFCDIMENSIONALEXPONENTS(1,0,0,0,0,0,0);
#18= IFCCONVERSIONBASEDUNIT(#17,.LENGTHUNIT.,'FOOT',#16);
#19= IFCSIUNIT(*,.AREAUNIT.,$,.SQUARE_METRE.);
#20= IFCMEASUREWITHUNIT(IFCRATIOMEASURE(0.09290304),#19);
#21= IFCDIMENSIONALEXPONENTS(2,0,0,0,0,0,0);
#22= IFCCONVERSIONBASEDUNIT(#21,.AREAUNIT.,'SQUARE FOOT',#20);
#23= IFCSIUNIT(*,.VOLUMEUNIT.,$,.CUBIC_METRE.);
#24= IFCMEASUREWITHUNIT(IFCRATIOMEASURE(0.028316846592),#23);
#25= IFCDIMENSIONALEXPONENTS(3,0,0,0,0,0,0);
#26= IFCCONVERSIONBASEDUNIT(#25,.VOLUMEUNIT.,'CUBIC FOOT',#24);
#27= IFCSIUNIT(*,.MASSUNIT.,.KILO.,.GRAM.);
#28= IFCSIUNIT(*,.TIMEUNIT.,$,.SECOND.);
#29= IFCSIUNIT(*,.PLANEANGLEUNIT.,$,.RADIAN.);
#30= IFCMEASUREWITHUNIT(IFCRATIOMEASURE(0.0174532925199433),#29);
#31= IFCDIMENSIONALEXPONENTS(0,0,0,0,0,0,0);
#32= IFCCONVERSIONBASEDUNIT(#31,.PLANEANGLEUNIT.,'DEGREE',#30);
#33= IFCSIUNIT(*,.SOLIDANGLEUNIT.,$,.STERADIAN.);
#34= IFCSIUNIT(*,.THERMODYNAMICTEMPERATUREUNIT.,$,.DEGREE_CELSIUS.);
#35= IFCSIUNIT(*,.LUMINOUSINTENSITYUNIT.,$,.LUMEN.);
#36= IFCUNITASSIGNMENT((#15,#19,#23,#27,#28,#29,#33,#34,#35));
#37= IFCPROJECT('2G7ZFDNE16yBDU14FA92Me',#5,'Proyecto',$,$,$,$,(#11),#36);
#38= IFCLOCALPLACEMENT($,#10);
#39= IFCSITE('2xvEzEinjBTea80yOTcujY',#5,'Obra',$,$,#38,$,$,.ELEMENT.,$,$,$,$,$);
#40= IFCLOCALPLACEMENT(#38,#10);
#41= IFCBUILDING('0VOiiATrT7OuaZca07Yi$3',#5,'Undefined',$,$,#40,$,$,.ELEMENT.,$,$,$);
#42= IFCLOCALPLACEMENT(#40,#10);
#43= IFCBUILDINGSTOREY('29hdEUCErFze9E_VIAceOd',#5,'Undefined',$,$,#42,$,$,.ELEMENT.,0.);
#44= IFCOWNERHISTORY(#3,#4,$,.NOCHANGE.,$,$,$,1775491200);
#45= IFCCARTESIANPOINT((94383.5408905869,2253.28919316833,13680.));
#46= IFCAXIS2PLACEMENT3D(#45,#9,#8);
#47= IFCLOCALPLACEMENT(#42,#46);
#48= IFCDIRECTION((1.,0.));
#49= IFCCARTESIANPOINT((0.,0.));
#50= IFCAXIS2PLACEMENT2D(#49,#48);
#51= IFCISHAPEPROFILEDEF(.AREA.,'HEA450',#50,300.,440.,11.5,21.,27.);
#52= IFCDIRECTION((0.,-1.,0.));
#53= IFCDIRECTION((-1.,0.,0.));
#54= IFCCARTESIANPOINT((5851.17112545949,0.,0.));
#55= IFCAXIS2PLACEMENT3D(#54,#53,#52);
#56= IFCEXTRUDEDAREASOLID(#51,#55,#9,5832.17);
#57= IFCDIRECTION((-0.999999999999006,-1.4099999998493E-06,0.));
#58= IFCCARTESIANPOINT((5851.17111727093,-1.40999327413738E-05,-320.));
#59= IFCDIRECTION((-1.4099999998493E-06,0.999999999999006,0.));
#60= IFCAXIS2PLACEMENT3D(#58,#57,#59);
#61= IFCPLANE(#60);
#62= IFCHALFSPACESOLID(#61,.T.);
#63= IFCBOOLEANCLIPPINGRESULT(.DIFFERENCE.,#56,#62);
#64= IFCCARTESIANPOINT((19.,150.,0.));
#65= IFCDIRECTION((0.,0.,-1.));
#66= IFCAXIS2PLACEMENT3D(#64,#7,#65);
#67= IFCPLANE(#66);
#68= IFCHALFSPACESOLID(#67,.T.);
#69= IFCBOOLEANCLIPPINGRESULT(.DIFFERENCE.,#63,#68);
#70= IFCSHAPEREPRESENTATION(#12,'Body','Clipping',(#69));
#71= IFCPRODUCTDEFINITIONSHAPE($,$,(#70));
#72= IFCBEAM('2K_MHVCG98SOUzaswvaD2h',#44,'BEAM','HEA450','HEA450',#47,#71,'ID94f9645f-3102-4871-87bd-936eb990d0ab');
#73= IFCLOCALPLACEMENT(#42,#46);
#74= IFCRECTANGLEPROFILEDEF(.AREA.,'PL49*156.3',#50,49.,156.3);
#75= IFCDIRECTION((1.41000000076648E-06,-0.999999999999006,0.));
#76= IFCCARTESIANPOINT((5785.0459043473,151.008847809528,-196.5));
#77= IFCAXIS2PLACEMENT3D(#76,#75,#65);
#78= IFCEXTRUDEDAREASOLID(#74,#77,#9,302.01);
#79= IFCSHAPEREPRESENTATION(#12,'Body','SweptSolid',(#78));
#80= IFCPRODUCTDEFINITIONSHAPE($,$,(#79));
#81= IFCOPENINGELEMENT('2NW1S3MBH2JuiXFa2$OiVf',#5,$,$,'Recess',#73,#80,$);
#82= IFCRELVOIDSELEMENT('0q9g9Kznz5Ovu62bZWiN_K',#5,$,$,#72,#81);
#83= IFCPROPERTYSINGLEVALUE('FeatureSubTypes',$,$,$);
#84= IFCPROPERTYSINGLEVALUE('RectangleOpeningWidth',$,IFCPOSITIVELENGTHMEASURE(49.),$);
#85= IFCPROPERTYSINGLEVALUE('RectangleOpeningHeight',$,IFCPOSITIVELENGTHMEASURE(156.3),$);
#86= IFCPROPERTYSINGLEVALUE('OpeningDiameter',$,$,$);
#87= IFCPROPERTYSET('2WRPz8IAD6PRV3RTfSo$E9',#5,'AISC_EM11_Pset_Opening/Cope',$,(#83,#84,#85,#86));
#88= IFCLOCALPLACEMENT(#42,#46);
#89= IFCCARTESIANPOINT((5785.0459043473,151.008847809528,196.5));
#90= IFCAXIS2PLACEMENT3D(#89,#75,#65);
#91= IFCEXTRUDEDAREASOLID(#74,#90,#9,302.01);
#92= IFCSHAPEREPRESENTATION(#12,'Body','SweptSolid',(#91));
#93= IFCPRODUCTDEFINITIONSHAPE($,$,(#92));
#94= IFCOPENINGELEMENT('15st6TtLb9CA_xgwHx0OOW',#5,$,$,'Recess',#88,#93,$);
#95= IFCRELVOIDSELEMENT('3lNTcroiL8rg7QHAICgkTS',#5,$,$,#72,#94);
#96= IFCCARTESIANPOINT((94383.5408905869,7920.20632653402,13460.));
#97= IFCAXIS2PLACEMENT3D(#96,#53,#52);
#98= IFCLOCALPLACEMENT(#42,#97);
#99= IFCCIRCLEPROFILEDEF(.AREA.,$,#50,11.5);
#100= IFCCARTESIANPOINT((0.,-0.1,0.));
#101= IFCAXIS2PLACEMENT3D(#100,#8,#7);
#102= IFCEXTRUDEDAREASOLID(#99,#101,#9,21.2);
#103= IFCSHAPEREPRESENTATION(#12,'Body','SweptSolid',(#102));
#104= IFCREPRESENTATIONMAP(#10,#103);
#105= IFCCARTESIANPOINT((0.,0.,75.));
#106= IFCCARTESIANTRANSFORMATIONOPERATOR3D($,$,#105,$,$);
#107= IFCMAPPEDITEM(#104,#106);
#108= IFCCARTESIANPOINT((70.,0.,75.0000000002037));
#109= IFCCARTESIANTRANSFORMATIONOPERATOR3D($,$,#108,$,$);
#110= IFCMAPPEDITEM(#104,#109);
#111= IFCCARTESIANPOINT((140.000000000001,0.,75.0000000003929));
#112= IFCCARTESIANTRANSFORMATIONOPERATOR3D($,$,#111,$,$);
#113= IFCMAPPEDITEM(#104,#112);
#114= IFCCARTESIANPOINT((210.000000000002,0.,75.0000000005821));
#115= IFCCARTESIANTRANSFORMATIONOPERATOR3D($,$,#114,$,$);
#116= IFCMAPPEDITEM(#104,#115);
#117= IFCCARTESIANPOINT((280.000000000003,0.,75.0000000007713));
#118= IFCCARTESIANTRANSFORMATIONOPERATOR3D($,$,#117,$,$);
#119= IFCMAPPEDITEM(#104,#118);
#120= IFCCARTESIANPOINT((350.000000000003,0.,75.0000000009604));
#121= IFCCARTESIANTRANSFORMATIONOPERATOR3D($,$,#120,$,$);
#122= IFCMAPPEDITEM(#104,#121);
#123= IFCCARTESIANPOINT((420.000000000004,0.,75.0000000011496));
#124= IFCCARTESIANTRANSFORMATIONOPERATOR3D($,$,#123,$,$);
#125= IFCMAPPEDITEM(#104,#124);
#126= IFCCARTESIANPOINT((0.,0.,-75.));
#127= IFCCARTESIANTRANSFORMATIONOPERATOR3D($,$,#126,$,$);
#128= IFCMAPPEDITEM(#104,#127);
#129= IFCCARTESIANPOINT((70.,0.,-74.9999999998108));
#130= IFCCARTESIANTRANSFORMATIONOPERATOR3D($,$,#129,$,$);
#131= IFCMAPPEDITEM(#104,#130);
#132= IFCCARTESIANPOINT((140.000000000001,0.,-74.9999999996071));
#133= IFCCARTESIANTRANSFORMATIONOPERATOR3D($,$,#132,$,$);
#134= IFCMAPPEDITEM(#104,#133);
#135= IFCCARTESIANPOINT((210.000000000002,0.,-74.9999999994179));
#136= IFCCARTESIANTRANSFORMATIONOPERATOR3D($,$,#135,$,$);
#137= IFCMAPPEDITEM(#104,#136);
#138= IFCCARTESIANPOINT((280.000000000003,0.,-74.9999999992287));
#139= IFCCARTESIANTRANSFORMATIONOPERATOR3D($,$,#138,$,$);
#140= IFCMAPPEDITEM(#104,#139);
#141= IFCCARTESIANPOINT((350.000000000003,0.,-74.9999999990396));
#142= IFCCARTESIANTRANSFORMATIONOPERATOR3D($,$,#141,$,$);
#143= IFCMAPPEDITEM(#104,#142);
#144= IFCCARTESIANPOINT((420.000000000004,0.,-74.9999999988504));
#145= IFCCARTESIANTRANSFORMATIONOPERATOR3D($,$,#144,$,$);
#146= IFCMAPPEDITEM(#104,#145);
#147= IFCSHAPEREPRESENTATION(#12,'Body','MappedRepresentation',(#107,#110,#113,#116,#119,#122,#125,#128,#131,#134,#137,#140,#143,#146));
#148= IFCPRODUCTDEFINITIONSHAPE($,$,(#147));
#149= IFCOPENINGELEMENT('21HAoBMQfESgwiYqiUvREE',#5,$,$,'Opening',#98,#148,$);
#150= IFCRELVOIDSELEMENT('2cEs0X6XjEkR8mF3gCXQVm',#5,'Drill Hole',$,#72,#149);
#151= IFCPROPERTYSINGLEVALUE('FeatureSubTypes',$,IFCLABEL('TORNILLO'),$);
#152= IFCPROPERTYSINGLEVALUE('RectangleOpeningWidth',$,$,$);
#153= IFCPROPERTYSINGLEVALUE('RectangleOpeningHeight',$,$,$);
#154= IFCPROPERTYSET('1m__4f4nf449gJ_53OO5ja',#5,'AISC_EM11_Pset_Opening/Cope',$,(#151,#152,#153,#86));
#155= IFCCARTESIANPOINT((94383.5408905869,7920.20632653402,13900.));
#156= IFCAXIS2PLACEMENT3D(#155,#7,#52);
#157= IFCLOCALPLACEMENT(#42,#156);
#158= IFCSHAPEREPRESENTATION(#12,'Body','MappedRepresentation',(#128,#131,#134,#137,#140,#143,#146,#107,#110,#113,#116,#119,#122,#125));
#159= IFCPRODUCTDEFINITIONSHAPE($,$,(#158));
#160= IFCOPENINGELEMENT('2y84EA4$bA7fPBWcTVsNbl',#5,$,$,'Opening',#157,#159,$);
#161= IFCRELVOIDSELEMENT('3S5SqH$B55KRSuQoKS3q78',#5,'Drill Hole',$,#72,#160);
#162= IFCCARTESIANPOINT((94383.5408764869,8104.46031043922,13900.));
#163= IFCAXIS2PLACEMENT3D(#162,#75,#65);
#164= IFCLOCALPLACEMENT(#42,#163);
#165= IFCCIRCLEPROFILEDEF(.AREA.,$,#50,11.);
#166= IFCCARTESIANPOINT((0.,-5.85004234110101,0.));
#167= IFCAXIS2PLACEMENT3D(#166,#8,#7);
#168= IFCEXTRUDEDAREASOLID(#165,#167,#9,11.7);
#169= IFCSHAPEREPRESENTATION(#12,'Body','SweptSolid',(#168));
#170= IFCREPRESENTATIONMAP(#10,#169);
#171= IFCCARTESIANPOINT((80.,0.,40.0000000000064));
#172= IFCCARTESIANTRANSFORMATIONOPERATOR3D($,$,#171,$,$);
#173= IFCMAPPEDITEM(#170,#172);
#174= IFCCARTESIANPOINT((150.,0.,40.0000000000064));
#175= IFCCARTESIANTRANSFORMATIONOPERATOR3D($,$,#174,$,$);
#176= IFCMAPPEDITEM(#170,#175);
#177= IFCCARTESIANPOINT((220.,0.,40.0000000000064));
#178= IFCCARTESIANTRANSFORMATIONOPERATOR3D($,$,#177,$,$);
#179= IFCMAPPEDITEM(#170,#178);
#180= IFCCARTESIANPOINT((290.,0.,40.0000000000064));
#181= IFCCARTESIANTRANSFORMATIONOPERATOR3D($,$,#180,$,$);
#182= IFCMAPPEDITEM(#170,#181);
#183= IFCCARTESIANPOINT((360.,0.,40.0000000000064));
#184= IFCCARTESIANTRANSFORMATIONOPERATOR3D($,$,#183,$,$);
#185= IFCMAPPEDITEM(#170,#184);
#186= IFCSHAPEREPRESENTATION(#12,'Body','MappedRepresentation',(#173,#176,#179,#182,#185));
#187= IFCPRODUCTDEFINITIONSHAPE($,$,(#186));
#188= IFCOPENINGELEMENT('1g_VNp64b3R9kP6nPmr1Kt',#5,$,$,'Opening',#164,#187,$);
#189= IFCRELVOIDSELEMENT('0a658UL4D16uv54Z9oX5Ux',#5,'Drill Hole',$,#72,#188);
#190= IFCPROPERTYSINGLEVALUE('PieceMark',$,IFCIDENTIFIER('BEAM'),$);
#191= IFCPROPERTYSINGLEVALUE('IndicationMark',$,IFCIDENTIFIER('b/1134'),$);
#192= IFCPROPERTYSINGLEVALUE('PrelimMark',$,IFCIDENTIFIER(''),$);
#193= IFCPROPERTYSINGLEVALUE('MainPieceTag',$,IFCBOOLEAN(.T.),$);
#194= IFCPROPERTYSET('1ub5D$19X42eL5nFCLkq_L',#5,'AISC_EM11_Pset_PieceIdentification','PieceIdentity',(#190,#191,#192,#193));
#195= IFCPROPERTYSINGLEVALUE('MaterialType',$,IFCIDENTIFIER('STEEL'),$);
#196= IFCPROPERTYSINGLEVALUE('MaterialGrade',$,IFCIDENTIFIER('S235JR'),$);
#197= IFCPROPERTYSET('0j_Qfnedf3mwzqDO2LUuQx',#5,'AISC_EM11_Pset_Material',$,(#195,#196));
#198= IFCPROPERTYSINGLEVALUE('SkewedAngleY',$,IFCREAL(0.),$);
#199= IFCPROPERTYSINGLEVALUE('SkewedAngleX',$,IFCREAL(0.),$);
#200= IFCPROPERTYSET('17S34UmBL6BeLAJJ9HKTRu',#5,'AISC_EM11_Pset_SkewedEnd',$,(#198,#199));
#201= IFCPROPERTYSET('1qtrZGBpLE$9Gszg8CEpSV',#5,'AISC_EM11_Pset_SkewedEnd_2',$,(#198,#199));
#202= IFCMATERIAL('STEEL/S235JR');
#203= IFCRELAGGREGATES('1Pe9Tq$nz7heN1reGLX13Q',#5,$,$,#37,(#39));
#204= IFCRELAGGREGATES('2hwRl6H3FPzwfJ7wYdpJLi',#5,$,$,#39,(#41));
#205= IFCRELAGGREGATES('3q62BDsVrDiAA56V52g7dU',#5,$,$,#41,(#43));
#206= IFCRELCONTAINEDINSPATIALSTRUCTURE('1YZkrT8QbDJR$mRQbGA0Fm',#5,$,$,(#72),#43);
#207= IFCRELDEFINESBYPROPERTIES('23k_Y4j$zCte_g6$aklie8',#5,$,$,(#94,#81),#87);
#208= IFCRELDEFINESBYPROPERTIES('2gCyF5ZrTDxO9BTY8$ItW9',#5,$,$,(#188,#160,#149),#154);
#209= IFCRELDEFINESBYPROPERTIES('0I9PnLscv85wOgsqHAh6dC',#5,$,$,(#72),#194);
#210= IFCRELDEFINESBYPROPERTIES('0tdFxhafT9NhmHXtXrkm5t',#5,$,$,(#72),#197);
#211= IFCRELDEFINESBYPROPERTIES('1mGmO6MD9Fae3BM2A6XuYy',#5,$,$,(#72),#200);
#212= IFCRELDEFINESBYPROPERTIES('3itStgRab49fm1lMGe4JM$',#5,$,$,(#72),#201);
#213= IFCRELASSOCIATESMATERIAL('2tlEsBzXHDeQhf2BDYWZNh',#5,$,$,(#72),#202);
ENDSEC;

END-ISO-10303-21;
