ISO-10303-21;
HEADER;
FILE_DESCRIPTION(('ViewDefinition[AISC_Steel_Detailing]', 'Option [BaseQuantities:Off]', 'Option [GridExport:On]', 'Option [Assemblies:Off]', 'Option [Bolts:On]', 'Option [Rebars:On]', 'Option [PourObjects:Off]', 'Option [Welds:On]', 'Option [SurfaceTreatments:On]', 'Option [LocationBy:0]', 'Option [ViewColors:Off]', 'Option [SectionedSpine:Off]', 'Option [PropertySets:On]', 'Option [Export all:Off]'),'2;1');
FILE_NAME('b_1191_Qty_1.ifc','2026-05-16T11:53:15',('GIOVANNIPC\\gcorrea'),('Structural Designer'),'IFC Database version: Work','Tekla Structures 2020 Service Pack 5, IFC Export Version: 4.0.0.0 Dec  7 2020','');
FILE_SCHEMA(('IFC2X3'));
ENDSEC;

DATA;
#1= IFCPERSON('GIOVANNIPC\\gcorrea','Undefined',$,$,$,$,$,$);
#2= IFCORGANIZATION($,'Trimble Solutions Corporation',$,$,$);
#3= IFCPERSONANDORGANIZATION(#1,#2,$);
#4= IFCAPPLICATION(#2,'2020 Service Pack 5','Tekla Structures','Multi material modeling');
#5= IFCOWNERHISTORY(#3,#4,$,.NOCHANGE.,$,$,$,1778950395);
#6= IFCCARTESIANPOINT((0.,0.,0.));
#7= IFCDIRECTION((1.,0.,0.));
#8= IFCDIRECTION((0.,1.,0.));
#9= IFCDIRECTION((0.,0.,1.));
#10= IFCAXIS2PLACEMENT3D(#6,#9,#7);
#11= IFCGEOMETRICREPRESENTATIONCONTEXT($,'Model',3,1.E-05,#10,$);
#12= IFCGEOMETRICREPRESENTATIONSUBCONTEXT('Body','Model',*,*,*,*,#11,$,.MODEL_VIEW.,$);
#13= IFCGEOMETRICREPRESENTATIONSUBCONTEXT('Axis','Model',*,*,*,*,#11,$,.GRAPH_VIEW.,$);
#14= IFCGEOMETRICREPRESENTATIONSUBCONTEXT('FootPrint','Model',*,*,*,*,#11,$,.MODEL_VIEW.,$);
#15= IFCSIUNIT(*,.LENGTHUNIT.,.MILLI.,.METRE.);
#16= IFCMEASUREWITHUNIT(IFCRATIOMEASURE(304.8),#15);
#17= IFCDIMENSIONALEXPONENTS(1,0,0,0,0,0,0);
#18= IFCCONVERSIONBASEDUNIT(#17,.LENGTHUNIT.,'FOOT',#16);
#19= IFCSIUNIT(*,.AREAUNIT.,$,.SQUARE_METRE.);
#20= IFCMEASUREWITHUNIT(IFCRATIOMEASURE(0.09290304),#19);
#21= IFCDIMENSIONALEXPONENTS(2,0,0,0,0,0,0);
#22= IFCCONVERSIONBASEDUNIT(#21,.AREAUNIT.,'SQUARE FOOT',#20);
#23= IFCSIUNIT(*,.VOLUMEUNIT.,$,.CUBIC_METRE.);
#24= IFCMEASUREWITHUNIT(IFCRATIOMEASURE(0.028316846592),#23);
#25= IFCDIMENSIONALEXPONENTS(3,0,0,0,0,0,0);
#26= IFCCONVERSIONBASEDUNIT(#25,.VOLUMEUNIT.,'CUBIC FOOT',#24);
#27= IFCSIUNIT(*,.MASSUNIT.,.KILO.,.GRAM.);
#28= IFCSIUNIT(*,.TIMEUNIT.,$,.SECOND.);
#29= IFCSIUNIT(*,.PLANEANGLEUNIT.,$,.RADIAN.);
#30= IFCMEASUREWITHUNIT(IFCRATIOMEASURE(0.0174532925199433),#29);
#31= IFCDIMENSIONALEXPONENTS(0,0,0,0,0,0,0);
#32= IFCCONVERSIONBASEDUNIT(#31,.PLANEANGLEUNIT.,'DEGREE',#30);
#33= IFCSIUNIT(*,.SOLIDANGLEUNIT.,$,.STERADIAN.);
#34= IFCSIUNIT(*,.THERMODYNAMICTEMPERATUREUNIT.,$,.DEGREE_CELSIUS.);
#35= IFCSIUNIT(*,.LUMINOUSINTENSITYUNIT.,$,.LUMEN.);
#36= IFCUNITASSIGNMENT((#15,#19,#23,#27,#28,#29,#33,#34,#35));
#37= IFCPROJECT('2G7ZFDNE16yBDU14FA92Me',#5,'Proyecto',$,$,$,$,(#11),#36);
#38= IFCLOCALPLACEMENT($,#10);
#39= IFCSITE('2xvEzEinjBTea80yOTcujY',#5,'Obra',$,$,#38,$,$,.ELEMENT.,$,$,$,$,$);
#40= IFCLOCALPLACEMENT(#38,#10);
#41= IFCBUILDING('3PNNJFP9H0cuXvkR7Gfqdk',#5,'Undefined',$,$,#40,$,$,.ELEMENT.,$,$,$);
#42= IFCLOCALPLACEMENT(#40,#10);
#43= IFCBUILDINGSTOREY('29hdEUCErFze9E_VIAceOd',#5,'Undefined',$,$,#42,$,$,.ELEMENT.,0.);
#44= IFCOWNERHISTORY(#3,#4,$,.NOCHANGE.,$,$,$,1775851200);
#45= IFCCARTESIANPOINT((13220.9641571045,21440.0515099887,28100.));
#46= IFCDIRECTION((0.999999999912616,1.32199999985954E-05,0.));
#47= IFCAXIS2PLACEMENT3D(#45,#9,#46);
#48= IFCLOCALPLACEMENT(#42,#47);
#49= IFCDIRECTION((1.,0.));
#50= IFCCARTESIANPOINT((0.,0.));
#51= IFCAXIS2PLACEMENT2D(#50,#49);
#52= IFCISHAPEPROFILEDEF(.AREA.,'IPE400',#51,180.,400.,8.600000381,13.5,21.);
#53= IFCDIRECTION((0.,-1.,0.));
#54= IFCDIRECTION((-1.,0.,0.));
#55= IFCCARTESIANPOINT((3616.93473057377,0.,3.63797880709171E-12));
#56= IFCAXIS2PLACEMENT3D(#55,#54,#53);
#57= IFCEXTRUDEDAREASOLID(#52,#56,#9,3626.66);
#58= IFCDIRECTION((-0.999999999912616,1.32199999970908E-05,0.));
#59= IFCCARTESIANPOINT((3616.93232717899,0.000132199998915894,-299.999999999996));
#60= IFCDIRECTION((1.32199999970908E-05,0.999999999912616,0.));
#61= IFCAXIS2PLACEMENT3D(#59,#58,#60);
#62= IFCPLANE(#61);
#63= IFCHALFSPACESOLID(#62,.T.);
#64= IFCBOOLEANCLIPPINGRESULT(.DIFFERENCE.,#57,#63);
#65= IFCDIRECTION((0.999999999912616,-1.32199999989098E-05,0.));
#66= IFCCARTESIANPOINT((-9.71885047192154,-0.000132199998915894,-299.999999999996));
#67= IFCDIRECTION((-1.32199999989098E-05,-0.999999999912616,0.));
#68= IFCAXIS2PLACEMENT3D(#66,#65,#67);
#69= IFCPLANE(#68);
#70= IFCHALFSPACESOLID(#69,.T.);
#71= IFCBOOLEANCLIPPINGRESULT(.DIFFERENCE.,#64,#70);
#72= IFCSHAPEREPRESENTATION(#12,'Body','Clipping',(#71));
#73= IFCPRODUCTDEFINITIONSHAPE($,$,(#72));
#74= IFCBEAM('09Hz48J6D5_eNXnyWpMQTN',#44,'BEAM','IPE400','IPE400',#48,#73,'ID0947d108-4c63-45fa-85e1-c7c83359a757');
#75= IFCLOCALPLACEMENT(#42,#47);
#76= IFCRECTANGLEPROFILEDEF(.AREA.,'PL100.9*12',#51,12.,100.9);
#77= IFCDIRECTION((0.,0.,-1.));
#78= IFCCARTESIANPOINT((3622.92591623306,-40.5836293868815,201.000000000004));
#79= IFCAXIS2PLACEMENT3D(#78,#77,#58);
#80= IFCEXTRUDEDAREASOLID(#76,#79,#9,402.);
#81= IFCSHAPEREPRESENTATION(#12,'Body','SweptSolid',(#80));
#82= IFCPRODUCTDEFINITIONSHAPE($,$,(#81));
#83= IFCOPENINGELEMENT('14cmufrW94mQYZwy8RJez0',#5,$,$,'Recess',#75,#82,$);
#84= IFCRELVOIDSELEMENT('2V9csEjUjAfPopZMTx3R4a',#5,$,$,#74,#83);
#85= IFCPROPERTYSINGLEVALUE('FeatureSubTypes',$,$,$);
#86= IFCPROPERTYSINGLEVALUE('RectangleOpeningWidth',$,IFCPOSITIVELENGTHMEASURE(12.),$);
#87= IFCPROPERTYSINGLEVALUE('RectangleOpeningHeight',$,IFCPOSITIVELENGTHMEASURE(100.9),$);
#88= IFCPROPERTYSINGLEVALUE('OpeningDiameter',$,$,$);
#89= IFCPROPERTYSET('0MwIZUg51A7g4JT0fvHf_B',#5,'AISC_EM11_Pset_Opening/Cope',$,(#85,#86,#87,#88));
#90= IFCLOCALPLACEMENT(#42,#47);
#91= IFCRECTANGLEPROFILEDEF(.AREA.,'PL101.1*12',#51,12.,101.1);
#92= IFCCARTESIANPOINT((3622.92698736997,40.4403427786565,201.000000000004));
#93= IFCAXIS2PLACEMENT3D(#92,#77,#58);
#94= IFCEXTRUDEDAREASOLID(#91,#93,#9,402.);
#95= IFCSHAPEREPRESENTATION(#12,'Body','SweptSolid',(#94));
#96= IFCPRODUCTDEFINITIONSHAPE($,$,(#95));
#97= IFCOPENINGELEMENT('26fGPtctr34fTv0QD7w499',#5,$,$,'Recess',#90,#96,$);
#98= IFCRELVOIDSELEMENT('1q52wYFybDkfxTwFKxs_u7',#5,$,$,#74,#97);
#99= IFCPROPERTYSINGLEVALUE('RectangleOpeningHeight',$,IFCPOSITIVELENGTHMEASURE(101.1),$);
#100= IFCPROPERTYSET('3xjhRhNSf4xfHxYv81xhiM',#5,'AISC_EM11_Pset_Opening/Cope',$,(#85,#86,#99,#88));
#101= IFCLOCALPLACEMENT(#42,#47);
#102= IFCRECTANGLEPROFILEDEF(.AREA.,'PL101.2*12',#51,12.,101.2);
#103= IFCCARTESIANPOINT((-15.712466955014,40.4645369414247,201.000000000004));
#104= IFCAXIS2PLACEMENT3D(#103,#77,#65);
#105= IFCEXTRUDEDAREASOLID(#102,#104,#9,402.);
#106= IFCSHAPEREPRESENTATION(#12,'Body','SweptSolid',(#105));
#107= IFCPRODUCTDEFINITIONSHAPE($,$,(#106));
#108= IFCOPENINGELEMENT('1ROLKDWzj0qPi5RlfIJIZA',#5,$,$,'Recess',#101,#107,$);
#109= IFCRELVOIDSELEMENT('1xFQAxUrrE_BYLr5G2InGz',#5,$,$,#74,#108);
#110= IFCLOCALPLACEMENT(#42,#47);
#111= IFCCARTESIANPOINT((-15.7135380910422,-40.5593684312043,201.000000000004));
#112= IFCAXIS2PLACEMENT3D(#111,#77,#65);
#113= IFCEXTRUDEDAREASOLID(#76,#112,#9,402.);
#114= IFCSHAPEREPRESENTATION(#12,'Body','SweptSolid',(#113));
#115= IFCPRODUCTDEFINITIONSHAPE($,$,(#114));
#116= IFCOPENINGELEMENT('3ejo7nIszFH8tjuIo0Wom_',#5,$,$,'Recess',#110,#115,$);
#117= IFCRELVOIDSELEMENT('3yPz2p3nL3RAsytvEKVhY$',#5,$,$,#74,#116);
#118= IFCCARTESIANPOINT((16837.8964839657,21440.099193635,28300.));
#119= IFCAXIS2PLACEMENT3D(#118,#54,#77);
#120= IFCLOCALPLACEMENT(#42,#119);
#121= IFCCIRCLEPROFILEDEF(.AREA.,$,#51,11.5);
#122= IFCCARTESIANPOINT((0.,-4.39947139086285,0.));
#123= IFCAXIS2PLACEMENT3D(#122,#8,#7);
#124= IFCEXTRUDEDAREASOLID(#121,#123,#9,8.8);
#125= IFCSHAPEREPRESENTATION(#12,'Body','SweptSolid',(#124));
#126= IFCREPRESENTATIONMAP(#10,#125);
#127= IFCCARTESIANPOINT((60.,0.,50.));
#128= IFCCARTESIANTRANSFORMATIONOPERATOR3D($,$,#127,$,$);
#129= IFCMAPPEDITEM(#126,#128);
#130= IFCCARTESIANPOINT((130.,0.,50.));
#131= IFCCARTESIANTRANSFORMATIONOPERATOR3D($,$,#130,$,$);
#132= IFCMAPPEDITEM(#126,#131);
#133= IFCCARTESIANPOINT((200.,0.,50.));
#134= IFCCARTESIANTRANSFORMATIONOPERATOR3D($,$,#133,$,$);
#135= IFCMAPPEDITEM(#126,#134);
#136= IFCCARTESIANPOINT((270.,0.,50.));
#137= IFCCARTESIANTRANSFORMATIONOPERATOR3D($,$,#136,$,$);
#138= IFCMAPPEDITEM(#126,#137);
#139= IFCCARTESIANPOINT((340.,0.,50.));
#140= IFCCARTESIANTRANSFORMATIONOPERATOR3D($,$,#139,$,$);
#141= IFCMAPPEDITEM(#126,#140);
#142= IFCSHAPEREPRESENTATION(#12,'Body','MappedRepresentation',(#129,#132,#135,#138,#141));
#143= IFCPRODUCTDEFINITIONSHAPE($,$,(#142));
#144= IFCOPENINGELEMENT('1C9m$FJzv60h9EspPA1ns8',#5,$,$,'Opening',#120,#143,$);
#145= IFCRELVOIDSELEMENT('1i3JlMonH6ae91IhJytGjc',#5,'Drill Hole',$,#74,#144);
#146= IFCPROPERTYSINGLEVALUE('FeatureSubTypes',$,IFCLABEL('TORNILLO'),$);
#147= IFCPROPERTYSINGLEVALUE('RectangleOpeningWidth',$,$,$);
#148= IFCPROPERTYSINGLEVALUE('RectangleOpeningHeight',$,$,$);
#149= IFCPROPERTYSET('0D16i8Aeb7AOowUe_cmoU2',#5,'AISC_EM11_Pset_Opening/Cope',$,(#146,#147,#148,#88));
#150= IFCCARTESIANPOINT((13211.2453066352,21440.0515137055,28300.));
#151= IFCAXIS2PLACEMENT3D(#150,#7,#77);
#152= IFCLOCALPLACEMENT(#42,#151);
#153= IFCSHAPEREPRESENTATION(#12,'Body','MappedRepresentation',(#129,#132,#135,#138,#141));
#154= IFCPRODUCTDEFINITIONSHAPE($,$,(#153));
#155= IFCOPENINGELEMENT('3hKq8MRmHDOB$OnFTj3wlc',#5,$,$,'Opening',#152,#154,$);
#156= IFCRELVOIDSELEMENT('13LEFDsFj9TxO8Tcvkoaha',#5,'Drill Hole',$,#74,#155);
#157= IFCPROPERTYSINGLEVALUE('PieceMark',$,IFCIDENTIFIER('BEAM'),$);
#158= IFCPROPERTYSINGLEVALUE('IndicationMark',$,IFCIDENTIFIER('b/1191'),$);
#159= IFCPROPERTYSINGLEVALUE('PrelimMark',$,IFCIDENTIFIER(''),$);
#160= IFCPROPERTYSINGLEVALUE('MainPieceTag',$,IFCBOOLEAN(.T.),$);
#161= IFCPROPERTYSET('2ufV0cGQb6ChIznC0SBSrK',#5,'AISC_EM11_Pset_PieceIdentification','PieceIdentity',(#157,#158,#159,#160));
#162= IFCPROPERTYSINGLEVALUE('MaterialType',$,IFCIDENTIFIER('STEEL'),$);
#163= IFCPROPERTYSINGLEVALUE('MaterialGrade',$,IFCIDENTIFIER('S235JR'),$);
#164= IFCPROPERTYSET('0rL6EZG294s9KtvrE0KkTe',#5,'AISC_EM11_Pset_Material',$,(#162,#163));
#165= IFCPROPERTYSINGLEVALUE('SkewedAngleY',$,IFCREAL(0.),$);
#166= IFCPROPERTYSINGLEVALUE('SkewedAngleX',$,IFCREAL(0.00076),$);
#167= IFCPROPERTYSET('1Xnrvv_8HFTv67gTQXm4Z9',#5,'AISC_EM11_Pset_SkewedEnd',$,(#165,#166));
#168= IFCPROPERTYSET('2HKjXOLq1FW8ex92v6N6gM',#5,'AISC_EM11_Pset_SkewedEnd_2',$,(#165,#166));
#169= IFCMATERIAL('STEEL/S235JR');
#170= IFCRELAGGREGATES('2QlN2Ndlj2qhfX_IvEccgH',#5,$,$,#37,(#39));
#171= IFCRELAGGREGATES('2i1fKfv1$K6zxpGaBWuuyZ',#5,$,$,#39,(#41));
#172= IFCRELAGGREGATES('3jZPrTh7D3IfeBIinyMRi$',#5,$,$,#41,(#43));
#173= IFCRELCONTAINEDINSPATIALSTRUCTURE('0wJA7jL7D4ugA4x2E_JbCm',#5,$,$,(#74),#43);
#174= IFCRELDEFINESBYPROPERTIES('1lVuTOBDHDNuJJLFgxpWKF',#5,$,$,(#116,#83),#89);
#175= IFCRELDEFINESBYPROPERTIES('22DuDs_Hr4zeLJiZHD$GNs',#5,$,$,(#108,#97),#100);
#176= IFCRELDEFINESBYPROPERTIES('0WO3K1MvbEtwfz7R_rc0qz',#5,$,$,(#155,#144),#149);
#177= IFCRELDEFINESBYPROPERTIES('3ieW7sij14aOb2bCsQRqKy',#5,$,$,(#74),#161);
#178= IFCRELDEFINESBYPROPERTIES('24pgpnwoT0WAZjwmxMbGnp',#5,$,$,(#74),#164);
#179= IFCRELDEFINESBYPROPERTIES('16VX_tGRjCNBgL9h$O2h4u',#5,$,$,(#74),#167);
#180= IFCRELDEFINESBYPROPERTIES('1G20xnFQ97oQHa0B3z_KHA',#5,$,$,(#74),#168);
#181= IFCRELASSOCIATESMATERIAL('23wxy2Kyv7Vw10g5lNyHj$',#5,$,$,(#74),#169);
ENDSEC;

END-ISO-10303-21;
