ISO-10303-21;
HEADER;
FILE_DESCRIPTION(('ViewDefinition[AISC_Steel_Detailing]', 'Option [BaseQuantities:Off]', 'Option [GridExport:On]', 'Option [Assemblies:Off]', 'Option [Bolts:On]', 'Option [Rebars:On]', 'Option [PourObjects:Off]', 'Option [Welds:On]', 'Option [SurfaceTreatments:On]', 'Option [LocationBy:0]', 'Option [ViewColors:Off]', 'Option [SectionedSpine:Off]', 'Option [PropertySets:On]', 'Option [Export all:Off]'),'2;1');
FILE_NAME('b_1195_Qty_1.ifc','2026-05-16T11:53:15',('GIOVANNIPC\\gcorrea'),('Structural Designer'),'IFC Database version: Work','Tekla Structures 2020 Service Pack 5, IFC Export Version: 4.0.0.0 Dec  7 2020','');
FILE_SCHEMA(('IFC2X3'));
ENDSEC;

DATA;
#1= IFCPERSON('GIOVANNIPC\\gcorrea','Undefined',$,$,$,$,$,$);
#2= IFCORGANIZATION($,'Trimble Solutions Corporation',$,$,$);
#3= IFCPERSONANDORGANIZATION(#1,#2,$);
#4= IFCAPPLICATION(#2,'2020 Service Pack 5','Tekla Structures','Multi material modeling');
#5= IFCOWNERHISTORY(#3,#4,$,.NOCHANGE.,$,$,$,1778950395);
#6= IFCCARTESIANPOINT((0.,0.,0.));
#7= IFCDIRECTION((1.,0.,0.));
#8= IFCDIRECTION((0.,1.,0.));
#9= IFCDIRECTION((0.,0.,1.));
#10= IFCAXIS2PLACEMENT3D(#6,#9,#7);
#11= IFCGEOMETRICREPRESENTATIONCONTEXT($,'Model',3,1.E-05,#10,$);
#12= IFCGEOMETRICREPRESENTATIONSUBCONTEXT('Body','Model',*,*,*,*,#11,$,.MODEL_VIEW.,$);
#13= IFCGEOMETRICREPRESENTATIONSUBCONTEXT('Axis','Model',*,*,*,*,#11,$,.GRAPH_VIEW.,$);
#14= IFCGEOMETRICREPRESENTATIONSUBCONTEXT('FootPrint','Model',*,*,*,*,#11,$,.MODEL_VIEW.,$);
#15= IFCSIUNIT(*,.LENGTHUNIT.,.MILLI.,.METRE.);
#16= IFCMEASUREWITHUNIT(IFCRATIOMEASURE(304.8),#15);
#17= IFCDIMENSIONALEXPONENTS(1,0,0,0,0,0,0);
#18= IFCCONVERSIONBASEDUNIT(#17,.LENGTHUNIT.,'FOOT',#16);
#19= IFCSIUNIT(*,.AREAUNIT.,$,.SQUARE_METRE.);
#20= IFCMEASUREWITHUNIT(IFCRATIOMEASURE(0.09290304),#19);
#21= IFCDIMENSIONALEXPONENTS(2,0,0,0,0,0,0);
#22= IFCCONVERSIONBASEDUNIT(#21,.AREAUNIT.,'SQUARE FOOT',#20);
#23= IFCSIUNIT(*,.VOLUMEUNIT.,$,.CUBIC_METRE.);
#24= IFCMEASUREWITHUNIT(IFCRATIOMEASURE(0.028316846592),#23);
#25= IFCDIMENSIONALEXPONENTS(3,0,0,0,0,0,0);
#26= IFCCONVERSIONBASEDUNIT(#25,.VOLUMEUNIT.,'CUBIC FOOT',#24);
#27= IFCSIUNIT(*,.MASSUNIT.,.KILO.,.GRAM.);
#28= IFCSIUNIT(*,.TIMEUNIT.,$,.SECOND.);
#29= IFCSIUNIT(*,.PLANEANGLEUNIT.,$,.RADIAN.);
#30= IFCMEASUREWITHUNIT(IFCRATIOMEASURE(0.0174532925199433),#29);
#31= IFCDIMENSIONALEXPONENTS(0,0,0,0,0,0,0);
#32= IFCCONVERSIONBASEDUNIT(#31,.PLANEANGLEUNIT.,'DEGREE',#30);
#33= IFCSIUNIT(*,.SOLIDANGLEUNIT.,$,.STERADIAN.);
#34= IFCSIUNIT(*,.THERMODYNAMICTEMPERATUREUNIT.,$,.DEGREE_CELSIUS.);
#35= IFCSIUNIT(*,.LUMINOUSINTENSITYUNIT.,$,.LUMEN.);
#36= IFCUNITASSIGNMENT((#15,#19,#23,#27,#28,#29,#33,#34,#35));
#37= IFCPROJECT('2G7ZFDNE16yBDU14FA92Me',#5,'Proyecto',$,$,$,$,(#11),#36);
#38= IFCLOCALPLACEMENT($,#10);
#39= IFCSITE('2xvEzEinjBTea80yOTcujY',#5,'Obra',$,$,#38,$,$,.ELEMENT.,$,$,$,$,$);
#40= IFCLOCALPLACEMENT(#38,#10);
#41= IFCBUILDING('1GJITHJznAafgQQqaS5s1l',#5,'Undefined',$,$,#40,$,$,.ELEMENT.,$,$,$);
#42= IFCLOCALPLACEMENT(#40,#10);
#43= IFCBUILDINGSTOREY('29hdEUCErFze9E_VIAceOd',#5,'Undefined',$,$,#42,$,$,.ELEMENT.,0.);
#44= IFCOWNERHISTORY(#3,#4,$,.NOCHANGE.,$,$,$,1775851200);
#45= IFCCARTESIANPOINT((25872.5869293213,24355.000927103,28100.));
#46= IFCDIRECTION((0.999999999998592,1.67799999980802E-06,0.));
#47= IFCAXIS2PLACEMENT3D(#45,#9,#46);
#48= IFCLOCALPLACEMENT(#42,#47);
#49= IFCDIRECTION((1.,0.));
#50= IFCCARTESIANPOINT((0.,0.));
#51= IFCAXIS2PLACEMENT2D(#50,#49);
#52= IFCISHAPEPROFILEDEF(.AREA.,'IPE400',#51,180.,400.,8.600000381,13.5,21.);
#53= IFCDIRECTION((-2.11758236813575E-22,-1.,0.));
#54= IFCDIRECTION((-1.,2.11758236813575E-22,0.));
#55= IFCCARTESIANPOINT((7964.98683240962,-3.63798049374328E-12,3.63797880709171E-12));
#56= IFCAXIS2PLACEMENT3D(#55,#54,#53);
#57= IFCEXTRUDEDAREASOLID(#52,#56,#9,7974.96);
#58= IFCDIRECTION((-0.999999999998592,1.6780000005383E-06,0.));
#59= IFCCARTESIANPOINT((7964.98652732685,1.6779998986749E-05,-299.999999999996));
#60= IFCDIRECTION((1.6780000005383E-06,0.999999999998592,0.));
#61= IFCAXIS2PLACEMENT3D(#59,#58,#60);
#62= IFCPLANE(#61);
#63= IFCHALFSPACESOLID(#62,.T.);
#64= IFCBOOLEANCLIPPINGRESULT(.DIFFERENCE.,#57,#63);
#65= IFCDIRECTION((0.999999999998592,-1.6780000005383E-06,0.));
#66= IFCCARTESIANPOINT((-9.97438738722121,-1.67800026247278E-05,-299.999999999996));
#67= IFCDIRECTION((-1.6780000005383E-06,-0.999999999998592,0.));
#68= IFCAXIS2PLACEMENT3D(#66,#65,#67);
#69= IFCPLANE(#68);
#70= IFCHALFSPACESOLID(#69,.T.);
#71= IFCBOOLEANCLIPPINGRESULT(.DIFFERENCE.,#64,#70);
#72= IFCSHAPEREPRESENTATION(#12,'Body','Clipping',(#71));
#73= IFCPRODUCTDEFINITIONSHAPE($,$,(#72));
#74= IFCBEAM('2Mo6TFpBHEJ8xqxvtMkrz7',#44,'BEAM','IPE400','IPE400',#48,#73,'ID96c8674f-ccb4-4e4c-8ef4-ef9dd6bb5f47');
#75= IFCLOCALPLACEMENT(#42,#47);
#76= IFCRECTANGLEPROFILEDEF(.AREA.,'PL100.3*12.1',#51,12.1,100.3);
#77= IFCDIRECTION((0.,0.,-1.));
#78= IFCCARTESIANPOINT((7970.94959308097,-40.8809958094098,201.000000000004));
#79= IFCAXIS2PLACEMENT3D(#78,#77,#58);
#80= IFCEXTRUDEDAREASOLID(#76,#79,#9,402.);
#81= IFCSHAPEREPRESENTATION(#12,'Body','SweptSolid',(#80));
#82= IFCPRODUCTDEFINITIONSHAPE($,$,(#81));
#83= IFCOPENINGELEMENT('2knc9YGKLB38SVAw0tn_bF',#5,$,$,'Recess',#75,#82,$);
#84= IFCRELVOIDSELEMENT('2SoviWnLPBQQXfdUwzn42O',#5,$,$,#74,#83);
#85= IFCPROPERTYSINGLEVALUE('FeatureSubTypes',$,$,$);
#86= IFCPROPERTYSINGLEVALUE('RectangleOpeningWidth',$,IFCPOSITIVELENGTHMEASURE(12.1),$);
#87= IFCPROPERTYSINGLEVALUE('RectangleOpeningHeight',$,IFCPOSITIVELENGTHMEASURE(100.3),$);
#88= IFCPROPERTYSINGLEVALUE('OpeningDiameter',$,$,$);
#89= IFCPROPERTYSET('2Z_pfh8hv919na_$yWTg4x',#5,'AISC_EM11_Pset_Opening/Cope',$,(#85,#86,#87,#88));
#90= IFCLOCALPLACEMENT(#42,#47);
#91= IFCRECTANGLEPROFILEDEF(.AREA.,'PL101.7*12.1',#51,12.1,101.7);
#92= IFCCARTESIANPOINT((7970.9497290102,40.1256951810792,201.000000000004));
#93= IFCAXIS2PLACEMENT3D(#92,#77,#58);
#94= IFCEXTRUDEDAREASOLID(#91,#93,#9,402.);
#95= IFCSHAPEREPRESENTATION(#12,'Body','SweptSolid',(#94));
#96= IFCPRODUCTDEFINITIONSHAPE($,$,(#95));
#97= IFCOPENINGELEMENT('0DV99zX9TF$htDaPEup5OD',#5,$,$,'Recess',#90,#96,$);
#98= IFCRELVOIDSELEMENT('2oVm5Xizn3288dGRhx8Auo',#5,$,$,#74,#97);
#99= IFCPROPERTYSINGLEVALUE('RectangleOpeningHeight',$,IFCPOSITIVELENGTHMEASURE(101.7),$);
#100= IFCPROPERTYSET('1tfgqZHWn76e2P85JVzZ5L',#5,'AISC_EM11_Pset_Opening/Cope',$,(#85,#86,#99,#88));
#101= IFCLOCALPLACEMENT(#42,#47);
#102= IFCRECTANGLEPROFILEDEF(.AREA.,'PL101.8*12.1',#51,12.1,101.8);
#103= IFCCARTESIANPOINT((-15.9373636271921,40.1314594138094,201.000000000004));
#104= IFCAXIS2PLACEMENT3D(#103,#77,#65);
#105= IFCEXTRUDEDAREASOLID(#102,#104,#9,402.);
#106= IFCSHAPEREPRESENTATION(#12,'Body','SweptSolid',(#105));
#107= IFCPRODUCTDEFINITIONSHAPE($,$,(#106));
#108= IFCOPENINGELEMENT('0PvbUKsbz3mgVyUQ8jEn4h',#5,$,$,'Recess',#101,#107,$);
#109= IFCRELVOIDSELEMENT('09AkOzawnEm8_UlUXH2owc',#5,$,$,#74,#108);
#110= IFCPROPERTYSINGLEVALUE('RectangleOpeningHeight',$,IFCPOSITIVELENGTHMEASURE(101.8),$);
#111= IFCPROPERTYSET('1qNWuJIrvAphH89zTgkk8g',#5,'AISC_EM11_Pset_Opening/Cope',$,(#85,#86,#110,#88));
#112= IFCLOCALPLACEMENT(#42,#47);
#113= IFCRECTANGLEPROFILEDEF(.AREA.,'PL100.2*12.1',#51,12.1,100.2);
#114= IFCCARTESIANPOINT((-15.9374995564067,-40.8752232074003,201.000000000004));
#115= IFCAXIS2PLACEMENT3D(#114,#77,#65);
#116= IFCEXTRUDEDAREASOLID(#113,#115,#9,402.);
#117= IFCSHAPEREPRESENTATION(#12,'Body','SweptSolid',(#116));
#118= IFCPRODUCTDEFINITIONSHAPE($,$,(#117));
#119= IFCOPENINGELEMENT('3LN8EFnO90gv2vzjcjHkxj',#5,$,$,'Recess',#112,#118,$);
#120= IFCRELVOIDSELEMENT('01K7OEn2vCHgoAa1PxlyS1',#5,$,$,#74,#119);
#121= IFCPROPERTYSINGLEVALUE('RectangleOpeningHeight',$,IFCPOSITIVELENGTHMEASURE(100.2),$);
#122= IFCPROPERTYSET('3S0hO3aTr01Q1r1CgCadlw',#5,'AISC_EM11_Pset_Opening/Cope',$,(#85,#86,#121,#88));
#123= IFCCARTESIANPOINT((33837.5734566369,24355.0142755667,28300.));
#124= IFCAXIS2PLACEMENT3D(#123,#54,#77);
#125= IFCLOCALPLACEMENT(#42,#124);
#126= IFCCIRCLEPROFILEDEF(.AREA.,$,#51,11.5);
#127= IFCCARTESIANPOINT((0.,-4.39993307053151,0.));
#128= IFCAXIS2PLACEMENT3D(#127,#8,#7);
#129= IFCEXTRUDEDAREASOLID(#126,#128,#9,8.8);
#130= IFCSHAPEREPRESENTATION(#12,'Body','SweptSolid',(#129));
#131= IFCREPRESENTATIONMAP(#10,#130);
#132= IFCCARTESIANPOINT((60.,0.,50.));
#133= IFCCARTESIANTRANSFORMATIONOPERATOR3D($,$,#132,$,$);
#134= IFCMAPPEDITEM(#131,#133);
#135= IFCCARTESIANPOINT((130.,0.,50.));
#136= IFCCARTESIANTRANSFORMATIONOPERATOR3D($,$,#135,$,$);
#137= IFCMAPPEDITEM(#131,#136);
#138= IFCCARTESIANPOINT((200.,0.,50.));
#139= IFCCARTESIANTRANSFORMATIONOPERATOR3D($,$,#138,$,$);
#140= IFCMAPPEDITEM(#131,#139);
#141= IFCCARTESIANPOINT((270.,0.,50.));
#142= IFCCARTESIANTRANSFORMATIONOPERATOR3D($,$,#141,$,$);
#143= IFCMAPPEDITEM(#131,#142);
#144= IFCCARTESIANPOINT((340.,0.,50.));
#145= IFCCARTESIANTRANSFORMATIONOPERATOR3D($,$,#144,$,$);
#146= IFCMAPPEDITEM(#131,#145);
#147= IFCSHAPEREPRESENTATION(#12,'Body','MappedRepresentation',(#134,#137,#140,#143,#146));
#148= IFCPRODUCTDEFINITIONSHAPE($,$,(#147));
#149= IFCOPENINGELEMENT('0akMuHFQX96O_B5odALMGW',#5,$,$,'Opening',#125,#148,$);
#150= IFCRELVOIDSELEMENT('1WjPHE4cP1wQHErq3VWTyD',#5,'Drill Hole',$,#74,#149);
#151= IFCPROPERTYSINGLEVALUE('FeatureSubTypes',$,IFCLABEL('TORNILLO'),$);
#152= IFCPROPERTYSINGLEVALUE('RectangleOpeningWidth',$,$,$);
#153= IFCPROPERTYSINGLEVALUE('RectangleOpeningHeight',$,$,$);
#154= IFCPROPERTYSET('1pcXto17PEdwh5RAZsMqrK',#5,'AISC_EM11_Pset_Opening/Cope',$,(#151,#152,#153,#88));
#155= IFCCARTESIANPOINT((25862.6125419341,24355.000927146,28300.));
#156= IFCAXIS2PLACEMENT3D(#155,#7,#77);
#157= IFCLOCALPLACEMENT(#42,#156);
#158= IFCSHAPEREPRESENTATION(#12,'Body','MappedRepresentation',(#134,#137,#140,#143,#146));
#159= IFCPRODUCTDEFINITIONSHAPE($,$,(#158));
#160= IFCOPENINGELEMENT('3wN$zqJ21ERhma9RRX12_2',#5,$,$,'Opening',#157,#159,$);
#161= IFCRELVOIDSELEMENT('2abr9jF1TFNwfdFqI$EM2L',#5,'Drill Hole',$,#74,#160);
#162= IFCPROPERTYSINGLEVALUE('PieceMark',$,IFCIDENTIFIER('BEAM'),$);
#163= IFCPROPERTYSINGLEVALUE('IndicationMark',$,IFCIDENTIFIER('b/1195'),$);
#164= IFCPROPERTYSINGLEVALUE('PrelimMark',$,IFCIDENTIFIER(''),$);
#165= IFCPROPERTYSINGLEVALUE('MainPieceTag',$,IFCBOOLEAN(.T.),$);
#166= IFCPROPERTYSET('2kAABDjsb7p9jv99Wn2MPq',#5,'AISC_EM11_Pset_PieceIdentification','PieceIdentity',(#162,#163,#164,#165));
#167= IFCPROPERTYSINGLEVALUE('MaterialType',$,IFCIDENTIFIER('STEEL'),$);
#168= IFCPROPERTYSINGLEVALUE('MaterialGrade',$,IFCIDENTIFIER('S235JR'),$);
#169= IFCPROPERTYSET('03ZFFNCGL9HhvBL4qxCyvY',#5,'AISC_EM11_Pset_Material',$,(#167,#168));
#170= IFCPROPERTYSINGLEVALUE('SkewedAngleY',$,IFCREAL(0.),$);
#171= IFCPROPERTYSINGLEVALUE('SkewedAngleX',$,IFCREAL(0.0001),$);
#172= IFCPROPERTYSET('2O796EElj5rxS3aBvEh5GN',#5,'AISC_EM11_Pset_SkewedEnd',$,(#170,#171));
#173= IFCPROPERTYSET('1HgZ7UxyP378CScToffM59',#5,'AISC_EM11_Pset_SkewedEnd_2',$,(#170,#171));
#174= IFCMATERIAL('STEEL/S235JR');
#175= IFCRELAGGREGATES('1OYnjq2JXB8Pon6yBgfydS',#5,$,$,#37,(#39));
#176= IFCRELAGGREGATES('2gq3$6KbpTQh43OETyxEvk',#5,$,$,#39,(#41));
#177= IFCRELAGGREGATES('3NetqMJTDFD8JHBI_xyxMD',#5,$,$,#41,(#43));
#178= IFCRELCONTAINEDINSPATIALSTRUCTURE('1KbYm3tsf9_fWCtxWvh0Ge',#5,$,$,(#74),#43);
#179= IFCRELDEFINESBYPROPERTIES('1Q9lTDLjD8qQrPmmbalWh1',#5,$,$,(#83),#89);
#180= IFCRELDEFINESBYPROPERTIES('2aXeOFdS52_eCh6uVcS9GD',#5,$,$,(#97),#100);
#181= IFCRELDEFINESBYPROPERTIES('08EW9EPHv5rRAYq3OFTCXM',#5,$,$,(#108),#111);
#182= IFCRELDEFINESBYPROPERTIES('1LCYBZM4n7ahNWxPJXQKM1',#5,$,$,(#119),#122);
#183= IFCRELDEFINESBYPROPERTIES('2avXP19BHECQ2Pc1ualBqN',#5,$,$,(#160,#149),#154);
#184= IFCRELDEFINESBYPROPERTIES('2H0BFW26PCJRe2tPNMu9rQ',#5,$,$,(#74),#166);
#185= IFCRELDEFINESBYPROPERTIES('3QosydJ$P21O4LZpUNoRpG',#5,$,$,(#74),#169);
#186= IFCRELDEFINESBYPROPERTIES('0vVWf2svb8bx3nJl2I0boC',#5,$,$,(#74),#172);
#187= IFCRELDEFINESBYPROPERTIES('2hnFs7fWrE1RJ5v$cqlrG$',#5,$,$,(#74),#173);
#188= IFCRELASSOCIATESMATERIAL('2AdZVTH4f2vh$Stus5zREn',#5,$,$,(#74),#174);
ENDSEC;

END-ISO-10303-21;
