ISO-10303-21;
HEADER;
FILE_DESCRIPTION(('ViewDefinition[AISC_Steel_Detailing]', 'Option [BaseQuantities:Off]', 'Option [GridExport:On]', 'Option [Assemblies:Off]', 'Option [Bolts:On]', 'Option [Rebars:On]', 'Option [PourObjects:Off]', 'Option [Welds:On]', 'Option [SurfaceTreatments:On]', 'Option [LocationBy:0]', 'Option [ViewColors:Off]', 'Option [SectionedSpine:Off]', 'Option [PropertySets:On]', 'Option [Export all:Off]'),'2;1');
FILE_NAME('b_1138_Qty_2.ifc','2026-05-16T11:53:15',('GIOVANNIPC\\gcorrea'),('Structural Designer'),'IFC Database version: Work','Tekla Structures 2020 Service Pack 5, IFC Export Version: 4.0.0.0 Dec  7 2020','');
FILE_SCHEMA(('IFC2X3'));
ENDSEC;

DATA;
#1= IFCPERSON('GIOVANNIPC\\gcorrea','Undefined',$,$,$,$,$,$);
#2= IFCORGANIZATION($,'Trimble Solutions Corporation',$,$,$);
#3= IFCPERSONANDORGANIZATION(#1,#2,$);
#4= IFCAPPLICATION(#2,'2020 Service Pack 5','Tekla Structures','Multi material modeling');
#5= IFCOWNERHISTORY(#3,#4,$,.NOCHANGE.,$,$,$,1778950395);
#6= IFCCARTESIANPOINT((0.,0.,0.));
#7= IFCDIRECTION((1.,0.,0.));
#8= IFCDIRECTION((0.,1.,0.));
#9= IFCDIRECTION((0.,0.,1.));
#10= IFCAXIS2PLACEMENT3D(#6,#9,#7);
#11= IFCGEOMETRICREPRESENTATIONCONTEXT($,'Model',3,1.E-05,#10,$);
#12= IFCGEOMETRICREPRESENTATIONSUBCONTEXT('Body','Model',*,*,*,*,#11,$,.MODEL_VIEW.,$);
#13= IFCGEOMETRICREPRESENTATIONSUBCONTEXT('Axis','Model',*,*,*,*,#11,$,.GRAPH_VIEW.,$);
#14= IFCGEOMETRICREPRESENTATIONSUBCONTEXT('FootPrint','Model',*,*,*,*,#11,$,.MODEL_VIEW.,$);
#15= IFCSIUNIT(*,.LENGTHUNIT.,.MILLI.,.METRE.);
#16= IFCMEASUREWITHUNIT(IFCRATIOMEASURE(304.8),#15);
#17= IFCDIMENSIONALEXPONENTS(1,0,0,0,0,0,0);
#18= IFCCONVERSIONBASEDUNIT(#17,.LENGTHUNIT.,'FOOT',#16);
#19= IFCSIUNIT(*,.AREAUNIT.,$,.SQUARE_METRE.);
#20= IFCMEASUREWITHUNIT(IFCRATIOMEASURE(0.09290304),#19);
#21= IFCDIMENSIONALEXPONENTS(2,0,0,0,0,0,0);
#22= IFCCONVERSIONBASEDUNIT(#21,.AREAUNIT.,'SQUARE FOOT',#20);
#23= IFCSIUNIT(*,.VOLUMEUNIT.,$,.CUBIC_METRE.);
#24= IFCMEASUREWITHUNIT(IFCRATIOMEASURE(0.028316846592),#23);
#25= IFCDIMENSIONALEXPONENTS(3,0,0,0,0,0,0);
#26= IFCCONVERSIONBASEDUNIT(#25,.VOLUMEUNIT.,'CUBIC FOOT',#24);
#27= IFCSIUNIT(*,.MASSUNIT.,.KILO.,.GRAM.);
#28= IFCSIUNIT(*,.TIMEUNIT.,$,.SECOND.);
#29= IFCSIUNIT(*,.PLANEANGLEUNIT.,$,.RADIAN.);
#30= IFCMEASUREWITHUNIT(IFCRATIOMEASURE(0.0174532925199433),#29);
#31= IFCDIMENSIONALEXPONENTS(0,0,0,0,0,0,0);
#32= IFCCONVERSIONBASEDUNIT(#31,.PLANEANGLEUNIT.,'DEGREE',#30);
#33= IFCSIUNIT(*,.SOLIDANGLEUNIT.,$,.STERADIAN.);
#34= IFCSIUNIT(*,.THERMODYNAMICTEMPERATUREUNIT.,$,.DEGREE_CELSIUS.);
#35= IFCSIUNIT(*,.LUMINOUSINTENSITYUNIT.,$,.LUMEN.);
#36= IFCUNITASSIGNMENT((#15,#19,#23,#27,#28,#29,#33,#34,#35));
#37= IFCPROJECT('2G7ZFDNE16yBDU14FA92Me',#5,'Proyecto',$,$,$,$,(#11),#36);
#38= IFCLOCALPLACEMENT($,#10);
#39= IFCSITE('2xvEzEinjBTea80yOTcujY',#5,'Obra',$,$,#38,$,$,.ELEMENT.,$,$,$,$,$);
#40= IFCLOCALPLACEMENT(#38,#10);
#41= IFCBUILDING('14wKWo0Kr2eP$PpIoj3G6a',#5,'Undefined',$,$,#40,$,$,.ELEMENT.,$,$,$);
#42= IFCLOCALPLACEMENT(#40,#10);
#43= IFCBUILDINGSTOREY('29hdEUCErFze9E_VIAceOd',#5,'Undefined',$,$,#42,$,$,.ELEMENT.,0.);
#44= IFCOWNERHISTORY(#3,#4,$,.NOCHANGE.,$,$,$,1776088800);
#45= IFCCARTESIANPOINT((82022.090637207,8120.20631040376,28025.));
#46= IFCDIRECTION((0.999999999999168,-1.28999999994944E-06,0.));
#47= IFCAXIS2PLACEMENT3D(#45,#9,#46);
#48= IFCLOCALPLACEMENT(#42,#47);
#49= IFCDIRECTION((1.,0.));
#50= IFCCARTESIANPOINT((0.,0.));
#51= IFCAXIS2PLACEMENT2D(#50,#49);
#52= IFCISHAPEPROFILEDEF(.AREA.,'IPE550',#51,210.,550.,11.10000038,17.20000076,24.);
#53= IFCDIRECTION((2.11758236813575E-22,-1.,0.));
#54= IFCDIRECTION((-1.,-2.11758236813575E-22,0.));
#55= IFCCARTESIANPOINT((6662.53651043555,1.4108469841559E-18,-3.63797880709171E-12));
#56= IFCAXIS2PLACEMENT3D(#55,#54,#53);
#57= IFCEXTRUDEDAREASOLID(#52,#56,#9,6661.67);
#58= IFCDIRECTION((-0.999999999999168,-1.29000000015367E-06,0.));
#59= IFCCARTESIANPOINT((6662.5362368147,-1.29000009110314E-05,-375.000000000004));
#60= IFCDIRECTION((-1.29000000015367E-06,0.999999999999168,0.));
#61= IFCAXIS2PLACEMENT3D(#59,#58,#60);
#62= IFCPLANE(#61);
#63= IFCHALFSPACESOLID(#62,.T.);
#64= IFCBOOLEANCLIPPINGRESULT(.DIFFERENCE.,#57,#63);
#65= IFCDIRECTION((0.999999999999168,1.29000000015367E-06,0.));
#66= IFCCARTESIANPOINT((0.870179796445882,-1.21998606375837,-325.000000000004));
#67= IFCDIRECTION((1.29000000015367E-06,-0.999999999999168,0.));
#68= IFCAXIS2PLACEMENT3D(#66,#65,#67);
#69= IFCPLANE(#68);
#70= IFCHALFSPACESOLID(#69,.T.);
#71= IFCBOOLEANCLIPPINGRESULT(.DIFFERENCE.,#64,#70);
#72= IFCSHAPEREPRESENTATION(#12,'Body','Clipping',(#71));
#73= IFCPRODUCTDEFINITIONSHAPE($,$,(#72));
#74= IFCBEAM('3pDH85jerD8glIntI3cR6i',#44,'BEAM','IPE550','IPE550',#48,#73,'IDf3351205-b68d-4d22-abd2-c7748399b1ac');
#75= IFCLOCALPLACEMENT(#42,#47);
#76= IFCRECTANGLEPROFILEDEF(.AREA.,'PL118.2*12',#51,12.,118.2);
#77= IFCDIRECTION((0.,0.,-1.));
#78= IFCCARTESIANPOINT((6668.52757832564,-46.9003402037297,275.999999999996));
#79= IFCAXIS2PLACEMENT3D(#78,#77,#58);
#80= IFCEXTRUDEDAREASOLID(#76,#79,#9,552.);
#81= IFCSHAPEREPRESENTATION(#12,'Body','SweptSolid',(#80));
#82= IFCPRODUCTDEFINITIONSHAPE($,$,(#81));
#83= IFCOPENINGELEMENT('1jx0HVLSP3ww53YRxZOeZg',#5,$,$,'Recess',#75,#82,$);
#84= IFCRELVOIDSELEMENT('0uPqgvXr9EoeUzvGs3Xhmj',#5,$,$,#74,#83);
#85= IFCPROPERTYSINGLEVALUE('FeatureSubTypes',$,$,$);
#86= IFCPROPERTYSINGLEVALUE('RectangleOpeningWidth',$,IFCPOSITIVELENGTHMEASURE(12.),$);
#87= IFCPROPERTYSINGLEVALUE('RectangleOpeningHeight',$,IFCPOSITIVELENGTHMEASURE(118.2),$);
#88= IFCPROPERTYSINGLEVALUE('OpeningDiameter',$,$,$);
#89= IFCPROPERTYSET('1Ar4J8Loj5sef200A5k1iB',#5,'AISC_EM11_Pset_Opening/Cope',$,(#85,#86,#87,#88));
#90= IFCLOCALPLACEMENT(#42,#47);
#91= IFCRECTANGLEPROFILEDEF(.AREA.,'PL117.8*12',#51,12.,117.8);
#92= IFCCARTESIANPOINT((6668.52745706009,47.1039565708807,275.999999999996));
#93= IFCAXIS2PLACEMENT3D(#92,#77,#58);
#94= IFCEXTRUDEDAREASOLID(#91,#93,#9,552.);
#95= IFCSHAPEREPRESENTATION(#12,'Body','SweptSolid',(#94));
#96= IFCPRODUCTDEFINITIONSHAPE($,$,(#95));
#97= IFCOPENINGELEMENT('3SCL$zlsbCHOaAzEm5zYcv',#5,$,$,'Recess',#90,#96,$);
#98= IFCRELVOIDSELEMENT('03gJfeZXD63A7Jqm2Mk6nz',#5,$,$,#74,#97);
#99= IFCPROPERTYSINGLEVALUE('RectangleOpeningHeight',$,IFCPOSITIVELENGTHMEASURE(117.8),$);
#100= IFCPROPERTYSET('3EUfOY4QPCEfPp8ial51e$',#5,'AISC_EM11_Pset_Opening/Cope',$,(#85,#86,#99,#88));
#101= IFCLOCALPLACEMENT(#42,#47);
#102= IFCRECTANGLEPROFILEDEF(.AREA.,'PL108*12',#51,12.,108.);
#103= IFCCARTESIANPOINT((-15.1298743835505,40.7799932962062,225.999999999996));
#104= IFCAXIS2PLACEMENT3D(#103,#77,#65);
#105= IFCEXTRUDEDAREASOLID(#102,#104,#9,452.);
#106= IFCSHAPEREPRESENTATION(#12,'Body','SweptSolid',(#105));
#107= IFCPRODUCTDEFINITIONSHAPE($,$,(#106));
#108= IFCOPENINGELEMENT('2hJPY4MdHCrPOS$VgXiVyh',#5,$,$,'Recess',#101,#107,$);
#109= IFCRELVOIDSELEMENT('0yXMZCWX9EQAReUJo0O6Dd',#5,$,$,#74,#108);
#110= IFCPROPERTYSINGLEVALUE('RectangleOpeningHeight',$,IFCPOSITIVELENGTHMEASURE(108.),$);
#111= IFCPROPERTYSET('333mnEcHrCBPj838VZYYbL',#5,'AISC_EM11_Pset_Opening/Cope',$,(#85,#86,#110,#88));
#112= IFCLOCALPLACEMENT(#42,#47);
#113= IFCCARTESIANPOINT((-15.1297660235432,-43.2200067037238,225.999999999996));
#114= IFCAXIS2PLACEMENT3D(#113,#77,#65);
#115= IFCEXTRUDEDAREASOLID(#102,#114,#9,452.);
#116= IFCSHAPEREPRESENTATION(#12,'Body','SweptSolid',(#115));
#117= IFCPRODUCTDEFINITIONSHAPE($,$,(#116));
#118= IFCOPENINGELEMENT('3F_78qCoHCqvPRsk2TvpaF',#5,$,$,'Recess',#112,#117,$);
#119= IFCRELVOIDSELEMENT('17euaOSDj3EB5YVb92_I$P',#5,$,$,#74,#118);
#120= IFCCARTESIANPOINT((88684.6268740162,8120.19772863202,28300.));
#121= IFCAXIS2PLACEMENT3D(#120,#54,#77);
#122= IFCLOCALPLACEMENT(#42,#121);
#123= IFCCIRCLEPROFILEDEF(.AREA.,$,#51,11.5);
#124= IFCCARTESIANPOINT((0.,-5.65005179000457,0.));
#125= IFCAXIS2PLACEMENT3D(#124,#8,#7);
#126= IFCEXTRUDEDAREASOLID(#123,#125,#9,11.3);
#127= IFCSHAPEREPRESENTATION(#12,'Body','SweptSolid',(#126));
#128= IFCREPRESENTATIONMAP(#10,#127);
#129= IFCCARTESIANPOINT((135.,0.,50.));
#130= IFCCARTESIANTRANSFORMATIONOPERATOR3D($,$,#129,$,$);
#131= IFCMAPPEDITEM(#128,#130);
#132= IFCCARTESIANPOINT((205.,0.,50.));
#133= IFCCARTESIANTRANSFORMATIONOPERATOR3D($,$,#132,$,$);
#134= IFCMAPPEDITEM(#128,#133);
#135= IFCCARTESIANPOINT((275.,0.,50.));
#136= IFCCARTESIANTRANSFORMATIONOPERATOR3D($,$,#135,$,$);
#137= IFCMAPPEDITEM(#128,#136);
#138= IFCCARTESIANPOINT((345.,0.,50.));
#139= IFCCARTESIANTRANSFORMATIONOPERATOR3D($,$,#138,$,$);
#140= IFCMAPPEDITEM(#128,#139);
#141= IFCCARTESIANPOINT((415.,0.,50.));
#142= IFCCARTESIANTRANSFORMATIONOPERATOR3D($,$,#141,$,$);
#143= IFCMAPPEDITEM(#128,#142);
#144= IFCSHAPEREPRESENTATION(#12,'Body','MappedRepresentation',(#131,#134,#137,#140,#143));
#145= IFCPRODUCTDEFINITIONSHAPE($,$,(#144));
#146= IFCOPENINGELEMENT('2Or1XPANbD7fmubwLAoSNM',#5,$,$,'Opening',#122,#145,$);
#147= IFCRELVOIDSELEMENT('0ntvnrVMv2Ygmji3NM6bZK',#5,'Drill Hole',$,#74,#146);
#148= IFCPROPERTYSINGLEVALUE('FeatureSubTypes',$,IFCLABEL('TORNILLO'),$);
#149= IFCPROPERTYSINGLEVALUE('RectangleOpeningWidth',$,$,$);
#150= IFCPROPERTYSINGLEVALUE('RectangleOpeningHeight',$,$,$);
#151= IFCPROPERTYSET('3epBScrg59Be7W83AEqPb$',#5,'AISC_EM11_Pset_Opening/Cope',$,(#148,#149,#150,#88));
#152= IFCCARTESIANPOINT((82062.9257404047,8119.29341806647,27760.));
#153= IFCDIRECTION((0.000467666999829817,-0.999999890643783,0.));
#154= IFCDIRECTION((0.999999890643783,0.000467666999833569,0.));
#155= IFCAXIS2PLACEMENT3D(#152,#153,#154);
#156= IFCLOCALPLACEMENT(#42,#155);
#157= IFCCARTESIANPOINT((0.,-10.1,0.));
#158= IFCAXIS2PLACEMENT3D(#157,#8,#7);
#159= IFCEXTRUDEDAREASOLID(#123,#158,#9,17.4);
#160= IFCSHAPEREPRESENTATION(#12,'Body','SweptSolid',(#159));
#161= IFCREPRESENTATIONMAP(#10,#160);
#162= IFCCARTESIANPOINT((3.63797880709171E-10,0.,-50.00000000004));
#163= IFCCARTESIANTRANSFORMATIONOPERATOR3D($,$,#162,$,$);
#164= IFCMAPPEDITEM(#161,#163);
#165= IFCCARTESIANPOINT((70.0000000001601,0.,-49.9999999990205));
#166= IFCCARTESIANTRANSFORMATIONOPERATOR3D($,$,#165,$,$);
#167= IFCMAPPEDITEM(#161,#166);
#168= IFCCARTESIANPOINT((139.999999999971,0.,-49.9999999980018));
#169= IFCCARTESIANTRANSFORMATIONOPERATOR3D($,$,#168,$,$);
#170= IFCMAPPEDITEM(#161,#169);
#171= IFCCARTESIANPOINT((209.999999999767,0.,-49.9999999969841));
#172= IFCCARTESIANTRANSFORMATIONOPERATOR3D($,$,#171,$,$);
#173= IFCMAPPEDITEM(#161,#172);
#174= IFCCARTESIANPOINT((279.999999999563,0.,-49.9999999959655));
#175= IFCCARTESIANTRANSFORMATIONOPERATOR3D($,$,#174,$,$);
#176= IFCMAPPEDITEM(#161,#175);
#177= IFCCARTESIANPOINT((349.99999999936,0.,-49.9999999949468));
#178= IFCCARTESIANTRANSFORMATIONOPERATOR3D($,$,#177,$,$);
#179= IFCMAPPEDITEM(#161,#178);
#180= IFCCARTESIANPOINT((419.999999999156,0.,-49.9999999939282));
#181= IFCCARTESIANTRANSFORMATIONOPERATOR3D($,$,#180,$,$);
#182= IFCMAPPEDITEM(#161,#181);
#183= IFCCARTESIANPOINT((-3.63797880709171E-10,0.,50.0000000000391));
#184= IFCCARTESIANTRANSFORMATIONOPERATOR3D($,$,#183,$,$);
#185= IFCMAPPEDITEM(#161,#184);
#186= IFCCARTESIANPOINT((69.9999999994325,0.,50.0000000010577));
#187= IFCCARTESIANTRANSFORMATIONOPERATOR3D($,$,#186,$,$);
#188= IFCMAPPEDITEM(#161,#187);
#189= IFCCARTESIANPOINT((139.999999999229,0.,50.0000000020764));
#190= IFCCARTESIANTRANSFORMATIONOPERATOR3D($,$,#189,$,$);
#191= IFCMAPPEDITEM(#161,#190);
#192= IFCCARTESIANPOINT((209.99999999904,0.,50.0000000030941));
#193= IFCCARTESIANTRANSFORMATIONOPERATOR3D($,$,#192,$,$);
#194= IFCMAPPEDITEM(#161,#193);
#195= IFCCARTESIANPOINT((279.999999998836,0.,50.0000000041127));
#196= IFCCARTESIANTRANSFORMATIONOPERATOR3D($,$,#195,$,$);
#197= IFCMAPPEDITEM(#161,#196);
#198= IFCCARTESIANPOINT((349.999999998647,0.,50.0000000051323));
#199= IFCCARTESIANTRANSFORMATIONOPERATOR3D($,$,#198,$,$);
#200= IFCMAPPEDITEM(#161,#199);
#201= IFCCARTESIANPOINT((419.999999998443,0.,50.0000000061509));
#202= IFCCARTESIANTRANSFORMATIONOPERATOR3D($,$,#201,$,$);
#203= IFCMAPPEDITEM(#161,#202);
#204= IFCSHAPEREPRESENTATION(#12,'Body','MappedRepresentation',(#164,#167,#170,#173,#176,#179,#182,#185,#188,#191,#194,#197,#200,#203));
#205= IFCPRODUCTDEFINITIONSHAPE($,$,(#204));
#206= IFCOPENINGELEMENT('3ekFQnhvrFYhQ7AtDHRzGb',#5,$,$,'Opening',#156,#205,$);
#207= IFCRELVOIDSELEMENT('1UA3brJ0TErPfqZEf1BKU9',#5,'Drill Hole',$,#74,#206);
#208= IFCCARTESIANPOINT((82022.9608154297,8118.98632321747,28250.));
#209= IFCAXIS2PLACEMENT3D(#208,#7,#77);
#210= IFCLOCALPLACEMENT(#42,#209);
#211= IFCCARTESIANPOINT((0.,-4.43006572624528,0.));
#212= IFCAXIS2PLACEMENT3D(#211,#8,#7);
#213= IFCEXTRUDEDAREASOLID(#123,#212,#9,11.3);
#214= IFCSHAPEREPRESENTATION(#12,'Body','SweptSolid',(#213));
#215= IFCREPRESENTATIONMAP(#10,#214);
#216= IFCCARTESIANPOINT((85.,0.,40.));
#217= IFCCARTESIANTRANSFORMATIONOPERATOR3D($,$,#216,$,$);
#218= IFCMAPPEDITEM(#215,#217);
#219= IFCCARTESIANPOINT((155.,0.,40.));
#220= IFCCARTESIANTRANSFORMATIONOPERATOR3D($,$,#219,$,$);
#221= IFCMAPPEDITEM(#215,#220);
#222= IFCCARTESIANPOINT((225.,0.,40.));
#223= IFCCARTESIANTRANSFORMATIONOPERATOR3D($,$,#222,$,$);
#224= IFCMAPPEDITEM(#215,#223);
#225= IFCCARTESIANPOINT((295.,0.,40.));
#226= IFCCARTESIANTRANSFORMATIONOPERATOR3D($,$,#225,$,$);
#227= IFCMAPPEDITEM(#215,#226);
#228= IFCCARTESIANPOINT((365.,0.,40.));
#229= IFCCARTESIANTRANSFORMATIONOPERATOR3D($,$,#228,$,$);
#230= IFCMAPPEDITEM(#215,#229);
#231= IFCSHAPEREPRESENTATION(#12,'Body','MappedRepresentation',(#218,#221,#224,#227,#230));
#232= IFCPRODUCTDEFINITIONSHAPE($,$,(#231));
#233= IFCOPENINGELEMENT('0N0So9sRL8jw6lq8CUXDDr',#5,$,$,'Opening',#210,#232,$);
#234= IFCRELVOIDSELEMENT('2pUNszLoP0G9uSX96t3lTq',#5,'Drill Hole',$,#74,#233);
#235= IFCCARTESIANPOINT((82062.9257404047,8119.29341806647,28300.));
#236= IFCDIRECTION((-0.000467666999829816,0.999999890643783,0.));
#237= IFCAXIS2PLACEMENT3D(#235,#236,#154);
#238= IFCLOCALPLACEMENT(#42,#237);
#239= IFCCARTESIANPOINT((0.,-0.0999999999999716,0.));
#240= IFCAXIS2PLACEMENT3D(#239,#8,#7);
#241= IFCEXTRUDEDAREASOLID(#123,#240,#9,17.4);
#242= IFCSHAPEREPRESENTATION(#12,'Body','SweptSolid',(#241));
#243= IFCREPRESENTATIONMAP(#10,#242);
#244= IFCMAPPEDITEM(#243,#163);
#245= IFCMAPPEDITEM(#243,#166);
#246= IFCMAPPEDITEM(#243,#169);
#247= IFCMAPPEDITEM(#243,#172);
#248= IFCMAPPEDITEM(#243,#175);
#249= IFCMAPPEDITEM(#243,#178);
#250= IFCMAPPEDITEM(#243,#181);
#251= IFCMAPPEDITEM(#243,#184);
#252= IFCMAPPEDITEM(#243,#187);
#253= IFCMAPPEDITEM(#243,#190);
#254= IFCMAPPEDITEM(#243,#193);
#255= IFCMAPPEDITEM(#243,#196);
#256= IFCMAPPEDITEM(#243,#199);
#257= IFCMAPPEDITEM(#243,#202);
#258= IFCSHAPEREPRESENTATION(#12,'Body','MappedRepresentation',(#244,#245,#246,#247,#248,#249,#250,#251,#252,#253,#254,#255,#256,#257));
#259= IFCPRODUCTDEFINITIONSHAPE($,$,(#258));
#260= IFCOPENINGELEMENT('1cEiZDhr9DHvfZLlr3IKGd',#5,$,$,'Opening',#238,#259,$);
#261= IFCRELVOIDSELEMENT('3PQA_LVinBFh7fGrKLrh9B',#5,'Drill Hole',$,#74,#260);
#262= IFCPROPERTYSINGLEVALUE('PieceMark',$,IFCIDENTIFIER('BEAM'),$);
#263= IFCPROPERTYSINGLEVALUE('IndicationMark',$,IFCIDENTIFIER('b/1138'),$);
#264= IFCPROPERTYSINGLEVALUE('PrelimMark',$,IFCIDENTIFIER(''),$);
#265= IFCPROPERTYSINGLEVALUE('MainPieceTag',$,IFCBOOLEAN(.T.),$);
#266= IFCPROPERTYSET('1PHhOPQhn5GxbmdzB_na7L',#5,'AISC_EM11_Pset_PieceIdentification','PieceIdentity',(#262,#263,#264,#265));
#267= IFCPROPERTYSINGLEVALUE('MaterialType',$,IFCIDENTIFIER('STEEL'),$);
#268= IFCPROPERTYSINGLEVALUE('MaterialGrade',$,IFCIDENTIFIER('S235JR'),$);
#269= IFCPROPERTYSET('1hlLN7QsHAo85OTIrAd3oE',#5,'AISC_EM11_Pset_Material',$,(#267,#268));
#270= IFCPROPERTYSINGLEVALUE('SkewedAngleY',$,IFCREAL(0.),$);
#271= IFCPROPERTYSINGLEVALUE('SkewedAngleX',$,IFCREAL(-7.E-05),$);
#272= IFCPROPERTYSET('1Wq80G62n2TuoCp7y7hPcS',#5,'AISC_EM11_Pset_SkewedEnd',$,(#270,#271));
#273= IFCPROPERTYSET('3iJc0Ddvf14AgsFfRxGd5Q',#5,'AISC_EM11_Pset_SkewedEnd_2',$,(#270,#271));
#274= IFCMATERIAL('STEEL/S235JR');
#275= IFCRELAGGREGATES('0oxbYn0lr7lfWTiVPaeMNh',#5,$,$,#37,(#39));
#276= IFCRELAGGREGATES('24Dtq3I17P1xol_nhswefz',#5,$,$,#39,(#41));
#277= IFCRELAGGREGATES('0yCKAyTpXA2e4tNkjjrHrh',#5,$,$,#41,(#43));
#278= IFCRELCONTAINEDINSPATIALSTRUCTURE('3NALvJOsz5C9yb48btTnou',#5,$,$,(#74),#43);
#279= IFCRELDEFINESBYPROPERTIES('3pPZ_7zwT8xfGbb16Aw_AM',#5,$,$,(#83),#89);
#280= IFCRELDEFINESBYPROPERTIES('3Q3zfDq$z4Zgb_S6ArAWtW',#5,$,$,(#97),#100);
#281= IFCRELDEFINESBYPROPERTIES('3qJSZhogT578SXz_8FH3a0',#5,$,$,(#118,#108),#111);
#282= IFCRELDEFINESBYPROPERTIES('231Ik915bCqeAqnVUkdgNI',#5,$,$,(#260,#233,#206,#146),#151);
#283= IFCRELDEFINESBYPROPERTIES('3CuGDzqLr7zAu8CIZR755g',#5,$,$,(#74),#266);
#284= IFCRELDEFINESBYPROPERTIES('2FbaNEK$z11ukS$URs1i$w',#5,$,$,(#74),#269);
#285= IFCRELDEFINESBYPROPERTIES('3Ei$6s9b58iOMMAh75OiUl',#5,$,$,(#74),#272);
#286= IFCRELDEFINESBYPROPERTIES('2O4O5sB4LDDQ2fbxFMzZxl',#5,$,$,(#74),#273);
#287= IFCRELASSOCIATESMATERIAL('33RSBaDLT31vJkaDXKnKpE',#5,$,$,(#74),#274);
ENDSEC;

END-ISO-10303-21;
