ISO-10303-21;
HEADER;
FILE_DESCRIPTION(('ViewDefinition[AISC_Steel_Detailing]', 'Option [BaseQuantities:Off]', 'Option [GridExport:On]', 'Option [Assemblies:Off]', 'Option [Bolts:On]', 'Option [Rebars:On]', 'Option [PourObjects:Off]', 'Option [Welds:On]', 'Option [SurfaceTreatments:On]', 'Option [LocationBy:0]', 'Option [ViewColors:Off]', 'Option [SectionedSpine:Off]', 'Option [PropertySets:On]', 'Option [Export all:Off]'),'2;1');
FILE_NAME('b_1176_Qty_1.ifc','2026-05-16T11:53:15',('GIOVANNIPC\\gcorrea'),('Structural Designer'),'IFC Database version: Work','Tekla Structures 2020 Service Pack 5, IFC Export Version: 4.0.0.0 Dec  7 2020','');
FILE_SCHEMA(('IFC2X3'));
ENDSEC;

DATA;
#1= IFCPERSON('GIOVANNIPC\\gcorrea','Undefined',$,$,$,$,$,$);
#2= IFCORGANIZATION($,'Trimble Solutions Corporation',$,$,$);
#3= IFCPERSONANDORGANIZATION(#1,#2,$);
#4= IFCAPPLICATION(#2,'2020 Service Pack 5','Tekla Structures','Multi material modeling');
#5= IFCOWNERHISTORY(#3,#4,$,.NOCHANGE.,$,$,$,1778950395);
#6= IFCCARTESIANPOINT((0.,0.,0.));
#7= IFCDIRECTION((1.,0.,0.));
#8= IFCDIRECTION((0.,1.,0.));
#9= IFCDIRECTION((0.,0.,1.));
#10= IFCAXIS2PLACEMENT3D(#6,#9,#7);
#11= IFCGEOMETRICREPRESENTATIONCONTEXT($,'Model',3,1.E-05,#10,$);
#12= IFCGEOMETRICREPRESENTATIONSUBCONTEXT('Body','Model',*,*,*,*,#11,$,.MODEL_VIEW.,$);
#13= IFCGEOMETRICREPRESENTATIONSUBCONTEXT('Axis','Model',*,*,*,*,#11,$,.GRAPH_VIEW.,$);
#14= IFCGEOMETRICREPRESENTATIONSUBCONTEXT('FootPrint','Model',*,*,*,*,#11,$,.MODEL_VIEW.,$);
#15= IFCSIUNIT(*,.LENGTHUNIT.,.MILLI.,.METRE.);
#16= IFCMEASUREWITHUNIT(IFCRATIOMEASURE(304.8),#15);
#17= IFCDIMENSIONALEXPONENTS(1,0,0,0,0,0,0);
#18= IFCCONVERSIONBASEDUNIT(#17,.LENGTHUNIT.,'FOOT',#16);
#19= IFCSIUNIT(*,.AREAUNIT.,$,.SQUARE_METRE.);
#20= IFCMEASUREWITHUNIT(IFCRATIOMEASURE(0.09290304),#19);
#21= IFCDIMENSIONALEXPONENTS(2,0,0,0,0,0,0);
#22= IFCCONVERSIONBASEDUNIT(#21,.AREAUNIT.,'SQUARE FOOT',#20);
#23= IFCSIUNIT(*,.VOLUMEUNIT.,$,.CUBIC_METRE.);
#24= IFCMEASUREWITHUNIT(IFCRATIOMEASURE(0.028316846592),#23);
#25= IFCDIMENSIONALEXPONENTS(3,0,0,0,0,0,0);
#26= IFCCONVERSIONBASEDUNIT(#25,.VOLUMEUNIT.,'CUBIC FOOT',#24);
#27= IFCSIUNIT(*,.MASSUNIT.,.KILO.,.GRAM.);
#28= IFCSIUNIT(*,.TIMEUNIT.,$,.SECOND.);
#29= IFCSIUNIT(*,.PLANEANGLEUNIT.,$,.RADIAN.);
#30= IFCMEASUREWITHUNIT(IFCRATIOMEASURE(0.0174532925199433),#29);
#31= IFCDIMENSIONALEXPONENTS(0,0,0,0,0,0,0);
#32= IFCCONVERSIONBASEDUNIT(#31,.PLANEANGLEUNIT.,'DEGREE',#30);
#33= IFCSIUNIT(*,.SOLIDANGLEUNIT.,$,.STERADIAN.);
#34= IFCSIUNIT(*,.THERMODYNAMICTEMPERATUREUNIT.,$,.DEGREE_CELSIUS.);
#35= IFCSIUNIT(*,.LUMINOUSINTENSITYUNIT.,$,.LUMEN.);
#36= IFCUNITASSIGNMENT((#15,#19,#23,#27,#28,#29,#33,#34,#35));
#37= IFCPROJECT('2G7ZFDNE16yBDU14FA92Me',#5,'Proyecto',$,$,$,$,(#11),#36);
#38= IFCLOCALPLACEMENT($,#10);
#39= IFCSITE('2xvEzEinjBTea80yOTcujY',#5,'Obra',$,$,#38,$,$,.ELEMENT.,$,$,$,$,$);
#40= IFCLOCALPLACEMENT(#38,#10);
#41= IFCBUILDING('2Ixx9gRy96dgPziab9FVsG',#5,'Undefined',$,$,#40,$,$,.ELEMENT.,$,$,$);
#42= IFCLOCALPLACEMENT(#40,#10);
#43= IFCBUILDINGSTOREY('29hdEUCErFze9E_VIAceOd',#5,'Undefined',$,$,#42,$,$,.ELEMENT.,0.);
#44= IFCOWNERHISTORY(#3,#4,$,.NOCHANGE.,$,$,$,1775851200);
#45= IFCCARTESIANPOINT((68471.0270996094,1591.40343869966,28100.));
#46= IFCDIRECTION((0.999999999890332,1.4809999998368E-05,0.));
#47= IFCAXIS2PLACEMENT3D(#45,#9,#46);
#48= IFCLOCALPLACEMENT(#42,#47);
#49= IFCDIRECTION((1.,0.));
#50= IFCCARTESIANPOINT((0.,0.));
#51= IFCAXIS2PLACEMENT2D(#50,#49);
#52= IFCISHAPEPROFILEDEF(.AREA.,'IPE400',#51,180.,400.,8.600000381,13.5,21.);
#53= IFCDIRECTION((1.6940658945086E-21,-1.,0.));
#54= IFCDIRECTION((-1.,-1.6940658945086E-21,0.));
#55= IFCCARTESIANPOINT((7714.0842005717,1.30681669515562E-17,3.63797880709171E-12));
#56= IFCAXIS2PLACEMENT3D(#55,#54,#53);
#57= IFCEXTRUDEDAREASOLID(#52,#56,#9,7724.06);
#58= IFCDIRECTION((-0.999999999890332,1.48099999933038E-05,0.));
#59= IFCCARTESIANPOINT((7714.08150821758,0.000148100000160412,-299.999999999996));
#60= IFCDIRECTION((1.48099999933038E-05,0.999999999890332,0.));
#61= IFCAXIS2PLACEMENT3D(#59,#58,#60);
#62= IFCPLANE(#61);
#63= IFCHALFSPACESOLID(#62,.T.);
#64= IFCBOOLEANCLIPPINGRESULT(.DIFFERENCE.,#57,#63);
#65= IFCDIRECTION((0.999999999890332,-1.48099999933038E-05,0.));
#66= IFCCARTESIANPOINT((-9.97531522878853,-0.000148099999933038,-299.999999999996));
#67= IFCDIRECTION((-1.48099999933038E-05,-0.999999999890332,0.));
#68= IFCAXIS2PLACEMENT3D(#66,#65,#67);
#69= IFCPLANE(#68);
#70= IFCHALFSPACESOLID(#69,.T.);
#71= IFCBOOLEANCLIPPINGRESULT(.DIFFERENCE.,#64,#70);
#72= IFCSHAPEREPRESENTATION(#12,'Body','Clipping',(#71));
#73= IFCPRODUCTDEFINITIONSHAPE($,$,(#72));
#74= IFCBEAM('20Pvg6NsbFSAZ_QyqrPYA7',#44,'BEAM','IPE400','IPE400',#48,#73,'ID80679a86-5f69-4f70-a8fe-6bcd35662287');
#75= IFCLOCALPLACEMENT(#42,#47);
#76= IFCRECTANGLEPROFILEDEF(.AREA.,'PL101.9*12.1',#51,12.1,101.9);
#77= IFCDIRECTION((0.,0.,-1.));
#78= IFCCARTESIANPOINT((-15.9377766286634,40.1821172397044,201.000000000004));
#79= IFCAXIS2PLACEMENT3D(#78,#77,#65);
#80= IFCEXTRUDEDAREASOLID(#76,#79,#9,402.);
#81= IFCSHAPEREPRESENTATION(#12,'Body','SweptSolid',(#80));
#82= IFCPRODUCTDEFINITIONSHAPE($,$,(#81));
#83= IFCOPENINGELEMENT('2eZEP249X8$e32O8JS5w$j',#5,$,$,'Recess',#75,#82,$);
#84= IFCRELVOIDSELEMENT('0jwwWXqQDC5wWVwT6YnVfQ',#5,$,$,#74,#83);
#85= IFCPROPERTYSINGLEVALUE('FeatureSubTypes',$,$,$);
#86= IFCPROPERTYSINGLEVALUE('RectangleOpeningWidth',$,IFCPOSITIVELENGTHMEASURE(12.1),$);
#87= IFCPROPERTYSINGLEVALUE('RectangleOpeningHeight',$,IFCPOSITIVELENGTHMEASURE(101.9),$);
#88= IFCPROPERTYSINGLEVALUE('OpeningDiameter',$,$,$);
#89= IFCPROPERTYSET('0MYgN7UHPCEu6NX6SFAZWL',#5,'AISC_EM11_Pset_Opening/Cope',$,(#85,#86,#87,#88));
#90= IFCLOCALPLACEMENT(#42,#47);
#91= IFCRECTANGLEPROFILEDEF(.AREA.,'PL100.2*12.1',#51,12.1,100.2);
#92= IFCCARTESIANPOINT((-15.9389770857379,-40.8750794022098,201.000000000004));
#93= IFCAXIS2PLACEMENT3D(#92,#77,#65);
#94= IFCEXTRUDEDAREASOLID(#91,#93,#9,402.);
#95= IFCSHAPEREPRESENTATION(#12,'Body','SweptSolid',(#94));
#96= IFCPRODUCTDEFINITIONSHAPE($,$,(#95));
#97= IFCOPENINGELEMENT('09WtlCxhH65u_mkX_CmtL8',#5,$,$,'Recess',#90,#96,$);
#98= IFCRELVOIDSELEMENT('1_H5pmIwbAbfwi3HGJXVqe',#5,$,$,#74,#97);
#99= IFCPROPERTYSINGLEVALUE('RectangleOpeningHeight',$,IFCPOSITIVELENGTHMEASURE(100.2),$);
#100= IFCPROPERTYSET('1UqGkKVIH9ux99m9mycF2P',#5,'AISC_EM11_Pset_Opening/Cope',$,(#85,#86,#99,#88));
#101= IFCLOCALPLACEMENT(#42,#47);
#102= IFCRECTANGLEPROFILEDEF(.AREA.,'PL101*12',#51,12.,101.);
#103= IFCCARTESIANPOINT((7720.07598077615,-40.607152505735,201.000000000004));
#104= IFCAXIS2PLACEMENT3D(#103,#77,#58);
#105= IFCEXTRUDEDAREASOLID(#102,#104,#9,402.);
#106= IFCSHAPEREPRESENTATION(#12,'Body','SweptSolid',(#105));
#107= IFCPRODUCTDEFINITIONSHAPE($,$,(#106));
#108= IFCOPENINGELEMENT('2s53Jv3U9DGByhn6UUayrc',#5,$,$,'Recess',#101,#107,$);
#109= IFCRELVOIDSELEMENT('0GjBbW2JvBlAQYWrHRL77l',#5,$,$,#74,#108);
#110= IFCPROPERTYSINGLEVALUE('RectangleOpeningWidth',$,IFCPOSITIVELENGTHMEASURE(12.),$);
#111= IFCPROPERTYSINGLEVALUE('RectangleOpeningHeight',$,IFCPOSITIVELENGTHMEASURE(101.),$);
#112= IFCPROPERTYSET('1ZSxFEeCH8a94RZn6t1LNH',#5,'AISC_EM11_Pset_Opening/Cope',$,(#85,#110,#111,#88));
#113= IFCLOCALPLACEMENT(#42,#47);
#114= IFCRECTANGLEPROFILEDEF(.AREA.,'PL101.1*12',#51,12.,101.1);
#115= IFCCARTESIANPOINT((7720.07718123213,40.4499702590997,201.000000000004));
#116= IFCAXIS2PLACEMENT3D(#115,#77,#58);
#117= IFCEXTRUDEDAREASOLID(#114,#116,#9,402.);
#118= IFCSHAPEREPRESENTATION(#12,'Body','SweptSolid',(#117));
#119= IFCPRODUCTDEFINITIONSHAPE($,$,(#118));
#120= IFCOPENINGELEMENT('2vwEzTMvTEzA4tvA79klv3',#5,$,$,'Recess',#113,#119,$);
#121= IFCRELVOIDSELEMENT('2cGx7l44L14hdnWOzuGDNn',#5,$,$,#74,#120);
#122= IFCPROPERTYSINGLEVALUE('RectangleOpeningHeight',$,IFCPOSITIVELENGTHMEASURE(101.1),$);
#123= IFCPROPERTYSET('3$6XDQcfnC0e6iw7oYpPs3',#5,'AISC_EM11_Pset_Opening/Cope',$,(#85,#110,#122,#88));
#124= IFCCARTESIANPOINT((68461.0517843839,1591.40343906524,28300.));
#125= IFCAXIS2PLACEMENT3D(#124,#7,#77);
#126= IFCLOCALPLACEMENT(#42,#125);
#127= IFCCIRCLEPROFILEDEF(.AREA.,$,#51,11.5);
#128= IFCCARTESIANPOINT((0.,-4.3994077909706,0.));
#129= IFCAXIS2PLACEMENT3D(#128,#8,#7);
#130= IFCEXTRUDEDAREASOLID(#127,#129,#9,8.8);
#131= IFCSHAPEREPRESENTATION(#12,'Body','SweptSolid',(#130));
#132= IFCREPRESENTATIONMAP(#10,#131);
#133= IFCCARTESIANPOINT((95.,0.,50.));
#134= IFCCARTESIANTRANSFORMATIONOPERATOR3D($,$,#133,$,$);
#135= IFCMAPPEDITEM(#132,#134);
#136= IFCCARTESIANPOINT((165.,0.,50.));
#137= IFCCARTESIANTRANSFORMATIONOPERATOR3D($,$,#136,$,$);
#138= IFCMAPPEDITEM(#132,#137);
#139= IFCCARTESIANPOINT((235.,0.,50.));
#140= IFCCARTESIANTRANSFORMATIONOPERATOR3D($,$,#139,$,$);
#141= IFCMAPPEDITEM(#132,#140);
#142= IFCCARTESIANPOINT((305.,0.,50.));
#143= IFCCARTESIANTRANSFORMATIONOPERATOR3D($,$,#142,$,$);
#144= IFCMAPPEDITEM(#132,#143);
#145= IFCSHAPEREPRESENTATION(#12,'Body','MappedRepresentation',(#135,#138,#141,#144));
#146= IFCPRODUCTDEFINITIONSHAPE($,$,(#145));
#147= IFCOPENINGELEMENT('2eRIOcc3L7nemK0od1o5di',#5,$,$,'Opening',#126,#146,$);
#148= IFCRELVOIDSELEMENT('226HYdhBXAVA6PhWKElDLy',#5,'Drill Hole',$,#74,#147);
#149= IFCPROPERTYSINGLEVALUE('FeatureSubTypes',$,IFCLABEL('TORNILLO'),$);
#150= IFCPROPERTYSINGLEVALUE('RectangleOpeningWidth',$,$,$);
#151= IFCPROPERTYSINGLEVALUE('RectangleOpeningHeight',$,$,$);
#152= IFCPROPERTYSET('12y33vrtX3TRQXDDZCkj$3',#5,'AISC_EM11_Pset_Opening/Cope',$,(#149,#150,#151,#88));
#153= IFCCARTESIANPOINT((76185.1086069788,1591.5175361471,28300.));
#154= IFCAXIS2PLACEMENT3D(#153,#54,#77);
#155= IFCLOCALPLACEMENT(#42,#154);
#156= IFCSHAPEREPRESENTATION(#12,'Body','MappedRepresentation',(#135,#138,#141,#144));
#157= IFCPRODUCTDEFINITIONSHAPE($,$,(#156));
#158= IFCOPENINGELEMENT('0S7_Zo2EjAkAlWdRE9aFNa',#5,$,$,'Opening',#155,#157,$);
#159= IFCRELVOIDSELEMENT('1h0DFInj978AEabKN0794s',#5,'Drill Hole',$,#74,#158);
#160= IFCPROPERTYSINGLEVALUE('PieceMark',$,IFCIDENTIFIER('BEAM'),$);
#161= IFCPROPERTYSINGLEVALUE('IndicationMark',$,IFCIDENTIFIER('b/1176'),$);
#162= IFCPROPERTYSINGLEVALUE('PrelimMark',$,IFCIDENTIFIER(''),$);
#163= IFCPROPERTYSINGLEVALUE('MainPieceTag',$,IFCBOOLEAN(.T.),$);
#164= IFCPROPERTYSET('2FFKNeBffCNxX6vt8sXqE9',#5,'AISC_EM11_Pset_PieceIdentification','PieceIdentity',(#160,#161,#162,#163));
#165= IFCPROPERTYSINGLEVALUE('MaterialType',$,IFCIDENTIFIER('STEEL'),$);
#166= IFCPROPERTYSINGLEVALUE('MaterialGrade',$,IFCIDENTIFIER('S235JR'),$);
#167= IFCPROPERTYSET('2la8_9_gz3JgLiJhMxVjVw',#5,'AISC_EM11_Pset_Material',$,(#165,#166));
#168= IFCPROPERTYSINGLEVALUE('SkewedAngleY',$,IFCREAL(0.),$);
#169= IFCPROPERTYSINGLEVALUE('SkewedAngleX',$,IFCREAL(0.00085),$);
#170= IFCPROPERTYSET('2LrCAHoHn0aAGRS8zirFeg',#5,'AISC_EM11_Pset_SkewedEnd',$,(#168,#169));
#171= IFCPROPERTYSET('0NQ4wwyljCyw7rb_Oe37gP',#5,'AISC_EM11_Pset_SkewedEnd_2',$,(#168,#169));
#172= IFCMATERIAL('STEEL/S235JR');
#173= IFCRELAGGREGATES('0uZeYekfHFygCty6nWGfaF',#5,$,$,#37,(#39));
#174= IFCRELAGGREGATES('2Arwqw0xZXEyU9EO3oYxsX',#5,$,$,#39,(#41));
#175= IFCRELAGGREGATES('2rNe6qIlPDRhnaNTeEXmj9',#5,$,$,#41,(#43));
#176= IFCRELCONTAINEDINSPATIALSTRUCTURE('3tUcV85Kb4guUEPUvoS6gY',#5,$,$,(#74),#43);
#177= IFCRELDEFINESBYPROPERTIES('1U4rz8gmP0cRasXumVl22N',#5,$,$,(#83),#89);
#178= IFCRELDEFINESBYPROPERTIES('12XScSJKDAvPM0Yf7uMLWv',#5,$,$,(#97),#100);
#179= IFCRELDEFINESBYPROPERTIES('1aNsC64sn8qA3xIgNgaNSL',#5,$,$,(#108),#112);
#180= IFCRELDEFINESBYPROPERTIES('3NYF_KbuX8FOXLq0XDvCzm',#5,$,$,(#120),#123);
#181= IFCRELDEFINESBYPROPERTIES('39hPVVqnT6kAjniBPFs2oX',#5,$,$,(#158,#147),#152);
#182= IFCRELDEFINESBYPROPERTIES('3FpErCo9j9EA2Ie_6fr0eq',#5,$,$,(#74),#164);
#183= IFCRELDEFINESBYPROPERTIES('0khaWgUZnE3QdBGFaxYauQ',#5,$,$,(#74),#167);
#184= IFCRELDEFINESBYPROPERTIES('2OqSYbJ$XARRyicduYv7RZ',#5,$,$,(#74),#170);
#185= IFCRELDEFINESBYPROPERTIES('2gkIQ1se10HBvjkQffa_sm',#5,$,$,(#74),#171);
#186= IFCRELASSOCIATESMATERIAL('2ItHDLBhr9kfTQmFXiP4x9',#5,$,$,(#74),#172);
ENDSEC;

END-ISO-10303-21;
