ISO-10303-21;
HEADER;
FILE_DESCRIPTION(('ViewDefinition[AISC_Steel_Detailing]', 'Option [BaseQuantities:Off]', 'Option [GridExport:On]', 'Option [Assemblies:Off]', 'Option [Bolts:On]', 'Option [Rebars:On]', 'Option [PourObjects:Off]', 'Option [Welds:On]', 'Option [SurfaceTreatments:On]', 'Option [LocationBy:0]', 'Option [ViewColors:Off]', 'Option [SectionedSpine:Off]', 'Option [PropertySets:On]', 'Option [Export all:Off]'),'2;1');
FILE_NAME('b_111_Qty_1.ifc','2026-05-16T11:53:19',('GIOVANNIPC\\gcorrea'),('Structural Designer'),'IFC Database version: Work','Tekla Structures 2020 Service Pack 5, IFC Export Version: 4.0.0.0 Dec  7 2020','');
FILE_SCHEMA(('IFC2X3'));
ENDSEC;

DATA;
#1= IFCPERSON('GIOVANNIPC\\gcorrea','Undefined',$,$,$,$,$,$);
#2= IFCORGANIZATION($,'Trimble Solutions Corporation',$,$,$);
#3= IFCPERSONANDORGANIZATION(#1,#2,$);
#4= IFCAPPLICATION(#2,'2020 Service Pack 5','Tekla Structures','Multi material modeling');
#5= IFCOWNERHISTORY(#3,#4,$,.NOCHANGE.,$,$,$,1778950399);
#6= IFCCARTESIANPOINT((0.,0.,0.));
#7= IFCDIRECTION((1.,0.,0.));
#8= IFCDIRECTION((0.,1.,0.));
#9= IFCDIRECTION((0.,0.,1.));
#10= IFCAXIS2PLACEMENT3D(#6,#9,#7);
#11= IFCGEOMETRICREPRESENTATIONCONTEXT($,'Model',3,1.E-05,#10,$);
#12= IFCGEOMETRICREPRESENTATIONSUBCONTEXT('Body','Model',*,*,*,*,#11,$,.MODEL_VIEW.,$);
#13= IFCGEOMETRICREPRESENTATIONSUBCONTEXT('Axis','Model',*,*,*,*,#11,$,.GRAPH_VIEW.,$);
#14= IFCGEOMETRICREPRESENTATIONSUBCONTEXT('FootPrint','Model',*,*,*,*,#11,$,.MODEL_VIEW.,$);
#15= IFCSIUNIT(*,.LENGTHUNIT.,.MILLI.,.METRE.);
#16= IFCMEASUREWITHUNIT(IFCRATIOMEASURE(304.8),#15);
#17= IFCDIMENSIONALEXPONENTS(1,0,0,0,0,0,0);
#18= IFCCONVERSIONBASEDUNIT(#17,.LENGTHUNIT.,'FOOT',#16);
#19= IFCSIUNIT(*,.AREAUNIT.,$,.SQUARE_METRE.);
#20= IFCMEASUREWITHUNIT(IFCRATIOMEASURE(0.09290304),#19);
#21= IFCDIMENSIONALEXPONENTS(2,0,0,0,0,0,0);
#22= IFCCONVERSIONBASEDUNIT(#21,.AREAUNIT.,'SQUARE FOOT',#20);
#23= IFCSIUNIT(*,.VOLUMEUNIT.,$,.CUBIC_METRE.);
#24= IFCMEASUREWITHUNIT(IFCRATIOMEASURE(0.028316846592),#23);
#25= IFCDIMENSIONALEXPONENTS(3,0,0,0,0,0,0);
#26= IFCCONVERSIONBASEDUNIT(#25,.VOLUMEUNIT.,'CUBIC FOOT',#24);
#27= IFCSIUNIT(*,.MASSUNIT.,.KILO.,.GRAM.);
#28= IFCSIUNIT(*,.TIMEUNIT.,$,.SECOND.);
#29= IFCSIUNIT(*,.PLANEANGLEUNIT.,$,.RADIAN.);
#30= IFCMEASUREWITHUNIT(IFCRATIOMEASURE(0.0174532925199433),#29);
#31= IFCDIMENSIONALEXPONENTS(0,0,0,0,0,0,0);
#32= IFCCONVERSIONBASEDUNIT(#31,.PLANEANGLEUNIT.,'DEGREE',#30);
#33= IFCSIUNIT(*,.SOLIDANGLEUNIT.,$,.STERADIAN.);
#34= IFCSIUNIT(*,.THERMODYNAMICTEMPERATUREUNIT.,$,.DEGREE_CELSIUS.);
#35= IFCSIUNIT(*,.LUMINOUSINTENSITYUNIT.,$,.LUMEN.);
#36= IFCUNITASSIGNMENT((#15,#19,#23,#27,#28,#29,#33,#34,#35));
#37= IFCPROJECT('2G7ZFDNE16yBDU14FA92Me',#5,'Proyecto',$,$,$,$,(#11),#36);
#38= IFCLOCALPLACEMENT($,#10);
#39= IFCSITE('2xvEzEinjBTea80yOTcujY',#5,'Obra',$,$,#38,$,$,.ELEMENT.,$,$,$,$,$);
#40= IFCLOCALPLACEMENT(#38,#10);
#41= IFCBUILDING('3kpPnGTIH8fvNdJ2NJ2Q3H',#5,'Undefined',$,$,#40,$,$,.ELEMENT.,$,$,$);
#42= IFCLOCALPLACEMENT(#40,#10);
#43= IFCBUILDINGSTOREY('29hdEUCErFze9E_VIAceOd',#5,'Undefined',$,$,#42,$,$,.ELEMENT.,0.);
#44= IFCOWNERHISTORY(#3,#4,$,.NOCHANGE.,$,$,$,1775667600);
#45= IFCCARTESIANPOINT((94453.539364708,17217.5055349713,13675.));
#46= IFCDIRECTION((0.,-1.,0.));
#47= IFCAXIS2PLACEMENT3D(#45,#9,#46);
#48= IFCLOCALPLACEMENT(#42,#47);
#49= IFCDIRECTION((1.,0.));
#50= IFCCARTESIANPOINT((0.,0.));
#51= IFCAXIS2PLACEMENT2D(#50,#49);
#52= IFCISHAPEPROFILEDEF(.AREA.,'IPE450',#51,190.,450.,9.399999619,14.60000038,21.);
#53= IFCDIRECTION((-1.,0.,0.));
#54= IFCCARTESIANPOINT((9081.5451392212,0.,0.));
#55= IFCAXIS2PLACEMENT3D(#54,#53,#46);
#56= IFCEXTRUDEDAREASOLID(#52,#55,#9,9228.5);
#57= IFCDIRECTION((-0.999999999999006,-1.41000000075879E-06,0.));
#58= IFCCARTESIANPOINT((9081.54512583468,-1.40999327413738E-05,-325.));
#59= IFCDIRECTION((-1.41000000075879E-06,0.999999999999006,0.));
#60= IFCAXIS2PLACEMENT3D(#58,#57,#59);
#61= IFCPLANE(#60);
#62= IFCHALFSPACESOLID(#61,.T.);
#63= IFCBOOLEANCLIPPINGRESULT(.DIFFERENCE.,#56,#62);
#64= IFCDIRECTION((0.999999999999006,1.41000000075879E-06,0.));
#65= IFCCARTESIANPOINT((-146.955112190935,1.40999327413738E-05,-325.));
#66= IFCDIRECTION((1.41000000075879E-06,-0.999999999999006,0.));
#67= IFCAXIS2PLACEMENT3D(#65,#64,#66);
#68= IFCPLANE(#67);
#69= IFCHALFSPACESOLID(#68,.T.);
#70= IFCBOOLEANCLIPPINGRESULT(.DIFFERENCE.,#63,#69);
#71= IFCSHAPEREPRESENTATION(#12,'Body','Clipping',(#70));
#72= IFCPRODUCTDEFINITIONSHAPE($,$,(#71));
#73= IFCBEAM('1wotdxiL9EF9xPRcijbkot',#44,'BEAM','IPE450','IPE450',#48,#72,'ID7acb79fb-b152-4e3c-9ed9-6e6b2d96ecb7');
#74= IFCLOCALPLACEMENT(#42,#47);
#75= IFCRECTANGLEPROFILEDEF(.AREA.,'PL59*156.3',#51,59.,156.3);
#76= IFCDIRECTION((0.,0.,-1.));
#77= IFCCARTESIANPOINT((-80.8299768114703,-96.0127154619986,-196.5));
#78= IFCAXIS2PLACEMENT3D(#77,#59,#76);
#79= IFCEXTRUDEDAREASOLID(#75,#78,#9,192.01);
#80= IFCSHAPEREPRESENTATION(#12,'Body','SweptSolid',(#79));
#81= IFCPRODUCTDEFINITIONSHAPE($,$,(#80));
#82= IFCOPENINGELEMENT('0polYYVHbDSRiauUO_Wj0k',#5,$,$,'Recess',#74,#81,$);
#83= IFCRELVOIDSELEMENT('0VzGiOpmj6QQp8gq8yTHPK',#5,$,$,#73,#82);
#84= IFCPROPERTYSINGLEVALUE('FeatureSubTypes',$,$,$);
#85= IFCPROPERTYSINGLEVALUE('RectangleOpeningWidth',$,IFCPOSITIVELENGTHMEASURE(59.),$);
#86= IFCPROPERTYSINGLEVALUE('RectangleOpeningHeight',$,IFCPOSITIVELENGTHMEASURE(156.3),$);
#87= IFCPROPERTYSINGLEVALUE('OpeningDiameter',$,$,$);
#88= IFCPROPERTYSET('1rqvulzIvFTO4fsw2VYZRi',#5,'AISC_EM11_Pset_Opening/Cope',$,(#84,#85,#86,#87));
#89= IFCLOCALPLACEMENT(#42,#47);
#90= IFCRECTANGLEPROFILEDEF(.AREA.,'PL49*156.3',#51,49.,156.3);
#91= IFCCARTESIANPOINT((-80.8299768114703,-96.0127154619986,201.5));
#92= IFCAXIS2PLACEMENT3D(#91,#59,#76);
#93= IFCEXTRUDEDAREASOLID(#90,#92,#9,192.01);
#94= IFCSHAPEREPRESENTATION(#12,'Body','SweptSolid',(#93));
#95= IFCPRODUCTDEFINITIONSHAPE($,$,(#94));
#96= IFCOPENINGELEMENT('3aEN1zGfz2PAeJ_oGQ$hJ4',#5,$,$,'Recess',#89,#95,$);
#97= IFCRELVOIDSELEMENT('3wetoGrL95s9sVmZusSd92',#5,$,$,#73,#96);
#98= IFCPROPERTYSINGLEVALUE('RectangleOpeningWidth',$,IFCPOSITIVELENGTHMEASURE(49.),$);
#99= IFCPROPERTYSET('2nugeujVL8uwFGVi7D2tEv',#5,'AISC_EM11_Pset_Opening/Cope',$,(#84,#98,#86,#87));
#100= IFCLOCALPLACEMENT(#42,#47);
#101= IFCCARTESIANPOINT((9015.41999044695,96.0127154619986,-196.5));
#102= IFCAXIS2PLACEMENT3D(#101,#66,#76);
#103= IFCEXTRUDEDAREASOLID(#75,#102,#9,192.01);
#104= IFCSHAPEREPRESENTATION(#12,'Body','SweptSolid',(#103));
#105= IFCPRODUCTDEFINITIONSHAPE($,$,(#104));
#106= IFCOPENINGELEMENT('2btILQoRTFHeyXPMSmTZ12',#5,$,$,'Recess',#100,#105,$);
#107= IFCRELVOIDSELEMENT('3OALS3dPL6Fw9hutasTNBt',#5,$,$,#73,#106);
#108= IFCLOCALPLACEMENT(#42,#47);
#109= IFCCARTESIANPOINT((9015.41999044695,96.0127154619986,201.5));
#110= IFCAXIS2PLACEMENT3D(#109,#66,#76);
#111= IFCEXTRUDEDAREASOLID(#90,#110,#9,192.01);
#112= IFCSHAPEREPRESENTATION(#12,'Body','SweptSolid',(#111));
#113= IFCPRODUCTDEFINITIONSHAPE($,$,(#112));
#114= IFCOPENINGELEMENT('0x437Ab3bBuP_ncPkttO6g',#5,$,$,'Recess',#108,#113,$);
#115= IFCRELVOIDSELEMENT('2iWq_CflTD4fvLust$Yp5l',#5,$,$,#73,#114);
#116= IFCCARTESIANPOINT((94453.539364708,17180.1856471598,13450.));
#117= IFCAXIS2PLACEMENT3D(#116,#53,#46);
#118= IFCLOCALPLACEMENT(#42,#117);
#119= IFCCIRCLEPROFILEDEF(.AREA.,$,#51,11.);
#120= IFCCARTESIANPOINT((0.,-0.100000000000121,0.));
#121= IFCAXIS2PLACEMENT3D(#120,#8,#7);
#122= IFCEXTRUDEDAREASOLID(#119,#121,#9,14.8);
#123= IFCSHAPEREPRESENTATION(#12,'Body','SweptSolid',(#122));
#124= IFCREPRESENTATIONMAP(#10,#123);
#125= IFCCARTESIANPOINT((0.,0.,50.));
#126= IFCCARTESIANTRANSFORMATIONOPERATOR3D($,$,#125,$,$);
#127= IFCMAPPEDITEM(#124,#126);
#128= IFCCARTESIANPOINT((70.,0.,50.));
#129= IFCCARTESIANTRANSFORMATIONOPERATOR3D($,$,#128,$,$);
#130= IFCMAPPEDITEM(#124,#129);
#131= IFCCARTESIANPOINT((140.,0.,50.));
#132= IFCCARTESIANTRANSFORMATIONOPERATOR3D($,$,#131,$,$);
#133= IFCMAPPEDITEM(#124,#132);
#134= IFCCARTESIANPOINT((210.,0.,50.));
#135= IFCCARTESIANTRANSFORMATIONOPERATOR3D($,$,#134,$,$);
#136= IFCMAPPEDITEM(#124,#135);
#137= IFCCARTESIANPOINT((280.,0.,50.));
#138= IFCCARTESIANTRANSFORMATIONOPERATOR3D($,$,#137,$,$);
#139= IFCMAPPEDITEM(#124,#138);
#140= IFCCARTESIANPOINT((350.,0.,50.));
#141= IFCCARTESIANTRANSFORMATIONOPERATOR3D($,$,#140,$,$);
#142= IFCMAPPEDITEM(#124,#141);
#143= IFCCARTESIANPOINT((420.,0.,50.));
#144= IFCCARTESIANTRANSFORMATIONOPERATOR3D($,$,#143,$,$);
#145= IFCMAPPEDITEM(#124,#144);
#146= IFCCARTESIANPOINT((0.,0.,-50.));
#147= IFCCARTESIANTRANSFORMATIONOPERATOR3D($,$,#146,$,$);
#148= IFCMAPPEDITEM(#124,#147);
#149= IFCCARTESIANPOINT((70.,0.,-50.));
#150= IFCCARTESIANTRANSFORMATIONOPERATOR3D($,$,#149,$,$);
#151= IFCMAPPEDITEM(#124,#150);
#152= IFCCARTESIANPOINT((140.,0.,-50.));
#153= IFCCARTESIANTRANSFORMATIONOPERATOR3D($,$,#152,$,$);
#154= IFCMAPPEDITEM(#124,#153);
#155= IFCCARTESIANPOINT((210.,0.,-50.));
#156= IFCCARTESIANTRANSFORMATIONOPERATOR3D($,$,#155,$,$);
#157= IFCMAPPEDITEM(#124,#156);
#158= IFCCARTESIANPOINT((280.,0.,-50.));
#159= IFCCARTESIANTRANSFORMATIONOPERATOR3D($,$,#158,$,$);
#160= IFCMAPPEDITEM(#124,#159);
#161= IFCCARTESIANPOINT((350.,0.,-50.));
#162= IFCCARTESIANTRANSFORMATIONOPERATOR3D($,$,#161,$,$);
#163= IFCMAPPEDITEM(#124,#162);
#164= IFCCARTESIANPOINT((420.,0.,-50.));
#165= IFCCARTESIANTRANSFORMATIONOPERATOR3D($,$,#164,$,$);
#166= IFCMAPPEDITEM(#124,#165);
#167= IFCSHAPEREPRESENTATION(#12,'Body','MappedRepresentation',(#127,#130,#133,#136,#139,#142,#145,#148,#151,#154,#157,#160,#163,#166));
#168= IFCPRODUCTDEFINITIONSHAPE($,$,(#167));
#169= IFCOPENINGELEMENT('0usKQRa_H8IAyccVF7Hp8V',#5,$,$,'Opening',#118,#168,$);
#170= IFCRELVOIDSELEMENT('0lefFYW6L5ivfg8$BUUQ$f',#5,'Drill Hole',$,#73,#169);
#171= IFCPROPERTYSINGLEVALUE('FeatureSubTypes',$,IFCLABEL('TORNILLO'),$);
#172= IFCPROPERTYSINGLEVALUE('RectangleOpeningWidth',$,$,$);
#173= IFCPROPERTYSINGLEVALUE('RectangleOpeningHeight',$,$,$);
#174= IFCPROPERTYSET('0OeP30scfEo9JCBbe05GIi',#5,'AISC_EM11_Pset_Opening/Cope',$,(#171,#172,#173,#87));
#175= IFCCARTESIANPOINT((94453.539364708,8320.2354091472,13460.));
#176= IFCDIRECTION((0.999999988561416,0.000151251999945088,0.));
#177= IFCDIRECTION((-0.000151251999945667,0.999999988561416,0.));
#178= IFCAXIS2PLACEMENT3D(#175,#176,#177);
#179= IFCLOCALPLACEMENT(#42,#178);
#180= IFCCIRCLEPROFILEDEF(.AREA.,$,#51,11.5);
#181= IFCCARTESIANPOINT((0.,-10.1000000000004,0.));
#182= IFCAXIS2PLACEMENT3D(#181,#8,#7);
#183= IFCEXTRUDEDAREASOLID(#180,#182,#9,14.8);
#184= IFCSHAPEREPRESENTATION(#12,'Body','SweptSolid',(#183));
#185= IFCREPRESENTATIONMAP(#10,#184);
#186= IFCMAPPEDITEM(#185,#126);
#187= IFCMAPPEDITEM(#185,#129);
#188= IFCMAPPEDITEM(#185,#132);
#189= IFCMAPPEDITEM(#185,#135);
#190= IFCMAPPEDITEM(#185,#138);
#191= IFCMAPPEDITEM(#185,#141);
#192= IFCMAPPEDITEM(#185,#144);
#193= IFCMAPPEDITEM(#185,#147);
#194= IFCMAPPEDITEM(#185,#150);
#195= IFCMAPPEDITEM(#185,#153);
#196= IFCMAPPEDITEM(#185,#156);
#197= IFCMAPPEDITEM(#185,#159);
#198= IFCMAPPEDITEM(#185,#162);
#199= IFCMAPPEDITEM(#185,#165);
#200= IFCSHAPEREPRESENTATION(#12,'Body','MappedRepresentation',(#186,#187,#188,#189,#190,#191,#192,#193,#194,#195,#196,#197,#198,#199));
#201= IFCPRODUCTDEFINITIONSHAPE($,$,(#200));
#202= IFCOPENINGELEMENT('0Bc$3JMd5FTRmkNwXqzro5',#5,$,$,'Opening',#179,#201,$);
#203= IFCRELVOIDSELEMENT('0bMV2LKNn4tuh4b4P4VDRc',#5,'Drill Hole',$,#73,#202);
#204= IFCCARTESIANPOINT((94453.539364708,8320.2354091472,13900.));
#205= IFCDIRECTION((-0.999999988561416,-0.000151251999945088,0.));
#206= IFCAXIS2PLACEMENT3D(#204,#205,#177);
#207= IFCLOCALPLACEMENT(#42,#206);
#208= IFCEXTRUDEDAREASOLID(#180,#121,#9,14.8);
#209= IFCSHAPEREPRESENTATION(#12,'Body','SweptSolid',(#208));
#210= IFCREPRESENTATIONMAP(#10,#209);
#211= IFCMAPPEDITEM(#210,#147);
#212= IFCMAPPEDITEM(#210,#150);
#213= IFCMAPPEDITEM(#210,#153);
#214= IFCMAPPEDITEM(#210,#156);
#215= IFCMAPPEDITEM(#210,#159);
#216= IFCMAPPEDITEM(#210,#162);
#217= IFCMAPPEDITEM(#210,#165);
#218= IFCMAPPEDITEM(#210,#126);
#219= IFCMAPPEDITEM(#210,#129);
#220= IFCMAPPEDITEM(#210,#132);
#221= IFCMAPPEDITEM(#210,#135);
#222= IFCMAPPEDITEM(#210,#138);
#223= IFCMAPPEDITEM(#210,#141);
#224= IFCMAPPEDITEM(#210,#144);
#225= IFCSHAPEREPRESENTATION(#12,'Body','MappedRepresentation',(#211,#212,#213,#214,#215,#216,#217,#218,#219,#220,#221,#222,#223,#224));
#226= IFCPRODUCTDEFINITIONSHAPE($,$,(#225));
#227= IFCOPENINGELEMENT('2iafy6iPvDgB72fSOMreyy',#5,$,$,'Opening',#207,#226,$);
#228= IFCRELVOIDSELEMENT('0ByjUokUL4$wuam1PvCgfW',#5,'Drill Hole',$,#73,#227);
#229= IFCCARTESIANPOINT((94453.539364708,17180.1856471598,13900.));
#230= IFCAXIS2PLACEMENT3D(#229,#7,#46);
#231= IFCLOCALPLACEMENT(#42,#230);
#232= IFCSHAPEREPRESENTATION(#12,'Body','MappedRepresentation',(#148,#151,#154,#157,#160,#163,#166,#127,#130,#133,#136,#139,#142,#145));
#233= IFCPRODUCTDEFINITIONSHAPE($,$,(#232));
#234= IFCOPENINGELEMENT('1LQ2SfzTX9vwC16mQdwmtl',#5,$,$,'Opening',#231,#233,$);
#235= IFCRELVOIDSELEMENT('0AKF_c45TDLulbKUkErheH',#5,'Drill Hole',$,#73,#234);
#236= IFCCARTESIANPOINT((94453.539350608,17364.4606471622,13900.));
#237= IFCAXIS2PLACEMENT3D(#236,#66,#76);
#238= IFCLOCALPLACEMENT(#42,#237);
#239= IFCCARTESIANPOINT((0.,-4.80004217644333,0.));
#240= IFCAXIS2PLACEMENT3D(#239,#8,#7);
#241= IFCEXTRUDEDAREASOLID(#119,#240,#9,9.6);
#242= IFCSHAPEREPRESENTATION(#12,'Body','SweptSolid',(#241));
#243= IFCREPRESENTATIONMAP(#10,#242);
#244= IFCCARTESIANPOINT((85.,0.,40.00000000008));
#245= IFCCARTESIANTRANSFORMATIONOPERATOR3D($,$,#244,$,$);
#246= IFCMAPPEDITEM(#243,#245);
#247= IFCCARTESIANPOINT((155.,0.,40.00000000008));
#248= IFCCARTESIANTRANSFORMATIONOPERATOR3D($,$,#247,$,$);
#249= IFCMAPPEDITEM(#243,#248);
#250= IFCCARTESIANPOINT((225.,0.,40.00000000008));
#251= IFCCARTESIANTRANSFORMATIONOPERATOR3D($,$,#250,$,$);
#252= IFCMAPPEDITEM(#243,#251);
#253= IFCCARTESIANPOINT((295.,0.,40.00000000008));
#254= IFCCARTESIANTRANSFORMATIONOPERATOR3D($,$,#253,$,$);
#255= IFCMAPPEDITEM(#243,#254);
#256= IFCCARTESIANPOINT((365.,0.,40.00000000008));
#257= IFCCARTESIANTRANSFORMATIONOPERATOR3D($,$,#256,$,$);
#258= IFCMAPPEDITEM(#243,#257);
#259= IFCSHAPEREPRESENTATION(#12,'Body','MappedRepresentation',(#246,#249,#252,#255,#258));
#260= IFCPRODUCTDEFINITIONSHAPE($,$,(#259));
#261= IFCOPENINGELEMENT('2ulzKTs0j74gmKCsD7Oh18',#5,$,$,'Opening',#238,#260,$);
#262= IFCRELVOIDSELEMENT('3IbOESkqH4WhLe1byX81YT',#5,'Drill Hole',$,#73,#261);
#263= IFCCARTESIANPOINT((94453.5393788079,8135.96040913668,13900.));
#264= IFCAXIS2PLACEMENT3D(#263,#59,#76);
#265= IFCLOCALPLACEMENT(#42,#264);
#266= IFCSHAPEREPRESENTATION(#12,'Body','MappedRepresentation',(#246,#249,#252,#255,#258));
#267= IFCPRODUCTDEFINITIONSHAPE($,$,(#266));
#268= IFCOPENINGELEMENT('3gYkTYtpLC8f7pWF9ifKJf',#5,$,$,'Opening',#265,#267,$);
#269= IFCRELVOIDSELEMENT('3Z3BNaEgP1XOK92qUUhMG4',#5,'Drill Hole',$,#73,#268);
#270= IFCPROPERTYSINGLEVALUE('PieceMark',$,IFCIDENTIFIER('BEAM'),$);
#271= IFCPROPERTYSINGLEVALUE('IndicationMark',$,IFCIDENTIFIER('b/111'),$);
#272= IFCPROPERTYSINGLEVALUE('PrelimMark',$,IFCIDENTIFIER(''),$);
#273= IFCPROPERTYSINGLEVALUE('MainPieceTag',$,IFCBOOLEAN(.F.),$);
#274= IFCPROPERTYSET('0dRRogO892KeQcqKQWmQIB',#5,'AISC_EM11_Pset_PieceIdentification','PieceIdentity',(#270,#271,#272,#273));
#275= IFCPROPERTYSINGLEVALUE('MaterialType',$,IFCIDENTIFIER('STEEL'),$);
#276= IFCPROPERTYSINGLEVALUE('MaterialGrade',$,IFCIDENTIFIER('S235JR'),$);
#277= IFCPROPERTYSET('0rXRniQzz4sh$tvEeESNyP',#5,'AISC_EM11_Pset_Material',$,(#275,#276));
#278= IFCPROPERTYSINGLEVALUE('SkewedAngleY',$,IFCREAL(0.),$);
#279= IFCPROPERTYSINGLEVALUE('SkewedAngleX',$,IFCREAL(0.),$);
#280= IFCPROPERTYSET('1_60ZthZT9yf20Obf3Rgpy',#5,'AISC_EM11_Pset_SkewedEnd',$,(#278,#279));
#281= IFCPROPERTYSET('3eO$EWzKn2AONEVy21ZeRT',#5,'AISC_EM11_Pset_SkewedEnd_2',$,(#278,#279));
#282= IFCMATERIAL('STEEL/S235JR');
#283= IFCRELAGGREGATES('3byh$l5IDE6uRSoDoBk2Wz',#5,$,$,#37,(#39));
#284= IFCRELAGGREGATES('2tEzH1NaVWOAjk4V4T0KoF',#5,$,$,#39,(#41));
#285= IFCRELAGGREGATES('2oPh4hEIHDffT7QxrADPbJ',#5,$,$,#41,(#43));
#286= IFCRELCONTAINEDINSPATIALSTRUCTURE('0axeeI2LHDvgNF5VeQz$BP',#5,$,$,(#73),#43);
#287= IFCRELDEFINESBYPROPERTIES('0y81Wj0ErFswpT9EEmSGRL',#5,$,$,(#106,#82),#88);
#288= IFCRELDEFINESBYPROPERTIES('3cpfmzwgb7585VUoHO0IYP',#5,$,$,(#114,#96),#99);
#289= IFCRELDEFINESBYPROPERTIES('2Esqbp3SLCmehNTyKmhQZF',#5,$,$,(#268,#261,#234,#227,#202,#169),#174);
#290= IFCRELDEFINESBYPROPERTIES('1hNLnMJczDAA338L_296sS',#5,$,$,(#73),#274);
#291= IFCRELDEFINESBYPROPERTIES('3DekqIl45CJ8sLMC_riaTr',#5,$,$,(#73),#277);
#292= IFCRELDEFINESBYPROPERTIES('0IBTxsfIvELxpngrdUvqWf',#5,$,$,(#73),#280);
#293= IFCRELDEFINESBYPROPERTIES('0CLDB6JmjFtuCHR8w5bV39',#5,$,$,(#73),#281);
#294= IFCRELASSOCIATESMATERIAL('3ZrHamNg1Enh9ca027Iwj0',#5,$,$,(#73),#282);
ENDSEC;

END-ISO-10303-21;
