ISO-10303-21;
HEADER;
FILE_DESCRIPTION(('ViewDefinition[AISC_Steel_Detailing]', 'Option [BaseQuantities:Off]', 'Option [GridExport:On]', 'Option [Assemblies:Off]', 'Option [Bolts:On]', 'Option [Rebars:On]', 'Option [PourObjects:Off]', 'Option [Welds:On]', 'Option [SurfaceTreatments:On]', 'Option [LocationBy:0]', 'Option [ViewColors:Off]', 'Option [SectionedSpine:Off]', 'Option [PropertySets:On]', 'Option [Export all:Off]'),'2;1');
FILE_NAME('b_1260_Qty_4.ifc','2026-05-16T11:53:07',('GIOVANNIPC\\gcorrea'),('Structural Designer'),'IFC Database version: Work','Tekla Structures 2020 Service Pack 5, IFC Export Version: 4.0.0.0 Dec  7 2020','');
FILE_SCHEMA(('IFC2X3'));
ENDSEC;

DATA;
#1= IFCPERSON('GIOVANNIPC\\gcorrea','Undefined',$,$,$,$,$,$);
#2= IFCORGANIZATION($,'Trimble Solutions Corporation',$,$,$);
#3= IFCPERSONANDORGANIZATION(#1,#2,$);
#4= IFCAPPLICATION(#2,'2020 Service Pack 5','Tekla Structures','Multi material modeling');
#5= IFCOWNERHISTORY(#3,#4,$,.NOCHANGE.,$,$,$,1778950387);
#6= IFCCARTESIANPOINT((0.,0.,0.));
#7= IFCDIRECTION((1.,0.,0.));
#8= IFCDIRECTION((0.,1.,0.));
#9= IFCDIRECTION((0.,0.,1.));
#10= IFCAXIS2PLACEMENT3D(#6,#9,#7);
#11= IFCGEOMETRICREPRESENTATIONCONTEXT($,'Model',3,1.E-05,#10,$);
#12= IFCGEOMETRICREPRESENTATIONSUBCONTEXT('Body','Model',*,*,*,*,#11,$,.MODEL_VIEW.,$);
#13= IFCGEOMETRICREPRESENTATIONSUBCONTEXT('Axis','Model',*,*,*,*,#11,$,.GRAPH_VIEW.,$);
#14= IFCGEOMETRICREPRESENTATIONSUBCONTEXT('FootPrint','Model',*,*,*,*,#11,$,.MODEL_VIEW.,$);
#15= IFCSIUNIT(*,.LENGTHUNIT.,.MILLI.,.METRE.);
#16= IFCMEASUREWITHUNIT(IFCRATIOMEASURE(304.8),#15);
#17= IFCDIMENSIONALEXPONENTS(1,0,0,0,0,0,0);
#18= IFCCONVERSIONBASEDUNIT(#17,.LENGTHUNIT.,'FOOT',#16);
#19= IFCSIUNIT(*,.AREAUNIT.,$,.SQUARE_METRE.);
#20= IFCMEASUREWITHUNIT(IFCRATIOMEASURE(0.09290304),#19);
#21= IFCDIMENSIONALEXPONENTS(2,0,0,0,0,0,0);
#22= IFCCONVERSIONBASEDUNIT(#21,.AREAUNIT.,'SQUARE FOOT',#20);
#23= IFCSIUNIT(*,.VOLUMEUNIT.,$,.CUBIC_METRE.);
#24= IFCMEASUREWITHUNIT(IFCRATIOMEASURE(0.028316846592),#23);
#25= IFCDIMENSIONALEXPONENTS(3,0,0,0,0,0,0);
#26= IFCCONVERSIONBASEDUNIT(#25,.VOLUMEUNIT.,'CUBIC FOOT',#24);
#27= IFCSIUNIT(*,.MASSUNIT.,.KILO.,.GRAM.);
#28= IFCSIUNIT(*,.TIMEUNIT.,$,.SECOND.);
#29= IFCSIUNIT(*,.PLANEANGLEUNIT.,$,.RADIAN.);
#30= IFCMEASUREWITHUNIT(IFCRATIOMEASURE(0.0174532925199433),#29);
#31= IFCDIMENSIONALEXPONENTS(0,0,0,0,0,0,0);
#32= IFCCONVERSIONBASEDUNIT(#31,.PLANEANGLEUNIT.,'DEGREE',#30);
#33= IFCSIUNIT(*,.SOLIDANGLEUNIT.,$,.STERADIAN.);
#34= IFCSIUNIT(*,.THERMODYNAMICTEMPERATUREUNIT.,$,.DEGREE_CELSIUS.);
#35= IFCSIUNIT(*,.LUMINOUSINTENSITYUNIT.,$,.LUMEN.);
#36= IFCUNITASSIGNMENT((#15,#19,#23,#27,#28,#29,#33,#34,#35));
#37= IFCPROJECT('2G7ZFDNE16yBDU14FA92Me',#5,'Proyecto',$,$,$,$,(#11),#36);
#38= IFCLOCALPLACEMENT($,#10);
#39= IFCSITE('2xvEzEinjBTea80yOTcujY',#5,'Obra',$,$,#38,$,$,.ELEMENT.,$,$,$,$,$);
#40= IFCLOCALPLACEMENT(#38,#10);
#41= IFCBUILDING('0xrHBlpTTDC8HObr5bnnok',#5,'Undefined',$,$,#40,$,$,.ELEMENT.,$,$,$);
#42= IFCLOCALPLACEMENT(#40,#10);
#43= IFCBUILDINGSTOREY('29hdEUCErFze9E_VIAceOd',#5,'Undefined',$,$,#42,$,$,.ELEMENT.,0.);
#44= IFCOWNERHISTORY(#3,#4,$,.NOCHANGE.,$,$,$,1775840400);
#45= IFCCARTESIANPOINT((14912.5955323105,8245.13346581625,32135.));
#46= IFCDIRECTION((-0.000416187000163965,0.999999913394187,0.));
#47= IFCAXIS2PLACEMENT3D(#45,#9,#46);
#48= IFCLOCALPLACEMENT(#42,#47);
#49= IFCDIRECTION((1.,0.));
#50= IFCCARTESIANPOINT((0.,0.));
#51= IFCAXIS2PLACEMENT2D(#50,#49);
#52= IFCISHAPEPROFILEDEF(.AREA.,'IPE330',#51,160.,330.,7.5,11.5,18.);
#53= IFCDIRECTION((0.,-1.,0.));
#54= IFCDIRECTION((-1.,0.,0.));
#55= IFCCARTESIANPOINT((9020.06646295325,0.,-3.63797880709171E-12));
#56= IFCAXIS2PLACEMENT3D(#55,#54,#53);
#57= IFCEXTRUDEDAREASOLID(#52,#56,#9,9030.14);
#58= IFCDIRECTION((-0.999999924613104,0.000388296002425651,0.));
#59= IFCCARTESIANPOINT((9019.99697003639,0.0424989974690106,-265.000000000004));
#60= IFCDIRECTION((0.000388296002425651,0.999999924613104,0.));
#61= IFCAXIS2PLACEMENT3D(#59,#58,#60);
#62= IFCPLANE(#61);
#63= IFCHALFSPACESOLID(#62,.T.);
#64= IFCBOOLEANCLIPPINGRESULT(.DIFFERENCE.,#57,#63);
#65= IFCDIRECTION((0.999999913394187,-0.000416187000164427,0.));
#66= IFCCARTESIANPOINT((-10.0006081589672,-0.045551667088148,-265.000000000004));
#67= IFCDIRECTION((-0.000416187000164427,-0.999999913394187,0.));
#68= IFCAXIS2PLACEMENT3D(#66,#65,#67);
#69= IFCPLANE(#68);
#70= IFCHALFSPACESOLID(#69,.T.);
#71= IFCBOOLEANCLIPPINGRESULT(.DIFFERENCE.,#64,#70);
#72= IFCSHAPEREPRESENTATION(#12,'Body','Clipping',(#71));
#73= IFCPRODUCTDEFINITIONSHAPE($,$,(#72));
#74= IFCBEAM('08IKlgyHbAcuKDks13FMg8',#44,'BEAM','IPE330','IPE330',#48,#73,'ID08494bea-f119-4a9b-850d-bb60433d6a88');
#75= IFCLOCALPLACEMENT(#42,#47);
#76= IFCRECTANGLEPROFILEDEF(.AREA.,'PL42.2*111.4',#51,42.2,111.4);
#77= IFCDIRECTION((0.,0.,-1.));
#78= IFCDIRECTION((-0.000388296002420172,-0.999999924613104,0.));
#79= IFCCARTESIANPOINT((9075.75340121791,80.9783621296073,144.899999619996));
#80= IFCAXIS2PLACEMENT3D(#79,#78,#77);
#81= IFCEXTRUDEDAREASOLID(#76,#80,#9,165.51);
#82= IFCSHAPEREPRESENTATION(#12,'Body','SweptSolid',(#81));
#83= IFCPRODUCTDEFINITIONSHAPE($,$,(#82));
#84= IFCOPENINGELEMENT('3i2NtmdmD48xRvIjIF0oCs',#5,$,$,'Recess',#75,#83,$);
#85= IFCRELVOIDSELEMENT('1PH0qlMfX2sB8a3WxdVBt8',#5,$,$,#74,#84);
#86= IFCPROPERTYSINGLEVALUE('FeatureSubTypes',$,$,$);
#87= IFCPROPERTYSINGLEVALUE('RectangleOpeningWidth',$,IFCPOSITIVELENGTHMEASURE(42.2),$);
#88= IFCPROPERTYSINGLEVALUE('RectangleOpeningHeight',$,IFCPOSITIVELENGTHMEASURE(111.4),$);
#89= IFCPROPERTYSINGLEVALUE('OpeningDiameter',$,$,$);
#90= IFCPROPERTYSET('3UjSPJ0Dv8PRPL47tiaW88',#5,'AISC_EM11_Pset_Opening/Cope',$,(#86,#87,#88,#89));
#91= IFCLOCALPLACEMENT(#42,#47);
#92= IFCDIRECTION((0.000416187000163965,0.999999913394187,0.));
#93= IFCCARTESIANPOINT((-65.7592954297417,-80.9768078928574,144.899999619996));
#94= IFCAXIS2PLACEMENT3D(#93,#92,#77);
#95= IFCEXTRUDEDAREASOLID(#76,#94,#9,165.75);
#96= IFCSHAPEREPRESENTATION(#12,'Body','SweptSolid',(#95));
#97= IFCPRODUCTDEFINITIONSHAPE($,$,(#96));
#98= IFCOPENINGELEMENT('13YioRUPb4ZA8HHQLbVg94',#5,$,$,'Recess',#91,#97,$);
#99= IFCRELVOIDSELEMENT('1p3a4UxpPA7QvdiZLRN3a$',#5,$,$,#74,#98);
#100= IFCCARTESIANPOINT((14908.7990278365,17265.1296369798,32205.));
#101= IFCDIRECTION((2.78909999888129E-05,-0.999999999611046,0.));
#102= IFCAXIS2PLACEMENT3D(#100,#101,#77);
#103= IFCLOCALPLACEMENT(#42,#102);
#104= IFCCIRCLEPROFILEDEF(.AREA.,$,#51,11.);
#105= IFCCARTESIANPOINT((0.,-3.79196945728217,0.));
#106= IFCAXIS2PLACEMENT3D(#105,#8,#7);
#107= IFCEXTRUDEDAREASOLID(#104,#106,#9,7.7);
#108= IFCSHAPEREPRESENTATION(#12,'Body','SweptSolid',(#107));
#109= IFCREPRESENTATIONMAP(#10,#108);
#110= IFCCARTESIANPOINT((40.,0.,39.9999999999782));
#111= IFCCARTESIANTRANSFORMATIONOPERATOR3D($,$,#110,$,$);
#112= IFCMAPPEDITEM(#109,#111);
#113= IFCCARTESIANPOINT((100.,0.,39.9999999999782));
#114= IFCCARTESIANTRANSFORMATIONOPERATOR3D($,$,#113,$,$);
#115= IFCMAPPEDITEM(#109,#114);
#116= IFCSHAPEREPRESENTATION(#12,'Body','MappedRepresentation',(#112,#115));
#117= IFCPRODUCTDEFINITIONSHAPE($,$,(#116));
#118= IFCOPENINGELEMENT('2NFiKuCET79eVFVRj97cdk',#5,$,$,'Opening',#103,#117,$);
#119= IFCRELVOIDSELEMENT('2Ddra0MC93HwGoH9ytiM9T',#5,'Drill Hole',$,#74,#118);
#120= IFCPROPERTYSINGLEVALUE('FeatureSubTypes',$,IFCLABEL('TORNILLO'),$);
#121= IFCPROPERTYSINGLEVALUE('RectangleOpeningWidth',$,$,$);
#122= IFCPROPERTYSINGLEVALUE('RectangleOpeningHeight',$,$,$);
#123= IFCPROPERTYSET('2Q4WsJGUjAOAXJsLIok$Sm',#5,'AISC_EM11_Pset_Opening/Cope',$,(#120,#121,#122,#89));
#124= IFCCARTESIANPOINT((14912.6452460968,8235.1328774814,32205.));
#125= IFCAXIS2PLACEMENT3D(#124,#8,#77);
#126= IFCLOCALPLACEMENT(#42,#125);
#127= IFCCARTESIANPOINT((0.,-3.78780117228994,0.));
#128= IFCAXIS2PLACEMENT3D(#127,#8,#7);
#129= IFCEXTRUDEDAREASOLID(#104,#128,#9,7.7);
#130= IFCSHAPEREPRESENTATION(#12,'Body','SweptSolid',(#129));
#131= IFCREPRESENTATIONMAP(#10,#130);
#132= IFCMAPPEDITEM(#131,#111);
#133= IFCMAPPEDITEM(#131,#114);
#134= IFCSHAPEREPRESENTATION(#12,'Body','MappedRepresentation',(#132,#133));
#135= IFCPRODUCTDEFINITIONSHAPE($,$,(#134));
#136= IFCOPENINGELEMENT('03fRRP5NjBuvciubDnxB6m',#5,$,$,'Opening',#126,#135,$);
#137= IFCRELVOIDSELEMENT('1bTqouLJjEs987428pwq0I',#5,'Drill Hole',$,#74,#136);
#138= IFCPROPERTYSINGLEVALUE('PieceMark',$,IFCIDENTIFIER('BEAM'),$);
#139= IFCPROPERTYSINGLEVALUE('IndicationMark',$,IFCIDENTIFIER('b/1260'),$);
#140= IFCPROPERTYSINGLEVALUE('PrelimMark',$,IFCIDENTIFIER(''),$);
#141= IFCPROPERTYSINGLEVALUE('MainPieceTag',$,IFCBOOLEAN(.T.),$);
#142= IFCPROPERTYSET('2edsx_0tPBZRl4RT9oZkFm',#5,'AISC_EM11_Pset_PieceIdentification','PieceIdentity',(#138,#139,#140,#141));
#143= IFCPROPERTYSINGLEVALUE('MaterialType',$,IFCIDENTIFIER('STEEL'),$);
#144= IFCPROPERTYSINGLEVALUE('MaterialGrade',$,IFCIDENTIFIER('S235JR'),$);
#145= IFCPROPERTYSET('1Db4Ti56b9wQCMiQmjP4DM',#5,'AISC_EM11_Pset_Material',$,(#143,#144));
#146= IFCPROPERTYSINGLEVALUE('SkewedAngleY',$,IFCREAL(0.),$);
#147= IFCPROPERTYSINGLEVALUE('SkewedAngleX',$,IFCREAL(0.02385),$);
#148= IFCPROPERTYSET('2Hy9o$aFn1uBf19_5aeTjy',#5,'AISC_EM11_Pset_SkewedEnd',$,(#146,#147));
#149= IFCPROPERTYSINGLEVALUE('SkewedAngleX',$,IFCREAL(0.02225),$);
#150= IFCPROPERTYSET('16hAuNWqLCBeY8otRhMLGH',#5,'AISC_EM11_Pset_SkewedEnd_2',$,(#146,#149));
#151= IFCMATERIAL('STEEL/S235JR');
#152= IFCRELAGGREGATES('1dqHchJ0L04vyDR5643axq',#5,$,$,#37,(#39));
#153= IFCRELAGGREGATES('2v6ZuzbIdIMBEVjNOMLsD6',#5,$,$,#39,(#41));
#154= IFCRELAGGREGATES('0dulZqvcP7tOlkwUROGWlf',#5,$,$,#41,(#43));
#155= IFCRELCONTAINEDINSPATIALSTRUCTURE('0WbhetdEn0bvR58i6o7jXi',#5,$,$,(#74),#43);
#156= IFCRELDEFINESBYPROPERTIES('2MxvPmaLT14uNLUYfoYs9z',#5,$,$,(#98,#84),#90);
#157= IFCRELDEFINESBYPROPERTIES('1wMJWlr0bFZwwu32BO_2HJ',#5,$,$,(#136,#118),#123);
#158= IFCRELDEFINESBYPROPERTIES('3ib0ePpaf8jwElo5FlHJE9',#5,$,$,(#74),#142);
#159= IFCRELDEFINESBYPROPERTIES('3wOy0snmf6Hg_trPAauuRh',#5,$,$,(#74),#145);
#160= IFCRELDEFINESBYPROPERTIES('3grHCDYRn2aeW9pXBRfsKs',#5,$,$,(#74),#148);
#161= IFCRELDEFINESBYPROPERTIES('13LGrR$5f83O0NjBzL56jj',#5,$,$,(#74),#150);
#162= IFCRELASSOCIATESMATERIAL('3wB$5a05PAsg84PtVjGljz',#5,$,$,(#74),#151);
ENDSEC;

END-ISO-10303-21;
