ISO-10303-21;
HEADER;
FILE_DESCRIPTION(('ViewDefinition[AISC_Steel_Detailing]', 'Option [BaseQuantities:Off]', 'Option [GridExport:On]', 'Option [Assemblies:Off]', 'Option [Bolts:On]', 'Option [Rebars:On]', 'Option [PourObjects:Off]', 'Option [Welds:On]', 'Option [SurfaceTreatments:On]', 'Option [LocationBy:0]', 'Option [ViewColors:Off]', 'Option [SectionedSpine:Off]', 'Option [PropertySets:On]', 'Option [Export all:Off]'),'2;1');
FILE_NAME('b_1295_Qty_1.ifc','2026-05-16T11:53:02',('GIOVANNIPC\\gcorrea'),('Structural Designer'),'IFC Database version: Work','Tekla Structures 2020 Service Pack 5, IFC Export Version: 4.0.0.0 Dec  7 2020','');
FILE_SCHEMA(('IFC2X3'));
ENDSEC;

DATA;
#1= IFCPERSON('GIOVANNIPC\\gcorrea','Undefined',$,$,$,$,$,$);
#2= IFCORGANIZATION($,'Trimble Solutions Corporation',$,$,$);
#3= IFCPERSONANDORGANIZATION(#1,#2,$);
#4= IFCAPPLICATION(#2,'2020 Service Pack 5','Tekla Structures','Multi material modeling');
#5= IFCOWNERHISTORY(#3,#4,$,.NOCHANGE.,$,$,$,1778950382);
#6= IFCCARTESIANPOINT((0.,0.,0.));
#7= IFCDIRECTION((1.,0.,0.));
#8= IFCDIRECTION((0.,1.,0.));
#9= IFCDIRECTION((0.,0.,1.));
#10= IFCAXIS2PLACEMENT3D(#6,#9,#7);
#11= IFCGEOMETRICREPRESENTATIONCONTEXT($,'Model',3,1.E-05,#10,$);
#12= IFCGEOMETRICREPRESENTATIONSUBCONTEXT('Body','Model',*,*,*,*,#11,$,.MODEL_VIEW.,$);
#13= IFCGEOMETRICREPRESENTATIONSUBCONTEXT('Axis','Model',*,*,*,*,#11,$,.GRAPH_VIEW.,$);
#14= IFCGEOMETRICREPRESENTATIONSUBCONTEXT('FootPrint','Model',*,*,*,*,#11,$,.MODEL_VIEW.,$);
#15= IFCSIUNIT(*,.LENGTHUNIT.,.MILLI.,.METRE.);
#16= IFCMEASUREWITHUNIT(IFCRATIOMEASURE(304.8),#15);
#17= IFCDIMENSIONALEXPONENTS(1,0,0,0,0,0,0);
#18= IFCCONVERSIONBASEDUNIT(#17,.LENGTHUNIT.,'FOOT',#16);
#19= IFCSIUNIT(*,.AREAUNIT.,$,.SQUARE_METRE.);
#20= IFCMEASUREWITHUNIT(IFCRATIOMEASURE(0.09290304),#19);
#21= IFCDIMENSIONALEXPONENTS(2,0,0,0,0,0,0);
#22= IFCCONVERSIONBASEDUNIT(#21,.AREAUNIT.,'SQUARE FOOT',#20);
#23= IFCSIUNIT(*,.VOLUMEUNIT.,$,.CUBIC_METRE.);
#24= IFCMEASUREWITHUNIT(IFCRATIOMEASURE(0.028316846592),#23);
#25= IFCDIMENSIONALEXPONENTS(3,0,0,0,0,0,0);
#26= IFCCONVERSIONBASEDUNIT(#25,.VOLUMEUNIT.,'CUBIC FOOT',#24);
#27= IFCSIUNIT(*,.MASSUNIT.,.KILO.,.GRAM.);
#28= IFCSIUNIT(*,.TIMEUNIT.,$,.SECOND.);
#29= IFCSIUNIT(*,.PLANEANGLEUNIT.,$,.RADIAN.);
#30= IFCMEASUREWITHUNIT(IFCRATIOMEASURE(0.0174532925199433),#29);
#31= IFCDIMENSIONALEXPONENTS(0,0,0,0,0,0,0);
#32= IFCCONVERSIONBASEDUNIT(#31,.PLANEANGLEUNIT.,'DEGREE',#30);
#33= IFCSIUNIT(*,.SOLIDANGLEUNIT.,$,.STERADIAN.);
#34= IFCSIUNIT(*,.THERMODYNAMICTEMPERATUREUNIT.,$,.DEGREE_CELSIUS.);
#35= IFCSIUNIT(*,.LUMINOUSINTENSITYUNIT.,$,.LUMEN.);
#36= IFCUNITASSIGNMENT((#15,#19,#23,#27,#28,#29,#33,#34,#35));
#37= IFCPROJECT('2G7ZFDNE16yBDU14FA92Me',#5,'Proyecto',$,$,$,$,(#11),#36);
#38= IFCLOCALPLACEMENT($,#10);
#39= IFCSITE('2xvEzEinjBTea80yOTcujY',#5,'Obra',$,$,#38,$,$,.ELEMENT.,$,$,$,$,$);
#40= IFCLOCALPLACEMENT(#38,#10);
#41= IFCBUILDING('3$cfWVl8T1tfLGqN8M78EE',#5,'Undefined',$,$,#40,$,$,.ELEMENT.,$,$,$);
#42= IFCLOCALPLACEMENT(#40,#10);
#43= IFCBUILDINGSTOREY('29hdEUCErFze9E_VIAceOd',#5,'Undefined',$,$,#42,$,$,.ELEMENT.,0.);
#44= IFCOWNERHISTORY(#3,#4,$,.NOCHANGE.,$,$,$,1776286800);
#45= IFCCARTESIANPOINT((65874.9997253418,19740.8714599609,36715.));
#46= IFCAXIS2PLACEMENT3D(#45,#9,#8);
#47= IFCLOCALPLACEMENT(#42,#46);
#48= IFCDIRECTION((1.,0.));
#49= IFCCARTESIANPOINT((0.,0.));
#50= IFCAXIS2PLACEMENT2D(#49,#48);
#51= IFCISHAPEPROFILEDEF(.AREA.,'IPE270',#50,135.,270.,6.599999905,10.19999981,15.);
#52= IFCDIRECTION((0.,-1.,0.));
#53= IFCDIRECTION((-1.,0.,0.));
#54= IFCCARTESIANPOINT((884.317191894043,0.,0.));
#55= IFCAXIS2PLACEMENT3D(#54,#53,#52);
#56= IFCEXTRUDEDAREASOLID(#51,#55,#9,894.32);
#57= IFCDIRECTION((-0.999999999998902,-1.48199999966729E-06,0.));
#58= IFCCARTESIANPOINT((884.316957031329,-0.000109964108560234,-235.));
#59= IFCDIRECTION((-1.48199999966729E-06,0.999999999998902,0.));
#60= IFCAXIS2PLACEMENT3D(#58,#57,#59);
#61= IFCPLANE(#60);
#62= IFCHALFSPACESOLID(#61,.T.);
#63= IFCBOOLEANCLIPPINGRESULT(.DIFFERENCE.,#56,#62);
#64= IFCDIRECTION((0.999999999998073,1.96299999879179E-06,0.));
#65= IFCCARTESIANPOINT((-10.0003872950001,0.000145654223160818,-235.));
#66= IFCDIRECTION((1.96299999879179E-06,-0.999999999998073,0.));
#67= IFCAXIS2PLACEMENT3D(#65,#64,#66);
#68= IFCPLANE(#67);
#69= IFCHALFSPACESOLID(#68,.T.);
#70= IFCBOOLEANCLIPPINGRESULT(.DIFFERENCE.,#63,#69);
#71= IFCSHAPEREPRESENTATION(#12,'Body','Clipping',(#70));
#72= IFCPRODUCTDEFINITIONSHAPE($,$,(#71));
#73= IFCBEAM('0Q1xbhspz1Ru60C2LdTmCD',#44,'BEAM','IPE270','IPE270',#47,#72,'ID1a07b96b-db3f-416f-8180-30256777030d');
#74= IFCLOCALPLACEMENT(#42,#46);
#75= IFCRECTANGLEPROFILEDEF(.AREA.,'PL26.2*76.2',#50,26.2,76.2);
#76= IFCDIRECTION((0.,0.,-1.));
#77= IFCCARTESIANPOINT((922.416855535157,68.5013818398584,-122.900000095004));
#78= IFCAXIS2PLACEMENT3D(#77,#66,#76);
#79= IFCEXTRUDEDAREASOLID(#75,#78,#9,137.);
#80= IFCSHAPEREPRESENTATION(#12,'Body','SweptSolid',(#79));
#81= IFCPRODUCTDEFINITIONSHAPE($,$,(#80));
#82= IFCOPENINGELEMENT('2JHMCm6Af5YOgIpjdmYQOQ',#5,$,$,'Recess',#74,#81,$);
#83= IFCRELVOIDSELEMENT('1bOmyVTsvBbeNHoVu6FIgU',#5,$,$,#73,#82);
#84= IFCPROPERTYSINGLEVALUE('FeatureSubTypes',$,$,$);
#85= IFCPROPERTYSINGLEVALUE('RectangleOpeningWidth',$,IFCPOSITIVELENGTHMEASURE(26.2),$);
#86= IFCPROPERTYSINGLEVALUE('RectangleOpeningHeight',$,IFCPOSITIVELENGTHMEASURE(76.2),$);
#87= IFCPROPERTYSINGLEVALUE('OpeningDiameter',$,$,$);
#88= IFCPROPERTYSET('1T1Kq6r7z1yvzwP49o0iGp',#5,'AISC_EM11_Pset_Opening/Cope',$,(#84,#85,#86,#87));
#89= IFCLOCALPLACEMENT(#42,#46);
#90= IFCCARTESIANPOINT((922.416855535157,68.5013818398584,122.900000095004));
#91= IFCAXIS2PLACEMENT3D(#90,#66,#76);
#92= IFCEXTRUDEDAREASOLID(#75,#91,#9,137.);
#93= IFCSHAPEREPRESENTATION(#12,'Body','SweptSolid',(#92));
#94= IFCPRODUCTDEFINITIONSHAPE($,$,(#93));
#95= IFCOPENINGELEMENT('3h$ywMQYj37Qfj3byM0mAc',#5,$,$,'Recess',#89,#94,$);
#96= IFCRELVOIDSELEMENT('0a8YGsCzTDXAm1A4v5wYe8',#5,$,$,#73,#95);
#97= IFCLOCALPLACEMENT(#42,#46);
#98= IFCCARTESIANPOINT((-48.1002528437239,-68.5018107024953,-122.900000095004));
#99= IFCAXIS2PLACEMENT3D(#98,#59,#76);
#100= IFCEXTRUDEDAREASOLID(#75,#99,#9,137.);
#101= IFCSHAPEREPRESENTATION(#12,'Body','SweptSolid',(#100));
#102= IFCPRODUCTDEFINITIONSHAPE($,$,(#101));
#103= IFCOPENINGELEMENT('3eMMGA_45A1954cQy2AfOh',#5,$,$,'Recess',#97,#102,$);
#104= IFCRELVOIDSELEMENT('3v_auK5j1A29Tvluey7HFz',#5,$,$,#73,#103);
#105= IFCLOCALPLACEMENT(#42,#46);
#106= IFCCARTESIANPOINT((-48.1002528437239,-68.5018107024953,122.900000095004));
#107= IFCAXIS2PLACEMENT3D(#106,#59,#76);
#108= IFCEXTRUDEDAREASOLID(#75,#107,#9,137.);
#109= IFCSHAPEREPRESENTATION(#12,'Body','SweptSolid',(#108));
#110= IFCPRODUCTDEFINITIONSHAPE($,$,(#109));
#111= IFCOPENINGELEMENT('1wANPsotP38R4fQOsBxNm2',#5,$,$,'Recess',#105,#110,$);
#112= IFCRELVOIDSELEMENT('2Vf0g0OvLDcO6Ohr8enmdp',#5,$,$,#73,#111);
#113= IFCCARTESIANPOINT((65874.9998353059,20625.1884169916,36815.));
#114= IFCAXIS2PLACEMENT3D(#113,#66,#76);
#115= IFCLOCALPLACEMENT(#42,#114);
#116= IFCCIRCLEPROFILEDEF(.AREA.,$,#50,11.5);
#117= IFCCARTESIANPOINT((0.,-3.40018401969498,0.));
#118= IFCAXIS2PLACEMENT3D(#117,#8,#7);
#119= IFCEXTRUDEDAREASOLID(#116,#118,#9,6.8);
#120= IFCSHAPEREPRESENTATION(#12,'Body','SweptSolid',(#119));
#121= IFCREPRESENTATIONMAP(#10,#120);
#122= IFCCARTESIANPOINT((40.,0.,50.0000000001091));
#123= IFCCARTESIANTRANSFORMATIONOPERATOR3D($,$,#122,$,$);
#124= IFCMAPPEDITEM(#121,#123);
#125= IFCCARTESIANPOINT((100.,0.,50.0000000001091));
#126= IFCCARTESIANTRANSFORMATIONOPERATOR3D($,$,#125,$,$);
#127= IFCMAPPEDITEM(#121,#126);
#128= IFCCARTESIANPOINT((160.,0.,50.0000000001091));
#129= IFCCARTESIANTRANSFORMATIONOPERATOR3D($,$,#128,$,$);
#130= IFCMAPPEDITEM(#121,#129);
#131= IFCSHAPEREPRESENTATION(#12,'Body','MappedRepresentation',(#124,#127,#130));
#132= IFCPRODUCTDEFINITIONSHAPE($,$,(#131));
#133= IFCOPENINGELEMENT('04NPK8WnL8oe6Ztgyrq$6x',#5,$,$,'Opening',#115,#132,$);
#134= IFCRELVOIDSELEMENT('0P$kCXgEHFMhqUw$SwRRyA',#5,'Drill Hole',$,#73,#133);
#135= IFCPROPERTYSINGLEVALUE('FeatureSubTypes',$,IFCLABEL('TORNILLO'),$);
#136= IFCPROPERTYSINGLEVALUE('RectangleOpeningWidth',$,$,$);
#137= IFCPROPERTYSINGLEVALUE('RectangleOpeningHeight',$,$,$);
#138= IFCPROPERTYSET('2AWLZwtPj8zu$y4bxHoVsi',#5,'AISC_EM11_Pset_Opening/Cope',$,(#135,#136,#137,#87));
#139= IFCCARTESIANPOINT((65874.9995796876,19730.8710726631,36815.));
#140= IFCAXIS2PLACEMENT3D(#139,#59,#76);
#141= IFCLOCALPLACEMENT(#42,#140);
#142= IFCCARTESIANPOINT((0.,-3.400243756501,0.));
#143= IFCAXIS2PLACEMENT3D(#142,#8,#7);
#144= IFCEXTRUDEDAREASOLID(#116,#143,#9,6.8);
#145= IFCSHAPEREPRESENTATION(#12,'Body','SweptSolid',(#144));
#146= IFCREPRESENTATIONMAP(#10,#145);
#147= IFCMAPPEDITEM(#146,#123);
#148= IFCMAPPEDITEM(#146,#126);
#149= IFCMAPPEDITEM(#146,#129);
#150= IFCSHAPEREPRESENTATION(#12,'Body','MappedRepresentation',(#147,#148,#149));
#151= IFCPRODUCTDEFINITIONSHAPE($,$,(#150));
#152= IFCOPENINGELEMENT('2mHT9aVWX8NQtCBJ18AQEB',#5,$,$,'Opening',#141,#151,$);
#153= IFCRELVOIDSELEMENT('3LlC00EE1AgQIqtjzUgmI5',#5,'Drill Hole',$,#73,#152);
#154= IFCPROPERTYSINGLEVALUE('PieceMark',$,IFCIDENTIFIER('BEAM'),$);
#155= IFCPROPERTYSINGLEVALUE('IndicationMark',$,IFCIDENTIFIER('b/1295'),$);
#156= IFCPROPERTYSINGLEVALUE('PrelimMark',$,IFCIDENTIFIER(''),$);
#157= IFCPROPERTYSINGLEVALUE('MainPieceTag',$,IFCBOOLEAN(.T.),$);
#158= IFCPROPERTYSET('05hed0BFf1sAFZIdu2KYFJ',#5,'AISC_EM11_Pset_PieceIdentification','PieceIdentity',(#154,#155,#156,#157));
#159= IFCPROPERTYSINGLEVALUE('MaterialType',$,IFCIDENTIFIER('STEEL'),$);
#160= IFCPROPERTYSINGLEVALUE('MaterialGrade',$,IFCIDENTIFIER('S235JR'),$);
#161= IFCPROPERTYSET('0VbwLdWpL45883dhs2CgIe',#5,'AISC_EM11_Pset_Material',$,(#159,#160));
#162= IFCPROPERTYSINGLEVALUE('SkewedAngleY',$,IFCREAL(0.),$);
#163= IFCPROPERTYSINGLEVALUE('SkewedAngleX',$,IFCREAL(-0.00011),$);
#164= IFCPROPERTYSET('2OGNhYj797exrStoeLyloj',#5,'AISC_EM11_Pset_SkewedEnd',$,(#162,#163));
#165= IFCPROPERTYSINGLEVALUE('SkewedAngleX',$,IFCREAL(-8.E-05),$);
#166= IFCPROPERTYSET('0c$fHhfxD0$83lJCrevJMt',#5,'AISC_EM11_Pset_SkewedEnd_2',$,(#162,#165));
#167= IFCMATERIAL('STEEL/S235JR');
#168= IFCRELAGGREGATES('0N0AoNY_P5GQsLfTLrICYw',#5,$,$,#37,(#39));
#169= IFCRELAGGREGATES('2fIS4fqGhNYi8dxld7aUqC',#5,$,$,#39,(#41));
#170= IFCRELAGGREGATES('3_D8OGlo1CcgT7RPw9YHLo',#5,$,$,#41,(#43));
#171= IFCRELCONTAINEDINSPATIALSTRUCTURE('2CBY6TEavAvv3HAfeqyYI2',#5,$,$,(#73),#43);
#172= IFCRELDEFINESBYPROPERTIES('24gtuHhdP6PeISVrrLLyxn',#5,$,$,(#111,#103,#95,#82),#88);
#173= IFCRELDEFINESBYPROPERTIES('1E30iePz58Wvs78Die1z6D',#5,$,$,(#152,#133),#138);
#174= IFCRELDEFINESBYPROPERTIES('3TCCceZHP8GgA9kLnMeRkh',#5,$,$,(#73),#158);
#175= IFCRELDEFINESBYPROPERTIES('0PLvWz2JPERxRBvc1kKZVS',#5,$,$,(#73),#161);
#176= IFCRELDEFINESBYPROPERTIES('3Frn6Z4WX14f$v5ZUxicqX',#5,$,$,(#73),#164);
#177= IFCRELDEFINESBYPROPERTIES('2eNJ3ALfbD_x60Kx0ohmu_',#5,$,$,(#73),#166);
#178= IFCRELASSOCIATESMATERIAL('2n7CUgfXr3kQlgGFssZiwY',#5,$,$,(#73),#167);
ENDSEC;

END-ISO-10303-21;
