ISO-10303-21;
HEADER;
FILE_DESCRIPTION(('ViewDefinition[AISC_Steel_Detailing]', 'Option [BaseQuantities:Off]', 'Option [GridExport:On]', 'Option [Assemblies:Off]', 'Option [Bolts:On]', 'Option [Rebars:On]', 'Option [PourObjects:Off]', 'Option [Welds:On]', 'Option [SurfaceTreatments:On]', 'Option [LocationBy:0]', 'Option [ViewColors:Off]', 'Option [SectionedSpine:Off]', 'Option [PropertySets:On]', 'Option [Export all:Off]'),'2;1');
FILE_NAME('b_1209_Qty_2.ifc','2026-05-16T11:53:15',('GIOVANNIPC\\gcorrea'),('Structural Designer'),'IFC Database version: Work','Tekla Structures 2020 Service Pack 5, IFC Export Version: 4.0.0.0 Dec  7 2020','');
FILE_SCHEMA(('IFC2X3'));
ENDSEC;

DATA;
#1= IFCPERSON('GIOVANNIPC\\gcorrea','Undefined',$,$,$,$,$,$);
#2= IFCORGANIZATION($,'Trimble Solutions Corporation',$,$,$);
#3= IFCPERSONANDORGANIZATION(#1,#2,$);
#4= IFCAPPLICATION(#2,'2020 Service Pack 5','Tekla Structures','Multi material modeling');
#5= IFCOWNERHISTORY(#3,#4,$,.NOCHANGE.,$,$,$,1778950395);
#6= IFCCARTESIANPOINT((0.,0.,0.));
#7= IFCDIRECTION((1.,0.,0.));
#8= IFCDIRECTION((0.,1.,0.));
#9= IFCDIRECTION((0.,0.,1.));
#10= IFCAXIS2PLACEMENT3D(#6,#9,#7);
#11= IFCGEOMETRICREPRESENTATIONCONTEXT($,'Model',3,1.E-05,#10,$);
#12= IFCGEOMETRICREPRESENTATIONSUBCONTEXT('Body','Model',*,*,*,*,#11,$,.MODEL_VIEW.,$);
#13= IFCGEOMETRICREPRESENTATIONSUBCONTEXT('Axis','Model',*,*,*,*,#11,$,.GRAPH_VIEW.,$);
#14= IFCGEOMETRICREPRESENTATIONSUBCONTEXT('FootPrint','Model',*,*,*,*,#11,$,.MODEL_VIEW.,$);
#15= IFCSIUNIT(*,.LENGTHUNIT.,.MILLI.,.METRE.);
#16= IFCMEASUREWITHUNIT(IFCRATIOMEASURE(304.8),#15);
#17= IFCDIMENSIONALEXPONENTS(1,0,0,0,0,0,0);
#18= IFCCONVERSIONBASEDUNIT(#17,.LENGTHUNIT.,'FOOT',#16);
#19= IFCSIUNIT(*,.AREAUNIT.,$,.SQUARE_METRE.);
#20= IFCMEASUREWITHUNIT(IFCRATIOMEASURE(0.09290304),#19);
#21= IFCDIMENSIONALEXPONENTS(2,0,0,0,0,0,0);
#22= IFCCONVERSIONBASEDUNIT(#21,.AREAUNIT.,'SQUARE FOOT',#20);
#23= IFCSIUNIT(*,.VOLUMEUNIT.,$,.CUBIC_METRE.);
#24= IFCMEASUREWITHUNIT(IFCRATIOMEASURE(0.028316846592),#23);
#25= IFCDIMENSIONALEXPONENTS(3,0,0,0,0,0,0);
#26= IFCCONVERSIONBASEDUNIT(#25,.VOLUMEUNIT.,'CUBIC FOOT',#24);
#27= IFCSIUNIT(*,.MASSUNIT.,.KILO.,.GRAM.);
#28= IFCSIUNIT(*,.TIMEUNIT.,$,.SECOND.);
#29= IFCSIUNIT(*,.PLANEANGLEUNIT.,$,.RADIAN.);
#30= IFCMEASUREWITHUNIT(IFCRATIOMEASURE(0.0174532925199433),#29);
#31= IFCDIMENSIONALEXPONENTS(0,0,0,0,0,0,0);
#32= IFCCONVERSIONBASEDUNIT(#31,.PLANEANGLEUNIT.,'DEGREE',#30);
#33= IFCSIUNIT(*,.SOLIDANGLEUNIT.,$,.STERADIAN.);
#34= IFCSIUNIT(*,.THERMODYNAMICTEMPERATUREUNIT.,$,.DEGREE_CELSIUS.);
#35= IFCSIUNIT(*,.LUMINOUSINTENSITYUNIT.,$,.LUMEN.);
#36= IFCUNITASSIGNMENT((#15,#19,#23,#27,#28,#29,#33,#34,#35));
#37= IFCPROJECT('2G7ZFDNE16yBDU14FA92Me',#5,'Proyecto',$,$,$,$,(#11),#36);
#38= IFCLOCALPLACEMENT($,#10);
#39= IFCSITE('2xvEzEinjBTea80yOTcujY',#5,'Obra',$,$,#38,$,$,.ELEMENT.,$,$,$,$,$);
#40= IFCLOCALPLACEMENT(#38,#10);
#41= IFCBUILDING('1v4saiTR15Dh9hrkTX0DA3',#5,'Undefined',$,$,#40,$,$,.ELEMENT.,$,$,$);
#42= IFCLOCALPLACEMENT(#40,#10);
#43= IFCBUILDINGSTOREY('29hdEUCErFze9E_VIAceOd',#5,'Undefined',$,$,#42,$,$,.ELEMENT.,0.);
#44= IFCOWNERHISTORY(#3,#4,$,.NOCHANGE.,$,$,$,1776110400);
#45= IFCCARTESIANPOINT((17223.3922119141,8120.1328774814,28025.));
#46= IFCAXIS2PLACEMENT3D(#45,#9,#7);
#47= IFCLOCALPLACEMENT(#42,#46);
#48= IFCDIRECTION((1.,0.));
#49= IFCCARTESIANPOINT((0.,0.));
#50= IFCAXIS2PLACEMENT2D(#49,#48);
#51= IFCISHAPEPROFILEDEF(.AREA.,'IPE550',#50,210.,550.,11.10000038,17.20000076,24.);
#52= IFCDIRECTION((0.,-1.,0.));
#53= IFCDIRECTION((-1.,0.,0.));
#54= IFCCARTESIANPOINT((8276.60778808594,0.,0.));
#55= IFCAXIS2PLACEMENT3D(#54,#53,#52);
#56= IFCEXTRUDEDAREASOLID(#51,#55,#9,8276.81);
#57= IFCCARTESIANPOINT((-0.199844360351563,-1.21996704305457,-325.));
#58= IFCAXIS2PLACEMENT3D(#57,#7,#52);
#59= IFCPLANE(#58);
#60= IFCHALFSPACESOLID(#59,.T.);
#61= IFCBOOLEANCLIPPINGRESULT(.DIFFERENCE.,#56,#60);
#62= IFCSHAPEREPRESENTATION(#12,'Body','Clipping',(#61));
#63= IFCPRODUCTDEFINITIONSHAPE($,$,(#62));
#64= IFCBEAM('0YfsO4iZjF3wQG_AjPiCqH',#44,'BEAM','IPE550','IPE550',#47,#63,'ID22a76604-b23b-4f0f-a690-f8ab59b0cd11');
#65= IFCLOCALPLACEMENT(#42,#46);
#66= IFCRECTANGLEPROFILEDEF(.AREA.,'PL108*12',#50,12.,108.);
#67= IFCDIRECTION((0.,0.,-1.));
#68= IFCCARTESIANPOINT((-16.1998443603516,40.7800329569454,226.));
#69= IFCAXIS2PLACEMENT3D(#68,#67,#7);
#70= IFCEXTRUDEDAREASOLID(#66,#69,#9,452.);
#71= IFCSHAPEREPRESENTATION(#12,'Body','SweptSolid',(#70));
#72= IFCPRODUCTDEFINITIONSHAPE($,$,(#71));
#73= IFCOPENINGELEMENT('0HmPxHkpP5URc2aD7tDhjX',#5,$,$,'Recess',#65,#72,$);
#74= IFCRELVOIDSELEMENT('2pxRz1OLT6DOyEq$0F2Z3Z',#5,$,$,#64,#73);
#75= IFCPROPERTYSINGLEVALUE('FeatureSubTypes',$,$,$);
#76= IFCPROPERTYSINGLEVALUE('RectangleOpeningWidth',$,IFCPOSITIVELENGTHMEASURE(12.),$);
#77= IFCPROPERTYSINGLEVALUE('RectangleOpeningHeight',$,IFCPOSITIVELENGTHMEASURE(108.),$);
#78= IFCPROPERTYSINGLEVALUE('OpeningDiameter',$,$,$);
#79= IFCPROPERTYSET('0AZ1aXUrH769e0Ej3zaG8v',#5,'AISC_EM11_Pset_Opening/Cope',$,(#75,#76,#77,#78));
#80= IFCLOCALPLACEMENT(#42,#46);
#81= IFCCARTESIANPOINT((-16.1998443603516,-43.2199670430546,226.));
#82= IFCAXIS2PLACEMENT3D(#81,#67,#7);
#83= IFCEXTRUDEDAREASOLID(#66,#82,#9,452.);
#84= IFCSHAPEREPRESENTATION(#12,'Body','SweptSolid',(#83));
#85= IFCPRODUCTDEFINITIONSHAPE($,$,(#84));
#86= IFCOPENINGELEMENT('1T89n737v1XwxnL8CpMQj8',#5,$,$,'Recess',#80,#85,$);
#87= IFCRELVOIDSELEMENT('3tcupz7Yb5BhMmJmAitsC5',#5,$,$,#64,#86);
#88= IFCCARTESIANPOINT((17263.1572925287,8119.22000528734,27750.));
#89= IFCDIRECTION((0.000467666999833455,-0.999999890643783,0.));
#90= IFCDIRECTION((0.999999890643783,0.000467666999833569,0.));
#91= IFCAXIS2PLACEMENT3D(#88,#89,#90);
#92= IFCLOCALPLACEMENT(#42,#91);
#93= IFCCIRCLEPROFILEDEF(.AREA.,$,#50,11.5);
#94= IFCCARTESIANPOINT((0.,-0.0999999999999929,0.));
#95= IFCAXIS2PLACEMENT3D(#94,#8,#7);
#96= IFCEXTRUDEDAREASOLID(#93,#95,#9,17.4);
#97= IFCSHAPEREPRESENTATION(#12,'Body','SweptSolid',(#96));
#98= IFCREPRESENTATIONMAP(#10,#97);
#99= IFCCARTESIANPOINT((3.63797880709171E-12,0.,-50.00000000004));
#100= IFCCARTESIANTRANSFORMATIONOPERATOR3D($,$,#99,$,$);
#101= IFCMAPPEDITEM(#98,#100);
#102= IFCCARTESIANPOINT((69.9999999997999,0.,-50.0000000000391));
#103= IFCCARTESIANTRANSFORMATIONOPERATOR3D($,$,#102,$,$);
#104= IFCMAPPEDITEM(#98,#103);
#105= IFCCARTESIANPOINT((139.9999999996,0.,-50.00000000004));
#106= IFCCARTESIANTRANSFORMATIONOPERATOR3D($,$,#105,$,$);
#107= IFCMAPPEDITEM(#98,#106);
#108= IFCCARTESIANPOINT((209.9999999994,0.,-50.00000000004));
#109= IFCCARTESIANTRANSFORMATIONOPERATOR3D($,$,#108,$,$);
#110= IFCMAPPEDITEM(#98,#109);
#111= IFCCARTESIANPOINT((279.999999999203,0.,-50.00000000004));
#112= IFCCARTESIANTRANSFORMATIONOPERATOR3D($,$,#111,$,$);
#113= IFCMAPPEDITEM(#98,#112);
#114= IFCCARTESIANPOINT((349.999999999003,0.,-50.00000000004));
#115= IFCCARTESIANTRANSFORMATIONOPERATOR3D($,$,#114,$,$);
#116= IFCMAPPEDITEM(#98,#115);
#117= IFCCARTESIANPOINT((419.999999998803,0.,-50.00000000004));
#118= IFCCARTESIANTRANSFORMATIONOPERATOR3D($,$,#117,$,$);
#119= IFCMAPPEDITEM(#98,#118);
#120= IFCCARTESIANPOINT((0.,0.,50.0000000000391));
#121= IFCCARTESIANTRANSFORMATIONOPERATOR3D($,$,#120,$,$);
#122= IFCMAPPEDITEM(#98,#121);
#123= IFCCARTESIANPOINT((69.9999999997999,0.,50.0000000000391));
#124= IFCCARTESIANTRANSFORMATIONOPERATOR3D($,$,#123,$,$);
#125= IFCMAPPEDITEM(#98,#124);
#126= IFCCARTESIANPOINT((139.9999999996,0.,50.0000000000391));
#127= IFCCARTESIANTRANSFORMATIONOPERATOR3D($,$,#126,$,$);
#128= IFCMAPPEDITEM(#98,#127);
#129= IFCCARTESIANPOINT((209.999999999403,0.,50.0000000000382));
#130= IFCCARTESIANTRANSFORMATIONOPERATOR3D($,$,#129,$,$);
#131= IFCMAPPEDITEM(#98,#130);
#132= IFCCARTESIANPOINT((279.999999999203,0.,50.0000000000382));
#133= IFCCARTESIANTRANSFORMATIONOPERATOR3D($,$,#132,$,$);
#134= IFCMAPPEDITEM(#98,#133);
#135= IFCCARTESIANPOINT((349.999999999003,0.,50.0000000000391));
#136= IFCCARTESIANTRANSFORMATIONOPERATOR3D($,$,#135,$,$);
#137= IFCMAPPEDITEM(#98,#136);
#138= IFCCARTESIANPOINT((419.999999998803,0.,50.0000000000391));
#139= IFCCARTESIANTRANSFORMATIONOPERATOR3D($,$,#138,$,$);
#140= IFCMAPPEDITEM(#98,#139);
#141= IFCSHAPEREPRESENTATION(#12,'Body','MappedRepresentation',(#101,#104,#107,#110,#113,#116,#119,#122,#125,#128,#131,#134,#137,#140));
#142= IFCPRODUCTDEFINITIONSHAPE($,$,(#141));
#143= IFCOPENINGELEMENT('1lzI849srBoxBjqBgvgNyw',#5,$,$,'Opening',#92,#142,$);
#144= IFCRELVOIDSELEMENT('3O9Oz3thP7sQJJKEuHjg8e',#5,'Drill Hole',$,#64,#143);
#145= IFCPROPERTYSINGLEVALUE('FeatureSubTypes',$,IFCLABEL('TORNILLO'),$);
#146= IFCPROPERTYSINGLEVALUE('RectangleOpeningWidth',$,$,$);
#147= IFCPROPERTYSINGLEVALUE('RectangleOpeningHeight',$,$,$);
#148= IFCPROPERTYSET('0x9apdiJbAtfkHU31Nhm0q',#5,'AISC_EM11_Pset_Opening/Cope',$,(#145,#146,#147,#78));
#149= IFCCARTESIANPOINT((17223.1923675537,8118.91291043834,28250.));
#150= IFCAXIS2PLACEMENT3D(#149,#7,#67);
#151= IFCLOCALPLACEMENT(#42,#150);
#152= IFCCARTESIANPOINT((0.,-4.43003314694542,0.));
#153= IFCAXIS2PLACEMENT3D(#152,#8,#7);
#154= IFCEXTRUDEDAREASOLID(#93,#153,#9,11.3);
#155= IFCSHAPEREPRESENTATION(#12,'Body','SweptSolid',(#154));
#156= IFCREPRESENTATIONMAP(#10,#155);
#157= IFCCARTESIANPOINT((85.,0.,40.));
#158= IFCCARTESIANTRANSFORMATIONOPERATOR3D($,$,#157,$,$);
#159= IFCMAPPEDITEM(#156,#158);
#160= IFCCARTESIANPOINT((155.,0.,40.));
#161= IFCCARTESIANTRANSFORMATIONOPERATOR3D($,$,#160,$,$);
#162= IFCMAPPEDITEM(#156,#161);
#163= IFCCARTESIANPOINT((225.,0.,40.));
#164= IFCCARTESIANTRANSFORMATIONOPERATOR3D($,$,#163,$,$);
#165= IFCMAPPEDITEM(#156,#164);
#166= IFCCARTESIANPOINT((295.,0.,40.));
#167= IFCCARTESIANTRANSFORMATIONOPERATOR3D($,$,#166,$,$);
#168= IFCMAPPEDITEM(#156,#167);
#169= IFCCARTESIANPOINT((365.,0.,40.));
#170= IFCCARTESIANTRANSFORMATIONOPERATOR3D($,$,#169,$,$);
#171= IFCMAPPEDITEM(#156,#170);
#172= IFCSHAPEREPRESENTATION(#12,'Body','MappedRepresentation',(#159,#162,#165,#168,#171));
#173= IFCPRODUCTDEFINITIONSHAPE($,$,(#172));
#174= IFCOPENINGELEMENT('0H18fughX91fSLOLH6mMog',#5,$,$,'Opening',#151,#173,$);
#175= IFCRELVOIDSELEMENT('3K3_NbrX1BfQAhwVnKspiE',#5,'Drill Hole',$,#64,#174);
#176= IFCCARTESIANPOINT((17263.1572925287,8119.22000528734,28300.));
#177= IFCDIRECTION((-0.000467666999833454,0.999999890643783,0.));
#178= IFCAXIS2PLACEMENT3D(#176,#177,#90);
#179= IFCLOCALPLACEMENT(#42,#178);
#180= IFCSHAPEREPRESENTATION(#12,'Body','MappedRepresentation',(#101,#104,#107,#110,#113,#116,#119,#122,#125,#128,#131,#134,#137,#140));
#181= IFCPRODUCTDEFINITIONSHAPE($,$,(#180));
#182= IFCOPENINGELEMENT('0p$0NVsGHBRfhn8nChEXDr',#5,$,$,'Opening',#179,#181,$);
#183= IFCRELVOIDSELEMENT('1avVkkBNLF7AFTjkXcnS5P',#5,'Drill Hole',$,#64,#182);
#184= IFCPROPERTYSINGLEVALUE('PieceMark',$,IFCIDENTIFIER('BEAM'),$);
#185= IFCPROPERTYSINGLEVALUE('IndicationMark',$,IFCIDENTIFIER('b/1209'),$);
#186= IFCPROPERTYSINGLEVALUE('PrelimMark',$,IFCIDENTIFIER(''),$);
#187= IFCPROPERTYSINGLEVALUE('MainPieceTag',$,IFCBOOLEAN(.T.),$);
#188= IFCPROPERTYSET('0zKGAjy0v5fRcHInVNHaf_',#5,'AISC_EM11_Pset_PieceIdentification','PieceIdentity',(#184,#185,#186,#187));
#189= IFCPROPERTYSINGLEVALUE('MaterialType',$,IFCIDENTIFIER('STEEL'),$);
#190= IFCPROPERTYSINGLEVALUE('MaterialGrade',$,IFCIDENTIFIER('S235JR'),$);
#191= IFCPROPERTYSET('2xmafsvpr3ffrbhJtXAK8g',#5,'AISC_EM11_Pset_Material',$,(#189,#190));
#192= IFCPROPERTYSINGLEVALUE('SkewedAngleY',$,IFCREAL(0.),$);
#193= IFCPROPERTYSINGLEVALUE('SkewedAngleX',$,IFCREAL(0.),$);
#194= IFCPROPERTYSET('0lPOJRfif4GgKT7pYGEAIB',#5,'AISC_EM11_Pset_SkewedEnd',$,(#192,#193));
#195= IFCPROPERTYSET('0up5JYR5fDRQho9HNHA52h',#5,'AISC_EM11_Pset_SkewedEnd_2',$,(#192,#193));
#196= IFCMATERIAL('STEEL/S235JR');
#197= IFCRELAGGREGATES('2QMctPoo1ADOIIHsoBAJlC',#5,$,$,#37,(#39));
#198= IFCRELAGGREGATES('2ieu9h44JSVgaaZ84TSb1U',#5,$,$,#39,(#41));
#199= IFCRELAGGREGATES('04SSwg_4vEhhiCFC3PVf4Y',#5,$,$,#41,(#43));
#200= IFCRELCONTAINEDINSPATIALSTRUCTURE('1IvJoXEu52beDml$JlRHzV',#5,$,$,(#64),#43);
#201= IFCRELDEFINESBYPROPERTIES('2uB6ZrN0v8VhCpMtwZcony',#5,$,$,(#86,#73),#79);
#202= IFCRELDEFINESBYPROPERTIES('1GhAaMebT6XxQ$9QHKBH6g',#5,$,$,(#182,#174,#143),#148);
#203= IFCRELDEFINESBYPROPERTIES('2RMdmju$L0YPxccXzwpWQj',#5,$,$,(#64),#188);
#204= IFCRELDEFINESBYPROPERTIES('30NfAwWrbAxQnZKq9dj_Y$',#5,$,$,(#64),#191);
#205= IFCRELDEFINESBYPROPERTIES('1lXhUDF8H44ermqwpJgotM',#5,$,$,(#64),#194);
#206= IFCRELDEFINESBYPROPERTIES('2H5AL$HhX7Lgsk9cR_561g',#5,$,$,(#64),#195);
#207= IFCRELASSOCIATESMATERIAL('1hO849bs5D_BDGbJ9Kw2Ff',#5,$,$,(#64),#196);
ENDSEC;

END-ISO-10303-21;
