ISO-10303-21;
HEADER;
FILE_DESCRIPTION(('ViewDefinition[AISC_Steel_Detailing]', 'Option [BaseQuantities:Off]', 'Option [GridExport:On]', 'Option [Assemblies:Off]', 'Option [Bolts:On]', 'Option [Rebars:On]', 'Option [PourObjects:Off]', 'Option [Welds:On]', 'Option [SurfaceTreatments:On]', 'Option [LocationBy:0]', 'Option [ViewColors:Off]', 'Option [SectionedSpine:Off]', 'Option [PropertySets:On]', 'Option [Export all:Off]'),'2;1');
FILE_NAME('b_1240_Qty_1.ifc','2026-05-16T11:53:16',('GIOVANNIPC\\gcorrea'),('Structural Designer'),'IFC Database version: Work','Tekla Structures 2020 Service Pack 5, IFC Export Version: 4.0.0.0 Dec  7 2020','');
FILE_SCHEMA(('IFC2X3'));
ENDSEC;

DATA;
#1= IFCPERSON('GIOVANNIPC\\gcorrea','Undefined',$,$,$,$,$,$);
#2= IFCORGANIZATION($,'Trimble Solutions Corporation',$,$,$);
#3= IFCPERSONANDORGANIZATION(#1,#2,$);
#4= IFCAPPLICATION(#2,'2020 Service Pack 5','Tekla Structures','Multi material modeling');
#5= IFCOWNERHISTORY(#3,#4,$,.NOCHANGE.,$,$,$,1778950396);
#6= IFCCARTESIANPOINT((0.,0.,0.));
#7= IFCDIRECTION((1.,0.,0.));
#8= IFCDIRECTION((0.,1.,0.));
#9= IFCDIRECTION((0.,0.,1.));
#10= IFCAXIS2PLACEMENT3D(#6,#9,#7);
#11= IFCGEOMETRICREPRESENTATIONCONTEXT($,'Model',3,1.E-05,#10,$);
#12= IFCGEOMETRICREPRESENTATIONSUBCONTEXT('Body','Model',*,*,*,*,#11,$,.MODEL_VIEW.,$);
#13= IFCGEOMETRICREPRESENTATIONSUBCONTEXT('Axis','Model',*,*,*,*,#11,$,.GRAPH_VIEW.,$);
#14= IFCGEOMETRICREPRESENTATIONSUBCONTEXT('FootPrint','Model',*,*,*,*,#11,$,.MODEL_VIEW.,$);
#15= IFCSIUNIT(*,.LENGTHUNIT.,.MILLI.,.METRE.);
#16= IFCMEASUREWITHUNIT(IFCRATIOMEASURE(304.8),#15);
#17= IFCDIMENSIONALEXPONENTS(1,0,0,0,0,0,0);
#18= IFCCONVERSIONBASEDUNIT(#17,.LENGTHUNIT.,'FOOT',#16);
#19= IFCSIUNIT(*,.AREAUNIT.,$,.SQUARE_METRE.);
#20= IFCMEASUREWITHUNIT(IFCRATIOMEASURE(0.09290304),#19);
#21= IFCDIMENSIONALEXPONENTS(2,0,0,0,0,0,0);
#22= IFCCONVERSIONBASEDUNIT(#21,.AREAUNIT.,'SQUARE FOOT',#20);
#23= IFCSIUNIT(*,.VOLUMEUNIT.,$,.CUBIC_METRE.);
#24= IFCMEASUREWITHUNIT(IFCRATIOMEASURE(0.028316846592),#23);
#25= IFCDIMENSIONALEXPONENTS(3,0,0,0,0,0,0);
#26= IFCCONVERSIONBASEDUNIT(#25,.VOLUMEUNIT.,'CUBIC FOOT',#24);
#27= IFCSIUNIT(*,.MASSUNIT.,.KILO.,.GRAM.);
#28= IFCSIUNIT(*,.TIMEUNIT.,$,.SECOND.);
#29= IFCSIUNIT(*,.PLANEANGLEUNIT.,$,.RADIAN.);
#30= IFCMEASUREWITHUNIT(IFCRATIOMEASURE(0.0174532925199433),#29);
#31= IFCDIMENSIONALEXPONENTS(0,0,0,0,0,0,0);
#32= IFCCONVERSIONBASEDUNIT(#31,.PLANEANGLEUNIT.,'DEGREE',#30);
#33= IFCSIUNIT(*,.SOLIDANGLEUNIT.,$,.STERADIAN.);
#34= IFCSIUNIT(*,.THERMODYNAMICTEMPERATUREUNIT.,$,.DEGREE_CELSIUS.);
#35= IFCSIUNIT(*,.LUMINOUSINTENSITYUNIT.,$,.LUMEN.);
#36= IFCUNITASSIGNMENT((#15,#19,#23,#27,#28,#29,#33,#34,#35));
#37= IFCPROJECT('2G7ZFDNE16yBDU14FA92Me',#5,'Proyecto',$,$,$,$,(#11),#36);
#38= IFCLOCALPLACEMENT($,#10);
#39= IFCSITE('2xvEzEinjBTea80yOTcujY',#5,'Obra',$,$,#38,$,$,.ELEMENT.,$,$,$,$,$);
#40= IFCLOCALPLACEMENT(#38,#10);
#41= IFCBUILDING('0se_u0vODFluQSTJ3_SU2s',#5,'Undefined',$,$,#40,$,$,.ELEMENT.,$,$,$);
#42= IFCLOCALPLACEMENT(#40,#10);
#43= IFCBUILDINGSTOREY('29hdEUCErFze9E_VIAceOd',#5,'Undefined',$,$,#42,$,$,.ELEMENT.,0.);
#44= IFCOWNERHISTORY(#3,#4,$,.NOCHANGE.,$,$,$,1776103200);
#45= IFCCARTESIANPOINT((67140.1746491318,10031.262463619,28180.));
#46= IFCAXIS2PLACEMENT3D(#45,#9,#8);
#47= IFCLOCALPLACEMENT(#42,#46);
#48= IFCDIRECTION((1.,0.));
#49= IFCCARTESIANPOINT((0.,0.));
#50= IFCAXIS2PLACEMENT2D(#49,#48);
#51= IFCISHAPEPROFILEDEF(.AREA.,'IPE240',#50,120.,240.,6.199999809,9.800000191,15.);
#52= IFCDIRECTION((0.,-1.,0.));
#53= IFCDIRECTION((-1.,0.,0.));
#54= IFCCARTESIANPOINT((2877.20356954689,0.,0.));
#55= IFCAXIS2PLACEMENT3D(#54,#53,#52);
#56= IFCEXTRUDEDAREASOLID(#51,#55,#9,2878.43);
#57= IFCCARTESIANPOINT((2877.11206356399,-6.21497019892558E-05,-220.));
#58= IFCAXIS2PLACEMENT3D(#57,#53,#8);
#59= IFCPLANE(#58);
#60= IFCHALFSPACESOLID(#59,.T.);
#61= IFCBOOLEANCLIPPINGRESULT(.DIFFERENCE.,#56,#60);
#62= IFCDIRECTION((0.999998861354728,-0.00150906900053504,0.));
#63= IFCCARTESIANPOINT((-1.13152448458095,-0.100956716210931,-220.));
#64= IFCDIRECTION((-0.00150906900053504,-0.999998861354728,0.));
#65= IFCAXIS2PLACEMENT3D(#63,#62,#64);
#66= IFCPLANE(#65);
#67= IFCHALFSPACESOLID(#66,.T.);
#68= IFCBOOLEANCLIPPINGRESULT(.DIFFERENCE.,#61,#67);
#69= IFCSHAPEREPRESENTATION(#12,'Body','Clipping',(#68));
#70= IFCPRODUCTDEFINITIONSHAPE($,$,(#69));
#71= IFCBEAM('3pfo4_nTDBAvRGBdpNA_Tr',#44,'BEAM','IPE240','IPE240',#47,#70,'IDf3a7213e-c5d3-4b2b-96d0-2e7cd72be775');
#72= IFCLOCALPLACEMENT(#42,#46);
#73= IFCRECTANGLEPROFILEDEF(.AREA.,'PL25.8*68.9',#50,25.8,68.9);
#74= IFCDIRECTION((0.,0.,-1.));
#75= IFCDIRECTION((0.00150906900054116,0.999998861354728,0.));
#76= IFCCARTESIANPOINT((-35.6733862678017,-60.9480114354086,-108.099999904502));
#77= IFCAXIS2PLACEMENT3D(#76,#75,#74);
#78= IFCEXTRUDEDAREASOLID(#73,#77,#9,126.34);
#79= IFCSHAPEREPRESENTATION(#12,'Body','SweptSolid',(#78));
#80= IFCPRODUCTDEFINITIONSHAPE($,$,(#79));
#81= IFCOPENINGELEMENT('22p5rZ7Xf2xBJ_Esf7gQUb',#5,$,$,'Recess',#72,#80,$);
#82= IFCRELVOIDSELEMENT('1skXUiImv9jhnS7QbGiPOE',#5,$,$,#71,#81);
#83= IFCPROPERTYSINGLEVALUE('FeatureSubTypes',$,$,$);
#84= IFCPROPERTYSINGLEVALUE('RectangleOpeningWidth',$,IFCPOSITIVELENGTHMEASURE(25.8),$);
#85= IFCPROPERTYSINGLEVALUE('RectangleOpeningHeight',$,IFCPOSITIVELENGTHMEASURE(68.9),$);
#86= IFCPROPERTYSINGLEVALUE('OpeningDiameter',$,$,$);
#87= IFCPROPERTYSET('3GXe7PBhP5nwkrYlxQt1wk',#5,'AISC_EM11_Pset_Opening/Cope',$,(#83,#84,#85,#86));
#88= IFCLOCALPLACEMENT(#42,#46);
#89= IFCCARTESIANPOINT((-35.6733862678017,-60.9480114354086,108.099999904502));
#90= IFCAXIS2PLACEMENT3D(#89,#75,#74);
#91= IFCEXTRUDEDAREASOLID(#73,#90,#9,126.34);
#92= IFCSHAPEREPRESENTATION(#12,'Body','SweptSolid',(#91));
#93= IFCPRODUCTDEFINITIONSHAPE($,$,(#92));
#94= IFCOPENINGELEMENT('3DVpvEx_zB3fu3CAkhYoqB',#5,$,$,'Recess',#88,#93,$);
#95= IFCRELVOIDSELEMENT('3r06fJVW97KxWb1ALqchZY',#5,$,$,#71,#94);
#96= IFCLOCALPLACEMENT(#42,#46);
#97= IFCCARTESIANPOINT((2911.5620069397,61.002704824743,-108.099999904502));
#98= IFCAXIS2PLACEMENT3D(#97,#52,#74);
#99= IFCEXTRUDEDAREASOLID(#73,#98,#9,122.);
#100= IFCSHAPEREPRESENTATION(#12,'Body','SweptSolid',(#99));
#101= IFCPRODUCTDEFINITIONSHAPE($,$,(#100));
#102= IFCOPENINGELEMENT('34NtKCx3PFy93a6P01Fm0e',#5,$,$,'Recess',#96,#101,$);
#103= IFCRELVOIDSELEMENT('03UE3AeB937QiBLe7SQRKD',#5,$,$,#71,#102);
#104= IFCLOCALPLACEMENT(#42,#46);
#105= IFCCARTESIANPOINT((2911.5620069397,61.002704824743,108.099999904502));
#106= IFCAXIS2PLACEMENT3D(#105,#52,#74);
#107= IFCEXTRUDEDAREASOLID(#73,#106,#9,122.);
#108= IFCSHAPEREPRESENTATION(#12,'Body','SweptSolid',(#107));
#109= IFCPRODUCTDEFINITIONSHAPE($,$,(#108));
#110= IFCOPENINGELEMENT('3JhqdI3Pj4M8P7AWtmfjhA',#5,$,$,'Recess',#104,#109,$);
#111= IFCRELVOIDSELEMENT('2htYGjwQ9FjxFc6KlVEtcI',#5,$,$,#71,#110);
#112= IFCCARTESIANPOINT((67140.275605848,10030.1309391336,28275.199999809));
#113= IFCAXIS2PLACEMENT3D(#112,#75,#74);
#114= IFCLOCALPLACEMENT(#42,#113);
#115= IFCCIRCLEPROFILEDEF(.AREA.,$,#50,11.5);
#116= IFCCARTESIANPOINT((0.,-3.02359306725983,0.));
#117= IFCAXIS2PLACEMENT3D(#116,#8,#7);
#118= IFCEXTRUDEDAREASOLID(#115,#117,#9,6.4);
#119= IFCSHAPEREPRESENTATION(#12,'Body','SweptSolid',(#118));
#120= IFCREPRESENTATIONMAP(#10,#119);
#121= IFCCARTESIANPOINT((40.,0.,49.9999999999745));
#122= IFCCARTESIANTRANSFORMATIONOPERATOR3D($,$,#121,$,$);
#123= IFCMAPPEDITEM(#120,#122);
#124= IFCCARTESIANPOINT((100.,0.,49.9999999999745));
#125= IFCCARTESIANTRANSFORMATIONOPERATOR3D($,$,#124,$,$);
#126= IFCMAPPEDITEM(#120,#125);
#127= IFCCARTESIANPOINT((160.,0.,49.9999999999745));
#128= IFCCARTESIANTRANSFORMATIONOPERATOR3D($,$,#127,$,$);
#129= IFCMAPPEDITEM(#120,#128);
#130= IFCCARTESIANPOINT((220.,0.,49.9999999999745));
#131= IFCCARTESIANTRANSFORMATIONOPERATOR3D($,$,#130,$,$);
#132= IFCMAPPEDITEM(#120,#131);
#133= IFCSHAPEREPRESENTATION(#12,'Body','MappedRepresentation',(#123,#126,#129,#132));
#134= IFCPRODUCTDEFINITIONSHAPE($,$,(#133));
#135= IFCOPENINGELEMENT('0hRmUPemb88xwvITkl6nRz',#5,$,$,'Opening',#114,#134,$);
#136= IFCRELVOIDSELEMENT('17S9t$3R5BOgWvMvIlywhi',#5,'Drill Hole',$,#71,#135);
#137= IFCPROPERTYSINGLEVALUE('FeatureSubTypes',$,IFCLABEL('TORNILLO'),$);
#138= IFCPROPERTYSINGLEVALUE('RectangleOpeningWidth',$,$,$);
#139= IFCPROPERTYSINGLEVALUE('RectangleOpeningHeight',$,$,$);
#140= IFCPROPERTYSET('1cb2nLz$r8iw5JVQp_bv6c',#5,'AISC_EM11_Pset_Opening/Cope',$,(#137,#138,#139,#86));
#141= IFCCARTESIANPOINT((67140.1747112815,12908.3745271826,28275.199999809));
#142= IFCAXIS2PLACEMENT3D(#141,#52,#74);
#143= IFCLOCALPLACEMENT(#42,#142);
#144= IFCCARTESIANPOINT((0.,-3.20010851960463,0.));
#145= IFCAXIS2PLACEMENT3D(#144,#8,#7);
#146= IFCEXTRUDEDAREASOLID(#115,#145,#9,6.4);
#147= IFCSHAPEREPRESENTATION(#12,'Body','SweptSolid',(#146));
#148= IFCREPRESENTATIONMAP(#10,#147);
#149= IFCMAPPEDITEM(#148,#122);
#150= IFCMAPPEDITEM(#148,#125);
#151= IFCMAPPEDITEM(#148,#128);
#152= IFCMAPPEDITEM(#148,#131);
#153= IFCSHAPEREPRESENTATION(#12,'Body','MappedRepresentation',(#149,#150,#151,#152));
#154= IFCPRODUCTDEFINITIONSHAPE($,$,(#153));
#155= IFCOPENINGELEMENT('22bP6KtLr499HKMdRnxz4f',#5,$,$,'Opening',#143,#154,$);
#156= IFCRELVOIDSELEMENT('3F_DRalBn2uR69qyBn6Gbv',#5,'Drill Hole',$,#71,#155);
#157= IFCPROPERTYSINGLEVALUE('PieceMark',$,IFCIDENTIFIER('BEAM'),$);
#158= IFCPROPERTYSINGLEVALUE('IndicationMark',$,IFCIDENTIFIER('b/1240'),$);
#159= IFCPROPERTYSINGLEVALUE('PrelimMark',$,IFCIDENTIFIER(''),$);
#160= IFCPROPERTYSINGLEVALUE('MainPieceTag',$,IFCBOOLEAN(.T.),$);
#161= IFCPROPERTYSET('0Dy7mJiN15yA2OQUygPWkY',#5,'AISC_EM11_Pset_PieceIdentification','PieceIdentity',(#157,#158,#159,#160));
#162= IFCPROPERTYSINGLEVALUE('MaterialType',$,IFCIDENTIFIER('STEEL'),$);
#163= IFCPROPERTYSINGLEVALUE('MaterialGrade',$,IFCIDENTIFIER('S235JR'),$);
#164= IFCPROPERTYSET('1MQ3_Dken93g6i6zgJ_2uU',#5,'AISC_EM11_Pset_Material',$,(#162,#163));
#165= IFCPROPERTYSINGLEVALUE('SkewedAngleY',$,IFCREAL(0.),$);
#166= IFCPROPERTYSINGLEVALUE('SkewedAngleX',$,IFCREAL(0.08646),$);
#167= IFCPROPERTYSET('1$7lJgtRf9IRyhUuZoNLZA',#5,'AISC_EM11_Pset_SkewedEnd',$,(#165,#166));
#168= IFCPROPERTYSINGLEVALUE('SkewedAngleX',$,IFCREAL(-5.E-05),$);
#169= IFCPROPERTYSET('3o3g0DkzX7PgzCd6u8GCu1',#5,'AISC_EM11_Pset_SkewedEnd_2',$,(#165,#168));
#170= IFCMATERIAL('STEEL/S235JR');
#171= IFCRELAGGREGATES('3NllPnWBr6lRix2GQRGeZ5',#5,$,$,#37,(#39));
#172= IFCRELAGGREGATES('2f11h3oT7O1j_DKYijYwrN',#5,$,$,#39,(#41));
#173= IFCRELAGGREGATES('1VTPsh$OT6jOcXfR9ZH_yO',#5,$,$,#41,(#43));
#174= IFCRELCONTAINEDINSPATIALSTRUCTURE('3Dwh9JyI5CpPIoO2FL4nZ7',#5,$,$,(#71),#43);
#175= IFCRELDEFINESBYPROPERTIES('3l1fErLWD4khEMNmv1R6Nm',#5,$,$,(#110,#102,#94,#81),#87);
#176= IFCRELDEFINESBYPROPERTIES('1uP8SUzK10uwUHBdFS68V7',#5,$,$,(#155,#135),#140);
#177= IFCRELDEFINESBYPROPERTIES('1RFUa1tj9DVBfGA6YjI1uH',#5,$,$,(#71),#161);
#178= IFCRELDEFINESBYPROPERTIES('3RLNFAyOn2cux7Ze$VVqHu',#5,$,$,(#71),#164);
#179= IFCRELDEFINESBYPROPERTIES('395s6lJMrD9ObuzgKfcrOZ',#5,$,$,(#71),#167);
#180= IFCRELDEFINESBYPROPERTIES('1QxG3DKQP10QEAhm4bO8$L',#5,$,$,(#71),#169);
#181= IFCRELASSOCIATESMATERIAL('1hr7tsuznF$gGf79C18NlC',#5,$,$,(#71),#170);
ENDSEC;

END-ISO-10303-21;
