ISO-10303-21;
HEADER;
FILE_DESCRIPTION(('ViewDefinition[AISC_Steel_Detailing]', 'Option [BaseQuantities:Off]', 'Option [GridExport:On]', 'Option [Assemblies:Off]', 'Option [Bolts:On]', 'Option [Rebars:On]', 'Option [PourObjects:Off]', 'Option [Welds:On]', 'Option [SurfaceTreatments:On]', 'Option [LocationBy:0]', 'Option [ViewColors:Off]', 'Option [SectionedSpine:Off]', 'Option [PropertySets:On]', 'Option [Export all:Off]'),'2;1');
FILE_NAME('b_1210_Qty_3.ifc','2026-05-16T11:53:15',('GIOVANNIPC\\gcorrea'),('Structural Designer'),'IFC Database version: Work','Tekla Structures 2020 Service Pack 5, IFC Export Version: 4.0.0.0 Dec  7 2020','');
FILE_SCHEMA(('IFC2X3'));
ENDSEC;

DATA;
#1= IFCPERSON('GIOVANNIPC\\gcorrea','Undefined',$,$,$,$,$,$);
#2= IFCORGANIZATION($,'Trimble Solutions Corporation',$,$,$);
#3= IFCPERSONANDORGANIZATION(#1,#2,$);
#4= IFCAPPLICATION(#2,'2020 Service Pack 5','Tekla Structures','Multi material modeling');
#5= IFCOWNERHISTORY(#3,#4,$,.NOCHANGE.,$,$,$,1778950395);
#6= IFCCARTESIANPOINT((0.,0.,0.));
#7= IFCDIRECTION((1.,0.,0.));
#8= IFCDIRECTION((0.,1.,0.));
#9= IFCDIRECTION((0.,0.,1.));
#10= IFCAXIS2PLACEMENT3D(#6,#9,#7);
#11= IFCGEOMETRICREPRESENTATIONCONTEXT($,'Model',3,1.E-05,#10,$);
#12= IFCGEOMETRICREPRESENTATIONSUBCONTEXT('Body','Model',*,*,*,*,#11,$,.MODEL_VIEW.,$);
#13= IFCGEOMETRICREPRESENTATIONSUBCONTEXT('Axis','Model',*,*,*,*,#11,$,.GRAPH_VIEW.,$);
#14= IFCGEOMETRICREPRESENTATIONSUBCONTEXT('FootPrint','Model',*,*,*,*,#11,$,.MODEL_VIEW.,$);
#15= IFCSIUNIT(*,.LENGTHUNIT.,.MILLI.,.METRE.);
#16= IFCMEASUREWITHUNIT(IFCRATIOMEASURE(304.8),#15);
#17= IFCDIMENSIONALEXPONENTS(1,0,0,0,0,0,0);
#18= IFCCONVERSIONBASEDUNIT(#17,.LENGTHUNIT.,'FOOT',#16);
#19= IFCSIUNIT(*,.AREAUNIT.,$,.SQUARE_METRE.);
#20= IFCMEASUREWITHUNIT(IFCRATIOMEASURE(0.09290304),#19);
#21= IFCDIMENSIONALEXPONENTS(2,0,0,0,0,0,0);
#22= IFCCONVERSIONBASEDUNIT(#21,.AREAUNIT.,'SQUARE FOOT',#20);
#23= IFCSIUNIT(*,.VOLUMEUNIT.,$,.CUBIC_METRE.);
#24= IFCMEASUREWITHUNIT(IFCRATIOMEASURE(0.028316846592),#23);
#25= IFCDIMENSIONALEXPONENTS(3,0,0,0,0,0,0);
#26= IFCCONVERSIONBASEDUNIT(#25,.VOLUMEUNIT.,'CUBIC FOOT',#24);
#27= IFCSIUNIT(*,.MASSUNIT.,.KILO.,.GRAM.);
#28= IFCSIUNIT(*,.TIMEUNIT.,$,.SECOND.);
#29= IFCSIUNIT(*,.PLANEANGLEUNIT.,$,.RADIAN.);
#30= IFCMEASUREWITHUNIT(IFCRATIOMEASURE(0.0174532925199433),#29);
#31= IFCDIMENSIONALEXPONENTS(0,0,0,0,0,0,0);
#32= IFCCONVERSIONBASEDUNIT(#31,.PLANEANGLEUNIT.,'DEGREE',#30);
#33= IFCSIUNIT(*,.SOLIDANGLEUNIT.,$,.STERADIAN.);
#34= IFCSIUNIT(*,.THERMODYNAMICTEMPERATUREUNIT.,$,.DEGREE_CELSIUS.);
#35= IFCSIUNIT(*,.LUMINOUSINTENSITYUNIT.,$,.LUMEN.);
#36= IFCUNITASSIGNMENT((#15,#19,#23,#27,#28,#29,#33,#34,#35));
#37= IFCPROJECT('2G7ZFDNE16yBDU14FA92Me',#5,'Proyecto',$,$,$,$,(#11),#36);
#38= IFCLOCALPLACEMENT($,#10);
#39= IFCSITE('2xvEzEinjBTea80yOTcujY',#5,'Obra',$,$,#38,$,$,.ELEMENT.,$,$,$,$,$);
#40= IFCLOCALPLACEMENT(#38,#10);
#41= IFCBUILDING('0OkqAAuH92$xQDRT$WdSC3',#5,'Undefined',$,$,#40,$,$,.ELEMENT.,$,$,$);
#42= IFCLOCALPLACEMENT(#40,#10);
#43= IFCBUILDINGSTOREY('29hdEUCErFze9E_VIAceOd',#5,'Undefined',$,$,#42,$,$,.ELEMENT.,0.);
#44= IFCOWNERHISTORY(#3,#4,$,.NOCHANGE.,$,$,$,1776103200);
#45= IFCCARTESIANPOINT((14912.5955323105,8245.13346581625,28135.));
#46= IFCDIRECTION((-0.000416187000163965,0.999999913394187,0.));
#47= IFCAXIS2PLACEMENT3D(#45,#9,#46);
#48= IFCLOCALPLACEMENT(#42,#47);
#49= IFCDIRECTION((1.,0.));
#50= IFCCARTESIANPOINT((0.,0.));
#51= IFCAXIS2PLACEMENT2D(#50,#49);
#52= IFCISHAPEPROFILEDEF(.AREA.,'IPE330',#51,160.,330.,7.5,11.5,18.);
#53= IFCDIRECTION((0.,-1.,0.));
#54= IFCDIRECTION((-1.,0.,0.));
#55= IFCCARTESIANPOINT((9020.06646295325,0.,3.63797880709171E-12));
#56= IFCAXIS2PLACEMENT3D(#55,#54,#53);
#57= IFCEXTRUDEDAREASOLID(#52,#56,#9,9030.14);
#58= IFCDIRECTION((-0.999999924613104,0.000388296002425651,0.));
#59= IFCCARTESIANPOINT((9019.99697003639,0.0424989974690106,-264.999999999996));
#60= IFCDIRECTION((0.000388296002425651,0.999999924613104,0.));
#61= IFCAXIS2PLACEMENT3D(#59,#58,#60);
#62= IFCPLANE(#61);
#63= IFCHALFSPACESOLID(#62,.T.);
#64= IFCBOOLEANCLIPPINGRESULT(.DIFFERENCE.,#57,#63);
#65= IFCDIRECTION((0.999999913394187,-0.000416187000164427,0.));
#66= IFCCARTESIANPOINT((-10.0006081589672,-0.045551667088148,-264.999999999996));
#67= IFCDIRECTION((-0.000416187000164427,-0.999999913394187,0.));
#68= IFCAXIS2PLACEMENT3D(#66,#65,#67);
#69= IFCPLANE(#68);
#70= IFCHALFSPACESOLID(#69,.T.);
#71= IFCBOOLEANCLIPPINGRESULT(.DIFFERENCE.,#64,#70);
#72= IFCSHAPEREPRESENTATION(#12,'Body','Clipping',(#71));
#73= IFCPRODUCTDEFINITIONSHAPE($,$,(#72));
#74= IFCBEAM('11UZAz62TEagssNtwxJH8c',#44,'BEAM','IPE330','IPE330',#48,#73,'ID417a32bd-1827-4e92-adb6-5f7ebb4d1226');
#75= IFCLOCALPLACEMENT(#42,#47);
#76= IFCRECTANGLEPROFILEDEF(.AREA.,'PL42.2*111.4',#51,42.2,111.4);
#77= IFCDIRECTION((0.,0.,-1.));
#78= IFCDIRECTION((0.000416187000163965,0.999999913394187,0.));
#79= IFCCARTESIANPOINT((-65.7592954297412,-80.9768078928561,144.899999620004));
#80= IFCAXIS2PLACEMENT3D(#79,#78,#77);
#81= IFCEXTRUDEDAREASOLID(#76,#80,#9,165.76);
#82= IFCSHAPEREPRESENTATION(#12,'Body','SweptSolid',(#81));
#83= IFCPRODUCTDEFINITIONSHAPE($,$,(#82));
#84= IFCOPENINGELEMENT('0W1QCy$Sr7Pfa5SJYAX8i2',#5,$,$,'Recess',#75,#83,$);
#85= IFCRELVOIDSELEMENT('2E_IKSCy5ExwyixQ0ga3Gv',#5,$,$,#74,#84);
#86= IFCPROPERTYSINGLEVALUE('FeatureSubTypes',$,$,$);
#87= IFCPROPERTYSINGLEVALUE('RectangleOpeningWidth',$,IFCPOSITIVELENGTHMEASURE(42.2),$);
#88= IFCPROPERTYSINGLEVALUE('RectangleOpeningHeight',$,IFCPOSITIVELENGTHMEASURE(111.4),$);
#89= IFCPROPERTYSINGLEVALUE('OpeningDiameter',$,$,$);
#90= IFCPROPERTYSET('0KdDi5ERPF9RKe_SW6KKtS',#5,'AISC_EM11_Pset_Opening/Cope',$,(#86,#87,#88,#89));
#91= IFCLOCALPLACEMENT(#42,#47);
#92= IFCDIRECTION((-0.000388296002419116,-0.999999924613104,0.));
#93= IFCCARTESIANPOINT((9075.75340121791,80.9783621296067,144.899999620004));
#94= IFCAXIS2PLACEMENT3D(#93,#92,#77);
#95= IFCEXTRUDEDAREASOLID(#76,#94,#9,165.5);
#96= IFCSHAPEREPRESENTATION(#12,'Body','SweptSolid',(#95));
#97= IFCPRODUCTDEFINITIONSHAPE($,$,(#96));
#98= IFCOPENINGELEMENT('2f4lEjW_94Oe08CyKoGfM5',#5,$,$,'Recess',#91,#97,$);
#99= IFCRELVOIDSELEMENT('12oVdEvCH3SuLtXDh2tmjZ',#5,$,$,#74,#98);
#100= IFCCARTESIANPOINT((14912.6452460968,8235.1328774814,28265.));
#101= IFCAXIS2PLACEMENT3D(#100,#8,#77);
#102= IFCLOCALPLACEMENT(#42,#101);
#103= IFCCIRCLEPROFILEDEF(.AREA.,$,#51,11.5);
#104= IFCCARTESIANPOINT((0.,-3.78363930192794,0.));
#105= IFCAXIS2PLACEMENT3D(#104,#8,#7);
#106= IFCEXTRUDEDAREASOLID(#103,#105,#9,7.7);
#107= IFCSHAPEREPRESENTATION(#12,'Body','SweptSolid',(#106));
#108= IFCREPRESENTATIONMAP(#10,#107);
#109= IFCCARTESIANPOINT((40.,0.,50.));
#110= IFCCARTESIANTRANSFORMATIONOPERATOR3D($,$,#109,$,$);
#111= IFCMAPPEDITEM(#108,#110);
#112= IFCCARTESIANPOINT((100.,0.,50.));
#113= IFCCARTESIANTRANSFORMATIONOPERATOR3D($,$,#112,$,$);
#114= IFCMAPPEDITEM(#108,#113);
#115= IFCCARTESIANPOINT((160.,0.,50.));
#116= IFCCARTESIANTRANSFORMATIONOPERATOR3D($,$,#115,$,$);
#117= IFCMAPPEDITEM(#108,#116);
#118= IFCCARTESIANPOINT((220.,0.,50.));
#119= IFCCARTESIANTRANSFORMATIONOPERATOR3D($,$,#118,$,$);
#120= IFCMAPPEDITEM(#108,#119);
#121= IFCSHAPEREPRESENTATION(#12,'Body','MappedRepresentation',(#111,#114,#117,#120));
#122= IFCPRODUCTDEFINITIONSHAPE($,$,(#121));
#123= IFCOPENINGELEMENT('1Pu5a57jH0cuqPppVuoY$F',#5,$,$,'Opening',#102,#122,$);
#124= IFCRELVOIDSELEMENT('2x7x0gZ3T9hfd0PPrZSTne',#5,'Drill Hole',$,#74,#123);
#125= IFCPROPERTYSINGLEVALUE('FeatureSubTypes',$,IFCLABEL('TORNILLO'),$);
#126= IFCPROPERTYSINGLEVALUE('RectangleOpeningWidth',$,$,$);
#127= IFCPROPERTYSINGLEVALUE('RectangleOpeningHeight',$,$,$);
#128= IFCPROPERTYSET('3bOJcGRhfCGBPFWTaVuI1p',#5,'AISC_EM11_Pset_Opening/Cope',$,(#125,#126,#127,#89));
#129= IFCCARTESIANPOINT((14908.7990278365,17265.1296369799,28265.));
#130= IFCDIRECTION((2.78909999888129E-05,-0.999999999611046,0.));
#131= IFCAXIS2PLACEMENT3D(#129,#130,#77);
#132= IFCLOCALPLACEMENT(#42,#131);
#133= IFCCARTESIANPOINT((0.,-3.78808649695799,0.));
#134= IFCAXIS2PLACEMENT3D(#133,#8,#7);
#135= IFCEXTRUDEDAREASOLID(#103,#134,#9,7.7);
#136= IFCSHAPEREPRESENTATION(#12,'Body','SweptSolid',(#135));
#137= IFCREPRESENTATIONMAP(#10,#136);
#138= IFCMAPPEDITEM(#137,#110);
#139= IFCMAPPEDITEM(#137,#113);
#140= IFCMAPPEDITEM(#137,#116);
#141= IFCMAPPEDITEM(#137,#119);
#142= IFCSHAPEREPRESENTATION(#12,'Body','MappedRepresentation',(#138,#139,#140,#141));
#143= IFCPRODUCTDEFINITIONSHAPE($,$,(#142));
#144= IFCOPENINGELEMENT('06WlXUBCj1h9SY6sW6H7xx',#5,$,$,'Opening',#132,#143,$);
#145= IFCRELVOIDSELEMENT('2YIxG6Q75229aRBA6V9_2a',#5,'Drill Hole',$,#74,#144);
#146= IFCPROPERTYSINGLEVALUE('PieceMark',$,IFCIDENTIFIER('BEAM'),$);
#147= IFCPROPERTYSINGLEVALUE('IndicationMark',$,IFCIDENTIFIER('b/1210'),$);
#148= IFCPROPERTYSINGLEVALUE('PrelimMark',$,IFCIDENTIFIER(''),$);
#149= IFCPROPERTYSINGLEVALUE('MainPieceTag',$,IFCBOOLEAN(.T.),$);
#150= IFCPROPERTYSET('2fXR4AvCj4O9bQRpgX94SL',#5,'AISC_EM11_Pset_PieceIdentification','PieceIdentity',(#146,#147,#148,#149));
#151= IFCPROPERTYSINGLEVALUE('MaterialType',$,IFCIDENTIFIER('STEEL'),$);
#152= IFCPROPERTYSINGLEVALUE('MaterialGrade',$,IFCIDENTIFIER('S235JR'),$);
#153= IFCPROPERTYSET('1xfPsbzlDEWApzv4IH6sLW',#5,'AISC_EM11_Pset_Material',$,(#151,#152));
#154= IFCPROPERTYSINGLEVALUE('SkewedAngleY',$,IFCREAL(0.),$);
#155= IFCPROPERTYSINGLEVALUE('SkewedAngleX',$,IFCREAL(0.02385),$);
#156= IFCPROPERTYSET('0bHXCeioP9tvzaszmvuZar',#5,'AISC_EM11_Pset_SkewedEnd',$,(#154,#155));
#157= IFCPROPERTYSINGLEVALUE('SkewedAngleX',$,IFCREAL(0.02225),$);
#158= IFCPROPERTYSET('3GWmUA$y95kP2Ezm9gS$Kf',#5,'AISC_EM11_Pset_SkewedEnd_2',$,(#154,#157));
#159= IFCMATERIAL('STEEL/S235JR');
#160= IFCRELAGGREGATES('3BPUWeOBL8w99Y6GXamEAH',#5,$,$,#37,(#39));
#161= IFCRELAGGREGATES('2ThmowgTdQCRRqOYps2WSZ',#5,$,$,#39,(#41));
#162= IFCRELAGGREGATES('3Wg7f08258pOMC5mz2SBz3',#5,$,$,#41,(#43));
#163= IFCRELCONTAINEDINSPATIALSTRUCTURE('3LMF$8HmTA_RHnwdtd8uC6',#5,$,$,(#74),#43);
#164= IFCRELDEFINESBYPROPERTIES('2xtJElFtX1bgW08Ek2zz8n',#5,$,$,(#98,#84),#90);
#165= IFCRELDEFINESBYPROPERTIES('1$Q0MNyzn4R9sDKrzSNxhw',#5,$,$,(#144,#123),#128);
#166= IFCRELDEFINESBYPROPERTIES('0g1tJhDBj2TRMpYq3GnCTl',#5,$,$,(#74),#150);
#167= IFCRELDEFINESBYPROPERTIES('2i7XFMjd1FaOqgEJLfhXyw',#5,$,$,(#74),#153);
#168= IFCRELDEFINESBYPROPERTIES('0nazMzat5CSwGHyjyQvYQZ',#5,$,$,(#74),#156);
#169= IFCRELDEFINESBYPROPERTIES('1hj8bjFQL8Lwh8SWLOj$Ww',#5,$,$,(#74),#158);
#170= IFCRELASSOCIATESMATERIAL('0qWE50J996IvU9a6fuRlQQ',#5,$,$,(#74),#159);
ENDSEC;

END-ISO-10303-21;
