ISO-10303-21;
HEADER;
FILE_DESCRIPTION(('ViewDefinition[AISC_Steel_Detailing]', 'Option [BaseQuantities:Off]', 'Option [GridExport:On]', 'Option [Assemblies:Off]', 'Option [Bolts:On]', 'Option [Rebars:On]', 'Option [PourObjects:Off]', 'Option [Welds:On]', 'Option [SurfaceTreatments:On]', 'Option [LocationBy:0]', 'Option [ViewColors:Off]', 'Option [SectionedSpine:Off]', 'Option [PropertySets:On]', 'Option [Export all:Off]'),'2;1');
FILE_NAME('b_12_Qty_1.ifc','2026-05-16T11:53:17',('GIOVANNIPC\\gcorrea'),('Structural Designer'),'IFC Database version: Work','Tekla Structures 2020 Service Pack 5, IFC Export Version: 4.0.0.0 Dec  7 2020','');
FILE_SCHEMA(('IFC2X3'));
ENDSEC;

DATA;
#1= IFCPERSON('GIOVANNIPC\\gcorrea','Undefined',$,$,$,$,$,$);
#2= IFCORGANIZATION($,'Trimble Solutions Corporation',$,$,$);
#3= IFCPERSONANDORGANIZATION(#1,#2,$);
#4= IFCAPPLICATION(#2,'2020 Service Pack 5','Tekla Structures','Multi material modeling');
#5= IFCOWNERHISTORY(#3,#4,$,.NOCHANGE.,$,$,$,1778950397);
#6= IFCCARTESIANPOINT((0.,0.,0.));
#7= IFCDIRECTION((1.,0.,0.));
#8= IFCDIRECTION((0.,1.,0.));
#9= IFCDIRECTION((0.,0.,1.));
#10= IFCAXIS2PLACEMENT3D(#6,#9,#7);
#11= IFCGEOMETRICREPRESENTATIONCONTEXT($,'Model',3,1.E-05,#10,$);
#12= IFCGEOMETRICREPRESENTATIONSUBCONTEXT('Body','Model',*,*,*,*,#11,$,.MODEL_VIEW.,$);
#13= IFCGEOMETRICREPRESENTATIONSUBCONTEXT('Axis','Model',*,*,*,*,#11,$,.GRAPH_VIEW.,$);
#14= IFCGEOMETRICREPRESENTATIONSUBCONTEXT('FootPrint','Model',*,*,*,*,#11,$,.MODEL_VIEW.,$);
#15= IFCSIUNIT(*,.LENGTHUNIT.,.MILLI.,.METRE.);
#16= IFCMEASUREWITHUNIT(IFCRATIOMEASURE(304.8),#15);
#17= IFCDIMENSIONALEXPONENTS(1,0,0,0,0,0,0);
#18= IFCCONVERSIONBASEDUNIT(#17,.LENGTHUNIT.,'FOOT',#16);
#19= IFCSIUNIT(*,.AREAUNIT.,$,.SQUARE_METRE.);
#20= IFCMEASUREWITHUNIT(IFCRATIOMEASURE(0.09290304),#19);
#21= IFCDIMENSIONALEXPONENTS(2,0,0,0,0,0,0);
#22= IFCCONVERSIONBASEDUNIT(#21,.AREAUNIT.,'SQUARE FOOT',#20);
#23= IFCSIUNIT(*,.VOLUMEUNIT.,$,.CUBIC_METRE.);
#24= IFCMEASUREWITHUNIT(IFCRATIOMEASURE(0.028316846592),#23);
#25= IFCDIMENSIONALEXPONENTS(3,0,0,0,0,0,0);
#26= IFCCONVERSIONBASEDUNIT(#25,.VOLUMEUNIT.,'CUBIC FOOT',#24);
#27= IFCSIUNIT(*,.MASSUNIT.,.KILO.,.GRAM.);
#28= IFCSIUNIT(*,.TIMEUNIT.,$,.SECOND.);
#29= IFCSIUNIT(*,.PLANEANGLEUNIT.,$,.RADIAN.);
#30= IFCMEASUREWITHUNIT(IFCRATIOMEASURE(0.0174532925199433),#29);
#31= IFCDIMENSIONALEXPONENTS(0,0,0,0,0,0,0);
#32= IFCCONVERSIONBASEDUNIT(#31,.PLANEANGLEUNIT.,'DEGREE',#30);
#33= IFCSIUNIT(*,.SOLIDANGLEUNIT.,$,.STERADIAN.);
#34= IFCSIUNIT(*,.THERMODYNAMICTEMPERATUREUNIT.,$,.DEGREE_CELSIUS.);
#35= IFCSIUNIT(*,.LUMINOUSINTENSITYUNIT.,$,.LUMEN.);
#36= IFCUNITASSIGNMENT((#15,#19,#23,#27,#28,#29,#33,#34,#35));
#37= IFCPROJECT('2G7ZFDNE16yBDU14FA92Me',#5,'Proyecto',$,$,$,$,(#11),#36);
#38= IFCLOCALPLACEMENT($,#10);
#39= IFCSITE('2xvEzEinjBTea80yOTcujY',#5,'Obra',$,$,#38,$,$,.ELEMENT.,$,$,$,$,$);
#40= IFCLOCALPLACEMENT(#38,#10);
#41= IFCBUILDING('31Q_BI6sz7o9kOsrTri_9k',#5,'Undefined',$,$,#40,$,$,.ELEMENT.,$,$,$);
#42= IFCLOCALPLACEMENT(#40,#10);
#43= IFCBUILDINGSTOREY('29hdEUCErFze9E_VIAceOd',#5,'Undefined',$,$,#42,$,$,.ELEMENT.,0.);
#44= IFCOWNERHISTORY(#3,#4,$,.NOCHANGE.,$,$,$,1775592000);
#45= IFCCARTESIANPOINT((5671.51900482178,1603.28932952881,18935.));
#46= IFCAXIS2PLACEMENT3D(#45,#9,#7);
#47= IFCLOCALPLACEMENT(#42,#46);
#48= IFCDIRECTION((1.,0.));
#49= IFCCARTESIANPOINT((0.,0.));
#50= IFCAXIS2PLACEMENT2D(#49,#48);
#51= IFCISHAPEPROFILEDEF(.AREA.,'HI830-10-25*250',#50,250.,830.,10.,25.,7.);
#52= IFCDIRECTION((0.,-1.,0.));
#53= IFCDIRECTION((-1.,0.,0.));
#54= IFCCARTESIANPOINT((2615.48099517822,0.,0.));
#55= IFCAXIS2PLACEMENT3D(#54,#53,#52);
#56= IFCEXTRUDEDAREASOLID(#51,#55,#9,2615.48);
#57= IFCCARTESIANPOINT((2615.48099517822,0.,-515.));
#58= IFCAXIS2PLACEMENT3D(#57,#53,#8);
#59= IFCPLANE(#58);
#60= IFCHALFSPACESOLID(#59,.T.);
#61= IFCBOOLEANCLIPPINGRESULT(.DIFFERENCE.,#56,#60);
#62= IFCSHAPEREPRESENTATION(#12,'Body','Clipping',(#61));
#63= IFCPRODUCTDEFINITIONSHAPE($,$,(#62));
#64= IFCBEAM('3aXMzIZFT6V8WGLnHLfykz',#44,'BEAM','HI830-10-25*250','HI830-10-25*250',#47,#63,'IDe4856f52-8cf7-467c-8810-571455a7cbbd');
#65= IFCLOCALPLACEMENT(#42,#46);
#66= IFCRECTANGLEPROFILEDEF(.AREA.,'PL138*12',#50,12.,138.);
#67= IFCDIRECTION((0.,0.,-1.));
#68= IFCCARTESIANPOINT((2621.48099517822,-57.,416.));
#69= IFCAXIS2PLACEMENT3D(#68,#67,#53);
#70= IFCEXTRUDEDAREASOLID(#66,#69,#9,832.);
#71= IFCSHAPEREPRESENTATION(#12,'Body','SweptSolid',(#70));
#72= IFCPRODUCTDEFINITIONSHAPE($,$,(#71));
#73= IFCOPENINGELEMENT('2Pu1lK4v57SRzOeSJfGy$9',#5,$,$,'Recess',#65,#72,$);
#74= IFCRELVOIDSELEMENT('0g5KCdl31CofX5IJyOJGL$',#5,$,$,#64,#73);
#75= IFCPROPERTYSINGLEVALUE('FeatureSubTypes',$,$,$);
#76= IFCPROPERTYSINGLEVALUE('RectangleOpeningWidth',$,IFCPOSITIVELENGTHMEASURE(12.),$);
#77= IFCPROPERTYSINGLEVALUE('RectangleOpeningHeight',$,IFCPOSITIVELENGTHMEASURE(138.),$);
#78= IFCPROPERTYSINGLEVALUE('OpeningDiameter',$,$,$);
#79= IFCPROPERTYSET('3iPuJniyLC9PfNtrvAq3Yh',#5,'AISC_EM11_Pset_Opening/Cope',$,(#75,#76,#77,#78));
#80= IFCLOCALPLACEMENT(#42,#46);
#81= IFCCARTESIANPOINT((2621.48099517822,57.,416.));
#82= IFCAXIS2PLACEMENT3D(#81,#67,#53);
#83= IFCEXTRUDEDAREASOLID(#66,#82,#9,832.);
#84= IFCSHAPEREPRESENTATION(#12,'Body','SweptSolid',(#83));
#85= IFCPRODUCTDEFINITIONSHAPE($,$,(#84));
#86= IFCOPENINGELEMENT('3F$e_UKF1ATfrZD4bSFKQL',#5,$,$,'Recess',#80,#85,$);
#87= IFCRELVOIDSELEMENT('0eTHQS8OfBwwn2CGYXabFP',#5,$,$,#64,#86);
#88= IFCLOCALPLACEMENT(#42,#46);
#89= IFCRECTANGLEPROFILEDEF(.AREA.,'PL163.2*12',#50,12.,163.2);
#90= IFCCARTESIANPOINT((2621.4897589278,-69.3998298642427,221.));
#91= IFCAXIS2PLACEMENT3D(#90,#67,#53);
#92= IFCEXTRUDEDAREASOLID(#89,#91,#9,442.);
#93= IFCSHAPEREPRESENTATION(#12,'Body','SweptSolid',(#92));
#94= IFCPRODUCTDEFINITIONSHAPE($,$,(#93));
#95= IFCOPENINGELEMENT('02VkqNfXr3$v7wtsQrfIgz',#5,$,$,'Recess',#88,#94,$);
#96= IFCRELVOIDSELEMENT('2dJkGKPIT1sBqOjK4LQdzh',#5,$,$,#64,#95);
#97= IFCPROPERTYSINGLEVALUE('RectangleOpeningHeight',$,IFCPOSITIVELENGTHMEASURE(163.2),$);
#98= IFCPROPERTYSET('2PuFQx3F15PPgYwD4nqrsT',#5,'AISC_EM11_Pset_Opening/Cope',$,(#75,#76,#97,#78));
#99= IFCLOCALPLACEMENT(#42,#46);
#100= IFCRECTANGLEPROFILEDEF(.AREA.,'PL162.8*12',#50,12.,162.8);
#101= IFCCARTESIANPOINT((2621.48975892778,69.6001701357482,221.));
#102= IFCAXIS2PLACEMENT3D(#101,#67,#53);
#103= IFCEXTRUDEDAREASOLID(#100,#102,#9,442.);
#104= IFCSHAPEREPRESENTATION(#12,'Body','SweptSolid',(#103));
#105= IFCPRODUCTDEFINITIONSHAPE($,$,(#104));
#106= IFCOPENINGELEMENT('0DHZYc6998kB2citBVf9ow',#5,$,$,'Recess',#99,#105,$);
#107= IFCRELVOIDSELEMENT('2iUC6X4zTDtPdEAFWVuhqO',#5,$,$,#64,#106);
#108= IFCPROPERTYSINGLEVALUE('RectangleOpeningHeight',$,IFCPOSITIVELENGTHMEASURE(162.8),$);
#109= IFCPROPERTYSET('3kD7JcH6X2pepTA9RzRWIA',#5,'AISC_EM11_Pset_Opening/Cope',$,(#75,#76,#108,#78));
#110= IFCLOCALPLACEMENT(#42,#46);
#111= IFCRECTANGLEPROFILEDEF(.AREA.,'PL108*12',#50,12.,108.);
#112= IFCCARTESIANPOINT((2621.48099517653,-40.7803465147317,226.));
#113= IFCAXIS2PLACEMENT3D(#112,#67,#53);
#114= IFCEXTRUDEDAREASOLID(#111,#113,#9,452.);
#115= IFCSHAPEREPRESENTATION(#12,'Body','SweptSolid',(#114));
#116= IFCPRODUCTDEFINITIONSHAPE($,$,(#115));
#117= IFCOPENINGELEMENT('1obNHk8x97Q8bUgOMUkgIb',#5,$,$,'Recess',#110,#116,$);
#118= IFCRELVOIDSELEMENT('20sQ4n$Uf5sBw5XVEvTB7O',#5,$,$,#64,#117);
#119= IFCPROPERTYSINGLEVALUE('RectangleOpeningHeight',$,IFCPOSITIVELENGTHMEASURE(108.),$);
#120= IFCPROPERTYSET('3xJPgcDwPBrABUsngq5SPD',#5,'AISC_EM11_Pset_Opening/Cope',$,(#75,#76,#119,#78));
#121= IFCLOCALPLACEMENT(#42,#46);
#122= IFCCARTESIANPOINT((2621.48099517651,43.2196534852619,226.));
#123= IFCAXIS2PLACEMENT3D(#122,#67,#53);
#124= IFCEXTRUDEDAREASOLID(#111,#123,#9,452.);
#125= IFCSHAPEREPRESENTATION(#12,'Body','SweptSolid',(#124));
#126= IFCPRODUCTDEFINITIONSHAPE($,$,(#125));
#127= IFCOPENINGELEMENT('3otVXKBZ90rfJQL7Bc7ZEC',#5,$,$,'Recess',#121,#126,$);
#128= IFCRELVOIDSELEMENT('3jK5LDc290CeijoFKq2KRa',#5,$,$,#64,#127);
#129= IFCCARTESIANPOINT((8287.,1603.28932952881,19350.));
#130= IFCAXIS2PLACEMENT3D(#129,#53,#67);
#131= IFCLOCALPLACEMENT(#42,#130);
#132= IFCCIRCLEPROFILEDEF(.AREA.,$,#50,9.5);
#133= IFCCARTESIANPOINT((0.,-5.10000000000001,0.));
#134= IFCAXIS2PLACEMENT3D(#133,#8,#7);
#135= IFCEXTRUDEDAREASOLID(#132,#134,#9,10.2);
#136= IFCSHAPEREPRESENTATION(#12,'Body','SweptSolid',(#135));
#137= IFCREPRESENTATIONMAP(#10,#136);
#138= IFCCARTESIANPOINT((115.,0.,45.));
#139= IFCCARTESIANTRANSFORMATIONOPERATOR3D($,$,#138,$,$);
#140= IFCMAPPEDITEM(#137,#139);
#141= IFCCARTESIANPOINT((215.,0.,45.));
#142= IFCCARTESIANTRANSFORMATIONOPERATOR3D($,$,#141,$,$);
#143= IFCMAPPEDITEM(#137,#142);
#144= IFCCARTESIANPOINT((315.,0.,45.));
#145= IFCCARTESIANTRANSFORMATIONOPERATOR3D($,$,#144,$,$);
#146= IFCMAPPEDITEM(#137,#145);
#147= IFCCARTESIANPOINT((415.,0.,45.));
#148= IFCCARTESIANTRANSFORMATIONOPERATOR3D($,$,#147,$,$);
#149= IFCMAPPEDITEM(#137,#148);
#150= IFCCARTESIANPOINT((515.,0.,45.));
#151= IFCCARTESIANTRANSFORMATIONOPERATOR3D($,$,#150,$,$);
#152= IFCMAPPEDITEM(#137,#151);
#153= IFCCARTESIANPOINT((615.,0.,45.));
#154= IFCCARTESIANTRANSFORMATIONOPERATOR3D($,$,#153,$,$);
#155= IFCMAPPEDITEM(#137,#154);
#156= IFCCARTESIANPOINT((715.,0.,45.));
#157= IFCCARTESIANTRANSFORMATIONOPERATOR3D($,$,#156,$,$);
#158= IFCMAPPEDITEM(#137,#157);
#159= IFCSHAPEREPRESENTATION(#12,'Body','MappedRepresentation',(#140,#143,#146,#149,#152,#155,#158));
#160= IFCPRODUCTDEFINITIONSHAPE($,$,(#159));
#161= IFCOPENINGELEMENT('1X8a7quQz6JPilGP5hRM4S',#5,$,$,'Opening',#131,#160,$);
#162= IFCRELVOIDSELEMENT('3ba60muTzC3Ok8n1DILA3x',#5,'Drill Hole',$,#64,#161);
#163= IFCPROPERTYSINGLEVALUE('FeatureSubTypes',$,IFCLABEL('TORNILLO'),$);
#164= IFCPROPERTYSINGLEVALUE('RectangleOpeningWidth',$,$,$);
#165= IFCPROPERTYSINGLEVALUE('RectangleOpeningHeight',$,$,$);
#166= IFCPROPERTYSET('3UuXw8E6nDwPjVdrNCboi6',#5,'AISC_EM11_Pset_Opening/Cope',$,(#163,#164,#165,#78));
#167= IFCCARTESIANPOINT((8242.10796519996,1603.29535644531,18520.));
#168= IFCDIRECTION((-0.00143953599980887,0.999998963867516,0.));
#169= IFCDIRECTION((-0.999998963867516,-0.00143953599980912,0.));
#170= IFCAXIS2PLACEMENT3D(#167,#168,#169);
#171= IFCLOCALPLACEMENT(#42,#170);
#172= IFCCIRCLEPROFILEDEF(.AREA.,$,#50,11.5);
#173= IFCCARTESIANPOINT((0.,-0.1,0.));
#174= IFCAXIS2PLACEMENT3D(#173,#8,#7);
#175= IFCEXTRUDEDAREASOLID(#172,#174,#9,25.2);
#176= IFCSHAPEREPRESENTATION(#12,'Body','SweptSolid',(#175));
#177= IFCREPRESENTATIONMAP(#10,#176);
#178= IFCCARTESIANPOINT((3.27418092638254E-11,0.,-74.999999999995));
#179= IFCCARTESIANTRANSFORMATIONOPERATOR3D($,$,#178,$,$);
#180= IFCMAPPEDITEM(#177,#179);
#181= IFCCARTESIANPOINT((74.9999999999945,0.,-75.0000000000632));
#182= IFCCARTESIANTRANSFORMATIONOPERATOR3D($,$,#181,$,$);
#183= IFCMAPPEDITEM(#177,#182);
#184= IFCCARTESIANPOINT((149.999999999956,0.,-75.0000000001314));
#185= IFCCARTESIANTRANSFORMATIONOPERATOR3D($,$,#184,$,$);
#186= IFCMAPPEDITEM(#177,#185);
#187= IFCCARTESIANPOINT((224.999999999917,0.,-75.0000000001996));
#188= IFCCARTESIANTRANSFORMATIONOPERATOR3D($,$,#187,$,$);
#189= IFCMAPPEDITEM(#177,#188);
#190= IFCCARTESIANPOINT((299.999999999878,0.,-75.0000000002681));
#191= IFCCARTESIANTRANSFORMATIONOPERATOR3D($,$,#190,$,$);
#192= IFCMAPPEDITEM(#177,#191);
#193= IFCCARTESIANPOINT((374.999999999839,0.,-75.0000000003363));
#194= IFCCARTESIANTRANSFORMATIONOPERATOR3D($,$,#193,$,$);
#195= IFCMAPPEDITEM(#177,#194);
#196= IFCCARTESIANPOINT((449.999999999801,0.,-75.0000000004045));
#197= IFCCARTESIANTRANSFORMATIONOPERATOR3D($,$,#196,$,$);
#198= IFCMAPPEDITEM(#177,#197);
#199= IFCCARTESIANPOINT((524.999999999761,0.,-75.0000000004727));
#200= IFCCARTESIANTRANSFORMATIONOPERATOR3D($,$,#199,$,$);
#201= IFCMAPPEDITEM(#177,#200);
#202= IFCCARTESIANPOINT((599.999999999723,0.,-75.0000000005409));
#203= IFCCARTESIANTRANSFORMATIONOPERATOR3D($,$,#202,$,$);
#204= IFCMAPPEDITEM(#177,#203);
#205= IFCCARTESIANPOINT((674.999999999683,0.,-75.0000000006091));
#206= IFCCARTESIANTRANSFORMATIONOPERATOR3D($,$,#205,$,$);
#207= IFCMAPPEDITEM(#177,#206);
#208= IFCCARTESIANPOINT((-3.45607986673713E-11,0.,74.999999999995));
#209= IFCCARTESIANTRANSFORMATIONOPERATOR3D($,$,#208,$,$);
#210= IFCMAPPEDITEM(#177,#209);
#211= IFCCARTESIANPOINT((74.9999999999272,0.,74.9999999999268));
#212= IFCCARTESIANTRANSFORMATIONOPERATOR3D($,$,#211,$,$);
#213= IFCMAPPEDITEM(#177,#212);
#214= IFCCARTESIANPOINT((149.999999999887,0.,74.9999999998586));
#215= IFCCARTESIANTRANSFORMATIONOPERATOR3D($,$,#214,$,$);
#216= IFCMAPPEDITEM(#177,#215);
#217= IFCCARTESIANPOINT((224.999999999849,0.,74.9999999997904));
#218= IFCCARTESIANTRANSFORMATIONOPERATOR3D($,$,#217,$,$);
#219= IFCMAPPEDITEM(#177,#218);
#220= IFCCARTESIANPOINT((299.99999999981,0.,74.9999999997221));
#221= IFCCARTESIANTRANSFORMATIONOPERATOR3D($,$,#220,$,$);
#222= IFCMAPPEDITEM(#177,#221);
#223= IFCCARTESIANPOINT((374.999999999772,0.,74.9999999996539));
#224= IFCCARTESIANTRANSFORMATIONOPERATOR3D($,$,#223,$,$);
#225= IFCMAPPEDITEM(#177,#224);
#226= IFCCARTESIANPOINT((449.999999999732,0.,74.9999999995855));
#227= IFCCARTESIANTRANSFORMATIONOPERATOR3D($,$,#226,$,$);
#228= IFCMAPPEDITEM(#177,#227);
#229= IFCCARTESIANPOINT((524.999999999694,0.,74.9999999995173));
#230= IFCCARTESIANTRANSFORMATIONOPERATOR3D($,$,#229,$,$);
#231= IFCMAPPEDITEM(#177,#230);
#232= IFCCARTESIANPOINT((599.999999999654,0.,74.9999999994491));
#233= IFCCARTESIANTRANSFORMATIONOPERATOR3D($,$,#232,$,$);
#234= IFCMAPPEDITEM(#177,#233);
#235= IFCCARTESIANPOINT((674.999999999615,0.,74.9999999993809));
#236= IFCCARTESIANTRANSFORMATIONOPERATOR3D($,$,#235,$,$);
#237= IFCMAPPEDITEM(#177,#236);
#238= IFCSHAPEREPRESENTATION(#12,'Body','MappedRepresentation',(#180,#183,#186,#189,#192,#195,#198,#201,#204,#207,#210,#213,#216,#219,#222,#225,#228,#231,#234,#237));
#239= IFCPRODUCTDEFINITIONSHAPE($,$,(#238));
#240= IFCOPENINGELEMENT('0I3yWyenv7$uLaWeeygVNL',#5,$,$,'Opening',#171,#239,$);
#241= IFCRELVOIDSELEMENT('3W3az7bBTBiuyjNWccvKkz',#5,'Drill Hole',$,#64,#240);
#242= IFCCARTESIANPOINT((8242.10796519996,1603.29535644531,19350.));
#243= IFCDIRECTION((0.00143953599980887,-0.999998963867516,0.));
#244= IFCAXIS2PLACEMENT3D(#242,#243,#169);
#245= IFCLOCALPLACEMENT(#42,#244);
#246= IFCCIRCLEPROFILEDEF(.AREA.,$,#50,12.5);
#247= IFCEXTRUDEDAREASOLID(#246,#174,#9,25.2);
#248= IFCSHAPEREPRESENTATION(#12,'Body','SweptSolid',(#247));
#249= IFCREPRESENTATIONMAP(#10,#248);
#250= IFCMAPPEDITEM(#249,#179);
#251= IFCMAPPEDITEM(#249,#182);
#252= IFCMAPPEDITEM(#249,#185);
#253= IFCMAPPEDITEM(#249,#188);
#254= IFCMAPPEDITEM(#249,#191);
#255= IFCMAPPEDITEM(#249,#194);
#256= IFCMAPPEDITEM(#249,#197);
#257= IFCMAPPEDITEM(#249,#200);
#258= IFCMAPPEDITEM(#249,#203);
#259= IFCMAPPEDITEM(#249,#206);
#260= IFCMAPPEDITEM(#249,#209);
#261= IFCMAPPEDITEM(#249,#212);
#262= IFCMAPPEDITEM(#249,#215);
#263= IFCMAPPEDITEM(#249,#218);
#264= IFCMAPPEDITEM(#249,#221);
#265= IFCMAPPEDITEM(#249,#224);
#266= IFCMAPPEDITEM(#249,#227);
#267= IFCMAPPEDITEM(#249,#230);
#268= IFCMAPPEDITEM(#249,#233);
#269= IFCMAPPEDITEM(#249,#236);
#270= IFCSHAPEREPRESENTATION(#12,'Body','MappedRepresentation',(#250,#251,#252,#253,#254,#255,#256,#257,#258,#259,#260,#261,#262,#263,#264,#265,#266,#267,#268,#269));
#271= IFCPRODUCTDEFINITIONSHAPE($,$,(#270));
#272= IFCOPENINGELEMENT('1bI_glV5jA$Qt8HSe2apAF',#5,$,$,'Opening',#245,#271,$);
#273= IFCRELVOIDSELEMENT('3zUReehKn6Nf1xu8wqEAC_',#5,'Drill Hole',$,#64,#272);
#274= IFCPROPERTYSINGLEVALUE('PieceMark',$,IFCIDENTIFIER('BEAM'),$);
#275= IFCPROPERTYSINGLEVALUE('IndicationMark',$,IFCIDENTIFIER('b/12'),$);
#276= IFCPROPERTYSINGLEVALUE('PrelimMark',$,IFCIDENTIFIER(''),$);
#277= IFCPROPERTYSINGLEVALUE('MainPieceTag',$,IFCBOOLEAN(.T.),$);
#278= IFCPROPERTYSET('0VtVQh4YPCCxJv5E6aOxYW',#5,'AISC_EM11_Pset_PieceIdentification','PieceIdentity',(#274,#275,#276,#277));
#279= IFCPROPERTYSINGLEVALUE('MaterialType',$,IFCIDENTIFIER('STEEL'),$);
#280= IFCPROPERTYSINGLEVALUE('MaterialGrade',$,IFCIDENTIFIER('S235JR'),$);
#281= IFCPROPERTYSET('3RGMFiWSjBtwWWnyN8Y_xX',#5,'AISC_EM11_Pset_Material',$,(#279,#280));
#282= IFCPROPERTYSINGLEVALUE('SkewedAngleY',$,IFCREAL(0.),$);
#283= IFCPROPERTYSINGLEVALUE('SkewedAngleX',$,IFCREAL(0.),$);
#284= IFCPROPERTYSET('2ATKua4q52xA4hQmXT_kk5',#5,'AISC_EM11_Pset_SkewedEnd',$,(#282,#283));
#285= IFCPROPERTYSET('1zhdCHqHn7Xh6coacZFvwK',#5,'AISC_EM11_Pset_SkewedEnd_2',$,(#282,#283));
#286= IFCMATERIAL('STEEL/S235JR');
#287= IFCRELAGGREGATES('3EugZQmLXBduHWgADZoCBL',#5,$,$,#37,(#39));
#288= IFCRELAGGREGATES('2WAyri2dpTvAZoySVr4UTd',#5,$,$,#39,(#41));
#289= IFCRELAGGREGATES('31rVyn7G17CwTMHDMD2YjO',#5,$,$,#41,(#43));
#290= IFCRELCONTAINEDINSPATIALSTRUCTURE('0jFbAYN2bBJgTrjrWb7MeO',#5,$,$,(#64),#43);
#291= IFCRELDEFINESBYPROPERTIES('0SavU5wpf1SxEWKnphwl73',#5,$,$,(#86,#73),#79);
#292= IFCRELDEFINESBYPROPERTIES('3NcM$JJE96HeQsn8DAjEPK',#5,$,$,(#95),#98);
#293= IFCRELDEFINESBYPROPERTIES('1Xq6hwSH9EhBI4FjPlTq3V',#5,$,$,(#106),#109);
#294= IFCRELDEFINESBYPROPERTIES('2xqucrslP0oBtY8pvMpdW9',#5,$,$,(#127,#117),#120);
#295= IFCRELDEFINESBYPROPERTIES('1F1jhW4yfBcACVXT6F2RiR',#5,$,$,(#272,#240,#161),#166);
#296= IFCRELDEFINESBYPROPERTIES('2mZAW5Ec5FM9tYa4qdlMJl',#5,$,$,(#64),#278);
#297= IFCRELDEFINESBYPROPERTIES('1QXl4RSg16JAM8lLVov_0h',#5,$,$,(#64),#281);
#298= IFCRELDEFINESBYPROPERTIES('1YHqlzXpvFJRpLiSh8sjs3',#5,$,$,(#64),#284);
#299= IFCRELDEFINESBYPROPERTIES('3TVJnAFcL3fA1io9S2gDYr',#5,$,$,(#64),#285);
#300= IFCRELASSOCIATESMATERIAL('27iRWF0h1BAQlo4Gs87qYt',#5,$,$,(#64),#286);
ENDSEC;

END-ISO-10303-21;
