ISO-10303-21;
HEADER;
FILE_DESCRIPTION(('ViewDefinition[AISC_Steel_Detailing]', 'Option [BaseQuantities:Off]', 'Option [GridExport:On]', 'Option [Assemblies:Off]', 'Option [Bolts:On]', 'Option [Rebars:On]', 'Option [PourObjects:Off]', 'Option [Welds:On]', 'Option [SurfaceTreatments:On]', 'Option [LocationBy:0]', 'Option [ViewColors:Off]', 'Option [SectionedSpine:Off]', 'Option [PropertySets:On]', 'Option [Export all:Off]'),'2;1');
FILE_NAME('b_127_Qty_1.ifc','2026-05-16T11:53:19',('GIOVANNIPC\\gcorrea'),('Structural Designer'),'IFC Database version: Work','Tekla Structures 2020 Service Pack 5, IFC Export Version: 4.0.0.0 Dec  7 2020','');
FILE_SCHEMA(('IFC2X3'));
ENDSEC;

DATA;
#1= IFCPERSON('GIOVANNIPC\\gcorrea','Undefined',$,$,$,$,$,$);
#2= IFCORGANIZATION($,'Trimble Solutions Corporation',$,$,$);
#3= IFCPERSONANDORGANIZATION(#1,#2,$);
#4= IFCAPPLICATION(#2,'2020 Service Pack 5','Tekla Structures','Multi material modeling');
#5= IFCOWNERHISTORY(#3,#4,$,.NOCHANGE.,$,$,$,1778950399);
#6= IFCCARTESIANPOINT((0.,0.,0.));
#7= IFCDIRECTION((1.,0.,0.));
#8= IFCDIRECTION((0.,1.,0.));
#9= IFCDIRECTION((0.,0.,1.));
#10= IFCAXIS2PLACEMENT3D(#6,#9,#7);
#11= IFCGEOMETRICREPRESENTATIONCONTEXT($,'Model',3,1.E-05,#10,$);
#12= IFCGEOMETRICREPRESENTATIONSUBCONTEXT('Body','Model',*,*,*,*,#11,$,.MODEL_VIEW.,$);
#13= IFCGEOMETRICREPRESENTATIONSUBCONTEXT('Axis','Model',*,*,*,*,#11,$,.GRAPH_VIEW.,$);
#14= IFCGEOMETRICREPRESENTATIONSUBCONTEXT('FootPrint','Model',*,*,*,*,#11,$,.MODEL_VIEW.,$);
#15= IFCSIUNIT(*,.LENGTHUNIT.,.MILLI.,.METRE.);
#16= IFCMEASUREWITHUNIT(IFCRATIOMEASURE(304.8),#15);
#17= IFCDIMENSIONALEXPONENTS(1,0,0,0,0,0,0);
#18= IFCCONVERSIONBASEDUNIT(#17,.LENGTHUNIT.,'FOOT',#16);
#19= IFCSIUNIT(*,.AREAUNIT.,$,.SQUARE_METRE.);
#20= IFCMEASUREWITHUNIT(IFCRATIOMEASURE(0.09290304),#19);
#21= IFCDIMENSIONALEXPONENTS(2,0,0,0,0,0,0);
#22= IFCCONVERSIONBASEDUNIT(#21,.AREAUNIT.,'SQUARE FOOT',#20);
#23= IFCSIUNIT(*,.VOLUMEUNIT.,$,.CUBIC_METRE.);
#24= IFCMEASUREWITHUNIT(IFCRATIOMEASURE(0.028316846592),#23);
#25= IFCDIMENSIONALEXPONENTS(3,0,0,0,0,0,0);
#26= IFCCONVERSIONBASEDUNIT(#25,.VOLUMEUNIT.,'CUBIC FOOT',#24);
#27= IFCSIUNIT(*,.MASSUNIT.,.KILO.,.GRAM.);
#28= IFCSIUNIT(*,.TIMEUNIT.,$,.SECOND.);
#29= IFCSIUNIT(*,.PLANEANGLEUNIT.,$,.RADIAN.);
#30= IFCMEASUREWITHUNIT(IFCRATIOMEASURE(0.0174532925199433),#29);
#31= IFCDIMENSIONALEXPONENTS(0,0,0,0,0,0,0);
#32= IFCCONVERSIONBASEDUNIT(#31,.PLANEANGLEUNIT.,'DEGREE',#30);
#33= IFCSIUNIT(*,.SOLIDANGLEUNIT.,$,.STERADIAN.);
#34= IFCSIUNIT(*,.THERMODYNAMICTEMPERATUREUNIT.,$,.DEGREE_CELSIUS.);
#35= IFCSIUNIT(*,.LUMINOUSINTENSITYUNIT.,$,.LUMEN.);
#36= IFCUNITASSIGNMENT((#15,#19,#23,#27,#28,#29,#33,#34,#35));
#37= IFCPROJECT('2G7ZFDNE16yBDU14FA92Me',#5,'Proyecto',$,$,$,$,(#11),#36);
#38= IFCLOCALPLACEMENT($,#10);
#39= IFCSITE('2xvEzEinjBTea80yOTcujY',#5,'Obra',$,$,#38,$,$,.ELEMENT.,$,$,$,$,$);
#40= IFCLOCALPLACEMENT(#38,#10);
#41= IFCBUILDING('0lddyx4a95$BuXIbOMRLu$',#5,'Undefined',$,$,#40,$,$,.ELEMENT.,$,$,$);
#42= IFCLOCALPLACEMENT(#40,#10);
#43= IFCBUILDINGSTOREY('29hdEUCErFze9E_VIAceOd',#5,'Undefined',$,$,#42,$,$,.ELEMENT.,0.);
#44= IFCOWNERHISTORY(#3,#4,$,.NOCHANGE.,$,$,$,1777928400);
#45= IFCCARTESIANPOINT((42499.99999957,16860.3460183499,13680.));
#46= IFCAXIS2PLACEMENT3D(#45,#9,#8);
#47= IFCLOCALPLACEMENT(#42,#46);
#48= IFCDIRECTION((1.,0.));
#49= IFCCARTESIANPOINT((0.,0.));
#50= IFCAXIS2PLACEMENT2D(#49,#48);
#51= IFCISHAPEPROFILEDEF(.AREA.,'HEA450',#50,300.,440.,11.5,21.,27.);
#52= IFCDIRECTION((6.61744490042422E-24,-1.,0.));
#53= IFCDIRECTION((-1.,-6.61744490042422E-24,0.));
#54= IFCCARTESIANPOINT((4977.05471858224,3.29353853666144E-20,0.));
#55= IFCAXIS2PLACEMENT3D(#54,#53,#52);
#56= IFCEXTRUDEDAREASOLID(#51,#55,#9,4977.05);
#57= IFCCARTESIANPOINT((4977.05469903859,4.74026455776766E-06,-320.));
#58= IFCAXIS2PLACEMENT3D(#57,#53,#8);
#59= IFCPLANE(#58);
#60= IFCHALFSPACESOLID(#59,.T.);
#61= IFCBOOLEANCLIPPINGRESULT(.DIFFERENCE.,#56,#60);
#62= IFCSHAPEREPRESENTATION(#12,'Body','Clipping',(#61));
#63= IFCPRODUCTDEFINITIONSHAPE($,$,(#62));
#64= IFCBEAM('1uV66h61bD1PM998Rif2bb',#44,'BEAM','HEA450','HEA450',#47,#63,'ID787c61ab-1819-4d05-9589-2486eca42965');
#65= IFCLOCALPLACEMENT(#42,#46);
#66= IFCCIRCLEPROFILEDEF(.AREA.,'\S\X305*10',#50,152.5);
#67= IFCDIRECTION((0.,0.,-1.));
#68= IFCCARTESIANPOINT((38.1616695033626,-2.07096309168264E-06,9920.));
#69= IFCAXIS2PLACEMENT3D(#68,#67,#8);
#70= IFCEXTRUDEDAREASOLID(#66,#69,#9,15184.);
#71= IFCCARTESIANPOINT((-114.338330496637,4.48653736384585E-06,-5264.));
#72= IFCAXIS2PLACEMENT3D(#71,#9,#8);
#73= IFCPLANE(#72);
#74= IFCHALFSPACESOLID(#73,.T.);
#75= IFCBOOLEANCLIPPINGRESULT(.DIFFERENCE.,#70,#74);
#76= IFCSHAPEREPRESENTATION(#12,'Body','Clipping',(#75));
#77= IFCPRODUCTDEFINITIONSHAPE($,$,(#76));
#78= IFCOPENINGELEMENT('2_YnwDKaj9tQ3fMs0jz_c3',#5,$,$,'Recess',#65,#77,$);
#79= IFCRELVOIDSELEMENT('0tkoRzV4nDA8kFa1InR_cZ',#5,$,$,#64,#78);
#80= IFCPROPERTYSINGLEVALUE('FeatureSubTypes',$,$,$);
#81= IFCPROPERTYSINGLEVALUE('RectangleOpeningWidth',$,$,$);
#82= IFCPROPERTYSINGLEVALUE('RectangleOpeningHeight',$,$,$);
#83= IFCPROPERTYSINGLEVALUE('OpeningDiameter',$,IFCPOSITIVELENGTHMEASURE(305.),$);
#84= IFCPROPERTYSET('2c8OP8cBH608nWFTvqP2DZ',#5,'AISC_EM11_Pset_Opening/Cope',$,(#80,#81,#82,#83));
#85= IFCCARTESIANPOINT((42499.9997812418,21792.4007173885,13450.));
#86= IFCDIRECTION((-0.999997684458229,-0.00215199400098573,0.));
#87= IFCDIRECTION((0.00215199400098687,-0.999997684458229,0.));
#88= IFCAXIS2PLACEMENT3D(#85,#86,#87);
#89= IFCLOCALPLACEMENT(#42,#88);
#90= IFCCIRCLEPROFILEDEF(.AREA.,$,#50,11.5);
#91= IFCCARTESIANPOINT((0.,9.90000000000011,0.));
#92= IFCAXIS2PLACEMENT3D(#91,#8,#7);
#93= IFCEXTRUDEDAREASOLID(#90,#92,#9,21.2);
#94= IFCSHAPEREPRESENTATION(#12,'Body','SweptSolid',(#93));
#95= IFCREPRESENTATIONMAP(#10,#94);
#96= IFCCARTESIANPOINT((0.,0.,74.9999999996144));
#97= IFCCARTESIANTRANSFORMATIONOPERATOR3D($,$,#96,$,$);
#98= IFCMAPPEDITEM(#95,#97);
#99= IFCCARTESIANPOINT((75.0000000001492,0.,74.9999999998763));
#100= IFCCARTESIANTRANSFORMATIONOPERATOR3D($,$,#99,$,$);
#101= IFCMAPPEDITEM(#95,#100);
#102= IFCCARTESIANPOINT((150.000000000298,0.,75.0000000001528));
#103= IFCCARTESIANTRANSFORMATIONOPERATOR3D($,$,#102,$,$);
#104= IFCMAPPEDITEM(#95,#103);
#105= IFCCARTESIANPOINT((225.000000000447,0.,75.0000000004293));
#106= IFCCARTESIANTRANSFORMATIONOPERATOR3D($,$,#105,$,$);
#107= IFCMAPPEDITEM(#95,#106);
#108= IFCCARTESIANPOINT((300.000000000597,0.,75.0000000007058));
#109= IFCCARTESIANTRANSFORMATIONOPERATOR3D($,$,#108,$,$);
#110= IFCMAPPEDITEM(#95,#109);
#111= IFCCARTESIANPOINT((375.000000000746,0.,75.000000000975));
#112= IFCCARTESIANTRANSFORMATIONOPERATOR3D($,$,#111,$,$);
#113= IFCMAPPEDITEM(#95,#112);
#114= IFCCARTESIANPOINT((450.000000000895,0.,75.0000000012442));
#115= IFCCARTESIANTRANSFORMATIONOPERATOR3D($,$,#114,$,$);
#116= IFCMAPPEDITEM(#95,#115);
#117= IFCCARTESIANPOINT((525.000000001044,0.,75.0000000015207));
#118= IFCCARTESIANTRANSFORMATIONOPERATOR3D($,$,#117,$,$);
#119= IFCMAPPEDITEM(#95,#118);
#120= IFCCARTESIANPOINT((600.000000001197,0.,75.0000000017972));
#121= IFCCARTESIANTRANSFORMATIONOPERATOR3D($,$,#120,$,$);
#122= IFCMAPPEDITEM(#95,#121);
#123= IFCCARTESIANPOINT((675.000000001342,0.,75.0000000020664));
#124= IFCCARTESIANTRANSFORMATIONOPERATOR3D($,$,#123,$,$);
#125= IFCMAPPEDITEM(#95,#124);
#126= IFCCARTESIANPOINT((-3.63797880709171E-12,0.,-74.9999999995998));
#127= IFCCARTESIANTRANSFORMATIONOPERATOR3D($,$,#126,$,$);
#128= IFCMAPPEDITEM(#95,#127);
#129= IFCCARTESIANPOINT((75.0000000001492,0.,-74.9999999993233));
#130= IFCCARTESIANTRANSFORMATIONOPERATOR3D($,$,#129,$,$);
#131= IFCMAPPEDITEM(#95,#130);
#132= IFCCARTESIANPOINT((150.000000000295,0.,-74.9999999990541));
#133= IFCCARTESIANTRANSFORMATIONOPERATOR3D($,$,#132,$,$);
#134= IFCMAPPEDITEM(#95,#133);
#135= IFCCARTESIANPOINT((225.000000000447,0.,-74.9999999987849));
#136= IFCCARTESIANTRANSFORMATIONOPERATOR3D($,$,#135,$,$);
#137= IFCMAPPEDITEM(#95,#136);
#138= IFCCARTESIANPOINT((300.000000000597,0.,-74.9999999985084));
#139= IFCCARTESIANTRANSFORMATIONOPERATOR3D($,$,#138,$,$);
#140= IFCMAPPEDITEM(#95,#139);
#141= IFCCARTESIANPOINT((375.000000000746,0.,-74.9999999982319));
#142= IFCCARTESIANTRANSFORMATIONOPERATOR3D($,$,#141,$,$);
#143= IFCMAPPEDITEM(#95,#142);
#144= IFCCARTESIANPOINT((450.000000000895,0.,-74.9999999979555));
#145= IFCCARTESIANTRANSFORMATIONOPERATOR3D($,$,#144,$,$);
#146= IFCMAPPEDITEM(#95,#145);
#147= IFCCARTESIANPOINT((525.000000001044,0.,-74.9999999976862));
#148= IFCCARTESIANTRANSFORMATIONOPERATOR3D($,$,#147,$,$);
#149= IFCMAPPEDITEM(#95,#148);
#150= IFCCARTESIANPOINT((600.000000001197,0.,-74.999999997417));
#151= IFCCARTESIANTRANSFORMATIONOPERATOR3D($,$,#150,$,$);
#152= IFCMAPPEDITEM(#95,#151);
#153= IFCCARTESIANPOINT((675.000000001342,0.,-74.9999999971405));
#154= IFCCARTESIANTRANSFORMATIONOPERATOR3D($,$,#153,$,$);
#155= IFCMAPPEDITEM(#95,#154);
#156= IFCSHAPEREPRESENTATION(#12,'Body','MappedRepresentation',(#98,#101,#104,#107,#110,#113,#116,#119,#122,#125,#128,#131,#134,#137,#140,#143,#146,#149,#152,#155));
#157= IFCPRODUCTDEFINITIONSHAPE($,$,(#156));
#158= IFCOPENINGELEMENT('07I1BCeVD6lfy4Uah1b67h',#5,$,$,'Opening',#89,#157,$);
#159= IFCRELVOIDSELEMENT('3SjOfrRF5EoeFqJ2188ycg',#5,'Drill Hole',$,#64,#158);
#160= IFCPROPERTYSINGLEVALUE('FeatureSubTypes',$,IFCLABEL('TORNILLO'),$);
#161= IFCPROPERTYSINGLEVALUE('OpeningDiameter',$,$,$);
#162= IFCPROPERTYSET('3YzXivxzv4zOnxVbty8VQd',#5,'AISC_EM11_Pset_Opening/Cope',$,(#160,#81,#82,#161));
#163= IFCCARTESIANPOINT((42499.9997812418,21792.4007173885,13900.));
#164= IFCDIRECTION((0.999997684458229,0.00215199400098209,0.));
#165= IFCAXIS2PLACEMENT3D(#163,#164,#87);
#166= IFCLOCALPLACEMENT(#42,#165);
#167= IFCCARTESIANPOINT((0.,-0.1,0.));
#168= IFCAXIS2PLACEMENT3D(#167,#8,#7);
#169= IFCEXTRUDEDAREASOLID(#90,#168,#9,21.2);
#170= IFCSHAPEREPRESENTATION(#12,'Body','SweptSolid',(#169));
#171= IFCREPRESENTATIONMAP(#10,#170);
#172= IFCMAPPEDITEM(#171,#127);
#173= IFCMAPPEDITEM(#171,#130);
#174= IFCMAPPEDITEM(#171,#133);
#175= IFCMAPPEDITEM(#171,#136);
#176= IFCMAPPEDITEM(#171,#139);
#177= IFCMAPPEDITEM(#171,#142);
#178= IFCMAPPEDITEM(#171,#145);
#179= IFCMAPPEDITEM(#171,#148);
#180= IFCMAPPEDITEM(#171,#151);
#181= IFCMAPPEDITEM(#171,#154);
#182= IFCMAPPEDITEM(#171,#97);
#183= IFCMAPPEDITEM(#171,#100);
#184= IFCMAPPEDITEM(#171,#103);
#185= IFCMAPPEDITEM(#171,#106);
#186= IFCMAPPEDITEM(#171,#109);
#187= IFCMAPPEDITEM(#171,#112);
#188= IFCMAPPEDITEM(#171,#115);
#189= IFCMAPPEDITEM(#171,#118);
#190= IFCMAPPEDITEM(#171,#121);
#191= IFCMAPPEDITEM(#171,#124);
#192= IFCSHAPEREPRESENTATION(#12,'Body','MappedRepresentation',(#172,#173,#174,#175,#176,#177,#178,#179,#180,#181,#182,#183,#184,#185,#186,#187,#188,#189,#190,#191));
#193= IFCPRODUCTDEFINITIONSHAPE($,$,(#192));
#194= IFCOPENINGELEMENT('28Y2ABvdTBuPaMbqF1FvlO',#5,$,$,'Opening',#166,#193,$);
#195= IFCRELVOIDSELEMENT('3GuIcXuE18MhDtk6IB7VYE',#5,'Drill Hole',$,#64,#194);
#196= IFCCARTESIANPOINT((42499.9997816718,21837.4007173885,13900.));
#197= IFCAXIS2PLACEMENT3D(#196,#52,#67);
#198= IFCLOCALPLACEMENT(#42,#197);
#199= IFCCARTESIANPOINT((0.,-5.84999849497141,0.));
#200= IFCAXIS2PLACEMENT3D(#199,#8,#7);
#201= IFCEXTRUDEDAREASOLID(#90,#200,#9,11.7);
#202= IFCSHAPEREPRESENTATION(#12,'Body','SweptSolid',(#201));
#203= IFCREPRESENTATIONMAP(#10,#202);
#204= IFCCARTESIANPOINT((80.,0.,45.));
#205= IFCCARTESIANTRANSFORMATIONOPERATOR3D($,$,#204,$,$);
#206= IFCMAPPEDITEM(#203,#205);
#207= IFCCARTESIANPOINT((150.,0.,45.));
#208= IFCCARTESIANTRANSFORMATIONOPERATOR3D($,$,#207,$,$);
#209= IFCMAPPEDITEM(#203,#208);
#210= IFCCARTESIANPOINT((220.,0.,45.));
#211= IFCCARTESIANTRANSFORMATIONOPERATOR3D($,$,#210,$,$);
#212= IFCMAPPEDITEM(#203,#211);
#213= IFCCARTESIANPOINT((290.,0.,45.));
#214= IFCCARTESIANTRANSFORMATIONOPERATOR3D($,$,#213,$,$);
#215= IFCMAPPEDITEM(#203,#214);
#216= IFCCARTESIANPOINT((360.,0.,45.));
#217= IFCCARTESIANTRANSFORMATIONOPERATOR3D($,$,#216,$,$);
#218= IFCMAPPEDITEM(#203,#217);
#219= IFCSHAPEREPRESENTATION(#12,'Body','MappedRepresentation',(#206,#209,#212,#215,#218));
#220= IFCPRODUCTDEFINITIONSHAPE($,$,(#219));
#221= IFCOPENINGELEMENT('2qP2MUEvj67B8Kw67VxNPf',#5,$,$,'Opening',#198,#220,$);
#222= IFCRELVOIDSELEMENT('344eN3om5B6BMsl$1usjGd',#5,'Drill Hole',$,#64,#221);
#223= IFCPROPERTYSINGLEVALUE('PieceMark',$,IFCIDENTIFIER('BEAM'),$);
#224= IFCPROPERTYSINGLEVALUE('IndicationMark',$,IFCIDENTIFIER('b/127'),$);
#225= IFCPROPERTYSINGLEVALUE('PrelimMark',$,IFCIDENTIFIER(''),$);
#226= IFCPROPERTYSINGLEVALUE('MainPieceTag',$,IFCBOOLEAN(.T.),$);
#227= IFCPROPERTYSET('2fonWxXenF1hW0Tpy6$hRg',#5,'AISC_EM11_Pset_PieceIdentification','PieceIdentity',(#223,#224,#225,#226));
#228= IFCPROPERTYSINGLEVALUE('MaterialType',$,IFCIDENTIFIER('STEEL'),$);
#229= IFCPROPERTYSINGLEVALUE('MaterialGrade',$,IFCIDENTIFIER('S235JR'),$);
#230= IFCPROPERTYSET('08gJV3Gmz9feVqjhFKJHOx',#5,'AISC_EM11_Pset_Material',$,(#228,#229));
#231= IFCPROPERTYSINGLEVALUE('SkewedAngleY',$,IFCREAL(0.),$);
#232= IFCPROPERTYSINGLEVALUE('SkewedAngleX',$,IFCREAL(0.),$);
#233= IFCPROPERTYSET('3gg3jPYNH3pBHsldtv9C18',#5,'AISC_EM11_Pset_SkewedEnd',$,(#231,#232));
#234= IFCPROPERTYSET('2fSppzuQPADeCgzgV5unbI',#5,'AISC_EM11_Pset_SkewedEnd_2',$,(#231,#232));
#235= IFCMATERIAL('STEEL/S235JR');
#236= IFCRELAGGREGATES('2jNgMnNnvBEhbzlcfKR5Ta',#5,$,$,#37,(#39));
#237= IFCRELAGGREGATES('2$fye3f3BTWztF1uxcjNls',#5,$,$,#39,(#41));
#238= IFCRELAGGREGATES('030xdQMaD0Px_HVfKoshBv',#5,$,$,#41,(#43));
#239= IFCRELCONTAINEDINSPATIALSTRUCTURE('1xfKhCBrfFxhCLWYGHgX0w',#5,$,$,(#64),#43);
#240= IFCRELDEFINESBYPROPERTIES('3A45KTQiL22u7kovLb45F5',#5,$,$,(#78),#84);
#241= IFCRELDEFINESBYPROPERTIES('3uNdyArS5DzQK6dxHDZ9sp',#5,$,$,(#221,#194,#158),#162);
#242= IFCRELDEFINESBYPROPERTIES('0b0W2MwALDKQALQYHISHTg',#5,$,$,(#64),#227);
#243= IFCRELDEFINESBYPROPERTIES('0AnVVjoC18CRHA0MGy8$dh',#5,$,$,(#64),#230);
#244= IFCRELDEFINESBYPROPERTIES('1VH9sx499F6An8uKj_FctJ',#5,$,$,(#64),#233);
#245= IFCRELDEFINESBYPROPERTIES('1gS0By1_1F4OP4cnlSwaf8',#5,$,$,(#64),#234);
#246= IFCRELASSOCIATESMATERIAL('0tvjLPJgv66wu855eojU8m',#5,$,$,(#64),#235);
ENDSEC;

END-ISO-10303-21;
