ISO-10303-21;
HEADER;
FILE_DESCRIPTION(('ViewDefinition[AISC_Steel_Detailing]', 'Option [BaseQuantities:Off]', 'Option [GridExport:On]', 'Option [Assemblies:Off]', 'Option [Bolts:On]', 'Option [Rebars:On]', 'Option [PourObjects:Off]', 'Option [Welds:On]', 'Option [SurfaceTreatments:On]', 'Option [LocationBy:0]', 'Option [ViewColors:Off]', 'Option [SectionedSpine:Off]', 'Option [PropertySets:On]', 'Option [Export all:Off]'),'2;1');
FILE_NAME('b_1253_Qty_1.ifc','2026-05-16T11:53:06',('GIOVANNIPC\\gcorrea'),('Structural Designer'),'IFC Database version: Work','Tekla Structures 2020 Service Pack 5, IFC Export Version: 4.0.0.0 Dec  7 2020','');
FILE_SCHEMA(('IFC2X3'));
ENDSEC;

DATA;
#1= IFCPERSON('GIOVANNIPC\\gcorrea','Undefined',$,$,$,$,$,$);
#2= IFCORGANIZATION($,'Trimble Solutions Corporation',$,$,$);
#3= IFCPERSONANDORGANIZATION(#1,#2,$);
#4= IFCAPPLICATION(#2,'2020 Service Pack 5','Tekla Structures','Multi material modeling');
#5= IFCOWNERHISTORY(#3,#4,$,.NOCHANGE.,$,$,$,1778950386);
#6= IFCCARTESIANPOINT((0.,0.,0.));
#7= IFCDIRECTION((1.,0.,0.));
#8= IFCDIRECTION((0.,1.,0.));
#9= IFCDIRECTION((0.,0.,1.));
#10= IFCAXIS2PLACEMENT3D(#6,#9,#7);
#11= IFCGEOMETRICREPRESENTATIONCONTEXT($,'Model',3,1.E-05,#10,$);
#12= IFCGEOMETRICREPRESENTATIONSUBCONTEXT('Body','Model',*,*,*,*,#11,$,.MODEL_VIEW.,$);
#13= IFCGEOMETRICREPRESENTATIONSUBCONTEXT('Axis','Model',*,*,*,*,#11,$,.GRAPH_VIEW.,$);
#14= IFCGEOMETRICREPRESENTATIONSUBCONTEXT('FootPrint','Model',*,*,*,*,#11,$,.MODEL_VIEW.,$);
#15= IFCSIUNIT(*,.LENGTHUNIT.,.MILLI.,.METRE.);
#16= IFCMEASUREWITHUNIT(IFCRATIOMEASURE(304.8),#15);
#17= IFCDIMENSIONALEXPONENTS(1,0,0,0,0,0,0);
#18= IFCCONVERSIONBASEDUNIT(#17,.LENGTHUNIT.,'FOOT',#16);
#19= IFCSIUNIT(*,.AREAUNIT.,$,.SQUARE_METRE.);
#20= IFCMEASUREWITHUNIT(IFCRATIOMEASURE(0.09290304),#19);
#21= IFCDIMENSIONALEXPONENTS(2,0,0,0,0,0,0);
#22= IFCCONVERSIONBASEDUNIT(#21,.AREAUNIT.,'SQUARE FOOT',#20);
#23= IFCSIUNIT(*,.VOLUMEUNIT.,$,.CUBIC_METRE.);
#24= IFCMEASUREWITHUNIT(IFCRATIOMEASURE(0.028316846592),#23);
#25= IFCDIMENSIONALEXPONENTS(3,0,0,0,0,0,0);
#26= IFCCONVERSIONBASEDUNIT(#25,.VOLUMEUNIT.,'CUBIC FOOT',#24);
#27= IFCSIUNIT(*,.MASSUNIT.,.KILO.,.GRAM.);
#28= IFCSIUNIT(*,.TIMEUNIT.,$,.SECOND.);
#29= IFCSIUNIT(*,.PLANEANGLEUNIT.,$,.RADIAN.);
#30= IFCMEASUREWITHUNIT(IFCRATIOMEASURE(0.0174532925199433),#29);
#31= IFCDIMENSIONALEXPONENTS(0,0,0,0,0,0,0);
#32= IFCCONVERSIONBASEDUNIT(#31,.PLANEANGLEUNIT.,'DEGREE',#30);
#33= IFCSIUNIT(*,.SOLIDANGLEUNIT.,$,.STERADIAN.);
#34= IFCSIUNIT(*,.THERMODYNAMICTEMPERATUREUNIT.,$,.DEGREE_CELSIUS.);
#35= IFCSIUNIT(*,.LUMINOUSINTENSITYUNIT.,$,.LUMEN.);
#36= IFCUNITASSIGNMENT((#15,#19,#23,#27,#28,#29,#33,#34,#35));
#37= IFCPROJECT('2G7ZFDNE16yBDU14FA92Me',#5,'Proyecto',$,$,$,$,(#11),#36);
#38= IFCLOCALPLACEMENT($,#10);
#39= IFCSITE('2xvEzEinjBTea80yOTcujY',#5,'Obra',$,$,#38,$,$,.ELEMENT.,$,$,$,$,$);
#40= IFCLOCALPLACEMENT(#38,#10);
#41= IFCBUILDING('2oD_BqvJT41uivx8zAoXXE',#5,'Undefined',$,$,#40,$,$,.ELEMENT.,$,$,$);
#42= IFCLOCALPLACEMENT(#40,#10);
#43= IFCBUILDINGSTOREY('29hdEUCErFze9E_VIAceOd',#5,'Undefined',$,$,#42,$,$,.ELEMENT.,0.);
#44= IFCOWNERHISTORY(#3,#4,$,.NOCHANGE.,$,$,$,1775840400);
#45= IFCCARTESIANPOINT((13220.9641571045,21440.0515099887,32100.));
#46= IFCDIRECTION((0.999999999912616,1.32199999985954E-05,0.));
#47= IFCAXIS2PLACEMENT3D(#45,#9,#46);
#48= IFCLOCALPLACEMENT(#42,#47);
#49= IFCDIRECTION((1.,0.));
#50= IFCCARTESIANPOINT((0.,0.));
#51= IFCAXIS2PLACEMENT2D(#50,#49);
#52= IFCISHAPEPROFILEDEF(.AREA.,'IPE400',#51,180.,400.,8.600000381,13.5,21.);
#53= IFCDIRECTION((0.,-1.,0.));
#54= IFCDIRECTION((-1.,0.,0.));
#55= IFCCARTESIANPOINT((3616.93473057377,0.,3.63797880709171E-12));
#56= IFCAXIS2PLACEMENT3D(#55,#54,#53);
#57= IFCEXTRUDEDAREASOLID(#52,#56,#9,3626.66);
#58= IFCDIRECTION((-0.999999999912616,1.32199999970908E-05,0.));
#59= IFCCARTESIANPOINT((3616.93232717899,0.000132199998915894,-299.999999999996));
#60= IFCDIRECTION((1.32199999970908E-05,0.999999999912616,0.));
#61= IFCAXIS2PLACEMENT3D(#59,#58,#60);
#62= IFCPLANE(#61);
#63= IFCHALFSPACESOLID(#62,.T.);
#64= IFCBOOLEANCLIPPINGRESULT(.DIFFERENCE.,#57,#63);
#65= IFCDIRECTION((0.999999999912616,-1.32199999989098E-05,0.));
#66= IFCCARTESIANPOINT((-9.71885047192154,-0.000132199998915894,-299.999999999996));
#67= IFCDIRECTION((-1.32199999989098E-05,-0.999999999912616,0.));
#68= IFCAXIS2PLACEMENT3D(#66,#65,#67);
#69= IFCPLANE(#68);
#70= IFCHALFSPACESOLID(#69,.T.);
#71= IFCBOOLEANCLIPPINGRESULT(.DIFFERENCE.,#64,#70);
#72= IFCSHAPEREPRESENTATION(#12,'Body','Clipping',(#71));
#73= IFCPRODUCTDEFINITIONSHAPE($,$,(#72));
#74= IFCBEAM('1_EtiwMrn2bO9QQByz33aT',#44,'BEAM','IPE400','IPE400',#48,#73,'ID7e3b7b3a-5b5c-4295-825a-68bf3d0c391d');
#75= IFCLOCALPLACEMENT(#42,#47);
#76= IFCRECTANGLEPROFILEDEF(.AREA.,'PL101.2*12',#51,12.,101.2);
#77= IFCDIRECTION((0.,0.,-1.));
#78= IFCCARTESIANPOINT((-15.7124669541299,40.4646037343337,201.000000000004));
#79= IFCAXIS2PLACEMENT3D(#78,#77,#65);
#80= IFCEXTRUDEDAREASOLID(#76,#79,#9,402.);
#81= IFCSHAPEREPRESENTATION(#12,'Body','SweptSolid',(#80));
#82= IFCPRODUCTDEFINITIONSHAPE($,$,(#81));
#83= IFCOPENINGELEMENT('3EY90$Kcn9_uP8LrD6f1z0',#5,$,$,'Recess',#75,#82,$);
#84= IFCRELVOIDSELEMENT('1KzJ1umMbF0QBn$KWfCDg9',#5,$,$,#74,#83);
#85= IFCPROPERTYSINGLEVALUE('FeatureSubTypes',$,$,$);
#86= IFCPROPERTYSINGLEVALUE('RectangleOpeningWidth',$,IFCPOSITIVELENGTHMEASURE(12.),$);
#87= IFCPROPERTYSINGLEVALUE('RectangleOpeningHeight',$,IFCPOSITIVELENGTHMEASURE(101.2),$);
#88= IFCPROPERTYSINGLEVALUE('OpeningDiameter',$,$,$);
#89= IFCPROPERTYSET('3Rcwrhp_XCyQ8km2xPlhBS',#5,'AISC_EM11_Pset_Opening/Cope',$,(#85,#86,#87,#88));
#90= IFCLOCALPLACEMENT(#42,#47);
#91= IFCRECTANGLEPROFILEDEF(.AREA.,'PL100.9*12',#51,12.,100.9);
#92= IFCCARTESIANPOINT((-15.7135380910422,-40.5593684312043,201.000000000004));
#93= IFCAXIS2PLACEMENT3D(#92,#77,#65);
#94= IFCEXTRUDEDAREASOLID(#91,#93,#9,402.);
#95= IFCSHAPEREPRESENTATION(#12,'Body','SweptSolid',(#94));
#96= IFCPRODUCTDEFINITIONSHAPE($,$,(#95));
#97= IFCOPENINGELEMENT('2_Zyqch0fEyxfGeEBFTtnc',#5,$,$,'Recess',#90,#96,$);
#98= IFCRELVOIDSELEMENT('0JQAz87QLD5uEMFxknAg6O',#5,$,$,#74,#97);
#99= IFCPROPERTYSINGLEVALUE('RectangleOpeningHeight',$,IFCPOSITIVELENGTHMEASURE(100.9),$);
#100= IFCPROPERTYSET('2_76kPKEv1KAwcNgQcyCjd',#5,'AISC_EM11_Pset_Opening/Cope',$,(#85,#86,#99,#88));
#101= IFCLOCALPLACEMENT(#42,#47);
#102= IFCCARTESIANPOINT((3622.92591623391,-40.5835651374182,201.000000000004));
#103= IFCAXIS2PLACEMENT3D(#102,#77,#58);
#104= IFCEXTRUDEDAREASOLID(#91,#103,#9,402.);
#105= IFCSHAPEREPRESENTATION(#12,'Body','SweptSolid',(#104));
#106= IFCPRODUCTDEFINITIONSHAPE($,$,(#105));
#107= IFCOPENINGELEMENT('0RG085IF59JBbdWPr$kIBA',#5,$,$,'Recess',#101,#106,$);
#108= IFCRELVOIDSELEMENT('2sysmnvPH53fpNjnWziplK',#5,$,$,#74,#107);
#109= IFCLOCALPLACEMENT(#42,#47);
#110= IFCRECTANGLEPROFILEDEF(.AREA.,'PL101.1*12',#51,12.,101.1);
#111= IFCCARTESIANPOINT((3622.92698736997,40.4403427786565,201.000000000004));
#112= IFCAXIS2PLACEMENT3D(#111,#77,#58);
#113= IFCEXTRUDEDAREASOLID(#110,#112,#9,402.);
#114= IFCSHAPEREPRESENTATION(#12,'Body','SweptSolid',(#113));
#115= IFCPRODUCTDEFINITIONSHAPE($,$,(#114));
#116= IFCOPENINGELEMENT('15C9JLRxT4qfDv6XBF0pGz',#5,$,$,'Recess',#109,#115,$);
#117= IFCRELVOIDSELEMENT('2AHKOsJln2TgYKUoM5v5Rp',#5,$,$,#74,#116);
#118= IFCCARTESIANPOINT((13211.2453066352,21440.0515137055,32300.));
#119= IFCAXIS2PLACEMENT3D(#118,#7,#77);
#120= IFCLOCALPLACEMENT(#42,#119);
#121= IFCCIRCLEPROFILEDEF(.AREA.,$,#51,11.5);
#122= IFCCARTESIANPOINT((0.,-4.39947139086285,0.));
#123= IFCAXIS2PLACEMENT3D(#122,#8,#7);
#124= IFCEXTRUDEDAREASOLID(#121,#123,#9,8.8);
#125= IFCSHAPEREPRESENTATION(#12,'Body','SweptSolid',(#124));
#126= IFCREPRESENTATIONMAP(#10,#125);
#127= IFCCARTESIANPOINT((110.,0.,50.));
#128= IFCCARTESIANTRANSFORMATIONOPERATOR3D($,$,#127,$,$);
#129= IFCMAPPEDITEM(#126,#128);
#130= IFCCARTESIANPOINT((170.,0.,50.));
#131= IFCCARTESIANTRANSFORMATIONOPERATOR3D($,$,#130,$,$);
#132= IFCMAPPEDITEM(#126,#131);
#133= IFCCARTESIANPOINT((230.,0.,50.));
#134= IFCCARTESIANTRANSFORMATIONOPERATOR3D($,$,#133,$,$);
#135= IFCMAPPEDITEM(#126,#134);
#136= IFCCARTESIANPOINT((290.,0.,50.));
#137= IFCCARTESIANTRANSFORMATIONOPERATOR3D($,$,#136,$,$);
#138= IFCMAPPEDITEM(#126,#137);
#139= IFCSHAPEREPRESENTATION(#12,'Body','MappedRepresentation',(#129,#132,#135,#138));
#140= IFCPRODUCTDEFINITIONSHAPE($,$,(#139));
#141= IFCOPENINGELEMENT('1tNfphteX2GwPcHv0eTHlK',#5,$,$,'Opening',#120,#140,$);
#142= IFCRELVOIDSELEMENT('25qHx0AJXBIOMEa1SEggdl',#5,'Drill Hole',$,#74,#141);
#143= IFCPROPERTYSINGLEVALUE('FeatureSubTypes',$,IFCLABEL('TORNILLO'),$);
#144= IFCPROPERTYSINGLEVALUE('RectangleOpeningWidth',$,$,$);
#145= IFCPROPERTYSINGLEVALUE('RectangleOpeningHeight',$,$,$);
#146= IFCPROPERTYSET('2JhiOWFQn5vh_AfEgawXya',#5,'AISC_EM11_Pset_Opening/Cope',$,(#143,#144,#145,#88));
#147= IFCCARTESIANPOINT((16837.8964839657,21440.099193635,32300.));
#148= IFCAXIS2PLACEMENT3D(#147,#54,#77);
#149= IFCLOCALPLACEMENT(#42,#148);
#150= IFCSHAPEREPRESENTATION(#12,'Body','MappedRepresentation',(#129,#132,#135,#138));
#151= IFCPRODUCTDEFINITIONSHAPE($,$,(#150));
#152= IFCOPENINGELEMENT('1Zfj$ZmkLFAQy14wnrpaP_',#5,$,$,'Opening',#149,#151,$);
#153= IFCRELVOIDSELEMENT('060cNo7ZX6o8HaHpgbQt9p',#5,'Drill Hole',$,#74,#152);
#154= IFCPROPERTYSINGLEVALUE('PieceMark',$,IFCIDENTIFIER('BEAM'),$);
#155= IFCPROPERTYSINGLEVALUE('IndicationMark',$,IFCIDENTIFIER('b/1253'),$);
#156= IFCPROPERTYSINGLEVALUE('PrelimMark',$,IFCIDENTIFIER(''),$);
#157= IFCPROPERTYSINGLEVALUE('MainPieceTag',$,IFCBOOLEAN(.T.),$);
#158= IFCPROPERTYSET('3A1wpIbyX1JvI_DQ5KPGXV',#5,'AISC_EM11_Pset_PieceIdentification','PieceIdentity',(#154,#155,#156,#157));
#159= IFCPROPERTYSINGLEVALUE('MaterialType',$,IFCIDENTIFIER('STEEL'),$);
#160= IFCPROPERTYSINGLEVALUE('MaterialGrade',$,IFCIDENTIFIER('S235JR'),$);
#161= IFCPROPERTYSET('1OV$k1ud14iho38CAue$tM',#5,'AISC_EM11_Pset_Material',$,(#159,#160));
#162= IFCPROPERTYSINGLEVALUE('SkewedAngleY',$,IFCREAL(0.),$);
#163= IFCPROPERTYSINGLEVALUE('SkewedAngleX',$,IFCREAL(0.00076),$);
#164= IFCPROPERTYSET('07$8R4TXP5FRYEEd76Sa7o',#5,'AISC_EM11_Pset_SkewedEnd',$,(#162,#163));
#165= IFCPROPERTYSET('1BfAHbccf1nhfxwA6RmQ6L',#5,'AISC_EM11_Pset_SkewedEnd_2',$,(#162,#163));
#166= IFCMATERIAL('STEEL/S235JR');
#167= IFCRELAGGREGATES('3VPaE5yPn0Evawli5y185I',#5,$,$,#37,(#39));
#168= IFCRELAGGREGATES('2nhsWNEh3IWBsC1_NEJQNa',#5,$,$,#39,(#41));
#169= IFCRELAGGREGATES('2yVizwMzLEOvShw3k7srle',#5,$,$,#41,(#43));
#170= IFCRELCONTAINEDINSPATIALSTRUCTURE('0Nro9w1ir7J9cuGbywdWne',#5,$,$,(#74),#43);
#171= IFCRELDEFINESBYPROPERTIES('3gmrMIC4T1RQ0LwIqvULw1',#5,$,$,(#116,#83),#89);
#172= IFCRELDEFINESBYPROPERTIES('1boNLzK3bBCQAevsC8oCfL',#5,$,$,(#107,#97),#100);
#173= IFCRELDEFINESBYPROPERTIES('2vdrCG5njB9R9264k3CWLD',#5,$,$,(#152,#141),#146);
#174= IFCRELDEFINESBYPROPERTIES('1z_kmjC2f86w_YGxTWCjuS',#5,$,$,(#74),#158);
#175= IFCRELDEFINESBYPROPERTIES('27N15THHPDMONTdKikEMKZ',#5,$,$,(#74),#161);
#176= IFCRELDEFINESBYPROPERTIES('162QGf_BrAFAavq1l6gCXj',#5,$,$,(#74),#164);
#177= IFCRELDEFINESBYPROPERTIES('21IU80Lt9DMg8fjNcBzBnu',#5,$,$,(#74),#165);
#178= IFCRELASSOCIATESMATERIAL('1$8YH_IlT1V8K1qsQTKfAF',#5,$,$,(#74),#166);
ENDSEC;

END-ISO-10303-21;
