ISO-10303-21;
HEADER;
FILE_DESCRIPTION(('ViewDefinition[AISC_Steel_Detailing]', 'Option [BaseQuantities:Off]', 'Option [GridExport:On]', 'Option [Assemblies:Off]', 'Option [Bolts:On]', 'Option [Rebars:On]', 'Option [PourObjects:Off]', 'Option [Welds:On]', 'Option [SurfaceTreatments:On]', 'Option [LocationBy:0]', 'Option [ViewColors:Off]', 'Option [SectionedSpine:Off]', 'Option [PropertySets:On]', 'Option [Export all:Off]'),'2;1');
FILE_NAME('b_1208_Qty_2.ifc','2026-05-16T11:53:15',('GIOVANNIPC\\gcorrea'),('Structural Designer'),'IFC Database version: Work','Tekla Structures 2020 Service Pack 5, IFC Export Version: 4.0.0.0 Dec  7 2020','');
FILE_SCHEMA(('IFC2X3'));
ENDSEC;

DATA;
#1= IFCPERSON('GIOVANNIPC\\gcorrea','Undefined',$,$,$,$,$,$);
#2= IFCORGANIZATION($,'Trimble Solutions Corporation',$,$,$);
#3= IFCPERSONANDORGANIZATION(#1,#2,$);
#4= IFCAPPLICATION(#2,'2020 Service Pack 5','Tekla Structures','Multi material modeling');
#5= IFCOWNERHISTORY(#3,#4,$,.NOCHANGE.,$,$,$,1778950395);
#6= IFCCARTESIANPOINT((0.,0.,0.));
#7= IFCDIRECTION((1.,0.,0.));
#8= IFCDIRECTION((0.,1.,0.));
#9= IFCDIRECTION((0.,0.,1.));
#10= IFCAXIS2PLACEMENT3D(#6,#9,#7);
#11= IFCGEOMETRICREPRESENTATIONCONTEXT($,'Model',3,1.E-05,#10,$);
#12= IFCGEOMETRICREPRESENTATIONSUBCONTEXT('Body','Model',*,*,*,*,#11,$,.MODEL_VIEW.,$);
#13= IFCGEOMETRICREPRESENTATIONSUBCONTEXT('Axis','Model',*,*,*,*,#11,$,.GRAPH_VIEW.,$);
#14= IFCGEOMETRICREPRESENTATIONSUBCONTEXT('FootPrint','Model',*,*,*,*,#11,$,.MODEL_VIEW.,$);
#15= IFCSIUNIT(*,.LENGTHUNIT.,.MILLI.,.METRE.);
#16= IFCMEASUREWITHUNIT(IFCRATIOMEASURE(304.8),#15);
#17= IFCDIMENSIONALEXPONENTS(1,0,0,0,0,0,0);
#18= IFCCONVERSIONBASEDUNIT(#17,.LENGTHUNIT.,'FOOT',#16);
#19= IFCSIUNIT(*,.AREAUNIT.,$,.SQUARE_METRE.);
#20= IFCMEASUREWITHUNIT(IFCRATIOMEASURE(0.09290304),#19);
#21= IFCDIMENSIONALEXPONENTS(2,0,0,0,0,0,0);
#22= IFCCONVERSIONBASEDUNIT(#21,.AREAUNIT.,'SQUARE FOOT',#20);
#23= IFCSIUNIT(*,.VOLUMEUNIT.,$,.CUBIC_METRE.);
#24= IFCMEASUREWITHUNIT(IFCRATIOMEASURE(0.028316846592),#23);
#25= IFCDIMENSIONALEXPONENTS(3,0,0,0,0,0,0);
#26= IFCCONVERSIONBASEDUNIT(#25,.VOLUMEUNIT.,'CUBIC FOOT',#24);
#27= IFCSIUNIT(*,.MASSUNIT.,.KILO.,.GRAM.);
#28= IFCSIUNIT(*,.TIMEUNIT.,$,.SECOND.);
#29= IFCSIUNIT(*,.PLANEANGLEUNIT.,$,.RADIAN.);
#30= IFCMEASUREWITHUNIT(IFCRATIOMEASURE(0.0174532925199433),#29);
#31= IFCDIMENSIONALEXPONENTS(0,0,0,0,0,0,0);
#32= IFCCONVERSIONBASEDUNIT(#31,.PLANEANGLEUNIT.,'DEGREE',#30);
#33= IFCSIUNIT(*,.SOLIDANGLEUNIT.,$,.STERADIAN.);
#34= IFCSIUNIT(*,.THERMODYNAMICTEMPERATUREUNIT.,$,.DEGREE_CELSIUS.);
#35= IFCSIUNIT(*,.LUMINOUSINTENSITYUNIT.,$,.LUMEN.);
#36= IFCUNITASSIGNMENT((#15,#19,#23,#27,#28,#29,#33,#34,#35));
#37= IFCPROJECT('2G7ZFDNE16yBDU14FA92Me',#5,'Proyecto',$,$,$,$,(#11),#36);
#38= IFCLOCALPLACEMENT($,#10);
#39= IFCSITE('2xvEzEinjBTea80yOTcujY',#5,'Obra',$,$,#38,$,$,.ELEMENT.,$,$,$,$,$);
#40= IFCLOCALPLACEMENT(#38,#10);
#41= IFCBUILDING('05qUGMPuj0KhGDe2yjiXy8',#5,'Undefined',$,$,#40,$,$,.ELEMENT.,$,$,$);
#42= IFCLOCALPLACEMENT(#40,#10);
#43= IFCBUILDINGSTOREY('29hdEUCErFze9E_VIAceOd',#5,'Undefined',$,$,#42,$,$,.ELEMENT.,0.);
#44= IFCOWNERHISTORY(#3,#4,$,.NOCHANGE.,$,$,$,1776110400);
#45= IFCCARTESIANPOINT((13220.9641571045,8120.1328774814,28025.));
#46= IFCAXIS2PLACEMENT3D(#45,#9,#7);
#47= IFCLOCALPLACEMENT(#42,#46);
#48= IFCDIRECTION((1.,0.));
#49= IFCCARTESIANPOINT((0.,0.));
#50= IFCAXIS2PLACEMENT2D(#49,#48);
#51= IFCISHAPEPROFILEDEF(.AREA.,'IPE550',#50,210.,550.,11.10000038,17.20000076,24.);
#52= IFCDIRECTION((0.,-1.,0.));
#53= IFCDIRECTION((-1.,0.,0.));
#54= IFCCARTESIANPOINT((3556.32702325758,0.,0.));
#55= IFCAXIS2PLACEMENT3D(#54,#53,#52);
#56= IFCEXTRUDEDAREASOLID(#51,#55,#9,3566.05);
#57= IFCCARTESIANPOINT((3556.32702325758,-0.0905314752599224,-325.));
#58= IFCAXIS2PLACEMENT3D(#57,#53,#8);
#59= IFCPLANE(#58);
#60= IFCHALFSPACESOLID(#59,.T.);
#61= IFCBOOLEANCLIPPINGRESULT(.DIFFERENCE.,#56,#60);
#62= IFCCARTESIANPOINT((-9.7187822156593,0.,-375.));
#63= IFCAXIS2PLACEMENT3D(#62,#7,#52);
#64= IFCPLANE(#63);
#65= IFCHALFSPACESOLID(#64,.T.);
#66= IFCBOOLEANCLIPPINGRESULT(.DIFFERENCE.,#61,#65);
#67= IFCSHAPEREPRESENTATION(#12,'Body','Clipping',(#66));
#68= IFCPRODUCTDEFINITIONSHAPE($,$,(#67));
#69= IFCBEAM('2SWYSQTn15y8bG_gBb5MQ1',#44,'BEAM','IPE550','IPE550',#47,#68,'ID9c82271a-7710-45f0-8950-faa2e5156681');
#70= IFCLOCALPLACEMENT(#42,#46);
#71= IFCRECTANGLEPROFILEDEF(.AREA.,'PL108*12.1',#50,12.1,108.);
#72= IFCDIRECTION((0.,0.,-1.));
#73= IFCCARTESIANPOINT((3572.27763583347,-43.2197912621832,226.));
#74= IFCAXIS2PLACEMENT3D(#73,#72,#53);
#75= IFCEXTRUDEDAREASOLID(#71,#74,#9,452.);
#76= IFCSHAPEREPRESENTATION(#12,'Body','SweptSolid',(#75));
#77= IFCPRODUCTDEFINITIONSHAPE($,$,(#76));
#78= IFCOPENINGELEMENT('20EGoTNRz4bwEL1kh3SJI1',#5,$,$,'Recess',#70,#77,$);
#79= IFCRELVOIDSELEMENT('0aB84_i9b3DOzhS0LyD1El',#5,$,$,#69,#78);
#80= IFCPROPERTYSINGLEVALUE('FeatureSubTypes',$,$,$);
#81= IFCPROPERTYSINGLEVALUE('RectangleOpeningWidth',$,IFCPOSITIVELENGTHMEASURE(12.1),$);
#82= IFCPROPERTYSINGLEVALUE('RectangleOpeningHeight',$,IFCPOSITIVELENGTHMEASURE(108.),$);
#83= IFCPROPERTYSINGLEVALUE('OpeningDiameter',$,$,$);
#84= IFCPROPERTYSET('06jFkwcl504v_7dcdNtbWv',#5,'AISC_EM11_Pset_Opening/Cope',$,(#80,#81,#82,#83));
#85= IFCLOCALPLACEMENT(#42,#46);
#86= IFCRECTANGLEPROFILEDEF(.AREA.,'PL109.1*12.1',#50,12.1,109.1);
#87= IFCCARTESIANPOINT((3572.27763583347,41.3426345431744,226.));
#88= IFCAXIS2PLACEMENT3D(#87,#72,#53);
#89= IFCEXTRUDEDAREASOLID(#86,#88,#9,452.);
#90= IFCSHAPEREPRESENTATION(#12,'Body','SweptSolid',(#89));
#91= IFCPRODUCTDEFINITIONSHAPE($,$,(#90));
#92= IFCOPENINGELEMENT('2aaJ81hPr1NPKLIe5Do$no',#5,$,$,'Recess',#85,#91,$);
#93= IFCRELVOIDSELEMENT('1OJlL3nNfA6Q4m5NFFgsw6',#5,$,$,#69,#92);
#94= IFCPROPERTYSINGLEVALUE('RectangleOpeningHeight',$,IFCPOSITIVELENGTHMEASURE(109.1),$);
#95= IFCPROPERTYSET('2u9iDT_BXAywCu7X3d1Yzv',#5,'AISC_EM11_Pset_Opening/Cope',$,(#80,#81,#94,#83));
#96= IFCLOCALPLACEMENT(#42,#46);
#97= IFCRECTANGLEPROFILEDEF(.AREA.,'PL116.1*12',#50,12.,116.1);
#98= IFCCARTESIANPOINT((-15.7129677679859,47.9409649220615,276.));
#99= IFCAXIS2PLACEMENT3D(#98,#72,#7);
#100= IFCEXTRUDEDAREASOLID(#97,#99,#9,552.);
#101= IFCSHAPEREPRESENTATION(#12,'Body','SweptSolid',(#100));
#102= IFCPRODUCTDEFINITIONSHAPE($,$,(#101));
#103= IFCOPENINGELEMENT('1_uXkCV3D48eMc1Hpa857u',#5,$,$,'Recess',#96,#102,$);
#104= IFCRELVOIDSELEMENT('0CVUzCLPzD3xrhDNErKAjg',#5,$,$,#69,#103);
#105= IFCPROPERTYSINGLEVALUE('RectangleOpeningWidth',$,IFCPOSITIVELENGTHMEASURE(12.),$);
#106= IFCPROPERTYSINGLEVALUE('RectangleOpeningHeight',$,IFCPOSITIVELENGTHMEASURE(116.1),$);
#107= IFCPROPERTYSET('0x1L1ecb92iP9wZoq5sYiN',#5,'AISC_EM11_Pset_Opening/Cope',$,(#80,#105,#106,#83));
#108= IFCLOCALPLACEMENT(#42,#46);
#109= IFCRECTANGLEPROFILEDEF(.AREA.,'PL115.9*12',#50,12.,115.9);
#110= IFCCARTESIANPOINT((-15.7129677679859,-48.0590350779385,276.));
#111= IFCAXIS2PLACEMENT3D(#110,#72,#7);
#112= IFCEXTRUDEDAREASOLID(#109,#111,#9,552.);
#113= IFCSHAPEREPRESENTATION(#12,'Body','SweptSolid',(#112));
#114= IFCPRODUCTDEFINITIONSHAPE($,$,(#113));
#115= IFCOPENINGELEMENT('2qqAV9btP6XuwrndIgkY7F',#5,$,$,'Recess',#108,#114,$);
#116= IFCRELVOIDSELEMENT('1UGMMT6en8vun_bAlyfR9C',#5,$,$,#69,#115);
#117= IFCPROPERTYSINGLEVALUE('RectangleOpeningHeight',$,IFCPOSITIVELENGTHMEASURE(115.9),$);
#118= IFCPROPERTYSET('2_jMf4LNH8duaKJxfrWfwK',#5,'AISC_EM11_Pset_Opening/Cope',$,(#80,#105,#117,#83));
#119= IFCCARTESIANPOINT((16317.0943901748,8119.83457600463,27750.));
#120= IFCDIRECTION((0.000467666999833455,-0.999999890643783,0.));
#121= IFCDIRECTION((0.999999890643783,0.000467666999833567,0.));
#122= IFCAXIS2PLACEMENT3D(#119,#120,#121);
#123= IFCLOCALPLACEMENT(#42,#122);
#124= IFCCIRCLEPROFILEDEF(.AREA.,$,#50,11.5);
#125= IFCCARTESIANPOINT((0.,-0.0999999999999929,0.));
#126= IFCAXIS2PLACEMENT3D(#125,#8,#7);
#127= IFCEXTRUDEDAREASOLID(#124,#126,#9,17.4);
#128= IFCSHAPEREPRESENTATION(#12,'Body','SweptSolid',(#127));
#129= IFCREPRESENTATIONMAP(#10,#128);
#130= IFCCARTESIANPOINT((0.,0.,-50.00000000004));
#131= IFCCARTESIANTRANSFORMATIONOPERATOR3D($,$,#130,$,$);
#132= IFCMAPPEDITEM(#129,#131);
#133= IFCCARTESIANPOINT((70.0000000000528,0.,-50.00000000004));
#134= IFCCARTESIANTRANSFORMATIONOPERATOR3D($,$,#133,$,$);
#135= IFCMAPPEDITEM(#129,#134);
#136= IFCCARTESIANPOINT((140.000000000115,0.,-50.00000000004));
#137= IFCCARTESIANTRANSFORMATIONOPERATOR3D($,$,#136,$,$);
#138= IFCMAPPEDITEM(#129,#137);
#139= IFCCARTESIANPOINT((210.000000000166,0.,-50.00000000004));
#140= IFCCARTESIANTRANSFORMATIONOPERATOR3D($,$,#139,$,$);
#141= IFCMAPPEDITEM(#129,#140);
#142= IFCCARTESIANPOINT((280.000000000224,0.,-50.00000000004));
#143= IFCCARTESIANTRANSFORMATIONOPERATOR3D($,$,#142,$,$);
#144= IFCMAPPEDITEM(#129,#143);
#145= IFCCARTESIANPOINT((350.000000000275,0.,-50.00000000004));
#146= IFCCARTESIANTRANSFORMATIONOPERATOR3D($,$,#145,$,$);
#147= IFCMAPPEDITEM(#129,#146);
#148= IFCCARTESIANPOINT((420.000000000333,0.,-50.00000000004));
#149= IFCCARTESIANTRANSFORMATIONOPERATOR3D($,$,#148,$,$);
#150= IFCMAPPEDITEM(#129,#149);
#151= IFCCARTESIANPOINT((1.81898940354586E-12,0.,50.0000000000382));
#152= IFCCARTESIANTRANSFORMATIONOPERATOR3D($,$,#151,$,$);
#153= IFCMAPPEDITEM(#129,#152);
#154= IFCCARTESIANPOINT((70.0000000000564,0.,50.0000000000391));
#155= IFCCARTESIANTRANSFORMATIONOPERATOR3D($,$,#154,$,$);
#156= IFCMAPPEDITEM(#129,#155);
#157= IFCCARTESIANPOINT((140.000000000115,0.,50.0000000000391));
#158= IFCCARTESIANTRANSFORMATIONOPERATOR3D($,$,#157,$,$);
#159= IFCMAPPEDITEM(#129,#158);
#160= IFCCARTESIANPOINT((210.000000000166,0.,50.0000000000391));
#161= IFCCARTESIANTRANSFORMATIONOPERATOR3D($,$,#160,$,$);
#162= IFCMAPPEDITEM(#129,#161);
#163= IFCCARTESIANPOINT((280.000000000224,0.,50.0000000000382));
#164= IFCCARTESIANTRANSFORMATIONOPERATOR3D($,$,#163,$,$);
#165= IFCMAPPEDITEM(#129,#164);
#166= IFCCARTESIANPOINT((350.000000000271,0.,50.0000000000382));
#167= IFCCARTESIANTRANSFORMATIONOPERATOR3D($,$,#166,$,$);
#168= IFCMAPPEDITEM(#129,#167);
#169= IFCCARTESIANPOINT((420.000000000333,0.,50.0000000000391));
#170= IFCCARTESIANTRANSFORMATIONOPERATOR3D($,$,#169,$,$);
#171= IFCMAPPEDITEM(#129,#170);
#172= IFCSHAPEREPRESENTATION(#12,'Body','MappedRepresentation',(#132,#135,#138,#141,#144,#147,#150,#153,#156,#159,#162,#165,#168,#171));
#173= IFCPRODUCTDEFINITIONSHAPE($,$,(#172));
#174= IFCOPENINGELEMENT('0Ky2jItVb9dwQp$sLxyU2L',#5,$,$,'Opening',#123,#173,$);
#175= IFCRELVOIDSELEMENT('2NRHYRoU14jeOOXtDh2jvx',#5,'Drill Hole',$,#69,#174);
#176= IFCPROPERTYSINGLEVALUE('FeatureSubTypes',$,IFCLABEL('TORNILLO'),$);
#177= IFCPROPERTYSINGLEVALUE('RectangleOpeningWidth',$,$,$);
#178= IFCPROPERTYSINGLEVALUE('RectangleOpeningHeight',$,$,$);
#179= IFCPROPERTYSET('3WelEF9aD4DeEcIf8YMYvo',#5,'AISC_EM11_Pset_Opening/Cope',$,(#176,#177,#178,#83));
#180= IFCCARTESIANPOINT((16777.2911803621,8120.0289604548,28250.));
#181= IFCAXIS2PLACEMENT3D(#180,#53,#72);
#182= IFCLOCALPLACEMENT(#42,#181);
#183= IFCCARTESIANPOINT((0.,-5.75391721659762,0.));
#184= IFCAXIS2PLACEMENT3D(#183,#8,#7);
#185= IFCEXTRUDEDAREASOLID(#124,#184,#9,11.3);
#186= IFCSHAPEREPRESENTATION(#12,'Body','SweptSolid',(#185));
#187= IFCREPRESENTATIONMAP(#10,#186);
#188= IFCCARTESIANPOINT((85.,0.,40.));
#189= IFCCARTESIANTRANSFORMATIONOPERATOR3D($,$,#188,$,$);
#190= IFCMAPPEDITEM(#187,#189);
#191= IFCCARTESIANPOINT((155.,0.,40.));
#192= IFCCARTESIANTRANSFORMATIONOPERATOR3D($,$,#191,$,$);
#193= IFCMAPPEDITEM(#187,#192);
#194= IFCCARTESIANPOINT((225.,0.,40.));
#195= IFCCARTESIANTRANSFORMATIONOPERATOR3D($,$,#194,$,$);
#196= IFCMAPPEDITEM(#187,#195);
#197= IFCCARTESIANPOINT((295.,0.,40.));
#198= IFCCARTESIANTRANSFORMATIONOPERATOR3D($,$,#197,$,$);
#199= IFCMAPPEDITEM(#187,#198);
#200= IFCCARTESIANPOINT((365.,0.,40.));
#201= IFCCARTESIANTRANSFORMATIONOPERATOR3D($,$,#200,$,$);
#202= IFCMAPPEDITEM(#187,#201);
#203= IFCSHAPEREPRESENTATION(#12,'Body','MappedRepresentation',(#190,#193,#196,#199,#202));
#204= IFCPRODUCTDEFINITIONSHAPE($,$,(#203));
#205= IFCOPENINGELEMENT('2Xl4POlWDFNeATVgIOKSVg',#5,$,$,'Opening',#182,#204,$);
#206= IFCRELVOIDSELEMENT('3niO0alDDFV8MGoO0TFsjn',#5,'Drill Hole',$,#69,#205);
#207= IFCCARTESIANPOINT((16317.0943901748,8119.83457600463,28300.));
#208= IFCDIRECTION((-0.000467666999833454,0.999999890643783,0.));
#209= IFCAXIS2PLACEMENT3D(#207,#208,#121);
#210= IFCLOCALPLACEMENT(#42,#209);
#211= IFCSHAPEREPRESENTATION(#12,'Body','MappedRepresentation',(#132,#135,#138,#141,#144,#147,#150,#153,#156,#159,#162,#165,#168,#171));
#212= IFCPRODUCTDEFINITIONSHAPE($,$,(#211));
#213= IFCOPENINGELEMENT('3GjTHymsT5Y8JhZlcx1CmK',#5,$,$,'Opening',#210,#212,$);
#214= IFCRELVOIDSELEMENT('0_GB$0CeX06OdykkCXeG4x',#5,'Drill Hole',$,#69,#213);
#215= IFCCARTESIANPOINT((13211.2453748888,8120.1328774814,28300.));
#216= IFCAXIS2PLACEMENT3D(#215,#7,#72);
#217= IFCLOCALPLACEMENT(#42,#216);
#218= IFCCARTESIANPOINT((0.,-5.65000018999999,0.));
#219= IFCAXIS2PLACEMENT3D(#218,#8,#7);
#220= IFCEXTRUDEDAREASOLID(#124,#219,#9,11.3);
#221= IFCSHAPEREPRESENTATION(#12,'Body','SweptSolid',(#220));
#222= IFCREPRESENTATIONMAP(#10,#221);
#223= IFCCARTESIANPOINT((135.,0.,50.));
#224= IFCCARTESIANTRANSFORMATIONOPERATOR3D($,$,#223,$,$);
#225= IFCMAPPEDITEM(#222,#224);
#226= IFCCARTESIANPOINT((205.,0.,50.));
#227= IFCCARTESIANTRANSFORMATIONOPERATOR3D($,$,#226,$,$);
#228= IFCMAPPEDITEM(#222,#227);
#229= IFCCARTESIANPOINT((275.,0.,50.));
#230= IFCCARTESIANTRANSFORMATIONOPERATOR3D($,$,#229,$,$);
#231= IFCMAPPEDITEM(#222,#230);
#232= IFCCARTESIANPOINT((345.,0.,50.));
#233= IFCCARTESIANTRANSFORMATIONOPERATOR3D($,$,#232,$,$);
#234= IFCMAPPEDITEM(#222,#233);
#235= IFCCARTESIANPOINT((415.,0.,50.));
#236= IFCCARTESIANTRANSFORMATIONOPERATOR3D($,$,#235,$,$);
#237= IFCMAPPEDITEM(#222,#236);
#238= IFCSHAPEREPRESENTATION(#12,'Body','MappedRepresentation',(#225,#228,#231,#234,#237));
#239= IFCPRODUCTDEFINITIONSHAPE($,$,(#238));
#240= IFCOPENINGELEMENT('1cZzofMdD8YAdGTMfKaTqs',#5,$,$,'Opening',#217,#239,$);
#241= IFCRELVOIDSELEMENT('1PjXZrlo10Uv$y1ROGeDPt',#5,'Drill Hole',$,#69,#240);
#242= IFCPROPERTYSINGLEVALUE('PieceMark',$,IFCIDENTIFIER('BEAM'),$);
#243= IFCPROPERTYSINGLEVALUE('IndicationMark',$,IFCIDENTIFIER('b/1208'),$);
#244= IFCPROPERTYSINGLEVALUE('PrelimMark',$,IFCIDENTIFIER(''),$);
#245= IFCPROPERTYSINGLEVALUE('MainPieceTag',$,IFCBOOLEAN(.T.),$);
#246= IFCPROPERTYSET('1Pr7hTbLz3X9BpwWSrWbTb',#5,'AISC_EM11_Pset_PieceIdentification','PieceIdentity',(#242,#243,#244,#245));
#247= IFCPROPERTYSINGLEVALUE('MaterialType',$,IFCIDENTIFIER('STEEL'),$);
#248= IFCPROPERTYSINGLEVALUE('MaterialGrade',$,IFCIDENTIFIER('S235JR'),$);
#249= IFCPROPERTYSET('01zce$xwP1B8R8$IDXurPP',#5,'AISC_EM11_Pset_Material',$,(#247,#248));
#250= IFCPROPERTYSINGLEVALUE('SkewedAngleY',$,IFCREAL(0.),$);
#251= IFCPROPERTYSINGLEVALUE('SkewedAngleX',$,IFCREAL(0.),$);
#252= IFCPROPERTYSET('1LlVxlMAf20OmGxt9hXduw',#5,'AISC_EM11_Pset_SkewedEnd',$,(#250,#251));
#253= IFCPROPERTYSET('1xu4UoPO92iPYF7TT9khdS',#5,'AISC_EM11_Pset_SkewedEnd_2',$,(#250,#251));
#254= IFCMATERIAL('STEEL/S235JR');
#255= IFCRELAGGREGATES('2uDKDhYun2aeKAZkIwdfvm',#5,$,$,#37,(#39));
#256= IFCRELAGGREGATES('2AVcVzqA3KswcSr0aCvxB2',#5,$,$,#39,(#41));
#257= IFCRELAGGREGATES('1xl_8FaX98uR9NAQVk0rRu',#5,$,$,#41,(#43));
#258= IFCRELCONTAINEDINSPATIALSTRUCTURE('1leh1TK3596w7BDfWiYpEi',#5,$,$,(#69),#43);
#259= IFCRELDEFINESBYPROPERTIES('0LDigCO_z7QAX$YKELIpgU',#5,$,$,(#78),#84);
#260= IFCRELDEFINESBYPROPERTIES('1ROJOvi3LB9Q3FatFpFW8r',#5,$,$,(#92),#95);
#261= IFCRELDEFINESBYPROPERTIES('261xXICiXB7x7WmEDkY5wU',#5,$,$,(#103),#107);
#262= IFCRELDEFINESBYPROPERTIES('3J4ieRPXz3pRr077PTvYn7',#5,$,$,(#115),#118);
#263= IFCRELDEFINESBYPROPERTIES('38ggKpOxT3e9rypRNvZ$n9',#5,$,$,(#240,#213,#205,#174),#179);
#264= IFCRELDEFINESBYPROPERTIES('1TJZSMr$bEhug1yUxDUKsE',#5,$,$,(#69),#246);
#265= IFCRELDEFINESBYPROPERTIES('3McZPAzWLAse10TicS1JLr',#5,$,$,(#69),#249);
#266= IFCRELDEFINESBYPROPERTIES('1tUKBubdbChh92q859i2zk',#5,$,$,(#69),#252);
#267= IFCRELDEFINESBYPROPERTIES('25IvmUrq5ADRPwRuAyhbTo',#5,$,$,(#69),#253);
#268= IFCRELASSOCIATESMATERIAL('2m6d015qf0Yx4VMl7TZb0H',#5,$,$,(#69),#254);
ENDSEC;

END-ISO-10303-21;
