ISO-10303-21;
HEADER;
FILE_DESCRIPTION(('ViewDefinition[AISC_Steel_Detailing]', 'Option [BaseQuantities:Off]', 'Option [GridExport:On]', 'Option [Assemblies:Off]', 'Option [Bolts:On]', 'Option [Rebars:On]', 'Option [PourObjects:Off]', 'Option [Welds:On]', 'Option [SurfaceTreatments:On]', 'Option [LocationBy:0]', 'Option [ViewColors:Off]', 'Option [SectionedSpine:Off]', 'Option [PropertySets:On]', 'Option [Export all:Off]'),'2;1');
FILE_NAME('b_1282_Qty_1.ifc','2026-05-16T11:53:01',('GIOVANNIPC\\gcorrea'),('Structural Designer'),'IFC Database version: Work','Tekla Structures 2020 Service Pack 5, IFC Export Version: 4.0.0.0 Dec  7 2020','');
FILE_SCHEMA(('IFC2X3'));
ENDSEC;

DATA;
#1= IFCPERSON('GIOVANNIPC\\gcorrea','Undefined',$,$,$,$,$,$);
#2= IFCORGANIZATION($,'Trimble Solutions Corporation',$,$,$);
#3= IFCPERSONANDORGANIZATION(#1,#2,$);
#4= IFCAPPLICATION(#2,'2020 Service Pack 5','Tekla Structures','Multi material modeling');
#5= IFCOWNERHISTORY(#3,#4,$,.NOCHANGE.,$,$,$,1778950381);
#6= IFCCARTESIANPOINT((0.,0.,0.));
#7= IFCDIRECTION((1.,0.,0.));
#8= IFCDIRECTION((0.,1.,0.));
#9= IFCDIRECTION((0.,0.,1.));
#10= IFCAXIS2PLACEMENT3D(#6,#9,#7);
#11= IFCGEOMETRICREPRESENTATIONCONTEXT($,'Model',3,1.E-05,#10,$);
#12= IFCGEOMETRICREPRESENTATIONSUBCONTEXT('Body','Model',*,*,*,*,#11,$,.MODEL_VIEW.,$);
#13= IFCGEOMETRICREPRESENTATIONSUBCONTEXT('Axis','Model',*,*,*,*,#11,$,.GRAPH_VIEW.,$);
#14= IFCGEOMETRICREPRESENTATIONSUBCONTEXT('FootPrint','Model',*,*,*,*,#11,$,.MODEL_VIEW.,$);
#15= IFCSIUNIT(*,.LENGTHUNIT.,.MILLI.,.METRE.);
#16= IFCMEASUREWITHUNIT(IFCRATIOMEASURE(304.8),#15);
#17= IFCDIMENSIONALEXPONENTS(1,0,0,0,0,0,0);
#18= IFCCONVERSIONBASEDUNIT(#17,.LENGTHUNIT.,'FOOT',#16);
#19= IFCSIUNIT(*,.AREAUNIT.,$,.SQUARE_METRE.);
#20= IFCMEASUREWITHUNIT(IFCRATIOMEASURE(0.09290304),#19);
#21= IFCDIMENSIONALEXPONENTS(2,0,0,0,0,0,0);
#22= IFCCONVERSIONBASEDUNIT(#21,.AREAUNIT.,'SQUARE FOOT',#20);
#23= IFCSIUNIT(*,.VOLUMEUNIT.,$,.CUBIC_METRE.);
#24= IFCMEASUREWITHUNIT(IFCRATIOMEASURE(0.028316846592),#23);
#25= IFCDIMENSIONALEXPONENTS(3,0,0,0,0,0,0);
#26= IFCCONVERSIONBASEDUNIT(#25,.VOLUMEUNIT.,'CUBIC FOOT',#24);
#27= IFCSIUNIT(*,.MASSUNIT.,.KILO.,.GRAM.);
#28= IFCSIUNIT(*,.TIMEUNIT.,$,.SECOND.);
#29= IFCSIUNIT(*,.PLANEANGLEUNIT.,$,.RADIAN.);
#30= IFCMEASUREWITHUNIT(IFCRATIOMEASURE(0.0174532925199433),#29);
#31= IFCDIMENSIONALEXPONENTS(0,0,0,0,0,0,0);
#32= IFCCONVERSIONBASEDUNIT(#31,.PLANEANGLEUNIT.,'DEGREE',#30);
#33= IFCSIUNIT(*,.SOLIDANGLEUNIT.,$,.STERADIAN.);
#34= IFCSIUNIT(*,.THERMODYNAMICTEMPERATUREUNIT.,$,.DEGREE_CELSIUS.);
#35= IFCSIUNIT(*,.LUMINOUSINTENSITYUNIT.,$,.LUMEN.);
#36= IFCUNITASSIGNMENT((#15,#19,#23,#27,#28,#29,#33,#34,#35));
#37= IFCPROJECT('2G7ZFDNE16yBDU14FA92Me',#5,'Proyecto',$,$,$,$,(#11),#36);
#38= IFCLOCALPLACEMENT($,#10);
#39= IFCSITE('2xvEzEinjBTea80yOTcujY',#5,'Obra',$,$,#38,$,$,.ELEMENT.,$,$,$,$,$);
#40= IFCLOCALPLACEMENT(#38,#10);
#41= IFCBUILDING('2PEbv9SFrEhgOuXB1WlXpD',#5,'Undefined',$,$,#40,$,$,.ELEMENT.,$,$,$);
#42= IFCLOCALPLACEMENT(#40,#10);
#43= IFCBUILDINGSTOREY('29hdEUCErFze9E_VIAceOd',#5,'Undefined',$,$,#42,$,$,.ELEMENT.,0.);
#44= IFCOWNERHISTORY(#3,#4,$,.NOCHANGE.,$,$,$,1776697200);
#45= IFCCARTESIANPOINT((21249.9997253418,8245.13343048096,35185.));
#46= IFCDIRECTION((-0.000416187000163965,0.999999913394187,0.));
#47= IFCAXIS2PLACEMENT3D(#45,#9,#46);
#48= IFCLOCALPLACEMENT(#42,#47);
#49= IFCDIRECTION((1.,0.));
#50= IFCCARTESIANPOINT((0.,0.));
#51= IFCAXIS2PLACEMENT2D(#50,#49);
#52= IFCISHAPEPROFILEDEF(.AREA.,'IPE330',#51,160.,330.,7.5,11.5,18.);
#53= IFCDIRECTION((0.,-1.,0.));
#54= IFCDIRECTION((-1.,0.,0.));
#55= IFCCARTESIANPOINT((8975.16698099156,0.,0.));
#56= IFCAXIS2PLACEMENT3D(#55,#54,#53);
#57= IFCEXTRUDEDAREASOLID(#52,#56,#9,8937.76);
#58= IFCDIRECTION((-0.999999913394187,0.000416187000162609,0.));
#59= IFCCARTESIANPOINT((8975.04911732504,0.0643008915285463,-265.));
#60= IFCDIRECTION((0.000416187000162609,0.999999913394187,0.));
#61= IFCAXIS2PLACEMENT3D(#59,#58,#60);
#62= IFCPLANE(#61);
#63= IFCHALFSPACESOLID(#62,.T.);
#64= IFCBOOLEANCLIPPINGRESULT(.DIFFERENCE.,#57,#63);
#65= IFCDIRECTION((0.99999997784929,0.000210479027060326,0.));
#66= IFCCARTESIANPOINT((37.5228035491691,0.0325190094699792,-265.));
#67= IFCDIRECTION((0.000210479027060326,-0.999999977849289,0.));
#68= IFCAXIS2PLACEMENT3D(#66,#65,#67);
#69= IFCPLANE(#68);
#70= IFCHALFSPACESOLID(#69,.T.);
#71= IFCBOOLEANCLIPPINGRESULT(.DIFFERENCE.,#64,#70);
#72= IFCSHAPEREPRESENTATION(#12,'Body','Clipping',(#71));
#73= IFCPRODUCTDEFINITIONSHAPE($,$,(#72));
#74= IFCBEAM('0w56TKBXnBMPQiv0H1NUnd',#44,'BEAM','IPE330','IPE330',#48,#73,'ID3a146754-2e1c-4b59-96ac-e404415dec67');
#75= IFCLOCALPLACEMENT(#42,#47);
#76= IFCRECTANGLEPROFILEDEF(.AREA.,'PL47*156.5',#51,47.,156.5);
#77= IFCDIRECTION((0.,0.,-1.));
#78= IFCDIRECTION((-0.0002104790270619,0.999999977849289,0.));
#79= IFCCARTESIANPOINT((-40.709743125514,-82.897621174123,142.5));
#80= IFCAXIS2PLACEMENT3D(#79,#78,#77);
#81= IFCEXTRUDEDAREASOLID(#76,#80,#9,163.88);
#82= IFCSHAPEREPRESENTATION(#12,'Body','SweptSolid',(#81));
#83= IFCPRODUCTDEFINITIONSHAPE($,$,(#82));
#84= IFCOPENINGELEMENT('1Cx5BtKFn9tBZAlb2ucegF',#5,$,$,'Recess',#75,#83,$);
#85= IFCRELVOIDSELEMENT('2u_t05Bv54YwPIn9AhTTYx',#5,$,$,#74,#84);
#86= IFCPROPERTYSINGLEVALUE('FeatureSubTypes',$,$,$);
#87= IFCPROPERTYSINGLEVALUE('RectangleOpeningWidth',$,IFCPOSITIVELENGTHMEASURE(47.),$);
#88= IFCPROPERTYSINGLEVALUE('RectangleOpeningHeight',$,IFCPOSITIVELENGTHMEASURE(156.5),$);
#89= IFCPROPERTYSINGLEVALUE('OpeningDiameter',$,$,$);
#90= IFCPROPERTYSET('3WKisdaMb9XhvxAiLVavLa',#5,'AISC_EM11_Pset_Opening/Cope',$,(#86,#87,#88,#89));
#91= IFCLOCALPLACEMENT(#42,#47);
#92= IFCDIRECTION((-0.000416187000163965,-0.999999913394187,0.));
#93= IFCCARTESIANPOINT((9053.33279493684,80.9674332968894,142.5));
#94= IFCAXIS2PLACEMENT3D(#93,#92,#77);
#95= IFCEXTRUDEDAREASOLID(#76,#94,#9,165.72);
#96= IFCSHAPEREPRESENTATION(#12,'Body','SweptSolid',(#95));
#97= IFCPRODUCTDEFINITIONSHAPE($,$,(#96));
#98= IFCOPENINGELEMENT('35b5LmETH2Egd7RBEJknZS',#5,$,$,'Recess',#91,#97,$);
#99= IFCRELVOIDSELEMENT('2mypzNBIz0YBXYfNOJUjDM',#5,$,$,#74,#98);
#100= IFCCARTESIANPOINT((21249.9515898321,8282.65621724435,35315.));
#101= IFCDIRECTION((-0.000626665999778197,0.999999803644843,0.));
#102= IFCAXIS2PLACEMENT3D(#100,#101,#77);
#103= IFCLOCALPLACEMENT(#42,#102);
#104= IFCCIRCLEPROFILEDEF(.AREA.,$,#51,11.5);
#105= IFCCARTESIANPOINT((0.,-3.89304304460017,0.));
#106= IFCAXIS2PLACEMENT3D(#105,#8,#7);
#107= IFCEXTRUDEDAREASOLID(#104,#106,#9,7.7);
#108= IFCSHAPEREPRESENTATION(#12,'Body','SweptSolid',(#107));
#109= IFCREPRESENTATIONMAP(#10,#108);
#110= IFCCARTESIANPOINT((40.,0.,50.0000000000691));
#111= IFCCARTESIANTRANSFORMATIONOPERATOR3D($,$,#110,$,$);
#112= IFCMAPPEDITEM(#109,#111);
#113= IFCCARTESIANPOINT((100.,0.,50.0000000000691));
#114= IFCCARTESIANTRANSFORMATIONOPERATOR3D($,$,#113,$,$);
#115= IFCMAPPEDITEM(#109,#114);
#116= IFCCARTESIANPOINT((160.,0.,50.0000000000691));
#117= IFCCARTESIANTRANSFORMATIONOPERATOR3D($,$,#116,$,$);
#118= IFCMAPPEDITEM(#109,#117);
#119= IFCCARTESIANPOINT((220.,0.,50.0000000000691));
#120= IFCCARTESIANTRANSFORMATIONOPERATOR3D($,$,#119,$,$);
#121= IFCMAPPEDITEM(#109,#120);
#122= IFCSHAPEREPRESENTATION(#12,'Body','MappedRepresentation',(#112,#115,#118,#121));
#123= IFCPRODUCTDEFINITIONSHAPE($,$,(#122));
#124= IFCOPENINGELEMENT('1De4NIR$TEa9ZNhTD2L2ai',#5,$,$,'Opening',#103,#123,$);
#125= IFCRELVOIDSELEMENT('3xOa_L_tfDb8nlgS6ozWh6',#5,'Drill Hole',$,#74,#124);
#126= IFCPROPERTYSINGLEVALUE('FeatureSubTypes',$,IFCLABEL('TORNILLO'),$);
#127= IFCPROPERTYSINGLEVALUE('RectangleOpeningWidth',$,$,$);
#128= IFCPROPERTYSINGLEVALUE('RectangleOpeningHeight',$,$,$);
#129= IFCPROPERTYSET('0sGmuL9$n1rxYJMcR7Ycki',#5,'AISC_EM11_Pset_Opening/Cope',$,(#126,#127,#128,#89));
#130= IFCCARTESIANPOINT((21246.2001256874,17220.1817437534,35315.));
#131= IFCAXIS2PLACEMENT3D(#130,#53,#77);
#132= IFCLOCALPLACEMENT(#42,#131);
#133= IFCCARTESIANPOINT((0.,-3.76489009202357,0.));
#134= IFCAXIS2PLACEMENT3D(#133,#8,#7);
#135= IFCEXTRUDEDAREASOLID(#104,#134,#9,7.7);
#136= IFCSHAPEREPRESENTATION(#12,'Body','SweptSolid',(#135));
#137= IFCREPRESENTATIONMAP(#10,#136);
#138= IFCMAPPEDITEM(#137,#111);
#139= IFCMAPPEDITEM(#137,#114);
#140= IFCMAPPEDITEM(#137,#117);
#141= IFCMAPPEDITEM(#137,#120);
#142= IFCSHAPEREPRESENTATION(#12,'Body','MappedRepresentation',(#138,#139,#140,#141));
#143= IFCPRODUCTDEFINITIONSHAPE($,$,(#142));
#144= IFCOPENINGELEMENT('2P33Ss6pn6pB9Y15LjumTf',#5,$,$,'Opening',#132,#143,$);
#145= IFCRELVOIDSELEMENT('0isxfE_kn3cwTY6BGsQwfU',#5,'Drill Hole',$,#74,#144);
#146= IFCPROPERTYSINGLEVALUE('PieceMark',$,IFCIDENTIFIER('BEAM'),$);
#147= IFCPROPERTYSINGLEVALUE('IndicationMark',$,IFCIDENTIFIER('b/1282'),$);
#148= IFCPROPERTYSINGLEVALUE('PrelimMark',$,IFCIDENTIFIER(''),$);
#149= IFCPROPERTYSINGLEVALUE('MainPieceTag',$,IFCBOOLEAN(.T.),$);
#150= IFCPROPERTYSET('2ax9ldxZ9D1QyX1q4E8xzS',#5,'AISC_EM11_Pset_PieceIdentification','PieceIdentity',(#146,#147,#148,#149));
#151= IFCPROPERTYSINGLEVALUE('MaterialType',$,IFCIDENTIFIER('STEEL'),$);
#152= IFCPROPERTYSINGLEVALUE('MaterialGrade',$,IFCIDENTIFIER('S235JR'),$);
#153= IFCPROPERTYSET('2mHk_7CPn1$epNm0sVxFt_',#5,'AISC_EM11_Pset_Material',$,(#151,#152));
#154= IFCPROPERTYSINGLEVALUE('SkewedAngleY',$,IFCREAL(0.),$);
#155= IFCPROPERTYSINGLEVALUE('SkewedAngleX',$,IFCREAL(-0.01206),$);
#156= IFCPROPERTYSET('0rFOIu7GDB9vj$6EB33xBt',#5,'AISC_EM11_Pset_SkewedEnd',$,(#154,#155));
#157= IFCPROPERTYSINGLEVALUE('SkewedAngleX',$,IFCREAL(0.02385),$);
#158= IFCPROPERTYSET('1sccjkTLT8sOM6ybUSxN3F',#5,'AISC_EM11_Pset_SkewedEnd_2',$,(#154,#157));
#159= IFCMATERIAL('STEEL/S235JR');
#160= IFCRELAGGREGATES('2i4vHKCOz9puMLpbrI6vqy',#5,$,$,#37,(#39));
#161= IFCRELAGGREGATES('2_MBZcUgFR5Aed5t7aOB6E',#5,$,$,#39,(#41));
#162= IFCRELAGGREGATES('0Zn30gyYv8MPpTbJdiIBd5',#5,$,$,#41,(#43));
#163= IFCRELCONTAINEDINSPATIALSTRUCTURE('3yAHkHZibBIQmOwgp4foGC',#5,$,$,(#74),#43);
#164= IFCRELDEFINESBYPROPERTIES('34AfnHzMjCJvqu1f$9bbpv',#5,$,$,(#98,#84),#90);
#165= IFCRELDEFINESBYPROPERTIES('0kBlFXZxL8yfrdmN2vpS$A',#5,$,$,(#144,#124),#129);
#166= IFCRELDEFINESBYPROPERTIES('1_J5ILytb57gnX2G_4vc0K',#5,$,$,(#74),#150);
#167= IFCRELDEFINESBYPROPERTIES('3dzEx2Zxv1g8C5c2YC6Asz',#5,$,$,(#74),#153);
#168= IFCRELDEFINESBYPROPERTIES('3sFB9pchjEzhPx_4qjdZ2p',#5,$,$,(#74),#156);
#169= IFCRELDEFINESBYPROPERTIES('3mn8TdhjnCJh_KR3Lod9qe',#5,$,$,(#74),#158);
#170= IFCRELASSOCIATESMATERIAL('35NYZqRTX3m8tl0ASVRSFp',#5,$,$,(#74),#159);
ENDSEC;

END-ISO-10303-21;
