ISO-10303-21;
HEADER;
FILE_DESCRIPTION(('ViewDefinition[AISC_Steel_Detailing]', 'Option [BaseQuantities:Off]', 'Option [GridExport:On]', 'Option [Assemblies:Off]', 'Option [Bolts:On]', 'Option [Rebars:On]', 'Option [PourObjects:Off]', 'Option [Welds:On]', 'Option [SurfaceTreatments:On]', 'Option [LocationBy:0]', 'Option [ViewColors:Off]', 'Option [SectionedSpine:Off]', 'Option [PropertySets:On]', 'Option [Export all:Off]'),'2;1');
FILE_NAME('b_137_Qty_1.ifc','2026-05-16T11:53:19',('GIOVANNIPC\\gcorrea'),('Structural Designer'),'IFC Database version: Work','Tekla Structures 2020 Service Pack 5, IFC Export Version: 4.0.0.0 Dec  7 2020','');
FILE_SCHEMA(('IFC2X3'));
ENDSEC;

DATA;
#1= IFCPERSON('GIOVANNIPC\\gcorrea','Undefined',$,$,$,$,$,$);
#2= IFCORGANIZATION($,'Trimble Solutions Corporation',$,$,$);
#3= IFCPERSONANDORGANIZATION(#1,#2,$);
#4= IFCAPPLICATION(#2,'2020 Service Pack 5','Tekla Structures','Multi material modeling');
#5= IFCOWNERHISTORY(#3,#4,$,.NOCHANGE.,$,$,$,1778950399);
#6= IFCCARTESIANPOINT((0.,0.,0.));
#7= IFCDIRECTION((1.,0.,0.));
#8= IFCDIRECTION((0.,1.,0.));
#9= IFCDIRECTION((0.,0.,1.));
#10= IFCAXIS2PLACEMENT3D(#6,#9,#7);
#11= IFCGEOMETRICREPRESENTATIONCONTEXT($,'Model',3,1.E-05,#10,$);
#12= IFCGEOMETRICREPRESENTATIONSUBCONTEXT('Body','Model',*,*,*,*,#11,$,.MODEL_VIEW.,$);
#13= IFCGEOMETRICREPRESENTATIONSUBCONTEXT('Axis','Model',*,*,*,*,#11,$,.GRAPH_VIEW.,$);
#14= IFCGEOMETRICREPRESENTATIONSUBCONTEXT('FootPrint','Model',*,*,*,*,#11,$,.MODEL_VIEW.,$);
#15= IFCSIUNIT(*,.LENGTHUNIT.,.MILLI.,.METRE.);
#16= IFCMEASUREWITHUNIT(IFCRATIOMEASURE(304.8),#15);
#17= IFCDIMENSIONALEXPONENTS(1,0,0,0,0,0,0);
#18= IFCCONVERSIONBASEDUNIT(#17,.LENGTHUNIT.,'FOOT',#16);
#19= IFCSIUNIT(*,.AREAUNIT.,$,.SQUARE_METRE.);
#20= IFCMEASUREWITHUNIT(IFCRATIOMEASURE(0.09290304),#19);
#21= IFCDIMENSIONALEXPONENTS(2,0,0,0,0,0,0);
#22= IFCCONVERSIONBASEDUNIT(#21,.AREAUNIT.,'SQUARE FOOT',#20);
#23= IFCSIUNIT(*,.VOLUMEUNIT.,$,.CUBIC_METRE.);
#24= IFCMEASUREWITHUNIT(IFCRATIOMEASURE(0.028316846592),#23);
#25= IFCDIMENSIONALEXPONENTS(3,0,0,0,0,0,0);
#26= IFCCONVERSIONBASEDUNIT(#25,.VOLUMEUNIT.,'CUBIC FOOT',#24);
#27= IFCSIUNIT(*,.MASSUNIT.,.KILO.,.GRAM.);
#28= IFCSIUNIT(*,.TIMEUNIT.,$,.SECOND.);
#29= IFCSIUNIT(*,.PLANEANGLEUNIT.,$,.RADIAN.);
#30= IFCMEASUREWITHUNIT(IFCRATIOMEASURE(0.0174532925199433),#29);
#31= IFCDIMENSIONALEXPONENTS(0,0,0,0,0,0,0);
#32= IFCCONVERSIONBASEDUNIT(#31,.PLANEANGLEUNIT.,'DEGREE',#30);
#33= IFCSIUNIT(*,.SOLIDANGLEUNIT.,$,.STERADIAN.);
#34= IFCSIUNIT(*,.THERMODYNAMICTEMPERATUREUNIT.,$,.DEGREE_CELSIUS.);
#35= IFCSIUNIT(*,.LUMINOUSINTENSITYUNIT.,$,.LUMEN.);
#36= IFCUNITASSIGNMENT((#15,#19,#23,#27,#28,#29,#33,#34,#35));
#37= IFCPROJECT('2G7ZFDNE16yBDU14FA92Me',#5,'Proyecto',$,$,$,$,(#11),#36);
#38= IFCLOCALPLACEMENT($,#10);
#39= IFCSITE('2xvEzEinjBTea80yOTcujY',#5,'Obra',$,$,#38,$,$,.ELEMENT.,$,$,$,$,$);
#40= IFCLOCALPLACEMENT(#38,#10);
#41= IFCBUILDING('1pJ6OqK_5999rlDXwM0vmQ',#5,'Undefined',$,$,#40,$,$,.ELEMENT.,$,$,$);
#42= IFCLOCALPLACEMENT(#40,#10);
#43= IFCBUILDINGSTOREY('29hdEUCErFze9E_VIAceOd',#5,'Undefined',$,$,#42,$,$,.ELEMENT.,0.);
#44= IFCOWNERHISTORY(#3,#4,$,.NOCHANGE.,$,$,$,1773075600);
#45= IFCCARTESIANPOINT((80470.2260712509,17542.9526033895,13675.));
#46= IFCDIRECTION((-1.75399999958248E-06,0.999999999998462,0.));
#47= IFCAXIS2PLACEMENT3D(#45,#9,#46);
#48= IFCLOCALPLACEMENT(#42,#47);
#49= IFCDIRECTION((1.,0.));
#50= IFCCARTESIANPOINT((0.,0.));
#51= IFCAXIS2PLACEMENT2D(#50,#49);
#52= IFCISHAPEPROFILEDEF(.AREA.,'IPE450',#51,190.,450.,9.399999619,14.60000038,21.);
#53= IFCDIRECTION((0.,-1.,0.));
#54= IFCDIRECTION((-1.,0.,0.));
#55= IFCCARTESIANPOINT((4442.34779926596,0.,-1.81898940354586E-12));
#56= IFCAXIS2PLACEMENT3D(#55,#54,#53);
#57= IFCEXTRUDEDAREASOLID(#52,#56,#9,4589.42);
#58= IFCDIRECTION((-0.999999999998462,1.75400000080118E-06,0.));
#59= IFCCARTESIANPOINT((4442.34746266074,1.75400055013597E-05,-325.000000000002));
#60= IFCDIRECTION((1.75400000080118E-06,0.999999999998462,0.));
#61= IFCAXIS2PLACEMENT3D(#59,#58,#60);
#62= IFCPLANE(#61);
#63= IFCHALFSPACESOLID(#62,.T.);
#64= IFCBOOLEANCLIPPINGRESULT(.DIFFERENCE.,#57,#63);
#65= IFCDIRECTION((0.999999999998462,-1.75400000080118E-06,0.));
#66= IFCCARTESIANPOINT((-147.070202877047,-1.75400055013597E-05,-325.000000000002));
#67= IFCDIRECTION((-1.75400000080118E-06,-0.999999999998462,0.));
#68= IFCAXIS2PLACEMENT3D(#66,#65,#67);
#69= IFCPLANE(#68);
#70= IFCHALFSPACESOLID(#69,.T.);
#71= IFCBOOLEANCLIPPINGRESULT(.DIFFERENCE.,#64,#70);
#72= IFCSHAPEREPRESENTATION(#12,'Body','Clipping',(#71));
#73= IFCPRODUCTDEFINITIONSHAPE($,$,(#72));
#74= IFCBEAM('2xSrrX_of9wRMXqAJvb_eB',#44,'BEAM','IPE450','IPE450',#48,#73,'IDbb735d61-fb2a-49e9-b5a1-d0a4f997ea0b');
#75= IFCLOCALPLACEMENT(#42,#47);
#76= IFCRECTANGLEPROFILEDEF(.AREA.,'PL59*156.3',#51,59.,156.3);
#77= IFCDIRECTION((0.,0.,-1.));
#78= IFCCARTESIANPOINT((-80.9453712611164,-96.0001159834749,-196.500000000002));
#79= IFCAXIS2PLACEMENT3D(#78,#60,#77);
#80= IFCEXTRUDEDAREASOLID(#76,#79,#9,192.01);
#81= IFCSHAPEREPRESENTATION(#12,'Body','SweptSolid',(#80));
#82= IFCPRODUCTDEFINITIONSHAPE($,$,(#81));
#83= IFCOPENINGELEMENT('1ZBkkP7MT9AP4W6XAwIpx3',#5,$,$,'Recess',#75,#82,$);
#84= IFCRELVOIDSELEMENT('0e3$M6Kfr5vQCKq8y2UVS5',#5,$,$,#74,#83);
#85= IFCPROPERTYSINGLEVALUE('FeatureSubTypes',$,$,$);
#86= IFCPROPERTYSINGLEVALUE('RectangleOpeningWidth',$,IFCPOSITIVELENGTHMEASURE(59.),$);
#87= IFCPROPERTYSINGLEVALUE('RectangleOpeningHeight',$,IFCPOSITIVELENGTHMEASURE(156.3),$);
#88= IFCPROPERTYSINGLEVALUE('OpeningDiameter',$,$,$);
#89= IFCPROPERTYSET('2Z6fLd0LP5o9FFSnewj2_F',#5,'AISC_EM11_Pset_Opening/Cope',$,(#85,#86,#87,#88));
#90= IFCLOCALPLACEMENT(#42,#47);
#91= IFCRECTANGLEPROFILEDEF(.AREA.,'PL49*156.3',#51,49.,156.3);
#92= IFCCARTESIANPOINT((-80.9453712611164,-96.0001159834749,201.499999999998));
#93= IFCAXIS2PLACEMENT3D(#92,#60,#77);
#94= IFCEXTRUDEDAREASOLID(#91,#93,#9,192.01);
#95= IFCSHAPEREPRESENTATION(#12,'Body','SweptSolid',(#94));
#96= IFCPRODUCTDEFINITIONSHAPE($,$,(#95));
#97= IFCOPENINGELEMENT('2d5HTYP7HDrB05Bp7nA5fb',#5,$,$,'Recess',#90,#96,$);
#98= IFCRELVOIDSELEMENT('0PpPelo$vFNftr8uUbfSbS',#5,$,$,#74,#97);
#99= IFCPROPERTYSINGLEVALUE('RectangleOpeningWidth',$,IFCPOSITIVELENGTHMEASURE(49.),$);
#100= IFCPROPERTYSET('358x397YPEkg2nBpF1HRvR',#5,'AISC_EM11_Pset_Opening/Cope',$,(#85,#99,#87,#88));
#101= IFCLOCALPLACEMENT(#42,#47);
#102= IFCRECTANGLEPROFILEDEF(.AREA.,'PL36.6*102.3',#51,36.6,102.3);
#103= IFCCARTESIANPOINT((4403.19763094952,96.0000686716769,-207.699999810002));
#104= IFCAXIS2PLACEMENT3D(#103,#67,#77);
#105= IFCEXTRUDEDAREASOLID(#102,#104,#9,192.01);
#106= IFCSHAPEREPRESENTATION(#12,'Body','SweptSolid',(#105));
#107= IFCPRODUCTDEFINITIONSHAPE($,$,(#106));
#108= IFCOPENINGELEMENT('3hK744bRHEeQo9wNBJ2_RA',#5,$,$,'Recess',#101,#107,$);
#109= IFCRELVOIDSELEMENT('2k8g8YPCbF3PNa0I$d5LSr',#5,$,$,#74,#108);
#110= IFCPROPERTYSINGLEVALUE('RectangleOpeningWidth',$,IFCPOSITIVELENGTHMEASURE(36.6),$);
#111= IFCPROPERTYSINGLEVALUE('RectangleOpeningHeight',$,IFCPOSITIVELENGTHMEASURE(102.3),$);
#112= IFCPROPERTYSET('3E4L0T1LbBGubflc0lnprP',#5,'AISC_EM11_Pset_Opening/Cope',$,(#85,#110,#111,#88));
#113= IFCLOCALPLACEMENT(#42,#47);
#114= IFCCARTESIANPOINT((4403.19763094952,96.0000686716769,207.699999809998));
#115= IFCAXIS2PLACEMENT3D(#114,#67,#77);
#116= IFCEXTRUDEDAREASOLID(#102,#115,#9,192.01);
#117= IFCSHAPEREPRESENTATION(#12,'Body','SweptSolid',(#116));
#118= IFCPRODUCTDEFINITIONSHAPE($,$,(#117));
#119= IFCOPENINGELEMENT('0P7urzchP3gg7I4T0aKkdv',#5,$,$,'Recess',#113,#118,$);
#120= IFCRELVOIDSELEMENT('27ooU6dtDDTAPSM5Vnpdgn',#5,$,$,#74,#119);
#121= IFCCARTESIANPOINT((80470.2260712509,17582.9526033895,13900.));
#122= IFCDIRECTION((-0.999998404616686,0.00178627099932056,0.));
#123= IFCDIRECTION((0.00178627099932005,0.999998404616686,0.));
#124= IFCAXIS2PLACEMENT3D(#121,#122,#123);
#125= IFCLOCALPLACEMENT(#42,#124);
#126= IFCCIRCLEPROFILEDEF(.AREA.,$,#51,11.5);
#127= IFCCARTESIANPOINT((0.,-0.0999999999999929,0.));
#128= IFCAXIS2PLACEMENT3D(#127,#8,#7);
#129= IFCEXTRUDEDAREASOLID(#126,#128,#9,14.8);
#130= IFCSHAPEREPRESENTATION(#12,'Body','SweptSolid',(#129));
#131= IFCREPRESENTATIONMAP(#10,#130);
#132= IFCCARTESIANPOINT((0.,0.,-49.999999999869));
#133= IFCCARTESIANTRANSFORMATIONOPERATOR3D($,$,#132,$,$);
#134= IFCMAPPEDITEM(#131,#133);
#135= IFCCARTESIANPOINT((69.9999999998072,0.,-49.9999999993452));
#136= IFCCARTESIANTRANSFORMATIONOPERATOR3D($,$,#135,$,$);
#137= IFCMAPPEDITEM(#131,#136);
#138= IFCCARTESIANPOINT((139.999999999618,0.,-49.9999999988504));
#139= IFCCARTESIANTRANSFORMATIONOPERATOR3D($,$,#138,$,$);
#140= IFCMAPPEDITEM(#131,#139);
#141= IFCCARTESIANPOINT((209.999999999425,0.,-49.9999999983265));
#142= IFCCARTESIANTRANSFORMATIONOPERATOR3D($,$,#141,$,$);
#143= IFCMAPPEDITEM(#131,#142);
#144= IFCCARTESIANPOINT((279.999999999232,0.,-49.9999999978318));
#145= IFCCARTESIANTRANSFORMATIONOPERATOR3D($,$,#144,$,$);
#146= IFCMAPPEDITEM(#131,#145);
#147= IFCCARTESIANPOINT((349.999999999043,0.,-49.9999999973079));
#148= IFCCARTESIANTRANSFORMATIONOPERATOR3D($,$,#147,$,$);
#149= IFCMAPPEDITEM(#131,#148);
#150= IFCCARTESIANPOINT((419.99999999885,0.,-49.9999999968131));
#151= IFCCARTESIANTRANSFORMATIONOPERATOR3D($,$,#150,$,$);
#152= IFCMAPPEDITEM(#131,#151);
#153= IFCCARTESIANPOINT((3.63797880709171E-12,0.,49.999999999869));
#154= IFCCARTESIANTRANSFORMATIONOPERATOR3D($,$,#153,$,$);
#155= IFCMAPPEDITEM(#131,#154);
#156= IFCCARTESIANPOINT((69.9999999998108,0.,50.0000000003783));
#157= IFCCARTESIANTRANSFORMATIONOPERATOR3D($,$,#156,$,$);
#158= IFCMAPPEDITEM(#131,#157);
#159= IFCCARTESIANPOINT((139.999999999618,0.,50.0000000008877));
#160= IFCCARTESIANTRANSFORMATIONOPERATOR3D($,$,#159,$,$);
#161= IFCMAPPEDITEM(#131,#160);
#162= IFCCARTESIANPOINT((209.999999999425,0.,50.000000001397));
#163= IFCCARTESIANTRANSFORMATIONOPERATOR3D($,$,#162,$,$);
#164= IFCMAPPEDITEM(#131,#163);
#165= IFCCARTESIANPOINT((279.999999999236,0.,50.0000000019063));
#166= IFCCARTESIANTRANSFORMATIONOPERATOR3D($,$,#165,$,$);
#167= IFCMAPPEDITEM(#131,#166);
#168= IFCCARTESIANPOINT((349.999999999043,0.,50.0000000024156));
#169= IFCCARTESIANTRANSFORMATIONOPERATOR3D($,$,#168,$,$);
#170= IFCMAPPEDITEM(#131,#169);
#171= IFCCARTESIANPOINT((419.99999999885,0.,50.0000000029249));
#172= IFCCARTESIANTRANSFORMATIONOPERATOR3D($,$,#171,$,$);
#173= IFCMAPPEDITEM(#131,#172);
#174= IFCSHAPEREPRESENTATION(#12,'Body','MappedRepresentation',(#134,#137,#140,#143,#146,#149,#152,#155,#158,#161,#164,#167,#170,#173));
#175= IFCPRODUCTDEFINITIONSHAPE($,$,(#174));
#176= IFCOPENINGELEMENT('2Mkdi2AC5FqOKx1EOiDRyM',#5,$,$,'Opening',#125,#175,$);
#177= IFCRELVOIDSELEMENT('1qofCTjBD6ru643gHzSHnp',#5,'Drill Hole',$,#74,#176);
#178= IFCPROPERTYSINGLEVALUE('FeatureSubTypes',$,IFCLABEL('TORNILLO'),$);
#179= IFCPROPERTYSINGLEVALUE('RectangleOpeningWidth',$,$,$);
#180= IFCPROPERTYSINGLEVALUE('RectangleOpeningHeight',$,$,$);
#181= IFCPROPERTYSET('1vxvnhY2D4eQskZM5Hz7_3',#5,'AISC_EM11_Pset_Opening/Cope',$,(#178,#179,#180,#88));
#182= IFCCARTESIANPOINT((80470.2263116721,17395.8824005127,13900.));
#183= IFCAXIS2PLACEMENT3D(#182,#8,#77);
#184= IFCLOCALPLACEMENT(#42,#183);
#185= IFCCARTESIANPOINT((0.,-4.79994718950609,0.));
#186= IFCAXIS2PLACEMENT3D(#185,#8,#7);
#187= IFCEXTRUDEDAREASOLID(#126,#186,#9,9.6);
#188= IFCSHAPEREPRESENTATION(#12,'Body','SweptSolid',(#187));
#189= IFCREPRESENTATIONMAP(#10,#188);
#190= IFCCARTESIANPOINT((85.,0.,40.));
#191= IFCCARTESIANTRANSFORMATIONOPERATOR3D($,$,#190,$,$);
#192= IFCMAPPEDITEM(#189,#191);
#193= IFCCARTESIANPOINT((155.,0.,40.));
#194= IFCCARTESIANTRANSFORMATIONOPERATOR3D($,$,#193,$,$);
#195= IFCMAPPEDITEM(#189,#194);
#196= IFCCARTESIANPOINT((225.,0.,40.));
#197= IFCCARTESIANTRANSFORMATIONOPERATOR3D($,$,#196,$,$);
#198= IFCMAPPEDITEM(#189,#197);
#199= IFCCARTESIANPOINT((295.,0.,40.));
#200= IFCCARTESIANTRANSFORMATIONOPERATOR3D($,$,#199,$,$);
#201= IFCMAPPEDITEM(#189,#200);
#202= IFCCARTESIANPOINT((365.,0.,40.));
#203= IFCCARTESIANTRANSFORMATIONOPERATOR3D($,$,#202,$,$);
#204= IFCMAPPEDITEM(#189,#203);
#205= IFCSHAPEREPRESENTATION(#12,'Body','MappedRepresentation',(#192,#195,#198,#201,#204));
#206= IFCPRODUCTDEFINITIONSHAPE($,$,(#205));
#207= IFCOPENINGELEMENT('06BrXVlQj2sgGrB2nc74U0',#5,$,$,'Opening',#184,#206,$);
#208= IFCRELVOIDSELEMENT('1iskEuder8P9KhWTAImjNB',#5,'Drill Hole',$,#74,#207);
#209= IFCCARTESIANPOINT((80470.2260712509,21852.2585782511,13900.));
#210= IFCAXIS2PLACEMENT3D(#209,#7,#53);
#211= IFCLOCALPLACEMENT(#42,#210);
#212= IFCSHAPEREPRESENTATION(#12,'Body','MappedRepresentation',(#155,#158,#161,#164,#167,#170,#173,#134,#137,#140,#143,#146,#149,#152));
#213= IFCPRODUCTDEFINITIONSHAPE($,$,(#212));
#214= IFCOPENINGELEMENT('3goR4hAbD8hwAvx$P1JX9t',#5,$,$,'Opening',#211,#213,$);
#215= IFCRELVOIDSELEMENT('1Pat547dH5BwzBJwYNjdWx',#5,'Drill Hole',$,#74,#214);
#216= IFCCARTESIANPOINT((80470.218296911,21985.3000660434,13824.39999962));
#217= IFCAXIS2PLACEMENT3D(#216,#53,#77);
#218= IFCLOCALPLACEMENT(#42,#217);
#219= IFCMAPPEDITEM(#189,#154);
#220= IFCMAPPEDITEM(#189,#157);
#221= IFCMAPPEDITEM(#189,#160);
#222= IFCMAPPEDITEM(#189,#163);
#223= IFCMAPPEDITEM(#189,#166);
#224= IFCSHAPEREPRESENTATION(#12,'Body','MappedRepresentation',(#219,#220,#221,#222,#223));
#225= IFCPRODUCTDEFINITIONSHAPE($,$,(#224));
#226= IFCOPENINGELEMENT('0SFXzgs_53Zeg8PMDwnher',#5,$,$,'Opening',#218,#225,$);
#227= IFCRELVOIDSELEMENT('1dBBrW9hT5tB_dkGKZtlpY',#5,'Drill Hole',$,#74,#226);
#228= IFCPROPERTYSINGLEVALUE('PieceMark',$,IFCIDENTIFIER('BEAM'),$);
#229= IFCPROPERTYSINGLEVALUE('IndicationMark',$,IFCIDENTIFIER('b/137'),$);
#230= IFCPROPERTYSINGLEVALUE('PrelimMark',$,IFCIDENTIFIER(''),$);
#231= IFCPROPERTYSINGLEVALUE('MainPieceTag',$,IFCBOOLEAN(.T.),$);
#232= IFCPROPERTYSET('1TOSBMQM97whO8hbLqOlHI',#5,'AISC_EM11_Pset_PieceIdentification','PieceIdentity',(#228,#229,#230,#231));
#233= IFCPROPERTYSINGLEVALUE('MaterialType',$,IFCIDENTIFIER('STEEL'),$);
#234= IFCPROPERTYSINGLEVALUE('MaterialGrade',$,IFCIDENTIFIER('S235JR'),$);
#235= IFCPROPERTYSET('2ABA7eTqj4EPE$5qj_tyAs',#5,'AISC_EM11_Pset_Material',$,(#233,#234));
#236= IFCPROPERTYSINGLEVALUE('SkewedAngleY',$,IFCREAL(0.),$);
#237= IFCPROPERTYSINGLEVALUE('SkewedAngleX',$,IFCREAL(0.),$);
#238= IFCPROPERTYSET('0NoDexmGfFOfVjlxJdIpNa',#5,'AISC_EM11_Pset_SkewedEnd',$,(#236,#237));
#239= IFCPROPERTYSINGLEVALUE('SkewedAngleX',$,IFCREAL(0.0001),$);
#240= IFCPROPERTYSET('1x4Z4MRlj1lw31kS4Km4Zc',#5,'AISC_EM11_Pset_SkewedEnd_2',$,(#236,#239));
#241= IFCMATERIAL('STEEL/S235JR');
#242= IFCRELAGGREGATES('2O$utsWDzDL99ztIs62A4f',#5,$,$,#37,(#39));
#243= IFCRELAGGREGATES('2gHA98oVFVdRRF9a8OKSMx',#5,$,$,#39,(#41));
#244= IFCRELAGGREGATES('1bru9n5EX768e7cjHNeI9V',#5,$,$,#41,(#43));
#245= IFCRELCONTAINEDINSPATIALSTRUCTURE('2MA57xNJr92OLm4DAqYOBd',#5,$,$,(#74),#43);
#246= IFCRELDEFINESBYPROPERTIES('0KRqRrlC5APR6MqAOyPt7d',#5,$,$,(#83),#89);
#247= IFCRELDEFINESBYPROPERTIES('0gE73XG7X7HgXccD_emv9o',#5,$,$,(#97),#100);
#248= IFCRELDEFINESBYPROPERTIES('0lAZi$4JX5WQ2izUOrTmix',#5,$,$,(#119,#108),#112);
#249= IFCRELDEFINESBYPROPERTIES('0xTth5nur2fOOvFcLUn6QF',#5,$,$,(#226,#214,#207,#176),#181);
#250= IFCRELDEFINESBYPROPERTIES('10lT$klufDuesMZvDBevS8',#5,$,$,(#74),#232);
#251= IFCRELDEFINESBYPROPERTIES('0MAbbXPgvFdBJsf6P5bljS',#5,$,$,(#74),#235);
#252= IFCRELDEFINESBYPROPERTIES('1eYd2nsG5CBved0sZ6v1P8',#5,$,$,(#74),#238);
#253= IFCRELDEFINESBYPROPERTIES('35TfFskAn6CvKF_HlNJFpt',#5,$,$,(#74),#240);
#254= IFCRELASSOCIATESMATERIAL('1fRWLVlkvCTByee5s12yex',#5,$,$,(#74),#241);
ENDSEC;

END-ISO-10303-21;
