ISO-10303-21;
HEADER;
FILE_DESCRIPTION(('ViewDefinition[AISC_Steel_Detailing]', 'Option [BaseQuantities:Off]', 'Option [GridExport:On]', 'Option [Assemblies:Off]', 'Option [Bolts:On]', 'Option [Rebars:On]', 'Option [PourObjects:Off]', 'Option [Welds:On]', 'Option [SurfaceTreatments:On]', 'Option [LocationBy:0]', 'Option [ViewColors:Off]', 'Option [SectionedSpine:Off]', 'Option [PropertySets:On]', 'Option [Export all:Off]'),'2;1');
FILE_NAME('b_135_Qty_1.ifc','2026-05-16T11:53:19',('GIOVANNIPC\\gcorrea'),('Structural Designer'),'IFC Database version: Work','Tekla Structures 2020 Service Pack 5, IFC Export Version: 4.0.0.0 Dec  7 2020','');
FILE_SCHEMA(('IFC2X3'));
ENDSEC;

DATA;
#1= IFCPERSON('GIOVANNIPC\\gcorrea','Undefined',$,$,$,$,$,$);
#2= IFCORGANIZATION($,'Trimble Solutions Corporation',$,$,$);
#3= IFCPERSONANDORGANIZATION(#1,#2,$);
#4= IFCAPPLICATION(#2,'2020 Service Pack 5','Tekla Structures','Multi material modeling');
#5= IFCOWNERHISTORY(#3,#4,$,.NOCHANGE.,$,$,$,1778950399);
#6= IFCCARTESIANPOINT((0.,0.,0.));
#7= IFCDIRECTION((1.,0.,0.));
#8= IFCDIRECTION((0.,1.,0.));
#9= IFCDIRECTION((0.,0.,1.));
#10= IFCAXIS2PLACEMENT3D(#6,#9,#7);
#11= IFCGEOMETRICREPRESENTATIONCONTEXT($,'Model',3,1.E-05,#10,$);
#12= IFCGEOMETRICREPRESENTATIONSUBCONTEXT('Body','Model',*,*,*,*,#11,$,.MODEL_VIEW.,$);
#13= IFCGEOMETRICREPRESENTATIONSUBCONTEXT('Axis','Model',*,*,*,*,#11,$,.GRAPH_VIEW.,$);
#14= IFCGEOMETRICREPRESENTATIONSUBCONTEXT('FootPrint','Model',*,*,*,*,#11,$,.MODEL_VIEW.,$);
#15= IFCSIUNIT(*,.LENGTHUNIT.,.MILLI.,.METRE.);
#16= IFCMEASUREWITHUNIT(IFCRATIOMEASURE(304.8),#15);
#17= IFCDIMENSIONALEXPONENTS(1,0,0,0,0,0,0);
#18= IFCCONVERSIONBASEDUNIT(#17,.LENGTHUNIT.,'FOOT',#16);
#19= IFCSIUNIT(*,.AREAUNIT.,$,.SQUARE_METRE.);
#20= IFCMEASUREWITHUNIT(IFCRATIOMEASURE(0.09290304),#19);
#21= IFCDIMENSIONALEXPONENTS(2,0,0,0,0,0,0);
#22= IFCCONVERSIONBASEDUNIT(#21,.AREAUNIT.,'SQUARE FOOT',#20);
#23= IFCSIUNIT(*,.VOLUMEUNIT.,$,.CUBIC_METRE.);
#24= IFCMEASUREWITHUNIT(IFCRATIOMEASURE(0.028316846592),#23);
#25= IFCDIMENSIONALEXPONENTS(3,0,0,0,0,0,0);
#26= IFCCONVERSIONBASEDUNIT(#25,.VOLUMEUNIT.,'CUBIC FOOT',#24);
#27= IFCSIUNIT(*,.MASSUNIT.,.KILO.,.GRAM.);
#28= IFCSIUNIT(*,.TIMEUNIT.,$,.SECOND.);
#29= IFCSIUNIT(*,.PLANEANGLEUNIT.,$,.RADIAN.);
#30= IFCMEASUREWITHUNIT(IFCRATIOMEASURE(0.0174532925199433),#29);
#31= IFCDIMENSIONALEXPONENTS(0,0,0,0,0,0,0);
#32= IFCCONVERSIONBASEDUNIT(#31,.PLANEANGLEUNIT.,'DEGREE',#30);
#33= IFCSIUNIT(*,.SOLIDANGLEUNIT.,$,.STERADIAN.);
#34= IFCSIUNIT(*,.THERMODYNAMICTEMPERATUREUNIT.,$,.DEGREE_CELSIUS.);
#35= IFCSIUNIT(*,.LUMINOUSINTENSITYUNIT.,$,.LUMEN.);
#36= IFCUNITASSIGNMENT((#15,#19,#23,#27,#28,#29,#33,#34,#35));
#37= IFCPROJECT('2G7ZFDNE16yBDU14FA92Me',#5,'Proyecto',$,$,$,$,(#11),#36);
#38= IFCLOCALPLACEMENT($,#10);
#39= IFCSITE('2xvEzEinjBTea80yOTcujY',#5,'Obra',$,$,#38,$,$,.ELEMENT.,$,$,$,$,$);
#40= IFCLOCALPLACEMENT(#38,#10);
#41= IFCBUILDING('0gz6FMyKLFdwM5wd_2Pi4X',#5,'Undefined',$,$,#40,$,$,.ELEMENT.,$,$,$);
#42= IFCLOCALPLACEMENT(#40,#10);
#43= IFCBUILDINGSTOREY('29hdEUCErFze9E_VIAceOd',#5,'Undefined',$,$,#42,$,$,.ELEMENT.,0.);
#44= IFCOWNERHISTORY(#3,#4,$,.NOCHANGE.,$,$,$,1772737200);
#45= IFCCARTESIANPOINT((76311.736843956,17885.8824005127,13675.));
#46= IFCDIRECTION((0.0457129959809599,0.998954614583888,0.));
#47= IFCAXIS2PLACEMENT3D(#45,#9,#46);
#48= IFCLOCALPLACEMENT(#42,#47);
#49= IFCDIRECTION((1.,0.));
#50= IFCCARTESIANPOINT((0.,0.));
#51= IFCAXIS2PLACEMENT2D(#50,#49);
#52= IFCISHAPEPROFILEDEF(.AREA.,'IPE450',#51,190.,450.,9.399999619,14.60000038,21.);
#53= IFCDIRECTION((0.,-1.,0.));
#54= IFCDIRECTION((-1.,0.,0.));
#55= IFCCARTESIANPOINT((3969.11616268229,1.45519152283669E-11,-1.81898940354586E-12));
#56= IFCAXIS2PLACEMENT3D(#55,#54,#53);
#57= IFCEXTRUDEDAREASOLID(#52,#56,#9,3968.03);
#58= IFCCARTESIANPOINT((3956.34912035437,4.36557456851006E-11,-325.000000000002));
#59= IFCAXIS2PLACEMENT3D(#58,#54,#8);
#60= IFCPLANE(#59);
#61= IFCHALFSPACESOLID(#60,.T.);
#62= IFCBOOLEANCLIPPINGRESULT(.DIFFERENCE.,#57,#61);
#63= IFCDIRECTION((0.998954614583889,0.0457129959809565,0.));
#64= IFCCARTESIANPOINT((9.51021458327159,94.9990173669794,-1.81898940354586E-12));
#65= IFCDIRECTION((0.,0.,-1.));
#66= IFCAXIS2PLACEMENT3D(#64,#63,#65);
#67= IFCPLANE(#66);
#68= IFCHALFSPACESOLID(#67,.T.);
#69= IFCBOOLEANCLIPPINGRESULT(.DIFFERENCE.,#62,#68);
#70= IFCSHAPEREPRESENTATION(#12,'Body','Clipping',(#69));
#71= IFCPRODUCTDEFINITIONSHAPE($,$,(#70));
#72= IFCBEAM('38eF2o26rBuuMSrim0iTZF',#44,'BEAM','IPE450','IPE450',#48,#71,'IDc8a0f0b2-086d-4be3-859c-d6cc00b1d8cf');
#73= IFCLOCALPLACEMENT(#42,#47);
#74= IFCRECTANGLEPROFILEDEF(.AREA.,'PL106.2*12.4',#51,12.4,106.2);
#75= IFCCARTESIANPOINT((3962.16608754312,-42.9214127090963,225.999999999998));
#76= IFCAXIS2PLACEMENT3D(#75,#65,#54);
#77= IFCEXTRUDEDAREASOLID(#74,#76,#9,452.);
#78= IFCSHAPEREPRESENTATION(#12,'Body','SweptSolid',(#77));
#79= IFCPRODUCTDEFINITIONSHAPE($,$,(#78));
#80= IFCOPENINGELEMENT('0o$$e5U7v3ZeuxiYRjV1aM',#5,$,$,'Recess',#73,#79,$);
#81= IFCRELVOIDSELEMENT('1RqhPDPKbBGBzQcO6u00OD',#5,$,$,#72,#80);
#82= IFCPROPERTYSINGLEVALUE('FeatureSubTypes',$,$,$);
#83= IFCPROPERTYSINGLEVALUE('RectangleOpeningWidth',$,IFCPOSITIVELENGTHMEASURE(12.4),$);
#84= IFCPROPERTYSINGLEVALUE('RectangleOpeningHeight',$,IFCPOSITIVELENGTHMEASURE(106.2),$);
#85= IFCPROPERTYSINGLEVALUE('OpeningDiameter',$,$,$);
#86= IFCPROPERTYSET('2C$ma8NjL3pugP96lVK5ok',#5,'AISC_EM11_Pset_Opening/Cope',$,(#82,#83,#84,#85));
#87= IFCLOCALPLACEMENT(#42,#47);
#88= IFCCARTESIANPOINT((3962.16608754336,42.9191660122888,225.999999999998));
#89= IFCAXIS2PLACEMENT3D(#88,#65,#54);
#90= IFCEXTRUDEDAREASOLID(#74,#89,#9,452.);
#91= IFCSHAPEREPRESENTATION(#12,'Body','SweptSolid',(#90));
#92= IFCPRODUCTDEFINITIONSHAPE($,$,(#91));
#93= IFCOPENINGELEMENT('18lyr71pj1jgT05RoO2cuy',#5,$,$,'Recess',#87,#92,$);
#94= IFCRELVOIDSELEMENT('1oa02W4Uf8W8y1SAE2CaSg',#5,$,$,#72,#93);
#95= IFCCARTESIANPOINT((76490.7485081636,21797.7547428887,13450.));
#96= IFCDIRECTION((-0.998949728531943,0.0458196449785285,0.));
#97= IFCDIRECTION((-0.0458196449785294,-0.998949728531942,0.));
#98= IFCAXIS2PLACEMENT3D(#95,#96,#97);
#99= IFCLOCALPLACEMENT(#42,#98);
#100= IFCCIRCLEPROFILEDEF(.AREA.,$,#51,11.);
#101= IFCCARTESIANPOINT((0.,-0.0999999999995453,0.));
#102= IFCAXIS2PLACEMENT3D(#101,#8,#7);
#103= IFCEXTRUDEDAREASOLID(#100,#102,#9,14.8);
#104= IFCSHAPEREPRESENTATION(#12,'Body','SweptSolid',(#103));
#105= IFCREPRESENTATIONMAP(#10,#104);
#106= IFCCARTESIANPOINT((-7.27595761418343E-12,0.,49.999999999578));
#107= IFCCARTESIANTRANSFORMATIONOPERATOR3D($,$,#106,$,$);
#108= IFCMAPPEDITEM(#105,#107);
#109= IFCCARTESIANPOINT((69.9999999999091,0.,49.9999999993161));
#110= IFCCARTESIANTRANSFORMATIONOPERATOR3D($,$,#109,$,$);
#111= IFCMAPPEDITEM(#105,#110);
#112= IFCCARTESIANPOINT((139.999999999825,0.,49.9999999990541));
#113= IFCCARTESIANTRANSFORMATIONOPERATOR3D($,$,#112,$,$);
#114= IFCMAPPEDITEM(#105,#113);
#115= IFCCARTESIANPOINT((209.999999999742,0.,49.9999999987776));
#116= IFCCARTESIANTRANSFORMATIONOPERATOR3D($,$,#115,$,$);
#117= IFCMAPPEDITEM(#105,#116);
#118= IFCCARTESIANPOINT((279.999999999654,0.,49.9999999985157));
#119= IFCCARTESIANTRANSFORMATIONOPERATOR3D($,$,#118,$,$);
#120= IFCMAPPEDITEM(#105,#119);
#121= IFCCARTESIANPOINT((349.999999999571,0.,49.9999999982538));
#122= IFCCARTESIANTRANSFORMATIONOPERATOR3D($,$,#121,$,$);
#123= IFCMAPPEDITEM(#105,#122);
#124= IFCCARTESIANPOINT((419.999999999487,0.,49.9999999979773));
#125= IFCCARTESIANTRANSFORMATIONOPERATOR3D($,$,#124,$,$);
#126= IFCMAPPEDITEM(#105,#125);
#127= IFCCARTESIANPOINT((1.09139364212751E-11,0.,-49.9999999995925));
#128= IFCCARTESIANTRANSFORMATIONOPERATOR3D($,$,#127,$,$);
#129= IFCMAPPEDITEM(#105,#128);
#130= IFCCARTESIANPOINT((69.9999999999272,0.,-49.999999999869));
#131= IFCCARTESIANTRANSFORMATIONOPERATOR3D($,$,#130,$,$);
#132= IFCMAPPEDITEM(#105,#131);
#133= IFCCARTESIANPOINT((139.99999999984,0.,-50.000000000131));
#134= IFCCARTESIANTRANSFORMATIONOPERATOR3D($,$,#133,$,$);
#135= IFCMAPPEDITEM(#105,#134);
#136= IFCCARTESIANPOINT((209.999999999756,0.,-50.0000000003929));
#137= IFCCARTESIANTRANSFORMATIONOPERATOR3D($,$,#136,$,$);
#138= IFCMAPPEDITEM(#105,#137);
#139= IFCCARTESIANPOINT((279.999999999673,0.,-50.0000000006548));
#140= IFCCARTESIANTRANSFORMATIONOPERATOR3D($,$,#139,$,$);
#141= IFCMAPPEDITEM(#105,#140);
#142= IFCCARTESIANPOINT((349.999999999593,0.,-50.0000000009168));
#143= IFCCARTESIANTRANSFORMATIONOPERATOR3D($,$,#142,$,$);
#144= IFCMAPPEDITEM(#105,#143);
#145= IFCCARTESIANPOINT((419.999999999505,0.,-50.0000000011787));
#146= IFCCARTESIANTRANSFORMATIONOPERATOR3D($,$,#145,$,$);
#147= IFCMAPPEDITEM(#105,#146);
#148= IFCSHAPEREPRESENTATION(#12,'Body','MappedRepresentation',(#108,#111,#114,#117,#120,#123,#126,#129,#132,#135,#138,#141,#144,#147));
#149= IFCPRODUCTDEFINITIONSHAPE($,$,(#148));
#150= IFCOPENINGELEMENT('2lygiZBOTAS90F6eDnKeOw',#5,$,$,'Opening',#99,#149,$);
#151= IFCRELVOIDSELEMENT('0_FuUvWHj29Qp0QH1PDQhQ',#5,'Drill Hole',$,#72,#150);
#152= IFCPROPERTYSINGLEVALUE('FeatureSubTypes',$,IFCLABEL('TORNILLO'),$);
#153= IFCPROPERTYSINGLEVALUE('RectangleOpeningWidth',$,$,$);
#154= IFCPROPERTYSINGLEVALUE('RectangleOpeningHeight',$,$,$);
#155= IFCPROPERTYSET('2GUPfaUd19xBfq7Cs4qitK',#5,'AISC_EM11_Pset_Opening/Cope',$,(#152,#153,#154,#85));
#156= IFCCARTESIANPOINT((76490.7485081636,21797.7547428887,13900.));
#157= IFCDIRECTION((0.998949728531943,-0.0458196449785285,0.));
#158= IFCAXIS2PLACEMENT3D(#156,#157,#97);
#159= IFCLOCALPLACEMENT(#42,#158);
#160= IFCSHAPEREPRESENTATION(#12,'Body','MappedRepresentation',(#129,#132,#135,#138,#141,#144,#147,#108,#111,#114,#117,#120,#123,#126));
#161= IFCPRODUCTDEFINITIONSHAPE($,$,(#160));
#162= IFCOPENINGELEMENT('0MaE6JGQf2hBymDIShnYGG',#5,$,$,'Opening',#159,#161,$);
#163= IFCRELVOIDSELEMENT('03DNwnUmn12ehaj6FHir0_',#5,'Drill Hole',$,#72,#162);
#164= IFCCARTESIANPOINT((76492.5934154034,21838.0956111952,13900.));
#165= IFCDIRECTION((-0.0457129959809537,-0.998954614583889,0.));
#166= IFCAXIS2PLACEMENT3D(#164,#165,#65);
#167= IFCLOCALPLACEMENT(#42,#166);
#168= IFCCIRCLEPROFILEDEF(.AREA.,$,#51,11.5);
#169= IFCCARTESIANPOINT((0.,-4.79999982377405,0.));
#170= IFCAXIS2PLACEMENT3D(#169,#8,#7);
#171= IFCEXTRUDEDAREASOLID(#168,#170,#9,9.6);
#172= IFCSHAPEREPRESENTATION(#12,'Body','SweptSolid',(#171));
#173= IFCREPRESENTATIONMAP(#10,#172);
#174= IFCCARTESIANPOINT((85.,0.,40.0000000000473));
#175= IFCCARTESIANTRANSFORMATIONOPERATOR3D($,$,#174,$,$);
#176= IFCMAPPEDITEM(#173,#175);
#177= IFCCARTESIANPOINT((155.,0.,40.0000000000473));
#178= IFCCARTESIANTRANSFORMATIONOPERATOR3D($,$,#177,$,$);
#179= IFCMAPPEDITEM(#173,#178);
#180= IFCCARTESIANPOINT((225.,0.,40.0000000000473));
#181= IFCCARTESIANTRANSFORMATIONOPERATOR3D($,$,#180,$,$);
#182= IFCMAPPEDITEM(#173,#181);
#183= IFCCARTESIANPOINT((295.,0.,40.0000000000473));
#184= IFCCARTESIANTRANSFORMATIONOPERATOR3D($,$,#183,$,$);
#185= IFCMAPPEDITEM(#173,#184);
#186= IFCCARTESIANPOINT((365.,0.,40.0000000000473));
#187= IFCCARTESIANTRANSFORMATIONOPERATOR3D($,$,#186,$,$);
#188= IFCMAPPEDITEM(#173,#187);
#189= IFCSHAPEREPRESENTATION(#12,'Body','MappedRepresentation',(#176,#179,#182,#185,#188));
#190= IFCPRODUCTDEFINITIONSHAPE($,$,(#189));
#191= IFCOPENINGELEMENT('3wnjIPihvCQhgLPG1iel6l',#5,$,$,'Opening',#167,#190,$);
#192= IFCRELVOIDSELEMENT('3pW5ykKBnAM91t8XL5LzuV',#5,'Drill Hole',$,#72,#191);
#193= IFCPROPERTYSINGLEVALUE('PieceMark',$,IFCIDENTIFIER('BEAM'),$);
#194= IFCPROPERTYSINGLEVALUE('IndicationMark',$,IFCIDENTIFIER('b/135'),$);
#195= IFCPROPERTYSINGLEVALUE('PrelimMark',$,IFCIDENTIFIER(''),$);
#196= IFCPROPERTYSINGLEVALUE('MainPieceTag',$,IFCBOOLEAN(.T.),$);
#197= IFCPROPERTYSET('3LnFntCVX0BPsuAYKJiVbu',#5,'AISC_EM11_Pset_PieceIdentification','PieceIdentity',(#193,#194,#195,#196));
#198= IFCPROPERTYSINGLEVALUE('MaterialType',$,IFCIDENTIFIER('STEEL'),$);
#199= IFCPROPERTYSINGLEVALUE('MaterialGrade',$,IFCIDENTIFIER('S235JR'),$);
#200= IFCPROPERTYSET('3dtV6EJCT3ShbJYNJom9pj',#5,'AISC_EM11_Pset_Material',$,(#198,#199));
#201= IFCPROPERTYSINGLEVALUE('SkewedAngleY',$,IFCREAL(0.),$);
#202= IFCPROPERTYSINGLEVALUE('SkewedAngleX',$,IFCREAL(-2.62007),$);
#203= IFCPROPERTYSET('26QY3OaIb5VBRUnxNl6bMy',#5,'AISC_EM11_Pset_SkewedEnd',$,(#201,#202));
#204= IFCPROPERTYSINGLEVALUE('SkewedAngleX',$,IFCREAL(0.),$);
#205= IFCPROPERTYSET('1qyF$LDo5CJ8p8_XkSGbT7',#5,'AISC_EM11_Pset_SkewedEnd_2',$,(#201,#204));
#206= IFCMATERIAL('STEEL/S235JR');
#207= IFCRELAGGREGATES('1cXXaqPeT1KeCGV1tEygUa',#5,$,$,#37,(#39));
#208= IFCRELAGGREGATES('2upps6hwlJcwUYnJ9WEyms',#5,$,$,#39,(#41));
#209= IFCRELAGGREGATES('0QFIdGfgT63BAzgIKoo5oi',#5,$,$,#41,(#43));
#210= IFCRELCONTAINEDINSPATIALSTRUCTURE('32M6kxx6vAAg4CcEy72J41',#5,$,$,(#72),#43);
#211= IFCRELDEFINESBYPROPERTIES('2hHbQQVXTEcBuHvGqoHM4O',#5,$,$,(#93,#80),#86);
#212= IFCRELDEFINESBYPROPERTIES('37XgEY3416YBLeLIEDitYD',#5,$,$,(#191,#162,#150),#155);
#213= IFCRELDEFINESBYPROPERTIES('2xEP4IMWzCWwFq2FIx7Ljr',#5,$,$,(#72),#197);
#214= IFCRELDEFINESBYPROPERTIES('0yj2N6tBf2H8_TOhpCL90w',#5,$,$,(#72),#200);
#215= IFCRELDEFINESBYPROPERTIES('1TMtrQHgzEkwXI_SbJnvO3',#5,$,$,(#72),#203);
#216= IFCRELDEFINESBYPROPERTIES('0Xx9z5YdTBuON29AlZ9JIK',#5,$,$,(#72),#205);
#217= IFCRELASSOCIATESMATERIAL('1emcoE60z1fgcVh3MHMdxS',#5,$,$,(#72),#206);
ENDSEC;

END-ISO-10303-21;
