ISO-10303-21;
HEADER;
FILE_DESCRIPTION(('ViewDefinition[AISC_Steel_Detailing]', 'Option [BaseQuantities:Off]', 'Option [GridExport:On]', 'Option [Assemblies:Off]', 'Option [Bolts:On]', 'Option [Rebars:On]', 'Option [PourObjects:Off]', 'Option [Welds:On]', 'Option [SurfaceTreatments:On]', 'Option [LocationBy:0]', 'Option [ViewColors:Off]', 'Option [SectionedSpine:Off]', 'Option [PropertySets:On]', 'Option [Export all:Off]'),'2;1');
FILE_NAME('b_136_Qty_1.ifc','2026-05-16T11:53:19',('GIOVANNIPC\\gcorrea'),('Structural Designer'),'IFC Database version: Work','Tekla Structures 2020 Service Pack 5, IFC Export Version: 4.0.0.0 Dec  7 2020','');
FILE_SCHEMA(('IFC2X3'));
ENDSEC;

DATA;
#1= IFCPERSON('GIOVANNIPC\\gcorrea','Undefined',$,$,$,$,$,$);
#2= IFCORGANIZATION($,'Trimble Solutions Corporation',$,$,$);
#3= IFCPERSONANDORGANIZATION(#1,#2,$);
#4= IFCAPPLICATION(#2,'2020 Service Pack 5','Tekla Structures','Multi material modeling');
#5= IFCOWNERHISTORY(#3,#4,$,.NOCHANGE.,$,$,$,1778950399);
#6= IFCCARTESIANPOINT((0.,0.,0.));
#7= IFCDIRECTION((1.,0.,0.));
#8= IFCDIRECTION((0.,1.,0.));
#9= IFCDIRECTION((0.,0.,1.));
#10= IFCAXIS2PLACEMENT3D(#6,#9,#7);
#11= IFCGEOMETRICREPRESENTATIONCONTEXT($,'Model',3,1.E-05,#10,$);
#12= IFCGEOMETRICREPRESENTATIONSUBCONTEXT('Body','Model',*,*,*,*,#11,$,.MODEL_VIEW.,$);
#13= IFCGEOMETRICREPRESENTATIONSUBCONTEXT('Axis','Model',*,*,*,*,#11,$,.GRAPH_VIEW.,$);
#14= IFCGEOMETRICREPRESENTATIONSUBCONTEXT('FootPrint','Model',*,*,*,*,#11,$,.MODEL_VIEW.,$);
#15= IFCSIUNIT(*,.LENGTHUNIT.,.MILLI.,.METRE.);
#16= IFCMEASUREWITHUNIT(IFCRATIOMEASURE(304.8),#15);
#17= IFCDIMENSIONALEXPONENTS(1,0,0,0,0,0,0);
#18= IFCCONVERSIONBASEDUNIT(#17,.LENGTHUNIT.,'FOOT',#16);
#19= IFCSIUNIT(*,.AREAUNIT.,$,.SQUARE_METRE.);
#20= IFCMEASUREWITHUNIT(IFCRATIOMEASURE(0.09290304),#19);
#21= IFCDIMENSIONALEXPONENTS(2,0,0,0,0,0,0);
#22= IFCCONVERSIONBASEDUNIT(#21,.AREAUNIT.,'SQUARE FOOT',#20);
#23= IFCSIUNIT(*,.VOLUMEUNIT.,$,.CUBIC_METRE.);
#24= IFCMEASUREWITHUNIT(IFCRATIOMEASURE(0.028316846592),#23);
#25= IFCDIMENSIONALEXPONENTS(3,0,0,0,0,0,0);
#26= IFCCONVERSIONBASEDUNIT(#25,.VOLUMEUNIT.,'CUBIC FOOT',#24);
#27= IFCSIUNIT(*,.MASSUNIT.,.KILO.,.GRAM.);
#28= IFCSIUNIT(*,.TIMEUNIT.,$,.SECOND.);
#29= IFCSIUNIT(*,.PLANEANGLEUNIT.,$,.RADIAN.);
#30= IFCMEASUREWITHUNIT(IFCRATIOMEASURE(0.0174532925199433),#29);
#31= IFCDIMENSIONALEXPONENTS(0,0,0,0,0,0,0);
#32= IFCCONVERSIONBASEDUNIT(#31,.PLANEANGLEUNIT.,'DEGREE',#30);
#33= IFCSIUNIT(*,.SOLIDANGLEUNIT.,$,.STERADIAN.);
#34= IFCSIUNIT(*,.THERMODYNAMICTEMPERATUREUNIT.,$,.DEGREE_CELSIUS.);
#35= IFCSIUNIT(*,.LUMINOUSINTENSITYUNIT.,$,.LUMEN.);
#36= IFCUNITASSIGNMENT((#15,#19,#23,#27,#28,#29,#33,#34,#35));
#37= IFCPROJECT('2G7ZFDNE16yBDU14FA92Me',#5,'Proyecto',$,$,$,$,(#11),#36);
#38= IFCLOCALPLACEMENT($,#10);
#39= IFCSITE('2xvEzEinjBTea80yOTcujY',#5,'Obra',$,$,#38,$,$,.ELEMENT.,$,$,$,$,$);
#40= IFCLOCALPLACEMENT(#38,#10);
#41= IFCBUILDING('1gzJTaTP5379hGl9xMvp_5',#5,'Undefined',$,$,#40,$,$,.ELEMENT.,$,$,$);
#42= IFCLOCALPLACEMENT(#40,#10);
#43= IFCBUILDINGSTOREY('29hdEUCErFze9E_VIAceOd',#5,'Undefined',$,$,#42,$,$,.ELEMENT.,0.);
#44= IFCOWNERHISTORY(#3,#4,$,.NOCHANGE.,$,$,$,1773172800);
#45= IFCCARTESIANPOINT((76500.0035981064,22172.4005404012,13680.));
#46= IFCDIRECTION((-1.13300000004394E-06,0.999999999999358,0.));
#47= IFCAXIS2PLACEMENT3D(#45,#9,#46);
#48= IFCLOCALPLACEMENT(#42,#47);
#49= IFCDIRECTION((1.,0.));
#50= IFCCARTESIANPOINT((0.,0.));
#51= IFCAXIS2PLACEMENT2D(#50,#49);
#52= IFCISHAPEPROFILEDEF(.AREA.,'HEA450',#51,300.,440.,11.5,21.,27.);
#53= IFCDIRECTION((-2.11758236813575E-22,-1.,0.));
#54= IFCDIRECTION((-1.,2.11758236813575E-22,0.));
#55= IFCCARTESIANPOINT((2152.91408449719,1.45519147724696E-11,0.));
#56= IFCAXIS2PLACEMENT3D(#55,#54,#53);
#57= IFCEXTRUDEDAREASOLID(#52,#56,#9,2162.91);
#58= IFCDIRECTION((-0.999999999999358,1.13300000157323E-06,0.));
#59= IFCCARTESIANPOINT((2152.91260819539,-999.999999999345,0.));
#60= IFCDIRECTION((0.,0.,-1.));
#61= IFCAXIS2PLACEMENT3D(#59,#58,#60);
#62= IFCPLANE(#61);
#63= IFCHALFSPACESOLID(#62,.T.);
#64= IFCBOOLEANCLIPPINGRESULT(.DIFFERENCE.,#57,#63);
#65= IFCDIRECTION((0.999999999999358,-1.13300000157323E-06,0.));
#66= IFCCARTESIANPOINT((-10.0002012148325,-1.13299756776541E-05,-320.));
#67= IFCDIRECTION((-1.13300000157323E-06,-0.999999999999358,0.));
#68= IFCAXIS2PLACEMENT3D(#66,#65,#67);
#69= IFCPLANE(#68);
#70= IFCHALFSPACESOLID(#69,.T.);
#71= IFCBOOLEANCLIPPINGRESULT(.DIFFERENCE.,#64,#70);
#72= IFCSHAPEREPRESENTATION(#12,'Body','Clipping',(#71));
#73= IFCPRODUCTDEFINITIONSHAPE($,$,(#72));
#74= IFCBEAM('3TsWLGj_9AdvzouA94ywV5',#44,'BEAM','HEA450','HEA450',#48,#73,'IDddda0550-b7e2-4a9f-9f72-e0a244f3a7c5');
#75= IFCCARTESIANPOINT((76500.,22202.4003391864,13450.));
#76= IFCAXIS2PLACEMENT3D(#75,#7,#8);
#77= IFCLOCALPLACEMENT(#42,#76);
#78= IFCCIRCLEPROFILEDEF(.AREA.,$,#51,11.5);
#79= IFCCARTESIANPOINT((0.,9.89999999999984,0.));
#80= IFCAXIS2PLACEMENT3D(#79,#8,#7);
#81= IFCEXTRUDEDAREASOLID(#78,#80,#9,21.2);
#82= IFCSHAPEREPRESENTATION(#12,'Body','SweptSolid',(#81));
#83= IFCREPRESENTATIONMAP(#10,#82);
#84= IFCCARTESIANPOINT((0.,0.,75.));
#85= IFCCARTESIANTRANSFORMATIONOPERATOR3D($,$,#84,$,$);
#86= IFCMAPPEDITEM(#83,#85);
#87= IFCCARTESIANPOINT((75.0000000000073,0.,75.));
#88= IFCCARTESIANTRANSFORMATIONOPERATOR3D($,$,#87,$,$);
#89= IFCMAPPEDITEM(#83,#88);
#90= IFCCARTESIANPOINT((150.000000000011,0.,75.));
#91= IFCCARTESIANTRANSFORMATIONOPERATOR3D($,$,#90,$,$);
#92= IFCMAPPEDITEM(#83,#91);
#93= IFCCARTESIANPOINT((225.000000000018,0.,75.));
#94= IFCCARTESIANTRANSFORMATIONOPERATOR3D($,$,#93,$,$);
#95= IFCMAPPEDITEM(#83,#94);
#96= IFCCARTESIANPOINT((300.000000000025,0.,75.));
#97= IFCCARTESIANTRANSFORMATIONOPERATOR3D($,$,#96,$,$);
#98= IFCMAPPEDITEM(#83,#97);
#99= IFCCARTESIANPOINT((375.000000000029,0.,75.));
#100= IFCCARTESIANTRANSFORMATIONOPERATOR3D($,$,#99,$,$);
#101= IFCMAPPEDITEM(#83,#100);
#102= IFCCARTESIANPOINT((450.000000000036,0.,75.));
#103= IFCCARTESIANTRANSFORMATIONOPERATOR3D($,$,#102,$,$);
#104= IFCMAPPEDITEM(#83,#103);
#105= IFCCARTESIANPOINT((525.00000000004,0.,75.));
#106= IFCCARTESIANTRANSFORMATIONOPERATOR3D($,$,#105,$,$);
#107= IFCMAPPEDITEM(#83,#106);
#108= IFCCARTESIANPOINT((600.000000000047,0.,75.));
#109= IFCCARTESIANTRANSFORMATIONOPERATOR3D($,$,#108,$,$);
#110= IFCMAPPEDITEM(#83,#109);
#111= IFCCARTESIANPOINT((675.000000000055,0.,75.));
#112= IFCCARTESIANTRANSFORMATIONOPERATOR3D($,$,#111,$,$);
#113= IFCMAPPEDITEM(#83,#112);
#114= IFCCARTESIANPOINT((0.,0.,-75.0000000000146));
#115= IFCCARTESIANTRANSFORMATIONOPERATOR3D($,$,#114,$,$);
#116= IFCMAPPEDITEM(#83,#115);
#117= IFCCARTESIANPOINT((75.0000000000073,0.,-75.0000000000146));
#118= IFCCARTESIANTRANSFORMATIONOPERATOR3D($,$,#117,$,$);
#119= IFCMAPPEDITEM(#83,#118);
#120= IFCCARTESIANPOINT((150.000000000011,0.,-75.0000000000146));
#121= IFCCARTESIANTRANSFORMATIONOPERATOR3D($,$,#120,$,$);
#122= IFCMAPPEDITEM(#83,#121);
#123= IFCCARTESIANPOINT((225.000000000018,0.,-75.0000000000146));
#124= IFCCARTESIANTRANSFORMATIONOPERATOR3D($,$,#123,$,$);
#125= IFCMAPPEDITEM(#83,#124);
#126= IFCCARTESIANPOINT((300.000000000025,0.,-75.0000000000146));
#127= IFCCARTESIANTRANSFORMATIONOPERATOR3D($,$,#126,$,$);
#128= IFCMAPPEDITEM(#83,#127);
#129= IFCCARTESIANPOINT((375.000000000029,0.,-75.0000000000146));
#130= IFCCARTESIANTRANSFORMATIONOPERATOR3D($,$,#129,$,$);
#131= IFCMAPPEDITEM(#83,#130);
#132= IFCCARTESIANPOINT((450.000000000036,0.,-75.0000000000146));
#133= IFCCARTESIANTRANSFORMATIONOPERATOR3D($,$,#132,$,$);
#134= IFCMAPPEDITEM(#83,#133);
#135= IFCCARTESIANPOINT((525.00000000004,0.,-75.0000000000146));
#136= IFCCARTESIANTRANSFORMATIONOPERATOR3D($,$,#135,$,$);
#137= IFCMAPPEDITEM(#83,#136);
#138= IFCCARTESIANPOINT((600.000000000047,0.,-75.0000000000146));
#139= IFCCARTESIANTRANSFORMATIONOPERATOR3D($,$,#138,$,$);
#140= IFCMAPPEDITEM(#83,#139);
#141= IFCCARTESIANPOINT((675.000000000055,0.,-75.0000000000146));
#142= IFCCARTESIANTRANSFORMATIONOPERATOR3D($,$,#141,$,$);
#143= IFCMAPPEDITEM(#83,#142);
#144= IFCSHAPEREPRESENTATION(#12,'Body','MappedRepresentation',(#86,#89,#92,#95,#98,#101,#104,#107,#110,#113,#116,#119,#122,#125,#128,#131,#134,#137,#140,#143));
#145= IFCPRODUCTDEFINITIONSHAPE($,$,(#144));
#146= IFCOPENINGELEMENT('2IPsWV7zH0lhCEoIKJ7lV9',#5,$,$,'Opening',#77,#145,$);
#147= IFCRELVOIDSELEMENT('1DGWc_v2vC$ReqX4m_2vtU',#5,'Drill Hole',$,#74,#146);
#148= IFCPROPERTYSINGLEVALUE('FeatureSubTypes',$,IFCLABEL('TORNILLO'),$);
#149= IFCPROPERTYSINGLEVALUE('RectangleOpeningWidth',$,$,$);
#150= IFCPROPERTYSINGLEVALUE('RectangleOpeningHeight',$,$,$);
#151= IFCPROPERTYSINGLEVALUE('OpeningDiameter',$,$,$);
#152= IFCPROPERTYSET('0q2w9rWrP6AwKjmVWXCLD0',#5,'AISC_EM11_Pset_Opening/Cope',$,(#148,#149,#150,#151));
#153= IFCCARTESIANPOINT((76500.0035981066,22162.4003391864,13900.));
#154= IFCAXIS2PLACEMENT3D(#153,#8,#60);
#155= IFCLOCALPLACEMENT(#42,#154);
#156= IFCCARTESIANPOINT((0.,-5.8499660100878,0.));
#157= IFCAXIS2PLACEMENT3D(#156,#8,#7);
#158= IFCEXTRUDEDAREASOLID(#78,#157,#9,11.7);
#159= IFCSHAPEREPRESENTATION(#12,'Body','SweptSolid',(#158));
#160= IFCREPRESENTATIONMAP(#10,#159);
#161= IFCCARTESIANPOINT((80.,0.,40.));
#162= IFCCARTESIANTRANSFORMATIONOPERATOR3D($,$,#161,$,$);
#163= IFCMAPPEDITEM(#160,#162);
#164= IFCCARTESIANPOINT((150.,0.,40.));
#165= IFCCARTESIANTRANSFORMATIONOPERATOR3D($,$,#164,$,$);
#166= IFCMAPPEDITEM(#160,#165);
#167= IFCCARTESIANPOINT((220.,0.,40.));
#168= IFCCARTESIANTRANSFORMATIONOPERATOR3D($,$,#167,$,$);
#169= IFCMAPPEDITEM(#160,#168);
#170= IFCCARTESIANPOINT((290.,0.,40.));
#171= IFCCARTESIANTRANSFORMATIONOPERATOR3D($,$,#170,$,$);
#172= IFCMAPPEDITEM(#160,#171);
#173= IFCCARTESIANPOINT((360.,0.,40.));
#174= IFCCARTESIANTRANSFORMATIONOPERATOR3D($,$,#173,$,$);
#175= IFCMAPPEDITEM(#160,#174);
#176= IFCSHAPEREPRESENTATION(#12,'Body','MappedRepresentation',(#163,#166,#169,#172,#175));
#177= IFCPRODUCTDEFINITIONSHAPE($,$,(#176));
#178= IFCOPENINGELEMENT('2IaqpPCZD4JPterujbMYdC',#5,$,$,'Opening',#155,#177,$);
#179= IFCRELVOIDSELEMENT('0Nwoqu2hP2VPBqwkjipf_7',#5,'Drill Hole',$,#74,#178);
#180= IFCCARTESIANPOINT((76500.,22202.4003391864,13900.));
#181= IFCAXIS2PLACEMENT3D(#180,#54,#8);
#182= IFCLOCALPLACEMENT(#42,#181);
#183= IFCCARTESIANPOINT((0.,-0.100000000000341,0.));
#184= IFCAXIS2PLACEMENT3D(#183,#8,#7);
#185= IFCEXTRUDEDAREASOLID(#78,#184,#9,21.2);
#186= IFCSHAPEREPRESENTATION(#12,'Body','SweptSolid',(#185));
#187= IFCREPRESENTATIONMAP(#10,#186);
#188= IFCMAPPEDITEM(#187,#115);
#189= IFCMAPPEDITEM(#187,#118);
#190= IFCMAPPEDITEM(#187,#121);
#191= IFCMAPPEDITEM(#187,#124);
#192= IFCMAPPEDITEM(#187,#127);
#193= IFCMAPPEDITEM(#187,#130);
#194= IFCMAPPEDITEM(#187,#133);
#195= IFCMAPPEDITEM(#187,#136);
#196= IFCMAPPEDITEM(#187,#139);
#197= IFCMAPPEDITEM(#187,#142);
#198= IFCMAPPEDITEM(#187,#85);
#199= IFCMAPPEDITEM(#187,#88);
#200= IFCMAPPEDITEM(#187,#91);
#201= IFCMAPPEDITEM(#187,#94);
#202= IFCMAPPEDITEM(#187,#97);
#203= IFCMAPPEDITEM(#187,#100);
#204= IFCMAPPEDITEM(#187,#103);
#205= IFCMAPPEDITEM(#187,#106);
#206= IFCMAPPEDITEM(#187,#109);
#207= IFCMAPPEDITEM(#187,#112);
#208= IFCSHAPEREPRESENTATION(#12,'Body','MappedRepresentation',(#188,#189,#190,#191,#192,#193,#194,#195,#196,#197,#198,#199,#200,#201,#202,#203,#204,#205,#206,#207));
#209= IFCPRODUCTDEFINITIONSHAPE($,$,(#208));
#210= IFCOPENINGELEMENT('04$A_OFTz7ihbKNLV0HlVz',#5,$,$,'Opening',#182,#209,$);
#211= IFCRELVOIDSELEMENT('2utFCgDQn9KOqo76qzvtXC',#5,'Drill Hole',$,#74,#210);
#212= IFCCARTESIANPOINT((76499.9999985997,24071.884048277,13919.));
#213= IFCAXIS2PLACEMENT3D(#212,#54,#8);
#214= IFCLOCALPLACEMENT(#42,#213);
#215= IFCCARTESIANPOINT((0.,18.8999999999997,0.));
#216= IFCAXIS2PLACEMENT3D(#215,#8,#7);
#217= IFCEXTRUDEDAREASOLID(#78,#216,#9,21.2);
#218= IFCSHAPEREPRESENTATION(#12,'Body','SweptSolid',(#217));
#219= IFCREPRESENTATIONMAP(#10,#218);
#220= IFCMAPPEDITEM(#219,#115);
#221= IFCMAPPEDITEM(#219,#85);
#222= IFCSHAPEREPRESENTATION(#12,'Body','MappedRepresentation',(#220,#221));
#223= IFCPRODUCTDEFINITIONSHAPE($,$,(#222));
#224= IFCOPENINGELEMENT('1ZIAerXjP6qhsSEau9eTRO',#5,$,$,'Opening',#214,#223,$);
#225= IFCRELVOIDSELEMENT('1jF6KPyGb3pxXUSUKsMg2Y',#5,'Drill Hole',$,#74,#224);
#226= IFCPROPERTYSINGLEVALUE('PieceMark',$,IFCIDENTIFIER('BEAM'),$);
#227= IFCPROPERTYSINGLEVALUE('IndicationMark',$,IFCIDENTIFIER('b/136'),$);
#228= IFCPROPERTYSINGLEVALUE('PrelimMark',$,IFCIDENTIFIER(''),$);
#229= IFCPROPERTYSINGLEVALUE('MainPieceTag',$,IFCBOOLEAN(.T.),$);
#230= IFCPROPERTYSET('1HmISuFprEcwy6v1qIs$H9',#5,'AISC_EM11_Pset_PieceIdentification','PieceIdentity',(#226,#227,#228,#229));
#231= IFCPROPERTYSINGLEVALUE('MaterialType',$,IFCIDENTIFIER('STEEL'),$);
#232= IFCPROPERTYSINGLEVALUE('MaterialGrade',$,IFCIDENTIFIER('S235JR'),$);
#233= IFCPROPERTYSET('09H_EFCn99tenZG79AHcsc',#5,'AISC_EM11_Pset_Material',$,(#231,#232));
#234= IFCPROPERTYSINGLEVALUE('SkewedAngleY',$,IFCREAL(0.),$);
#235= IFCPROPERTYSINGLEVALUE('SkewedAngleX',$,IFCREAL(6.E-05),$);
#236= IFCPROPERTYSET('0teQE70tL1hxdZzfBdxnw5',#5,'AISC_EM11_Pset_SkewedEnd',$,(#234,#235));
#237= IFCPROPERTYSET('3ASSJEkpj2xxtN7hWiKLrt',#5,'AISC_EM11_Pset_SkewedEnd_2',$,(#234,#235));
#238= IFCMATERIAL('STEEL/S235JR');
#239= IFCRELAGGREGATES('1oy2psBsLDgh2cHzj9lKTY',#5,$,$,#37,(#39));
#240= IFCRELAGGREGATES('24EK58T8dVyzKuZF$R1clq',#5,$,$,#39,(#41));
#241= IFCRELAGGREGATES('2Cjl2$zc9Fsx8mzQcNs_TS',#5,$,$,#41,(#43));
#242= IFCRELCONTAINEDINSPATIALSTRUCTURE('1GCb6IVnfFLghNo$ljYO06',#5,$,$,(#74),#43);
#243= IFCRELDEFINESBYPROPERTIES('3sADtllSn3uffbSz2X3_xc',#5,$,$,(#224,#210,#178,#146),#152);
#244= IFCRELDEFINESBYPROPERTIES('1Ka1tKTPfBkww0US7V$LCe',#5,$,$,(#74),#230);
#245= IFCRELDEFINESBYPROPERTIES('33b3GniSLE_8$0y4Fq2RZL',#5,$,$,(#74),#233);
#246= IFCRELDEFINESBYPROPERTIES('0jkNIQvCj0F8g0y$XFPOa0',#5,$,$,(#74),#236);
#247= IFCRELDEFINESBYPROPERTIES('1DAm_jVc52IfoLsnD7en7b',#5,$,$,(#74),#237);
#248= IFCRELASSOCIATESMATERIAL('28CCdttWv0evfMnyE27Kzo',#5,$,$,(#74),#238);
ENDSEC;

END-ISO-10303-21;
