ISO-10303-21;
HEADER;
FILE_DESCRIPTION(('ViewDefinition[AISC_Steel_Detailing]', 'Option [BaseQuantities:Off]', 'Option [GridExport:On]', 'Option [Assemblies:Off]', 'Option [Bolts:On]', 'Option [Rebars:On]', 'Option [PourObjects:Off]', 'Option [Welds:On]', 'Option [SurfaceTreatments:On]', 'Option [LocationBy:0]', 'Option [ViewColors:Off]', 'Option [SectionedSpine:Off]', 'Option [PropertySets:On]', 'Option [Export all:Off]'),'2;1');
FILE_NAME('b_134_Qty_2.ifc','2026-05-16T11:52:52',('GIOVANNIPC\\gcorrea'),('Structural Designer'),'IFC Database version: Work','Tekla Structures 2020 Service Pack 5, IFC Export Version: 4.0.0.0 Dec  7 2020','');
FILE_SCHEMA(('IFC2X3'));
ENDSEC;

DATA;
#1= IFCPERSON('GIOVANNIPC\\gcorrea','Undefined',$,$,$,$,$,$);
#2= IFCORGANIZATION($,'Trimble Solutions Corporation',$,$,$);
#3= IFCPERSONANDORGANIZATION(#1,#2,$);
#4= IFCAPPLICATION(#2,'2020 Service Pack 5','Tekla Structures','Multi material modeling');
#5= IFCOWNERHISTORY(#3,#4,$,.NOCHANGE.,$,$,$,1778950372);
#6= IFCCARTESIANPOINT((0.,0.,0.));
#7= IFCDIRECTION((1.,0.,0.));
#8= IFCDIRECTION((0.,1.,0.));
#9= IFCDIRECTION((0.,0.,1.));
#10= IFCAXIS2PLACEMENT3D(#6,#9,#7);
#11= IFCGEOMETRICREPRESENTATIONCONTEXT($,'Model',3,1.E-05,#10,$);
#12= IFCGEOMETRICREPRESENTATIONSUBCONTEXT('Body','Model',*,*,*,*,#11,$,.MODEL_VIEW.,$);
#13= IFCGEOMETRICREPRESENTATIONSUBCONTEXT('Axis','Model',*,*,*,*,#11,$,.GRAPH_VIEW.,$);
#14= IFCGEOMETRICREPRESENTATIONSUBCONTEXT('FootPrint','Model',*,*,*,*,#11,$,.MODEL_VIEW.,$);
#15= IFCSIUNIT(*,.LENGTHUNIT.,.MILLI.,.METRE.);
#16= IFCMEASUREWITHUNIT(IFCRATIOMEASURE(304.8),#15);
#17= IFCDIMENSIONALEXPONENTS(1,0,0,0,0,0,0);
#18= IFCCONVERSIONBASEDUNIT(#17,.LENGTHUNIT.,'FOOT',#16);
#19= IFCSIUNIT(*,.AREAUNIT.,$,.SQUARE_METRE.);
#20= IFCMEASUREWITHUNIT(IFCRATIOMEASURE(0.09290304),#19);
#21= IFCDIMENSIONALEXPONENTS(2,0,0,0,0,0,0);
#22= IFCCONVERSIONBASEDUNIT(#21,.AREAUNIT.,'SQUARE FOOT',#20);
#23= IFCSIUNIT(*,.VOLUMEUNIT.,$,.CUBIC_METRE.);
#24= IFCMEASUREWITHUNIT(IFCRATIOMEASURE(0.028316846592),#23);
#25= IFCDIMENSIONALEXPONENTS(3,0,0,0,0,0,0);
#26= IFCCONVERSIONBASEDUNIT(#25,.VOLUMEUNIT.,'CUBIC FOOT',#24);
#27= IFCSIUNIT(*,.MASSUNIT.,.KILO.,.GRAM.);
#28= IFCSIUNIT(*,.TIMEUNIT.,$,.SECOND.);
#29= IFCSIUNIT(*,.PLANEANGLEUNIT.,$,.RADIAN.);
#30= IFCMEASUREWITHUNIT(IFCRATIOMEASURE(0.0174532925199433),#29);
#31= IFCDIMENSIONALEXPONENTS(0,0,0,0,0,0,0);
#32= IFCCONVERSIONBASEDUNIT(#31,.PLANEANGLEUNIT.,'DEGREE',#30);
#33= IFCSIUNIT(*,.SOLIDANGLEUNIT.,$,.STERADIAN.);
#34= IFCSIUNIT(*,.THERMODYNAMICTEMPERATUREUNIT.,$,.DEGREE_CELSIUS.);
#35= IFCSIUNIT(*,.LUMINOUSINTENSITYUNIT.,$,.LUMEN.);
#36= IFCUNITASSIGNMENT((#15,#19,#23,#27,#28,#29,#33,#34,#35));
#37= IFCPROJECT('2G7ZFDNE16yBDU14FA92Me',#5,'Proyecto',$,$,$,$,(#11),#36);
#38= IFCLOCALPLACEMENT($,#10);
#39= IFCSITE('2xvEzEinjBTea80yOTcujY',#5,'Obra',$,$,#38,$,$,.ELEMENT.,$,$,$,$,$);
#40= IFCLOCALPLACEMENT(#38,#10);
#41= IFCBUILDING('0e2dkwll1BxO27fxGTwV6V',#5,'Undefined',$,$,#40,$,$,.ELEMENT.,$,$,$);
#42= IFCLOCALPLACEMENT(#40,#10);
#43= IFCBUILDINGSTOREY('29hdEUCErFze9E_VIAceOd',#5,'Undefined',$,$,#42,$,$,.ELEMENT.,0.);
#44= IFCOWNERHISTORY(#3,#4,$,.NOCHANGE.,$,$,$,1775664000);
#45= IFCCARTESIANPOINT((94383.540887793,1609.03919571836,19130.));
#46= IFCAXIS2PLACEMENT3D(#45,#9,#8);
#47= IFCLOCALPLACEMENT(#42,#46);
#48= IFCDIRECTION((1.,0.));
#49= IFCCARTESIANPOINT((0.,0.));
#50= IFCAXIS2PLACEMENT2D(#49,#48);
#51= IFCISHAPEPROFILEDEF(.AREA.,'HEA450',#50,300.,440.,11.5,21.,27.);
#52= IFCDIRECTION((-8.27180612553028E-25,-1.,0.));
#53= IFCDIRECTION((-1.,8.27180612553028E-25,0.));
#54= IFCCARTESIANPOINT((625.250601521932,-5.17195175566061E-22,0.));
#55= IFCAXIS2PLACEMENT3D(#54,#53,#52);
#56= IFCEXTRUDEDAREASOLID(#51,#55,#9,625.24);
#57= IFCCARTESIANPOINT((625.249993449957,1000.,0.));
#58= IFCAXIS2PLACEMENT3D(#57,#53,#9);
#59= IFCPLANE(#58);
#60= IFCHALFSPACESOLID(#59,.T.);
#61= IFCBOOLEANCLIPPINGRESULT(.DIFFERENCE.,#56,#60);
#62= IFCDIRECTION((-0.999999994612469,0.000103802999961747,0.));
#63= IFCCARTESIANPOINT((0.0155688975410158,0.,1000.));
#64= IFCDIRECTION((-0.000103802999961747,-0.999999994612469,0.));
#65= IFCAXIS2PLACEMENT3D(#63,#62,#64);
#66= IFCPLANE(#65);
#67= IFCHALFSPACESOLID(#66,.F.);
#68= IFCBOOLEANCLIPPINGRESULT(.DIFFERENCE.,#61,#67);
#69= IFCSHAPEREPRESENTATION(#12,'Body','Clipping',(#68));
#70= IFCPRODUCTDEFINITIONSHAPE($,$,(#69));
#71= IFCBEAM('3Bi03j3KL8JxPsJ0KJ$sOW',#44,'BEAM','HEA450','HEA450',#47,#70,'IDcbb000ed-0d45-484f-b676-4c0513ff6620');
#72= IFCLOCALPLACEMENT(#42,#46);
#73= IFCDIRECTION((-0.707106781188389,0.707106781184706));
#74= IFCCARTESIANPOINT((5.93969678879511,5.93969678877512));
#75= IFCAXIS2PLACEMENT2D(#74,#73);
#76= IFCCIRCLE(#75,8.4);
#77= IFCTRIMMEDCURVE(#76,(IFCPARAMETERVALUE(0.)),(IFCPARAMETERVALUE(3.14159265358857)),.T.,.PARAMETER.);
#78= IFCCOMPOSITECURVESEGMENT(.CONTINUOUS.,.T.,#77);
#79= IFCCARTESIANPOINT((11.8793935775975,-1.08926201392023E-11));
#80= IFCCARTESIANPOINT((-1.45519152283669E-11,11.8793935775539));
#81= IFCPOLYLINE((#79,#80));
#82= IFCCOMPOSITECURVESEGMENT(.CONTINUOUS.,.T.,#81);
#83= IFCCOMPOSITECURVE((#78,#82),.T.);
#84= IFCARBITRARYCLOSEDPROFILEDEF(.AREA.,'PL66.7*14',#83);
#85= IFCDIRECTION((-0.707106777281929,7.34001716455746E-05,-0.707106781281568));
#86= IFCCARTESIANPOINT((147.269031509297,33.3497148269724,-190.600000000001));
#87= IFCAXIS2PLACEMENT3D(#86,#64,#85);
#88= IFCEXTRUDEDAREASOLID(#84,#87,#9,66.7);
#89= IFCSHAPEREPRESENTATION(#12,'Body','SweptSolid',(#88));
#90= IFCPRODUCTDEFINITIONSHAPE($,$,(#89));
#91= IFCOPENINGELEMENT('0F$bQ3pIf1tgVzIgFLKhI_',#5,$,$,'Recess',#72,#90,$);
#92= IFCRELVOIDSELEMENT('2GBqLFV$T8awNKNFxsrF3B',#5,$,$,#71,#91);
#93= IFCPROPERTYSINGLEVALUE('FeatureSubTypes',$,$,$);
#94= IFCPROPERTYSINGLEVALUE('RectangleOpeningWidth',$,IFCPOSITIVELENGTHMEASURE(66.7),$);
#95= IFCPROPERTYSINGLEVALUE('RectangleOpeningHeight',$,IFCPOSITIVELENGTHMEASURE(66.7),$);
#96= IFCPROPERTYSINGLEVALUE('OpeningDiameter',$,$,$);
#97= IFCPROPERTYSET('0N_HBRQ9rC6f6YDBpDcpi5',#5,'AISC_EM11_Pset_Opening/Cope',$,(#93,#94,#95,#96));
#98= IFCLOCALPLACEMENT(#42,#46);
#99= IFCCARTESIANPOINT((15.8391914368021,1.2732925824821E-11));
#100= IFCCARTESIANPOINT((7.91959571840198,7.91959571836742));
#101= IFCPOLYLINE((#49,#99,#100,#49));
#102= IFCARBITRARYCLOSEDPROFILEDEF(.AREA.,'PL66.7*11',#101);
#103= IFCDIRECTION((-0.707106777281946,7.34001713395128E-05,0.707106781281551));
#104= IFCCARTESIANPOINT((10.7190307195502,33.3492005371134,-199.49999999999));
#105= IFCAXIS2PLACEMENT3D(#104,#64,#103);
#106= IFCEXTRUDEDAREASOLID(#102,#105,#9,66.7);
#107= IFCSHAPEREPRESENTATION(#12,'Body','SweptSolid',(#106));
#108= IFCPRODUCTDEFINITIONSHAPE($,$,(#107));
#109= IFCOPENINGELEMENT('1YyyteXRD8xx7j2fuK7wM$',#5,$,$,'Recess',#98,#108,$);
#110= IFCRELVOIDSELEMENT('2UapuFR_rBkOJT_PxmNbYQ',#5,$,$,#71,#109);
#111= IFCLOCALPLACEMENT(#42,#46);
#112= IFCDIRECTION((-0.707106781187143,-0.707106781185952));
#113= IFCAXIS2PLACEMENT2D(#74,#112);
#114= IFCCIRCLE(#113,8.4);
#115= IFCTRIMMEDCURVE(#114,(IFCPARAMETERVALUE(0.)),(IFCPARAMETERVALUE(3.14159265358765)),.T.,.PARAMETER.);
#116= IFCCOMPOSITECURVESEGMENT(.CONTINUOUS.,.T.,#115);
#117= IFCCARTESIANPOINT((11.8793935775993,11.8793935775539));
#118= IFCPOLYLINE((#117,#49));
#119= IFCCOMPOSITECURVESEGMENT(.CONTINUOUS.,.T.,#118);
#120= IFCCOMPOSITECURVE((#116,#119),.T.);
#121= IFCARBITRARYCLOSEDPROFILEDEF(.AREA.,'PL66.7*14',#120);
#122= IFCDIRECTION((0.707106777281843,-7.34001716455835E-05,-0.707106781281654));
#123= IFCCARTESIANPOINT((138.869031554548,33.3505867722031,199.000000000003));
#124= IFCAXIS2PLACEMENT3D(#123,#64,#122);
#125= IFCEXTRUDEDAREASOLID(#121,#124,#9,66.7);
#126= IFCSHAPEREPRESENTATION(#12,'Body','SweptSolid',(#125));
#127= IFCPRODUCTDEFINITIONSHAPE($,$,(#126));
#128= IFCOPENINGELEMENT('15ExYGqQz7xBlsGT4GOX7r',#5,$,$,'Recess',#111,#127,$);
#129= IFCRELVOIDSELEMENT('3vzqmiI$f2KezgyASXerFL',#5,$,$,#71,#128);
#130= IFCLOCALPLACEMENT(#42,#46);
#131= IFCDIRECTION((0.707106777281946,-7.34001713395128E-05,0.707106781281551));
#132= IFCCARTESIANPOINT((-0.480969220115152,33.350363130832,188.299999999993));
#133= IFCAXIS2PLACEMENT3D(#132,#64,#131);
#134= IFCEXTRUDEDAREASOLID(#102,#133,#9,66.7);
#135= IFCSHAPEREPRESENTATION(#12,'Body','SweptSolid',(#134));
#136= IFCPRODUCTDEFINITIONSHAPE($,$,(#135));
#137= IFCOPENINGELEMENT('0MV88yVsH0OfQVcZVKgedK',#5,$,$,'Recess',#130,#136,$);
#138= IFCRELVOIDSELEMENT('3AuHSCppn0GOU3pkJvjh6A',#5,$,$,#71,#137);
#139= IFCLOCALPLACEMENT(#42,#46);
#140= IFCRECTANGLEPROFILEDEF(.AREA.,'PL27.2*150',#50,27.2,150.);
#141= IFCDIRECTION((0.,0.,-1.));
#142= IFCDIRECTION((0.000103802999961679,0.999999994612469,0.));
#143= IFCCARTESIANPOINT((72.2497904510398,-152.007499763941,-208.399999999998));
#144= IFCAXIS2PLACEMENT3D(#143,#142,#141);
#145= IFCEXTRUDEDAREASOLID(#140,#144,#9,304.06);
#146= IFCSHAPEREPRESENTATION(#12,'Body','SweptSolid',(#145));
#147= IFCPRODUCTDEFINITIONSHAPE($,$,(#146));
#148= IFCOPENINGELEMENT('0Mohf4k5L7PuFEmcGXUHpl',#5,$,$,'Recess',#139,#147,$);
#149= IFCRELVOIDSELEMENT('2cd$vQS4D8F8blnAn6R4Nt',#5,$,$,#71,#148);
#150= IFCPROPERTYSINGLEVALUE('RectangleOpeningWidth',$,IFCPOSITIVELENGTHMEASURE(27.2),$);
#151= IFCPROPERTYSINGLEVALUE('RectangleOpeningHeight',$,IFCPOSITIVELENGTHMEASURE(150.),$);
#152= IFCPROPERTYSET('3UGRyMMc19KvIThh$NgXfi',#5,'AISC_EM11_Pset_Opening/Cope',$,(#93,#150,#151,#96));
#153= IFCLOCALPLACEMENT(#42,#46);
#154= IFCCARTESIANPOINT((72.2497904510398,-152.007499763941,208.400000000001));
#155= IFCAXIS2PLACEMENT3D(#154,#142,#141);
#156= IFCEXTRUDEDAREASOLID(#140,#155,#9,304.06);
#157= IFCSHAPEREPRESENTATION(#12,'Body','SweptSolid',(#156));
#158= IFCPRODUCTDEFINITIONSHAPE($,$,(#157));
#159= IFCOPENINGELEMENT('09ETsB8ov3yO85SVg55bJ7',#5,$,$,'Recess',#153,#158,$);
#160= IFCRELVOIDSELEMENT('3x2F123TnByeBbRHmePKDd',#5,$,$,#71,#159);
#161= IFCPROPERTYSINGLEVALUE('PieceMark',$,IFCIDENTIFIER('BEAM'),$);
#162= IFCPROPERTYSINGLEVALUE('IndicationMark',$,IFCIDENTIFIER('b/134'),$);
#163= IFCPROPERTYSINGLEVALUE('PrelimMark',$,IFCIDENTIFIER(''),$);
#164= IFCPROPERTYSINGLEVALUE('MainPieceTag',$,IFCBOOLEAN(.F.),$);
#165= IFCPROPERTYSET('3GADQuIpb7fggAxnls7M87',#5,'AISC_EM11_Pset_PieceIdentification','PieceIdentity',(#161,#162,#163,#164));
#166= IFCPROPERTYSINGLEVALUE('MaterialType',$,IFCIDENTIFIER('STEEL'),$);
#167= IFCPROPERTYSINGLEVALUE('MaterialGrade',$,IFCIDENTIFIER('S235JR'),$);
#168= IFCPROPERTYSET('3kRGh3FMTE3fHYy0O_pMw6',#5,'AISC_EM11_Pset_Material',$,(#166,#167));
#169= IFCPROPERTYSINGLEVALUE('SkewedAngleY',$,IFCREAL(0.),$);
#170= IFCPROPERTYSINGLEVALUE('SkewedAngleX',$,IFCREAL(0.),$);
#171= IFCPROPERTYSET('0nrHimG_L8mhGKOm5eI6g9',#5,'AISC_EM11_Pset_SkewedEnd',$,(#169,#170));
#172= IFCPROPERTYSET('0$YNH_EqPCm9AqZ1J01mN3',#5,'AISC_EM11_Pset_SkewedEnd_2',$,(#169,#170));
#173= IFCMATERIAL('STEEL/S235JR');
#174= IFCRELAGGREGATES('0gk$4lONTCcfmLX9TluW$T',#5,$,$,#37,(#39));
#175= IFCRELAGGREGATES('2y0HM1gflUux2dpRl1AoHl',#5,$,$,#39,(#41));
#176= IFCRELAGGREGATES('1aVKWhPG10TPxHzWA4rEss',#5,$,$,#41,(#43));
#177= IFCRELCONTAINEDINSPATIALSTRUCTURE('3Qd7pgeOnBR8cSmJt404_G',#5,$,$,(#71),#43);
#178= IFCRELDEFINESBYPROPERTIES('14e1g_9dTEwP4p3yuwlQL6',#5,$,$,(#137,#128,#109,#91),#97);
#179= IFCRELDEFINESBYPROPERTIES('2oOYxT$kzEYOOocdoba2bp',#5,$,$,(#159,#148),#152);
#180= IFCRELDEFINESBYPROPERTIES('3J78dP_916QeQrWsSyfC6R',#5,$,$,(#71),#165);
#181= IFCRELDEFINESBYPROPERTIES('14EwFZtn96D94_ukFNcG4u',#5,$,$,(#71),#168);
#182= IFCRELDEFINESBYPROPERTIES('2dou_jHb91BvcY_fPy4U1S',#5,$,$,(#71),#171);
#183= IFCRELDEFINESBYPROPERTIES('2ylQ3mzWv1PhWyuwU8EFWL',#5,$,$,(#71),#172);
#184= IFCRELASSOCIATESMATERIAL('3APhOQcjfDHvyvaLUBY0Mj',#5,$,$,(#71),#173);
ENDSEC;

END-ISO-10303-21;
