ISO-10303-21;
HEADER;
FILE_DESCRIPTION(('ViewDefinition[AISC_Steel_Detailing]', 'Option [BaseQuantities:Off]', 'Option [GridExport:On]', 'Option [Assemblies:Off]', 'Option [Bolts:On]', 'Option [Rebars:On]', 'Option [PourObjects:Off]', 'Option [Welds:On]', 'Option [SurfaceTreatments:On]', 'Option [LocationBy:0]', 'Option [ViewColors:Off]', 'Option [SectionedSpine:Off]', 'Option [PropertySets:On]', 'Option [Export all:Off]'),'2;1');
FILE_NAME('b_1323_Qty_1.ifc','2026-05-16T11:53:04',('GIOVANNIPC\\gcorrea'),('Structural Designer'),'IFC Database version: Work','Tekla Structures 2020 Service Pack 5, IFC Export Version: 4.0.0.0 Dec  7 2020','');
FILE_SCHEMA(('IFC2X3'));
ENDSEC;

DATA;
#1= IFCPERSON('GIOVANNIPC\\gcorrea','Undefined',$,$,$,$,$,$);
#2= IFCORGANIZATION($,'Trimble Solutions Corporation',$,$,$);
#3= IFCPERSONANDORGANIZATION(#1,#2,$);
#4= IFCAPPLICATION(#2,'2020 Service Pack 5','Tekla Structures','Multi material modeling');
#5= IFCOWNERHISTORY(#3,#4,$,.NOCHANGE.,$,$,$,1778950384);
#6= IFCCARTESIANPOINT((0.,0.,0.));
#7= IFCDIRECTION((1.,0.,0.));
#8= IFCDIRECTION((0.,1.,0.));
#9= IFCDIRECTION((0.,0.,1.));
#10= IFCAXIS2PLACEMENT3D(#6,#9,#7);
#11= IFCGEOMETRICREPRESENTATIONCONTEXT($,'Model',3,1.E-05,#10,$);
#12= IFCGEOMETRICREPRESENTATIONSUBCONTEXT('Body','Model',*,*,*,*,#11,$,.MODEL_VIEW.,$);
#13= IFCGEOMETRICREPRESENTATIONSUBCONTEXT('Axis','Model',*,*,*,*,#11,$,.GRAPH_VIEW.,$);
#14= IFCGEOMETRICREPRESENTATIONSUBCONTEXT('FootPrint','Model',*,*,*,*,#11,$,.MODEL_VIEW.,$);
#15= IFCSIUNIT(*,.LENGTHUNIT.,.MILLI.,.METRE.);
#16= IFCMEASUREWITHUNIT(IFCRATIOMEASURE(304.8),#15);
#17= IFCDIMENSIONALEXPONENTS(1,0,0,0,0,0,0);
#18= IFCCONVERSIONBASEDUNIT(#17,.LENGTHUNIT.,'FOOT',#16);
#19= IFCSIUNIT(*,.AREAUNIT.,$,.SQUARE_METRE.);
#20= IFCMEASUREWITHUNIT(IFCRATIOMEASURE(0.09290304),#19);
#21= IFCDIMENSIONALEXPONENTS(2,0,0,0,0,0,0);
#22= IFCCONVERSIONBASEDUNIT(#21,.AREAUNIT.,'SQUARE FOOT',#20);
#23= IFCSIUNIT(*,.VOLUMEUNIT.,$,.CUBIC_METRE.);
#24= IFCMEASUREWITHUNIT(IFCRATIOMEASURE(0.028316846592),#23);
#25= IFCDIMENSIONALEXPONENTS(3,0,0,0,0,0,0);
#26= IFCCONVERSIONBASEDUNIT(#25,.VOLUMEUNIT.,'CUBIC FOOT',#24);
#27= IFCSIUNIT(*,.MASSUNIT.,.KILO.,.GRAM.);
#28= IFCSIUNIT(*,.TIMEUNIT.,$,.SECOND.);
#29= IFCSIUNIT(*,.PLANEANGLEUNIT.,$,.RADIAN.);
#30= IFCMEASUREWITHUNIT(IFCRATIOMEASURE(0.0174532925199433),#29);
#31= IFCDIMENSIONALEXPONENTS(0,0,0,0,0,0,0);
#32= IFCCONVERSIONBASEDUNIT(#31,.PLANEANGLEUNIT.,'DEGREE',#30);
#33= IFCSIUNIT(*,.SOLIDANGLEUNIT.,$,.STERADIAN.);
#34= IFCSIUNIT(*,.THERMODYNAMICTEMPERATUREUNIT.,$,.DEGREE_CELSIUS.);
#35= IFCSIUNIT(*,.LUMINOUSINTENSITYUNIT.,$,.LUMEN.);
#36= IFCUNITASSIGNMENT((#15,#19,#23,#27,#28,#29,#33,#34,#35));
#37= IFCPROJECT('2G7ZFDNE16yBDU14FA92Me',#5,'Proyecto',$,$,$,$,(#11),#36);
#38= IFCLOCALPLACEMENT($,#10);
#39= IFCSITE('2xvEzEinjBTea80yOTcujY',#5,'Obra',$,$,#38,$,$,.ELEMENT.,$,$,$,$,$);
#40= IFCLOCALPLACEMENT(#38,#10);
#41= IFCBUILDING('3OazryR_n5nAhI$ugWeACq',#5,'Undefined',$,$,#40,$,$,.ELEMENT.,$,$,$);
#42= IFCLOCALPLACEMENT(#40,#10);
#43= IFCBUILDINGSTOREY('29hdEUCErFze9E_VIAceOd',#5,'Undefined',$,$,#42,$,$,.ELEMENT.,0.);
#44= IFCOWNERHISTORY(#3,#4,$,.NOCHANGE.,$,$,$,1776373200);
#45= IFCCARTESIANPOINT((17392.6732177734,17475.1314660434,48684.9981994629));
#46= IFCAXIS2PLACEMENT3D(#45,#9,#8);
#47= IFCLOCALPLACEMENT(#42,#46);
#48= IFCDIRECTION((1.,0.));
#49= IFCCARTESIANPOINT((0.,0.));
#50= IFCAXIS2PLACEMENT2D(#49,#48);
#51= IFCISHAPEPROFILEDEF(.AREA.,'IPE330',#50,160.,330.,7.5,11.5,18.);
#52= IFCDIRECTION((0.,-1.,0.));
#53= IFCDIRECTION((-1.,0.,0.));
#54= IFCCARTESIANPOINT((7129.53664900461,0.,-7.27595761418343E-12));
#55= IFCAXIS2PLACEMENT3D(#54,#53,#52);
#56= IFCEXTRUDEDAREASOLID(#51,#55,#9,7139.54);
#57= IFCDIRECTION((-0.999999999997887,-2.05600000481025E-06,0.));
#58= IFCCARTESIANPOINT((7129.53646122521,-0.000152555279782973,-265.000000000007));
#59= IFCDIRECTION((-2.05600000481025E-06,0.999999999997886,0.));
#60= IFCAXIS2PLACEMENT3D(#58,#57,#59);
#61= IFCPLANE(#60);
#62= IFCHALFSPACESOLID(#61,.T.);
#63= IFCBOOLEANCLIPPINGRESULT(.DIFFERENCE.,#56,#62);
#64= IFCCARTESIANPOINT((-9.9993133545031,2.18286004383117E-05,-265.000000000007));
#65= IFCAXIS2PLACEMENT3D(#64,#7,#52);
#66= IFCPLANE(#65);
#67= IFCHALFSPACESOLID(#66,.T.);
#68= IFCBOOLEANCLIPPINGRESULT(.DIFFERENCE.,#63,#67);
#69= IFCSHAPEREPRESENTATION(#12,'Body','Clipping',(#68));
#70= IFCPRODUCTDEFINITIONSHAPE($,$,(#69));
#71= IFCBEAM('1P56qczSrEfxY4ZrjFic2$',#44,'BEAM','IPE330','IPE330',#47,#70,'ID59146d26-f5cd-4ea7-b884-8f5b4fb260bf');
#72= IFCLOCALPLACEMENT(#42,#46);
#73= IFCRECTANGLEPROFILEDEF(.AREA.,'PL86.2*76.2',#50,76.2,86.2);
#74= IFCDIRECTION((0.999999999997886,2.05599999081077E-06,0.));
#75= IFCDIRECTION((2.05599999081077E-06,-0.999999999997886,0.));
#76= IFCCARTESIANPOINT((7167.63629468222,81.0147572283133,-122.900000095011));
#77= IFCAXIS2PLACEMENT3D(#76,#75,#74);
#78= IFCEXTRUDEDAREASOLID(#73,#77,#9,162.01);
#79= IFCSHAPEREPRESENTATION(#12,'Body','SweptSolid',(#78));
#80= IFCPRODUCTDEFINITIONSHAPE($,$,(#79));
#81= IFCOPENINGELEMENT('1qsj06bC9CuRoA18cNz1fU',#5,$,$,'Recess',#72,#80,$);
#82= IFCRELVOIDSELEMENT('3K334MKv55GQIqVbY$7wGS',#5,$,$,#71,#81);
#83= IFCPROPERTYSINGLEVALUE('FeatureSubTypes',$,$,$);
#84= IFCPROPERTYSINGLEVALUE('RectangleOpeningWidth',$,IFCPOSITIVELENGTHMEASURE(76.2),$);
#85= IFCPROPERTYSINGLEVALUE('RectangleOpeningHeight',$,IFCPOSITIVELENGTHMEASURE(86.2),$);
#86= IFCPROPERTYSINGLEVALUE('OpeningDiameter',$,$,$);
#87= IFCPROPERTYSET('236W$HpH94SQEbuL_k4j7z',#5,'AISC_EM11_Pset_Opening/Cope',$,(#83,#84,#85,#86));
#88= IFCLOCALPLACEMENT(#42,#46);
#89= IFCRECTANGLEPROFILEDEF(.AREA.,'PL30.5*76.2',#50,30.5,76.2);
#90= IFCDIRECTION((0.,0.,-1.));
#91= IFCCARTESIANPOINT((7167.63629468222,81.0147572283133,150.749999999993));
#92= IFCAXIS2PLACEMENT3D(#91,#75,#90);
#93= IFCEXTRUDEDAREASOLID(#89,#92,#9,162.01);
#94= IFCSHAPEREPRESENTATION(#12,'Body','SweptSolid',(#93));
#95= IFCPRODUCTDEFINITIONSHAPE($,$,(#94));
#96= IFCOPENINGELEMENT('1egZK$vHL7eOHbj78ky5_M',#5,$,$,'Recess',#88,#95,$);
#97= IFCRELVOIDSELEMENT('0XQL9WJD5EXvFmayin_9_y',#5,$,$,#71,#96);
#98= IFCPROPERTYSINGLEVALUE('RectangleOpeningWidth',$,IFCPOSITIVELENGTHMEASURE(30.5),$);
#99= IFCPROPERTYSINGLEVALUE('RectangleOpeningHeight',$,IFCPOSITIVELENGTHMEASURE(76.2),$);
#100= IFCPROPERTYSET('35JT2fN91Dru8Zzji36tMm',#5,'AISC_EM11_Pset_Opening/Cope',$,(#83,#98,#99,#86));
#101= IFCLOCALPLACEMENT(#42,#46);
#102= IFCRECTANGLEPROFILEDEF(.AREA.,'PL56.7*83.5',#50,56.7,83.5);
#103= IFCCARTESIANPOINT((-51.7242916697319,-81.001923954476,-137.650000095011));
#104= IFCAXIS2PLACEMENT3D(#103,#8,#90);
#105= IFCEXTRUDEDAREASOLID(#102,#104,#9,162.);
#106= IFCSHAPEREPRESENTATION(#12,'Body','SweptSolid',(#105));
#107= IFCPRODUCTDEFINITIONSHAPE($,$,(#106));
#108= IFCOPENINGELEMENT('1EJ9b18z95QRg9wrjRv2zj',#5,$,$,'Recess',#101,#107,$);
#109= IFCRELVOIDSELEMENT('2LWBtwqbfFBh7eN$z6DmXP',#5,$,$,#71,#108);
#110= IFCPROPERTYSINGLEVALUE('RectangleOpeningWidth',$,IFCPOSITIVELENGTHMEASURE(56.7),$);
#111= IFCPROPERTYSINGLEVALUE('RectangleOpeningHeight',$,IFCPOSITIVELENGTHMEASURE(83.5),$);
#112= IFCPROPERTYSET('3u1tnlerX1$h3ekARZ4JDk',#5,'AISC_EM11_Pset_Opening/Cope',$,(#83,#110,#111,#86));
#113= IFCLOCALPLACEMENT(#42,#46);
#114= IFCRECTANGLEPROFILEDEF(.AREA.,'PL30.5*83.5',#50,30.5,83.5);
#115= IFCCARTESIANPOINT((-51.7242916697319,-81.001923954476,150.749999999993));
#116= IFCAXIS2PLACEMENT3D(#115,#8,#90);
#117= IFCEXTRUDEDAREASOLID(#114,#116,#9,162.);
#118= IFCSHAPEREPRESENTATION(#12,'Body','SweptSolid',(#117));
#119= IFCPRODUCTDEFINITIONSHAPE($,$,(#118));
#120= IFCOPENINGELEMENT('2WFsr_sfjAdxZx3wU$3PVJ',#5,$,$,'Recess',#113,#119,$);
#121= IFCRELVOIDSELEMENT('2T3R6CXyb8aAklJTRNYP2A',#5,$,$,#71,#120);
#122= IFCPROPERTYSET('3Bqcg78jL7wQ4PVH4r5N7r',#5,'AISC_EM11_Pset_Opening/Cope',$,(#83,#98,#111,#86));
#123= IFCCARTESIANPOINT((17391.9252055612,24550.0178979622,48780.4982006836));
#124= IFCAXIS2PLACEMENT3D(#123,#52,#90);
#125= IFCLOCALPLACEMENT(#42,#124);
#126= IFCCIRCLEPROFILEDEF(.AREA.,$,#50,11.5);
#127= IFCCARTESIANPOINT((0.,-3.10009172535528,0.));
#128= IFCAXIS2PLACEMENT3D(#127,#8,#7);
#129= IFCEXTRUDEDAREASOLID(#126,#128,#9,7.7);
#130= IFCSHAPEREPRESENTATION(#12,'Body','SweptSolid',(#129));
#131= IFCREPRESENTATIONMAP(#10,#130);
#132= IFCCARTESIANTRANSFORMATIONOPERATOR3D($,$,#6,$,$);
#133= IFCMAPPEDITEM(#131,#132);
#134= IFCCARTESIANPOINT((60.,0.,4.36557456851006E-10));
#135= IFCCARTESIANTRANSFORMATIONOPERATOR3D($,$,#134,$,$);
#136= IFCMAPPEDITEM(#131,#135);
#137= IFCCARTESIANPOINT((120.,0.,8.73114913702011E-10));
#138= IFCCARTESIANTRANSFORMATIONOPERATOR3D($,$,#137,$,$);
#139= IFCMAPPEDITEM(#131,#138);
#140= IFCCARTESIANPOINT((180.,0.,1.30967237055302E-09));
#141= IFCCARTESIANTRANSFORMATIONOPERATOR3D($,$,#140,$,$);
#142= IFCMAPPEDITEM(#131,#141);
#143= IFCSHAPEREPRESENTATION(#12,'Body','MappedRepresentation',(#133,#136,#139,#142));
#144= IFCPRODUCTDEFINITIONSHAPE($,$,(#143));
#145= IFCOPENINGELEMENT('1jUObV7LrAZAKdaL3xwGIl',#5,$,$,'Opening',#125,#144,$);
#146= IFCRELVOIDSELEMENT('0zdMy4FRr6UhT7gQ07gFTw',#5,'Drill Hole',$,#71,#145);
#147= IFCPROPERTYSINGLEVALUE('FeatureSubTypes',$,IFCLABEL('TORNILLO'),$);
#148= IFCPROPERTYSINGLEVALUE('RectangleOpeningWidth',$,$,$);
#149= IFCPROPERTYSINGLEVALUE('RectangleOpeningHeight',$,$,$);
#150= IFCPROPERTYSET('2Nkq7oav1A4Al5ZQs8WW81',#5,'AISC_EM11_Pset_Opening/Cope',$,(#147,#148,#149,#86));
#151= IFCCARTESIANPOINT((17392.673193265,17465.1321526889,48820.4981994629));
#152= IFCAXIS2PLACEMENT3D(#151,#8,#90);
#153= IFCLOCALPLACEMENT(#42,#152);
#154= IFCCARTESIANPOINT((0.,-3.85003522856059,0.));
#155= IFCAXIS2PLACEMENT3D(#154,#8,#7);
#156= IFCEXTRUDEDAREASOLID(#126,#155,#9,7.7);
#157= IFCSHAPEREPRESENTATION(#12,'Body','SweptSolid',(#156));
#158= IFCREPRESENTATIONMAP(#10,#157);
#159= IFCCARTESIANPOINT((40.,0.,50.));
#160= IFCCARTESIANTRANSFORMATIONOPERATOR3D($,$,#159,$,$);
#161= IFCMAPPEDITEM(#158,#160);
#162= IFCCARTESIANPOINT((100.,0.,50.));
#163= IFCCARTESIANTRANSFORMATIONOPERATOR3D($,$,#162,$,$);
#164= IFCMAPPEDITEM(#158,#163);
#165= IFCCARTESIANPOINT((160.,0.,50.));
#166= IFCCARTESIANTRANSFORMATIONOPERATOR3D($,$,#165,$,$);
#167= IFCMAPPEDITEM(#158,#166);
#168= IFCCARTESIANPOINT((220.,0.,50.));
#169= IFCCARTESIANTRANSFORMATIONOPERATOR3D($,$,#168,$,$);
#170= IFCMAPPEDITEM(#158,#169);
#171= IFCSHAPEREPRESENTATION(#12,'Body','MappedRepresentation',(#161,#164,#167,#170));
#172= IFCPRODUCTDEFINITIONSHAPE($,$,(#171));
#173= IFCOPENINGELEMENT('0STq5wC5L2cu9mgfi7sfwQ',#5,$,$,'Opening',#153,#172,$);
#174= IFCRELVOIDSELEMENT('2WfqmiQIPAxe05DAtEd8Pc',#5,'Drill Hole',$,#71,#173);
#175= IFCPROPERTYSINGLEVALUE('PieceMark',$,IFCIDENTIFIER('BEAM'),$);
#176= IFCPROPERTYSINGLEVALUE('IndicationMark',$,IFCIDENTIFIER('b/1323'),$);
#177= IFCPROPERTYSINGLEVALUE('PrelimMark',$,IFCIDENTIFIER(''),$);
#178= IFCPROPERTYSINGLEVALUE('MainPieceTag',$,IFCBOOLEAN(.T.),$);
#179= IFCPROPERTYSET('0qXZ9X_UTFlvZEfMdYCNmT',#5,'AISC_EM11_Pset_PieceIdentification','PieceIdentity',(#175,#176,#177,#178));
#180= IFCPROPERTYSINGLEVALUE('MaterialType',$,IFCIDENTIFIER('STEEL'),$);
#181= IFCPROPERTYSINGLEVALUE('MaterialGrade',$,IFCIDENTIFIER('S235JR'),$);
#182= IFCPROPERTYSET('0B1Dn7YGz9ChmD3RVfMMrB',#5,'AISC_EM11_Pset_Material',$,(#180,#181));
#183= IFCPROPERTYSINGLEVALUE('SkewedAngleY',$,IFCREAL(0.),$);
#184= IFCPROPERTYSINGLEVALUE('SkewedAngleX',$,IFCREAL(-2.E-05),$);
#185= IFCPROPERTYSET('2wkRcsWlPFlhscAhHrRiZY',#5,'AISC_EM11_Pset_SkewedEnd',$,(#183,#184));
#186= IFCPROPERTYSINGLEVALUE('SkewedAngleX',$,IFCREAL(-0.00012),$);
#187= IFCPROPERTYSET('0iG9LWxkHFGOi35OJjnPxo',#5,'AISC_EM11_Pset_SkewedEnd_2',$,(#183,#186));
#188= IFCMATERIAL('STEEL/S235JR');
#189= IFCRELAGGREGATES('0p8FC7ugP9d8BhEeBpb2Uh',#5,$,$,#37,(#39));
#190= IFCRELAGGREGATES('25QXUPAyhRvQTzWwT5tKmz',#5,$,$,#39,(#41));
#191= IFCRELAGGREGATES('0M2BzTjWr8eQpETisXTpB8',#5,$,$,#41,(#43));
#192= IFCRELCONTAINEDINSPATIALSTRUCTURE('15MUOk8uf3KQ9WprjYZRF8',#5,$,$,(#71),#43);
#193= IFCRELDEFINESBYPROPERTIES('1XeQahnXv29x$V6OwEzwj4',#5,$,$,(#81),#87);
#194= IFCRELDEFINESBYPROPERTIES('0U5bfxgnT8UeS7VXKAviZN',#5,$,$,(#96),#100);
#195= IFCRELDEFINESBYPROPERTIES('0XHs1QxGfFaewsdk6tS7d6',#5,$,$,(#108),#112);
#196= IFCRELDEFINESBYPROPERTIES('2uB0ueUEfAaupzjdP1Elr6',#5,$,$,(#120),#122);
#197= IFCRELDEFINESBYPROPERTIES('19VvdnpmDFuBj0YjtoiPXD',#5,$,$,(#173,#145),#150);
#198= IFCRELDEFINESBYPROPERTIES('0LUamlyT92XhfV9bFGPKr2',#5,$,$,(#71),#179);
#199= IFCRELDEFINESBYPROPERTIES('1B97M3bn9EpxUk0$qz_hVs',#5,$,$,(#71),#182);
#200= IFCRELDEFINESBYPROPERTIES('0dt1m7igP0GO21$oSMJHjm',#5,$,$,(#71),#185);
#201= IFCRELDEFINESBYPROPERTIES('3IhBS9uhP7U8mm23nSm9ut',#5,$,$,(#71),#187);
#202= IFCRELASSOCIATESMATERIAL('1d0C5s53L55AIvvE6zPzc3',#5,$,$,(#71),#188);
ENDSEC;

END-ISO-10303-21;
