ISO-10303-21;
HEADER;
FILE_DESCRIPTION(('ViewDefinition[AISC_Steel_Detailing]', 'Option [BaseQuantities:Off]', 'Option [GridExport:On]', 'Option [Assemblies:Off]', 'Option [Bolts:On]', 'Option [Rebars:On]', 'Option [PourObjects:Off]', 'Option [Welds:On]', 'Option [SurfaceTreatments:On]', 'Option [LocationBy:0]', 'Option [ViewColors:Off]', 'Option [SectionedSpine:Off]', 'Option [PropertySets:On]', 'Option [Export all:Off]'),'2;1');
FILE_NAME('b_138_Qty_1.ifc','2026-05-16T11:53:19',('GIOVANNIPC\\gcorrea'),('Structural Designer'),'IFC Database version: Work','Tekla Structures 2020 Service Pack 5, IFC Export Version: 4.0.0.0 Dec  7 2020','');
FILE_SCHEMA(('IFC2X3'));
ENDSEC;

DATA;
#1= IFCPERSON('GIOVANNIPC\\gcorrea','Undefined',$,$,$,$,$,$);
#2= IFCORGANIZATION($,'Trimble Solutions Corporation',$,$,$);
#3= IFCPERSONANDORGANIZATION(#1,#2,$);
#4= IFCAPPLICATION(#2,'2020 Service Pack 5','Tekla Structures','Multi material modeling');
#5= IFCOWNERHISTORY(#3,#4,$,.NOCHANGE.,$,$,$,1778950399);
#6= IFCCARTESIANPOINT((0.,0.,0.));
#7= IFCDIRECTION((1.,0.,0.));
#8= IFCDIRECTION((0.,1.,0.));
#9= IFCDIRECTION((0.,0.,1.));
#10= IFCAXIS2PLACEMENT3D(#6,#9,#7);
#11= IFCGEOMETRICREPRESENTATIONCONTEXT($,'Model',3,1.E-05,#10,$);
#12= IFCGEOMETRICREPRESENTATIONSUBCONTEXT('Body','Model',*,*,*,*,#11,$,.MODEL_VIEW.,$);
#13= IFCGEOMETRICREPRESENTATIONSUBCONTEXT('Axis','Model',*,*,*,*,#11,$,.GRAPH_VIEW.,$);
#14= IFCGEOMETRICREPRESENTATIONSUBCONTEXT('FootPrint','Model',*,*,*,*,#11,$,.MODEL_VIEW.,$);
#15= IFCSIUNIT(*,.LENGTHUNIT.,.MILLI.,.METRE.);
#16= IFCMEASUREWITHUNIT(IFCRATIOMEASURE(304.8),#15);
#17= IFCDIMENSIONALEXPONENTS(1,0,0,0,0,0,0);
#18= IFCCONVERSIONBASEDUNIT(#17,.LENGTHUNIT.,'FOOT',#16);
#19= IFCSIUNIT(*,.AREAUNIT.,$,.SQUARE_METRE.);
#20= IFCMEASUREWITHUNIT(IFCRATIOMEASURE(0.09290304),#19);
#21= IFCDIMENSIONALEXPONENTS(2,0,0,0,0,0,0);
#22= IFCCONVERSIONBASEDUNIT(#21,.AREAUNIT.,'SQUARE FOOT',#20);
#23= IFCSIUNIT(*,.VOLUMEUNIT.,$,.CUBIC_METRE.);
#24= IFCMEASUREWITHUNIT(IFCRATIOMEASURE(0.028316846592),#23);
#25= IFCDIMENSIONALEXPONENTS(3,0,0,0,0,0,0);
#26= IFCCONVERSIONBASEDUNIT(#25,.VOLUMEUNIT.,'CUBIC FOOT',#24);
#27= IFCSIUNIT(*,.MASSUNIT.,.KILO.,.GRAM.);
#28= IFCSIUNIT(*,.TIMEUNIT.,$,.SECOND.);
#29= IFCSIUNIT(*,.PLANEANGLEUNIT.,$,.RADIAN.);
#30= IFCMEASUREWITHUNIT(IFCRATIOMEASURE(0.0174532925199433),#29);
#31= IFCDIMENSIONALEXPONENTS(0,0,0,0,0,0,0);
#32= IFCCONVERSIONBASEDUNIT(#31,.PLANEANGLEUNIT.,'DEGREE',#30);
#33= IFCSIUNIT(*,.SOLIDANGLEUNIT.,$,.STERADIAN.);
#34= IFCSIUNIT(*,.THERMODYNAMICTEMPERATUREUNIT.,$,.DEGREE_CELSIUS.);
#35= IFCSIUNIT(*,.LUMINOUSINTENSITYUNIT.,$,.LUMEN.);
#36= IFCUNITASSIGNMENT((#15,#19,#23,#27,#28,#29,#33,#34,#35));
#37= IFCPROJECT('2G7ZFDNE16yBDU14FA92Me',#5,'Proyecto',$,$,$,$,(#11),#36);
#38= IFCLOCALPLACEMENT($,#10);
#39= IFCSITE('2xvEzEinjBTea80yOTcujY',#5,'Obra',$,$,#38,$,$,.ELEMENT.,$,$,$,$,$);
#40= IFCLOCALPLACEMENT(#38,#10);
#41= IFCBUILDING('0vxDAIdGvFGAv7VRMh7F7Z',#5,'Undefined',$,$,#40,$,$,.ELEMENT.,$,$,$);
#42= IFCLOCALPLACEMENT(#40,#10);
#43= IFCBUILDINGSTOREY('29hdEUCErFze9E_VIAceOd',#5,'Undefined',$,$,#42,$,$,.ELEMENT.,0.);
#44= IFCOWNERHISTORY(#3,#4,$,.NOCHANGE.,$,$,$,1773075600);
#45= IFCCARTESIANPOINT((80470.2260712509,22107.7414217489,13675.));
#46= IFCAXIS2PLACEMENT3D(#45,#9,#8);
#47= IFCLOCALPLACEMENT(#42,#46);
#48= IFCDIRECTION((1.,0.));
#49= IFCCARTESIANPOINT((0.,0.));
#50= IFCAXIS2PLACEMENT2D(#49,#48);
#51= IFCISHAPEPROFILEDEF(.AREA.,'IPE450',#50,190.,450.,9.399999619,14.60000038,21.);
#52= IFCDIRECTION((0.,-1.,0.));
#53= IFCDIRECTION((-1.,0.,0.));
#54= IFCCARTESIANPOINT((1773.46398197388,0.,0.));
#55= IFCAXIS2PLACEMENT3D(#54,#53,#52);
#56= IFCEXTRUDEDAREASOLID(#51,#55,#9,1866.51);
#57= IFCDIRECTION((-0.999999999825977,-1.86559999969453E-05,0.));
#58= IFCCARTESIANPOINT((1773.46389341733,-0.000186560049769469,-325.));
#59= IFCDIRECTION((-1.86559999969453E-05,0.999999999825977,0.));
#60= IFCAXIS2PLACEMENT3D(#58,#57,#59);
#61= IFCPLANE(#60);
#62= IFCHALFSPACESOLID(#61,.T.);
#63= IFCBOOLEANCLIPPINGRESULT(.DIFFERENCE.,#56,#62);
#64= IFCCARTESIANPOINT((-93.0413560864945,0.,-325.));
#65= IFCAXIS2PLACEMENT3D(#64,#7,#52);
#66= IFCPLANE(#65);
#67= IFCHALFSPACESOLID(#66,.T.);
#68= IFCBOOLEANCLIPPINGRESULT(.DIFFERENCE.,#63,#67);
#69= IFCSHAPEREPRESENTATION(#12,'Body','Clipping',(#68));
#70= IFCPRODUCTDEFINITIONSHAPE($,$,(#69));
#71= IFCBEAM('1E7wSzitj2zRcznYwPy73H',#44,'BEAM','IPE450','IPE450',#47,#70,'ID4e1fa73d-b37b-42f5-b9bd-c62e99f070d1');
#72= IFCLOCALPLACEMENT(#42,#46);
#73= IFCRECTANGLEPROFILEDEF(.AREA.,'PL59*156.3',#50,59.,156.3);
#74= IFCDIRECTION((0.,0.,-1.));
#75= IFCDIRECTION((1.86559999889149E-05,-0.999999999825977,0.));
#76= IFCCARTESIANPOINT((1707.33710180237,96.0319032341503,-196.5));
#77= IFCAXIS2PLACEMENT3D(#76,#75,#74);
#78= IFCEXTRUDEDAREASOLID(#73,#77,#9,192.03);
#79= IFCSHAPEREPRESENTATION(#12,'Body','SweptSolid',(#78));
#80= IFCPRODUCTDEFINITIONSHAPE($,$,(#79));
#81= IFCOPENINGELEMENT('0OPTuKx4bAbRmLWOZLoUCR',#5,$,$,'Recess',#72,#80,$);
#82= IFCRELVOIDSELEMENT('1MnVkRGXDBO88Vm1$$VJqD',#5,$,$,#71,#81);
#83= IFCPROPERTYSINGLEVALUE('FeatureSubTypes',$,$,$);
#84= IFCPROPERTYSINGLEVALUE('RectangleOpeningWidth',$,IFCPOSITIVELENGTHMEASURE(59.),$);
#85= IFCPROPERTYSINGLEVALUE('RectangleOpeningHeight',$,IFCPOSITIVELENGTHMEASURE(156.3),$);
#86= IFCPROPERTYSINGLEVALUE('OpeningDiameter',$,$,$);
#87= IFCPROPERTYSET('2Wtwm1lJb3_Q7wBFLtejcF',#5,'AISC_EM11_Pset_Opening/Cope',$,(#83,#84,#85,#86));
#88= IFCLOCALPLACEMENT(#42,#46);
#89= IFCRECTANGLEPROFILEDEF(.AREA.,'PL49*156.3',#50,49.,156.3);
#90= IFCCARTESIANPOINT((1707.33710180237,96.0319032341503,201.5));
#91= IFCAXIS2PLACEMENT3D(#90,#75,#74);
#92= IFCEXTRUDEDAREASOLID(#89,#91,#9,192.03);
#93= IFCSHAPEREPRESENTATION(#12,'Body','SweptSolid',(#92));
#94= IFCPRODUCTDEFINITIONSHAPE($,$,(#93));
#95= IFCOPENINGELEMENT('1BcE2hoh5EeRiblbbZOVdz',#5,$,$,'Recess',#88,#94,$);
#96= IFCRELVOIDSELEMENT('153eBDYDXDjOgHi6eRINOR',#5,$,$,#71,#95);
#97= IFCPROPERTYSINGLEVALUE('RectangleOpeningWidth',$,IFCPOSITIVELENGTHMEASURE(49.),$);
#98= IFCPROPERTYSET('0_y6yhjPzB68yugUznuLOZ',#5,'AISC_EM11_Pset_Opening/Cope',$,(#83,#97,#85,#86));
#99= IFCLOCALPLACEMENT(#42,#46);
#100= IFCRECTANGLEPROFILEDEF(.AREA.,'PL36.6*102.3',#50,36.6,102.3);
#101= IFCCARTESIANPOINT((-53.8913559912471,-96.,-207.69999981));
#102= IFCAXIS2PLACEMENT3D(#101,#8,#74);
#103= IFCEXTRUDEDAREASOLID(#100,#102,#9,192.);
#104= IFCSHAPEREPRESENTATION(#12,'Body','SweptSolid',(#103));
#105= IFCPRODUCTDEFINITIONSHAPE($,$,(#104));
#106= IFCOPENINGELEMENT('2QknqMLt5DFfn5n77_2ByG',#5,$,$,'Recess',#99,#105,$);
#107= IFCRELVOIDSELEMENT('39xvfDmDH3Sw1dwjVPPGST',#5,$,$,#71,#106);
#108= IFCPROPERTYSINGLEVALUE('RectangleOpeningWidth',$,IFCPOSITIVELENGTHMEASURE(36.6),$);
#109= IFCPROPERTYSINGLEVALUE('RectangleOpeningHeight',$,IFCPOSITIVELENGTHMEASURE(102.3),$);
#110= IFCPROPERTYSET('1J1PUZghX7mQfl$r2qkpO$',#5,'AISC_EM11_Pset_Opening/Cope',$,(#83,#108,#109,#86));
#111= IFCLOCALPLACEMENT(#42,#46);
#112= IFCCARTESIANPOINT((-53.8913559912471,-96.,207.69999981));
#113= IFCAXIS2PLACEMENT3D(#112,#8,#74);
#114= IFCEXTRUDEDAREASOLID(#100,#113,#9,192.);
#115= IFCSHAPEREPRESENTATION(#12,'Body','SweptSolid',(#114));
#116= IFCPRODUCTDEFINITIONSHAPE($,$,(#115));
#117= IFCOPENINGELEMENT('302KNFoUnEjAiL9xcZSVZN',#5,$,$,'Recess',#111,#116,$);
#118= IFCRELVOIDSELEMENT('2IaOsEwqP6yvPGzbBuslmI',#5,$,$,#71,#117);
#119= IFCCARTESIANPOINT((80470.2258846909,23881.2053151592,13900.));
#120= IFCAXIS2PLACEMENT3D(#119,#75,#74);
#121= IFCLOCALPLACEMENT(#42,#120);
#122= IFCCIRCLEPROFILEDEF(.AREA.,$,#50,11.5);
#123= IFCCARTESIANPOINT((0.,-4.80055947691927,0.));
#124= IFCAXIS2PLACEMENT3D(#123,#8,#7);
#125= IFCEXTRUDEDAREASOLID(#122,#124,#9,9.6);
#126= IFCSHAPEREPRESENTATION(#12,'Body','SweptSolid',(#125));
#127= IFCREPRESENTATIONMAP(#10,#126);
#128= IFCCARTESIANPOINT((85.,0.,39.9999999999527));
#129= IFCCARTESIANTRANSFORMATIONOPERATOR3D($,$,#128,$,$);
#130= IFCMAPPEDITEM(#127,#129);
#131= IFCCARTESIANPOINT((155.,0.,39.9999999999527));
#132= IFCCARTESIANTRANSFORMATIONOPERATOR3D($,$,#131,$,$);
#133= IFCMAPPEDITEM(#127,#132);
#134= IFCCARTESIANPOINT((225.,0.,39.9999999999527));
#135= IFCCARTESIANTRANSFORMATIONOPERATOR3D($,$,#134,$,$);
#136= IFCMAPPEDITEM(#127,#135);
#137= IFCCARTESIANPOINT((295.,0.,39.9999999999527));
#138= IFCCARTESIANTRANSFORMATIONOPERATOR3D($,$,#137,$,$);
#139= IFCMAPPEDITEM(#127,#138);
#140= IFCCARTESIANPOINT((365.,0.,39.9999999999527));
#141= IFCCARTESIANTRANSFORMATIONOPERATOR3D($,$,#140,$,$);
#142= IFCMAPPEDITEM(#127,#141);
#143= IFCSHAPEREPRESENTATION(#12,'Body','MappedRepresentation',(#130,#133,#136,#139,#142));
#144= IFCPRODUCTDEFINITIONSHAPE($,$,(#143));
#145= IFCOPENINGELEMENT('063iqWBAD34Ogj0KFusSix',#5,$,$,'Opening',#121,#144,$);
#146= IFCRELVOIDSELEMENT('3As9Nsuyv6Yhm_xXoKyEMN',#5,'Drill Hole',$,#71,#145);
#147= IFCPROPERTYSINGLEVALUE('FeatureSubTypes',$,IFCLABEL('TORNILLO'),$);
#148= IFCPROPERTYSINGLEVALUE('RectangleOpeningWidth',$,$,$);
#149= IFCPROPERTYSINGLEVALUE('RectangleOpeningHeight',$,$,$);
#150= IFCPROPERTYSET('1_maEvC1bFBgHyyv6NVq5O',#5,'AISC_EM11_Pset_Opening/Cope',$,(#147,#148,#149,#86));
#151= IFCCARTESIANPOINT((80470.2260712509,23694.1473966105,13900.));
#152= IFCDIRECTION((0.999998404616686,0.00178627099932056,0.));
#153= IFCDIRECTION((0.00178627099932005,-0.999998404616686,0.));
#154= IFCAXIS2PLACEMENT3D(#151,#152,#153);
#155= IFCLOCALPLACEMENT(#42,#154);
#156= IFCCARTESIANPOINT((0.,-0.0999999999999929,0.));
#157= IFCAXIS2PLACEMENT3D(#156,#8,#7);
#158= IFCEXTRUDEDAREASOLID(#122,#157,#9,14.8);
#159= IFCSHAPEREPRESENTATION(#12,'Body','SweptSolid',(#158));
#160= IFCREPRESENTATIONMAP(#10,#159);
#161= IFCCARTESIANPOINT((0.,0.,49.999999999869));
#162= IFCCARTESIANTRANSFORMATIONOPERATOR3D($,$,#161,$,$);
#163= IFCMAPPEDITEM(#160,#162);
#164= IFCCARTESIANPOINT((69.9999999998072,0.,49.9999999993452));
#165= IFCCARTESIANTRANSFORMATIONOPERATOR3D($,$,#164,$,$);
#166= IFCMAPPEDITEM(#160,#165);
#167= IFCCARTESIANPOINT((139.999999999618,0.,49.9999999988504));
#168= IFCCARTESIANTRANSFORMATIONOPERATOR3D($,$,#167,$,$);
#169= IFCMAPPEDITEM(#160,#168);
#170= IFCCARTESIANPOINT((209.999999999425,0.,49.9999999983265));
#171= IFCCARTESIANTRANSFORMATIONOPERATOR3D($,$,#170,$,$);
#172= IFCMAPPEDITEM(#160,#171);
#173= IFCCARTESIANPOINT((279.999999999232,0.,49.9999999978318));
#174= IFCCARTESIANTRANSFORMATIONOPERATOR3D($,$,#173,$,$);
#175= IFCMAPPEDITEM(#160,#174);
#176= IFCCARTESIANPOINT((349.999999999043,0.,49.9999999973224));
#177= IFCCARTESIANTRANSFORMATIONOPERATOR3D($,$,#176,$,$);
#178= IFCMAPPEDITEM(#160,#177);
#179= IFCCARTESIANPOINT((419.99999999885,0.,49.9999999968131));
#180= IFCCARTESIANTRANSFORMATIONOPERATOR3D($,$,#179,$,$);
#181= IFCMAPPEDITEM(#160,#180);
#182= IFCCARTESIANPOINT((3.63797880709171E-12,0.,-49.999999999869));
#183= IFCCARTESIANTRANSFORMATIONOPERATOR3D($,$,#182,$,$);
#184= IFCMAPPEDITEM(#160,#183);
#185= IFCCARTESIANPOINT((69.9999999998072,0.,-50.0000000003638));
#186= IFCCARTESIANTRANSFORMATIONOPERATOR3D($,$,#185,$,$);
#187= IFCMAPPEDITEM(#160,#186);
#188= IFCCARTESIANPOINT((139.999999999614,0.,-50.0000000008877));
#189= IFCCARTESIANTRANSFORMATIONOPERATOR3D($,$,#188,$,$);
#190= IFCMAPPEDITEM(#160,#189);
#191= IFCCARTESIANPOINT((209.999999999422,0.,-50.0000000013824));
#192= IFCCARTESIANTRANSFORMATIONOPERATOR3D($,$,#191,$,$);
#193= IFCMAPPEDITEM(#160,#192);
#194= IFCCARTESIANPOINT((279.999999999232,0.,-50.0000000019063));
#195= IFCCARTESIANTRANSFORMATIONOPERATOR3D($,$,#194,$,$);
#196= IFCMAPPEDITEM(#160,#195);
#197= IFCCARTESIANPOINT((349.99999999904,0.,-50.0000000024011));
#198= IFCCARTESIANTRANSFORMATIONOPERATOR3D($,$,#197,$,$);
#199= IFCMAPPEDITEM(#160,#198);
#200= IFCCARTESIANPOINT((419.999999998847,0.,-50.0000000029249));
#201= IFCCARTESIANTRANSFORMATIONOPERATOR3D($,$,#200,$,$);
#202= IFCMAPPEDITEM(#160,#201);
#203= IFCSHAPEREPRESENTATION(#12,'Body','MappedRepresentation',(#163,#166,#169,#172,#175,#178,#181,#184,#187,#190,#193,#196,#199,#202));
#204= IFCPRODUCTDEFINITIONSHAPE($,$,(#203));
#205= IFCOPENINGELEMENT('09CRYebi16MwXzu9pM$nLM',#5,$,$,'Opening',#155,#204,$);
#206= IFCRELVOIDSELEMENT('3JuWuKuMr6mhEThRJw0Pq9',#5,'Drill Hole',$,#71,#205);
#207= IFCCARTESIANPOINT((80470.2260712509,22147.7414217489,13900.));
#208= IFCAXIS2PLACEMENT3D(#207,#53,#8);
#209= IFCLOCALPLACEMENT(#42,#208);
#210= IFCSHAPEREPRESENTATION(#12,'Body','MappedRepresentation',(#184,#187,#190,#193,#196,#199,#202,#163,#166,#169,#172,#175,#178,#181));
#211= IFCPRODUCTDEFINITIONSHAPE($,$,(#210));
#212= IFCOPENINGELEMENT('0H2w6xSwL9ggv7Fkq2z0jG',#5,$,$,'Opening',#209,#211,$);
#213= IFCRELVOIDSELEMENT('0e4czpAOnFxwqmz4PbUPG5',#5,'Drill Hole',$,#71,#212);
#214= IFCCARTESIANPOINT((80470.2260712509,22014.7000656624,13824.39999962));
#215= IFCAXIS2PLACEMENT3D(#214,#8,#74);
#216= IFCLOCALPLACEMENT(#42,#215);
#217= IFCCARTESIANPOINT((0.,-4.79999980949797,0.));
#218= IFCAXIS2PLACEMENT3D(#217,#8,#7);
#219= IFCEXTRUDEDAREASOLID(#122,#218,#9,9.6);
#220= IFCSHAPEREPRESENTATION(#12,'Body','SweptSolid',(#219));
#221= IFCREPRESENTATIONMAP(#10,#220);
#222= IFCMAPPEDITEM(#221,#162);
#223= IFCMAPPEDITEM(#221,#165);
#224= IFCMAPPEDITEM(#221,#168);
#225= IFCMAPPEDITEM(#221,#171);
#226= IFCMAPPEDITEM(#221,#174);
#227= IFCSHAPEREPRESENTATION(#12,'Body','MappedRepresentation',(#222,#223,#224,#225,#226));
#228= IFCPRODUCTDEFINITIONSHAPE($,$,(#227));
#229= IFCOPENINGELEMENT('1QiGOENaz99BBLb8skliEg',#5,$,$,'Opening',#216,#228,$);
#230= IFCRELVOIDSELEMENT('04tK0LQCn4lQW7f4bEZc86',#5,'Drill Hole',$,#71,#229);
#231= IFCPROPERTYSINGLEVALUE('PieceMark',$,IFCIDENTIFIER('BEAM'),$);
#232= IFCPROPERTYSINGLEVALUE('IndicationMark',$,IFCIDENTIFIER('b/138'),$);
#233= IFCPROPERTYSINGLEVALUE('PrelimMark',$,IFCIDENTIFIER(''),$);
#234= IFCPROPERTYSINGLEVALUE('MainPieceTag',$,IFCBOOLEAN(.T.),$);
#235= IFCPROPERTYSET('1eyv8U6_TFVenmNBoWv5RE',#5,'AISC_EM11_Pset_PieceIdentification','PieceIdentity',(#231,#232,#233,#234));
#236= IFCPROPERTYSINGLEVALUE('MaterialType',$,IFCIDENTIFIER('STEEL'),$);
#237= IFCPROPERTYSINGLEVALUE('MaterialGrade',$,IFCIDENTIFIER('S235JR'),$);
#238= IFCPROPERTYSET('33PV8SfpT5WA8xlGTEq$wO',#5,'AISC_EM11_Pset_Material',$,(#236,#237));
#239= IFCPROPERTYSINGLEVALUE('SkewedAngleY',$,IFCREAL(0.),$);
#240= IFCPROPERTYSINGLEVALUE('SkewedAngleX',$,IFCREAL(0.),$);
#241= IFCPROPERTYSET('0qy58F8kTBTv04NFzVuwBM',#5,'AISC_EM11_Pset_SkewedEnd',$,(#239,#240));
#242= IFCPROPERTYSET('0f4XIcCkj1efb$nxzzcZsE',#5,'AISC_EM11_Pset_SkewedEnd_2',$,(#239,#240));
#243= IFCMATERIAL('STEEL/S235JR');
#244= IFCRELAGGREGATES('3sXehvGM140PSFrbfmWaL4',#5,$,$,#37,(#39));
#245= IFCRELAGGREGATES('28pwzBYeJMIhkX7tx2osdM',#5,$,$,#39,(#41));
#246= IFCRELAGGREGATES('0Li3u2UDjCq9VrpI$LZ3ob',#5,$,$,#41,(#43));
#247= IFCRELCONTAINEDINSPATIALSTRUCTURE('0D5YnGHSHFIPEM0Eg8i8hz',#5,$,$,(#71),#43);
#248= IFCRELDEFINESBYPROPERTIES('2b2fn4AN11IgPGFPOrQNe7',#5,$,$,(#81),#87);
#249= IFCRELDEFINESBYPROPERTIES('1J0lf2_jT4J8ibOQr7F$1G',#5,$,$,(#95),#98);
#250= IFCRELDEFINESBYPROPERTIES('3yJeag$HXBdOAt_SrLVL6s',#5,$,$,(#117,#106),#110);
#251= IFCRELDEFINESBYPROPERTIES('3EJn$9W41Df9qVKgyIT8vO',#5,$,$,(#229,#212,#205,#145),#150);
#252= IFCRELDEFINESBYPROPERTIES('3vDiPizEr4$vcSdkz7MXVO',#5,$,$,(#71),#235);
#253= IFCRELDEFINESBYPROPERTIES('3_xghUnAXDqg09VdP9MkLR',#5,$,$,(#71),#238);
#254= IFCRELDEFINESBYPROPERTIES('0s2TL2ErD3puWXhfEdcaaO',#5,$,$,(#71),#241);
#255= IFCRELDEFINESBYPROPERTIES('1QLgLAXpv1dQ4q01w5At4R',#5,$,$,(#71),#242);
#256= IFCRELASSOCIATESMATERIAL('0onicknD12ERgR4UAKWCFZ',#5,$,$,(#71),#243);
ENDSEC;

END-ISO-10303-21;
