ISO-10303-21;
HEADER;
FILE_DESCRIPTION(('ViewDefinition[AISC_Steel_Detailing]', 'Option [BaseQuantities:Off]', 'Option [GridExport:On]', 'Option [Assemblies:Off]', 'Option [Bolts:On]', 'Option [Rebars:On]', 'Option [PourObjects:Off]', 'Option [Welds:On]', 'Option [SurfaceTreatments:On]', 'Option [LocationBy:0]', 'Option [ViewColors:Off]', 'Option [SectionedSpine:Off]', 'Option [PropertySets:On]', 'Option [Export all:Off]'),'2;1');
FILE_NAME('b_133_Qty_1.ifc','2026-05-16T11:53:19',('GIOVANNIPC\\gcorrea'),('Structural Designer'),'IFC Database version: Work','Tekla Structures 2020 Service Pack 5, IFC Export Version: 4.0.0.0 Dec  7 2020','');
FILE_SCHEMA(('IFC2X3'));
ENDSEC;

DATA;
#1= IFCPERSON('GIOVANNIPC\\gcorrea','Undefined',$,$,$,$,$,$);
#2= IFCORGANIZATION($,'Trimble Solutions Corporation',$,$,$);
#3= IFCPERSONANDORGANIZATION(#1,#2,$);
#4= IFCAPPLICATION(#2,'2020 Service Pack 5','Tekla Structures','Multi material modeling');
#5= IFCOWNERHISTORY(#3,#4,$,.NOCHANGE.,$,$,$,1778950399);
#6= IFCCARTESIANPOINT((0.,0.,0.));
#7= IFCDIRECTION((1.,0.,0.));
#8= IFCDIRECTION((0.,1.,0.));
#9= IFCDIRECTION((0.,0.,1.));
#10= IFCAXIS2PLACEMENT3D(#6,#9,#7);
#11= IFCGEOMETRICREPRESENTATIONCONTEXT($,'Model',3,1.E-05,#10,$);
#12= IFCGEOMETRICREPRESENTATIONSUBCONTEXT('Body','Model',*,*,*,*,#11,$,.MODEL_VIEW.,$);
#13= IFCGEOMETRICREPRESENTATIONSUBCONTEXT('Axis','Model',*,*,*,*,#11,$,.GRAPH_VIEW.,$);
#14= IFCGEOMETRICREPRESENTATIONSUBCONTEXT('FootPrint','Model',*,*,*,*,#11,$,.MODEL_VIEW.,$);
#15= IFCSIUNIT(*,.LENGTHUNIT.,.MILLI.,.METRE.);
#16= IFCMEASUREWITHUNIT(IFCRATIOMEASURE(304.8),#15);
#17= IFCDIMENSIONALEXPONENTS(1,0,0,0,0,0,0);
#18= IFCCONVERSIONBASEDUNIT(#17,.LENGTHUNIT.,'FOOT',#16);
#19= IFCSIUNIT(*,.AREAUNIT.,$,.SQUARE_METRE.);
#20= IFCMEASUREWITHUNIT(IFCRATIOMEASURE(0.09290304),#19);
#21= IFCDIMENSIONALEXPONENTS(2,0,0,0,0,0,0);
#22= IFCCONVERSIONBASEDUNIT(#21,.AREAUNIT.,'SQUARE FOOT',#20);
#23= IFCSIUNIT(*,.VOLUMEUNIT.,$,.CUBIC_METRE.);
#24= IFCMEASUREWITHUNIT(IFCRATIOMEASURE(0.028316846592),#23);
#25= IFCDIMENSIONALEXPONENTS(3,0,0,0,0,0,0);
#26= IFCCONVERSIONBASEDUNIT(#25,.VOLUMEUNIT.,'CUBIC FOOT',#24);
#27= IFCSIUNIT(*,.MASSUNIT.,.KILO.,.GRAM.);
#28= IFCSIUNIT(*,.TIMEUNIT.,$,.SECOND.);
#29= IFCSIUNIT(*,.PLANEANGLEUNIT.,$,.RADIAN.);
#30= IFCMEASUREWITHUNIT(IFCRATIOMEASURE(0.0174532925199433),#29);
#31= IFCDIMENSIONALEXPONENTS(0,0,0,0,0,0,0);
#32= IFCCONVERSIONBASEDUNIT(#31,.PLANEANGLEUNIT.,'DEGREE',#30);
#33= IFCSIUNIT(*,.SOLIDANGLEUNIT.,$,.STERADIAN.);
#34= IFCSIUNIT(*,.THERMODYNAMICTEMPERATUREUNIT.,$,.DEGREE_CELSIUS.);
#35= IFCSIUNIT(*,.LUMINOUSINTENSITYUNIT.,$,.LUMEN.);
#36= IFCUNITASSIGNMENT((#15,#19,#23,#27,#28,#29,#33,#34,#35));
#37= IFCPROJECT('2G7ZFDNE16yBDU14FA92Me',#5,'Proyecto',$,$,$,$,(#11),#36);
#38= IFCLOCALPLACEMENT($,#10);
#39= IFCSITE('2xvEzEinjBTea80yOTcujY',#5,'Obra',$,$,#38,$,$,.ELEMENT.,$,$,$,$,$);
#40= IFCLOCALPLACEMENT(#38,#10);
#41= IFCBUILDING('1ZwxoP7mnE1hLOX5OlKixo',#5,'Undefined',$,$,#40,$,$,.ELEMENT.,$,$,$);
#42= IFCLOCALPLACEMENT(#40,#10);
#43= IFCBUILDINGSTOREY('29hdEUCErFze9E_VIAceOd',#5,'Undefined',$,$,#42,$,$,.ELEMENT.,0.);
#44= IFCOWNERHISTORY(#3,#4,$,.NOCHANGE.,$,$,$,1773090000);
#45= IFCCARTESIANPOINT((68000.,1824.77194695638,13675.));
#46= IFCAXIS2PLACEMENT3D(#45,#9,#8);
#47= IFCLOCALPLACEMENT(#42,#46);
#48= IFCDIRECTION((1.,0.));
#49= IFCCARTESIANPOINT((0.,0.));
#50= IFCAXIS2PLACEMENT2D(#49,#48);
#51= IFCISHAPEPROFILEDEF(.AREA.,'IPE450',#50,190.,450.,9.399999619,14.60000038,21.);
#52= IFCDIRECTION((0.,-1.,0.));
#53= IFCDIRECTION((-1.,0.,0.));
#54= IFCCARTESIANPOINT((6385.3611744849,0.,0.));
#55= IFCAXIS2PLACEMENT3D(#54,#53,#52);
#56= IFCEXTRUDEDAREASOLID(#51,#55,#9,6383.94);
#57= IFCCARTESIANPOINT((6235.36117857008,-95.,-225.));
#58= IFCAXIS2PLACEMENT3D(#57,#7,#9);
#59= IFCPLANE(#58);
#60= IFCHALFSPACESOLID(#59,.F.);
#61= IFCBOOLEANCLIPPINGRESULT(.DIFFERENCE.,#56,#60);
#62= IFCCARTESIANPOINT((1.41856976406143,0.0905314752599224,-325.));
#63= IFCAXIS2PLACEMENT3D(#62,#7,#52);
#64= IFCPLANE(#63);
#65= IFCHALFSPACESOLID(#64,.T.);
#66= IFCBOOLEANCLIPPINGRESULT(.DIFFERENCE.,#61,#65);
#67= IFCSHAPEREPRESENTATION(#12,'Body','Clipping',(#66));
#68= IFCPRODUCTDEFINITIONSHAPE($,$,(#67));
#69= IFCBEAM('2f$9H2MN12BvR__FRxDjox',#44,'BEAM','IPE450','IPE450',#47,#68,'IDa9fc9442-5970-422f-96fe-f8f6fb36dcbb');
#70= IFCLOCALPLACEMENT(#42,#46);
#71= IFCRECTANGLEPROFILEDEF(.AREA.,'PL108*12.1',#50,12.1,108.);
#72= IFCDIRECTION((0.,0.,-1.));
#73= IFCCARTESIANPOINT((-14.5320428118257,43.2197912621778,226.));
#74= IFCAXIS2PLACEMENT3D(#73,#72,#7);
#75= IFCEXTRUDEDAREASOLID(#71,#74,#9,452.);
#76= IFCSHAPEREPRESENTATION(#12,'Body','SweptSolid',(#75));
#77= IFCPRODUCTDEFINITIONSHAPE($,$,(#76));
#78= IFCOPENINGELEMENT('2JEQtPHC53yhhVKiWbG$fy',#5,$,$,'Recess',#70,#77,$);
#79= IFCRELVOIDSELEMENT('1_7ccjauT2bxEO0CzcyqIg',#5,$,$,#69,#78);
#80= IFCPROPERTYSINGLEVALUE('FeatureSubTypes',$,$,$);
#81= IFCPROPERTYSINGLEVALUE('RectangleOpeningWidth',$,IFCPOSITIVELENGTHMEASURE(12.1),$);
#82= IFCPROPERTYSINGLEVALUE('RectangleOpeningHeight',$,IFCPOSITIVELENGTHMEASURE(108.),$);
#83= IFCPROPERTYSINGLEVALUE('OpeningDiameter',$,$,$);
#84= IFCPROPERTYSET('15ZKKL20L8JuYSlbGWJjll',#5,'AISC_EM11_Pset_Opening/Cope',$,(#80,#81,#82,#83));
#85= IFCLOCALPLACEMENT(#42,#46);
#86= IFCRECTANGLEPROFILEDEF(.AREA.,'PL109.1*12.1',#50,12.1,109.1);
#87= IFCCARTESIANPOINT((-14.5320428118257,-41.3426345431799,226.));
#88= IFCAXIS2PLACEMENT3D(#87,#72,#7);
#89= IFCEXTRUDEDAREASOLID(#86,#88,#9,452.);
#90= IFCSHAPEREPRESENTATION(#12,'Body','SweptSolid',(#89));
#91= IFCPRODUCTDEFINITIONSHAPE($,$,(#90));
#92= IFCOPENINGELEMENT('2uaTfRhi9EFAWjwON3lq3f',#5,$,$,'Recess',#85,#91,$);
#93= IFCRELVOIDSELEMENT('0O_Hjp$mfDUeSJdJcl0d3q',#5,$,$,#69,#92);
#94= IFCPROPERTYSINGLEVALUE('RectangleOpeningHeight',$,IFCPOSITIVELENGTHMEASURE(109.1),$);
#95= IFCPROPERTYSET('3EmS81VXbDXwZB7H0e24rX',#5,'AISC_EM11_Pset_Opening/Cope',$,(#80,#81,#94,#83));
#96= IFCCARTESIANPOINT((68000.,1864.77194695638,13450.));
#97= IFCDIRECTION((-0.999999779160706,-0.000664589000114577,0.));
#98= IFCDIRECTION((-0.000664589000114556,0.999999779160706,0.));
#99= IFCAXIS2PLACEMENT3D(#96,#97,#98);
#100= IFCLOCALPLACEMENT(#42,#99);
#101= IFCCIRCLEPROFILEDEF(.AREA.,$,#50,11.5);
#102= IFCCARTESIANPOINT((0.,-14.70000038,0.));
#103= IFCAXIS2PLACEMENT3D(#102,#8,#7);
#104= IFCEXTRUDEDAREASOLID(#101,#103,#9,14.8);
#105= IFCSHAPEREPRESENTATION(#12,'Body','SweptSolid',(#104));
#106= IFCREPRESENTATIONMAP(#10,#105);
#107= IFCCARTESIANPOINT((-2.27373675443232E-13,0.,49.9999999999418));
#108= IFCCARTESIANTRANSFORMATIONOPERATOR3D($,$,#107,$,$);
#109= IFCMAPPEDITEM(#106,#108);
#110= IFCCARTESIANPOINT((70.000000000015,0.,49.9999999996071));
#111= IFCCARTESIANTRANSFORMATIONOPERATOR3D($,$,#110,$,$);
#112= IFCMAPPEDITEM(#106,#111);
#113= IFCCARTESIANPOINT((140.00000000003,0.,49.9999999992724));
#114= IFCCARTESIANTRANSFORMATIONOPERATOR3D($,$,#113,$,$);
#115= IFCMAPPEDITEM(#106,#114);
#116= IFCCARTESIANPOINT((210.000000000045,0.,49.9999999989377));
#117= IFCCARTESIANTRANSFORMATIONOPERATOR3D($,$,#116,$,$);
#118= IFCMAPPEDITEM(#106,#117);
#119= IFCCARTESIANPOINT((280.00000000006,0.,49.999999998603));
#120= IFCCARTESIANTRANSFORMATIONOPERATOR3D($,$,#119,$,$);
#121= IFCMAPPEDITEM(#106,#120);
#122= IFCCARTESIANPOINT((350.000000000075,0.,49.9999999982683));
#123= IFCCARTESIANTRANSFORMATIONOPERATOR3D($,$,#122,$,$);
#124= IFCMAPPEDITEM(#106,#123);
#125= IFCCARTESIANPOINT((420.00000000009,0.,49.9999999979336));
#126= IFCCARTESIANTRANSFORMATIONOPERATOR3D($,$,#125,$,$);
#127= IFCMAPPEDITEM(#106,#126);
#128= IFCCARTESIANPOINT((2.27373675443232E-13,0.,-49.9999999999418));
#129= IFCCARTESIANTRANSFORMATIONOPERATOR3D($,$,#128,$,$);
#130= IFCMAPPEDITEM(#106,#129);
#131= IFCCARTESIANPOINT((70.0000000000152,0.,-50.0000000002765));
#132= IFCCARTESIANTRANSFORMATIONOPERATOR3D($,$,#131,$,$);
#133= IFCMAPPEDITEM(#106,#132);
#134= IFCCARTESIANPOINT((140.00000000003,0.,-50.0000000006112));
#135= IFCCARTESIANTRANSFORMATIONOPERATOR3D($,$,#134,$,$);
#136= IFCMAPPEDITEM(#106,#135);
#137= IFCCARTESIANPOINT((210.000000000045,0.,-50.0000000009459));
#138= IFCCARTESIANTRANSFORMATIONOPERATOR3D($,$,#137,$,$);
#139= IFCMAPPEDITEM(#106,#138);
#140= IFCCARTESIANPOINT((280.00000000006,0.,-50.0000000012806));
#141= IFCCARTESIANTRANSFORMATIONOPERATOR3D($,$,#140,$,$);
#142= IFCMAPPEDITEM(#106,#141);
#143= IFCCARTESIANPOINT((350.000000000075,0.,-50.0000000016153));
#144= IFCCARTESIANTRANSFORMATIONOPERATOR3D($,$,#143,$,$);
#145= IFCMAPPEDITEM(#106,#144);
#146= IFCCARTESIANPOINT((420.00000000009,0.,-50.00000000195));
#147= IFCCARTESIANTRANSFORMATIONOPERATOR3D($,$,#146,$,$);
#148= IFCMAPPEDITEM(#106,#147);
#149= IFCSHAPEREPRESENTATION(#12,'Body','MappedRepresentation',(#109,#112,#115,#118,#121,#124,#127,#130,#133,#136,#139,#142,#145,#148));
#150= IFCPRODUCTDEFINITIONSHAPE($,$,(#149));
#151= IFCOPENINGELEMENT('0LYMZcfu50avtwsnM$F33n',#5,$,$,'Opening',#100,#150,$);
#152= IFCRELVOIDSELEMENT('1YRydx8TXDNR1oPQ8pN0E_',#5,'Drill Hole',$,#69,#151);
#153= IFCPROPERTYSINGLEVALUE('FeatureSubTypes',$,IFCLABEL('TORNILLO'),$);
#154= IFCPROPERTYSINGLEVALUE('RectangleOpeningWidth',$,$,$);
#155= IFCPROPERTYSINGLEVALUE('RectangleOpeningHeight',$,$,$);
#156= IFCPROPERTYSET('26JCbWLjr34QtOIqX6zDyq',#5,'AISC_EM11_Pset_Opening/Cope',$,(#153,#154,#155,#83));
#157= IFCCARTESIANPOINT((68000.,1864.77194695638,13900.));
#158= IFCDIRECTION((0.999999779160706,0.000664589000114805,0.));
#159= IFCAXIS2PLACEMENT3D(#157,#158,#98);
#160= IFCLOCALPLACEMENT(#42,#159);
#161= IFCSHAPEREPRESENTATION(#12,'Body','MappedRepresentation',(#130,#133,#136,#139,#142,#145,#148,#109,#112,#115,#118,#121,#124,#127));
#162= IFCPRODUCTDEFINITIONSHAPE($,$,(#161));
#163= IFCOPENINGELEMENT('0r3RzKHzb9nxNVd_2RxAIw',#5,$,$,'Opening',#160,#162,$);
#164= IFCRELVOIDSELEMENT('2cZTewV1jDLQjk2wUsQq30',#5,'Drill Hole',$,#69,#163);
#165= IFCCARTESIANPOINT((67999.8960829734,1826.19051672044,13900.));
#166= IFCAXIS2PLACEMENT3D(#165,#8,#72);
#167= IFCLOCALPLACEMENT(#42,#166);
#168= IFCCARTESIANPOINT((0.,-4.90391683609923,0.));
#169= IFCAXIS2PLACEMENT3D(#168,#8,#7);
#170= IFCEXTRUDEDAREASOLID(#101,#169,#9,9.6);
#171= IFCSHAPEREPRESENTATION(#12,'Body','SweptSolid',(#170));
#172= IFCREPRESENTATIONMAP(#10,#171);
#173= IFCCARTESIANPOINT((85.,0.,40.));
#174= IFCCARTESIANTRANSFORMATIONOPERATOR3D($,$,#173,$,$);
#175= IFCMAPPEDITEM(#172,#174);
#176= IFCCARTESIANPOINT((155.,0.,40.));
#177= IFCCARTESIANTRANSFORMATIONOPERATOR3D($,$,#176,$,$);
#178= IFCMAPPEDITEM(#172,#177);
#179= IFCCARTESIANPOINT((225.,0.,40.));
#180= IFCCARTESIANTRANSFORMATIONOPERATOR3D($,$,#179,$,$);
#181= IFCMAPPEDITEM(#172,#180);
#182= IFCCARTESIANPOINT((295.,0.,40.));
#183= IFCCARTESIANTRANSFORMATIONOPERATOR3D($,$,#182,$,$);
#184= IFCMAPPEDITEM(#172,#183);
#185= IFCCARTESIANPOINT((365.,0.,40.));
#186= IFCCARTESIANTRANSFORMATIONOPERATOR3D($,$,#185,$,$);
#187= IFCMAPPEDITEM(#172,#186);
#188= IFCSHAPEREPRESENTATION(#12,'Body','MappedRepresentation',(#175,#178,#181,#184,#187));
#189= IFCPRODUCTDEFINITIONSHAPE($,$,(#188));
#190= IFCOPENINGELEMENT('2VEPCh2q167O_V85WAA0wp',#5,$,$,'Opening',#167,#189,$);
#191= IFCRELVOIDSELEMENT('1$YORCe4vCeP9CDqCXqpbA',#5,'Drill Hole',$,#69,#190);
#192= IFCPROPERTYSINGLEVALUE('PieceMark',$,IFCIDENTIFIER('BEAM'),$);
#193= IFCPROPERTYSINGLEVALUE('IndicationMark',$,IFCIDENTIFIER('b/133'),$);
#194= IFCPROPERTYSINGLEVALUE('PrelimMark',$,IFCIDENTIFIER(''),$);
#195= IFCPROPERTYSINGLEVALUE('MainPieceTag',$,IFCBOOLEAN(.T.),$);
#196= IFCPROPERTYSET('1h6JyX54X6qxDgu5Uz6IQe',#5,'AISC_EM11_Pset_PieceIdentification','PieceIdentity',(#192,#193,#194,#195));
#197= IFCPROPERTYSINGLEVALUE('MaterialType',$,IFCIDENTIFIER('STEEL'),$);
#198= IFCPROPERTYSINGLEVALUE('MaterialGrade',$,IFCIDENTIFIER('S235JR'),$);
#199= IFCPROPERTYSET('1eeVjVu$bFARPqf_U2pWka',#5,'AISC_EM11_Pset_Material',$,(#197,#198));
#200= IFCPROPERTYSINGLEVALUE('SkewedAngleY',$,IFCREAL(0.),$);
#201= IFCPROPERTYSINGLEVALUE('SkewedAngleX',$,IFCREAL(0.),$);
#202= IFCPROPERTYSET('0PpapLN3z1BQI0za3ZL_t_',#5,'AISC_EM11_Pset_SkewedEnd',$,(#200,#201));
#203= IFCPROPERTYSET('3t4bT4A_f7D8rkhtZmtgh7',#5,'AISC_EM11_Pset_SkewedEnd_2',$,(#200,#201));
#204= IFCMATERIAL('STEEL/S235JR');
#205= IFCRELAGGREGATES('3BGWpQKB18uAC2l6vZ0Vma',#5,$,$,#37,(#39));
#206= IFCRELAGGREGATES('2TYo5icTJQASUK1OBrIn2s',#5,$,$,#39,(#41));
#207= IFCRELAGGREGATES('0vrKWi75r8ohYrf68FgUdo',#5,$,$,#41,(#43));
#208= IFCRELCONTAINEDINSPATIALSTRUCTURE('3JJdxg5$93ufLbD_xkBzzm',#5,$,$,(#69),#43);
#209= IFCRELDEFINESBYPROPERTIES('0mvgglPQrFXeyCwOyba2es',#5,$,$,(#78),#84);
#210= IFCRELDEFINESBYPROPERTIES('1nrUmGyND83BdbrSgHZWU_',#5,$,$,(#92),#95);
#211= IFCRELDEFINESBYPROPERTIES('12XPL1Ljb36gVm99h5VUuN',#5,$,$,(#190,#163,#151),#156);
#212= IFCRELDEFINESBYPROPERTIES('3a3cbtEHv72O1holDZ93zi',#5,$,$,(#69),#196);
#213= IFCRELDEFINESBYPROPERTIES('1$YZr1iYH9kg55pofWAjcO',#5,$,$,(#69),#199);
#214= IFCRELDEFINESBYPROPERTIES('3msI3YyyH2p9G37BztlThn',#5,$,$,(#69),#202);
#215= IFCRELDEFINESBYPROPERTIES('2One6JLgvB28usfRZDY4w0',#5,$,$,(#69),#203);
#216= IFCRELASSOCIATESMATERIAL('1OnGW7YYH13Pq12xD2Ar$V',#5,$,$,(#69),#204);
ENDSEC;

END-ISO-10303-21;
