ISO-10303-21;
HEADER;
FILE_DESCRIPTION(('ViewDefinition[AISC_Steel_Detailing]', 'Option [BaseQuantities:Off]', 'Option [GridExport:On]', 'Option [Assemblies:Off]', 'Option [Bolts:On]', 'Option [Rebars:On]', 'Option [PourObjects:Off]', 'Option [Welds:On]', 'Option [SurfaceTreatments:On]', 'Option [LocationBy:0]', 'Option [ViewColors:Off]', 'Option [SectionedSpine:Off]', 'Option [PropertySets:On]', 'Option [Export all:Off]'),'2;1');
FILE_NAME('b_130_Qty_1.ifc','2026-05-16T11:53:19',('GIOVANNIPC\\gcorrea'),('Structural Designer'),'IFC Database version: Work','Tekla Structures 2020 Service Pack 5, IFC Export Version: 4.0.0.0 Dec  7 2020','');
FILE_SCHEMA(('IFC2X3'));
ENDSEC;

DATA;
#1= IFCPERSON('GIOVANNIPC\\gcorrea','Undefined',$,$,$,$,$,$);
#2= IFCORGANIZATION($,'Trimble Solutions Corporation',$,$,$);
#3= IFCPERSONANDORGANIZATION(#1,#2,$);
#4= IFCAPPLICATION(#2,'2020 Service Pack 5','Tekla Structures','Multi material modeling');
#5= IFCOWNERHISTORY(#3,#4,$,.NOCHANGE.,$,$,$,1778950399);
#6= IFCCARTESIANPOINT((0.,0.,0.));
#7= IFCDIRECTION((1.,0.,0.));
#8= IFCDIRECTION((0.,1.,0.));
#9= IFCDIRECTION((0.,0.,1.));
#10= IFCAXIS2PLACEMENT3D(#6,#9,#7);
#11= IFCGEOMETRICREPRESENTATIONCONTEXT($,'Model',3,1.E-05,#10,$);
#12= IFCGEOMETRICREPRESENTATIONSUBCONTEXT('Body','Model',*,*,*,*,#11,$,.MODEL_VIEW.,$);
#13= IFCGEOMETRICREPRESENTATIONSUBCONTEXT('Axis','Model',*,*,*,*,#11,$,.GRAPH_VIEW.,$);
#14= IFCGEOMETRICREPRESENTATIONSUBCONTEXT('FootPrint','Model',*,*,*,*,#11,$,.MODEL_VIEW.,$);
#15= IFCSIUNIT(*,.LENGTHUNIT.,.MILLI.,.METRE.);
#16= IFCMEASUREWITHUNIT(IFCRATIOMEASURE(304.8),#15);
#17= IFCDIMENSIONALEXPONENTS(1,0,0,0,0,0,0);
#18= IFCCONVERSIONBASEDUNIT(#17,.LENGTHUNIT.,'FOOT',#16);
#19= IFCSIUNIT(*,.AREAUNIT.,$,.SQUARE_METRE.);
#20= IFCMEASUREWITHUNIT(IFCRATIOMEASURE(0.09290304),#19);
#21= IFCDIMENSIONALEXPONENTS(2,0,0,0,0,0,0);
#22= IFCCONVERSIONBASEDUNIT(#21,.AREAUNIT.,'SQUARE FOOT',#20);
#23= IFCSIUNIT(*,.VOLUMEUNIT.,$,.CUBIC_METRE.);
#24= IFCMEASUREWITHUNIT(IFCRATIOMEASURE(0.028316846592),#23);
#25= IFCDIMENSIONALEXPONENTS(3,0,0,0,0,0,0);
#26= IFCCONVERSIONBASEDUNIT(#25,.VOLUMEUNIT.,'CUBIC FOOT',#24);
#27= IFCSIUNIT(*,.MASSUNIT.,.KILO.,.GRAM.);
#28= IFCSIUNIT(*,.TIMEUNIT.,$,.SECOND.);
#29= IFCSIUNIT(*,.PLANEANGLEUNIT.,$,.RADIAN.);
#30= IFCMEASUREWITHUNIT(IFCRATIOMEASURE(0.0174532925199433),#29);
#31= IFCDIMENSIONALEXPONENTS(0,0,0,0,0,0,0);
#32= IFCCONVERSIONBASEDUNIT(#31,.PLANEANGLEUNIT.,'DEGREE',#30);
#33= IFCSIUNIT(*,.SOLIDANGLEUNIT.,$,.STERADIAN.);
#34= IFCSIUNIT(*,.THERMODYNAMICTEMPERATUREUNIT.,$,.DEGREE_CELSIUS.);
#35= IFCSIUNIT(*,.LUMINOUSINTENSITYUNIT.,$,.LUMEN.);
#36= IFCUNITASSIGNMENT((#15,#19,#23,#27,#28,#29,#33,#34,#35));
#37= IFCPROJECT('2G7ZFDNE16yBDU14FA92Me',#5,'Proyecto',$,$,$,$,(#11),#36);
#38= IFCLOCALPLACEMENT($,#10);
#39= IFCSITE('2xvEzEinjBTea80yOTcujY',#5,'Obra',$,$,#38,$,$,.ELEMENT.,$,$,$,$,$);
#40= IFCLOCALPLACEMENT(#38,#10);
#41= IFCBUILDING('3j7tnslTHFwwSPe1KsW0iS',#5,'Undefined',$,$,#40,$,$,.ELEMENT.,$,$,$);
#42= IFCLOCALPLACEMENT(#40,#10);
#43= IFCBUILDINGSTOREY('29hdEUCErFze9E_VIAceOd',#5,'Undefined',$,$,#42,$,$,.ELEMENT.,0.);
#44= IFCOWNERHISTORY(#3,#4,$,.NOCHANGE.,$,$,$,1772823600);
#45= IFCCARTESIANPOINT((55380.7721833218,1698.33637960535,13680.));
#46= IFCAXIS2PLACEMENT3D(#45,#9,#8);
#47= IFCLOCALPLACEMENT(#42,#46);
#48= IFCDIRECTION((1.,0.));
#49= IFCCARTESIANPOINT((0.,0.));
#50= IFCAXIS2PLACEMENT2D(#49,#48);
#51= IFCISHAPEPROFILEDEF(.AREA.,'HEA450',#50,300.,440.,11.5,21.,27.);
#52= IFCDIRECTION((0.,-1.,0.));
#53= IFCDIRECTION((-1.,0.,0.));
#54= IFCCARTESIANPOINT((7127.61140853943,0.,-1.81898940354586E-12));
#55= IFCAXIS2PLACEMENT3D(#54,#53,#52);
#56= IFCEXTRUDEDAREASOLID(#51,#55,#9,7207.91);
#57= IFCDIRECTION((0.999999999937672,1.11649999991837E-05,0.));
#58= IFCCARTESIANPOINT((-80.3000002119354,0.000110385764855891,-320.000000000002));
#59= IFCDIRECTION((1.11649999991837E-05,-0.999999999937671,0.));
#60= IFCAXIS2PLACEMENT3D(#58,#57,#59);
#61= IFCPLANE(#60);
#62= IFCHALFSPACESOLID(#61,.T.);
#63= IFCBOOLEANCLIPPINGRESULT(.DIFFERENCE.,#56,#62);
#64= IFCSHAPEREPRESENTATION(#12,'Body','Clipping',(#63));
#65= IFCPRODUCTDEFINITIONSHAPE($,$,(#64));
#66= IFCBEAM('0b0VgDNBH2BQo57AHeAHi5',#44,'BEAM','HEA450','HEA450',#47,#65,'ID2501fa8d-5cb4-422d-ac85-1ca468291b05');
#67= IFCLOCALPLACEMENT(#42,#46);
#68= IFCRECTANGLEPROFILEDEF(.AREA.,'PL49*102.3',#50,49.,102.3);
#69= IFCDIRECTION((0.,0.,-1.));
#70= IFCDIRECTION((-1.11649999991913E-05,0.999999999937672,0.));
#71= IFCCARTESIANPOINT((-41.1483133223779,-151.07705325549,-196.500000000002));
#72= IFCAXIS2PLACEMENT3D(#71,#70,#69);
#73= IFCEXTRUDEDAREASOLID(#68,#72,#9,302.08);
#74= IFCSHAPEREPRESENTATION(#12,'Body','SweptSolid',(#73));
#75= IFCPRODUCTDEFINITIONSHAPE($,$,(#74));
#76= IFCOPENINGELEMENT('2J0Nssncb6zvU_DvWzth04',#5,$,$,'Recess',#67,#75,$);
#77= IFCRELVOIDSELEMENT('0hNHKezhv0Z9hNGczV2OLP',#5,$,$,#66,#76);
#78= IFCPROPERTYSINGLEVALUE('FeatureSubTypes',$,$,$);
#79= IFCPROPERTYSINGLEVALUE('RectangleOpeningWidth',$,IFCPOSITIVELENGTHMEASURE(49.),$);
#80= IFCPROPERTYSINGLEVALUE('RectangleOpeningHeight',$,IFCPOSITIVELENGTHMEASURE(102.3),$);
#81= IFCPROPERTYSINGLEVALUE('OpeningDiameter',$,$,$);
#82= IFCPROPERTYSET('3rjb7O89D58fLGDJqnbrrj',#5,'AISC_EM11_Pset_Opening/Cope',$,(#78,#79,#80,#81));
#83= IFCLOCALPLACEMENT(#42,#46);
#84= IFCCARTESIANPOINT((-41.1483133223779,-151.07705325549,196.499999999998));
#85= IFCAXIS2PLACEMENT3D(#84,#70,#69);
#86= IFCEXTRUDEDAREASOLID(#68,#85,#9,302.08);
#87= IFCSHAPEREPRESENTATION(#12,'Body','SweptSolid',(#86));
#88= IFCPRODUCTDEFINITIONSHAPE($,$,(#87));
#89= IFCOPENINGELEMENT('1ByJL36fr4wQ_8rVHCTy8r',#5,$,$,'Recess',#83,#88,$);
#90= IFCRELVOIDSELEMENT('1sTIAaxCD47P9SN1qrbbFs',#5,$,$,#66,#89);
#91= IFCCARTESIANPOINT((55380.7721822118,1748.3363795111,13900.));
#92= IFCDIRECTION((0.999999803481876,0.000626926000306638,0.));
#93= IFCDIRECTION((-0.000626926000306636,0.999999803481876,0.));
#94= IFCAXIS2PLACEMENT3D(#91,#92,#93);
#95= IFCLOCALPLACEMENT(#42,#94);
#96= IFCCIRCLEPROFILEDEF(.AREA.,$,#50,11.);
#97= IFCCARTESIANPOINT((0.,-21.0999999999992,0.));
#98= IFCAXIS2PLACEMENT3D(#97,#8,#7);
#99= IFCEXTRUDEDAREASOLID(#96,#98,#9,21.2);
#100= IFCSHAPEREPRESENTATION(#12,'Body','SweptSolid',(#99));
#101= IFCREPRESENTATIONMAP(#10,#100);
#102= IFCCARTESIANPOINT((0.,0.,-75.0000000002692));
#103= IFCCARTESIANTRANSFORMATIONOPERATOR3D($,$,#102,$,$);
#104= IFCMAPPEDITEM(#101,#103);
#105= IFCCARTESIANPOINT((69.999999999995,0.,-75.00000000008));
#106= IFCCARTESIANTRANSFORMATIONOPERATOR3D($,$,#105,$,$);
#107= IFCMAPPEDITEM(#101,#106);
#108= IFCCARTESIANPOINT((139.99999999999,0.,-74.9999999998909));
#109= IFCCARTESIANTRANSFORMATIONOPERATOR3D($,$,#108,$,$);
#110= IFCMAPPEDITEM(#101,#109);
#111= IFCCARTESIANPOINT((209.999999999985,0.,-74.9999999996944));
#112= IFCCARTESIANTRANSFORMATIONOPERATOR3D($,$,#111,$,$);
#113= IFCMAPPEDITEM(#101,#112);
#114= IFCCARTESIANPOINT((279.99999999998,0.,-74.9999999995052));
#115= IFCCARTESIANTRANSFORMATIONOPERATOR3D($,$,#114,$,$);
#116= IFCMAPPEDITEM(#101,#115);
#117= IFCCARTESIANPOINT((349.999999999975,0.,-74.9999999993161));
#118= IFCCARTESIANTRANSFORMATIONOPERATOR3D($,$,#117,$,$);
#119= IFCMAPPEDITEM(#101,#118);
#120= IFCCARTESIANPOINT((419.99999999997,0.,-74.9999999991269));
#121= IFCCARTESIANTRANSFORMATIONOPERATOR3D($,$,#120,$,$);
#122= IFCMAPPEDITEM(#101,#121);
#123= IFCCARTESIANPOINT((0.,0.,75.0000000002692));
#124= IFCCARTESIANTRANSFORMATIONOPERATOR3D($,$,#123,$,$);
#125= IFCMAPPEDITEM(#101,#124);
#126= IFCCARTESIANPOINT((69.999999999995,0.,75.0000000004584));
#127= IFCCARTESIANTRANSFORMATIONOPERATOR3D($,$,#126,$,$);
#128= IFCMAPPEDITEM(#101,#127);
#129= IFCCARTESIANPOINT((139.99999999999,0.,75.0000000006476));
#130= IFCCARTESIANTRANSFORMATIONOPERATOR3D($,$,#129,$,$);
#131= IFCMAPPEDITEM(#101,#130);
#132= IFCCARTESIANPOINT((209.999999999985,0.,75.0000000008367));
#133= IFCCARTESIANTRANSFORMATIONOPERATOR3D($,$,#132,$,$);
#134= IFCMAPPEDITEM(#101,#133);
#135= IFCCARTESIANPOINT((279.99999999998,0.,75.0000000010332));
#136= IFCCARTESIANTRANSFORMATIONOPERATOR3D($,$,#135,$,$);
#137= IFCMAPPEDITEM(#101,#136);
#138= IFCCARTESIANPOINT((349.999999999975,0.,75.0000000012224));
#139= IFCCARTESIANTRANSFORMATIONOPERATOR3D($,$,#138,$,$);
#140= IFCMAPPEDITEM(#101,#139);
#141= IFCCARTESIANPOINT((419.99999999997,0.,75.0000000014115));
#142= IFCCARTESIANTRANSFORMATIONOPERATOR3D($,$,#141,$,$);
#143= IFCMAPPEDITEM(#101,#142);
#144= IFCSHAPEREPRESENTATION(#12,'Body','MappedRepresentation',(#104,#107,#110,#113,#116,#119,#122,#125,#128,#131,#134,#137,#140,#143));
#145= IFCPRODUCTDEFINITIONSHAPE($,$,(#144));
#146= IFCOPENINGELEMENT('3pFSBbY0P4zghxdF5TKJIT',#5,$,$,'Opening',#95,#145,$);
#147= IFCRELVOIDSELEMENT('3$V$vxvk52r9WLTL$NG2uN',#5,'Drill Hole',$,#66,#146);
#148= IFCPROPERTYSINGLEVALUE('FeatureSubTypes',$,IFCLABEL('TORNILLO'),$);
#149= IFCPROPERTYSINGLEVALUE('RectangleOpeningWidth',$,$,$);
#150= IFCPROPERTYSINGLEVALUE('RectangleOpeningHeight',$,$,$);
#151= IFCPROPERTYSET('1u6dJUpHzANOqOejwmC2IW',#5,'AISC_EM11_Pset_Opening/Cope',$,(#148,#149,#150,#81));
#152= IFCCARTESIANPOINT((55380.7721822118,1748.3363795111,13450.));
#153= IFCAXIS2PLACEMENT3D(#152,#7,#8);
#154= IFCLOCALPLACEMENT(#42,#153);
#155= IFCCARTESIANPOINT((0.,9.90000000000057,0.));
#156= IFCAXIS2PLACEMENT3D(#155,#8,#7);
#157= IFCEXTRUDEDAREASOLID(#96,#156,#9,21.2);
#158= IFCSHAPEREPRESENTATION(#12,'Body','SweptSolid',(#157));
#159= IFCREPRESENTATIONMAP(#10,#158);
#160= IFCMAPPEDITEM(#159,#103);
#161= IFCMAPPEDITEM(#159,#106);
#162= IFCMAPPEDITEM(#159,#109);
#163= IFCMAPPEDITEM(#159,#112);
#164= IFCMAPPEDITEM(#159,#115);
#165= IFCMAPPEDITEM(#159,#118);
#166= IFCMAPPEDITEM(#159,#121);
#167= IFCMAPPEDITEM(#159,#124);
#168= IFCMAPPEDITEM(#159,#127);
#169= IFCMAPPEDITEM(#159,#130);
#170= IFCMAPPEDITEM(#159,#133);
#171= IFCMAPPEDITEM(#159,#136);
#172= IFCMAPPEDITEM(#159,#139);
#173= IFCMAPPEDITEM(#159,#142);
#174= IFCSHAPEREPRESENTATION(#12,'Body','MappedRepresentation',(#160,#161,#162,#163,#164,#165,#166,#167,#168,#169,#170,#171,#172,#173));
#175= IFCPRODUCTDEFINITIONSHAPE($,$,(#174));
#176= IFCOPENINGELEMENT('2ON4Tn4yDD$g$gKXpV$KBC',#5,$,$,'Opening',#154,#175,$);
#177= IFCRELVOIDSELEMENT('3EfHQat19A_eDabmQYOv1z',#5,'Drill Hole',$,#66,#176);
#178= IFCCARTESIANPOINT((55380.7723037452,1618.03637939591,13900.));
#179= IFCAXIS2PLACEMENT3D(#178,#70,#69);
#180= IFCLOCALPLACEMENT(#42,#179);
#181= IFCCIRCLEPROFILEDEF(.AREA.,$,#50,11.5);
#182= IFCCARTESIANPOINT((0.,-5.85033453018111,0.));
#183= IFCAXIS2PLACEMENT3D(#182,#8,#7);
#184= IFCEXTRUDEDAREASOLID(#181,#183,#9,11.7);
#185= IFCSHAPEREPRESENTATION(#12,'Body','SweptSolid',(#184));
#186= IFCREPRESENTATIONMAP(#10,#185);
#187= IFCCARTESIANPOINT((80.,0.,39.9999999999984));
#188= IFCCARTESIANTRANSFORMATIONOPERATOR3D($,$,#187,$,$);
#189= IFCMAPPEDITEM(#186,#188);
#190= IFCCARTESIANPOINT((150.,0.,39.9999999999984));
#191= IFCCARTESIANTRANSFORMATIONOPERATOR3D($,$,#190,$,$);
#192= IFCMAPPEDITEM(#186,#191);
#193= IFCCARTESIANPOINT((220.,0.,39.9999999999984));
#194= IFCCARTESIANTRANSFORMATIONOPERATOR3D($,$,#193,$,$);
#195= IFCMAPPEDITEM(#186,#194);
#196= IFCCARTESIANPOINT((290.,0.,39.9999999999984));
#197= IFCCARTESIANTRANSFORMATIONOPERATOR3D($,$,#196,$,$);
#198= IFCMAPPEDITEM(#186,#197);
#199= IFCCARTESIANPOINT((360.,0.,39.9999999999984));
#200= IFCCARTESIANTRANSFORMATIONOPERATOR3D($,$,#199,$,$);
#201= IFCMAPPEDITEM(#186,#200);
#202= IFCSHAPEREPRESENTATION(#12,'Body','MappedRepresentation',(#189,#192,#195,#198,#201));
#203= IFCPRODUCTDEFINITIONSHAPE($,$,(#202));
#204= IFCOPENINGELEMENT('0KxRtlFvnAwg8pjGw9LtDv',#5,$,$,'Opening',#180,#203,$);
#205= IFCRELVOIDSELEMENT('0AgdAWpiXFGhGX9Js9VCdJ',#5,'Drill Hole',$,#66,#204);
#206= IFCPROPERTYSINGLEVALUE('PieceMark',$,IFCIDENTIFIER('BEAM'),$);
#207= IFCPROPERTYSINGLEVALUE('IndicationMark',$,IFCIDENTIFIER('b/130'),$);
#208= IFCPROPERTYSINGLEVALUE('PrelimMark',$,IFCIDENTIFIER(''),$);
#209= IFCPROPERTYSINGLEVALUE('MainPieceTag',$,IFCBOOLEAN(.T.),$);
#210= IFCPROPERTYSET('3XRagZV0LDDP9LPyvrWIIu',#5,'AISC_EM11_Pset_PieceIdentification','PieceIdentity',(#206,#207,#208,#209));
#211= IFCPROPERTYSINGLEVALUE('MaterialType',$,IFCIDENTIFIER('STEEL'),$);
#212= IFCPROPERTYSINGLEVALUE('MaterialGrade',$,IFCIDENTIFIER('S235JR'),$);
#213= IFCPROPERTYSET('2vPCF5oKv7Yh3nSTS_jTns',#5,'AISC_EM11_Pset_Material',$,(#211,#212));
#214= IFCPROPERTYSINGLEVALUE('SkewedAngleY',$,IFCREAL(0.),$);
#215= IFCPROPERTYSINGLEVALUE('SkewedAngleX',$,IFCREAL(-0.00064),$);
#216= IFCPROPERTYSET('2q4CU7Zeb3MOA0nYYS1bZf',#5,'AISC_EM11_Pset_SkewedEnd',$,(#214,#215));
#217= IFCPROPERTYSINGLEVALUE('SkewedAngleX',$,IFCREAL(0.),$);
#218= IFCPROPERTYSET('2rYTfC2_zAWRjBt9Hb2KjB',#5,'AISC_EM11_Pset_SkewedEnd_2',$,(#214,#217));
#219= IFCMATERIAL('STEEL/S235JR');
#220= IFCRELAGGREGATES('1XVbZQfZP3exCDNVDsICCV',#5,$,$,#37,(#39));
#221= IFCRELAGGREGATES('2pntrixrhLwDUVfnV8aUUn',#5,$,$,#39,(#41));
#222= IFCRELAGGREGATES('1Z1HeLI5LBjAIZAk$Trysz',#5,$,$,#41,(#43));
#223= IFCRELCONTAINEDINSPATIALSTRUCTURE('1THO9aqgD0CwMxYfd90BCZ',#5,$,$,(#66),#43);
#224= IFCRELDEFINESBYPROPERTIES('2tb2zUTbb1ixC9YK8$4DXd',#5,$,$,(#89,#76),#82);
#225= IFCRELDEFINESBYPROPERTIES('0oxzxytAXB2wa$UUccl22l',#5,$,$,(#204,#176,#146),#151);
#226= IFCRELDEFINESBYPROPERTIES('3UvVFxxED7IxTfpdUWMyK2',#5,$,$,(#66),#210);
#227= IFCRELDEFINESBYPROPERTIES('2QrhRt46TFSQLlOQzpuE0R',#5,$,$,(#66),#213);
#228= IFCRELDEFINESBYPROPERTIES('2V6hI$B397JAPe83$RzuGD',#5,$,$,(#66),#216);
#229= IFCRELDEFINESBYPROPERTIES('0q8LHmewX5vwbplCVUBijP',#5,$,$,(#66),#218);
#230= IFCRELASSOCIATESMATERIAL('2DD6yBOx92BBMxtjBs7OIl',#5,$,$,(#66),#219);
ENDSEC;

END-ISO-10303-21;
