ISO-10303-21;
HEADER;
FILE_DESCRIPTION(('ViewDefinition[AISC_Steel_Detailing]', 'Option [BaseQuantities:Off]', 'Option [GridExport:On]', 'Option [Assemblies:Off]', 'Option [Bolts:On]', 'Option [Rebars:On]', 'Option [PourObjects:Off]', 'Option [Welds:On]', 'Option [SurfaceTreatments:On]', 'Option [LocationBy:0]', 'Option [ViewColors:Off]', 'Option [SectionedSpine:Off]', 'Option [PropertySets:On]', 'Option [Export all:Off]'),'2;1');
FILE_NAME('b_148_Qty_1.ifc','2026-05-16T11:53:19',('GIOVANNIPC\\gcorrea'),('Structural Designer'),'IFC Database version: Work','Tekla Structures 2020 Service Pack 5, IFC Export Version: 4.0.0.0 Dec  7 2020','');
FILE_SCHEMA(('IFC2X3'));
ENDSEC;

DATA;
#1= IFCPERSON('GIOVANNIPC\\gcorrea','Undefined',$,$,$,$,$,$);
#2= IFCORGANIZATION($,'Trimble Solutions Corporation',$,$,$);
#3= IFCPERSONANDORGANIZATION(#1,#2,$);
#4= IFCAPPLICATION(#2,'2020 Service Pack 5','Tekla Structures','Multi material modeling');
#5= IFCOWNERHISTORY(#3,#4,$,.NOCHANGE.,$,$,$,1778950399);
#6= IFCCARTESIANPOINT((0.,0.,0.));
#7= IFCDIRECTION((1.,0.,0.));
#8= IFCDIRECTION((0.,1.,0.));
#9= IFCDIRECTION((0.,0.,1.));
#10= IFCAXIS2PLACEMENT3D(#6,#9,#7);
#11= IFCGEOMETRICREPRESENTATIONCONTEXT($,'Model',3,1.E-05,#10,$);
#12= IFCGEOMETRICREPRESENTATIONSUBCONTEXT('Body','Model',*,*,*,*,#11,$,.MODEL_VIEW.,$);
#13= IFCGEOMETRICREPRESENTATIONSUBCONTEXT('Axis','Model',*,*,*,*,#11,$,.GRAPH_VIEW.,$);
#14= IFCGEOMETRICREPRESENTATIONSUBCONTEXT('FootPrint','Model',*,*,*,*,#11,$,.MODEL_VIEW.,$);
#15= IFCSIUNIT(*,.LENGTHUNIT.,.MILLI.,.METRE.);
#16= IFCMEASUREWITHUNIT(IFCRATIOMEASURE(304.8),#15);
#17= IFCDIMENSIONALEXPONENTS(1,0,0,0,0,0,0);
#18= IFCCONVERSIONBASEDUNIT(#17,.LENGTHUNIT.,'FOOT',#16);
#19= IFCSIUNIT(*,.AREAUNIT.,$,.SQUARE_METRE.);
#20= IFCMEASUREWITHUNIT(IFCRATIOMEASURE(0.09290304),#19);
#21= IFCDIMENSIONALEXPONENTS(2,0,0,0,0,0,0);
#22= IFCCONVERSIONBASEDUNIT(#21,.AREAUNIT.,'SQUARE FOOT',#20);
#23= IFCSIUNIT(*,.VOLUMEUNIT.,$,.CUBIC_METRE.);
#24= IFCMEASUREWITHUNIT(IFCRATIOMEASURE(0.028316846592),#23);
#25= IFCDIMENSIONALEXPONENTS(3,0,0,0,0,0,0);
#26= IFCCONVERSIONBASEDUNIT(#25,.VOLUMEUNIT.,'CUBIC FOOT',#24);
#27= IFCSIUNIT(*,.MASSUNIT.,.KILO.,.GRAM.);
#28= IFCSIUNIT(*,.TIMEUNIT.,$,.SECOND.);
#29= IFCSIUNIT(*,.PLANEANGLEUNIT.,$,.RADIAN.);
#30= IFCMEASUREWITHUNIT(IFCRATIOMEASURE(0.0174532925199433),#29);
#31= IFCDIMENSIONALEXPONENTS(0,0,0,0,0,0,0);
#32= IFCCONVERSIONBASEDUNIT(#31,.PLANEANGLEUNIT.,'DEGREE',#30);
#33= IFCSIUNIT(*,.SOLIDANGLEUNIT.,$,.STERADIAN.);
#34= IFCSIUNIT(*,.THERMODYNAMICTEMPERATUREUNIT.,$,.DEGREE_CELSIUS.);
#35= IFCSIUNIT(*,.LUMINOUSINTENSITYUNIT.,$,.LUMEN.);
#36= IFCUNITASSIGNMENT((#15,#19,#23,#27,#28,#29,#33,#34,#35));
#37= IFCPROJECT('2G7ZFDNE16yBDU14FA92Me',#5,'Proyecto',$,$,$,$,(#11),#36);
#38= IFCLOCALPLACEMENT($,#10);
#39= IFCSITE('2xvEzEinjBTea80yOTcujY',#5,'Obra',$,$,#38,$,$,.ELEMENT.,$,$,$,$,$);
#40= IFCLOCALPLACEMENT(#38,#10);
#41= IFCBUILDING('1TEV9cq7X3sR8eQdH7gPQQ',#5,'Undefined',$,$,#40,$,$,.ELEMENT.,$,$,$);
#42= IFCLOCALPLACEMENT(#40,#10);
#43= IFCBUILDINGSTOREY('29hdEUCErFze9E_VIAceOd',#5,'Undefined',$,$,#42,$,$,.ELEMENT.,0.);
#44= IFCOWNERHISTORY(#3,#4,$,.NOCHANGE.,$,$,$,1774645200);
#45= IFCCARTESIANPOINT((42499.9997834091,22165.0992098348,13680.));
#46= IFCAXIS2PLACEMENT3D(#45,#9,#8);
#47= IFCLOCALPLACEMENT(#42,#46);
#48= IFCDIRECTION((1.,0.));
#49= IFCCARTESIANPOINT((0.,0.));
#50= IFCAXIS2PLACEMENT2D(#49,#48);
#51= IFCISHAPEPROFILEDEF(.AREA.,'HEA450',#50,300.,440.,11.5,21.,27.);
#52= IFCDIRECTION((0.,-1.,0.));
#53= IFCDIRECTION((-1.,0.,0.));
#54= IFCCARTESIANPOINT((2160.21509235968,0.,1.81898940354586E-12));
#55= IFCAXIS2PLACEMENT3D(#54,#53,#52);
#56= IFCEXTRUDEDAREASOLID(#51,#55,#9,2162.91);
#57= IFCCARTESIANPOINT((2160.21508195566,-150.000000002394,1.81898940354586E-12));
#58= IFCDIRECTION((0.,0.,-1.));
#59= IFCAXIS2PLACEMENT3D(#57,#53,#58);
#60= IFCPLANE(#59);
#61= IFCHALFSPACESOLID(#60,.T.);
#62= IFCBOOLEANCLIPPINGRESULT(.DIFFERENCE.,#56,#61);
#63= IFCCARTESIANPOINT((-2.69853545140359,6.80003722663969E-07,-319.999999999998));
#64= IFCAXIS2PLACEMENT3D(#63,#7,#52);
#65= IFCPLANE(#64);
#66= IFCHALFSPACESOLID(#65,.T.);
#67= IFCBOOLEANCLIPPINGRESULT(.DIFFERENCE.,#62,#66);
#68= IFCSHAPEREPRESENTATION(#12,'Body','Clipping',(#67));
#69= IFCPRODUCTDEFINITIONSHAPE($,$,(#68));
#70= IFCBEAM('25TqJjFF58AOOfMbsBa04f',#44,'BEAM','HEA450','HEA450',#47,#69,'ID857744ed-3cf1-4829-8629-5a5d8b900129');
#71= IFCCARTESIANPOINT((42499.9999206746,23721.895951723,13919.));
#72= IFCAXIS2PLACEMENT3D(#71,#7,#52);
#73= IFCLOCALPLACEMENT(#42,#72);
#74= IFCCIRCLEPROFILEDEF(.AREA.,$,#50,11.5);
#75= IFCCARTESIANPOINT((0.,18.9,0.));
#76= IFCAXIS2PLACEMENT3D(#75,#8,#7);
#77= IFCEXTRUDEDAREASOLID(#74,#76,#9,21.2);
#78= IFCSHAPEREPRESENTATION(#12,'Body','SweptSolid',(#77));
#79= IFCREPRESENTATIONMAP(#10,#78);
#80= IFCCARTESIANPOINT((0.,0.,75.));
#81= IFCCARTESIANTRANSFORMATIONOPERATOR3D($,$,#80,$,$);
#82= IFCMAPPEDITEM(#79,#81);
#83= IFCCARTESIANPOINT((0.,0.,-75.));
#84= IFCCARTESIANTRANSFORMATIONOPERATOR3D($,$,#83,$,$);
#85= IFCMAPPEDITEM(#79,#84);
#86= IFCSHAPEREPRESENTATION(#12,'Body','MappedRepresentation',(#82,#85));
#87= IFCPRODUCTDEFINITIONSHAPE($,$,(#86));
#88= IFCOPENINGELEMENT('1kNmOde9n26fQN4Vk4urVN',#5,$,$,'Opening',#73,#87,$);
#89= IFCRELVOIDSELEMENT('1XnY95LiXD1QkC56shJjcG',#5,'Drill Hole',$,#70,#88);
#90= IFCPROPERTYSINGLEVALUE('FeatureSubTypes',$,IFCLABEL('TORNILLO'),$);
#91= IFCPROPERTYSINGLEVALUE('RectangleOpeningWidth',$,$,$);
#92= IFCPROPERTYSINGLEVALUE('RectangleOpeningHeight',$,$,$);
#93= IFCPROPERTYSINGLEVALUE('OpeningDiameter',$,$,$);
#94= IFCPROPERTYSET('1aCpCEiv15lRKVmRAFf1TJ',#5,'AISC_EM11_Pset_Opening/Cope',$,(#90,#91,#92,#93));
#95= IFCCARTESIANPOINT((42499.9999206746,24071.884048277,13919.));
#96= IFCAXIS2PLACEMENT3D(#95,#53,#8);
#97= IFCLOCALPLACEMENT(#42,#96);
#98= IFCSHAPEREPRESENTATION(#12,'Body','MappedRepresentation',(#85,#82));
#99= IFCPRODUCTDEFINITIONSHAPE($,$,(#98));
#100= IFCOPENINGELEMENT('2aIvfq8HbBYeSS$3tsFX7M',#5,$,$,'Opening',#97,#99,$);
#101= IFCRELVOIDSELEMENT('0Bm$gH5Kz61vBDdRuprSJv',#5,'Drill Hole',$,#70,#100);
#102= IFCCARTESIANPOINT((42500.0002437442,22207.6634059083,13450.));
#103= IFCAXIS2PLACEMENT3D(#102,#7,#8);
#104= IFCLOCALPLACEMENT(#42,#103);
#105= IFCCARTESIANPOINT((0.,9.9,0.));
#106= IFCAXIS2PLACEMENT3D(#105,#8,#7);
#107= IFCEXTRUDEDAREASOLID(#74,#106,#9,21.2);
#108= IFCSHAPEREPRESENTATION(#12,'Body','SweptSolid',(#107));
#109= IFCREPRESENTATIONMAP(#10,#108);
#110= IFCMAPPEDITEM(#109,#81);
#111= IFCCARTESIANPOINT((75.0000000000073,0.,74.9999999997381));
#112= IFCCARTESIANTRANSFORMATIONOPERATOR3D($,$,#111,$,$);
#113= IFCMAPPEDITEM(#109,#112);
#114= IFCCARTESIANPOINT((150.000000000015,0.,74.9999999994616));
#115= IFCCARTESIANTRANSFORMATIONOPERATOR3D($,$,#114,$,$);
#116= IFCMAPPEDITEM(#109,#115);
#117= IFCCARTESIANPOINT((225.000000000022,0.,74.9999999991924));
#118= IFCCARTESIANTRANSFORMATIONOPERATOR3D($,$,#117,$,$);
#119= IFCMAPPEDITEM(#109,#118);
#120= IFCCARTESIANPOINT((300.000000000029,0.,74.9999999989159));
#121= IFCCARTESIANTRANSFORMATIONOPERATOR3D($,$,#120,$,$);
#122= IFCMAPPEDITEM(#109,#121);
#123= IFCCARTESIANPOINT((375.000000000036,0.,74.9999999986467));
#124= IFCCARTESIANTRANSFORMATIONOPERATOR3D($,$,#123,$,$);
#125= IFCMAPPEDITEM(#109,#124);
#126= IFCCARTESIANPOINT((450.000000000044,0.,74.9999999983702));
#127= IFCCARTESIANTRANSFORMATIONOPERATOR3D($,$,#126,$,$);
#128= IFCMAPPEDITEM(#109,#127);
#129= IFCCARTESIANPOINT((525.000000000051,0.,74.999999998101));
#130= IFCCARTESIANTRANSFORMATIONOPERATOR3D($,$,#129,$,$);
#131= IFCMAPPEDITEM(#109,#130);
#132= IFCCARTESIANPOINT((600.000000000058,0.,74.9999999978245));
#133= IFCCARTESIANTRANSFORMATIONOPERATOR3D($,$,#132,$,$);
#134= IFCMAPPEDITEM(#109,#133);
#135= IFCCARTESIANPOINT((675.000000000065,0.,74.9999999975553));
#136= IFCCARTESIANTRANSFORMATIONOPERATOR3D($,$,#135,$,$);
#137= IFCMAPPEDITEM(#109,#136);
#138= IFCMAPPEDITEM(#109,#84);
#139= IFCCARTESIANPOINT((75.0000000000073,0.,-75.0000000002838));
#140= IFCCARTESIANTRANSFORMATIONOPERATOR3D($,$,#139,$,$);
#141= IFCMAPPEDITEM(#109,#140);
#142= IFCCARTESIANPOINT((150.000000000015,0.,-75.000000000553));
#143= IFCCARTESIANTRANSFORMATIONOPERATOR3D($,$,#142,$,$);
#144= IFCMAPPEDITEM(#109,#143);
#145= IFCCARTESIANPOINT((225.000000000022,0.,-75.0000000008295));
#146= IFCCARTESIANTRANSFORMATIONOPERATOR3D($,$,#145,$,$);
#147= IFCMAPPEDITEM(#109,#146);
#148= IFCCARTESIANPOINT((300.000000000029,0.,-75.0000000010987));
#149= IFCCARTESIANTRANSFORMATIONOPERATOR3D($,$,#148,$,$);
#150= IFCMAPPEDITEM(#109,#149);
#151= IFCCARTESIANPOINT((375.000000000036,0.,-75.0000000013752));
#152= IFCCARTESIANTRANSFORMATIONOPERATOR3D($,$,#151,$,$);
#153= IFCMAPPEDITEM(#109,#152);
#154= IFCCARTESIANPOINT((450.000000000044,0.,-75.0000000016444));
#155= IFCCARTESIANTRANSFORMATIONOPERATOR3D($,$,#154,$,$);
#156= IFCMAPPEDITEM(#109,#155);
#157= IFCCARTESIANPOINT((525.000000000051,0.,-75.0000000019209));
#158= IFCCARTESIANTRANSFORMATIONOPERATOR3D($,$,#157,$,$);
#159= IFCMAPPEDITEM(#109,#158);
#160= IFCCARTESIANPOINT((600.000000000058,0.,-75.0000000021901));
#161= IFCCARTESIANTRANSFORMATIONOPERATOR3D($,$,#160,$,$);
#162= IFCMAPPEDITEM(#109,#161);
#163= IFCCARTESIANPOINT((675.000000000065,0.,-75.0000000024665));
#164= IFCCARTESIANTRANSFORMATIONOPERATOR3D($,$,#163,$,$);
#165= IFCMAPPEDITEM(#109,#164);
#166= IFCSHAPEREPRESENTATION(#12,'Body','MappedRepresentation',(#110,#113,#116,#119,#122,#125,#128,#131,#134,#137,#138,#141,#144,#147,#150,#153,#156,#159,#162,#165));
#167= IFCPRODUCTDEFINITIONSHAPE($,$,(#166));
#168= IFCOPENINGELEMENT('21EPrgxND9gu0K9OrQ91rt',#5,$,$,'Opening',#104,#167,$);
#169= IFCRELVOIDSELEMENT('11aQiNcSH8Ywwehd2WOX92',#5,'Drill Hole',$,#70,#168);
#170= IFCCARTESIANPOINT((42499.9997834091,22207.4006532333,13900.));
#171= IFCAXIS2PLACEMENT3D(#170,#53,#8);
#172= IFCLOCALPLACEMENT(#42,#171);
#173= IFCCARTESIANPOINT((0.,-0.1,0.));
#174= IFCAXIS2PLACEMENT3D(#173,#8,#7);
#175= IFCEXTRUDEDAREASOLID(#74,#174,#9,21.2);
#176= IFCSHAPEREPRESENTATION(#12,'Body','SweptSolid',(#175));
#177= IFCREPRESENTATIONMAP(#10,#176);
#178= IFCMAPPEDITEM(#177,#84);
#179= IFCMAPPEDITEM(#177,#140);
#180= IFCMAPPEDITEM(#177,#143);
#181= IFCMAPPEDITEM(#177,#146);
#182= IFCMAPPEDITEM(#177,#149);
#183= IFCMAPPEDITEM(#177,#152);
#184= IFCMAPPEDITEM(#177,#155);
#185= IFCMAPPEDITEM(#177,#158);
#186= IFCMAPPEDITEM(#177,#161);
#187= IFCMAPPEDITEM(#177,#164);
#188= IFCMAPPEDITEM(#177,#81);
#189= IFCMAPPEDITEM(#177,#112);
#190= IFCMAPPEDITEM(#177,#115);
#191= IFCMAPPEDITEM(#177,#118);
#192= IFCMAPPEDITEM(#177,#121);
#193= IFCMAPPEDITEM(#177,#124);
#194= IFCMAPPEDITEM(#177,#127);
#195= IFCMAPPEDITEM(#177,#130);
#196= IFCMAPPEDITEM(#177,#133);
#197= IFCMAPPEDITEM(#177,#136);
#198= IFCSHAPEREPRESENTATION(#12,'Body','MappedRepresentation',(#178,#179,#180,#181,#182,#183,#184,#185,#186,#187,#188,#189,#190,#191,#192,#193,#194,#195,#196,#197));
#199= IFCPRODUCTDEFINITIONSHAPE($,$,(#198));
#200= IFCOPENINGELEMENT('0gkt78WnTDaB46Vo7OoBA_',#5,$,$,'Opening',#172,#199,$);
#201= IFCRELVOIDSELEMENT('340MsEi4z3TQLQx1YB0$ed',#5,'Drill Hole',$,#70,#200);
#202= IFCCARTESIANPOINT((42499.9997839056,22162.4006743834,13900.));
#203= IFCAXIS2PLACEMENT3D(#202,#8,#58);
#204= IFCLOCALPLACEMENT(#42,#203);
#205= IFCCARTESIANPOINT((0.,-5.85000238003855,0.));
#206= IFCAXIS2PLACEMENT3D(#205,#8,#7);
#207= IFCEXTRUDEDAREASOLID(#74,#206,#9,11.7);
#208= IFCSHAPEREPRESENTATION(#12,'Body','SweptSolid',(#207));
#209= IFCREPRESENTATIONMAP(#10,#208);
#210= IFCCARTESIANPOINT((80.,0.,45.));
#211= IFCCARTESIANTRANSFORMATIONOPERATOR3D($,$,#210,$,$);
#212= IFCMAPPEDITEM(#209,#211);
#213= IFCCARTESIANPOINT((150.,0.,45.));
#214= IFCCARTESIANTRANSFORMATIONOPERATOR3D($,$,#213,$,$);
#215= IFCMAPPEDITEM(#209,#214);
#216= IFCCARTESIANPOINT((220.,0.,45.));
#217= IFCCARTESIANTRANSFORMATIONOPERATOR3D($,$,#216,$,$);
#218= IFCMAPPEDITEM(#209,#217);
#219= IFCCARTESIANPOINT((290.,0.,45.));
#220= IFCCARTESIANTRANSFORMATIONOPERATOR3D($,$,#219,$,$);
#221= IFCMAPPEDITEM(#209,#220);
#222= IFCCARTESIANPOINT((360.,0.,45.));
#223= IFCCARTESIANTRANSFORMATIONOPERATOR3D($,$,#222,$,$);
#224= IFCMAPPEDITEM(#209,#223);
#225= IFCSHAPEREPRESENTATION(#12,'Body','MappedRepresentation',(#212,#215,#218,#221,#224));
#226= IFCPRODUCTDEFINITIONSHAPE($,$,(#225));
#227= IFCOPENINGELEMENT('0RC5Jl85f3ngA9J6Ar0ahx',#5,$,$,'Opening',#204,#226,$);
#228= IFCRELVOIDSELEMENT('0tR2i3Mt17duHa9Nlkedg2',#5,'Drill Hole',$,#70,#227);
#229= IFCPROPERTYSINGLEVALUE('PieceMark',$,IFCIDENTIFIER('BEAM'),$);
#230= IFCPROPERTYSINGLEVALUE('IndicationMark',$,IFCIDENTIFIER('b/148'),$);
#231= IFCPROPERTYSINGLEVALUE('PrelimMark',$,IFCIDENTIFIER(''),$);
#232= IFCPROPERTYSINGLEVALUE('MainPieceTag',$,IFCBOOLEAN(.T.),$);
#233= IFCPROPERTYSET('1wWFzuN0P1RgddoKUor6x_',#5,'AISC_EM11_Pset_PieceIdentification','PieceIdentity',(#229,#230,#231,#232));
#234= IFCPROPERTYSINGLEVALUE('MaterialType',$,IFCIDENTIFIER('STEEL'),$);
#235= IFCPROPERTYSINGLEVALUE('MaterialGrade',$,IFCIDENTIFIER('S235JR'),$);
#236= IFCPROPERTYSET('3xMgrhkjb6BP6GKYsZX5hZ',#5,'AISC_EM11_Pset_Material',$,(#234,#235));
#237= IFCPROPERTYSINGLEVALUE('SkewedAngleY',$,IFCREAL(0.),$);
#238= IFCPROPERTYSINGLEVALUE('SkewedAngleX',$,IFCREAL(0.),$);
#239= IFCPROPERTYSET('2J6UpLcxbF$x4KVpwpsuQd',#5,'AISC_EM11_Pset_SkewedEnd',$,(#237,#238));
#240= IFCPROPERTYSET('1juVurPGP5ov_MXuUtre62',#5,'AISC_EM11_Pset_SkewedEnd_2',$,(#237,#238));
#241= IFCMATERIAL('STEEL/S235JR');
#242= IFCRELAGGREGATES('017aodMGH2_ODGEZAxL8mv',#5,$,$,#37,(#39));
#243= IFCRELAGGREGATES('2JPs4veYZKGgVYWrSDdQ2B',#5,$,$,#39,(#41));
#244= IFCRELAGGREGATES('1KndNwQ4nC4xMcZW3ZTWqk',#5,$,$,#41,(#43));
#245= IFCRELCONTAINEDINSPATIALSTRUCTURE('1rm88_0Cf8tweqLgiEIZuk',#5,$,$,(#70),#43);
#246= IFCRELDEFINESBYPROPERTIES('02P6BS17PAjvGOVf1VAlQ0',#5,$,$,(#227,#200,#168,#100,#88),#94);
#247= IFCRELDEFINESBYPROPERTIES('0I9jy7TiXDb8IcJzTiwsMh',#5,$,$,(#70),#233);
#248= IFCRELDEFINESBYPROPERTIES('33MGzxd8X9JgxHK3Y$_nbu',#5,$,$,(#70),#236);
#249= IFCRELDEFINESBYPROPERTIES('1HErjXbNnA8AUag93WMUWW',#5,$,$,(#70),#239);
#250= IFCRELDEFINESBYPROPERTIES('0kXqJpEcH6Nxr8nuwx7U06',#5,$,$,(#70),#240);
#251= IFCRELASSOCIATESMATERIAL('31CUcdWzz4n9sr9Ept$5vu',#5,$,$,(#70),#241);
ENDSEC;

END-ISO-10303-21;
