ISO-10303-21;
HEADER;
FILE_DESCRIPTION(('ViewDefinition[AISC_Steel_Detailing]', 'Option [BaseQuantities:Off]', 'Option [GridExport:On]', 'Option [Assemblies:Off]', 'Option [Bolts:On]', 'Option [Rebars:On]', 'Option [PourObjects:Off]', 'Option [Welds:On]', 'Option [SurfaceTreatments:On]', 'Option [LocationBy:0]', 'Option [ViewColors:Off]', 'Option [SectionedSpine:Off]', 'Option [PropertySets:On]', 'Option [Export all:Off]'),'2;1');
FILE_NAME('b_152_Qty_1.ifc','2026-05-16T11:53:19',('GIOVANNIPC\\gcorrea'),('Structural Designer'),'IFC Database version: Work','Tekla Structures 2020 Service Pack 5, IFC Export Version: 4.0.0.0 Dec  7 2020','');
FILE_SCHEMA(('IFC2X3'));
ENDSEC;

DATA;
#1= IFCPERSON('GIOVANNIPC\\gcorrea','Undefined',$,$,$,$,$,$);
#2= IFCORGANIZATION($,'Trimble Solutions Corporation',$,$,$);
#3= IFCPERSONANDORGANIZATION(#1,#2,$);
#4= IFCAPPLICATION(#2,'2020 Service Pack 5','Tekla Structures','Multi material modeling');
#5= IFCOWNERHISTORY(#3,#4,$,.NOCHANGE.,$,$,$,1778950399);
#6= IFCCARTESIANPOINT((0.,0.,0.));
#7= IFCDIRECTION((1.,0.,0.));
#8= IFCDIRECTION((0.,1.,0.));
#9= IFCDIRECTION((0.,0.,1.));
#10= IFCAXIS2PLACEMENT3D(#6,#9,#7);
#11= IFCGEOMETRICREPRESENTATIONCONTEXT($,'Model',3,1.E-05,#10,$);
#12= IFCGEOMETRICREPRESENTATIONSUBCONTEXT('Body','Model',*,*,*,*,#11,$,.MODEL_VIEW.,$);
#13= IFCGEOMETRICREPRESENTATIONSUBCONTEXT('Axis','Model',*,*,*,*,#11,$,.GRAPH_VIEW.,$);
#14= IFCGEOMETRICREPRESENTATIONSUBCONTEXT('FootPrint','Model',*,*,*,*,#11,$,.MODEL_VIEW.,$);
#15= IFCSIUNIT(*,.LENGTHUNIT.,.MILLI.,.METRE.);
#16= IFCMEASUREWITHUNIT(IFCRATIOMEASURE(304.8),#15);
#17= IFCDIMENSIONALEXPONENTS(1,0,0,0,0,0,0);
#18= IFCCONVERSIONBASEDUNIT(#17,.LENGTHUNIT.,'FOOT',#16);
#19= IFCSIUNIT(*,.AREAUNIT.,$,.SQUARE_METRE.);
#20= IFCMEASUREWITHUNIT(IFCRATIOMEASURE(0.09290304),#19);
#21= IFCDIMENSIONALEXPONENTS(2,0,0,0,0,0,0);
#22= IFCCONVERSIONBASEDUNIT(#21,.AREAUNIT.,'SQUARE FOOT',#20);
#23= IFCSIUNIT(*,.VOLUMEUNIT.,$,.CUBIC_METRE.);
#24= IFCMEASUREWITHUNIT(IFCRATIOMEASURE(0.028316846592),#23);
#25= IFCDIMENSIONALEXPONENTS(3,0,0,0,0,0,0);
#26= IFCCONVERSIONBASEDUNIT(#25,.VOLUMEUNIT.,'CUBIC FOOT',#24);
#27= IFCSIUNIT(*,.MASSUNIT.,.KILO.,.GRAM.);
#28= IFCSIUNIT(*,.TIMEUNIT.,$,.SECOND.);
#29= IFCSIUNIT(*,.PLANEANGLEUNIT.,$,.RADIAN.);
#30= IFCMEASUREWITHUNIT(IFCRATIOMEASURE(0.0174532925199433),#29);
#31= IFCDIMENSIONALEXPONENTS(0,0,0,0,0,0,0);
#32= IFCCONVERSIONBASEDUNIT(#31,.PLANEANGLEUNIT.,'DEGREE',#30);
#33= IFCSIUNIT(*,.SOLIDANGLEUNIT.,$,.STERADIAN.);
#34= IFCSIUNIT(*,.THERMODYNAMICTEMPERATUREUNIT.,$,.DEGREE_CELSIUS.);
#35= IFCSIUNIT(*,.LUMINOUSINTENSITYUNIT.,$,.LUMEN.);
#36= IFCUNITASSIGNMENT((#15,#19,#23,#27,#28,#29,#33,#34,#35));
#37= IFCPROJECT('2G7ZFDNE16yBDU14FA92Me',#5,'Proyecto',$,$,$,$,(#11),#36);
#38= IFCLOCALPLACEMENT($,#10);
#39= IFCSITE('2xvEzEinjBTea80yOTcujY',#5,'Obra',$,$,#38,$,$,.ELEMENT.,$,$,$,$,$);
#40= IFCLOCALPLACEMENT(#38,#10);
#41= IFCBUILDING('2nHIddr4rCmPpHHDZ2Z15G',#5,'Undefined',$,$,#40,$,$,.ELEMENT.,$,$,$);
#42= IFCLOCALPLACEMENT(#40,#10);
#43= IFCBUILDINGSTOREY('29hdEUCErFze9E_VIAceOd',#5,'Undefined',$,$,#42,$,$,.ELEMENT.,0.);
#44= IFCOWNERHISTORY(#3,#4,$,.NOCHANGE.,$,$,$,1775667600);
#45= IFCCARTESIANPOINT((82730.251095665,19368.1647089354,13780.));
#46= IFCAXIS2PLACEMENT3D(#45,#9,#8);
#47= IFCLOCALPLACEMENT(#42,#46);
#48= IFCDIRECTION((1.,0.));
#49= IFCCARTESIANPOINT((0.,0.));
#50= IFCAXIS2PLACEMENT2D(#49,#48);
#51= IFCISHAPEPROFILEDEF(.AREA.,'IPE240',#50,120.,240.,6.199999809,9.800000191,15.);
#52= IFCDIRECTION((0.,-1.,0.));
#53= IFCDIRECTION((-1.,0.,0.));
#54= IFCCARTESIANPOINT((2650.23960684543,0.,0.));
#55= IFCAXIS2PLACEMENT3D(#54,#53,#52);
#56= IFCEXTRUDEDAREASOLID(#51,#55,#9,2856.32);
#57= IFCCARTESIANPOINT((2526.83535691751,0.,-220.));
#58= IFCAXIS2PLACEMENT3D(#57,#53,#8);
#59= IFCPLANE(#58);
#60= IFCHALFSPACESOLID(#59,.T.);
#61= IFCBOOLEANCLIPPINGRESULT(.DIFFERENCE.,#56,#60);
#62= IFCDIRECTION((-0.440788839997484,-0.89761082799489,0.));
#63= IFCCARTESIANPOINT((-82.6775707625638,0.,1000.));
#64= IFCDIRECTION((0.89761082799489,-0.440788839997484,0.));
#65= IFCAXIS2PLACEMENT3D(#63,#62,#64);
#66= IFCPLANE(#65);
#67= IFCHALFSPACESOLID(#66,.F.);
#68= IFCBOOLEANCLIPPINGRESULT(.DIFFERENCE.,#61,#67);
#69= IFCSHAPEREPRESENTATION(#12,'Body','Clipping',(#68));
#70= IFCPRODUCTDEFINITIONSHAPE($,$,(#69));
#71= IFCBEAM('0_CYO2fCz9Y95ot9X70SMX',#44,'BEAM','IPE240','IPE240',#47,#70,'ID3e322602-a4cf-4988-9172-dc984701c5a1');
#72= IFCLOCALPLACEMENT(#42,#46);
#73= IFCCARTESIANPOINT((7.84000015251513,0.));
#74= IFCPOLYLINE((#49,#73));
#75= IFCCOMPOSITECURVESEGMENT(.CONTINUOUS.,.T.,#74);
#76= IFCCARTESIANPOINT((3.92000007625756,1.20053300634027E-10));
#77= IFCAXIS2PLACEMENT2D(#76,#48);
#78= IFCCIRCLE(#77,3.92);
#79= IFCTRIMMEDCURVE(#78,(IFCPARAMETERVALUE(0.)),(IFCPARAMETERVALUE(3.14159265365104)),.T.,.PARAMETER.);
#80= IFCCOMPOSITECURVESEGMENT(.DISCONTINUOUS.,.T.,#79);
#81= IFCCOMPOSITECURVE((#75,#80),.T.);
#82= IFCARBITRARYCLOSEDPROFILEDEF(.AREA.,'PL91.3*7',#81);
#83= IFCDIRECTION((0.440788839997495,0.897610827994885,0.));
#84= IFCCARTESIANPOINT((-121.799032588936,14.8441877989322,-110.199999809));
#85= IFCAXIS2PLACEMENT3D(#84,#64,#83);
#86= IFCEXTRUDEDAREASOLID(#82,#85,#9,91.3);
#87= IFCSHAPEREPRESENTATION(#12,'Body','SweptSolid',(#86));
#88= IFCPRODUCTDEFINITIONSHAPE($,$,(#87));
#89= IFCOPENINGELEMENT('2$5tg9cbX8kxQDwA6joWiK',#5,$,$,'Recess',#72,#88,$);
#90= IFCRELVOIDSELEMENT('0_q8PNegv3KQiqxG5US5Xb',#5,$,$,#71,#89);
#91= IFCPROPERTYSINGLEVALUE('FeatureSubTypes',$,$,$);
#92= IFCPROPERTYSINGLEVALUE('RectangleOpeningWidth',$,IFCPOSITIVELENGTHMEASURE(91.3),$);
#93= IFCPROPERTYSINGLEVALUE('RectangleOpeningHeight',$,IFCPOSITIVELENGTHMEASURE(91.3),$);
#94= IFCPROPERTYSINGLEVALUE('OpeningDiameter',$,$,$);
#95= IFCPROPERTYSET('0pLM_YKp599u7yQO5$23RN',#5,'AISC_EM11_Pset_Opening/Cope',$,(#91,#92,#93,#94));
#96= IFCLOCALPLACEMENT(#42,#46);
#97= IFCDIRECTION((-0.707106781185505,-0.70710678118759));
#98= IFCCARTESIANPOINT((6.16597127915156,6.16597127916975));
#99= IFCAXIS2PLACEMENT2D(#98,#97);
#100= IFCCIRCLE(#99,8.72);
#101= IFCTRIMMEDCURVE(#100,(IFCPARAMETERVALUE(0.)),(IFCPARAMETERVALUE(3.14159265359333)),.T.,.PARAMETER.);
#102= IFCCOMPOSITECURVESEGMENT(.CONTINUOUS.,.T.,#101);
#103= IFCCARTESIANPOINT((12.3319425582813,12.3319425583613));
#104= IFCPOLYLINE((#103,#49));
#105= IFCCOMPOSITECURVESEGMENT(.CONTINUOUS.,.T.,#104);
#106= IFCCOMPOSITECURVE((#102,#105),.T.);
#107= IFCARBITRARYCLOSEDPROFILEDEF(.AREA.,'PL118.8*15',#106);
#108= IFCDIRECTION((0.311684778092594,0.634706703188557,-0.7071067812098));
#109= IFCCARTESIANPOINT((71.8260367478674,18.3559884358507,110.199999768687));
#110= IFCAXIS2PLACEMENT3D(#109,#64,#108);
#111= IFCEXTRUDEDAREASOLID(#107,#110,#9,118.8);
#112= IFCSHAPEREPRESENTATION(#12,'Body','SweptSolid',(#111));
#113= IFCPRODUCTDEFINITIONSHAPE($,$,(#112));
#114= IFCOPENINGELEMENT('09aku6jPD33up5fZRk959a',#5,$,$,'Recess',#96,#113,$);
#115= IFCRELVOIDSELEMENT('1zdcrKbmXAWQ3HmuooZmwU',#5,$,$,#71,#114);
#116= IFCPROPERTYSINGLEVALUE('RectangleOpeningWidth',$,IFCPOSITIVELENGTHMEASURE(118.8),$);
#117= IFCPROPERTYSINGLEVALUE('RectangleOpeningHeight',$,IFCPOSITIVELENGTHMEASURE(118.8),$);
#118= IFCPROPERTYSET('26v3mnyyTEvPtFSJxCCbLL',#5,'AISC_EM11_Pset_Opening/Cope',$,(#91,#116,#117,#94));
#119= IFCLOCALPLACEMENT(#42,#46);
#120= IFCCARTESIANPOINT((12.6713533401416,-9.45874489843845E-11));
#121= IFCCARTESIANPOINT((6.33567667006719,6.33567667006719));
#122= IFCPOLYLINE((#49,#120,#121,#49));
#123= IFCARBITRARYCLOSEDPROFILEDEF(.AREA.,'PL95.5*9',#122);
#124= IFCDIRECTION((0.31168477809264,0.634706703188318,0.707106781209994));
#125= IFCCARTESIANPOINT((-120.27526879666,17.9060292300611,96.9399995818053));
#126= IFCAXIS2PLACEMENT3D(#125,#64,#124);
#127= IFCEXTRUDEDAREASOLID(#123,#126,#9,95.5);
#128= IFCSHAPEREPRESENTATION(#12,'Body','SweptSolid',(#127));
#129= IFCPRODUCTDEFINITIONSHAPE($,$,(#128));
#130= IFCOPENINGELEMENT('1S6YoJABj9yOd4kL5shW9Y',#5,$,$,'Recess',#119,#129,$);
#131= IFCRELVOIDSELEMENT('0DHTsssjH9Jh4PR_ibK_H6',#5,$,$,#71,#130);
#132= IFCPROPERTYSINGLEVALUE('RectangleOpeningWidth',$,IFCPOSITIVELENGTHMEASURE(95.5),$);
#133= IFCPROPERTYSINGLEVALUE('RectangleOpeningHeight',$,IFCPOSITIVELENGTHMEASURE(95.5),$);
#134= IFCPROPERTYSET('3ux8fkrUfEk8lEn6Iva3NG',#5,'AISC_EM11_Pset_Opening/Cope',$,(#91,#132,#133,#94));
#135= IFCLOCALPLACEMENT(#42,#46);
#136= IFCRECTANGLEPROFILEDEF(.AREA.,'PL18.6*96',#50,18.6,96.);
#137= IFCDIRECTION((0.,0.,-1.));
#138= IFCDIRECTION((-0.897610827994887,0.440788839997491,0.));
#139= IFCCARTESIANPOINT((2065.32292711342,-1004.34912265686,112.719999790901));
#140= IFCAXIS2PLACEMENT3D(#139,#138,#137);
#141= IFCEXTRUDEDAREASOLID(#136,#140,#9,2508.89);
#142= IFCSHAPEREPRESENTATION(#12,'Body','SweptSolid',(#141));
#143= IFCPRODUCTDEFINITIONSHAPE($,$,(#142));
#144= IFCOPENINGELEMENT('0_WnI92hr5wgQWqGx8CX_d',#5,$,$,'Recess',#135,#143,$);
#145= IFCRELVOIDSELEMENT('0yVVr721n8x9FUNM8S9UTj',#5,$,$,#71,#144);
#146= IFCPROPERTYSINGLEVALUE('RectangleOpeningWidth',$,IFCPOSITIVELENGTHMEASURE(18.6),$);
#147= IFCPROPERTYSINGLEVALUE('RectangleOpeningHeight',$,IFCPOSITIVELENGTHMEASURE(96.),$);
#148= IFCPROPERTYSET('3pf26PYNPATQj5CVaXxMj7',#5,'AISC_EM11_Pset_Opening/Cope',$,(#91,#146,#147,#94));
#149= IFCLOCALPLACEMENT(#42,#46);
#150= IFCRECTANGLEPROFILEDEF(.AREA.,'PL36.6*102.3',#50,36.6,102.3);
#151= IFCCARTESIANPOINT((2577.98535701276,61.,102.69999981));
#152= IFCAXIS2PLACEMENT3D(#151,#52,#137);
#153= IFCEXTRUDEDAREASOLID(#150,#152,#9,122.);
#154= IFCSHAPEREPRESENTATION(#12,'Body','SweptSolid',(#153));
#155= IFCPRODUCTDEFINITIONSHAPE($,$,(#154));
#156= IFCOPENINGELEMENT('33X2$Dk31DGPyaUElvlFlZ',#5,$,$,'Recess',#149,#155,$);
#157= IFCRELVOIDSELEMENT('0Fjp2TSzrCPuU11J7Efp$7',#5,$,$,#71,#156);
#158= IFCPROPERTYSINGLEVALUE('RectangleOpeningWidth',$,IFCPOSITIVELENGTHMEASURE(36.6),$);
#159= IFCPROPERTYSINGLEVALUE('RectangleOpeningHeight',$,IFCPOSITIVELENGTHMEASURE(102.3),$);
#160= IFCPROPERTYSET('0jhoOnKGf9Ge23PiDqqb_G',#5,'AISC_EM11_Pset_Opening/Cope',$,(#91,#158,#159,#94));
#161= IFCCARTESIANPOINT((82730.251095665,21895.0000658529,13885.39999962));
#162= IFCAXIS2PLACEMENT3D(#161,#52,#137);
#163= IFCLOCALPLACEMENT(#42,#162);
#164= IFCCIRCLEPROFILEDEF(.AREA.,$,#50,9.5);
#165= IFCCARTESIANPOINT((0.,-3.19999990449169,0.));
#166= IFCAXIS2PLACEMENT3D(#165,#8,#7);
#167= IFCEXTRUDEDAREASOLID(#164,#166,#9,6.4);
#168= IFCSHAPEREPRESENTATION(#12,'Body','SweptSolid',(#167));
#169= IFCREPRESENTATIONMAP(#10,#168);
#170= IFCCARTESIANPOINT((165.399993896484,0.,50.));
#171= IFCCARTESIANTRANSFORMATIONOPERATOR3D($,$,#170,$,$);
#172= IFCMAPPEDITEM(#169,#171);
#173= IFCCARTESIANPOINT((105.400001525879,0.,50.));
#174= IFCCARTESIANTRANSFORMATIONOPERATOR3D($,$,#173,$,$);
#175= IFCMAPPEDITEM(#169,#174);
#176= IFCCARTESIANPOINT((45.4000015258789,0.,50.));
#177= IFCCARTESIANTRANSFORMATIONOPERATOR3D($,$,#176,$,$);
#178= IFCMAPPEDITEM(#169,#177);
#179= IFCSHAPEREPRESENTATION(#12,'Body','MappedRepresentation',(#172,#175,#178));
#180= IFCPRODUCTDEFINITIONSHAPE($,$,(#179));
#181= IFCOPENINGELEMENT('0IOPqiyEDFaB2FORMZnATx',#5,$,$,'Opening',#163,#180,$);
#182= IFCRELVOIDSELEMENT('2LwTXIWn50w92RCL2CqXNl',#5,'Drill Hole',$,#71,#181);
#183= IFCPROPERTYSINGLEVALUE('FeatureSubTypes',$,IFCLABEL('TORNILLO'),$);
#184= IFCPROPERTYSINGLEVALUE('RectangleOpeningWidth',$,$,$);
#185= IFCPROPERTYSINGLEVALUE('RectangleOpeningHeight',$,$,$);
#186= IFCPROPERTYSET('3cuWdUPND3cP5SuILeN1x4',#5,'AISC_EM11_Pset_Opening/Cope',$,(#183,#184,#185,#94));
#187= IFCPROPERTYSINGLEVALUE('PieceMark',$,IFCIDENTIFIER('BEAM'),$);
#188= IFCPROPERTYSINGLEVALUE('IndicationMark',$,IFCIDENTIFIER('b/152'),$);
#189= IFCPROPERTYSINGLEVALUE('PrelimMark',$,IFCIDENTIFIER(''),$);
#190= IFCPROPERTYSINGLEVALUE('MainPieceTag',$,IFCBOOLEAN(.F.),$);
#191= IFCPROPERTYSET('3O_WcY6$D0381zwwETlaJj',#5,'AISC_EM11_Pset_PieceIdentification','PieceIdentity',(#187,#188,#189,#190));
#192= IFCPROPERTYSINGLEVALUE('MaterialType',$,IFCIDENTIFIER('STEEL'),$);
#193= IFCPROPERTYSINGLEVALUE('MaterialGrade',$,IFCIDENTIFIER('S235JR'),$);
#194= IFCPROPERTYSET('0VjjvBFvr6nxlTmLcRDd7S',#5,'AISC_EM11_Pset_Material',$,(#192,#193));
#195= IFCPROPERTYSINGLEVALUE('SkewedAngleY',$,IFCREAL(0.),$);
#196= IFCPROPERTYSINGLEVALUE('SkewedAngleX',$,IFCREAL(-63.84578),$);
#197= IFCPROPERTYSET('2smf1vPAf5cPbSBrF6u6ZZ',#5,'AISC_EM11_Pset_SkewedEnd',$,(#195,#196));
#198= IFCPROPERTYSINGLEVALUE('SkewedAngleX',$,IFCREAL(0.),$);
#199= IFCPROPERTYSET('3NZBoT3v51gPNv_8bB8nav',#5,'AISC_EM11_Pset_SkewedEnd_2',$,(#195,#198));
#200= IFCMATERIAL('STEEL/S235JR');
#201= IFCRELAGGREGATES('31oHYQElrBUw1Zt$luzkB6',#5,$,$,#37,(#39));
#202= IFCRELAGGREGATES('2J4ZqiW17TmCJr9H1AF0TO',#5,$,$,#39,(#41));
#203= IFCRELAGGREGATES('0nD3qo5F9F6POPXB9cW9t$',#5,$,$,#41,(#43));
#204= IFCRELCONTAINEDINSPATIALSTRUCTURE('2NrToiotjE3RuzIdHdJFqu',#5,$,$,(#71),#43);
#205= IFCRELDEFINESBYPROPERTIES('3OuEDdT9H6cxHyh0_m_CDn',#5,$,$,(#89),#95);
#206= IFCRELDEFINESBYPROPERTIES('0yU5czBXb9vRlc62BQYpuY',#5,$,$,(#114),#118);
#207= IFCRELDEFINESBYPROPERTIES('3$L4wOIjr3B9cvjM1froQV',#5,$,$,(#130),#134);
#208= IFCRELDEFINESBYPROPERTIES('2zkCct9urDuvzBd2yMBsfF',#5,$,$,(#144),#148);
#209= IFCRELDEFINESBYPROPERTIES('34T9DwISv6vhKtXR$DqmlP',#5,$,$,(#156),#160);
#210= IFCRELDEFINESBYPROPERTIES('04L0irGVDDH83OQwnKGI8Y',#5,$,$,(#181),#186);
#211= IFCRELDEFINESBYPROPERTIES('19vcgw6DXE6ufcf22yfVNk',#5,$,$,(#71),#191);
#212= IFCRELDEFINESBYPROPERTIES('2ZPo_n2rD3$RlfPI4V136m',#5,$,$,(#71),#194);
#213= IFCRELDEFINESBYPROPERTIES('1Gs9KYHADEFwEUlgYCDC_h',#5,$,$,(#71),#197);
#214= IFCRELDEFINESBYPROPERTIES('0zVl9hxSz01e8u07JHNWBX',#5,$,$,(#71),#199);
#215= IFCRELASSOCIATESMATERIAL('2SyGN1OTPB19YkWpOIf387',#5,$,$,(#71),#200);
ENDSEC;

END-ISO-10303-21;
