ISO-10303-21;
HEADER;
FILE_DESCRIPTION(('ViewDefinition[AISC_Steel_Detailing]', 'Option [BaseQuantities:Off]', 'Option [GridExport:On]', 'Option [Assemblies:Off]', 'Option [Bolts:On]', 'Option [Rebars:On]', 'Option [PourObjects:Off]', 'Option [Welds:On]', 'Option [SurfaceTreatments:On]', 'Option [LocationBy:0]', 'Option [ViewColors:Off]', 'Option [SectionedSpine:Off]', 'Option [PropertySets:On]', 'Option [Export all:Off]'),'2;1');
FILE_NAME('b_168_Qty_1.ifc','2026-05-16T11:53:20',('GIOVANNIPC\\gcorrea'),('Structural Designer'),'IFC Database version: Work','Tekla Structures 2020 Service Pack 5, IFC Export Version: 4.0.0.0 Dec  7 2020','');
FILE_SCHEMA(('IFC2X3'));
ENDSEC;

DATA;
#1= IFCPERSON('GIOVANNIPC\\gcorrea','Undefined',$,$,$,$,$,$);
#2= IFCORGANIZATION($,'Trimble Solutions Corporation',$,$,$);
#3= IFCPERSONANDORGANIZATION(#1,#2,$);
#4= IFCAPPLICATION(#2,'2020 Service Pack 5','Tekla Structures','Multi material modeling');
#5= IFCOWNERHISTORY(#3,#4,$,.NOCHANGE.,$,$,$,1778950400);
#6= IFCCARTESIANPOINT((0.,0.,0.));
#7= IFCDIRECTION((1.,0.,0.));
#8= IFCDIRECTION((0.,1.,0.));
#9= IFCDIRECTION((0.,0.,1.));
#10= IFCAXIS2PLACEMENT3D(#6,#9,#7);
#11= IFCGEOMETRICREPRESENTATIONCONTEXT($,'Model',3,1.E-05,#10,$);
#12= IFCGEOMETRICREPRESENTATIONSUBCONTEXT('Body','Model',*,*,*,*,#11,$,.MODEL_VIEW.,$);
#13= IFCGEOMETRICREPRESENTATIONSUBCONTEXT('Axis','Model',*,*,*,*,#11,$,.GRAPH_VIEW.,$);
#14= IFCGEOMETRICREPRESENTATIONSUBCONTEXT('FootPrint','Model',*,*,*,*,#11,$,.MODEL_VIEW.,$);
#15= IFCSIUNIT(*,.LENGTHUNIT.,.MILLI.,.METRE.);
#16= IFCMEASUREWITHUNIT(IFCRATIOMEASURE(304.8),#15);
#17= IFCDIMENSIONALEXPONENTS(1,0,0,0,0,0,0);
#18= IFCCONVERSIONBASEDUNIT(#17,.LENGTHUNIT.,'FOOT',#16);
#19= IFCSIUNIT(*,.AREAUNIT.,$,.SQUARE_METRE.);
#20= IFCMEASUREWITHUNIT(IFCRATIOMEASURE(0.09290304),#19);
#21= IFCDIMENSIONALEXPONENTS(2,0,0,0,0,0,0);
#22= IFCCONVERSIONBASEDUNIT(#21,.AREAUNIT.,'SQUARE FOOT',#20);
#23= IFCSIUNIT(*,.VOLUMEUNIT.,$,.CUBIC_METRE.);
#24= IFCMEASUREWITHUNIT(IFCRATIOMEASURE(0.028316846592),#23);
#25= IFCDIMENSIONALEXPONENTS(3,0,0,0,0,0,0);
#26= IFCCONVERSIONBASEDUNIT(#25,.VOLUMEUNIT.,'CUBIC FOOT',#24);
#27= IFCSIUNIT(*,.MASSUNIT.,.KILO.,.GRAM.);
#28= IFCSIUNIT(*,.TIMEUNIT.,$,.SECOND.);
#29= IFCSIUNIT(*,.PLANEANGLEUNIT.,$,.RADIAN.);
#30= IFCMEASUREWITHUNIT(IFCRATIOMEASURE(0.0174532925199433),#29);
#31= IFCDIMENSIONALEXPONENTS(0,0,0,0,0,0,0);
#32= IFCCONVERSIONBASEDUNIT(#31,.PLANEANGLEUNIT.,'DEGREE',#30);
#33= IFCSIUNIT(*,.SOLIDANGLEUNIT.,$,.STERADIAN.);
#34= IFCSIUNIT(*,.THERMODYNAMICTEMPERATUREUNIT.,$,.DEGREE_CELSIUS.);
#35= IFCSIUNIT(*,.LUMINOUSINTENSITYUNIT.,$,.LUMEN.);
#36= IFCUNITASSIGNMENT((#15,#19,#23,#27,#28,#29,#33,#34,#35));
#37= IFCPROJECT('2G7ZFDNE16yBDU14FA92Me',#5,'Proyecto',$,$,$,$,(#11),#36);
#38= IFCLOCALPLACEMENT($,#10);
#39= IFCSITE('2xvEzEinjBTea80yOTcujY',#5,'Obra',$,$,#38,$,$,.ELEMENT.,$,$,$,$,$);
#40= IFCLOCALPLACEMENT(#38,#10);
#41= IFCBUILDING('1Omj64rRD9ROkdPFBMyFkt',#5,'Undefined',$,$,#40,$,$,.ELEMENT.,$,$,$);
#42= IFCLOCALPLACEMENT(#40,#10);
#43= IFCBUILDINGSTOREY('29hdEUCErFze9E_VIAceOd',#5,'Undefined',$,$,#42,$,$,.ELEMENT.,0.);
#44= IFCOWNERHISTORY(#3,#4,$,.NOCHANGE.,$,$,$,1773414000);
#45= IFCCARTESIANPOINT((42659.7707489853,1603.38122277425,19130.));
#46= IFCAXIS2PLACEMENT3D(#45,#9,#7);
#47= IFCLOCALPLACEMENT(#42,#46);
#48= IFCDIRECTION((1.,0.));
#49= IFCCARTESIANPOINT((0.,0.));
#50= IFCAXIS2PLACEMENT2D(#49,#48);
#51= IFCISHAPEPROFILEDEF(.AREA.,'HEA450',#50,300.,440.,11.5,21.,27.);
#52= IFCDIRECTION((0.,-1.,0.));
#53= IFCDIRECTION((-1.,0.,0.));
#54= IFCCARTESIANPOINT((8117.22925101469,0.,0.));
#55= IFCAXIS2PLACEMENT3D(#54,#53,#52);
#56= IFCEXTRUDEDAREASOLID(#51,#55,#9,8261.25);
#57= IFCCARTESIANPOINT((8117.22925101469,1.21965348500999,-325.));
#58= IFCAXIS2PLACEMENT3D(#57,#53,#8);
#59= IFCPLANE(#58);
#60= IFCHALFSPACESOLID(#59,.T.);
#61= IFCBOOLEANCLIPPINGRESULT(.DIFFERENCE.,#56,#60);
#62= IFCCARTESIANPOINT((-144.020748985313,0.,-320.));
#63= IFCAXIS2PLACEMENT3D(#62,#7,#52);
#64= IFCPLANE(#63);
#65= IFCHALFSPACESOLID(#64,.T.);
#66= IFCBOOLEANCLIPPINGRESULT(.DIFFERENCE.,#61,#65);
#67= IFCSHAPEREPRESENTATION(#12,'Body','Clipping',(#66));
#68= IFCPRODUCTDEFINITIONSHAPE($,$,(#67));
#69= IFCBEAM('1ZzPxyptD1BxpR5B_nApXU',#44,'BEAM','HEA450','HEA450',#47,#68,'ID63f59efc-cf73-412f-bcdb-14bfb12b385e');
#70= IFCLOCALPLACEMENT(#42,#46);
#71= IFCRECTANGLEPROFILEDEF(.AREA.,'PL49*156.3',#50,49.,156.3);
#72= IFCDIRECTION((0.,0.,-1.));
#73= IFCCARTESIANPOINT((-77.8957489853128,-151.,-196.5));
#74= IFCAXIS2PLACEMENT3D(#73,#8,#72);
#75= IFCEXTRUDEDAREASOLID(#71,#74,#9,302.);
#76= IFCSHAPEREPRESENTATION(#12,'Body','SweptSolid',(#75));
#77= IFCPRODUCTDEFINITIONSHAPE($,$,(#76));
#78= IFCOPENINGELEMENT('3M7WH3ksfDz88$1cQeROfc',#5,$,$,'Recess',#70,#77,$);
#79= IFCRELVOIDSELEMENT('2nuGQA8VX1mgy7xyl6Dkya',#5,$,$,#69,#78);
#80= IFCPROPERTYSINGLEVALUE('FeatureSubTypes',$,$,$);
#81= IFCPROPERTYSINGLEVALUE('RectangleOpeningWidth',$,IFCPOSITIVELENGTHMEASURE(49.),$);
#82= IFCPROPERTYSINGLEVALUE('RectangleOpeningHeight',$,IFCPOSITIVELENGTHMEASURE(156.3),$);
#83= IFCPROPERTYSINGLEVALUE('OpeningDiameter',$,$,$);
#84= IFCPROPERTYSET('3m6Qcifz97ogXCJ0idvX03',#5,'AISC_EM11_Pset_Opening/Cope',$,(#80,#81,#82,#83));
#85= IFCLOCALPLACEMENT(#42,#46);
#86= IFCCARTESIANPOINT((-77.8957489853128,-151.,196.5));
#87= IFCAXIS2PLACEMENT3D(#86,#8,#72);
#88= IFCEXTRUDEDAREASOLID(#71,#87,#9,302.);
#89= IFCSHAPEREPRESENTATION(#12,'Body','SweptSolid',(#88));
#90= IFCPRODUCTDEFINITIONSHAPE($,$,(#89));
#91= IFCOPENINGELEMENT('1KjAPLj9n5AeJq$Qa2TL54',#5,$,$,'Recess',#85,#90,$);
#92= IFCRELVOIDSELEMENT('1Tg7to8$PCk96h$xUjIZ0b',#5,$,$,#69,#91);
#93= IFCLOCALPLACEMENT(#42,#46);
#94= IFCRECTANGLEPROFILEDEF(.AREA.,'PL163.2*12',#50,12.,163.2);
#95= IFCCARTESIANPOINT((8133.23801476596,-69.399829864502,221.));
#96= IFCAXIS2PLACEMENT3D(#95,#72,#53);
#97= IFCEXTRUDEDAREASOLID(#94,#96,#9,442.);
#98= IFCSHAPEREPRESENTATION(#12,'Body','SweptSolid',(#97));
#99= IFCPRODUCTDEFINITIONSHAPE($,$,(#98));
#100= IFCOPENINGELEMENT('2JVDphyTLCe9AIritfz_lz',#5,$,$,'Recess',#93,#99,$);
#101= IFCRELVOIDSELEMENT('1smfQHehv7qgXs6Io9w5bi',#5,$,$,#69,#100);
#102= IFCPROPERTYSINGLEVALUE('RectangleOpeningWidth',$,IFCPOSITIVELENGTHMEASURE(12.),$);
#103= IFCPROPERTYSINGLEVALUE('RectangleOpeningHeight',$,IFCPOSITIVELENGTHMEASURE(163.2),$);
#104= IFCPROPERTYSET('17p3goVB51VhGu$Wr5kZF$',#5,'AISC_EM11_Pset_Opening/Cope',$,(#80,#102,#103,#83));
#105= IFCLOCALPLACEMENT(#42,#46);
#106= IFCRECTANGLEPROFILEDEF(.AREA.,'PL162.8*12',#50,12.,162.8);
#107= IFCCARTESIANPOINT((8133.23801476596,69.600170135498,221.));
#108= IFCAXIS2PLACEMENT3D(#107,#72,#53);
#109= IFCEXTRUDEDAREASOLID(#106,#108,#9,442.);
#110= IFCSHAPEREPRESENTATION(#12,'Body','SweptSolid',(#109));
#111= IFCPRODUCTDEFINITIONSHAPE($,$,(#110));
#112= IFCOPENINGELEMENT('3czZe5Cv12wA0mC02DCY5b',#5,$,$,'Recess',#105,#111,$);
#113= IFCRELVOIDSELEMENT('1V8kLryK52AR26VcBcuAlC',#5,$,$,#69,#112);
#114= IFCPROPERTYSINGLEVALUE('RectangleOpeningHeight',$,IFCPOSITIVELENGTHMEASURE(162.8),$);
#115= IFCPROPERTYSET('1JxuxXfnTCGPxNzlBBzw3S',#5,'AISC_EM11_Pset_Opening/Cope',$,(#80,#102,#114,#83));
#116= IFCLOCALPLACEMENT(#42,#46);
#117= IFCRECTANGLEPROFILEDEF(.AREA.,'PL108*12',#50,12.,108.);
#118= IFCCARTESIANPOINT((8133.22925101469,-40.78034651499,226.));
#119= IFCAXIS2PLACEMENT3D(#118,#72,#53);
#120= IFCEXTRUDEDAREASOLID(#117,#119,#9,452.);
#121= IFCSHAPEREPRESENTATION(#12,'Body','SweptSolid',(#120));
#122= IFCPRODUCTDEFINITIONSHAPE($,$,(#121));
#123= IFCOPENINGELEMENT('3Rj14e7vLFHOv5cReSyoIH',#5,$,$,'Recess',#116,#122,$);
#124= IFCRELVOIDSELEMENT('3foYzfdaD8IgTV7iCAi0ZR',#5,$,$,#69,#123);
#125= IFCPROPERTYSINGLEVALUE('RectangleOpeningHeight',$,IFCPOSITIVELENGTHMEASURE(108.),$);
#126= IFCPROPERTYSET('0MqSpPW8r7mgmKLF88oIQ1',#5,'AISC_EM11_Pset_Opening/Cope',$,(#80,#102,#125,#83));
#127= IFCLOCALPLACEMENT(#42,#46);
#128= IFCCARTESIANPOINT((8133.22925101469,43.21965348501,226.));
#129= IFCAXIS2PLACEMENT3D(#128,#72,#53);
#130= IFCEXTRUDEDAREASOLID(#117,#129,#9,452.);
#131= IFCSHAPEREPRESENTATION(#12,'Body','SweptSolid',(#130));
#132= IFCPRODUCTDEFINITIONSHAPE($,$,(#131));
#133= IFCOPENINGELEMENT('3XOwPooz1258EMYXGe1Nfl',#5,$,$,'Recess',#127,#132,$);
#134= IFCRELVOIDSELEMENT('2DIbePhHD45hquSaGeA4yd',#5,$,$,#69,#133);
#135= IFCCARTESIANPOINT((42702.7004364853,1603.38122277425,18910.));
#136= IFCDIRECTION((0.00127341800025897,-0.99999918920297,0.));
#137= IFCDIRECTION((0.99999918920297,0.00127341800025859,0.));
#138= IFCAXIS2PLACEMENT3D(#135,#136,#137);
#139= IFCLOCALPLACEMENT(#42,#138);
#140= IFCCIRCLEPROFILEDEF(.AREA.,$,#50,11.5);
#141= IFCCARTESIANPOINT((0.,-0.0999999999999929,0.));
#142= IFCAXIS2PLACEMENT3D(#141,#8,#7);
#143= IFCEXTRUDEDAREASOLID(#140,#142,#9,21.2);
#144= IFCSHAPEREPRESENTATION(#12,'Body','SweptSolid',(#143));
#145= IFCREPRESENTATIONMAP(#10,#144);
#146= IFCCARTESIANPOINT((2.61934474110603E-10,0.,50.0000000000016));
#147= IFCCARTESIANTRANSFORMATIONOPERATOR3D($,$,#146,$,$);
#148= IFCMAPPEDITEM(#145,#147);
#149= IFCCARTESIANPOINT((70.0000000003565,0.,49.9999999997149));
#150= IFCCARTESIANTRANSFORMATIONOPERATOR3D($,$,#149,$,$);
#151= IFCMAPPEDITEM(#145,#150);
#152= IFCCARTESIANPOINT((140.000000000451,0.,49.9999999994286));
#153= IFCCARTESIANTRANSFORMATIONOPERATOR3D($,$,#152,$,$);
#154= IFCMAPPEDITEM(#145,#153);
#155= IFCCARTESIANPOINT((210.000000000553,0.,49.9999999991421));
#156= IFCCARTESIANTRANSFORMATIONOPERATOR3D($,$,#155,$,$);
#157= IFCMAPPEDITEM(#145,#156);
#158= IFCCARTESIANPOINT((280.000000000648,0.,49.9999999988559));
#159= IFCCARTESIANTRANSFORMATIONOPERATOR3D($,$,#158,$,$);
#160= IFCMAPPEDITEM(#145,#159);
#161= IFCCARTESIANPOINT((350.000000000742,0.,49.9999999985691));
#162= IFCCARTESIANTRANSFORMATIONOPERATOR3D($,$,#161,$,$);
#163= IFCMAPPEDITEM(#145,#162);
#164= IFCCARTESIANPOINT((420.000000000844,0.,49.9999999982829));
#165= IFCCARTESIANTRANSFORMATIONOPERATOR3D($,$,#164,$,$);
#166= IFCMAPPEDITEM(#145,#165);
#167= IFCCARTESIANPOINT((-2.69210431724787E-10,0.,-50.0000000000014));
#168= IFCCARTESIANTRANSFORMATIONOPERATOR3D($,$,#167,$,$);
#169= IFCMAPPEDITEM(#145,#168);
#170= IFCCARTESIANPOINT((69.9999999998327,0.,-50.0000000002879));
#171= IFCCARTESIANTRANSFORMATIONOPERATOR3D($,$,#170,$,$);
#172= IFCMAPPEDITEM(#145,#171);
#173= IFCCARTESIANPOINT((139.999999999935,0.,-50.0000000005741));
#174= IFCCARTESIANTRANSFORMATIONOPERATOR3D($,$,#173,$,$);
#175= IFCMAPPEDITEM(#145,#174);
#176= IFCCARTESIANPOINT((210.000000000029,0.,-50.0000000008604));
#177= IFCCARTESIANTRANSFORMATIONOPERATOR3D($,$,#176,$,$);
#178= IFCMAPPEDITEM(#145,#177);
#179= IFCCARTESIANPOINT((280.000000000124,0.,-50.0000000011471));
#180= IFCCARTESIANTRANSFORMATIONOPERATOR3D($,$,#179,$,$);
#181= IFCMAPPEDITEM(#145,#180);
#182= IFCCARTESIANPOINT((350.000000000226,0.,-50.0000000014334));
#183= IFCCARTESIANTRANSFORMATIONOPERATOR3D($,$,#182,$,$);
#184= IFCMAPPEDITEM(#145,#183);
#185= IFCCARTESIANPOINT((420.00000000032,0.,-50.0000000017199));
#186= IFCCARTESIANTRANSFORMATIONOPERATOR3D($,$,#185,$,$);
#187= IFCMAPPEDITEM(#145,#186);
#188= IFCSHAPEREPRESENTATION(#12,'Body','MappedRepresentation',(#148,#151,#154,#157,#160,#163,#166,#169,#172,#175,#178,#181,#184,#187));
#189= IFCPRODUCTDEFINITIONSHAPE($,$,(#188));
#190= IFCOPENINGELEMENT('1WrC0RpVH9OwPVIVEHiFT5',#5,$,$,'Opening',#139,#189,$);
#191= IFCRELVOIDSELEMENT('14xrXOhPvAeetF5nBmjhbS',#5,'Drill Hole',$,#69,#190);
#192= IFCPROPERTYSINGLEVALUE('FeatureSubTypes',$,IFCLABEL('TORNILLO'),$);
#193= IFCPROPERTYSINGLEVALUE('RectangleOpeningWidth',$,$,$);
#194= IFCPROPERTYSINGLEVALUE('RectangleOpeningHeight',$,$,$);
#195= IFCPROPERTYSET('0d6j3bSEr5YfzPQILPb1sg',#5,'AISC_EM11_Pset_Opening/Cope',$,(#192,#193,#194,#83));
#196= IFCCARTESIANPOINT((42515.75,1603.38122277425,19350.));
#197= IFCAXIS2PLACEMENT3D(#196,#7,#72);
#198= IFCLOCALPLACEMENT(#42,#197);
#199= IFCCIRCLEPROFILEDEF(.AREA.,$,#50,11.);
#200= IFCCARTESIANPOINT((0.,-5.85000000000001,0.));
#201= IFCAXIS2PLACEMENT3D(#200,#8,#7);
#202= IFCEXTRUDEDAREASOLID(#199,#201,#9,11.7);
#203= IFCSHAPEREPRESENTATION(#12,'Body','SweptSolid',(#202));
#204= IFCREPRESENTATIONMAP(#10,#203);
#205= IFCCARTESIANPOINT((80.,0.,40.));
#206= IFCCARTESIANTRANSFORMATIONOPERATOR3D($,$,#205,$,$);
#207= IFCMAPPEDITEM(#204,#206);
#208= IFCCARTESIANPOINT((150.,0.,40.));
#209= IFCCARTESIANTRANSFORMATIONOPERATOR3D($,$,#208,$,$);
#210= IFCMAPPEDITEM(#204,#209);
#211= IFCCARTESIANPOINT((220.,0.,40.));
#212= IFCCARTESIANTRANSFORMATIONOPERATOR3D($,$,#211,$,$);
#213= IFCMAPPEDITEM(#204,#212);
#214= IFCCARTESIANPOINT((290.,0.,40.));
#215= IFCCARTESIANTRANSFORMATIONOPERATOR3D($,$,#214,$,$);
#216= IFCMAPPEDITEM(#204,#215);
#217= IFCCARTESIANPOINT((360.,0.,40.));
#218= IFCCARTESIANTRANSFORMATIONOPERATOR3D($,$,#217,$,$);
#219= IFCMAPPEDITEM(#204,#218);
#220= IFCSHAPEREPRESENTATION(#12,'Body','MappedRepresentation',(#207,#210,#213,#216,#219));
#221= IFCPRODUCTDEFINITIONSHAPE($,$,(#220));
#222= IFCOPENINGELEMENT('0vUKyqlOH2C87w1W9ZEz$p',#5,$,$,'Opening',#198,#221,$);
#223= IFCRELVOIDSELEMENT('2KYETKQdTBtxK87w$t0ZIy',#5,'Drill Hole',$,#69,#222);
#224= IFCCARTESIANPOINT((42702.7004364853,1603.38122277425,19350.));
#225= IFCDIRECTION((-0.00127341800025897,0.99999918920297,0.));
#226= IFCAXIS2PLACEMENT3D(#224,#225,#137);
#227= IFCLOCALPLACEMENT(#42,#226);
#228= IFCSHAPEREPRESENTATION(#12,'Body','MappedRepresentation',(#169,#172,#175,#178,#181,#184,#187,#148,#151,#154,#157,#160,#163,#166));
#229= IFCPRODUCTDEFINITIONSHAPE($,$,(#228));
#230= IFCOPENINGELEMENT('35j$QMU89FiBh0$x8w0876',#5,$,$,'Opening',#227,#229,$);
#231= IFCRELVOIDSELEMENT('3cPxfr78j2NhX1wV6a6k3A',#5,'Drill Hole',$,#69,#230);
#232= IFCCARTESIANPOINT((50732.0175084489,1603.95500248076,18910.));
#233= IFCDIRECTION((-7.12890000359039E-05,0.999999997458939,0.));
#234= IFCDIRECTION((-0.999999997458939,-7.12890000327464E-05,0.));
#235= IFCAXIS2PLACEMENT3D(#232,#233,#234);
#236= IFCLOCALPLACEMENT(#42,#235);
#237= IFCCARTESIANPOINT((-3.05590219795704E-10,0.,74.9999999999898));
#238= IFCCARTESIANTRANSFORMATIONOPERATOR3D($,$,#237,$,$);
#239= IFCMAPPEDITEM(#145,#238);
#240= IFCCARTESIANPOINT((74.9999999999563,0.,75.0000000004675));
#241= IFCCARTESIANTRANSFORMATIONOPERATOR3D($,$,#240,$,$);
#242= IFCMAPPEDITEM(#145,#241);
#243= IFCCARTESIANPOINT((150.000000000218,0.,75.0000000009447));
#244= IFCCARTESIANTRANSFORMATIONOPERATOR3D($,$,#243,$,$);
#245= IFCMAPPEDITEM(#145,#244);
#246= IFCCARTESIANPOINT((225.00000000048,0.,75.0000000014222));
#247= IFCCARTESIANTRANSFORMATIONOPERATOR3D($,$,#246,$,$);
#248= IFCMAPPEDITEM(#145,#247);
#249= IFCCARTESIANPOINT((300.000000000742,0.,75.0000000018997));
#250= IFCCARTESIANTRANSFORMATIONOPERATOR3D($,$,#249,$,$);
#251= IFCMAPPEDITEM(#145,#250);
#252= IFCCARTESIANPOINT((375.000000001011,0.,75.0000000023774));
#253= IFCCARTESIANTRANSFORMATIONOPERATOR3D($,$,#252,$,$);
#254= IFCMAPPEDITEM(#145,#253);
#255= IFCCARTESIANPOINT((450.000000001273,0.,75.0000000028547));
#256= IFCCARTESIANTRANSFORMATIONOPERATOR3D($,$,#255,$,$);
#257= IFCMAPPEDITEM(#145,#256);
#258= IFCCARTESIANPOINT((525.000000001535,0.,75.0000000033322));
#259= IFCCARTESIANTRANSFORMATIONOPERATOR3D($,$,#258,$,$);
#260= IFCMAPPEDITEM(#145,#259);
#261= IFCCARTESIANPOINT((600.000000001797,0.,75.0000000038099));
#262= IFCCARTESIANTRANSFORMATIONOPERATOR3D($,$,#261,$,$);
#263= IFCMAPPEDITEM(#145,#262);
#264= IFCCARTESIANPOINT((675.000000002059,0.,75.0000000042874));
#265= IFCCARTESIANTRANSFORMATIONOPERATOR3D($,$,#264,$,$);
#266= IFCMAPPEDITEM(#145,#265);
#267= IFCCARTESIANPOINT((3.12866177409887E-10,0.,-74.99999999999));
#268= IFCCARTESIANTRANSFORMATIONOPERATOR3D($,$,#267,$,$);
#269= IFCMAPPEDITEM(#145,#268);
#270= IFCCARTESIANPOINT((75.0000000005748,0.,-74.9999999995123));
#271= IFCCARTESIANTRANSFORMATIONOPERATOR3D($,$,#270,$,$);
#272= IFCMAPPEDITEM(#145,#271);
#273= IFCCARTESIANPOINT((150.000000000837,0.,-74.999999999035));
#274= IFCCARTESIANTRANSFORMATIONOPERATOR3D($,$,#273,$,$);
#275= IFCMAPPEDITEM(#145,#274);
#276= IFCCARTESIANPOINT((225.000000001099,0.,-74.9999999985575));
#277= IFCCARTESIANTRANSFORMATIONOPERATOR3D($,$,#276,$,$);
#278= IFCMAPPEDITEM(#145,#277);
#279= IFCCARTESIANPOINT((300.000000001361,0.,-74.9999999980801));
#280= IFCCARTESIANTRANSFORMATIONOPERATOR3D($,$,#279,$,$);
#281= IFCMAPPEDITEM(#145,#280);
#282= IFCCARTESIANPOINT((375.000000001623,0.,-74.9999999976023));
#283= IFCCARTESIANTRANSFORMATIONOPERATOR3D($,$,#282,$,$);
#284= IFCMAPPEDITEM(#145,#283);
#285= IFCCARTESIANPOINT((450.000000001884,0.,-74.9999999971251));
#286= IFCCARTESIANTRANSFORMATIONOPERATOR3D($,$,#285,$,$);
#287= IFCMAPPEDITEM(#145,#286);
#288= IFCCARTESIANPOINT((525.000000002146,0.,-74.9999999966476));
#289= IFCCARTESIANTRANSFORMATIONOPERATOR3D($,$,#288,$,$);
#290= IFCMAPPEDITEM(#145,#289);
#291= IFCCARTESIANPOINT((600.000000002408,0.,-74.9999999961699));
#292= IFCCARTESIANTRANSFORMATIONOPERATOR3D($,$,#291,$,$);
#293= IFCMAPPEDITEM(#145,#292);
#294= IFCCARTESIANPOINT((675.000000002678,0.,-74.9999999956924));
#295= IFCCARTESIANTRANSFORMATIONOPERATOR3D($,$,#294,$,$);
#296= IFCMAPPEDITEM(#145,#295);
#297= IFCSHAPEREPRESENTATION(#12,'Body','MappedRepresentation',(#239,#242,#245,#248,#251,#254,#257,#260,#263,#266,#269,#272,#275,#278,#281,#284,#287,#290,#293,#296));
#298= IFCPRODUCTDEFINITIONSHAPE($,$,(#297));
#299= IFCOPENINGELEMENT('28ZlrxkGX6xhTmZ8GfoIVl',#5,$,$,'Opening',#236,#298,$);
#300= IFCRELVOIDSELEMENT('3FUzIymd1Fv9d06aguyGWd',#5,'Drill Hole',$,#69,#299);
#301= IFCCARTESIANPOINT((50732.0175084489,1603.95500248076,19350.));
#302= IFCDIRECTION((7.12890000359039E-05,-0.999999997458939,0.));
#303= IFCAXIS2PLACEMENT3D(#301,#302,#234);
#304= IFCLOCALPLACEMENT(#42,#303);
#305= IFCSHAPEREPRESENTATION(#12,'Body','MappedRepresentation',(#269,#272,#275,#278,#281,#284,#287,#290,#293,#296,#239,#242,#245,#248,#251,#254,#257,#260,#263,#266));
#306= IFCPRODUCTDEFINITIONSHAPE($,$,(#305));
#307= IFCOPENINGELEMENT('3w19sn6En9gQyxCFFhNaNJ',#5,$,$,'Opening',#304,#306,$);
#308= IFCRELVOIDSELEMENT('2LhuRDP958c9DvCHbrRTm_',#5,'Drill Hole',$,#69,#307);
#309= IFCCARTESIANPOINT((50777.0175275026,1603.38122277425,19350.));
#310= IFCAXIS2PLACEMENT3D(#309,#53,#72);
#311= IFCLOCALPLACEMENT(#42,#310);
#312= IFCCIRCLEPROFILEDEF(.AREA.,$,#50,12.5);
#313= IFCEXTRUDEDAREASOLID(#312,#201,#9,11.7);
#314= IFCSHAPEREPRESENTATION(#12,'Body','SweptSolid',(#313));
#315= IFCREPRESENTATIONMAP(#10,#314);
#316= IFCCARTESIANPOINT((107.5,0.,45.));
#317= IFCCARTESIANTRANSFORMATIONOPERATOR3D($,$,#316,$,$);
#318= IFCMAPPEDITEM(#315,#317);
#319= IFCCARTESIANPOINT((182.5,0.,45.));
#320= IFCCARTESIANTRANSFORMATIONOPERATOR3D($,$,#319,$,$);
#321= IFCMAPPEDITEM(#315,#320);
#322= IFCCARTESIANPOINT((257.5,0.,45.));
#323= IFCCARTESIANTRANSFORMATIONOPERATOR3D($,$,#322,$,$);
#324= IFCMAPPEDITEM(#315,#323);
#325= IFCCARTESIANPOINT((332.5,0.,45.));
#326= IFCCARTESIANTRANSFORMATIONOPERATOR3D($,$,#325,$,$);
#327= IFCMAPPEDITEM(#315,#326);
#328= IFCSHAPEREPRESENTATION(#12,'Body','MappedRepresentation',(#318,#321,#324,#327));
#329= IFCPRODUCTDEFINITIONSHAPE($,$,(#328));
#330= IFCOPENINGELEMENT('1EzM$BoNzDHeL0_RLYzqBl',#5,$,$,'Opening',#311,#329,$);
#331= IFCRELVOIDSELEMENT('3_KmjMrQ5EnAu$424Xr7tl',#5,'Drill Hole',$,#69,#330);
#332= IFCPROPERTYSINGLEVALUE('PieceMark',$,IFCIDENTIFIER('BEAM'),$);
#333= IFCPROPERTYSINGLEVALUE('IndicationMark',$,IFCIDENTIFIER('b/168'),$);
#334= IFCPROPERTYSINGLEVALUE('PrelimMark',$,IFCIDENTIFIER(''),$);
#335= IFCPROPERTYSINGLEVALUE('MainPieceTag',$,IFCBOOLEAN(.F.),$);
#336= IFCPROPERTYSET('2P_IRzZ7nEMxzjOKJCe6cC',#5,'AISC_EM11_Pset_PieceIdentification','PieceIdentity',(#332,#333,#334,#335));
#337= IFCPROPERTYSINGLEVALUE('MaterialType',$,IFCIDENTIFIER('STEEL'),$);
#338= IFCPROPERTYSINGLEVALUE('MaterialGrade',$,IFCIDENTIFIER('S235JR'),$);
#339= IFCPROPERTYSET('18qDo8XIHFVg9Cbq1HEPzF',#5,'AISC_EM11_Pset_Material',$,(#337,#338));
#340= IFCPROPERTYSINGLEVALUE('SkewedAngleY',$,IFCREAL(0.),$);
#341= IFCPROPERTYSINGLEVALUE('SkewedAngleX',$,IFCREAL(0.),$);
#342= IFCPROPERTYSET('13sYKyddP0aPXHs4gWoncB',#5,'AISC_EM11_Pset_SkewedEnd',$,(#340,#341));
#343= IFCPROPERTYSET('0J4QZlmln6TwsiMhX0aa3U',#5,'AISC_EM11_Pset_SkewedEnd_2',$,(#340,#341));
#344= IFCMATERIAL('STEEL/S235JR');
#345= IFCRELAGGREGATES('1IEUREyOzEu8yYcN4aFdrx',#5,$,$,#37,(#39));
#346= IFCRELAGGREGATES('2aWmjWEgFWAQEqufMsXv7D',#5,$,$,#39,(#41));
#347= IFCRELAGGREGATES('29WOvr37P1ruuNYhQt2nwS',#5,$,$,#41,(#43));
#348= IFCRELCONTAINEDINSPATIALSTRUCTURE('0qFVW2075FreMhZvAPJke9',#5,$,$,(#69),#43);
#349= IFCRELDEFINESBYPROPERTIES('0jTPvuRmP8Ixozbl8hcSaJ',#5,$,$,(#91,#78),#84);
#350= IFCRELDEFINESBYPROPERTIES('1Ipbhnq9H3WQrLtq2JWJaB',#5,$,$,(#100),#104);
#351= IFCRELDEFINESBYPROPERTIES('0N4iVb6s198hQ4sCVOumpT',#5,$,$,(#112),#115);
#352= IFCRELDEFINESBYPROPERTIES('1R5TReiCDDx8gClBBlNcoh',#5,$,$,(#133,#123),#126);
#353= IFCRELDEFINESBYPROPERTIES('3t5trSY_P9sf2m9lVXmKLh',#5,$,$,(#330,#307,#299,#230,#222,#190),#195);
#354= IFCRELDEFINESBYPROPERTIES('1Oy5i$_aX5gP70ITbHo8MR',#5,$,$,(#69),#336);
#355= IFCRELDEFINESBYPROPERTIES('0HIKHrz6n4Qe1SMphfszqU',#5,$,$,(#69),#339);
#356= IFCRELDEFINESBYPROPERTIES('3pGZJmRcb4eQlC5txPtP48',#5,$,$,(#69),#342);
#357= IFCRELDEFINESBYPROPERTIES('1eavFPRPvFQuCtW9gSYC1v',#5,$,$,(#69),#343);
#358= IFCRELASSOCIATESMATERIAL('3gKf2_gE578u3nerkCV4CU',#5,$,$,(#69),#344);
ENDSEC;

END-ISO-10303-21;
