ISO-10303-21;
HEADER;
FILE_DESCRIPTION(('ViewDefinition[AISC_Steel_Detailing]', 'Option [BaseQuantities:Off]', 'Option [GridExport:On]', 'Option [Assemblies:Off]', 'Option [Bolts:On]', 'Option [Rebars:On]', 'Option [PourObjects:Off]', 'Option [Welds:On]', 'Option [SurfaceTreatments:On]', 'Option [LocationBy:0]', 'Option [ViewColors:Off]', 'Option [SectionedSpine:Off]', 'Option [PropertySets:On]', 'Option [Export all:Off]'),'2;1');
FILE_NAME('b_167_Qty_1.ifc','2026-05-16T11:53:20',('GIOVANNIPC\\gcorrea'),('Structural Designer'),'IFC Database version: Work','Tekla Structures 2020 Service Pack 5, IFC Export Version: 4.0.0.0 Dec  7 2020','');
FILE_SCHEMA(('IFC2X3'));
ENDSEC;

DATA;
#1= IFCPERSON('GIOVANNIPC\\gcorrea','Undefined',$,$,$,$,$,$);
#2= IFCORGANIZATION($,'Trimble Solutions Corporation',$,$,$);
#3= IFCPERSONANDORGANIZATION(#1,#2,$);
#4= IFCAPPLICATION(#2,'2020 Service Pack 5','Tekla Structures','Multi material modeling');
#5= IFCOWNERHISTORY(#3,#4,$,.NOCHANGE.,$,$,$,1778950400);
#6= IFCCARTESIANPOINT((0.,0.,0.));
#7= IFCDIRECTION((1.,0.,0.));
#8= IFCDIRECTION((0.,1.,0.));
#9= IFCDIRECTION((0.,0.,1.));
#10= IFCAXIS2PLACEMENT3D(#6,#9,#7);
#11= IFCGEOMETRICREPRESENTATIONCONTEXT($,'Model',3,1.E-05,#10,$);
#12= IFCGEOMETRICREPRESENTATIONSUBCONTEXT('Body','Model',*,*,*,*,#11,$,.MODEL_VIEW.,$);
#13= IFCGEOMETRICREPRESENTATIONSUBCONTEXT('Axis','Model',*,*,*,*,#11,$,.GRAPH_VIEW.,$);
#14= IFCGEOMETRICREPRESENTATIONSUBCONTEXT('FootPrint','Model',*,*,*,*,#11,$,.MODEL_VIEW.,$);
#15= IFCSIUNIT(*,.LENGTHUNIT.,.MILLI.,.METRE.);
#16= IFCMEASUREWITHUNIT(IFCRATIOMEASURE(304.8),#15);
#17= IFCDIMENSIONALEXPONENTS(1,0,0,0,0,0,0);
#18= IFCCONVERSIONBASEDUNIT(#17,.LENGTHUNIT.,'FOOT',#16);
#19= IFCSIUNIT(*,.AREAUNIT.,$,.SQUARE_METRE.);
#20= IFCMEASUREWITHUNIT(IFCRATIOMEASURE(0.09290304),#19);
#21= IFCDIMENSIONALEXPONENTS(2,0,0,0,0,0,0);
#22= IFCCONVERSIONBASEDUNIT(#21,.AREAUNIT.,'SQUARE FOOT',#20);
#23= IFCSIUNIT(*,.VOLUMEUNIT.,$,.CUBIC_METRE.);
#24= IFCMEASUREWITHUNIT(IFCRATIOMEASURE(0.028316846592),#23);
#25= IFCDIMENSIONALEXPONENTS(3,0,0,0,0,0,0);
#26= IFCCONVERSIONBASEDUNIT(#25,.VOLUMEUNIT.,'CUBIC FOOT',#24);
#27= IFCSIUNIT(*,.MASSUNIT.,.KILO.,.GRAM.);
#28= IFCSIUNIT(*,.TIMEUNIT.,$,.SECOND.);
#29= IFCSIUNIT(*,.PLANEANGLEUNIT.,$,.RADIAN.);
#30= IFCMEASUREWITHUNIT(IFCRATIOMEASURE(0.0174532925199433),#29);
#31= IFCDIMENSIONALEXPONENTS(0,0,0,0,0,0,0);
#32= IFCCONVERSIONBASEDUNIT(#31,.PLANEANGLEUNIT.,'DEGREE',#30);
#33= IFCSIUNIT(*,.SOLIDANGLEUNIT.,$,.STERADIAN.);
#34= IFCSIUNIT(*,.THERMODYNAMICTEMPERATUREUNIT.,$,.DEGREE_CELSIUS.);
#35= IFCSIUNIT(*,.LUMINOUSINTENSITYUNIT.,$,.LUMEN.);
#36= IFCUNITASSIGNMENT((#15,#19,#23,#27,#28,#29,#33,#34,#35));
#37= IFCPROJECT('2G7ZFDNE16yBDU14FA92Me',#5,'Proyecto',$,$,$,$,(#11),#36);
#38= IFCLOCALPLACEMENT($,#10);
#39= IFCSITE('2xvEzEinjBTea80yOTcujY',#5,'Obra',$,$,#38,$,$,.ELEMENT.,$,$,$,$,$);
#40= IFCLOCALPLACEMENT(#38,#10);
#41= IFCBUILDING('319yaCMIn4e8mrqbsFwLbX',#5,'Undefined',$,$,#40,$,$,.ELEMENT.,$,$,$);
#42= IFCLOCALPLACEMENT(#40,#10);
#43= IFCBUILDINGSTOREY('29hdEUCErFze9E_VIAceOd',#5,'Undefined',$,$,#42,$,$,.ELEMENT.,0.);
#44= IFCOWNERHISTORY(#3,#4,$,.NOCHANGE.,$,$,$,1774018800);
#45= IFCCARTESIANPOINT((34000.,1603.28932952881,19130.));
#46= IFCDIRECTION((0.999999768770052,-0.000680043999843617,0.));
#47= IFCAXIS2PLACEMENT3D(#45,#9,#46);
#48= IFCLOCALPLACEMENT(#42,#47);
#49= IFCDIRECTION((1.,0.));
#50= IFCCARTESIANPOINT((0.,0.));
#51= IFCAXIS2PLACEMENT2D(#50,#49);
#52= IFCISHAPEPROFILEDEF(.AREA.,'HEA450',#51,300.,440.,11.5,21.,27.);
#53= IFCDIRECTION((0.,-1.,0.));
#54= IFCDIRECTION((-1.,0.,0.));
#55= IFCCARTESIANPOINT((8484.457947804,0.,0.));
#56= IFCAXIS2PLACEMENT3D(#55,#54,#53);
#57= IFCEXTRUDEDAREASOLID(#52,#56,#9,8261.76);
#58= IFCDIRECTION((-0.999999768770052,-0.000680043999840563,0.));
#59= IFCCARTESIANPOINT((8484.25196643773,-0.0068004399986421,-320.));
#60= IFCDIRECTION((-0.000680043999840563,0.999999768770052,0.));
#61= IFCAXIS2PLACEMENT3D(#59,#58,#60);
#62= IFCPLANE(#61);
#63= IFCHALFSPACESOLID(#62,.T.);
#64= IFCBOOLEANCLIPPINGRESULT(.DIFFERENCE.,#57,#63);
#65= IFCDIRECTION((0.999999768770052,0.000680043999840564,0.));
#66= IFCCARTESIANPOINT((222.901074298039,0.241800511261772,-325.));
#67= IFCDIRECTION((0.000680043999840564,-0.999999768770052,0.));
#68= IFCAXIS2PLACEMENT3D(#66,#65,#67);
#69= IFCPLANE(#68);
#70= IFCHALFSPACESOLID(#69,.T.);
#71= IFCBOOLEANCLIPPINGRESULT(.DIFFERENCE.,#64,#70);
#72= IFCSHAPEREPRESENTATION(#12,'Body','Clipping',(#71));
#73= IFCPRODUCTDEFINITIONSHAPE($,$,(#72));
#74= IFCBEAM('2x7_62si5BAPzhBx4ZY_BZ',#44,'BEAM','HEA450','HEA450',#48,#73,'IDbb1fe182-dac1-4b29-9f6b-2fb1238be2e3');
#75= IFCLOCALPLACEMENT(#42,#47);
#76= IFCRECTANGLEPROFILEDEF(.AREA.,'PL49*156.3',#51,49.,156.3);
#77= IFCDIRECTION((0.,0.,-1.));
#78= IFCCARTESIANPOINT((8418.0204698927,156.573112550044,-196.5));
#79= IFCAXIS2PLACEMENT3D(#78,#67,#77);
#80= IFCEXTRUDEDAREASOLID(#76,#79,#9,307.62);
#81= IFCSHAPEREPRESENTATION(#12,'Body','SweptSolid',(#80));
#82= IFCPRODUCTDEFINITIONSHAPE($,$,(#81));
#83= IFCOPENINGELEMENT('0M2psPrrzEcfIDvfxkGxUG',#5,$,$,'Recess',#75,#82,$);
#84= IFCRELVOIDSELEMENT('0$gRxgmUHAGQfdXcE5qMTG',#5,$,$,#74,#83);
#85= IFCPROPERTYSINGLEVALUE('FeatureSubTypes',$,$,$);
#86= IFCPROPERTYSINGLEVALUE('RectangleOpeningWidth',$,IFCPOSITIVELENGTHMEASURE(49.),$);
#87= IFCPROPERTYSINGLEVALUE('RectangleOpeningHeight',$,IFCPOSITIVELENGTHMEASURE(156.3),$);
#88= IFCPROPERTYSINGLEVALUE('OpeningDiameter',$,$,$);
#89= IFCPROPERTYSET('2_uPV7I9j759RHboiOtq1b',#5,'AISC_EM11_Pset_Opening/Cope',$,(#85,#86,#87,#88));
#90= IFCLOCALPLACEMENT(#42,#47);
#91= IFCCARTESIANPOINT((8418.0204698927,156.573112550044,196.5));
#92= IFCAXIS2PLACEMENT3D(#91,#67,#77);
#93= IFCEXTRUDEDAREASOLID(#76,#92,#9,307.62);
#94= IFCSHAPEREPRESENTATION(#12,'Body','SweptSolid',(#93));
#95= IFCPRODUCTDEFINITIONSHAPE($,$,(#94));
#96= IFCOPENINGELEMENT('21qtK9Ot98ywxv$MnYb3PN',#5,$,$,'Recess',#90,#95,$);
#97= IFCRELVOIDSELEMENT('0CXM2uQgf529cSjYDNdnJM',#5,$,$,#74,#96);
#98= IFCLOCALPLACEMENT(#42,#47);
#99= IFCRECTANGLEPROFILEDEF(.AREA.,'PL162.8*12',#51,12.,162.8);
#100= IFCCARTESIANPOINT((206.94385465658,69.7429096284002,221.));
#101= IFCAXIS2PLACEMENT3D(#100,#77,#65);
#102= IFCEXTRUDEDAREASOLID(#99,#101,#9,442.);
#103= IFCSHAPEREPRESENTATION(#12,'Body','SweptSolid',(#102));
#104= IFCPRODUCTDEFINITIONSHAPE($,$,(#103));
#105= IFCOPENINGELEMENT('0sdCqvsUjCpRzU8aaV0W02',#5,$,$,'Recess',#98,#104,$);
#106= IFCRELVOIDSELEMENT('03q_XO46TEDQDuk13f2vSI',#5,$,$,#74,#105);
#107= IFCPROPERTYSINGLEVALUE('RectangleOpeningWidth',$,IFCPOSITIVELENGTHMEASURE(12.),$);
#108= IFCPROPERTYSINGLEVALUE('RectangleOpeningHeight',$,IFCPOSITIVELENGTHMEASURE(162.8),$);
#109= IFCPROPERTYSET('3T1krsy_f1senDCUY3Xu_w',#5,'AISC_EM11_Pset_Opening/Cope',$,(#85,#107,#108,#88));
#110= IFCLOCALPLACEMENT(#42,#47);
#111= IFCRECTANGLEPROFILEDEF(.AREA.,'PL163.2*12',#51,12.,163.2);
#112= IFCCARTESIANPOINT((207.038382132014,-69.2590572962242,221.));
#113= IFCAXIS2PLACEMENT3D(#112,#77,#65);
#114= IFCEXTRUDEDAREASOLID(#111,#113,#9,442.);
#115= IFCSHAPEREPRESENTATION(#12,'Body','SweptSolid',(#114));
#116= IFCPRODUCTDEFINITIONSHAPE($,$,(#115));
#117= IFCOPENINGELEMENT('17_AaRhBn3h9etACLJH7iz',#5,$,$,'Recess',#110,#116,$);
#118= IFCRELVOIDSELEMENT('2bESLm5xv81gy6Xk8jbFTz',#5,$,$,#74,#117);
#119= IFCPROPERTYSINGLEVALUE('RectangleOpeningHeight',$,IFCPOSITIVELENGTHMEASURE(163.2),$);
#120= IFCPROPERTYSET('2$ntel1TL8uP3AIf$S7O0n',#5,'AISC_EM11_Pset_Opening/Cope',$,(#85,#107,#119,#88));
#121= IFCLOCALPLACEMENT(#42,#47);
#122= IFCRECTANGLEPROFILEDEF(.AREA.,'PL108*12.1',#51,12.1,108.);
#123= IFCCARTESIANPOINT((206.921135616089,43.3602032070326,226.));
#124= IFCAXIS2PLACEMENT3D(#123,#77,#65);
#125= IFCEXTRUDEDAREASOLID(#122,#124,#9,452.);
#126= IFCSHAPEREPRESENTATION(#12,'Body','SweptSolid',(#125));
#127= IFCPRODUCTDEFINITIONSHAPE($,$,(#126));
#128= IFCOPENINGELEMENT('3EduYDnR1Edwd5SplJ8xyM',#5,$,$,'Recess',#121,#127,$);
#129= IFCRELVOIDSELEMENT('3fi2Z3dyrESQR8J0t1xdW0',#5,$,$,#74,#128);
#130= IFCPROPERTYSINGLEVALUE('RectangleOpeningWidth',$,IFCPOSITIVELENGTHMEASURE(12.1),$);
#131= IFCPROPERTYSINGLEVALUE('RectangleOpeningHeight',$,IFCPOSITIVELENGTHMEASURE(108.),$);
#132= IFCPROPERTYSET('33W5NJmWP7NvoMEEik60cJ',#5,'AISC_EM11_Pset_Opening/Cope',$,(#85,#130,#131,#88));
#133= IFCLOCALPLACEMENT(#42,#47);
#134= IFCRECTANGLEPROFILEDEF(.AREA.,'PL109.1*12.1',#51,12.1,109.1);
#135= IFCCARTESIANPOINT((206.978641786365,-41.2022030449598,226.));
#136= IFCAXIS2PLACEMENT3D(#135,#77,#65);
#137= IFCEXTRUDEDAREASOLID(#134,#136,#9,452.);
#138= IFCSHAPEREPRESENTATION(#12,'Body','SweptSolid',(#137));
#139= IFCPRODUCTDEFINITIONSHAPE($,$,(#138));
#140= IFCOPENINGELEMENT('0F9TQ4iKP1bfBnZU8BgtNq',#5,$,$,'Recess',#133,#139,$);
#141= IFCRELVOIDSELEMENT('2ASuWFxDn80OYfZk_OgMRO',#5,$,$,#74,#140);
#142= IFCPROPERTYSINGLEVALUE('RectangleOpeningHeight',$,IFCPOSITIVELENGTHMEASURE(109.1),$);
#143= IFCPROPERTYSET('3rwbxfCvX4_OCZecOlxdyp',#5,'AISC_EM11_Pset_Opening/Cope',$,(#85,#130,#142,#88));
#144= IFCCARTESIANPOINT((42297.299130333,1603.38122277425,18910.));
#145= IFCAXIS2PLACEMENT3D(#144,#8,#54);
#146= IFCLOCALPLACEMENT(#42,#145);
#147= IFCCIRCLEPROFILEDEF(.AREA.,$,#51,11.5);
#148= IFCCARTESIANPOINT((0.,-0.0999999999999929,0.));
#149= IFCAXIS2PLACEMENT3D(#148,#8,#7);
#150= IFCEXTRUDEDAREASOLID(#147,#149,#9,21.2);
#151= IFCSHAPEREPRESENTATION(#12,'Body','SweptSolid',(#150));
#152= IFCREPRESENTATIONMAP(#10,#151);
#153= IFCCARTESIANPOINT((0.,0.,50.));
#154= IFCCARTESIANTRANSFORMATIONOPERATOR3D($,$,#153,$,$);
#155= IFCMAPPEDITEM(#152,#154);
#156= IFCCARTESIANPOINT((70.,0.,50.));
#157= IFCCARTESIANTRANSFORMATIONOPERATOR3D($,$,#156,$,$);
#158= IFCMAPPEDITEM(#152,#157);
#159= IFCCARTESIANPOINT((140.,0.,50.));
#160= IFCCARTESIANTRANSFORMATIONOPERATOR3D($,$,#159,$,$);
#161= IFCMAPPEDITEM(#152,#160);
#162= IFCCARTESIANPOINT((210.,0.,50.));
#163= IFCCARTESIANTRANSFORMATIONOPERATOR3D($,$,#162,$,$);
#164= IFCMAPPEDITEM(#152,#163);
#165= IFCCARTESIANPOINT((280.,0.,50.));
#166= IFCCARTESIANTRANSFORMATIONOPERATOR3D($,$,#165,$,$);
#167= IFCMAPPEDITEM(#152,#166);
#168= IFCCARTESIANPOINT((350.,0.,50.));
#169= IFCCARTESIANTRANSFORMATIONOPERATOR3D($,$,#168,$,$);
#170= IFCMAPPEDITEM(#152,#169);
#171= IFCCARTESIANPOINT((420.,0.,50.));
#172= IFCCARTESIANTRANSFORMATIONOPERATOR3D($,$,#171,$,$);
#173= IFCMAPPEDITEM(#152,#172);
#174= IFCCARTESIANPOINT((0.,0.,-50.));
#175= IFCCARTESIANTRANSFORMATIONOPERATOR3D($,$,#174,$,$);
#176= IFCMAPPEDITEM(#152,#175);
#177= IFCCARTESIANPOINT((70.,0.,-50.));
#178= IFCCARTESIANTRANSFORMATIONOPERATOR3D($,$,#177,$,$);
#179= IFCMAPPEDITEM(#152,#178);
#180= IFCCARTESIANPOINT((140.,0.,-50.));
#181= IFCCARTESIANTRANSFORMATIONOPERATOR3D($,$,#180,$,$);
#182= IFCMAPPEDITEM(#152,#181);
#183= IFCCARTESIANPOINT((210.,0.,-50.));
#184= IFCCARTESIANTRANSFORMATIONOPERATOR3D($,$,#183,$,$);
#185= IFCMAPPEDITEM(#152,#184);
#186= IFCCARTESIANPOINT((280.,0.,-50.));
#187= IFCCARTESIANTRANSFORMATIONOPERATOR3D($,$,#186,$,$);
#188= IFCMAPPEDITEM(#152,#187);
#189= IFCCARTESIANPOINT((350.,0.,-50.));
#190= IFCCARTESIANTRANSFORMATIONOPERATOR3D($,$,#189,$,$);
#191= IFCMAPPEDITEM(#152,#190);
#192= IFCCARTESIANPOINT((420.,0.,-50.));
#193= IFCCARTESIANTRANSFORMATIONOPERATOR3D($,$,#192,$,$);
#194= IFCMAPPEDITEM(#152,#193);
#195= IFCSHAPEREPRESENTATION(#12,'Body','MappedRepresentation',(#155,#158,#161,#164,#167,#170,#173,#176,#179,#182,#185,#188,#191,#194));
#196= IFCPRODUCTDEFINITIONSHAPE($,$,(#195));
#197= IFCOPENINGELEMENT('3ayatojkrEnvfXUFiopViw',#5,$,$,'Opening',#146,#196,$);
#198= IFCRELVOIDSELEMENT('3$uLlQpQv2QRrekbXKF$y5',#5,'Drill Hole',$,#74,#197);
#199= IFCPROPERTYSINGLEVALUE('FeatureSubTypes',$,IFCLABEL('TORNILLO'),$);
#200= IFCPROPERTYSINGLEVALUE('RectangleOpeningWidth',$,$,$);
#201= IFCPROPERTYSINGLEVALUE('RectangleOpeningHeight',$,$,$);
#202= IFCPROPERTYSET('1iUDFV4gv9rBD5pd7aWxq2',#5,'AISC_EM11_Pset_Opening/Cope',$,(#199,#200,#201,#88));
#203= IFCCARTESIANPOINT((42484.25,1597.52646533041,19350.));
#204= IFCAXIS2PLACEMENT3D(#203,#54,#77);
#205= IFCLOCALPLACEMENT(#42,#204);
#206= IFCCIRCLEPROFILEDEF(.AREA.,$,#51,11.);
#207= IFCCARTESIANPOINT((0.,-5.87040265428558,0.));
#208= IFCAXIS2PLACEMENT3D(#207,#8,#7);
#209= IFCEXTRUDEDAREASOLID(#206,#208,#9,11.7);
#210= IFCSHAPEREPRESENTATION(#12,'Body','SweptSolid',(#209));
#211= IFCREPRESENTATIONMAP(#10,#210);
#212= IFCCARTESIANPOINT((80.,0.,40.));
#213= IFCCARTESIANTRANSFORMATIONOPERATOR3D($,$,#212,$,$);
#214= IFCMAPPEDITEM(#211,#213);
#215= IFCCARTESIANPOINT((150.,0.,40.));
#216= IFCCARTESIANTRANSFORMATIONOPERATOR3D($,$,#215,$,$);
#217= IFCMAPPEDITEM(#211,#216);
#218= IFCCARTESIANPOINT((220.,0.,40.));
#219= IFCCARTESIANTRANSFORMATIONOPERATOR3D($,$,#218,$,$);
#220= IFCMAPPEDITEM(#211,#219);
#221= IFCCARTESIANPOINT((290.,0.,40.));
#222= IFCCARTESIANTRANSFORMATIONOPERATOR3D($,$,#221,$,$);
#223= IFCMAPPEDITEM(#211,#222);
#224= IFCCARTESIANPOINT((360.,0.,40.));
#225= IFCCARTESIANTRANSFORMATIONOPERATOR3D($,$,#224,$,$);
#226= IFCMAPPEDITEM(#211,#225);
#227= IFCSHAPEREPRESENTATION(#12,'Body','MappedRepresentation',(#214,#217,#220,#223,#226));
#228= IFCPRODUCTDEFINITIONSHAPE($,$,(#227));
#229= IFCOPENINGELEMENT('0PnMpB5o11jRIA9cdFrbDB',#5,$,$,'Opening',#205,#228,$);
#230= IFCRELVOIDSELEMENT('0kiQq0Em14uvizdmMaeQA2',#5,'Drill Hole',$,#74,#229);
#231= IFCCARTESIANPOINT((42297.299130333,1603.38122277425,19350.));
#232= IFCAXIS2PLACEMENT3D(#231,#53,#54);
#233= IFCLOCALPLACEMENT(#42,#232);
#234= IFCSHAPEREPRESENTATION(#12,'Body','MappedRepresentation',(#176,#179,#182,#185,#188,#191,#194,#155,#158,#161,#164,#167,#170,#173));
#235= IFCPRODUCTDEFINITIONSHAPE($,$,(#234));
#236= IFCOPENINGELEMENT('2$DC9a5594uvhyl_CcWxv_',#5,$,$,'Opening',#233,#235,$);
#237= IFCRELVOIDSELEMENT('0XjirhGgr00eSGsPk_PZs1',#5,'Drill Hole',$,#74,#236);
#238= IFCCARTESIANPOINT((34267.9824510498,1603.86311008256,18910.));
#239= IFCAXIS2PLACEMENT3D(#238,#53,#7);
#240= IFCLOCALPLACEMENT(#42,#239);
#241= IFCCARTESIANPOINT((0.,0.,75.));
#242= IFCCARTESIANTRANSFORMATIONOPERATOR3D($,$,#241,$,$);
#243= IFCMAPPEDITEM(#152,#242);
#244= IFCCARTESIANPOINT((75.,0.,75.));
#245= IFCCARTESIANTRANSFORMATIONOPERATOR3D($,$,#244,$,$);
#246= IFCMAPPEDITEM(#152,#245);
#247= IFCCARTESIANPOINT((150.,0.,75.));
#248= IFCCARTESIANTRANSFORMATIONOPERATOR3D($,$,#247,$,$);
#249= IFCMAPPEDITEM(#152,#248);
#250= IFCCARTESIANPOINT((225.,0.,75.));
#251= IFCCARTESIANTRANSFORMATIONOPERATOR3D($,$,#250,$,$);
#252= IFCMAPPEDITEM(#152,#251);
#253= IFCCARTESIANPOINT((300.,0.,75.));
#254= IFCCARTESIANTRANSFORMATIONOPERATOR3D($,$,#253,$,$);
#255= IFCMAPPEDITEM(#152,#254);
#256= IFCCARTESIANPOINT((375.,0.,75.));
#257= IFCCARTESIANTRANSFORMATIONOPERATOR3D($,$,#256,$,$);
#258= IFCMAPPEDITEM(#152,#257);
#259= IFCCARTESIANPOINT((450.,0.,75.));
#260= IFCCARTESIANTRANSFORMATIONOPERATOR3D($,$,#259,$,$);
#261= IFCMAPPEDITEM(#152,#260);
#262= IFCCARTESIANPOINT((525.,0.,75.));
#263= IFCCARTESIANTRANSFORMATIONOPERATOR3D($,$,#262,$,$);
#264= IFCMAPPEDITEM(#152,#263);
#265= IFCCARTESIANPOINT((600.,0.,75.));
#266= IFCCARTESIANTRANSFORMATIONOPERATOR3D($,$,#265,$,$);
#267= IFCMAPPEDITEM(#152,#266);
#268= IFCCARTESIANPOINT((675.,0.,75.));
#269= IFCCARTESIANTRANSFORMATIONOPERATOR3D($,$,#268,$,$);
#270= IFCMAPPEDITEM(#152,#269);
#271= IFCCARTESIANPOINT((0.,0.,-75.));
#272= IFCCARTESIANTRANSFORMATIONOPERATOR3D($,$,#271,$,$);
#273= IFCMAPPEDITEM(#152,#272);
#274= IFCCARTESIANPOINT((75.,0.,-75.));
#275= IFCCARTESIANTRANSFORMATIONOPERATOR3D($,$,#274,$,$);
#276= IFCMAPPEDITEM(#152,#275);
#277= IFCCARTESIANPOINT((150.,0.,-75.));
#278= IFCCARTESIANTRANSFORMATIONOPERATOR3D($,$,#277,$,$);
#279= IFCMAPPEDITEM(#152,#278);
#280= IFCCARTESIANPOINT((225.,0.,-75.));
#281= IFCCARTESIANTRANSFORMATIONOPERATOR3D($,$,#280,$,$);
#282= IFCMAPPEDITEM(#152,#281);
#283= IFCCARTESIANPOINT((300.,0.,-75.));
#284= IFCCARTESIANTRANSFORMATIONOPERATOR3D($,$,#283,$,$);
#285= IFCMAPPEDITEM(#152,#284);
#286= IFCCARTESIANPOINT((375.,0.,-75.));
#287= IFCCARTESIANTRANSFORMATIONOPERATOR3D($,$,#286,$,$);
#288= IFCMAPPEDITEM(#152,#287);
#289= IFCCARTESIANPOINT((450.,0.,-75.));
#290= IFCCARTESIANTRANSFORMATIONOPERATOR3D($,$,#289,$,$);
#291= IFCMAPPEDITEM(#152,#290);
#292= IFCCARTESIANPOINT((525.,0.,-75.));
#293= IFCCARTESIANTRANSFORMATIONOPERATOR3D($,$,#292,$,$);
#294= IFCMAPPEDITEM(#152,#293);
#295= IFCCARTESIANPOINT((600.,0.,-75.));
#296= IFCCARTESIANTRANSFORMATIONOPERATOR3D($,$,#295,$,$);
#297= IFCMAPPEDITEM(#152,#296);
#298= IFCCARTESIANPOINT((675.,0.,-75.));
#299= IFCCARTESIANTRANSFORMATIONOPERATOR3D($,$,#298,$,$);
#300= IFCMAPPEDITEM(#152,#299);
#301= IFCSHAPEREPRESENTATION(#12,'Body','MappedRepresentation',(#243,#246,#249,#252,#255,#258,#261,#264,#267,#270,#273,#276,#279,#282,#285,#288,#291,#294,#297,#300));
#302= IFCPRODUCTDEFINITIONSHAPE($,$,(#301));
#303= IFCOPENINGELEMENT('0eOFX1Dpz3CxRAvcV1OCcb',#5,$,$,'Opening',#240,#302,$);
#304= IFCRELVOIDSELEMENT('0JY8xUXprEhPs9dksg$Tvm',#5,'Drill Hole',$,#74,#303);
#305= IFCCARTESIANPOINT((34267.9824510498,1603.86311008256,19350.));
#306= IFCAXIS2PLACEMENT3D(#305,#8,#7);
#307= IFCLOCALPLACEMENT(#42,#306);
#308= IFCSHAPEREPRESENTATION(#12,'Body','MappedRepresentation',(#273,#276,#279,#282,#285,#288,#291,#294,#297,#300,#243,#246,#249,#252,#255,#258,#261,#264,#267,#270));
#309= IFCPRODUCTDEFINITIONSHAPE($,$,(#308));
#310= IFCOPENINGELEMENT('1MHSTQQPnED9GSblVJGTKp',#5,$,$,'Opening',#307,#309,$);
#311= IFCRELVOIDSELEMENT('0mL6Fg4VfEuQSCGpiYgc3w',#5,'Drill Hole',$,#74,#310);
#312= IFCCARTESIANPOINT((34222.9824701044,1603.28934447604,19350.));
#313= IFCAXIS2PLACEMENT3D(#312,#7,#77);
#314= IFCLOCALPLACEMENT(#42,#313);
#315= IFCCIRCLEPROFILEDEF(.AREA.,$,#51,12.5);
#316= IFCCARTESIANPOINT((0.,-6.03225618980969,0.));
#317= IFCAXIS2PLACEMENT3D(#316,#8,#7);
#318= IFCEXTRUDEDAREASOLID(#315,#317,#9,11.7);
#319= IFCSHAPEREPRESENTATION(#12,'Body','SweptSolid',(#318));
#320= IFCREPRESENTATIONMAP(#10,#319);
#321= IFCCARTESIANPOINT((107.5,0.,45.));
#322= IFCCARTESIANTRANSFORMATIONOPERATOR3D($,$,#321,$,$);
#323= IFCMAPPEDITEM(#320,#322);
#324= IFCCARTESIANPOINT((182.5,0.,45.));
#325= IFCCARTESIANTRANSFORMATIONOPERATOR3D($,$,#324,$,$);
#326= IFCMAPPEDITEM(#320,#325);
#327= IFCCARTESIANPOINT((257.5,0.,45.));
#328= IFCCARTESIANTRANSFORMATIONOPERATOR3D($,$,#327,$,$);
#329= IFCMAPPEDITEM(#320,#328);
#330= IFCCARTESIANPOINT((332.5,0.,45.));
#331= IFCCARTESIANTRANSFORMATIONOPERATOR3D($,$,#330,$,$);
#332= IFCMAPPEDITEM(#320,#331);
#333= IFCSHAPEREPRESENTATION(#12,'Body','MappedRepresentation',(#323,#326,#329,#332));
#334= IFCPRODUCTDEFINITIONSHAPE($,$,(#333));
#335= IFCOPENINGELEMENT('2HS7ba0IfCjQUr$xIzkBwT',#5,$,$,'Opening',#314,#334,$);
#336= IFCRELVOIDSELEMENT('3KE7NswBfDKupn5HFj$$d1',#5,'Drill Hole',$,#74,#335);
#337= IFCPROPERTYSINGLEVALUE('PieceMark',$,IFCIDENTIFIER('BEAM'),$);
#338= IFCPROPERTYSINGLEVALUE('IndicationMark',$,IFCIDENTIFIER('b/167'),$);
#339= IFCPROPERTYSINGLEVALUE('PrelimMark',$,IFCIDENTIFIER(''),$);
#340= IFCPROPERTYSINGLEVALUE('MainPieceTag',$,IFCBOOLEAN(.F.),$);
#341= IFCPROPERTYSET('15F7I0Oz1DKwZcnklh2gCl',#5,'AISC_EM11_Pset_PieceIdentification','PieceIdentity',(#337,#338,#339,#340));
#342= IFCPROPERTYSINGLEVALUE('MaterialType',$,IFCIDENTIFIER('STEEL'),$);
#343= IFCPROPERTYSINGLEVALUE('MaterialGrade',$,IFCIDENTIFIER('S235JR'),$);
#344= IFCPROPERTYSET('1DY8NvH1T4eQ7VXMbH_5KV',#5,'AISC_EM11_Pset_Material',$,(#342,#343));
#345= IFCPROPERTYSINGLEVALUE('SkewedAngleY',$,IFCREAL(0.),$);
#346= IFCPROPERTYSINGLEVALUE('SkewedAngleX',$,IFCREAL(-0.03896),$);
#347= IFCPROPERTYSET('0kBG_C8ULBbAUsIeYwxBGO',#5,'AISC_EM11_Pset_SkewedEnd',$,(#345,#346));
#348= IFCPROPERTYSINGLEVALUE('SkewedAngleX',$,IFCREAL(0.),$);
#349= IFCPROPERTYSET('0eWFPdDYPFMxmG7fAcmByV',#5,'AISC_EM11_Pset_SkewedEnd_2',$,(#345,#348));
#350= IFCMATERIAL('STEEL/S235JR');
#351= IFCRELAGGREGATES('1uqPJBPDn7YwM4E3F4SLlL',#5,$,$,#37,(#39));
#352= IFCRELAGGREGATES('2A6hbThV3PqCeMWLXMkd1d',#5,$,$,#39,(#41));
#353= IFCRELAGGREGATES('0lzBi6JB59vOdJpWU_$UW1',#5,$,$,#41,(#43));
#354= IFCRELCONTAINEDINSPATIALSTRUCTURE('3J7hd5bN95aBxWDRw3K45f',#5,$,$,(#74),#43);
#355= IFCRELDEFINESBYPROPERTIES('1TebrZOFnA39GpxipUEvgd',#5,$,$,(#96,#83),#89);
#356= IFCRELDEFINESBYPROPERTIES('22QAwy$CzB29IUBJ569Frx',#5,$,$,(#105),#109);
#357= IFCRELDEFINESBYPROPERTIES('1DX7Z6oYzDgwRQgVbjV6Fs',#5,$,$,(#117),#120);
#358= IFCRELDEFINESBYPROPERTIES('00PbLVXBjCdf7fqyg4W2D6',#5,$,$,(#128),#132);
#359= IFCRELDEFINESBYPROPERTIES('2qZyxJBbD6mQk8HscFDsf0',#5,$,$,(#140),#143);
#360= IFCRELDEFINESBYPROPERTIES('3EmQH0uQv6GO$MtyLV9lKD',#5,$,$,(#335,#310,#303,#236,#229,#197),#202);
#361= IFCRELDEFINESBYPROPERTIES('1i0DJYZV9ACA22G8MqElk9',#5,$,$,(#74),#341);
#362= IFCRELDEFINESBYPROPERTIES('3qoOs_AC529xOoOUjO2GnC',#5,$,$,(#74),#344);
#363= IFCRELDEFINESBYPROPERTIES('1ugy5zIiH3Vg3ZYlul7FlD',#5,$,$,(#74),#347);
#364= IFCRELDEFINESBYPROPERTIES('04WgM6Hun6YucblerqyH3u',#5,$,$,(#74),#349);
#365= IFCRELASSOCIATESMATERIAL('3HOJhWDZLCVfZNh$vVvvNT',#5,$,$,(#74),#350);
ENDSEC;

END-ISO-10303-21;
