ISO-10303-21;
HEADER;
FILE_DESCRIPTION(('ViewDefinition[AISC_Steel_Detailing]', 'Option [BaseQuantities:Off]', 'Option [GridExport:On]', 'Option [Assemblies:Off]', 'Option [Bolts:On]', 'Option [Rebars:On]', 'Option [PourObjects:Off]', 'Option [Welds:On]', 'Option [SurfaceTreatments:On]', 'Option [LocationBy:0]', 'Option [ViewColors:Off]', 'Option [SectionedSpine:Off]', 'Option [PropertySets:On]', 'Option [Export all:Off]'),'2;1');
FILE_NAME('b_1_Qty_2.ifc','2026-05-16T11:53:16',('GIOVANNIPC\\gcorrea'),('Structural Designer'),'IFC Database version: Work','Tekla Structures 2020 Service Pack 5, IFC Export Version: 4.0.0.0 Dec  7 2020','');
FILE_SCHEMA(('IFC2X3'));
ENDSEC;

DATA;
#1= IFCPERSON('GIOVANNIPC\\gcorrea','Undefined',$,$,$,$,$,$);
#2= IFCORGANIZATION($,'Trimble Solutions Corporation',$,$,$);
#3= IFCPERSONANDORGANIZATION(#1,#2,$);
#4= IFCAPPLICATION(#2,'2020 Service Pack 5','Tekla Structures','Multi material modeling');
#5= IFCOWNERHISTORY(#3,#4,$,.NOCHANGE.,$,$,$,1778950396);
#6= IFCCARTESIANPOINT((0.,0.,0.));
#7= IFCDIRECTION((1.,0.,0.));
#8= IFCDIRECTION((0.,1.,0.));
#9= IFCDIRECTION((0.,0.,1.));
#10= IFCAXIS2PLACEMENT3D(#6,#9,#7);
#11= IFCGEOMETRICREPRESENTATIONCONTEXT($,'Model',3,1.E-05,#10,$);
#12= IFCGEOMETRICREPRESENTATIONSUBCONTEXT('Body','Model',*,*,*,*,#11,$,.MODEL_VIEW.,$);
#13= IFCGEOMETRICREPRESENTATIONSUBCONTEXT('Axis','Model',*,*,*,*,#11,$,.GRAPH_VIEW.,$);
#14= IFCGEOMETRICREPRESENTATIONSUBCONTEXT('FootPrint','Model',*,*,*,*,#11,$,.MODEL_VIEW.,$);
#15= IFCSIUNIT(*,.LENGTHUNIT.,.MILLI.,.METRE.);
#16= IFCMEASUREWITHUNIT(IFCRATIOMEASURE(304.8),#15);
#17= IFCDIMENSIONALEXPONENTS(1,0,0,0,0,0,0);
#18= IFCCONVERSIONBASEDUNIT(#17,.LENGTHUNIT.,'FOOT',#16);
#19= IFCSIUNIT(*,.AREAUNIT.,$,.SQUARE_METRE.);
#20= IFCMEASUREWITHUNIT(IFCRATIOMEASURE(0.09290304),#19);
#21= IFCDIMENSIONALEXPONENTS(2,0,0,0,0,0,0);
#22= IFCCONVERSIONBASEDUNIT(#21,.AREAUNIT.,'SQUARE FOOT',#20);
#23= IFCSIUNIT(*,.VOLUMEUNIT.,$,.CUBIC_METRE.);
#24= IFCMEASUREWITHUNIT(IFCRATIOMEASURE(0.028316846592),#23);
#25= IFCDIMENSIONALEXPONENTS(3,0,0,0,0,0,0);
#26= IFCCONVERSIONBASEDUNIT(#25,.VOLUMEUNIT.,'CUBIC FOOT',#24);
#27= IFCSIUNIT(*,.MASSUNIT.,.KILO.,.GRAM.);
#28= IFCSIUNIT(*,.TIMEUNIT.,$,.SECOND.);
#29= IFCSIUNIT(*,.PLANEANGLEUNIT.,$,.RADIAN.);
#30= IFCMEASUREWITHUNIT(IFCRATIOMEASURE(0.0174532925199433),#29);
#31= IFCDIMENSIONALEXPONENTS(0,0,0,0,0,0,0);
#32= IFCCONVERSIONBASEDUNIT(#31,.PLANEANGLEUNIT.,'DEGREE',#30);
#33= IFCSIUNIT(*,.SOLIDANGLEUNIT.,$,.STERADIAN.);
#34= IFCSIUNIT(*,.THERMODYNAMICTEMPERATUREUNIT.,$,.DEGREE_CELSIUS.);
#35= IFCSIUNIT(*,.LUMINOUSINTENSITYUNIT.,$,.LUMEN.);
#36= IFCUNITASSIGNMENT((#15,#19,#23,#27,#28,#29,#33,#34,#35));
#37= IFCPROJECT('2G7ZFDNE16yBDU14FA92Me',#5,'Proyecto',$,$,$,$,(#11),#36);
#38= IFCLOCALPLACEMENT($,#10);
#39= IFCSITE('2xvEzEinjBTea80yOTcujY',#5,'Obra',$,$,#38,$,$,.ELEMENT.,$,$,$,$,$);
#40= IFCLOCALPLACEMENT(#38,#10);
#41= IFCBUILDING('3s5o1pDQLC1P9Sybajvk2a',#5,'Undefined',$,$,#40,$,$,.ELEMENT.,$,$,$);
#42= IFCLOCALPLACEMENT(#40,#10);
#43= IFCBUILDINGSTOREY('29hdEUCErFze9E_VIAceOd',#5,'Undefined',$,$,#42,$,$,.ELEMENT.,0.);
#44= IFCOWNERHISTORY(#3,#4,$,.NOCHANGE.,$,$,$,1777928400);
#45= IFCCARTESIANPOINT((16797.,1603.28932952881,13675.));
#46= IFCDIRECTION((-1.,0.,0.));
#47= IFCAXIS2PLACEMENT3D(#45,#9,#46);
#48= IFCLOCALPLACEMENT(#42,#47);
#49= IFCDIRECTION((1.,0.));
#50= IFCCARTESIANPOINT((0.,0.));
#51= IFCAXIS2PLACEMENT2D(#50,#49);
#52= IFCISHAPEPROFILEDEF(.AREA.,'IPE450',#51,190.,450.,9.399999619,14.60000038,21.);
#53= IFCDIRECTION((0.,-1.,0.));
#54= IFCCARTESIANPOINT((8074.,0.,0.));
#55= IFCAXIS2PLACEMENT3D(#54,#46,#53);
#56= IFCEXTRUDEDAREASOLID(#52,#55,#9,8054.1);
#57= IFCCARTESIANPOINT((8074.,0.,-325.));
#58= IFCAXIS2PLACEMENT3D(#57,#46,#8);
#59= IFCPLANE(#58);
#60= IFCHALFSPACESOLID(#59,.T.);
#61= IFCBOOLEANCLIPPINGRESULT(.DIFFERENCE.,#56,#60);
#62= IFCCARTESIANPOINT((19.9011871916373,0.0905314752601498,-325.));
#63= IFCAXIS2PLACEMENT3D(#62,#7,#53);
#64= IFCPLANE(#63);
#65= IFCHALFSPACESOLID(#64,.T.);
#66= IFCBOOLEANCLIPPINGRESULT(.DIFFERENCE.,#61,#65);
#67= IFCSHAPEREPRESENTATION(#12,'Body','Clipping',(#66));
#68= IFCPRODUCTDEFINITIONSHAPE($,$,(#67));
#69= IFCBEAM('2gNwkYppXCzfsDwTyeJHl$',#44,'BEAM','IPE450','IPE450',#48,#68,'IDaa5faba2-cf38-4cf6-9d8d-e9df284d1bff');
#70= IFCLOCALPLACEMENT(#42,#47);
#71= IFCRECTANGLEPROFILEDEF(.AREA.,'PL108*12.1',#51,12.1,108.);
#72= IFCDIRECTION((0.,0.,-1.));
#73= IFCCARTESIANPOINT((3.95057461574834,43.219791262183,226.));
#74= IFCAXIS2PLACEMENT3D(#73,#72,#7);
#75= IFCEXTRUDEDAREASOLID(#71,#74,#9,452.);
#76= IFCSHAPEREPRESENTATION(#12,'Body','SweptSolid',(#75));
#77= IFCPRODUCTDEFINITIONSHAPE($,$,(#76));
#78= IFCOPENINGELEMENT('32OcqdsJ98IwEfBecQYBIY',#5,$,$,'Recess',#70,#77,$);
#79= IFCRELVOIDSELEMENT('3_$EmNzinC7g4x_T427$t0',#5,$,$,#69,#78);
#80= IFCPROPERTYSINGLEVALUE('FeatureSubTypes',$,$,$);
#81= IFCPROPERTYSINGLEVALUE('RectangleOpeningWidth',$,IFCPOSITIVELENGTHMEASURE(12.1),$);
#82= IFCPROPERTYSINGLEVALUE('RectangleOpeningHeight',$,IFCPOSITIVELENGTHMEASURE(108.),$);
#83= IFCPROPERTYSINGLEVALUE('OpeningDiameter',$,$,$);
#84= IFCPROPERTYSET('3cyIorYKb5vuBbfdR6ubHI',#5,'AISC_EM11_Pset_Opening/Cope',$,(#80,#81,#82,#83));
#85= IFCLOCALPLACEMENT(#42,#47);
#86= IFCRECTANGLEPROFILEDEF(.AREA.,'PL109.1*12.1',#51,12.1,109.1);
#87= IFCCARTESIANPOINT((3.95057461574834,-41.3426345431749,226.));
#88= IFCAXIS2PLACEMENT3D(#87,#72,#7);
#89= IFCEXTRUDEDAREASOLID(#86,#88,#9,452.);
#90= IFCSHAPEREPRESENTATION(#12,'Body','SweptSolid',(#89));
#91= IFCPRODUCTDEFINITIONSHAPE($,$,(#90));
#92= IFCOPENINGELEMENT('0BmJcw7hD4tBtUUhSUxi2z',#5,$,$,'Recess',#85,#91,$);
#93= IFCRELVOIDSELEMENT('1xQA0b$L10duk7OTpKRsZN',#5,$,$,#69,#92);
#94= IFCPROPERTYSINGLEVALUE('RectangleOpeningHeight',$,IFCPOSITIVELENGTHMEASURE(109.1),$);
#95= IFCPROPERTYSET('3VTh_bD1PE7fEKlcTAbwxW',#5,'AISC_EM11_Pset_Opening/Cope',$,(#80,#81,#94,#83));
#96= IFCLOCALPLACEMENT(#42,#47);
#97= IFCRECTANGLEPROFILEDEF(.AREA.,'PL108*12',#51,12.,108.);
#98= IFCCARTESIANPOINT((8090.,-42.,226.));
#99= IFCAXIS2PLACEMENT3D(#98,#72,#46);
#100= IFCEXTRUDEDAREASOLID(#97,#99,#9,452.);
#101= IFCSHAPEREPRESENTATION(#12,'Body','SweptSolid',(#100));
#102= IFCPRODUCTDEFINITIONSHAPE($,$,(#101));
#103= IFCOPENINGELEMENT('1PjQsHU8r6$OZa7PQU0RUW',#5,$,$,'Recess',#96,#102,$);
#104= IFCRELVOIDSELEMENT('1FjxXQdBbC$h9h9ZR6xdPK',#5,$,$,#69,#103);
#105= IFCPROPERTYSINGLEVALUE('RectangleOpeningWidth',$,IFCPOSITIVELENGTHMEASURE(12.),$);
#106= IFCPROPERTYSET('23C$NvoDLFKxsdwxMNhgEu',#5,'AISC_EM11_Pset_Opening/Cope',$,(#80,#105,#82,#83));
#107= IFCLOCALPLACEMENT(#42,#47);
#108= IFCCARTESIANPOINT((8090.,42.,226.));
#109= IFCAXIS2PLACEMENT3D(#108,#72,#46);
#110= IFCEXTRUDEDAREASOLID(#97,#109,#9,452.);
#111= IFCSHAPEREPRESENTATION(#12,'Body','SweptSolid',(#110));
#112= IFCPRODUCTDEFINITIONSHAPE($,$,(#111));
#113= IFCOPENINGELEMENT('2nuWVNy2LEn8DCAiadXuew',#5,$,$,'Recess',#107,#112,$);
#114= IFCRELVOIDSELEMENT('16S1BRPGbDVAiRGx9aLvvA',#5,$,$,#69,#113);
#115= IFCCARTESIANPOINT((16316.9020226211,1602.99102805204,13450.));
#116= IFCDIRECTION((0.000467666999833455,-0.999999890643783,0.));
#117= IFCDIRECTION((0.999999890643783,0.000467666999833567,0.));
#118= IFCAXIS2PLACEMENT3D(#115,#116,#117);
#119= IFCLOCALPLACEMENT(#42,#118);
#120= IFCCIRCLEPROFILEDEF(.AREA.,$,#51,11.5);
#121= IFCCARTESIANPOINT((0.,-0.0999999999999929,0.));
#122= IFCAXIS2PLACEMENT3D(#121,#8,#7);
#123= IFCEXTRUDEDAREASOLID(#120,#122,#9,14.8);
#124= IFCSHAPEREPRESENTATION(#12,'Body','SweptSolid',(#123));
#125= IFCREPRESENTATIONMAP(#10,#124);
#126= IFCCARTESIANPOINT((1.09139364212751E-11,0.,-49.9999999999939));
#127= IFCCARTESIANTRANSFORMATIONOPERATOR3D($,$,#126,$,$);
#128= IFCMAPPEDITEM(#125,#127);
#129= IFCCARTESIANPOINT((70.0000000000673,0.,-50.0000000000257));
#130= IFCCARTESIANTRANSFORMATIONOPERATOR3D($,$,#129,$,$);
#131= IFCMAPPEDITEM(#125,#130);
#132= IFCCARTESIANPOINT((140.000000000122,0.,-50.0000000000575));
#133= IFCCARTESIANTRANSFORMATIONOPERATOR3D($,$,#132,$,$);
#134= IFCMAPPEDITEM(#125,#133);
#135= IFCCARTESIANPOINT((210.000000000173,0.,-50.0000000000891));
#136= IFCCARTESIANTRANSFORMATIONOPERATOR3D($,$,#135,$,$);
#137= IFCMAPPEDITEM(#125,#136);
#138= IFCCARTESIANPOINT((280.000000000231,0.,-50.000000000121));
#139= IFCCARTESIANTRANSFORMATIONOPERATOR3D($,$,#138,$,$);
#140= IFCMAPPEDITEM(#125,#139);
#141= IFCCARTESIANPOINT((350.000000000286,0.,-50.000000000153));
#142= IFCCARTESIANTRANSFORMATIONOPERATOR3D($,$,#141,$,$);
#143= IFCMAPPEDITEM(#125,#142);
#144= IFCCARTESIANPOINT((420.000000000344,0.,-50.0000000001849));
#145= IFCCARTESIANTRANSFORMATIONOPERATOR3D($,$,#144,$,$);
#146= IFCMAPPEDITEM(#125,#145);
#147= IFCCARTESIANPOINT((-1.09139364212751E-11,0.,49.9999999999941));
#148= IFCCARTESIANTRANSFORMATIONOPERATOR3D($,$,#147,$,$);
#149= IFCMAPPEDITEM(#125,#148);
#150= IFCCARTESIANPOINT((70.0000000000418,0.,49.999999999962));
#151= IFCCARTESIANTRANSFORMATIONOPERATOR3D($,$,#150,$,$);
#152= IFCMAPPEDITEM(#125,#151);
#153= IFCCARTESIANPOINT((140.0000000001,0.,49.9999999999302));
#154= IFCCARTESIANTRANSFORMATIONOPERATOR3D($,$,#153,$,$);
#155= IFCMAPPEDITEM(#125,#154);
#156= IFCCARTESIANPOINT((210.000000000151,0.,49.9999999998984));
#157= IFCCARTESIANTRANSFORMATIONOPERATOR3D($,$,#156,$,$);
#158= IFCMAPPEDITEM(#125,#157);
#159= IFCCARTESIANPOINT((280.000000000213,0.,49.9999999998668));
#160= IFCCARTESIANTRANSFORMATIONOPERATOR3D($,$,#159,$,$);
#161= IFCMAPPEDITEM(#125,#160);
#162= IFCCARTESIANPOINT((350.000000000264,0.,49.9999999998349));
#163= IFCCARTESIANTRANSFORMATIONOPERATOR3D($,$,#162,$,$);
#164= IFCMAPPEDITEM(#125,#163);
#165= IFCCARTESIANPOINT((420.000000000322,0.,49.9999999998031));
#166= IFCCARTESIANTRANSFORMATIONOPERATOR3D($,$,#165,$,$);
#167= IFCMAPPEDITEM(#125,#166);
#168= IFCSHAPEREPRESENTATION(#12,'Body','MappedRepresentation',(#128,#131,#134,#137,#140,#143,#146,#149,#152,#155,#158,#161,#164,#167));
#169= IFCPRODUCTDEFINITIONSHAPE($,$,(#168));
#170= IFCOPENINGELEMENT('21YkciG2T13h5gZu$8yh$o',#5,$,$,'Opening',#119,#169,$);
#171= IFCRELVOIDSELEMENT('2qgTR9cPr3s8$7NZri1y$p',#5,'Drill Hole',$,#69,#170);
#172= IFCPROPERTYSINGLEVALUE('FeatureSubTypes',$,IFCLABEL('TORNILLO'),$);
#173= IFCPROPERTYSINGLEVALUE('RectangleOpeningWidth',$,$,$);
#174= IFCPROPERTYSINGLEVALUE('RectangleOpeningHeight',$,$,$);
#175= IFCPROPERTYSET('0mHsxp0ynD4Occ417je0jk',#5,'AISC_EM11_Pset_Opening/Cope',$,(#172,#173,#174,#83));
#176= IFCCARTESIANPOINT((16777.0988128084,1603.18541250221,13900.));
#177= IFCAXIS2PLACEMENT3D(#176,#46,#72);
#178= IFCLOCALPLACEMENT(#42,#177);
#179= IFCCARTESIANPOINT((0.,-4.90391683609764,0.));
#180= IFCAXIS2PLACEMENT3D(#179,#8,#7);
#181= IFCEXTRUDEDAREASOLID(#120,#180,#9,9.6);
#182= IFCSHAPEREPRESENTATION(#12,'Body','SweptSolid',(#181));
#183= IFCREPRESENTATIONMAP(#10,#182);
#184= IFCCARTESIANPOINT((85.,0.,40.));
#185= IFCCARTESIANTRANSFORMATIONOPERATOR3D($,$,#184,$,$);
#186= IFCMAPPEDITEM(#183,#185);
#187= IFCCARTESIANPOINT((155.,0.,40.));
#188= IFCCARTESIANTRANSFORMATIONOPERATOR3D($,$,#187,$,$);
#189= IFCMAPPEDITEM(#183,#188);
#190= IFCCARTESIANPOINT((225.,0.,40.));
#191= IFCCARTESIANTRANSFORMATIONOPERATOR3D($,$,#190,$,$);
#192= IFCMAPPEDITEM(#183,#191);
#193= IFCCARTESIANPOINT((295.,0.,40.));
#194= IFCCARTESIANTRANSFORMATIONOPERATOR3D($,$,#193,$,$);
#195= IFCMAPPEDITEM(#183,#194);
#196= IFCCARTESIANPOINT((365.,0.,40.));
#197= IFCCARTESIANTRANSFORMATIONOPERATOR3D($,$,#196,$,$);
#198= IFCMAPPEDITEM(#183,#197);
#199= IFCSHAPEREPRESENTATION(#12,'Body','MappedRepresentation',(#186,#189,#192,#195,#198));
#200= IFCPRODUCTDEFINITIONSHAPE($,$,(#199));
#201= IFCOPENINGELEMENT('2pOCyeZb99IxYhL1qyrc_P',#5,$,$,'Opening',#178,#200,$);
#202= IFCRELVOIDSELEMENT('0MlISQ4Rb36OTRYoksHq0R',#5,'Drill Hole',$,#69,#201);
#203= IFCCARTESIANPOINT((16316.9020226211,1602.99102805204,13900.));
#204= IFCDIRECTION((-0.000467666999833455,0.999999890643783,0.));
#205= IFCAXIS2PLACEMENT3D(#203,#204,#117);
#206= IFCLOCALPLACEMENT(#42,#205);
#207= IFCSHAPEREPRESENTATION(#12,'Body','MappedRepresentation',(#128,#131,#134,#137,#140,#143,#146,#149,#152,#155,#158,#161,#164,#167));
#208= IFCPRODUCTDEFINITIONSHAPE($,$,(#207));
#209= IFCOPENINGELEMENT('3GkwfTJAv5$8K5qUuoEn7L',#5,$,$,'Opening',#206,#208,$);
#210= IFCRELVOIDSELEMENT('1Ahcte9MrC2gi8OrtKRuRK',#5,'Drill Hole',$,#69,#209);
#211= IFCCARTESIANPOINT((8762.96492497503,1603.59642437781,13450.));
#212= IFCAXIS2PLACEMENT3D(#211,#116,#117);
#213= IFCLOCALPLACEMENT(#42,#212);
#214= IFCSHAPEREPRESENTATION(#12,'Body','MappedRepresentation',(#128,#131,#134,#137,#140,#143,#146,#149,#152,#155,#158,#161,#164,#167));
#215= IFCPRODUCTDEFINITIONSHAPE($,$,(#214));
#216= IFCOPENINGELEMENT('1Bf6j5omn0mPlyQgz6HyZ6',#5,$,$,'Opening',#213,#215,$);
#217= IFCRELVOIDSELEMENT('3KWu4t31f4SPNc7HmrTb8W',#5,'Drill Hole',$,#69,#216);
#218= IFCCARTESIANPOINT((8723.,1603.28932952881,13900.));
#219= IFCAXIS2PLACEMENT3D(#218,#7,#72);
#220= IFCLOCALPLACEMENT(#42,#219);
#221= IFCCARTESIANPOINT((0.,-4.79999980950001,0.));
#222= IFCAXIS2PLACEMENT3D(#221,#8,#7);
#223= IFCEXTRUDEDAREASOLID(#120,#222,#9,9.6);
#224= IFCSHAPEREPRESENTATION(#12,'Body','SweptSolid',(#223));
#225= IFCREPRESENTATIONMAP(#10,#224);
#226= IFCMAPPEDITEM(#225,#185);
#227= IFCMAPPEDITEM(#225,#188);
#228= IFCMAPPEDITEM(#225,#191);
#229= IFCMAPPEDITEM(#225,#194);
#230= IFCMAPPEDITEM(#225,#197);
#231= IFCSHAPEREPRESENTATION(#12,'Body','MappedRepresentation',(#226,#227,#228,#229,#230));
#232= IFCPRODUCTDEFINITIONSHAPE($,$,(#231));
#233= IFCOPENINGELEMENT('02wJwfjvf1ouwIXtQXCnPy',#5,$,$,'Opening',#220,#232,$);
#234= IFCRELVOIDSELEMENT('22R7CKLsb9pPV54_7Mb1bb',#5,'Drill Hole',$,#69,#233);
#235= IFCCARTESIANPOINT((8762.96492497503,1603.59642437781,13900.));
#236= IFCAXIS2PLACEMENT3D(#235,#204,#117);
#237= IFCLOCALPLACEMENT(#42,#236);
#238= IFCSHAPEREPRESENTATION(#12,'Body','MappedRepresentation',(#128,#131,#134,#137,#140,#143,#146,#149,#152,#155,#158,#161,#164,#167));
#239= IFCPRODUCTDEFINITIONSHAPE($,$,(#238));
#240= IFCOPENINGELEMENT('0yWnIEBjbASAr5AS$SIoVF',#5,$,$,'Opening',#237,#239,$);
#241= IFCRELVOIDSELEMENT('0oR1D67Qj7AutNrd8hBFIz',#5,'Drill Hole',$,#69,#240);
#242= IFCPROPERTYSINGLEVALUE('PieceMark',$,IFCIDENTIFIER('BEAM'),$);
#243= IFCPROPERTYSINGLEVALUE('IndicationMark',$,IFCIDENTIFIER('b/1'),$);
#244= IFCPROPERTYSINGLEVALUE('PrelimMark',$,IFCIDENTIFIER(''),$);
#245= IFCPROPERTYSINGLEVALUE('MainPieceTag',$,IFCBOOLEAN(.F.),$);
#246= IFCPROPERTYSET('1U4CVqy6rFqhQyQPsM$1GI',#5,'AISC_EM11_Pset_PieceIdentification','PieceIdentity',(#242,#243,#244,#245));
#247= IFCPROPERTYSINGLEVALUE('MaterialType',$,IFCIDENTIFIER('STEEL'),$);
#248= IFCPROPERTYSINGLEVALUE('MaterialGrade',$,IFCIDENTIFIER('S235JR'),$);
#249= IFCPROPERTYSET('016l7Gtv91ewOpkyYvMopH',#5,'AISC_EM11_Pset_Material',$,(#247,#248));
#250= IFCPROPERTYSINGLEVALUE('SkewedAngleY',$,IFCREAL(0.),$);
#251= IFCPROPERTYSINGLEVALUE('SkewedAngleX',$,IFCREAL(0.),$);
#252= IFCPROPERTYSET('2jlhpl2ez9huRmk5FCiHG8',#5,'AISC_EM11_Pset_SkewedEnd',$,(#250,#251));
#253= IFCPROPERTYSET('1ViXLztoz1CxTYXX3cdmi2',#5,'AISC_EM11_Pset_SkewedEnd_2',$,(#250,#251));
#254= IFCMATERIAL('STEEL/S235JR');
#255= IFCRELAGGREGATES('282ToklYvBpu315iiwFz8Z',#5,$,$,#37,(#39));
#256= IFCRELAGGREGATES('2QKl401qBT5ALJN__CXFQr',#5,$,$,#39,(#41));
#257= IFCRELAGGREGATES('3RYtxu39rAWvazhx4HxgBh',#5,$,$,#41,(#43));
#258= IFCRELCONTAINEDINSPATIALSTRUCTURE('2qD7VI_hr1SAGpA7XXugQm',#5,$,$,(#69),#43);
#259= IFCRELDEFINESBYPROPERTIES('3O5XbSv5n6S8M6Jdbimtzq',#5,$,$,(#78),#84);
#260= IFCRELDEFINESBYPROPERTIES('06KHCQ5bD1IxPHBfZ8Qk8k',#5,$,$,(#92),#95);
#261= IFCRELDEFINESBYPROPERTIES('3Qz8fXFgT5Def3E$x8NV2F',#5,$,$,(#113,#103),#106);
#262= IFCRELDEFINESBYPROPERTIES('2GnsUcAUfE_O$XP_uPkKTR',#5,$,$,(#240,#233,#216,#209,#201,#170),#175);
#263= IFCRELDEFINESBYPROPERTIES('1ahXVij1fDTfrERXs4dTPU',#5,$,$,(#69),#246);
#264= IFCRELDEFINESBYPROPERTIES('2n30OpGj59Dx0NcmNJJPlE',#5,$,$,(#69),#249);
#265= IFCRELDEFINESBYPROPERTIES('0h9ATX0Vn1$AwckhspLgzz',#5,$,$,(#69),#252);
#266= IFCRELDEFINESBYPROPERTIES('0KDZZzPCP4BQeunrWOGKsO',#5,$,$,(#69),#253);
#267= IFCRELASSOCIATESMATERIAL('3cB4mLPxL3cfBmE23HbF_t',#5,$,$,(#69),#254);
ENDSEC;

END-ISO-10303-21;
