ISO-10303-21;
HEADER;
FILE_DESCRIPTION(('ViewDefinition[AISC_Steel_Detailing]', 'Option [BaseQuantities:Off]', 'Option [GridExport:On]', 'Option [Assemblies:Off]', 'Option [Bolts:On]', 'Option [Rebars:On]', 'Option [PourObjects:Off]', 'Option [Welds:On]', 'Option [SurfaceTreatments:On]', 'Option [LocationBy:0]', 'Option [ViewColors:Off]', 'Option [SectionedSpine:Off]', 'Option [PropertySets:On]', 'Option [Export all:Off]'),'2;1');
FILE_NAME('b_202_Qty_1.ifc','2026-05-16T11:53:09',('GIOVANNIPC\\gcorrea'),('Structural Designer'),'IFC Database version: Work','Tekla Structures 2020 Service Pack 5, IFC Export Version: 4.0.0.0 Dec  7 2020','');
FILE_SCHEMA(('IFC2X3'));
ENDSEC;

DATA;
#1= IFCPERSON('GIOVANNIPC\\gcorrea','Undefined',$,$,$,$,$,$);
#2= IFCORGANIZATION($,'Trimble Solutions Corporation',$,$,$);
#3= IFCPERSONANDORGANIZATION(#1,#2,$);
#4= IFCAPPLICATION(#2,'2020 Service Pack 5','Tekla Structures','Multi material modeling');
#5= IFCOWNERHISTORY(#3,#4,$,.NOCHANGE.,$,$,$,1778950389);
#6= IFCCARTESIANPOINT((0.,0.,0.));
#7= IFCDIRECTION((1.,0.,0.));
#8= IFCDIRECTION((0.,1.,0.));
#9= IFCDIRECTION((0.,0.,1.));
#10= IFCAXIS2PLACEMENT3D(#6,#9,#7);
#11= IFCGEOMETRICREPRESENTATIONCONTEXT($,'Model',3,1.E-05,#10,$);
#12= IFCGEOMETRICREPRESENTATIONSUBCONTEXT('Body','Model',*,*,*,*,#11,$,.MODEL_VIEW.,$);
#13= IFCGEOMETRICREPRESENTATIONSUBCONTEXT('Axis','Model',*,*,*,*,#11,$,.GRAPH_VIEW.,$);
#14= IFCGEOMETRICREPRESENTATIONSUBCONTEXT('FootPrint','Model',*,*,*,*,#11,$,.MODEL_VIEW.,$);
#15= IFCSIUNIT(*,.LENGTHUNIT.,.MILLI.,.METRE.);
#16= IFCMEASUREWITHUNIT(IFCRATIOMEASURE(304.8),#15);
#17= IFCDIMENSIONALEXPONENTS(1,0,0,0,0,0,0);
#18= IFCCONVERSIONBASEDUNIT(#17,.LENGTHUNIT.,'FOOT',#16);
#19= IFCSIUNIT(*,.AREAUNIT.,$,.SQUARE_METRE.);
#20= IFCMEASUREWITHUNIT(IFCRATIOMEASURE(0.09290304),#19);
#21= IFCDIMENSIONALEXPONENTS(2,0,0,0,0,0,0);
#22= IFCCONVERSIONBASEDUNIT(#21,.AREAUNIT.,'SQUARE FOOT',#20);
#23= IFCSIUNIT(*,.VOLUMEUNIT.,$,.CUBIC_METRE.);
#24= IFCMEASUREWITHUNIT(IFCRATIOMEASURE(0.028316846592),#23);
#25= IFCDIMENSIONALEXPONENTS(3,0,0,0,0,0,0);
#26= IFCCONVERSIONBASEDUNIT(#25,.VOLUMEUNIT.,'CUBIC FOOT',#24);
#27= IFCSIUNIT(*,.MASSUNIT.,.KILO.,.GRAM.);
#28= IFCSIUNIT(*,.TIMEUNIT.,$,.SECOND.);
#29= IFCSIUNIT(*,.PLANEANGLEUNIT.,$,.RADIAN.);
#30= IFCMEASUREWITHUNIT(IFCRATIOMEASURE(0.0174532925199433),#29);
#31= IFCDIMENSIONALEXPONENTS(0,0,0,0,0,0,0);
#32= IFCCONVERSIONBASEDUNIT(#31,.PLANEANGLEUNIT.,'DEGREE',#30);
#33= IFCSIUNIT(*,.SOLIDANGLEUNIT.,$,.STERADIAN.);
#34= IFCSIUNIT(*,.THERMODYNAMICTEMPERATUREUNIT.,$,.DEGREE_CELSIUS.);
#35= IFCSIUNIT(*,.LUMINOUSINTENSITYUNIT.,$,.LUMEN.);
#36= IFCUNITASSIGNMENT((#15,#19,#23,#27,#28,#29,#33,#34,#35));
#37= IFCPROJECT('2G7ZFDNE16yBDU14FA92Me',#5,'Proyecto',$,$,$,$,(#11),#36);
#38= IFCLOCALPLACEMENT($,#10);
#39= IFCSITE('2xvEzEinjBTea80yOTcujY',#5,'Obra',$,$,#38,$,$,.ELEMENT.,$,$,$,$,$);
#40= IFCLOCALPLACEMENT(#38,#10);
#41= IFCBUILDING('2xKsK3X_50MuJASNLB673A',#5,'Undefined',$,$,#40,$,$,.ELEMENT.,$,$,$);
#42= IFCLOCALPLACEMENT(#40,#10);
#43= IFCBUILDINGSTOREY('29hdEUCErFze9E_VIAceOd',#5,'Undefined',$,$,#42,$,$,.ELEMENT.,0.);
#44= IFCOWNERHISTORY(#3,#4,$,.NOCHANGE.,$,$,$,1775664000);
#45= IFCCARTESIANPOINT((82015.8651093369,17380.2061739461,19130.));
#46= IFCAXIS2PLACEMENT3D(#45,#9,#7);
#47= IFCLOCALPLACEMENT(#42,#46);
#48= IFCDIRECTION((1.,0.));
#49= IFCCARTESIANPOINT((0.,0.));
#50= IFCAXIS2PLACEMENT2D(#49,#48);
#51= IFCISHAPEPROFILEDEF(.AREA.,'HEA450',#50,300.,440.,11.5,21.,27.);
#52= IFCDIRECTION((0.,-1.,0.));
#53= IFCDIRECTION((-1.,0.,0.));
#54= IFCCARTESIANPOINT((9265.13629150391,0.,0.));
#55= IFCAXIS2PLACEMENT3D(#54,#53,#52);
#56= IFCEXTRUDEDAREASOLID(#51,#55,#9,9265.14);
#57= IFCCARTESIANPOINT((9265.13629150391,1.21965348500817,-325.));
#58= IFCAXIS2PLACEMENT3D(#57,#53,#8);
#59= IFCPLANE(#58);
#60= IFCHALFSPACESOLID(#59,.T.);
#61= IFCBOOLEANCLIPPINGRESULT(.DIFFERENCE.,#56,#60);
#62= IFCSHAPEREPRESENTATION(#12,'Body','Clipping',(#61));
#63= IFCPRODUCTDEFINITIONSHAPE($,$,(#62));
#64= IFCBEAM('1noiIQALf5Gurczg0O1OkJ',#44,'BEAM','HEA450','HEA450',#47,#63,'ID71cac49a-295a-4543-8d66-f6a018058b93');
#65= IFCLOCALPLACEMENT(#42,#46);
#66= IFCRECTANGLEPROFILEDEF(.AREA.,'PL163.2*12',#50,12.,163.2);
#67= IFCDIRECTION((0.,0.,-1.));
#68= IFCCARTESIANPOINT((9281.14505525518,-69.399829864502,221.));
#69= IFCAXIS2PLACEMENT3D(#68,#67,#53);
#70= IFCEXTRUDEDAREASOLID(#66,#69,#9,442.);
#71= IFCSHAPEREPRESENTATION(#12,'Body','SweptSolid',(#70));
#72= IFCPRODUCTDEFINITIONSHAPE($,$,(#71));
#73= IFCOPENINGELEMENT('1weQG6bcPFZulGrRhmEZ7$',#5,$,$,'Recess',#65,#72,$);
#74= IFCRELVOIDSELEMENT('3ff9xvtLXA3AgvtT7jw0z$',#5,$,$,#64,#73);
#75= IFCPROPERTYSINGLEVALUE('FeatureSubTypes',$,$,$);
#76= IFCPROPERTYSINGLEVALUE('RectangleOpeningWidth',$,IFCPOSITIVELENGTHMEASURE(12.),$);
#77= IFCPROPERTYSINGLEVALUE('RectangleOpeningHeight',$,IFCPOSITIVELENGTHMEASURE(163.2),$);
#78= IFCPROPERTYSINGLEVALUE('OpeningDiameter',$,$,$);
#79= IFCPROPERTYSET('0sP67ZXEj0CuH1SJM_4tQT',#5,'AISC_EM11_Pset_Opening/Cope',$,(#75,#76,#77,#78));
#80= IFCLOCALPLACEMENT(#42,#46);
#81= IFCRECTANGLEPROFILEDEF(.AREA.,'PL162.8*12',#50,12.,162.8);
#82= IFCCARTESIANPOINT((9281.14505525518,69.600170135498,221.));
#83= IFCAXIS2PLACEMENT3D(#82,#67,#53);
#84= IFCEXTRUDEDAREASOLID(#81,#83,#9,442.);
#85= IFCSHAPEREPRESENTATION(#12,'Body','SweptSolid',(#84));
#86= IFCPRODUCTDEFINITIONSHAPE($,$,(#85));
#87= IFCOPENINGELEMENT('1cbGW3xLDEBRhha_lJnGUZ',#5,$,$,'Recess',#80,#86,$);
#88= IFCRELVOIDSELEMENT('12ccYkEbz1VvaMslBnygyy',#5,$,$,#64,#87);
#89= IFCPROPERTYSINGLEVALUE('RectangleOpeningHeight',$,IFCPOSITIVELENGTHMEASURE(162.8),$);
#90= IFCPROPERTYSET('0FC3KnhPvA1ulLJqKGF$g6',#5,'AISC_EM11_Pset_Opening/Cope',$,(#75,#76,#89,#78));
#91= IFCLOCALPLACEMENT(#42,#46);
#92= IFCRECTANGLEPROFILEDEF(.AREA.,'PL108*12',#50,12.,108.);
#93= IFCCARTESIANPOINT((9281.13629150391,-40.7803465149918,226.));
#94= IFCAXIS2PLACEMENT3D(#93,#67,#53);
#95= IFCEXTRUDEDAREASOLID(#92,#94,#9,452.);
#96= IFCSHAPEREPRESENTATION(#12,'Body','SweptSolid',(#95));
#97= IFCPRODUCTDEFINITIONSHAPE($,$,(#96));
#98= IFCOPENINGELEMENT('0LMJpb1Qv3eh7RvZNkTnl2',#5,$,$,'Recess',#91,#97,$);
#99= IFCRELVOIDSELEMENT('3kbhfNTo11fAN7HMtoZswo',#5,$,$,#64,#98);
#100= IFCPROPERTYSINGLEVALUE('RectangleOpeningHeight',$,IFCPOSITIVELENGTHMEASURE(108.),$);
#101= IFCPROPERTYSET('1rrvIy3f5A3QYcU$lOuanb',#5,'AISC_EM11_Pset_Opening/Cope',$,(#75,#76,#100,#78));
#102= IFCLOCALPLACEMENT(#42,#46);
#103= IFCCARTESIANPOINT((9281.13629150391,43.2196534850082,226.));
#104= IFCAXIS2PLACEMENT3D(#103,#67,#53);
#105= IFCEXTRUDEDAREASOLID(#92,#104,#9,452.);
#106= IFCSHAPEREPRESENTATION(#12,'Body','SweptSolid',(#105));
#107= IFCPRODUCTDEFINITIONSHAPE($,$,(#106));
#108= IFCOPENINGELEMENT('2qEi3Ds4P3cQmJrrQILSL_',#5,$,$,'Recess',#102,#107,$);
#109= IFCRELVOIDSELEMENT('05YJaIVDj4swgdxpeLCAXm',#5,$,$,#64,#108);
#110= IFCCARTESIANPOINT((91236.0189092897,17380.7799536526,18910.));
#111= IFCDIRECTION((-7.12890000286281E-05,0.999999997458939,0.));
#112= IFCDIRECTION((-0.999999997458939,-7.12890000318489E-05,0.));
#113= IFCAXIS2PLACEMENT3D(#110,#111,#112);
#114= IFCLOCALPLACEMENT(#42,#113);
#115= IFCCIRCLEPROFILEDEF(.AREA.,$,#50,11.5);
#116= IFCCARTESIANPOINT((0.,-0.1,0.));
#117= IFCAXIS2PLACEMENT3D(#116,#8,#7);
#118= IFCEXTRUDEDAREASOLID(#115,#117,#9,21.2);
#119= IFCSHAPEREPRESENTATION(#12,'Body','SweptSolid',(#118));
#120= IFCREPRESENTATIONMAP(#10,#119);
#121= IFCCARTESIANPOINT((2.61934474110603E-10,0.,75.0000000002619));
#122= IFCCARTESIANTRANSFORMATIONOPERATOR3D($,$,#121,$,$);
#123= IFCMAPPEDITEM(#120,#122);
#124= IFCCARTESIANPOINT((74.9999999994325,0.,75.000000000804));
#125= IFCCARTESIANTRANSFORMATIONOPERATOR3D($,$,#124,$,$);
#126= IFCMAPPEDITEM(#120,#125);
#127= IFCCARTESIANPOINT((149.999999998603,0.,75.0000000013533));
#128= IFCCARTESIANTRANSFORMATIONOPERATOR3D($,$,#127,$,$);
#129= IFCMAPPEDITEM(#120,#128);
#130= IFCCARTESIANPOINT((224.999999997788,0.,75.000000001899));
#131= IFCCARTESIANTRANSFORMATIONOPERATOR3D($,$,#130,$,$);
#132= IFCMAPPEDITEM(#120,#131);
#133= IFCCARTESIANPOINT((299.999999996959,0.,75.0000000024447));
#134= IFCCARTESIANTRANSFORMATIONOPERATOR3D($,$,#133,$,$);
#135= IFCMAPPEDITEM(#120,#134);
#136= IFCCARTESIANPOINT((374.999999996129,0.,75.0000000029868));
#137= IFCCARTESIANTRANSFORMATIONOPERATOR3D($,$,#136,$,$);
#138= IFCMAPPEDITEM(#120,#137);
#139= IFCCARTESIANPOINT((449.9999999953,0.,75.0000000035361));
#140= IFCCARTESIANTRANSFORMATIONOPERATOR3D($,$,#139,$,$);
#141= IFCMAPPEDITEM(#120,#140);
#142= IFCCARTESIANPOINT((524.99999999447,0.,75.0000000040818));
#143= IFCCARTESIANTRANSFORMATIONOPERATOR3D($,$,#142,$,$);
#144= IFCMAPPEDITEM(#120,#143);
#145= IFCCARTESIANPOINT((599.999999993641,0.,75.0000000046239));
#146= IFCCARTESIANTRANSFORMATIONOPERATOR3D($,$,#145,$,$);
#147= IFCMAPPEDITEM(#120,#146);
#148= IFCCARTESIANPOINT((674.999999992811,0.,75.0000000051696));
#149= IFCCARTESIANTRANSFORMATIONOPERATOR3D($,$,#148,$,$);
#150= IFCMAPPEDITEM(#120,#149);
#151= IFCCARTESIANPOINT((-2.7648638933897E-10,0.,-75.0000000002619));
#152= IFCCARTESIANTRANSFORMATIONOPERATOR3D($,$,#151,$,$);
#153= IFCMAPPEDITEM(#120,#152);
#154= IFCCARTESIANPOINT((74.9999999988941,0.,-74.9999999997199));
#155= IFCCARTESIANTRANSFORMATIONOPERATOR3D($,$,#154,$,$);
#156= IFCMAPPEDITEM(#120,#155);
#157= IFCCARTESIANPOINT((149.999999998065,0.,-74.9999999991742));
#158= IFCCARTESIANTRANSFORMATIONOPERATOR3D($,$,#157,$,$);
#159= IFCMAPPEDITEM(#120,#158);
#160= IFCCARTESIANPOINT((224.999999997235,0.,-74.9999999986285));
#161= IFCCARTESIANTRANSFORMATIONOPERATOR3D($,$,#160,$,$);
#162= IFCMAPPEDITEM(#120,#161);
#163= IFCCARTESIANPOINT((299.999999996406,0.,-74.9999999980791));
#164= IFCCARTESIANTRANSFORMATIONOPERATOR3D($,$,#163,$,$);
#165= IFCMAPPEDITEM(#120,#164);
#166= IFCCARTESIANPOINT((374.999999995576,0.,-74.9999999975371));
#167= IFCCARTESIANTRANSFORMATIONOPERATOR3D($,$,#166,$,$);
#168= IFCMAPPEDITEM(#120,#167);
#169= IFCCARTESIANPOINT((449.999999994747,0.,-74.9999999969914));
#170= IFCCARTESIANTRANSFORMATIONOPERATOR3D($,$,#169,$,$);
#171= IFCMAPPEDITEM(#120,#170);
#172= IFCCARTESIANPOINT((524.999999993917,0.,-74.9999999964457));
#173= IFCCARTESIANTRANSFORMATIONOPERATOR3D($,$,#172,$,$);
#174= IFCMAPPEDITEM(#120,#173);
#175= IFCCARTESIANPOINT((599.999999993088,0.,-74.9999999959));
#176= IFCCARTESIANTRANSFORMATIONOPERATOR3D($,$,#175,$,$);
#177= IFCMAPPEDITEM(#120,#176);
#178= IFCCARTESIANPOINT((674.999999992273,0.,-74.9999999953543));
#179= IFCCARTESIANTRANSFORMATIONOPERATOR3D($,$,#178,$,$);
#180= IFCMAPPEDITEM(#120,#179);
#181= IFCSHAPEREPRESENTATION(#12,'Body','MappedRepresentation',(#123,#126,#129,#132,#135,#138,#141,#144,#147,#150,#153,#156,#159,#162,#165,#168,#171,#174,#177,#180));
#182= IFCPRODUCTDEFINITIONSHAPE($,$,(#181));
#183= IFCOPENINGELEMENT('2uJkvayID09wg$WK3ctbtK',#5,$,$,'Opening',#114,#182,$);
#184= IFCRELVOIDSELEMENT('22l2rkMob4TwoEm7SktVWu',#5,'Drill Hole',$,#64,#183);
#185= IFCPROPERTYSINGLEVALUE('FeatureSubTypes',$,IFCLABEL('TORNILLO'),$);
#186= IFCPROPERTYSINGLEVALUE('RectangleOpeningWidth',$,$,$);
#187= IFCPROPERTYSINGLEVALUE('RectangleOpeningHeight',$,$,$);
#188= IFCPROPERTYSET('0DkpN0TkfDlxGR7vCzQuf4',#5,'AISC_EM11_Pset_Opening/Cope',$,(#185,#186,#187,#78));
#189= IFCCARTESIANPOINT((91236.0189092897,17380.7799536526,19350.));
#190= IFCDIRECTION((7.12890000286279E-05,-0.999999997458939,0.));
#191= IFCAXIS2PLACEMENT3D(#189,#190,#112);
#192= IFCLOCALPLACEMENT(#42,#191);
#193= IFCSHAPEREPRESENTATION(#12,'Body','MappedRepresentation',(#153,#156,#159,#162,#165,#168,#171,#174,#177,#180,#123,#126,#129,#132,#135,#138,#141,#144,#147,#150));
#194= IFCPRODUCTDEFINITIONSHAPE($,$,(#193));
#195= IFCOPENINGELEMENT('0SuCbQLNH04v4YlCsegw08',#5,$,$,'Opening',#192,#194,$);
#196= IFCRELVOIDSELEMENT('0qdBFyoZ5FDQ9VrYL6Mhfs',#5,'Drill Hole',$,#64,#195);
#197= IFCCARTESIANPOINT((91281.0189283433,17380.2061739461,19350.));
#198= IFCAXIS2PLACEMENT3D(#197,#53,#67);
#199= IFCLOCALPLACEMENT(#42,#198);
#200= IFCCIRCLEPROFILEDEF(.AREA.,$,#50,12.5);
#201= IFCCARTESIANPOINT((0.,-5.85000000000001,0.));
#202= IFCAXIS2PLACEMENT3D(#201,#8,#7);
#203= IFCEXTRUDEDAREASOLID(#200,#202,#9,11.7);
#204= IFCSHAPEREPRESENTATION(#12,'Body','SweptSolid',(#203));
#205= IFCREPRESENTATIONMAP(#10,#204);
#206= IFCCARTESIANPOINT((107.5,0.,45.));
#207= IFCCARTESIANTRANSFORMATIONOPERATOR3D($,$,#206,$,$);
#208= IFCMAPPEDITEM(#205,#207);
#209= IFCCARTESIANPOINT((182.5,0.,45.));
#210= IFCCARTESIANTRANSFORMATIONOPERATOR3D($,$,#209,$,$);
#211= IFCMAPPEDITEM(#205,#210);
#212= IFCCARTESIANPOINT((257.5,0.,45.));
#213= IFCCARTESIANTRANSFORMATIONOPERATOR3D($,$,#212,$,$);
#214= IFCMAPPEDITEM(#205,#213);
#215= IFCCARTESIANPOINT((332.5,0.,45.));
#216= IFCCARTESIANTRANSFORMATIONOPERATOR3D($,$,#215,$,$);
#217= IFCMAPPEDITEM(#205,#216);
#218= IFCSHAPEREPRESENTATION(#12,'Body','MappedRepresentation',(#208,#211,#214,#217));
#219= IFCPRODUCTDEFINITIONSHAPE($,$,(#218));
#220= IFCOPENINGELEMENT('3LT91BvQXCoBHziew78MYL',#5,$,$,'Opening',#199,#219,$);
#221= IFCRELVOIDSELEMENT('09oPr9Ydf0gR5hRhQenuPC',#5,'Drill Hole',$,#64,#220);
#222= IFCPROPERTYSINGLEVALUE('PieceMark',$,IFCIDENTIFIER('BEAM'),$);
#223= IFCPROPERTYSINGLEVALUE('IndicationMark',$,IFCIDENTIFIER('b/202'),$);
#224= IFCPROPERTYSINGLEVALUE('PrelimMark',$,IFCIDENTIFIER(''),$);
#225= IFCPROPERTYSINGLEVALUE('MainPieceTag',$,IFCBOOLEAN(.T.),$);
#226= IFCPROPERTYSET('2QF_mxEOXA6wpiLLvAaffk',#5,'AISC_EM11_Pset_PieceIdentification','PieceIdentity',(#222,#223,#224,#225));
#227= IFCPROPERTYSINGLEVALUE('MaterialType',$,IFCIDENTIFIER('STEEL'),$);
#228= IFCPROPERTYSINGLEVALUE('MaterialGrade',$,IFCIDENTIFIER('S235JR'),$);
#229= IFCPROPERTYSET('1FP4008S18BwetQiySpgaK',#5,'AISC_EM11_Pset_Material',$,(#227,#228));
#230= IFCPROPERTYSINGLEVALUE('SkewedAngleY',$,IFCREAL(0.),$);
#231= IFCPROPERTYSINGLEVALUE('SkewedAngleX',$,IFCREAL(0.),$);
#232= IFCPROPERTYSET('0uDscz2M16xRRXN8dmgsMQ',#5,'AISC_EM11_Pset_SkewedEnd',$,(#230,#231));
#233= IFCPROPERTYSET('1kxRE_4HD03fBE8PFh2955',#5,'AISC_EM11_Pset_SkewedEnd_2',$,(#230,#231));
#234= IFCMATERIAL('STEEL/S235JR');
#235= IFCRELAGGREGATES('2vZzz7cur6uhV0YyiKEIFd',#5,$,$,#37,(#39));
#236= IFCRELAGGREGATES('2BrFFPuA7OAznIqE_cWaXv',#5,$,$,#39,(#41));
#237= IFCRELAGGREGATES('0vTJ6atQv8KBWRxIMQI1IE',#5,$,$,#41,(#43));
#238= IFCRELCONTAINEDINSPATIALSTRUCTURE('2Ei_jHycH08eXTOEPD4zFn',#5,$,$,(#64),#43);
#239= IFCRELDEFINESBYPROPERTIES('3dIv6odmn4cuovtTMXpz0N',#5,$,$,(#73),#79);
#240= IFCRELDEFINESBYPROPERTIES('0syj_ma5vAr9WGhuCNLxsf',#5,$,$,(#87),#90);
#241= IFCRELDEFINESBYPROPERTIES('0P3YgapBTC0wEjw5Jr7NrU',#5,$,$,(#108,#98),#101);
#242= IFCRELDEFINESBYPROPERTIES('3EVhKb1YHFR9TOKgoxRWUw',#5,$,$,(#220,#195,#183),#188);
#243= IFCRELDEFINESBYPROPERTIES('2xjjUGDhT2YQg9jdPsxa8f',#5,$,$,(#64),#226);
#244= IFCRELDEFINESBYPROPERTIES('18JhMIApPA3P78LGfDP0EO',#5,$,$,(#64),#229);
#245= IFCRELDEFINESBYPROPERTIES('2dieaQWdTCER9yZAhdgmz1',#5,$,$,(#64),#232);
#246= IFCRELDEFINESBYPROPERTIES('0w6clA3$b3lhw$_pVtqwV6',#5,$,$,(#64),#233);
#247= IFCRELASSOCIATESMATERIAL('2PfjE3oBf8hAgbbv74B3$q',#5,$,$,(#64),#234);
ENDSEC;

END-ISO-10303-21;
