ISO-10303-21;
HEADER;
FILE_DESCRIPTION(('ViewDefinition[AISC_Steel_Detailing]', 'Option [BaseQuantities:Off]', 'Option [GridExport:On]', 'Option [Assemblies:Off]', 'Option [Bolts:On]', 'Option [Rebars:On]', 'Option [PourObjects:Off]', 'Option [Welds:On]', 'Option [SurfaceTreatments:On]', 'Option [LocationBy:0]', 'Option [ViewColors:Off]', 'Option [SectionedSpine:Off]', 'Option [PropertySets:On]', 'Option [Export all:Off]'),'2;1');
FILE_NAME('b_21_Qty_2.ifc','2026-05-16T11:53:17',('GIOVANNIPC\\gcorrea'),('Structural Designer'),'IFC Database version: Work','Tekla Structures 2020 Service Pack 5, IFC Export Version: 4.0.0.0 Dec  7 2020','');
FILE_SCHEMA(('IFC2X3'));
ENDSEC;

DATA;
#1= IFCPERSON('GIOVANNIPC\\gcorrea','Undefined',$,$,$,$,$,$);
#2= IFCORGANIZATION($,'Trimble Solutions Corporation',$,$,$);
#3= IFCPERSONANDORGANIZATION(#1,#2,$);
#4= IFCAPPLICATION(#2,'2020 Service Pack 5','Tekla Structures','Multi material modeling');
#5= IFCOWNERHISTORY(#3,#4,$,.NOCHANGE.,$,$,$,1778950397);
#6= IFCCARTESIANPOINT((0.,0.,0.));
#7= IFCDIRECTION((1.,0.,0.));
#8= IFCDIRECTION((0.,1.,0.));
#9= IFCDIRECTION((0.,0.,1.));
#10= IFCAXIS2PLACEMENT3D(#6,#9,#7);
#11= IFCGEOMETRICREPRESENTATIONCONTEXT($,'Model',3,1.E-05,#10,$);
#12= IFCGEOMETRICREPRESENTATIONSUBCONTEXT('Body','Model',*,*,*,*,#11,$,.MODEL_VIEW.,$);
#13= IFCGEOMETRICREPRESENTATIONSUBCONTEXT('Axis','Model',*,*,*,*,#11,$,.GRAPH_VIEW.,$);
#14= IFCGEOMETRICREPRESENTATIONSUBCONTEXT('FootPrint','Model',*,*,*,*,#11,$,.MODEL_VIEW.,$);
#15= IFCSIUNIT(*,.LENGTHUNIT.,.MILLI.,.METRE.);
#16= IFCMEASUREWITHUNIT(IFCRATIOMEASURE(304.8),#15);
#17= IFCDIMENSIONALEXPONENTS(1,0,0,0,0,0,0);
#18= IFCCONVERSIONBASEDUNIT(#17,.LENGTHUNIT.,'FOOT',#16);
#19= IFCSIUNIT(*,.AREAUNIT.,$,.SQUARE_METRE.);
#20= IFCMEASUREWITHUNIT(IFCRATIOMEASURE(0.09290304),#19);
#21= IFCDIMENSIONALEXPONENTS(2,0,0,0,0,0,0);
#22= IFCCONVERSIONBASEDUNIT(#21,.AREAUNIT.,'SQUARE FOOT',#20);
#23= IFCSIUNIT(*,.VOLUMEUNIT.,$,.CUBIC_METRE.);
#24= IFCMEASUREWITHUNIT(IFCRATIOMEASURE(0.028316846592),#23);
#25= IFCDIMENSIONALEXPONENTS(3,0,0,0,0,0,0);
#26= IFCCONVERSIONBASEDUNIT(#25,.VOLUMEUNIT.,'CUBIC FOOT',#24);
#27= IFCSIUNIT(*,.MASSUNIT.,.KILO.,.GRAM.);
#28= IFCSIUNIT(*,.TIMEUNIT.,$,.SECOND.);
#29= IFCSIUNIT(*,.PLANEANGLEUNIT.,$,.RADIAN.);
#30= IFCMEASUREWITHUNIT(IFCRATIOMEASURE(0.0174532925199433),#29);
#31= IFCDIMENSIONALEXPONENTS(0,0,0,0,0,0,0);
#32= IFCCONVERSIONBASEDUNIT(#31,.PLANEANGLEUNIT.,'DEGREE',#30);
#33= IFCSIUNIT(*,.SOLIDANGLEUNIT.,$,.STERADIAN.);
#34= IFCSIUNIT(*,.THERMODYNAMICTEMPERATUREUNIT.,$,.DEGREE_CELSIUS.);
#35= IFCSIUNIT(*,.LUMINOUSINTENSITYUNIT.,$,.LUMEN.);
#36= IFCUNITASSIGNMENT((#15,#19,#23,#27,#28,#29,#33,#34,#35));
#37= IFCPROJECT('2G7ZFDNE16yBDU14FA92Me',#5,'Proyecto',$,$,$,$,(#11),#36);
#38= IFCLOCALPLACEMENT($,#10);
#39= IFCSITE('2xvEzEinjBTea80yOTcujY',#5,'Obra',$,$,#38,$,$,.ELEMENT.,$,$,$,$,$);
#40= IFCLOCALPLACEMENT(#38,#10);
#41= IFCBUILDING('12_i7CJ9T2W8x9YEaQULwN',#5,'Undefined',$,$,#40,$,$,.ELEMENT.,$,$,$);
#42= IFCLOCALPLACEMENT(#40,#10);
#43= IFCBUILDINGSTOREY('29hdEUCErFze9E_VIAceOd',#5,'Undefined',$,$,#42,$,$,.ELEMENT.,0.);
#44= IFCOWNERHISTORY(#3,#4,$,.NOCHANGE.,$,$,$,1774472400);
#45= IFCCARTESIANPOINT((5671.84515058059,17330.1814349376,13680.));
#46= IFCDIRECTION((0.99999999982832,-1.8529999996163E-05,0.));
#47= IFCAXIS2PLACEMENT3D(#45,#9,#46);
#48= IFCLOCALPLACEMENT(#42,#47);
#49= IFCDIRECTION((1.,0.));
#50= IFCCARTESIANPOINT((0.,0.));
#51= IFCAXIS2PLACEMENT2D(#50,#49);
#52= IFCISHAPEPROFILEDEF(.AREA.,'HEA450',#51,300.,440.,11.5,21.,27.);
#53= IFCDIRECTION((0.,-1.,0.));
#54= IFCDIRECTION((-1.,0.,0.));
#55= IFCCARTESIANPOINT((2655.67115386654,0.,0.));
#56= IFCAXIS2PLACEMENT3D(#55,#54,#53);
#57= IFCEXTRUDEDAREASOLID(#52,#56,#9,2655.67);
#58= IFCDIRECTION((-0.99999999982832,-1.85299999957351E-05,0.));
#59= IFCCARTESIANPOINT((2655.66272932966,0.143133495923394,-320.));
#60= IFCDIRECTION((-1.85299999957351E-05,0.99999999982832,0.));
#61= IFCAXIS2PLACEMENT3D(#59,#58,#60);
#62= IFCPLANE(#61);
#63= IFCHALFSPACESOLID(#62,.T.);
#64= IFCBOOLEANCLIPPINGRESULT(.DIFFERENCE.,#57,#63);
#65= IFCSHAPEREPRESENTATION(#12,'Body','Clipping',(#64));
#66= IFCPRODUCTDEFINITIONSHAPE($,$,(#65));
#67= IFCBEAM('1m2sm9$OPA3elW44h3X3G6',#44,'BEAM','HEA450','HEA450',#48,#66,'ID700b6c09-fd86-4a0e-8be0-104ac3843406');
#68= IFCLOCALPLACEMENT(#42,#47);
#69= IFCRECTANGLEPROFILEDEF(.AREA.,'PL160.9*12',#51,12.,160.9);
#70= IFCDIRECTION((0.,0.,-1.));
#71= IFCCARTESIANPOINT((2671.65999000969,-70.5544385433204,221.));
#72= IFCAXIS2PLACEMENT3D(#71,#70,#58);
#73= IFCEXTRUDEDAREASOLID(#69,#72,#9,442.);
#74= IFCSHAPEREPRESENTATION(#12,'Body','SweptSolid',(#73));
#75= IFCPRODUCTDEFINITIONSHAPE($,$,(#74));
#76= IFCOPENINGELEMENT('0nv4sHRmz0JwF3jSvqDX4V',#5,$,$,'Recess',#68,#75,$);
#77= IFCRELVOIDSELEMENT('1MmMruefLCahpeKax0VjAe',#5,$,$,#67,#76);
#78= IFCPROPERTYSINGLEVALUE('FeatureSubTypes',$,$,$);
#79= IFCPROPERTYSINGLEVALUE('RectangleOpeningWidth',$,IFCPOSITIVELENGTHMEASURE(12.),$);
#80= IFCPROPERTYSINGLEVALUE('RectangleOpeningHeight',$,IFCPOSITIVELENGTHMEASURE(160.9),$);
#81= IFCPROPERTYSINGLEVALUE('OpeningDiameter',$,$,$);
#82= IFCPROPERTYSET('1h1Lwlv8PBA9n91Ntehe4c',#5,'AISC_EM11_Pset_Opening/Cope',$,(#78,#79,#80,#81));
#83= IFCLOCALPLACEMENT(#42,#47);
#84= IFCRECTANGLEPROFILEDEF(.AREA.,'PL163.6*12',#51,12.,163.6);
#85= IFCCARTESIANPOINT((2671.65735358033,71.7245336673004,221.));
#86= IFCAXIS2PLACEMENT3D(#85,#70,#58);
#87= IFCEXTRUDEDAREASOLID(#84,#86,#9,442.);
#88= IFCSHAPEREPRESENTATION(#12,'Body','SweptSolid',(#87));
#89= IFCPRODUCTDEFINITIONSHAPE($,$,(#88));
#90= IFCOPENINGELEMENT('0SyMYr5Qf0v9eEFm5lU1Mg',#5,$,$,'Recess',#83,#89,$);
#91= IFCRELVOIDSELEMENT('2WG4Jj4BX9DA_CLf0zohed',#5,$,$,#67,#90);
#92= IFCPROPERTYSINGLEVALUE('RectangleOpeningHeight',$,IFCPOSITIVELENGTHMEASURE(163.6),$);
#93= IFCPROPERTYSET('3fsvbb05vAMBGlToAhX6o7',#5,'AISC_EM11_Pset_Opening/Cope',$,(#78,#79,#92,#81));
#94= IFCCARTESIANPOINT((7607.54303094852,17332.653927269,13460.));
#95= IFCDIRECTION((0.000467666999834364,-0.999999890643783,0.));
#96= IFCDIRECTION((0.999999890643783,0.000467666999834516,0.));
#97= IFCAXIS2PLACEMENT3D(#94,#95,#96);
#98= IFCLOCALPLACEMENT(#42,#97);
#99= IFCCIRCLEPROFILEDEF(.AREA.,$,#51,12.);
#100= IFCCARTESIANPOINT((0.,-0.1,0.));
#101= IFCAXIS2PLACEMENT3D(#100,#8,#7);
#102= IFCEXTRUDEDAREASOLID(#99,#101,#9,21.2);
#103= IFCSHAPEREPRESENTATION(#12,'Body','SweptSolid',(#102));
#104= IFCREPRESENTATIONMAP(#10,#103);
#105= IFCCARTESIANPOINT((9.09494701772928E-13,0.,74.9999999997854));
#106= IFCCARTESIANTRANSFORMATIONOPERATOR3D($,$,#105,$,$);
#107= IFCMAPPEDITEM(#104,#106);
#108= IFCCARTESIANPOINT((75.0000000000591,0.,74.999999999789));
#109= IFCCARTESIANTRANSFORMATIONOPERATOR3D($,$,#108,$,$);
#110= IFCMAPPEDITEM(#104,#109);
#111= IFCCARTESIANPOINT((150.000000000118,0.,74.999999999789));
#112= IFCCARTESIANTRANSFORMATIONOPERATOR3D($,$,#111,$,$);
#113= IFCMAPPEDITEM(#104,#112);
#114= IFCCARTESIANPOINT((225.000000000177,0.,74.9999999997854));
#115= IFCCARTESIANTRANSFORMATIONOPERATOR3D($,$,#114,$,$);
#116= IFCMAPPEDITEM(#104,#115);
#117= IFCCARTESIANPOINT((300.000000000236,0.,74.999999999789));
#118= IFCCARTESIANTRANSFORMATIONOPERATOR3D($,$,#117,$,$);
#119= IFCMAPPEDITEM(#104,#118);
#120= IFCCARTESIANPOINT((375.000000000296,0.,74.999999999789));
#121= IFCCARTESIANTRANSFORMATIONOPERATOR3D($,$,#120,$,$);
#122= IFCMAPPEDITEM(#104,#121);
#123= IFCCARTESIANPOINT((450.000000000355,0.,74.9999999997854));
#124= IFCCARTESIANTRANSFORMATIONOPERATOR3D($,$,#123,$,$);
#125= IFCMAPPEDITEM(#104,#124);
#126= IFCCARTESIANPOINT((525.000000000414,0.,74.999999999789));
#127= IFCCARTESIANTRANSFORMATIONOPERATOR3D($,$,#126,$,$);
#128= IFCMAPPEDITEM(#104,#127);
#129= IFCCARTESIANPOINT((600.000000000473,0.,74.999999999789));
#130= IFCCARTESIANTRANSFORMATIONOPERATOR3D($,$,#129,$,$);
#131= IFCMAPPEDITEM(#104,#130);
#132= IFCCARTESIANPOINT((675.000000000529,0.,74.9999999997854));
#133= IFCCARTESIANTRANSFORMATIONOPERATOR3D($,$,#132,$,$);
#134= IFCMAPPEDITEM(#104,#133);
#135= IFCCARTESIANPOINT((0.,0.,-74.9999999997817));
#136= IFCCARTESIANTRANSFORMATIONOPERATOR3D($,$,#135,$,$);
#137= IFCMAPPEDITEM(#104,#136);
#138= IFCCARTESIANPOINT((75.0000000000591,0.,-74.9999999997854));
#139= IFCCARTESIANTRANSFORMATIONOPERATOR3D($,$,#138,$,$);
#140= IFCMAPPEDITEM(#104,#139);
#141= IFCCARTESIANPOINT((150.000000000118,0.,-74.9999999997817));
#142= IFCCARTESIANTRANSFORMATIONOPERATOR3D($,$,#141,$,$);
#143= IFCMAPPEDITEM(#104,#142);
#144= IFCCARTESIANPOINT((225.000000000176,0.,-74.9999999997817));
#145= IFCCARTESIANTRANSFORMATIONOPERATOR3D($,$,#144,$,$);
#146= IFCMAPPEDITEM(#104,#145);
#147= IFCCARTESIANPOINT((300.000000000236,0.,-74.9999999997854));
#148= IFCCARTESIANTRANSFORMATIONOPERATOR3D($,$,#147,$,$);
#149= IFCMAPPEDITEM(#104,#148);
#150= IFCCARTESIANPOINT((375.000000000295,0.,-74.9999999997817));
#151= IFCCARTESIANTRANSFORMATIONOPERATOR3D($,$,#150,$,$);
#152= IFCMAPPEDITEM(#104,#151);
#153= IFCCARTESIANPOINT((450.000000000354,0.,-74.9999999997854));
#154= IFCCARTESIANTRANSFORMATIONOPERATOR3D($,$,#153,$,$);
#155= IFCMAPPEDITEM(#104,#154);
#156= IFCCARTESIANPOINT((525.000000000413,0.,-74.9999999997854));
#157= IFCCARTESIANTRANSFORMATIONOPERATOR3D($,$,#156,$,$);
#158= IFCMAPPEDITEM(#104,#157);
#159= IFCCARTESIANPOINT((600.000000000473,0.,-74.9999999997817));
#160= IFCCARTESIANTRANSFORMATIONOPERATOR3D($,$,#159,$,$);
#161= IFCMAPPEDITEM(#104,#160);
#162= IFCCARTESIANPOINT((675.000000000531,0.,-74.9999999997854));
#163= IFCCARTESIANTRANSFORMATIONOPERATOR3D($,$,#162,$,$);
#164= IFCMAPPEDITEM(#104,#163);
#165= IFCSHAPEREPRESENTATION(#12,'Body','MappedRepresentation',(#107,#110,#113,#116,#119,#122,#125,#128,#131,#134,#137,#140,#143,#146,#149,#152,#155,#158,#161,#164));
#166= IFCPRODUCTDEFINITIONSHAPE($,$,(#165));
#167= IFCOPENINGELEMENT('1cOw9LkSj7fvPbriUCMKGP',#5,$,$,'Opening',#98,#166,$);
#168= IFCRELVOIDSELEMENT('16ouloToPDg886LUEIk339',#5,'Drill Hole',$,#67,#167);
#169= IFCPROPERTYSINGLEVALUE('FeatureSubTypes',$,IFCLABEL('TORNILLO'),$);
#170= IFCPROPERTYSINGLEVALUE('RectangleOpeningWidth',$,$,$);
#171= IFCPROPERTYSINGLEVALUE('RectangleOpeningHeight',$,$,$);
#172= IFCPROPERTYSET('0yR3cMWEXEEgznSTEHsGxL',#5,'AISC_EM11_Pset_Opening/Cope',$,(#169,#170,#171,#81));
#173= IFCCARTESIANPOINT((8327.50788210658,17330.3041467127,13900.));
#174= IFCAXIS2PLACEMENT3D(#173,#54,#70);
#175= IFCLOCALPLACEMENT(#42,#174);
#176= IFCCIRCLEPROFILEDEF(.AREA.,$,#51,12.5);
#177= IFCCARTESIANPOINT((0.,-5.67891264182049,0.));
#178= IFCAXIS2PLACEMENT3D(#177,#8,#7);
#179= IFCEXTRUDEDAREASOLID(#176,#178,#9,11.7);
#180= IFCSHAPEREPRESENTATION(#12,'Body','SweptSolid',(#179));
#181= IFCREPRESENTATIONMAP(#10,#180);
#182= IFCCARTESIANPOINT((107.5,0.,45.));
#183= IFCCARTESIANTRANSFORMATIONOPERATOR3D($,$,#182,$,$);
#184= IFCMAPPEDITEM(#181,#183);
#185= IFCCARTESIANPOINT((182.5,0.,45.));
#186= IFCCARTESIANTRANSFORMATIONOPERATOR3D($,$,#185,$,$);
#187= IFCMAPPEDITEM(#181,#186);
#188= IFCCARTESIANPOINT((257.5,0.,45.));
#189= IFCCARTESIANTRANSFORMATIONOPERATOR3D($,$,#188,$,$);
#190= IFCMAPPEDITEM(#181,#189);
#191= IFCCARTESIANPOINT((332.5,0.,45.));
#192= IFCCARTESIANTRANSFORMATIONOPERATOR3D($,$,#191,$,$);
#193= IFCMAPPEDITEM(#181,#192);
#194= IFCSHAPEREPRESENTATION(#12,'Body','MappedRepresentation',(#184,#187,#190,#193));
#195= IFCPRODUCTDEFINITIONSHAPE($,$,(#194));
#196= IFCOPENINGELEMENT('3SeMzinvzEBOzujOn8vNSa',#5,$,$,'Opening',#175,#195,$);
#197= IFCRELVOIDSELEMENT('0XiglOsKnCAeP3jWWI$U_4',#5,'Drill Hole',$,#67,#196);
#198= IFCCARTESIANPOINT((7607.54303094852,17332.653927269,13900.));
#199= IFCDIRECTION((-0.000467666999834364,0.999999890643783,0.));
#200= IFCAXIS2PLACEMENT3D(#198,#199,#96);
#201= IFCLOCALPLACEMENT(#42,#200);
#202= IFCSHAPEREPRESENTATION(#12,'Body','MappedRepresentation',(#137,#140,#143,#146,#149,#152,#155,#158,#161,#164,#107,#110,#113,#116,#119,#122,#125,#128,#131,#134));
#203= IFCPRODUCTDEFINITIONSHAPE($,$,(#202));
#204= IFCOPENINGELEMENT('1OHTZz1YXF_99F5yqCzkRT',#5,$,$,'Opening',#201,#203,$);
#205= IFCRELVOIDSELEMENT('1$nvkJcIf2jx34fYRZCEij',#5,'Drill Hole',$,#67,#204);
#206= IFCPROPERTYSINGLEVALUE('PieceMark',$,IFCIDENTIFIER('BEAM'),$);
#207= IFCPROPERTYSINGLEVALUE('IndicationMark',$,IFCIDENTIFIER('b/21'),$);
#208= IFCPROPERTYSINGLEVALUE('PrelimMark',$,IFCIDENTIFIER(''),$);
#209= IFCPROPERTYSINGLEVALUE('MainPieceTag',$,IFCBOOLEAN(.F.),$);
#210= IFCPROPERTYSET('3WPpZQsNX4CvtvBnv9XM4e',#5,'AISC_EM11_Pset_PieceIdentification','PieceIdentity',(#206,#207,#208,#209));
#211= IFCPROPERTYSINGLEVALUE('MaterialType',$,IFCIDENTIFIER('STEEL'),$);
#212= IFCPROPERTYSINGLEVALUE('MaterialGrade',$,IFCIDENTIFIER('S235JR'),$);
#213= IFCPROPERTYSET('3ksu_Nh$z67Bp7Iq8q5JzJ',#5,'AISC_EM11_Pset_Material',$,(#211,#212));
#214= IFCPROPERTYSINGLEVALUE('SkewedAngleY',$,IFCREAL(0.),$);
#215= IFCPROPERTYSINGLEVALUE('SkewedAngleX',$,IFCREAL(0.),$);
#216= IFCPROPERTYSET('0JWUT4H_b5t9d2gRL7Ic_l',#5,'AISC_EM11_Pset_SkewedEnd',$,(#214,#215));
#217= IFCPROPERTYSINGLEVALUE('SkewedAngleX',$,IFCREAL(-0.00106),$);
#218= IFCPROPERTYSET('3TChXY_K501ho7zVNIoC_y',#5,'AISC_EM11_Pset_SkewedEnd_2',$,(#214,#217));
#219= IFCMATERIAL('STEEL/S235JR');
#220= IFCRELAGGREGATES('2$TairmFz7HOYQD6Jp42ln',#5,$,$,#37,(#39));
#221= IFCRELAGGREGATES('2Hls_72XFPZgqiVOb5MK13',#5,$,$,#39,(#41));
#222= IFCRELAGGREGATES('0rJ8h7_vD8aRq7jY86H2P9',#5,$,$,#41,(#43));
#223= IFCRELCONTAINEDINSPATIALSTRUCTURE('3A9TKTSYHC0g$UenZsHpYh',#5,$,$,(#67),#43);
#224= IFCRELDEFINESBYPROPERTIES('1Y6f$MsGH5eQF7gw0jpQJ$',#5,$,$,(#76),#82);
#225= IFCRELDEFINESBYPROPERTIES('1Yom3tTib8ZRwqkBg7eZ46',#5,$,$,(#90),#93);
#226= IFCRELDEFINESBYPROPERTIES('3XICS6Rwb2ZhaE3hqK362h',#5,$,$,(#204,#196,#167),#172);
#227= IFCRELDEFINESBYPROPERTIES('0s8AGr1gbE9uWwaYu4FriQ',#5,$,$,(#67),#210);
#228= IFCRELDEFINESBYPROPERTIES('12Ikb2vyf7r8BG_5daWc4u',#5,$,$,(#67),#213);
#229= IFCRELDEFINESBYPROPERTIES('2yPf0aBzzFLuiX5D4IBb08',#5,$,$,(#67),#216);
#230= IFCRELDEFINESBYPROPERTIES('3eQbu5KpHAFfiKSdr3u3n5',#5,$,$,(#67),#218);
#231= IFCRELASSOCIATESMATERIAL('3R7SZwgXf4$ekM5NMg5JeG',#5,$,$,(#67),#219);
ENDSEC;

END-ISO-10303-21;
