ISO-10303-21;
HEADER;
FILE_DESCRIPTION(('ViewDefinition[AISC_Steel_Detailing]', 'Option [BaseQuantities:Off]', 'Option [GridExport:On]', 'Option [Assemblies:Off]', 'Option [Bolts:On]', 'Option [Rebars:On]', 'Option [PourObjects:Off]', 'Option [Welds:On]', 'Option [SurfaceTreatments:On]', 'Option [LocationBy:0]', 'Option [ViewColors:Off]', 'Option [SectionedSpine:Off]', 'Option [PropertySets:On]', 'Option [Export all:Off]'),'2;1');
FILE_NAME('b_22_Qty_1.ifc','2026-05-16T11:53:17',('GIOVANNIPC\\gcorrea'),('Structural Designer'),'IFC Database version: Work','Tekla Structures 2020 Service Pack 5, IFC Export Version: 4.0.0.0 Dec  7 2020','');
FILE_SCHEMA(('IFC2X3'));
ENDSEC;

DATA;
#1= IFCPERSON('GIOVANNIPC\\gcorrea','Undefined',$,$,$,$,$,$);
#2= IFCORGANIZATION($,'Trimble Solutions Corporation',$,$,$);
#3= IFCPERSONANDORGANIZATION(#1,#2,$);
#4= IFCAPPLICATION(#2,'2020 Service Pack 5','Tekla Structures','Multi material modeling');
#5= IFCOWNERHISTORY(#3,#4,$,.NOCHANGE.,$,$,$,1778950397);
#6= IFCCARTESIANPOINT((0.,0.,0.));
#7= IFCDIRECTION((1.,0.,0.));
#8= IFCDIRECTION((0.,1.,0.));
#9= IFCDIRECTION((0.,0.,1.));
#10= IFCAXIS2PLACEMENT3D(#6,#9,#7);
#11= IFCGEOMETRICREPRESENTATIONCONTEXT($,'Model',3,1.E-05,#10,$);
#12= IFCGEOMETRICREPRESENTATIONSUBCONTEXT('Body','Model',*,*,*,*,#11,$,.MODEL_VIEW.,$);
#13= IFCGEOMETRICREPRESENTATIONSUBCONTEXT('Axis','Model',*,*,*,*,#11,$,.GRAPH_VIEW.,$);
#14= IFCGEOMETRICREPRESENTATIONSUBCONTEXT('FootPrint','Model',*,*,*,*,#11,$,.MODEL_VIEW.,$);
#15= IFCSIUNIT(*,.LENGTHUNIT.,.MILLI.,.METRE.);
#16= IFCMEASUREWITHUNIT(IFCRATIOMEASURE(304.8),#15);
#17= IFCDIMENSIONALEXPONENTS(1,0,0,0,0,0,0);
#18= IFCCONVERSIONBASEDUNIT(#17,.LENGTHUNIT.,'FOOT',#16);
#19= IFCSIUNIT(*,.AREAUNIT.,$,.SQUARE_METRE.);
#20= IFCMEASUREWITHUNIT(IFCRATIOMEASURE(0.09290304),#19);
#21= IFCDIMENSIONALEXPONENTS(2,0,0,0,0,0,0);
#22= IFCCONVERSIONBASEDUNIT(#21,.AREAUNIT.,'SQUARE FOOT',#20);
#23= IFCSIUNIT(*,.VOLUMEUNIT.,$,.CUBIC_METRE.);
#24= IFCMEASUREWITHUNIT(IFCRATIOMEASURE(0.028316846592),#23);
#25= IFCDIMENSIONALEXPONENTS(3,0,0,0,0,0,0);
#26= IFCCONVERSIONBASEDUNIT(#25,.VOLUMEUNIT.,'CUBIC FOOT',#24);
#27= IFCSIUNIT(*,.MASSUNIT.,.KILO.,.GRAM.);
#28= IFCSIUNIT(*,.TIMEUNIT.,$,.SECOND.);
#29= IFCSIUNIT(*,.PLANEANGLEUNIT.,$,.RADIAN.);
#30= IFCMEASUREWITHUNIT(IFCRATIOMEASURE(0.0174532925199433),#29);
#31= IFCDIMENSIONALEXPONENTS(0,0,0,0,0,0,0);
#32= IFCCONVERSIONBASEDUNIT(#31,.PLANEANGLEUNIT.,'DEGREE',#30);
#33= IFCSIUNIT(*,.SOLIDANGLEUNIT.,$,.STERADIAN.);
#34= IFCSIUNIT(*,.THERMODYNAMICTEMPERATUREUNIT.,$,.DEGREE_CELSIUS.);
#35= IFCSIUNIT(*,.LUMINOUSINTENSITYUNIT.,$,.LUMEN.);
#36= IFCUNITASSIGNMENT((#15,#19,#23,#27,#28,#29,#33,#34,#35));
#37= IFCPROJECT('2G7ZFDNE16yBDU14FA92Me',#5,'Proyecto',$,$,$,$,(#11),#36);
#38= IFCLOCALPLACEMENT($,#10);
#39= IFCSITE('2xvEzEinjBTea80yOTcujY',#5,'Obra',$,$,#38,$,$,.ELEMENT.,$,$,$,$,$);
#40= IFCLOCALPLACEMENT(#38,#10);
#41= IFCBUILDING('06LTslQQvAag6qpLBlUV1H',#5,'Undefined',$,$,#40,$,$,.ELEMENT.,$,$,$);
#42= IFCLOCALPLACEMENT(#40,#10);
#43= IFCBUILDINGSTOREY('29hdEUCErFze9E_VIAceOd',#5,'Undefined',$,$,#42,$,$,.ELEMENT.,0.);
#44= IFCOWNERHISTORY(#3,#4,$,.NOCHANGE.,$,$,$,1777917600);
#45= IFCCARTESIANPOINT((8665.09982299805,17330.1322097778,13680.));
#46= IFCAXIS2PLACEMENT3D(#45,#9,#7);
#47= IFCLOCALPLACEMENT(#42,#46);
#48= IFCDIRECTION((1.,0.));
#49= IFCCARTESIANPOINT((0.,0.));
#50= IFCAXIS2PLACEMENT2D(#49,#48);
#51= IFCISHAPEPROFILEDEF(.AREA.,'HEA450',#50,300.,440.,11.5,21.,27.);
#52= IFCDIRECTION((0.,-1.,0.));
#53= IFCDIRECTION((-1.,0.,0.));
#54= IFCCARTESIANPOINT((8162.4082756994,0.,0.));
#55= IFCAXIS2PLACEMENT3D(#54,#53,#52);
#56= IFCEXTRUDEDAREASOLID(#51,#55,#9,8155.02);
#57= IFCCARTESIANPOINT((8162.4082756994,0.146329770883312,-320.));
#58= IFCAXIS2PLACEMENT3D(#57,#53,#8);
#59= IFCPLANE(#58);
#60= IFCHALFSPACESOLID(#59,.T.);
#61= IFCBOOLEANCLIPPINGRESULT(.DIFFERENCE.,#56,#60);
#62= IFCCARTESIANPOINT((7.39005253258802,0.161518148725008,-320.));
#63= IFCAXIS2PLACEMENT3D(#62,#7,#52);
#64= IFCPLANE(#63);
#65= IFCHALFSPACESOLID(#64,.T.);
#66= IFCBOOLEANCLIPPINGRESULT(.DIFFERENCE.,#61,#65);
#67= IFCSHAPEREPRESENTATION(#12,'Body','Clipping',(#66));
#68= IFCPRODUCTDEFINITIONSHAPE($,$,(#67));
#69= IFCBEAM('2OvJD2Nw169OudN6hH5hfW',#44,'BEAM','HEA450','HEA450',#47,#68,'ID98e53342-5fa0-4625-8e27-5c6ad116ba60');
#70= IFCLOCALPLACEMENT(#42,#46);
#71= IFCRECTANGLEPROFILEDEF(.AREA.,'PL161.1*12',#50,12.,161.1);
#72= IFCDIRECTION((0.,0.,-1.));
#73= IFCCARTESIANPOINT((-8.60499352816259,70.4497018107104,221.));
#74= IFCAXIS2PLACEMENT3D(#73,#72,#7);
#75= IFCEXTRUDEDAREASOLID(#71,#74,#9,442.);
#76= IFCSHAPEREPRESENTATION(#12,'Body','SweptSolid',(#75));
#77= IFCPRODUCTDEFINITIONSHAPE($,$,(#76));
#78= IFCOPENINGELEMENT('2tl_gXfHf029DslZi64vTT',#5,$,$,'Recess',#70,#77,$);
#79= IFCRELVOIDSELEMENT('0vsrQa7L509vb$e_PpX26F',#5,$,$,#69,#78);
#80= IFCPROPERTYSINGLEVALUE('FeatureSubTypes',$,$,$);
#81= IFCPROPERTYSINGLEVALUE('RectangleOpeningWidth',$,IFCPOSITIVELENGTHMEASURE(12.),$);
#82= IFCPROPERTYSINGLEVALUE('RectangleOpeningHeight',$,IFCPOSITIVELENGTHMEASURE(161.1),$);
#83= IFCPROPERTYSINGLEVALUE('OpeningDiameter',$,$,$);
#84= IFCPROPERTYSET('0C0amfFBrF994rIqzVK$di',#5,'AISC_EM11_Pset_Opening/Cope',$,(#80,#81,#82,#83));
#85= IFCLOCALPLACEMENT(#42,#46);
#86= IFCRECTANGLEPROFILEDEF(.AREA.,'PL160.9*12',#50,12.,160.9);
#87= IFCCARTESIANPOINT((-8.60499352816259,-70.5502981892896,221.));
#88= IFCAXIS2PLACEMENT3D(#87,#72,#7);
#89= IFCEXTRUDEDAREASOLID(#86,#88,#9,442.);
#90= IFCSHAPEREPRESENTATION(#12,'Body','SweptSolid',(#89));
#91= IFCPRODUCTDEFINITIONSHAPE($,$,(#90));
#92= IFCOPENINGELEMENT('399pW2D8182hJpLPBGSeFt',#5,$,$,'Recess',#85,#91,$);
#93= IFCRELVOIDSELEMENT('3TooExbYTAlxBhfkvDDjeQ',#5,$,$,#69,#92);
#94= IFCPROPERTYSINGLEVALUE('RectangleOpeningHeight',$,IFCPOSITIVELENGTHMEASURE(160.9),$);
#95= IFCPROPERTYSET('2ZZB29stzDCRjk6Fvx852g',#5,'AISC_EM11_Pset_Opening/Cope',$,(#80,#81,#94,#83));
#96= IFCCARTESIANPOINT((16107.5432475394,17332.6571078146,13460.));
#97= IFCDIRECTION((0.000467666999835273,-0.999999890643783,0.));
#98= IFCDIRECTION((0.999999890643783,0.000467666999834516,0.));
#99= IFCAXIS2PLACEMENT3D(#96,#97,#98);
#100= IFCLOCALPLACEMENT(#42,#99);
#101= IFCCIRCLEPROFILEDEF(.AREA.,$,#50,12.);
#102= IFCCARTESIANPOINT((0.,-0.1,0.));
#103= IFCAXIS2PLACEMENT3D(#102,#8,#7);
#104= IFCEXTRUDEDAREASOLID(#101,#103,#9,21.2);
#105= IFCSHAPEREPRESENTATION(#12,'Body','SweptSolid',(#104));
#106= IFCREPRESENTATIONMAP(#10,#105);
#107= IFCCARTESIANPOINT((0.,0.,74.9999999997854));
#108= IFCCARTESIANTRANSFORMATIONOPERATOR3D($,$,#107,$,$);
#109= IFCMAPPEDITEM(#106,#108);
#110= IFCCARTESIANPOINT((75.0000000000564,0.,74.9999999997817));
#111= IFCCARTESIANTRANSFORMATIONOPERATOR3D($,$,#110,$,$);
#112= IFCMAPPEDITEM(#106,#111);
#113= IFCCARTESIANPOINT((150.000000000116,0.,74.9999999997854));
#114= IFCCARTESIANTRANSFORMATIONOPERATOR3D($,$,#113,$,$);
#115= IFCMAPPEDITEM(#106,#114);
#116= IFCCARTESIANPOINT((225.000000000175,0.,74.9999999997817));
#117= IFCCARTESIANTRANSFORMATIONOPERATOR3D($,$,#116,$,$);
#118= IFCMAPPEDITEM(#106,#117);
#119= IFCCARTESIANPOINT((300.000000000233,0.,74.9999999997817));
#120= IFCCARTESIANTRANSFORMATIONOPERATOR3D($,$,#119,$,$);
#121= IFCMAPPEDITEM(#106,#120);
#122= IFCCARTESIANPOINT((375.000000000295,0.,74.9999999997854));
#123= IFCCARTESIANTRANSFORMATIONOPERATOR3D($,$,#122,$,$);
#124= IFCMAPPEDITEM(#106,#123);
#125= IFCCARTESIANPOINT((450.000000000353,0.,74.9999999997817));
#126= IFCCARTESIANTRANSFORMATIONOPERATOR3D($,$,#125,$,$);
#127= IFCMAPPEDITEM(#106,#126);
#128= IFCCARTESIANPOINT((525.000000000411,0.,74.9999999997817));
#129= IFCCARTESIANTRANSFORMATIONOPERATOR3D($,$,#128,$,$);
#130= IFCMAPPEDITEM(#106,#129);
#131= IFCCARTESIANPOINT((600.000000000469,0.,74.9999999997854));
#132= IFCCARTESIANTRANSFORMATIONOPERATOR3D($,$,#131,$,$);
#133= IFCMAPPEDITEM(#106,#132);
#134= IFCCARTESIANPOINT((675.000000000531,0.,74.9999999997817));
#135= IFCCARTESIANTRANSFORMATIONOPERATOR3D($,$,#134,$,$);
#136= IFCMAPPEDITEM(#106,#135);
#137= IFCCARTESIANPOINT((-1.81898940354586E-12,0.,-74.999999999789));
#138= IFCCARTESIANTRANSFORMATIONOPERATOR3D($,$,#137,$,$);
#139= IFCMAPPEDITEM(#106,#138);
#140= IFCCARTESIANPOINT((75.0000000000582,0.,-74.999999999789));
#141= IFCCARTESIANTRANSFORMATIONOPERATOR3D($,$,#140,$,$);
#142= IFCMAPPEDITEM(#106,#141);
#143= IFCCARTESIANPOINT((150.000000000116,0.,-74.999999999789));
#144= IFCCARTESIANTRANSFORMATIONOPERATOR3D($,$,#143,$,$);
#145= IFCMAPPEDITEM(#106,#144);
#146= IFCCARTESIANPOINT((225.000000000176,0.,-74.999999999789));
#147= IFCCARTESIANTRANSFORMATIONOPERATOR3D($,$,#146,$,$);
#148= IFCMAPPEDITEM(#106,#147);
#149= IFCCARTESIANPOINT((300.000000000233,0.,-74.999999999789));
#150= IFCCARTESIANTRANSFORMATIONOPERATOR3D($,$,#149,$,$);
#151= IFCMAPPEDITEM(#106,#150);
#152= IFCCARTESIANPOINT((375.000000000295,0.,-74.999999999789));
#153= IFCCARTESIANTRANSFORMATIONOPERATOR3D($,$,#152,$,$);
#154= IFCMAPPEDITEM(#106,#153);
#155= IFCCARTESIANPOINT((450.000000000353,0.,-74.9999999997854));
#156= IFCCARTESIANTRANSFORMATIONOPERATOR3D($,$,#155,$,$);
#157= IFCMAPPEDITEM(#106,#156);
#158= IFCCARTESIANPOINT((525.000000000407,0.,-74.999999999789));
#159= IFCCARTESIANTRANSFORMATIONOPERATOR3D($,$,#158,$,$);
#160= IFCMAPPEDITEM(#106,#159);
#161= IFCCARTESIANPOINT((600.000000000469,0.,-74.999999999789));
#162= IFCCARTESIANTRANSFORMATIONOPERATOR3D($,$,#161,$,$);
#163= IFCMAPPEDITEM(#106,#162);
#164= IFCCARTESIANPOINT((675.000000000531,0.,-74.9999999997854));
#165= IFCCARTESIANTRANSFORMATIONOPERATOR3D($,$,#164,$,$);
#166= IFCMAPPEDITEM(#106,#165);
#167= IFCSHAPEREPRESENTATION(#12,'Body','MappedRepresentation',(#109,#112,#115,#118,#121,#124,#127,#130,#133,#136,#139,#142,#145,#148,#151,#154,#157,#160,#163,#166));
#168= IFCPRODUCTDEFINITIONSHAPE($,$,(#167));
#169= IFCOPENINGELEMENT('0hlElFLcv5SQMEzyrYMuko',#5,$,$,'Opening',#100,#168,$);
#170= IFCRELVOIDSELEMENT('1UrAn9z6zFjRaNIuOtDU8J',#5,'Drill Hole',$,#69,#169);
#171= IFCPROPERTYSINGLEVALUE('FeatureSubTypes',$,IFCLABEL('TORNILLO'),$);
#172= IFCPROPERTYSINGLEVALUE('RectangleOpeningWidth',$,$,$);
#173= IFCPROPERTYSINGLEVALUE('RectangleOpeningHeight',$,$,$);
#174= IFCPROPERTYSET('1LfIp3iW98fA_$ODGRJYW6',#5,'AISC_EM11_Pset_Opening/Cope',$,(#171,#172,#173,#83));
#175= IFCCARTESIANPOINT((16107.5432475394,17332.6571078146,13900.));
#176= IFCDIRECTION((-0.000467666999835273,0.999999890643783,0.));
#177= IFCAXIS2PLACEMENT3D(#175,#176,#98);
#178= IFCLOCALPLACEMENT(#42,#177);
#179= IFCSHAPEREPRESENTATION(#12,'Body','MappedRepresentation',(#139,#142,#145,#148,#151,#154,#157,#160,#163,#166,#109,#112,#115,#118,#121,#124,#127,#130,#133,#136));
#180= IFCPRODUCTDEFINITIONSHAPE($,$,(#179));
#181= IFCOPENINGELEMENT('2uMZ4522HFhxHkGoImmIey',#5,$,$,'Opening',#178,#180,$);
#182= IFCRELVOIDSELEMENT('1v_BSdh3vC189f7LhWj967',#5,'Drill Hole',$,#69,#181);
#183= IFCCARTESIANPOINT((16827.5080986974,17330.3073272583,13900.));
#184= IFCAXIS2PLACEMENT3D(#183,#53,#72);
#185= IFCLOCALPLACEMENT(#42,#184);
#186= IFCCIRCLEPROFILEDEF(.AREA.,$,#50,12.5);
#187= IFCCARTESIANPOINT((0.,-5.67488251955874,0.));
#188= IFCAXIS2PLACEMENT3D(#187,#8,#7);
#189= IFCEXTRUDEDAREASOLID(#186,#188,#9,11.7);
#190= IFCSHAPEREPRESENTATION(#12,'Body','SweptSolid',(#189));
#191= IFCREPRESENTATIONMAP(#10,#190);
#192= IFCCARTESIANPOINT((107.5,0.,45.));
#193= IFCCARTESIANTRANSFORMATIONOPERATOR3D($,$,#192,$,$);
#194= IFCMAPPEDITEM(#191,#193);
#195= IFCCARTESIANPOINT((182.5,0.,45.));
#196= IFCCARTESIANTRANSFORMATIONOPERATOR3D($,$,#195,$,$);
#197= IFCMAPPEDITEM(#191,#196);
#198= IFCCARTESIANPOINT((257.5,0.,45.));
#199= IFCCARTESIANTRANSFORMATIONOPERATOR3D($,$,#198,$,$);
#200= IFCMAPPEDITEM(#191,#199);
#201= IFCCARTESIANPOINT((332.5,0.,45.));
#202= IFCCARTESIANTRANSFORMATIONOPERATOR3D($,$,#201,$,$);
#203= IFCMAPPEDITEM(#191,#202);
#204= IFCSHAPEREPRESENTATION(#12,'Body','MappedRepresentation',(#194,#197,#200,#203));
#205= IFCPRODUCTDEFINITIONSHAPE($,$,(#204));
#206= IFCOPENINGELEMENT('2ZqJ5vZXvEx8emIrYF0iEi',#5,$,$,'Opening',#185,#205,$);
#207= IFCRELVOIDSELEMENT('2RBg64xhTFMfVnhH_cc758',#5,'Drill Hole',$,#69,#206);
#208= IFCCARTESIANPOINT((8717.52495055561,17332.0931382296,13460.));
#209= IFCAXIS2PLACEMENT3D(#208,#97,#98);
#210= IFCLOCALPLACEMENT(#42,#209);
#211= IFCSHAPEREPRESENTATION(#12,'Body','MappedRepresentation',(#109,#112,#115,#118,#121,#124,#127,#130,#133,#136,#139,#142,#145,#148,#151,#154,#157,#160,#163,#166));
#212= IFCPRODUCTDEFINITIONSHAPE($,$,(#211));
#213= IFCOPENINGELEMENT('0q$M38Gn1BU9wZrTV4u6K4',#5,$,$,'Opening',#210,#212,$);
#214= IFCRELVOIDSELEMENT('2fCXTiryD6T9v1tOIbdnC0',#5,'Drill Hole',$,#69,#213);
#215= IFCCARTESIANPOINT((8672.48987553063,17330.2937279266,13900.));
#216= IFCAXIS2PLACEMENT3D(#215,#7,#72);
#217= IFCLOCALPLACEMENT(#42,#216);
#218= IFCCARTESIANPOINT((0.,-6.01151814872501,0.));
#219= IFCAXIS2PLACEMENT3D(#218,#8,#7);
#220= IFCEXTRUDEDAREASOLID(#186,#219,#9,11.7);
#221= IFCSHAPEREPRESENTATION(#12,'Body','SweptSolid',(#220));
#222= IFCREPRESENTATIONMAP(#10,#221);
#223= IFCMAPPEDITEM(#222,#193);
#224= IFCMAPPEDITEM(#222,#196);
#225= IFCMAPPEDITEM(#222,#199);
#226= IFCMAPPEDITEM(#222,#202);
#227= IFCSHAPEREPRESENTATION(#12,'Body','MappedRepresentation',(#223,#224,#225,#226));
#228= IFCPRODUCTDEFINITIONSHAPE($,$,(#227));
#229= IFCOPENINGELEMENT('29TYjcUrrANP5Cq5uSelnb',#5,$,$,'Opening',#217,#228,$);
#230= IFCRELVOIDSELEMENT('0rXPcnXDvAtvla9$F5vR$v',#5,'Drill Hole',$,#69,#229);
#231= IFCCARTESIANPOINT((8717.52495055561,17332.0931382296,13900.));
#232= IFCAXIS2PLACEMENT3D(#231,#176,#98);
#233= IFCLOCALPLACEMENT(#42,#232);
#234= IFCSHAPEREPRESENTATION(#12,'Body','MappedRepresentation',(#139,#142,#145,#148,#151,#154,#157,#160,#163,#166,#109,#112,#115,#118,#121,#124,#127,#130,#133,#136));
#235= IFCPRODUCTDEFINITIONSHAPE($,$,(#234));
#236= IFCOPENINGELEMENT('1oXEQ6_0975fTIcZrwlNjB',#5,$,$,'Opening',#233,#235,$);
#237= IFCRELVOIDSELEMENT('0jI0oERZH1wOwOWHY8FNfC',#5,'Drill Hole',$,#69,#236);
#238= IFCPROPERTYSINGLEVALUE('PieceMark',$,IFCIDENTIFIER('BEAM'),$);
#239= IFCPROPERTYSINGLEVALUE('IndicationMark',$,IFCIDENTIFIER('b/22'),$);
#240= IFCPROPERTYSINGLEVALUE('PrelimMark',$,IFCIDENTIFIER(''),$);
#241= IFCPROPERTYSINGLEVALUE('MainPieceTag',$,IFCBOOLEAN(.T.),$);
#242= IFCPROPERTYSET('2dAWcQ7LX0kAjQBXe2NrZC',#5,'AISC_EM11_Pset_PieceIdentification','PieceIdentity',(#238,#239,#240,#241));
#243= IFCPROPERTYSINGLEVALUE('MaterialType',$,IFCIDENTIFIER('STEEL'),$);
#244= IFCPROPERTYSINGLEVALUE('MaterialGrade',$,IFCIDENTIFIER('S235JR'),$);
#245= IFCPROPERTYSET('1kCq92OdDBAw_WikfaQe_9',#5,'AISC_EM11_Pset_Material',$,(#243,#244));
#246= IFCPROPERTYSINGLEVALUE('SkewedAngleY',$,IFCREAL(0.),$);
#247= IFCPROPERTYSINGLEVALUE('SkewedAngleX',$,IFCREAL(0.),$);
#248= IFCPROPERTYSET('0Y_EcPkyzE_xe8YBargUvN',#5,'AISC_EM11_Pset_SkewedEnd',$,(#246,#247));
#249= IFCPROPERTYSET('03GdpMHynDjPrQzzMSE7YP',#5,'AISC_EM11_Pset_SkewedEnd_2',$,(#246,#247));
#250= IFCMATERIAL('STEEL/S235JR');
#251= IFCRELAGGREGATES('1uaj8$yJbFnhhQwWYKvU42',#5,$,$,#37,(#39));
#252= IFCRELAGGREGATES('2As$QHEbtX3zziCoqcBmMK',#5,$,$,#39,(#41));
#253= IFCRELAGGREGATES('3W_2JYz5988egJ5S3GCWfz',#5,$,$,#41,(#43));
#254= IFCRELCONTAINEDINSPATIALSTRUCTURE('35MorWzpn1l8gBPkIpJ4bw',#5,$,$,(#69),#43);
#255= IFCRELDEFINESBYPROPERTIES('20XRiFjsDEtA0eZ8bjt4Cd',#5,$,$,(#78),#84);
#256= IFCRELDEFINESBYPROPERTIES('0md2lwfkb0P9yHzAokkXUQ',#5,$,$,(#92),#95);
#257= IFCRELDEFINESBYPROPERTIES('0jZ1PnnUf8puc6$XTJqAsw',#5,$,$,(#236,#229,#213,#206,#181,#169),#174);
#258= IFCRELDEFINESBYPROPERTIES('3EftfwCHv5muVpw0ShnOfv',#5,$,$,(#69),#242);
#259= IFCRELDEFINESBYPROPERTIES('3j8v$d5y18Yfv0Y$VATRAf',#5,$,$,(#69),#245);
#260= IFCRELDEFINESBYPROPERTIES('0_1s0iS3XAChhBV8A$_DQn',#5,$,$,(#69),#248);
#261= IFCRELDEFINESBYPROPERTIES('1jSuAH4SH2DRE1YkydfkaE',#5,$,$,(#69),#249);
#262= IFCRELASSOCIATESMATERIAL('2RBUrn48b7nx4WJ6IXUbnL',#5,$,$,(#69),#250);
ENDSEC;

END-ISO-10303-21;
