ISO-10303-21;
HEADER;
FILE_DESCRIPTION(('ViewDefinition[AISC_Steel_Detailing]', 'Option [BaseQuantities:Off]', 'Option [GridExport:On]', 'Option [Assemblies:Off]', 'Option [Bolts:On]', 'Option [Rebars:On]', 'Option [PourObjects:Off]', 'Option [Welds:On]', 'Option [SurfaceTreatments:On]', 'Option [LocationBy:0]', 'Option [ViewColors:Off]', 'Option [SectionedSpine:Off]', 'Option [PropertySets:On]', 'Option [Export all:Off]'),'2;1');
FILE_NAME('b_221_Qty_1.ifc','2026-05-16T11:53:13',('GIOVANNIPC\\gcorrea'),('Structural Designer'),'IFC Database version: Work','Tekla Structures 2020 Service Pack 5, IFC Export Version: 4.0.0.0 Dec  7 2020','');
FILE_SCHEMA(('IFC2X3'));
ENDSEC;

DATA;
#1= IFCPERSON('GIOVANNIPC\\gcorrea','Undefined',$,$,$,$,$,$);
#2= IFCORGANIZATION($,'Trimble Solutions Corporation',$,$,$);
#3= IFCPERSONANDORGANIZATION(#1,#2,$);
#4= IFCAPPLICATION(#2,'2020 Service Pack 5','Tekla Structures','Multi material modeling');
#5= IFCOWNERHISTORY(#3,#4,$,.NOCHANGE.,$,$,$,1778950393);
#6= IFCCARTESIANPOINT((0.,0.,0.));
#7= IFCDIRECTION((1.,0.,0.));
#8= IFCDIRECTION((0.,1.,0.));
#9= IFCDIRECTION((0.,0.,1.));
#10= IFCAXIS2PLACEMENT3D(#6,#9,#7);
#11= IFCGEOMETRICREPRESENTATIONCONTEXT($,'Model',3,1.E-05,#10,$);
#12= IFCGEOMETRICREPRESENTATIONSUBCONTEXT('Body','Model',*,*,*,*,#11,$,.MODEL_VIEW.,$);
#13= IFCGEOMETRICREPRESENTATIONSUBCONTEXT('Axis','Model',*,*,*,*,#11,$,.GRAPH_VIEW.,$);
#14= IFCGEOMETRICREPRESENTATIONSUBCONTEXT('FootPrint','Model',*,*,*,*,#11,$,.MODEL_VIEW.,$);
#15= IFCSIUNIT(*,.LENGTHUNIT.,.MILLI.,.METRE.);
#16= IFCMEASUREWITHUNIT(IFCRATIOMEASURE(304.8),#15);
#17= IFCDIMENSIONALEXPONENTS(1,0,0,0,0,0,0);
#18= IFCCONVERSIONBASEDUNIT(#17,.LENGTHUNIT.,'FOOT',#16);
#19= IFCSIUNIT(*,.AREAUNIT.,$,.SQUARE_METRE.);
#20= IFCMEASUREWITHUNIT(IFCRATIOMEASURE(0.09290304),#19);
#21= IFCDIMENSIONALEXPONENTS(2,0,0,0,0,0,0);
#22= IFCCONVERSIONBASEDUNIT(#21,.AREAUNIT.,'SQUARE FOOT',#20);
#23= IFCSIUNIT(*,.VOLUMEUNIT.,$,.CUBIC_METRE.);
#24= IFCMEASUREWITHUNIT(IFCRATIOMEASURE(0.028316846592),#23);
#25= IFCDIMENSIONALEXPONENTS(3,0,0,0,0,0,0);
#26= IFCCONVERSIONBASEDUNIT(#25,.VOLUMEUNIT.,'CUBIC FOOT',#24);
#27= IFCSIUNIT(*,.MASSUNIT.,.KILO.,.GRAM.);
#28= IFCSIUNIT(*,.TIMEUNIT.,$,.SECOND.);
#29= IFCSIUNIT(*,.PLANEANGLEUNIT.,$,.RADIAN.);
#30= IFCMEASUREWITHUNIT(IFCRATIOMEASURE(0.0174532925199433),#29);
#31= IFCDIMENSIONALEXPONENTS(0,0,0,0,0,0,0);
#32= IFCCONVERSIONBASEDUNIT(#31,.PLANEANGLEUNIT.,'DEGREE',#30);
#33= IFCSIUNIT(*,.SOLIDANGLEUNIT.,$,.STERADIAN.);
#34= IFCSIUNIT(*,.THERMODYNAMICTEMPERATUREUNIT.,$,.DEGREE_CELSIUS.);
#35= IFCSIUNIT(*,.LUMINOUSINTENSITYUNIT.,$,.LUMEN.);
#36= IFCUNITASSIGNMENT((#15,#19,#23,#27,#28,#29,#33,#34,#35));
#37= IFCPROJECT('2G7ZFDNE16yBDU14FA92Me',#5,'Proyecto',$,$,$,$,(#11),#36);
#38= IFCLOCALPLACEMENT($,#10);
#39= IFCSITE('2xvEzEinjBTea80yOTcujY',#5,'Obra',$,$,#38,$,$,.ELEMENT.,$,$,$,$,$);
#40= IFCLOCALPLACEMENT(#38,#10);
#41= IFCBUILDING('0oyOn$KnP9_PKmwZRMuKK2',#5,'Undefined',$,$,#40,$,$,.ELEMENT.,$,$,$);
#42= IFCLOCALPLACEMENT(#40,#10);
#43= IFCBUILDINGSTOREY('29hdEUCErFze9E_VIAceOd',#5,'Undefined',$,$,#42,$,$,.ELEMENT.,0.);
#44= IFCOWNERHISTORY(#3,#4,$,.NOCHANGE.,$,$,$,1773932400);
#45= IFCCARTESIANPOINT((94453.5570068359,17217.5072212627,23375.));
#46= IFCDIRECTION((0.,-1.,0.));
#47= IFCAXIS2PLACEMENT3D(#45,#9,#46);
#48= IFCLOCALPLACEMENT(#42,#47);
#49= IFCDIRECTION((1.,0.));
#50= IFCCARTESIANPOINT((0.,0.));
#51= IFCAXIS2PLACEMENT2D(#50,#49);
#52= IFCISHAPEPROFILEDEF(.AREA.,'IPE450',#51,190.,450.,9.399999619,14.60000038,21.);
#53= IFCDIRECTION((-1.,0.,0.));
#54= IFCCARTESIANPOINT((8934.60083007812,0.,0.));
#55= IFCAXIS2PLACEMENT3D(#54,#53,#46);
#56= IFCEXTRUDEDAREASOLID(#52,#55,#9,8934.6);
#57= IFCSHAPEREPRESENTATION(#12,'Body','SweptSolid',(#56));
#58= IFCPRODUCTDEFINITIONSHAPE($,$,(#57));
#59= IFCBEAM('1k8J4ZkLDAc8QTaouNnMdM',#44,'BEAM','IPE450','IPE450',#48,#58,'ID6e213123-b953-4a98-869d-932e17c569d6');
#60= IFCCARTESIANPOINT((94452.8126537709,8320.2113709499,23600.));
#61= IFCDIRECTION((-0.999999999339957,-3.63330000254792E-05,0.));
#62= IFCDIRECTION((-3.63330000247233E-05,0.999999999339957,0.));
#63= IFCAXIS2PLACEMENT3D(#60,#61,#62);
#64= IFCLOCALPLACEMENT(#42,#63);
#65= IFCCIRCLEPROFILEDEF(.AREA.,$,#51,11.);
#66= IFCCARTESIANPOINT((0.,-0.0999999999999929,0.));
#67= IFCAXIS2PLACEMENT3D(#66,#8,#7);
#68= IFCEXTRUDEDAREASOLID(#65,#67,#9,14.8);
#69= IFCSHAPEREPRESENTATION(#12,'Body','SweptSolid',(#68));
#70= IFCREPRESENTATIONMAP(#10,#69);
#71= IFCCARTESIANPOINT((1.81898940354586E-12,0.,-50.0000000005239));
#72= IFCCARTESIANTRANSFORMATIONOPERATOR3D($,$,#71,$,$);
#73= IFCMAPPEDITEM(#70,#72);
#74= IFCCARTESIANPOINT((69.9999999999654,0.,-50.0000000002765));
#75= IFCCARTESIANTRANSFORMATIONOPERATOR3D($,$,#74,$,$);
#76= IFCMAPPEDITEM(#70,#75);
#77= IFCCARTESIANPOINT((139.999999999931,0.,-50.0000000000146));
#78= IFCCARTESIANTRANSFORMATIONOPERATOR3D($,$,#77,$,$);
#79= IFCMAPPEDITEM(#70,#78);
#80= IFCCARTESIANPOINT((209.999999999896,0.,-49.9999999997672));
#81= IFCCARTESIANTRANSFORMATIONOPERATOR3D($,$,#80,$,$);
#82= IFCMAPPEDITEM(#70,#81);
#83= IFCCARTESIANPOINT((279.999999999862,0.,-49.9999999995052));
#84= IFCCARTESIANTRANSFORMATIONOPERATOR3D($,$,#83,$,$);
#85= IFCMAPPEDITEM(#70,#84);
#86= IFCCARTESIANPOINT((349.999999999827,0.,-49.9999999992433));
#87= IFCCARTESIANTRANSFORMATIONOPERATOR3D($,$,#86,$,$);
#88= IFCMAPPEDITEM(#70,#87);
#89= IFCCARTESIANPOINT((419.999999999791,0.,-49.9999999989959));
#90= IFCCARTESIANTRANSFORMATIONOPERATOR3D($,$,#89,$,$);
#91= IFCMAPPEDITEM(#70,#90);
#92= IFCCARTESIANPOINT((0.,0.,50.0000000005239));
#93= IFCCARTESIANTRANSFORMATIONOPERATOR3D($,$,#92,$,$);
#94= IFCMAPPEDITEM(#70,#93);
#95= IFCCARTESIANPOINT((69.9999999999654,0.,50.0000000007713));
#96= IFCCARTESIANTRANSFORMATIONOPERATOR3D($,$,#95,$,$);
#97= IFCMAPPEDITEM(#70,#96);
#98= IFCCARTESIANPOINT((139.999999999931,0.,50.0000000010186));
#99= IFCCARTESIANTRANSFORMATIONOPERATOR3D($,$,#98,$,$);
#100= IFCMAPPEDITEM(#70,#99);
#101= IFCCARTESIANPOINT((209.999999999896,0.,50.0000000012806));
#102= IFCCARTESIANTRANSFORMATIONOPERATOR3D($,$,#101,$,$);
#103= IFCMAPPEDITEM(#70,#102);
#104= IFCCARTESIANPOINT((279.999999999862,0.,50.000000001528));
#105= IFCCARTESIANTRANSFORMATIONOPERATOR3D($,$,#104,$,$);
#106= IFCMAPPEDITEM(#70,#105);
#107= IFCCARTESIANPOINT((349.999999999825,0.,50.0000000017899));
#108= IFCCARTESIANTRANSFORMATIONOPERATOR3D($,$,#107,$,$);
#109= IFCMAPPEDITEM(#70,#108);
#110= IFCCARTESIANPOINT((419.999999999791,0.,50.0000000020518));
#111= IFCCARTESIANTRANSFORMATIONOPERATOR3D($,$,#110,$,$);
#112= IFCMAPPEDITEM(#70,#111);
#113= IFCSHAPEREPRESENTATION(#12,'Body','MappedRepresentation',(#73,#76,#79,#82,#85,#88,#91,#94,#97,#100,#103,#106,#109,#112));
#114= IFCPRODUCTDEFINITIONSHAPE($,$,(#113));
#115= IFCOPENINGELEMENT('1gJbC8W$v9t9kvSx64ZrrL',#5,$,$,'Opening',#64,#114,$);
#116= IFCRELVOIDSELEMENT('2nw3IRKa96IQqLOayzrH7s',#5,'Drill Hole',$,#59,#115);
#117= IFCPROPERTYSINGLEVALUE('FeatureSubTypes',$,IFCLABEL('TORNILLO'),$);
#118= IFCPROPERTYSINGLEVALUE('RectangleOpeningWidth',$,$,$);
#119= IFCPROPERTYSINGLEVALUE('RectangleOpeningHeight',$,$,$);
#120= IFCPROPERTYSINGLEVALUE('OpeningDiameter',$,$,$);
#121= IFCPROPERTYSET('2oLv0JJ1zD9w3G24BQrhty',#5,'AISC_EM11_Pset_Opening/Cope',$,(#117,#118,#119,#120));
#122= IFCCARTESIANPOINT((94453.539364708,17180.1856471598,23600.));
#123= IFCAXIS2PLACEMENT3D(#122,#7,#46);
#124= IFCLOCALPLACEMENT(#42,#123);
#125= IFCSHAPEREPRESENTATION(#12,'Body','MappedRepresentation',(#73,#76,#79,#82,#85,#88,#91,#94,#97,#100,#103,#106,#109,#112));
#126= IFCPRODUCTDEFINITIONSHAPE($,$,(#125));
#127= IFCOPENINGELEMENT('3oBe_rmzz6QgUWbPnK6waf',#5,$,$,'Opening',#124,#126,$);
#128= IFCRELVOIDSELEMENT('0$7b3C4B9BURkDbMuWPb21',#5,'Drill Hole',$,#59,#127);
#129= IFCPROPERTYSINGLEVALUE('PieceMark',$,IFCIDENTIFIER('BEAM'),$);
#130= IFCPROPERTYSINGLEVALUE('IndicationMark',$,IFCIDENTIFIER('b/221'),$);
#131= IFCPROPERTYSINGLEVALUE('PrelimMark',$,IFCIDENTIFIER(''),$);
#132= IFCPROPERTYSINGLEVALUE('MainPieceTag',$,IFCBOOLEAN(.T.),$);
#133= IFCPROPERTYSET('2OLx0VT3bDtB58fI5FSIcn',#5,'AISC_EM11_Pset_PieceIdentification','PieceIdentity',(#129,#130,#131,#132));
#134= IFCPROPERTYSINGLEVALUE('MaterialType',$,IFCIDENTIFIER('STEEL'),$);
#135= IFCPROPERTYSINGLEVALUE('MaterialGrade',$,IFCIDENTIFIER('S235JR'),$);
#136= IFCPROPERTYSET('1j7uuBCUT7XerW2$iSZe86',#5,'AISC_EM11_Pset_Material',$,(#134,#135));
#137= IFCPROPERTYSINGLEVALUE('SkewedAngleY',$,IFCREAL(0.),$);
#138= IFCPROPERTYSINGLEVALUE('SkewedAngleX',$,IFCREAL(0.),$);
#139= IFCPROPERTYSET('0Se4AaZ_j26Of0oCk56rhn',#5,'AISC_EM11_Pset_SkewedEnd',$,(#137,#138));
#140= IFCPROPERTYSET('260Hoc00D0E8yNo6JqNeft',#5,'AISC_EM11_Pset_SkewedEnd_2',$,(#137,#138));
#141= IFCMATERIAL('STEEL/S235JR');
#142= IFCRELAGGREGATES('3IlznReXP8RhG4JXeCCyOG',#5,$,$,#37,(#39));
#143= IFCRELAGGREGATES('2a1F3jwphQjzYMbpwUUEgY',#5,$,$,#39,(#41));
#144= IFCRELAGGREGATES('1JpX0S9jXEQgWhC7aYVfme',#5,$,$,#41,(#43));
#145= IFCRELCONTAINEDINSPATIALSTRUCTURE('1Q79fnjpn5rwBzFgaEnHbZ',#5,$,$,(#59),#43);
#146= IFCRELDEFINESBYPROPERTIES('0CNZfrKdvE6hH1pqy9od2D',#5,$,$,(#127,#115),#121);
#147= IFCRELDEFINESBYPROPERTIES('0M0Um0AJf8h8MSH1bod4sO',#5,$,$,(#59),#133);
#148= IFCRELDEFINESBYPROPERTIES('2Xpl5ZHujClxm6IjrX9U9x',#5,$,$,(#59),#136);
#149= IFCRELDEFINESBYPROPERTIES('1780dym1rDLupTgERp$TrC',#5,$,$,(#59),#139);
#150= IFCRELDEFINESBYPROPERTIES('1n3AgCNlX7jf_RIHnsvLxX',#5,$,$,(#59),#140);
#151= IFCRELASSOCIATESMATERIAL('3g3dgbzVrBFADF3odEpux3',#5,$,$,(#59),#141);
ENDSEC;

END-ISO-10303-21;
