ISO-10303-21;
HEADER;
FILE_DESCRIPTION(('ViewDefinition[AISC_Steel_Detailing]', 'Option [BaseQuantities:Off]', 'Option [GridExport:On]', 'Option [Assemblies:Off]', 'Option [Bolts:On]', 'Option [Rebars:On]', 'Option [PourObjects:Off]', 'Option [Welds:On]', 'Option [SurfaceTreatments:On]', 'Option [LocationBy:0]', 'Option [ViewColors:Off]', 'Option [SectionedSpine:Off]', 'Option [PropertySets:On]', 'Option [Export all:Off]'),'2;1');
FILE_NAME('b_233_Qty_1.ifc','2026-05-16T11:53:10',('GIOVANNIPC\\gcorrea'),('Structural Designer'),'IFC Database version: Work','Tekla Structures 2020 Service Pack 5, IFC Export Version: 4.0.0.0 Dec  7 2020','');
FILE_SCHEMA(('IFC2X3'));
ENDSEC;

DATA;
#1= IFCPERSON('GIOVANNIPC\\gcorrea','Undefined',$,$,$,$,$,$);
#2= IFCORGANIZATION($,'Trimble Solutions Corporation',$,$,$);
#3= IFCPERSONANDORGANIZATION(#1,#2,$);
#4= IFCAPPLICATION(#2,'2020 Service Pack 5','Tekla Structures','Multi material modeling');
#5= IFCOWNERHISTORY(#3,#4,$,.NOCHANGE.,$,$,$,1778950390);
#6= IFCCARTESIANPOINT((0.,0.,0.));
#7= IFCDIRECTION((1.,0.,0.));
#8= IFCDIRECTION((0.,1.,0.));
#9= IFCDIRECTION((0.,0.,1.));
#10= IFCAXIS2PLACEMENT3D(#6,#9,#7);
#11= IFCGEOMETRICREPRESENTATIONCONTEXT($,'Model',3,1.E-05,#10,$);
#12= IFCGEOMETRICREPRESENTATIONSUBCONTEXT('Body','Model',*,*,*,*,#11,$,.MODEL_VIEW.,$);
#13= IFCGEOMETRICREPRESENTATIONSUBCONTEXT('Axis','Model',*,*,*,*,#11,$,.GRAPH_VIEW.,$);
#14= IFCGEOMETRICREPRESENTATIONSUBCONTEXT('FootPrint','Model',*,*,*,*,#11,$,.MODEL_VIEW.,$);
#15= IFCSIUNIT(*,.LENGTHUNIT.,.MILLI.,.METRE.);
#16= IFCMEASUREWITHUNIT(IFCRATIOMEASURE(304.8),#15);
#17= IFCDIMENSIONALEXPONENTS(1,0,0,0,0,0,0);
#18= IFCCONVERSIONBASEDUNIT(#17,.LENGTHUNIT.,'FOOT',#16);
#19= IFCSIUNIT(*,.AREAUNIT.,$,.SQUARE_METRE.);
#20= IFCMEASUREWITHUNIT(IFCRATIOMEASURE(0.09290304),#19);
#21= IFCDIMENSIONALEXPONENTS(2,0,0,0,0,0,0);
#22= IFCCONVERSIONBASEDUNIT(#21,.AREAUNIT.,'SQUARE FOOT',#20);
#23= IFCSIUNIT(*,.VOLUMEUNIT.,$,.CUBIC_METRE.);
#24= IFCMEASUREWITHUNIT(IFCRATIOMEASURE(0.028316846592),#23);
#25= IFCDIMENSIONALEXPONENTS(3,0,0,0,0,0,0);
#26= IFCCONVERSIONBASEDUNIT(#25,.VOLUMEUNIT.,'CUBIC FOOT',#24);
#27= IFCSIUNIT(*,.MASSUNIT.,.KILO.,.GRAM.);
#28= IFCSIUNIT(*,.TIMEUNIT.,$,.SECOND.);
#29= IFCSIUNIT(*,.PLANEANGLEUNIT.,$,.RADIAN.);
#30= IFCMEASUREWITHUNIT(IFCRATIOMEASURE(0.0174532925199433),#29);
#31= IFCDIMENSIONALEXPONENTS(0,0,0,0,0,0,0);
#32= IFCCONVERSIONBASEDUNIT(#31,.PLANEANGLEUNIT.,'DEGREE',#30);
#33= IFCSIUNIT(*,.SOLIDANGLEUNIT.,$,.STERADIAN.);
#34= IFCSIUNIT(*,.THERMODYNAMICTEMPERATUREUNIT.,$,.DEGREE_CELSIUS.);
#35= IFCSIUNIT(*,.LUMINOUSINTENSITYUNIT.,$,.LUMEN.);
#36= IFCUNITASSIGNMENT((#15,#19,#23,#27,#28,#29,#33,#34,#35));
#37= IFCPROJECT('2G7ZFDNE16yBDU14FA92Me',#5,'Proyecto',$,$,$,$,(#11),#36);
#38= IFCLOCALPLACEMENT($,#10);
#39= IFCSITE('2xvEzEinjBTea80yOTcujY',#5,'Obra',$,$,#38,$,$,.ELEMENT.,$,$,$,$,$);
#40= IFCLOCALPLACEMENT(#38,#10);
#41= IFCBUILDING('0o27Q0XGr0GhJD88_ifcyN',#5,'Undefined',$,$,#40,$,$,.ELEMENT.,$,$,$);
#42= IFCLOCALPLACEMENT(#40,#10);
#43= IFCBUILDINGSTOREY('29hdEUCErFze9E_VIAceOd',#5,'Undefined',$,$,#42,$,$,.ELEMENT.,0.);
#44= IFCOWNERHISTORY(#3,#4,$,.NOCHANGE.,$,$,$,1774029600);
#45= IFCCARTESIANPOINT((25705.9171418076,23896.8840303914,19130.));
#46= IFCAXIS2PLACEMENT3D(#45,#9,#7);
#47= IFCLOCALPLACEMENT(#42,#46);
#48= IFCDIRECTION((1.,0.));
#49= IFCCARTESIANPOINT((0.,0.));
#50= IFCAXIS2PLACEMENT2D(#49,#48);
#51= IFCISHAPEPROFILEDEF(.AREA.,'HEA450',#50,300.,440.,11.5,21.,27.);
#52= IFCDIRECTION((0.,-1.,0.));
#53= IFCDIRECTION((-1.,0.,0.));
#54= IFCCARTESIANPOINT((8156.58264160157,0.,0.));
#55= IFCAXIS2PLACEMENT3D(#54,#53,#52);
#56= IFCEXTRUDEDAREASOLID(#51,#55,#9,8333.69);
#57= IFCCARTESIANPOINT((8156.58264160157,0.,-320.));
#58= IFCAXIS2PLACEMENT3D(#57,#53,#8);
#59= IFCPLANE(#58);
#60= IFCHALFSPACESOLID(#59,.T.);
#61= IFCBOOLEANCLIPPINGRESULT(.DIFFERENCE.,#56,#60);
#62= IFCCARTESIANPOINT((-177.111669319602,4.00177668780088E-11,-320.));
#63= IFCAXIS2PLACEMENT3D(#62,#7,#52);
#64= IFCPLANE(#63);
#65= IFCHALFSPACESOLID(#64,.T.);
#66= IFCBOOLEANCLIPPINGRESULT(.DIFFERENCE.,#61,#65);
#67= IFCSHAPEREPRESENTATION(#12,'Body','Clipping',(#66));
#68= IFCPRODUCTDEFINITIONSHAPE($,$,(#67));
#69= IFCBEAM('0wbFKs8jX9ZgjcA5XqLt1H',#44,'BEAM','HEA450','HEA450',#47,#68,'ID3a94f536-22d8-498e-ab66-285874577051');
#70= IFCLOCALPLACEMENT(#42,#46);
#71= IFCRECTANGLEPROFILEDEF(.AREA.,'PL49*144',#50,49.,144.);
#72= IFCDIRECTION((0.,0.,-1.));
#73= IFCCARTESIANPOINT((-105.111669319602,-151.000000029722,-196.5));
#74= IFCAXIS2PLACEMENT3D(#73,#8,#72);
#75= IFCEXTRUDEDAREASOLID(#71,#74,#9,302.);
#76= IFCSHAPEREPRESENTATION(#12,'Body','SweptSolid',(#75));
#77= IFCPRODUCTDEFINITIONSHAPE($,$,(#76));
#78= IFCOPENINGELEMENT('1obFBCsDz22OBuXq7j8P_c',#5,$,$,'Recess',#70,#77,$);
#79= IFCRELVOIDSELEMENT('06AJmOq6zEeue15TDmhc5j',#5,$,$,#69,#78);
#80= IFCPROPERTYSINGLEVALUE('FeatureSubTypes',$,$,$);
#81= IFCPROPERTYSINGLEVALUE('RectangleOpeningWidth',$,IFCPOSITIVELENGTHMEASURE(49.),$);
#82= IFCPROPERTYSINGLEVALUE('RectangleOpeningHeight',$,IFCPOSITIVELENGTHMEASURE(144.),$);
#83= IFCPROPERTYSINGLEVALUE('OpeningDiameter',$,$,$);
#84= IFCPROPERTYSET('3LYpZZCl59mgOfkI1itbWE',#5,'AISC_EM11_Pset_Opening/Cope',$,(#80,#81,#82,#83));
#85= IFCLOCALPLACEMENT(#42,#46);
#86= IFCCARTESIANPOINT((-105.111669319602,-151.000000029722,196.5));
#87= IFCAXIS2PLACEMENT3D(#86,#8,#72);
#88= IFCEXTRUDEDAREASOLID(#71,#87,#9,302.);
#89= IFCSHAPEREPRESENTATION(#12,'Body','SweptSolid',(#88));
#90= IFCPRODUCTDEFINITIONSHAPE($,$,(#89));
#91= IFCOPENINGELEMENT('3IY0dkSXr0iPjSU4np0Yuy',#5,$,$,'Recess',#85,#90,$);
#92= IFCRELVOIDSELEMENT('3INy8KVjj67vf126_m00Rx',#5,$,$,#69,#91);
#93= IFCCARTESIANPOINT((33820.0002165909,23896.8840303914,18910.));
#94= IFCDIRECTION((0.00218027700042148,0.999997623193276,0.));
#95= IFCDIRECTION((-0.999997623193276,0.00218027700041918,0.));
#96= IFCAXIS2PLACEMENT3D(#93,#94,#95);
#97= IFCLOCALPLACEMENT(#42,#96);
#98= IFCCIRCLEPROFILEDEF(.AREA.,$,#50,11.);
#99= IFCCARTESIANPOINT((0.,-0.1,0.));
#100= IFCAXIS2PLACEMENT3D(#99,#8,#7);
#101= IFCEXTRUDEDAREASOLID(#98,#100,#9,21.2);
#102= IFCSHAPEREPRESENTATION(#12,'Body','SweptSolid',(#101));
#103= IFCREPRESENTATIONMAP(#10,#102);
#104= IFCCARTESIANPOINT((0.,0.,-74.9999999998145));
#105= IFCCARTESIANTRANSFORMATIONOPERATOR3D($,$,#104,$,$);
#106= IFCMAPPEDITEM(#103,#105);
#107= IFCCARTESIANPOINT((74.9999999998108,0.,-74.9999999998145));
#108= IFCCARTESIANTRANSFORMATIONOPERATOR3D($,$,#107,$,$);
#109= IFCMAPPEDITEM(#103,#108);
#110= IFCCARTESIANPOINT((149.999999999629,0.,-74.9999999998145));
#111= IFCCARTESIANTRANSFORMATIONOPERATOR3D($,$,#110,$,$);
#112= IFCMAPPEDITEM(#103,#111);
#113= IFCCARTESIANPOINT((224.99999999944,0.,-74.9999999998145));
#114= IFCCARTESIANTRANSFORMATIONOPERATOR3D($,$,#113,$,$);
#115= IFCMAPPEDITEM(#103,#114);
#116= IFCCARTESIANPOINT((299.999999999251,0.,-74.9999999998145));
#117= IFCCARTESIANTRANSFORMATIONOPERATOR3D($,$,#116,$,$);
#118= IFCMAPPEDITEM(#103,#117);
#119= IFCCARTESIANPOINT((374.999999999061,0.,-74.9999999998145));
#120= IFCCARTESIANTRANSFORMATIONOPERATOR3D($,$,#119,$,$);
#121= IFCMAPPEDITEM(#103,#120);
#122= IFCCARTESIANPOINT((449.999999998872,0.,-74.9999999998145));
#123= IFCCARTESIANTRANSFORMATIONOPERATOR3D($,$,#122,$,$);
#124= IFCMAPPEDITEM(#103,#123);
#125= IFCCARTESIANPOINT((524.99999999869,0.,-74.9999999998108));
#126= IFCCARTESIANTRANSFORMATIONOPERATOR3D($,$,#125,$,$);
#127= IFCMAPPEDITEM(#103,#126);
#128= IFCCARTESIANPOINT((599.999999998501,0.,-74.9999999998145));
#129= IFCCARTESIANTRANSFORMATIONOPERATOR3D($,$,#128,$,$);
#130= IFCMAPPEDITEM(#103,#129);
#131= IFCCARTESIANPOINT((674.999999998312,0.,-74.9999999998145));
#132= IFCCARTESIANTRANSFORMATIONOPERATOR3D($,$,#131,$,$);
#133= IFCMAPPEDITEM(#103,#132);
#134= IFCCARTESIANPOINT((0.,0.,74.9999999998108));
#135= IFCCARTESIANTRANSFORMATIONOPERATOR3D($,$,#134,$,$);
#136= IFCMAPPEDITEM(#103,#135);
#137= IFCCARTESIANPOINT((74.9999999998181,0.,74.9999999998108));
#138= IFCCARTESIANTRANSFORMATIONOPERATOR3D($,$,#137,$,$);
#139= IFCMAPPEDITEM(#103,#138);
#140= IFCCARTESIANPOINT((149.999999999629,0.,74.9999999998108));
#141= IFCCARTESIANTRANSFORMATIONOPERATOR3D($,$,#140,$,$);
#142= IFCMAPPEDITEM(#103,#141);
#143= IFCCARTESIANPOINT((224.99999999944,0.,74.9999999998108));
#144= IFCCARTESIANTRANSFORMATIONOPERATOR3D($,$,#143,$,$);
#145= IFCMAPPEDITEM(#103,#144);
#146= IFCCARTESIANPOINT((299.999999999251,0.,74.9999999998108));
#147= IFCCARTESIANTRANSFORMATIONOPERATOR3D($,$,#146,$,$);
#148= IFCMAPPEDITEM(#103,#147);
#149= IFCCARTESIANPOINT((374.999999999069,0.,74.9999999998108));
#150= IFCCARTESIANTRANSFORMATIONOPERATOR3D($,$,#149,$,$);
#151= IFCMAPPEDITEM(#103,#150);
#152= IFCCARTESIANPOINT((449.99999999888,0.,74.9999999998108));
#153= IFCCARTESIANTRANSFORMATIONOPERATOR3D($,$,#152,$,$);
#154= IFCMAPPEDITEM(#103,#153);
#155= IFCCARTESIANPOINT((524.99999999869,0.,74.9999999998145));
#156= IFCCARTESIANTRANSFORMATIONOPERATOR3D($,$,#155,$,$);
#157= IFCMAPPEDITEM(#103,#156);
#158= IFCCARTESIANPOINT((599.999999998501,0.,74.9999999998108));
#159= IFCCARTESIANTRANSFORMATIONOPERATOR3D($,$,#158,$,$);
#160= IFCMAPPEDITEM(#103,#159);
#161= IFCCARTESIANPOINT((674.999999998319,0.,74.9999999998108));
#162= IFCCARTESIANTRANSFORMATIONOPERATOR3D($,$,#161,$,$);
#163= IFCMAPPEDITEM(#103,#162);
#164= IFCSHAPEREPRESENTATION(#12,'Body','MappedRepresentation',(#106,#109,#112,#115,#118,#121,#124,#127,#130,#133,#136,#139,#142,#145,#148,#151,#154,#157,#160,#163));
#165= IFCPRODUCTDEFINITIONSHAPE($,$,(#164));
#166= IFCOPENINGELEMENT('1s4Wxcw2XEWQg6EYXwh$$P',#5,$,$,'Opening',#97,#165,$);
#167= IFCRELVOIDSELEMENT('3mTu6jlQf3R9n3kLHERJ_R',#5,'Drill Hole',$,#69,#166);
#168= IFCPROPERTYSINGLEVALUE('FeatureSubTypes',$,IFCLABEL('TORNILLO'),$);
#169= IFCPROPERTYSINGLEVALUE('RectangleOpeningWidth',$,$,$);
#170= IFCPROPERTYSINGLEVALUE('RectangleOpeningHeight',$,$,$);
#171= IFCPROPERTYSET('3qJdJowGXBKRArHAZ$kMxG',#5,'AISC_EM11_Pset_Opening/Cope',$,(#168,#169,#170,#83));
#172= IFCCARTESIANPOINT((33862.4997834091,23896.8840303914,19350.));
#173= IFCAXIS2PLACEMENT3D(#172,#53,#72);
#174= IFCLOCALPLACEMENT(#42,#173);
#175= IFCCIRCLEPROFILEDEF(.AREA.,$,#50,11.5);
#176= IFCCARTESIANPOINT((0.,-5.84999999999989,0.));
#177= IFCAXIS2PLACEMENT3D(#176,#8,#7);
#178= IFCEXTRUDEDAREASOLID(#175,#177,#9,11.7);
#179= IFCSHAPEREPRESENTATION(#12,'Body','SweptSolid',(#178));
#180= IFCREPRESENTATIONMAP(#10,#179);
#181= IFCCARTESIANPOINT((80.,0.,45.));
#182= IFCCARTESIANTRANSFORMATIONOPERATOR3D($,$,#181,$,$);
#183= IFCMAPPEDITEM(#180,#182);
#184= IFCCARTESIANPOINT((150.,0.,45.));
#185= IFCCARTESIANTRANSFORMATIONOPERATOR3D($,$,#184,$,$);
#186= IFCMAPPEDITEM(#180,#185);
#187= IFCCARTESIANPOINT((220.,0.,45.));
#188= IFCCARTESIANTRANSFORMATIONOPERATOR3D($,$,#187,$,$);
#189= IFCMAPPEDITEM(#180,#188);
#190= IFCCARTESIANPOINT((290.,0.,45.));
#191= IFCCARTESIANTRANSFORMATIONOPERATOR3D($,$,#190,$,$);
#192= IFCMAPPEDITEM(#180,#191);
#193= IFCCARTESIANPOINT((360.,0.,45.));
#194= IFCCARTESIANTRANSFORMATIONOPERATOR3D($,$,#193,$,$);
#195= IFCMAPPEDITEM(#180,#194);
#196= IFCSHAPEREPRESENTATION(#12,'Body','MappedRepresentation',(#183,#186,#189,#192,#195));
#197= IFCPRODUCTDEFINITIONSHAPE($,$,(#196));
#198= IFCOPENINGELEMENT('0rb3mlVHLFtuuiFVyiuRZ3',#5,$,$,'Opening',#174,#197,$);
#199= IFCRELVOIDSELEMENT('3oTuX7HIH3YBEVZQ$qO98t',#5,'Drill Hole',$,#69,#198);
#200= IFCCARTESIANPOINT((33820.0002165909,23896.8840303914,19350.));
#201= IFCDIRECTION((-0.00218027700042148,-0.999997623193276,0.));
#202= IFCAXIS2PLACEMENT3D(#200,#201,#95);
#203= IFCLOCALPLACEMENT(#42,#202);
#204= IFCSHAPEREPRESENTATION(#12,'Body','MappedRepresentation',(#136,#139,#142,#145,#148,#151,#154,#157,#160,#163,#106,#109,#112,#115,#118,#121,#124,#127,#130,#133));
#205= IFCPRODUCTDEFINITIONSHAPE($,$,(#204));
#206= IFCOPENINGELEMENT('0J4m11cR52nQxbyvM0Dd7t',#5,$,$,'Opening',#203,#205,$);
#207= IFCRELVOIDSELEMENT('2Tlhz9KQHBhhBqGAjftESY',#5,'Drill Hole',$,#69,#206);
#208= IFCCARTESIANPOINT((25718.7656597667,23894.9271788445,18910.));
#209= IFCDIRECTION((0.00127341800025897,-0.99999918920297,0.));
#210= IFCDIRECTION((0.99999918920297,0.00127341800025865,0.));
#211= IFCAXIS2PLACEMENT3D(#208,#209,#210);
#212= IFCLOCALPLACEMENT(#42,#211);
#213= IFCEXTRUDEDAREASOLID(#175,#100,#9,21.2);
#214= IFCSHAPEREPRESENTATION(#12,'Body','SweptSolid',(#213));
#215= IFCREPRESENTATIONMAP(#10,#214);
#216= IFCCARTESIANPOINT((0.,0.,50.0000000000728));
#217= IFCCARTESIANTRANSFORMATIONOPERATOR3D($,$,#216,$,$);
#218= IFCMAPPEDITEM(#215,#217);
#219= IFCCARTESIANPOINT((70.0000000001019,0.,50.0000000000728));
#220= IFCCARTESIANTRANSFORMATIONOPERATOR3D($,$,#219,$,$);
#221= IFCMAPPEDITEM(#215,#220);
#222= IFCCARTESIANPOINT((140.000000000196,0.,50.0000000000728));
#223= IFCCARTESIANTRANSFORMATIONOPERATOR3D($,$,#222,$,$);
#224= IFCMAPPEDITEM(#215,#223);
#225= IFCCARTESIANPOINT((210.000000000295,0.,50.0000000000728));
#226= IFCCARTESIANTRANSFORMATIONOPERATOR3D($,$,#225,$,$);
#227= IFCMAPPEDITEM(#215,#226);
#228= IFCCARTESIANPOINT((280.000000000393,0.,50.0000000000728));
#229= IFCCARTESIANTRANSFORMATIONOPERATOR3D($,$,#228,$,$);
#230= IFCMAPPEDITEM(#215,#229);
#231= IFCCARTESIANPOINT((350.000000000487,0.,50.0000000000728));
#232= IFCCARTESIANTRANSFORMATIONOPERATOR3D($,$,#231,$,$);
#233= IFCMAPPEDITEM(#215,#232);
#234= IFCCARTESIANPOINT((420.000000000586,0.,50.0000000000728));
#235= IFCCARTESIANTRANSFORMATIONOPERATOR3D($,$,#234,$,$);
#236= IFCMAPPEDITEM(#215,#235);
#237= IFCCARTESIANPOINT((3.63797880709171E-12,0.,-50.0000000000691));
#238= IFCCARTESIANTRANSFORMATIONOPERATOR3D($,$,#237,$,$);
#239= IFCMAPPEDITEM(#215,#238);
#240= IFCCARTESIANPOINT((70.0000000000982,0.,-50.0000000000655));
#241= IFCCARTESIANTRANSFORMATIONOPERATOR3D($,$,#240,$,$);
#242= IFCMAPPEDITEM(#215,#241);
#243= IFCCARTESIANPOINT((140.000000000196,0.,-50.0000000000691));
#244= IFCCARTESIANTRANSFORMATIONOPERATOR3D($,$,#243,$,$);
#245= IFCMAPPEDITEM(#215,#244);
#246= IFCCARTESIANPOINT((210.000000000295,0.,-50.0000000000655));
#247= IFCCARTESIANTRANSFORMATIONOPERATOR3D($,$,#246,$,$);
#248= IFCMAPPEDITEM(#215,#247);
#249= IFCCARTESIANPOINT((280.000000000389,0.,-50.0000000000655));
#250= IFCCARTESIANTRANSFORMATIONOPERATOR3D($,$,#249,$,$);
#251= IFCMAPPEDITEM(#215,#250);
#252= IFCCARTESIANPOINT((350.000000000487,0.,-50.0000000000655));
#253= IFCCARTESIANTRANSFORMATIONOPERATOR3D($,$,#252,$,$);
#254= IFCMAPPEDITEM(#215,#253);
#255= IFCCARTESIANPOINT((420.000000000586,0.,-50.0000000000655));
#256= IFCCARTESIANTRANSFORMATIONOPERATOR3D($,$,#255,$,$);
#257= IFCMAPPEDITEM(#215,#256);
#258= IFCSHAPEREPRESENTATION(#12,'Body','MappedRepresentation',(#218,#221,#224,#227,#230,#233,#236,#239,#242,#245,#248,#251,#254,#257));
#259= IFCPRODUCTDEFINITIONSHAPE($,$,(#258));
#260= IFCOPENINGELEMENT('0MwfqIxHjBQwx9JCNaChzh',#5,$,$,'Opening',#212,#259,$);
#261= IFCRELVOIDSELEMENT('31Y2c3kkz7sAEZtpYpvtxe',#5,'Drill Hole',$,#69,#260);
#262= IFCCARTESIANPOINT((25718.7656597667,23894.9271788445,19350.));
#263= IFCDIRECTION((-0.00127341800025897,0.99999918920297,0.));
#264= IFCAXIS2PLACEMENT3D(#262,#263,#210);
#265= IFCLOCALPLACEMENT(#42,#264);
#266= IFCSHAPEREPRESENTATION(#12,'Body','MappedRepresentation',(#239,#242,#245,#248,#251,#254,#257,#218,#221,#224,#227,#230,#233,#236));
#267= IFCPRODUCTDEFINITIONSHAPE($,$,(#266));
#268= IFCOPENINGELEMENT('32dk_mNCb0Ux$S3YhoSaP3',#5,$,$,'Opening',#265,#267,$);
#269= IFCRELVOIDSELEMENT('3e2W1NkEv3quqFVmJveCc$',#5,'Drill Hole',$,#69,#268);
#270= IFCCARTESIANPOINT((25528.805472488,23896.8840303914,19350.));
#271= IFCAXIS2PLACEMENT3D(#270,#7,#72);
#272= IFCLOCALPLACEMENT(#42,#271);
#273= IFCCARTESIANPOINT((107.5,0.,40.));
#274= IFCCARTESIANTRANSFORMATIONOPERATOR3D($,$,#273,$,$);
#275= IFCMAPPEDITEM(#180,#274);
#276= IFCCARTESIANPOINT((182.5,0.,40.));
#277= IFCCARTESIANTRANSFORMATIONOPERATOR3D($,$,#276,$,$);
#278= IFCMAPPEDITEM(#180,#277);
#279= IFCCARTESIANPOINT((257.5,0.,40.));
#280= IFCCARTESIANTRANSFORMATIONOPERATOR3D($,$,#279,$,$);
#281= IFCMAPPEDITEM(#180,#280);
#282= IFCCARTESIANPOINT((332.5,0.,40.));
#283= IFCCARTESIANTRANSFORMATIONOPERATOR3D($,$,#282,$,$);
#284= IFCMAPPEDITEM(#180,#283);
#285= IFCSHAPEREPRESENTATION(#12,'Body','MappedRepresentation',(#275,#278,#281,#284));
#286= IFCPRODUCTDEFINITIONSHAPE($,$,(#285));
#287= IFCOPENINGELEMENT('1fS68SJUj1zPhgQ4g$XXav',#5,$,$,'Opening',#272,#286,$);
#288= IFCRELVOIDSELEMENT('3tWsubfGT1pBwq8M_ypTON',#5,'Drill Hole',$,#69,#287);
#289= IFCPROPERTYSINGLEVALUE('PieceMark',$,IFCIDENTIFIER('BEAM'),$);
#290= IFCPROPERTYSINGLEVALUE('IndicationMark',$,IFCIDENTIFIER('b/233'),$);
#291= IFCPROPERTYSINGLEVALUE('PrelimMark',$,IFCIDENTIFIER(''),$);
#292= IFCPROPERTYSINGLEVALUE('MainPieceTag',$,IFCBOOLEAN(.T.),$);
#293= IFCPROPERTYSET('0BNKD3JgLAbwyhCP0avdin',#5,'AISC_EM11_Pset_PieceIdentification','PieceIdentity',(#289,#290,#291,#292));
#294= IFCPROPERTYSINGLEVALUE('MaterialType',$,IFCIDENTIFIER('STEEL'),$);
#295= IFCPROPERTYSINGLEVALUE('MaterialGrade',$,IFCIDENTIFIER('S235JR'),$);
#296= IFCPROPERTYSET('2UIz$rg259PvM$qNInVLJD',#5,'AISC_EM11_Pset_Material',$,(#294,#295));
#297= IFCPROPERTYSINGLEVALUE('SkewedAngleY',$,IFCREAL(0.),$);
#298= IFCPROPERTYSINGLEVALUE('SkewedAngleX',$,IFCREAL(0.),$);
#299= IFCPROPERTYSET('3XvKIIE3X82Q0ghXomIJZr',#5,'AISC_EM11_Pset_SkewedEnd',$,(#297,#298));
#300= IFCPROPERTYSET('3jcVuQU3z9mBnCwv04qKKp',#5,'AISC_EM11_Pset_SkewedEnd_2',$,(#297,#298));
#301= IFCMATERIAL('STEEL/S235JR');
#302= IFCRELAGGREGATES('20nBR4vYf4xg19NJkeCaEB',#5,$,$,#37,(#39));
#303= IFCRELAGGREGATES('2I3TjMBqxMDyJRfb0wUsWT',#5,$,$,#39,(#41));
#304= IFCRELAGGREGATES('2dL2Eg6Zj4ou6KKh2zohyE',#5,$,$,#41,(#43));
#305= IFCRELCONTAINEDINSPATIALSTRUCTURE('19Oq2Ov11DCeMxGRe6RISz',#5,$,$,(#69),#43);
#306= IFCRELDEFINESBYPROPERTIES('1dZU7269L4nQ9f5esKbiGv',#5,$,$,(#91,#78),#84);
#307= IFCRELDEFINESBYPROPERTIES('3EmJ3ZO9zDyvF3TkRHvBF9',#5,$,$,(#287,#268,#260,#206,#198,#166),#171);
#308= IFCRELDEFINESBYPROPERTIES('0ejrQQq9PAYhcsB$V7VTPu',#5,$,$,(#69),#293);
#309= IFCRELDEFINESBYPROPERTIES('1ZtAmQfGP4Wul73YoGPWeD',#5,$,$,(#69),#296);
#310= IFCRELDEFINESBYPROPERTIES('0YNCivDOz6IxTiqFZRtZcu',#5,$,$,(#69),#299);
#311= IFCRELDEFINESBYPROPERTIES('2uEGJqgc9D3fpD0KGhZx4E',#5,$,$,(#69),#300);
#312= IFCRELASSOCIATESMATERIAL('3SjnFWrNH0Ww6lKx94bMg0',#5,$,$,(#69),#301);
ENDSEC;

END-ISO-10303-21;
