ISO-10303-21;
HEADER;
FILE_DESCRIPTION(('ViewDefinition[AISC_Steel_Detailing]', 'Option [BaseQuantities:Off]', 'Option [GridExport:On]', 'Option [Assemblies:Off]', 'Option [Bolts:On]', 'Option [Rebars:On]', 'Option [PourObjects:Off]', 'Option [Welds:On]', 'Option [SurfaceTreatments:On]', 'Option [LocationBy:0]', 'Option [ViewColors:Off]', 'Option [SectionedSpine:Off]', 'Option [PropertySets:On]', 'Option [Export all:Off]'),'2;1');
FILE_NAME('b_23_Qty_1.ifc','2026-05-16T11:53:17',('GIOVANNIPC\\gcorrea'),('Structural Designer'),'IFC Database version: Work','Tekla Structures 2020 Service Pack 5, IFC Export Version: 4.0.0.0 Dec  7 2020','');
FILE_SCHEMA(('IFC2X3'));
ENDSEC;

DATA;
#1= IFCPERSON('GIOVANNIPC\\gcorrea','Undefined',$,$,$,$,$,$);
#2= IFCORGANIZATION($,'Trimble Solutions Corporation',$,$,$);
#3= IFCPERSONANDORGANIZATION(#1,#2,$);
#4= IFCAPPLICATION(#2,'2020 Service Pack 5','Tekla Structures','Multi material modeling');
#5= IFCOWNERHISTORY(#3,#4,$,.NOCHANGE.,$,$,$,1778950397);
#6= IFCCARTESIANPOINT((0.,0.,0.));
#7= IFCDIRECTION((1.,0.,0.));
#8= IFCDIRECTION((0.,1.,0.));
#9= IFCDIRECTION((0.,0.,1.));
#10= IFCAXIS2PLACEMENT3D(#6,#9,#7);
#11= IFCGEOMETRICREPRESENTATIONCONTEXT($,'Model',3,1.E-05,#10,$);
#12= IFCGEOMETRICREPRESENTATIONSUBCONTEXT('Body','Model',*,*,*,*,#11,$,.MODEL_VIEW.,$);
#13= IFCGEOMETRICREPRESENTATIONSUBCONTEXT('Axis','Model',*,*,*,*,#11,$,.GRAPH_VIEW.,$);
#14= IFCGEOMETRICREPRESENTATIONSUBCONTEXT('FootPrint','Model',*,*,*,*,#11,$,.MODEL_VIEW.,$);
#15= IFCSIUNIT(*,.LENGTHUNIT.,.MILLI.,.METRE.);
#16= IFCMEASUREWITHUNIT(IFCRATIOMEASURE(304.8),#15);
#17= IFCDIMENSIONALEXPONENTS(1,0,0,0,0,0,0);
#18= IFCCONVERSIONBASEDUNIT(#17,.LENGTHUNIT.,'FOOT',#16);
#19= IFCSIUNIT(*,.AREAUNIT.,$,.SQUARE_METRE.);
#20= IFCMEASUREWITHUNIT(IFCRATIOMEASURE(0.09290304),#19);
#21= IFCDIMENSIONALEXPONENTS(2,0,0,0,0,0,0);
#22= IFCCONVERSIONBASEDUNIT(#21,.AREAUNIT.,'SQUARE FOOT',#20);
#23= IFCSIUNIT(*,.VOLUMEUNIT.,$,.CUBIC_METRE.);
#24= IFCMEASUREWITHUNIT(IFCRATIOMEASURE(0.028316846592),#23);
#25= IFCDIMENSIONALEXPONENTS(3,0,0,0,0,0,0);
#26= IFCCONVERSIONBASEDUNIT(#25,.VOLUMEUNIT.,'CUBIC FOOT',#24);
#27= IFCSIUNIT(*,.MASSUNIT.,.KILO.,.GRAM.);
#28= IFCSIUNIT(*,.TIMEUNIT.,$,.SECOND.);
#29= IFCSIUNIT(*,.PLANEANGLEUNIT.,$,.RADIAN.);
#30= IFCMEASUREWITHUNIT(IFCRATIOMEASURE(0.0174532925199433),#29);
#31= IFCDIMENSIONALEXPONENTS(0,0,0,0,0,0,0);
#32= IFCCONVERSIONBASEDUNIT(#31,.PLANEANGLEUNIT.,'DEGREE',#30);
#33= IFCSIUNIT(*,.SOLIDANGLEUNIT.,$,.STERADIAN.);
#34= IFCSIUNIT(*,.THERMODYNAMICTEMPERATUREUNIT.,$,.DEGREE_CELSIUS.);
#35= IFCSIUNIT(*,.LUMINOUSINTENSITYUNIT.,$,.LUMEN.);
#36= IFCUNITASSIGNMENT((#15,#19,#23,#27,#28,#29,#33,#34,#35));
#37= IFCPROJECT('2G7ZFDNE16yBDU14FA92Me',#5,'Proyecto',$,$,$,$,(#11),#36);
#38= IFCLOCALPLACEMENT($,#10);
#39= IFCSITE('2xvEzEinjBTea80yOTcujY',#5,'Obra',$,$,#38,$,$,.ELEMENT.,$,$,$,$,$);
#40= IFCLOCALPLACEMENT(#38,#10);
#41= IFCBUILDING('3Bxd0xpxz6Uebr6i2ime_g',#5,'Undefined',$,$,#40,$,$,.ELEMENT.,$,$,$);
#42= IFCLOCALPLACEMENT(#40,#10);
#43= IFCBUILDINGSTOREY('29hdEUCErFze9E_VIAceOd',#5,'Undefined',$,$,#42,$,$,.ELEMENT.,0.);
#44= IFCOWNERHISTORY(#3,#4,$,.NOCHANGE.,$,$,$,1772823600);
#45= IFCCARTESIANPOINT((17165.9915084839,17331.1078186035,13680.));
#46= IFCDIRECTION((0.999999991662592,-0.000129130999956511,0.));
#47= IFCAXIS2PLACEMENT3D(#45,#9,#46);
#48= IFCLOCALPLACEMENT(#42,#47);
#49= IFCDIRECTION((1.,0.));
#50= IFCCARTESIANPOINT((0.,0.));
#51= IFCAXIS2PLACEMENT2D(#50,#49);
#52= IFCISHAPEPROFILEDEF(.AREA.,'HEA450',#51,300.,440.,11.5,21.,27.);
#53= IFCDIRECTION((2.71050543121376E-20,-1.,0.));
#54= IFCDIRECTION((-1.,-2.71050543121376E-20,0.));
#55= IFCCARTESIANPOINT((7815.26534475807,2.11833191633434E-16,0.));
#56= IFCAXIS2PLACEMENT3D(#55,#54,#53);
#57= IFCEXTRUDEDAREASOLID(#52,#56,#9,7808.83);
#58= IFCCARTESIANPOINT((7815.20665473191,0.,-1000.));
#59= IFCAXIS2PLACEMENT3D(#58,#54,#8);
#60= IFCPLANE(#59);
#61= IFCHALFSPACESOLID(#60,.T.);
#62= IFCBOOLEANCLIPPINGRESULT(.DIFFERENCE.,#57,#61);
#63= IFCDIRECTION((0.999999991662592,0.000129130999954213,0.));
#64= IFCCARTESIANPOINT((6.49868829707339,-0.810070955994888,-320.));
#65= IFCDIRECTION((0.000129130999954213,-0.999999991662592,0.));
#66= IFCAXIS2PLACEMENT3D(#64,#63,#65);
#67= IFCPLANE(#66);
#68= IFCHALFSPACESOLID(#67,.T.);
#69= IFCBOOLEANCLIPPINGRESULT(.DIFFERENCE.,#62,#68);
#70= IFCSHAPEREPRESENTATION(#12,'Body','Clipping',(#69));
#71= IFCPRODUCTDEFINITIONSHAPE($,$,(#70));
#72= IFCBEAM('3JRAIdbpD9QuoMk0HfAEkl',#44,'BEAM','HEA450','HEA450',#48,#71,'IDd36ca4a7-9733-496b-8c96-b8046928ebaf');
#73= IFCCARTESIANPOINT((17217.5251671465,17332.0963187752,13460.));
#74= IFCDIRECTION((0.000467666999833454,-0.999999890643783,0.));
#75= IFCDIRECTION((0.999999890643783,0.000467666999834884,0.));
#76= IFCAXIS2PLACEMENT3D(#73,#74,#75);
#77= IFCLOCALPLACEMENT(#42,#76);
#78= IFCCIRCLEPROFILEDEF(.AREA.,$,#51,12.);
#79= IFCCARTESIANPOINT((0.,-0.1,0.));
#80= IFCAXIS2PLACEMENT3D(#79,#8,#7);
#81= IFCEXTRUDEDAREASOLID(#78,#80,#9,21.2);
#82= IFCSHAPEREPRESENTATION(#12,'Body','SweptSolid',(#81));
#83= IFCREPRESENTATIONMAP(#10,#82);
#84= IFCCARTESIANPOINT((3.63797880709171E-12,0.,74.999999999789));
#85= IFCCARTESIANTRANSFORMATIONOPERATOR3D($,$,#84,$,$);
#86= IFCMAPPEDITEM(#83,#85);
#87= IFCCARTESIANPOINT((74.999999999789,0.,74.999999999789));
#88= IFCCARTESIANTRANSFORMATIONOPERATOR3D($,$,#87,$,$);
#89= IFCMAPPEDITEM(#83,#88);
#90= IFCCARTESIANPOINT((149.999999999578,0.,74.9999999997854));
#91= IFCCARTESIANTRANSFORMATIONOPERATOR3D($,$,#90,$,$);
#92= IFCMAPPEDITEM(#83,#91);
#93= IFCCARTESIANPOINT((224.999999999363,0.,74.999999999789));
#94= IFCCARTESIANTRANSFORMATIONOPERATOR3D($,$,#93,$,$);
#95= IFCMAPPEDITEM(#83,#94);
#96= IFCCARTESIANPOINT((299.999999999149,0.,74.999999999789));
#97= IFCCARTESIANTRANSFORMATIONOPERATOR3D($,$,#96,$,$);
#98= IFCMAPPEDITEM(#83,#97);
#99= IFCCARTESIANPOINT((374.99999999893,0.,74.9999999997854));
#100= IFCCARTESIANTRANSFORMATIONOPERATOR3D($,$,#99,$,$);
#101= IFCMAPPEDITEM(#83,#100);
#102= IFCCARTESIANPOINT((449.999999998719,0.,74.999999999789));
#103= IFCCARTESIANTRANSFORMATIONOPERATOR3D($,$,#102,$,$);
#104= IFCMAPPEDITEM(#83,#103);
#105= IFCCARTESIANPOINT((524.999999998505,0.,74.999999999789));
#106= IFCCARTESIANTRANSFORMATIONOPERATOR3D($,$,#105,$,$);
#107= IFCMAPPEDITEM(#83,#106);
#108= IFCCARTESIANPOINT((599.99999999829,0.,74.9999999997854));
#109= IFCCARTESIANTRANSFORMATIONOPERATOR3D($,$,#108,$,$);
#110= IFCMAPPEDITEM(#83,#109);
#111= IFCCARTESIANPOINT((674.999999998076,0.,74.999999999789));
#112= IFCCARTESIANTRANSFORMATIONOPERATOR3D($,$,#111,$,$);
#113= IFCMAPPEDITEM(#83,#112);
#114= IFCCARTESIANPOINT((3.63797880709171E-12,0.,-74.9999999997854));
#115= IFCCARTESIANTRANSFORMATIONOPERATOR3D($,$,#114,$,$);
#116= IFCMAPPEDITEM(#83,#115);
#117= IFCCARTESIANPOINT((74.999999999789,0.,-74.9999999997854));
#118= IFCCARTESIANTRANSFORMATIONOPERATOR3D($,$,#117,$,$);
#119= IFCMAPPEDITEM(#83,#118);
#120= IFCCARTESIANPOINT((149.999999999574,0.,-74.9999999997854));
#121= IFCCARTESIANTRANSFORMATIONOPERATOR3D($,$,#120,$,$);
#122= IFCMAPPEDITEM(#83,#121);
#123= IFCCARTESIANPOINT((224.999999999363,0.,-74.9999999997854));
#124= IFCCARTESIANTRANSFORMATIONOPERATOR3D($,$,#123,$,$);
#125= IFCMAPPEDITEM(#83,#124);
#126= IFCCARTESIANPOINT((299.999999999149,0.,-74.9999999997817));
#127= IFCCARTESIANTRANSFORMATIONOPERATOR3D($,$,#126,$,$);
#128= IFCMAPPEDITEM(#83,#127);
#129= IFCCARTESIANPOINT((374.999999998934,0.,-74.9999999997854));
#130= IFCCARTESIANTRANSFORMATIONOPERATOR3D($,$,#129,$,$);
#131= IFCMAPPEDITEM(#83,#130);
#132= IFCCARTESIANPOINT((449.999999998719,0.,-74.9999999997854));
#133= IFCCARTESIANTRANSFORMATIONOPERATOR3D($,$,#132,$,$);
#134= IFCMAPPEDITEM(#83,#133);
#135= IFCCARTESIANPOINT((524.999999998508,0.,-74.9999999997817));
#136= IFCCARTESIANTRANSFORMATIONOPERATOR3D($,$,#135,$,$);
#137= IFCMAPPEDITEM(#83,#136);
#138= IFCCARTESIANPOINT((599.999999998294,0.,-74.9999999997854));
#139= IFCCARTESIANTRANSFORMATIONOPERATOR3D($,$,#138,$,$);
#140= IFCMAPPEDITEM(#83,#139);
#141= IFCCARTESIANPOINT((674.999999998079,0.,-74.9999999997854));
#142= IFCCARTESIANTRANSFORMATIONOPERATOR3D($,$,#141,$,$);
#143= IFCMAPPEDITEM(#83,#142);
#144= IFCSHAPEREPRESENTATION(#12,'Body','MappedRepresentation',(#86,#89,#92,#95,#98,#101,#104,#107,#110,#113,#116,#119,#122,#125,#128,#131,#134,#137,#140,#143));
#145= IFCPRODUCTDEFINITIONSHAPE($,$,(#144));
#146= IFCOPENINGELEMENT('3W00qDbrzFT9_6tMolGdxV',#5,$,$,'Opening',#77,#145,$);
#147= IFCRELVOIDSELEMENT('386$SbzO9BvfW_Ery0ohJb',#5,'Drill Hole',$,#72,#146);
#148= IFCPROPERTYSINGLEVALUE('FeatureSubTypes',$,IFCLABEL('TORNILLO'),$);
#149= IFCPROPERTYSINGLEVALUE('RectangleOpeningWidth',$,$,$);
#150= IFCPROPERTYSINGLEVALUE('RectangleOpeningHeight',$,$,$);
#151= IFCPROPERTYSINGLEVALUE('OpeningDiameter',$,$,$);
#152= IFCPROPERTYSET('2yojf54bvFc9Qtw5TjpyDm',#5,'AISC_EM11_Pset_Opening/Cope',$,(#148,#149,#150,#151));
#153= IFCCARTESIANPOINT((17172.4900921215,17330.2969084722,13900.));
#154= IFCDIRECTION((0.,0.,-1.));
#155= IFCAXIS2PLACEMENT3D(#153,#7,#154);
#156= IFCLOCALPLACEMENT(#42,#155);
#157= IFCCIRCLEPROFILEDEF(.AREA.,$,#51,12.5);
#158= IFCCARTESIANPOINT((0.,-5.04573998023522,0.));
#159= IFCAXIS2PLACEMENT3D(#158,#8,#7);
#160= IFCEXTRUDEDAREASOLID(#157,#159,#9,11.7);
#161= IFCSHAPEREPRESENTATION(#12,'Body','SweptSolid',(#160));
#162= IFCREPRESENTATIONMAP(#10,#161);
#163= IFCCARTESIANPOINT((107.5,0.,45.));
#164= IFCCARTESIANTRANSFORMATIONOPERATOR3D($,$,#163,$,$);
#165= IFCMAPPEDITEM(#162,#164);
#166= IFCCARTESIANPOINT((182.5,0.,45.));
#167= IFCCARTESIANTRANSFORMATIONOPERATOR3D($,$,#166,$,$);
#168= IFCMAPPEDITEM(#162,#167);
#169= IFCCARTESIANPOINT((257.5,0.,45.));
#170= IFCCARTESIANTRANSFORMATIONOPERATOR3D($,$,#169,$,$);
#171= IFCMAPPEDITEM(#162,#170);
#172= IFCCARTESIANPOINT((332.5,0.,45.));
#173= IFCCARTESIANTRANSFORMATIONOPERATOR3D($,$,#172,$,$);
#174= IFCMAPPEDITEM(#162,#173);
#175= IFCSHAPEREPRESENTATION(#12,'Body','MappedRepresentation',(#165,#168,#171,#174));
#176= IFCPRODUCTDEFINITIONSHAPE($,$,(#175));
#177= IFCOPENINGELEMENT('0HCy_o88r0QRkWRmfC01Ex',#5,$,$,'Opening',#156,#176,$);
#178= IFCRELVOIDSELEMENT('0u2oc6JxHBfRMnp9Sjyjgh',#5,'Drill Hole',$,#72,#177);
#179= IFCCARTESIANPOINT((17217.5251671465,17332.0963187752,13900.));
#180= IFCDIRECTION((-0.000467666999833454,0.999999890643783,0.));
#181= IFCAXIS2PLACEMENT3D(#179,#180,#75);
#182= IFCLOCALPLACEMENT(#42,#181);
#183= IFCSHAPEREPRESENTATION(#12,'Body','MappedRepresentation',(#116,#119,#122,#125,#128,#131,#134,#137,#140,#143,#86,#89,#92,#95,#98,#101,#104,#107,#110,#113));
#184= IFCPRODUCTDEFINITIONSHAPE($,$,(#183));
#185= IFCOPENINGELEMENT('0YQq_8pZf2aOqt2ejFDB1F',#5,$,$,'Opening',#182,#184,$);
#186= IFCRELVOIDSELEMENT('3Z1dX_UQfBxAaR$8CBUyRF',#5,'Drill Hole',$,#72,#185);
#187= IFCPROPERTYSINGLEVALUE('PieceMark',$,IFCIDENTIFIER('BEAM'),$);
#188= IFCPROPERTYSINGLEVALUE('IndicationMark',$,IFCIDENTIFIER('b/23'),$);
#189= IFCPROPERTYSINGLEVALUE('PrelimMark',$,IFCIDENTIFIER(''),$);
#190= IFCPROPERTYSINGLEVALUE('MainPieceTag',$,IFCBOOLEAN(.T.),$);
#191= IFCPROPERTYSET('3acx$c0JL5qfA3LQEl3dwr',#5,'AISC_EM11_Pset_PieceIdentification','PieceIdentity',(#187,#188,#189,#190));
#192= IFCPROPERTYSINGLEVALUE('MaterialType',$,IFCIDENTIFIER('STEEL'),$);
#193= IFCPROPERTYSINGLEVALUE('MaterialGrade',$,IFCIDENTIFIER('S235JR'),$);
#194= IFCPROPERTYSET('0yMmBp2F50ufs8ZXPDnV7m',#5,'AISC_EM11_Pset_Material',$,(#192,#193));
#195= IFCPROPERTYSINGLEVALUE('SkewedAngleY',$,IFCREAL(0.),$);
#196= IFCPROPERTYSINGLEVALUE('SkewedAngleX',$,IFCREAL(-0.0074),$);
#197= IFCPROPERTYSET('3249n52aP1LOeZmieIVi$k',#5,'AISC_EM11_Pset_SkewedEnd',$,(#195,#196));
#198= IFCPROPERTYSINGLEVALUE('SkewedAngleX',$,IFCREAL(0.),$);
#199= IFCPROPERTYSET('3OGmEFskL0gxDvEhc8Tmge',#5,'AISC_EM11_Pset_SkewedEnd_2',$,(#195,#198));
#200= IFCMATERIAL('STEEL/S235JR');
#201= IFCRELAGGREGATES('2bTiB9q1P32OUdf2AFhueH',#5,$,$,#37,(#39));
#202= IFCRELAGGREGATES('2tl_TR6JhLKgmvxKSXzAwZ',#5,$,$,#39,(#41));
#203= IFCRELAGGREGATES('1h_fziTOv5y9r0NyATvtjJ',#5,$,$,#41,(#43));
#204= IFCRELCONTAINEDINSPATIALSTRUCTURE('0wDej4ou98bA40dSBXBzxw',#5,$,$,(#72),#43);
#205= IFCRELDEFINESBYPROPERTIES('0m6fSfWvX2R8EEnE0HQf1J',#5,$,$,(#185,#177,#146),#152);
#206= IFCRELDEFINESBYPROPERTIES('07GY1taRb1zwWooQbBT9eD',#5,$,$,(#72),#191);
#207= IFCRELDEFINESBYPROPERTIES('1OvlvSS2f8TBTASWZ9q7FJ',#5,$,$,(#72),#194);
#208= IFCRELDEFINESBYPROPERTIES('18aufSW0D1qeU2c_DjAVYB',#5,$,$,(#72),#197);
#209= IFCRELDEFINESBYPROPERTIES('2Lq4sULlj6PhBMgMMxXGWI',#5,$,$,(#72),#199);
#210= IFCRELASSOCIATESMATERIAL('2v2ceLrSr4Lxowiq8jMtIq',#5,$,$,(#72),#200);
ENDSEC;

END-ISO-10303-21;
