ISO-10303-21;
HEADER;
FILE_DESCRIPTION(('ViewDefinition[AISC_Steel_Detailing]', 'Option [BaseQuantities:Off]', 'Option [GridExport:On]', 'Option [Assemblies:Off]', 'Option [Bolts:On]', 'Option [Rebars:On]', 'Option [PourObjects:Off]', 'Option [Welds:On]', 'Option [SurfaceTreatments:On]', 'Option [LocationBy:0]', 'Option [ViewColors:Off]', 'Option [SectionedSpine:Off]', 'Option [PropertySets:On]', 'Option [Export all:Off]'),'2;1');
FILE_NAME('b_234_Qty_3.ifc','2026-05-16T11:53:10',('GIOVANNIPC\\gcorrea'),('Structural Designer'),'IFC Database version: Work','Tekla Structures 2020 Service Pack 5, IFC Export Version: 4.0.0.0 Dec  7 2020','');
FILE_SCHEMA(('IFC2X3'));
ENDSEC;

DATA;
#1= IFCPERSON('GIOVANNIPC\\gcorrea','Undefined',$,$,$,$,$,$);
#2= IFCORGANIZATION($,'Trimble Solutions Corporation',$,$,$);
#3= IFCPERSONANDORGANIZATION(#1,#2,$);
#4= IFCAPPLICATION(#2,'2020 Service Pack 5','Tekla Structures','Multi material modeling');
#5= IFCOWNERHISTORY(#3,#4,$,.NOCHANGE.,$,$,$,1778950390);
#6= IFCCARTESIANPOINT((0.,0.,0.));
#7= IFCDIRECTION((1.,0.,0.));
#8= IFCDIRECTION((0.,1.,0.));
#9= IFCDIRECTION((0.,0.,1.));
#10= IFCAXIS2PLACEMENT3D(#6,#9,#7);
#11= IFCGEOMETRICREPRESENTATIONCONTEXT($,'Model',3,1.E-05,#10,$);
#12= IFCGEOMETRICREPRESENTATIONSUBCONTEXT('Body','Model',*,*,*,*,#11,$,.MODEL_VIEW.,$);
#13= IFCGEOMETRICREPRESENTATIONSUBCONTEXT('Axis','Model',*,*,*,*,#11,$,.GRAPH_VIEW.,$);
#14= IFCGEOMETRICREPRESENTATIONSUBCONTEXT('FootPrint','Model',*,*,*,*,#11,$,.MODEL_VIEW.,$);
#15= IFCSIUNIT(*,.LENGTHUNIT.,.MILLI.,.METRE.);
#16= IFCMEASUREWITHUNIT(IFCRATIOMEASURE(304.8),#15);
#17= IFCDIMENSIONALEXPONENTS(1,0,0,0,0,0,0);
#18= IFCCONVERSIONBASEDUNIT(#17,.LENGTHUNIT.,'FOOT',#16);
#19= IFCSIUNIT(*,.AREAUNIT.,$,.SQUARE_METRE.);
#20= IFCMEASUREWITHUNIT(IFCRATIOMEASURE(0.09290304),#19);
#21= IFCDIMENSIONALEXPONENTS(2,0,0,0,0,0,0);
#22= IFCCONVERSIONBASEDUNIT(#21,.AREAUNIT.,'SQUARE FOOT',#20);
#23= IFCSIUNIT(*,.VOLUMEUNIT.,$,.CUBIC_METRE.);
#24= IFCMEASUREWITHUNIT(IFCRATIOMEASURE(0.028316846592),#23);
#25= IFCDIMENSIONALEXPONENTS(3,0,0,0,0,0,0);
#26= IFCCONVERSIONBASEDUNIT(#25,.VOLUMEUNIT.,'CUBIC FOOT',#24);
#27= IFCSIUNIT(*,.MASSUNIT.,.KILO.,.GRAM.);
#28= IFCSIUNIT(*,.TIMEUNIT.,$,.SECOND.);
#29= IFCSIUNIT(*,.PLANEANGLEUNIT.,$,.RADIAN.);
#30= IFCMEASUREWITHUNIT(IFCRATIOMEASURE(0.0174532925199433),#29);
#31= IFCDIMENSIONALEXPONENTS(0,0,0,0,0,0,0);
#32= IFCCONVERSIONBASEDUNIT(#31,.PLANEANGLEUNIT.,'DEGREE',#30);
#33= IFCSIUNIT(*,.SOLIDANGLEUNIT.,$,.STERADIAN.);
#34= IFCSIUNIT(*,.THERMODYNAMICTEMPERATUREUNIT.,$,.DEGREE_CELSIUS.);
#35= IFCSIUNIT(*,.LUMINOUSINTENSITYUNIT.,$,.LUMEN.);
#36= IFCUNITASSIGNMENT((#15,#19,#23,#27,#28,#29,#33,#34,#35));
#37= IFCPROJECT('2G7ZFDNE16yBDU14FA92Me',#5,'Proyecto',$,$,$,$,(#11),#36);
#38= IFCLOCALPLACEMENT($,#10);
#39= IFCSITE('2xvEzEinjBTea80yOTcujY',#5,'Obra',$,$,#38,$,$,.ELEMENT.,$,$,$,$,$);
#40= IFCLOCALPLACEMENT(#38,#10);
#41= IFCBUILDING('2c8Ghyfy15of9qOeyOP1Xw',#5,'Undefined',$,$,#40,$,$,.ELEMENT.,$,$,$);
#42= IFCLOCALPLACEMENT(#40,#10);
#43= IFCBUILDINGSTOREY('29hdEUCErFze9E_VIAceOd',#5,'Undefined',$,$,#42,$,$,.ELEMENT.,0.);
#44= IFCOWNERHISTORY(#3,#4,$,.NOCHANGE.,$,$,$,1774036800);
#45= IFCCARTESIANPOINT((34145.0002411728,23896.8840303914,19130.));
#46= IFCAXIS2PLACEMENT3D(#45,#9,#7);
#47= IFCLOCALPLACEMENT(#42,#46);
#48= IFCDIRECTION((1.,0.));
#49= IFCCARTESIANPOINT((0.,0.));
#50= IFCAXIS2PLACEMENT2D(#49,#48);
#51= IFCISHAPEPROFILEDEF(.AREA.,'HEA450',#50,300.,440.,11.5,21.,27.);
#52= IFCDIRECTION((0.,-1.,0.));
#53= IFCDIRECTION((-1.,0.,0.));
#54= IFCCARTESIANPOINT((8339.24966039452,0.,0.));
#55= IFCAXIS2PLACEMENT3D(#54,#53,#52);
#56= IFCEXTRUDEDAREASOLID(#51,#55,#9,8349.25);
#57= IFCCARTESIANPOINT((8339.24965999961,6.80010998621583E-07,-320.));
#58= IFCAXIS2PLACEMENT3D(#57,#53,#8);
#59= IFCPLANE(#58);
#60= IFCHALFSPACESOLID(#59,.T.);
#61= IFCBOOLEANCLIPPINGRESULT(.DIFFERENCE.,#56,#60);
#62= IFCCARTESIANPOINT((-10.0004577636719,0.,-320.));
#63= IFCAXIS2PLACEMENT3D(#62,#7,#52);
#64= IFCPLANE(#63);
#65= IFCHALFSPACESOLID(#64,.T.);
#66= IFCBOOLEANCLIPPINGRESULT(.DIFFERENCE.,#61,#65);
#67= IFCSHAPEREPRESENTATION(#12,'Body','Clipping',(#66));
#68= IFCPRODUCTDEFINITIONSHAPE($,$,(#67));
#69= IFCBEAM('345Qu0ttb9ZgPzWu7okuH_',#44,'BEAM','HEA450','HEA450',#47,#68,'IDc415ae00-df79-498e-a67d-8381f2bb847e');
#70= IFCLOCALPLACEMENT(#42,#46);
#71= IFCRECTANGLEPROFILEDEF(.AREA.,'PL49*156.3',#50,49.,156.3);
#72= IFCDIRECTION((0.,0.,-1.));
#73= IFCCARTESIANPOINT((8273.12467026744,151.000004496575,-196.5));
#74= IFCAXIS2PLACEMENT3D(#73,#52,#72);
#75= IFCEXTRUDEDAREASOLID(#71,#74,#9,302.);
#76= IFCSHAPEREPRESENTATION(#12,'Body','SweptSolid',(#75));
#77= IFCPRODUCTDEFINITIONSHAPE($,$,(#76));
#78= IFCOPENINGELEMENT('1vN8QA_T55Mfyuc3ZgyTek',#5,$,$,'Recess',#70,#77,$);
#79= IFCRELVOIDSELEMENT('0LS6RdT1LAyBDPQyrds1UU',#5,$,$,#69,#78);
#80= IFCPROPERTYSINGLEVALUE('FeatureSubTypes',$,$,$);
#81= IFCPROPERTYSINGLEVALUE('RectangleOpeningWidth',$,IFCPOSITIVELENGTHMEASURE(49.),$);
#82= IFCPROPERTYSINGLEVALUE('RectangleOpeningHeight',$,IFCPOSITIVELENGTHMEASURE(156.3),$);
#83= IFCPROPERTYSINGLEVALUE('OpeningDiameter',$,$,$);
#84= IFCPROPERTYSET('0IvByfj9z06Bgh3kETi327',#5,'AISC_EM11_Pset_Opening/Cope',$,(#80,#81,#82,#83));
#85= IFCLOCALPLACEMENT(#42,#46);
#86= IFCCARTESIANPOINT((8273.12467026744,151.000004496575,196.5));
#87= IFCAXIS2PLACEMENT3D(#86,#52,#72);
#88= IFCEXTRUDEDAREASOLID(#71,#87,#9,302.);
#89= IFCSHAPEREPRESENTATION(#12,'Body','SweptSolid',(#88));
#90= IFCPRODUCTDEFINITIONSHAPE($,$,(#89));
#91= IFCOPENINGELEMENT('3y3UItOBvFm9ZJ$H3XvsWL',#5,$,$,'Recess',#85,#90,$);
#92= IFCRELVOIDSELEMENT('2wBWMMsg549PW1HSuOs1DV',#5,$,$,#69,#91);
#93= IFCCARTESIANPOINT((42294.9749011724,23896.8840303914,18891.));
#94= IFCAXIS2PLACEMENT3D(#93,#8,#53);
#95= IFCLOCALPLACEMENT(#42,#94);
#96= IFCCIRCLEPROFILEDEF(.AREA.,$,#50,11.5);
#97= IFCCARTESIANPOINT((0.,18.9,0.));
#98= IFCAXIS2PLACEMENT3D(#97,#8,#7);
#99= IFCEXTRUDEDAREASOLID(#96,#98,#9,21.2);
#100= IFCSHAPEREPRESENTATION(#12,'Body','SweptSolid',(#99));
#101= IFCREPRESENTATIONMAP(#10,#100);
#102= IFCCARTESIANPOINT((-2.69210431724787E-10,0.,75.));
#103= IFCCARTESIANTRANSFORMATIONOPERATOR3D($,$,#102,$,$);
#104= IFCMAPPEDITEM(#101,#103);
#105= IFCCARTESIANPOINT((74.9999999997308,0.,75.0000000005457));
#106= IFCCARTESIANTRANSFORMATIONOPERATOR3D($,$,#105,$,$);
#107= IFCMAPPEDITEM(#101,#106);
#108= IFCCARTESIANPOINT((149.999999999731,0.,75.0000000010914));
#109= IFCCARTESIANTRANSFORMATIONOPERATOR3D($,$,#108,$,$);
#110= IFCMAPPEDITEM(#101,#109);
#111= IFCCARTESIANPOINT((224.999999999731,0.,75.0000000016371));
#112= IFCCARTESIANTRANSFORMATIONOPERATOR3D($,$,#111,$,$);
#113= IFCMAPPEDITEM(#101,#112);
#114= IFCCARTESIANPOINT((299.999999999731,0.,75.0000000021828));
#115= IFCCARTESIANTRANSFORMATIONOPERATOR3D($,$,#114,$,$);
#116= IFCMAPPEDITEM(#101,#115);
#117= IFCCARTESIANPOINT((374.999999999731,0.,75.0000000027285));
#118= IFCCARTESIANTRANSFORMATIONOPERATOR3D($,$,#117,$,$);
#119= IFCMAPPEDITEM(#101,#118);
#120= IFCCARTESIANPOINT((449.999999999731,0.,75.0000000032742));
#121= IFCCARTESIANTRANSFORMATIONOPERATOR3D($,$,#120,$,$);
#122= IFCMAPPEDITEM(#101,#121);
#123= IFCCARTESIANPOINT((524.999999999731,0.,75.0000000038199));
#124= IFCCARTESIANTRANSFORMATIONOPERATOR3D($,$,#123,$,$);
#125= IFCMAPPEDITEM(#101,#124);
#126= IFCCARTESIANPOINT((599.999999999731,0.,75.0000000043656));
#127= IFCCARTESIANTRANSFORMATIONOPERATOR3D($,$,#126,$,$);
#128= IFCMAPPEDITEM(#101,#127);
#129= IFCCARTESIANPOINT((674.999999999731,0.,75.0000000049113));
#130= IFCCARTESIANTRANSFORMATIONOPERATOR3D($,$,#129,$,$);
#131= IFCMAPPEDITEM(#101,#130);
#132= IFCCARTESIANPOINT((2.7648638933897E-10,0.,-75.));
#133= IFCCARTESIANTRANSFORMATIONOPERATOR3D($,$,#132,$,$);
#134= IFCMAPPEDITEM(#101,#133);
#135= IFCCARTESIANPOINT((75.0000000002765,0.,-74.9999999994543));
#136= IFCCARTESIANTRANSFORMATIONOPERATOR3D($,$,#135,$,$);
#137= IFCMAPPEDITEM(#101,#136);
#138= IFCCARTESIANPOINT((150.000000000276,0.,-74.9999999989086));
#139= IFCCARTESIANTRANSFORMATIONOPERATOR3D($,$,#138,$,$);
#140= IFCMAPPEDITEM(#101,#139);
#141= IFCCARTESIANPOINT((225.000000000276,0.,-74.9999999983629));
#142= IFCCARTESIANTRANSFORMATIONOPERATOR3D($,$,#141,$,$);
#143= IFCMAPPEDITEM(#101,#142);
#144= IFCCARTESIANPOINT((300.000000000276,0.,-74.9999999978172));
#145= IFCCARTESIANTRANSFORMATIONOPERATOR3D($,$,#144,$,$);
#146= IFCMAPPEDITEM(#101,#145);
#147= IFCCARTESIANPOINT((375.000000000276,0.,-74.9999999972715));
#148= IFCCARTESIANTRANSFORMATIONOPERATOR3D($,$,#147,$,$);
#149= IFCMAPPEDITEM(#101,#148);
#150= IFCCARTESIANPOINT((450.000000000276,0.,-74.9999999967258));
#151= IFCCARTESIANTRANSFORMATIONOPERATOR3D($,$,#150,$,$);
#152= IFCMAPPEDITEM(#101,#151);
#153= IFCCARTESIANPOINT((525.000000000276,0.,-74.9999999961801));
#154= IFCCARTESIANTRANSFORMATIONOPERATOR3D($,$,#153,$,$);
#155= IFCMAPPEDITEM(#101,#154);
#156= IFCCARTESIANPOINT((600.000000000276,0.,-74.9999999956344));
#157= IFCCARTESIANTRANSFORMATIONOPERATOR3D($,$,#156,$,$);
#158= IFCMAPPEDITEM(#101,#157);
#159= IFCCARTESIANPOINT((675.000000000276,0.,-74.9999999950887));
#160= IFCCARTESIANTRANSFORMATIONOPERATOR3D($,$,#159,$,$);
#161= IFCMAPPEDITEM(#101,#160);
#162= IFCSHAPEREPRESENTATION(#12,'Body','MappedRepresentation',(#104,#107,#110,#113,#116,#119,#122,#125,#128,#131,#134,#137,#140,#143,#146,#149,#152,#155,#158,#161));
#163= IFCPRODUCTDEFINITIONSHAPE($,$,(#162));
#164= IFCOPENINGELEMENT('1TQyQaPE50kOcXOGo8hyqK',#5,$,$,'Opening',#95,#163,$);
#165= IFCRELVOIDSELEMENT('25JWFA9rD4p9nQQoKVyInB',#5,'Drill Hole',$,#69,#164);
#166= IFCPROPERTYSINGLEVALUE('FeatureSubTypes',$,IFCLABEL('TORNILLO'),$);
#167= IFCPROPERTYSINGLEVALUE('RectangleOpeningWidth',$,$,$);
#168= IFCPROPERTYSINGLEVALUE('RectangleOpeningHeight',$,$,$);
#169= IFCPROPERTYSET('24rqM7Smb3hw91w0WfAShY',#5,'AISC_EM11_Pset_Opening/Cope',$,(#166,#167,#168,#83));
#170= IFCCARTESIANPOINT((42499.9998561392,23721.8840328359,18891.));
#171= IFCAXIS2PLACEMENT3D(#170,#53,#52);
#172= IFCLOCALPLACEMENT(#42,#171);
#173= IFCCARTESIANPOINT((42484.2499011724,23896.8840297114,19350.));
#174= IFCAXIS2PLACEMENT3D(#173,#53,#72);
#175= IFCLOCALPLACEMENT(#42,#174);
#176= IFCCARTESIANPOINT((0.,-5.84999761996226,0.));
#177= IFCAXIS2PLACEMENT3D(#176,#8,#7);
#178= IFCEXTRUDEDAREASOLID(#96,#177,#9,11.7);
#179= IFCSHAPEREPRESENTATION(#12,'Body','SweptSolid',(#178));
#180= IFCREPRESENTATIONMAP(#10,#179);
#181= IFCCARTESIANPOINT((80.,0.,45.));
#182= IFCCARTESIANTRANSFORMATIONOPERATOR3D($,$,#181,$,$);
#183= IFCMAPPEDITEM(#180,#182);
#184= IFCCARTESIANPOINT((150.,0.,45.));
#185= IFCCARTESIANTRANSFORMATIONOPERATOR3D($,$,#184,$,$);
#186= IFCMAPPEDITEM(#180,#185);
#187= IFCCARTESIANPOINT((220.,0.,45.));
#188= IFCCARTESIANTRANSFORMATIONOPERATOR3D($,$,#187,$,$);
#189= IFCMAPPEDITEM(#180,#188);
#190= IFCCARTESIANPOINT((290.,0.,45.));
#191= IFCCARTESIANTRANSFORMATIONOPERATOR3D($,$,#190,$,$);
#192= IFCMAPPEDITEM(#180,#191);
#193= IFCCARTESIANPOINT((360.,0.,45.));
#194= IFCCARTESIANTRANSFORMATIONOPERATOR3D($,$,#193,$,$);
#195= IFCMAPPEDITEM(#180,#194);
#196= IFCSHAPEREPRESENTATION(#12,'Body','MappedRepresentation',(#183,#186,#189,#192,#195));
#197= IFCPRODUCTDEFINITIONSHAPE($,$,(#196));
#198= IFCOPENINGELEMENT('3fIL6jmt92y9msvqjBSpDP',#5,$,$,'Opening',#175,#197,$);
#199= IFCRELVOIDSELEMENT('07gEkfggDBEx0LCmEuPPZv',#5,'Drill Hole',$,#69,#198);
#200= IFCCARTESIANPOINT((42294.9749011724,23896.8840303914,19369.));
#201= IFCAXIS2PLACEMENT3D(#200,#52,#53);
#202= IFCLOCALPLACEMENT(#42,#201);
#203= IFCSHAPEREPRESENTATION(#12,'Body','MappedRepresentation',(#134,#137,#140,#143,#146,#149,#152,#155,#158,#161,#104,#107,#110,#113,#116,#119,#122,#125,#128,#131));
#204= IFCPRODUCTDEFINITIONSHAPE($,$,(#203));
#205= IFCOPENINGELEMENT('2tmUWMoDbDFwLBGhfrzuaU',#5,$,$,'Opening',#202,#204,$);
#206= IFCRELVOIDSELEMENT('11YCVq3RjDXxIUUgf3MNGj',#5,'Drill Hole',$,#69,#205);
#207= IFCCARTESIANPOINT((42499.9998561392,23721.8840328359,19369.));
#208= IFCAXIS2PLACEMENT3D(#207,#7,#52);
#209= IFCLOCALPLACEMENT(#42,#208);
#210= IFCCARTESIANPOINT((34179.9997834091,23896.8840303914,18910.));
#211= IFCDIRECTION((0.00218027700042148,-0.999997623193276,0.));
#212= IFCDIRECTION((0.999997623193276,0.00218027700041918,0.));
#213= IFCAXIS2PLACEMENT3D(#210,#211,#212);
#214= IFCLOCALPLACEMENT(#42,#213);
#215= IFCCIRCLEPROFILEDEF(.AREA.,$,#50,11.);
#216= IFCCARTESIANPOINT((0.,-0.1,0.));
#217= IFCAXIS2PLACEMENT3D(#216,#8,#7);
#218= IFCEXTRUDEDAREASOLID(#215,#217,#9,21.2);
#219= IFCSHAPEREPRESENTATION(#12,'Body','SweptSolid',(#218));
#220= IFCREPRESENTATIONMAP(#10,#219);
#221= IFCMAPPEDITEM(#220,#103);
#222= IFCMAPPEDITEM(#220,#106);
#223= IFCMAPPEDITEM(#220,#109);
#224= IFCMAPPEDITEM(#220,#112);
#225= IFCMAPPEDITEM(#220,#115);
#226= IFCMAPPEDITEM(#220,#118);
#227= IFCMAPPEDITEM(#220,#121);
#228= IFCMAPPEDITEM(#220,#124);
#229= IFCMAPPEDITEM(#220,#127);
#230= IFCMAPPEDITEM(#220,#130);
#231= IFCMAPPEDITEM(#220,#133);
#232= IFCMAPPEDITEM(#220,#136);
#233= IFCMAPPEDITEM(#220,#139);
#234= IFCMAPPEDITEM(#220,#142);
#235= IFCMAPPEDITEM(#220,#145);
#236= IFCMAPPEDITEM(#220,#148);
#237= IFCMAPPEDITEM(#220,#151);
#238= IFCMAPPEDITEM(#220,#154);
#239= IFCMAPPEDITEM(#220,#157);
#240= IFCMAPPEDITEM(#220,#160);
#241= IFCSHAPEREPRESENTATION(#12,'Body','MappedRepresentation',(#221,#222,#223,#224,#225,#226,#227,#228,#229,#230,#231,#232,#233,#234,#235,#236,#237,#238,#239,#240));
#242= IFCPRODUCTDEFINITIONSHAPE($,$,(#241));
#243= IFCOPENINGELEMENT('2fE995hCn7Qw0kp3x47Yik',#5,$,$,'Opening',#214,#242,$);
#244= IFCRELVOIDSELEMENT('1z3i2pDrv3lxt0dgDHD04X',#5,'Drill Hole',$,#69,#243);
#245= IFCCARTESIANPOINT((34134.9997834091,23896.8840303914,19350.));
#246= IFCAXIS2PLACEMENT3D(#245,#7,#72);
#247= IFCLOCALPLACEMENT(#42,#246);
#248= IFCSHAPEREPRESENTATION(#12,'Body','MappedRepresentation',(#183,#186,#189,#192,#195));
#249= IFCPRODUCTDEFINITIONSHAPE($,$,(#248));
#250= IFCOPENINGELEMENT('1U7g_pm6T6RxlEoeQ0cC22',#5,$,$,'Opening',#247,#249,$);
#251= IFCRELVOIDSELEMENT('1JASMrMfDDMvOkSGo84o5C',#5,'Drill Hole',$,#69,#250);
#252= IFCCARTESIANPOINT((34179.9997834091,23896.8840303914,19350.));
#253= IFCDIRECTION((-0.00218027700042148,0.999997623193276,0.));
#254= IFCAXIS2PLACEMENT3D(#252,#253,#212);
#255= IFCLOCALPLACEMENT(#42,#254);
#256= IFCSHAPEREPRESENTATION(#12,'Body','MappedRepresentation',(#231,#232,#233,#234,#235,#236,#237,#238,#239,#240,#221,#222,#223,#224,#225,#226,#227,#228,#229,#230));
#257= IFCPRODUCTDEFINITIONSHAPE($,$,(#256));
#258= IFCOPENINGELEMENT('30Uzf08bz8kujCshAtNJvz',#5,$,$,'Opening',#255,#257,$);
#259= IFCRELVOIDSELEMENT('2kmhLOzoHE_wWjzqrrXhGL',#5,'Drill Hole',$,#69,#258);
#260= IFCPROPERTYSINGLEVALUE('PieceMark',$,IFCIDENTIFIER('BEAM'),$);
#261= IFCPROPERTYSINGLEVALUE('IndicationMark',$,IFCIDENTIFIER('b/234'),$);
#262= IFCPROPERTYSINGLEVALUE('PrelimMark',$,IFCIDENTIFIER(''),$);
#263= IFCPROPERTYSINGLEVALUE('MainPieceTag',$,IFCBOOLEAN(.T.),$);
#264= IFCPROPERTYSET('27yL9YgAH4RhugYwFnxNXL',#5,'AISC_EM11_Pset_PieceIdentification','PieceIdentity',(#260,#261,#262,#263));
#265= IFCPROPERTYSINGLEVALUE('MaterialType',$,IFCIDENTIFIER('STEEL'),$);
#266= IFCPROPERTYSINGLEVALUE('MaterialGrade',$,IFCIDENTIFIER('S235JR'),$);
#267= IFCPROPERTYSET('1wZjkAb4596Q2Gbhh7izmx',#5,'AISC_EM11_Pset_Material',$,(#265,#266));
#268= IFCPROPERTYSINGLEVALUE('SkewedAngleY',$,IFCREAL(0.),$);
#269= IFCPROPERTYSINGLEVALUE('SkewedAngleX',$,IFCREAL(0.),$);
#270= IFCPROPERTYSET('2qExKJ$6zEshlXQYY1o0PN',#5,'AISC_EM11_Pset_SkewedEnd',$,(#268,#269));
#271= IFCPROPERTYSET('2OouGLh49Cj9jj7FQnotvD',#5,'AISC_EM11_Pset_SkewedEnd_2',$,(#268,#269));
#272= IFCMATERIAL('STEEL/S235JR');
#273= IFCRELAGGREGATES('0o7sR6p3n699jvxJiS4FUS',#5,$,$,#37,(#39));
#274= IFCRELAGGREGATES('24P8jO5L3ORR$BDb_kMXmk',#5,$,$,#39,(#41));
#275= IFCRELAGGREGATES('1vgCGzVYvFTx8_w9vVWRy6',#5,$,$,#41,(#43));
#276= IFCRELCONTAINEDINSPATIALSTRUCTURE('3htU26im94CR5H82zAL0tl',#5,$,$,(#69),#43);
#277= IFCRELDEFINESBYPROPERTIES('0I1MjAiH92cAIghDnwUSS9',#5,$,$,(#91,#78),#84);
#278= IFCRELDEFINESBYPROPERTIES('1beG0hbAj2zx4WW14CT4pJ',#5,$,$,(#258,#250,#243,#205,#198,#164),#169);
#279= IFCRELDEFINESBYPROPERTIES('2BPpLNE6rAuOUtvAYEH7j0',#5,$,$,(#69),#264);
#280= IFCRELDEFINESBYPROPERTIES('2atuOHwGnAg9$PKAnfYM2p',#5,$,$,(#69),#267);
#281= IFCRELDEFINESBYPROPERTIES('2ESq8CuWD1fPoFEHmz033m',#5,$,$,(#69),#270);
#282= IFCRELDEFINESBYPROPERTIES('0MFhSo36f7_RYOw8Mb1doX',#5,$,$,(#69),#271);
#283= IFCRELASSOCIATESMATERIAL('1r8vcqYVf0Ou_x20Cdstvr',#5,$,$,(#69),#272);
ENDSEC;

END-ISO-10303-21;
