ISO-10303-21;
HEADER;
FILE_DESCRIPTION(('ViewDefinition[AISC_Steel_Detailing]', 'Option [BaseQuantities:Off]', 'Option [GridExport:On]', 'Option [Assemblies:Off]', 'Option [Bolts:On]', 'Option [Rebars:On]', 'Option [PourObjects:Off]', 'Option [Welds:On]', 'Option [SurfaceTreatments:On]', 'Option [LocationBy:0]', 'Option [ViewColors:Off]', 'Option [SectionedSpine:Off]', 'Option [PropertySets:On]', 'Option [Export all:Off]'),'2;1');
FILE_NAME('b_231_Qty_1.ifc','2026-05-16T11:53:10',('GIOVANNIPC\\gcorrea'),('Structural Designer'),'IFC Database version: Work','Tekla Structures 2020 Service Pack 5, IFC Export Version: 4.0.0.0 Dec  7 2020','');
FILE_SCHEMA(('IFC2X3'));
ENDSEC;

DATA;
#1= IFCPERSON('GIOVANNIPC\\gcorrea','Undefined',$,$,$,$,$,$);
#2= IFCORGANIZATION($,'Trimble Solutions Corporation',$,$,$);
#3= IFCPERSONANDORGANIZATION(#1,#2,$);
#4= IFCAPPLICATION(#2,'2020 Service Pack 5','Tekla Structures','Multi material modeling');
#5= IFCOWNERHISTORY(#3,#4,$,.NOCHANGE.,$,$,$,1778950390);
#6= IFCCARTESIANPOINT((0.,0.,0.));
#7= IFCDIRECTION((1.,0.,0.));
#8= IFCDIRECTION((0.,1.,0.));
#9= IFCDIRECTION((0.,0.,1.));
#10= IFCAXIS2PLACEMENT3D(#6,#9,#7);
#11= IFCGEOMETRICREPRESENTATIONCONTEXT($,'Model',3,1.E-05,#10,$);
#12= IFCGEOMETRICREPRESENTATIONSUBCONTEXT('Body','Model',*,*,*,*,#11,$,.MODEL_VIEW.,$);
#13= IFCGEOMETRICREPRESENTATIONSUBCONTEXT('Axis','Model',*,*,*,*,#11,$,.GRAPH_VIEW.,$);
#14= IFCGEOMETRICREPRESENTATIONSUBCONTEXT('FootPrint','Model',*,*,*,*,#11,$,.MODEL_VIEW.,$);
#15= IFCSIUNIT(*,.LENGTHUNIT.,.MILLI.,.METRE.);
#16= IFCMEASUREWITHUNIT(IFCRATIOMEASURE(304.8),#15);
#17= IFCDIMENSIONALEXPONENTS(1,0,0,0,0,0,0);
#18= IFCCONVERSIONBASEDUNIT(#17,.LENGTHUNIT.,'FOOT',#16);
#19= IFCSIUNIT(*,.AREAUNIT.,$,.SQUARE_METRE.);
#20= IFCMEASUREWITHUNIT(IFCRATIOMEASURE(0.09290304),#19);
#21= IFCDIMENSIONALEXPONENTS(2,0,0,0,0,0,0);
#22= IFCCONVERSIONBASEDUNIT(#21,.AREAUNIT.,'SQUARE FOOT',#20);
#23= IFCSIUNIT(*,.VOLUMEUNIT.,$,.CUBIC_METRE.);
#24= IFCMEASUREWITHUNIT(IFCRATIOMEASURE(0.028316846592),#23);
#25= IFCDIMENSIONALEXPONENTS(3,0,0,0,0,0,0);
#26= IFCCONVERSIONBASEDUNIT(#25,.VOLUMEUNIT.,'CUBIC FOOT',#24);
#27= IFCSIUNIT(*,.MASSUNIT.,.KILO.,.GRAM.);
#28= IFCSIUNIT(*,.TIMEUNIT.,$,.SECOND.);
#29= IFCSIUNIT(*,.PLANEANGLEUNIT.,$,.RADIAN.);
#30= IFCMEASUREWITHUNIT(IFCRATIOMEASURE(0.0174532925199433),#29);
#31= IFCDIMENSIONALEXPONENTS(0,0,0,0,0,0,0);
#32= IFCCONVERSIONBASEDUNIT(#31,.PLANEANGLEUNIT.,'DEGREE',#30);
#33= IFCSIUNIT(*,.SOLIDANGLEUNIT.,$,.STERADIAN.);
#34= IFCSIUNIT(*,.THERMODYNAMICTEMPERATUREUNIT.,$,.DEGREE_CELSIUS.);
#35= IFCSIUNIT(*,.LUMINOUSINTENSITYUNIT.,$,.LUMEN.);
#36= IFCUNITASSIGNMENT((#15,#19,#23,#27,#28,#29,#33,#34,#35));
#37= IFCPROJECT('2G7ZFDNE16yBDU14FA92Me',#5,'Proyecto',$,$,$,$,(#11),#36);
#38= IFCLOCALPLACEMENT($,#10);
#39= IFCSITE('2xvEzEinjBTea80yOTcujY',#5,'Obra',$,$,#38,$,$,.ELEMENT.,$,$,$,$,$);
#40= IFCLOCALPLACEMENT(#38,#10);
#41= IFCBUILDING('1tsgO3ogjCPxgk6jFHzXQ6',#5,'Undefined',$,$,#40,$,$,.ELEMENT.,$,$,$);
#42= IFCLOCALPLACEMENT(#40,#10);
#43= IFCBUILDINGSTOREY('29hdEUCErFze9E_VIAceOd',#5,'Undefined',$,$,#42,$,$,.ELEMENT.,0.);
#44= IFCOWNERHISTORY(#3,#4,$,.NOCHANGE.,$,$,$,1774029600);
#45= IFCCARTESIANPOINT((25726.3588837509,21995.2994051473,19125.));
#46= IFCAXIS2PLACEMENT3D(#45,#9,#7);
#47= IFCLOCALPLACEMENT(#42,#46);
#48= IFCDIRECTION((1.,0.));
#49= IFCCARTESIANPOINT((0.,0.));
#50= IFCAXIS2PLACEMENT2D(#49,#48);
#51= IFCISHAPEPROFILEDEF(.AREA.,'IPE450',#50,190.,450.,9.399999619,14.60000038,21.);
#52= IFCDIRECTION((0.,-1.,0.));
#53= IFCDIRECTION((-1.,0.,0.));
#54= IFCCARTESIANPOINT((8101.15356840285,0.,0.));
#55= IFCAXIS2PLACEMENT3D(#54,#53,#52);
#56= IFCEXTRUDEDAREASOLID(#51,#55,#9,8167.44);
#57= IFCCARTESIANPOINT((8101.15062868675,4.60129065348156,-325.));
#58= IFCAXIS2PLACEMENT3D(#57,#53,#8);
#59= IFCPLANE(#58);
#60= IFCHALFSPACESOLID(#59,.T.);
#61= IFCBOOLEANCLIPPINGRESULT(.DIFFERENCE.,#56,#60);
#62= IFCDIRECTION((0.999999999530656,3.06379999858012E-05,0.));
#63= IFCCARTESIANPOINT((-66.2868171014416,0.00472591132347588,-325.));
#64= IFCDIRECTION((3.06379999858012E-05,-0.999999999530657,0.));
#65= IFCAXIS2PLACEMENT3D(#63,#62,#64);
#66= IFCPLANE(#65);
#67= IFCHALFSPACESOLID(#66,.T.);
#68= IFCBOOLEANCLIPPINGRESULT(.DIFFERENCE.,#61,#67);
#69= IFCSHAPEREPRESENTATION(#12,'Body','Clipping',(#68));
#70= IFCPRODUCTDEFINITIONSHAPE($,$,(#69));
#71= IFCBEAM('0bQiGHXLH0txkMCuPpsUBO',#44,'BEAM','IPE450','IPE450',#47,#70,'ID256ac411-8554-40df-bb96-338673d9e2d8');
#72= IFCLOCALPLACEMENT(#42,#46);
#73= IFCRECTANGLEPROFILEDEF(.AREA.,'PL59*156.3',#50,59.,156.3);
#74= IFCDIRECTION((0.,0.,-1.));
#75= IFCDIRECTION((-3.06379999889719E-05,0.999999999530657,0.));
#76= IFCCARTESIANPOINT((-144.408868006503,-96.2526274430929,-196.5));
#77= IFCAXIS2PLACEMENT3D(#76,#75,#74);
#78= IFCEXTRUDEDAREASOLID(#73,#77,#9,192.25);
#79= IFCSHAPEREPRESENTATION(#12,'Body','SweptSolid',(#78));
#80= IFCPRODUCTDEFINITIONSHAPE($,$,(#79));
#81= IFCOPENINGELEMENT('2cfOOXWnD5Qf4n7WHLcB3x',#5,$,$,'Recess',#72,#80,$);
#82= IFCRELVOIDSELEMENT('0$3sQsaCr5IfA_VNJxmOfT',#5,$,$,#71,#81);
#83= IFCPROPERTYSINGLEVALUE('FeatureSubTypes',$,$,$);
#84= IFCPROPERTYSINGLEVALUE('RectangleOpeningWidth',$,IFCPOSITIVELENGTHMEASURE(59.),$);
#85= IFCPROPERTYSINGLEVALUE('RectangleOpeningHeight',$,IFCPOSITIVELENGTHMEASURE(156.3),$);
#86= IFCPROPERTYSINGLEVALUE('OpeningDiameter',$,$,$);
#87= IFCPROPERTYSET('2HWaAc6SDAHOab8XYjmHfA',#5,'AISC_EM11_Pset_Opening/Cope',$,(#83,#84,#85,#86));
#88= IFCLOCALPLACEMENT(#42,#46);
#89= IFCRECTANGLEPROFILEDEF(.AREA.,'PL49*156.3',#50,49.,156.3);
#90= IFCCARTESIANPOINT((-144.408868006503,-96.2526274430929,201.5));
#91= IFCAXIS2PLACEMENT3D(#90,#75,#74);
#92= IFCEXTRUDEDAREASOLID(#89,#91,#9,192.25);
#93= IFCSHAPEREPRESENTATION(#12,'Body','SweptSolid',(#92));
#94= IFCPRODUCTDEFINITIONSHAPE($,$,(#93));
#95= IFCOPENINGELEMENT('1CizKA6uzEDBMwljdz5mVt',#5,$,$,'Recess',#88,#94,$);
#96= IFCRELVOIDSELEMENT('0fV2cgWhrF8PBy7fIdhX8j',#5,$,$,#71,#95);
#97= IFCPROPERTYSINGLEVALUE('RectangleOpeningWidth',$,IFCPOSITIVELENGTHMEASURE(49.),$);
#98= IFCPROPERTYSET('0SGGVG9OzBsh3ER6Obcdvn',#5,'AISC_EM11_Pset_Opening/Cope',$,(#83,#97,#85,#86));
#99= IFCLOCALPLACEMENT(#42,#46);
#100= IFCRECTANGLEPROFILEDEF(.AREA.,'PL106.1*12',#50,12.,106.1);
#101= IFCCARTESIANPOINT((8117.14573513881,-38.349024320476,226.));
#102= IFCAXIS2PLACEMENT3D(#101,#74,#53);
#103= IFCEXTRUDEDAREASOLID(#100,#102,#9,452.);
#104= IFCSHAPEREPRESENTATION(#12,'Body','SweptSolid',(#103));
#105= IFCPRODUCTDEFINITIONSHAPE($,$,(#104));
#106= IFCOPENINGELEMENT('3RYPEcFmL3qBvlGPryuKi5',#5,$,$,'Recess',#99,#105,$);
#107= IFCRELVOIDSELEMENT('0wUvfQ8QL1sfPOYACiqpnc',#5,$,$,#71,#106);
#108= IFCPROPERTYSINGLEVALUE('RectangleOpeningWidth',$,IFCPOSITIVELENGTHMEASURE(12.),$);
#109= IFCPROPERTYSINGLEVALUE('RectangleOpeningHeight',$,IFCPOSITIVELENGTHMEASURE(106.1),$);
#110= IFCPROPERTYSET('3MT$QM17j1iObVZsMPSae$',#5,'AISC_EM11_Pset_Opening/Cope',$,(#83,#108,#109,#86));
#111= IFCLOCALPLACEMENT(#42,#46);
#112= IFCRECTANGLEPROFILEDEF(.AREA.,'PL105.9*12',#50,12.,105.9);
#113= IFCCARTESIANPOINT((8117.14573513881,47.650975679524,226.));
#114= IFCAXIS2PLACEMENT3D(#113,#74,#53);
#115= IFCEXTRUDEDAREASOLID(#112,#114,#9,452.);
#116= IFCSHAPEREPRESENTATION(#12,'Body','SweptSolid',(#115));
#117= IFCPRODUCTDEFINITIONSHAPE($,$,(#116));
#118= IFCOPENINGELEMENT('3MUmvyhprBfQeml5AOkaBl',#5,$,$,'Recess',#111,#117,$);
#119= IFCRELVOIDSELEMENT('3QyaHKsNT0xPLmBbaD9tu1',#5,$,$,#71,#118);
#120= IFCPROPERTYSINGLEVALUE('RectangleOpeningHeight',$,IFCPOSITIVELENGTHMEASURE(105.9),$);
#121= IFCPROPERTYSET('0fNNoTVtXFiACUiBKOwDG3',#5,'AISC_EM11_Pset_Opening/Cope',$,(#83,#108,#120,#86));
#122= IFCCARTESIANPOINT((25660.0720666469,21995.3041310586,19195.));
#123= IFCAXIS2PLACEMENT3D(#122,#62,#74);
#124= IFCLOCALPLACEMENT(#42,#123);
#125= IFCCIRCLEPROFILEDEF(.AREA.,$,#50,11.);
#126= IFCCARTESIANPOINT((0.,-4.80595124298829,0.));
#127= IFCAXIS2PLACEMENT3D(#126,#8,#7);
#128= IFCEXTRUDEDAREASOLID(#125,#127,#9,9.6);
#129= IFCSHAPEREPRESENTATION(#12,'Body','SweptSolid',(#128));
#130= IFCREPRESENTATIONMAP(#10,#129);
#131= IFCCARTESIANPOINT((40.,0.,40.0000000000036));
#132= IFCCARTESIANTRANSFORMATIONOPERATOR3D($,$,#131,$,$);
#133= IFCMAPPEDITEM(#130,#132);
#134= IFCCARTESIANPOINT((100.,0.,40.0000000000036));
#135= IFCCARTESIANTRANSFORMATIONOPERATOR3D($,$,#134,$,$);
#136= IFCMAPPEDITEM(#130,#135);
#137= IFCSHAPEREPRESENTATION(#12,'Body','MappedRepresentation',(#133,#136));
#138= IFCPRODUCTDEFINITIONSHAPE($,$,(#137));
#139= IFCOPENINGELEMENT('2kqLlKj5nEjPj$y66Pw$T_',#5,$,$,'Opening',#124,#138,$);
#140= IFCRELVOIDSELEMENT('0ncvtOitHA9RizIhPums5s',#5,'Drill Hole',$,#71,#139);
#141= IFCPROPERTYSINGLEVALUE('FeatureSubTypes',$,IFCLABEL('TORNILLO'),$);
#142= IFCPROPERTYSINGLEVALUE('RectangleOpeningWidth',$,$,$);
#143= IFCPROPERTYSINGLEVALUE('RectangleOpeningHeight',$,$,$);
#144= IFCPROPERTYSET('3S7qmkqsHFffoiVlcUQhIY',#5,'AISC_EM11_Pset_Opening/Cope',$,(#141,#142,#143,#86));
#145= IFCCARTESIANPOINT((25700.0719258557,21999.8995294734,18910.));
#146= IFCAXIS2PLACEMENT3D(#145,#52,#7);
#147= IFCLOCALPLACEMENT(#42,#146);
#148= IFCCIRCLEPROFILEDEF(.AREA.,$,#50,11.5);
#149= IFCCARTESIANPOINT((0.,-10.1,0.));
#150= IFCAXIS2PLACEMENT3D(#149,#8,#7);
#151= IFCEXTRUDEDAREASOLID(#148,#150,#9,14.8);
#152= IFCSHAPEREPRESENTATION(#12,'Body','SweptSolid',(#151));
#153= IFCREPRESENTATIONMAP(#10,#152);
#154= IFCCARTESIANPOINT((0.,0.,50.));
#155= IFCCARTESIANTRANSFORMATIONOPERATOR3D($,$,#154,$,$);
#156= IFCMAPPEDITEM(#153,#155);
#157= IFCCARTESIANPOINT((70.,0.,50.));
#158= IFCCARTESIANTRANSFORMATIONOPERATOR3D($,$,#157,$,$);
#159= IFCMAPPEDITEM(#153,#158);
#160= IFCCARTESIANPOINT((140.,0.,50.));
#161= IFCCARTESIANTRANSFORMATIONOPERATOR3D($,$,#160,$,$);
#162= IFCMAPPEDITEM(#153,#161);
#163= IFCCARTESIANPOINT((210.,0.,50.));
#164= IFCCARTESIANTRANSFORMATIONOPERATOR3D($,$,#163,$,$);
#165= IFCMAPPEDITEM(#153,#164);
#166= IFCCARTESIANPOINT((280.,0.,50.));
#167= IFCCARTESIANTRANSFORMATIONOPERATOR3D($,$,#166,$,$);
#168= IFCMAPPEDITEM(#153,#167);
#169= IFCCARTESIANPOINT((350.,0.,50.));
#170= IFCCARTESIANTRANSFORMATIONOPERATOR3D($,$,#169,$,$);
#171= IFCMAPPEDITEM(#153,#170);
#172= IFCCARTESIANPOINT((420.,0.,50.));
#173= IFCCARTESIANTRANSFORMATIONOPERATOR3D($,$,#172,$,$);
#174= IFCMAPPEDITEM(#153,#173);
#175= IFCCARTESIANPOINT((0.,0.,-50.));
#176= IFCCARTESIANTRANSFORMATIONOPERATOR3D($,$,#175,$,$);
#177= IFCMAPPEDITEM(#153,#176);
#178= IFCCARTESIANPOINT((70.,0.,-50.));
#179= IFCCARTESIANTRANSFORMATIONOPERATOR3D($,$,#178,$,$);
#180= IFCMAPPEDITEM(#153,#179);
#181= IFCCARTESIANPOINT((140.,0.,-50.));
#182= IFCCARTESIANTRANSFORMATIONOPERATOR3D($,$,#181,$,$);
#183= IFCMAPPEDITEM(#153,#182);
#184= IFCCARTESIANPOINT((210.,0.,-50.));
#185= IFCCARTESIANTRANSFORMATIONOPERATOR3D($,$,#184,$,$);
#186= IFCMAPPEDITEM(#153,#185);
#187= IFCCARTESIANPOINT((280.,0.,-50.));
#188= IFCCARTESIANTRANSFORMATIONOPERATOR3D($,$,#187,$,$);
#189= IFCMAPPEDITEM(#153,#188);
#190= IFCCARTESIANPOINT((350.,0.,-50.));
#191= IFCCARTESIANTRANSFORMATIONOPERATOR3D($,$,#190,$,$);
#192= IFCMAPPEDITEM(#153,#191);
#193= IFCCARTESIANPOINT((420.,0.,-50.));
#194= IFCCARTESIANTRANSFORMATIONOPERATOR3D($,$,#193,$,$);
#195= IFCMAPPEDITEM(#153,#194);
#196= IFCSHAPEREPRESENTATION(#12,'Body','MappedRepresentation',(#156,#159,#162,#165,#168,#171,#174,#177,#180,#183,#186,#189,#192,#195));
#197= IFCPRODUCTDEFINITIONSHAPE($,$,(#196));
#198= IFCOPENINGELEMENT('0xUXUzvdfCrx3IPbVbZ5g2',#5,$,$,'Opening',#147,#197,$);
#199= IFCRELVOIDSELEMENT('3DNIOYBSvBJg5A3NdFge5K',#5,'Drill Hole',$,#71,#198);
#200= IFCCARTESIANPOINT((25700.0703940214,21999.8973847665,19350.));
#201= IFCAXIS2PLACEMENT3D(#200,#8,#7);
#202= IFCLOCALPLACEMENT(#42,#201);
#203= IFCCARTESIANPOINT((0.,-0.1,0.));
#204= IFCAXIS2PLACEMENT3D(#203,#8,#7);
#205= IFCEXTRUDEDAREASOLID(#148,#204,#9,14.8);
#206= IFCSHAPEREPRESENTATION(#12,'Body','SweptSolid',(#205));
#207= IFCREPRESENTATIONMAP(#10,#206);
#208= IFCMAPPEDITEM(#207,#176);
#209= IFCMAPPEDITEM(#207,#179);
#210= IFCMAPPEDITEM(#207,#182);
#211= IFCMAPPEDITEM(#207,#185);
#212= IFCMAPPEDITEM(#207,#188);
#213= IFCMAPPEDITEM(#207,#191);
#214= IFCMAPPEDITEM(#207,#194);
#215= IFCMAPPEDITEM(#207,#155);
#216= IFCMAPPEDITEM(#207,#158);
#217= IFCMAPPEDITEM(#207,#161);
#218= IFCMAPPEDITEM(#207,#164);
#219= IFCMAPPEDITEM(#207,#167);
#220= IFCMAPPEDITEM(#207,#170);
#221= IFCMAPPEDITEM(#207,#173);
#222= IFCSHAPEREPRESENTATION(#12,'Body','MappedRepresentation',(#208,#209,#210,#211,#212,#213,#214,#215,#216,#217,#218,#219,#220,#221));
#223= IFCPRODUCTDEFINITIONSHAPE($,$,(#222));
#224= IFCOPENINGELEMENT('2iB3sB2X9EABwNq$7Z1m30',#5,$,$,'Opening',#202,#223,$);
#225= IFCRELVOIDSELEMENT('1sSkQL3GL59B7PQl9VKKuz',#5,'Drill Hole',$,#71,#224);
#226= IFCCARTESIANPOINT((33827.5095969188,21999.9612007851,19350.));
#227= IFCDIRECTION((0.999996100900047,-0.00279252299971995,0.));
#228= IFCAXIS2PLACEMENT3D(#226,#227,#74);
#229= IFCLOCALPLACEMENT(#42,#228);
#230= IFCCARTESIANPOINT((0.,-9.57353333487348,0.));
#231= IFCAXIS2PLACEMENT3D(#230,#8,#7);
#232= IFCEXTRUDEDAREASOLID(#148,#231,#9,9.6);
#233= IFCSHAPEREPRESENTATION(#12,'Body','SweptSolid',(#232));
#234= IFCREPRESENTATIONMAP(#10,#233);
#235= IFCCARTESIANPOINT((85.,0.,-40.0000000001164));
#236= IFCCARTESIANTRANSFORMATIONOPERATOR3D($,$,#235,$,$);
#237= IFCMAPPEDITEM(#234,#236);
#238= IFCCARTESIANPOINT((155.,0.,-40.0000000001164));
#239= IFCCARTESIANTRANSFORMATIONOPERATOR3D($,$,#238,$,$);
#240= IFCMAPPEDITEM(#234,#239);
#241= IFCCARTESIANPOINT((225.,0.,-40.0000000001164));
#242= IFCCARTESIANTRANSFORMATIONOPERATOR3D($,$,#241,$,$);
#243= IFCMAPPEDITEM(#234,#242);
#244= IFCCARTESIANPOINT((295.,0.,-40.0000000001164));
#245= IFCCARTESIANTRANSFORMATIONOPERATOR3D($,$,#244,$,$);
#246= IFCMAPPEDITEM(#234,#245);
#247= IFCCARTESIANPOINT((365.,0.,-40.0000000001164));
#248= IFCCARTESIANTRANSFORMATIONOPERATOR3D($,$,#247,$,$);
#249= IFCMAPPEDITEM(#234,#248);
#250= IFCSHAPEREPRESENTATION(#12,'Body','MappedRepresentation',(#237,#240,#243,#246,#249));
#251= IFCPRODUCTDEFINITIONSHAPE($,$,(#250));
#252= IFCOPENINGELEMENT('3W4MeXrcLDkvN4ePAOG8wH',#5,$,$,'Opening',#229,#251,$);
#253= IFCRELVOIDSELEMENT('1Gw4V3SpHB0xlyPqpv2dSk',#5,'Drill Hole',$,#71,#252);
#254= IFCCARTESIANPOINT((33787.4861290877,22000.2526060052,18900.));
#255= IFCDIRECTION((-0.000467666999837092,0.999999890643783,0.));
#256= IFCDIRECTION((-0.999999890643783,-0.000467666999833834,0.));
#257= IFCAXIS2PLACEMENT3D(#254,#255,#256);
#258= IFCLOCALPLACEMENT(#42,#257);
#259= IFCSHAPEREPRESENTATION(#12,'Body','MappedRepresentation',(#208,#209,#210,#211,#212,#213,#214,#215,#216,#217,#218,#219,#220,#221));
#260= IFCPRODUCTDEFINITIONSHAPE($,$,(#259));
#261= IFCOPENINGELEMENT('2MU1TYlZnE6x72IYEIugrh',#5,$,$,'Opening',#258,#260,$);
#262= IFCRELVOIDSELEMENT('2uaeSBSrX289Y3duAYFv5g',#5,'Drill Hole',$,#71,#261);
#263= IFCCARTESIANPOINT((33787.4861290877,22000.2526060052,19350.));
#264= IFCDIRECTION((0.000467666999829816,-0.999999890643783,0.));
#265= IFCAXIS2PLACEMENT3D(#263,#264,#256);
#266= IFCLOCALPLACEMENT(#42,#265);
#267= IFCSHAPEREPRESENTATION(#12,'Body','MappedRepresentation',(#208,#209,#210,#211,#212,#213,#214,#215,#216,#217,#218,#219,#220,#221));
#268= IFCPRODUCTDEFINITIONSHAPE($,$,(#267));
#269= IFCOPENINGELEMENT('2yVR8eurL0pe36EbSd7xF0',#5,$,$,'Opening',#266,#268,$);
#270= IFCRELVOIDSELEMENT('3Mcee3P9fFuunmhx6uwBwG',#5,'Drill Hole',$,#71,#269);
#271= IFCPROPERTYSINGLEVALUE('PieceMark',$,IFCIDENTIFIER('BEAM'),$);
#272= IFCPROPERTYSINGLEVALUE('IndicationMark',$,IFCIDENTIFIER('b/231'),$);
#273= IFCPROPERTYSINGLEVALUE('PrelimMark',$,IFCIDENTIFIER(''),$);
#274= IFCPROPERTYSINGLEVALUE('MainPieceTag',$,IFCBOOLEAN(.T.),$);
#275= IFCPROPERTYSET('21gOzhCfnDEO5$zikFY5Vk',#5,'AISC_EM11_Pset_PieceIdentification','PieceIdentity',(#271,#272,#273,#274));
#276= IFCPROPERTYSINGLEVALUE('MaterialType',$,IFCIDENTIFIER('STEEL'),$);
#277= IFCPROPERTYSINGLEVALUE('MaterialGrade',$,IFCIDENTIFIER('S235JR'),$);
#278= IFCPROPERTYSET('20kWDslo131vUXNDuLipVB',#5,'AISC_EM11_Pset_Material',$,(#276,#277));
#279= IFCPROPERTYSINGLEVALUE('SkewedAngleY',$,IFCREAL(0.),$);
#280= IFCPROPERTYSINGLEVALUE('SkewedAngleX',$,IFCREAL(-0.00176),$);
#281= IFCPROPERTYSET('3SlLcEi3HBbAXmvcy$cQ3o',#5,'AISC_EM11_Pset_SkewedEnd',$,(#279,#280));
#282= IFCPROPERTYSINGLEVALUE('SkewedAngleX',$,IFCREAL(0.),$);
#283= IFCPROPERTYSET('1ktXKM_pjFeugm6tBm3YT9',#5,'AISC_EM11_Pset_SkewedEnd_2',$,(#279,#282));
#284= IFCMATERIAL('STEEL/S235JR');
#285= IFCRELAGGREGATES('3xILnVpmDD3xycxaW$86m4',#5,$,$,#37,(#39));
#286= IFCRELAGGREGATES('2Dad3n52VVLDEuDsoHQO2M',#5,$,$,#39,(#41));
#287= IFCRELAGGREGATES('1Hhe1NdKDA_ASULY3uoRwj',#5,$,$,#41,(#43));
#288= IFCRELCONTAINEDINSPATIALSTRUCTURE('3TA$ZfTab46hNzXvtU7XiE',#5,$,$,(#71),#43);
#289= IFCRELDEFINESBYPROPERTIES('00iTVaHpPEvRlQTCJ0xMAx',#5,$,$,(#81),#87);
#290= IFCRELDEFINESBYPROPERTIES('1sJ57eVl9CxgOOL1sKJjm4',#5,$,$,(#95),#98);
#291= IFCRELDEFINESBYPROPERTIES('1J3Elp5D15LA4p3xlM2Giz',#5,$,$,(#106),#110);
#292= IFCRELDEFINESBYPROPERTIES('2MbIQgKHX5nAdVauUxlzdv',#5,$,$,(#118),#121);
#293= IFCRELDEFINESBYPROPERTIES('1gkAidb0r4wQNk8rMLtRlI',#5,$,$,(#269,#261,#252,#224,#198,#139),#144);
#294= IFCRELDEFINESBYPROPERTIES('0zsTElgxnArfVXpUBE9kHf',#5,$,$,(#71),#275);
#295= IFCRELDEFINESBYPROPERTIES('0GPVRs4RvBlPcKuBdiA3UI',#5,$,$,(#71),#278);
#296= IFCRELDEFINESBYPROPERTIES('3TxHSYE_r42AQFXkGqbzKN',#5,$,$,(#71),#281);
#297= IFCRELDEFINESBYPROPERTIES('0gag7zvMD3twlxjwKQaaWk',#5,$,$,(#71),#283);
#298= IFCRELASSOCIATESMATERIAL('22UTq0G0DED9oUGjoY$1hA',#5,$,$,(#71),#284);
ENDSEC;

END-ISO-10303-21;
