ISO-10303-21;
HEADER;
FILE_DESCRIPTION(('ViewDefinition[AISC_Steel_Detailing]', 'Option [BaseQuantities:Off]', 'Option [GridExport:On]', 'Option [Assemblies:Off]', 'Option [Bolts:On]', 'Option [Rebars:On]', 'Option [PourObjects:Off]', 'Option [Welds:On]', 'Option [SurfaceTreatments:On]', 'Option [LocationBy:0]', 'Option [ViewColors:Off]', 'Option [SectionedSpine:Off]', 'Option [PropertySets:On]', 'Option [Export all:Off]'),'2;1');
FILE_NAME('b_246_Qty_1.ifc','2026-05-16T11:53:10',('GIOVANNIPC\\gcorrea'),('Structural Designer'),'IFC Database version: Work','Tekla Structures 2020 Service Pack 5, IFC Export Version: 4.0.0.0 Dec  7 2020','');
FILE_SCHEMA(('IFC2X3'));
ENDSEC;

DATA;
#1= IFCPERSON('GIOVANNIPC\\gcorrea','Undefined',$,$,$,$,$,$);
#2= IFCORGANIZATION($,'Trimble Solutions Corporation',$,$,$);
#3= IFCPERSONANDORGANIZATION(#1,#2,$);
#4= IFCAPPLICATION(#2,'2020 Service Pack 5','Tekla Structures','Multi material modeling');
#5= IFCOWNERHISTORY(#3,#4,$,.NOCHANGE.,$,$,$,1778950390);
#6= IFCCARTESIANPOINT((0.,0.,0.));
#7= IFCDIRECTION((1.,0.,0.));
#8= IFCDIRECTION((0.,1.,0.));
#9= IFCDIRECTION((0.,0.,1.));
#10= IFCAXIS2PLACEMENT3D(#6,#9,#7);
#11= IFCGEOMETRICREPRESENTATIONCONTEXT($,'Model',3,1.E-05,#10,$);
#12= IFCGEOMETRICREPRESENTATIONSUBCONTEXT('Body','Model',*,*,*,*,#11,$,.MODEL_VIEW.,$);
#13= IFCGEOMETRICREPRESENTATIONSUBCONTEXT('Axis','Model',*,*,*,*,#11,$,.GRAPH_VIEW.,$);
#14= IFCGEOMETRICREPRESENTATIONSUBCONTEXT('FootPrint','Model',*,*,*,*,#11,$,.MODEL_VIEW.,$);
#15= IFCSIUNIT(*,.LENGTHUNIT.,.MILLI.,.METRE.);
#16= IFCMEASUREWITHUNIT(IFCRATIOMEASURE(304.8),#15);
#17= IFCDIMENSIONALEXPONENTS(1,0,0,0,0,0,0);
#18= IFCCONVERSIONBASEDUNIT(#17,.LENGTHUNIT.,'FOOT',#16);
#19= IFCSIUNIT(*,.AREAUNIT.,$,.SQUARE_METRE.);
#20= IFCMEASUREWITHUNIT(IFCRATIOMEASURE(0.09290304),#19);
#21= IFCDIMENSIONALEXPONENTS(2,0,0,0,0,0,0);
#22= IFCCONVERSIONBASEDUNIT(#21,.AREAUNIT.,'SQUARE FOOT',#20);
#23= IFCSIUNIT(*,.VOLUMEUNIT.,$,.CUBIC_METRE.);
#24= IFCMEASUREWITHUNIT(IFCRATIOMEASURE(0.028316846592),#23);
#25= IFCDIMENSIONALEXPONENTS(3,0,0,0,0,0,0);
#26= IFCCONVERSIONBASEDUNIT(#25,.VOLUMEUNIT.,'CUBIC FOOT',#24);
#27= IFCSIUNIT(*,.MASSUNIT.,.KILO.,.GRAM.);
#28= IFCSIUNIT(*,.TIMEUNIT.,$,.SECOND.);
#29= IFCSIUNIT(*,.PLANEANGLEUNIT.,$,.RADIAN.);
#30= IFCMEASUREWITHUNIT(IFCRATIOMEASURE(0.0174532925199433),#29);
#31= IFCDIMENSIONALEXPONENTS(0,0,0,0,0,0,0);
#32= IFCCONVERSIONBASEDUNIT(#31,.PLANEANGLEUNIT.,'DEGREE',#30);
#33= IFCSIUNIT(*,.SOLIDANGLEUNIT.,$,.STERADIAN.);
#34= IFCSIUNIT(*,.THERMODYNAMICTEMPERATUREUNIT.,$,.DEGREE_CELSIUS.);
#35= IFCSIUNIT(*,.LUMINOUSINTENSITYUNIT.,$,.LUMEN.);
#36= IFCUNITASSIGNMENT((#15,#19,#23,#27,#28,#29,#33,#34,#35));
#37= IFCPROJECT('2G7ZFDNE16yBDU14FA92Me',#5,'Proyecto',$,$,$,$,(#11),#36);
#38= IFCLOCALPLACEMENT($,#10);
#39= IFCSITE('2xvEzEinjBTea80yOTcujY',#5,'Obra',$,$,#38,$,$,.ELEMENT.,$,$,$,$,$);
#40= IFCLOCALPLACEMENT(#38,#10);
#41= IFCBUILDING('16C1O2F_f0gRjrTOk_Adiw',#5,'Undefined',$,$,#40,$,$,.ELEMENT.,$,$,$);
#42= IFCLOCALPLACEMENT(#40,#10);
#43= IFCBUILDINGSTOREY('29hdEUCErFze9E_VIAceOd',#5,'Undefined',$,$,#42,$,$,.ELEMENT.,0.);
#44= IFCOWNERHISTORY(#3,#4,$,.NOCHANGE.,$,$,$,1774036800);
#45= IFCCARTESIANPOINT((59649.9997834091,23896.8859377401,19125.));
#46= IFCAXIS2PLACEMENT3D(#45,#9,#7);
#47= IFCLOCALPLACEMENT(#42,#46);
#48= IFCDIRECTION((1.,0.));
#49= IFCCARTESIANPOINT((0.,0.));
#50= IFCAXIS2PLACEMENT2D(#49,#48);
#51= IFCISHAPEPROFILEDEF(.AREA.,'IPE450',#50,190.,450.,9.399999619,14.60000038,21.);
#52= IFCDIRECTION((0.,-1.,0.));
#53= IFCDIRECTION((-1.,0.,0.));
#54= IFCCARTESIANPOINT((8215.00023866058,0.,-3.63797880709171E-12));
#55= IFCAXIS2PLACEMENT3D(#54,#53,#52);
#56= IFCEXTRUDEDAREASOLID(#51,#55,#9,8349.25);
#57= IFCCARTESIANPOINT((8215.00021659091,-1.15000148070976E-06,-325.000000000004));
#58= IFCAXIS2PLACEMENT3D(#57,#53,#8);
#59= IFCPLANE(#58);
#60= IFCHALFSPACESOLID(#59,.T.);
#61= IFCBOOLEANCLIPPINGRESULT(.DIFFERENCE.,#56,#60);
#62= IFCCARTESIANPOINT((-134.249783409134,1.15000148070976E-06,-325.000000000004));
#63= IFCAXIS2PLACEMENT3D(#62,#7,#52);
#64= IFCPLANE(#63);
#65= IFCHALFSPACESOLID(#64,.T.);
#66= IFCBOOLEANCLIPPINGRESULT(.DIFFERENCE.,#61,#65);
#67= IFCSHAPEREPRESENTATION(#12,'Body','Clipping',(#66));
#68= IFCPRODUCTDEFINITIONSHAPE($,$,(#67));
#69= IFCBEAM('24oUxoRE12EhS$5f_zO$uP',#44,'BEAM','IPE450','IPE450',#47,#68,'ID84c9eef2-6ce0-423a-b73f-169fbd63fe19');
#70= IFCLOCALPLACEMENT(#42,#46);
#71= IFCRECTANGLEPROFILEDEF(.AREA.,'PL59*156.3',#50,59.,156.3);
#72= IFCDIRECTION((0.,0.,-1.));
#73= IFCCARTESIANPOINT((-68.124772369023,-96.0009514105137,-196.500000000004));
#74= IFCAXIS2PLACEMENT3D(#73,#8,#72);
#75= IFCEXTRUDEDAREASOLID(#71,#74,#9,192.);
#76= IFCSHAPEREPRESENTATION(#12,'Body','SweptSolid',(#75));
#77= IFCPRODUCTDEFINITIONSHAPE($,$,(#76));
#78= IFCOPENINGELEMENT('161oFUYKHBReVOBIVOIKYh',#5,$,$,'Recess',#70,#77,$);
#79= IFCRELVOIDSELEMENT('1MVGN4lgXEefsDToKjOf61',#5,$,$,#69,#78);
#80= IFCPROPERTYSINGLEVALUE('FeatureSubTypes',$,$,$);
#81= IFCPROPERTYSINGLEVALUE('RectangleOpeningWidth',$,IFCPOSITIVELENGTHMEASURE(59.),$);
#82= IFCPROPERTYSINGLEVALUE('RectangleOpeningHeight',$,IFCPOSITIVELENGTHMEASURE(156.3),$);
#83= IFCPROPERTYSINGLEVALUE('OpeningDiameter',$,$,$);
#84= IFCPROPERTYSET('3ogBuBsAf3J9mj1Chr6mkY',#5,'AISC_EM11_Pset_Opening/Cope',$,(#80,#81,#82,#83));
#85= IFCLOCALPLACEMENT(#42,#46);
#86= IFCRECTANGLEPROFILEDEF(.AREA.,'PL49*156.3',#50,49.,156.3);
#87= IFCCARTESIANPOINT((-68.124772369023,-96.0009514105137,201.499999999996));
#88= IFCAXIS2PLACEMENT3D(#87,#8,#72);
#89= IFCEXTRUDEDAREASOLID(#86,#88,#9,192.);
#90= IFCSHAPEREPRESENTATION(#12,'Body','SweptSolid',(#89));
#91= IFCPRODUCTDEFINITIONSHAPE($,$,(#90));
#92= IFCOPENINGELEMENT('1wBQ97oDX8deZjTFSoSwIo',#5,$,$,'Recess',#85,#91,$);
#93= IFCRELVOIDSELEMENT('3vs0vu_BX3C9uoZXBbvgme',#5,$,$,#69,#92);
#94= IFCPROPERTYSINGLEVALUE('RectangleOpeningWidth',$,IFCPOSITIVELENGTHMEASURE(49.),$);
#95= IFCPROPERTYSET('1_jCfjuTD08uqbY$YRlGZq',#5,'AISC_EM11_Pset_Opening/Cope',$,(#80,#94,#82,#83));
#96= IFCCARTESIANPOINT((67865.,23896.8849941638,19350.));
#97= IFCAXIS2PLACEMENT3D(#96,#53,#72);
#98= IFCLOCALPLACEMENT(#42,#97);
#99= IFCCIRCLEPROFILEDEF(.AREA.,$,#50,11.5);
#100= IFCCARTESIANPOINT((0.,-4.80000383450674,0.));
#101= IFCAXIS2PLACEMENT3D(#100,#8,#7);
#102= IFCEXTRUDEDAREASOLID(#99,#101,#9,9.6);
#103= IFCSHAPEREPRESENTATION(#12,'Body','SweptSolid',(#102));
#104= IFCREPRESENTATIONMAP(#10,#103);
#105= IFCCARTESIANPOINT((85.,0.,45.));
#106= IFCCARTESIANTRANSFORMATIONOPERATOR3D($,$,#105,$,$);
#107= IFCMAPPEDITEM(#104,#106);
#108= IFCCARTESIANPOINT((155.,0.,45.));
#109= IFCCARTESIANTRANSFORMATIONOPERATOR3D($,$,#108,$,$);
#110= IFCMAPPEDITEM(#104,#109);
#111= IFCCARTESIANPOINT((225.,0.,45.));
#112= IFCCARTESIANTRANSFORMATIONOPERATOR3D($,$,#111,$,$);
#113= IFCMAPPEDITEM(#104,#112);
#114= IFCCARTESIANPOINT((295.,0.,45.));
#115= IFCCARTESIANTRANSFORMATIONOPERATOR3D($,$,#114,$,$);
#116= IFCMAPPEDITEM(#104,#115);
#117= IFCCARTESIANPOINT((365.,0.,45.));
#118= IFCCARTESIANTRANSFORMATIONOPERATOR3D($,$,#117,$,$);
#119= IFCMAPPEDITEM(#104,#118);
#120= IFCSHAPEREPRESENTATION(#12,'Body','MappedRepresentation',(#107,#110,#113,#116,#119));
#121= IFCPRODUCTDEFINITIONSHAPE($,$,(#120));
#122= IFCOPENINGELEMENT('2Apk_I10D1bOslyZuVyIGY',#5,$,$,'Opening',#98,#121,$);
#123= IFCRELVOIDSELEMENT('31lw_AF1f6FefwMDz$R4C_',#5,'Drill Hole',$,#69,#122);
#124= IFCPROPERTYSINGLEVALUE('FeatureSubTypes',$,IFCLABEL('TORNILLO'),$);
#125= IFCPROPERTYSINGLEVALUE('RectangleOpeningWidth',$,$,$);
#126= IFCPROPERTYSINGLEVALUE('RectangleOpeningHeight',$,$,$);
#127= IFCPROPERTYSET('1DH$5h1N12jepJxAkYdJeM',#5,'AISC_EM11_Pset_Opening/Cope',$,(#124,#125,#126,#83));
#128= IFCCARTESIANPOINT((67820.0002165909,23896.8840303914,18910.));
#129= IFCDIRECTION((0.0021802770004142,0.999997623193276,0.));
#130= IFCDIRECTION((-0.999997623193276,0.00218027700041918,0.));
#131= IFCAXIS2PLACEMENT3D(#128,#129,#130);
#132= IFCLOCALPLACEMENT(#42,#131);
#133= IFCCIRCLEPROFILEDEF(.AREA.,$,#50,11.);
#134= IFCCARTESIANPOINT((0.,-10.1,0.));
#135= IFCAXIS2PLACEMENT3D(#134,#8,#7);
#136= IFCEXTRUDEDAREASOLID(#133,#135,#9,14.8);
#137= IFCSHAPEREPRESENTATION(#12,'Body','SweptSolid',(#136));
#138= IFCREPRESENTATIONMAP(#10,#137);
#139= IFCCARTESIANPOINT((-3.63797880709171E-10,0.,-49.9999999998763));
#140= IFCCARTESIANTRANSFORMATIONOPERATOR3D($,$,#139,$,$);
#141= IFCMAPPEDITEM(#138,#140);
#142= IFCCARTESIANPOINT((69.9999999994616,0.,-50.0000000008949));
#143= IFCCARTESIANTRANSFORMATIONOPERATOR3D($,$,#142,$,$);
#144= IFCMAPPEDITEM(#138,#143);
#145= IFCCARTESIANPOINT((139.999999999287,0.,-50.0000000019136));
#146= IFCCARTESIANTRANSFORMATIONOPERATOR3D($,$,#145,$,$);
#147= IFCMAPPEDITEM(#138,#146);
#148= IFCCARTESIANPOINT((209.999999999098,0.,-50.0000000029322));
#149= IFCCARTESIANTRANSFORMATIONOPERATOR3D($,$,#148,$,$);
#150= IFCMAPPEDITEM(#138,#149);
#151= IFCCARTESIANPOINT((279.999999998938,0.,-50.0000000039508));
#152= IFCCARTESIANTRANSFORMATIONOPERATOR3D($,$,#151,$,$);
#153= IFCMAPPEDITEM(#138,#152);
#154= IFCCARTESIANPOINT((349.999999998763,0.,-50.0000000049695));
#155= IFCCARTESIANTRANSFORMATIONOPERATOR3D($,$,#154,$,$);
#156= IFCMAPPEDITEM(#138,#155);
#157= IFCCARTESIANPOINT((419.999999998588,0.,-50.0000000059881));
#158= IFCCARTESIANTRANSFORMATIONOPERATOR3D($,$,#157,$,$);
#159= IFCMAPPEDITEM(#138,#158);
#160= IFCCARTESIANPOINT((3.63797880709171E-10,0.,49.9999999998727));
#161= IFCCARTESIANTRANSFORMATIONOPERATOR3D($,$,#160,$,$);
#162= IFCMAPPEDITEM(#138,#161);
#163= IFCCARTESIANPOINT((70.0000000001892,0.,49.999999998854));
#164= IFCCARTESIANTRANSFORMATIONOPERATOR3D($,$,#163,$,$);
#165= IFCMAPPEDITEM(#138,#164);
#166= IFCCARTESIANPOINT((140.000000000015,0.,49.9999999978354));
#167= IFCCARTESIANTRANSFORMATIONOPERATOR3D($,$,#166,$,$);
#168= IFCMAPPEDITEM(#138,#167);
#169= IFCCARTESIANPOINT((209.999999999825,0.,49.9999999968168));
#170= IFCCARTESIANTRANSFORMATIONOPERATOR3D($,$,#169,$,$);
#171= IFCMAPPEDITEM(#138,#170);
#172= IFCCARTESIANPOINT((279.999999999665,0.,49.9999999958018));
#173= IFCCARTESIANTRANSFORMATIONOPERATOR3D($,$,#172,$,$);
#174= IFCMAPPEDITEM(#138,#173);
#175= IFCCARTESIANPOINT((349.999999999491,0.,49.9999999947831));
#176= IFCCARTESIANTRANSFORMATIONOPERATOR3D($,$,#175,$,$);
#177= IFCMAPPEDITEM(#138,#176);
#178= IFCCARTESIANPOINT((419.999999999302,0.,49.9999999937645));
#179= IFCCARTESIANTRANSFORMATIONOPERATOR3D($,$,#178,$,$);
#180= IFCMAPPEDITEM(#138,#179);
#181= IFCSHAPEREPRESENTATION(#12,'Body','MappedRepresentation',(#141,#144,#147,#150,#153,#156,#159,#162,#165,#168,#171,#174,#177,#180));
#182= IFCPRODUCTDEFINITIONSHAPE($,$,(#181));
#183= IFCOPENINGELEMENT('2TSrKWDfP9SeDbbRuroh7F',#5,$,$,'Opening',#132,#182,$);
#184= IFCRELVOIDSELEMENT('1$JCArOcr4A8ilJBO4qGlm',#5,'Drill Hole',$,#69,#183);
#185= IFCCARTESIANPOINT((67820.0002165909,23896.8840303914,19350.));
#186= IFCDIRECTION((-0.0021802770004142,-0.999997623193276,0.));
#187= IFCAXIS2PLACEMENT3D(#185,#186,#130);
#188= IFCLOCALPLACEMENT(#42,#187);
#189= IFCCARTESIANPOINT((0.,-0.1,0.));
#190= IFCAXIS2PLACEMENT3D(#189,#8,#7);
#191= IFCEXTRUDEDAREASOLID(#133,#190,#9,14.8);
#192= IFCSHAPEREPRESENTATION(#12,'Body','SweptSolid',(#191));
#193= IFCREPRESENTATIONMAP(#10,#192);
#194= IFCMAPPEDITEM(#193,#140);
#195= IFCMAPPEDITEM(#193,#143);
#196= IFCMAPPEDITEM(#193,#146);
#197= IFCMAPPEDITEM(#193,#149);
#198= IFCMAPPEDITEM(#193,#152);
#199= IFCMAPPEDITEM(#193,#155);
#200= IFCMAPPEDITEM(#193,#158);
#201= IFCMAPPEDITEM(#193,#161);
#202= IFCMAPPEDITEM(#193,#164);
#203= IFCMAPPEDITEM(#193,#167);
#204= IFCMAPPEDITEM(#193,#170);
#205= IFCMAPPEDITEM(#193,#173);
#206= IFCMAPPEDITEM(#193,#176);
#207= IFCMAPPEDITEM(#193,#179);
#208= IFCSHAPEREPRESENTATION(#12,'Body','MappedRepresentation',(#194,#195,#196,#197,#198,#199,#200,#201,#202,#203,#204,#205,#206,#207));
#209= IFCPRODUCTDEFINITIONSHAPE($,$,(#208));
#210= IFCOPENINGELEMENT('1P47ZAkKj4791PnlmwDbJ3',#5,$,$,'Opening',#188,#209,$);
#211= IFCRELVOIDSELEMENT('1OGppkgCLCRf1M74u2Z93q',#5,'Drill Hole',$,#69,#210);
#212= IFCCARTESIANPOINT((59515.75,23896.8859520288,19350.));
#213= IFCAXIS2PLACEMENT3D(#212,#7,#72);
#214= IFCLOCALPLACEMENT(#42,#213);
#215= IFCSHAPEREPRESENTATION(#12,'Body','MappedRepresentation',(#107,#110,#113,#116,#119));
#216= IFCPRODUCTDEFINITIONSHAPE($,$,(#215));
#217= IFCOPENINGELEMENT('0_gyitntL3vgut9Gnf4V6M',#5,$,$,'Opening',#214,#216,$);
#218= IFCRELVOIDSELEMENT('2gsHM43RvEdwJTQfnBef90',#5,'Drill Hole',$,#69,#217);
#219= IFCCARTESIANPOINT((59705.0247834091,23896.8840303914,18891.));
#220= IFCAXIS2PLACEMENT3D(#219,#52,#7);
#221= IFCLOCALPLACEMENT(#42,#220);
#222= IFCCARTESIANPOINT((0.,8.9,0.));
#223= IFCAXIS2PLACEMENT3D(#222,#8,#7);
#224= IFCEXTRUDEDAREASOLID(#99,#223,#9,14.8);
#225= IFCSHAPEREPRESENTATION(#12,'Body','SweptSolid',(#224));
#226= IFCREPRESENTATIONMAP(#10,#225);
#227= IFCCARTESIANPOINT((-2.7648638933897E-10,0.,-75.));
#228= IFCCARTESIANTRANSFORMATIONOPERATOR3D($,$,#227,$,$);
#229= IFCMAPPEDITEM(#226,#228);
#230= IFCCARTESIANPOINT((69.9999999997235,0.,-75.0000000005093));
#231= IFCCARTESIANTRANSFORMATIONOPERATOR3D($,$,#230,$,$);
#232= IFCMAPPEDITEM(#226,#231);
#233= IFCCARTESIANPOINT((139.999999999724,0.,-75.0000000010186));
#234= IFCCARTESIANTRANSFORMATIONOPERATOR3D($,$,#233,$,$);
#235= IFCMAPPEDITEM(#226,#234);
#236= IFCCARTESIANPOINT((209.999999999724,0.,-75.000000001528));
#237= IFCCARTESIANTRANSFORMATIONOPERATOR3D($,$,#236,$,$);
#238= IFCMAPPEDITEM(#226,#237);
#239= IFCCARTESIANPOINT((279.999999999724,0.,-75.0000000020373));
#240= IFCCARTESIANTRANSFORMATIONOPERATOR3D($,$,#239,$,$);
#241= IFCMAPPEDITEM(#226,#240);
#242= IFCCARTESIANPOINT((349.999999999724,0.,-75.0000000025466));
#243= IFCCARTESIANTRANSFORMATIONOPERATOR3D($,$,#242,$,$);
#244= IFCMAPPEDITEM(#226,#243);
#245= IFCCARTESIANPOINT((419.999999999724,0.,-75.0000000030559));
#246= IFCCARTESIANTRANSFORMATIONOPERATOR3D($,$,#245,$,$);
#247= IFCMAPPEDITEM(#226,#246);
#248= IFCCARTESIANPOINT((2.69210431724787E-10,0.,75.));
#249= IFCCARTESIANTRANSFORMATIONOPERATOR3D($,$,#248,$,$);
#250= IFCMAPPEDITEM(#226,#249);
#251= IFCCARTESIANPOINT((70.0000000002692,0.,74.9999999994907));
#252= IFCCARTESIANTRANSFORMATIONOPERATOR3D($,$,#251,$,$);
#253= IFCMAPPEDITEM(#226,#252);
#254= IFCCARTESIANPOINT((140.000000000269,0.,74.9999999989814));
#255= IFCCARTESIANTRANSFORMATIONOPERATOR3D($,$,#254,$,$);
#256= IFCMAPPEDITEM(#226,#255);
#257= IFCCARTESIANPOINT((210.000000000269,0.,74.999999998472));
#258= IFCCARTESIANTRANSFORMATIONOPERATOR3D($,$,#257,$,$);
#259= IFCMAPPEDITEM(#226,#258);
#260= IFCCARTESIANPOINT((280.000000000269,0.,74.9999999979627));
#261= IFCCARTESIANTRANSFORMATIONOPERATOR3D($,$,#260,$,$);
#262= IFCMAPPEDITEM(#226,#261);
#263= IFCCARTESIANPOINT((350.000000000269,0.,74.9999999974534));
#264= IFCCARTESIANTRANSFORMATIONOPERATOR3D($,$,#263,$,$);
#265= IFCMAPPEDITEM(#226,#264);
#266= IFCCARTESIANPOINT((420.000000000269,0.,74.9999999969441));
#267= IFCCARTESIANTRANSFORMATIONOPERATOR3D($,$,#266,$,$);
#268= IFCMAPPEDITEM(#226,#267);
#269= IFCSHAPEREPRESENTATION(#12,'Body','MappedRepresentation',(#229,#232,#235,#238,#241,#244,#247,#250,#253,#256,#259,#262,#265,#268));
#270= IFCPRODUCTDEFINITIONSHAPE($,$,(#269));
#271= IFCOPENINGELEMENT('1sK$2$YHP1sBPrVrQYydf_',#5,$,$,'Opening',#221,#270,$);
#272= IFCRELVOIDSELEMENT('02YfAMrVfE0QblINYle3z6',#5,'Drill Hole',$,#69,#271);
#273= IFCCARTESIANPOINT((59705.0247834091,23896.8840303914,19369.));
#274= IFCAXIS2PLACEMENT3D(#273,#8,#7);
#275= IFCLOCALPLACEMENT(#42,#274);
#276= IFCCARTESIANPOINT((0.,18.9,0.));
#277= IFCAXIS2PLACEMENT3D(#276,#8,#7);
#278= IFCEXTRUDEDAREASOLID(#99,#277,#9,14.8);
#279= IFCSHAPEREPRESENTATION(#12,'Body','SweptSolid',(#278));
#280= IFCREPRESENTATIONMAP(#10,#279);
#281= IFCMAPPEDITEM(#280,#228);
#282= IFCMAPPEDITEM(#280,#231);
#283= IFCMAPPEDITEM(#280,#234);
#284= IFCMAPPEDITEM(#280,#237);
#285= IFCMAPPEDITEM(#280,#240);
#286= IFCMAPPEDITEM(#280,#243);
#287= IFCMAPPEDITEM(#280,#246);
#288= IFCMAPPEDITEM(#280,#249);
#289= IFCMAPPEDITEM(#280,#252);
#290= IFCMAPPEDITEM(#280,#255);
#291= IFCMAPPEDITEM(#280,#258);
#292= IFCMAPPEDITEM(#280,#261);
#293= IFCMAPPEDITEM(#280,#264);
#294= IFCMAPPEDITEM(#280,#267);
#295= IFCSHAPEREPRESENTATION(#12,'Body','MappedRepresentation',(#281,#282,#283,#284,#285,#286,#287,#288,#289,#290,#291,#292,#293,#294));
#296= IFCPRODUCTDEFINITIONSHAPE($,$,(#295));
#297= IFCOPENINGELEMENT('32RogoVlr5LfqoGEfb2mqe',#5,$,$,'Opening',#275,#296,$);
#298= IFCRELVOIDSELEMENT('0Qx3$N2OL2du2xRK1dhqY_',#5,'Drill Hole',$,#69,#297);
#299= IFCPROPERTYSINGLEVALUE('PieceMark',$,IFCIDENTIFIER('BEAM'),$);
#300= IFCPROPERTYSINGLEVALUE('IndicationMark',$,IFCIDENTIFIER('b/246'),$);
#301= IFCPROPERTYSINGLEVALUE('PrelimMark',$,IFCIDENTIFIER(''),$);
#302= IFCPROPERTYSINGLEVALUE('MainPieceTag',$,IFCBOOLEAN(.T.),$);
#303= IFCPROPERTYSET('2uzaNxeeb9LR2s6dmMi$C1',#5,'AISC_EM11_Pset_PieceIdentification','PieceIdentity',(#299,#300,#301,#302));
#304= IFCPROPERTYSINGLEVALUE('MaterialType',$,IFCIDENTIFIER('STEEL'),$);
#305= IFCPROPERTYSINGLEVALUE('MaterialGrade',$,IFCIDENTIFIER('S235JR'),$);
#306= IFCPROPERTYSET('0R8FjlzXPC7871wCYK_ptm',#5,'AISC_EM11_Pset_Material',$,(#304,#305));
#307= IFCPROPERTYSINGLEVALUE('SkewedAngleY',$,IFCREAL(0.),$);
#308= IFCPROPERTYSINGLEVALUE('SkewedAngleX',$,IFCREAL(0.),$);
#309= IFCPROPERTYSET('3RUOWBG7X6p8Bq$xH8Ufzv',#5,'AISC_EM11_Pset_SkewedEnd',$,(#307,#308));
#310= IFCPROPERTYSINGLEVALUE('SkewedAngleX',$,IFCREAL(-1.E-05),$);
#311= IFCPROPERTYSET('17nLkX2nvBQ8dKW0Y5ui$9',#5,'AISC_EM11_Pset_SkewedEnd_2',$,(#307,#310));
#312= IFCMATERIAL('STEEL/S235JR');
#313= IFCRELAGGREGATES('1zU1s68TTD5819GlZByfSD',#5,$,$,#37,(#39));
#314= IFCRELAGGREGATES('2FmJ8OQllVNQJRY1rTExkV',#5,$,$,#39,(#41));
#315= IFCRELAGGREGATES('3etBtZaf5FCAbwLpHirZ2t',#5,$,$,#41,(#43));
#316= IFCRELCONTAINEDINSPATIALSTRUCTURE('1Eafm$vrP56xHzRV0NMhTu',#5,$,$,(#69),#43);
#317= IFCRELDEFINESBYPROPERTIES('27trs9CcH9xeGOcB6kwhzV',#5,$,$,(#78),#84);
#318= IFCRELDEFINESBYPROPERTIES('2wklGuFP95BQQ_SK4JmYL3',#5,$,$,(#92),#95);
#319= IFCRELDEFINESBYPROPERTIES('3GfTC0GZX5bwcRvuC71C0v',#5,$,$,(#297,#271,#217,#210,#183,#122),#127);
#320= IFCRELDEFINESBYPROPERTIES('02DC3b$d91IvZqwgUkYVtS',#5,$,$,(#69),#303);
#321= IFCRELDEFINESBYPROPERTIES('0Di5EXPlb2pAqLN$zi3WKn',#5,$,$,(#69),#306);
#322= IFCRELDEFINESBYPROPERTIES('2S4tD0jHrFx8DSuCCldSOc',#5,$,$,(#69),#309);
#323= IFCRELDEFINESBYPROPERTIES('1pLpnJQd1BlBvp$v6xApLh',#5,$,$,(#69),#311);
#324= IFCRELASSOCIATESMATERIAL('37i7Ma_tfEo9NS0oshGvia',#5,$,$,(#69),#312);
ENDSEC;

END-ISO-10303-21;
