ISO-10303-21;
HEADER;
FILE_DESCRIPTION(('ViewDefinition[AISC_Steel_Detailing]', 'Option [BaseQuantities:Off]', 'Option [GridExport:On]', 'Option [Assemblies:Off]', 'Option [Bolts:On]', 'Option [Rebars:On]', 'Option [PourObjects:Off]', 'Option [Welds:On]', 'Option [SurfaceTreatments:On]', 'Option [LocationBy:0]', 'Option [ViewColors:Off]', 'Option [SectionedSpine:Off]', 'Option [PropertySets:On]', 'Option [Export all:Off]'),'2;1');
FILE_NAME('b_243_Qty_1.ifc','2026-05-16T11:53:10',('GIOVANNIPC\\gcorrea'),('Structural Designer'),'IFC Database version: Work','Tekla Structures 2020 Service Pack 5, IFC Export Version: 4.0.0.0 Dec  7 2020','');
FILE_SCHEMA(('IFC2X3'));
ENDSEC;

DATA;
#1= IFCPERSON('GIOVANNIPC\\gcorrea','Undefined',$,$,$,$,$,$);
#2= IFCORGANIZATION($,'Trimble Solutions Corporation',$,$,$);
#3= IFCPERSONANDORGANIZATION(#1,#2,$);
#4= IFCAPPLICATION(#2,'2020 Service Pack 5','Tekla Structures','Multi material modeling');
#5= IFCOWNERHISTORY(#3,#4,$,.NOCHANGE.,$,$,$,1778950390);
#6= IFCCARTESIANPOINT((0.,0.,0.));
#7= IFCDIRECTION((1.,0.,0.));
#8= IFCDIRECTION((0.,1.,0.));
#9= IFCDIRECTION((0.,0.,1.));
#10= IFCAXIS2PLACEMENT3D(#6,#9,#7);
#11= IFCGEOMETRICREPRESENTATIONCONTEXT($,'Model',3,1.E-05,#10,$);
#12= IFCGEOMETRICREPRESENTATIONSUBCONTEXT('Body','Model',*,*,*,*,#11,$,.MODEL_VIEW.,$);
#13= IFCGEOMETRICREPRESENTATIONSUBCONTEXT('Axis','Model',*,*,*,*,#11,$,.GRAPH_VIEW.,$);
#14= IFCGEOMETRICREPRESENTATIONSUBCONTEXT('FootPrint','Model',*,*,*,*,#11,$,.MODEL_VIEW.,$);
#15= IFCSIUNIT(*,.LENGTHUNIT.,.MILLI.,.METRE.);
#16= IFCMEASUREWITHUNIT(IFCRATIOMEASURE(304.8),#15);
#17= IFCDIMENSIONALEXPONENTS(1,0,0,0,0,0,0);
#18= IFCCONVERSIONBASEDUNIT(#17,.LENGTHUNIT.,'FOOT',#16);
#19= IFCSIUNIT(*,.AREAUNIT.,$,.SQUARE_METRE.);
#20= IFCMEASUREWITHUNIT(IFCRATIOMEASURE(0.09290304),#19);
#21= IFCDIMENSIONALEXPONENTS(2,0,0,0,0,0,0);
#22= IFCCONVERSIONBASEDUNIT(#21,.AREAUNIT.,'SQUARE FOOT',#20);
#23= IFCSIUNIT(*,.VOLUMEUNIT.,$,.CUBIC_METRE.);
#24= IFCMEASUREWITHUNIT(IFCRATIOMEASURE(0.028316846592),#23);
#25= IFCDIMENSIONALEXPONENTS(3,0,0,0,0,0,0);
#26= IFCCONVERSIONBASEDUNIT(#25,.VOLUMEUNIT.,'CUBIC FOOT',#24);
#27= IFCSIUNIT(*,.MASSUNIT.,.KILO.,.GRAM.);
#28= IFCSIUNIT(*,.TIMEUNIT.,$,.SECOND.);
#29= IFCSIUNIT(*,.PLANEANGLEUNIT.,$,.RADIAN.);
#30= IFCMEASUREWITHUNIT(IFCRATIOMEASURE(0.0174532925199433),#29);
#31= IFCDIMENSIONALEXPONENTS(0,0,0,0,0,0,0);
#32= IFCCONVERSIONBASEDUNIT(#31,.PLANEANGLEUNIT.,'DEGREE',#30);
#33= IFCSIUNIT(*,.SOLIDANGLEUNIT.,$,.STERADIAN.);
#34= IFCSIUNIT(*,.THERMODYNAMICTEMPERATUREUNIT.,$,.DEGREE_CELSIUS.);
#35= IFCSIUNIT(*,.LUMINOUSINTENSITYUNIT.,$,.LUMEN.);
#36= IFCUNITASSIGNMENT((#15,#19,#23,#27,#28,#29,#33,#34,#35));
#37= IFCPROJECT('2G7ZFDNE16yBDU14FA92Me',#5,'Proyecto',$,$,$,$,(#11),#36);
#38= IFCLOCALPLACEMENT($,#10);
#39= IFCSITE('2xvEzEinjBTea80yOTcujY',#5,'Obra',$,$,#38,$,$,.ELEMENT.,$,$,$,$,$);
#40= IFCLOCALPLACEMENT(#38,#10);
#41= IFCBUILDING('0uXP4JFuD5ZubaKUd7VqrV',#5,'Undefined',$,$,#40,$,$,.ELEMENT.,$,$,$);
#42= IFCLOCALPLACEMENT(#40,#10);
#43= IFCBUILDINGSTOREY('29hdEUCErFze9E_VIAceOd',#5,'Undefined',$,$,#42,$,$,.ELEMENT.,0.);
#44= IFCOWNERHISTORY(#3,#4,$,.NOCHANGE.,$,$,$,1773320400);
#45= IFCCARTESIANPOINT((51165.0998810654,22000.0000658529,19130.));
#46= IFCAXIS2PLACEMENT3D(#45,#9,#7);
#47= IFCLOCALPLACEMENT(#42,#46);
#48= IFCDIRECTION((1.,0.));
#49= IFCCARTESIANPOINT((0.,0.));
#50= IFCAXIS2PLACEMENT2D(#49,#48);
#51= IFCISHAPEPROFILEDEF(.AREA.,'HEA450',#50,300.,440.,11.5,21.,27.);
#52= IFCDIRECTION((0.,-1.,0.));
#53= IFCDIRECTION((-1.,0.,0.));
#54= IFCCARTESIANPOINT((8169.80361938477,0.,0.));
#55= IFCAXIS2PLACEMENT3D(#54,#53,#52);
#56= IFCEXTRUDEDAREASOLID(#51,#55,#9,8162.41);
#57= IFCCARTESIANPOINT((7.39021105611027,0.164698694323306,-325.));
#58= IFCAXIS2PLACEMENT3D(#57,#7,#52);
#59= IFCPLANE(#58);
#60= IFCHALFSPACESOLID(#59,.T.);
#61= IFCBOOLEANCLIPPINGRESULT(.DIFFERENCE.,#56,#60);
#62= IFCSHAPEREPRESENTATION(#12,'Body','Clipping',(#61));
#63= IFCPRODUCTDEFINITIONSHAPE($,$,(#62));
#64= IFCBEAM('2WNXhpvLLETgzx6NaWL8DZ',#44,'BEAM','HEA450','HEA450',#47,#63,'IDa05e1af3-e555-4e76-af7b-197920548363');
#65= IFCCARTESIANPOINT((51217.5251671465,22001.9641748502,18905.));
#66= IFCDIRECTION((0.000467666999837092,-0.999999890643783,0.));
#67= IFCDIRECTION((0.999999890643783,0.000467666999834881,0.));
#68= IFCAXIS2PLACEMENT3D(#65,#66,#67);
#69= IFCLOCALPLACEMENT(#42,#68);
#70= IFCCIRCLEPROFILEDEF(.AREA.,$,#50,12.);
#71= IFCCARTESIANPOINT((0.,4.9,0.));
#72= IFCAXIS2PLACEMENT3D(#71,#8,#7);
#73= IFCEXTRUDEDAREASOLID(#70,#72,#9,21.2);
#74= IFCSHAPEREPRESENTATION(#12,'Body','SweptSolid',(#73));
#75= IFCREPRESENTATIONMAP(#10,#74);
#76= IFCCARTESIANPOINT((0.,0.,74.9999999997854));
#77= IFCCARTESIANTRANSFORMATIONOPERATOR3D($,$,#76,$,$);
#78= IFCMAPPEDITEM(#75,#77);
#79= IFCCARTESIANPOINT((74.9999999997817,0.,74.999999999789));
#80= IFCCARTESIANTRANSFORMATIONOPERATOR3D($,$,#79,$,$);
#81= IFCMAPPEDITEM(#75,#80);
#82= IFCCARTESIANPOINT((149.999999999571,0.,74.9999999997854));
#83= IFCCARTESIANTRANSFORMATIONOPERATOR3D($,$,#82,$,$);
#84= IFCMAPPEDITEM(#75,#83);
#85= IFCCARTESIANPOINT((224.999999999352,0.,74.9999999997854));
#86= IFCCARTESIANTRANSFORMATIONOPERATOR3D($,$,#85,$,$);
#87= IFCMAPPEDITEM(#75,#86);
#88= IFCCARTESIANPOINT((299.999999999141,0.,74.999999999789));
#89= IFCCARTESIANTRANSFORMATIONOPERATOR3D($,$,#88,$,$);
#90= IFCMAPPEDITEM(#75,#89);
#91= IFCCARTESIANPOINT((374.999999998923,0.,74.9999999997854));
#92= IFCCARTESIANTRANSFORMATIONOPERATOR3D($,$,#91,$,$);
#93= IFCMAPPEDITEM(#75,#92);
#94= IFCCARTESIANPOINT((449.999999998712,0.,74.9999999997854));
#95= IFCCARTESIANTRANSFORMATIONOPERATOR3D($,$,#94,$,$);
#96= IFCMAPPEDITEM(#75,#95);
#97= IFCCARTESIANPOINT((524.999999998494,0.,74.999999999789));
#98= IFCCARTESIANTRANSFORMATIONOPERATOR3D($,$,#97,$,$);
#99= IFCMAPPEDITEM(#75,#98);
#100= IFCCARTESIANPOINT((599.99999999829,0.,74.9999999997854));
#101= IFCCARTESIANTRANSFORMATIONOPERATOR3D($,$,#100,$,$);
#102= IFCMAPPEDITEM(#75,#101);
#103= IFCCARTESIANPOINT((674.999999998072,0.,74.999999999789));
#104= IFCCARTESIANTRANSFORMATIONOPERATOR3D($,$,#103,$,$);
#105= IFCMAPPEDITEM(#75,#104);
#106= IFCCARTESIANPOINT((0.,0.,-74.9999999997854));
#107= IFCCARTESIANTRANSFORMATIONOPERATOR3D($,$,#106,$,$);
#108= IFCMAPPEDITEM(#75,#107);
#109= IFCCARTESIANPOINT((74.9999999997817,0.,-74.9999999997854));
#110= IFCCARTESIANTRANSFORMATIONOPERATOR3D($,$,#109,$,$);
#111= IFCMAPPEDITEM(#75,#110);
#112= IFCCARTESIANPOINT((149.999999999571,0.,-74.9999999997854));
#113= IFCCARTESIANTRANSFORMATIONOPERATOR3D($,$,#112,$,$);
#114= IFCMAPPEDITEM(#75,#113);
#115= IFCCARTESIANPOINT((224.999999999352,0.,-74.9999999997854));
#116= IFCCARTESIANTRANSFORMATIONOPERATOR3D($,$,#115,$,$);
#117= IFCMAPPEDITEM(#75,#116);
#118= IFCCARTESIANPOINT((299.999999999141,0.,-74.9999999997854));
#119= IFCCARTESIANTRANSFORMATIONOPERATOR3D($,$,#118,$,$);
#120= IFCMAPPEDITEM(#75,#119);
#121= IFCCARTESIANPOINT((374.99999999893,0.,-74.9999999997854));
#122= IFCCARTESIANTRANSFORMATIONOPERATOR3D($,$,#121,$,$);
#123= IFCMAPPEDITEM(#75,#122);
#124= IFCCARTESIANPOINT((449.999999998712,0.,-74.9999999997854));
#125= IFCCARTESIANTRANSFORMATIONOPERATOR3D($,$,#124,$,$);
#126= IFCMAPPEDITEM(#75,#125);
#127= IFCCARTESIANPOINT((524.999999998501,0.,-74.9999999997854));
#128= IFCCARTESIANTRANSFORMATIONOPERATOR3D($,$,#127,$,$);
#129= IFCMAPPEDITEM(#75,#128);
#130= IFCCARTESIANPOINT((599.999999998283,0.,-74.9999999997854));
#131= IFCCARTESIANTRANSFORMATIONOPERATOR3D($,$,#130,$,$);
#132= IFCMAPPEDITEM(#75,#131);
#133= IFCCARTESIANPOINT((674.999999998072,0.,-74.9999999997854));
#134= IFCCARTESIANTRANSFORMATIONOPERATOR3D($,$,#133,$,$);
#135= IFCMAPPEDITEM(#75,#134);
#136= IFCSHAPEREPRESENTATION(#12,'Body','MappedRepresentation',(#78,#81,#84,#87,#90,#93,#96,#99,#102,#105,#108,#111,#114,#117,#120,#123,#126,#129,#132,#135));
#137= IFCPRODUCTDEFINITIONSHAPE($,$,(#136));
#138= IFCOPENINGELEMENT('2WdaWaT3PCVfdxDdbNQ3XN',#5,$,$,'Opening',#69,#137,$);
#139= IFCRELVOIDSELEMENT('24OuClIaPCwP5IInpBDmOx',#5,'Drill Hole',$,#64,#138);
#140= IFCPROPERTYSINGLEVALUE('FeatureSubTypes',$,IFCLABEL('TORNILLO'),$);
#141= IFCPROPERTYSINGLEVALUE('RectangleOpeningWidth',$,$,$);
#142= IFCPROPERTYSINGLEVALUE('RectangleOpeningHeight',$,$,$);
#143= IFCPROPERTYSINGLEVALUE('OpeningDiameter',$,$,$);
#144= IFCPROPERTYSET('3tjcCrVWn5I82ZrdBi8jMJ',#5,'AISC_EM11_Pset_Opening/Cope',$,(#140,#141,#142,#143));
#145= IFCCARTESIANPOINT((51172.4900921215,22000.1647645472,19345.));
#146= IFCDIRECTION((0.,0.,-1.));
#147= IFCAXIS2PLACEMENT3D(#145,#7,#146);
#148= IFCLOCALPLACEMENT(#42,#147);
#149= IFCCIRCLEPROFILEDEF(.AREA.,$,#50,12.5);
#150= IFCCARTESIANPOINT((0.,-6.01469869432331,0.));
#151= IFCAXIS2PLACEMENT3D(#150,#8,#7);
#152= IFCEXTRUDEDAREASOLID(#149,#151,#9,11.7);
#153= IFCSHAPEREPRESENTATION(#12,'Body','SweptSolid',(#152));
#154= IFCREPRESENTATIONMAP(#10,#153);
#155= IFCCARTESIANPOINT((107.5,0.,45.));
#156= IFCCARTESIANTRANSFORMATIONOPERATOR3D($,$,#155,$,$);
#157= IFCMAPPEDITEM(#154,#156);
#158= IFCCARTESIANPOINT((182.5,0.,45.));
#159= IFCCARTESIANTRANSFORMATIONOPERATOR3D($,$,#158,$,$);
#160= IFCMAPPEDITEM(#154,#159);
#161= IFCCARTESIANPOINT((257.5,0.,45.));
#162= IFCCARTESIANTRANSFORMATIONOPERATOR3D($,$,#161,$,$);
#163= IFCMAPPEDITEM(#154,#162);
#164= IFCCARTESIANPOINT((332.5,0.,45.));
#165= IFCCARTESIANTRANSFORMATIONOPERATOR3D($,$,#164,$,$);
#166= IFCMAPPEDITEM(#154,#165);
#167= IFCSHAPEREPRESENTATION(#12,'Body','MappedRepresentation',(#157,#160,#163,#166));
#168= IFCPRODUCTDEFINITIONSHAPE($,$,(#167));
#169= IFCOPENINGELEMENT('1EBqVea4v0j9cdqYNV_TAu',#5,$,$,'Opening',#148,#168,$);
#170= IFCRELVOIDSELEMENT('0kLqo6MVn52gtI6X57X_bA',#5,'Drill Hole',$,#64,#169);
#171= IFCCARTESIANPOINT((51217.5251671465,22001.9641748502,19345.));
#172= IFCDIRECTION((-0.000467666999837092,0.999999890643783,0.));
#173= IFCAXIS2PLACEMENT3D(#171,#172,#67);
#174= IFCLOCALPLACEMENT(#42,#173);
#175= IFCCARTESIANPOINT((0.,-5.1,0.));
#176= IFCAXIS2PLACEMENT3D(#175,#8,#7);
#177= IFCEXTRUDEDAREASOLID(#70,#176,#9,21.2);
#178= IFCSHAPEREPRESENTATION(#12,'Body','SweptSolid',(#177));
#179= IFCREPRESENTATIONMAP(#10,#178);
#180= IFCMAPPEDITEM(#179,#107);
#181= IFCMAPPEDITEM(#179,#110);
#182= IFCMAPPEDITEM(#179,#113);
#183= IFCMAPPEDITEM(#179,#116);
#184= IFCMAPPEDITEM(#179,#119);
#185= IFCMAPPEDITEM(#179,#122);
#186= IFCMAPPEDITEM(#179,#125);
#187= IFCMAPPEDITEM(#179,#128);
#188= IFCMAPPEDITEM(#179,#131);
#189= IFCMAPPEDITEM(#179,#134);
#190= IFCMAPPEDITEM(#179,#77);
#191= IFCMAPPEDITEM(#179,#80);
#192= IFCMAPPEDITEM(#179,#83);
#193= IFCMAPPEDITEM(#179,#86);
#194= IFCMAPPEDITEM(#179,#89);
#195= IFCMAPPEDITEM(#179,#92);
#196= IFCMAPPEDITEM(#179,#95);
#197= IFCMAPPEDITEM(#179,#98);
#198= IFCMAPPEDITEM(#179,#101);
#199= IFCMAPPEDITEM(#179,#104);
#200= IFCSHAPEREPRESENTATION(#12,'Body','MappedRepresentation',(#180,#181,#182,#183,#184,#185,#186,#187,#188,#189,#190,#191,#192,#193,#194,#195,#196,#197,#198,#199));
#201= IFCPRODUCTDEFINITIONSHAPE($,$,(#200));
#202= IFCOPENINGELEMENT('1nyx_YW2b5tRrZuzgeQo1d',#5,$,$,'Opening',#174,#201,$);
#203= IFCRELVOIDSELEMENT('3Nrw1BrXT5VuJa_SSCy1RK',#5,'Drill Hole',$,#64,#202);
#204= IFCPROPERTYSINGLEVALUE('PieceMark',$,IFCIDENTIFIER('BEAM'),$);
#205= IFCPROPERTYSINGLEVALUE('IndicationMark',$,IFCIDENTIFIER('b/243'),$);
#206= IFCPROPERTYSINGLEVALUE('PrelimMark',$,IFCIDENTIFIER(''),$);
#207= IFCPROPERTYSINGLEVALUE('MainPieceTag',$,IFCBOOLEAN(.T.),$);
#208= IFCPROPERTYSET('1ZeS5_zI94YARKWcRWgveU',#5,'AISC_EM11_Pset_PieceIdentification','PieceIdentity',(#204,#205,#206,#207));
#209= IFCPROPERTYSINGLEVALUE('MaterialType',$,IFCIDENTIFIER('STEEL'),$);
#210= IFCPROPERTYSINGLEVALUE('MaterialGrade',$,IFCIDENTIFIER('S235JR'),$);
#211= IFCPROPERTYSET('2IPNkweCL8URSga8W6bAuj',#5,'AISC_EM11_Pset_Material',$,(#209,#210));
#212= IFCPROPERTYSINGLEVALUE('SkewedAngleY',$,IFCREAL(0.),$);
#213= IFCPROPERTYSINGLEVALUE('SkewedAngleX',$,IFCREAL(0.),$);
#214= IFCPROPERTYSET('0wojo2KQzC58DpdIWZQVRP',#5,'AISC_EM11_Pset_SkewedEnd',$,(#212,#213));
#215= IFCPROPERTYSET('2_cRM19z5E1eJCs597o$wJ',#5,'AISC_EM11_Pset_SkewedEnd_2',$,(#212,#213));
#216= IFCMATERIAL('STEEL/S235JR');
#217= IFCRELAGGREGATES('1h0pov6Qf6rxn_2d1Mqvu5',#5,$,$,#37,(#39));
#218= IFCRELAGGREGATES('2zI54BOixO7D3GKvJe6BAN',#5,$,$,#39,(#41));
#219= IFCRELAGGREGATES('01Ka8tkZ15gg8eQiXxfILz',#5,$,$,#41,(#43));
#220= IFCRELCONTAINEDINSPATIALSTRUCTURE('17Otjx41X8P8wT3bYJpNsF',#5,$,$,(#64),#43);
#221= IFCRELDEFINESBYPROPERTIES('0g9w4fnjf7ARy5coG9ASh$',#5,$,$,(#202,#169,#138),#144);
#222= IFCRELDEFINESBYPROPERTIES('1dBHp5cL5DmxXaD9WnKp4s',#5,$,$,(#64),#208);
#223= IFCRELDEFINESBYPROPERTIES('2Na7aHZwn5lxk0rRSWUwP2',#5,$,$,(#64),#211);
#224= IFCRELDEFINESBYPROPERTIES('2ZknE$zerF7QkwN_rtlKm_',#5,$,$,(#64),#214);
#225= IFCRELDEFINESBYPROPERTIES('0SHrpXfUnBT8ckEhChh7ym',#5,$,$,(#64),#215);
#226= IFCRELASSOCIATESMATERIAL('2R4CMpM_D4bf9dzD21e1kw',#5,$,$,(#64),#216);
ENDSEC;

END-ISO-10303-21;
