ISO-10303-21;
HEADER;
FILE_DESCRIPTION(('ViewDefinition[AISC_Steel_Detailing]', 'Option [BaseQuantities:Off]', 'Option [GridExport:On]', 'Option [Assemblies:Off]', 'Option [Bolts:On]', 'Option [Rebars:On]', 'Option [PourObjects:Off]', 'Option [Welds:On]', 'Option [SurfaceTreatments:On]', 'Option [LocationBy:0]', 'Option [ViewColors:Off]', 'Option [SectionedSpine:Off]', 'Option [PropertySets:On]', 'Option [Export all:Off]'),'2;1');
FILE_NAME('b_24_Qty_2.ifc','2026-05-16T11:52:58',('GIOVANNIPC\\gcorrea'),('Structural Designer'),'IFC Database version: Work','Tekla Structures 2020 Service Pack 5, IFC Export Version: 4.0.0.0 Dec  7 2020','');
FILE_SCHEMA(('IFC2X3'));
ENDSEC;

DATA;
#1= IFCPERSON('GIOVANNIPC\\gcorrea','Undefined',$,$,$,$,$,$);
#2= IFCORGANIZATION($,'Trimble Solutions Corporation',$,$,$);
#3= IFCPERSONANDORGANIZATION(#1,#2,$);
#4= IFCAPPLICATION(#2,'2020 Service Pack 5','Tekla Structures','Multi material modeling');
#5= IFCOWNERHISTORY(#3,#4,$,.NOCHANGE.,$,$,$,1778950378);
#6= IFCCARTESIANPOINT((0.,0.,0.));
#7= IFCDIRECTION((1.,0.,0.));
#8= IFCDIRECTION((0.,1.,0.));
#9= IFCDIRECTION((0.,0.,1.));
#10= IFCAXIS2PLACEMENT3D(#6,#9,#7);
#11= IFCGEOMETRICREPRESENTATIONCONTEXT($,'Model',3,1.E-05,#10,$);
#12= IFCGEOMETRICREPRESENTATIONSUBCONTEXT('Body','Model',*,*,*,*,#11,$,.MODEL_VIEW.,$);
#13= IFCGEOMETRICREPRESENTATIONSUBCONTEXT('Axis','Model',*,*,*,*,#11,$,.GRAPH_VIEW.,$);
#14= IFCGEOMETRICREPRESENTATIONSUBCONTEXT('FootPrint','Model',*,*,*,*,#11,$,.MODEL_VIEW.,$);
#15= IFCSIUNIT(*,.LENGTHUNIT.,.MILLI.,.METRE.);
#16= IFCMEASUREWITHUNIT(IFCRATIOMEASURE(304.8),#15);
#17= IFCDIMENSIONALEXPONENTS(1,0,0,0,0,0,0);
#18= IFCCONVERSIONBASEDUNIT(#17,.LENGTHUNIT.,'FOOT',#16);
#19= IFCSIUNIT(*,.AREAUNIT.,$,.SQUARE_METRE.);
#20= IFCMEASUREWITHUNIT(IFCRATIOMEASURE(0.09290304),#19);
#21= IFCDIMENSIONALEXPONENTS(2,0,0,0,0,0,0);
#22= IFCCONVERSIONBASEDUNIT(#21,.AREAUNIT.,'SQUARE FOOT',#20);
#23= IFCSIUNIT(*,.VOLUMEUNIT.,$,.CUBIC_METRE.);
#24= IFCMEASUREWITHUNIT(IFCRATIOMEASURE(0.028316846592),#23);
#25= IFCDIMENSIONALEXPONENTS(3,0,0,0,0,0,0);
#26= IFCCONVERSIONBASEDUNIT(#25,.VOLUMEUNIT.,'CUBIC FOOT',#24);
#27= IFCSIUNIT(*,.MASSUNIT.,.KILO.,.GRAM.);
#28= IFCSIUNIT(*,.TIMEUNIT.,$,.SECOND.);
#29= IFCSIUNIT(*,.PLANEANGLEUNIT.,$,.RADIAN.);
#30= IFCMEASUREWITHUNIT(IFCRATIOMEASURE(0.0174532925199433),#29);
#31= IFCDIMENSIONALEXPONENTS(0,0,0,0,0,0,0);
#32= IFCCONVERSIONBASEDUNIT(#31,.PLANEANGLEUNIT.,'DEGREE',#30);
#33= IFCSIUNIT(*,.SOLIDANGLEUNIT.,$,.STERADIAN.);
#34= IFCSIUNIT(*,.THERMODYNAMICTEMPERATUREUNIT.,$,.DEGREE_CELSIUS.);
#35= IFCSIUNIT(*,.LUMINOUSINTENSITYUNIT.,$,.LUMEN.);
#36= IFCUNITASSIGNMENT((#15,#19,#23,#27,#28,#29,#33,#34,#35));
#37= IFCPROJECT('2G7ZFDNE16yBDU14FA92Me',#5,'Proyecto',$,$,$,$,(#11),#36);
#38= IFCLOCALPLACEMENT($,#10);
#39= IFCSITE('2xvEzEinjBTea80yOTcujY',#5,'Obra',$,$,#38,$,$,.ELEMENT.,$,$,$,$,$);
#40= IFCLOCALPLACEMENT(#38,#10);
#41= IFCBUILDING('2sSAl5BpPCZh_H3SeV4JkN',#5,'Undefined',$,$,#40,$,$,.ELEMENT.,$,$,$);
#42= IFCLOCALPLACEMENT(#40,#10);
#43= IFCBUILDINGSTOREY('29hdEUCErFze9E_VIAceOd',#5,'Undefined',$,$,#42,$,$,.ELEMENT.,0.);
#44= IFCOWNERHISTORY(#3,#4,$,.NOCHANGE.,$,$,$,1774458000);
#45= IFCCARTESIANPOINT((8276.9507121573,23897.5705122077,13675.));
#46= IFCDIRECTION((-0.999999900459468,-0.000446185000205306,0.));
#47= IFCAXIS2PLACEMENT3D(#45,#9,#46);
#48= IFCLOCALPLACEMENT(#42,#47);
#49= IFCDIRECTION((1.,0.));
#50= IFCCARTESIANPOINT((0.,0.));
#51= IFCAXIS2PLACEMENT2D(#50,#49);
#52= IFCISHAPEPROFILEDEF(.AREA.,'IPE450',#51,190.,450.,9.399999619,14.60000038,21.);
#53= IFCDIRECTION((5.42101086242752E-20,-1.,0.));
#54= IFCDIRECTION((-1.,-5.42101086242752E-20,0.));
#55= IFCCARTESIANPOINT((2603.76408351687,1.41150333799436E-16,0.));
#56= IFCAXIS2PLACEMENT3D(#55,#54,#53);
#57= IFCEXTRUDEDAREASOLID(#52,#56,#9,2603.98);
#58= IFCDIRECTION((0.999999900459468,-0.000446185000206242,0.));
#59= IFCCARTESIANPOINT((-0.0923631682671839,-0.00892369999928633,-325.));
#60= IFCDIRECTION((-0.000446185000206242,-0.999999900459468,0.));
#61= IFCAXIS2PLACEMENT3D(#59,#58,#60);
#62= IFCPLANE(#61);
#63= IFCHALFSPACESOLID(#62,.T.);
#64= IFCBOOLEANCLIPPINGRESULT(.DIFFERENCE.,#57,#63);
#65= IFCSHAPEREPRESENTATION(#12,'Body','Clipping',(#64));
#66= IFCPRODUCTDEFINITIONSHAPE($,$,(#65));
#67= IFCBEAM('244zNVQnnEK8paxlgRvVSm',#44,'BEAM','IPE450','IPE450',#48,#66,'ID8413d5df-6b1c-4e50-8ce4-eefa9be5f730');
#68= IFCLOCALPLACEMENT(#42,#47);
#69= IFCRECTANGLEPROFILEDEF(.AREA.,'PL108.7*12',#51,12.,108.7);
#70= IFCDIRECTION((0.,0.,-1.));
#71= IFCCARTESIANPOINT((-16.051577102844,42.8312827757145,226.));
#72= IFCAXIS2PLACEMENT3D(#71,#70,#58);
#73= IFCEXTRUDEDAREASOLID(#69,#72,#9,452.);
#74= IFCSHAPEREPRESENTATION(#12,'Body','SweptSolid',(#73));
#75= IFCPRODUCTDEFINITIONSHAPE($,$,(#74));
#76= IFCOPENINGELEMENT('1WQGDcsEz7mPn16PuoI45t',#5,$,$,'Recess',#68,#75,$);
#77= IFCRELVOIDSELEMENT('3gOwmXqgv6oRdGxrY7_8_U',#5,$,$,#67,#76);
#78= IFCPROPERTYSINGLEVALUE('FeatureSubTypes',$,$,$);
#79= IFCPROPERTYSINGLEVALUE('RectangleOpeningWidth',$,IFCPOSITIVELENGTHMEASURE(12.),$);
#80= IFCPROPERTYSINGLEVALUE('RectangleOpeningHeight',$,IFCPOSITIVELENGTHMEASURE(108.7),$);
#81= IFCPROPERTYSINGLEVALUE('OpeningDiameter',$,$,$);
#82= IFCPROPERTYSET('3TJC0eFqPE2fMPMtzEgpAw',#5,'AISC_EM11_Pset_Opening/Cope',$,(#78,#79,#80,#81));
#83= IFCLOCALPLACEMENT(#42,#47);
#84= IFCRECTANGLEPROFILEDEF(.AREA.,'PL108.5*12',#51,12.,108.5);
#85= IFCCARTESIANPOINT((-16.0893158321051,-41.749609649105,226.));
#86= IFCAXIS2PLACEMENT3D(#85,#70,#58);
#87= IFCEXTRUDEDAREASOLID(#84,#86,#9,452.);
#88= IFCSHAPEREPRESENTATION(#12,'Body','SweptSolid',(#87));
#89= IFCPRODUCTDEFINITIONSHAPE($,$,(#88));
#90= IFCOPENINGELEMENT('1$VwAjYtnCuOsc66sNPO4n',#5,$,$,'Recess',#83,#89,$);
#91= IFCRELVOIDSELEMENT('0He2PNz3v06wg3Jjy7er_T',#5,$,$,#67,#90);
#92= IFCPROPERTYSINGLEVALUE('RectangleOpeningHeight',$,IFCPOSITIVELENGTHMEASURE(108.5),$);
#93= IFCPROPERTYSET('3rScFyDeL8Uv1F4tQqDBPT',#5,'AISC_EM11_Pset_Opening/Cope',$,(#78,#79,#92,#81));
#94= IFCCARTESIANPOINT((8277.04307133475,23897.5660915666,13900.));
#95= IFCAXIS2PLACEMENT3D(#94,#54,#70);
#96= IFCLOCALPLACEMENT(#42,#95);
#97= IFCCIRCLEPROFILEDEF(.AREA.,$,#51,11.5);
#98= IFCCARTESIANPOINT((0.,-4.78661472600674,0.));
#99= IFCAXIS2PLACEMENT3D(#98,#8,#7);
#100= IFCEXTRUDEDAREASOLID(#97,#99,#9,9.6);
#101= IFCSHAPEREPRESENTATION(#12,'Body','SweptSolid',(#100));
#102= IFCREPRESENTATIONMAP(#10,#101);
#103= IFCCARTESIANPOINT((85.,0.,40.));
#104= IFCCARTESIANTRANSFORMATIONOPERATOR3D($,$,#103,$,$);
#105= IFCMAPPEDITEM(#102,#104);
#106= IFCCARTESIANPOINT((155.,0.,40.));
#107= IFCCARTESIANTRANSFORMATIONOPERATOR3D($,$,#106,$,$);
#108= IFCMAPPEDITEM(#102,#107);
#109= IFCCARTESIANPOINT((225.,0.,40.));
#110= IFCCARTESIANTRANSFORMATIONOPERATOR3D($,$,#109,$,$);
#111= IFCMAPPEDITEM(#102,#110);
#112= IFCCARTESIANPOINT((295.,0.,40.));
#113= IFCCARTESIANTRANSFORMATIONOPERATOR3D($,$,#112,$,$);
#114= IFCMAPPEDITEM(#102,#113);
#115= IFCCARTESIANPOINT((365.,0.,40.));
#116= IFCCARTESIANTRANSFORMATIONOPERATOR3D($,$,#115,$,$);
#117= IFCMAPPEDITEM(#102,#116);
#118= IFCSHAPEREPRESENTATION(#12,'Body','MappedRepresentation',(#105,#108,#111,#114,#117));
#119= IFCPRODUCTDEFINITIONSHAPE($,$,(#118));
#120= IFCOPENINGELEMENT('2fzaH2Vf99sgv$wxcvCfe2',#5,$,$,'Opening',#96,#119,$);
#121= IFCRELVOIDSELEMENT('1WFp908xD3SgLFilCNJRWJ',#5,'Drill Hole',$,#67,#120);
#122= IFCPROPERTYSINGLEVALUE('FeatureSubTypes',$,IFCLABEL('TORNILLO'),$);
#123= IFCPROPERTYSINGLEVALUE('RectangleOpeningWidth',$,$,$);
#124= IFCPROPERTYSINGLEVALUE('RectangleOpeningHeight',$,$,$);
#125= IFCPROPERTYSET('3yK1PjrGz4sfaZRevpmU6$',#5,'AISC_EM11_Pset_Opening/Cope',$,(#122,#123,#124,#81));
#126= IFCCARTESIANPOINT((7816.95075918031,23897.371753733,13450.));
#127= IFCDIRECTION((0.000467666999835273,-0.999999890643783,0.));
#128= IFCDIRECTION((0.999999890643783,0.000467666999834886,0.));
#129= IFCAXIS2PLACEMENT3D(#126,#127,#128);
#130= IFCLOCALPLACEMENT(#42,#129);
#131= IFCCARTESIANPOINT((0.,-0.1,0.));
#132= IFCAXIS2PLACEMENT3D(#131,#8,#7);
#133= IFCEXTRUDEDAREASOLID(#97,#132,#9,14.8);
#134= IFCSHAPEREPRESENTATION(#12,'Body','SweptSolid',(#133));
#135= IFCREPRESENTATIONMAP(#10,#134);
#136= IFCCARTESIANPOINT((0.,0.,-49.9999999998545));
#137= IFCCARTESIANTRANSFORMATIONOPERATOR3D($,$,#136,$,$);
#138= IFCMAPPEDITEM(#135,#137);
#139= IFCCARTESIANPOINT((70.0000000000546,0.,-49.9999999998545));
#140= IFCCARTESIANTRANSFORMATIONOPERATOR3D($,$,#139,$,$);
#141= IFCMAPPEDITEM(#135,#140);
#142= IFCCARTESIANPOINT((140.00000000011,0.,-49.9999999998545));
#143= IFCCARTESIANTRANSFORMATIONOPERATOR3D($,$,#142,$,$);
#144= IFCMAPPEDITEM(#135,#143);
#145= IFCCARTESIANPOINT((210.000000000166,0.,-49.9999999998545));
#146= IFCCARTESIANTRANSFORMATIONOPERATOR3D($,$,#145,$,$);
#147= IFCMAPPEDITEM(#135,#146);
#148= IFCCARTESIANPOINT((280.00000000022,0.,-49.9999999998581));
#149= IFCCARTESIANTRANSFORMATIONOPERATOR3D($,$,#148,$,$);
#150= IFCMAPPEDITEM(#135,#149);
#151= IFCCARTESIANPOINT((350.000000000276,0.,-49.9999999998581));
#152= IFCCARTESIANTRANSFORMATIONOPERATOR3D($,$,#151,$,$);
#153= IFCMAPPEDITEM(#135,#152);
#154= IFCCARTESIANPOINT((420.000000000331,0.,-49.9999999998581));
#155= IFCCARTESIANTRANSFORMATIONOPERATOR3D($,$,#154,$,$);
#156= IFCMAPPEDITEM(#135,#155);
#157= IFCCARTESIANPOINT((0.,0.,49.9999999998581));
#158= IFCCARTESIANTRANSFORMATIONOPERATOR3D($,$,#157,$,$);
#159= IFCMAPPEDITEM(#135,#158);
#160= IFCCARTESIANPOINT((70.0000000000546,0.,49.9999999998581));
#161= IFCCARTESIANTRANSFORMATIONOPERATOR3D($,$,#160,$,$);
#162= IFCMAPPEDITEM(#135,#161);
#163= IFCCARTESIANPOINT((140.00000000011,0.,49.9999999998581));
#164= IFCCARTESIANTRANSFORMATIONOPERATOR3D($,$,#163,$,$);
#165= IFCMAPPEDITEM(#135,#164);
#166= IFCCARTESIANPOINT((210.000000000166,0.,49.9999999998581));
#167= IFCCARTESIANTRANSFORMATIONOPERATOR3D($,$,#166,$,$);
#168= IFCMAPPEDITEM(#135,#167);
#169= IFCCARTESIANPOINT((280.00000000022,0.,49.9999999998581));
#170= IFCCARTESIANTRANSFORMATIONOPERATOR3D($,$,#169,$,$);
#171= IFCMAPPEDITEM(#135,#170);
#172= IFCCARTESIANPOINT((350.000000000276,0.,49.9999999998581));
#173= IFCCARTESIANTRANSFORMATIONOPERATOR3D($,$,#172,$,$);
#174= IFCMAPPEDITEM(#135,#173);
#175= IFCCARTESIANPOINT((420.000000000329,0.,49.9999999998581));
#176= IFCCARTESIANTRANSFORMATIONOPERATOR3D($,$,#175,$,$);
#177= IFCMAPPEDITEM(#135,#176);
#178= IFCSHAPEREPRESENTATION(#12,'Body','MappedRepresentation',(#138,#141,#144,#147,#150,#153,#156,#159,#162,#165,#168,#171,#174,#177));
#179= IFCPRODUCTDEFINITIONSHAPE($,$,(#178));
#180= IFCOPENINGELEMENT('2tU8wliYv8kx0ps0QEUL1s',#5,$,$,'Opening',#130,#179,$);
#181= IFCRELVOIDSELEMENT('3Z28coB5v4bRcNOf5vgF9T',#5,'Drill Hole',$,#67,#180);
#182= IFCCARTESIANPOINT((7816.95075918031,23897.371753733,13900.));
#183= IFCDIRECTION((-0.000467666999835273,0.999999890643783,0.));
#184= IFCAXIS2PLACEMENT3D(#182,#183,#128);
#185= IFCLOCALPLACEMENT(#42,#184);
#186= IFCSHAPEREPRESENTATION(#12,'Body','MappedRepresentation',(#138,#141,#144,#147,#150,#153,#156,#159,#162,#165,#168,#171,#174,#177));
#187= IFCPRODUCTDEFINITIONSHAPE($,$,(#186));
#188= IFCOPENINGELEMENT('2aK_rNcaL3mA9q7Y44hn1J',#5,$,$,'Opening',#185,#187,$);
#189= IFCRELVOIDSELEMENT('1mTw1YcDX5qRC$II9Vy__t',#5,'Drill Hole',$,#67,#188);
#190= IFCPROPERTYSINGLEVALUE('PieceMark',$,IFCIDENTIFIER('BEAM'),$);
#191= IFCPROPERTYSINGLEVALUE('IndicationMark',$,IFCIDENTIFIER('b/24'),$);
#192= IFCPROPERTYSINGLEVALUE('PrelimMark',$,IFCIDENTIFIER(''),$);
#193= IFCPROPERTYSINGLEVALUE('MainPieceTag',$,IFCBOOLEAN(.T.),$);
#194= IFCPROPERTYSET('37TfQv_jPDDBARSSDG6YHD',#5,'AISC_EM11_Pset_PieceIdentification','PieceIdentity',(#190,#191,#192,#193));
#195= IFCPROPERTYSINGLEVALUE('MaterialType',$,IFCIDENTIFIER('STEEL'),$);
#196= IFCPROPERTYSINGLEVALUE('MaterialGrade',$,IFCIDENTIFIER('S235JR'),$);
#197= IFCPROPERTYSET('13aagdEOPCS8k0MyI5TzDt',#5,'AISC_EM11_Pset_Material',$,(#195,#196));
#198= IFCPROPERTYSINGLEVALUE('SkewedAngleY',$,IFCREAL(0.),$);
#199= IFCPROPERTYSINGLEVALUE('SkewedAngleX',$,IFCREAL(0.02556),$);
#200= IFCPROPERTYSET('3rQQ8trjz6L96IsowEtlme',#5,'AISC_EM11_Pset_SkewedEnd',$,(#198,#199));
#201= IFCPROPERTYSINGLEVALUE('SkewedAngleX',$,IFCREAL(0.),$);
#202= IFCPROPERTYSET('1PSBWYwlX4GgWD_6XCMZNf',#5,'AISC_EM11_Pset_SkewedEnd_2',$,(#198,#201));
#203= IFCMATERIAL('STEEL/S235JR');
#204= IFCRELAGGREGATES('0xtRPwJPTFtv7udki7D9QJ',#5,$,$,#37,(#39));
#205= IFCRELAGGREGATES('2D9jhCbhlX9BPAv0_PVRib',#5,$,$,#39,(#41));
#206= IFCRELAGGREGATES('2JtvD_QV1Anxb5ghNYQjT1',#5,$,$,#41,(#43));
#207= IFCRELCONTAINEDINSPATIALSTRUCTURE('0ONjJg_mz8K8xKT4xbZR$z',#5,$,$,(#67),#43);
#208= IFCRELDEFINESBYPROPERTIES('3LRAamxhf3k8aLOU2K9lpS',#5,$,$,(#76),#82);
#209= IFCRELDEFINESBYPROPERTIES('0xPqWibaP2r9kRRYTuosgB',#5,$,$,(#90),#93);
#210= IFCRELDEFINESBYPROPERTIES('3mL3JSTe1DgwHBNQKC$Q1N',#5,$,$,(#188,#180,#120),#125);
#211= IFCRELDEFINESBYPROPERTIES('39KCRKhvD3qOEUM27SeB89',#5,$,$,(#67),#194);
#212= IFCRELDEFINESBYPROPERTIES('0QkWAZqs1ArR264R2pSZez',#5,$,$,(#67),#197);
#213= IFCRELDEFINESBYPROPERTIES('3TKGnA2X54OB7CYEl2E7ve',#5,$,$,(#67),#200);
#214= IFCRELDEFINESBYPROPERTIES('1qPZzNsUPC2xyl7wHw5A6N',#5,$,$,(#67),#202);
#215= IFCRELASSOCIATESMATERIAL('2mCIGM3OzA8f05wcS3Ckyg',#5,$,$,(#67),#203);
ENDSEC;

END-ISO-10303-21;
