ISO-10303-21;
HEADER;
FILE_DESCRIPTION(('ViewDefinition[AISC_Steel_Detailing]', 'Option [BaseQuantities:Off]', 'Option [GridExport:On]', 'Option [Assemblies:Off]', 'Option [Bolts:On]', 'Option [Rebars:On]', 'Option [PourObjects:Off]', 'Option [Welds:On]', 'Option [SurfaceTreatments:On]', 'Option [LocationBy:0]', 'Option [ViewColors:Off]', 'Option [SectionedSpine:Off]', 'Option [PropertySets:On]', 'Option [Export all:Off]'),'2;1');
FILE_NAME('b_245_Qty_1.ifc','2026-05-16T11:53:11',('GIOVANNIPC\\gcorrea'),('Structural Designer'),'IFC Database version: Work','Tekla Structures 2020 Service Pack 5, IFC Export Version: 4.0.0.0 Dec  7 2020','');
FILE_SCHEMA(('IFC2X3'));
ENDSEC;

DATA;
#1= IFCPERSON('GIOVANNIPC\\gcorrea','Undefined',$,$,$,$,$,$);
#2= IFCORGANIZATION($,'Trimble Solutions Corporation',$,$,$);
#3= IFCPERSONANDORGANIZATION(#1,#2,$);
#4= IFCAPPLICATION(#2,'2020 Service Pack 5','Tekla Structures','Multi material modeling');
#5= IFCOWNERHISTORY(#3,#4,$,.NOCHANGE.,$,$,$,1778950391);
#6= IFCCARTESIANPOINT((0.,0.,0.));
#7= IFCDIRECTION((1.,0.,0.));
#8= IFCDIRECTION((0.,1.,0.));
#9= IFCDIRECTION((0.,0.,1.));
#10= IFCAXIS2PLACEMENT3D(#6,#9,#7);
#11= IFCGEOMETRICREPRESENTATIONCONTEXT($,'Model',3,1.E-05,#10,$);
#12= IFCGEOMETRICREPRESENTATIONSUBCONTEXT('Body','Model',*,*,*,*,#11,$,.MODEL_VIEW.,$);
#13= IFCGEOMETRICREPRESENTATIONSUBCONTEXT('Axis','Model',*,*,*,*,#11,$,.GRAPH_VIEW.,$);
#14= IFCGEOMETRICREPRESENTATIONSUBCONTEXT('FootPrint','Model',*,*,*,*,#11,$,.MODEL_VIEW.,$);
#15= IFCSIUNIT(*,.LENGTHUNIT.,.MILLI.,.METRE.);
#16= IFCMEASUREWITHUNIT(IFCRATIOMEASURE(304.8),#15);
#17= IFCDIMENSIONALEXPONENTS(1,0,0,0,0,0,0);
#18= IFCCONVERSIONBASEDUNIT(#17,.LENGTHUNIT.,'FOOT',#16);
#19= IFCSIUNIT(*,.AREAUNIT.,$,.SQUARE_METRE.);
#20= IFCMEASUREWITHUNIT(IFCRATIOMEASURE(0.09290304),#19);
#21= IFCDIMENSIONALEXPONENTS(2,0,0,0,0,0,0);
#22= IFCCONVERSIONBASEDUNIT(#21,.AREAUNIT.,'SQUARE FOOT',#20);
#23= IFCSIUNIT(*,.VOLUMEUNIT.,$,.CUBIC_METRE.);
#24= IFCMEASUREWITHUNIT(IFCRATIOMEASURE(0.028316846592),#23);
#25= IFCDIMENSIONALEXPONENTS(3,0,0,0,0,0,0);
#26= IFCCONVERSIONBASEDUNIT(#25,.VOLUMEUNIT.,'CUBIC FOOT',#24);
#27= IFCSIUNIT(*,.MASSUNIT.,.KILO.,.GRAM.);
#28= IFCSIUNIT(*,.TIMEUNIT.,$,.SECOND.);
#29= IFCSIUNIT(*,.PLANEANGLEUNIT.,$,.RADIAN.);
#30= IFCMEASUREWITHUNIT(IFCRATIOMEASURE(0.0174532925199433),#29);
#31= IFCDIMENSIONALEXPONENTS(0,0,0,0,0,0,0);
#32= IFCCONVERSIONBASEDUNIT(#31,.PLANEANGLEUNIT.,'DEGREE',#30);
#33= IFCSIUNIT(*,.SOLIDANGLEUNIT.,$,.STERADIAN.);
#34= IFCSIUNIT(*,.THERMODYNAMICTEMPERATUREUNIT.,$,.DEGREE_CELSIUS.);
#35= IFCSIUNIT(*,.LUMINOUSINTENSITYUNIT.,$,.LUMEN.);
#36= IFCUNITASSIGNMENT((#15,#19,#23,#27,#28,#29,#33,#34,#35));
#37= IFCPROJECT('2G7ZFDNE16yBDU14FA92Me',#5,'Proyecto',$,$,$,$,(#11),#36);
#38= IFCLOCALPLACEMENT($,#10);
#39= IFCSITE('2xvEzEinjBTea80yOTcujY',#5,'Obra',$,$,#38,$,$,.ELEMENT.,$,$,$,$,$);
#40= IFCLOCALPLACEMENT(#38,#10);
#41= IFCBUILDING('2hTDwSlBnFjAFobu5tvbK9',#5,'Undefined',$,$,#40,$,$,.ELEMENT.,$,$,$);
#42= IFCLOCALPLACEMENT(#40,#10);
#43= IFCBUILDINGSTOREY('29hdEUCErFze9E_VIAceOd',#5,'Undefined',$,$,#42,$,$,.ELEMENT.,0.);
#44= IFCOWNERHISTORY(#3,#4,$,.NOCHANGE.,$,$,$,1774040400);
#45= IFCCARTESIANPOINT((68145.0002405116,23896.8849600522,19130.));
#46= IFCAXIS2PLACEMENT3D(#45,#9,#7);
#47= IFCLOCALPLACEMENT(#42,#46);
#48= IFCDIRECTION((1.,0.));
#49= IFCCARTESIANPOINT((0.,0.));
#50= IFCAXIS2PLACEMENT2D(#49,#48);
#51= IFCISHAPEPROFILEDEF(.AREA.,'HEA450',#50,300.,440.,11.5,21.,27.);
#52= IFCDIRECTION((0.,-1.,0.));
#53= IFCDIRECTION((-1.,0.,0.));
#54= IFCCARTESIANPOINT((8250.00169204376,0.,-3.63797880709171E-12));
#55= IFCAXIS2PLACEMENT3D(#54,#53,#52);
#56= IFCEXTRUDEDAREASOLID(#51,#55,#9,8260.);
#57= IFCDIRECTION((-0.999999999999285,-1.19599999743444E-06,0.));
#58= IFCCARTESIANPOINT((8250.00149342838,-0.000119958796858555,-320.000000000004));
#59= IFCDIRECTION((-1.19599999743444E-06,0.999999999999285,0.));
#60= IFCAXIS2PLACEMENT3D(#58,#57,#59);
#61= IFCPLANE(#60);
#62= IFCHALFSPACESOLID(#61,.T.);
#63= IFCBOOLEANCLIPPINGRESULT(.DIFFERENCE.,#56,#62);
#64= IFCCARTESIANPOINT((-10.000240511552,1.15000148070976E-06,-320.000000000004));
#65= IFCAXIS2PLACEMENT3D(#64,#7,#52);
#66= IFCPLANE(#65);
#67= IFCHALFSPACESOLID(#66,.T.);
#68= IFCBOOLEANCLIPPINGRESULT(.DIFFERENCE.,#63,#67);
#69= IFCSHAPEREPRESENTATION(#12,'Body','Clipping',(#68));
#70= IFCPRODUCTDEFINITIONSHAPE($,$,(#69));
#71= IFCBEAM('2ZgWrmGyX2G8NFWhQXa29x',#44,'BEAM','HEA450','HEA450',#47,#70,'IDa3aa0d70-43c8-4240-85cf-82b6a190227b');
#72= IFCLOCALPLACEMENT(#42,#46);
#73= IFCRECTANGLEPROFILEDEF(.AREA.,'PL49*102.3',#50,49.,102.3);
#74= IFCDIRECTION((0.,0.,-1.));
#75= IFCDIRECTION((1.19600001523661E-06,-0.999999999999285,0.));
#76= IFCCARTESIANPOINT((8301.15131291289,151.009940168039,-196.500000000004));
#77= IFCAXIS2PLACEMENT3D(#76,#75,#74);
#78= IFCEXTRUDEDAREASOLID(#73,#77,#9,302.01);
#79= IFCSHAPEREPRESENTATION(#12,'Body','SweptSolid',(#78));
#80= IFCPRODUCTDEFINITIONSHAPE($,$,(#79));
#81= IFCOPENINGELEMENT('1xgWuPl0T0UPWiNP_ZlQll',#5,$,$,'Recess',#72,#80,$);
#82= IFCRELVOIDSELEMENT('0MI$9zzmH9Wgf0gZpAJhBQ',#5,$,$,#71,#81);
#83= IFCPROPERTYSINGLEVALUE('FeatureSubTypes',$,$,$);
#84= IFCPROPERTYSINGLEVALUE('RectangleOpeningWidth',$,IFCPOSITIVELENGTHMEASURE(49.),$);
#85= IFCPROPERTYSINGLEVALUE('RectangleOpeningHeight',$,IFCPOSITIVELENGTHMEASURE(102.3),$);
#86= IFCPROPERTYSINGLEVALUE('OpeningDiameter',$,$,$);
#87= IFCPROPERTYSET('0fRUUjMLf1DALxppEa5GB8',#5,'AISC_EM11_Pset_Opening/Cope',$,(#83,#84,#85,#86));
#88= IFCLOCALPLACEMENT(#42,#46);
#89= IFCCARTESIANPOINT((8301.15131291289,151.009940168039,196.499999999996));
#90= IFCAXIS2PLACEMENT3D(#89,#75,#74);
#91= IFCEXTRUDEDAREASOLID(#73,#90,#9,302.01);
#92= IFCSHAPEREPRESENTATION(#12,'Body','SweptSolid',(#91));
#93= IFCPRODUCTDEFINITIONSHAPE($,$,(#92));
#94= IFCOPENINGELEMENT('2vYamcbIL5av_J97xKAFtz',#5,$,$,'Recess',#88,#93,$);
#95= IFCRELVOIDSELEMENT('24HnD219n8NfsFXGJziaUT',#5,$,$,#71,#94);
#96= IFCCARTESIANPOINT((76349.8381320898,23896.8840788611,19350.));
#97= IFCDIRECTION((-0.0021802770004142,-0.999997623193276,0.));
#98= IFCDIRECTION((-0.999997623193276,0.00218027700041986,0.));
#99= IFCAXIS2PLACEMENT3D(#96,#97,#98);
#100= IFCLOCALPLACEMENT(#42,#99);
#101= IFCCIRCLEPROFILEDEF(.AREA.,$,#50,11.);
#102= IFCCARTESIANPOINT((0.,-0.0999999999969091,0.));
#103= IFCAXIS2PLACEMENT3D(#102,#8,#7);
#104= IFCEXTRUDEDAREASOLID(#101,#103,#9,21.2);
#105= IFCSHAPEREPRESENTATION(#12,'Body','SweptSolid',(#104));
#106= IFCREPRESENTATIONMAP(#10,#105);
#107= IFCCARTESIANPOINT((-5.5297277867794E-10,0.,74.9999999998108));
#108= IFCCARTESIANTRANSFORMATIONOPERATOR3D($,$,#107,$,$);
#109= IFCMAPPEDITEM(#106,#108);
#110= IFCCARTESIANPOINT((74.9999999992433,0.,75.0000000009059));
#111= IFCCARTESIANTRANSFORMATIONOPERATOR3D($,$,#110,$,$);
#112= IFCMAPPEDITEM(#106,#111);
#113= IFCCARTESIANPOINT((149.999999999069,0.,75.0000000019936));
#114= IFCCARTESIANTRANSFORMATIONOPERATOR3D($,$,#113,$,$);
#115= IFCMAPPEDITEM(#106,#114);
#116= IFCCARTESIANPOINT((224.99999999888,0.,75.0000000030886));
#117= IFCCARTESIANTRANSFORMATIONOPERATOR3D($,$,#116,$,$);
#118= IFCMAPPEDITEM(#106,#117);
#119= IFCCARTESIANPOINT((299.99999999869,0.,75.00000000418));
#120= IFCCARTESIANTRANSFORMATIONOPERATOR3D($,$,#119,$,$);
#121= IFCMAPPEDITEM(#106,#120);
#122= IFCCARTESIANPOINT((374.999999998501,0.,75.0000000052678));
#123= IFCCARTESIANTRANSFORMATIONOPERATOR3D($,$,#122,$,$);
#124= IFCMAPPEDITEM(#106,#123);
#125= IFCCARTESIANPOINT((449.999999998312,0.,75.0000000063628));
#126= IFCCARTESIANTRANSFORMATIONOPERATOR3D($,$,#125,$,$);
#127= IFCMAPPEDITEM(#106,#126);
#128= IFCCARTESIANPOINT((524.999999998123,0.,75.0000000074542));
#129= IFCCARTESIANTRANSFORMATIONOPERATOR3D($,$,#128,$,$);
#130= IFCMAPPEDITEM(#106,#129);
#131= IFCCARTESIANPOINT((599.999999997934,0.,75.000000008542));
#132= IFCCARTESIANTRANSFORMATIONOPERATOR3D($,$,#131,$,$);
#133= IFCMAPPEDITEM(#106,#132);
#134= IFCCARTESIANPOINT((674.999999997744,0.,75.000000009637));
#135= IFCCARTESIANTRANSFORMATIONOPERATOR3D($,$,#134,$,$);
#136= IFCMAPPEDITEM(#106,#135);
#137= IFCCARTESIANPOINT((5.38420863449574E-10,0.,-74.9999999998108));
#138= IFCCARTESIANTRANSFORMATIONOPERATOR3D($,$,#137,$,$);
#139= IFCMAPPEDITEM(#106,#138);
#140= IFCCARTESIANPOINT((75.0000000003492,0.,-74.9999999987194));
#141= IFCCARTESIANTRANSFORMATIONOPERATOR3D($,$,#140,$,$);
#142= IFCMAPPEDITEM(#106,#141);
#143= IFCCARTESIANPOINT((150.00000000016,0.,-74.9999999976317));
#144= IFCCARTESIANTRANSFORMATIONOPERATOR3D($,$,#143,$,$);
#145= IFCMAPPEDITEM(#106,#144);
#146= IFCCARTESIANPOINT((224.999999999971,0.,-74.9999999965366));
#147= IFCCARTESIANTRANSFORMATIONOPERATOR3D($,$,#146,$,$);
#148= IFCMAPPEDITEM(#106,#147);
#149= IFCCARTESIANPOINT((299.999999999782,0.,-74.9999999954453));
#150= IFCCARTESIANTRANSFORMATIONOPERATOR3D($,$,#149,$,$);
#151= IFCMAPPEDITEM(#106,#150);
#152= IFCCARTESIANPOINT((374.999999999593,0.,-74.9999999943575));
#153= IFCCARTESIANTRANSFORMATIONOPERATOR3D($,$,#152,$,$);
#154= IFCMAPPEDITEM(#106,#153);
#155= IFCCARTESIANPOINT((449.999999999403,0.,-74.9999999932625));
#156= IFCCARTESIANTRANSFORMATIONOPERATOR3D($,$,#155,$,$);
#157= IFCMAPPEDITEM(#106,#156);
#158= IFCCARTESIANPOINT((524.999999999214,0.,-74.9999999921711));
#159= IFCCARTESIANTRANSFORMATIONOPERATOR3D($,$,#158,$,$);
#160= IFCMAPPEDITEM(#106,#159);
#161= IFCCARTESIANPOINT((599.999999999025,0.,-74.9999999910833));
#162= IFCCARTESIANTRANSFORMATIONOPERATOR3D($,$,#161,$,$);
#163= IFCMAPPEDITEM(#106,#162);
#164= IFCCARTESIANPOINT((674.999999998836,0.,-74.9999999899883));
#165= IFCCARTESIANTRANSFORMATIONOPERATOR3D($,$,#164,$,$);
#166= IFCMAPPEDITEM(#106,#165);
#167= IFCSHAPEREPRESENTATION(#12,'Body','MappedRepresentation',(#109,#112,#115,#118,#121,#124,#127,#130,#133,#136,#139,#142,#145,#148,#151,#154,#157,#160,#163,#166));
#168= IFCPRODUCTDEFINITIONSHAPE($,$,(#167));
#169= IFCOPENINGELEMENT('3WaFwqUA1D2xKL1SnA1jQ1',#5,$,$,'Opening',#100,#168,$);
#170= IFCRELVOIDSELEMENT('2MvHyMENz9_RfD71NuFW_A',#5,'Drill Hole',$,#71,#169);
#171= IFCPROPERTYSINGLEVALUE('FeatureSubTypes',$,IFCLABEL('TORNILLO'),$);
#172= IFCPROPERTYSINGLEVALUE('RectangleOpeningWidth',$,$,$);
#173= IFCPROPERTYSINGLEVALUE('RectangleOpeningHeight',$,$,$);
#174= IFCPROPERTYSET('1a2UK1bi16C9pZN3xhtHgm',#5,'AISC_EM11_Pset_Opening/Cope',$,(#171,#172,#173,#86));
#175= IFCCARTESIANPOINT((76395.0017339398,23896.8838913428,19302.));
#176= IFCAXIS2PLACEMENT3D(#175,#57,#74);
#177= IFCLOCALPLACEMENT(#42,#176);
#178= IFCCIRCLEPROFILEDEF(.AREA.,$,#50,11.5);
#179= IFCCARTESIANPOINT((0.,-5.8501738080159,0.));
#180= IFCAXIS2PLACEMENT3D(#179,#8,#7);
#181= IFCEXTRUDEDAREASOLID(#178,#180,#9,11.7);
#182= IFCSHAPEREPRESENTATION(#12,'Body','SweptSolid',(#181));
#183= IFCREPRESENTATIONMAP(#10,#182);
#184= IFCCARTESIANPOINT((40.,0.,45.0000000000582));
#185= IFCCARTESIANTRANSFORMATIONOPERATOR3D($,$,#184,$,$);
#186= IFCMAPPEDITEM(#183,#185);
#187= IFCCARTESIANPOINT((110.,0.,45.0000000000582));
#188= IFCCARTESIANTRANSFORMATIONOPERATOR3D($,$,#187,$,$);
#189= IFCMAPPEDITEM(#183,#188);
#190= IFCCARTESIANPOINT((180.,0.,45.0000000000582));
#191= IFCCARTESIANTRANSFORMATIONOPERATOR3D($,$,#190,$,$);
#192= IFCMAPPEDITEM(#183,#191);
#193= IFCCARTESIANPOINT((250.,0.,45.0000000000582));
#194= IFCCARTESIANTRANSFORMATIONOPERATOR3D($,$,#193,$,$);
#195= IFCMAPPEDITEM(#183,#194);
#196= IFCCARTESIANPOINT((320.,0.,45.0000000000582));
#197= IFCCARTESIANTRANSFORMATIONOPERATOR3D($,$,#196,$,$);
#198= IFCMAPPEDITEM(#183,#197);
#199= IFCSHAPEREPRESENTATION(#12,'Body','MappedRepresentation',(#186,#189,#192,#195,#198));
#200= IFCPRODUCTDEFINITIONSHAPE($,$,(#199));
#201= IFCOPENINGELEMENT('3OOE$bP_f7pQzuY3EyaG_A',#5,$,$,'Opening',#177,#200,$);
#202= IFCRELVOIDSELEMENT('0SXI3YUqX4wxWLmAFT9SWQ',#5,'Drill Hole',$,#71,#201);
#203= IFCCARTESIANPOINT((68135.,23896.8849600522,19350.));
#204= IFCAXIS2PLACEMENT3D(#203,#7,#74);
#205= IFCLOCALPLACEMENT(#42,#204);
#206= IFCCARTESIANPOINT((0.,-5.8500040250052,0.));
#207= IFCAXIS2PLACEMENT3D(#206,#8,#7);
#208= IFCEXTRUDEDAREASOLID(#178,#207,#9,11.7);
#209= IFCSHAPEREPRESENTATION(#12,'Body','SweptSolid',(#208));
#210= IFCREPRESENTATIONMAP(#10,#209);
#211= IFCCARTESIANPOINT((80.,0.,45.));
#212= IFCCARTESIANTRANSFORMATIONOPERATOR3D($,$,#211,$,$);
#213= IFCMAPPEDITEM(#210,#212);
#214= IFCCARTESIANPOINT((150.,0.,45.));
#215= IFCCARTESIANTRANSFORMATIONOPERATOR3D($,$,#214,$,$);
#216= IFCMAPPEDITEM(#210,#215);
#217= IFCCARTESIANPOINT((220.,0.,45.));
#218= IFCCARTESIANTRANSFORMATIONOPERATOR3D($,$,#217,$,$);
#219= IFCMAPPEDITEM(#210,#218);
#220= IFCCARTESIANPOINT((290.,0.,45.));
#221= IFCCARTESIANTRANSFORMATIONOPERATOR3D($,$,#220,$,$);
#222= IFCMAPPEDITEM(#210,#221);
#223= IFCCARTESIANPOINT((360.,0.,45.));
#224= IFCCARTESIANTRANSFORMATIONOPERATOR3D($,$,#223,$,$);
#225= IFCMAPPEDITEM(#210,#224);
#226= IFCSHAPEREPRESENTATION(#12,'Body','MappedRepresentation',(#213,#216,#219,#222,#225));
#227= IFCPRODUCTDEFINITIONSHAPE($,$,(#226));
#228= IFCOPENINGELEMENT('3Lg61EruH1VuBPG5$3HIQI',#5,$,$,'Opening',#205,#227,$);
#229= IFCRELVOIDSELEMENT('3fI4KvJTn0Qe$NT18FigW9',#5,'Drill Hole',$,#71,#228);
#230= IFCCARTESIANPOINT((68179.9997834091,23896.8840303914,18910.));
#231= IFCDIRECTION((0.0021802770004142,-0.999997623193276,0.));
#232= IFCDIRECTION((0.999997623193276,0.00218027700041986,0.));
#233= IFCAXIS2PLACEMENT3D(#230,#231,#232);
#234= IFCLOCALPLACEMENT(#42,#233);
#235= IFCSHAPEREPRESENTATION(#12,'Body','MappedRepresentation',(#109,#112,#115,#118,#121,#124,#127,#130,#133,#136,#139,#142,#145,#148,#151,#154,#157,#160,#163,#166));
#236= IFCPRODUCTDEFINITIONSHAPE($,$,(#235));
#237= IFCOPENINGELEMENT('3$SSU$75f8WvB07Th67lK9',#5,$,$,'Opening',#234,#236,$);
#238= IFCRELVOIDSELEMENT('3xHmw8g11C29GUqucQ8piR',#5,'Drill Hole',$,#71,#237);
#239= IFCCARTESIANPOINT((68179.9997834091,23896.8840303914,19350.));
#240= IFCDIRECTION((-0.0021802770004142,0.999997623193276,0.));
#241= IFCAXIS2PLACEMENT3D(#239,#240,#232);
#242= IFCLOCALPLACEMENT(#42,#241);
#243= IFCSHAPEREPRESENTATION(#12,'Body','MappedRepresentation',(#139,#142,#145,#148,#151,#154,#157,#160,#163,#166,#109,#112,#115,#118,#121,#124,#127,#130,#133,#136));
#244= IFCPRODUCTDEFINITIONSHAPE($,$,(#243));
#245= IFCOPENINGELEMENT('1u24BeBfj5WA6qfF$1ohjq',#5,$,$,'Opening',#242,#244,$);
#246= IFCRELVOIDSELEMENT('3ybLgDU4TAnffOeZ7Ez4RU',#5,'Drill Hole',$,#71,#245);
#247= IFCPROPERTYSINGLEVALUE('PieceMark',$,IFCIDENTIFIER('BEAM'),$);
#248= IFCPROPERTYSINGLEVALUE('IndicationMark',$,IFCIDENTIFIER('b/245'),$);
#249= IFCPROPERTYSINGLEVALUE('PrelimMark',$,IFCIDENTIFIER(''),$);
#250= IFCPROPERTYSINGLEVALUE('MainPieceTag',$,IFCBOOLEAN(.T.),$);
#251= IFCPROPERTYSET('0uYLQgOzDFLfdMbECINYtp',#5,'AISC_EM11_Pset_PieceIdentification','PieceIdentity',(#247,#248,#249,#250));
#252= IFCPROPERTYSINGLEVALUE('MaterialType',$,IFCIDENTIFIER('STEEL'),$);
#253= IFCPROPERTYSINGLEVALUE('MaterialGrade',$,IFCIDENTIFIER('S235JR'),$);
#254= IFCPROPERTYSET('3H6r6DfpL049VBNxMGAjpF',#5,'AISC_EM11_Pset_Material',$,(#252,#253));
#255= IFCPROPERTYSINGLEVALUE('SkewedAngleY',$,IFCREAL(0.),$);
#256= IFCPROPERTYSINGLEVALUE('SkewedAngleX',$,IFCREAL(-1.E-05),$);
#257= IFCPROPERTYSET('25yIley$P8EOfR7u4PebqD',#5,'AISC_EM11_Pset_SkewedEnd',$,(#255,#256));
#258= IFCPROPERTYSINGLEVALUE('SkewedAngleX',$,IFCREAL(-7.E-05),$);
#259= IFCPROPERTYSET('2Hxy1Wzif1wvIR5_7f1LTn',#5,'AISC_EM11_Pset_SkewedEnd_2',$,(#255,#258));
#260= IFCMATERIAL('STEEL/S235JR');
#261= IFCRELAGGREGATES('3JantHTcP95eMb05Iuncqt',#5,$,$,#37,(#39));
#262= IFCRELAGGREGATES('2bs39ZluhRNwetINaA3u69',#5,$,$,#39,(#41));
#263= IFCRELAGGREGATES('173U4WbRf4ReUmVQVS6OZQ',#5,$,$,#41,(#43));
#264= IFCRELCONTAINEDINSPATIALSTRUCTURE('1ZSYPxNKD5mf_RWT5GSVzo',#5,$,$,(#71),#43);
#265= IFCRELDEFINESBYPROPERTIES('22clHcZpT7780wHscK2vc0',#5,$,$,(#94,#81),#87);
#266= IFCRELDEFINESBYPROPERTIES('2MigrK0q98Ax9WPXWMpYpF',#5,$,$,(#245,#237,#228,#201,#169),#174);
#267= IFCRELDEFINESBYPROPERTIES('0YQ7FTcMbA$gcMik$EtlP6',#5,$,$,(#71),#251);
#268= IFCRELDEFINESBYPROPERTIES('2NE$fSWqLBexJAVIpJlKy2',#5,$,$,(#71),#254);
#269= IFCRELDEFINESBYPROPERTIES('0LNhKZJUr5WgtpHG6uxyRN',#5,$,$,(#71),#257);
#270= IFCRELDEFINESBYPROPERTIES('1L0ef0xqz4Qucp17Na3VZ3',#5,$,$,(#71),#259);
#271= IFCRELASSOCIATESMATERIAL('1OR1cE26vAVQuU1f3nhsGr',#5,$,$,(#71),#260);
ENDSEC;

END-ISO-10303-21;
