ISO-10303-21;
HEADER;
FILE_DESCRIPTION(('ViewDefinition[AISC_Steel_Detailing]', 'Option [BaseQuantities:Off]', 'Option [GridExport:On]', 'Option [Assemblies:Off]', 'Option [Bolts:On]', 'Option [Rebars:On]', 'Option [PourObjects:Off]', 'Option [Welds:On]', 'Option [SurfaceTreatments:On]', 'Option [LocationBy:0]', 'Option [ViewColors:Off]', 'Option [SectionedSpine:Off]', 'Option [PropertySets:On]', 'Option [Export all:Off]'),'2;1');
FILE_NAME('b_249_Qty_1.ifc','2026-05-16T11:53:10',('GIOVANNIPC\\gcorrea'),('Structural Designer'),'IFC Database version: Work','Tekla Structures 2020 Service Pack 5, IFC Export Version: 4.0.0.0 Dec  7 2020','');
FILE_SCHEMA(('IFC2X3'));
ENDSEC;

DATA;
#1= IFCPERSON('GIOVANNIPC\\gcorrea','Undefined',$,$,$,$,$,$);
#2= IFCORGANIZATION($,'Trimble Solutions Corporation',$,$,$);
#3= IFCPERSONANDORGANIZATION(#1,#2,$);
#4= IFCAPPLICATION(#2,'2020 Service Pack 5','Tekla Structures','Multi material modeling');
#5= IFCOWNERHISTORY(#3,#4,$,.NOCHANGE.,$,$,$,1778950390);
#6= IFCCARTESIANPOINT((0.,0.,0.));
#7= IFCDIRECTION((1.,0.,0.));
#8= IFCDIRECTION((0.,1.,0.));
#9= IFCDIRECTION((0.,0.,1.));
#10= IFCAXIS2PLACEMENT3D(#6,#9,#7);
#11= IFCGEOMETRICREPRESENTATIONCONTEXT($,'Model',3,1.E-05,#10,$);
#12= IFCGEOMETRICREPRESENTATIONSUBCONTEXT('Body','Model',*,*,*,*,#11,$,.MODEL_VIEW.,$);
#13= IFCGEOMETRICREPRESENTATIONSUBCONTEXT('Axis','Model',*,*,*,*,#11,$,.GRAPH_VIEW.,$);
#14= IFCGEOMETRICREPRESENTATIONSUBCONTEXT('FootPrint','Model',*,*,*,*,#11,$,.MODEL_VIEW.,$);
#15= IFCSIUNIT(*,.LENGTHUNIT.,.MILLI.,.METRE.);
#16= IFCMEASUREWITHUNIT(IFCRATIOMEASURE(304.8),#15);
#17= IFCDIMENSIONALEXPONENTS(1,0,0,0,0,0,0);
#18= IFCCONVERSIONBASEDUNIT(#17,.LENGTHUNIT.,'FOOT',#16);
#19= IFCSIUNIT(*,.AREAUNIT.,$,.SQUARE_METRE.);
#20= IFCMEASUREWITHUNIT(IFCRATIOMEASURE(0.09290304),#19);
#21= IFCDIMENSIONALEXPONENTS(2,0,0,0,0,0,0);
#22= IFCCONVERSIONBASEDUNIT(#21,.AREAUNIT.,'SQUARE FOOT',#20);
#23= IFCSIUNIT(*,.VOLUMEUNIT.,$,.CUBIC_METRE.);
#24= IFCMEASUREWITHUNIT(IFCRATIOMEASURE(0.028316846592),#23);
#25= IFCDIMENSIONALEXPONENTS(3,0,0,0,0,0,0);
#26= IFCCONVERSIONBASEDUNIT(#25,.VOLUMEUNIT.,'CUBIC FOOT',#24);
#27= IFCSIUNIT(*,.MASSUNIT.,.KILO.,.GRAM.);
#28= IFCSIUNIT(*,.TIMEUNIT.,$,.SECOND.);
#29= IFCSIUNIT(*,.PLANEANGLEUNIT.,$,.RADIAN.);
#30= IFCMEASUREWITHUNIT(IFCRATIOMEASURE(0.0174532925199433),#29);
#31= IFCDIMENSIONALEXPONENTS(0,0,0,0,0,0,0);
#32= IFCCONVERSIONBASEDUNIT(#31,.PLANEANGLEUNIT.,'DEGREE',#30);
#33= IFCSIUNIT(*,.SOLIDANGLEUNIT.,$,.STERADIAN.);
#34= IFCSIUNIT(*,.THERMODYNAMICTEMPERATUREUNIT.,$,.DEGREE_CELSIUS.);
#35= IFCSIUNIT(*,.LUMINOUSINTENSITYUNIT.,$,.LUMEN.);
#36= IFCUNITASSIGNMENT((#15,#19,#23,#27,#28,#29,#33,#34,#35));
#37= IFCPROJECT('2G7ZFDNE16yBDU14FA92Me',#5,'Proyecto',$,$,$,$,(#11),#36);
#38= IFCLOCALPLACEMENT($,#10);
#39= IFCSITE('2xvEzEinjBTea80yOTcujY',#5,'Obra',$,$,#38,$,$,.ELEMENT.,$,$,$,$,$);
#40= IFCLOCALPLACEMENT(#38,#10);
#41= IFCBUILDING('1fZ9hjctP5zgpKD3$iVsQl',#5,'Undefined',$,$,#40,$,$,.ELEMENT.,$,$,$);
#42= IFCLOCALPLACEMENT(#40,#10);
#43= IFCBUILDINGSTOREY('29hdEUCErFze9E_VIAceOd',#5,'Undefined',$,$,#42,$,$,.ELEMENT.,0.);
#44= IFCOWNERHISTORY(#3,#4,$,.NOCHANGE.,$,$,$,1773414000);
#45= IFCCARTESIANPOINT((68067.7983979111,18562.9959764974,19230.));
#46= IFCDIRECTION((0.999999999998681,1.62400000004573E-06,0.));
#47= IFCAXIS2PLACEMENT3D(#45,#9,#46);
#48= IFCLOCALPLACEMENT(#42,#47);
#49= IFCDIRECTION((1.,0.));
#50= IFCCARTESIANPOINT((0.,0.));
#51= IFCAXIS2PLACEMENT2D(#50,#49);
#52= IFCISHAPEPROFILEDEF(.AREA.,'IPE240',#51,120.,240.,6.199999809,9.800000191,15.);
#53= IFCDIRECTION((4.2351647362715E-22,-1.,0.));
#54= IFCDIRECTION((-1.,-4.2351647362715E-22,0.));
#55= IFCCARTESIANPOINT((4112.20158234487,1.74158511299869E-18,0.));
#56= IFCAXIS2PLACEMENT3D(#55,#54,#53);
#57= IFCEXTRUDEDAREASOLID(#52,#56,#9,4075.);
#58= IFCDIRECTION((-0.999999999998681,1.62399999680929E-06,0.));
#59= IFCCARTESIANPOINT((4112.20138550365,0.000108645599539159,-220.));
#60= IFCDIRECTION((1.62399999680929E-06,0.999999999998681,0.));
#61= IFCAXIS2PLACEMENT3D(#59,#58,#60);
#62= IFCPLANE(#61);
#63= IFCHALFSPACESOLID(#62,.T.);
#64= IFCBOOLEANCLIPPINGRESULT(.DIFFERENCE.,#57,#63);
#65= IFCDIRECTION((0.999999999998681,-1.62399999680929E-06,0.));
#66= IFCCARTESIANPOINT((37.2016020887095,-0.000162887197802775,-220.));
#67= IFCDIRECTION((-1.62399999680929E-06,-0.999999999998681,0.));
#68= IFCAXIS2PLACEMENT3D(#66,#65,#67);
#69= IFCPLANE(#68);
#70= IFCHALFSPACESOLID(#69,.T.);
#71= IFCBOOLEANCLIPPINGRESULT(.DIFFERENCE.,#64,#70);
#72= IFCSHAPEREPRESENTATION(#12,'Body','Clipping',(#71));
#73= IFCPRODUCTDEFINITIONSHAPE($,$,(#72));
#74= IFCBEAM('31fyg5bRf7ywiUMzndl2A2',#44,'BEAM','IPE240','IPE240',#48,#73,'IDc1a7ca85-95ba-47f3-ab1e-5bdc67bc2282');
#75= IFCLOCALPLACEMENT(#42,#47);
#76= IFCRECTANGLEPROFILEDEF(.AREA.,'PL25.8*68.9',#51,25.8,68.9);
#77= IFCDIRECTION((0.,0.,-1.));
#78= IFCCARTESIANPOINT((4146.65148461518,60.999944057453,-108.099999904502));
#79= IFCAXIS2PLACEMENT3D(#78,#67,#77);
#80= IFCEXTRUDEDAREASOLID(#76,#79,#9,122.01);
#81= IFCSHAPEREPRESENTATION(#12,'Body','SweptSolid',(#80));
#82= IFCPRODUCTDEFINITIONSHAPE($,$,(#81));
#83= IFCOPENINGELEMENT('38g5kqg3D2Z8viI9aPpr$p',#5,$,$,'Recess',#75,#82,$);
#84= IFCRELVOIDSELEMENT('3eD4n0xhTDjgf$bbSazK0c',#5,$,$,#74,#83);
#85= IFCPROPERTYSINGLEVALUE('FeatureSubTypes',$,$,$);
#86= IFCPROPERTYSINGLEVALUE('RectangleOpeningWidth',$,IFCPOSITIVELENGTHMEASURE(25.8),$);
#87= IFCPROPERTYSINGLEVALUE('RectangleOpeningHeight',$,IFCPOSITIVELENGTHMEASURE(68.9),$);
#88= IFCPROPERTYSINGLEVALUE('OpeningDiameter',$,$,$);
#89= IFCPROPERTYSET('3$qw$dJon5Zf4GN$533upd',#5,'AISC_EM11_Pset_Opening/Cope',$,(#85,#86,#87,#88));
#90= IFCLOCALPLACEMENT(#42,#47);
#91= IFCCARTESIANPOINT((4146.65148461518,60.999944057453,108.099999904502));
#92= IFCAXIS2PLACEMENT3D(#91,#67,#77);
#93= IFCEXTRUDEDAREASOLID(#76,#92,#9,122.01);
#94= IFCSHAPEREPRESENTATION(#12,'Body','SweptSolid',(#93));
#95= IFCPRODUCTDEFINITIONSHAPE($,$,(#94));
#96= IFCOPENINGELEMENT('14wizNq9z4sAzEs6lgnPq3',#5,$,$,'Recess',#90,#95,$);
#97= IFCRELVOIDSELEMENT('0X_3PdTnL0qvINo79xNPIN',#5,$,$,#74,#96);
#98= IFCLOCALPLACEMENT(#42,#47);
#99= IFCRECTANGLEPROFILEDEF(.AREA.,'PL36.6*102.3',#51,36.6,102.3);
#100= IFCCARTESIANPOINT((-13.9484970702256,-60.9999169324429,102.69999981));
#101= IFCAXIS2PLACEMENT3D(#100,#60,#77);
#102= IFCEXTRUDEDAREASOLID(#99,#101,#9,122.01);
#103= IFCSHAPEREPRESENTATION(#12,'Body','SweptSolid',(#102));
#104= IFCPRODUCTDEFINITIONSHAPE($,$,(#103));
#105= IFCOPENINGELEMENT('1v4rCKgqL4w9gcsbmLp$w0',#5,$,$,'Recess',#98,#104,$);
#106= IFCRELVOIDSELEMENT('3Af0TBBNL3MvyccZKOcELp',#5,$,$,#74,#105);
#107= IFCPROPERTYSINGLEVALUE('RectangleOpeningWidth',$,IFCPOSITIVELENGTHMEASURE(36.6),$);
#108= IFCPROPERTYSINGLEVALUE('RectangleOpeningHeight',$,IFCPOSITIVELENGTHMEASURE(102.3),$);
#109= IFCPROPERTYSET('0J1FiGLaT0nPtLF38WTuq2',#5,'AISC_EM11_Pset_Opening/Cope',$,(#85,#107,#108,#88));
#110= IFCCARTESIANPOINT((72179.9997834091,18563.002763358,19340.199999809));
#111= IFCAXIS2PLACEMENT3D(#110,#54,#77);
#112= IFCLOCALPLACEMENT(#42,#111);
#113= IFCCIRCLEPROFILEDEF(.AREA.,$,#51,9.5);
#114= IFCCARTESIANPOINT((0.,-3.19981006303492,0.));
#115= IFCAXIS2PLACEMENT3D(#114,#8,#7);
#116= IFCEXTRUDEDAREASOLID(#113,#115,#9,6.4);
#117= IFCSHAPEREPRESENTATION(#12,'Body','SweptSolid',(#116));
#118= IFCREPRESENTATIONMAP(#10,#117);
#119= IFCCARTESIANPOINT((170.199996948242,0.,50.));
#120= IFCCARTESIANTRANSFORMATIONOPERATOR3D($,$,#119,$,$);
#121= IFCMAPPEDITEM(#118,#120);
#122= IFCCARTESIANPOINT((110.199996948242,0.,50.));
#123= IFCCARTESIANTRANSFORMATIONOPERATOR3D($,$,#122,$,$);
#124= IFCMAPPEDITEM(#118,#123);
#125= IFCCARTESIANPOINT((50.2000007629395,0.,50.));
#126= IFCCARTESIANTRANSFORMATIONOPERATOR3D($,$,#125,$,$);
#127= IFCMAPPEDITEM(#118,#126);
#128= IFCSHAPEREPRESENTATION(#12,'Body','MappedRepresentation',(#121,#124,#127));
#129= IFCPRODUCTDEFINITIONSHAPE($,$,(#128));
#130= IFCOPENINGELEMENT('2sA1GYFxnElArKHWExzTyw',#5,$,$,'Opening',#112,#129,$);
#131= IFCRELVOIDSELEMENT('0Qgk7r3l96vQyf3Tqeywvx',#5,'Drill Hole',$,#74,#130);
#132= IFCPROPERTYSINGLEVALUE('FeatureSubTypes',$,IFCLABEL('TORNILLO'),$);
#133= IFCPROPERTYSINGLEVALUE('RectangleOpeningWidth',$,$,$);
#134= IFCPROPERTYSINGLEVALUE('RectangleOpeningHeight',$,$,$);
#135= IFCPROPERTYSET('35$OCO87f9HfhliCQCSNm0',#5,'AISC_EM11_Pset_Opening/Cope',$,(#132,#133,#134,#88));
#136= IFCCARTESIANPOINT((68105.,18562.9958740256,19335.39999962));
#137= IFCAXIS2PLACEMENT3D(#136,#7,#77);
#138= IFCLOCALPLACEMENT(#42,#137);
#139= IFCCARTESIANPOINT((0.,-3.19975581722031,0.));
#140= IFCAXIS2PLACEMENT3D(#139,#8,#7);
#141= IFCEXTRUDEDAREASOLID(#113,#140,#9,6.4);
#142= IFCSHAPEREPRESENTATION(#12,'Body','SweptSolid',(#141));
#143= IFCREPRESENTATIONMAP(#10,#142);
#144= IFCCARTESIANPOINT((165.399993896484,0.,50.));
#145= IFCCARTESIANTRANSFORMATIONOPERATOR3D($,$,#144,$,$);
#146= IFCMAPPEDITEM(#143,#145);
#147= IFCCARTESIANPOINT((105.400001525879,0.,50.));
#148= IFCCARTESIANTRANSFORMATIONOPERATOR3D($,$,#147,$,$);
#149= IFCMAPPEDITEM(#143,#148);
#150= IFCCARTESIANPOINT((45.4000015258789,0.,50.));
#151= IFCCARTESIANTRANSFORMATIONOPERATOR3D($,$,#150,$,$);
#152= IFCMAPPEDITEM(#143,#151);
#153= IFCSHAPEREPRESENTATION(#12,'Body','MappedRepresentation',(#146,#149,#152));
#154= IFCPRODUCTDEFINITIONSHAPE($,$,(#153));
#155= IFCOPENINGELEMENT('2_fmnZHMb8FvTx7pCDLQil',#5,$,$,'Opening',#138,#154,$);
#156= IFCRELVOIDSELEMENT('0EqpvRq5r4$xgEmVhcWQMQ',#5,'Drill Hole',$,#74,#155);
#157= IFCPROPERTYSINGLEVALUE('PieceMark',$,IFCIDENTIFIER('BEAM'),$);
#158= IFCPROPERTYSINGLEVALUE('IndicationMark',$,IFCIDENTIFIER('b/249'),$);
#159= IFCPROPERTYSINGLEVALUE('PrelimMark',$,IFCIDENTIFIER(''),$);
#160= IFCPROPERTYSINGLEVALUE('MainPieceTag',$,IFCBOOLEAN(.T.),$);
#161= IFCPROPERTYSET('025B0ljZ110Pmrf28$AB$S',#5,'AISC_EM11_Pset_PieceIdentification','PieceIdentity',(#157,#158,#159,#160));
#162= IFCPROPERTYSINGLEVALUE('MaterialType',$,IFCIDENTIFIER('STEEL'),$);
#163= IFCPROPERTYSINGLEVALUE('MaterialGrade',$,IFCIDENTIFIER('S235JR'),$);
#164= IFCPROPERTYSET('0$rybAKnn5v97d2IoqauhV',#5,'AISC_EM11_Pset_Material',$,(#162,#163));
#165= IFCPROPERTYSINGLEVALUE('SkewedAngleY',$,IFCREAL(0.),$);
#166= IFCPROPERTYSINGLEVALUE('SkewedAngleX',$,IFCREAL(9.E-05),$);
#167= IFCPROPERTYSET('0i4LQ5YKr99PKjDIb9H_T1',#5,'AISC_EM11_Pset_SkewedEnd',$,(#165,#166));
#168= IFCPROPERTYSET('0cmAOYlsD9HwhWor$oLCoa',#5,'AISC_EM11_Pset_SkewedEnd_2',$,(#165,#166));
#169= IFCMATERIAL('STEEL/S235JR');
#170= IFCRELAGGREGATES('0TEujzqFrFqQ591Y9vvX3S',#5,$,$,#37,(#39));
#171= IFCRELAGGREGATES('2lWA$F6X7X6iNRJqRBBpLk',#5,$,$,#39,(#41));
#172= IFCRELAGGREGATES('0ZWiRKzKr7p9LHNvJa7UnS',#5,$,$,#41,(#43));
#173= IFCRELCONTAINEDINSPATIALSTRUCTURE('1uJxpFd7z43eUk$l$LxOGI',#5,$,$,(#74),#43);
#174= IFCRELDEFINESBYPROPERTIES('3YFa8aSWP9TutilMYVl2V_',#5,$,$,(#96,#83),#89);
#175= IFCRELDEFINESBYPROPERTIES('2UJD$nNGn8DfFtCzdlFv4k',#5,$,$,(#105),#109);
#176= IFCRELDEFINESBYPROPERTIES('3hMGqU2lPEIfCm_1061fZ3',#5,$,$,(#155,#130),#135);
#177= IFCRELDEFINESBYPROPERTIES('2bSpzqp657eBsGAEECIdKr',#5,$,$,(#74),#161);
#178= IFCRELDEFINESBYPROPERTIES('1oeFWqWDv6GwF_D44E9KVX',#5,$,$,(#74),#164);
#179= IFCRELDEFINESBYPROPERTIES('2$jdYb5ET1hPuRECOYXUnB',#5,$,$,(#74),#167);
#180= IFCRELDEFINESBYPROPERTIES('0ogvZ0Dyn5nPWIdLplfn8o',#5,$,$,(#74),#168);
#181= IFCRELASSOCIATESMATERIAL('34Yy8_d_P3uPaDZgYUybPg',#5,$,$,(#74),#169);
ENDSEC;

END-ISO-10303-21;
