ISO-10303-21;
HEADER;
FILE_DESCRIPTION(('ViewDefinition[AISC_Steel_Detailing]', 'Option [BaseQuantities:Off]', 'Option [GridExport:On]', 'Option [Assemblies:Off]', 'Option [Bolts:On]', 'Option [Rebars:On]', 'Option [PourObjects:Off]', 'Option [Welds:On]', 'Option [SurfaceTreatments:On]', 'Option [LocationBy:0]', 'Option [ViewColors:Off]', 'Option [SectionedSpine:Off]', 'Option [PropertySets:On]', 'Option [Export all:Off]'),'2;1');
FILE_NAME('b_256_Qty_1.ifc','2026-05-16T11:53:11',('GIOVANNIPC\\gcorrea'),('Structural Designer'),'IFC Database version: Work','Tekla Structures 2020 Service Pack 5, IFC Export Version: 4.0.0.0 Dec  7 2020','');
FILE_SCHEMA(('IFC2X3'));
ENDSEC;

DATA;
#1= IFCPERSON('GIOVANNIPC\\gcorrea','Undefined',$,$,$,$,$,$);
#2= IFCORGANIZATION($,'Trimble Solutions Corporation',$,$,$);
#3= IFCPERSONANDORGANIZATION(#1,#2,$);
#4= IFCAPPLICATION(#2,'2020 Service Pack 5','Tekla Structures','Multi material modeling');
#5= IFCOWNERHISTORY(#3,#4,$,.NOCHANGE.,$,$,$,1778950391);
#6= IFCCARTESIANPOINT((0.,0.,0.));
#7= IFCDIRECTION((1.,0.,0.));
#8= IFCDIRECTION((0.,1.,0.));
#9= IFCDIRECTION((0.,0.,1.));
#10= IFCAXIS2PLACEMENT3D(#6,#9,#7);
#11= IFCGEOMETRICREPRESENTATIONCONTEXT($,'Model',3,1.E-05,#10,$);
#12= IFCGEOMETRICREPRESENTATIONSUBCONTEXT('Body','Model',*,*,*,*,#11,$,.MODEL_VIEW.,$);
#13= IFCGEOMETRICREPRESENTATIONSUBCONTEXT('Axis','Model',*,*,*,*,#11,$,.GRAPH_VIEW.,$);
#14= IFCGEOMETRICREPRESENTATIONSUBCONTEXT('FootPrint','Model',*,*,*,*,#11,$,.MODEL_VIEW.,$);
#15= IFCSIUNIT(*,.LENGTHUNIT.,.MILLI.,.METRE.);
#16= IFCMEASUREWITHUNIT(IFCRATIOMEASURE(304.8),#15);
#17= IFCDIMENSIONALEXPONENTS(1,0,0,0,0,0,0);
#18= IFCCONVERSIONBASEDUNIT(#17,.LENGTHUNIT.,'FOOT',#16);
#19= IFCSIUNIT(*,.AREAUNIT.,$,.SQUARE_METRE.);
#20= IFCMEASUREWITHUNIT(IFCRATIOMEASURE(0.09290304),#19);
#21= IFCDIMENSIONALEXPONENTS(2,0,0,0,0,0,0);
#22= IFCCONVERSIONBASEDUNIT(#21,.AREAUNIT.,'SQUARE FOOT',#20);
#23= IFCSIUNIT(*,.VOLUMEUNIT.,$,.CUBIC_METRE.);
#24= IFCMEASUREWITHUNIT(IFCRATIOMEASURE(0.028316846592),#23);
#25= IFCDIMENSIONALEXPONENTS(3,0,0,0,0,0,0);
#26= IFCCONVERSIONBASEDUNIT(#25,.VOLUMEUNIT.,'CUBIC FOOT',#24);
#27= IFCSIUNIT(*,.MASSUNIT.,.KILO.,.GRAM.);
#28= IFCSIUNIT(*,.TIMEUNIT.,$,.SECOND.);
#29= IFCSIUNIT(*,.PLANEANGLEUNIT.,$,.RADIAN.);
#30= IFCMEASUREWITHUNIT(IFCRATIOMEASURE(0.0174532925199433),#29);
#31= IFCDIMENSIONALEXPONENTS(0,0,0,0,0,0,0);
#32= IFCCONVERSIONBASEDUNIT(#31,.PLANEANGLEUNIT.,'DEGREE',#30);
#33= IFCSIUNIT(*,.SOLIDANGLEUNIT.,$,.STERADIAN.);
#34= IFCSIUNIT(*,.THERMODYNAMICTEMPERATUREUNIT.,$,.DEGREE_CELSIUS.);
#35= IFCSIUNIT(*,.LUMINOUSINTENSITYUNIT.,$,.LUMEN.);
#36= IFCUNITASSIGNMENT((#15,#19,#23,#27,#28,#29,#33,#34,#35));
#37= IFCPROJECT('2G7ZFDNE16yBDU14FA92Me',#5,'Proyecto',$,$,$,$,(#11),#36);
#38= IFCLOCALPLACEMENT($,#10);
#39= IFCSITE('2xvEzEinjBTea80yOTcujY',#5,'Obra',$,$,#38,$,$,.ELEMENT.,$,$,$,$,$);
#40= IFCLOCALPLACEMENT(#38,#10);
#41= IFCBUILDING('2w3JylCEfDJPlJz0vZqyUZ',#5,'Undefined',$,$,#40,$,$,.ELEMENT.,$,$,$);
#42= IFCLOCALPLACEMENT(#40,#10);
#43= IFCBUILDINGSTOREY('29hdEUCErFze9E_VIAceOd',#5,'Undefined',$,$,#42,$,$,.ELEMENT.,0.);
#44= IFCOWNERHISTORY(#3,#4,$,.NOCHANGE.,$,$,$,1774040400);
#45= IFCCARTESIANPOINT((76649.9985660757,23896.8840449765,19125.));
#46= IFCDIRECTION((0.999999999825977,1.86559999968784E-05,0.));
#47= IFCAXIS2PLACEMENT3D(#45,#9,#46);
#48= IFCLOCALPLACEMENT(#42,#47);
#49= IFCDIRECTION((1.,0.));
#50= IFCCARTESIANPOINT((0.,0.));
#51= IFCAXIS2PLACEMENT2D(#50,#49);
#52= IFCISHAPEPROFILEDEF(.AREA.,'IPE450',#51,190.,450.,9.399999619,14.60000038,21.);
#53= IFCDIRECTION((0.,-1.,0.));
#54= IFCDIRECTION((-1.,0.,0.));
#55= IFCCARTESIANPOINT((8177.50865918499,0.,3.63797880709171E-12));
#56= IFCAXIS2PLACEMENT3D(#55,#54,#53);
#57= IFCEXTRUDEDAREASOLID(#52,#56,#9,8222.51);
#58= IFCDIRECTION((-0.999999999825977,1.86560000001918E-05,0.));
#59= IFCCARTESIANPOINT((8177.5049754465,0.00321815999996033,-324.999999999996));
#60= IFCDIRECTION((1.86560000001918E-05,0.999999999825977,0.));
#61= IFCAXIS2PLACEMENT3D(#59,#58,#60);
#62= IFCPLANE(#61);
#63= IFCHALFSPACESOLID(#62,.T.);
#64= IFCBOOLEANCLIPPINGRESULT(.DIFFERENCE.,#57,#63);
#65= IFCDIRECTION((0.99999999984556,-1.75750000052982E-05,0.));
#66= IFCCARTESIANPOINT((-44.9968321736233,-0.00176277250648127,-324.999999999996));
#67= IFCDIRECTION((-1.75750000052982E-05,-0.99999999984556,0.));
#68= IFCAXIS2PLACEMENT3D(#66,#65,#67);
#69= IFCPLANE(#68);
#70= IFCHALFSPACESOLID(#69,.T.);
#71= IFCBOOLEANCLIPPINGRESULT(.DIFFERENCE.,#64,#70);
#72= IFCSHAPEREPRESENTATION(#12,'Body','Clipping',(#71));
#73= IFCPRODUCTDEFINITIONSHAPE($,$,(#72));
#74= IFCBEAM('32kLaYPoD1TOekCeKeXTAR',#44,'BEAM','IPE450','IPE450',#48,#73,'IDc2b95922-6723-4175-8a2e-32852885d29b');
#75= IFCLOCALPLACEMENT(#42,#47);
#76= IFCRECTANGLEPROFILEDEF(.AREA.,'PL36.6*102.3',#51,36.6,102.3);
#77= IFCDIRECTION((0.,0.,-1.));
#78= IFCDIRECTION((1.75749999898157E-05,0.99999999984556,0.));
#79= IFCCARTESIANPOINT((-96.1485194332334,-95.999101039342,-207.699999809996));
#80= IFCAXIS2PLACEMENT3D(#79,#78,#77);
#81= IFCEXTRUDEDAREASOLID(#76,#80,#9,192.14);
#82= IFCSHAPEREPRESENTATION(#12,'Body','SweptSolid',(#81));
#83= IFCPRODUCTDEFINITIONSHAPE($,$,(#82));
#84= IFCOPENINGELEMENT('3l1_Ci4lnDL9XVFQcaNyiy',#5,$,$,'Recess',#75,#83,$);
#85= IFCRELVOIDSELEMENT('0slhGmr2L9TxSsUPych6KF',#5,$,$,#74,#84);
#86= IFCPROPERTYSINGLEVALUE('FeatureSubTypes',$,$,$);
#87= IFCPROPERTYSINGLEVALUE('RectangleOpeningWidth',$,IFCPOSITIVELENGTHMEASURE(36.6),$);
#88= IFCPROPERTYSINGLEVALUE('RectangleOpeningHeight',$,IFCPOSITIVELENGTHMEASURE(102.3),$);
#89= IFCPROPERTYSINGLEVALUE('OpeningDiameter',$,$,$);
#90= IFCPROPERTYSET('3nWzSoG1XAxQOFM28r2xk2',#5,'AISC_EM11_Pset_Opening/Cope',$,(#86,#87,#88,#89));
#91= IFCLOCALPLACEMENT(#42,#47);
#92= IFCCARTESIANPOINT((-96.1485194332334,-95.999101039342,207.699999810004));
#93= IFCAXIS2PLACEMENT3D(#92,#78,#77);
#94= IFCEXTRUDEDAREASOLID(#76,#93,#9,192.14);
#95= IFCSHAPEREPRESENTATION(#12,'Body','SweptSolid',(#94));
#96= IFCPRODUCTDEFINITIONSHAPE($,$,(#95));
#97= IFCOPENINGELEMENT('1TXrvus8HEBuK1bGLcYGiR',#5,$,$,'Recess',#91,#96,$);
#98= IFCRELVOIDSELEMENT('3dSSkVEI94o9NmeCmIvLDZ',#5,$,$,#74,#97);
#99= IFCLOCALPLACEMENT(#42,#47);
#100= IFCRECTANGLEPROFILEDEF(.AREA.,'PL106*12',#51,12.,106.);
#101= IFCCARTESIANPOINT((8193.50417323571,-42.9970803285178,226.000000000004));
#102= IFCAXIS2PLACEMENT3D(#101,#77,#58);
#103= IFCEXTRUDEDAREASOLID(#100,#102,#9,452.);
#104= IFCSHAPEREPRESENTATION(#12,'Body','SweptSolid',(#103));
#105= IFCPRODUCTDEFINITIONSHAPE($,$,(#104));
#106= IFCOPENINGELEMENT('0FG8XhMln4IBxXaM9n02dx',#5,$,$,'Recess',#99,#105,$);
#107= IFCRELVOIDSELEMENT('1IinN2CpP3VxmNSwbpbOyC',#5,$,$,#74,#106);
#108= IFCPROPERTYSINGLEVALUE('RectangleOpeningWidth',$,IFCPOSITIVELENGTHMEASURE(12.),$);
#109= IFCPROPERTYSINGLEVALUE('RectangleOpeningHeight',$,IFCPOSITIVELENGTHMEASURE(106.),$);
#110= IFCPROPERTYSET('2o9gmFTQD2zxn5kxAh5nqK',#5,'AISC_EM11_Pset_Opening/Cope',$,(#86,#108,#109,#89));
#111= IFCLOCALPLACEMENT(#42,#47);
#112= IFCCARTESIANPOINT((8193.50577765171,43.0029196565156,226.000000000004));
#113= IFCAXIS2PLACEMENT3D(#112,#77,#58);
#114= IFCEXTRUDEDAREASOLID(#100,#113,#9,452.);
#115= IFCSHAPEREPRESENTATION(#12,'Body','SweptSolid',(#114));
#116= IFCPRODUCTDEFINITIONSHAPE($,$,(#115));
#117= IFCOPENINGELEMENT('00Z0sExxDC_Bpg$Wn1cI1Z',#5,$,$,'Recess',#111,#116,$);
#118= IFCRELVOIDSELEMENT('1g7opa1NfBiBqxcsEZZ3K5',#5,$,$,#74,#117);
#119= IFCCARTESIANPOINT((76709.8376989081,23896.8840788611,19350.));
#120= IFCDIRECTION((-0.0021802770004142,0.999997623193276,0.));
#121= IFCDIRECTION((0.999997623193276,0.00218027700041918,0.));
#122= IFCAXIS2PLACEMENT3D(#119,#120,#121);
#123= IFCLOCALPLACEMENT(#42,#122);
#124= IFCCIRCLEPROFILEDEF(.AREA.,$,#51,11.);
#125= IFCCARTESIANPOINT((0.,-0.0999999999999929,0.));
#126= IFCAXIS2PLACEMENT3D(#125,#8,#7);
#127= IFCEXTRUDEDAREASOLID(#124,#126,#9,14.8);
#128= IFCSHAPEREPRESENTATION(#12,'Body','SweptSolid',(#127));
#129= IFCREPRESENTATIONMAP(#10,#128);
#130= IFCCARTESIANPOINT((3.63797880709171E-10,0.,49.9999999998763));
#131= IFCCARTESIANTRANSFORMATIONOPERATOR3D($,$,#130,$,$);
#132= IFCMAPPEDITEM(#129,#131);
#133= IFCCARTESIANPOINT((70.0000000001892,0.,49.9999999988577));
#134= IFCCARTESIANTRANSFORMATIONOPERATOR3D($,$,#133,$,$);
#135= IFCMAPPEDITEM(#129,#134);
#136= IFCCARTESIANPOINT((140.000000000015,0.,49.9999999978354));
#137= IFCCARTESIANTRANSFORMATIONOPERATOR3D($,$,#136,$,$);
#138= IFCMAPPEDITEM(#129,#137);
#139= IFCCARTESIANPOINT((209.999999999825,0.,49.9999999968204));
#140= IFCCARTESIANTRANSFORMATIONOPERATOR3D($,$,#139,$,$);
#141= IFCMAPPEDITEM(#129,#140);
#142= IFCCARTESIANPOINT((279.999999999651,0.,49.9999999958018));
#143= IFCCARTESIANTRANSFORMATIONOPERATOR3D($,$,#142,$,$);
#144= IFCMAPPEDITEM(#129,#143);
#145= IFCCARTESIANPOINT((349.999999999491,0.,49.9999999947831));
#146= IFCCARTESIANTRANSFORMATIONOPERATOR3D($,$,#145,$,$);
#147= IFCMAPPEDITEM(#129,#146);
#148= IFCCARTESIANPOINT((419.999999999302,0.,49.9999999937645));
#149= IFCCARTESIANTRANSFORMATIONOPERATOR3D($,$,#148,$,$);
#150= IFCMAPPEDITEM(#129,#149);
#151= IFCCARTESIANPOINT((-3.63797880709171E-10,0.,-49.9999999998763));
#152= IFCCARTESIANTRANSFORMATIONOPERATOR3D($,$,#151,$,$);
#153= IFCMAPPEDITEM(#129,#152);
#154= IFCCARTESIANPOINT((69.9999999994616,0.,-50.0000000008949));
#155= IFCCARTESIANTRANSFORMATIONOPERATOR3D($,$,#154,$,$);
#156= IFCMAPPEDITEM(#129,#155);
#157= IFCCARTESIANPOINT((139.999999999287,0.,-50.0000000019136));
#158= IFCCARTESIANTRANSFORMATIONOPERATOR3D($,$,#157,$,$);
#159= IFCMAPPEDITEM(#129,#158);
#160= IFCCARTESIANPOINT((209.999999999098,0.,-50.0000000029286));
#161= IFCCARTESIANTRANSFORMATIONOPERATOR3D($,$,#160,$,$);
#162= IFCMAPPEDITEM(#129,#161);
#163= IFCCARTESIANPOINT((279.999999998923,0.,-50.0000000039472));
#164= IFCCARTESIANTRANSFORMATIONOPERATOR3D($,$,#163,$,$);
#165= IFCMAPPEDITEM(#129,#164);
#166= IFCCARTESIANPOINT((349.999999998749,0.,-50.0000000049658));
#167= IFCCARTESIANTRANSFORMATIONOPERATOR3D($,$,#166,$,$);
#168= IFCMAPPEDITEM(#129,#167);
#169= IFCCARTESIANPOINT((419.999999998588,0.,-50.0000000059845));
#170= IFCCARTESIANTRANSFORMATIONOPERATOR3D($,$,#169,$,$);
#171= IFCMAPPEDITEM(#129,#170);
#172= IFCSHAPEREPRESENTATION(#12,'Body','MappedRepresentation',(#132,#135,#138,#141,#144,#147,#150,#153,#156,#159,#162,#165,#168,#171));
#173= IFCPRODUCTDEFINITIONSHAPE($,$,(#172));
#174= IFCOPENINGELEMENT('3SSpXnInj7R932LCksQKxj',#5,$,$,'Opening',#123,#173,$);
#175= IFCRELVOIDSELEMENT('0aIVZ8XmbFifGe_UsKxLhG',#5,'Drill Hole',$,#74,#174);
#176= IFCPROPERTYSINGLEVALUE('FeatureSubTypes',$,IFCLABEL('TORNILLO'),$);
#177= IFCPROPERTYSINGLEVALUE('RectangleOpeningWidth',$,$,$);
#178= IFCPROPERTYSINGLEVALUE('RectangleOpeningHeight',$,$,$);
#179= IFCPROPERTYSET('3ts$neBnr7aOEgxTuQ59xZ',#5,'AISC_EM11_Pset_Opening/Cope',$,(#176,#177,#178,#89));
#180= IFCCARTESIANPOINT((76605.001733943,23896.8814427435,19305.));
#181= IFCDIRECTION((0.999999999999416,1.08099999852129E-06,0.));
#182= IFCAXIS2PLACEMENT3D(#180,#181,#77);
#183= IFCLOCALPLACEMENT(#42,#182);
#184= IFCCIRCLEPROFILEDEF(.AREA.,$,#51,11.5);
#185= IFCCARTESIANPOINT((0.,-4.79744616309603,0.));
#186= IFCAXIS2PLACEMENT3D(#185,#8,#7);
#187= IFCEXTRUDEDAREASOLID(#184,#186,#9,9.6);
#188= IFCSHAPEREPRESENTATION(#12,'Body','SweptSolid',(#187));
#189= IFCREPRESENTATIONMAP(#10,#188);
#190= IFCCARTESIANPOINT((40.,0.,45.0000000000437));
#191= IFCCARTESIANTRANSFORMATIONOPERATOR3D($,$,#190,$,$);
#192= IFCMAPPEDITEM(#189,#191);
#193= IFCCARTESIANPOINT((110.,0.,45.0000000000437));
#194= IFCCARTESIANTRANSFORMATIONOPERATOR3D($,$,#193,$,$);
#195= IFCMAPPEDITEM(#189,#194);
#196= IFCCARTESIANPOINT((180.,0.,45.0000000000437));
#197= IFCCARTESIANTRANSFORMATIONOPERATOR3D($,$,#196,$,$);
#198= IFCMAPPEDITEM(#189,#197);
#199= IFCCARTESIANPOINT((250.,0.,45.0000000000437));
#200= IFCCARTESIANTRANSFORMATIONOPERATOR3D($,$,#199,$,$);
#201= IFCMAPPEDITEM(#189,#200);
#202= IFCCARTESIANPOINT((320.,0.,45.0000000000437));
#203= IFCCARTESIANTRANSFORMATIONOPERATOR3D($,$,#202,$,$);
#204= IFCMAPPEDITEM(#189,#203);
#205= IFCSHAPEREPRESENTATION(#12,'Body','MappedRepresentation',(#192,#195,#198,#201,#204));
#206= IFCPRODUCTDEFINITIONSHAPE($,$,(#205));
#207= IFCOPENINGELEMENT('17EkZX_RnBbvibw2Fa$SNb',#5,$,$,'Opening',#183,#206,$);
#208= IFCRELVOIDSELEMENT('0JObuBu950Sgbo9t1XN8XE',#5,'Drill Hole',$,#74,#207);
#209= IFCCARTESIANPOINT((84367.5269693193,23897.0398226693,18900.));
#210= IFCDIRECTION((0.000467666999829816,-0.999999890643783,0.));
#211= IFCDIRECTION((0.999999890643783,0.000467666999833847,0.));
#212= IFCAXIS2PLACEMENT3D(#209,#210,#211);
#213= IFCLOCALPLACEMENT(#42,#212);
#214= IFCEXTRUDEDAREASOLID(#184,#126,#9,14.8);
#215= IFCSHAPEREPRESENTATION(#12,'Body','SweptSolid',(#214));
#216= IFCREPRESENTATIONMAP(#10,#215);
#217= IFCMAPPEDITEM(#216,#152);
#218= IFCMAPPEDITEM(#216,#155);
#219= IFCMAPPEDITEM(#216,#158);
#220= IFCMAPPEDITEM(#216,#161);
#221= IFCMAPPEDITEM(#216,#164);
#222= IFCMAPPEDITEM(#216,#167);
#223= IFCMAPPEDITEM(#216,#170);
#224= IFCMAPPEDITEM(#216,#131);
#225= IFCMAPPEDITEM(#216,#134);
#226= IFCMAPPEDITEM(#216,#137);
#227= IFCMAPPEDITEM(#216,#140);
#228= IFCMAPPEDITEM(#216,#143);
#229= IFCMAPPEDITEM(#216,#146);
#230= IFCMAPPEDITEM(#216,#149);
#231= IFCSHAPEREPRESENTATION(#12,'Body','MappedRepresentation',(#217,#218,#219,#220,#221,#222,#223,#224,#225,#226,#227,#228,#229,#230));
#232= IFCPRODUCTDEFINITIONSHAPE($,$,(#231));
#233= IFCOPENINGELEMENT('2UEN7_OrH7xebUncZmBq74',#5,$,$,'Opening',#213,#232,$);
#234= IFCRELVOIDSELEMENT('1y8UXchz1ELgoKAXug1Qzq',#5,'Drill Hole',$,#74,#233);
#235= IFCCARTESIANPOINT((84827.5035400391,23897.0398226693,19350.));
#236= IFCAXIS2PLACEMENT3D(#235,#54,#77);
#237= IFCLOCALPLACEMENT(#42,#236);
#238= IFCCARTESIANPOINT((0.,-4.79603540347458,0.));
#239= IFCAXIS2PLACEMENT3D(#238,#8,#7);
#240= IFCEXTRUDEDAREASOLID(#184,#239,#9,9.6);
#241= IFCSHAPEREPRESENTATION(#12,'Body','SweptSolid',(#240));
#242= IFCREPRESENTATIONMAP(#10,#241);
#243= IFCCARTESIANPOINT((85.,0.,40.));
#244= IFCCARTESIANTRANSFORMATIONOPERATOR3D($,$,#243,$,$);
#245= IFCMAPPEDITEM(#242,#244);
#246= IFCCARTESIANPOINT((155.,0.,40.));
#247= IFCCARTESIANTRANSFORMATIONOPERATOR3D($,$,#246,$,$);
#248= IFCMAPPEDITEM(#242,#247);
#249= IFCCARTESIANPOINT((225.,0.,40.));
#250= IFCCARTESIANTRANSFORMATIONOPERATOR3D($,$,#249,$,$);
#251= IFCMAPPEDITEM(#242,#250);
#252= IFCCARTESIANPOINT((295.,0.,40.));
#253= IFCCARTESIANTRANSFORMATIONOPERATOR3D($,$,#252,$,$);
#254= IFCMAPPEDITEM(#242,#253);
#255= IFCCARTESIANPOINT((365.,0.,40.));
#256= IFCCARTESIANTRANSFORMATIONOPERATOR3D($,$,#255,$,$);
#257= IFCMAPPEDITEM(#242,#256);
#258= IFCSHAPEREPRESENTATION(#12,'Body','MappedRepresentation',(#245,#248,#251,#254,#257));
#259= IFCPRODUCTDEFINITIONSHAPE($,$,(#258));
#260= IFCOPENINGELEMENT('1GWtKdeIrCuOvemHvOoLUo',#5,$,$,'Opening',#237,#259,$);
#261= IFCRELVOIDSELEMENT('2ON2Dhkev8O865E7gXbPwJ',#5,'Drill Hole',$,#74,#260);
#262= IFCCARTESIANPOINT((84367.5269693193,23897.0398226693,19350.));
#263= IFCDIRECTION((-0.000467666999829816,0.999999890643783,0.));
#264= IFCAXIS2PLACEMENT3D(#262,#263,#211);
#265= IFCLOCALPLACEMENT(#42,#264);
#266= IFCSHAPEREPRESENTATION(#12,'Body','MappedRepresentation',(#217,#218,#219,#220,#221,#222,#223,#224,#225,#226,#227,#228,#229,#230));
#267= IFCPRODUCTDEFINITIONSHAPE($,$,(#266));
#268= IFCOPENINGELEMENT('0qbmFdOcL7oATGR5KNtXVP',#5,$,$,'Opening',#265,#267,$);
#269= IFCRELVOIDSELEMENT('02usokncjC_OvcZCDmZwwS',#5,'Drill Hole',$,#74,#268);
#270= IFCPROPERTYSINGLEVALUE('PieceMark',$,IFCIDENTIFIER('BEAM'),$);
#271= IFCPROPERTYSINGLEVALUE('IndicationMark',$,IFCIDENTIFIER('b/256'),$);
#272= IFCPROPERTYSINGLEVALUE('PrelimMark',$,IFCIDENTIFIER(''),$);
#273= IFCPROPERTYSINGLEVALUE('MainPieceTag',$,IFCBOOLEAN(.T.),$);
#274= IFCPROPERTYSET('0D0OYCaVz0JPH3IUPF6Q3_',#5,'AISC_EM11_Pset_PieceIdentification','PieceIdentity',(#270,#271,#272,#273));
#275= IFCPROPERTYSINGLEVALUE('MaterialType',$,IFCIDENTIFIER('STEEL'),$);
#276= IFCPROPERTYSINGLEVALUE('MaterialGrade',$,IFCIDENTIFIER('S235JR'),$);
#277= IFCPROPERTYSET('3Kfdkb6FD2nge1ZGiFHiob',#5,'AISC_EM11_Pset_Material',$,(#275,#276));
#278= IFCPROPERTYSINGLEVALUE('SkewedAngleY',$,IFCREAL(0.),$);
#279= IFCPROPERTYSINGLEVALUE('SkewedAngleX',$,IFCREAL(0.00101),$);
#280= IFCPROPERTYSET('3Jw$5hTUPAtxNjSEWD6cLK',#5,'AISC_EM11_Pset_SkewedEnd',$,(#278,#279));
#281= IFCPROPERTYSINGLEVALUE('SkewedAngleX',$,IFCREAL(0.00107),$);
#282= IFCPROPERTYSET('23B$T3stv4cf068iAEUmVt',#5,'AISC_EM11_Pset_SkewedEnd_2',$,(#278,#281));
#283= IFCMATERIAL('STEEL/S235JR');
#284= IFCRELAGGREGATES('0Ygvkwh$LEsA3FeW0R1JaP',#5,$,$,#37,(#39));
#285= IFCRELAGGREGATES('2qyB0CzHdW8SLXwoIjJbsh',#5,$,$,#39,(#41));
#286= IFCRELAGGREGATES('2eg2wbEav3f9Jmfr4ccr18',#5,$,$,#41,(#43));
#287= IFCRELCONTAINEDINSPATIALSTRUCTURE('3RKCoZMcr6qf43OVs2PNu7',#5,$,$,(#74),#43);
#288= IFCRELDEFINESBYPROPERTIES('3dYuBlzFTFJ9VAQPX7XYgY',#5,$,$,(#97,#84),#90);
#289= IFCRELDEFINESBYPROPERTIES('3szWQTCu5CEP3A$ca1paJI',#5,$,$,(#117,#106),#110);
#290= IFCRELDEFINESBYPROPERTIES('1W_a4uDAL6ovzZO6KYbud8',#5,$,$,(#268,#260,#233,#207,#174),#179);
#291= IFCRELDEFINESBYPROPERTIES('0lUeSJNhv1EvrBAWrg1hh0',#5,$,$,(#74),#274);
#292= IFCRELDEFINESBYPROPERTIES('2eBDXSOE18X88DLpeLNJpQ',#5,$,$,(#74),#277);
#293= IFCRELDEFINESBYPROPERTIES('2XPJYJiuL4c98GM6SSr13J',#5,$,$,(#74),#280);
#294= IFCRELDEFINESBYPROPERTIES('3NxPpDYOTA$823gBpvEC6z',#5,$,$,(#74),#282);
#295= IFCRELASSOCIATESMATERIAL('2jLQbnn6v5ixUw8VFxt3OX',#5,$,$,(#74),#283);
ENDSEC;

END-ISO-10303-21;
