ISO-10303-21;
HEADER;
FILE_DESCRIPTION(('ViewDefinition[AISC_Steel_Detailing]', 'Option [BaseQuantities:Off]', 'Option [GridExport:On]', 'Option [Assemblies:Off]', 'Option [Bolts:On]', 'Option [Rebars:On]', 'Option [PourObjects:Off]', 'Option [Welds:On]', 'Option [SurfaceTreatments:On]', 'Option [LocationBy:0]', 'Option [ViewColors:Off]', 'Option [SectionedSpine:Off]', 'Option [PropertySets:On]', 'Option [Export all:Off]'),'2;1');
FILE_NAME('b_254_Qty_1.ifc','2026-05-16T11:53:11',('GIOVANNIPC\\gcorrea'),('Structural Designer'),'IFC Database version: Work','Tekla Structures 2020 Service Pack 5, IFC Export Version: 4.0.0.0 Dec  7 2020','');
FILE_SCHEMA(('IFC2X3'));
ENDSEC;

DATA;
#1= IFCPERSON('GIOVANNIPC\\gcorrea','Undefined',$,$,$,$,$,$);
#2= IFCORGANIZATION($,'Trimble Solutions Corporation',$,$,$);
#3= IFCPERSONANDORGANIZATION(#1,#2,$);
#4= IFCAPPLICATION(#2,'2020 Service Pack 5','Tekla Structures','Multi material modeling');
#5= IFCOWNERHISTORY(#3,#4,$,.NOCHANGE.,$,$,$,1778950391);
#6= IFCCARTESIANPOINT((0.,0.,0.));
#7= IFCDIRECTION((1.,0.,0.));
#8= IFCDIRECTION((0.,1.,0.));
#9= IFCDIRECTION((0.,0.,1.));
#10= IFCAXIS2PLACEMENT3D(#6,#9,#7);
#11= IFCGEOMETRICREPRESENTATIONCONTEXT($,'Model',3,1.E-05,#10,$);
#12= IFCGEOMETRICREPRESENTATIONSUBCONTEXT('Body','Model',*,*,*,*,#11,$,.MODEL_VIEW.,$);
#13= IFCGEOMETRICREPRESENTATIONSUBCONTEXT('Axis','Model',*,*,*,*,#11,$,.GRAPH_VIEW.,$);
#14= IFCGEOMETRICREPRESENTATIONSUBCONTEXT('FootPrint','Model',*,*,*,*,#11,$,.MODEL_VIEW.,$);
#15= IFCSIUNIT(*,.LENGTHUNIT.,.MILLI.,.METRE.);
#16= IFCMEASUREWITHUNIT(IFCRATIOMEASURE(304.8),#15);
#17= IFCDIMENSIONALEXPONENTS(1,0,0,0,0,0,0);
#18= IFCCONVERSIONBASEDUNIT(#17,.LENGTHUNIT.,'FOOT',#16);
#19= IFCSIUNIT(*,.AREAUNIT.,$,.SQUARE_METRE.);
#20= IFCMEASUREWITHUNIT(IFCRATIOMEASURE(0.09290304),#19);
#21= IFCDIMENSIONALEXPONENTS(2,0,0,0,0,0,0);
#22= IFCCONVERSIONBASEDUNIT(#21,.AREAUNIT.,'SQUARE FOOT',#20);
#23= IFCSIUNIT(*,.VOLUMEUNIT.,$,.CUBIC_METRE.);
#24= IFCMEASUREWITHUNIT(IFCRATIOMEASURE(0.028316846592),#23);
#25= IFCDIMENSIONALEXPONENTS(3,0,0,0,0,0,0);
#26= IFCCONVERSIONBASEDUNIT(#25,.VOLUMEUNIT.,'CUBIC FOOT',#24);
#27= IFCSIUNIT(*,.MASSUNIT.,.KILO.,.GRAM.);
#28= IFCSIUNIT(*,.TIMEUNIT.,$,.SECOND.);
#29= IFCSIUNIT(*,.PLANEANGLEUNIT.,$,.RADIAN.);
#30= IFCMEASUREWITHUNIT(IFCRATIOMEASURE(0.0174532925199433),#29);
#31= IFCDIMENSIONALEXPONENTS(0,0,0,0,0,0,0);
#32= IFCCONVERSIONBASEDUNIT(#31,.PLANEANGLEUNIT.,'DEGREE',#30);
#33= IFCSIUNIT(*,.SOLIDANGLEUNIT.,$,.STERADIAN.);
#34= IFCSIUNIT(*,.THERMODYNAMICTEMPERATUREUNIT.,$,.DEGREE_CELSIUS.);
#35= IFCSIUNIT(*,.LUMINOUSINTENSITYUNIT.,$,.LUMEN.);
#36= IFCUNITASSIGNMENT((#15,#19,#23,#27,#28,#29,#33,#34,#35));
#37= IFCPROJECT('2G7ZFDNE16yBDU14FA92Me',#5,'Proyecto',$,$,$,$,(#11),#36);
#38= IFCLOCALPLACEMENT($,#10);
#39= IFCSITE('2xvEzEinjBTea80yOTcujY',#5,'Obra',$,$,#38,$,$,.ELEMENT.,$,$,$,$,$);
#40= IFCLOCALPLACEMENT(#38,#10);
#41= IFCBUILDING('2$eQTqqn10c9v1iyMaep8X',#5,'Undefined',$,$,#40,$,$,.ELEMENT.,$,$,$);
#42= IFCLOCALPLACEMENT(#40,#10);
#43= IFCBUILDINGSTOREY('29hdEUCErFze9E_VIAceOd',#5,'Undefined',$,$,#42,$,$,.ELEMENT.,0.);
#44= IFCOWNERHISTORY(#3,#4,$,.NOCHANGE.,$,$,$,1773414000);
#45= IFCCARTESIANPOINT((65100.2195099716,22162.7436342733,19125.));
#46= IFCDIRECTION((-0.00526066899781749,0.999986162585111,0.));
#47= IFCAXIS2PLACEMENT3D(#45,#9,#46);
#48= IFCLOCALPLACEMENT(#42,#47);
#49= IFCDIRECTION((1.,0.));
#50= IFCCARTESIANPOINT((0.,0.));
#51= IFCAXIS2PLACEMENT2D(#50,#49);
#52= IFCISHAPEPROFILEDEF(.AREA.,'IPE450',#51,190.,450.,9.399999619,14.60000038,21.);
#53= IFCDIRECTION((-8.67361737988404E-19,-1.,0.));
#54= IFCDIRECTION((-1.,8.67361737988404E-19,0.));
#55= IFCCARTESIANPOINT((1630.1737684992,-1.41395035306858E-15,0.));
#56= IFCAXIS2PLACEMENT3D(#55,#54,#53);
#57= IFCEXTRUDEDAREASOLID(#52,#56,#9,1633.93);
#58= IFCDIRECTION((-0.999986161980127,0.00526078399622196,0.));
#59= IFCCARTESIANPOINT((1629.16699704337,0.527656635473249,-325.));
#60= IFCDIRECTION((0.00526078399622196,0.999986161980127,0.));
#61= IFCAXIS2PLACEMENT3D(#59,#58,#60);
#62= IFCPLANE(#61);
#63= IFCHALFSPACESOLID(#62,.T.);
#64= IFCBOOLEANCLIPPINGRESULT(.DIFFERENCE.,#57,#63);
#65= IFCDIRECTION((0.999986162585111,-0.00526066899781653,0.));
#66= IFCCARTESIANPOINT((-2.74787525686406,-0.811458192911232,-325.));
#67= IFCDIRECTION((-0.00526066899781653,-0.999986162585111,0.));
#68= IFCAXIS2PLACEMENT3D(#66,#65,#67);
#69= IFCPLANE(#68);
#70= IFCHALFSPACESOLID(#69,.T.);
#71= IFCBOOLEANCLIPPINGRESULT(.DIFFERENCE.,#64,#70);
#72= IFCSHAPEREPRESENTATION(#12,'Body','Clipping',(#71));
#73= IFCPRODUCTDEFINITIONSHAPE($,$,(#72));
#74= IFCBEAM('2OnIENgQT3cenx6$yn5gez',#44,'BEAM','IPE450','IPE450',#48,#73,'ID98c52397-a9a7-439a-8c7b-1bff3116aa3d');
#75= IFCLOCALPLACEMENT(#42,#47);
#76= IFCRECTANGLEPROFILEDEF(.AREA.,'PL36.6*102.3',#51,36.6,102.3);
#77= IFCDIRECTION((0.,0.,-1.));
#78= IFCCARTESIANPOINT((1680.8185555626,95.7308970646874,-207.69999981));
#79= IFCAXIS2PLACEMENT3D(#78,#67,#77);
#80= IFCEXTRUDEDAREASOLID(#76,#79,#9,200.59);
#81= IFCSHAPEREPRESENTATION(#12,'Body','SweptSolid',(#80));
#82= IFCPRODUCTDEFINITIONSHAPE($,$,(#81));
#83= IFCOPENINGELEMENT('3vNlfY9WXEDeU70VeuhWks',#5,$,$,'Recess',#75,#82,$);
#84= IFCRELVOIDSELEMENT('1uKe5GHNv4RxxcuY804BD2',#5,$,$,#74,#83);
#85= IFCPROPERTYSINGLEVALUE('FeatureSubTypes',$,$,$);
#86= IFCPROPERTYSINGLEVALUE('RectangleOpeningWidth',$,IFCPOSITIVELENGTHMEASURE(36.6),$);
#87= IFCPROPERTYSINGLEVALUE('RectangleOpeningHeight',$,IFCPOSITIVELENGTHMEASURE(102.3),$);
#88= IFCPROPERTYSINGLEVALUE('OpeningDiameter',$,$,$);
#89= IFCPROPERTYSET('36QCEoftjDbhrtG9jJA8M3',#5,'AISC_EM11_Pset_Opening/Cope',$,(#85,#86,#87,#88));
#90= IFCLOCALPLACEMENT(#42,#47);
#91= IFCCARTESIANPOINT((1680.8185555626,95.7308970646874,207.69999981));
#92= IFCAXIS2PLACEMENT3D(#91,#67,#77);
#93= IFCEXTRUDEDAREASOLID(#76,#92,#9,200.59);
#94= IFCSHAPEREPRESENTATION(#12,'Body','SweptSolid',(#93));
#95= IFCPRODUCTDEFINITIONSHAPE($,$,(#94));
#96= IFCOPENINGELEMENT('15_RD5SjX15eZRs3sFuP73',#5,$,$,'Recess',#90,#95,$);
#97= IFCRELVOIDSELEMENT('0Mbcthzi156hRXuos_SSj3',#5,$,$,#74,#96);
#98= IFCLOCALPLACEMENT(#42,#47);
#99= IFCRECTANGLEPROFILEDEF(.AREA.,'PL59*156.3',#51,59.,156.3);
#100= IFCCARTESIANPOINT((-81.3725564761183,-95.5889963970205,-196.5));
#101= IFCAXIS2PLACEMENT3D(#100,#60,#77);
#102= IFCEXTRUDEDAREASOLID(#99,#101,#9,200.53);
#103= IFCSHAPEREPRESENTATION(#12,'Body','SweptSolid',(#102));
#104= IFCPRODUCTDEFINITIONSHAPE($,$,(#103));
#105= IFCOPENINGELEMENT('2zOKD_fPD39AProZQcNNdR',#5,$,$,'Recess',#98,#104,$);
#106= IFCRELVOIDSELEMENT('2tthvErWv6fx$jPmkargVU',#5,$,$,#74,#105);
#107= IFCPROPERTYSINGLEVALUE('RectangleOpeningWidth',$,IFCPOSITIVELENGTHMEASURE(59.),$);
#108= IFCPROPERTYSINGLEVALUE('RectangleOpeningHeight',$,IFCPOSITIVELENGTHMEASURE(156.3),$);
#109= IFCPROPERTYSET('2csr0zJ2146PSrTfXBcjWD',#5,'AISC_EM11_Pset_Opening/Cope',$,(#85,#107,#108,#88));
#110= IFCLOCALPLACEMENT(#42,#47);
#111= IFCRECTANGLEPROFILEDEF(.AREA.,'PL49*156.3',#51,49.,156.3);
#112= IFCCARTESIANPOINT((-81.3725564761183,-95.5889963970205,201.5));
#113= IFCAXIS2PLACEMENT3D(#112,#60,#77);
#114= IFCEXTRUDEDAREASOLID(#111,#113,#9,200.53);
#115= IFCSHAPEREPRESENTATION(#12,'Body','SweptSolid',(#114));
#116= IFCPRODUCTDEFINITIONSHAPE($,$,(#115));
#117= IFCOPENINGELEMENT('2VAhWnIWr0VA2DFAYoncEe',#5,$,$,'Recess',#110,#116,$);
#118= IFCRELVOIDSELEMENT('2t9KLSDSfBxg6sj0Cx$71y',#5,$,$,#74,#117);
#119= IFCPROPERTYSINGLEVALUE('RectangleOpeningWidth',$,IFCPOSITIVELENGTHMEASURE(49.),$);
#120= IFCPROPERTYSET('1FttPA2E1BD9p0AbT2KIhz',#5,'AISC_EM11_Pset_Opening/Cope',$,(#85,#119,#108,#88));
#121= IFCCARTESIANPOINT((65091.121352324,23791.8853120293,19335.39999962));
#122= IFCAXIS2PLACEMENT3D(#121,#53,#77);
#123= IFCLOCALPLACEMENT(#42,#122);
#124= IFCCARTESIANPOINT((65101.0454125983,22160.0000658529,19329.));
#125= IFCAXIS2PLACEMENT3D(#124,#8,#77);
#126= IFCLOCALPLACEMENT(#42,#125);
#127= IFCPROPERTYSINGLEVALUE('PieceMark',$,IFCIDENTIFIER('BEAM'),$);
#128= IFCPROPERTYSINGLEVALUE('IndicationMark',$,IFCIDENTIFIER('b/254'),$);
#129= IFCPROPERTYSINGLEVALUE('PrelimMark',$,IFCIDENTIFIER(''),$);
#130= IFCPROPERTYSINGLEVALUE('MainPieceTag',$,IFCBOOLEAN(.T.),$);
#131= IFCPROPERTYSET('3EOtO79MfE999AKn9crR91',#5,'AISC_EM11_Pset_PieceIdentification','PieceIdentity',(#127,#128,#129,#130));
#132= IFCPROPERTYSINGLEVALUE('MaterialType',$,IFCIDENTIFIER('STEEL'),$);
#133= IFCPROPERTYSINGLEVALUE('MaterialGrade',$,IFCIDENTIFIER('S235JR'),$);
#134= IFCPROPERTYSET('226iJ6iUX2SR$RdZw26p44',#5,'AISC_EM11_Pset_Material',$,(#132,#133));
#135= IFCPROPERTYSINGLEVALUE('SkewedAngleY',$,IFCREAL(0.),$);
#136= IFCPROPERTYSINGLEVALUE('SkewedAngleX',$,IFCREAL(0.30142),$);
#137= IFCPROPERTYSET('2sPkFSDYT6PBWw$tIesrh4',#5,'AISC_EM11_Pset_SkewedEnd',$,(#135,#136));
#138= IFCPROPERTYSET('20RYcprpD7mey2ISQ1UotQ',#5,'AISC_EM11_Pset_SkewedEnd_2',$,(#135,#136));
#139= IFCMATERIAL('STEEL/S235JR');
#140= IFCRELAGGREGATES('3rI4q_5oH4HBJKmS8FcZXh',#5,$,$,#37,(#39));
#141= IFCRELAGGREGATES('27aM6GN4ZMZTbc2kQXurpz',#5,$,$,#39,(#41));
#142= IFCRELAGGREGATES('1aqsfdr9n52vS3_3yQ3Wct',#5,$,$,#41,(#43));
#143= IFCRELCONTAINEDINSPATIALSTRUCTURE('2x_sVbi9L8uvgSsg9oTfS_',#5,$,$,(#74),#43);
#144= IFCRELDEFINESBYPROPERTIES('3EfmkoacfEQ9TKtEqkchFe',#5,$,$,(#96,#83),#89);
#145= IFCRELDEFINESBYPROPERTIES('2o0qCDf3D4iulMJd8_DZaw',#5,$,$,(#105),#109);
#146= IFCRELDEFINESBYPROPERTIES('0KlSiozgL8HgB45D34mSrd',#5,$,$,(#117),#120);
#147= IFCRELDEFINESBYPROPERTIES('22DSMSi1zEFAdceLGchAdw',#5,$,$,(#74),#131);
#148= IFCRELDEFINESBYPROPERTIES('00RKsNvMD5VOcO2H3nEpQN',#5,$,$,(#74),#134);
#149= IFCRELDEFINESBYPROPERTIES('3XzWRO17981ALkWIRfxuvA',#5,$,$,(#74),#137);
#150= IFCRELDEFINESBYPROPERTIES('1U2ZG4yNr4fwFxVUUKB5Lb',#5,$,$,(#74),#138);
#151= IFCRELASSOCIATESMATERIAL('2CV7jvNuDBJuhrtZiI2PzK',#5,$,$,(#74),#139);
ENDSEC;

END-ISO-10303-21;
