ISO-10303-21;
HEADER;
FILE_DESCRIPTION(('ViewDefinition[AISC_Steel_Detailing]', 'Option [BaseQuantities:Off]', 'Option [GridExport:On]', 'Option [Assemblies:Off]', 'Option [Bolts:On]', 'Option [Rebars:On]', 'Option [PourObjects:Off]', 'Option [Welds:On]', 'Option [SurfaceTreatments:On]', 'Option [LocationBy:0]', 'Option [ViewColors:Off]', 'Option [SectionedSpine:Off]', 'Option [PropertySets:On]', 'Option [Export all:Off]'),'2;1');
FILE_NAME('b_252_Qty_1.ifc','2026-05-16T11:53:11',('GIOVANNIPC\\gcorrea'),('Structural Designer'),'IFC Database version: Work','Tekla Structures 2020 Service Pack 5, IFC Export Version: 4.0.0.0 Dec  7 2020','');
FILE_SCHEMA(('IFC2X3'));
ENDSEC;

DATA;
#1= IFCPERSON('GIOVANNIPC\\gcorrea','Undefined',$,$,$,$,$,$);
#2= IFCORGANIZATION($,'Trimble Solutions Corporation',$,$,$);
#3= IFCPERSONANDORGANIZATION(#1,#2,$);
#4= IFCAPPLICATION(#2,'2020 Service Pack 5','Tekla Structures','Multi material modeling');
#5= IFCOWNERHISTORY(#3,#4,$,.NOCHANGE.,$,$,$,1778950391);
#6= IFCCARTESIANPOINT((0.,0.,0.));
#7= IFCDIRECTION((1.,0.,0.));
#8= IFCDIRECTION((0.,1.,0.));
#9= IFCDIRECTION((0.,0.,1.));
#10= IFCAXIS2PLACEMENT3D(#6,#9,#7);
#11= IFCGEOMETRICREPRESENTATIONCONTEXT($,'Model',3,1.E-05,#10,$);
#12= IFCGEOMETRICREPRESENTATIONSUBCONTEXT('Body','Model',*,*,*,*,#11,$,.MODEL_VIEW.,$);
#13= IFCGEOMETRICREPRESENTATIONSUBCONTEXT('Axis','Model',*,*,*,*,#11,$,.GRAPH_VIEW.,$);
#14= IFCGEOMETRICREPRESENTATIONSUBCONTEXT('FootPrint','Model',*,*,*,*,#11,$,.MODEL_VIEW.,$);
#15= IFCSIUNIT(*,.LENGTHUNIT.,.MILLI.,.METRE.);
#16= IFCMEASUREWITHUNIT(IFCRATIOMEASURE(304.8),#15);
#17= IFCDIMENSIONALEXPONENTS(1,0,0,0,0,0,0);
#18= IFCCONVERSIONBASEDUNIT(#17,.LENGTHUNIT.,'FOOT',#16);
#19= IFCSIUNIT(*,.AREAUNIT.,$,.SQUARE_METRE.);
#20= IFCMEASUREWITHUNIT(IFCRATIOMEASURE(0.09290304),#19);
#21= IFCDIMENSIONALEXPONENTS(2,0,0,0,0,0,0);
#22= IFCCONVERSIONBASEDUNIT(#21,.AREAUNIT.,'SQUARE FOOT',#20);
#23= IFCSIUNIT(*,.VOLUMEUNIT.,$,.CUBIC_METRE.);
#24= IFCMEASUREWITHUNIT(IFCRATIOMEASURE(0.028316846592),#23);
#25= IFCDIMENSIONALEXPONENTS(3,0,0,0,0,0,0);
#26= IFCCONVERSIONBASEDUNIT(#25,.VOLUMEUNIT.,'CUBIC FOOT',#24);
#27= IFCSIUNIT(*,.MASSUNIT.,.KILO.,.GRAM.);
#28= IFCSIUNIT(*,.TIMEUNIT.,$,.SECOND.);
#29= IFCSIUNIT(*,.PLANEANGLEUNIT.,$,.RADIAN.);
#30= IFCMEASUREWITHUNIT(IFCRATIOMEASURE(0.0174532925199433),#29);
#31= IFCDIMENSIONALEXPONENTS(0,0,0,0,0,0,0);
#32= IFCCONVERSIONBASEDUNIT(#31,.PLANEANGLEUNIT.,'DEGREE',#30);
#33= IFCSIUNIT(*,.SOLIDANGLEUNIT.,$,.STERADIAN.);
#34= IFCSIUNIT(*,.THERMODYNAMICTEMPERATUREUNIT.,$,.DEGREE_CELSIUS.);
#35= IFCSIUNIT(*,.LUMINOUSINTENSITYUNIT.,$,.LUMEN.);
#36= IFCUNITASSIGNMENT((#15,#19,#23,#27,#28,#29,#33,#34,#35));
#37= IFCPROJECT('2G7ZFDNE16yBDU14FA92Me',#5,'Proyecto',$,$,$,$,(#11),#36);
#38= IFCLOCALPLACEMENT($,#10);
#39= IFCSITE('2xvEzEinjBTea80yOTcujY',#5,'Obra',$,$,#38,$,$,.ELEMENT.,$,$,$,$,$);
#40= IFCLOCALPLACEMENT(#38,#10);
#41= IFCBUILDING('39EMy_rG91FAg2J9eOQo2A',#5,'Undefined',$,$,#40,$,$,.ELEMENT.,$,$,$);
#42= IFCLOCALPLACEMENT(#40,#10);
#43= IFCBUILDINGSTOREY('29hdEUCErFze9E_VIAceOd',#5,'Undefined',$,$,#42,$,$,.ELEMENT.,0.);
#44= IFCOWNERHISTORY(#3,#4,$,.NOCHANGE.,$,$,$,1774018800);
#45= IFCCARTESIANPOINT((76499.950376934,17530.2067836775,19125.));
#46= IFCDIRECTION((1.15389999976821E-05,0.999999999933426,0.));
#47= IFCAXIS2PLACEMENT3D(#45,#9,#46);
#48= IFCLOCALPLACEMENT(#42,#47);
#49= IFCDIRECTION((1.,0.));
#50= IFCCARTESIANPOINT((0.,0.));
#51= IFCAXIS2PLACEMENT2D(#50,#49);
#52= IFCISHAPEPROFILEDEF(.AREA.,'IPE450',#51,190.,450.,9.399999619,14.60000038,21.);
#53= IFCDIRECTION((0.,-1.,0.));
#54= IFCDIRECTION((-1.,0.,0.));
#55= IFCCARTESIANPOINT((4297.20944183424,0.,0.));
#56= IFCAXIS2PLACEMENT3D(#55,#54,#53);
#57= IFCEXTRUDEDAREASOLID(#52,#56,#9,4287.2);
#58= IFCDIRECTION((-0.999999999933426,-1.15389999955369E-05,0.));
#59= IFCCARTESIANPOINT((4297.20370069594,-0.103192263268284,-325.));
#60= IFCDIRECTION((-1.15389999955369E-05,0.999999999933426,0.));
#61= IFCAXIS2PLACEMENT3D(#59,#58,#60);
#62= IFCPLANE(#61);
#63= IFCHALFSPACESOLID(#62,.T.);
#64= IFCBOOLEANCLIPPINGRESULT(.DIFFERENCE.,#57,#63);
#65= IFCDIRECTION((0.999999998833169,4.83079999950951E-05,0.));
#66= IFCCARTESIANPOINT((10.0107865850114,0.00745150800503325,-325.));
#67= IFCDIRECTION((4.83079999950951E-05,-0.999999998833169,0.));
#68= IFCAXIS2PLACEMENT3D(#66,#65,#67);
#69= IFCPLANE(#68);
#70= IFCHALFSPACESOLID(#69,.T.);
#71= IFCBOOLEANCLIPPINGRESULT(.DIFFERENCE.,#64,#70);
#72= IFCSHAPEREPRESENTATION(#12,'Body','Clipping',(#71));
#73= IFCPRODUCTDEFINITIONSHAPE($,$,(#72));
#74= IFCBEAM('2XleiBBnvE88lpu5ZQ_xhu',#44,'BEAM','IPE450','IPE450',#48,#73,'IDa1be8b0b-2f1e-4e20-8bf3-e058dafbbaf8');
#75= IFCLOCALPLACEMENT(#42,#47);
#76= IFCRECTANGLEPROFILEDEF(.AREA.,'PL59*156.3',#51,59.,156.3);
#77= IFCDIRECTION((0.,0.,-1.));
#78= IFCDIRECTION((-4.83079999905046E-05,0.999999998833169,0.));
#79= IFCCARTESIANPOINT((-68.1095653888296,-96.2108795839835,-196.5));
#80= IFCAXIS2PLACEMENT3D(#79,#78,#77);
#81= IFCEXTRUDEDAREASOLID(#76,#80,#9,192.21);
#82= IFCSHAPEREPRESENTATION(#12,'Body','SweptSolid',(#81));
#83= IFCPRODUCTDEFINITIONSHAPE($,$,(#82));
#84= IFCOPENINGELEMENT('3Elsqzu1n6QfaDvGBdnowL',#5,$,$,'Recess',#75,#83,$);
#85= IFCRELVOIDSELEMENT('1AOf3jAfz7Geev0yTaM2oH',#5,$,$,#74,#84);
#86= IFCPROPERTYSINGLEVALUE('FeatureSubTypes',$,$,$);
#87= IFCPROPERTYSINGLEVALUE('RectangleOpeningWidth',$,IFCPOSITIVELENGTHMEASURE(59.),$);
#88= IFCPROPERTYSINGLEVALUE('RectangleOpeningHeight',$,IFCPOSITIVELENGTHMEASURE(156.3),$);
#89= IFCPROPERTYSINGLEVALUE('OpeningDiameter',$,$,$);
#90= IFCPROPERTYSET('1GlUWNAjT2wQOChZ0_ayi6',#5,'AISC_EM11_Pset_Opening/Cope',$,(#86,#87,#88,#89));
#91= IFCLOCALPLACEMENT(#42,#47);
#92= IFCRECTANGLEPROFILEDEF(.AREA.,'PL49*156.3',#51,49.,156.3);
#93= IFCCARTESIANPOINT((-68.1095653888296,-96.2108795839835,201.5));
#94= IFCAXIS2PLACEMENT3D(#93,#78,#77);
#95= IFCEXTRUDEDAREASOLID(#92,#94,#9,192.21);
#96= IFCSHAPEREPRESENTATION(#12,'Body','SweptSolid',(#95));
#97= IFCPRODUCTDEFINITIONSHAPE($,$,(#96));
#98= IFCOPENINGELEMENT('1K$i3vgdrDlfnPMZrqpUp9',#5,$,$,'Recess',#91,#97,$);
#99= IFCRELVOIDSELEMENT('3$j0Gn4GD9SxXICBpowS_w',#5,$,$,#74,#98);
#100= IFCPROPERTYSINGLEVALUE('RectangleOpeningWidth',$,IFCPOSITIVELENGTHMEASURE(49.),$);
#101= IFCPROPERTYSET('0Cl$IMdSL0PR3_glwhfoAi',#5,'AISC_EM11_Pset_Opening/Cope',$,(#86,#100,#88,#89));
#102= IFCLOCALPLACEMENT(#42,#47);
#103= IFCRECTANGLEPROFILEDEF(.AREA.,'PL106.1*12',#51,12.,106.1);
#104= IFCCARTESIANPOINT((4313.19930275062,-43.0533226668485,226.));
#105= IFCAXIS2PLACEMENT3D(#104,#77,#58);
#106= IFCEXTRUDEDAREASOLID(#103,#105,#9,452.);
#107= IFCSHAPEREPRESENTATION(#12,'Body','SweptSolid',(#106));
#108= IFCPRODUCTDEFINITIONSHAPE($,$,(#107));
#109= IFCOPENINGELEMENT('1SsLNqmuj4rvDl9Rbfp2_e',#5,$,$,'Recess',#102,#108,$);
#110= IFCRELVOIDSELEMENT('167ShkEN581BLzFrInELZG',#5,$,$,#74,#109);
#111= IFCPROPERTYSINGLEVALUE('RectangleOpeningWidth',$,IFCPOSITIVELENGTHMEASURE(12.),$);
#112= IFCPROPERTYSINGLEVALUE('RectangleOpeningHeight',$,IFCPOSITIVELENGTHMEASURE(106.1),$);
#113= IFCPROPERTYSET('0HbcFC0s1ArwOUODiuLgHs',#5,'AISC_EM11_Pset_Opening/Cope',$,(#86,#111,#112,#89));
#114= IFCLOCALPLACEMENT(#42,#47);
#115= IFCRECTANGLEPROFILEDEF(.AREA.,'PL105.9*12',#51,12.,105.9);
#116= IFCCARTESIANPOINT((4313.19831039662,42.9466773274326,226.));
#117= IFCAXIS2PLACEMENT3D(#116,#77,#58);
#118= IFCEXTRUDEDAREASOLID(#115,#117,#9,452.);
#119= IFCSHAPEREPRESENTATION(#12,'Body','SweptSolid',(#118));
#120= IFCPRODUCTDEFINITIONSHAPE($,$,(#119));
#121= IFCOPENINGELEMENT('3JAcKqBan26uijp9XsDH8a',#5,$,$,'Recess',#114,#120,$);
#122= IFCRELVOIDSELEMENT('3wPVOCTXv9EPra24SZQ4nQ',#5,$,$,#74,#121);
#123= IFCPROPERTYSINGLEVALUE('RectangleOpeningHeight',$,IFCPOSITIVELENGTHMEASURE(105.9),$);
#124= IFCPROPERTYSET('3xLcB7rEDCovdvSjp_ygHi',#5,'AISC_EM11_Pset_Opening/Cope',$,(#86,#111,#123,#89));
#125= IFCCARTESIANPOINT((76499.9430409406,17540.2175703476,19305.));
#126= IFCDIRECTION((-3.67690000130097E-05,0.99999999932402,0.));
#127= IFCAXIS2PLACEMENT3D(#125,#126,#77);
#128= IFCLOCALPLACEMENT(#42,#127);
#129= IFCCIRCLEPROFILEDEF(.AREA.,$,#51,11.5);
#130= IFCCARTESIANPOINT((0.,-4.80938364262292,0.));
#131= IFCAXIS2PLACEMENT3D(#130,#8,#7);
#132= IFCEXTRUDEDAREASOLID(#129,#131,#9,9.6);
#133= IFCSHAPEREPRESENTATION(#12,'Body','SweptSolid',(#132));
#134= IFCREPRESENTATIONMAP(#10,#133);
#135= IFCCARTESIANPOINT((40.,0.,39.9999999999454));
#136= IFCCARTESIANTRANSFORMATIONOPERATOR3D($,$,#135,$,$);
#137= IFCMAPPEDITEM(#134,#136);
#138= IFCCARTESIANPOINT((110.,0.,39.9999999999454));
#139= IFCCARTESIANTRANSFORMATIONOPERATOR3D($,$,#138,$,$);
#140= IFCMAPPEDITEM(#134,#139);
#141= IFCCARTESIANPOINT((180.,0.,39.9999999999454));
#142= IFCCARTESIANTRANSFORMATIONOPERATOR3D($,$,#141,$,$);
#143= IFCMAPPEDITEM(#134,#142);
#144= IFCCARTESIANPOINT((250.,0.,39.9999999999454));
#145= IFCCARTESIANTRANSFORMATIONOPERATOR3D($,$,#144,$,$);
#146= IFCMAPPEDITEM(#134,#145);
#147= IFCCARTESIANPOINT((320.,0.,39.9999999999454));
#148= IFCCARTESIANTRANSFORMATIONOPERATOR3D($,$,#147,$,$);
#149= IFCMAPPEDITEM(#134,#148);
#150= IFCSHAPEREPRESENTATION(#12,'Body','MappedRepresentation',(#137,#140,#143,#146,#149));
#151= IFCPRODUCTDEFINITIONSHAPE($,$,(#150));
#152= IFCOPENINGELEMENT('15GxOfFBDE6xXvvzdowI3H',#5,$,$,'Opening',#128,#151,$);
#153= IFCRELVOIDSELEMENT('0qnLBDBVzCpAp6VhRLtwEN',#5,'Drill Hole',$,#74,#152);
#154= IFCPROPERTYSINGLEVALUE('FeatureSubTypes',$,IFCLABEL('TORNILLO'),$);
#155= IFCPROPERTYSINGLEVALUE('RectangleOpeningWidth',$,$,$);
#156= IFCPROPERTYSINGLEVALUE('RectangleOpeningHeight',$,$,$);
#157= IFCPROPERTYSET('22PHriuoX3Wu2vQR6rwE4S',#5,'AISC_EM11_Pset_Opening/Cope',$,(#154,#155,#156,#89));
#158= IFCCARTESIANPOINT((76500.0426496465,21827.4105673778,19350.));
#159= IFCDIRECTION((0.00279252299971995,0.999996100900047,0.));
#160= IFCAXIS2PLACEMENT3D(#158,#159,#77);
#161= IFCLOCALPLACEMENT(#42,#160);
#162= IFCCARTESIANPOINT((0.,4.33420392444369,0.));
#163= IFCAXIS2PLACEMENT3D(#162,#8,#7);
#164= IFCEXTRUDEDAREASOLID(#129,#163,#9,9.61);
#165= IFCSHAPEREPRESENTATION(#12,'Body','SweptSolid',(#164));
#166= IFCREPRESENTATIONMAP(#10,#165);
#167= IFCCARTESIANPOINT((85.,0.,-40.0000000001237));
#168= IFCCARTESIANTRANSFORMATIONOPERATOR3D($,$,#167,$,$);
#169= IFCMAPPEDITEM(#166,#168);
#170= IFCCARTESIANPOINT((155.,0.,-40.0000000001237));
#171= IFCCARTESIANTRANSFORMATIONOPERATOR3D($,$,#170,$,$);
#172= IFCMAPPEDITEM(#166,#171);
#173= IFCCARTESIANPOINT((225.,0.,-40.0000000001237));
#174= IFCCARTESIANTRANSFORMATIONOPERATOR3D($,$,#173,$,$);
#175= IFCMAPPEDITEM(#166,#174);
#176= IFCCARTESIANPOINT((295.,0.,-40.0000000001237));
#177= IFCCARTESIANTRANSFORMATIONOPERATOR3D($,$,#176,$,$);
#178= IFCMAPPEDITEM(#166,#177);
#179= IFCCARTESIANPOINT((365.,0.,-40.0000000001237));
#180= IFCCARTESIANTRANSFORMATIONOPERATOR3D($,$,#179,$,$);
#181= IFCMAPPEDITEM(#166,#180);
#182= IFCSHAPEREPRESENTATION(#12,'Body','MappedRepresentation',(#169,#172,#175,#178,#181));
#183= IFCPRODUCTDEFINITIONSHAPE($,$,(#182));
#184= IFCOPENINGELEMENT('20v92OfdDDH8z_rxpyVatW',#5,$,$,'Opening',#161,#183,$);
#185= IFCRELVOIDSELEMENT('2N9O_z_PvDCf926Ft4kAER',#5,'Drill Hole',$,#74,#184);
#186= IFCCARTESIANPOINT((76499.7512444264,21787.3870995467,18900.));
#187= IFCDIRECTION((-0.999999890643783,-0.000467666999826178,0.));
#188= IFCDIRECTION((0.000467666999827097,-0.999999890643783,0.));
#189= IFCAXIS2PLACEMENT3D(#186,#187,#188);
#190= IFCLOCALPLACEMENT(#42,#189);
#191= IFCCARTESIANPOINT((0.,-0.0999999999984439,0.));
#192= IFCAXIS2PLACEMENT3D(#191,#8,#7);
#193= IFCEXTRUDEDAREASOLID(#129,#192,#9,14.8);
#194= IFCSHAPEREPRESENTATION(#12,'Body','SweptSolid',(#193));
#195= IFCREPRESENTATIONMAP(#10,#194);
#196= IFCCARTESIANPOINT((0.,0.,-49.9999999998545));
#197= IFCCARTESIANTRANSFORMATIONOPERATOR3D($,$,#196,$,$);
#198= IFCMAPPEDITEM(#195,#197);
#199= IFCCARTESIANPOINT((69.9999999997999,0.,-50.0000000003638));
#200= IFCCARTESIANTRANSFORMATIONOPERATOR3D($,$,#199,$,$);
#201= IFCMAPPEDITEM(#195,#200);
#202= IFCCARTESIANPOINT((139.999999999603,0.,-50.0000000008731));
#203= IFCCARTESIANTRANSFORMATIONOPERATOR3D($,$,#202,$,$);
#204= IFCMAPPEDITEM(#195,#203);
#205= IFCCARTESIANPOINT((209.999999999403,0.,-50.0000000013824));
#206= IFCCARTESIANTRANSFORMATIONOPERATOR3D($,$,#205,$,$);
#207= IFCMAPPEDITEM(#195,#206);
#208= IFCCARTESIANPOINT((279.999999999203,0.,-50.0000000018917));
#209= IFCCARTESIANTRANSFORMATIONOPERATOR3D($,$,#208,$,$);
#210= IFCMAPPEDITEM(#195,#209);
#211= IFCCARTESIANPOINT((349.999999999003,0.,-50.0000000024011));
#212= IFCCARTESIANTRANSFORMATIONOPERATOR3D($,$,#211,$,$);
#213= IFCMAPPEDITEM(#195,#212);
#214= IFCCARTESIANPOINT((419.999999998803,0.,-50.0000000029104));
#215= IFCCARTESIANTRANSFORMATIONOPERATOR3D($,$,#214,$,$);
#216= IFCMAPPEDITEM(#195,#215);
#217= IFCCARTESIANPOINT((0.,0.,49.999999999869));
#218= IFCCARTESIANTRANSFORMATIONOPERATOR3D($,$,#217,$,$);
#219= IFCMAPPEDITEM(#195,#218);
#220= IFCCARTESIANPOINT((69.9999999998035,0.,49.9999999993597));
#221= IFCCARTESIANTRANSFORMATIONOPERATOR3D($,$,#220,$,$);
#222= IFCMAPPEDITEM(#195,#221);
#223= IFCCARTESIANPOINT((139.999999999603,0.,49.9999999988504));
#224= IFCCARTESIANTRANSFORMATIONOPERATOR3D($,$,#223,$,$);
#225= IFCMAPPEDITEM(#195,#224);
#226= IFCCARTESIANPOINT((209.999999999403,0.,49.9999999983411));
#227= IFCCARTESIANTRANSFORMATIONOPERATOR3D($,$,#226,$,$);
#228= IFCMAPPEDITEM(#195,#227);
#229= IFCCARTESIANPOINT((279.999999999203,0.,49.9999999978318));
#230= IFCCARTESIANTRANSFORMATIONOPERATOR3D($,$,#229,$,$);
#231= IFCMAPPEDITEM(#195,#230);
#232= IFCCARTESIANPOINT((349.999999999003,0.,49.9999999973224));
#233= IFCCARTESIANTRANSFORMATIONOPERATOR3D($,$,#232,$,$);
#234= IFCMAPPEDITEM(#195,#233);
#235= IFCCARTESIANPOINT((419.999999998807,0.,49.9999999968131));
#236= IFCCARTESIANTRANSFORMATIONOPERATOR3D($,$,#235,$,$);
#237= IFCMAPPEDITEM(#195,#236);
#238= IFCSHAPEREPRESENTATION(#12,'Body','MappedRepresentation',(#198,#201,#204,#207,#210,#213,#216,#219,#222,#225,#228,#231,#234,#237));
#239= IFCPRODUCTDEFINITIONSHAPE($,$,(#238));
#240= IFCOPENINGELEMENT('1bOdfCxLP7r8rJhSdCwo_4',#5,$,$,'Opening',#190,#239,$);
#241= IFCRELVOIDSELEMENT('2RSC7KsU94Yfoh8ceKudQW',#5,'Drill Hole',$,#74,#240);
#242= IFCCARTESIANPOINT((76499.7512444264,21787.3870995467,19350.));
#243= IFCDIRECTION((0.999999890643783,0.000467666999826178,0.));
#244= IFCAXIS2PLACEMENT3D(#242,#243,#188);
#245= IFCLOCALPLACEMENT(#42,#244);
#246= IFCSHAPEREPRESENTATION(#12,'Body','MappedRepresentation',(#198,#201,#204,#207,#210,#213,#216,#219,#222,#225,#228,#231,#234,#237));
#247= IFCPRODUCTDEFINITIONSHAPE($,$,(#246));
#248= IFCOPENINGELEMENT('0zyT0fCij5vRxTyrECBtnO',#5,$,$,'Opening',#245,#247,$);
#249= IFCRELVOIDSELEMENT('0KtMjl5kD9RAHlSTWloOAq',#5,'Drill Hole',$,#74,#248);
#250= IFCPROPERTYSINGLEVALUE('PieceMark',$,IFCIDENTIFIER('BEAM'),$);
#251= IFCPROPERTYSINGLEVALUE('IndicationMark',$,IFCIDENTIFIER('b/252'),$);
#252= IFCPROPERTYSINGLEVALUE('PrelimMark',$,IFCIDENTIFIER(''),$);
#253= IFCPROPERTYSINGLEVALUE('MainPieceTag',$,IFCBOOLEAN(.T.),$);
#254= IFCPROPERTYSET('1Ts2rno4vFPxMOn3ftXQ7H',#5,'AISC_EM11_Pset_PieceIdentification','PieceIdentity',(#250,#251,#252,#253));
#255= IFCPROPERTYSINGLEVALUE('MaterialType',$,IFCIDENTIFIER('STEEL'),$);
#256= IFCPROPERTYSINGLEVALUE('MaterialGrade',$,IFCIDENTIFIER('S235JR'),$);
#257= IFCPROPERTYSET('2067wq6_56nOkUeHSrj48t',#5,'AISC_EM11_Pset_Material',$,(#255,#256));
#258= IFCPROPERTYSINGLEVALUE('SkewedAngleY',$,IFCREAL(0.),$);
#259= IFCPROPERTYSINGLEVALUE('SkewedAngleX',$,IFCREAL(-0.00277),$);
#260= IFCPROPERTYSET('3oF5v4e_PABxU$RH$qhZwy',#5,'AISC_EM11_Pset_SkewedEnd',$,(#258,#259));
#261= IFCPROPERTYSINGLEVALUE('SkewedAngleX',$,IFCREAL(-0.00066),$);
#262= IFCPROPERTYSET('1Pft68iAfFFx_JfWbAmncO',#5,'AISC_EM11_Pset_SkewedEnd_2',$,(#258,#261));
#263= IFCMATERIAL('STEEL/S235JR');
#264= IFCRELAGGREGATES('3i5KMwcSrCG8Fvjmu3nEUR',#5,$,$,#37,(#39));
#265= IFCRELAGGREGATES('2_NceCuk7UYQXB$2AL3Wmj',#5,$,$,#39,(#41));
#266= IFCRELAGGREGATES('01UkTUQVzASQZ6D6zRx0nQ',#5,$,$,#41,(#43));
#267= IFCRELCONTAINEDINSPATIALSTRUCTURE('25YMDpFdb38w1gHNoKbVeJ',#5,$,$,(#74),#43);
#268= IFCRELDEFINESBYPROPERTIES('3mUAESdiP6sARDyOsULsNu',#5,$,$,(#84),#90);
#269= IFCRELDEFINESBYPROPERTIES('2AV2hsbEvFqB$$9HvaQFoQ',#5,$,$,(#98),#101);
#270= IFCRELDEFINESBYPROPERTIES('3D7FMUP8P4A9tRlkOMhcDo',#5,$,$,(#109),#113);
#271= IFCRELDEFINESBYPROPERTIES('37SOuyt7H8KgIJ_s0bdNka',#5,$,$,(#121),#124);
#272= IFCRELDEFINESBYPROPERTIES('0AmmXwduT7kPzCqGf8t9Zg',#5,$,$,(#248,#240,#184,#152),#157);
#273= IFCRELDEFINESBYPROPERTIES('38pSaJP2b1huLOUSIYKBPm',#5,$,$,(#74),#254);
#274= IFCRELDEFINESBYPROPERTIES('0m0KRgyXPDwBUDynov1qK2',#5,$,$,(#74),#257);
#275= IFCRELDEFINESBYPROPERTIES('13JDcL6IH3yfpi6GWxh6P0',#5,$,$,(#74),#260);
#276= IFCRELDEFINESBYPROPERTIES('2zT3WMuJXFV8xJ0mdVGMXy',#5,$,$,(#74),#262);
#277= IFCRELASSOCIATESMATERIAL('0qIHg1dE59FfTPFv1wo4oP',#5,$,$,(#74),#263);
ENDSEC;

END-ISO-10303-21;
