ISO-10303-21;
HEADER;
FILE_DESCRIPTION(('ViewDefinition[AISC_Steel_Detailing]', 'Option [BaseQuantities:Off]', 'Option [GridExport:On]', 'Option [Assemblies:Off]', 'Option [Bolts:On]', 'Option [Rebars:On]', 'Option [PourObjects:Off]', 'Option [Welds:On]', 'Option [SurfaceTreatments:On]', 'Option [LocationBy:0]', 'Option [ViewColors:Off]', 'Option [SectionedSpine:Off]', 'Option [PropertySets:On]', 'Option [Export all:Off]'),'2;1');
FILE_NAME('b_253_Qty_1.ifc','2026-05-16T11:53:11',('GIOVANNIPC\\gcorrea'),('Structural Designer'),'IFC Database version: Work','Tekla Structures 2020 Service Pack 5, IFC Export Version: 4.0.0.0 Dec  7 2020','');
FILE_SCHEMA(('IFC2X3'));
ENDSEC;

DATA;
#1= IFCPERSON('GIOVANNIPC\\gcorrea','Undefined',$,$,$,$,$,$);
#2= IFCORGANIZATION($,'Trimble Solutions Corporation',$,$,$);
#3= IFCPERSONANDORGANIZATION(#1,#2,$);
#4= IFCAPPLICATION(#2,'2020 Service Pack 5','Tekla Structures','Multi material modeling');
#5= IFCOWNERHISTORY(#3,#4,$,.NOCHANGE.,$,$,$,1778950391);
#6= IFCCARTESIANPOINT((0.,0.,0.));
#7= IFCDIRECTION((1.,0.,0.));
#8= IFCDIRECTION((0.,1.,0.));
#9= IFCDIRECTION((0.,0.,1.));
#10= IFCAXIS2PLACEMENT3D(#6,#9,#7);
#11= IFCGEOMETRICREPRESENTATIONCONTEXT($,'Model',3,1.E-05,#10,$);
#12= IFCGEOMETRICREPRESENTATIONSUBCONTEXT('Body','Model',*,*,*,*,#11,$,.MODEL_VIEW.,$);
#13= IFCGEOMETRICREPRESENTATIONSUBCONTEXT('Axis','Model',*,*,*,*,#11,$,.GRAPH_VIEW.,$);
#14= IFCGEOMETRICREPRESENTATIONSUBCONTEXT('FootPrint','Model',*,*,*,*,#11,$,.MODEL_VIEW.,$);
#15= IFCSIUNIT(*,.LENGTHUNIT.,.MILLI.,.METRE.);
#16= IFCMEASUREWITHUNIT(IFCRATIOMEASURE(304.8),#15);
#17= IFCDIMENSIONALEXPONENTS(1,0,0,0,0,0,0);
#18= IFCCONVERSIONBASEDUNIT(#17,.LENGTHUNIT.,'FOOT',#16);
#19= IFCSIUNIT(*,.AREAUNIT.,$,.SQUARE_METRE.);
#20= IFCMEASUREWITHUNIT(IFCRATIOMEASURE(0.09290304),#19);
#21= IFCDIMENSIONALEXPONENTS(2,0,0,0,0,0,0);
#22= IFCCONVERSIONBASEDUNIT(#21,.AREAUNIT.,'SQUARE FOOT',#20);
#23= IFCSIUNIT(*,.VOLUMEUNIT.,$,.CUBIC_METRE.);
#24= IFCMEASUREWITHUNIT(IFCRATIOMEASURE(0.028316846592),#23);
#25= IFCDIMENSIONALEXPONENTS(3,0,0,0,0,0,0);
#26= IFCCONVERSIONBASEDUNIT(#25,.VOLUMEUNIT.,'CUBIC FOOT',#24);
#27= IFCSIUNIT(*,.MASSUNIT.,.KILO.,.GRAM.);
#28= IFCSIUNIT(*,.TIMEUNIT.,$,.SECOND.);
#29= IFCSIUNIT(*,.PLANEANGLEUNIT.,$,.RADIAN.);
#30= IFCMEASUREWITHUNIT(IFCRATIOMEASURE(0.0174532925199433),#29);
#31= IFCDIMENSIONALEXPONENTS(0,0,0,0,0,0,0);
#32= IFCCONVERSIONBASEDUNIT(#31,.PLANEANGLEUNIT.,'DEGREE',#30);
#33= IFCSIUNIT(*,.SOLIDANGLEUNIT.,$,.STERADIAN.);
#34= IFCSIUNIT(*,.THERMODYNAMICTEMPERATUREUNIT.,$,.DEGREE_CELSIUS.);
#35= IFCSIUNIT(*,.LUMINOUSINTENSITYUNIT.,$,.LUMEN.);
#36= IFCUNITASSIGNMENT((#15,#19,#23,#27,#28,#29,#33,#34,#35));
#37= IFCPROJECT('2G7ZFDNE16yBDU14FA92Me',#5,'Proyecto',$,$,$,$,(#11),#36);
#38= IFCLOCALPLACEMENT($,#10);
#39= IFCSITE('2xvEzEinjBTea80yOTcujY',#5,'Obra',$,$,#38,$,$,.ELEMENT.,$,$,$,$,$);
#40= IFCLOCALPLACEMENT(#38,#10);
#41= IFCBUILDING('0NfqeaSlP2buhtccQFxxiq',#5,'Undefined',$,$,#40,$,$,.ELEMENT.,$,$,$);
#42= IFCLOCALPLACEMENT(#40,#10);
#43= IFCBUILDINGSTOREY('29hdEUCErFze9E_VIAceOd',#5,'Undefined',$,$,#42,$,$,.ELEMENT.,0.);
#44= IFCOWNERHISTORY(#3,#4,$,.NOCHANGE.,$,$,$,1774040400);
#45= IFCCARTESIANPOINT((76500.0035981064,22172.4005404012,19125.));
#46= IFCDIRECTION((-1.08099999984051E-06,0.999999999999416,0.));
#47= IFCAXIS2PLACEMENT3D(#45,#9,#46);
#48= IFCLOCALPLACEMENT(#42,#47);
#49= IFCDIRECTION((1.,0.));
#50= IFCCARTESIANPOINT((0.,0.));
#51= IFCAXIS2PLACEMENT2D(#50,#49);
#52= IFCISHAPEPROFILEDEF(.AREA.,'IPE450',#51,190.,450.,9.399999619,14.60000038,21.);
#53= IFCDIRECTION((2.11758236813575E-22,-1.,0.));
#54= IFCDIRECTION((-1.,-2.11758236813575E-22,0.));
#55= IFCCARTESIANPOINT((3327.59945960463,7.04646594387681E-19,0.));
#56= IFCAXIS2PLACEMENT3D(#55,#54,#53);
#57= IFCEXTRUDEDAREASOLID(#52,#56,#9,3327.6);
#58= IFCDIRECTION((0.999999999999416,-1.08099999852129E-06,0.));
#59= IFCCARTESIANPOINT((0.000155399371578824,-0.00018647249089554,-325.));
#60= IFCDIRECTION((-1.08099999852129E-06,-0.999999999999416,0.));
#61= IFCAXIS2PLACEMENT3D(#59,#58,#60);
#62= IFCPLANE(#61);
#63= IFCHALFSPACESOLID(#62,.T.);
#64= IFCBOOLEANCLIPPINGRESULT(.DIFFERENCE.,#57,#63);
#65= IFCSHAPEREPRESENTATION(#12,'Body','Clipping',(#64));
#66= IFCPRODUCTDEFINITIONSHAPE($,$,(#65));
#67= IFCBEAM('2e$mxOJHL49BvUgNq8Fyc7',#44,'BEAM','IPE450','IPE450',#48,#66,'IDa8ff0ed8-4d15-4424-be5e-a97d083fc987');
#68= IFCLOCALPLACEMENT(#42,#47);
#69= IFCRECTANGLEPROFILEDEF(.AREA.,'PL106*12',#51,12.,106.);
#70= IFCDIRECTION((0.,0.,-1.));
#71= IFCCARTESIANPOINT((-15.9997981176166,42.9998308234935,226.));
#72= IFCAXIS2PLACEMENT3D(#71,#70,#58);
#73= IFCEXTRUDEDAREASOLID(#69,#72,#9,452.);
#74= IFCSHAPEREPRESENTATION(#12,'Body','SweptSolid',(#73));
#75= IFCPRODUCTDEFINITIONSHAPE($,$,(#74));
#76= IFCOPENINGELEMENT('1iajpA0X54dxPmGFoW_G3C',#5,$,$,'Recess',#68,#75,$);
#77= IFCRELVOIDSELEMENT('35jHEJ_GD2bvjP4BTjxWGO',#5,$,$,#67,#76);
#78= IFCPROPERTYSINGLEVALUE('FeatureSubTypes',$,$,$);
#79= IFCPROPERTYSINGLEVALUE('RectangleOpeningWidth',$,IFCPOSITIVELENGTHMEASURE(12.),$);
#80= IFCPROPERTYSINGLEVALUE('RectangleOpeningHeight',$,IFCPOSITIVELENGTHMEASURE(106.),$);
#81= IFCPROPERTYSINGLEVALUE('OpeningDiameter',$,$,$);
#82= IFCPROPERTYSET('2oltFv2yj3oQX6_UJBJKPx',#5,'AISC_EM11_Pset_Opening/Cope',$,(#78,#79,#80,#81));
#83= IFCLOCALPLACEMENT(#42,#47);
#84= IFCCARTESIANPOINT((-15.9998910836184,-43.0001691764628,226.));
#85= IFCAXIS2PLACEMENT3D(#84,#70,#58);
#86= IFCEXTRUDEDAREASOLID(#69,#85,#9,452.);
#87= IFCSHAPEREPRESENTATION(#12,'Body','SweptSolid',(#86));
#88= IFCPRODUCTDEFINITIONSHAPE($,$,(#87));
#89= IFCOPENINGELEMENT('1CWunjs3v1LwnmhVoO7I83',#5,$,$,'Recess',#83,#88,$);
#90= IFCRELVOIDSELEMENT('1NlUnfHxfDte$dMlXhOb_J',#5,$,$,#67,#89);
#91= IFCLOCALPLACEMENT(#42,#47);
#92= IFCCIRCLEPROFILEDEF(.AREA.,'D325',#51,162.5);
#93= IFCCARTESIANPOINT((3327.59945960074,9.71383997239172E-07,-325.));
#94= IFCAXIS2PLACEMENT3D(#93,#9,#7);
#95= IFCEXTRUDEDAREASOLID(#92,#94,#9,650.);
#96= IFCSHAPEREPRESENTATION(#12,'Body','SweptSolid',(#95));
#97= IFCPRODUCTDEFINITIONSHAPE($,$,(#96));
#98= IFCOPENINGELEMENT('2pXHRLyMnCSBbS5K4i9ZpG',#5,$,$,'Recess',#91,#97,$);
#99= IFCRELVOIDSELEMENT('1fnAAXeFXCSP8uGXDXF0K1',#5,$,$,#67,#98);
#100= IFCPROPERTYSINGLEVALUE('RectangleOpeningWidth',$,$,$);
#101= IFCPROPERTYSINGLEVALUE('RectangleOpeningHeight',$,$,$);
#102= IFCPROPERTYSINGLEVALUE('OpeningDiameter',$,IFCPOSITIVELENGTHMEASURE(325.),$);
#103= IFCPROPERTYSET('1PxpQ$aX1FMwUzmUeJlrtc',#5,'AISC_EM11_Pset_Opening/Cope',$,(#78,#100,#101,#102));
#104= IFCCARTESIANPOINT((76500.0037845787,22632.3772665206,18900.));
#105= IFCDIRECTION((-0.999999890643783,-0.000467666999826178,0.));
#106= IFCDIRECTION((0.000467666999827116,-0.999999890643783,0.));
#107= IFCAXIS2PLACEMENT3D(#104,#105,#106);
#108= IFCLOCALPLACEMENT(#42,#107);
#109= IFCCIRCLEPROFILEDEF(.AREA.,$,#51,11.5);
#110= IFCCARTESIANPOINT((0.,-0.0999999999997655,0.));
#111= IFCAXIS2PLACEMENT3D(#110,#8,#7);
#112= IFCEXTRUDEDAREASOLID(#109,#111,#9,14.8);
#113= IFCSHAPEREPRESENTATION(#12,'Body','SweptSolid',(#112));
#114= IFCREPRESENTATIONMAP(#10,#113);
#115= IFCCARTESIANPOINT((0.,0.,-49.9999999998545));
#116= IFCCARTESIANTRANSFORMATIONOPERATOR3D($,$,#115,$,$);
#117= IFCMAPPEDITEM(#114,#116);
#118= IFCCARTESIANPOINT((69.9999999997999,0.,-50.0000000003638));
#119= IFCCARTESIANTRANSFORMATIONOPERATOR3D($,$,#118,$,$);
#120= IFCMAPPEDITEM(#114,#119);
#121= IFCCARTESIANPOINT((139.9999999996,0.,-50.0000000008731));
#122= IFCCARTESIANTRANSFORMATIONOPERATOR3D($,$,#121,$,$);
#123= IFCMAPPEDITEM(#114,#122);
#124= IFCCARTESIANPOINT((209.9999999994,0.,-50.0000000013824));
#125= IFCCARTESIANTRANSFORMATIONOPERATOR3D($,$,#124,$,$);
#126= IFCMAPPEDITEM(#114,#125);
#127= IFCCARTESIANPOINT((279.9999999992,0.,-50.0000000018917));
#128= IFCCARTESIANTRANSFORMATIONOPERATOR3D($,$,#127,$,$);
#129= IFCMAPPEDITEM(#114,#128);
#130= IFCCARTESIANPOINT((349.999999999003,0.,-50.0000000024011));
#131= IFCCARTESIANTRANSFORMATIONOPERATOR3D($,$,#130,$,$);
#132= IFCMAPPEDITEM(#114,#131);
#133= IFCCARTESIANPOINT((419.999999998803,0.,-50.0000000029104));
#134= IFCCARTESIANTRANSFORMATIONOPERATOR3D($,$,#133,$,$);
#135= IFCMAPPEDITEM(#114,#134);
#136= IFCCARTESIANPOINT((0.,0.,49.9999999998545));
#137= IFCCARTESIANTRANSFORMATIONOPERATOR3D($,$,#136,$,$);
#138= IFCMAPPEDITEM(#114,#137);
#139= IFCCARTESIANPOINT((69.9999999997999,0.,49.9999999993452));
#140= IFCCARTESIANTRANSFORMATIONOPERATOR3D($,$,#139,$,$);
#141= IFCMAPPEDITEM(#114,#140);
#142= IFCCARTESIANPOINT((139.9999999996,0.,49.9999999988504));
#143= IFCCARTESIANTRANSFORMATIONOPERATOR3D($,$,#142,$,$);
#144= IFCMAPPEDITEM(#114,#143);
#145= IFCCARTESIANPOINT((209.9999999994,0.,49.9999999983411));
#146= IFCCARTESIANTRANSFORMATIONOPERATOR3D($,$,#145,$,$);
#147= IFCMAPPEDITEM(#114,#146);
#148= IFCCARTESIANPOINT((279.999999999203,0.,49.9999999978318));
#149= IFCCARTESIANTRANSFORMATIONOPERATOR3D($,$,#148,$,$);
#150= IFCMAPPEDITEM(#114,#149);
#151= IFCCARTESIANPOINT((349.999999999003,0.,49.9999999973224));
#152= IFCCARTESIANTRANSFORMATIONOPERATOR3D($,$,#151,$,$);
#153= IFCMAPPEDITEM(#114,#152);
#154= IFCCARTESIANPOINT((419.999999998803,0.,49.9999999968131));
#155= IFCCARTESIANTRANSFORMATIONOPERATOR3D($,$,#154,$,$);
#156= IFCMAPPEDITEM(#114,#155);
#157= IFCSHAPEREPRESENTATION(#12,'Body','MappedRepresentation',(#117,#120,#123,#126,#129,#132,#135,#138,#141,#144,#147,#150,#153,#156));
#158= IFCPRODUCTDEFINITIONSHAPE($,$,(#157));
#159= IFCOPENINGELEMENT('1h_zwAlgX7J8u84$JwVthK',#5,$,$,'Opening',#108,#158,$);
#160= IFCRELVOIDSELEMENT('2t3_m$sOP5UualdvLm7sXf',#5,'Drill Hole',$,#67,#159);
#161= IFCPROPERTYSINGLEVALUE('FeatureSubTypes',$,IFCLABEL('TORNILLO'),$);
#162= IFCPROPERTYSET('2VY0Pp1mb8cgGGALa9qDXU',#5,'AISC_EM11_Pset_Opening/Cope',$,(#161,#100,#101,#81));
#163= IFCCARTESIANPOINT((76500.0037845787,22172.4006958008,19350.));
#164= IFCAXIS2PLACEMENT3D(#163,#8,#70);
#165= IFCLOCALPLACEMENT(#42,#164);
#166= IFCCARTESIANPOINT((0.,-4.79977009686409,0.));
#167= IFCAXIS2PLACEMENT3D(#166,#8,#7);
#168= IFCEXTRUDEDAREASOLID(#109,#167,#9,9.6);
#169= IFCSHAPEREPRESENTATION(#12,'Body','SweptSolid',(#168));
#170= IFCREPRESENTATIONMAP(#10,#169);
#171= IFCCARTESIANPOINT((85.,0.,40.));
#172= IFCCARTESIANTRANSFORMATIONOPERATOR3D($,$,#171,$,$);
#173= IFCMAPPEDITEM(#170,#172);
#174= IFCCARTESIANPOINT((155.,0.,40.));
#175= IFCCARTESIANTRANSFORMATIONOPERATOR3D($,$,#174,$,$);
#176= IFCMAPPEDITEM(#170,#175);
#177= IFCCARTESIANPOINT((225.,0.,40.));
#178= IFCCARTESIANTRANSFORMATIONOPERATOR3D($,$,#177,$,$);
#179= IFCMAPPEDITEM(#170,#178);
#180= IFCCARTESIANPOINT((295.,0.,40.));
#181= IFCCARTESIANTRANSFORMATIONOPERATOR3D($,$,#180,$,$);
#182= IFCMAPPEDITEM(#170,#181);
#183= IFCCARTESIANPOINT((365.,0.,40.));
#184= IFCCARTESIANTRANSFORMATIONOPERATOR3D($,$,#183,$,$);
#185= IFCMAPPEDITEM(#170,#184);
#186= IFCSHAPEREPRESENTATION(#12,'Body','MappedRepresentation',(#173,#176,#179,#182,#185));
#187= IFCPRODUCTDEFINITIONSHAPE($,$,(#186));
#188= IFCOPENINGELEMENT('0MsQ7wsQvCaRFdROgBCN$4',#5,$,$,'Opening',#165,#187,$);
#189= IFCRELVOIDSELEMENT('2WKkmUVBzA1OBmmq_pYIH7',#5,'Drill Hole',$,#67,#188);
#190= IFCCARTESIANPOINT((76500.0037845787,22632.3772665206,19350.));
#191= IFCDIRECTION((0.999999890643783,0.000467666999826178,0.));
#192= IFCAXIS2PLACEMENT3D(#190,#191,#106);
#193= IFCLOCALPLACEMENT(#42,#192);
#194= IFCSHAPEREPRESENTATION(#12,'Body','MappedRepresentation',(#117,#120,#123,#126,#129,#132,#135,#138,#141,#144,#147,#150,#153,#156));
#195= IFCPRODUCTDEFINITIONSHAPE($,$,(#194));
#196= IFCOPENINGELEMENT('3vppTdyFX9peGjCHmnIh_Q',#5,$,$,'Opening',#193,#195,$);
#197= IFCRELVOIDSELEMENT('2KJKIqCY91a9Bb3uiYI_Hj',#5,'Drill Hole',$,#67,#196);
#198= IFCCARTESIANPOINT((76564.9989293486,23897.3894851821,18884.));
#199= IFCAXIS2PLACEMENT3D(#198,#8,#54);
#200= IFCLOCALPLACEMENT(#42,#199);
#201= IFCCIRCLEPROFILEDEF(.AREA.,$,#51,11.);
#202= IFCCARTESIANPOINT((0.,15.8999999999999,0.));
#203= IFCAXIS2PLACEMENT3D(#202,#8,#7);
#204= IFCEXTRUDEDAREASOLID(#201,#203,#9,14.8);
#205= IFCSHAPEREPRESENTATION(#12,'Body','SweptSolid',(#204));
#206= IFCREPRESENTATIONMAP(#10,#205);
#207= IFCCARTESIANPOINT((0.,0.,-167.5));
#208= IFCCARTESIANTRANSFORMATIONOPERATOR3D($,$,#207,$,$);
#209= IFCMAPPEDITEM(#206,#208);
#210= IFCCARTESIANPOINT((0.,0.,167.5));
#211= IFCCARTESIANTRANSFORMATIONOPERATOR3D($,$,#210,$,$);
#212= IFCMAPPEDITEM(#206,#211);
#213= IFCCARTESIANPOINT((130.,0.,-167.5));
#214= IFCCARTESIANTRANSFORMATIONOPERATOR3D($,$,#213,$,$);
#215= IFCMAPPEDITEM(#206,#214);
#216= IFCCARTESIANPOINT((130.,0.,167.5));
#217= IFCCARTESIANTRANSFORMATIONOPERATOR3D($,$,#216,$,$);
#218= IFCMAPPEDITEM(#206,#217);
#219= IFCSHAPEREPRESENTATION(#12,'Body','MappedRepresentation',(#209,#212,#215,#218));
#220= IFCPRODUCTDEFINITIONSHAPE($,$,(#219));
#221= IFCOPENINGELEMENT('10thlUbDXB1OsZmasMw6ZP',#5,$,$,'Opening',#200,#220,$);
#222= IFCRELVOIDSELEMENT('306jufLbr4t8jBDMEwztBF',#5,'Drill Hole',$,#67,#221);
#223= IFCPROPERTYSINGLEVALUE('PieceMark',$,IFCIDENTIFIER('BEAM'),$);
#224= IFCPROPERTYSINGLEVALUE('IndicationMark',$,IFCIDENTIFIER('b/253'),$);
#225= IFCPROPERTYSINGLEVALUE('PrelimMark',$,IFCIDENTIFIER(''),$);
#226= IFCPROPERTYSINGLEVALUE('MainPieceTag',$,IFCBOOLEAN(.T.),$);
#227= IFCPROPERTYSET('1XwsXHLvrA7e90Sl_CDXua',#5,'AISC_EM11_Pset_PieceIdentification','PieceIdentity',(#223,#224,#225,#226));
#228= IFCPROPERTYSINGLEVALUE('MaterialType',$,IFCIDENTIFIER('STEEL'),$);
#229= IFCPROPERTYSINGLEVALUE('MaterialGrade',$,IFCIDENTIFIER('S235JR'),$);
#230= IFCPROPERTYSET('18V4tCDvb408jbeoYvHtaW',#5,'AISC_EM11_Pset_Material',$,(#228,#229));
#231= IFCPROPERTYSINGLEVALUE('SkewedAngleY',$,IFCREAL(0.),$);
#232= IFCPROPERTYSINGLEVALUE('SkewedAngleX',$,IFCREAL(6.E-05),$);
#233= IFCPROPERTYSET('07hq5ebcfApR63dr$ApvW3',#5,'AISC_EM11_Pset_SkewedEnd',$,(#231,#232));
#234= IFCPROPERTYSINGLEVALUE('SkewedAngleX',$,IFCREAL(0.),$);
#235= IFCPROPERTYSET('1Deq1VfVj8YeOQjaUreEzT',#5,'AISC_EM11_Pset_SkewedEnd_2',$,(#231,#234));
#236= IFCMATERIAL('STEEL/S235JR');
#237= IFCRELAGGREGATES('1$xxiXOsr74ujSbI22h0Hr',#5,$,$,#37,(#39));
#238= IFCRELAGGREGATES('2HDD_pg87PMA$ktaKKzIZ7',#5,$,$,#39,(#41));
#239= IFCRELAGGREGATES('3tQsxKdJz3bwD0YoY17iNQ',#5,$,$,#41,(#43));
#240= IFCRELCONTAINEDINSPATIALSTRUCTURE('2G$b2Ph_f1hvzhuC2Q_2Ag',#5,$,$,(#67),#43);
#241= IFCRELDEFINESBYPROPERTIES('3dfYJAurn1oevtqc$SRX9F',#5,$,$,(#89,#76),#82);
#242= IFCRELDEFINESBYPROPERTIES('1$Lty06e51Dg$cAXSKNa1L',#5,$,$,(#98),#103);
#243= IFCRELDEFINESBYPROPERTIES('3mHLUy8bzBDhLjsjNZcU9a',#5,$,$,(#221,#196,#188,#159),#162);
#244= IFCRELDEFINESBYPROPERTIES('0s66HYmpLCyxk6K7ALO0s0',#5,$,$,(#67),#227);
#245= IFCRELDEFINESBYPROPERTIES('2AyiZzcfT5FwRkHmPsT7Qr',#5,$,$,(#67),#230);
#246= IFCRELDEFINESBYPROPERTIES('3RbXZUPH56D8ADeKL1DJPg',#5,$,$,(#67),#233);
#247= IFCRELDEFINESBYPROPERTIES('0CmBNynaDEPu$jFazCO3N0',#5,$,$,(#67),#235);
#248= IFCRELASSOCIATESMATERIAL('37pLJ6w810b9oCrEZsvhaO',#5,$,$,(#67),#236);
ENDSEC;

END-ISO-10303-21;
