ISO-10303-21;
HEADER;
FILE_DESCRIPTION(('ViewDefinition[AISC_Steel_Detailing]', 'Option [BaseQuantities:Off]', 'Option [GridExport:On]', 'Option [Assemblies:Off]', 'Option [Bolts:On]', 'Option [Rebars:On]', 'Option [PourObjects:Off]', 'Option [Welds:On]', 'Option [SurfaceTreatments:On]', 'Option [LocationBy:0]', 'Option [ViewColors:Off]', 'Option [SectionedSpine:Off]', 'Option [PropertySets:On]', 'Option [Export all:Off]'),'2;1');
FILE_NAME('b_257_Qty_2.ifc','2026-05-16T11:53:11',('GIOVANNIPC\\gcorrea'),('Structural Designer'),'IFC Database version: Work','Tekla Structures 2020 Service Pack 5, IFC Export Version: 4.0.0.0 Dec  7 2020','');
FILE_SCHEMA(('IFC2X3'));
ENDSEC;

DATA;
#1= IFCPERSON('GIOVANNIPC\\gcorrea','Undefined',$,$,$,$,$,$);
#2= IFCORGANIZATION($,'Trimble Solutions Corporation',$,$,$);
#3= IFCPERSONANDORGANIZATION(#1,#2,$);
#4= IFCAPPLICATION(#2,'2020 Service Pack 5','Tekla Structures','Multi material modeling');
#5= IFCOWNERHISTORY(#3,#4,$,.NOCHANGE.,$,$,$,1778950391);
#6= IFCCARTESIANPOINT((0.,0.,0.));
#7= IFCDIRECTION((1.,0.,0.));
#8= IFCDIRECTION((0.,1.,0.));
#9= IFCDIRECTION((0.,0.,1.));
#10= IFCAXIS2PLACEMENT3D(#6,#9,#7);
#11= IFCGEOMETRICREPRESENTATIONCONTEXT($,'Model',3,1.E-05,#10,$);
#12= IFCGEOMETRICREPRESENTATIONSUBCONTEXT('Body','Model',*,*,*,*,#11,$,.MODEL_VIEW.,$);
#13= IFCGEOMETRICREPRESENTATIONSUBCONTEXT('Axis','Model',*,*,*,*,#11,$,.GRAPH_VIEW.,$);
#14= IFCGEOMETRICREPRESENTATIONSUBCONTEXT('FootPrint','Model',*,*,*,*,#11,$,.MODEL_VIEW.,$);
#15= IFCSIUNIT(*,.LENGTHUNIT.,.MILLI.,.METRE.);
#16= IFCMEASUREWITHUNIT(IFCRATIOMEASURE(304.8),#15);
#17= IFCDIMENSIONALEXPONENTS(1,0,0,0,0,0,0);
#18= IFCCONVERSIONBASEDUNIT(#17,.LENGTHUNIT.,'FOOT',#16);
#19= IFCSIUNIT(*,.AREAUNIT.,$,.SQUARE_METRE.);
#20= IFCMEASUREWITHUNIT(IFCRATIOMEASURE(0.09290304),#19);
#21= IFCDIMENSIONALEXPONENTS(2,0,0,0,0,0,0);
#22= IFCCONVERSIONBASEDUNIT(#21,.AREAUNIT.,'SQUARE FOOT',#20);
#23= IFCSIUNIT(*,.VOLUMEUNIT.,$,.CUBIC_METRE.);
#24= IFCMEASUREWITHUNIT(IFCRATIOMEASURE(0.028316846592),#23);
#25= IFCDIMENSIONALEXPONENTS(3,0,0,0,0,0,0);
#26= IFCCONVERSIONBASEDUNIT(#25,.VOLUMEUNIT.,'CUBIC FOOT',#24);
#27= IFCSIUNIT(*,.MASSUNIT.,.KILO.,.GRAM.);
#28= IFCSIUNIT(*,.TIMEUNIT.,$,.SECOND.);
#29= IFCSIUNIT(*,.PLANEANGLEUNIT.,$,.RADIAN.);
#30= IFCMEASUREWITHUNIT(IFCRATIOMEASURE(0.0174532925199433),#29);
#31= IFCDIMENSIONALEXPONENTS(0,0,0,0,0,0,0);
#32= IFCCONVERSIONBASEDUNIT(#31,.PLANEANGLEUNIT.,'DEGREE',#30);
#33= IFCSIUNIT(*,.SOLIDANGLEUNIT.,$,.STERADIAN.);
#34= IFCSIUNIT(*,.THERMODYNAMICTEMPERATUREUNIT.,$,.DEGREE_CELSIUS.);
#35= IFCSIUNIT(*,.LUMINOUSINTENSITYUNIT.,$,.LUMEN.);
#36= IFCUNITASSIGNMENT((#15,#19,#23,#27,#28,#29,#33,#34,#35));
#37= IFCPROJECT('2G7ZFDNE16yBDU14FA92Me',#5,'Proyecto',$,$,$,$,(#11),#36);
#38= IFCLOCALPLACEMENT($,#10);
#39= IFCSITE('2xvEzEinjBTea80yOTcujY',#5,'Obra',$,$,#38,$,$,.ELEMENT.,$,$,$,$,$);
#40= IFCLOCALPLACEMENT(#38,#10);
#41= IFCBUILDING('2tnd94BEzAUOOJOSzhmwMN',#5,'Undefined',$,$,#40,$,$,.ELEMENT.,$,$,$);
#42= IFCLOCALPLACEMENT(#40,#10);
#43= IFCBUILDINGSTOREY('29hdEUCErFze9E_VIAceOd',#5,'Undefined',$,$,#42,$,$,.ELEMENT.,0.);
#44= IFCOWNERHISTORY(#3,#4,$,.NOCHANGE.,$,$,$,1773320400);
#45= IFCCARTESIANPOINT((85165.0960663681,23896.8840303914,19125.));
#46= IFCAXIS2PLACEMENT3D(#45,#9,#7);
#47= IFCLOCALPLACEMENT(#42,#46);
#48= IFCDIRECTION((1.,0.));
#49= IFCCARTESIANPOINT((0.,0.));
#50= IFCAXIS2PLACEMENT2D(#49,#48);
#51= IFCISHAPEPROFILEDEF(.AREA.,'IPE450',#50,190.,450.,9.399999619,14.60000038,21.);
#52= IFCDIRECTION((0.,-1.,0.));
#53= IFCDIRECTION((-1.,0.,0.));
#54= IFCCARTESIANPOINT((8112.00274644025,0.,0.));
#55= IFCAXIS2PLACEMENT3D(#54,#53,#52);
#56= IFCEXTRUDEDAREASOLID(#51,#55,#9,8104.61);
#57= IFCCARTESIANPOINT((8112.00274644025,-0.0905314752635604,-325.));
#58= IFCAXIS2PLACEMENT3D(#57,#53,#8);
#59= IFCPLANE(#58);
#60= IFCHALFSPACESOLID(#59,.T.);
#61= IFCBOOLEANCLIPPINGRESULT(.DIFFERENCE.,#56,#60);
#62= IFCCARTESIANPOINT((7.3976865750592,0.255162329958694,-325.));
#63= IFCAXIS2PLACEMENT3D(#62,#7,#52);
#64= IFCPLANE(#63);
#65= IFCHALFSPACESOLID(#64,.T.);
#66= IFCBOOLEANCLIPPINGRESULT(.DIFFERENCE.,#61,#65);
#67= IFCSHAPEREPRESENTATION(#12,'Body','Clipping',(#66));
#68= IFCPRODUCTDEFINITIONSHAPE($,$,(#67));
#69= IFCBEAM('12uAMaFcH4NfK8Ls_qNHI7',#44,'BEAM','IPE450','IPE450',#47,#68,'ID42e0a5a4-3e64-445e-9508-576fb45d1487');
#70= IFCLOCALPLACEMENT(#42,#46);
#71= IFCRECTANGLEPROFILEDEF(.AREA.,'PL108*12.1',#50,12.1,108.);
#72= IFCDIRECTION((0.,0.,-1.));
#73= IFCCARTESIANPOINT((8127.95335901613,-43.219791262185,226.));
#74= IFCAXIS2PLACEMENT3D(#73,#72,#53);
#75= IFCEXTRUDEDAREASOLID(#71,#74,#9,452.);
#76= IFCSHAPEREPRESENTATION(#12,'Body','SweptSolid',(#75));
#77= IFCPRODUCTDEFINITIONSHAPE($,$,(#76));
#78= IFCOPENINGELEMENT('3F84eVrvrBHv__sa6wkJR3',#5,$,$,'Recess',#70,#77,$);
#79= IFCRELVOIDSELEMENT('3XJUApE3TFF9u3JIXZx1rc',#5,$,$,#69,#78);
#80= IFCPROPERTYSINGLEVALUE('FeatureSubTypes',$,$,$);
#81= IFCPROPERTYSINGLEVALUE('RectangleOpeningWidth',$,IFCPOSITIVELENGTHMEASURE(12.1),$);
#82= IFCPROPERTYSINGLEVALUE('RectangleOpeningHeight',$,IFCPOSITIVELENGTHMEASURE(108.),$);
#83= IFCPROPERTYSINGLEVALUE('OpeningDiameter',$,$,$);
#84= IFCPROPERTYSET('1joWMqqdnBK8PVsuvIETup',#5,'AISC_EM11_Pset_Opening/Cope',$,(#80,#81,#82,#83));
#85= IFCLOCALPLACEMENT(#42,#46);
#86= IFCRECTANGLEPROFILEDEF(.AREA.,'PL109.1*12.1',#50,12.1,109.1);
#87= IFCCARTESIANPOINT((8127.95335901613,41.3426345431726,226.));
#88= IFCAXIS2PLACEMENT3D(#87,#72,#53);
#89= IFCEXTRUDEDAREASOLID(#86,#88,#9,452.);
#90= IFCSHAPEREPRESENTATION(#12,'Body','SweptSolid',(#89));
#91= IFCPRODUCTDEFINITIONSHAPE($,$,(#90));
#92= IFCOPENINGELEMENT('13Bjp_8L54Vv2PUxAYEUCv',#5,$,$,'Recess',#85,#91,$);
#93= IFCRELVOIDSELEMENT('276opYGl1DNewhymRRVNdK',#5,$,$,#69,#92);
#94= IFCPROPERTYSINGLEVALUE('RectangleOpeningHeight',$,IFCPOSITIVELENGTHMEASURE(109.1),$);
#95= IFCPROPERTYSET('1M$6UQhNbAs9Ca4tME9GZr',#5,'AISC_EM11_Pset_Opening/Cope',$,(#80,#81,#94,#83));
#96= IFCLOCALPLACEMENT(#42,#46);
#97= IFCRECTANGLEPROFILEDEF(.AREA.,'PL106.1*12',#50,12.,106.1);
#98= IFCCARTESIANPOINT((-8.59741987699817,43.2054773039163,226.));
#99= IFCAXIS2PLACEMENT3D(#98,#72,#7);
#100= IFCEXTRUDEDAREASOLID(#97,#99,#9,452.);
#101= IFCSHAPEREPRESENTATION(#12,'Body','SweptSolid',(#100));
#102= IFCPRODUCTDEFINITIONSHAPE($,$,(#101));
#103= IFCOPENINGELEMENT('3KjDUfl4v0EBogvHMfJ98W',#5,$,$,'Recess',#96,#102,$);
#104= IFCRELVOIDSELEMENT('0om3jWqh1CXexoFuDevvth',#5,$,$,#69,#103);
#105= IFCPROPERTYSINGLEVALUE('RectangleOpeningWidth',$,IFCPOSITIVELENGTHMEASURE(12.),$);
#106= IFCPROPERTYSINGLEVALUE('RectangleOpeningHeight',$,IFCPOSITIVELENGTHMEASURE(106.1),$);
#107= IFCPROPERTYSET('2msAAWyV15ffsHib77dKHm',#5,'AISC_EM11_Pset_Opening/Cope',$,(#80,#105,#106,#83));
#108= IFCLOCALPLACEMENT(#42,#46);
#109= IFCRECTANGLEPROFILEDEF(.AREA.,'PL105.9*12',#50,12.,105.9);
#110= IFCCARTESIANPOINT((-8.59741987699817,-42.7945226960837,226.));
#111= IFCAXIS2PLACEMENT3D(#110,#72,#7);
#112= IFCEXTRUDEDAREASOLID(#109,#111,#9,452.);
#113= IFCSHAPEREPRESENTATION(#12,'Body','SweptSolid',(#112));
#114= IFCPRODUCTDEFINITIONSHAPE($,$,(#113));
#115= IFCOPENINGELEMENT('2EjeSGazf818N$cWlyc7gs',#5,$,$,'Recess',#108,#114,$);
#116= IFCRELVOIDSELEMENT('3SsmoGRI90We5VDQNjVi2B',#5,$,$,#69,#115);
#117= IFCPROPERTYSINGLEVALUE('RectangleOpeningHeight',$,IFCPOSITIVELENGTHMEASURE(105.9),$);
#118= IFCPROPERTYSET('2vC6dLu8X2lRprCk5i8wbL',#5,'AISC_EM11_Pset_Opening/Cope',$,(#80,#105,#117,#83));
#119= IFCCARTESIANPOINT((92816.9020226211,23896.5857289147,18900.));
#120= IFCDIRECTION((0.000467666999829816,-0.999999890643783,0.));
#121= IFCDIRECTION((0.999999890643783,0.000467666999835253,0.));
#122= IFCAXIS2PLACEMENT3D(#119,#120,#121);
#123= IFCLOCALPLACEMENT(#42,#122);
#124= IFCCIRCLEPROFILEDEF(.AREA.,$,#50,11.5);
#125= IFCCARTESIANPOINT((0.,-0.0999999999999929,0.));
#126= IFCAXIS2PLACEMENT3D(#125,#8,#7);
#127= IFCEXTRUDEDAREASOLID(#124,#126,#9,14.8);
#128= IFCSHAPEREPRESENTATION(#12,'Body','SweptSolid',(#127));
#129= IFCREPRESENTATIONMAP(#10,#128);
#130= IFCCARTESIANPOINT((3.63797880709171E-10,0.,-49.9999999998581));
#131= IFCCARTESIANTRANSFORMATIONOPERATOR3D($,$,#130,$,$);
#132= IFCMAPPEDITEM(#129,#131);
#133= IFCCARTESIANPOINT((70.0000000001746,0.,-49.9999999988395));
#134= IFCCARTESIANTRANSFORMATIONOPERATOR3D($,$,#133,$,$);
#135= IFCMAPPEDITEM(#129,#134);
#136= IFCCARTESIANPOINT((139.999999999971,0.,-49.9999999978209));
#137= IFCCARTESIANTRANSFORMATIONOPERATOR3D($,$,#136,$,$);
#138= IFCMAPPEDITEM(#129,#137);
#139= IFCCARTESIANPOINT((209.999999999767,0.,-49.9999999968022));
#140= IFCCARTESIANTRANSFORMATIONOPERATOR3D($,$,#139,$,$);
#141= IFCMAPPEDITEM(#129,#140);
#142= IFCCARTESIANPOINT((279.999999999563,0.,-49.9999999957836));
#143= IFCCARTESIANTRANSFORMATIONOPERATOR3D($,$,#142,$,$);
#144= IFCMAPPEDITEM(#129,#143);
#145= IFCCARTESIANPOINT((349.99999999936,0.,-49.9999999947649));
#146= IFCCARTESIANTRANSFORMATIONOPERATOR3D($,$,#145,$,$);
#147= IFCMAPPEDITEM(#129,#146);
#148= IFCCARTESIANPOINT((419.999999999171,0.,-49.9999999937463));
#149= IFCCARTESIANTRANSFORMATIONOPERATOR3D($,$,#148,$,$);
#150= IFCMAPPEDITEM(#129,#149);
#151= IFCCARTESIANPOINT((-3.49245965480804E-10,0.,49.9999999998545));
#152= IFCCARTESIANTRANSFORMATIONOPERATOR3D($,$,#151,$,$);
#153= IFCMAPPEDITEM(#129,#152);
#154= IFCCARTESIANPOINT((69.999999999447,0.,50.0000000008731));
#155= IFCCARTESIANTRANSFORMATIONOPERATOR3D($,$,#154,$,$);
#156= IFCMAPPEDITEM(#129,#155);
#157= IFCCARTESIANPOINT((139.999999999243,0.,50.0000000018917));
#158= IFCCARTESIANTRANSFORMATIONOPERATOR3D($,$,#157,$,$);
#159= IFCMAPPEDITEM(#129,#158);
#160= IFCCARTESIANPOINT((209.999999999054,0.,50.0000000029104));
#161= IFCCARTESIANTRANSFORMATIONOPERATOR3D($,$,#160,$,$);
#162= IFCMAPPEDITEM(#129,#161);
#163= IFCCARTESIANPOINT((279.99999999885,0.,50.000000003929));
#164= IFCCARTESIANTRANSFORMATIONOPERATOR3D($,$,#163,$,$);
#165= IFCMAPPEDITEM(#129,#164);
#166= IFCCARTESIANPOINT((349.999999998647,0.,50.0000000049477));
#167= IFCCARTESIANTRANSFORMATIONOPERATOR3D($,$,#166,$,$);
#168= IFCMAPPEDITEM(#129,#167);
#169= IFCCARTESIANPOINT((419.999999998443,0.,50.0000000059699));
#170= IFCCARTESIANTRANSFORMATIONOPERATOR3D($,$,#169,$,$);
#171= IFCMAPPEDITEM(#129,#170);
#172= IFCSHAPEREPRESENTATION(#12,'Body','MappedRepresentation',(#132,#135,#138,#141,#144,#147,#150,#153,#156,#159,#162,#165,#168,#171));
#173= IFCPRODUCTDEFINITIONSHAPE($,$,(#172));
#174= IFCOPENINGELEMENT('0bpmoAv$D5c9EnmdpbrkuG',#5,$,$,'Opening',#123,#173,$);
#175= IFCRELVOIDSELEMENT('0JFPlbgGbEPQNU3h40K4qO',#5,'Drill Hole',$,#69,#174);
#176= IFCPROPERTYSINGLEVALUE('FeatureSubTypes',$,IFCLABEL('TORNILLO'),$);
#177= IFCPROPERTYSINGLEVALUE('RectangleOpeningWidth',$,$,$);
#178= IFCPROPERTYSINGLEVALUE('RectangleOpeningHeight',$,$,$);
#179= IFCPROPERTYSET('3QjEOjV1X7R9sO9YP$bkEj',#5,'AISC_EM11_Pset_Opening/Cope',$,(#176,#177,#178,#83));
#180= IFCCARTESIANPOINT((93277.0988128084,23896.7801133648,19350.));
#181= IFCAXIS2PLACEMENT3D(#180,#53,#72);
#182= IFCLOCALPLACEMENT(#42,#181);
#183= IFCCARTESIANPOINT((0.,-4.90391683610287,0.));
#184= IFCAXIS2PLACEMENT3D(#183,#8,#7);
#185= IFCEXTRUDEDAREASOLID(#124,#184,#9,9.6);
#186= IFCSHAPEREPRESENTATION(#12,'Body','SweptSolid',(#185));
#187= IFCREPRESENTATIONMAP(#10,#186);
#188= IFCCARTESIANPOINT((85.,0.,40.));
#189= IFCCARTESIANTRANSFORMATIONOPERATOR3D($,$,#188,$,$);
#190= IFCMAPPEDITEM(#187,#189);
#191= IFCCARTESIANPOINT((155.,0.,40.));
#192= IFCCARTESIANTRANSFORMATIONOPERATOR3D($,$,#191,$,$);
#193= IFCMAPPEDITEM(#187,#192);
#194= IFCCARTESIANPOINT((225.,0.,40.));
#195= IFCCARTESIANTRANSFORMATIONOPERATOR3D($,$,#194,$,$);
#196= IFCMAPPEDITEM(#187,#195);
#197= IFCCARTESIANPOINT((295.,0.,40.));
#198= IFCCARTESIANTRANSFORMATIONOPERATOR3D($,$,#197,$,$);
#199= IFCMAPPEDITEM(#187,#198);
#200= IFCCARTESIANPOINT((365.,0.,40.));
#201= IFCCARTESIANTRANSFORMATIONOPERATOR3D($,$,#200,$,$);
#202= IFCMAPPEDITEM(#187,#201);
#203= IFCSHAPEREPRESENTATION(#12,'Body','MappedRepresentation',(#190,#193,#196,#199,#202));
#204= IFCPRODUCTDEFINITIONSHAPE($,$,(#203));
#205= IFCOPENINGELEMENT('1Vb7dLj9r3$vBUnq2YMzV7',#5,$,$,'Opening',#182,#204,$);
#206= IFCRELVOIDSELEMENT('1iAmejq491cA0oNwVusw26',#5,'Drill Hole',$,#69,#205);
#207= IFCCARTESIANPOINT((92816.9020226211,23896.5857289147,19350.));
#208= IFCDIRECTION((-0.000467666999829816,0.999999890643783,0.));
#209= IFCAXIS2PLACEMENT3D(#207,#208,#121);
#210= IFCLOCALPLACEMENT(#42,#209);
#211= IFCSHAPEREPRESENTATION(#12,'Body','MappedRepresentation',(#132,#135,#138,#141,#144,#147,#150,#153,#156,#159,#162,#165,#168,#171));
#212= IFCPRODUCTDEFINITIONSHAPE($,$,(#211));
#213= IFCOPENINGELEMENT('24QfU2jPH3BfDyITSzGbip',#5,$,$,'Opening',#210,#212,$);
#214= IFCRELVOIDSELEMENT('3x7lFwbw9CEeXhCfyQxazR',#5,'Drill Hole',$,#69,#213);
#215= IFCCARTESIANPOINT((85172.493668462,23897.0786877371,19350.));
#216= IFCDIRECTION((-0.999996100900047,0.00279252299971997,0.));
#217= IFCAXIS2PLACEMENT3D(#215,#216,#72);
#218= IFCLOCALPLACEMENT(#42,#217);
#219= IFCCARTESIANPOINT((0.,-4.71706138619255,0.));
#220= IFCAXIS2PLACEMENT3D(#219,#8,#7);
#221= IFCEXTRUDEDAREASOLID(#124,#220,#9,9.6);
#222= IFCSHAPEREPRESENTATION(#12,'Body','SweptSolid',(#221));
#223= IFCREPRESENTATIONMAP(#10,#222);
#224= IFCCARTESIANPOINT((85.,0.,-40.000000000131));
#225= IFCCARTESIANTRANSFORMATIONOPERATOR3D($,$,#224,$,$);
#226= IFCMAPPEDITEM(#223,#225);
#227= IFCCARTESIANPOINT((155.,0.,-40.000000000131));
#228= IFCCARTESIANTRANSFORMATIONOPERATOR3D($,$,#227,$,$);
#229= IFCMAPPEDITEM(#223,#228);
#230= IFCCARTESIANPOINT((225.,0.,-40.000000000131));
#231= IFCCARTESIANTRANSFORMATIONOPERATOR3D($,$,#230,$,$);
#232= IFCMAPPEDITEM(#223,#231);
#233= IFCCARTESIANPOINT((295.,0.,-40.000000000131));
#234= IFCCARTESIANTRANSFORMATIONOPERATOR3D($,$,#233,$,$);
#235= IFCMAPPEDITEM(#223,#234);
#236= IFCCARTESIANPOINT((365.,0.,-40.000000000131));
#237= IFCCARTESIANTRANSFORMATIONOPERATOR3D($,$,#236,$,$);
#238= IFCMAPPEDITEM(#223,#237);
#239= IFCSHAPEREPRESENTATION(#12,'Body','MappedRepresentation',(#226,#229,#232,#235,#238));
#240= IFCPRODUCTDEFINITIONSHAPE($,$,(#239));
#241= IFCOPENINGELEMENT('2pusHBk1r0aBkBJ3ei$IT3',#5,$,$,'Opening',#218,#240,$);
#242= IFCRELVOIDSELEMENT('3Qu0W$Pur2JPWboe31aX9x',#5,'Drill Hole',$,#69,#241);
#243= IFCCARTESIANPOINT((85212.5171362932,23896.787282517,18900.));
#244= IFCAXIS2PLACEMENT3D(#243,#120,#121);
#245= IFCLOCALPLACEMENT(#42,#244);
#246= IFCSHAPEREPRESENTATION(#12,'Body','MappedRepresentation',(#132,#135,#138,#141,#144,#147,#150,#153,#156,#159,#162,#165,#168,#171));
#247= IFCPRODUCTDEFINITIONSHAPE($,$,(#246));
#248= IFCOPENINGELEMENT('0KiBMiKBb1Qx7sixaYu6dm',#5,$,$,'Opening',#245,#247,$);
#249= IFCRELVOIDSELEMENT('15ok6EsNL5pe0repLut4g3',#5,'Drill Hole',$,#69,#248);
#250= IFCCARTESIANPOINT((85212.5171362932,23896.787282517,19350.));
#251= IFCAXIS2PLACEMENT3D(#250,#208,#121);
#252= IFCLOCALPLACEMENT(#42,#251);
#253= IFCSHAPEREPRESENTATION(#12,'Body','MappedRepresentation',(#132,#135,#138,#141,#144,#147,#150,#153,#156,#159,#162,#165,#168,#171));
#254= IFCPRODUCTDEFINITIONSHAPE($,$,(#253));
#255= IFCOPENINGELEMENT('2BP_2NRf14GAYqKzBppW6n',#5,$,$,'Opening',#252,#254,$);
#256= IFCRELVOIDSELEMENT('1aICLCy99A7xoDYPT750oD',#5,'Drill Hole',$,#69,#255);
#257= IFCPROPERTYSINGLEVALUE('PieceMark',$,IFCIDENTIFIER('BEAM'),$);
#258= IFCPROPERTYSINGLEVALUE('IndicationMark',$,IFCIDENTIFIER('b/257'),$);
#259= IFCPROPERTYSINGLEVALUE('PrelimMark',$,IFCIDENTIFIER(''),$);
#260= IFCPROPERTYSINGLEVALUE('MainPieceTag',$,IFCBOOLEAN(.T.),$);
#261= IFCPROPERTYSET('01NUKp3qzFpR1RyZ8jXZuz',#5,'AISC_EM11_Pset_PieceIdentification','PieceIdentity',(#257,#258,#259,#260));
#262= IFCPROPERTYSINGLEVALUE('MaterialType',$,IFCIDENTIFIER('STEEL'),$);
#263= IFCPROPERTYSINGLEVALUE('MaterialGrade',$,IFCIDENTIFIER('S235JR'),$);
#264= IFCPROPERTYSET('0QhcjeYRnAifoTsSRLvgrF',#5,'AISC_EM11_Pset_Material',$,(#262,#263));
#265= IFCPROPERTYSINGLEVALUE('SkewedAngleY',$,IFCREAL(0.),$);
#266= IFCPROPERTYSINGLEVALUE('SkewedAngleX',$,IFCREAL(0.),$);
#267= IFCPROPERTYSET('3K_kKfXSj8Su85LPVF1ISf',#5,'AISC_EM11_Pset_SkewedEnd',$,(#265,#266));
#268= IFCPROPERTYSET('1CFaF$MhvEUexvtXvluRar',#5,'AISC_EM11_Pset_SkewedEnd_2',$,(#265,#266));
#269= IFCMATERIAL('STEEL/S235JR');
#270= IFCRELAGGREGATES('24DXu6mXr8nxGhCp4JwHf7',#5,$,$,#37,(#39));
#271= IFCRELAGGREGATES('2MVpAO2p7Q3DYzU5MbCZxP',#5,$,$,#39,(#41));
#272= IFCRELAGGREGATES('0QCRRW6QP91R5cL$8JmMoH',#5,$,$,#41,(#43));
#273= IFCRELCONTAINEDINSPATIALSTRUCTURE('06XK7ynNX4yx7wJsCJ2xbM',#5,$,$,(#69),#43);
#274= IFCRELDEFINESBYPROPERTIES('2BNPP3OWX29PfuEfkyOdNW',#5,$,$,(#78),#84);
#275= IFCRELDEFINESBYPROPERTIES('2lxncYi6P9aR8AO79c9uSn',#5,$,$,(#92),#95);
#276= IFCRELDEFINESBYPROPERTIES('2MqOLMwAL2CRmtjOoBwbUL',#5,$,$,(#103),#107);
#277= IFCRELDEFINESBYPROPERTIES('0wN$T3TdHA_8wcSZH0gF88',#5,$,$,(#115),#118);
#278= IFCRELDEFINESBYPROPERTIES('1J4_TTI9rEfhuhDKX$0PIG',#5,$,$,(#255,#248,#241,#213,#205,#174),#179);
#279= IFCRELDEFINESBYPROPERTIES('3EW1Lb3C55aOJ2UWAb8FgP',#5,$,$,(#69),#261);
#280= IFCRELDEFINESBYPROPERTIES('1AI35I6JXATuYgCjcREDks',#5,$,$,(#69),#264);
#281= IFCRELDEFINESBYPROPERTIES('23PwbWwFr6Nu0kAtotnbk5',#5,$,$,(#69),#267);
#282= IFCRELDEFINESBYPROPERTIES('0nHMo96$j9rgPc0Rp7rqsO',#5,$,$,(#69),#268);
#283= IFCRELASSOCIATESMATERIAL('3JLYW6CKP1FgNS965R1G24',#5,$,$,(#69),#269);
ENDSEC;

END-ISO-10303-21;
