ISO-10303-21;
HEADER;
FILE_DESCRIPTION(('ViewDefinition[AISC_Steel_Detailing]', 'Option [BaseQuantities:Off]', 'Option [GridExport:On]', 'Option [Assemblies:Off]', 'Option [Bolts:On]', 'Option [Rebars:On]', 'Option [PourObjects:Off]', 'Option [Welds:On]', 'Option [SurfaceTreatments:On]', 'Option [LocationBy:0]', 'Option [ViewColors:Off]', 'Option [SectionedSpine:Off]', 'Option [PropertySets:On]', 'Option [Export all:Off]'),'2;1');
FILE_NAME('b_263_Qty_1.ifc','2026-05-16T11:53:11',('GIOVANNIPC\\gcorrea'),('Structural Designer'),'IFC Database version: Work','Tekla Structures 2020 Service Pack 5, IFC Export Version: 4.0.0.0 Dec  7 2020','');
FILE_SCHEMA(('IFC2X3'));
ENDSEC;

DATA;
#1= IFCPERSON('GIOVANNIPC\\gcorrea','Undefined',$,$,$,$,$,$);
#2= IFCORGANIZATION($,'Trimble Solutions Corporation',$,$,$);
#3= IFCPERSONANDORGANIZATION(#1,#2,$);
#4= IFCAPPLICATION(#2,'2020 Service Pack 5','Tekla Structures','Multi material modeling');
#5= IFCOWNERHISTORY(#3,#4,$,.NOCHANGE.,$,$,$,1778950391);
#6= IFCCARTESIANPOINT((0.,0.,0.));
#7= IFCDIRECTION((1.,0.,0.));
#8= IFCDIRECTION((0.,1.,0.));
#9= IFCDIRECTION((0.,0.,1.));
#10= IFCAXIS2PLACEMENT3D(#6,#9,#7);
#11= IFCGEOMETRICREPRESENTATIONCONTEXT($,'Model',3,1.E-05,#10,$);
#12= IFCGEOMETRICREPRESENTATIONSUBCONTEXT('Body','Model',*,*,*,*,#11,$,.MODEL_VIEW.,$);
#13= IFCGEOMETRICREPRESENTATIONSUBCONTEXT('Axis','Model',*,*,*,*,#11,$,.GRAPH_VIEW.,$);
#14= IFCGEOMETRICREPRESENTATIONSUBCONTEXT('FootPrint','Model',*,*,*,*,#11,$,.MODEL_VIEW.,$);
#15= IFCSIUNIT(*,.LENGTHUNIT.,.MILLI.,.METRE.);
#16= IFCMEASUREWITHUNIT(IFCRATIOMEASURE(304.8),#15);
#17= IFCDIMENSIONALEXPONENTS(1,0,0,0,0,0,0);
#18= IFCCONVERSIONBASEDUNIT(#17,.LENGTHUNIT.,'FOOT',#16);
#19= IFCSIUNIT(*,.AREAUNIT.,$,.SQUARE_METRE.);
#20= IFCMEASUREWITHUNIT(IFCRATIOMEASURE(0.09290304),#19);
#21= IFCDIMENSIONALEXPONENTS(2,0,0,0,0,0,0);
#22= IFCCONVERSIONBASEDUNIT(#21,.AREAUNIT.,'SQUARE FOOT',#20);
#23= IFCSIUNIT(*,.VOLUMEUNIT.,$,.CUBIC_METRE.);
#24= IFCMEASUREWITHUNIT(IFCRATIOMEASURE(0.028316846592),#23);
#25= IFCDIMENSIONALEXPONENTS(3,0,0,0,0,0,0);
#26= IFCCONVERSIONBASEDUNIT(#25,.VOLUMEUNIT.,'CUBIC FOOT',#24);
#27= IFCSIUNIT(*,.MASSUNIT.,.KILO.,.GRAM.);
#28= IFCSIUNIT(*,.TIMEUNIT.,$,.SECOND.);
#29= IFCSIUNIT(*,.PLANEANGLEUNIT.,$,.RADIAN.);
#30= IFCMEASUREWITHUNIT(IFCRATIOMEASURE(0.0174532925199433),#29);
#31= IFCDIMENSIONALEXPONENTS(0,0,0,0,0,0,0);
#32= IFCCONVERSIONBASEDUNIT(#31,.PLANEANGLEUNIT.,'DEGREE',#30);
#33= IFCSIUNIT(*,.SOLIDANGLEUNIT.,$,.STERADIAN.);
#34= IFCSIUNIT(*,.THERMODYNAMICTEMPERATUREUNIT.,$,.DEGREE_CELSIUS.);
#35= IFCSIUNIT(*,.LUMINOUSINTENSITYUNIT.,$,.LUMEN.);
#36= IFCUNITASSIGNMENT((#15,#19,#23,#27,#28,#29,#33,#34,#35));
#37= IFCPROJECT('2G7ZFDNE16yBDU14FA92Me',#5,'Proyecto',$,$,$,$,(#11),#36);
#38= IFCLOCALPLACEMENT($,#10);
#39= IFCSITE('2xvEzEinjBTea80yOTcujY',#5,'Obra',$,$,#38,$,$,.ELEMENT.,$,$,$,$,$);
#40= IFCLOCALPLACEMENT(#38,#10);
#41= IFCBUILDING('1kgwZgu4TD0vL6DC0jxJlR',#5,'Undefined',$,$,#40,$,$,.ELEMENT.,$,$,$);
#42= IFCLOCALPLACEMENT(#40,#10);
#43= IFCBUILDINGSTOREY('29hdEUCErFze9E_VIAceOd',#5,'Undefined',$,$,#42,$,$,.ELEMENT.,0.);
#44= IFCOWNERHISTORY(#3,#4,$,.NOCHANGE.,$,$,$,1774965600);
#45= IFCCARTESIANPOINT((8277.60382843018,23896.8843016664,23035.));
#46= IFCDIRECTION((-0.999999999170737,-4.07250000075836E-05,0.));
#47= IFCAXIS2PLACEMENT3D(#45,#9,#46);
#48= IFCLOCALPLACEMENT(#42,#47);
#49= IFCDIRECTION((1.,0.));
#50= IFCCARTESIANPOINT((0.,0.));
#51= IFCAXIS2PLACEMENT2D(#50,#49);
#52= IFCISHAPEPROFILEDEF(.AREA.,'HI1130-13-25*250',#51,250.,1130.,13.,25.,9.1);
#53= IFCDIRECTION((0.,-1.,0.));
#54= IFCDIRECTION((-1.,0.,0.));
#55= IFCCARTESIANPOINT((2605.74436405123,0.,-3.63797880709171E-12));
#56= IFCAXIS2PLACEMENT3D(#55,#54,#53);
#57= IFCEXTRUDEDAREASOLID(#52,#56,#9,2615.17);
#58= IFCDIRECTION((0.999999999170737,-4.07250000080239E-05,0.));
#59= IFCCARTESIANPOINT((-9.41330174510767,-0.000407250001444481,-665.000000000004));
#60= IFCDIRECTION((-4.07250000080239E-05,-0.999999999170737,0.));
#61= IFCAXIS2PLACEMENT3D(#59,#58,#60);
#62= IFCPLANE(#61);
#63= IFCHALFSPACESOLID(#62,.T.);
#64= IFCBOOLEANCLIPPINGRESULT(.DIFFERENCE.,#57,#63);
#65= IFCSHAPEREPRESENTATION(#12,'Body','Clipping',(#64));
#66= IFCPRODUCTDEFINITIONSHAPE($,$,(#65));
#67= IFCBEAM('2qTjT3ctX9Oh3EdzUU5f5p',#44,'BEAM','HI1130-13-25*250','HI1130-13-25*250',#48,#66,'IDb476d743-9b78-4962-b0ce-9fd79e169173');
#68= IFCLOCALPLACEMENT(#42,#47);
#69= IFCRECTANGLEPROFILEDEF(.AREA.,'PL138.3*12',#51,12.,138.3);
#70= IFCDIRECTION((0.,0.,-1.));
#71= IFCCARTESIANPOINT((-15.4022798845217,56.953822481486,565.999999999996));
#72= IFCAXIS2PLACEMENT3D(#71,#70,#58);
#73= IFCEXTRUDEDAREASOLID(#69,#72,#9,1132.);
#74= IFCSHAPEREPRESENTATION(#12,'Body','SweptSolid',(#73));
#75= IFCPRODUCTDEFINITIONSHAPE($,$,(#74));
#76= IFCOPENINGELEMENT('0QE$5bLxD51AlcAE2S0KSB',#5,$,$,'Recess',#68,#75,$);
#77= IFCRELVOIDSELEMENT('0c1m$RIzP9ovRcQmaIEanv',#5,$,$,#67,#76);
#78= IFCPROPERTYSINGLEVALUE('FeatureSubTypes',$,$,$);
#79= IFCPROPERTYSINGLEVALUE('RectangleOpeningWidth',$,IFCPOSITIVELENGTHMEASURE(12.),$);
#80= IFCPROPERTYSINGLEVALUE('RectangleOpeningHeight',$,IFCPOSITIVELENGTHMEASURE(138.3),$);
#81= IFCPROPERTYSINGLEVALUE('OpeningDiameter',$,$,$);
#82= IFCPROPERTYSET('2WtaSrayrAR8u2EdYsF0Lr',#5,'AISC_EM11_Pset_Opening/Cope',$,(#78,#79,#80,#81));
#83= IFCLOCALPLACEMENT(#42,#47);
#84= IFCRECTANGLEPROFILEDEF(.AREA.,'PL137.8*12',#51,12.,137.8);
#85= IFCCARTESIANPOINT((-15.4069247031748,-57.099428573023,565.999999999996));
#86= IFCAXIS2PLACEMENT3D(#85,#70,#58);
#87= IFCEXTRUDEDAREASOLID(#84,#86,#9,1132.);
#88= IFCSHAPEREPRESENTATION(#12,'Body','SweptSolid',(#87));
#89= IFCPRODUCTDEFINITIONSHAPE($,$,(#88));
#90= IFCOPENINGELEMENT('0aUcOrhyTDj8HIVeO5LIGY',#5,$,$,'Recess',#83,#89,$);
#91= IFCRELVOIDSELEMENT('0oKJXy2fT9IwT7EeMNWDcK',#5,$,$,#67,#90);
#92= IFCPROPERTYSINGLEVALUE('RectangleOpeningHeight',$,IFCPOSITIVELENGTHMEASURE(137.8),$);
#93= IFCPROPERTYSET('2O_PmWY19CM9P4ZzyGk23t',#5,'AISC_EM11_Pset_Opening/Cope',$,(#78,#79,#92,#81));
#94= IFCCARTESIANPOINT((8287.01713015089,23896.8842777731,23600.));
#95= IFCAXIS2PLACEMENT3D(#94,#54,#70);
#96= IFCLOCALPLACEMENT(#42,#95);
#97= IFCCIRCLEPROFILEDEF(.AREA.,$,#51,12.5);
#98= IFCCARTESIANPOINT((0.,-6.59837100535132,0.));
#99= IFCAXIS2PLACEMENT3D(#98,#8,#7);
#100= IFCEXTRUDEDAREASOLID(#97,#99,#9,13.2);
#101= IFCSHAPEREPRESENTATION(#12,'Body','SweptSolid',(#100));
#102= IFCREPRESENTATIONMAP(#10,#101);
#103= IFCCARTESIANPOINT((115.,0.,50.));
#104= IFCCARTESIANTRANSFORMATIONOPERATOR3D($,$,#103,$,$);
#105= IFCMAPPEDITEM(#102,#104);
#106= IFCCARTESIANPOINT((215.,0.,50.));
#107= IFCCARTESIANTRANSFORMATIONOPERATOR3D($,$,#106,$,$);
#108= IFCMAPPEDITEM(#102,#107);
#109= IFCCARTESIANPOINT((315.,0.,50.));
#110= IFCCARTESIANTRANSFORMATIONOPERATOR3D($,$,#109,$,$);
#111= IFCMAPPEDITEM(#102,#110);
#112= IFCCARTESIANPOINT((415.,0.,50.));
#113= IFCCARTESIANTRANSFORMATIONOPERATOR3D($,$,#112,$,$);
#114= IFCMAPPEDITEM(#102,#113);
#115= IFCCARTESIANPOINT((515.,0.,50.));
#116= IFCCARTESIANTRANSFORMATIONOPERATOR3D($,$,#115,$,$);
#117= IFCMAPPEDITEM(#102,#116);
#118= IFCCARTESIANPOINT((615.,0.,50.));
#119= IFCCARTESIANTRANSFORMATIONOPERATOR3D($,$,#118,$,$);
#120= IFCMAPPEDITEM(#102,#119);
#121= IFCCARTESIANPOINT((715.,0.,50.));
#122= IFCCARTESIANTRANSFORMATIONOPERATOR3D($,$,#121,$,$);
#123= IFCMAPPEDITEM(#102,#122);
#124= IFCCARTESIANPOINT((815.,0.,50.));
#125= IFCCARTESIANTRANSFORMATIONOPERATOR3D($,$,#124,$,$);
#126= IFCMAPPEDITEM(#102,#125);
#127= IFCCARTESIANPOINT((915.,0.,50.));
#128= IFCCARTESIANTRANSFORMATIONOPERATOR3D($,$,#127,$,$);
#129= IFCMAPPEDITEM(#102,#128);
#130= IFCCARTESIANPOINT((1015.,0.,50.));
#131= IFCCARTESIANTRANSFORMATIONOPERATOR3D($,$,#130,$,$);
#132= IFCMAPPEDITEM(#102,#131);
#133= IFCSHAPEREPRESENTATION(#12,'Body','MappedRepresentation',(#105,#108,#111,#114,#117,#120,#123,#126,#129,#132));
#134= IFCPRODUCTDEFINITIONSHAPE($,$,(#133));
#135= IFCOPENINGELEMENT('3j0AB1yLjAVf1ndfy31TNf',#5,$,$,'Opening',#96,#134,$);
#136= IFCRELVOIDSELEMENT('0MZ50oOKrBrgxqfJ211$QS',#5,'Drill Hole',$,#67,#135);
#137= IFCPROPERTYSINGLEVALUE('FeatureSubTypes',$,IFCLABEL('TORNILLO'),$);
#138= IFCPROPERTYSINGLEVALUE('RectangleOpeningWidth',$,$,$);
#139= IFCPROPERTYSINGLEVALUE('RectangleOpeningHeight',$,$,$);
#140= IFCPROPERTYSET('31Iz1ljM18ewvVGAhl5QjB',#5,'AISC_EM11_Pset_Opening/Cope',$,(#137,#138,#139,#81));
#141= IFCCARTESIANPOINT((8242.10791918625,23900.9656065257,22470.));
#142= IFCDIRECTION((-0.00143953599980705,0.999998963867516,0.));
#143= IFCDIRECTION((-0.999998963867516,-0.00143953599980616,0.));
#144= IFCAXIS2PLACEMENT3D(#141,#142,#143);
#145= IFCLOCALPLACEMENT(#42,#144);
#146= IFCCIRCLEPROFILEDEF(.AREA.,$,#51,11.5);
#147= IFCCARTESIANPOINT((0.,-0.1,0.));
#148= IFCAXIS2PLACEMENT3D(#147,#8,#7);
#149= IFCEXTRUDEDAREASOLID(#146,#148,#9,25.2);
#150= IFCSHAPEREPRESENTATION(#12,'Body','SweptSolid',(#149));
#151= IFCREPRESENTATIONMAP(#10,#150);
#152= IFCCARTESIANPOINT((-1.81898940354586E-12,0.,-74.9999999999636));
#153= IFCCARTESIANTRANSFORMATIONOPERATOR3D($,$,#152,$,$);
#154= IFCMAPPEDITEM(#151,#153);
#155= IFCCARTESIANPOINT((74.99999999996,0.,-75.0000000000982));
#156= IFCCARTESIANTRANSFORMATIONOPERATOR3D($,$,#155,$,$);
#157= IFCMAPPEDITEM(#151,#156);
#158= IFCCARTESIANPOINT((149.999999999922,0.,-75.0000000002328));
#159= IFCCARTESIANTRANSFORMATIONOPERATOR3D($,$,#158,$,$);
#160= IFCMAPPEDITEM(#151,#159);
#161= IFCCARTESIANPOINT((224.999999999884,0.,-75.0000000003711));
#162= IFCCARTESIANTRANSFORMATIONOPERATOR3D($,$,#161,$,$);
#163= IFCMAPPEDITEM(#151,#162);
#164= IFCCARTESIANPOINT((299.999999999844,0.,-75.0000000005057));
#165= IFCCARTESIANTRANSFORMATIONOPERATOR3D($,$,#164,$,$);
#166= IFCMAPPEDITEM(#151,#165);
#167= IFCCARTESIANPOINT((374.999999999806,0.,-75.0000000006439));
#168= IFCCARTESIANTRANSFORMATIONOPERATOR3D($,$,#167,$,$);
#169= IFCMAPPEDITEM(#151,#168);
#170= IFCCARTESIANPOINT((449.999999999767,0.,-75.0000000007785));
#171= IFCCARTESIANTRANSFORMATIONOPERATOR3D($,$,#170,$,$);
#172= IFCMAPPEDITEM(#151,#171);
#173= IFCCARTESIANPOINT((524.999999999729,0.,-75.0000000009168));
#174= IFCCARTESIANTRANSFORMATIONOPERATOR3D($,$,#173,$,$);
#175= IFCMAPPEDITEM(#151,#174);
#176= IFCCARTESIANPOINT((599.99999999969,0.,-75.0000000010514));
#177= IFCCARTESIANTRANSFORMATIONOPERATOR3D($,$,#176,$,$);
#178= IFCMAPPEDITEM(#151,#177);
#179= IFCCARTESIANPOINT((674.999999999652,0.,-75.000000001186));
#180= IFCCARTESIANTRANSFORMATIONOPERATOR3D($,$,#179,$,$);
#181= IFCMAPPEDITEM(#151,#180);
#182= IFCCARTESIANPOINT((0.,0.,74.9999999999636));
#183= IFCCARTESIANTRANSFORMATIONOPERATOR3D($,$,#182,$,$);
#184= IFCMAPPEDITEM(#151,#183);
#185= IFCCARTESIANPOINT((74.99999999996,0.,74.9999999998217));
#186= IFCCARTESIANTRANSFORMATIONOPERATOR3D($,$,#185,$,$);
#187= IFCMAPPEDITEM(#151,#186);
#188= IFCCARTESIANPOINT((149.999999999922,0.,74.9999999996871));
#189= IFCCARTESIANTRANSFORMATIONOPERATOR3D($,$,#188,$,$);
#190= IFCMAPPEDITEM(#151,#189);
#191= IFCCARTESIANPOINT((224.999999999883,0.,74.9999999995489));
#192= IFCCARTESIANTRANSFORMATIONOPERATOR3D($,$,#191,$,$);
#193= IFCMAPPEDITEM(#151,#192);
#194= IFCCARTESIANPOINT((299.999999999844,0.,74.9999999994143));
#195= IFCCARTESIANTRANSFORMATIONOPERATOR3D($,$,#194,$,$);
#196= IFCMAPPEDITEM(#151,#195);
#197= IFCCARTESIANPOINT((374.999999999805,0.,74.9999999992797));
#198= IFCCARTESIANTRANSFORMATIONOPERATOR3D($,$,#197,$,$);
#199= IFCMAPPEDITEM(#151,#198);
#200= IFCCARTESIANPOINT((449.999999999767,0.,74.9999999991414));
#201= IFCCARTESIANTRANSFORMATIONOPERATOR3D($,$,#200,$,$);
#202= IFCMAPPEDITEM(#151,#201);
#203= IFCCARTESIANPOINT((524.999999999728,0.,74.9999999990068));
#204= IFCCARTESIANTRANSFORMATIONOPERATOR3D($,$,#203,$,$);
#205= IFCMAPPEDITEM(#151,#204);
#206= IFCCARTESIANPOINT((599.99999999969,0.,74.9999999988686));
#207= IFCCARTESIANTRANSFORMATIONOPERATOR3D($,$,#206,$,$);
#208= IFCMAPPEDITEM(#151,#207);
#209= IFCCARTESIANPOINT((674.999999999651,0.,74.999999998734));
#210= IFCCARTESIANTRANSFORMATIONOPERATOR3D($,$,#209,$,$);
#211= IFCMAPPEDITEM(#151,#210);
#212= IFCSHAPEREPRESENTATION(#12,'Body','MappedRepresentation',(#154,#157,#160,#163,#166,#169,#172,#175,#178,#181,#184,#187,#190,#193,#196,#199,#202,#205,#208,#211));
#213= IFCPRODUCTDEFINITIONSHAPE($,$,(#212));
#214= IFCOPENINGELEMENT('318$CuyjP5y9IeADHx8NV7',#5,$,$,'Opening',#145,#213,$);
#215= IFCRELVOIDSELEMENT('0ZcCmy3drAEvzH_$XxZ5bx',#5,'Drill Hole',$,#67,#214);
#216= IFCCARTESIANPOINT((8242.10791918625,23900.9656065257,23600.));
#217= IFCDIRECTION((0.00143953599980705,-0.999998963867516,0.));
#218= IFCAXIS2PLACEMENT3D(#216,#217,#143);
#219= IFCLOCALPLACEMENT(#42,#218);
#220= IFCEXTRUDEDAREASOLID(#97,#148,#9,25.2);
#221= IFCSHAPEREPRESENTATION(#12,'Body','SweptSolid',(#220));
#222= IFCREPRESENTATIONMAP(#10,#221);
#223= IFCMAPPEDITEM(#222,#153);
#224= IFCMAPPEDITEM(#222,#156);
#225= IFCMAPPEDITEM(#222,#159);
#226= IFCMAPPEDITEM(#222,#162);
#227= IFCMAPPEDITEM(#222,#165);
#228= IFCMAPPEDITEM(#222,#168);
#229= IFCMAPPEDITEM(#222,#171);
#230= IFCMAPPEDITEM(#222,#174);
#231= IFCMAPPEDITEM(#222,#177);
#232= IFCMAPPEDITEM(#222,#180);
#233= IFCMAPPEDITEM(#222,#183);
#234= IFCMAPPEDITEM(#222,#186);
#235= IFCMAPPEDITEM(#222,#189);
#236= IFCMAPPEDITEM(#222,#192);
#237= IFCMAPPEDITEM(#222,#195);
#238= IFCMAPPEDITEM(#222,#198);
#239= IFCMAPPEDITEM(#222,#201);
#240= IFCMAPPEDITEM(#222,#204);
#241= IFCMAPPEDITEM(#222,#207);
#242= IFCMAPPEDITEM(#222,#210);
#243= IFCSHAPEREPRESENTATION(#12,'Body','MappedRepresentation',(#223,#224,#225,#226,#227,#228,#229,#230,#231,#232,#233,#234,#235,#236,#237,#238,#239,#240,#241,#242));
#244= IFCPRODUCTDEFINITIONSHAPE($,$,(#243));
#245= IFCOPENINGELEMENT('0K6Y09ah9158NaWIAYJIwd',#5,$,$,'Opening',#219,#244,$);
#246= IFCRELVOIDSELEMENT('22AKJbql9FQe4Cd8oJmKtb',#5,'Drill Hole',$,#67,#245);
#247= IFCPROPERTYSINGLEVALUE('PieceMark',$,IFCIDENTIFIER('BEAM'),$);
#248= IFCPROPERTYSINGLEVALUE('IndicationMark',$,IFCIDENTIFIER('b/263'),$);
#249= IFCPROPERTYSINGLEVALUE('PrelimMark',$,IFCIDENTIFIER(''),$);
#250= IFCPROPERTYSINGLEVALUE('MainPieceTag',$,IFCBOOLEAN(.F.),$);
#251= IFCPROPERTYSET('1$c0VLUrP6WQf5mQRM3l0B',#5,'AISC_EM11_Pset_PieceIdentification','PieceIdentity',(#247,#248,#249,#250));
#252= IFCPROPERTYSINGLEVALUE('MaterialType',$,IFCIDENTIFIER('STEEL'),$);
#253= IFCPROPERTYSINGLEVALUE('MaterialGrade',$,IFCIDENTIFIER('S235JR'),$);
#254= IFCPROPERTYSET('3NtiKKHKP43R6RF06YT_tZ',#5,'AISC_EM11_Pset_Material',$,(#252,#253));
#255= IFCPROPERTYSINGLEVALUE('SkewedAngleY',$,IFCREAL(0.),$);
#256= IFCPROPERTYSINGLEVALUE('SkewedAngleX',$,IFCREAL(0.00233),$);
#257= IFCPROPERTYSET('1f_KtYANz5b99nZvG3_TgU',#5,'AISC_EM11_Pset_SkewedEnd',$,(#255,#256));
#258= IFCPROPERTYSINGLEVALUE('SkewedAngleX',$,IFCREAL(0.),$);
#259= IFCPROPERTYSET('3c7FFQ8mv6pvClBX3qM$RZ',#5,'AISC_EM11_Pset_SkewedEnd_2',$,(#255,#258));
#260= IFCMATERIAL('STEEL/S235JR');
#261= IFCRELAGGREGATES('0nI8GOF0D43wI2uA18puXd',#5,$,$,#37,(#39));
#262= IFCRELAGGREGATES('23aQYgXIVMLCaKASJQ5Apv',#5,$,$,#39,(#41));
#263= IFCRELAGGREGATES('1VFV3waiLBKuU8NGzDB1V7',#5,$,$,#41,(#43));
#264= IFCRELCONTAINEDINSPATIALSTRUCTURE('0fEOD$zYr6_uv4NZZIctS2',#5,$,$,(#67),#43);
#265= IFCRELDEFINESBYPROPERTIES('1knqN_LFDECxA1Ct3ns0OU',#5,$,$,(#76),#82);
#266= IFCRELDEFINESBYPROPERTIES('3Ha66kaLPBCgtbY0y6V$Aa',#5,$,$,(#90),#93);
#267= IFCRELDEFINESBYPROPERTIES('3jzHTYoKzDJfSF1Qy0GOJh',#5,$,$,(#245,#214,#135),#140);
#268= IFCRELDEFINESBYPROPERTIES('3eenKGxxX93vNBLMb61xG3',#5,$,$,(#67),#251);
#269= IFCRELDEFINESBYPROPERTIES('22Ca6HYWb4gfFxdJygAU0o',#5,$,$,(#67),#254);
#270= IFCRELDEFINESBYPROPERTIES('2cRa5xlwfDiv243pR_MAD4',#5,$,$,(#67),#257);
#271= IFCRELDEFINESBYPROPERTIES('0tC7Eh_n91Dfx0K3MkIKND',#5,$,$,(#67),#259);
#272= IFCRELASSOCIATESMATERIAL('1dI9m59zz1shgu1L4DPTkb',#5,$,$,(#67),#260);
ENDSEC;

END-ISO-10303-21;
