ISO-10303-21;
HEADER;
FILE_DESCRIPTION(('ViewDefinition[AISC_Steel_Detailing]', 'Option [BaseQuantities:Off]', 'Option [GridExport:On]', 'Option [Assemblies:Off]', 'Option [Bolts:On]', 'Option [Rebars:On]', 'Option [PourObjects:Off]', 'Option [Welds:On]', 'Option [SurfaceTreatments:On]', 'Option [LocationBy:0]', 'Option [ViewColors:Off]', 'Option [SectionedSpine:Off]', 'Option [PropertySets:On]', 'Option [Export all:Off]'),'2;1');
FILE_NAME('b_26_Qty_2.ifc','2026-05-16T11:53:17',('GIOVANNIPC\\gcorrea'),('Structural Designer'),'IFC Database version: Work','Tekla Structures 2020 Service Pack 5, IFC Export Version: 4.0.0.0 Dec  7 2020','');
FILE_SCHEMA(('IFC2X3'));
ENDSEC;

DATA;
#1= IFCPERSON('GIOVANNIPC\\gcorrea','Undefined',$,$,$,$,$,$);
#2= IFCORGANIZATION($,'Trimble Solutions Corporation',$,$,$);
#3= IFCPERSONANDORGANIZATION(#1,#2,$);
#4= IFCAPPLICATION(#2,'2020 Service Pack 5','Tekla Structures','Multi material modeling');
#5= IFCOWNERHISTORY(#3,#4,$,.NOCHANGE.,$,$,$,1778950397);
#6= IFCCARTESIANPOINT((0.,0.,0.));
#7= IFCDIRECTION((1.,0.,0.));
#8= IFCDIRECTION((0.,1.,0.));
#9= IFCDIRECTION((0.,0.,1.));
#10= IFCAXIS2PLACEMENT3D(#6,#9,#7);
#11= IFCGEOMETRICREPRESENTATIONCONTEXT($,'Model',3,1.E-05,#10,$);
#12= IFCGEOMETRICREPRESENTATIONSUBCONTEXT('Body','Model',*,*,*,*,#11,$,.MODEL_VIEW.,$);
#13= IFCGEOMETRICREPRESENTATIONSUBCONTEXT('Axis','Model',*,*,*,*,#11,$,.GRAPH_VIEW.,$);
#14= IFCGEOMETRICREPRESENTATIONSUBCONTEXT('FootPrint','Model',*,*,*,*,#11,$,.MODEL_VIEW.,$);
#15= IFCSIUNIT(*,.LENGTHUNIT.,.MILLI.,.METRE.);
#16= IFCMEASUREWITHUNIT(IFCRATIOMEASURE(304.8),#15);
#17= IFCDIMENSIONALEXPONENTS(1,0,0,0,0,0,0);
#18= IFCCONVERSIONBASEDUNIT(#17,.LENGTHUNIT.,'FOOT',#16);
#19= IFCSIUNIT(*,.AREAUNIT.,$,.SQUARE_METRE.);
#20= IFCMEASUREWITHUNIT(IFCRATIOMEASURE(0.09290304),#19);
#21= IFCDIMENSIONALEXPONENTS(2,0,0,0,0,0,0);
#22= IFCCONVERSIONBASEDUNIT(#21,.AREAUNIT.,'SQUARE FOOT',#20);
#23= IFCSIUNIT(*,.VOLUMEUNIT.,$,.CUBIC_METRE.);
#24= IFCMEASUREWITHUNIT(IFCRATIOMEASURE(0.028316846592),#23);
#25= IFCDIMENSIONALEXPONENTS(3,0,0,0,0,0,0);
#26= IFCCONVERSIONBASEDUNIT(#25,.VOLUMEUNIT.,'CUBIC FOOT',#24);
#27= IFCSIUNIT(*,.MASSUNIT.,.KILO.,.GRAM.);
#28= IFCSIUNIT(*,.TIMEUNIT.,$,.SECOND.);
#29= IFCSIUNIT(*,.PLANEANGLEUNIT.,$,.RADIAN.);
#30= IFCMEASUREWITHUNIT(IFCRATIOMEASURE(0.0174532925199433),#29);
#31= IFCDIMENSIONALEXPONENTS(0,0,0,0,0,0,0);
#32= IFCCONVERSIONBASEDUNIT(#31,.PLANEANGLEUNIT.,'DEGREE',#30);
#33= IFCSIUNIT(*,.SOLIDANGLEUNIT.,$,.STERADIAN.);
#34= IFCSIUNIT(*,.THERMODYNAMICTEMPERATUREUNIT.,$,.DEGREE_CELSIUS.);
#35= IFCSIUNIT(*,.LUMINOUSINTENSITYUNIT.,$,.LUMEN.);
#36= IFCUNITASSIGNMENT((#15,#19,#23,#27,#28,#29,#33,#34,#35));
#37= IFCPROJECT('2G7ZFDNE16yBDU14FA92Me',#5,'Proyecto',$,$,$,$,(#11),#36);
#38= IFCLOCALPLACEMENT($,#10);
#39= IFCSITE('2xvEzEinjBTea80yOTcujY',#5,'Obra',$,$,#38,$,$,.ELEMENT.,$,$,$,$,$);
#40= IFCLOCALPLACEMENT(#38,#10);
#41= IFCBUILDING('1_3gt8TiLB6Q_JOJuTQp2z',#5,'Undefined',$,$,#40,$,$,.ELEMENT.,$,$,$);
#42= IFCLOCALPLACEMENT(#40,#10);
#43= IFCBUILDINGSTOREY('29hdEUCErFze9E_VIAceOd',#5,'Undefined',$,$,#42,$,$,.ELEMENT.,0.);
#44= IFCOWNERHISTORY(#3,#4,$,.NOCHANGE.,$,$,$,1774555200);
#45= IFCCARTESIANPOINT((34215.9002045517,1603.38122277425,13675.));
#46= IFCAXIS2PLACEMENT3D(#45,#9,#7);
#47= IFCLOCALPLACEMENT(#42,#46);
#48= IFCDIRECTION((1.,0.));
#49= IFCCARTESIANPOINT((0.,0.));
#50= IFCAXIS2PLACEMENT2D(#49,#48);
#51= IFCISHAPEPROFILEDEF(.AREA.,'IPE450',#50,190.,450.,9.399999619,14.60000038,21.);
#52= IFCDIRECTION((0.,-1.,0.));
#53= IFCDIRECTION((-1.,0.,0.));
#54= IFCCARTESIANPOINT((8124.09979544828,0.,0.));
#55= IFCAXIS2PLACEMENT3D(#54,#53,#52);
#56= IFCEXTRUDEDAREASOLID(#51,#55,#9,8117.);
#57= IFCCARTESIANPOINT((8124.09979544828,0.,-325.));
#58= IFCAXIS2PLACEMENT3D(#57,#53,#8);
#59= IFCPLANE(#58);
#60= IFCHALFSPACESOLID(#59,.T.);
#61= IFCBOOLEANCLIPPINGRESULT(.DIFFERENCE.,#56,#60);
#62= IFCCARTESIANPOINT((7.09979544828093,-1.21996704305457,-325.));
#63= IFCAXIS2PLACEMENT3D(#62,#7,#52);
#64= IFCPLANE(#63);
#65= IFCHALFSPACESOLID(#64,.T.);
#66= IFCBOOLEANCLIPPINGRESULT(.DIFFERENCE.,#61,#65);
#67= IFCSHAPEREPRESENTATION(#12,'Body','Clipping',(#66));
#68= IFCPRODUCTDEFINITIONSHAPE($,$,(#67));
#69= IFCBEAM('26L2DW12D668qKVDPklMgJ',#44,'BEAM','IPE450','IPE450',#47,#68,'ID86542360-0423-4618-8d14-7cd66ebd6a93');
#70= IFCLOCALPLACEMENT(#42,#46);
#71= IFCRECTANGLEPROFILEDEF(.AREA.,'PL59*156.3',#50,59.,156.3);
#72= IFCDIRECTION((0.,0.,-1.));
#73= IFCCARTESIANPOINT((8202.22479544828,96.,-196.5));
#74= IFCAXIS2PLACEMENT3D(#73,#52,#72);
#75= IFCEXTRUDEDAREASOLID(#71,#74,#9,192.);
#76= IFCSHAPEREPRESENTATION(#12,'Body','SweptSolid',(#75));
#77= IFCPRODUCTDEFINITIONSHAPE($,$,(#76));
#78= IFCOPENINGELEMENT('1ODivUzoD7vwkLwSkwMtfV',#5,$,$,'Recess',#70,#77,$);
#79= IFCRELVOIDSELEMENT('1hM7fTIQ5DWeZokhBfI$U9',#5,$,$,#69,#78);
#80= IFCPROPERTYSINGLEVALUE('FeatureSubTypes',$,$,$);
#81= IFCPROPERTYSINGLEVALUE('RectangleOpeningWidth',$,IFCPOSITIVELENGTHMEASURE(59.),$);
#82= IFCPROPERTYSINGLEVALUE('RectangleOpeningHeight',$,IFCPOSITIVELENGTHMEASURE(156.3),$);
#83= IFCPROPERTYSINGLEVALUE('OpeningDiameter',$,$,$);
#84= IFCPROPERTYSET('1KUOmmbW12fR$QjkOt70KV',#5,'AISC_EM11_Pset_Opening/Cope',$,(#80,#81,#82,#83));
#85= IFCLOCALPLACEMENT(#42,#46);
#86= IFCRECTANGLEPROFILEDEF(.AREA.,'PL49*156.3',#50,49.,156.3);
#87= IFCCARTESIANPOINT((8202.22479544828,96.,201.5));
#88= IFCAXIS2PLACEMENT3D(#87,#52,#72);
#89= IFCEXTRUDEDAREASOLID(#86,#88,#9,192.);
#90= IFCSHAPEREPRESENTATION(#12,'Body','SweptSolid',(#89));
#91= IFCPRODUCTDEFINITIONSHAPE($,$,(#90));
#92= IFCOPENINGELEMENT('275PeRxkn6gfc9EU0yvmum',#5,$,$,'Recess',#85,#91,$);
#93= IFCRELVOIDSELEMENT('2q$nd91$f68B6PJjc3yqP0',#5,$,$,#69,#92);
#94= IFCPROPERTYSINGLEVALUE('RectangleOpeningWidth',$,IFCPOSITIVELENGTHMEASURE(49.),$);
#95= IFCPROPERTYSET('0hrF0wo_b6OvS5QoEGCHG8',#5,'AISC_EM11_Pset_Opening/Cope',$,(#80,#94,#82,#83));
#96= IFCLOCALPLACEMENT(#42,#46);
#97= IFCRECTANGLEPROFILEDEF(.AREA.,'PL108*12',#50,12.,108.);
#98= IFCCARTESIANPOINT((-8.90020455171907,40.7800329569454,226.));
#99= IFCAXIS2PLACEMENT3D(#98,#72,#7);
#100= IFCEXTRUDEDAREASOLID(#97,#99,#9,452.);
#101= IFCSHAPEREPRESENTATION(#12,'Body','SweptSolid',(#100));
#102= IFCPRODUCTDEFINITIONSHAPE($,$,(#101));
#103= IFCOPENINGELEMENT('3fwQn2y0LEWeR4dmEt_qBe',#5,$,$,'Recess',#96,#102,$);
#104= IFCRELVOIDSELEMENT('1lrFEy681COQdsrniaudfw',#5,$,$,#69,#103);
#105= IFCPROPERTYSINGLEVALUE('RectangleOpeningWidth',$,IFCPOSITIVELENGTHMEASURE(12.),$);
#106= IFCPROPERTYSINGLEVALUE('RectangleOpeningHeight',$,IFCPOSITIVELENGTHMEASURE(108.),$);
#107= IFCPROPERTYSET('21YU_FP1jCWfNRSMI1y5RC',#5,'AISC_EM11_Pset_Opening/Cope',$,(#80,#105,#106,#83));
#108= IFCLOCALPLACEMENT(#42,#46);
#109= IFCCARTESIANPOINT((-8.90020455171907,-43.2199670430546,226.));
#110= IFCAXIS2PLACEMENT3D(#109,#72,#7);
#111= IFCEXTRUDEDAREASOLID(#97,#110,#9,452.);
#112= IFCSHAPEREPRESENTATION(#12,'Body','SweptSolid',(#111));
#113= IFCPRODUCTDEFINITIONSHAPE($,$,(#112));
#114= IFCOPENINGELEMENT('3t2OwCXe95yhLo7tR0ocjZ',#5,$,$,'Recess',#108,#113,$);
#115= IFCRELVOIDSELEMENT('1VYVgDamb7qugITjvVytZz',#5,$,$,#69,#114);
#116= IFCCARTESIANPOINT((42340.,1603.38122277425,13855.));
#117= IFCAXIS2PLACEMENT3D(#116,#53,#72);
#118= IFCLOCALPLACEMENT(#42,#117);
#119= IFCCIRCLEPROFILEDEF(.AREA.,$,#50,11.5);
#120= IFCCARTESIANPOINT((0.,-4.79999980950001,0.));
#121= IFCAXIS2PLACEMENT3D(#120,#8,#7);
#122= IFCEXTRUDEDAREASOLID(#119,#121,#9,9.6);
#123= IFCSHAPEREPRESENTATION(#12,'Body','SweptSolid',(#122));
#124= IFCREPRESENTATIONMAP(#10,#123);
#125= IFCCARTESIANPOINT((40.,0.,40.));
#126= IFCCARTESIANTRANSFORMATIONOPERATOR3D($,$,#125,$,$);
#127= IFCMAPPEDITEM(#124,#126);
#128= IFCCARTESIANPOINT((110.,0.,40.));
#129= IFCCARTESIANTRANSFORMATIONOPERATOR3D($,$,#128,$,$);
#130= IFCMAPPEDITEM(#124,#129);
#131= IFCCARTESIANPOINT((180.,0.,40.));
#132= IFCCARTESIANTRANSFORMATIONOPERATOR3D($,$,#131,$,$);
#133= IFCMAPPEDITEM(#124,#132);
#134= IFCCARTESIANPOINT((250.,0.,40.));
#135= IFCCARTESIANTRANSFORMATIONOPERATOR3D($,$,#134,$,$);
#136= IFCMAPPEDITEM(#124,#135);
#137= IFCCARTESIANPOINT((320.,0.,40.));
#138= IFCCARTESIANTRANSFORMATIONOPERATOR3D($,$,#137,$,$);
#139= IFCMAPPEDITEM(#124,#138);
#140= IFCSHAPEREPRESENTATION(#12,'Body','MappedRepresentation',(#127,#130,#133,#136,#139));
#141= IFCPRODUCTDEFINITIONSHAPE($,$,(#140));
#142= IFCOPENINGELEMENT('3tiOoQRqH6tv4I8yl3lD2l',#5,$,$,'Opening',#118,#141,$);
#143= IFCRELVOIDSELEMENT('1PqZlUT7r1Zw29G_cjKqcr',#5,'Drill Hole',$,#69,#142);
#144= IFCPROPERTYSINGLEVALUE('FeatureSubTypes',$,IFCLABEL('TORNILLO'),$);
#145= IFCPROPERTYSINGLEVALUE('RectangleOpeningWidth',$,$,$);
#146= IFCPROPERTYSINGLEVALUE('RectangleOpeningHeight',$,$,$);
#147= IFCPROPERTYSET('3WZVi$oWDENu85Le3lT0Ur',#5,'AISC_EM11_Pset_Opening/Cope',$,(#144,#145,#146,#83));
#148= IFCCARTESIANPOINT((42297.299130333,1603.38122277425,13460.));
#149= IFCAXIS2PLACEMENT3D(#148,#8,#53);
#150= IFCLOCALPLACEMENT(#42,#149);
#151= IFCCARTESIANPOINT((0.,-10.1,0.));
#152= IFCAXIS2PLACEMENT3D(#151,#8,#7);
#153= IFCEXTRUDEDAREASOLID(#119,#152,#9,14.8);
#154= IFCSHAPEREPRESENTATION(#12,'Body','SweptSolid',(#153));
#155= IFCREPRESENTATIONMAP(#10,#154);
#156= IFCCARTESIANPOINT((0.,0.,50.));
#157= IFCCARTESIANTRANSFORMATIONOPERATOR3D($,$,#156,$,$);
#158= IFCMAPPEDITEM(#155,#157);
#159= IFCCARTESIANPOINT((70.,0.,50.));
#160= IFCCARTESIANTRANSFORMATIONOPERATOR3D($,$,#159,$,$);
#161= IFCMAPPEDITEM(#155,#160);
#162= IFCCARTESIANPOINT((140.,0.,50.));
#163= IFCCARTESIANTRANSFORMATIONOPERATOR3D($,$,#162,$,$);
#164= IFCMAPPEDITEM(#155,#163);
#165= IFCCARTESIANPOINT((210.,0.,50.));
#166= IFCCARTESIANTRANSFORMATIONOPERATOR3D($,$,#165,$,$);
#167= IFCMAPPEDITEM(#155,#166);
#168= IFCCARTESIANPOINT((280.,0.,50.));
#169= IFCCARTESIANTRANSFORMATIONOPERATOR3D($,$,#168,$,$);
#170= IFCMAPPEDITEM(#155,#169);
#171= IFCCARTESIANPOINT((350.,0.,50.));
#172= IFCCARTESIANTRANSFORMATIONOPERATOR3D($,$,#171,$,$);
#173= IFCMAPPEDITEM(#155,#172);
#174= IFCCARTESIANPOINT((420.,0.,50.));
#175= IFCCARTESIANTRANSFORMATIONOPERATOR3D($,$,#174,$,$);
#176= IFCMAPPEDITEM(#155,#175);
#177= IFCCARTESIANPOINT((0.,0.,-50.));
#178= IFCCARTESIANTRANSFORMATIONOPERATOR3D($,$,#177,$,$);
#179= IFCMAPPEDITEM(#155,#178);
#180= IFCCARTESIANPOINT((70.,0.,-50.));
#181= IFCCARTESIANTRANSFORMATIONOPERATOR3D($,$,#180,$,$);
#182= IFCMAPPEDITEM(#155,#181);
#183= IFCCARTESIANPOINT((140.,0.,-50.));
#184= IFCCARTESIANTRANSFORMATIONOPERATOR3D($,$,#183,$,$);
#185= IFCMAPPEDITEM(#155,#184);
#186= IFCCARTESIANPOINT((210.,0.,-50.));
#187= IFCCARTESIANTRANSFORMATIONOPERATOR3D($,$,#186,$,$);
#188= IFCMAPPEDITEM(#155,#187);
#189= IFCCARTESIANPOINT((280.,0.,-50.));
#190= IFCCARTESIANTRANSFORMATIONOPERATOR3D($,$,#189,$,$);
#191= IFCMAPPEDITEM(#155,#190);
#192= IFCCARTESIANPOINT((350.,0.,-50.));
#193= IFCCARTESIANTRANSFORMATIONOPERATOR3D($,$,#192,$,$);
#194= IFCMAPPEDITEM(#155,#193);
#195= IFCCARTESIANPOINT((420.,0.,-50.));
#196= IFCCARTESIANTRANSFORMATIONOPERATOR3D($,$,#195,$,$);
#197= IFCMAPPEDITEM(#155,#196);
#198= IFCSHAPEREPRESENTATION(#12,'Body','MappedRepresentation',(#158,#161,#164,#167,#170,#173,#176,#179,#182,#185,#188,#191,#194,#197));
#199= IFCPRODUCTDEFINITIONSHAPE($,$,(#198));
#200= IFCOPENINGELEMENT('3euLW8Lbv8KfMrA_EDEGCl',#5,$,$,'Opening',#150,#199,$);
#201= IFCRELVOIDSELEMENT('2sN0LGmiX2jud_ia1TqyXR',#5,'Drill Hole',$,#69,#200);
#202= IFCCARTESIANPOINT((42297.299130333,1603.38122277425,13900.));
#203= IFCAXIS2PLACEMENT3D(#202,#52,#53);
#204= IFCLOCALPLACEMENT(#42,#203);
#205= IFCCARTESIANPOINT((0.,-0.0999999999999929,0.));
#206= IFCAXIS2PLACEMENT3D(#205,#8,#7);
#207= IFCEXTRUDEDAREASOLID(#119,#206,#9,14.8);
#208= IFCSHAPEREPRESENTATION(#12,'Body','SweptSolid',(#207));
#209= IFCREPRESENTATIONMAP(#10,#208);
#210= IFCMAPPEDITEM(#209,#178);
#211= IFCMAPPEDITEM(#209,#181);
#212= IFCMAPPEDITEM(#209,#184);
#213= IFCMAPPEDITEM(#209,#187);
#214= IFCMAPPEDITEM(#209,#190);
#215= IFCMAPPEDITEM(#209,#193);
#216= IFCMAPPEDITEM(#209,#196);
#217= IFCMAPPEDITEM(#209,#157);
#218= IFCMAPPEDITEM(#209,#160);
#219= IFCMAPPEDITEM(#209,#163);
#220= IFCMAPPEDITEM(#209,#166);
#221= IFCMAPPEDITEM(#209,#169);
#222= IFCMAPPEDITEM(#209,#172);
#223= IFCMAPPEDITEM(#209,#175);
#224= IFCSHAPEREPRESENTATION(#12,'Body','MappedRepresentation',(#210,#211,#212,#213,#214,#215,#216,#217,#218,#219,#220,#221,#222,#223));
#225= IFCPRODUCTDEFINITIONSHAPE($,$,(#224));
#226= IFCOPENINGELEMENT('2sB3wRyNPFmv$9HSj9hwRT',#5,$,$,'Opening',#204,#225,$);
#227= IFCRELVOIDSELEMENT('2rRX64CKfCre5f0RdXxwFz',#5,'Drill Hole',$,#69,#226);
#228= IFCCARTESIANPOINT((34262.964924975,1602.46835058019,13450.));
#229= IFCDIRECTION((0.000467666999837093,-0.999999890643783,0.));
#230= IFCDIRECTION((0.999999890643783,0.000467666999833569,0.));
#231= IFCAXIS2PLACEMENT3D(#228,#229,#230);
#232= IFCLOCALPLACEMENT(#42,#231);
#233= IFCSHAPEREPRESENTATION(#12,'Body','MappedRepresentation',(#210,#211,#212,#213,#214,#215,#216,#217,#218,#219,#220,#221,#222,#223));
#234= IFCPRODUCTDEFINITIONSHAPE($,$,(#233));
#235= IFCOPENINGELEMENT('2kz_BQ2mH3wuRV14dmL3fZ',#5,$,$,'Opening',#232,#234,$);
#236= IFCRELVOIDSELEMENT('3ZJZTQPmL0UA34DXTndzdM',#5,'Drill Hole',$,#69,#235);
#237= IFCCARTESIANPOINT((34223.,1602.1612557312,13900.));
#238= IFCAXIS2PLACEMENT3D(#237,#7,#72);
#239= IFCLOCALPLACEMENT(#42,#238);
#240= IFCCARTESIANPOINT((0.,-3.58003276644546,0.));
#241= IFCAXIS2PLACEMENT3D(#240,#8,#7);
#242= IFCEXTRUDEDAREASOLID(#119,#241,#9,9.6);
#243= IFCSHAPEREPRESENTATION(#12,'Body','SweptSolid',(#242));
#244= IFCREPRESENTATIONMAP(#10,#243);
#245= IFCCARTESIANPOINT((85.,0.,40.));
#246= IFCCARTESIANTRANSFORMATIONOPERATOR3D($,$,#245,$,$);
#247= IFCMAPPEDITEM(#244,#246);
#248= IFCCARTESIANPOINT((155.,0.,40.));
#249= IFCCARTESIANTRANSFORMATIONOPERATOR3D($,$,#248,$,$);
#250= IFCMAPPEDITEM(#244,#249);
#251= IFCCARTESIANPOINT((225.,0.,40.));
#252= IFCCARTESIANTRANSFORMATIONOPERATOR3D($,$,#251,$,$);
#253= IFCMAPPEDITEM(#244,#252);
#254= IFCCARTESIANPOINT((295.,0.,40.));
#255= IFCCARTESIANTRANSFORMATIONOPERATOR3D($,$,#254,$,$);
#256= IFCMAPPEDITEM(#244,#255);
#257= IFCCARTESIANPOINT((365.,0.,40.));
#258= IFCCARTESIANTRANSFORMATIONOPERATOR3D($,$,#257,$,$);
#259= IFCMAPPEDITEM(#244,#258);
#260= IFCSHAPEREPRESENTATION(#12,'Body','MappedRepresentation',(#247,#250,#253,#256,#259));
#261= IFCPRODUCTDEFINITIONSHAPE($,$,(#260));
#262= IFCOPENINGELEMENT('3yRBDcc0L6dePN_m_Gkmjd',#5,$,$,'Opening',#239,#261,$);
#263= IFCRELVOIDSELEMENT('34y0M$GVbC0O$p7FqeyHr_',#5,'Drill Hole',$,#69,#262);
#264= IFCCARTESIANPOINT((34262.964924975,1602.46835058019,13900.));
#265= IFCDIRECTION((-0.000467666999837093,0.999999890643783,0.));
#266= IFCAXIS2PLACEMENT3D(#264,#265,#230);
#267= IFCLOCALPLACEMENT(#42,#266);
#268= IFCSHAPEREPRESENTATION(#12,'Body','MappedRepresentation',(#210,#211,#212,#213,#214,#215,#216,#217,#218,#219,#220,#221,#222,#223));
#269= IFCPRODUCTDEFINITIONSHAPE($,$,(#268));
#270= IFCOPENINGELEMENT('0EFOoTuuD3CgMjpqAS3TOR',#5,$,$,'Opening',#267,#269,$);
#271= IFCRELVOIDSELEMENT('2$VTawYBnFshs0HG2HmXrd',#5,'Drill Hole',$,#69,#270);
#272= IFCPROPERTYSINGLEVALUE('PieceMark',$,IFCIDENTIFIER('BEAM'),$);
#273= IFCPROPERTYSINGLEVALUE('IndicationMark',$,IFCIDENTIFIER('b/26'),$);
#274= IFCPROPERTYSINGLEVALUE('PrelimMark',$,IFCIDENTIFIER(''),$);
#275= IFCPROPERTYSINGLEVALUE('MainPieceTag',$,IFCBOOLEAN(.T.),$);
#276= IFCPROPERTYSET('18MKtYlwf2lRiE_RRPfkgs',#5,'AISC_EM11_Pset_PieceIdentification','PieceIdentity',(#272,#273,#274,#275));
#277= IFCPROPERTYSINGLEVALUE('MaterialType',$,IFCIDENTIFIER('STEEL'),$);
#278= IFCPROPERTYSINGLEVALUE('MaterialGrade',$,IFCIDENTIFIER('S235JR'),$);
#279= IFCPROPERTYSET('2K$uKOHln7A8Me6CsdluAo',#5,'AISC_EM11_Pset_Material',$,(#277,#278));
#280= IFCPROPERTYSINGLEVALUE('SkewedAngleY',$,IFCREAL(0.),$);
#281= IFCPROPERTYSINGLEVALUE('SkewedAngleX',$,IFCREAL(0.),$);
#282= IFCPROPERTYSET('3LWNETIMf5WwSGBIJEYwzY',#5,'AISC_EM11_Pset_SkewedEnd',$,(#280,#281));
#283= IFCPROPERTYSET('2C6HPcOobFQ97YN$bIOGQW',#5,'AISC_EM11_Pset_SkewedEnd_2',$,(#280,#281));
#284= IFCMATERIAL('STEEL/S235JR');
#285= IFCRELAGGREGATES('098hMfzzjFl8PvzdRpeGJh',#5,$,$,#37,(#39));
#286= IFCRELAGGREGATES('2RQzexFF$X1QhBFvj5wYbz',#5,$,$,#39,(#41));
#287= IFCRELAGGREGATES('1ClFUO$jL1Eef$ZJKvM8_t',#5,$,$,#41,(#43));
#288= IFCRELCONTAINEDINSPATIALSTRUCTURE('2ErkKCHvf1YQKXV5Q8NtyJ',#5,$,$,(#69),#43);
#289= IFCRELDEFINESBYPROPERTIES('3kE6oBd2bEuwg_qtdhuq_c',#5,$,$,(#78),#84);
#290= IFCRELDEFINESBYPROPERTIES('2dx5CxwjP3fvsrb3kL3hIn',#5,$,$,(#92),#95);
#291= IFCRELDEFINESBYPROPERTIES('36eN$b1HL9JuWY1JMKtgKi',#5,$,$,(#114,#103),#107);
#292= IFCRELDEFINESBYPROPERTIES('13CeoCB895WBnPL_UTkDKv',#5,$,$,(#270,#262,#235,#226,#200,#142),#147);
#293= IFCRELDEFINESBYPROPERTIES('0KUn7K89H2ZA9eUc7$F3QV',#5,$,$,(#69),#276);
#294= IFCRELDEFINESBYPROPERTIES('0ikYJB1g99APAhUtJ5LSTh',#5,$,$,(#69),#279);
#295= IFCRELDEFINESBYPROPERTIES('2N5QgGnsr00PAJ_3LRC$yd',#5,$,$,(#69),#282);
#296= IFCRELDEFINESBYPROPERTIES('3AhzNOTuL1nQubI93ciZ6K',#5,$,$,(#69),#283);
#297= IFCRELASSOCIATESMATERIAL('1IbILUBkb1VgsebsukBESa',#5,$,$,(#69),#284);
ENDSEC;

END-ISO-10303-21;
