ISO-10303-21;
HEADER;
FILE_DESCRIPTION(('ViewDefinition[AISC_Steel_Detailing]', 'Option [BaseQuantities:Off]', 'Option [GridExport:On]', 'Option [Assemblies:Off]', 'Option [Bolts:On]', 'Option [Rebars:On]', 'Option [PourObjects:Off]', 'Option [Welds:On]', 'Option [SurfaceTreatments:On]', 'Option [LocationBy:0]', 'Option [ViewColors:Off]', 'Option [SectionedSpine:Off]', 'Option [PropertySets:On]', 'Option [Export all:Off]'),'2;1');
FILE_NAME('b_278_Qty_1.ifc','2026-05-16T11:53:12',('GIOVANNIPC\\gcorrea'),('Structural Designer'),'IFC Database version: Work','Tekla Structures 2020 Service Pack 5, IFC Export Version: 4.0.0.0 Dec  7 2020','');
FILE_SCHEMA(('IFC2X3'));
ENDSEC;

DATA;
#1= IFCPERSON('GIOVANNIPC\\gcorrea','Undefined',$,$,$,$,$,$);
#2= IFCORGANIZATION($,'Trimble Solutions Corporation',$,$,$);
#3= IFCPERSONANDORGANIZATION(#1,#2,$);
#4= IFCAPPLICATION(#2,'2020 Service Pack 5','Tekla Structures','Multi material modeling');
#5= IFCOWNERHISTORY(#3,#4,$,.NOCHANGE.,$,$,$,1778950392);
#6= IFCCARTESIANPOINT((0.,0.,0.));
#7= IFCDIRECTION((1.,0.,0.));
#8= IFCDIRECTION((0.,1.,0.));
#9= IFCDIRECTION((0.,0.,1.));
#10= IFCAXIS2PLACEMENT3D(#6,#9,#7);
#11= IFCGEOMETRICREPRESENTATIONCONTEXT($,'Model',3,1.E-05,#10,$);
#12= IFCGEOMETRICREPRESENTATIONSUBCONTEXT('Body','Model',*,*,*,*,#11,$,.MODEL_VIEW.,$);
#13= IFCGEOMETRICREPRESENTATIONSUBCONTEXT('Axis','Model',*,*,*,*,#11,$,.GRAPH_VIEW.,$);
#14= IFCGEOMETRICREPRESENTATIONSUBCONTEXT('FootPrint','Model',*,*,*,*,#11,$,.MODEL_VIEW.,$);
#15= IFCSIUNIT(*,.LENGTHUNIT.,.MILLI.,.METRE.);
#16= IFCMEASUREWITHUNIT(IFCRATIOMEASURE(304.8),#15);
#17= IFCDIMENSIONALEXPONENTS(1,0,0,0,0,0,0);
#18= IFCCONVERSIONBASEDUNIT(#17,.LENGTHUNIT.,'FOOT',#16);
#19= IFCSIUNIT(*,.AREAUNIT.,$,.SQUARE_METRE.);
#20= IFCMEASUREWITHUNIT(IFCRATIOMEASURE(0.09290304),#19);
#21= IFCDIMENSIONALEXPONENTS(2,0,0,0,0,0,0);
#22= IFCCONVERSIONBASEDUNIT(#21,.AREAUNIT.,'SQUARE FOOT',#20);
#23= IFCSIUNIT(*,.VOLUMEUNIT.,$,.CUBIC_METRE.);
#24= IFCMEASUREWITHUNIT(IFCRATIOMEASURE(0.028316846592),#23);
#25= IFCDIMENSIONALEXPONENTS(3,0,0,0,0,0,0);
#26= IFCCONVERSIONBASEDUNIT(#25,.VOLUMEUNIT.,'CUBIC FOOT',#24);
#27= IFCSIUNIT(*,.MASSUNIT.,.KILO.,.GRAM.);
#28= IFCSIUNIT(*,.TIMEUNIT.,$,.SECOND.);
#29= IFCSIUNIT(*,.PLANEANGLEUNIT.,$,.RADIAN.);
#30= IFCMEASUREWITHUNIT(IFCRATIOMEASURE(0.0174532925199433),#29);
#31= IFCDIMENSIONALEXPONENTS(0,0,0,0,0,0,0);
#32= IFCCONVERSIONBASEDUNIT(#31,.PLANEANGLEUNIT.,'DEGREE',#30);
#33= IFCSIUNIT(*,.SOLIDANGLEUNIT.,$,.STERADIAN.);
#34= IFCSIUNIT(*,.THERMODYNAMICTEMPERATUREUNIT.,$,.DEGREE_CELSIUS.);
#35= IFCSIUNIT(*,.LUMINOUSINTENSITYUNIT.,$,.LUMEN.);
#36= IFCUNITASSIGNMENT((#15,#19,#23,#27,#28,#29,#33,#34,#35));
#37= IFCPROJECT('2G7ZFDNE16yBDU14FA92Me',#5,'Proyecto',$,$,$,$,(#11),#36);
#38= IFCLOCALPLACEMENT($,#10);
#39= IFCSITE('2xvEzEinjBTea80yOTcujY',#5,'Obra',$,$,#38,$,$,.ELEMENT.,$,$,$,$,$);
#40= IFCLOCALPLACEMENT(#38,#10);
#41= IFCBUILDING('1Q6HoDf7H8MQwVe2XlGJVv',#5,'Undefined',$,$,#40,$,$,.ELEMENT.,$,$,$);
#42= IFCLOCALPLACEMENT(#40,#10);
#43= IFCBUILDINGSTOREY('29hdEUCErFze9E_VIAceOd',#5,'Undefined',$,$,#42,$,$,.ELEMENT.,0.);
#44= IFCOWNERHISTORY(#3,#4,$,.NOCHANGE.,$,$,$,1773849600);
#45= IFCCARTESIANPOINT((51215.9001464844,1573.29879001883,23380.));
#46= IFCDIRECTION((0.999993169702149,0.00369601799889915,0.));
#47= IFCAXIS2PLACEMENT3D(#45,#9,#46);
#48= IFCLOCALPLACEMENT(#42,#47);
#49= IFCDIRECTION((1.,0.));
#50= IFCCARTESIANPOINT((0.,0.));
#51= IFCAXIS2PLACEMENT2D(#50,#49);
#52= IFCISHAPEPROFILEDEF(.AREA.,'HEA450',#51,300.,440.,11.5,21.,27.);
#53= IFCDIRECTION((0.,-1.,0.));
#54= IFCDIRECTION((-1.,0.,0.));
#55= IFCCARTESIANPOINT((8147.7751240407,0.,0.));
#56= IFCAXIS2PLACEMENT3D(#55,#54,#53);
#57= IFCEXTRUDEDAREASOLID(#52,#56,#9,8141.89);
#58= IFCDIRECTION((-0.999993169702149,0.0036960179989037,0.));
#59= IFCCARTESIANPOINT((8146.6553595455,0.0369601799889097,-320.));
#60= IFCDIRECTION((0.0036960179989037,0.999993169702149,0.));
#61= IFCAXIS2PLACEMENT3D(#59,#58,#60);
#62= IFCPLANE(#61);
#63= IFCHALFSPACESOLID(#62,.T.);
#64= IFCBOOLEANCLIPPINGRESULT(.DIFFERENCE.,#57,#63);
#65= IFCDIRECTION((0.99999316970215,-0.00369601799889642,0.));
#66= IFCCARTESIANPOINT((7.11251166431612,30.1466000744838,-325.));
#67= IFCDIRECTION((-0.00369601799889642,-0.999993169702149,0.));
#68= IFCAXIS2PLACEMENT3D(#66,#65,#67);
#69= IFCPLANE(#68);
#70= IFCHALFSPACESOLID(#69,.T.);
#71= IFCBOOLEANCLIPPINGRESULT(.DIFFERENCE.,#64,#70);
#72= IFCSHAPEREPRESENTATION(#12,'Body','Clipping',(#71));
#73= IFCPRODUCTDEFINITIONSHAPE($,$,(#72));
#74= IFCBEAM('1x0f9jFWf5YOlumVBV9$8k',#44,'BEAM','HEA450','HEA450',#48,#73,'ID7b02926d-3e0a-4589-8bf8-c1f2df27f22e');
#75= IFCLOCALPLACEMENT(#42,#47);
#76= IFCRECTANGLEPROFILEDEF(.AREA.,'PL162.8*12',#51,12.,162.8);
#77= IFCDIRECTION((0.,0.,-1.));
#78= IFCCARTESIANPOINT((-8.5404144068234,99.7168734145387,221.));
#79= IFCAXIS2PLACEMENT3D(#78,#77,#65);
#80= IFCEXTRUDEDAREASOLID(#76,#79,#9,442.);
#81= IFCSHAPEREPRESENTATION(#12,'Body','SweptSolid',(#80));
#82= IFCPRODUCTDEFINITIONSHAPE($,$,(#81));
#83= IFCOPENINGELEMENT('0Ql3ADhUzFZvvKFF5G_DcO',#5,$,$,'Recess',#75,#82,$);
#84= IFCRELVOIDSELEMENT('2acv1Jg055zQu8uOSRkJPo',#5,$,$,#74,#83);
#85= IFCPROPERTYSINGLEVALUE('FeatureSubTypes',$,$,$);
#86= IFCPROPERTYSINGLEVALUE('RectangleOpeningWidth',$,IFCPOSITIVELENGTHMEASURE(12.),$);
#87= IFCPROPERTYSINGLEVALUE('RectangleOpeningHeight',$,IFCPOSITIVELENGTHMEASURE(162.8),$);
#88= IFCPROPERTYSINGLEVALUE('OpeningDiameter',$,$,$);
#89= IFCPROPERTYSET('1Vyk1szPnFThqQeYJmJ29I',#5,'AISC_EM11_Pset_Opening/Cope',$,(#85,#86,#87,#88));
#90= IFCLOCALPLACEMENT(#42,#47);
#91= IFCRECTANGLEPROFILEDEF(.AREA.,'PL163.2*12',#51,12.,163.2);
#92= IFCCARTESIANPOINT((-9.05416829725436,-39.2841762264554,221.));
#93= IFCAXIS2PLACEMENT3D(#92,#77,#65);
#94= IFCEXTRUDEDAREASOLID(#91,#93,#9,442.);
#95= IFCSHAPEREPRESENTATION(#12,'Body','SweptSolid',(#94));
#96= IFCPRODUCTDEFINITIONSHAPE($,$,(#95));
#97= IFCOPENINGELEMENT('2W1xmCcO1EF9WV5hyhwwYv',#5,$,$,'Recess',#90,#96,$);
#98= IFCRELVOIDSELEMENT('3TyT7nGiDBpuvkwJU3J$eg',#5,$,$,#74,#97);
#99= IFCPROPERTYSINGLEVALUE('RectangleOpeningHeight',$,IFCPOSITIVELENGTHMEASURE(163.2),$);
#100= IFCPROPERTYSET('3pfUD5lRrD0wbOEvCmMn4M',#5,'AISC_EM11_Pset_Opening/Cope',$,(#85,#86,#99,#88));
#101= IFCLOCALPLACEMENT(#42,#47);
#102= IFCRECTANGLEPROFILEDEF(.AREA.,'PL108*12.1',#51,12.1,108.);
#103= IFCCARTESIANPOINT((-8.6785854436821,73.3345190268906,226.));
#104= IFCAXIS2PLACEMENT3D(#103,#77,#65);
#105= IFCEXTRUDEDAREASOLID(#102,#104,#9,452.);
#106= IFCSHAPEREPRESENTATION(#12,'Body','SweptSolid',(#105));
#107= IFCPRODUCTDEFINITIONSHAPE($,$,(#106));
#108= IFCOPENINGELEMENT('1V_HV_bWv8MhtOMttX_Z6l',#5,$,$,'Recess',#101,#107,$);
#109= IFCRELVOIDSELEMENT('1bzwyXc_9DXh5lu4Ci2_HO',#5,$,$,#74,#108);
#110= IFCPROPERTYSINGLEVALUE('RectangleOpeningWidth',$,IFCPOSITIVELENGTHMEASURE(12.1),$);
#111= IFCPROPERTYSINGLEVALUE('RectangleOpeningHeight',$,IFCPOSITIVELENGTHMEASURE(108.),$);
#112= IFCPROPERTYSET('0PQiM1Thv5cvdIaoUR4tz1',#5,'AISC_EM11_Pset_Opening/Cope',$,(#85,#110,#111,#88));
#113= IFCLOCALPLACEMENT(#42,#47);
#114= IFCRECTANGLEPROFILEDEF(.AREA.,'PL109.1*12.1',#51,12.1,109.1);
#115= IFCCARTESIANPOINT((-8.991129691487,-11.2273291919118,226.));
#116= IFCAXIS2PLACEMENT3D(#115,#77,#65);
#117= IFCEXTRUDEDAREASOLID(#114,#116,#9,452.);
#118= IFCSHAPEREPRESENTATION(#12,'Body','SweptSolid',(#117));
#119= IFCPRODUCTDEFINITIONSHAPE($,$,(#118));
#120= IFCOPENINGELEMENT('1OIgZoJlX5oB1DWJJm20Fz',#5,$,$,'Recess',#113,#119,$);
#121= IFCRELVOIDSELEMENT('1j4W1$At9F9BmWJOuSM1J7',#5,$,$,#74,#120);
#122= IFCPROPERTYSINGLEVALUE('RectangleOpeningHeight',$,IFCPOSITIVELENGTHMEASURE(109.1),$);
#123= IFCPROPERTYSET('0GCOnIJz1AtxLPn9Yx4Xtf',#5,'AISC_EM11_Pset_Opening/Cope',$,(#85,#110,#122,#88));
#124= IFCCARTESIANPOINT((59319.9997253405,1603.41821446168,23150.));
#125= IFCDIRECTION((0.000959589999612945,0.99999953959341,0.));
#126= IFCDIRECTION((-0.99999953959341,0.000959589999609728,0.));
#127= IFCAXIS2PLACEMENT3D(#124,#125,#126);
#128= IFCLOCALPLACEMENT(#42,#127);
#129= IFCCIRCLEPROFILEDEF(.AREA.,$,#51,12.5);
#130= IFCCARTESIANPOINT((0.,9.9,0.));
#131= IFCAXIS2PLACEMENT3D(#130,#8,#7);
#132= IFCEXTRUDEDAREASOLID(#129,#131,#9,21.2);
#133= IFCSHAPEREPRESENTATION(#12,'Body','SweptSolid',(#132));
#134= IFCREPRESENTATIONMAP(#10,#133);
#135= IFCCARTESIANPOINT((-3.71073838323355E-10,0.,74.9999999999864));
#136= IFCCARTESIANTRANSFORMATIONOPERATOR3D($,$,#135,$,$);
#137= IFCMAPPEDITEM(#134,#136);
#138= IFCCARTESIANPOINT((74.9999999994034,0.,75.0000000003274));
#139= IFCCARTESIANTRANSFORMATIONOPERATOR3D($,$,#138,$,$);
#140= IFCMAPPEDITEM(#134,#139);
#141= IFCCARTESIANPOINT((149.999999999185,0.,75.0000000006685));
#142= IFCCARTESIANTRANSFORMATIONOPERATOR3D($,$,#141,$,$);
#143= IFCMAPPEDITEM(#134,#142);
#144= IFCCARTESIANPOINT((224.999999998967,0.,75.0000000010098));
#145= IFCCARTESIANTRANSFORMATIONOPERATOR3D($,$,#144,$,$);
#146= IFCMAPPEDITEM(#134,#145);
#147= IFCCARTESIANPOINT((299.999999998749,0.,75.0000000013508));
#148= IFCCARTESIANTRANSFORMATIONOPERATOR3D($,$,#147,$,$);
#149= IFCMAPPEDITEM(#134,#148);
#150= IFCCARTESIANPOINT((374.999999998538,0.,75.0000000016921));
#151= IFCCARTESIANTRANSFORMATIONOPERATOR3D($,$,#150,$,$);
#152= IFCMAPPEDITEM(#134,#151);
#153= IFCCARTESIANPOINT((449.999999998312,0.,75.0000000020332));
#154= IFCCARTESIANTRANSFORMATIONOPERATOR3D($,$,#153,$,$);
#155= IFCMAPPEDITEM(#134,#154);
#156= IFCCARTESIANPOINT((524.999999998094,0.,75.0000000023745));
#157= IFCCARTESIANTRANSFORMATIONOPERATOR3D($,$,#156,$,$);
#158= IFCMAPPEDITEM(#134,#157);
#159= IFCCARTESIANPOINT((599.999999997875,0.,75.0000000027155));
#160= IFCCARTESIANTRANSFORMATIONOPERATOR3D($,$,#159,$,$);
#161= IFCMAPPEDITEM(#134,#160);
#162= IFCCARTESIANPOINT((674.999999997657,0.,75.0000000030566));
#163= IFCCARTESIANTRANSFORMATIONOPERATOR3D($,$,#162,$,$);
#164= IFCMAPPEDITEM(#134,#163);
#165= IFCCARTESIANPOINT((3.78349795937538E-10,0.,-74.9999999999866));
#166= IFCCARTESIANTRANSFORMATIONOPERATOR3D($,$,#165,$,$);
#167= IFCMAPPEDITEM(#134,#166);
#168= IFCCARTESIANPOINT((75.0000000001601,0.,-74.9999999996453));
#169= IFCCARTESIANTRANSFORMATIONOPERATOR3D($,$,#168,$,$);
#170= IFCMAPPEDITEM(#134,#169);
#171= IFCCARTESIANPOINT((149.999999999935,0.,-74.9999999993042));
#172= IFCCARTESIANTRANSFORMATIONOPERATOR3D($,$,#171,$,$);
#173= IFCMAPPEDITEM(#134,#172);
#174= IFCCARTESIANPOINT((224.999999999716,0.,-74.9999999989632));
#175= IFCCARTESIANTRANSFORMATIONOPERATOR3D($,$,#174,$,$);
#176= IFCMAPPEDITEM(#134,#175);
#177= IFCCARTESIANPOINT((299.999999999498,0.,-74.9999999986219));
#178= IFCCARTESIANTRANSFORMATIONOPERATOR3D($,$,#177,$,$);
#179= IFCMAPPEDITEM(#134,#178);
#180= IFCCARTESIANPOINT((374.99999999928,0.,-74.9999999982808));
#181= IFCCARTESIANTRANSFORMATIONOPERATOR3D($,$,#180,$,$);
#182= IFCMAPPEDITEM(#134,#181);
#183= IFCCARTESIANPOINT((449.999999999069,0.,-74.9999999979395));
#184= IFCCARTESIANTRANSFORMATIONOPERATOR3D($,$,#183,$,$);
#185= IFCMAPPEDITEM(#134,#184);
#186= IFCCARTESIANPOINT((524.999999998843,0.,-74.9999999975985));
#187= IFCCARTESIANTRANSFORMATIONOPERATOR3D($,$,#186,$,$);
#188= IFCMAPPEDITEM(#134,#187);
#189= IFCCARTESIANPOINT((599.999999998625,0.,-74.9999999972574));
#190= IFCCARTESIANTRANSFORMATIONOPERATOR3D($,$,#189,$,$);
#191= IFCMAPPEDITEM(#134,#190);
#192= IFCCARTESIANPOINT((674.999999998407,0.,-74.9999999969161));
#193= IFCCARTESIANTRANSFORMATIONOPERATOR3D($,$,#192,$,$);
#194= IFCMAPPEDITEM(#134,#193);
#195= IFCSHAPEREPRESENTATION(#12,'Body','MappedRepresentation',(#137,#140,#143,#146,#149,#152,#155,#158,#161,#164,#167,#170,#173,#176,#179,#182,#185,#188,#191,#194));
#196= IFCPRODUCTDEFINITIONSHAPE($,$,(#195));
#197= IFCOPENINGELEMENT('1wwbfcEPH01uRy4exald3q',#5,$,$,'Opening',#128,#196,$);
#198= IFCRELVOIDSELEMENT('1aqnKMaLf0cADWZ0687tY1',#5,'Drill Hole',$,#74,#197);
#199= IFCPROPERTYSINGLEVALUE('FeatureSubTypes',$,IFCLABEL('TORNILLO'),$);
#200= IFCPROPERTYSINGLEVALUE('RectangleOpeningWidth',$,$,$);
#201= IFCPROPERTYSINGLEVALUE('RectangleOpeningHeight',$,$,$);
#202= IFCPROPERTYSET('3tzN4t_J93AOz1gI8z$HPZ',#5,'AISC_EM11_Pset_Opening/Cope',$,(#199,#200,#201,#88));
#203= IFCCARTESIANPOINT((59319.9997253405,1603.41821446168,23600.));
#204= IFCDIRECTION((-0.000959589999612945,-0.99999953959341,0.));
#205= IFCAXIS2PLACEMENT3D(#203,#204,#126);
#206= IFCLOCALPLACEMENT(#42,#205);
#207= IFCCARTESIANPOINT((0.,-0.1,0.));
#208= IFCAXIS2PLACEMENT3D(#207,#8,#7);
#209= IFCEXTRUDEDAREASOLID(#129,#208,#9,21.2);
#210= IFCSHAPEREPRESENTATION(#12,'Body','SweptSolid',(#209));
#211= IFCREPRESENTATIONMAP(#10,#210);
#212= IFCMAPPEDITEM(#211,#166);
#213= IFCMAPPEDITEM(#211,#169);
#214= IFCMAPPEDITEM(#211,#172);
#215= IFCMAPPEDITEM(#211,#175);
#216= IFCMAPPEDITEM(#211,#178);
#217= IFCMAPPEDITEM(#211,#181);
#218= IFCMAPPEDITEM(#211,#184);
#219= IFCMAPPEDITEM(#211,#187);
#220= IFCMAPPEDITEM(#211,#190);
#221= IFCMAPPEDITEM(#211,#193);
#222= IFCMAPPEDITEM(#211,#136);
#223= IFCMAPPEDITEM(#211,#139);
#224= IFCMAPPEDITEM(#211,#142);
#225= IFCMAPPEDITEM(#211,#145);
#226= IFCMAPPEDITEM(#211,#148);
#227= IFCMAPPEDITEM(#211,#151);
#228= IFCMAPPEDITEM(#211,#154);
#229= IFCMAPPEDITEM(#211,#157);
#230= IFCMAPPEDITEM(#211,#160);
#231= IFCMAPPEDITEM(#211,#163);
#232= IFCSHAPEREPRESENTATION(#12,'Body','MappedRepresentation',(#212,#213,#214,#215,#216,#217,#218,#219,#220,#221,#222,#223,#224,#225,#226,#227,#228,#229,#230,#231));
#233= IFCPRODUCTDEFINITIONSHAPE($,$,(#232));
#234= IFCOPENINGELEMENT('1mybRcnzr0B8dlClXO7m4r',#5,$,$,'Opening',#206,#233,$);
#235= IFCRELVOIDSELEMENT('0OykFoQTf92u2oey8ADEd3',#5,'Drill Hole',$,#74,#234);
#236= IFCCARTESIANPOINT((59364.9997253418,1603.38125402925,23600.));
#237= IFCAXIS2PLACEMENT3D(#236,#54,#77);
#238= IFCLOCALPLACEMENT(#42,#237);
#239= IFCCIRCLEPROFILEDEF(.AREA.,$,#51,11.5);
#240= IFCCARTESIANPOINT((0.,-5.73915797716147,0.));
#241= IFCAXIS2PLACEMENT3D(#240,#8,#7);
#242= IFCEXTRUDEDAREASOLID(#239,#241,#9,11.7);
#243= IFCSHAPEREPRESENTATION(#12,'Body','SweptSolid',(#242));
#244= IFCREPRESENTATIONMAP(#10,#243);
#245= IFCCARTESIANPOINT((80.,0.,40.));
#246= IFCCARTESIANTRANSFORMATIONOPERATOR3D($,$,#245,$,$);
#247= IFCMAPPEDITEM(#244,#246);
#248= IFCCARTESIANPOINT((150.,0.,40.));
#249= IFCCARTESIANTRANSFORMATIONOPERATOR3D($,$,#248,$,$);
#250= IFCMAPPEDITEM(#244,#249);
#251= IFCCARTESIANPOINT((220.,0.,40.));
#252= IFCCARTESIANTRANSFORMATIONOPERATOR3D($,$,#251,$,$);
#253= IFCMAPPEDITEM(#244,#252);
#254= IFCCARTESIANPOINT((290.,0.,40.));
#255= IFCCARTESIANTRANSFORMATIONOPERATOR3D($,$,#254,$,$);
#256= IFCMAPPEDITEM(#244,#255);
#257= IFCCARTESIANPOINT((360.,0.,40.));
#258= IFCCARTESIANTRANSFORMATIONOPERATOR3D($,$,#257,$,$);
#259= IFCMAPPEDITEM(#244,#258);
#260= IFCSHAPEREPRESENTATION(#12,'Body','MappedRepresentation',(#247,#250,#253,#256,#259));
#261= IFCPRODUCTDEFINITIONSHAPE($,$,(#260));
#262= IFCOPENINGELEMENT('1tg7A0nLz0rf4G9cNwloY2',#5,$,$,'Opening',#238,#261,$);
#263= IFCRELVOIDSELEMENT('0xEER6RbnFee$wvQwzVcZU',#5,'Drill Hole',$,#74,#262);
#264= IFCCARTESIANPOINT((51267.9824510498,1603.95503479072,23160.));
#265= IFCAXIS2PLACEMENT3D(#264,#53,#7);
#266= IFCLOCALPLACEMENT(#42,#265);
#267= IFCEXTRUDEDAREASOLID(#239,#208,#9,21.2);
#268= IFCSHAPEREPRESENTATION(#12,'Body','SweptSolid',(#267));
#269= IFCREPRESENTATIONMAP(#10,#268);
#270= IFCMAPPEDITEM(#269,#136);
#271= IFCMAPPEDITEM(#269,#139);
#272= IFCMAPPEDITEM(#269,#142);
#273= IFCMAPPEDITEM(#269,#145);
#274= IFCMAPPEDITEM(#269,#148);
#275= IFCMAPPEDITEM(#269,#151);
#276= IFCMAPPEDITEM(#269,#154);
#277= IFCMAPPEDITEM(#269,#157);
#278= IFCMAPPEDITEM(#269,#160);
#279= IFCMAPPEDITEM(#269,#163);
#280= IFCMAPPEDITEM(#269,#166);
#281= IFCMAPPEDITEM(#269,#169);
#282= IFCMAPPEDITEM(#269,#172);
#283= IFCMAPPEDITEM(#269,#175);
#284= IFCMAPPEDITEM(#269,#178);
#285= IFCMAPPEDITEM(#269,#181);
#286= IFCMAPPEDITEM(#269,#184);
#287= IFCMAPPEDITEM(#269,#187);
#288= IFCMAPPEDITEM(#269,#190);
#289= IFCMAPPEDITEM(#269,#193);
#290= IFCSHAPEREPRESENTATION(#12,'Body','MappedRepresentation',(#270,#271,#272,#273,#274,#275,#276,#277,#278,#279,#280,#281,#282,#283,#284,#285,#286,#287,#288,#289));
#291= IFCPRODUCTDEFINITIONSHAPE($,$,(#290));
#292= IFCOPENINGELEMENT('0$4Xx_Yo1BNwP$qRqbkiec',#5,$,$,'Opening',#266,#291,$);
#293= IFCRELVOIDSELEMENT('0$y1NWItD5NO9nGJ_mirXt',#5,'Drill Hole',$,#74,#292);
#294= IFCCARTESIANPOINT((51267.9824510498,1603.95503479072,23600.));
#295= IFCAXIS2PLACEMENT3D(#294,#8,#7);
#296= IFCLOCALPLACEMENT(#42,#295);
#297= IFCSHAPEREPRESENTATION(#12,'Body','MappedRepresentation',(#280,#281,#282,#283,#284,#285,#286,#287,#288,#289,#270,#271,#272,#273,#274,#275,#276,#277,#278,#279));
#298= IFCPRODUCTDEFINITIONSHAPE($,$,(#297));
#299= IFCOPENINGELEMENT('3FXXkRzBT1DhwnfaTmcapC',#5,$,$,'Opening',#296,#298,$);
#300= IFCRELVOIDSELEMENT('1CEfsicJ17PgcvTdBMtSjm',#5,'Drill Hole',$,#74,#299);
#301= IFCCARTESIANPOINT((51222.9824701044,1603.38126918421,23600.));
#302= IFCAXIS2PLACEMENT3D(#301,#7,#77);
#303= IFCLOCALPLACEMENT(#42,#302);
#304= IFCCARTESIANPOINT((0.,-35.7400199195085,0.));
#305= IFCAXIS2PLACEMENT3D(#304,#8,#7);
#306= IFCEXTRUDEDAREASOLID(#129,#305,#9,11.7);
#307= IFCSHAPEREPRESENTATION(#12,'Body','SweptSolid',(#306));
#308= IFCREPRESENTATIONMAP(#10,#307);
#309= IFCCARTESIANPOINT((107.5,0.,45.));
#310= IFCCARTESIANTRANSFORMATIONOPERATOR3D($,$,#309,$,$);
#311= IFCMAPPEDITEM(#308,#310);
#312= IFCCARTESIANPOINT((182.5,0.,45.));
#313= IFCCARTESIANTRANSFORMATIONOPERATOR3D($,$,#312,$,$);
#314= IFCMAPPEDITEM(#308,#313);
#315= IFCCARTESIANPOINT((257.5,0.,45.));
#316= IFCCARTESIANTRANSFORMATIONOPERATOR3D($,$,#315,$,$);
#317= IFCMAPPEDITEM(#308,#316);
#318= IFCCARTESIANPOINT((332.5,0.,45.));
#319= IFCCARTESIANTRANSFORMATIONOPERATOR3D($,$,#318,$,$);
#320= IFCMAPPEDITEM(#308,#319);
#321= IFCSHAPEREPRESENTATION(#12,'Body','MappedRepresentation',(#311,#314,#317,#320));
#322= IFCPRODUCTDEFINITIONSHAPE($,$,(#321));
#323= IFCOPENINGELEMENT('1kITw_v41FHBx5CazPbeeJ',#5,$,$,'Opening',#303,#322,$);
#324= IFCRELVOIDSELEMENT('3SYT0J54nE0hE55g1qaXFo',#5,'Drill Hole',$,#74,#323);
#325= IFCPROPERTYSINGLEVALUE('PieceMark',$,IFCIDENTIFIER('BEAM'),$);
#326= IFCPROPERTYSINGLEVALUE('IndicationMark',$,IFCIDENTIFIER('b/278'),$);
#327= IFCPROPERTYSINGLEVALUE('PrelimMark',$,IFCIDENTIFIER(''),$);
#328= IFCPROPERTYSINGLEVALUE('MainPieceTag',$,IFCBOOLEAN(.F.),$);
#329= IFCPROPERTYSET('2vNxMl6mL4i9S0tG88gAoZ',#5,'AISC_EM11_Pset_PieceIdentification','PieceIdentity',(#325,#326,#327,#328));
#330= IFCPROPERTYSINGLEVALUE('MaterialType',$,IFCIDENTIFIER('STEEL'),$);
#331= IFCPROPERTYSINGLEVALUE('MaterialGrade',$,IFCIDENTIFIER('S235JR'),$);
#332= IFCPROPERTYSET('2VfzShc5j8n8Ca7Y4KkSqy',#5,'AISC_EM11_Pset_Material',$,(#330,#331));
#333= IFCPROPERTYSINGLEVALUE('SkewedAngleY',$,IFCREAL(0.),$);
#334= IFCPROPERTYSINGLEVALUE('SkewedAngleX',$,IFCREAL(0.21177),$);
#335= IFCPROPERTYSET('0IviJeuD1CzOjvFN5M6hSv',#5,'AISC_EM11_Pset_SkewedEnd',$,(#333,#334));
#336= IFCPROPERTYSET('004fxwbwrBQgBSD9VwUWhq',#5,'AISC_EM11_Pset_SkewedEnd_2',$,(#333,#334));
#337= IFCMATERIAL('STEEL/S235JR');
#338= IFCRELAGGREGATES('0vGnGCSmv2WfGj$K1PxRFn',#5,$,$,#37,(#39));
#339= IFCRELAGGREGATES('2BY3YUk2BKoxY$HcJhDjX3',#5,$,$,#39,(#41));
#340= IFCRELAGGREGATES('2h8LPYjBz2SvNBoifSZjmw',#5,$,$,#41,(#43));
#341= IFCRELCONTAINEDINSPATIALSTRUCTURE('1HFMSlzYfCuwdvAyYzoIup',#5,$,$,(#74),#43);
#342= IFCRELDEFINESBYPROPERTIES('3zccM2jLzAWuAw_s4Ye27Q',#5,$,$,(#83),#89);
#343= IFCRELDEFINESBYPROPERTIES('0gXJ3ve2f0N8WxwEzAWF9I',#5,$,$,(#97),#100);
#344= IFCRELDEFINESBYPROPERTIES('2bJmquSkP6lhjYHp2iiSli',#5,$,$,(#108),#112);
#345= IFCRELDEFINESBYPROPERTIES('2TI8hJQeP08hCTOaBMXIw8',#5,$,$,(#120),#123);
#346= IFCRELDEFINESBYPROPERTIES('16io5UqJHA1RphTWvMRGHa',#5,$,$,(#323,#299,#292,#262,#234,#197),#202);
#347= IFCRELDEFINESBYPROPERTIES('2q45Z638L9IhOPyMsyFGdv',#5,$,$,(#74),#329);
#348= IFCRELDEFINESBYPROPERTIES('0fTUTQ_mjF7PAE$HXxylcp',#5,$,$,(#74),#332);
#349= IFCRELDEFINESBYPROPERTIES('1wJqyO0FDBqxUUf3zU6RPg',#5,$,$,(#74),#335);
#350= IFCRELDEFINESBYPROPERTIES('0DMN2tD8LDXhoGzceHfotr',#5,$,$,(#74),#336);
#351= IFCRELASSOCIATESMATERIAL('2zR1TuVCH7qhdvv6RVlNIx',#5,$,$,(#74),#337);
ENDSEC;

END-ISO-10303-21;
