ISO-10303-21;
HEADER;
FILE_DESCRIPTION(('ViewDefinition[AISC_Steel_Detailing]', 'Option [BaseQuantities:Off]', 'Option [GridExport:On]', 'Option [Assemblies:Off]', 'Option [Bolts:On]', 'Option [Rebars:On]', 'Option [PourObjects:Off]', 'Option [Welds:On]', 'Option [SurfaceTreatments:On]', 'Option [LocationBy:0]', 'Option [ViewColors:Off]', 'Option [SectionedSpine:Off]', 'Option [PropertySets:On]', 'Option [Export all:Off]'),'2;1');
FILE_NAME('b_277_Qty_1.ifc','2026-05-16T11:53:12',('GIOVANNIPC\\gcorrea'),('Structural Designer'),'IFC Database version: Work','Tekla Structures 2020 Service Pack 5, IFC Export Version: 4.0.0.0 Dec  7 2020','');
FILE_SCHEMA(('IFC2X3'));
ENDSEC;

DATA;
#1= IFCPERSON('GIOVANNIPC\\gcorrea','Undefined',$,$,$,$,$,$);
#2= IFCORGANIZATION($,'Trimble Solutions Corporation',$,$,$);
#3= IFCPERSONANDORGANIZATION(#1,#2,$);
#4= IFCAPPLICATION(#2,'2020 Service Pack 5','Tekla Structures','Multi material modeling');
#5= IFCOWNERHISTORY(#3,#4,$,.NOCHANGE.,$,$,$,1778950392);
#6= IFCCARTESIANPOINT((0.,0.,0.));
#7= IFCDIRECTION((1.,0.,0.));
#8= IFCDIRECTION((0.,1.,0.));
#9= IFCDIRECTION((0.,0.,1.));
#10= IFCAXIS2PLACEMENT3D(#6,#9,#7);
#11= IFCGEOMETRICREPRESENTATIONCONTEXT($,'Model',3,1.E-05,#10,$);
#12= IFCGEOMETRICREPRESENTATIONSUBCONTEXT('Body','Model',*,*,*,*,#11,$,.MODEL_VIEW.,$);
#13= IFCGEOMETRICREPRESENTATIONSUBCONTEXT('Axis','Model',*,*,*,*,#11,$,.GRAPH_VIEW.,$);
#14= IFCGEOMETRICREPRESENTATIONSUBCONTEXT('FootPrint','Model',*,*,*,*,#11,$,.MODEL_VIEW.,$);
#15= IFCSIUNIT(*,.LENGTHUNIT.,.MILLI.,.METRE.);
#16= IFCMEASUREWITHUNIT(IFCRATIOMEASURE(304.8),#15);
#17= IFCDIMENSIONALEXPONENTS(1,0,0,0,0,0,0);
#18= IFCCONVERSIONBASEDUNIT(#17,.LENGTHUNIT.,'FOOT',#16);
#19= IFCSIUNIT(*,.AREAUNIT.,$,.SQUARE_METRE.);
#20= IFCMEASUREWITHUNIT(IFCRATIOMEASURE(0.09290304),#19);
#21= IFCDIMENSIONALEXPONENTS(2,0,0,0,0,0,0);
#22= IFCCONVERSIONBASEDUNIT(#21,.AREAUNIT.,'SQUARE FOOT',#20);
#23= IFCSIUNIT(*,.VOLUMEUNIT.,$,.CUBIC_METRE.);
#24= IFCMEASUREWITHUNIT(IFCRATIOMEASURE(0.028316846592),#23);
#25= IFCDIMENSIONALEXPONENTS(3,0,0,0,0,0,0);
#26= IFCCONVERSIONBASEDUNIT(#25,.VOLUMEUNIT.,'CUBIC FOOT',#24);
#27= IFCSIUNIT(*,.MASSUNIT.,.KILO.,.GRAM.);
#28= IFCSIUNIT(*,.TIMEUNIT.,$,.SECOND.);
#29= IFCSIUNIT(*,.PLANEANGLEUNIT.,$,.RADIAN.);
#30= IFCMEASUREWITHUNIT(IFCRATIOMEASURE(0.0174532925199433),#29);
#31= IFCDIMENSIONALEXPONENTS(0,0,0,0,0,0,0);
#32= IFCCONVERSIONBASEDUNIT(#31,.PLANEANGLEUNIT.,'DEGREE',#30);
#33= IFCSIUNIT(*,.SOLIDANGLEUNIT.,$,.STERADIAN.);
#34= IFCSIUNIT(*,.THERMODYNAMICTEMPERATUREUNIT.,$,.DEGREE_CELSIUS.);
#35= IFCSIUNIT(*,.LUMINOUSINTENSITYUNIT.,$,.LUMEN.);
#36= IFCUNITASSIGNMENT((#15,#19,#23,#27,#28,#29,#33,#34,#35));
#37= IFCPROJECT('2G7ZFDNE16yBDU14FA92Me',#5,'Proyecto',$,$,$,$,(#11),#36);
#38= IFCLOCALPLACEMENT($,#10);
#39= IFCSITE('2xvEzEinjBTea80yOTcujY',#5,'Obra',$,$,#38,$,$,.ELEMENT.,$,$,$,$,$);
#40= IFCLOCALPLACEMENT(#38,#10);
#41= IFCBUILDING('3pxY6fjVD9Y8Q2Y_7_s3Oh',#5,'Undefined',$,$,#40,$,$,.ELEMENT.,$,$,$);
#42= IFCLOCALPLACEMENT(#40,#10);
#43= IFCBUILDINGSTOREY('29hdEUCErFze9E_VIAceOd',#5,'Undefined',$,$,#42,$,$,.ELEMENT.,0.);
#44= IFCOWNERHISTORY(#3,#4,$,.NOCHANGE.,$,$,$,1773842400);
#45= IFCCARTESIANPOINT((42607.7000732422,1603.38125423697,23380.));
#46= IFCAXIS2PLACEMENT3D(#45,#9,#7);
#47= IFCLOCALPLACEMENT(#42,#46);
#48= IFCDIRECTION((1.,0.));
#49= IFCCARTESIANPOINT((0.,0.));
#50= IFCAXIS2PLACEMENT2D(#49,#48);
#51= IFCISHAPEPROFILEDEF(.AREA.,'HEA450',#50,300.,440.,11.5,21.,27.);
#52= IFCDIRECTION((0.,-1.,0.));
#53= IFCDIRECTION((-1.,0.,0.));
#54= IFCCARTESIANPOINT((8169.29992675781,0.,0.));
#55= IFCAXIS2PLACEMENT3D(#54,#53,#52);
#56= IFCEXTRUDEDAREASOLID(#51,#55,#9,8169.3);
#57= IFCCARTESIANPOINT((8169.29992675781,1.21965348500999,-325.));
#58= IFCAXIS2PLACEMENT3D(#57,#53,#8);
#59= IFCPLANE(#58);
#60= IFCHALFSPACESOLID(#59,.T.);
#61= IFCBOOLEANCLIPPINGRESULT(.DIFFERENCE.,#56,#60);
#62= IFCSHAPEREPRESENTATION(#12,'Body','Clipping',(#61));
#63= IFCPRODUCTDEFINITIONSHAPE($,$,(#62));
#64= IFCBEAM('1DeeF9zzz5EAg0lBx69DIu',#44,'BEAM','HEA450','HEA450',#47,#63,'ID4da283c9-f7df-4538-aa80-bcbec624d4b8');
#65= IFCLOCALPLACEMENT(#42,#46);
#66= IFCRECTANGLEPROFILEDEF(.AREA.,'PL163.2*12',#50,12.,163.2);
#67= IFCDIRECTION((0.,0.,-1.));
#68= IFCCARTESIANPOINT((8185.30869050909,-69.399829864502,221.));
#69= IFCAXIS2PLACEMENT3D(#68,#67,#53);
#70= IFCEXTRUDEDAREASOLID(#66,#69,#9,442.);
#71= IFCSHAPEREPRESENTATION(#12,'Body','SweptSolid',(#70));
#72= IFCPRODUCTDEFINITIONSHAPE($,$,(#71));
#73= IFCOPENINGELEMENT('0DumP6YYz8z8ePmIqYa93H',#5,$,$,'Recess',#65,#72,$);
#74= IFCRELVOIDSELEMENT('3Nd4HzndfCvxe7sdIr$kDG',#5,$,$,#64,#73);
#75= IFCPROPERTYSINGLEVALUE('FeatureSubTypes',$,$,$);
#76= IFCPROPERTYSINGLEVALUE('RectangleOpeningWidth',$,IFCPOSITIVELENGTHMEASURE(12.),$);
#77= IFCPROPERTYSINGLEVALUE('RectangleOpeningHeight',$,IFCPOSITIVELENGTHMEASURE(163.2),$);
#78= IFCPROPERTYSINGLEVALUE('OpeningDiameter',$,$,$);
#79= IFCPROPERTYSET('1$98cpLLjFcvXEKFXBsnsh',#5,'AISC_EM11_Pset_Opening/Cope',$,(#75,#76,#77,#78));
#80= IFCLOCALPLACEMENT(#42,#46);
#81= IFCRECTANGLEPROFILEDEF(.AREA.,'PL162.8*12',#50,12.,162.8);
#82= IFCCARTESIANPOINT((8185.30869050909,69.600170135498,221.));
#83= IFCAXIS2PLACEMENT3D(#82,#67,#53);
#84= IFCEXTRUDEDAREASOLID(#81,#83,#9,442.);
#85= IFCSHAPEREPRESENTATION(#12,'Body','SweptSolid',(#84));
#86= IFCPRODUCTDEFINITIONSHAPE($,$,(#85));
#87= IFCOPENINGELEMENT('3vdlexMjr5TvTtZCzM11mc',#5,$,$,'Recess',#80,#86,$);
#88= IFCRELVOIDSELEMENT('1cB_bDPJHACOdOjqDB4qI2',#5,$,$,#64,#87);
#89= IFCPROPERTYSINGLEVALUE('RectangleOpeningHeight',$,IFCPOSITIVELENGTHMEASURE(162.8),$);
#90= IFCPROPERTYSET('3TEUeICST0QvKtjJT0PQi2',#5,'AISC_EM11_Pset_Opening/Cope',$,(#75,#76,#89,#78));
#91= IFCLOCALPLACEMENT(#42,#46);
#92= IFCRECTANGLEPROFILEDEF(.AREA.,'PL108*12',#50,12.,108.);
#93= IFCCARTESIANPOINT((8185.29992675781,-40.78034651499,226.));
#94= IFCAXIS2PLACEMENT3D(#93,#67,#53);
#95= IFCEXTRUDEDAREASOLID(#92,#94,#9,452.);
#96= IFCSHAPEREPRESENTATION(#12,'Body','SweptSolid',(#95));
#97= IFCPRODUCTDEFINITIONSHAPE($,$,(#96));
#98= IFCOPENINGELEMENT('1ECtFDNJnFKhgEEYDPqijh',#5,$,$,'Recess',#91,#97,$);
#99= IFCRELVOIDSELEMENT('2Xv$W_BtH2VxczOMHk8Qz5',#5,$,$,#64,#98);
#100= IFCPROPERTYSINGLEVALUE('RectangleOpeningHeight',$,IFCPOSITIVELENGTHMEASURE(108.),$);
#101= IFCPROPERTYSET('0TbEh4dPnBqAXeka89Aju1',#5,'AISC_EM11_Pset_Opening/Cope',$,(#75,#76,#100,#78));
#102= IFCLOCALPLACEMENT(#42,#46);
#103= IFCCARTESIANPOINT((8185.29992675781,43.21965348501,226.));
#104= IFCAXIS2PLACEMENT3D(#103,#67,#53);
#105= IFCEXTRUDEDAREASOLID(#92,#104,#9,452.);
#106= IFCSHAPEREPRESENTATION(#12,'Body','SweptSolid',(#105));
#107= IFCPRODUCTDEFINITIONSHAPE($,$,(#106));
#108= IFCOPENINGELEMENT('1gHJqapWf7wvvFok8$YfsJ',#5,$,$,'Recess',#102,#107,$);
#109= IFCRELVOIDSELEMENT('3YK8DQW$f3fuQf5x6wuCtj',#5,$,$,#64,#108);
#110= IFCCARTESIANPOINT((42647.7637441421,1603.38122277425,23160.));
#111= IFCDIRECTION((0.00127341800025897,-0.99999918920297,0.));
#112= IFCDIRECTION((0.99999918920297,0.00127341800025866,0.));
#113= IFCAXIS2PLACEMENT3D(#110,#111,#112);
#114= IFCLOCALPLACEMENT(#42,#113);
#115= IFCCIRCLEPROFILEDEF(.AREA.,$,#50,11.5);
#116= IFCCARTESIANPOINT((0.,-0.1,0.));
#117= IFCAXIS2PLACEMENT3D(#116,#8,#7);
#118= IFCEXTRUDEDAREASOLID(#115,#117,#9,21.2);
#119= IFCSHAPEREPRESENTATION(#12,'Body','SweptSolid',(#118));
#120= IFCREPRESENTATIONMAP(#10,#119);
#121= IFCCARTESIANPOINT((2.61934474110603E-10,0.,50.0000000000014));
#122= IFCCARTESIANTRANSFORMATIONOPERATOR3D($,$,#121,$,$);
#123= IFCMAPPEDITEM(#120,#122);
#124= IFCCARTESIANPOINT((70.0000000003565,0.,49.9999999997149));
#125= IFCCARTESIANTRANSFORMATIONOPERATOR3D($,$,#124,$,$);
#126= IFCMAPPEDITEM(#120,#125);
#127= IFCCARTESIANPOINT((140.000000000458,0.,49.9999999994284));
#128= IFCCARTESIANTRANSFORMATIONOPERATOR3D($,$,#127,$,$);
#129= IFCMAPPEDITEM(#120,#128);
#130= IFCCARTESIANPOINT((210.000000000553,0.,49.9999999991421));
#131= IFCCARTESIANTRANSFORMATIONOPERATOR3D($,$,#130,$,$);
#132= IFCMAPPEDITEM(#120,#131);
#133= IFCCARTESIANPOINT((280.000000000648,0.,49.9999999988556));
#134= IFCCARTESIANTRANSFORMATIONOPERATOR3D($,$,#133,$,$);
#135= IFCMAPPEDITEM(#120,#134);
#136= IFCCARTESIANPOINT((350.000000000749,0.,49.9999999985691));
#137= IFCCARTESIANTRANSFORMATIONOPERATOR3D($,$,#136,$,$);
#138= IFCMAPPEDITEM(#120,#137);
#139= IFCCARTESIANPOINT((420.000000000844,0.,49.9999999982826));
#140= IFCCARTESIANTRANSFORMATIONOPERATOR3D($,$,#139,$,$);
#141= IFCMAPPEDITEM(#120,#140);
#142= IFCCARTESIANPOINT((-2.69210431724787E-10,0.,-50.0000000000016));
#143= IFCCARTESIANTRANSFORMATIONOPERATOR3D($,$,#142,$,$);
#144= IFCMAPPEDITEM(#120,#143);
#145= IFCCARTESIANPOINT((69.9999999998399,0.,-50.0000000002879));
#146= IFCCARTESIANTRANSFORMATIONOPERATOR3D($,$,#145,$,$);
#147= IFCMAPPEDITEM(#120,#146);
#148= IFCCARTESIANPOINT((139.999999999935,0.,-50.0000000005743));
#149= IFCCARTESIANTRANSFORMATIONOPERATOR3D($,$,#148,$,$);
#150= IFCMAPPEDITEM(#120,#149);
#151= IFCCARTESIANPOINT((210.000000000029,0.,-50.0000000008606));
#152= IFCCARTESIANTRANSFORMATIONOPERATOR3D($,$,#151,$,$);
#153= IFCMAPPEDITEM(#120,#152);
#154= IFCCARTESIANPOINT((280.000000000131,0.,-50.0000000011471));
#155= IFCCARTESIANTRANSFORMATIONOPERATOR3D($,$,#154,$,$);
#156= IFCMAPPEDITEM(#120,#155);
#157= IFCCARTESIANPOINT((350.000000000226,0.,-50.0000000014336));
#158= IFCCARTESIANTRANSFORMATIONOPERATOR3D($,$,#157,$,$);
#159= IFCMAPPEDITEM(#120,#158);
#160= IFCCARTESIANPOINT((420.00000000032,0.,-50.0000000017199));
#161= IFCCARTESIANTRANSFORMATIONOPERATOR3D($,$,#160,$,$);
#162= IFCMAPPEDITEM(#120,#161);
#163= IFCSHAPEREPRESENTATION(#12,'Body','MappedRepresentation',(#123,#126,#129,#132,#135,#138,#141,#144,#147,#150,#153,#156,#159,#162));
#164= IFCPRODUCTDEFINITIONSHAPE($,$,(#163));
#165= IFCOPENINGELEMENT('1B1MDqej94F8e09btNFVuK',#5,$,$,'Opening',#114,#164,$);
#166= IFCRELVOIDSELEMENT('1Jh685MNT5xwSkmlOEjf3U',#5,'Drill Hole',$,#64,#165);
#167= IFCPROPERTYSINGLEVALUE('FeatureSubTypes',$,IFCLABEL('TORNILLO'),$);
#168= IFCPROPERTYSINGLEVALUE('RectangleOpeningWidth',$,$,$);
#169= IFCPROPERTYSINGLEVALUE('RectangleOpeningHeight',$,$,$);
#170= IFCPROPERTYSET('3$FJAX94v9J9R4Hr_OeW0J',#5,'AISC_EM11_Pset_Opening/Cope',$,(#167,#168,#169,#78));
#171= IFCCARTESIANPOINT((42647.7637441421,1603.38122277425,23600.));
#172= IFCDIRECTION((-0.00127341800025897,0.99999918920297,0.));
#173= IFCAXIS2PLACEMENT3D(#171,#172,#112);
#174= IFCLOCALPLACEMENT(#42,#173);
#175= IFCSHAPEREPRESENTATION(#12,'Body','MappedRepresentation',(#144,#147,#150,#153,#156,#159,#162,#123,#126,#129,#132,#135,#138,#141));
#176= IFCPRODUCTDEFINITIONSHAPE($,$,(#175));
#177= IFCOPENINGELEMENT('3AC1usQ_z4gRtGKLW1Zr2Y',#5,$,$,'Opening',#174,#176,$);
#178= IFCRELVOIDSELEMENT('1n5GM2rTbAPgWkW0BgUyzb',#5,'Drill Hole',$,#64,#177);
#179= IFCCARTESIANPOINT((50732.0175084489,1603.95503394348,23160.));
#180= IFCDIRECTION((-7.12890000359039E-05,0.999999997458939,0.));
#181= IFCDIRECTION((-0.999999997458939,-7.12890000327464E-05,0.));
#182= IFCAXIS2PLACEMENT3D(#179,#180,#181);
#183= IFCLOCALPLACEMENT(#42,#182);
#184= IFCCARTESIANPOINT((-3.05590219795704E-10,0.,74.9999999999898));
#185= IFCCARTESIANTRANSFORMATIONOPERATOR3D($,$,#184,$,$);
#186= IFCMAPPEDITEM(#120,#185);
#187= IFCCARTESIANPOINT((74.9999999999563,0.,75.0000000004673));
#188= IFCCARTESIANTRANSFORMATIONOPERATOR3D($,$,#187,$,$);
#189= IFCMAPPEDITEM(#120,#188);
#190= IFCCARTESIANPOINT((150.000000000218,0.,75.0000000009447));
#191= IFCCARTESIANTRANSFORMATIONOPERATOR3D($,$,#190,$,$);
#192= IFCMAPPEDITEM(#120,#191);
#193= IFCCARTESIANPOINT((225.00000000048,0.,75.0000000014222));
#194= IFCCARTESIANTRANSFORMATIONOPERATOR3D($,$,#193,$,$);
#195= IFCMAPPEDITEM(#120,#194);
#196= IFCCARTESIANPOINT((300.000000000742,0.,75.0000000018997));
#197= IFCCARTESIANTRANSFORMATIONOPERATOR3D($,$,#196,$,$);
#198= IFCMAPPEDITEM(#120,#197);
#199= IFCCARTESIANPOINT((375.000000001004,0.,75.0000000023772));
#200= IFCCARTESIANTRANSFORMATIONOPERATOR3D($,$,#199,$,$);
#201= IFCMAPPEDITEM(#120,#200);
#202= IFCCARTESIANPOINT((450.000000001266,0.,75.0000000028547));
#203= IFCCARTESIANTRANSFORMATIONOPERATOR3D($,$,#202,$,$);
#204= IFCMAPPEDITEM(#120,#203);
#205= IFCCARTESIANPOINT((525.000000001528,0.,75.0000000033322));
#206= IFCCARTESIANTRANSFORMATIONOPERATOR3D($,$,#205,$,$);
#207= IFCMAPPEDITEM(#120,#206);
#208= IFCCARTESIANPOINT((600.000000001797,0.,75.0000000038099));
#209= IFCCARTESIANTRANSFORMATIONOPERATOR3D($,$,#208,$,$);
#210= IFCMAPPEDITEM(#120,#209);
#211= IFCCARTESIANPOINT((675.000000002059,0.,75.0000000042871));
#212= IFCCARTESIANTRANSFORMATIONOPERATOR3D($,$,#211,$,$);
#213= IFCMAPPEDITEM(#120,#212);
#214= IFCCARTESIANPOINT((3.05590219795704E-10,0.,-74.99999999999));
#215= IFCCARTESIANTRANSFORMATIONOPERATOR3D($,$,#214,$,$);
#216= IFCMAPPEDITEM(#120,#215);
#217= IFCCARTESIANPOINT((75.0000000005675,0.,-74.9999999995125));
#218= IFCCARTESIANTRANSFORMATIONOPERATOR3D($,$,#217,$,$);
#219= IFCMAPPEDITEM(#120,#218);
#220= IFCCARTESIANPOINT((150.000000000837,0.,-74.999999999035));
#221= IFCCARTESIANTRANSFORMATIONOPERATOR3D($,$,#220,$,$);
#222= IFCMAPPEDITEM(#120,#221);
#223= IFCCARTESIANPOINT((225.000000001099,0.,-74.9999999985575));
#224= IFCCARTESIANTRANSFORMATIONOPERATOR3D($,$,#223,$,$);
#225= IFCMAPPEDITEM(#120,#224);
#226= IFCCARTESIANPOINT((300.000000001361,0.,-74.9999999980801));
#227= IFCCARTESIANTRANSFORMATIONOPERATOR3D($,$,#226,$,$);
#228= IFCMAPPEDITEM(#120,#227);
#229= IFCCARTESIANPOINT((375.000000001623,0.,-74.9999999976026));
#230= IFCCARTESIANTRANSFORMATIONOPERATOR3D($,$,#229,$,$);
#231= IFCMAPPEDITEM(#120,#230);
#232= IFCCARTESIANPOINT((450.000000001884,0.,-74.9999999971251));
#233= IFCCARTESIANTRANSFORMATIONOPERATOR3D($,$,#232,$,$);
#234= IFCMAPPEDITEM(#120,#233);
#235= IFCCARTESIANPOINT((525.000000002146,0.,-74.9999999966476));
#236= IFCCARTESIANTRANSFORMATIONOPERATOR3D($,$,#235,$,$);
#237= IFCMAPPEDITEM(#120,#236);
#238= IFCCARTESIANPOINT((600.000000002408,0.,-74.9999999961699));
#239= IFCCARTESIANTRANSFORMATIONOPERATOR3D($,$,#238,$,$);
#240= IFCMAPPEDITEM(#120,#239);
#241= IFCCARTESIANPOINT((675.00000000267,0.,-74.9999999956926));
#242= IFCCARTESIANTRANSFORMATIONOPERATOR3D($,$,#241,$,$);
#243= IFCMAPPEDITEM(#120,#242);
#244= IFCSHAPEREPRESENTATION(#12,'Body','MappedRepresentation',(#186,#189,#192,#195,#198,#201,#204,#207,#210,#213,#216,#219,#222,#225,#228,#231,#234,#237,#240,#243));
#245= IFCPRODUCTDEFINITIONSHAPE($,$,(#244));
#246= IFCOPENINGELEMENT('2_RjFlrn10BvVdyTynTzua',#5,$,$,'Opening',#183,#245,$);
#247= IFCRELVOIDSELEMENT('1iHQJekxr4_A6si3IwbYNa',#5,'Drill Hole',$,#64,#246);
#248= IFCCARTESIANPOINT((50732.0175084489,1603.95503394348,23600.));
#249= IFCDIRECTION((7.12890000359039E-05,-0.999999997458939,0.));
#250= IFCAXIS2PLACEMENT3D(#248,#249,#181);
#251= IFCLOCALPLACEMENT(#42,#250);
#252= IFCSHAPEREPRESENTATION(#12,'Body','MappedRepresentation',(#216,#219,#222,#225,#228,#231,#234,#237,#240,#243,#186,#189,#192,#195,#198,#201,#204,#207,#210,#213));
#253= IFCPRODUCTDEFINITIONSHAPE($,$,(#252));
#254= IFCOPENINGELEMENT('0WN7sRJRLA9vixVJde1JYW',#5,$,$,'Opening',#251,#253,$);
#255= IFCRELVOIDSELEMENT('00AAC_NSLC8uKa4S1xiyFc',#5,'Drill Hole',$,#64,#254);
#256= IFCCARTESIANPOINT((50777.0175275026,1603.38125423697,23600.));
#257= IFCAXIS2PLACEMENT3D(#256,#53,#67);
#258= IFCLOCALPLACEMENT(#42,#257);
#259= IFCCIRCLEPROFILEDEF(.AREA.,$,#50,12.5);
#260= IFCCARTESIANPOINT((0.,-5.85000000000001,0.));
#261= IFCAXIS2PLACEMENT3D(#260,#8,#7);
#262= IFCEXTRUDEDAREASOLID(#259,#261,#9,11.7);
#263= IFCSHAPEREPRESENTATION(#12,'Body','SweptSolid',(#262));
#264= IFCREPRESENTATIONMAP(#10,#263);
#265= IFCCARTESIANPOINT((107.5,0.,45.));
#266= IFCCARTESIANTRANSFORMATIONOPERATOR3D($,$,#265,$,$);
#267= IFCMAPPEDITEM(#264,#266);
#268= IFCCARTESIANPOINT((182.5,0.,45.));
#269= IFCCARTESIANTRANSFORMATIONOPERATOR3D($,$,#268,$,$);
#270= IFCMAPPEDITEM(#264,#269);
#271= IFCCARTESIANPOINT((257.5,0.,45.));
#272= IFCCARTESIANTRANSFORMATIONOPERATOR3D($,$,#271,$,$);
#273= IFCMAPPEDITEM(#264,#272);
#274= IFCCARTESIANPOINT((332.5,0.,45.));
#275= IFCCARTESIANTRANSFORMATIONOPERATOR3D($,$,#274,$,$);
#276= IFCMAPPEDITEM(#264,#275);
#277= IFCSHAPEREPRESENTATION(#12,'Body','MappedRepresentation',(#267,#270,#273,#276));
#278= IFCPRODUCTDEFINITIONSHAPE($,$,(#277));
#279= IFCOPENINGELEMENT('1fV0lk6lLAa8wv7ETfT1vA',#5,$,$,'Opening',#258,#278,$);
#280= IFCRELVOIDSELEMENT('2b$e6YxTn5MfQrSZXDEouK',#5,'Drill Hole',$,#64,#279);
#281= IFCPROPERTYSINGLEVALUE('PieceMark',$,IFCIDENTIFIER('BEAM'),$);
#282= IFCPROPERTYSINGLEVALUE('IndicationMark',$,IFCIDENTIFIER('b/277'),$);
#283= IFCPROPERTYSINGLEVALUE('PrelimMark',$,IFCIDENTIFIER(''),$);
#284= IFCPROPERTYSINGLEVALUE('MainPieceTag',$,IFCBOOLEAN(.F.),$);
#285= IFCPROPERTYSET('1fH6oLyQb7$8DNmo5vQmAI',#5,'AISC_EM11_Pset_PieceIdentification','PieceIdentity',(#281,#282,#283,#284));
#286= IFCPROPERTYSINGLEVALUE('MaterialType',$,IFCIDENTIFIER('STEEL'),$);
#287= IFCPROPERTYSINGLEVALUE('MaterialGrade',$,IFCIDENTIFIER('S235JR'),$);
#288= IFCPROPERTYSET('0qTjT$BzbBzBenH8DpQPbS',#5,'AISC_EM11_Pset_Material',$,(#286,#287));
#289= IFCPROPERTYSINGLEVALUE('SkewedAngleY',$,IFCREAL(0.),$);
#290= IFCPROPERTYSINGLEVALUE('SkewedAngleX',$,IFCREAL(0.),$);
#291= IFCPROPERTYSET('1fesQGCD50RuMR_q7YC5Jj',#5,'AISC_EM11_Pset_SkewedEnd',$,(#289,#290));
#292= IFCPROPERTYSET('0K8cEHZwz0Of4QUklynuXO',#5,'AISC_EM11_Pset_SkewedEnd_2',$,(#289,#290));
#293= IFCMATERIAL('STEEL/S235JR');
#294= IFCRELAGGREGATES('0nVJNj3E13ogx$PrfJpqpH',#5,$,$,#37,(#39));
#295= IFCRELAGGREGATES('23nbf$LWJL4yDHh7xb565Z',#5,$,$,#39,(#41));
#296= IFCRELAGGREGATES('3i8DMOjT11tutg7m29svJ9',#5,$,$,#41,(#43));
#297= IFCRELCONTAINEDINSPATIALSTRUCTURE('3s2jjO3O57fuG3Um0AKvW1',#5,$,$,(#64),#43);
#298= IFCRELDEFINESBYPROPERTIES('3iPffibZf7Swbpmodl1LLI',#5,$,$,(#73),#79);
#299= IFCRELDEFINESBYPROPERTIES('3QZNOk0cX8YP9I2erWGIas',#5,$,$,(#87),#90);
#300= IFCRELDEFINESBYPROPERTIES('13KAPWiof1XgiFLAZSbbcs',#5,$,$,(#108,#98),#101);
#301= IFCRELDEFINESBYPROPERTIES('3pXia43fr7SeKgxUesAncX',#5,$,$,(#279,#254,#246,#177,#165),#170);
#302= IFCRELDEFINESBYPROPERTIES('20diZlvQHB18wDX3pek0HG',#5,$,$,(#64),#285);
#303= IFCRELDEFINESBYPROPERTIES('16xZ7UXAnF19AD2yoRYQmt',#5,$,$,(#64),#288);
#304= IFCRELDEFINESBYPROPERTIES('0aHuNBRmT4W8SN0Dy$$7H2',#5,$,$,(#64),#291);
#305= IFCRELDEFINESBYPROPERTIES('13WfiSXXLBc8FJ5A6wnOwr',#5,$,$,(#64),#292);
#306= IFCRELASSOCIATESMATERIAL('1EePGBACn908HOVX0Q4x1j',#5,$,$,(#64),#293);
ENDSEC;

END-ISO-10303-21;
