ISO-10303-21;
HEADER;
FILE_DESCRIPTION(('ViewDefinition[AISC_Steel_Detailing]', 'Option [BaseQuantities:Off]', 'Option [GridExport:On]', 'Option [Assemblies:Off]', 'Option [Bolts:On]', 'Option [Rebars:On]', 'Option [PourObjects:Off]', 'Option [Welds:On]', 'Option [SurfaceTreatments:On]', 'Option [LocationBy:0]', 'Option [ViewColors:Off]', 'Option [SectionedSpine:Off]', 'Option [PropertySets:On]', 'Option [Export all:Off]'),'2;1');
FILE_NAME('b_272_Qty_1.ifc','2026-05-16T11:53:11',('GIOVANNIPC\\gcorrea'),('Structural Designer'),'IFC Database version: Work','Tekla Structures 2020 Service Pack 5, IFC Export Version: 4.0.0.0 Dec  7 2020','');
FILE_SCHEMA(('IFC2X3'));
ENDSEC;

DATA;
#1= IFCPERSON('GIOVANNIPC\\gcorrea','Undefined',$,$,$,$,$,$);
#2= IFCORGANIZATION($,'Trimble Solutions Corporation',$,$,$);
#3= IFCPERSONANDORGANIZATION(#1,#2,$);
#4= IFCAPPLICATION(#2,'2020 Service Pack 5','Tekla Structures','Multi material modeling');
#5= IFCOWNERHISTORY(#3,#4,$,.NOCHANGE.,$,$,$,1778950391);
#6= IFCCARTESIANPOINT((0.,0.,0.));
#7= IFCDIRECTION((1.,0.,0.));
#8= IFCDIRECTION((0.,1.,0.));
#9= IFCDIRECTION((0.,0.,1.));
#10= IFCAXIS2PLACEMENT3D(#6,#9,#7);
#11= IFCGEOMETRICREPRESENTATIONCONTEXT($,'Model',3,1.E-05,#10,$);
#12= IFCGEOMETRICREPRESENTATIONSUBCONTEXT('Body','Model',*,*,*,*,#11,$,.MODEL_VIEW.,$);
#13= IFCGEOMETRICREPRESENTATIONSUBCONTEXT('Axis','Model',*,*,*,*,#11,$,.GRAPH_VIEW.,$);
#14= IFCGEOMETRICREPRESENTATIONSUBCONTEXT('FootPrint','Model',*,*,*,*,#11,$,.MODEL_VIEW.,$);
#15= IFCSIUNIT(*,.LENGTHUNIT.,.MILLI.,.METRE.);
#16= IFCMEASUREWITHUNIT(IFCRATIOMEASURE(304.8),#15);
#17= IFCDIMENSIONALEXPONENTS(1,0,0,0,0,0,0);
#18= IFCCONVERSIONBASEDUNIT(#17,.LENGTHUNIT.,'FOOT',#16);
#19= IFCSIUNIT(*,.AREAUNIT.,$,.SQUARE_METRE.);
#20= IFCMEASUREWITHUNIT(IFCRATIOMEASURE(0.09290304),#19);
#21= IFCDIMENSIONALEXPONENTS(2,0,0,0,0,0,0);
#22= IFCCONVERSIONBASEDUNIT(#21,.AREAUNIT.,'SQUARE FOOT',#20);
#23= IFCSIUNIT(*,.VOLUMEUNIT.,$,.CUBIC_METRE.);
#24= IFCMEASUREWITHUNIT(IFCRATIOMEASURE(0.028316846592),#23);
#25= IFCDIMENSIONALEXPONENTS(3,0,0,0,0,0,0);
#26= IFCCONVERSIONBASEDUNIT(#25,.VOLUMEUNIT.,'CUBIC FOOT',#24);
#27= IFCSIUNIT(*,.MASSUNIT.,.KILO.,.GRAM.);
#28= IFCSIUNIT(*,.TIMEUNIT.,$,.SECOND.);
#29= IFCSIUNIT(*,.PLANEANGLEUNIT.,$,.RADIAN.);
#30= IFCMEASUREWITHUNIT(IFCRATIOMEASURE(0.0174532925199433),#29);
#31= IFCDIMENSIONALEXPONENTS(0,0,0,0,0,0,0);
#32= IFCCONVERSIONBASEDUNIT(#31,.PLANEANGLEUNIT.,'DEGREE',#30);
#33= IFCSIUNIT(*,.SOLIDANGLEUNIT.,$,.STERADIAN.);
#34= IFCSIUNIT(*,.THERMODYNAMICTEMPERATUREUNIT.,$,.DEGREE_CELSIUS.);
#35= IFCSIUNIT(*,.LUMINOUSINTENSITYUNIT.,$,.LUMEN.);
#36= IFCUNITASSIGNMENT((#15,#19,#23,#27,#28,#29,#33,#34,#35));
#37= IFCPROJECT('2G7ZFDNE16yBDU14FA92Me',#5,'Proyecto',$,$,$,$,(#11),#36);
#38= IFCLOCALPLACEMENT($,#10);
#39= IFCSITE('2xvEzEinjBTea80yOTcujY',#5,'Obra',$,$,#38,$,$,.ELEMENT.,$,$,$,$,$);
#40= IFCLOCALPLACEMENT(#38,#10);
#41= IFCBUILDING('1EBYL3C3570PwtYmH2RJhb',#5,'Undefined',$,$,#40,$,$,.ELEMENT.,$,$,$);
#42= IFCLOCALPLACEMENT(#40,#10);
#43= IFCBUILDINGSTOREY('29hdEUCErFze9E_VIAceOd',#5,'Undefined',$,$,#42,$,$,.ELEMENT.,0.);
#44= IFCOWNERHISTORY(#3,#4,$,.NOCHANGE.,$,$,$,1773838800);
#45= IFCCARTESIANPOINT((25660.,1603.28932952881,23375.));
#46= IFCDIRECTION((0.999999999935555,1.13529999992764E-05,0.));
#47= IFCAXIS2PLACEMENT3D(#45,#9,#46);
#48= IFCLOCALPLACEMENT(#42,#47);
#49= IFCDIRECTION((1.,0.));
#50= IFCCARTESIANPOINT((0.,0.));
#51= IFCAXIS2PLACEMENT2D(#50,#49);
#52= IFCISHAPEPROFILEDEF(.AREA.,'IPE450',#51,190.,450.,9.399999619,14.60000038,21.);
#53= IFCDIRECTION((0.,-1.,0.));
#54= IFCDIRECTION((-1.,0.,0.));
#55= IFCCARTESIANPOINT((8117.10129477352,0.,0.));
#56= IFCAXIS2PLACEMENT3D(#55,#54,#53);
#57= IFCEXTRUDEDAREASOLID(#52,#56,#9,8117.08);
#58= IFCDIRECTION((-0.999999999935555,1.13530000016908E-05,0.));
#59= IFCCARTESIANPOINT((8117.0988123324,-0.0880008780761727,-325.));
#60= IFCDIRECTION((1.13530000016908E-05,0.999999999935555,0.));
#61= IFCAXIS2PLACEMENT3D(#59,#58,#60);
#62= IFCPLANE(#61);
#63= IFCHALFSPACESOLID(#62,.T.);
#64= IFCBOOLEANCLIPPINGRESULT(.DIFFERENCE.,#57,#63);
#65= IFCDIRECTION((0.999999999966405,-8.19699999915894E-06,0.));
#66= IFCCARTESIANPOINT((0.0200981337184203,-0.00125823949247206,-325.));
#67= IFCDIRECTION((-8.19699999915894E-06,-0.999999999966405,0.));
#68= IFCAXIS2PLACEMENT3D(#66,#65,#67);
#69= IFCPLANE(#68);
#70= IFCHALFSPACESOLID(#69,.T.);
#71= IFCBOOLEANCLIPPINGRESULT(.DIFFERENCE.,#64,#70);
#72= IFCSHAPEREPRESENTATION(#12,'Body','Clipping',(#71));
#73= IFCPRODUCTDEFINITIONSHAPE($,$,(#72));
#74= IFCBEAM('0dI$go9Mr9AfSVJncTrdGy',#44,'BEAM','IPE450','IPE450',#48,#73,'ID274bfab2-256d-492a-971f-4f199dd6743c');
#75= IFCLOCALPLACEMENT(#42,#47);
#76= IFCRECTANGLEPROFILEDEF(.AREA.,'PL108*12.1',#51,12.1,108.);
#77= IFCDIRECTION((0.,0.,-1.));
#78= IFCCARTESIANPOINT((8133.04893526077,-43.2174417495241,226.));
#79= IFCAXIS2PLACEMENT3D(#78,#77,#58);
#80= IFCEXTRUDEDAREASOLID(#76,#79,#9,452.);
#81= IFCSHAPEREPRESENTATION(#12,'Body','SweptSolid',(#80));
#82= IFCPRODUCTDEFINITIONSHAPE($,$,(#81));
#83= IFCOPENINGELEMENT('2JQcpMst93d8pHHvfmXeDP',#5,$,$,'Recess',#75,#82,$);
#84= IFCRELVOIDSELEMENT('2C13rmt9v6K9Mt_A_Wd6_1',#5,$,$,#74,#83);
#85= IFCPROPERTYSINGLEVALUE('FeatureSubTypes',$,$,$);
#86= IFCPROPERTYSINGLEVALUE('RectangleOpeningWidth',$,IFCPOSITIVELENGTHMEASURE(12.1),$);
#87= IFCPROPERTYSINGLEVALUE('RectangleOpeningHeight',$,IFCPOSITIVELENGTHMEASURE(108.),$);
#88= IFCPROPERTYSINGLEVALUE('OpeningDiameter',$,$,$);
#89= IFCPROPERTYSET('3ixU$o7Zb4zgv7X0pxMGyE',#5,'AISC_EM11_Pset_Opening/Cope',$,(#85,#86,#87,#88));
#90= IFCLOCALPLACEMENT(#42,#47);
#91= IFCRECTANGLEPROFILEDEF(.AREA.,'PL109.1*12.1',#51,12.1,109.1);
#92= IFCCARTESIANPOINT((8133.04989529798,41.344984050384,226.));
#93= IFCAXIS2PLACEMENT3D(#92,#77,#58);
#94= IFCEXTRUDEDAREASOLID(#91,#93,#9,452.);
#95= IFCSHAPEREPRESENTATION(#12,'Body','SweptSolid',(#94));
#96= IFCPRODUCTDEFINITIONSHAPE($,$,(#95));
#97= IFCOPENINGELEMENT('0$Hse9ox997OPhkRchfBKF',#5,$,$,'Recess',#90,#96,$);
#98= IFCRELVOIDSELEMENT('2$M2yJcx1FU9rx7xRgOJ6$',#5,$,$,#74,#97);
#99= IFCPROPERTYSINGLEVALUE('RectangleOpeningHeight',$,IFCPOSITIVELENGTHMEASURE(109.1),$);
#100= IFCPROPERTYSET('2cWX7HMefFhRLaPocsFWmr',#5,'AISC_EM11_Pset_Opening/Cope',$,(#85,#86,#99,#88));
#101= IFCLOCALPLACEMENT(#42,#47);
#102= IFCRECTANGLEPROFILEDEF(.AREA.,'PL53*155.5',#51,53.,155.5);
#103= IFCDIRECTION((3.87019999914368E-05,0.999999999251078,0.));
#104= IFCCARTESIANPOINT((-77.7199629884877,-95.9969913349515,199.5));
#105= IFCAXIS2PLACEMENT3D(#104,#103,#77);
#106= IFCEXTRUDEDAREASOLID(#102,#105,#9,192.31);
#107= IFCSHAPEREPRESENTATION(#12,'Body','SweptSolid',(#106));
#108= IFCPRODUCTDEFINITIONSHAPE($,$,(#107));
#109= IFCOPENINGELEMENT('1S6LNMLTX69e6sGPPr5J7i',#5,$,$,'Recess',#101,#108,$);
#110= IFCRELVOIDSELEMENT('29GH7uoF95OPM$4Y3X1YoU',#5,$,$,#74,#109);
#111= IFCPROPERTYSINGLEVALUE('RectangleOpeningWidth',$,IFCPOSITIVELENGTHMEASURE(53.),$);
#112= IFCPROPERTYSINGLEVALUE('RectangleOpeningHeight',$,IFCPOSITIVELENGTHMEASURE(155.5),$);
#113= IFCPROPERTYSET('0m_Z4d_yX3EPtUJuzljeua',#5,'AISC_EM11_Pset_Opening/Cope',$,(#85,#111,#112,#88));
#114= IFCCARTESIANPOINT((33316.9020226211,1603.08571207204,23150.));
#115= IFCDIRECTION((0.000467666999837093,-0.999999890643783,0.));
#116= IFCDIRECTION((0.999999890643783,0.000467666999833569,0.));
#117= IFCAXIS2PLACEMENT3D(#114,#115,#116);
#118= IFCLOCALPLACEMENT(#42,#117);
#119= IFCCIRCLEPROFILEDEF(.AREA.,$,#51,11.5);
#120= IFCCARTESIANPOINT((0.,-0.0999999999999929,0.));
#121= IFCAXIS2PLACEMENT3D(#120,#8,#7);
#122= IFCEXTRUDEDAREASOLID(#119,#121,#9,14.8);
#123= IFCSHAPEREPRESENTATION(#12,'Body','SweptSolid',(#122));
#124= IFCREPRESENTATIONMAP(#10,#123);
#125= IFCCARTESIANPOINT((7.27595761418343E-12,0.,-49.9999999999939));
#126= IFCCARTESIANTRANSFORMATIONOPERATOR3D($,$,#125,$,$);
#127= IFCMAPPEDITEM(#124,#126);
#128= IFCCARTESIANPOINT((69.9999999998108,0.,-50.0000000000257));
#129= IFCCARTESIANTRANSFORMATIONOPERATOR3D($,$,#128,$,$);
#130= IFCMAPPEDITEM(#124,#129);
#131= IFCCARTESIANPOINT((139.999999999607,0.,-50.0000000000575));
#132= IFCCARTESIANTRANSFORMATIONOPERATOR3D($,$,#131,$,$);
#133= IFCMAPPEDITEM(#124,#132);
#134= IFCCARTESIANPOINT((209.999999999411,0.,-50.0000000000896));
#135= IFCCARTESIANTRANSFORMATIONOPERATOR3D($,$,#134,$,$);
#136= IFCMAPPEDITEM(#124,#135);
#137= IFCCARTESIANPOINT((279.999999999214,0.,-50.0000000001214));
#138= IFCCARTESIANTRANSFORMATIONOPERATOR3D($,$,#137,$,$);
#139= IFCMAPPEDITEM(#124,#138);
#140= IFCCARTESIANPOINT((349.999999999018,0.,-50.0000000001532));
#141= IFCCARTESIANTRANSFORMATIONOPERATOR3D($,$,#140,$,$);
#142= IFCMAPPEDITEM(#124,#141);
#143= IFCCARTESIANPOINT((419.999999998814,0.,-50.0000000001851));
#144= IFCCARTESIANTRANSFORMATIONOPERATOR3D($,$,#143,$,$);
#145= IFCMAPPEDITEM(#124,#144);
#146= IFCCARTESIANPOINT((-1.45519152283669E-11,0.,49.9999999999939));
#147= IFCCARTESIANTRANSFORMATIONOPERATOR3D($,$,#146,$,$);
#148= IFCMAPPEDITEM(#124,#147);
#149= IFCCARTESIANPOINT((69.999999999789,0.,49.999999999962));
#150= IFCCARTESIANTRANSFORMATIONOPERATOR3D($,$,#149,$,$);
#151= IFCMAPPEDITEM(#124,#150);
#152= IFCCARTESIANPOINT((139.999999999585,0.,49.9999999999302));
#153= IFCCARTESIANTRANSFORMATIONOPERATOR3D($,$,#152,$,$);
#154= IFCMAPPEDITEM(#124,#153);
#155= IFCCARTESIANPOINT((209.999999999389,0.,49.9999999998984));
#156= IFCCARTESIANTRANSFORMATIONOPERATOR3D($,$,#155,$,$);
#157= IFCMAPPEDITEM(#124,#156);
#158= IFCCARTESIANPOINT((279.999999999192,0.,49.9999999998665));
#159= IFCCARTESIANTRANSFORMATIONOPERATOR3D($,$,#158,$,$);
#160= IFCMAPPEDITEM(#124,#159);
#161= IFCCARTESIANPOINT((349.999999998996,0.,49.9999999998342));
#162= IFCCARTESIANTRANSFORMATIONOPERATOR3D($,$,#161,$,$);
#163= IFCMAPPEDITEM(#124,#162);
#164= IFCCARTESIANPOINT((419.999999998792,0.,49.9999999998024));
#165= IFCCARTESIANTRANSFORMATIONOPERATOR3D($,$,#164,$,$);
#166= IFCMAPPEDITEM(#124,#165);
#167= IFCSHAPEREPRESENTATION(#12,'Body','MappedRepresentation',(#127,#130,#133,#136,#139,#142,#145,#148,#151,#154,#157,#160,#163,#166));
#168= IFCPRODUCTDEFINITIONSHAPE($,$,(#167));
#169= IFCOPENINGELEMENT('2lFzz_GXH3cO6BPt9A2yTO',#5,$,$,'Opening',#118,#168,$);
#170= IFCRELVOIDSELEMENT('3xq1WY3nz6IAyKB9ujhVm3',#5,'Drill Hole',$,#74,#169);
#171= IFCPROPERTYSINGLEVALUE('FeatureSubTypes',$,IFCLABEL('TORNILLO'),$);
#172= IFCPROPERTYSINGLEVALUE('RectangleOpeningWidth',$,$,$);
#173= IFCPROPERTYSINGLEVALUE('RectangleOpeningHeight',$,$,$);
#174= IFCPROPERTYSET('2fsuiLI1PB9vkZo_TQyI19',#5,'AISC_EM11_Pset_Opening/Cope',$,(#171,#172,#173,#88));
#175= IFCCARTESIANPOINT((33777.0988128084,1603.28009652221,23600.));
#176= IFCAXIS2PLACEMENT3D(#175,#54,#77);
#177= IFCLOCALPLACEMENT(#42,#176);
#178= IFCCARTESIANPOINT((0.,-4.90093211915408,0.));
#179= IFCAXIS2PLACEMENT3D(#178,#8,#7);
#180= IFCEXTRUDEDAREASOLID(#119,#179,#9,9.6);
#181= IFCSHAPEREPRESENTATION(#12,'Body','SweptSolid',(#180));
#182= IFCREPRESENTATIONMAP(#10,#181);
#183= IFCCARTESIANPOINT((85.,0.,40.));
#184= IFCCARTESIANTRANSFORMATIONOPERATOR3D($,$,#183,$,$);
#185= IFCMAPPEDITEM(#182,#184);
#186= IFCCARTESIANPOINT((155.,0.,40.));
#187= IFCCARTESIANTRANSFORMATIONOPERATOR3D($,$,#186,$,$);
#188= IFCMAPPEDITEM(#182,#187);
#189= IFCCARTESIANPOINT((225.,0.,40.));
#190= IFCCARTESIANTRANSFORMATIONOPERATOR3D($,$,#189,$,$);
#191= IFCMAPPEDITEM(#182,#190);
#192= IFCCARTESIANPOINT((295.,0.,40.));
#193= IFCCARTESIANTRANSFORMATIONOPERATOR3D($,$,#192,$,$);
#194= IFCMAPPEDITEM(#182,#193);
#195= IFCCARTESIANPOINT((365.,0.,40.));
#196= IFCCARTESIANTRANSFORMATIONOPERATOR3D($,$,#195,$,$);
#197= IFCMAPPEDITEM(#182,#196);
#198= IFCSHAPEREPRESENTATION(#12,'Body','MappedRepresentation',(#185,#188,#191,#194,#197));
#199= IFCPRODUCTDEFINITIONSHAPE($,$,(#198));
#200= IFCOPENINGELEMENT('1gtzQpnU9BORNtAO9Gy9C8',#5,$,$,'Opening',#177,#199,$);
#201= IFCRELVOIDSELEMENT('2GVjohSd9F8eYveYctfzUI',#5,'Drill Hole',$,#74,#200);
#202= IFCCARTESIANPOINT((33316.9020226211,1603.08571207204,23600.));
#203= IFCDIRECTION((-0.000467666999837093,0.999999890643783,0.));
#204= IFCAXIS2PLACEMENT3D(#202,#203,#116);
#205= IFCLOCALPLACEMENT(#42,#204);
#206= IFCSHAPEREPRESENTATION(#12,'Body','MappedRepresentation',(#127,#130,#133,#136,#139,#142,#145,#148,#151,#154,#157,#160,#163,#166));
#207= IFCPRODUCTDEFINITIONSHAPE($,$,(#206));
#208= IFCOPENINGELEMENT('3aSLZn9LjA1RIWUOqy8ulK',#5,$,$,'Opening',#205,#207,$);
#209= IFCRELVOIDSELEMENT('0FGc$Js$r4OuGzX$selkfP',#5,'Drill Hole',$,#74,#208);
#210= IFCCARTESIANPOINT((25660.0337521826,1603.28338915493,23555.));
#211= IFCDIRECTION((0.999999999626016,-2.73489999897265E-05,0.));
#212= IFCAXIS2PLACEMENT3D(#210,#211,#77);
#213= IFCLOCALPLACEMENT(#42,#212);
#214= IFCCARTESIANPOINT((0.,-4.79251097594472,0.));
#215= IFCAXIS2PLACEMENT3D(#214,#8,#7);
#216= IFCEXTRUDEDAREASOLID(#119,#215,#9,9.6);
#217= IFCSHAPEREPRESENTATION(#12,'Body','SweptSolid',(#216));
#218= IFCREPRESENTATIONMAP(#10,#217);
#219= IFCCARTESIANPOINT((40.,0.,39.9999999999418));
#220= IFCCARTESIANTRANSFORMATIONOPERATOR3D($,$,#219,$,$);
#221= IFCMAPPEDITEM(#218,#220);
#222= IFCCARTESIANPOINT((110.,0.,39.9999999999418));
#223= IFCCARTESIANTRANSFORMATIONOPERATOR3D($,$,#222,$,$);
#224= IFCMAPPEDITEM(#218,#223);
#225= IFCCARTESIANPOINT((180.,0.,39.9999999999418));
#226= IFCCARTESIANTRANSFORMATIONOPERATOR3D($,$,#225,$,$);
#227= IFCMAPPEDITEM(#218,#226);
#228= IFCCARTESIANPOINT((250.,0.,39.9999999999418));
#229= IFCCARTESIANTRANSFORMATIONOPERATOR3D($,$,#228,$,$);
#230= IFCMAPPEDITEM(#218,#229);
#231= IFCCARTESIANPOINT((320.,0.,39.9999999999418));
#232= IFCCARTESIANTRANSFORMATIONOPERATOR3D($,$,#231,$,$);
#233= IFCMAPPEDITEM(#218,#232);
#234= IFCSHAPEREPRESENTATION(#12,'Body','MappedRepresentation',(#221,#224,#227,#230,#233));
#235= IFCPRODUCTDEFINITIONSHAPE($,$,(#234));
#236= IFCOPENINGELEMENT('0KPkyqk4n8wQeGrVS6HZ8D',#5,$,$,'Opening',#213,#235,$);
#237= IFCRELVOIDSELEMENT('2LfNVPpgnCIuTGdP0AB5uD',#5,'Drill Hole',$,#74,#236);
#238= IFCPROPERTYSINGLEVALUE('PieceMark',$,IFCIDENTIFIER('BEAM'),$);
#239= IFCPROPERTYSINGLEVALUE('IndicationMark',$,IFCIDENTIFIER('b/272'),$);
#240= IFCPROPERTYSINGLEVALUE('PrelimMark',$,IFCIDENTIFIER(''),$);
#241= IFCPROPERTYSINGLEVALUE('MainPieceTag',$,IFCBOOLEAN(.F.),$);
#242= IFCPROPERTYSET('1D29DhPpL7deYWl7H5b6cr',#5,'AISC_EM11_Pset_PieceIdentification','PieceIdentity',(#238,#239,#240,#241));
#243= IFCPROPERTYSINGLEVALUE('MaterialType',$,IFCIDENTIFIER('STEEL'),$);
#244= IFCPROPERTYSINGLEVALUE('MaterialGrade',$,IFCIDENTIFIER('S235JR'),$);
#245= IFCPROPERTYSET('0t9FoQ1PnBqP5jnQOJ2isW',#5,'AISC_EM11_Pset_Material',$,(#243,#244));
#246= IFCPROPERTYSINGLEVALUE('SkewedAngleY',$,IFCREAL(0.),$);
#247= IFCPROPERTYSINGLEVALUE('SkewedAngleX',$,IFCREAL(0.00047),$);
#248= IFCPROPERTYSET('0DHoTn7_f14wqvNiMrKkZp',#5,'AISC_EM11_Pset_SkewedEnd',$,(#246,#247));
#249= IFCPROPERTYSINGLEVALUE('SkewedAngleX',$,IFCREAL(0.00065),$);
#250= IFCPROPERTYSET('25ayu3kkf03hglHo5Jwg6M',#5,'AISC_EM11_Pset_SkewedEnd_2',$,(#246,#249));
#251= IFCMATERIAL('STEEL/S235JR');
#252= IFCRELAGGREGATES('02XAvKsWjFHBm7Nq3ELn6h',#5,$,$,#37,(#39));
#253= IFCRELAGGREGATES('2KpSBc8o$XZT2Pf6LWd3Oz',#5,$,$,#39,(#41));
#254= IFCRELAGGREGATES('1TfkAuz6D9HePg_CCfIFpl',#5,$,$,#41,(#43));
#255= IFCRELCONTAINEDINSPATIALSTRUCTURE('3OI7Ty99TFnv7vk5KkZES_',#5,$,$,(#74),#43);
#256= IFCRELDEFINESBYPROPERTIES('1gNXl__5917hQ4EcNOCQrK',#5,$,$,(#83),#89);
#257= IFCRELDEFINESBYPROPERTIES('2g4C$xHrr7zgvR2AO1A2Tj',#5,$,$,(#97),#100);
#258= IFCRELDEFINESBYPROPERTIES('2M0Jr40NXFn8t$ckWMjeJH',#5,$,$,(#109),#113);
#259= IFCRELDEFINESBYPROPERTIES('1EHzaf3Cr91gGScyi8g8t0',#5,$,$,(#236,#208,#200,#169),#174);
#260= IFCRELDEFINESBYPROPERTIES('0utunRsrD0J9z2WrBsiMny',#5,$,$,(#74),#242);
#261= IFCRELDEFINESBYPROPERTIES('0vs1L_DVnFHAh_AyEJIaMO',#5,$,$,(#74),#245);
#262= IFCRELDEFINESBYPROPERTIES('1IChXj4yP5ChrNtws9FO6v',#5,$,$,(#74),#248);
#263= IFCRELDEFINESBYPROPERTIES('3niqN113j0ERGMR7A1ab8g',#5,$,$,(#74),#250);
#264= IFCRELASSOCIATESMATERIAL('2bzyByZ9X2exMD3TlThDfy',#5,$,$,(#74),#251);
ENDSEC;

END-ISO-10303-21;
