ISO-10303-21;
HEADER;
FILE_DESCRIPTION(('ViewDefinition[AISC_Steel_Detailing]', 'Option [BaseQuantities:Off]', 'Option [GridExport:On]', 'Option [Assemblies:Off]', 'Option [Bolts:On]', 'Option [Rebars:On]', 'Option [PourObjects:Off]', 'Option [Welds:On]', 'Option [SurfaceTreatments:On]', 'Option [LocationBy:0]', 'Option [ViewColors:Off]', 'Option [SectionedSpine:Off]', 'Option [PropertySets:On]', 'Option [Export all:Off]'),'2;1');
FILE_NAME('b_274_Qty_1.ifc','2026-05-16T11:53:12',('GIOVANNIPC\\gcorrea'),('Structural Designer'),'IFC Database version: Work','Tekla Structures 2020 Service Pack 5, IFC Export Version: 4.0.0.0 Dec  7 2020','');
FILE_SCHEMA(('IFC2X3'));
ENDSEC;

DATA;
#1= IFCPERSON('GIOVANNIPC\\gcorrea','Undefined',$,$,$,$,$,$);
#2= IFCORGANIZATION($,'Trimble Solutions Corporation',$,$,$);
#3= IFCPERSONANDORGANIZATION(#1,#2,$);
#4= IFCAPPLICATION(#2,'2020 Service Pack 5','Tekla Structures','Multi material modeling');
#5= IFCOWNERHISTORY(#3,#4,$,.NOCHANGE.,$,$,$,1778950392);
#6= IFCCARTESIANPOINT((0.,0.,0.));
#7= IFCDIRECTION((1.,0.,0.));
#8= IFCDIRECTION((0.,1.,0.));
#9= IFCDIRECTION((0.,0.,1.));
#10= IFCAXIS2PLACEMENT3D(#6,#9,#7);
#11= IFCGEOMETRICREPRESENTATIONCONTEXT($,'Model',3,1.E-05,#10,$);
#12= IFCGEOMETRICREPRESENTATIONSUBCONTEXT('Body','Model',*,*,*,*,#11,$,.MODEL_VIEW.,$);
#13= IFCGEOMETRICREPRESENTATIONSUBCONTEXT('Axis','Model',*,*,*,*,#11,$,.GRAPH_VIEW.,$);
#14= IFCGEOMETRICREPRESENTATIONSUBCONTEXT('FootPrint','Model',*,*,*,*,#11,$,.MODEL_VIEW.,$);
#15= IFCSIUNIT(*,.LENGTHUNIT.,.MILLI.,.METRE.);
#16= IFCMEASUREWITHUNIT(IFCRATIOMEASURE(304.8),#15);
#17= IFCDIMENSIONALEXPONENTS(1,0,0,0,0,0,0);
#18= IFCCONVERSIONBASEDUNIT(#17,.LENGTHUNIT.,'FOOT',#16);
#19= IFCSIUNIT(*,.AREAUNIT.,$,.SQUARE_METRE.);
#20= IFCMEASUREWITHUNIT(IFCRATIOMEASURE(0.09290304),#19);
#21= IFCDIMENSIONALEXPONENTS(2,0,0,0,0,0,0);
#22= IFCCONVERSIONBASEDUNIT(#21,.AREAUNIT.,'SQUARE FOOT',#20);
#23= IFCSIUNIT(*,.VOLUMEUNIT.,$,.CUBIC_METRE.);
#24= IFCMEASUREWITHUNIT(IFCRATIOMEASURE(0.028316846592),#23);
#25= IFCDIMENSIONALEXPONENTS(3,0,0,0,0,0,0);
#26= IFCCONVERSIONBASEDUNIT(#25,.VOLUMEUNIT.,'CUBIC FOOT',#24);
#27= IFCSIUNIT(*,.MASSUNIT.,.KILO.,.GRAM.);
#28= IFCSIUNIT(*,.TIMEUNIT.,$,.SECOND.);
#29= IFCSIUNIT(*,.PLANEANGLEUNIT.,$,.RADIAN.);
#30= IFCMEASUREWITHUNIT(IFCRATIOMEASURE(0.0174532925199433),#29);
#31= IFCDIMENSIONALEXPONENTS(0,0,0,0,0,0,0);
#32= IFCCONVERSIONBASEDUNIT(#31,.PLANEANGLEUNIT.,'DEGREE',#30);
#33= IFCSIUNIT(*,.SOLIDANGLEUNIT.,$,.STERADIAN.);
#34= IFCSIUNIT(*,.THERMODYNAMICTEMPERATUREUNIT.,$,.DEGREE_CELSIUS.);
#35= IFCSIUNIT(*,.LUMINOUSINTENSITYUNIT.,$,.LUMEN.);
#36= IFCUNITASSIGNMENT((#15,#19,#23,#27,#28,#29,#33,#34,#35));
#37= IFCPROJECT('2G7ZFDNE16yBDU14FA92Me',#5,'Proyecto',$,$,$,$,(#11),#36);
#38= IFCLOCALPLACEMENT($,#10);
#39= IFCSITE('2xvEzEinjBTea80yOTcujY',#5,'Obra',$,$,#38,$,$,.ELEMENT.,$,$,$,$,$);
#40= IFCLOCALPLACEMENT(#38,#10);
#41= IFCBUILDING('3D9Owg71nB98h$GD3dN$cD',#5,'Undefined',$,$,#40,$,$,.ELEMENT.,$,$,$);
#42= IFCLOCALPLACEMENT(#40,#10);
#43= IFCBUILDINGSTOREY('29hdEUCErFze9E_VIAceOd',#5,'Undefined',$,$,#42,$,$,.ELEMENT.,0.);
#44= IFCOWNERHISTORY(#3,#4,$,.NOCHANGE.,$,$,$,1773838800);
#45= IFCCARTESIANPOINT((25677.7093048096,6242.99988941458,23375.));
#46= IFCAXIS2PLACEMENT3D(#45,#9,#7);
#47= IFCLOCALPLACEMENT(#42,#46);
#48= IFCDIRECTION((1.,0.));
#49= IFCCARTESIANPOINT((0.,0.));
#50= IFCAXIS2PLACEMENT2D(#49,#48);
#51= IFCISHAPEPROFILEDEF(.AREA.,'IPE450',#50,190.,450.,9.399999619,14.60000038,21.);
#52= IFCDIRECTION((0.,-1.,0.));
#53= IFCDIRECTION((-1.,0.,0.));
#54= IFCCARTESIANPOINT((10360.010406119,0.,0.));
#55= IFCAXIS2PLACEMENT3D(#54,#53,#52);
#56= IFCEXTRUDEDAREASOLID(#51,#55,#9,10377.56);
#57= IFCCARTESIANPOINT((10360.0077819824,0.,-325.));
#58= IFCAXIS2PLACEMENT3D(#57,#53,#8);
#59= IFCPLANE(#58);
#60= IFCHALFSPACESOLID(#59,.T.);
#61= IFCBOOLEANCLIPPINGRESULT(.DIFFERENCE.,#56,#60);
#62= IFCDIRECTION((0.999999999626016,-2.73489999897302E-05,0.));
#63= IFCCARTESIANPOINT((-17.5486611369561,-0.00419807142861828,-325.));
#64= IFCDIRECTION((-2.73489999897302E-05,-0.999999999626016,0.));
#65= IFCAXIS2PLACEMENT3D(#63,#62,#64);
#66= IFCPLANE(#65);
#67= IFCHALFSPACESOLID(#66,.T.);
#68= IFCBOOLEANCLIPPINGRESULT(.DIFFERENCE.,#61,#67);
#69= IFCSHAPEREPRESENTATION(#12,'Body','Clipping',(#68));
#70= IFCPRODUCTDEFINITIONSHAPE($,$,(#69));
#71= IFCBEAM('1I4trItsH7fOC4YNeIAiX8',#44,'BEAM','IPE450','IPE450',#47,#70,'ID52137d52-df64-47a5-8304-897a122ac848');
#72= IFCLOCALPLACEMENT(#42,#46);
#73= IFCRECTANGLEPROFILEDEF(.AREA.,'PL36.6*102.3',#50,36.6,102.3);
#74= IFCDIRECTION((0.,0.,-1.));
#75= IFCCARTESIANPOINT((10411.1577820777,96.,-207.69999981));
#76= IFCAXIS2PLACEMENT3D(#75,#52,#74);
#77= IFCEXTRUDEDAREASOLID(#73,#76,#9,192.);
#78= IFCSHAPEREPRESENTATION(#12,'Body','SweptSolid',(#77));
#79= IFCPRODUCTDEFINITIONSHAPE($,$,(#78));
#80= IFCOPENINGELEMENT('3lT526y55BCP1dVM3M8exA',#5,$,$,'Recess',#72,#79,$);
#81= IFCRELVOIDSELEMENT('3k6QsnX8H5W8LfXtJRU_K0',#5,$,$,#71,#80);
#82= IFCPROPERTYSINGLEVALUE('FeatureSubTypes',$,$,$);
#83= IFCPROPERTYSINGLEVALUE('RectangleOpeningWidth',$,IFCPOSITIVELENGTHMEASURE(36.6),$);
#84= IFCPROPERTYSINGLEVALUE('RectangleOpeningHeight',$,IFCPOSITIVELENGTHMEASURE(102.3),$);
#85= IFCPROPERTYSINGLEVALUE('OpeningDiameter',$,$,$);
#86= IFCPROPERTYSET('2sZCJXDIXFfeBxsuyGbNLh',#5,'AISC_EM11_Pset_Opening/Cope',$,(#82,#83,#84,#85));
#87= IFCLOCALPLACEMENT(#42,#46);
#88= IFCCARTESIANPOINT((10411.1577820777,96.,207.69999981));
#89= IFCAXIS2PLACEMENT3D(#88,#52,#74);
#90= IFCEXTRUDEDAREASOLID(#73,#89,#9,192.);
#91= IFCSHAPEREPRESENTATION(#12,'Body','SweptSolid',(#90));
#92= IFCPRODUCTDEFINITIONSHAPE($,$,(#91));
#93= IFCOPENINGELEMENT('3p2l_Vb8TCQgwQGd87dECv',#5,$,$,'Recess',#87,#92,$);
#94= IFCRELVOIDSELEMENT('3$fFQ8ZsPCDwdEtoGj_dfF',#5,$,$,#71,#93);
#95= IFCLOCALPLACEMENT(#42,#46);
#96= IFCRECTANGLEPROFILEDEF(.AREA.,'PL53*155.5',#50,53.,155.5);
#97= IFCDIRECTION((2.73489999962567E-05,0.999999999626016,0.));
#98= IFCCARTESIANPOINT((-95.3012864963384,-95.9978736150842,199.5));
#99= IFCAXIS2PLACEMENT3D(#98,#97,#74);
#100= IFCEXTRUDEDAREASOLID(#96,#99,#9,192.28);
#101= IFCSHAPEREPRESENTATION(#12,'Body','SweptSolid',(#100));
#102= IFCPRODUCTDEFINITIONSHAPE($,$,(#101));
#103= IFCOPENINGELEMENT('2K71cQcxD5fB_tpJdm$jQ3',#5,$,$,'Recess',#95,#102,$);
#104= IFCRELVOIDSELEMENT('2WqxRxsHf78vNIg31XuOrE',#5,$,$,#71,#103);
#105= IFCPROPERTYSINGLEVALUE('RectangleOpeningWidth',$,IFCPOSITIVELENGTHMEASURE(53.),$);
#106= IFCPROPERTYSINGLEVALUE('RectangleOpeningHeight',$,IFCPOSITIVELENGTHMEASURE(155.5),$);
#107= IFCPROPERTYSET('3x3B$dDVv33hdxKCudXfDZ',#5,'AISC_EM11_Pset_Opening/Cope',$,(#82,#105,#106,#85));
#108= IFCCARTESIANPOINT((35997.7193562126,6242.99988941458,23150.));
#109= IFCDIRECTION((-2.64199999946868E-06,0.99999999999651,0.));
#110= IFCDIRECTION((-0.99999999999651,-2.6419999996574E-06,0.));
#111= IFCAXIS2PLACEMENT3D(#108,#109,#110);
#112= IFCLOCALPLACEMENT(#42,#111);
#113= IFCCIRCLEPROFILEDEF(.AREA.,$,#50,11.);
#114= IFCCARTESIANPOINT((0.,-0.0999999999999929,0.));
#115= IFCAXIS2PLACEMENT3D(#114,#8,#7);
#116= IFCEXTRUDEDAREASOLID(#113,#115,#9,14.8);
#117= IFCSHAPEREPRESENTATION(#12,'Body','SweptSolid',(#116));
#118= IFCREPRESENTATIONMAP(#10,#117);
#119= IFCCARTESIANPOINT((2.69210431724787E-10,0.,-49.9999999999854));
#120= IFCCARTESIANTRANSFORMATIONOPERATOR3D($,$,#119,$,$);
#121= IFCMAPPEDITEM(#118,#120);
#122= IFCCARTESIANPOINT((70.000000000764,0.,-49.9999999997308));
#123= IFCCARTESIANTRANSFORMATIONOPERATOR3D($,$,#122,$,$);
#124= IFCMAPPEDITEM(#118,#123);
#125= IFCCARTESIANPOINT((140.000000001251,0.,-49.9999999994761));
#126= IFCCARTESIANTRANSFORMATIONOPERATOR3D($,$,#125,$,$);
#127= IFCMAPPEDITEM(#118,#126);
#128= IFCCARTESIANPOINT((210.000000001739,0.,-49.9999999992215));
#129= IFCCARTESIANTRANSFORMATIONOPERATOR3D($,$,#128,$,$);
#130= IFCMAPPEDITEM(#118,#129);
#131= IFCCARTESIANPOINT((280.000000002226,0.,-49.9999999989668));
#132= IFCCARTESIANTRANSFORMATIONOPERATOR3D($,$,#131,$,$);
#133= IFCMAPPEDITEM(#118,#132);
#134= IFCCARTESIANPOINT((350.000000002714,0.,-49.9999999987122));
#135= IFCCARTESIANTRANSFORMATIONOPERATOR3D($,$,#134,$,$);
#136= IFCMAPPEDITEM(#118,#135);
#137= IFCCARTESIANPOINT((420.000000003201,0.,-49.9999999984575));
#138= IFCCARTESIANTRANSFORMATIONOPERATOR3D($,$,#137,$,$);
#139= IFCMAPPEDITEM(#118,#138);
#140= IFCCARTESIANPOINT((-2.7648638933897E-10,0.,49.9999999999845));
#141= IFCCARTESIANTRANSFORMATIONOPERATOR3D($,$,#140,$,$);
#142= IFCMAPPEDITEM(#118,#141);
#143= IFCCARTESIANPOINT((70.0000000002183,0.,50.0000000002392));
#144= IFCCARTESIANTRANSFORMATIONOPERATOR3D($,$,#143,$,$);
#145= IFCMAPPEDITEM(#118,#144);
#146= IFCCARTESIANPOINT((140.000000000706,0.,50.0000000004939));
#147= IFCCARTESIANTRANSFORMATIONOPERATOR3D($,$,#146,$,$);
#148= IFCMAPPEDITEM(#118,#147);
#149= IFCCARTESIANPOINT((210.000000001193,0.,50.0000000007485));
#150= IFCCARTESIANTRANSFORMATIONOPERATOR3D($,$,#149,$,$);
#151= IFCMAPPEDITEM(#118,#150);
#152= IFCCARTESIANPOINT((280.000000001681,0.,50.0000000010032));
#153= IFCCARTESIANTRANSFORMATIONOPERATOR3D($,$,#152,$,$);
#154= IFCMAPPEDITEM(#118,#153);
#155= IFCCARTESIANPOINT((350.000000002168,0.,50.0000000012578));
#156= IFCCARTESIANTRANSFORMATIONOPERATOR3D($,$,#155,$,$);
#157= IFCMAPPEDITEM(#118,#156);
#158= IFCCARTESIANPOINT((420.000000002656,0.,50.0000000015125));
#159= IFCCARTESIANTRANSFORMATIONOPERATOR3D($,$,#158,$,$);
#160= IFCMAPPEDITEM(#118,#159);
#161= IFCSHAPEREPRESENTATION(#12,'Body','MappedRepresentation',(#121,#124,#127,#130,#133,#136,#139,#142,#145,#148,#151,#154,#157,#160));
#162= IFCPRODUCTDEFINITIONSHAPE($,$,(#161));
#163= IFCOPENINGELEMENT('0icEIcLUL9YwxwhtOX8I67',#5,$,$,'Opening',#112,#162,$);
#164= IFCRELVOIDSELEMENT('3ldZmdQP9B6OI1iXBNHPy_',#5,'Drill Hole',$,#71,#163);
#165= IFCPROPERTYSINGLEVALUE('FeatureSubTypes',$,IFCLABEL('TORNILLO'),$);
#166= IFCPROPERTYSINGLEVALUE('RectangleOpeningWidth',$,$,$);
#167= IFCPROPERTYSINGLEVALUE('RectangleOpeningHeight',$,$,$);
#168= IFCPROPERTYSET('1H1XdFmnHAJhI7Xb4t09RM',#5,'AISC_EM11_Pset_Opening/Cope',$,(#165,#166,#167,#85));
#169= IFCCARTESIANPOINT((35997.7193562126,6242.99988941458,23600.));
#170= IFCDIRECTION((2.64199999946868E-06,-0.99999999999651,0.));
#171= IFCAXIS2PLACEMENT3D(#169,#170,#110);
#172= IFCLOCALPLACEMENT(#42,#171);
#173= IFCSHAPEREPRESENTATION(#12,'Body','MappedRepresentation',(#142,#145,#148,#151,#154,#157,#160,#121,#124,#127,#130,#133,#136,#139));
#174= IFCPRODUCTDEFINITIONSHAPE($,$,(#173));
#175= IFCOPENINGELEMENT('3O2kPdC2vFBgD2XYvZOXX7',#5,$,$,'Opening',#172,#174,$);
#176= IFCRELVOIDSELEMENT('0aLh6YL417GADkfQfj9P9_',#5,'Drill Hole',$,#71,#175);
#177= IFCCARTESIANPOINT((25700.1606437874,6242.99988941458,23150.));
#178= IFCDIRECTION((-2.64199999946868E-06,-0.99999999999651,0.));
#179= IFCDIRECTION((0.99999999999651,-2.6419999996574E-06,0.));
#180= IFCAXIS2PLACEMENT3D(#177,#178,#179);
#181= IFCLOCALPLACEMENT(#42,#180);
#182= IFCSHAPEREPRESENTATION(#12,'Body','MappedRepresentation',(#142,#145,#148,#151,#154,#157,#160,#121,#124,#127,#130,#133,#136,#139));
#183= IFCPRODUCTDEFINITIONSHAPE($,$,(#182));
#184= IFCOPENINGELEMENT('2sT9Zn94T6kvVaithwB7JP',#5,$,$,'Opening',#181,#183,$);
#185= IFCRELVOIDSELEMENT('0se7Y2T7DAjB55iyIyx8cH',#5,'Drill Hole',$,#71,#184);
#186= IFCCARTESIANPOINT((25700.1606437874,6242.99988941458,23600.));
#187= IFCDIRECTION((2.64199999946868E-06,0.99999999999651,0.));
#188= IFCAXIS2PLACEMENT3D(#186,#187,#179);
#189= IFCLOCALPLACEMENT(#42,#188);
#190= IFCSHAPEREPRESENTATION(#12,'Body','MappedRepresentation',(#121,#124,#127,#130,#133,#136,#139,#142,#145,#148,#151,#154,#157,#160));
#191= IFCPRODUCTDEFINITIONSHAPE($,$,(#190));
#192= IFCOPENINGELEMENT('0ZvkmJkOn2ew37BC$_j8MB',#5,$,$,'Opening',#189,#191,$);
#193= IFCRELVOIDSELEMENT('1MDJT8R2LBnA6J3wzVhllH',#5,'Drill Hole',$,#71,#192);
#194= IFCCARTESIANPOINT((36037.717086792,6242.99988941458,23555.));
#195= IFCAXIS2PLACEMENT3D(#194,#53,#74);
#196= IFCLOCALPLACEMENT(#42,#195);
#197= IFCCIRCLEPROFILEDEF(.AREA.,$,#50,11.5);
#198= IFCCARTESIANPOINT((0.,-4.79999980949979,0.));
#199= IFCAXIS2PLACEMENT3D(#198,#8,#7);
#200= IFCEXTRUDEDAREASOLID(#197,#199,#9,9.6);
#201= IFCSHAPEREPRESENTATION(#12,'Body','SweptSolid',(#200));
#202= IFCREPRESENTATIONMAP(#10,#201);
#203= IFCCARTESIANPOINT((40.,0.,40.));
#204= IFCCARTESIANTRANSFORMATIONOPERATOR3D($,$,#203,$,$);
#205= IFCMAPPEDITEM(#202,#204);
#206= IFCCARTESIANPOINT((110.,0.,40.));
#207= IFCCARTESIANTRANSFORMATIONOPERATOR3D($,$,#206,$,$);
#208= IFCMAPPEDITEM(#202,#207);
#209= IFCCARTESIANPOINT((180.,0.,40.));
#210= IFCCARTESIANTRANSFORMATIONOPERATOR3D($,$,#209,$,$);
#211= IFCMAPPEDITEM(#202,#210);
#212= IFCCARTESIANPOINT((250.,0.,40.));
#213= IFCCARTESIANTRANSFORMATIONOPERATOR3D($,$,#212,$,$);
#214= IFCMAPPEDITEM(#202,#213);
#215= IFCCARTESIANPOINT((320.,0.,40.));
#216= IFCCARTESIANTRANSFORMATIONOPERATOR3D($,$,#215,$,$);
#217= IFCMAPPEDITEM(#202,#216);
#218= IFCSHAPEREPRESENTATION(#12,'Body','MappedRepresentation',(#205,#208,#211,#214,#217));
#219= IFCPRODUCTDEFINITIONSHAPE($,$,(#218));
#220= IFCOPENINGELEMENT('0awb6c4tH4BPVsvSlZxZAn',#5,$,$,'Opening',#196,#219,$);
#221= IFCRELVOIDSELEMENT('3UHz2kO1rBMOdMeKT1S2jW',#5,'Drill Hole',$,#71,#220);
#222= IFCCARTESIANPOINT((25660.1606436697,6242.99569134185,23555.));
#223= IFCAXIS2PLACEMENT3D(#222,#62,#74);
#224= IFCLOCALPLACEMENT(#42,#223);
#225= IFCCARTESIANPOINT((0.,-4.79470777854409,0.));
#226= IFCAXIS2PLACEMENT3D(#225,#8,#7);
#227= IFCEXTRUDEDAREASOLID(#197,#226,#9,9.6);
#228= IFCSHAPEREPRESENTATION(#12,'Body','SweptSolid',(#227));
#229= IFCREPRESENTATIONMAP(#10,#228);
#230= IFCMAPPEDITEM(#229,#204);
#231= IFCMAPPEDITEM(#229,#207);
#232= IFCMAPPEDITEM(#229,#210);
#233= IFCMAPPEDITEM(#229,#213);
#234= IFCMAPPEDITEM(#229,#216);
#235= IFCSHAPEREPRESENTATION(#12,'Body','MappedRepresentation',(#230,#231,#232,#233,#234));
#236= IFCPRODUCTDEFINITIONSHAPE($,$,(#235));
#237= IFCOPENINGELEMENT('2Vj3wf2655HhuPjY_JF98S',#5,$,$,'Opening',#224,#236,$);
#238= IFCRELVOIDSELEMENT('2zgP8hWSPB1x58AzaIEfXu',#5,'Drill Hole',$,#71,#237);
#239= IFCPROPERTYSINGLEVALUE('PieceMark',$,IFCIDENTIFIER('BEAM'),$);
#240= IFCPROPERTYSINGLEVALUE('IndicationMark',$,IFCIDENTIFIER('b/274'),$);
#241= IFCPROPERTYSINGLEVALUE('PrelimMark',$,IFCIDENTIFIER(''),$);
#242= IFCPROPERTYSINGLEVALUE('MainPieceTag',$,IFCBOOLEAN(.T.),$);
#243= IFCPROPERTYSET('2cqwK1zq5C$fnA2onp7Pzy',#5,'AISC_EM11_Pset_PieceIdentification','PieceIdentity',(#239,#240,#241,#242));
#244= IFCPROPERTYSINGLEVALUE('MaterialType',$,IFCIDENTIFIER('STEEL'),$);
#245= IFCPROPERTYSINGLEVALUE('MaterialGrade',$,IFCIDENTIFIER('S235JR'),$);
#246= IFCPROPERTYSET('102vFO9Vz1NgV9O2YBc1At',#5,'AISC_EM11_Pset_Material',$,(#244,#245));
#247= IFCPROPERTYSINGLEVALUE('SkewedAngleY',$,IFCREAL(0.),$);
#248= IFCPROPERTYSINGLEVALUE('SkewedAngleX',$,IFCREAL(0.00157),$);
#249= IFCPROPERTYSET('2yfwfTC4H1wP3KBqIn$df7',#5,'AISC_EM11_Pset_SkewedEnd',$,(#247,#248));
#250= IFCPROPERTYSINGLEVALUE('SkewedAngleX',$,IFCREAL(0.),$);
#251= IFCPROPERTYSET('3HrDL2zd91phVW7no5VFc7',#5,'AISC_EM11_Pset_SkewedEnd_2',$,(#247,#250));
#252= IFCMATERIAL('STEEL/S235JR');
#253= IFCRELAGGREGATES('3NwZ9ExOfAtvXU2gwNQzqY',#5,$,$,#37,(#39));
#254= IFCRELAGGREGATES('2fCrRWDgxS9BpmKyCfiF6q',#5,$,$,#39,(#41));
#255= IFCRELAGGREGATES('2vJXW_fn1Ctvf4Xa06vDBk',#5,$,$,#41,(#43));
#256= IFCRELCONTAINEDINSPATIALSTRUCTURE('1qgtDrM6H6zObfm4fQW9YS',#5,$,$,(#71),#43);
#257= IFCRELDEFINESBYPROPERTIES('1I73CKEZ14fhDoQF$6cZOI',#5,$,$,(#93,#80),#86);
#258= IFCRELDEFINESBYPROPERTIES('25RpTbeor54uJ1s_LQc4As',#5,$,$,(#103),#107);
#259= IFCRELDEFINESBYPROPERTIES('3uAJ9D9BDCSBbRRj9Rj0mu',#5,$,$,(#237,#220,#192,#184,#175,#163),#168);
#260= IFCRELDEFINESBYPROPERTIES('3yzcTB_Qb9gAKmqJX$P5Np',#5,$,$,(#71),#243);
#261= IFCRELDEFINESBYPROPERTIES('0zfMfGHdH7UOp$_zc3RANa',#5,$,$,(#71),#246);
#262= IFCRELDEFINESBYPROPERTIES('1qKrSYBRv3OQvJvNtV1n57',#5,$,$,(#71),#249);
#263= IFCRELDEFINESBYPROPERTIES('0kClH6jjz50uZjZqjK9rqb',#5,$,$,(#71),#251);
#264= IFCRELASSOCIATESMATERIAL('2EQkxf28L4HwMVwU8N146i',#5,$,$,(#71),#252);
ENDSEC;

END-ISO-10303-21;
