ISO-10303-21;
HEADER;
FILE_DESCRIPTION(('ViewDefinition[AISC_Steel_Detailing]', 'Option [BaseQuantities:Off]', 'Option [GridExport:On]', 'Option [Assemblies:Off]', 'Option [Bolts:On]', 'Option [Rebars:On]', 'Option [PourObjects:Off]', 'Option [Welds:On]', 'Option [SurfaceTreatments:On]', 'Option [LocationBy:0]', 'Option [ViewColors:Off]', 'Option [SectionedSpine:Off]', 'Option [PropertySets:On]', 'Option [Export all:Off]'),'2;1');
FILE_NAME('b_281_Qty_1.ifc','2026-05-16T11:53:12',('GIOVANNIPC\\gcorrea'),('Structural Designer'),'IFC Database version: Work','Tekla Structures 2020 Service Pack 5, IFC Export Version: 4.0.0.0 Dec  7 2020','');
FILE_SCHEMA(('IFC2X3'));
ENDSEC;

DATA;
#1= IFCPERSON('GIOVANNIPC\\gcorrea','Undefined',$,$,$,$,$,$);
#2= IFCORGANIZATION($,'Trimble Solutions Corporation',$,$,$);
#3= IFCPERSONANDORGANIZATION(#1,#2,$);
#4= IFCAPPLICATION(#2,'2020 Service Pack 5','Tekla Structures','Multi material modeling');
#5= IFCOWNERHISTORY(#3,#4,$,.NOCHANGE.,$,$,$,1778950392);
#6= IFCCARTESIANPOINT((0.,0.,0.));
#7= IFCDIRECTION((1.,0.,0.));
#8= IFCDIRECTION((0.,1.,0.));
#9= IFCDIRECTION((0.,0.,1.));
#10= IFCAXIS2PLACEMENT3D(#6,#9,#7);
#11= IFCGEOMETRICREPRESENTATIONCONTEXT($,'Model',3,1.E-05,#10,$);
#12= IFCGEOMETRICREPRESENTATIONSUBCONTEXT('Body','Model',*,*,*,*,#11,$,.MODEL_VIEW.,$);
#13= IFCGEOMETRICREPRESENTATIONSUBCONTEXT('Axis','Model',*,*,*,*,#11,$,.GRAPH_VIEW.,$);
#14= IFCGEOMETRICREPRESENTATIONSUBCONTEXT('FootPrint','Model',*,*,*,*,#11,$,.MODEL_VIEW.,$);
#15= IFCSIUNIT(*,.LENGTHUNIT.,.MILLI.,.METRE.);
#16= IFCMEASUREWITHUNIT(IFCRATIOMEASURE(304.8),#15);
#17= IFCDIMENSIONALEXPONENTS(1,0,0,0,0,0,0);
#18= IFCCONVERSIONBASEDUNIT(#17,.LENGTHUNIT.,'FOOT',#16);
#19= IFCSIUNIT(*,.AREAUNIT.,$,.SQUARE_METRE.);
#20= IFCMEASUREWITHUNIT(IFCRATIOMEASURE(0.09290304),#19);
#21= IFCDIMENSIONALEXPONENTS(2,0,0,0,0,0,0);
#22= IFCCONVERSIONBASEDUNIT(#21,.AREAUNIT.,'SQUARE FOOT',#20);
#23= IFCSIUNIT(*,.VOLUMEUNIT.,$,.CUBIC_METRE.);
#24= IFCMEASUREWITHUNIT(IFCRATIOMEASURE(0.028316846592),#23);
#25= IFCDIMENSIONALEXPONENTS(3,0,0,0,0,0,0);
#26= IFCCONVERSIONBASEDUNIT(#25,.VOLUMEUNIT.,'CUBIC FOOT',#24);
#27= IFCSIUNIT(*,.MASSUNIT.,.KILO.,.GRAM.);
#28= IFCSIUNIT(*,.TIMEUNIT.,$,.SECOND.);
#29= IFCSIUNIT(*,.PLANEANGLEUNIT.,$,.RADIAN.);
#30= IFCMEASUREWITHUNIT(IFCRATIOMEASURE(0.0174532925199433),#29);
#31= IFCDIMENSIONALEXPONENTS(0,0,0,0,0,0,0);
#32= IFCCONVERSIONBASEDUNIT(#31,.PLANEANGLEUNIT.,'DEGREE',#30);
#33= IFCSIUNIT(*,.SOLIDANGLEUNIT.,$,.STERADIAN.);
#34= IFCSIUNIT(*,.THERMODYNAMICTEMPERATUREUNIT.,$,.DEGREE_CELSIUS.);
#35= IFCSIUNIT(*,.LUMINOUSINTENSITYUNIT.,$,.LUMEN.);
#36= IFCUNITASSIGNMENT((#15,#19,#23,#27,#28,#29,#33,#34,#35));
#37= IFCPROJECT('2G7ZFDNE16yBDU14FA92Me',#5,'Proyecto',$,$,$,$,(#11),#36);
#38= IFCLOCALPLACEMENT($,#10);
#39= IFCSITE('2xvEzEinjBTea80yOTcujY',#5,'Obra',$,$,#38,$,$,.ELEMENT.,$,$,$,$,$);
#40= IFCLOCALPLACEMENT(#38,#10);
#41= IFCBUILDING('1jvTOL1UP0BfBpPSrJjmiS',#5,'Undefined',$,$,#40,$,$,.ELEMENT.,$,$,$);
#42= IFCLOCALPLACEMENT(#40,#10);
#43= IFCBUILDINGSTOREY('29hdEUCErFze9E_VIAceOd',#5,'Undefined',$,$,#42,$,$,.ELEMENT.,0.);
#44= IFCOWNERHISTORY(#3,#4,$,.NOCHANGE.,$,$,$,1775595600);
#45= IFCCARTESIANPOINT((76645.0001831055,1603.38125423697,23375.));
#46= IFCAXIS2PLACEMENT3D(#45,#9,#7);
#47= IFCLOCALPLACEMENT(#42,#46);
#48= IFCDIRECTION((1.,0.));
#49= IFCCARTESIANPOINT((0.,0.));
#50= IFCAXIS2PLACEMENT2D(#49,#48);
#51= IFCISHAPEPROFILEDEF(.AREA.,'IPE450',#50,190.,450.,9.399999619,14.60000038,21.);
#52= IFCDIRECTION((0.,-1.,0.));
#53= IFCDIRECTION((-1.,0.,0.));
#54= IFCCARTESIANPOINT((8091.00707640985,0.,0.));
#55= IFCAXIS2PLACEMENT3D(#54,#53,#52);
#56= IFCEXTRUDEDAREASOLID(#51,#55,#9,8098.51);
#57= IFCCARTESIANPOINT((8091.00707065283,3.00000010611257E-07,-325.));
#58= IFCAXIS2PLACEMENT3D(#57,#53,#8);
#59= IFCPLANE(#58);
#60= IFCHALFSPACESOLID(#59,.T.);
#61= IFCBOOLEANCLIPPINGRESULT(.DIFFERENCE.,#56,#60);
#62= IFCCARTESIANPOINT((-7.50018310546875,-3.00000010611257E-07,-325.));
#63= IFCAXIS2PLACEMENT3D(#62,#7,#52);
#64= IFCPLANE(#63);
#65= IFCHALFSPACESOLID(#64,.T.);
#66= IFCBOOLEANCLIPPINGRESULT(.DIFFERENCE.,#61,#65);
#67= IFCSHAPEREPRESENTATION(#12,'Body','Clipping',(#66));
#68= IFCPRODUCTDEFINITIONSHAPE($,$,(#67));
#69= IFCBEAM('0T8_XYbh1D_xG1KejnLl1o',#44,'BEAM','IPE450','IPE450',#47,#68,'ID1d23e862-96b0-4dfb-b401-528b7156f072');
#70= IFCLOCALPLACEMENT(#42,#46);
#71= IFCRECTANGLEPROFILEDEF(.AREA.,'PL107.9*12',#50,12.,107.9);
#72= IFCDIRECTION((0.,0.,-1.));
#73= IFCCARTESIANPOINT((8097.00344251229,-42.0462052641853,226.));
#74= IFCAXIS2PLACEMENT3D(#73,#72,#53);
#75= IFCEXTRUDEDAREASOLID(#71,#74,#9,452.);
#76= IFCSHAPEREPRESENTATION(#12,'Body','SweptSolid',(#75));
#77= IFCPRODUCTDEFINITIONSHAPE($,$,(#76));
#78= IFCOPENINGELEMENT('2Qzw3hM6X3$B2GjFUged3j',#5,$,$,'Recess',#70,#77,$);
#79= IFCRELVOIDSELEMENT('1W79Kut$57zfGR3D8v9ARE',#5,$,$,#69,#78);
#80= IFCPROPERTYSINGLEVALUE('FeatureSubTypes',$,$,$);
#81= IFCPROPERTYSINGLEVALUE('RectangleOpeningWidth',$,IFCPOSITIVELENGTHMEASURE(12.),$);
#82= IFCPROPERTYSINGLEVALUE('RectangleOpeningHeight',$,IFCPOSITIVELENGTHMEASURE(107.9),$);
#83= IFCPROPERTYSINGLEVALUE('OpeningDiameter',$,$,$);
#84= IFCPROPERTYSET('1lW3e$Zyr0QQMsRHL4dFCP',#5,'AISC_EM11_Pset_Opening/Cope',$,(#80,#81,#82,#83));
#85= IFCLOCALPLACEMENT(#42,#46);
#86= IFCRECTANGLEPROFILEDEF(.AREA.,'PL108.1*12',#50,12.,108.1);
#87= IFCCARTESIANPOINT((8097.0034450323,41.9539161005571,226.));
#88= IFCAXIS2PLACEMENT3D(#87,#72,#53);
#89= IFCEXTRUDEDAREASOLID(#86,#88,#9,452.);
#90= IFCSHAPEREPRESENTATION(#12,'Body','SweptSolid',(#89));
#91= IFCPRODUCTDEFINITIONSHAPE($,$,(#90));
#92= IFCOPENINGELEMENT('23rn_NaIb9lxZ2Hg7ULnnM',#5,$,$,'Recess',#85,#91,$);
#93= IFCRELVOIDSELEMENT('3SW1ioQOzD3eWxu_7einpU',#5,$,$,#69,#92);
#94= IFCPROPERTYSINGLEVALUE('RectangleOpeningHeight',$,IFCPOSITIVELENGTHMEASURE(108.1),$);
#95= IFCPROPERTYSET('31HTInhpb4O8TMn02_dp1P',#5,'AISC_EM11_Pset_Opening/Cope',$,(#80,#81,#94,#83));
#96= IFCCARTESIANPOINT((84696.0126004331,1603.95549542573,23160.));
#97= IFCDIRECTION((-7.12890000286279E-05,0.999999997458939,0.));
#98= IFCDIRECTION((-0.999999997458939,-7.12890000326365E-05,0.));
#99= IFCAXIS2PLACEMENT3D(#96,#97,#98);
#100= IFCLOCALPLACEMENT(#42,#99);
#101= IFCCIRCLEPROFILEDEF(.AREA.,$,#50,11.5);
#102= IFCCARTESIANPOINT((0.,-10.1,0.));
#103= IFCAXIS2PLACEMENT3D(#102,#8,#7);
#104= IFCEXTRUDEDAREASOLID(#101,#103,#9,14.8);
#105= IFCSHAPEREPRESENTATION(#12,'Body','SweptSolid',(#104));
#106= IFCREPRESENTATIONMAP(#10,#105);
#107= IFCCARTESIANPOINT((-1.45519152283669E-10,0.,-49.9999999999934));
#108= IFCCARTESIANTRANSFORMATIONOPERATOR3D($,$,#107,$,$);
#109= IFCMAPPEDITEM(#106,#108);
#110= IFCCARTESIANPOINT((69.9999999990832,0.,-49.9999999995478));
#111= IFCCARTESIANTRANSFORMATIONOPERATOR3D($,$,#110,$,$);
#112= IFCMAPPEDITEM(#106,#111);
#113= IFCCARTESIANPOINT((139.999999998297,0.,-49.9999999991021));
#114= IFCCARTESIANTRANSFORMATIONOPERATOR3D($,$,#113,$,$);
#115= IFCMAPPEDITEM(#106,#114);
#116= IFCCARTESIANPOINT((209.999999997526,0.,-49.9999999986564));
#117= IFCCARTESIANTRANSFORMATIONOPERATOR3D($,$,#116,$,$);
#118= IFCMAPPEDITEM(#106,#117);
#119= IFCCARTESIANPOINT((279.999999996755,0.,-49.9999999982108));
#120= IFCCARTESIANTRANSFORMATIONOPERATOR3D($,$,#119,$,$);
#121= IFCMAPPEDITEM(#106,#120);
#122= IFCCARTESIANPOINT((349.999999995984,0.,-49.9999999977651));
#123= IFCCARTESIANTRANSFORMATIONOPERATOR3D($,$,#122,$,$);
#124= IFCMAPPEDITEM(#106,#123);
#125= IFCCARTESIANPOINT((419.999999995212,0.,-49.9999999973195));
#126= IFCCARTESIANTRANSFORMATIONOPERATOR3D($,$,#125,$,$);
#127= IFCMAPPEDITEM(#106,#126);
#128= IFCCARTESIANPOINT((1.74622982740402E-10,0.,49.9999999999932));
#129= IFCCARTESIANTRANSFORMATIONOPERATOR3D($,$,#128,$,$);
#130= IFCMAPPEDITEM(#106,#129);
#131= IFCCARTESIANPOINT((69.9999999994034,0.,50.0000000004388));
#132= IFCCARTESIANTRANSFORMATIONOPERATOR3D($,$,#131,$,$);
#133= IFCMAPPEDITEM(#106,#132);
#134= IFCCARTESIANPOINT((139.999999998618,0.,50.0000000008845));
#135= IFCCARTESIANTRANSFORMATIONOPERATOR3D($,$,#134,$,$);
#136= IFCMAPPEDITEM(#106,#135);
#137= IFCCARTESIANPOINT((209.999999997846,0.,50.0000000013301));
#138= IFCCARTESIANTRANSFORMATIONOPERATOR3D($,$,#137,$,$);
#139= IFCMAPPEDITEM(#106,#138);
#140= IFCCARTESIANPOINT((279.999999997075,0.,50.0000000017756));
#141= IFCCARTESIANTRANSFORMATIONOPERATOR3D($,$,#140,$,$);
#142= IFCMAPPEDITEM(#106,#141);
#143= IFCCARTESIANPOINT((349.999999996304,0.,50.0000000022214));
#144= IFCCARTESIANTRANSFORMATIONOPERATOR3D($,$,#143,$,$);
#145= IFCMAPPEDITEM(#106,#144);
#146= IFCCARTESIANPOINT((419.999999995533,0.,50.0000000026671));
#147= IFCCARTESIANTRANSFORMATIONOPERATOR3D($,$,#146,$,$);
#148= IFCMAPPEDITEM(#106,#147);
#149= IFCSHAPEREPRESENTATION(#12,'Body','MappedRepresentation',(#109,#112,#115,#118,#121,#124,#127,#130,#133,#136,#139,#142,#145,#148));
#150= IFCPRODUCTDEFINITIONSHAPE($,$,(#149));
#151= IFCOPENINGELEMENT('2hWCIYLGD5SO2_j4$Vmx4S',#5,$,$,'Opening',#100,#150,$);
#152= IFCRELVOIDSELEMENT('1mRTBstBH8ThjsK1JU5Ago',#5,'Drill Hole',$,#69,#151);
#153= IFCPROPERTYSINGLEVALUE('FeatureSubTypes',$,IFCLABEL('TORNILLO'),$);
#154= IFCPROPERTYSINGLEVALUE('RectangleOpeningWidth',$,$,$);
#155= IFCPROPERTYSINGLEVALUE('RectangleOpeningHeight',$,$,$);
#156= IFCPROPERTYSET('1zmPI2g618AwVISuJ4mB4D',#5,'AISC_EM11_Pset_Opening/Cope',$,(#153,#154,#155,#83));
#157= IFCCARTESIANPOINT((76675.,1603.38125393697,23150.));
#158= IFCDIRECTION((0.00119919599995774,-0.999999280964218,0.));
#159= IFCDIRECTION((0.999999280964218,0.00119919599995715,0.));
#160= IFCAXIS2PLACEMENT3D(#157,#158,#159);
#161= IFCLOCALPLACEMENT(#42,#160);
#162= IFCCIRCLEPROFILEDEF(.AREA.,$,#50,12.5);
#163= IFCCARTESIANPOINT((0.,-0.0999999999999929,0.));
#164= IFCAXIS2PLACEMENT3D(#163,#8,#7);
#165= IFCEXTRUDEDAREASOLID(#162,#164,#9,14.8);
#166= IFCSHAPEREPRESENTATION(#12,'Body','SweptSolid',(#165));
#167= IFCREPRESENTATIONMAP(#10,#166);
#168= IFCMAPPEDITEM(#167,#129);
#169= IFCMAPPEDITEM(#167,#132);
#170= IFCMAPPEDITEM(#167,#135);
#171= IFCMAPPEDITEM(#167,#138);
#172= IFCMAPPEDITEM(#167,#141);
#173= IFCMAPPEDITEM(#167,#144);
#174= IFCMAPPEDITEM(#167,#147);
#175= IFCMAPPEDITEM(#167,#108);
#176= IFCMAPPEDITEM(#167,#111);
#177= IFCMAPPEDITEM(#167,#114);
#178= IFCMAPPEDITEM(#167,#117);
#179= IFCMAPPEDITEM(#167,#120);
#180= IFCMAPPEDITEM(#167,#123);
#181= IFCMAPPEDITEM(#167,#126);
#182= IFCSHAPEREPRESENTATION(#12,'Body','MappedRepresentation',(#168,#169,#170,#171,#172,#173,#174,#175,#176,#177,#178,#179,#180,#181));
#183= IFCPRODUCTDEFINITIONSHAPE($,$,(#182));
#184= IFCOPENINGELEMENT('2HbkpMrK5EYRoQnlq$mthn',#5,$,$,'Opening',#161,#183,$);
#185= IFCRELVOIDSELEMENT('2OQ0CFrlnB3w4IT8lY0geB',#5,'Drill Hole',$,#69,#184);
#186= IFCCARTESIANPOINT((76675.,1603.38125393697,23600.));
#187= IFCDIRECTION((-0.00119919599995774,0.999999280964218,0.));
#188= IFCAXIS2PLACEMENT3D(#186,#187,#159);
#189= IFCLOCALPLACEMENT(#42,#188);
#190= IFCSHAPEREPRESENTATION(#12,'Body','MappedRepresentation',(#175,#176,#177,#178,#179,#180,#181,#168,#169,#170,#171,#172,#173,#174));
#191= IFCPRODUCTDEFINITIONSHAPE($,$,(#190));
#192= IFCOPENINGELEMENT('2opRbuNOD1Pv8ZO78KLeu5',#5,$,$,'Opening',#189,#191,$);
#193= IFCRELVOIDSELEMENT('3ogCe7YiX1mwLlmAaCvqtI',#5,'Drill Hole',$,#69,#192);
#194= IFCCARTESIANPOINT((76635.,1603.38125423697,23600.));
#195= IFCAXIS2PLACEMENT3D(#194,#7,#72);
#196= IFCLOCALPLACEMENT(#42,#195);
#197= IFCCARTESIANPOINT((0.,-4.79999890950271,0.));
#198= IFCAXIS2PLACEMENT3D(#197,#8,#7);
#199= IFCEXTRUDEDAREASOLID(#101,#198,#9,9.6);
#200= IFCSHAPEREPRESENTATION(#12,'Body','SweptSolid',(#199));
#201= IFCREPRESENTATIONMAP(#10,#200);
#202= IFCCARTESIANPOINT((85.,0.,40.));
#203= IFCCARTESIANTRANSFORMATIONOPERATOR3D($,$,#202,$,$);
#204= IFCMAPPEDITEM(#201,#203);
#205= IFCCARTESIANPOINT((155.,0.,40.));
#206= IFCCARTESIANTRANSFORMATIONOPERATOR3D($,$,#205,$,$);
#207= IFCMAPPEDITEM(#201,#206);
#208= IFCCARTESIANPOINT((225.,0.,40.));
#209= IFCCARTESIANTRANSFORMATIONOPERATOR3D($,$,#208,$,$);
#210= IFCMAPPEDITEM(#201,#209);
#211= IFCCARTESIANPOINT((295.,0.,40.));
#212= IFCCARTESIANTRANSFORMATIONOPERATOR3D($,$,#211,$,$);
#213= IFCMAPPEDITEM(#201,#212);
#214= IFCCARTESIANPOINT((365.,0.,40.));
#215= IFCCARTESIANTRANSFORMATIONOPERATOR3D($,$,#214,$,$);
#216= IFCMAPPEDITEM(#201,#215);
#217= IFCSHAPEREPRESENTATION(#12,'Body','MappedRepresentation',(#204,#207,#210,#213,#216));
#218= IFCPRODUCTDEFINITIONSHAPE($,$,(#217));
#219= IFCOPENINGELEMENT('3O9fxVwArBFvBmz02oIv$D',#5,$,$,'Opening',#196,#218,$);
#220= IFCRELVOIDSELEMENT('1oCDoTjKvALRw0kZhMvS8Y',#5,'Drill Hole',$,#69,#219);
#221= IFCCARTESIANPOINT((84736.0072537583,1603.38149666646,23600.));
#222= IFCAXIS2PLACEMENT3D(#221,#53,#72);
#223= IFCLOCALPLACEMENT(#42,#222);
#224= IFCSHAPEREPRESENTATION(#12,'Body','MappedRepresentation',(#204,#207,#210,#213,#216));
#225= IFCPRODUCTDEFINITIONSHAPE($,$,(#224));
#226= IFCOPENINGELEMENT('3lMax5EbH5dRZLt_eagheQ',#5,$,$,'Opening',#223,#225,$);
#227= IFCRELVOIDSELEMENT('2Ua7E53XXA_AVNPwW2bERB',#5,'Drill Hole',$,#69,#226);
#228= IFCCARTESIANPOINT((84696.0126004331,1603.95549542573,23600.));
#229= IFCDIRECTION((7.12890000286279E-05,-0.999999997458939,0.));
#230= IFCAXIS2PLACEMENT3D(#228,#229,#98);
#231= IFCLOCALPLACEMENT(#42,#230);
#232= IFCEXTRUDEDAREASOLID(#101,#164,#9,14.8);
#233= IFCSHAPEREPRESENTATION(#12,'Body','SweptSolid',(#232));
#234= IFCREPRESENTATIONMAP(#10,#233);
#235= IFCMAPPEDITEM(#234,#108);
#236= IFCMAPPEDITEM(#234,#111);
#237= IFCMAPPEDITEM(#234,#114);
#238= IFCMAPPEDITEM(#234,#117);
#239= IFCMAPPEDITEM(#234,#120);
#240= IFCMAPPEDITEM(#234,#123);
#241= IFCMAPPEDITEM(#234,#126);
#242= IFCMAPPEDITEM(#234,#129);
#243= IFCMAPPEDITEM(#234,#132);
#244= IFCMAPPEDITEM(#234,#135);
#245= IFCMAPPEDITEM(#234,#138);
#246= IFCMAPPEDITEM(#234,#141);
#247= IFCMAPPEDITEM(#234,#144);
#248= IFCMAPPEDITEM(#234,#147);
#249= IFCSHAPEREPRESENTATION(#12,'Body','MappedRepresentation',(#235,#236,#237,#238,#239,#240,#241,#242,#243,#244,#245,#246,#247,#248));
#250= IFCPRODUCTDEFINITIONSHAPE($,$,(#249));
#251= IFCOPENINGELEMENT('3GjrEpGDX0awy3Vsf87p32',#5,$,$,'Opening',#231,#250,$);
#252= IFCRELVOIDSELEMENT('044sI8teHAwvp2Wg76LFg6',#5,'Drill Hole',$,#69,#251);
#253= IFCPROPERTYSINGLEVALUE('PieceMark',$,IFCIDENTIFIER('BEAM'),$);
#254= IFCPROPERTYSINGLEVALUE('IndicationMark',$,IFCIDENTIFIER('b/281'),$);
#255= IFCPROPERTYSINGLEVALUE('PrelimMark',$,IFCIDENTIFIER(''),$);
#256= IFCPROPERTYSINGLEVALUE('MainPieceTag',$,IFCBOOLEAN(.T.),$);
#257= IFCPROPERTYSET('1ls35z3rv9tQLO40axy4vN',#5,'AISC_EM11_Pset_PieceIdentification','PieceIdentity',(#253,#254,#255,#256));
#258= IFCPROPERTYSINGLEVALUE('MaterialType',$,IFCIDENTIFIER('STEEL'),$);
#259= IFCPROPERTYSINGLEVALUE('MaterialGrade',$,IFCIDENTIFIER('S235JR'),$);
#260= IFCPROPERTYSET('1vqG3BMkj9V9j8EcK7VN_v',#5,'AISC_EM11_Pset_Material',$,(#258,#259));
#261= IFCPROPERTYSINGLEVALUE('SkewedAngleY',$,IFCREAL(0.),$);
#262= IFCPROPERTYSINGLEVALUE('SkewedAngleX',$,IFCREAL(0.),$);
#263= IFCPROPERTYSET('11UeCd24H3dwyWkNKobLlt',#5,'AISC_EM11_Pset_SkewedEnd',$,(#261,#262));
#264= IFCPROPERTYSET('1TDnDbygP059tna_fwgiY3',#5,'AISC_EM11_Pset_SkewedEnd_2',$,(#261,#262));
#265= IFCMATERIAL('STEEL/S235JR');
#266= IFCRELAGGREGATES('39AulWpi5Ef8nhJoS6ffb6',#5,$,$,#37,(#39));
#267= IFCRELAGGREGATES('2RSA1o5_NWxQ3zb4kOxxtO',#5,$,$,#39,(#41));
#268= IFCRELAGGREGATES('0EQRWo0$9CjBpUpnLxQNrN',#5,$,$,#41,(#43));
#269= IFCRELCONTAINEDINSPATIALSTRUCTURE('3tRaymnNP4FhwVEsXp$jK_',#5,$,$,(#69),#43);
#270= IFCRELDEFINESBYPROPERTIES('3C3BjAMM16TO0qmG1lLtZA',#5,$,$,(#78),#84);
#271= IFCRELDEFINESBYPROPERTIES('2U49j8uzf9lgBmqZtqveeY',#5,$,$,(#92),#95);
#272= IFCRELDEFINESBYPROPERTIES('2QvkKxapH6XweJ6DQw0n9G',#5,$,$,(#251,#226,#219,#192,#184,#151),#156);
#273= IFCRELDEFINESBYPROPERTIES('2Jg8FMJwL6UveyctmtJmg2',#5,$,$,(#69),#257);
#274= IFCRELDEFINESBYPROPERTIES('1deQxUVSn1oxiwHpBYaeZB',#5,$,$,(#69),#260);
#275= IFCRELDEFINESBYPROPERTIES('2upa1ShirAGf8nWX3UQch_',#5,$,$,(#69),#263);
#276= IFCRELDEFINESBYPROPERTIES('0rYcwQJaX14RzB5UYaTYd1',#5,$,$,(#69),#264);
#277= IFCRELASSOCIATESMATERIAL('2I5hGVuibBmvbmhTqaYMhK',#5,$,$,(#69),#265);
ENDSEC;

END-ISO-10303-21;
