ISO-10303-21;
HEADER;
FILE_DESCRIPTION(('ViewDefinition[AISC_Steel_Detailing]', 'Option [BaseQuantities:Off]', 'Option [GridExport:On]', 'Option [Assemblies:Off]', 'Option [Bolts:On]', 'Option [Rebars:On]', 'Option [PourObjects:Off]', 'Option [Welds:On]', 'Option [SurfaceTreatments:On]', 'Option [LocationBy:0]', 'Option [ViewColors:Off]', 'Option [SectionedSpine:Off]', 'Option [PropertySets:On]', 'Option [Export all:Off]'),'2;1');
FILE_NAME('b_282_Qty_1.ifc','2026-05-16T11:53:12',('GIOVANNIPC\\gcorrea'),('Structural Designer'),'IFC Database version: Work','Tekla Structures 2020 Service Pack 5, IFC Export Version: 4.0.0.0 Dec  7 2020','');
FILE_SCHEMA(('IFC2X3'));
ENDSEC;

DATA;
#1= IFCPERSON('GIOVANNIPC\\gcorrea','Undefined',$,$,$,$,$,$);
#2= IFCORGANIZATION($,'Trimble Solutions Corporation',$,$,$);
#3= IFCPERSONANDORGANIZATION(#1,#2,$);
#4= IFCAPPLICATION(#2,'2020 Service Pack 5','Tekla Structures','Multi material modeling');
#5= IFCOWNERHISTORY(#3,#4,$,.NOCHANGE.,$,$,$,1778950392);
#6= IFCCARTESIANPOINT((0.,0.,0.));
#7= IFCDIRECTION((1.,0.,0.));
#8= IFCDIRECTION((0.,1.,0.));
#9= IFCDIRECTION((0.,0.,1.));
#10= IFCAXIS2PLACEMENT3D(#6,#9,#7);
#11= IFCGEOMETRICREPRESENTATIONCONTEXT($,'Model',3,1.E-05,#10,$);
#12= IFCGEOMETRICREPRESENTATIONSUBCONTEXT('Body','Model',*,*,*,*,#11,$,.MODEL_VIEW.,$);
#13= IFCGEOMETRICREPRESENTATIONSUBCONTEXT('Axis','Model',*,*,*,*,#11,$,.GRAPH_VIEW.,$);
#14= IFCGEOMETRICREPRESENTATIONSUBCONTEXT('FootPrint','Model',*,*,*,*,#11,$,.MODEL_VIEW.,$);
#15= IFCSIUNIT(*,.LENGTHUNIT.,.MILLI.,.METRE.);
#16= IFCMEASUREWITHUNIT(IFCRATIOMEASURE(304.8),#15);
#17= IFCDIMENSIONALEXPONENTS(1,0,0,0,0,0,0);
#18= IFCCONVERSIONBASEDUNIT(#17,.LENGTHUNIT.,'FOOT',#16);
#19= IFCSIUNIT(*,.AREAUNIT.,$,.SQUARE_METRE.);
#20= IFCMEASUREWITHUNIT(IFCRATIOMEASURE(0.09290304),#19);
#21= IFCDIMENSIONALEXPONENTS(2,0,0,0,0,0,0);
#22= IFCCONVERSIONBASEDUNIT(#21,.AREAUNIT.,'SQUARE FOOT',#20);
#23= IFCSIUNIT(*,.VOLUMEUNIT.,$,.CUBIC_METRE.);
#24= IFCMEASUREWITHUNIT(IFCRATIOMEASURE(0.028316846592),#23);
#25= IFCDIMENSIONALEXPONENTS(3,0,0,0,0,0,0);
#26= IFCCONVERSIONBASEDUNIT(#25,.VOLUMEUNIT.,'CUBIC FOOT',#24);
#27= IFCSIUNIT(*,.MASSUNIT.,.KILO.,.GRAM.);
#28= IFCSIUNIT(*,.TIMEUNIT.,$,.SECOND.);
#29= IFCSIUNIT(*,.PLANEANGLEUNIT.,$,.RADIAN.);
#30= IFCMEASUREWITHUNIT(IFCRATIOMEASURE(0.0174532925199433),#29);
#31= IFCDIMENSIONALEXPONENTS(0,0,0,0,0,0,0);
#32= IFCCONVERSIONBASEDUNIT(#31,.PLANEANGLEUNIT.,'DEGREE',#30);
#33= IFCSIUNIT(*,.SOLIDANGLEUNIT.,$,.STERADIAN.);
#34= IFCSIUNIT(*,.THERMODYNAMICTEMPERATUREUNIT.,$,.DEGREE_CELSIUS.);
#35= IFCSIUNIT(*,.LUMINOUSINTENSITYUNIT.,$,.LUMEN.);
#36= IFCUNITASSIGNMENT((#15,#19,#23,#27,#28,#29,#33,#34,#35));
#37= IFCPROJECT('2G7ZFDNE16yBDU14FA92Me',#5,'Proyecto',$,$,$,$,(#11),#36);
#38= IFCLOCALPLACEMENT($,#10);
#39= IFCSITE('2xvEzEinjBTea80yOTcujY',#5,'Obra',$,$,#38,$,$,.ELEMENT.,$,$,$,$,$);
#40= IFCLOCALPLACEMENT(#38,#10);
#41= IFCBUILDING('1YVaIpe6H2VwpLU8gyTlef',#5,'Undefined',$,$,#40,$,$,.ELEMENT.,$,$,$);
#42= IFCLOCALPLACEMENT(#40,#10);
#43= IFCBUILDINGSTOREY('29hdEUCErFze9E_VIAceOd',#5,'Undefined',$,$,#42,$,$,.ELEMENT.,0.);
#44= IFCOWNERHISTORY(#3,#4,$,.NOCHANGE.,$,$,$,1775664000);
#45= IFCCARTESIANPOINT((85273.9979858398,1603.38149265555,23380.));
#46= IFCAXIS2PLACEMENT3D(#45,#9,#7);
#47= IFCLOCALPLACEMENT(#42,#46);
#48= IFCDIRECTION((1.,0.));
#49= IFCCARTESIANPOINT((0.,0.));
#50= IFCAXIS2PLACEMENT2D(#49,#48);
#51= IFCISHAPEPROFILEDEF(.AREA.,'HEA450',#50,300.,440.,11.5,21.,27.);
#52= IFCDIRECTION((0.,-1.,0.));
#53= IFCDIRECTION((-1.,0.,0.));
#54= IFCCARTESIANPOINT((8083.00018310547,0.,0.));
#55= IFCAXIS2PLACEMENT3D(#54,#53,#52);
#56= IFCEXTRUDEDAREASOLID(#51,#55,#9,8093.01);
#57= IFCCARTESIANPOINT((-10.0052392352227,0.,-320.));
#58= IFCAXIS2PLACEMENT3D(#57,#7,#52);
#59= IFCPLANE(#58);
#60= IFCHALFSPACESOLID(#59,.T.);
#61= IFCBOOLEANCLIPPINGRESULT(.DIFFERENCE.,#56,#60);
#62= IFCSHAPEREPRESENTATION(#12,'Body','Clipping',(#61));
#63= IFCPRODUCTDEFINITIONSHAPE($,$,(#62));
#64= IFCBEAM('1so921sv54fQ65FZWYZPjH',#44,'BEAM','HEA450','HEA450',#47,#63,'ID76c89081-db91-44a5-a185-3e38228d9b51');
#65= IFCLOCALPLACEMENT(#42,#46);
#66= IFCRECTANGLEPROFILEDEF(.AREA.,'PL163.1*12',#50,12.,163.1);
#67= IFCDIRECTION((0.,0.,-1.));
#68= IFCCARTESIANPOINT((-16.0016125375405,69.4539184366286,221.));
#69= IFCAXIS2PLACEMENT3D(#68,#67,#7);
#70= IFCEXTRUDEDAREASOLID(#66,#69,#9,442.);
#71= IFCSHAPEREPRESENTATION(#12,'Body','SweptSolid',(#70));
#72= IFCPRODUCTDEFINITIONSHAPE($,$,(#71));
#73= IFCOPENINGELEMENT('1GGWNxTz52oeKHrb7CISv0',#5,$,$,'Recess',#65,#72,$);
#74= IFCRELVOIDSELEMENT('1oobFM_kz4bO0fnZ7L20pO',#5,$,$,#64,#73);
#75= IFCPROPERTYSINGLEVALUE('FeatureSubTypes',$,$,$);
#76= IFCPROPERTYSINGLEVALUE('RectangleOpeningWidth',$,IFCPOSITIVELENGTHMEASURE(12.),$);
#77= IFCPROPERTYSINGLEVALUE('RectangleOpeningHeight',$,IFCPOSITIVELENGTHMEASURE(163.1),$);
#78= IFCPROPERTYSINGLEVALUE('OpeningDiameter',$,$,$);
#79= IFCPROPERTYSET('2lez5HG5P3zfeDMI$DqxkQ',#5,'AISC_EM11_Pset_Opening/Cope',$,(#75,#76,#77,#78));
#80= IFCLOCALPLACEMENT(#42,#46);
#81= IFCRECTANGLEPROFILEDEF(.AREA.,'PL162.9*12',#50,12.,162.9);
#82= IFCCARTESIANPOINT((-16.0016125375405,-69.5460815633714,221.));
#83= IFCAXIS2PLACEMENT3D(#82,#67,#7);
#84= IFCEXTRUDEDAREASOLID(#81,#83,#9,442.);
#85= IFCSHAPEREPRESENTATION(#12,'Body','SweptSolid',(#84));
#86= IFCPRODUCTDEFINITIONSHAPE($,$,(#85));
#87= IFCOPENINGELEMENT('1tvEJerwDDr8mriGNMeGoe',#5,$,$,'Recess',#80,#86,$);
#88= IFCRELVOIDSELEMENT('3EsqlCjJr0deifPDVYBlUz',#5,$,$,#64,#87);
#89= IFCPROPERTYSINGLEVALUE('RectangleOpeningHeight',$,IFCPOSITIVELENGTHMEASURE(162.9),$);
#90= IFCPROPERTYSET('2o23cm8MLARw0$0rusvbDn',#5,'AISC_EM11_Pset_Opening/Cope',$,(#75,#76,#89,#78));
#91= IFCCARTESIANPOINT((93320.,1603.28920788778,23160.0000000696));
#92= IFCAXIS2PLACEMENT3D(#91,#8,#53);
#93= IFCLOCALPLACEMENT(#42,#92);
#94= IFCCIRCLEPROFILEDEF(.AREA.,$,#50,11.5);
#95= IFCCARTESIANPOINT((0.,-0.100000069594535,0.));
#96= IFCAXIS2PLACEMENT3D(#95,#8,#7);
#97= IFCEXTRUDEDAREASOLID(#94,#96,#9,21.2);
#98= IFCSHAPEREPRESENTATION(#12,'Body','SweptSolid',(#97));
#99= IFCREPRESENTATIONMAP(#10,#98);
#100= IFCCARTESIANPOINT((-2.3283064365387E-10,0.,75.));
#101= IFCCARTESIANTRANSFORMATIONOPERATOR3D($,$,#100,$,$);
#102= IFCMAPPEDITEM(#99,#101);
#103= IFCCARTESIANPOINT((74.9999999997672,0.,74.9999999995566));
#104= IFCCARTESIANTRANSFORMATIONOPERATOR3D($,$,#103,$,$);
#105= IFCMAPPEDITEM(#99,#104);
#106= IFCCARTESIANPOINT((149.999999999767,0.,74.9999999991132));
#107= IFCCARTESIANTRANSFORMATIONOPERATOR3D($,$,#106,$,$);
#108= IFCMAPPEDITEM(#99,#107);
#109= IFCCARTESIANPOINT((224.999999999767,0.,74.9999999986699));
#110= IFCCARTESIANTRANSFORMATIONOPERATOR3D($,$,#109,$,$);
#111= IFCMAPPEDITEM(#99,#110);
#112= IFCCARTESIANPOINT((299.999999999767,0.,74.9999999982265));
#113= IFCCARTESIANTRANSFORMATIONOPERATOR3D($,$,#112,$,$);
#114= IFCMAPPEDITEM(#99,#113);
#115= IFCCARTESIANPOINT((374.999999999767,0.,74.9999999977831));
#116= IFCCARTESIANTRANSFORMATIONOPERATOR3D($,$,#115,$,$);
#117= IFCMAPPEDITEM(#99,#116);
#118= IFCCARTESIANPOINT((449.999999999767,0.,74.9999999973397));
#119= IFCCARTESIANTRANSFORMATIONOPERATOR3D($,$,#118,$,$);
#120= IFCMAPPEDITEM(#99,#119);
#121= IFCCARTESIANPOINT((524.999999999767,0.,74.9999999968963));
#122= IFCCARTESIANTRANSFORMATIONOPERATOR3D($,$,#121,$,$);
#123= IFCMAPPEDITEM(#99,#122);
#124= IFCCARTESIANPOINT((599.999999999767,0.,74.999999996453));
#125= IFCCARTESIANTRANSFORMATIONOPERATOR3D($,$,#124,$,$);
#126= IFCMAPPEDITEM(#99,#125);
#127= IFCCARTESIANPOINT((674.999999999767,0.,74.9999999960096));
#128= IFCCARTESIANTRANSFORMATIONOPERATOR3D($,$,#127,$,$);
#129= IFCMAPPEDITEM(#99,#128);
#130= IFCCARTESIANPOINT((2.18278728425503E-10,0.,-75.));
#131= IFCCARTESIANTRANSFORMATIONOPERATOR3D($,$,#130,$,$);
#132= IFCMAPPEDITEM(#99,#131);
#133= IFCCARTESIANPOINT((75.0000000002183,0.,-75.0000000004434));
#134= IFCCARTESIANTRANSFORMATIONOPERATOR3D($,$,#133,$,$);
#135= IFCMAPPEDITEM(#99,#134);
#136= IFCCARTESIANPOINT((150.000000000218,0.,-75.0000000008868));
#137= IFCCARTESIANTRANSFORMATIONOPERATOR3D($,$,#136,$,$);
#138= IFCMAPPEDITEM(#99,#137);
#139= IFCCARTESIANPOINT((225.000000000218,0.,-75.0000000013301));
#140= IFCCARTESIANTRANSFORMATIONOPERATOR3D($,$,#139,$,$);
#141= IFCMAPPEDITEM(#99,#140);
#142= IFCCARTESIANPOINT((300.000000000218,0.,-75.0000000017735));
#143= IFCCARTESIANTRANSFORMATIONOPERATOR3D($,$,#142,$,$);
#144= IFCMAPPEDITEM(#99,#143);
#145= IFCCARTESIANPOINT((375.000000000218,0.,-75.0000000022169));
#146= IFCCARTESIANTRANSFORMATIONOPERATOR3D($,$,#145,$,$);
#147= IFCMAPPEDITEM(#99,#146);
#148= IFCCARTESIANPOINT((450.000000000218,0.,-75.0000000026603));
#149= IFCCARTESIANTRANSFORMATIONOPERATOR3D($,$,#148,$,$);
#150= IFCMAPPEDITEM(#99,#149);
#151= IFCCARTESIANPOINT((525.000000000218,0.,-75.0000000031037));
#152= IFCCARTESIANTRANSFORMATIONOPERATOR3D($,$,#151,$,$);
#153= IFCMAPPEDITEM(#99,#152);
#154= IFCCARTESIANPOINT((600.000000000218,0.,-75.000000003547));
#155= IFCCARTESIANTRANSFORMATIONOPERATOR3D($,$,#154,$,$);
#156= IFCMAPPEDITEM(#99,#155);
#157= IFCCARTESIANPOINT((675.000000000218,0.,-75.0000000039904));
#158= IFCCARTESIANTRANSFORMATIONOPERATOR3D($,$,#157,$,$);
#159= IFCMAPPEDITEM(#99,#158);
#160= IFCSHAPEREPRESENTATION(#12,'Body','MappedRepresentation',(#102,#105,#108,#111,#114,#117,#120,#123,#126,#129,#132,#135,#138,#141,#144,#147,#150,#153,#156,#159));
#161= IFCPRODUCTDEFINITIONSHAPE($,$,(#160));
#162= IFCOPENINGELEMENT('2oHFUFIKnFDO1SKVTGLajb',#5,$,$,'Opening',#93,#161,$);
#163= IFCRELVOIDSELEMENT('3o$OxbSCj1TvIfhC5CuNgB',#5,'Drill Hole',$,#64,#162);
#164= IFCPROPERTYSINGLEVALUE('FeatureSubTypes',$,IFCLABEL('TORNILLO'),$);
#165= IFCPROPERTYSINGLEVALUE('RectangleOpeningWidth',$,$,$);
#166= IFCPROPERTYSINGLEVALUE('RectangleOpeningHeight',$,$,$);
#167= IFCPROPERTYSET('3pwRUb_cLEsuFXNK58gBRT',#5,'AISC_EM11_Pset_Opening/Cope',$,(#164,#165,#166,#78));
#168= IFCCARTESIANPOINT((93320.,1603.28920788778,23599.9999999304));
#169= IFCAXIS2PLACEMENT3D(#168,#52,#53);
#170= IFCLOCALPLACEMENT(#42,#169);
#171= IFCSHAPEREPRESENTATION(#12,'Body','MappedRepresentation',(#132,#135,#138,#141,#144,#147,#150,#153,#156,#159,#102,#105,#108,#111,#114,#117,#120,#123,#126,#129));
#172= IFCPRODUCTDEFINITIONSHAPE($,$,(#171));
#173= IFCOPENINGELEMENT('2T3OT18Ej3$v5dcnZv9urM',#5,$,$,'Opening',#170,#172,$);
#174= IFCRELVOIDSELEMENT('1yva_K_ur6gg42sgRUHoqq',#5,'Drill Hole',$,#64,#173);
#175= IFCCARTESIANPOINT((85309.,1603.28929908432,23160.));
#176= IFCAXIS2PLACEMENT3D(#175,#52,#7);
#177= IFCLOCALPLACEMENT(#42,#176);
#178= IFCSHAPEREPRESENTATION(#12,'Body','MappedRepresentation',(#102,#105,#108,#111,#114,#117,#120,#123,#126,#129,#132,#135,#138,#141,#144,#147,#150,#153,#156,#159));
#179= IFCPRODUCTDEFINITIONSHAPE($,$,(#178));
#180= IFCOPENINGELEMENT('3Rx1oYV1bFoBWRcBNe6_6v',#5,$,$,'Opening',#177,#179,$);
#181= IFCRELVOIDSELEMENT('0NO6zc$Bb1Ju0UK8dk3SQf',#5,'Drill Hole',$,#64,#180);
#182= IFCCARTESIANPOINT((85263.9927466046,1603.38149265555,23600.));
#183= IFCAXIS2PLACEMENT3D(#182,#7,#67);
#184= IFCLOCALPLACEMENT(#42,#183);
#185= IFCCARTESIANPOINT((0.,-5.85000000000001,0.));
#186= IFCAXIS2PLACEMENT3D(#185,#8,#7);
#187= IFCEXTRUDEDAREASOLID(#94,#186,#9,11.7);
#188= IFCSHAPEREPRESENTATION(#12,'Body','SweptSolid',(#187));
#189= IFCREPRESENTATIONMAP(#10,#188);
#190= IFCCARTESIANPOINT((80.,0.,45.));
#191= IFCCARTESIANTRANSFORMATIONOPERATOR3D($,$,#190,$,$);
#192= IFCMAPPEDITEM(#189,#191);
#193= IFCCARTESIANPOINT((150.,0.,45.));
#194= IFCCARTESIANTRANSFORMATIONOPERATOR3D($,$,#193,$,$);
#195= IFCMAPPEDITEM(#189,#194);
#196= IFCCARTESIANPOINT((220.,0.,45.));
#197= IFCCARTESIANTRANSFORMATIONOPERATOR3D($,$,#196,$,$);
#198= IFCMAPPEDITEM(#189,#197);
#199= IFCCARTESIANPOINT((290.,0.,45.));
#200= IFCCARTESIANTRANSFORMATIONOPERATOR3D($,$,#199,$,$);
#201= IFCMAPPEDITEM(#189,#200);
#202= IFCCARTESIANPOINT((360.,0.,45.));
#203= IFCCARTESIANTRANSFORMATIONOPERATOR3D($,$,#202,$,$);
#204= IFCMAPPEDITEM(#189,#203);
#205= IFCSHAPEREPRESENTATION(#12,'Body','MappedRepresentation',(#192,#195,#198,#201,#204));
#206= IFCPRODUCTDEFINITIONSHAPE($,$,(#205));
#207= IFCOPENINGELEMENT('1CuuOTaU943QygS3fQPDhM',#5,$,$,'Opening',#184,#206,$);
#208= IFCRELVOIDSELEMENT('3VUM29EB14lwNSfEbgN5HQ',#5,'Drill Hole',$,#64,#207);
#209= IFCCARTESIANPOINT((85309.,1603.28929908432,23600.));
#210= IFCAXIS2PLACEMENT3D(#209,#8,#7);
#211= IFCLOCALPLACEMENT(#42,#210);
#212= IFCSHAPEREPRESENTATION(#12,'Body','MappedRepresentation',(#132,#135,#138,#141,#144,#147,#150,#153,#156,#159,#102,#105,#108,#111,#114,#117,#120,#123,#126,#129));
#213= IFCPRODUCTDEFINITIONSHAPE($,$,(#212));
#214= IFCOPENINGELEMENT('2lKA4mw712ke0O8z0ZcCvg',#5,$,$,'Opening',#211,#213,$);
#215= IFCRELVOIDSELEMENT('1NxzyS2Eb9zRCevXxKIfGk',#5,'Drill Hole',$,#64,#214);
#216= IFCPROPERTYSINGLEVALUE('PieceMark',$,IFCIDENTIFIER('BEAM'),$);
#217= IFCPROPERTYSINGLEVALUE('IndicationMark',$,IFCIDENTIFIER('b/282'),$);
#218= IFCPROPERTYSINGLEVALUE('PrelimMark',$,IFCIDENTIFIER(''),$);
#219= IFCPROPERTYSINGLEVALUE('MainPieceTag',$,IFCBOOLEAN(.T.),$);
#220= IFCPROPERTYSET('2ikNko_F92CwzrbqpgAP0x',#5,'AISC_EM11_Pset_PieceIdentification','PieceIdentity',(#216,#217,#218,#219));
#221= IFCPROPERTYSINGLEVALUE('MaterialType',$,IFCIDENTIFIER('STEEL'),$);
#222= IFCPROPERTYSINGLEVALUE('MaterialGrade',$,IFCIDENTIFIER('S235JR'),$);
#223= IFCPROPERTYSET('0iUYDSQPH37Pva14PNL1fr',#5,'AISC_EM11_Pset_Material',$,(#221,#222));
#224= IFCPROPERTYSINGLEVALUE('SkewedAngleY',$,IFCREAL(0.),$);
#225= IFCPROPERTYSINGLEVALUE('SkewedAngleX',$,IFCREAL(0.),$);
#226= IFCPROPERTYSET('3IzQ0JRiDFAO2lIYr9gi1B',#5,'AISC_EM11_Pset_SkewedEnd',$,(#224,#225));
#227= IFCPROPERTYSET('2katYJPAHFXxDQVrBsI7$B',#5,'AISC_EM11_Pset_SkewedEnd_2',$,(#224,#225));
#228= IFCMATERIAL('STEEL/S235JR');
#229= IFCRELAGGREGATES('3kfP3E6IXFH91WKiHjYw1l',#5,$,$,#37,(#39));
#230= IFCRELAGGREGATES('20xhLWOapXZRJoc_Z$qCJ1',#5,$,$,#39,(#41));
#231= IFCRELAGGREGATES('3T8WY845D9wwYhxiB$a8jy',#5,$,$,#41,(#43));
#232= IFCRELCONTAINEDINSPATIALSTRUCTURE('1UKrdh3tLBLve3LK0OZ_fM',#5,$,$,(#64),#43);
#233= IFCRELDEFINESBYPROPERTIES('3lBEdQFEr5Sh81pEQkT2_$',#5,$,$,(#73),#79);
#234= IFCRELDEFINESBYPROPERTIES('1X0Xq84Fr8qQJa8v3Sj$rM',#5,$,$,(#87),#90);
#235= IFCRELDEFINESBYPROPERTIES('24ybIS$7v7OQT3nL_ZomId',#5,$,$,(#214,#207,#180,#173,#162),#167);
#236= IFCRELDEFINESBYPROPERTIES('0QLddVsRL71g19D9YZSqh$',#5,$,$,(#64),#220);
#237= IFCRELDEFINESBYPROPERTIES('3JDqz6xbX4TgIlR1FHuhWq',#5,$,$,(#64),#223);
#238= IFCRELDEFINESBYPROPERTIES('1w3P3HNKjEkep9uUBy4uZ_',#5,$,$,(#64),#226);
#239= IFCRELDEFINESBYPROPERTIES('3kiXI_SGLD4P4NQ4OtaFrs',#5,$,$,(#64),#227);
#240= IFCRELASSOCIATESMATERIAL('3Go_JZG9fCV9p2uib5Hdq3',#5,$,$,(#64),#228);
ENDSEC;

END-ISO-10303-21;
