ISO-10303-21;
HEADER;
FILE_DESCRIPTION(('ViewDefinition[AISC_Steel_Detailing]', 'Option [BaseQuantities:Off]', 'Option [GridExport:On]', 'Option [Assemblies:Off]', 'Option [Bolts:On]', 'Option [Rebars:On]', 'Option [PourObjects:Off]', 'Option [Welds:On]', 'Option [SurfaceTreatments:On]', 'Option [LocationBy:0]', 'Option [ViewColors:Off]', 'Option [SectionedSpine:Off]', 'Option [PropertySets:On]', 'Option [Export all:Off]'),'2;1');
FILE_NAME('b_287_Qty_1.ifc','2026-05-16T11:53:12',('GIOVANNIPC\\gcorrea'),('Structural Designer'),'IFC Database version: Work','Tekla Structures 2020 Service Pack 5, IFC Export Version: 4.0.0.0 Dec  7 2020','');
FILE_SCHEMA(('IFC2X3'));
ENDSEC;

DATA;
#1= IFCPERSON('GIOVANNIPC\\gcorrea','Undefined',$,$,$,$,$,$);
#2= IFCORGANIZATION($,'Trimble Solutions Corporation',$,$,$);
#3= IFCPERSONANDORGANIZATION(#1,#2,$);
#4= IFCAPPLICATION(#2,'2020 Service Pack 5','Tekla Structures','Multi material modeling');
#5= IFCOWNERHISTORY(#3,#4,$,.NOCHANGE.,$,$,$,1778950392);
#6= IFCCARTESIANPOINT((0.,0.,0.));
#7= IFCDIRECTION((1.,0.,0.));
#8= IFCDIRECTION((0.,1.,0.));
#9= IFCDIRECTION((0.,0.,1.));
#10= IFCAXIS2PLACEMENT3D(#6,#9,#7);
#11= IFCGEOMETRICREPRESENTATIONCONTEXT($,'Model',3,1.E-05,#10,$);
#12= IFCGEOMETRICREPRESENTATIONSUBCONTEXT('Body','Model',*,*,*,*,#11,$,.MODEL_VIEW.,$);
#13= IFCGEOMETRICREPRESENTATIONSUBCONTEXT('Axis','Model',*,*,*,*,#11,$,.GRAPH_VIEW.,$);
#14= IFCGEOMETRICREPRESENTATIONSUBCONTEXT('FootPrint','Model',*,*,*,*,#11,$,.MODEL_VIEW.,$);
#15= IFCSIUNIT(*,.LENGTHUNIT.,.MILLI.,.METRE.);
#16= IFCMEASUREWITHUNIT(IFCRATIOMEASURE(304.8),#15);
#17= IFCDIMENSIONALEXPONENTS(1,0,0,0,0,0,0);
#18= IFCCONVERSIONBASEDUNIT(#17,.LENGTHUNIT.,'FOOT',#16);
#19= IFCSIUNIT(*,.AREAUNIT.,$,.SQUARE_METRE.);
#20= IFCMEASUREWITHUNIT(IFCRATIOMEASURE(0.09290304),#19);
#21= IFCDIMENSIONALEXPONENTS(2,0,0,0,0,0,0);
#22= IFCCONVERSIONBASEDUNIT(#21,.AREAUNIT.,'SQUARE FOOT',#20);
#23= IFCSIUNIT(*,.VOLUMEUNIT.,$,.CUBIC_METRE.);
#24= IFCMEASUREWITHUNIT(IFCRATIOMEASURE(0.028316846592),#23);
#25= IFCDIMENSIONALEXPONENTS(3,0,0,0,0,0,0);
#26= IFCCONVERSIONBASEDUNIT(#25,.VOLUMEUNIT.,'CUBIC FOOT',#24);
#27= IFCSIUNIT(*,.MASSUNIT.,.KILO.,.GRAM.);
#28= IFCSIUNIT(*,.TIMEUNIT.,$,.SECOND.);
#29= IFCSIUNIT(*,.PLANEANGLEUNIT.,$,.RADIAN.);
#30= IFCMEASUREWITHUNIT(IFCRATIOMEASURE(0.0174532925199433),#29);
#31= IFCDIMENSIONALEXPONENTS(0,0,0,0,0,0,0);
#32= IFCCONVERSIONBASEDUNIT(#31,.PLANEANGLEUNIT.,'DEGREE',#30);
#33= IFCSIUNIT(*,.SOLIDANGLEUNIT.,$,.STERADIAN.);
#34= IFCSIUNIT(*,.THERMODYNAMICTEMPERATUREUNIT.,$,.DEGREE_CELSIUS.);
#35= IFCSIUNIT(*,.LUMINOUSINTENSITYUNIT.,$,.LUMEN.);
#36= IFCUNITASSIGNMENT((#15,#19,#23,#27,#28,#29,#33,#34,#35));
#37= IFCPROJECT('2G7ZFDNE16yBDU14FA92Me',#5,'Proyecto',$,$,$,$,(#11),#36);
#38= IFCLOCALPLACEMENT($,#10);
#39= IFCSITE('2xvEzEinjBTea80yOTcujY',#5,'Obra',$,$,#38,$,$,.ELEMENT.,$,$,$,$,$);
#40= IFCLOCALPLACEMENT(#38,#10);
#41= IFCBUILDING('2CpwHPeqD0Fv03kc9tygTx',#5,'Undefined',$,$,#40,$,$,.ELEMENT.,$,$,$);
#42= IFCLOCALPLACEMENT(#40,#10);
#43= IFCBUILDINGSTOREY('29hdEUCErFze9E_VIAceOd',#5,'Undefined',$,$,#42,$,$,.ELEMENT.,0.);
#44= IFCOWNERHISTORY(#3,#4,$,.NOCHANGE.,$,$,$,1775505600);
#45= IFCCARTESIANPOINT((76499.9847412109,17380.1324005127,23355.));
#46= IFCAXIS2PLACEMENT3D(#45,#9,#7);
#47= IFCLOCALPLACEMENT(#42,#46);
#48= IFCDIRECTION((1.,0.));
#49= IFCCARTESIANPOINT((0.,0.));
#50= IFCAXIS2PLACEMENT2D(#49,#48);
#51= IFCISHAPEPROFILEDEF(.AREA.,'HEA500',#50,300.,490.,12.,23.,27.);
#52= IFCDIRECTION((0.,-1.,0.));
#53= IFCDIRECTION((-1.,0.,0.));
#54= IFCCARTESIANPOINT((5077.59448242188,0.,0.));
#55= IFCAXIS2PLACEMENT3D(#54,#53,#52);
#56= IFCEXTRUDEDAREASOLID(#51,#55,#9,5077.59);
#57= IFCSHAPEREPRESENTATION(#12,'Body','SweptSolid',(#56));
#58= IFCPRODUCTDEFINITIONSHAPE($,$,(#57));
#59= IFCBEAM('0ph2uM6KbAVAbEpb_$2geH',#44,'BEAM','HEA500','HEA500',#47,#58,'ID33ac2e16-1949-4a7c-a94e-ce5fbf0aaa11');
#60= IFCCARTESIANPOINT((81531.978381946,17380.7794110034,23120.));
#61= IFCDIRECTION((-7.12890000286281E-05,0.999999997458939,0.));
#62= IFCDIRECTION((-0.999999997458939,-7.12890000318489E-05,0.));
#63= IFCAXIS2PLACEMENT3D(#60,#61,#62);
#64= IFCLOCALPLACEMENT(#42,#63);
#65= IFCCIRCLEPROFILEDEF(.AREA.,$,#50,11.5);
#66= IFCCARTESIANPOINT((0.,-10.1,0.));
#67= IFCAXIS2PLACEMENT3D(#66,#8,#7);
#68= IFCEXTRUDEDAREASOLID(#65,#67,#9,23.2);
#69= IFCSHAPEREPRESENTATION(#12,'Body','SweptSolid',(#68));
#70= IFCREPRESENTATIONMAP(#10,#69);
#71= IFCCARTESIANPOINT((2.7648638933897E-10,0.,75.0000000002656));
#72= IFCCARTESIANTRANSFORMATIONOPERATOR3D($,$,#71,$,$);
#73= IFCMAPPEDITEM(#70,#72);
#74= IFCCARTESIANPOINT((74.999999999447,0.,75.0000000008113));
#75= IFCCARTESIANTRANSFORMATIONOPERATOR3D($,$,#74,$,$);
#76= IFCMAPPEDITEM(#70,#75);
#77= IFCCARTESIANPOINT((149.999999998618,0.,75.0000000013533));
#78= IFCCARTESIANTRANSFORMATIONOPERATOR3D($,$,#77,$,$);
#79= IFCMAPPEDITEM(#70,#78);
#80= IFCCARTESIANPOINT((224.999999997788,0.,75.000000001899));
#81= IFCCARTESIANTRANSFORMATIONOPERATOR3D($,$,#80,$,$);
#82= IFCMAPPEDITEM(#70,#81);
#83= IFCCARTESIANPOINT((299.999999996959,0.,75.0000000024484));
#84= IFCCARTESIANTRANSFORMATIONOPERATOR3D($,$,#83,$,$);
#85= IFCMAPPEDITEM(#70,#84);
#86= IFCCARTESIANPOINT((374.999999996129,0.,75.0000000029941));
#87= IFCCARTESIANTRANSFORMATIONOPERATOR3D($,$,#86,$,$);
#88= IFCMAPPEDITEM(#70,#87);
#89= IFCCARTESIANPOINT((449.9999999953,0.,75.0000000035361));
#90= IFCCARTESIANTRANSFORMATIONOPERATOR3D($,$,#89,$,$);
#91= IFCMAPPEDITEM(#70,#90);
#92= IFCCARTESIANPOINT((524.99999999447,0.,75.0000000040818));
#93= IFCCARTESIANTRANSFORMATIONOPERATOR3D($,$,#92,$,$);
#94= IFCMAPPEDITEM(#70,#93);
#95= IFCCARTESIANPOINT((599.999999993641,0.,75.0000000046311));
#96= IFCCARTESIANTRANSFORMATIONOPERATOR3D($,$,#95,$,$);
#97= IFCMAPPEDITEM(#70,#96);
#98= IFCCARTESIANPOINT((674.999999992811,0.,75.0000000051768));
#99= IFCCARTESIANTRANSFORMATIONOPERATOR3D($,$,#98,$,$);
#100= IFCMAPPEDITEM(#70,#99);
#101= IFCCARTESIANPOINT((-2.7648638933897E-10,0.,-75.0000000002619));
#102= IFCCARTESIANTRANSFORMATIONOPERATOR3D($,$,#101,$,$);
#103= IFCMAPPEDITEM(#70,#102);
#104= IFCCARTESIANPOINT((74.9999999988941,0.,-74.9999999997162));
#105= IFCCARTESIANTRANSFORMATIONOPERATOR3D($,$,#104,$,$);
#106= IFCMAPPEDITEM(#70,#105);
#107= IFCCARTESIANPOINT((149.999999998079,0.,-74.9999999991705));
#108= IFCCARTESIANTRANSFORMATIONOPERATOR3D($,$,#107,$,$);
#109= IFCMAPPEDITEM(#70,#108);
#110= IFCCARTESIANPOINT((224.99999999725,0.,-74.9999999986248));
#111= IFCCARTESIANTRANSFORMATIONOPERATOR3D($,$,#110,$,$);
#112= IFCMAPPEDITEM(#70,#111);
#113= IFCCARTESIANPOINT((299.99999999642,0.,-74.9999999980791));
#114= IFCCARTESIANTRANSFORMATIONOPERATOR3D($,$,#113,$,$);
#115= IFCMAPPEDITEM(#70,#114);
#116= IFCCARTESIANPOINT((374.999999995591,0.,-74.9999999975298));
#117= IFCCARTESIANTRANSFORMATIONOPERATOR3D($,$,#116,$,$);
#118= IFCMAPPEDITEM(#70,#117);
#119= IFCCARTESIANPOINT((449.999999994761,0.,-74.9999999969878));
#120= IFCCARTESIANTRANSFORMATIONOPERATOR3D($,$,#119,$,$);
#121= IFCMAPPEDITEM(#70,#120);
#122= IFCCARTESIANPOINT((524.999999993932,0.,-74.9999999964421));
#123= IFCCARTESIANTRANSFORMATIONOPERATOR3D($,$,#122,$,$);
#124= IFCMAPPEDITEM(#70,#123);
#125= IFCCARTESIANPOINT((599.999999993102,0.,-74.9999999958964));
#126= IFCCARTESIANTRANSFORMATIONOPERATOR3D($,$,#125,$,$);
#127= IFCMAPPEDITEM(#70,#126);
#128= IFCCARTESIANPOINT((674.999999992273,0.,-74.999999995347));
#129= IFCCARTESIANTRANSFORMATIONOPERATOR3D($,$,#128,$,$);
#130= IFCMAPPEDITEM(#70,#129);
#131= IFCSHAPEREPRESENTATION(#12,'Body','MappedRepresentation',(#73,#76,#79,#82,#85,#88,#91,#94,#97,#100,#103,#106,#109,#112,#115,#118,#121,#124,#127,#130));
#132= IFCPRODUCTDEFINITIONSHAPE($,$,(#131));
#133= IFCOPENINGELEMENT('0owTorNfj3ZQCJPNZNNrwV',#5,$,$,'Opening',#64,#132,$);
#134= IFCRELVOIDSELEMENT('1OUWBrCG14dQuINVDv4b3p',#5,'Drill Hole',$,#59,#133);
#135= IFCPROPERTYSINGLEVALUE('FeatureSubTypes',$,IFCLABEL('TORNILLO'),$);
#136= IFCPROPERTYSINGLEVALUE('RectangleOpeningWidth',$,$,$);
#137= IFCPROPERTYSINGLEVALUE('RectangleOpeningHeight',$,$,$);
#138= IFCPROPERTYSINGLEVALUE('OpeningDiameter',$,$,$);
#139= IFCPROPERTYSET('1lj$MEd4LFLxzjPSOYzhJA',#5,'AISC_EM11_Pset_Opening/Cope',$,(#135,#136,#137,#138));
#140= IFCCARTESIANPOINT((81531.978381946,17380.7794110034,23600.));
#141= IFCDIRECTION((7.12890000286279E-05,-0.999999997458939,0.));
#142= IFCAXIS2PLACEMENT3D(#140,#141,#62);
#143= IFCLOCALPLACEMENT(#42,#142);
#144= IFCCARTESIANPOINT((0.,-0.1,0.));
#145= IFCAXIS2PLACEMENT3D(#144,#8,#7);
#146= IFCEXTRUDEDAREASOLID(#65,#145,#9,23.2);
#147= IFCSHAPEREPRESENTATION(#12,'Body','SweptSolid',(#146));
#148= IFCREPRESENTATIONMAP(#10,#147);
#149= IFCMAPPEDITEM(#148,#102);
#150= IFCMAPPEDITEM(#148,#105);
#151= IFCMAPPEDITEM(#148,#108);
#152= IFCMAPPEDITEM(#148,#111);
#153= IFCMAPPEDITEM(#148,#114);
#154= IFCMAPPEDITEM(#148,#117);
#155= IFCMAPPEDITEM(#148,#120);
#156= IFCMAPPEDITEM(#148,#123);
#157= IFCMAPPEDITEM(#148,#126);
#158= IFCMAPPEDITEM(#148,#129);
#159= IFCMAPPEDITEM(#148,#72);
#160= IFCMAPPEDITEM(#148,#75);
#161= IFCMAPPEDITEM(#148,#78);
#162= IFCMAPPEDITEM(#148,#81);
#163= IFCMAPPEDITEM(#148,#84);
#164= IFCMAPPEDITEM(#148,#87);
#165= IFCMAPPEDITEM(#148,#90);
#166= IFCMAPPEDITEM(#148,#93);
#167= IFCMAPPEDITEM(#148,#96);
#168= IFCMAPPEDITEM(#148,#99);
#169= IFCSHAPEREPRESENTATION(#12,'Body','MappedRepresentation',(#149,#150,#151,#152,#153,#154,#155,#156,#157,#158,#159,#160,#161,#162,#163,#164,#165,#166,#167,#168));
#170= IFCPRODUCTDEFINITIONSHAPE($,$,(#169));
#171= IFCOPENINGELEMENT('0FO9g0z0bBhu5zcxkl3Y4F',#5,$,$,'Opening',#143,#170,$);
#172= IFCRELVOIDSELEMENT('2bbLK9CmX8mxcjVCKHLSYi',#5,'Drill Hole',$,#59,#171);
#173= IFCPROPERTYSINGLEVALUE('PieceMark',$,IFCIDENTIFIER('BEAM'),$);
#174= IFCPROPERTYSINGLEVALUE('IndicationMark',$,IFCIDENTIFIER('b/287'),$);
#175= IFCPROPERTYSINGLEVALUE('PrelimMark',$,IFCIDENTIFIER(''),$);
#176= IFCPROPERTYSINGLEVALUE('MainPieceTag',$,IFCBOOLEAN(.T.),$);
#177= IFCPROPERTYSET('1yP7R$2jnBkPtPxSD8EXPI',#5,'AISC_EM11_Pset_PieceIdentification','PieceIdentity',(#173,#174,#175,#176));
#178= IFCPROPERTYSINGLEVALUE('MaterialType',$,IFCIDENTIFIER('STEEL'),$);
#179= IFCPROPERTYSINGLEVALUE('MaterialGrade',$,IFCIDENTIFIER('S235JR'),$);
#180= IFCPROPERTYSET('00KNB9ZN5D2P2eGXtWeZbd',#5,'AISC_EM11_Pset_Material',$,(#178,#179));
#181= IFCPROPERTYSINGLEVALUE('SkewedAngleY',$,IFCREAL(0.),$);
#182= IFCPROPERTYSINGLEVALUE('SkewedAngleX',$,IFCREAL(0.),$);
#183= IFCPROPERTYSET('0vJuG9XcbC699Hi8P0KnHm',#5,'AISC_EM11_Pset_SkewedEnd',$,(#181,#182));
#184= IFCPROPERTYSET('0Htn9fvkPAqwksz8CDmnkj',#5,'AISC_EM11_Pset_SkewedEnd_2',$,(#181,#182));
#185= IFCMATERIAL('STEEL/S235JR');
#186= IFCRELAGGREGATES('3XCIrFfaj1rf2sVviQU1Zg',#5,$,$,#37,(#39));
#187= IFCRELAGGREGATES('2pUa7Xxs$J7xK8nB_imJry',#5,$,$,#39,(#41));
#188= IFCRELAGGREGATES('32kpK_dX17CB_XEp_RloGZ',#5,$,$,#41,(#43));
#189= IFCRELCONTAINEDINSPATIALSTRUCTURE('1Orflx6s157vjOlIEVllt_',#5,$,$,(#59),#43);
#190= IFCRELDEFINESBYPROPERTIES('17U_2aA419Kea7PPyHXZFL',#5,$,$,(#171,#133),#139);
#191= IFCRELDEFINESBYPROPERTIES('3QOZbO6RTBV8CSafPAcGiv',#5,$,$,(#59),#177);
#192= IFCRELDEFINESBYPROPERTIES('0US6C4GHDEN9M1PoRmUG6s',#5,$,$,(#59),#180);
#193= IFCRELDEFINESBYPROPERTIES('0gtf5R$y1DKfSgOg2$PSWk',#5,$,$,(#59),#183);
#194= IFCRELDEFINESBYPROPERTIES('394iGzpYb8$eQheEHFlH17',#5,$,$,(#59),#184);
#195= IFCRELASSOCIATESMATERIAL('1n4BdFagb5YOM2MCEW_b7I',#5,$,$,(#59),#185);
ENDSEC;

END-ISO-10303-21;
