ISO-10303-21;
HEADER;
FILE_DESCRIPTION(('ViewDefinition[AISC_Steel_Detailing]', 'Option [BaseQuantities:Off]', 'Option [GridExport:On]', 'Option [Assemblies:Off]', 'Option [Bolts:On]', 'Option [Rebars:On]', 'Option [PourObjects:Off]', 'Option [Welds:On]', 'Option [SurfaceTreatments:On]', 'Option [LocationBy:0]', 'Option [ViewColors:Off]', 'Option [SectionedSpine:Off]', 'Option [PropertySets:On]', 'Option [Export all:Off]'),'2;1');
FILE_NAME('b_28_Qty_1.ifc','2026-05-16T11:53:17',('GIOVANNIPC\\gcorrea'),('Structural Designer'),'IFC Database version: Work','Tekla Structures 2020 Service Pack 5, IFC Export Version: 4.0.0.0 Dec  7 2020','');
FILE_SCHEMA(('IFC2X3'));
ENDSEC;

DATA;
#1= IFCPERSON('GIOVANNIPC\\gcorrea','Undefined',$,$,$,$,$,$);
#2= IFCORGANIZATION($,'Trimble Solutions Corporation',$,$,$);
#3= IFCPERSONANDORGANIZATION(#1,#2,$);
#4= IFCAPPLICATION(#2,'2020 Service Pack 5','Tekla Structures','Multi material modeling');
#5= IFCOWNERHISTORY(#3,#4,$,.NOCHANGE.,$,$,$,1778950397);
#6= IFCCARTESIANPOINT((0.,0.,0.));
#7= IFCDIRECTION((1.,0.,0.));
#8= IFCDIRECTION((0.,1.,0.));
#9= IFCDIRECTION((0.,0.,1.));
#10= IFCAXIS2PLACEMENT3D(#6,#9,#7);
#11= IFCGEOMETRICREPRESENTATIONCONTEXT($,'Model',3,1.E-05,#10,$);
#12= IFCGEOMETRICREPRESENTATIONSUBCONTEXT('Body','Model',*,*,*,*,#11,$,.MODEL_VIEW.,$);
#13= IFCGEOMETRICREPRESENTATIONSUBCONTEXT('Axis','Model',*,*,*,*,#11,$,.GRAPH_VIEW.,$);
#14= IFCGEOMETRICREPRESENTATIONSUBCONTEXT('FootPrint','Model',*,*,*,*,#11,$,.MODEL_VIEW.,$);
#15= IFCSIUNIT(*,.LENGTHUNIT.,.MILLI.,.METRE.);
#16= IFCMEASUREWITHUNIT(IFCRATIOMEASURE(304.8),#15);
#17= IFCDIMENSIONALEXPONENTS(1,0,0,0,0,0,0);
#18= IFCCONVERSIONBASEDUNIT(#17,.LENGTHUNIT.,'FOOT',#16);
#19= IFCSIUNIT(*,.AREAUNIT.,$,.SQUARE_METRE.);
#20= IFCMEASUREWITHUNIT(IFCRATIOMEASURE(0.09290304),#19);
#21= IFCDIMENSIONALEXPONENTS(2,0,0,0,0,0,0);
#22= IFCCONVERSIONBASEDUNIT(#21,.AREAUNIT.,'SQUARE FOOT',#20);
#23= IFCSIUNIT(*,.VOLUMEUNIT.,$,.CUBIC_METRE.);
#24= IFCMEASUREWITHUNIT(IFCRATIOMEASURE(0.028316846592),#23);
#25= IFCDIMENSIONALEXPONENTS(3,0,0,0,0,0,0);
#26= IFCCONVERSIONBASEDUNIT(#25,.VOLUMEUNIT.,'CUBIC FOOT',#24);
#27= IFCSIUNIT(*,.MASSUNIT.,.KILO.,.GRAM.);
#28= IFCSIUNIT(*,.TIMEUNIT.,$,.SECOND.);
#29= IFCSIUNIT(*,.PLANEANGLEUNIT.,$,.RADIAN.);
#30= IFCMEASUREWITHUNIT(IFCRATIOMEASURE(0.0174532925199433),#29);
#31= IFCDIMENSIONALEXPONENTS(0,0,0,0,0,0,0);
#32= IFCCONVERSIONBASEDUNIT(#31,.PLANEANGLEUNIT.,'DEGREE',#30);
#33= IFCSIUNIT(*,.SOLIDANGLEUNIT.,$,.STERADIAN.);
#34= IFCSIUNIT(*,.THERMODYNAMICTEMPERATUREUNIT.,$,.DEGREE_CELSIUS.);
#35= IFCSIUNIT(*,.LUMINOUSINTENSITYUNIT.,$,.LUMEN.);
#36= IFCUNITASSIGNMENT((#15,#19,#23,#27,#28,#29,#33,#34,#35));
#37= IFCPROJECT('2G7ZFDNE16yBDU14FA92Me',#5,'Proyecto',$,$,$,$,(#11),#36);
#38= IFCLOCALPLACEMENT($,#10);
#39= IFCSITE('2xvEzEinjBTea80yOTcujY',#5,'Obra',$,$,#38,$,$,.ELEMENT.,$,$,$,$,$);
#40= IFCLOCALPLACEMENT(#38,#10);
#41= IFCBUILDING('0jhqnd8ZzBWP92c_hOn0iH',#5,'Undefined',$,$,#40,$,$,.ELEMENT.,$,$,$);
#42= IFCLOCALPLACEMENT(#40,#10);
#43= IFCBUILDINGSTOREY('29hdEUCErFze9E_VIAceOd',#5,'Undefined',$,$,#42,$,$,.ELEMENT.,0.);
#44= IFCOWNERHISTORY(#3,#4,$,.NOCHANGE.,$,$,$,1777928400);
#45= IFCCARTESIANPOINT((51203.,1603.28932952881,13675.));
#46= IFCDIRECTION((0.999999999936584,1.12619999992755E-05,0.));
#47= IFCAXIS2PLACEMENT3D(#45,#9,#46);
#48= IFCLOCALPLACEMENT(#42,#47);
#49= IFCDIRECTION((1.,0.));
#50= IFCCARTESIANPOINT((0.,0.));
#51= IFCAXIS2PLACEMENT2D(#50,#49);
#52= IFCISHAPEPROFILEDEF(.AREA.,'IPE450',#51,190.,450.,9.399999619,14.60000038,21.);
#53= IFCDIRECTION((0.,-1.,0.));
#54= IFCDIRECTION((-1.,0.,0.));
#55= IFCCARTESIANPOINT((8281.28435289656,0.,0.));
#56= IFCAXIS2PLACEMENT3D(#55,#54,#53);
#57= IFCEXTRUDEDAREASOLID(#52,#56,#9,8261.39);
#58= IFCDIRECTION((-0.999999999442988,3.33769999843079E-05,0.));
#59= IFCCARTESIANPOINT((8281.28208675639,-0.00100879504043405,-325.));
#60= IFCDIRECTION((3.33769999843079E-05,0.999999999442988,0.));
#61= IFCAXIS2PLACEMENT3D(#59,#58,#60);
#62= IFCPLANE(#61);
#63= IFCHALFSPACESOLID(#62,.T.);
#64= IFCBOOLEANCLIPPINGRESULT(.DIFFERENCE.,#57,#63);
#65= IFCDIRECTION((0.999999999936584,-1.12619999999879E-05,0.));
#66= IFCCARTESIANPOINT((19.901188184187,0.0880211620849423,-325.));
#67= IFCDIRECTION((-1.12619999999879E-05,-0.999999999936584,0.));
#68= IFCAXIS2PLACEMENT3D(#66,#65,#67);
#69= IFCPLANE(#68);
#70= IFCHALFSPACESOLID(#69,.T.);
#71= IFCBOOLEANCLIPPINGRESULT(.DIFFERENCE.,#64,#70);
#72= IFCSHAPEREPRESENTATION(#12,'Body','Clipping',(#71));
#73= IFCPRODUCTDEFINITIONSHAPE($,$,(#72));
#74= IFCBEAM('2GFXKBvy5EHfU8Hee$bVU1',#44,'BEAM','IPE450','IPE450',#48,#73,'ID903e150b-e7c1-4e46-9788-468a3f95f781');
#75= IFCLOCALPLACEMENT(#42,#47);
#76= IFCRECTANGLEPROFILEDEF(.AREA.,'PL108*12.1',#51,12.1,108.);
#77= IFCDIRECTION((0.,0.,-1.));
#78= IFCCARTESIANPOINT((3.95106133104127,43.2174605820715,226.));
#79= IFCAXIS2PLACEMENT3D(#78,#77,#65);
#80= IFCEXTRUDEDAREASOLID(#76,#79,#9,452.);
#81= IFCSHAPEREPRESENTATION(#12,'Body','SweptSolid',(#80));
#82= IFCPRODUCTDEFINITIONSHAPE($,$,(#81));
#83= IFCOPENINGELEMENT('1URhQUPTHD4xHoJxk0KGPx',#5,$,$,'Recess',#75,#82,$);
#84= IFCRELVOIDSELEMENT('3ezxgSuHT9Hh7LyXbRXv6E',#5,$,$,#74,#83);
#85= IFCPROPERTYSINGLEVALUE('FeatureSubTypes',$,$,$);
#86= IFCPROPERTYSINGLEVALUE('RectangleOpeningWidth',$,IFCPOSITIVELENGTHMEASURE(12.1),$);
#87= IFCPROPERTYSINGLEVALUE('RectangleOpeningHeight',$,IFCPOSITIVELENGTHMEASURE(108.),$);
#88= IFCPROPERTYSINGLEVALUE('OpeningDiameter',$,$,$);
#89= IFCPROPERTYSET('0Reu5z4vD0r8Vl$pLw5qGl',#5,'AISC_EM11_Pset_Opening/Cope',$,(#85,#86,#87,#88));
#90= IFCLOCALPLACEMENT(#42,#47);
#91= IFCRECTANGLEPROFILEDEF(.AREA.,'PL109.1*12.1',#51,12.1,109.1);
#92= IFCCARTESIANPOINT((3.95010898899636,-41.3449652179238,226.));
#93= IFCAXIS2PLACEMENT3D(#92,#77,#65);
#94= IFCEXTRUDEDAREASOLID(#91,#93,#9,452.);
#95= IFCSHAPEREPRESENTATION(#12,'Body','SweptSolid',(#94));
#96= IFCPRODUCTDEFINITIONSHAPE($,$,(#95));
#97= IFCOPENINGELEMENT('1x_V_gScn2jgpH99SCfkbn',#5,$,$,'Recess',#90,#96,$);
#98= IFCRELVOIDSELEMENT('06L24xEI539xjD2cTlkWOR',#5,$,$,#74,#97);
#99= IFCPROPERTYSINGLEVALUE('RectangleOpeningHeight',$,IFCPOSITIVELENGTHMEASURE(109.1),$);
#100= IFCPROPERTYSET('2bz$BbXKj6NuYyKU0gFYqS',#5,'AISC_EM11_Pset_Opening/Cope',$,(#85,#86,#99,#88));
#101= IFCLOCALPLACEMENT(#42,#47);
#102= IFCRECTANGLEPROFILEDEF(.AREA.,'PL59*156.2',#51,59.,156.2);
#103= IFCDIRECTION((-8.18100000814584E-06,-0.999999999966536,0.));
#104= IFCCARTESIANPOINT((8215.14659200408,96.0005410799061,-196.5));
#105= IFCAXIS2PLACEMENT3D(#104,#103,#77);
#106= IFCEXTRUDEDAREASOLID(#102,#105,#9,192.07);
#107= IFCSHAPEREPRESENTATION(#12,'Body','SweptSolid',(#106));
#108= IFCPRODUCTDEFINITIONSHAPE($,$,(#107));
#109= IFCOPENINGELEMENT('1UrW0lfWT2xvFvwtu_KVBd',#5,$,$,'Recess',#101,#108,$);
#110= IFCRELVOIDSELEMENT('3cEz8lHHP3TujNhylEzjSy',#5,$,$,#74,#109);
#111= IFCPROPERTYSINGLEVALUE('RectangleOpeningWidth',$,IFCPOSITIVELENGTHMEASURE(59.),$);
#112= IFCPROPERTYSINGLEVALUE('RectangleOpeningHeight',$,IFCPOSITIVELENGTHMEASURE(156.2),$);
#113= IFCPROPERTYSET('2OiRI4qunCLQrUugafEgEM',#5,'AISC_EM11_Pset_Opening/Cope',$,(#85,#111,#112,#88));
#114= IFCLOCALPLACEMENT(#42,#47);
#115= IFCRECTANGLEPROFILEDEF(.AREA.,'PL49*156.2',#51,49.,156.2);
#116= IFCCARTESIANPOINT((8215.14659200408,96.0005410799061,201.5));
#117= IFCAXIS2PLACEMENT3D(#116,#103,#77);
#118= IFCEXTRUDEDAREASOLID(#115,#117,#9,192.07);
#119= IFCSHAPEREPRESENTATION(#12,'Body','SweptSolid',(#118));
#120= IFCPRODUCTDEFINITIONSHAPE($,$,(#119));
#121= IFCOPENINGELEMENT('188maGxAL9YfXSC0fFwasr',#5,$,$,'Recess',#114,#120,$);
#122= IFCRELVOIDSELEMENT('1x_7fUanPCmgvBbAAFlpyD',#5,$,$,#74,#121);
#123= IFCPROPERTYSINGLEVALUE('RectangleOpeningWidth',$,IFCPOSITIVELENGTHMEASURE(49.),$);
#124= IFCPROPERTYSET('2L8qeCHF18fuhxhvRratlr',#5,'AISC_EM11_Pset_Opening/Cope',$,(#85,#123,#112,#88));
#125= IFCCARTESIANPOINT((59299.9541938867,1603.38122277425,13900.));
#126= IFCAXIS2PLACEMENT3D(#125,#53,#54);
#127= IFCLOCALPLACEMENT(#42,#126);
#128= IFCCIRCLEPROFILEDEF(.AREA.,$,#51,11.5);
#129= IFCCARTESIANPOINT((0.,-0.1,0.));
#130= IFCAXIS2PLACEMENT3D(#129,#8,#7);
#131= IFCEXTRUDEDAREASOLID(#128,#130,#9,14.8);
#132= IFCSHAPEREPRESENTATION(#12,'Body','SweptSolid',(#131));
#133= IFCREPRESENTATIONMAP(#10,#132);
#134= IFCCARTESIANPOINT((0.,0.,-50.));
#135= IFCCARTESIANTRANSFORMATIONOPERATOR3D($,$,#134,$,$);
#136= IFCMAPPEDITEM(#133,#135);
#137= IFCCARTESIANPOINT((70.,0.,-50.));
#138= IFCCARTESIANTRANSFORMATIONOPERATOR3D($,$,#137,$,$);
#139= IFCMAPPEDITEM(#133,#138);
#140= IFCCARTESIANPOINT((140.,0.,-50.));
#141= IFCCARTESIANTRANSFORMATIONOPERATOR3D($,$,#140,$,$);
#142= IFCMAPPEDITEM(#133,#141);
#143= IFCCARTESIANPOINT((210.,0.,-50.));
#144= IFCCARTESIANTRANSFORMATIONOPERATOR3D($,$,#143,$,$);
#145= IFCMAPPEDITEM(#133,#144);
#146= IFCCARTESIANPOINT((280.,0.,-50.));
#147= IFCCARTESIANTRANSFORMATIONOPERATOR3D($,$,#146,$,$);
#148= IFCMAPPEDITEM(#133,#147);
#149= IFCCARTESIANPOINT((350.,0.,-50.));
#150= IFCCARTESIANTRANSFORMATIONOPERATOR3D($,$,#149,$,$);
#151= IFCMAPPEDITEM(#133,#150);
#152= IFCCARTESIANPOINT((420.,0.,-50.));
#153= IFCCARTESIANTRANSFORMATIONOPERATOR3D($,$,#152,$,$);
#154= IFCMAPPEDITEM(#133,#153);
#155= IFCCARTESIANPOINT((0.,0.,50.));
#156= IFCCARTESIANTRANSFORMATIONOPERATOR3D($,$,#155,$,$);
#157= IFCMAPPEDITEM(#133,#156);
#158= IFCCARTESIANPOINT((70.,0.,50.));
#159= IFCCARTESIANTRANSFORMATIONOPERATOR3D($,$,#158,$,$);
#160= IFCMAPPEDITEM(#133,#159);
#161= IFCCARTESIANPOINT((140.,0.,50.));
#162= IFCCARTESIANTRANSFORMATIONOPERATOR3D($,$,#161,$,$);
#163= IFCMAPPEDITEM(#133,#162);
#164= IFCCARTESIANPOINT((210.,0.,50.));
#165= IFCCARTESIANTRANSFORMATIONOPERATOR3D($,$,#164,$,$);
#166= IFCMAPPEDITEM(#133,#165);
#167= IFCCARTESIANPOINT((280.,0.,50.));
#168= IFCCARTESIANTRANSFORMATIONOPERATOR3D($,$,#167,$,$);
#169= IFCMAPPEDITEM(#133,#168);
#170= IFCCARTESIANPOINT((350.,0.,50.));
#171= IFCCARTESIANTRANSFORMATIONOPERATOR3D($,$,#170,$,$);
#172= IFCMAPPEDITEM(#133,#171);
#173= IFCCARTESIANPOINT((420.,0.,50.));
#174= IFCCARTESIANTRANSFORMATIONOPERATOR3D($,$,#173,$,$);
#175= IFCMAPPEDITEM(#133,#174);
#176= IFCSHAPEREPRESENTATION(#12,'Body','MappedRepresentation',(#136,#139,#142,#145,#148,#151,#154,#157,#160,#163,#166,#169,#172,#175));
#177= IFCPRODUCTDEFINITIONSHAPE($,$,(#176));
#178= IFCOPENINGELEMENT('2ZU$ZNuQ92awfZ8YQYoBPC',#5,$,$,'Opening',#127,#177,$);
#179= IFCRELVOIDSELEMENT('1d7M_dgz53Vfv5gqLqgfU1',#5,'Drill Hole',$,#74,#178);
#180= IFCPROPERTYSINGLEVALUE('FeatureSubTypes',$,IFCLABEL('TORNILLO'),$);
#181= IFCPROPERTYSINGLEVALUE('RectangleOpeningWidth',$,$,$);
#182= IFCPROPERTYSINGLEVALUE('RectangleOpeningHeight',$,$,$);
#183= IFCPROPERTYSET('3skIkOGAD0Be$lvrBrXWWf',#5,'AISC_EM11_Pset_Opening/Cope',$,(#180,#181,#182,#88));
#184= IFCCARTESIANPOINT((59297.299130333,1603.38122277425,13460.));
#185= IFCAXIS2PLACEMENT3D(#184,#8,#54);
#186= IFCLOCALPLACEMENT(#42,#185);
#187= IFCCARTESIANPOINT((0.,-10.0999999999976,0.));
#188= IFCAXIS2PLACEMENT3D(#187,#8,#7);
#189= IFCEXTRUDEDAREASOLID(#128,#188,#9,14.8);
#190= IFCSHAPEREPRESENTATION(#12,'Body','SweptSolid',(#189));
#191= IFCREPRESENTATIONMAP(#10,#190);
#192= IFCMAPPEDITEM(#191,#156);
#193= IFCMAPPEDITEM(#191,#159);
#194= IFCMAPPEDITEM(#191,#162);
#195= IFCMAPPEDITEM(#191,#165);
#196= IFCMAPPEDITEM(#191,#168);
#197= IFCMAPPEDITEM(#191,#171);
#198= IFCMAPPEDITEM(#191,#174);
#199= IFCMAPPEDITEM(#191,#135);
#200= IFCMAPPEDITEM(#191,#138);
#201= IFCMAPPEDITEM(#191,#141);
#202= IFCMAPPEDITEM(#191,#144);
#203= IFCMAPPEDITEM(#191,#147);
#204= IFCMAPPEDITEM(#191,#150);
#205= IFCMAPPEDITEM(#191,#153);
#206= IFCSHAPEREPRESENTATION(#12,'Body','MappedRepresentation',(#192,#193,#194,#195,#196,#197,#198,#199,#200,#201,#202,#203,#204,#205));
#207= IFCPRODUCTDEFINITIONSHAPE($,$,(#206));
#208= IFCOPENINGELEMENT('3Hqk4feGL1Nw_lSHLHVW65',#5,$,$,'Opening',#186,#207,$);
#209= IFCRELVOIDSELEMENT('34O6ERAXr6PA05kyRiB11W',#5,'Drill Hole',$,#74,#208);
#210= IFCCARTESIANPOINT((51683.0979773789,1603.58534481958,13450.));
#211= IFCDIRECTION((-0.000467666999837093,0.999999890643783,0.));
#212= IFCDIRECTION((-0.999999890643783,-0.000467666999833569,0.));
#213= IFCAXIS2PLACEMENT3D(#210,#211,#212);
#214= IFCLOCALPLACEMENT(#42,#213);
#215= IFCSHAPEREPRESENTATION(#12,'Body','MappedRepresentation',(#136,#139,#142,#145,#148,#151,#154,#157,#160,#163,#166,#169,#172,#175));
#216= IFCPRODUCTDEFINITIONSHAPE($,$,(#215));
#217= IFCOPENINGELEMENT('1jLz6fF5H7pfM4wkzc$vGq',#5,$,$,'Opening',#214,#216,$);
#218= IFCRELVOIDSELEMENT('1FF8VhsKrD9A8kNAPRn6td',#5,'Drill Hole',$,#74,#217);
#219= IFCCARTESIANPOINT((51222.9011871916,1603.39096036941,13900.));
#220= IFCAXIS2PLACEMENT3D(#219,#7,#77);
#221= IFCLOCALPLACEMENT(#42,#220);
#222= IFCCARTESIANPOINT((0.,-4.90095604322305,0.));
#223= IFCAXIS2PLACEMENT3D(#222,#8,#7);
#224= IFCEXTRUDEDAREASOLID(#128,#223,#9,9.6);
#225= IFCSHAPEREPRESENTATION(#12,'Body','SweptSolid',(#224));
#226= IFCREPRESENTATIONMAP(#10,#225);
#227= IFCCARTESIANPOINT((85.,0.,40.));
#228= IFCCARTESIANTRANSFORMATIONOPERATOR3D($,$,#227,$,$);
#229= IFCMAPPEDITEM(#226,#228);
#230= IFCCARTESIANPOINT((155.,0.,40.));
#231= IFCCARTESIANTRANSFORMATIONOPERATOR3D($,$,#230,$,$);
#232= IFCMAPPEDITEM(#226,#231);
#233= IFCCARTESIANPOINT((225.,0.,40.));
#234= IFCCARTESIANTRANSFORMATIONOPERATOR3D($,$,#233,$,$);
#235= IFCMAPPEDITEM(#226,#234);
#236= IFCCARTESIANPOINT((295.,0.,40.));
#237= IFCCARTESIANTRANSFORMATIONOPERATOR3D($,$,#236,$,$);
#238= IFCMAPPEDITEM(#226,#237);
#239= IFCCARTESIANPOINT((365.,0.,40.));
#240= IFCCARTESIANTRANSFORMATIONOPERATOR3D($,$,#239,$,$);
#241= IFCMAPPEDITEM(#226,#240);
#242= IFCSHAPEREPRESENTATION(#12,'Body','MappedRepresentation',(#229,#232,#235,#238,#241));
#243= IFCPRODUCTDEFINITIONSHAPE($,$,(#242));
#244= IFCOPENINGELEMENT('0MIEW2Uon5dPp6EQY9gKM1',#5,$,$,'Opening',#221,#243,$);
#245= IFCRELVOIDSELEMENT('2p7GlRcDn4tQM1tz_Fo9wB',#5,'Drill Hole',$,#74,#244);
#246= IFCCARTESIANPOINT((51683.0979773789,1603.58534481958,13900.));
#247= IFCDIRECTION((0.000467666999837093,-0.999999890643783,0.));
#248= IFCAXIS2PLACEMENT3D(#246,#247,#212);
#249= IFCLOCALPLACEMENT(#42,#248);
#250= IFCSHAPEREPRESENTATION(#12,'Body','MappedRepresentation',(#136,#139,#142,#145,#148,#151,#154,#157,#160,#163,#166,#169,#172,#175));
#251= IFCPRODUCTDEFINITIONSHAPE($,$,(#250));
#252= IFCOPENINGELEMENT('2UCsPKaVD8IhoE8cBYJWbV',#5,$,$,'Opening',#249,#251,$);
#253= IFCRELVOIDSELEMENT('0XXBynTdP1pO5rgGtfcstv',#5,'Drill Hole',$,#74,#252);
#254= IFCCARTESIANPOINT((59484.2708060995,1603.3825113665,13900.));
#255= IFCDIRECTION((-0.999999999995596,-2.96800000000984E-06,0.));
#256= IFCAXIS2PLACEMENT3D(#254,#255,#77);
#257= IFCLOCALPLACEMENT(#42,#256);
#258= IFCCIRCLEPROFILEDEF(.AREA.,$,#51,11.);
#259= IFCCARTESIANPOINT((0.,-4.7997499066281,0.));
#260= IFCAXIS2PLACEMENT3D(#259,#8,#7);
#261= IFCEXTRUDEDAREASOLID(#258,#260,#9,9.6);
#262= IFCSHAPEREPRESENTATION(#12,'Body','SweptSolid',(#261));
#263= IFCREPRESENTATIONMAP(#10,#262);
#264= IFCMAPPEDITEM(#263,#228);
#265= IFCMAPPEDITEM(#263,#231);
#266= IFCMAPPEDITEM(#263,#234);
#267= IFCMAPPEDITEM(#263,#237);
#268= IFCMAPPEDITEM(#263,#240);
#269= IFCSHAPEREPRESENTATION(#12,'Body','MappedRepresentation',(#264,#265,#266,#267,#268));
#270= IFCPRODUCTDEFINITIONSHAPE($,$,(#269));
#271= IFCOPENINGELEMENT('1H9EmOeXv65hSEGhL7Joil',#5,$,$,'Opening',#257,#270,$);
#272= IFCRELVOIDSELEMENT('1Kt6p$tcjCmxra7a8DFyBq',#5,'Drill Hole',$,#74,#271);
#273= IFCPROPERTYSINGLEVALUE('PieceMark',$,IFCIDENTIFIER('BEAM'),$);
#274= IFCPROPERTYSINGLEVALUE('IndicationMark',$,IFCIDENTIFIER('b/28'),$);
#275= IFCPROPERTYSINGLEVALUE('PrelimMark',$,IFCIDENTIFIER(''),$);
#276= IFCPROPERTYSINGLEVALUE('MainPieceTag',$,IFCBOOLEAN(.F.),$);
#277= IFCPROPERTYSET('0Jq4HRLsvFWxGPjJtXInCh',#5,'AISC_EM11_Pset_PieceIdentification','PieceIdentity',(#273,#274,#275,#276));
#278= IFCPROPERTYSINGLEVALUE('MaterialType',$,IFCIDENTIFIER('STEEL'),$);
#279= IFCPROPERTYSINGLEVALUE('MaterialGrade',$,IFCIDENTIFIER('S235JR'),$);
#280= IFCPROPERTYSET('3bSc4_ICv2C8vKaIHEQ36E',#5,'AISC_EM11_Pset_Material',$,(#278,#279));
#281= IFCPROPERTYSINGLEVALUE('SkewedAngleY',$,IFCREAL(0.),$);
#282= IFCPROPERTYSINGLEVALUE('SkewedAngleX',$,IFCREAL(0.00065),$);
#283= IFCPROPERTYSET('1d_qIc9qXA$xLprNt39A$T',#5,'AISC_EM11_Pset_SkewedEnd',$,(#281,#282));
#284= IFCPROPERTYSINGLEVALUE('SkewedAngleX',$,IFCREAL(0.),$);
#285= IFCPROPERTYSET('2wPGE_CnzETAEDFJ8Ywl9e',#5,'AISC_EM11_Pset_SkewedEnd_2',$,(#281,#284));
#286= IFCMATERIAL('STEEL/S235JR');
#287= IFCRELAGGREGATES('29pfo9ziv1nfsUV_1XuJZ7',#5,$,$,#37,(#39));
#288= IFCRELAGGREGATES('2R5x4RF_BJ3x8mnGJpAbrP',#5,$,$,#39,(#41));
#289= IFCRELAGGREGATES('1NFB7iwHH7DOiLvc1Rbr$V',#5,$,$,#41,(#43));
#290= IFCRELCONTAINEDINSPATIALSTRUCTURE('2aGP0qyvz4gvSezcSXssDL',#5,$,$,(#74),#43);
#291= IFCRELDEFINESBYPROPERTIES('0zUaVsaIf51e3ft13uKhkk',#5,$,$,(#83),#89);
#292= IFCRELDEFINESBYPROPERTIES('3ZeFsPwYDCDRuSGyycj30o',#5,$,$,(#97),#100);
#293= IFCRELDEFINESBYPROPERTIES('1coqpdBYvFi8AAot9SlI52',#5,$,$,(#109),#113);
#294= IFCRELDEFINESBYPROPERTIES('1qg1PpS6f74h87H34Qk8tt',#5,$,$,(#121),#124);
#295= IFCRELDEFINESBYPROPERTIES('3eR$NPqPbFJgeJWIKspt5c',#5,$,$,(#271,#252,#244,#217,#208,#178),#183);
#296= IFCRELDEFINESBYPROPERTIES('3z2x1WThfDMv9rlKkxz0K0',#5,$,$,(#74),#277);
#297= IFCRELDEFINESBYPROPERTIES('1yWA12GPv81AsHzspb5ZtB',#5,$,$,(#74),#280);
#298= IFCRELDEFINESBYPROPERTIES('1Z$LiRXWj0dx5HLOCyaVqy',#5,$,$,(#74),#283);
#299= IFCRELDEFINESBYPROPERTIES('1GnCSXNRj3og9wxrOw2iqj',#5,$,$,(#74),#285);
#300= IFCRELASSOCIATESMATERIAL('3l$SqmJ6DCEBn8e81PD6pd',#5,$,$,(#74),#286);
ENDSEC;

END-ISO-10303-21;
