ISO-10303-21;
HEADER;
FILE_DESCRIPTION(('ViewDefinition[AISC_Steel_Detailing]', 'Option [BaseQuantities:Off]', 'Option [GridExport:On]', 'Option [Assemblies:Off]', 'Option [Bolts:On]', 'Option [Rebars:On]', 'Option [PourObjects:Off]', 'Option [Welds:On]', 'Option [SurfaceTreatments:On]', 'Option [LocationBy:0]', 'Option [ViewColors:Off]', 'Option [SectionedSpine:Off]', 'Option [PropertySets:On]', 'Option [Export all:Off]'),'2;1');
FILE_NAME('b_288_Qty_1.ifc','2026-05-16T11:53:12',('GIOVANNIPC\\gcorrea'),('Structural Designer'),'IFC Database version: Work','Tekla Structures 2020 Service Pack 5, IFC Export Version: 4.0.0.0 Dec  7 2020','');
FILE_SCHEMA(('IFC2X3'));
ENDSEC;

DATA;
#1= IFCPERSON('GIOVANNIPC\\gcorrea','Undefined',$,$,$,$,$,$);
#2= IFCORGANIZATION($,'Trimble Solutions Corporation',$,$,$);
#3= IFCPERSONANDORGANIZATION(#1,#2,$);
#4= IFCAPPLICATION(#2,'2020 Service Pack 5','Tekla Structures','Multi material modeling');
#5= IFCOWNERHISTORY(#3,#4,$,.NOCHANGE.,$,$,$,1778950392);
#6= IFCCARTESIANPOINT((0.,0.,0.));
#7= IFCDIRECTION((1.,0.,0.));
#8= IFCDIRECTION((0.,1.,0.));
#9= IFCDIRECTION((0.,0.,1.));
#10= IFCAXIS2PLACEMENT3D(#6,#9,#7);
#11= IFCGEOMETRICREPRESENTATIONCONTEXT($,'Model',3,1.E-05,#10,$);
#12= IFCGEOMETRICREPRESENTATIONSUBCONTEXT('Body','Model',*,*,*,*,#11,$,.MODEL_VIEW.,$);
#13= IFCGEOMETRICREPRESENTATIONSUBCONTEXT('Axis','Model',*,*,*,*,#11,$,.GRAPH_VIEW.,$);
#14= IFCGEOMETRICREPRESENTATIONSUBCONTEXT('FootPrint','Model',*,*,*,*,#11,$,.MODEL_VIEW.,$);
#15= IFCSIUNIT(*,.LENGTHUNIT.,.MILLI.,.METRE.);
#16= IFCMEASUREWITHUNIT(IFCRATIOMEASURE(304.8),#15);
#17= IFCDIMENSIONALEXPONENTS(1,0,0,0,0,0,0);
#18= IFCCONVERSIONBASEDUNIT(#17,.LENGTHUNIT.,'FOOT',#16);
#19= IFCSIUNIT(*,.AREAUNIT.,$,.SQUARE_METRE.);
#20= IFCMEASUREWITHUNIT(IFCRATIOMEASURE(0.09290304),#19);
#21= IFCDIMENSIONALEXPONENTS(2,0,0,0,0,0,0);
#22= IFCCONVERSIONBASEDUNIT(#21,.AREAUNIT.,'SQUARE FOOT',#20);
#23= IFCSIUNIT(*,.VOLUMEUNIT.,$,.CUBIC_METRE.);
#24= IFCMEASUREWITHUNIT(IFCRATIOMEASURE(0.028316846592),#23);
#25= IFCDIMENSIONALEXPONENTS(3,0,0,0,0,0,0);
#26= IFCCONVERSIONBASEDUNIT(#25,.VOLUMEUNIT.,'CUBIC FOOT',#24);
#27= IFCSIUNIT(*,.MASSUNIT.,.KILO.,.GRAM.);
#28= IFCSIUNIT(*,.TIMEUNIT.,$,.SECOND.);
#29= IFCSIUNIT(*,.PLANEANGLEUNIT.,$,.RADIAN.);
#30= IFCMEASUREWITHUNIT(IFCRATIOMEASURE(0.0174532925199433),#29);
#31= IFCDIMENSIONALEXPONENTS(0,0,0,0,0,0,0);
#32= IFCCONVERSIONBASEDUNIT(#31,.PLANEANGLEUNIT.,'DEGREE',#30);
#33= IFCSIUNIT(*,.SOLIDANGLEUNIT.,$,.STERADIAN.);
#34= IFCSIUNIT(*,.THERMODYNAMICTEMPERATUREUNIT.,$,.DEGREE_CELSIUS.);
#35= IFCSIUNIT(*,.LUMINOUSINTENSITYUNIT.,$,.LUMEN.);
#36= IFCUNITASSIGNMENT((#15,#19,#23,#27,#28,#29,#33,#34,#35));
#37= IFCPROJECT('2G7ZFDNE16yBDU14FA92Me',#5,'Proyecto',$,$,$,$,(#11),#36);
#38= IFCLOCALPLACEMENT($,#10);
#39= IFCSITE('2xvEzEinjBTea80yOTcujY',#5,'Obra',$,$,#38,$,$,.ELEMENT.,$,$,$,$,$);
#40= IFCLOCALPLACEMENT(#38,#10);
#41= IFCBUILDING('206oi2nZr0weqJZ6TwwqdO',#5,'Undefined',$,$,#40,$,$,.ELEMENT.,$,$,$);
#42= IFCLOCALPLACEMENT(#40,#10);
#43= IFCBUILDINGSTOREY('29hdEUCErFze9E_VIAceOd',#5,'Undefined',$,$,#42,$,$,.ELEMENT.,0.);
#44= IFCOWNERHISTORY(#3,#4,$,.NOCHANGE.,$,$,$,1775505600);
#45= IFCCARTESIANPOINT((82022.3500366211,17380.2069206646,23355.));
#46= IFCAXIS2PLACEMENT3D(#45,#9,#7);
#47= IFCLOCALPLACEMENT(#42,#46);
#48= IFCDIRECTION((1.,0.));
#49= IFCCARTESIANPOINT((0.,0.));
#50= IFCAXIS2PLACEMENT2D(#49,#48);
#51= IFCISHAPEPROFILEDEF(.AREA.,'HEA500',#50,300.,490.,12.,23.,27.);
#52= IFCDIRECTION((0.,-1.,0.));
#53= IFCDIRECTION((-1.,0.,0.));
#54= IFCCARTESIANPOINT((9258.65136421968,0.,0.));
#55= IFCAXIS2PLACEMENT3D(#54,#53,#52);
#56= IFCEXTRUDEDAREASOLID(#51,#55,#9,9258.65);
#57= IFCCARTESIANPOINT((9258.65136421968,1.21965348500817,-325.));
#58= IFCAXIS2PLACEMENT3D(#57,#53,#8);
#59= IFCPLANE(#58);
#60= IFCHALFSPACESOLID(#59,.T.);
#61= IFCBOOLEANCLIPPINGRESULT(.DIFFERENCE.,#56,#60);
#62= IFCSHAPEREPRESENTATION(#12,'Body','Clipping',(#61));
#63= IFCPRODUCTDEFINITIONSHAPE($,$,(#62));
#64= IFCBEAM('054BaYyxb0CeloyjVLNMCz',#44,'BEAM','HEA500','HEA500',#47,#63,'ID0510b922-f3b9-4032-8bf2-f2d7d55d633d');
#65= IFCLOCALPLACEMENT(#42,#46);
#66= IFCRECTANGLEPROFILEDEF(.AREA.,'PL163.2*12',#50,12.,163.2);
#67= IFCDIRECTION((0.,0.,-1.));
#68= IFCCARTESIANPOINT((9274.66012797096,-69.399829864502,221.));
#69= IFCAXIS2PLACEMENT3D(#68,#67,#53);
#70= IFCEXTRUDEDAREASOLID(#66,#69,#9,442.);
#71= IFCSHAPEREPRESENTATION(#12,'Body','SweptSolid',(#70));
#72= IFCPRODUCTDEFINITIONSHAPE($,$,(#71));
#73= IFCOPENINGELEMENT('0lN1q6sCD6hOtf2wR9n7bZ',#5,$,$,'Recess',#65,#72,$);
#74= IFCRELVOIDSELEMENT('2Nx5TPStjAFhmyPgt6vCx8',#5,$,$,#64,#73);
#75= IFCPROPERTYSINGLEVALUE('FeatureSubTypes',$,$,$);
#76= IFCPROPERTYSINGLEVALUE('RectangleOpeningWidth',$,IFCPOSITIVELENGTHMEASURE(12.),$);
#77= IFCPROPERTYSINGLEVALUE('RectangleOpeningHeight',$,IFCPOSITIVELENGTHMEASURE(163.2),$);
#78= IFCPROPERTYSINGLEVALUE('OpeningDiameter',$,$,$);
#79= IFCPROPERTYSET('2FfE866dvALxO7PMBQbgYk',#5,'AISC_EM11_Pset_Opening/Cope',$,(#75,#76,#77,#78));
#80= IFCLOCALPLACEMENT(#42,#46);
#81= IFCRECTANGLEPROFILEDEF(.AREA.,'PL162.8*12',#50,12.,162.8);
#82= IFCCARTESIANPOINT((9274.66012797096,69.600170135498,221.));
#83= IFCAXIS2PLACEMENT3D(#82,#67,#53);
#84= IFCEXTRUDEDAREASOLID(#81,#83,#9,442.);
#85= IFCSHAPEREPRESENTATION(#12,'Body','SweptSolid',(#84));
#86= IFCPRODUCTDEFINITIONSHAPE($,$,(#85));
#87= IFCOPENINGELEMENT('1u8jHuPNP1bxro3CLWo9H8',#5,$,$,'Recess',#80,#86,$);
#88= IFCRELVOIDSELEMENT('29NA6zxwPDkPTpeICECBbn',#5,$,$,#64,#87);
#89= IFCPROPERTYSINGLEVALUE('RectangleOpeningHeight',$,IFCPOSITIVELENGTHMEASURE(162.8),$);
#90= IFCPROPERTYSET('2BxlDS31vFqvS8EBp0hHm9',#5,'AISC_EM11_Pset_Opening/Cope',$,(#75,#76,#89,#78));
#91= IFCLOCALPLACEMENT(#42,#46);
#92= IFCRECTANGLEPROFILEDEF(.AREA.,'PL108*12',#50,12.,108.);
#93= IFCCARTESIANPOINT((9274.65136421968,-40.7803465149918,226.));
#94= IFCAXIS2PLACEMENT3D(#93,#67,#53);
#95= IFCEXTRUDEDAREASOLID(#92,#94,#9,452.);
#96= IFCSHAPEREPRESENTATION(#12,'Body','SweptSolid',(#95));
#97= IFCPRODUCTDEFINITIONSHAPE($,$,(#96));
#98= IFCOPENINGELEMENT('0Q6QHQ2rr8JPhXOw0Py_eA',#5,$,$,'Recess',#91,#97,$);
#99= IFCRELVOIDSELEMENT('1sGnBINrL5r8Fkx9b$LEoA',#5,$,$,#64,#98);
#100= IFCPROPERTYSINGLEVALUE('RectangleOpeningHeight',$,IFCPOSITIVELENGTHMEASURE(108.),$);
#101= IFCPROPERTYSET('0eiW97B7911PlFlgER77BH',#5,'AISC_EM11_Pset_Opening/Cope',$,(#75,#76,#100,#78));
#102= IFCLOCALPLACEMENT(#42,#46);
#103= IFCCARTESIANPOINT((9274.65136421968,43.2196534850082,226.));
#104= IFCAXIS2PLACEMENT3D(#103,#67,#53);
#105= IFCEXTRUDEDAREASOLID(#92,#104,#9,452.);
#106= IFCSHAPEREPRESENTATION(#12,'Body','SweptSolid',(#105));
#107= IFCPRODUCTDEFINITIONSHAPE($,$,(#106));
#108= IFCOPENINGELEMENT('2HdHhJKg99jAUIHI5LCbcs',#5,$,$,'Recess',#102,#107,$);
#109= IFCRELVOIDSELEMENT('0T9u5B7Gn6qgyUM3oZb7Cx',#5,$,$,#64,#108);
#110= IFCCARTESIANPOINT((82067.9433245468,17380.7794118507,23120.));
#111= IFCAXIS2PLACEMENT3D(#110,#52,#7);
#112= IFCLOCALPLACEMENT(#42,#111);
#113= IFCCIRCLEPROFILEDEF(.AREA.,$,#50,11.5);
#114= IFCCARTESIANPOINT((0.,-10.1,0.));
#115= IFCAXIS2PLACEMENT3D(#114,#8,#7);
#116= IFCEXTRUDEDAREASOLID(#113,#115,#9,23.2);
#117= IFCSHAPEREPRESENTATION(#12,'Body','SweptSolid',(#116));
#118= IFCREPRESENTATIONMAP(#10,#117);
#119= IFCCARTESIANPOINT((0.,0.,75.));
#120= IFCCARTESIANTRANSFORMATIONOPERATOR3D($,$,#119,$,$);
#121= IFCMAPPEDITEM(#118,#120);
#122= IFCCARTESIANPOINT((75.,0.,75.));
#123= IFCCARTESIANTRANSFORMATIONOPERATOR3D($,$,#122,$,$);
#124= IFCMAPPEDITEM(#118,#123);
#125= IFCCARTESIANPOINT((150.,0.,75.));
#126= IFCCARTESIANTRANSFORMATIONOPERATOR3D($,$,#125,$,$);
#127= IFCMAPPEDITEM(#118,#126);
#128= IFCCARTESIANPOINT((225.,0.,75.));
#129= IFCCARTESIANTRANSFORMATIONOPERATOR3D($,$,#128,$,$);
#130= IFCMAPPEDITEM(#118,#129);
#131= IFCCARTESIANPOINT((300.,0.,75.));
#132= IFCCARTESIANTRANSFORMATIONOPERATOR3D($,$,#131,$,$);
#133= IFCMAPPEDITEM(#118,#132);
#134= IFCCARTESIANPOINT((375.,0.,75.));
#135= IFCCARTESIANTRANSFORMATIONOPERATOR3D($,$,#134,$,$);
#136= IFCMAPPEDITEM(#118,#135);
#137= IFCCARTESIANPOINT((450.,0.,75.));
#138= IFCCARTESIANTRANSFORMATIONOPERATOR3D($,$,#137,$,$);
#139= IFCMAPPEDITEM(#118,#138);
#140= IFCCARTESIANPOINT((525.,0.,75.));
#141= IFCCARTESIANTRANSFORMATIONOPERATOR3D($,$,#140,$,$);
#142= IFCMAPPEDITEM(#118,#141);
#143= IFCCARTESIANPOINT((600.,0.,75.));
#144= IFCCARTESIANTRANSFORMATIONOPERATOR3D($,$,#143,$,$);
#145= IFCMAPPEDITEM(#118,#144);
#146= IFCCARTESIANPOINT((675.,0.,75.));
#147= IFCCARTESIANTRANSFORMATIONOPERATOR3D($,$,#146,$,$);
#148= IFCMAPPEDITEM(#118,#147);
#149= IFCCARTESIANPOINT((0.,0.,-75.));
#150= IFCCARTESIANTRANSFORMATIONOPERATOR3D($,$,#149,$,$);
#151= IFCMAPPEDITEM(#118,#150);
#152= IFCCARTESIANPOINT((75.,0.,-75.));
#153= IFCCARTESIANTRANSFORMATIONOPERATOR3D($,$,#152,$,$);
#154= IFCMAPPEDITEM(#118,#153);
#155= IFCCARTESIANPOINT((150.,0.,-75.));
#156= IFCCARTESIANTRANSFORMATIONOPERATOR3D($,$,#155,$,$);
#157= IFCMAPPEDITEM(#118,#156);
#158= IFCCARTESIANPOINT((225.,0.,-75.));
#159= IFCCARTESIANTRANSFORMATIONOPERATOR3D($,$,#158,$,$);
#160= IFCMAPPEDITEM(#118,#159);
#161= IFCCARTESIANPOINT((300.,0.,-75.));
#162= IFCCARTESIANTRANSFORMATIONOPERATOR3D($,$,#161,$,$);
#163= IFCMAPPEDITEM(#118,#162);
#164= IFCCARTESIANPOINT((375.,0.,-75.));
#165= IFCCARTESIANTRANSFORMATIONOPERATOR3D($,$,#164,$,$);
#166= IFCMAPPEDITEM(#118,#165);
#167= IFCCARTESIANPOINT((450.,0.,-75.));
#168= IFCCARTESIANTRANSFORMATIONOPERATOR3D($,$,#167,$,$);
#169= IFCMAPPEDITEM(#118,#168);
#170= IFCCARTESIANPOINT((525.,0.,-75.));
#171= IFCCARTESIANTRANSFORMATIONOPERATOR3D($,$,#170,$,$);
#172= IFCMAPPEDITEM(#118,#171);
#173= IFCCARTESIANPOINT((600.,0.,-75.));
#174= IFCCARTESIANTRANSFORMATIONOPERATOR3D($,$,#173,$,$);
#175= IFCMAPPEDITEM(#118,#174);
#176= IFCCARTESIANPOINT((675.,0.,-75.));
#177= IFCCARTESIANTRANSFORMATIONOPERATOR3D($,$,#176,$,$);
#178= IFCMAPPEDITEM(#118,#177);
#179= IFCSHAPEREPRESENTATION(#12,'Body','MappedRepresentation',(#121,#124,#127,#130,#133,#136,#139,#142,#145,#148,#151,#154,#157,#160,#163,#166,#169,#172,#175,#178));
#180= IFCPRODUCTDEFINITIONSHAPE($,$,(#179));
#181= IFCOPENINGELEMENT('2NOvFofNPC49aoy3URCgA5',#5,$,$,'Opening',#112,#180,$);
#182= IFCRELVOIDSELEMENT('0N8CNFFon049DJT5B$jAzS',#5,'Drill Hole',$,#64,#181);
#183= IFCPROPERTYSINGLEVALUE('FeatureSubTypes',$,IFCLABEL('TORNILLO'),$);
#184= IFCPROPERTYSINGLEVALUE('RectangleOpeningWidth',$,$,$);
#185= IFCPROPERTYSINGLEVALUE('RectangleOpeningHeight',$,$,$);
#186= IFCPROPERTYSET('3mmUeG01XFU8RtDnpEwcbL',#5,'AISC_EM11_Pset_Opening/Cope',$,(#183,#184,#185,#78));
#187= IFCCARTESIANPOINT((82067.9433245468,17380.7794118507,23600.));
#188= IFCAXIS2PLACEMENT3D(#187,#8,#7);
#189= IFCLOCALPLACEMENT(#42,#188);
#190= IFCCARTESIANPOINT((0.,-0.1,0.));
#191= IFCAXIS2PLACEMENT3D(#190,#8,#7);
#192= IFCEXTRUDEDAREASOLID(#113,#191,#9,23.2);
#193= IFCSHAPEREPRESENTATION(#12,'Body','SweptSolid',(#192));
#194= IFCREPRESENTATIONMAP(#10,#193);
#195= IFCMAPPEDITEM(#194,#150);
#196= IFCMAPPEDITEM(#194,#153);
#197= IFCMAPPEDITEM(#194,#156);
#198= IFCMAPPEDITEM(#194,#159);
#199= IFCMAPPEDITEM(#194,#162);
#200= IFCMAPPEDITEM(#194,#165);
#201= IFCMAPPEDITEM(#194,#168);
#202= IFCMAPPEDITEM(#194,#171);
#203= IFCMAPPEDITEM(#194,#174);
#204= IFCMAPPEDITEM(#194,#177);
#205= IFCMAPPEDITEM(#194,#120);
#206= IFCMAPPEDITEM(#194,#123);
#207= IFCMAPPEDITEM(#194,#126);
#208= IFCMAPPEDITEM(#194,#129);
#209= IFCMAPPEDITEM(#194,#132);
#210= IFCMAPPEDITEM(#194,#135);
#211= IFCMAPPEDITEM(#194,#138);
#212= IFCMAPPEDITEM(#194,#141);
#213= IFCMAPPEDITEM(#194,#144);
#214= IFCMAPPEDITEM(#194,#147);
#215= IFCSHAPEREPRESENTATION(#12,'Body','MappedRepresentation',(#195,#196,#197,#198,#199,#200,#201,#202,#203,#204,#205,#206,#207,#208,#209,#210,#211,#212,#213,#214));
#216= IFCPRODUCTDEFINITIONSHAPE($,$,(#215));
#217= IFCOPENINGELEMENT('2eHuSFY656Nf7tmlD3Wh0F',#5,$,$,'Opening',#189,#216,$);
#218= IFCRELVOIDSELEMENT('2Uv4KADCH2_OvAzcnjVCp1',#5,'Drill Hole',$,#64,#217);
#219= IFCCARTESIANPOINT((91236.0189092897,17380.7807003711,23135.));
#220= IFCDIRECTION((-7.12890000286281E-05,0.999999997458939,0.));
#221= IFCDIRECTION((-0.999999997458939,-7.12890000318489E-05,0.));
#222= IFCAXIS2PLACEMENT3D(#219,#220,#221);
#223= IFCLOCALPLACEMENT(#42,#222);
#224= IFCCARTESIANPOINT((0.,-25.1,0.));
#225= IFCAXIS2PLACEMENT3D(#224,#8,#7);
#226= IFCEXTRUDEDAREASOLID(#113,#225,#9,23.2);
#227= IFCSHAPEREPRESENTATION(#12,'Body','SweptSolid',(#226));
#228= IFCREPRESENTATIONMAP(#10,#227);
#229= IFCMAPPEDITEM(#228,#120);
#230= IFCMAPPEDITEM(#228,#123);
#231= IFCMAPPEDITEM(#228,#126);
#232= IFCMAPPEDITEM(#228,#129);
#233= IFCMAPPEDITEM(#228,#132);
#234= IFCMAPPEDITEM(#228,#135);
#235= IFCMAPPEDITEM(#228,#138);
#236= IFCMAPPEDITEM(#228,#141);
#237= IFCMAPPEDITEM(#228,#144);
#238= IFCMAPPEDITEM(#228,#147);
#239= IFCMAPPEDITEM(#228,#150);
#240= IFCMAPPEDITEM(#228,#153);
#241= IFCMAPPEDITEM(#228,#156);
#242= IFCMAPPEDITEM(#228,#159);
#243= IFCMAPPEDITEM(#228,#162);
#244= IFCMAPPEDITEM(#228,#165);
#245= IFCMAPPEDITEM(#228,#168);
#246= IFCMAPPEDITEM(#228,#171);
#247= IFCMAPPEDITEM(#228,#174);
#248= IFCMAPPEDITEM(#228,#177);
#249= IFCSHAPEREPRESENTATION(#12,'Body','MappedRepresentation',(#229,#230,#231,#232,#233,#234,#235,#236,#237,#238,#239,#240,#241,#242,#243,#244,#245,#246,#247,#248));
#250= IFCPRODUCTDEFINITIONSHAPE($,$,(#249));
#251= IFCOPENINGELEMENT('3zZTRX5e1E5w38bz0Xee4I',#5,$,$,'Opening',#223,#250,$);
#252= IFCRELVOIDSELEMENT('3mgBEsZiT4COIQ$kn1nkap',#5,'Drill Hole',$,#64,#251);
#253= IFCCARTESIANPOINT((91236.0189092897,17380.7807003711,23594.));
#254= IFCDIRECTION((7.12890000286279E-05,-0.999999997458939,0.));
#255= IFCAXIS2PLACEMENT3D(#253,#254,#221);
#256= IFCLOCALPLACEMENT(#42,#255);
#257= IFCCARTESIANPOINT((0.,-6.1,0.));
#258= IFCAXIS2PLACEMENT3D(#257,#8,#7);
#259= IFCEXTRUDEDAREASOLID(#113,#258,#9,23.2);
#260= IFCSHAPEREPRESENTATION(#12,'Body','SweptSolid',(#259));
#261= IFCREPRESENTATIONMAP(#10,#260);
#262= IFCMAPPEDITEM(#261,#150);
#263= IFCMAPPEDITEM(#261,#153);
#264= IFCMAPPEDITEM(#261,#156);
#265= IFCMAPPEDITEM(#261,#159);
#266= IFCMAPPEDITEM(#261,#162);
#267= IFCMAPPEDITEM(#261,#165);
#268= IFCMAPPEDITEM(#261,#168);
#269= IFCMAPPEDITEM(#261,#171);
#270= IFCMAPPEDITEM(#261,#174);
#271= IFCMAPPEDITEM(#261,#177);
#272= IFCMAPPEDITEM(#261,#120);
#273= IFCMAPPEDITEM(#261,#123);
#274= IFCMAPPEDITEM(#261,#126);
#275= IFCMAPPEDITEM(#261,#129);
#276= IFCMAPPEDITEM(#261,#132);
#277= IFCMAPPEDITEM(#261,#135);
#278= IFCMAPPEDITEM(#261,#138);
#279= IFCMAPPEDITEM(#261,#141);
#280= IFCMAPPEDITEM(#261,#144);
#281= IFCMAPPEDITEM(#261,#147);
#282= IFCSHAPEREPRESENTATION(#12,'Body','MappedRepresentation',(#262,#263,#264,#265,#266,#267,#268,#269,#270,#271,#272,#273,#274,#275,#276,#277,#278,#279,#280,#281));
#283= IFCPRODUCTDEFINITIONSHAPE($,$,(#282));
#284= IFCOPENINGELEMENT('3_MQX5BGLBK85BeIXxAin1',#5,$,$,'Opening',#256,#283,$);
#285= IFCRELVOIDSELEMENT('1s1lovAU521Bc$pNp2e1P6',#5,'Drill Hole',$,#64,#284);
#286= IFCCARTESIANPOINT((91281.0189283433,17380.2069206646,23575.));
#287= IFCAXIS2PLACEMENT3D(#286,#53,#67);
#288= IFCLOCALPLACEMENT(#42,#287);
#289= IFCCIRCLEPROFILEDEF(.AREA.,$,#50,12.5);
#290= IFCEXTRUDEDAREASOLID(#289,#258,#9,12.2);
#291= IFCSHAPEREPRESENTATION(#12,'Body','SweptSolid',(#290));
#292= IFCREPRESENTATIONMAP(#10,#291);
#293= IFCCARTESIANPOINT((107.5,0.,45.));
#294= IFCCARTESIANTRANSFORMATIONOPERATOR3D($,$,#293,$,$);
#295= IFCMAPPEDITEM(#292,#294);
#296= IFCCARTESIANPOINT((182.5,0.,45.));
#297= IFCCARTESIANTRANSFORMATIONOPERATOR3D($,$,#296,$,$);
#298= IFCMAPPEDITEM(#292,#297);
#299= IFCCARTESIANPOINT((257.5,0.,45.));
#300= IFCCARTESIANTRANSFORMATIONOPERATOR3D($,$,#299,$,$);
#301= IFCMAPPEDITEM(#292,#300);
#302= IFCCARTESIANPOINT((332.5,0.,45.));
#303= IFCCARTESIANTRANSFORMATIONOPERATOR3D($,$,#302,$,$);
#304= IFCMAPPEDITEM(#292,#303);
#305= IFCSHAPEREPRESENTATION(#12,'Body','MappedRepresentation',(#295,#298,#301,#304));
#306= IFCPRODUCTDEFINITIONSHAPE($,$,(#305));
#307= IFCOPENINGELEMENT('2MmokhBjH3Swt6apA4BEkZ',#5,$,$,'Opening',#288,#306,$);
#308= IFCRELVOIDSELEMENT('03oDywD0jC39wOdw981EzM',#5,'Drill Hole',$,#64,#307);
#309= IFCPROPERTYSINGLEVALUE('PieceMark',$,IFCIDENTIFIER('BEAM'),$);
#310= IFCPROPERTYSINGLEVALUE('IndicationMark',$,IFCIDENTIFIER('b/288'),$);
#311= IFCPROPERTYSINGLEVALUE('PrelimMark',$,IFCIDENTIFIER(''),$);
#312= IFCPROPERTYSINGLEVALUE('MainPieceTag',$,IFCBOOLEAN(.T.),$);
#313= IFCPROPERTYSET('38_t8tFD51XvbIEJ6$GWQZ',#5,'AISC_EM11_Pset_PieceIdentification','PieceIdentity',(#309,#310,#311,#312));
#314= IFCPROPERTYSINGLEVALUE('MaterialType',$,IFCIDENTIFIER('STEEL'),$);
#315= IFCPROPERTYSINGLEVALUE('MaterialGrade',$,IFCIDENTIFIER('S235JR'),$);
#316= IFCPROPERTYSET('2Ng57ZShXDPOko6DR1xSqt',#5,'AISC_EM11_Pset_Material',$,(#314,#315));
#317= IFCPROPERTYSINGLEVALUE('SkewedAngleY',$,IFCREAL(0.),$);
#318= IFCPROPERTYSINGLEVALUE('SkewedAngleX',$,IFCREAL(0.),$);
#319= IFCPROPERTYSET('090r5FUZb46uw5E8KU1bCv',#5,'AISC_EM11_Pset_SkewedEnd',$,(#317,#318));
#320= IFCPROPERTYSET('0otbt77ND1xOav4FxAG3XU',#5,'AISC_EM11_Pset_SkewedEnd_2',$,(#317,#318));
#321= IFCMATERIAL('STEEL/S235JR');
#322= IFCRELAGGREGATES('3qEo2TkiPC99pUIrCQy82P',#5,$,$,#37,(#39));
#323= IFCRELAGGREGATES('26W4Kl0_hURR5ma7UiEQKh',#5,$,$,#39,(#41));
#324= IFCRELAGGREGATES('193fx60rDBChaITjokX_b$',#5,$,$,#41,(#43));
#325= IFCRELCONTAINEDINSPATIALSTRUCTURE('3KmJh7Uub4teIYCkOOFh8t',#5,$,$,(#64),#43);
#326= IFCRELDEFINESBYPROPERTIES('0hNLS88uf82hnnMv8EtHrC',#5,$,$,(#73),#79);
#327= IFCRELDEFINESBYPROPERTIES('3NESchcnb5cu$_KnGSpwi5',#5,$,$,(#87),#90);
#328= IFCRELDEFINESBYPROPERTIES('2u5RxRGY11NQPnBs2jw1iJ',#5,$,$,(#108,#98),#101);
#329= IFCRELDEFINESBYPROPERTIES('0ufXoliZ17qgU2k6dmhph_',#5,$,$,(#307,#284,#251,#217,#181),#186);
#330= IFCRELDEFINESBYPROPERTIES('1PSsHyaATEVRCOnHzXjoMD',#5,$,$,(#64),#313);
#331= IFCRELDEFINESBYPROPERTIES('2YAUailuX659xm_$jKM$7X',#5,$,$,(#64),#316);
#332= IFCRELDEFINESBYPROPERTIES('0uo98a8Mv7bRJZJaUOkrQ0',#5,$,$,(#64),#319);
#333= IFCRELDEFINESBYPROPERTIES('2KolUf96D7yxTo99YiZRyN',#5,$,$,(#64),#320);
#334= IFCRELASSOCIATESMATERIAL('1EpEm8gGP1HRIE_3DWOeVf',#5,$,$,(#64),#321);
ENDSEC;

END-ISO-10303-21;
