ISO-10303-21;
HEADER;
FILE_DESCRIPTION(('ViewDefinition[AISC_Steel_Detailing]', 'Option [BaseQuantities:Off]', 'Option [GridExport:On]', 'Option [Assemblies:Off]', 'Option [Bolts:On]', 'Option [Rebars:On]', 'Option [PourObjects:Off]', 'Option [Welds:On]', 'Option [SurfaceTreatments:On]', 'Option [LocationBy:0]', 'Option [ViewColors:Off]', 'Option [SectionedSpine:Off]', 'Option [PropertySets:On]', 'Option [Export all:Off]'),'2;1');
FILE_NAME('b_284_Qty_1.ifc','2026-05-16T11:53:12',('GIOVANNIPC\\gcorrea'),('Structural Designer'),'IFC Database version: Work','Tekla Structures 2020 Service Pack 5, IFC Export Version: 4.0.0.0 Dec  7 2020','');
FILE_SCHEMA(('IFC2X3'));
ENDSEC;

DATA;
#1= IFCPERSON('GIOVANNIPC\\gcorrea','Undefined',$,$,$,$,$,$);
#2= IFCORGANIZATION($,'Trimble Solutions Corporation',$,$,$);
#3= IFCPERSONANDORGANIZATION(#1,#2,$);
#4= IFCAPPLICATION(#2,'2020 Service Pack 5','Tekla Structures','Multi material modeling');
#5= IFCOWNERHISTORY(#3,#4,$,.NOCHANGE.,$,$,$,1778950392);
#6= IFCCARTESIANPOINT((0.,0.,0.));
#7= IFCDIRECTION((1.,0.,0.));
#8= IFCDIRECTION((0.,1.,0.));
#9= IFCDIRECTION((0.,0.,1.));
#10= IFCAXIS2PLACEMENT3D(#6,#9,#7);
#11= IFCGEOMETRICREPRESENTATIONCONTEXT($,'Model',3,1.E-05,#10,$);
#12= IFCGEOMETRICREPRESENTATIONSUBCONTEXT('Body','Model',*,*,*,*,#11,$,.MODEL_VIEW.,$);
#13= IFCGEOMETRICREPRESENTATIONSUBCONTEXT('Axis','Model',*,*,*,*,#11,$,.GRAPH_VIEW.,$);
#14= IFCGEOMETRICREPRESENTATIONSUBCONTEXT('FootPrint','Model',*,*,*,*,#11,$,.MODEL_VIEW.,$);
#15= IFCSIUNIT(*,.LENGTHUNIT.,.MILLI.,.METRE.);
#16= IFCMEASUREWITHUNIT(IFCRATIOMEASURE(304.8),#15);
#17= IFCDIMENSIONALEXPONENTS(1,0,0,0,0,0,0);
#18= IFCCONVERSIONBASEDUNIT(#17,.LENGTHUNIT.,'FOOT',#16);
#19= IFCSIUNIT(*,.AREAUNIT.,$,.SQUARE_METRE.);
#20= IFCMEASUREWITHUNIT(IFCRATIOMEASURE(0.09290304),#19);
#21= IFCDIMENSIONALEXPONENTS(2,0,0,0,0,0,0);
#22= IFCCONVERSIONBASEDUNIT(#21,.AREAUNIT.,'SQUARE FOOT',#20);
#23= IFCSIUNIT(*,.VOLUMEUNIT.,$,.CUBIC_METRE.);
#24= IFCMEASUREWITHUNIT(IFCRATIOMEASURE(0.028316846592),#23);
#25= IFCDIMENSIONALEXPONENTS(3,0,0,0,0,0,0);
#26= IFCCONVERSIONBASEDUNIT(#25,.VOLUMEUNIT.,'CUBIC FOOT',#24);
#27= IFCSIUNIT(*,.MASSUNIT.,.KILO.,.GRAM.);
#28= IFCSIUNIT(*,.TIMEUNIT.,$,.SECOND.);
#29= IFCSIUNIT(*,.PLANEANGLEUNIT.,$,.RADIAN.);
#30= IFCMEASUREWITHUNIT(IFCRATIOMEASURE(0.0174532925199433),#29);
#31= IFCDIMENSIONALEXPONENTS(0,0,0,0,0,0,0);
#32= IFCCONVERSIONBASEDUNIT(#31,.PLANEANGLEUNIT.,'DEGREE',#30);
#33= IFCSIUNIT(*,.SOLIDANGLEUNIT.,$,.STERADIAN.);
#34= IFCSIUNIT(*,.THERMODYNAMICTEMPERATUREUNIT.,$,.DEGREE_CELSIUS.);
#35= IFCSIUNIT(*,.LUMINOUSINTENSITYUNIT.,$,.LUMEN.);
#36= IFCUNITASSIGNMENT((#15,#19,#23,#27,#28,#29,#33,#34,#35));
#37= IFCPROJECT('2G7ZFDNE16yBDU14FA92Me',#5,'Proyecto',$,$,$,$,(#11),#36);
#38= IFCLOCALPLACEMENT($,#10);
#39= IFCSITE('2xvEzEinjBTea80yOTcujY',#5,'Obra',$,$,#38,$,$,.ELEMENT.,$,$,$,$,$);
#40= IFCLOCALPLACEMENT(#38,#10);
#41= IFCBUILDING('0yXVgzUoLBbRAM6ekv8q3g',#5,'Undefined',$,$,#40,$,$,.ELEMENT.,$,$,$);
#42= IFCLOCALPLACEMENT(#40,#10);
#43= IFCBUILDINGSTOREY('29hdEUCErFze9E_VIAceOd',#5,'Undefined',$,$,#42,$,$,.ELEMENT.,0.);
#44= IFCOWNERHISTORY(#3,#4,$,.NOCHANGE.,$,$,$,1775505600);
#45= IFCCARTESIANPOINT((76500.2095336914,8120.20669178275,23355.));
#46= IFCAXIS2PLACEMENT3D(#45,#9,#7);
#47= IFCLOCALPLACEMENT(#42,#46);
#48= IFCDIRECTION((1.,0.));
#49= IFCCARTESIANPOINT((0.,0.));
#50= IFCAXIS2PLACEMENT2D(#49,#48);
#51= IFCISHAPEPROFILEDEF(.AREA.,'HEA500',#50,300.,490.,12.,23.,27.);
#52= IFCDIRECTION((0.,-1.,0.));
#53= IFCDIRECTION((-1.,0.,0.));
#54= IFCCARTESIANPOINT((5076.75128173828,0.,0.));
#55= IFCAXIS2PLACEMENT3D(#54,#53,#52);
#56= IFCEXTRUDEDAREASOLID(#51,#55,#9,5076.75);
#57= IFCCARTESIANPOINT((5076.75128173828,1.21965348500999,-325.));
#58= IFCAXIS2PLACEMENT3D(#57,#53,#8);
#59= IFCPLANE(#58);
#60= IFCHALFSPACESOLID(#59,.T.);
#61= IFCBOOLEANCLIPPINGRESULT(.DIFFERENCE.,#56,#60);
#62= IFCSHAPEREPRESENTATION(#12,'Body','Clipping',(#61));
#63= IFCPRODUCTDEFINITIONSHAPE($,$,(#62));
#64= IFCBEAM('1KEezx0if5JRaUDQWpbPKb',#44,'BEAM','HEA500','HEA500',#47,#63,'ID543a8f7b-02ca-454d-b91e-35a833959525');
#65= IFCLOCALPLACEMENT(#42,#46);
#66= IFCRECTANGLEPROFILEDEF(.AREA.,'PL163.2*12',#50,12.,163.2);
#67= IFCDIRECTION((0.,0.,-1.));
#68= IFCCARTESIANPOINT((5092.76004548956,-69.399829864502,221.));
#69= IFCAXIS2PLACEMENT3D(#68,#67,#53);
#70= IFCEXTRUDEDAREASOLID(#66,#69,#9,442.);
#71= IFCSHAPEREPRESENTATION(#12,'Body','SweptSolid',(#70));
#72= IFCPRODUCTDEFINITIONSHAPE($,$,(#71));
#73= IFCOPENINGELEMENT('0ZRhZI65r0mxAzPY5jeY1r',#5,$,$,'Recess',#65,#72,$);
#74= IFCRELVOIDSELEMENT('1sUG0ny3nBIQfYRe9omx4h',#5,$,$,#64,#73);
#75= IFCPROPERTYSINGLEVALUE('FeatureSubTypes',$,$,$);
#76= IFCPROPERTYSINGLEVALUE('RectangleOpeningWidth',$,IFCPOSITIVELENGTHMEASURE(12.),$);
#77= IFCPROPERTYSINGLEVALUE('RectangleOpeningHeight',$,IFCPOSITIVELENGTHMEASURE(163.2),$);
#78= IFCPROPERTYSINGLEVALUE('OpeningDiameter',$,$,$);
#79= IFCPROPERTYSET('2XgZr5Xm1BvwL_lNljZA3e',#5,'AISC_EM11_Pset_Opening/Cope',$,(#75,#76,#77,#78));
#80= IFCLOCALPLACEMENT(#42,#46);
#81= IFCRECTANGLEPROFILEDEF(.AREA.,'PL162.8*12',#50,12.,162.8);
#82= IFCCARTESIANPOINT((5092.76004548956,69.600170135498,221.));
#83= IFCAXIS2PLACEMENT3D(#82,#67,#53);
#84= IFCEXTRUDEDAREASOLID(#81,#83,#9,442.);
#85= IFCSHAPEREPRESENTATION(#12,'Body','SweptSolid',(#84));
#86= IFCPRODUCTDEFINITIONSHAPE($,$,(#85));
#87= IFCOPENINGELEMENT('1lnBG3aND2eOTsahRAu90U',#5,$,$,'Recess',#80,#86,$);
#88= IFCRELVOIDSELEMENT('1IA0lGrkL50BVkq9krAdG2',#5,$,$,#64,#87);
#89= IFCPROPERTYSINGLEVALUE('RectangleOpeningHeight',$,IFCPOSITIVELENGTHMEASURE(162.8),$);
#90= IFCPROPERTYSET('0IhhVkk4D8pRqFbvzarV76',#5,'AISC_EM11_Pset_Opening/Cope',$,(#75,#76,#89,#78));
#91= IFCLOCALPLACEMENT(#42,#46);
#92= IFCRECTANGLEPROFILEDEF(.AREA.,'PL108*12',#50,12.,108.);
#93= IFCCARTESIANPOINT((5092.75128173828,-40.78034651499,226.));
#94= IFCAXIS2PLACEMENT3D(#93,#67,#53);
#95= IFCEXTRUDEDAREASOLID(#92,#94,#9,452.);
#96= IFCSHAPEREPRESENTATION(#12,'Body','SweptSolid',(#95));
#97= IFCPRODUCTDEFINITIONSHAPE($,$,(#96));
#98= IFCOPENINGELEMENT('3nfXc1GSr9C9N6r3NEDjEV',#5,$,$,'Recess',#91,#97,$);
#99= IFCRELVOIDSELEMENT('1bCr8bO6DBKeTGBqoBPwNd',#5,$,$,#64,#98);
#100= IFCPROPERTYSINGLEVALUE('RectangleOpeningHeight',$,IFCPOSITIVELENGTHMEASURE(108.),$);
#101= IFCPROPERTYSET('1wee8r75fDn8KkHFD9WfxR',#5,'AISC_EM11_Pset_Opening/Cope',$,(#75,#76,#100,#78));
#102= IFCLOCALPLACEMENT(#42,#46);
#103= IFCCARTESIANPOINT((5092.75128173828,43.21965348501,226.));
#104= IFCAXIS2PLACEMENT3D(#103,#67,#53);
#105= IFCEXTRUDEDAREASOLID(#92,#104,#9,452.);
#106= IFCSHAPEREPRESENTATION(#12,'Body','SweptSolid',(#105));
#107= IFCPRODUCTDEFINITIONSHAPE($,$,(#106));
#108= IFCOPENINGELEMENT('09g2rxOr59tupQw5R8DlgA',#5,$,$,'Recess',#102,#107,$);
#109= IFCRELVOIDSELEMENT('1jflBwkE1E$geRqGoAxKMT',#5,$,$,#64,#108);
#110= IFCCARTESIANPOINT((81531.9783238786,8120.78047148926,23120.));
#111= IFCDIRECTION((-7.12890000286279E-05,0.999999997458939,0.));
#112= IFCDIRECTION((-0.999999997458939,-7.12890000330456E-05,0.));
#113= IFCAXIS2PLACEMENT3D(#110,#111,#112);
#114= IFCLOCALPLACEMENT(#42,#113);
#115= IFCCIRCLEPROFILEDEF(.AREA.,$,#50,11.5);
#116= IFCCARTESIANPOINT((0.,-10.1,0.));
#117= IFCAXIS2PLACEMENT3D(#116,#8,#7);
#118= IFCEXTRUDEDAREASOLID(#115,#117,#9,23.2);
#119= IFCSHAPEREPRESENTATION(#12,'Body','SweptSolid',(#118));
#120= IFCREPRESENTATIONMAP(#10,#119);
#121= IFCCARTESIANPOINT((2.7648638933897E-10,0.,74.9999999999909));
#122= IFCCARTESIANTRANSFORMATIONOPERATOR3D($,$,#121,$,$);
#123= IFCMAPPEDITEM(#120,#122);
#124= IFCCARTESIANPOINT((74.999999999447,0.,75.0000000005357));
#125= IFCCARTESIANTRANSFORMATIONOPERATOR3D($,$,#124,$,$);
#126= IFCMAPPEDITEM(#120,#125);
#127= IFCCARTESIANPOINT((149.999999998618,0.,75.0000000010823));
#128= IFCCARTESIANTRANSFORMATIONOPERATOR3D($,$,#127,$,$);
#129= IFCMAPPEDITEM(#120,#128);
#130= IFCCARTESIANPOINT((224.999999997788,0.,75.0000000016271));
#131= IFCCARTESIANTRANSFORMATIONOPERATOR3D($,$,#130,$,$);
#132= IFCMAPPEDITEM(#120,#131);
#133= IFCCARTESIANPOINT((299.999999996959,0.,75.0000000021737));
#134= IFCCARTESIANTRANSFORMATIONOPERATOR3D($,$,#133,$,$);
#135= IFCMAPPEDITEM(#120,#134);
#136= IFCCARTESIANPOINT((374.999999996129,0.,75.0000000027185));
#137= IFCCARTESIANTRANSFORMATIONOPERATOR3D($,$,#136,$,$);
#138= IFCMAPPEDITEM(#120,#137);
#139= IFCCARTESIANPOINT((449.9999999953,0.,75.0000000032633));
#140= IFCCARTESIANTRANSFORMATIONOPERATOR3D($,$,#139,$,$);
#141= IFCMAPPEDITEM(#120,#140);
#142= IFCCARTESIANPOINT((524.99999999447,0.,75.0000000038099));
#143= IFCCARTESIANTRANSFORMATIONOPERATOR3D($,$,#142,$,$);
#144= IFCMAPPEDITEM(#120,#143);
#145= IFCCARTESIANPOINT((599.999999993641,0.,75.0000000043547));
#146= IFCCARTESIANTRANSFORMATIONOPERATOR3D($,$,#145,$,$);
#147= IFCMAPPEDITEM(#120,#146);
#148= IFCCARTESIANPOINT((674.999999992811,0.,75.0000000049022));
#149= IFCCARTESIANTRANSFORMATIONOPERATOR3D($,$,#148,$,$);
#150= IFCMAPPEDITEM(#120,#149);
#151= IFCCARTESIANPOINT((-2.7648638933897E-10,0.,-74.99999999999));
#152= IFCCARTESIANTRANSFORMATIONOPERATOR3D($,$,#151,$,$);
#153= IFCMAPPEDITEM(#120,#152);
#154= IFCCARTESIANPOINT((74.9999999988941,0.,-74.9999999994443));
#155= IFCCARTESIANTRANSFORMATIONOPERATOR3D($,$,#154,$,$);
#156= IFCMAPPEDITEM(#120,#155);
#157= IFCCARTESIANPOINT((149.999999998065,0.,-74.9999999988986));
#158= IFCCARTESIANTRANSFORMATIONOPERATOR3D($,$,#157,$,$);
#159= IFCMAPPEDITEM(#120,#158);
#160= IFCCARTESIANPOINT((224.999999997235,0.,-74.999999998352));
#161= IFCCARTESIANTRANSFORMATIONOPERATOR3D($,$,#160,$,$);
#162= IFCMAPPEDITEM(#120,#161);
#163= IFCCARTESIANPOINT((299.999999996406,0.,-74.9999999978063));
#164= IFCCARTESIANTRANSFORMATIONOPERATOR3D($,$,#163,$,$);
#165= IFCMAPPEDITEM(#120,#164);
#166= IFCCARTESIANPOINT((374.999999995576,0.,-74.9999999972606));
#167= IFCCARTESIANTRANSFORMATIONOPERATOR3D($,$,#166,$,$);
#168= IFCMAPPEDITEM(#120,#167);
#169= IFCCARTESIANPOINT((449.999999994747,0.,-74.9999999967149));
#170= IFCCARTESIANTRANSFORMATIONOPERATOR3D($,$,#169,$,$);
#171= IFCMAPPEDITEM(#120,#170);
#172= IFCCARTESIANPOINT((524.999999993932,0.,-74.9999999961692));
#173= IFCCARTESIANTRANSFORMATIONOPERATOR3D($,$,#172,$,$);
#174= IFCMAPPEDITEM(#120,#173);
#175= IFCCARTESIANPOINT((599.999999993102,0.,-74.9999999956235));
#176= IFCCARTESIANTRANSFORMATIONOPERATOR3D($,$,#175,$,$);
#177= IFCMAPPEDITEM(#120,#176);
#178= IFCCARTESIANPOINT((674.999999992273,0.,-74.9999999950778));
#179= IFCCARTESIANTRANSFORMATIONOPERATOR3D($,$,#178,$,$);
#180= IFCMAPPEDITEM(#120,#179);
#181= IFCSHAPEREPRESENTATION(#12,'Body','MappedRepresentation',(#123,#126,#129,#132,#135,#138,#141,#144,#147,#150,#153,#156,#159,#162,#165,#168,#171,#174,#177,#180));
#182= IFCPRODUCTDEFINITIONSHAPE($,$,(#181));
#183= IFCOPENINGELEMENT('34A7v208HBJBIhvd$1jkyi',#5,$,$,'Opening',#114,#182,$);
#184= IFCRELVOIDSELEMENT('2KlCL3VLnDxufITQ45Rqvc',#5,'Drill Hole',$,#64,#183);
#185= IFCPROPERTYSINGLEVALUE('FeatureSubTypes',$,IFCLABEL('TORNILLO'),$);
#186= IFCPROPERTYSINGLEVALUE('RectangleOpeningWidth',$,$,$);
#187= IFCPROPERTYSINGLEVALUE('RectangleOpeningHeight',$,$,$);
#188= IFCPROPERTYSET('11G5KMuB1Dk9GQoFx$zqhM',#5,'AISC_EM11_Pset_Opening/Cope',$,(#185,#186,#187,#78));
#189= IFCCARTESIANPOINT((81531.9783238786,8120.78047148926,23600.));
#190= IFCDIRECTION((7.12890000286279E-05,-0.999999997458939,0.));
#191= IFCAXIS2PLACEMENT3D(#189,#190,#112);
#192= IFCLOCALPLACEMENT(#42,#191);
#193= IFCCARTESIANPOINT((0.,-0.1,0.));
#194= IFCAXIS2PLACEMENT3D(#193,#8,#7);
#195= IFCEXTRUDEDAREASOLID(#115,#194,#9,23.2);
#196= IFCSHAPEREPRESENTATION(#12,'Body','SweptSolid',(#195));
#197= IFCREPRESENTATIONMAP(#10,#196);
#198= IFCMAPPEDITEM(#197,#152);
#199= IFCMAPPEDITEM(#197,#155);
#200= IFCMAPPEDITEM(#197,#158);
#201= IFCMAPPEDITEM(#197,#161);
#202= IFCMAPPEDITEM(#197,#164);
#203= IFCMAPPEDITEM(#197,#167);
#204= IFCMAPPEDITEM(#197,#170);
#205= IFCMAPPEDITEM(#197,#173);
#206= IFCMAPPEDITEM(#197,#176);
#207= IFCMAPPEDITEM(#197,#179);
#208= IFCMAPPEDITEM(#197,#122);
#209= IFCMAPPEDITEM(#197,#125);
#210= IFCMAPPEDITEM(#197,#128);
#211= IFCMAPPEDITEM(#197,#131);
#212= IFCMAPPEDITEM(#197,#134);
#213= IFCMAPPEDITEM(#197,#137);
#214= IFCMAPPEDITEM(#197,#140);
#215= IFCMAPPEDITEM(#197,#143);
#216= IFCMAPPEDITEM(#197,#146);
#217= IFCMAPPEDITEM(#197,#149);
#218= IFCSHAPEREPRESENTATION(#12,'Body','MappedRepresentation',(#198,#199,#200,#201,#202,#203,#204,#205,#206,#207,#208,#209,#210,#211,#212,#213,#214,#215,#216,#217));
#219= IFCPRODUCTDEFINITIONSHAPE($,$,(#218));
#220= IFCOPENINGELEMENT('3VLwwoo3fDjfgorLAUmPE1',#5,$,$,'Opening',#192,#219,$);
#221= IFCRELVOIDSELEMENT('2Kx935DmXFeg4g6PEz455A',#5,'Drill Hole',$,#64,#220);
#222= IFCCARTESIANPOINT((81576.9783429322,8120.20669178275,23575.));
#223= IFCAXIS2PLACEMENT3D(#222,#53,#67);
#224= IFCLOCALPLACEMENT(#42,#223);
#225= IFCCIRCLEPROFILEDEF(.AREA.,$,#50,12.5);
#226= IFCCARTESIANPOINT((0.,-6.1,0.));
#227= IFCAXIS2PLACEMENT3D(#226,#8,#7);
#228= IFCEXTRUDEDAREASOLID(#225,#227,#9,12.2);
#229= IFCSHAPEREPRESENTATION(#12,'Body','SweptSolid',(#228));
#230= IFCREPRESENTATIONMAP(#10,#229);
#231= IFCCARTESIANPOINT((107.5,0.,45.));
#232= IFCCARTESIANTRANSFORMATIONOPERATOR3D($,$,#231,$,$);
#233= IFCMAPPEDITEM(#230,#232);
#234= IFCCARTESIANPOINT((182.5,0.,45.));
#235= IFCCARTESIANTRANSFORMATIONOPERATOR3D($,$,#234,$,$);
#236= IFCMAPPEDITEM(#230,#235);
#237= IFCCARTESIANPOINT((257.5,0.,45.));
#238= IFCCARTESIANTRANSFORMATIONOPERATOR3D($,$,#237,$,$);
#239= IFCMAPPEDITEM(#230,#238);
#240= IFCCARTESIANPOINT((332.5,0.,45.));
#241= IFCCARTESIANTRANSFORMATIONOPERATOR3D($,$,#240,$,$);
#242= IFCMAPPEDITEM(#230,#241);
#243= IFCSHAPEREPRESENTATION(#12,'Body','MappedRepresentation',(#233,#236,#239,#242));
#244= IFCPRODUCTDEFINITIONSHAPE($,$,(#243));
#245= IFCOPENINGELEMENT('3tRTRBORP37P4VCvHefi8x',#5,$,$,'Opening',#224,#244,$);
#246= IFCRELVOIDSELEMENT('1Rk2xOw8b4QgWLwXHLLaX$',#5,'Drill Hole',$,#64,#245);
#247= IFCPROPERTYSINGLEVALUE('PieceMark',$,IFCIDENTIFIER('BEAM'),$);
#248= IFCPROPERTYSINGLEVALUE('IndicationMark',$,IFCIDENTIFIER('b/284'),$);
#249= IFCPROPERTYSINGLEVALUE('PrelimMark',$,IFCIDENTIFIER(''),$);
#250= IFCPROPERTYSINGLEVALUE('MainPieceTag',$,IFCBOOLEAN(.T.),$);
#251= IFCPROPERTYSET('2$T1WWVKr3dv0VOusJxXG1',#5,'AISC_EM11_Pset_PieceIdentification','PieceIdentity',(#247,#248,#249,#250));
#252= IFCPROPERTYSINGLEVALUE('MaterialType',$,IFCIDENTIFIER('STEEL'),$);
#253= IFCPROPERTYSINGLEVALUE('MaterialGrade',$,IFCIDENTIFIER('S235JR'),$);
#254= IFCPROPERTYSET('2dScgv9pn5JRsuKVv$gyu0',#5,'AISC_EM11_Pset_Material',$,(#252,#253));
#255= IFCPROPERTYSINGLEVALUE('SkewedAngleY',$,IFCREAL(0.),$);
#256= IFCPROPERTYSINGLEVALUE('SkewedAngleX',$,IFCREAL(0.),$);
#257= IFCPROPERTYSET('2eRhKyN517qOdsWB8DZg4j',#5,'AISC_EM11_Pset_SkewedEnd',$,(#255,#256));
#258= IFCPROPERTYSET('1KDgMsWFrCsBf5HEYWJmgO',#5,'AISC_EM11_Pset_SkewedEnd_2',$,(#255,#256));
#259= IFCMATERIAL('STEEL/S235JR');
#260= IFCRELAGGREGATES('1B66ill7f01h_ExQRhGCG6',#5,$,$,#37,(#39));
#261= IFCRELAGGREGATES('2TOO_11PxIJzGWDijzYUYO',#5,$,$,#39,(#41));
#262= IFCRELAGGREGATES('0vce_aQFn2TATEH50KgBgX',#5,$,$,#41,(#43));
#263= IFCRELCONTAINEDINSPATIALSTRUCTURE('1MTiFFyG50j9Goua_Ne0r5',#5,$,$,(#64),#43);
#264= IFCRELDEFINESBYPROPERTIES('1KKr2evez9Lhr6AwuX5TaJ',#5,$,$,(#73),#79);
#265= IFCRELDEFINESBYPROPERTIES('1ENhv5CQf0Lezuwai1EVG_',#5,$,$,(#87),#90);
#266= IFCRELDEFINESBYPROPERTIES('3V3VizjJDBUP5Zd5L$d0m1',#5,$,$,(#108,#98),#101);
#267= IFCRELDEFINESBYPROPERTIES('0HAcGIuQHA28rXSLtI4Y5Q',#5,$,$,(#245,#220,#183),#188);
#268= IFCRELDEFINESBYPROPERTIES('1ihLZiCMHCghhiEo53nJbV',#5,$,$,(#64),#251);
#269= IFCRELDEFINESBYPROPERTIES('2LQ3lpR0b9kg0CLrJ3wtLr',#5,$,$,(#64),#254);
#270= IFCRELDEFINESBYPROPERTIES('2H4yZoEYP0KPssj3YECvTo',#5,$,$,(#64),#257);
#271= IFCRELDEFINESBYPROPERTIES('0SvTlwXjf1ixqZR2dObCfm',#5,$,$,(#64),#258);
#272= IFCRELASSOCIATESMATERIAL('1GhPkv32rEdBayTX$i3ZEw',#5,$,$,(#64),#259);
ENDSEC;

END-ISO-10303-21;
