ISO-10303-21;
HEADER;
FILE_DESCRIPTION(('ViewDefinition[AISC_Steel_Detailing]', 'Option [BaseQuantities:Off]', 'Option [GridExport:On]', 'Option [Assemblies:Off]', 'Option [Bolts:On]', 'Option [Rebars:On]', 'Option [PourObjects:Off]', 'Option [Welds:On]', 'Option [SurfaceTreatments:On]', 'Option [LocationBy:0]', 'Option [ViewColors:Off]', 'Option [SectionedSpine:Off]', 'Option [PropertySets:On]', 'Option [Export all:Off]'),'2;1');
FILE_NAME('b_285_Qty_1.ifc','2026-05-16T11:53:12',('GIOVANNIPC\\gcorrea'),('Structural Designer'),'IFC Database version: Work','Tekla Structures 2020 Service Pack 5, IFC Export Version: 4.0.0.0 Dec  7 2020','');
FILE_SCHEMA(('IFC2X3'));
ENDSEC;

DATA;
#1= IFCPERSON('GIOVANNIPC\\gcorrea','Undefined',$,$,$,$,$,$);
#2= IFCORGANIZATION($,'Trimble Solutions Corporation',$,$,$);
#3= IFCPERSONANDORGANIZATION(#1,#2,$);
#4= IFCAPPLICATION(#2,'2020 Service Pack 5','Tekla Structures','Multi material modeling');
#5= IFCOWNERHISTORY(#3,#4,$,.NOCHANGE.,$,$,$,1778950392);
#6= IFCCARTESIANPOINT((0.,0.,0.));
#7= IFCDIRECTION((1.,0.,0.));
#8= IFCDIRECTION((0.,1.,0.));
#9= IFCDIRECTION((0.,0.,1.));
#10= IFCAXIS2PLACEMENT3D(#6,#9,#7);
#11= IFCGEOMETRICREPRESENTATIONCONTEXT($,'Model',3,1.E-05,#10,$);
#12= IFCGEOMETRICREPRESENTATIONSUBCONTEXT('Body','Model',*,*,*,*,#11,$,.MODEL_VIEW.,$);
#13= IFCGEOMETRICREPRESENTATIONSUBCONTEXT('Axis','Model',*,*,*,*,#11,$,.GRAPH_VIEW.,$);
#14= IFCGEOMETRICREPRESENTATIONSUBCONTEXT('FootPrint','Model',*,*,*,*,#11,$,.MODEL_VIEW.,$);
#15= IFCSIUNIT(*,.LENGTHUNIT.,.MILLI.,.METRE.);
#16= IFCMEASUREWITHUNIT(IFCRATIOMEASURE(304.8),#15);
#17= IFCDIMENSIONALEXPONENTS(1,0,0,0,0,0,0);
#18= IFCCONVERSIONBASEDUNIT(#17,.LENGTHUNIT.,'FOOT',#16);
#19= IFCSIUNIT(*,.AREAUNIT.,$,.SQUARE_METRE.);
#20= IFCMEASUREWITHUNIT(IFCRATIOMEASURE(0.09290304),#19);
#21= IFCDIMENSIONALEXPONENTS(2,0,0,0,0,0,0);
#22= IFCCONVERSIONBASEDUNIT(#21,.AREAUNIT.,'SQUARE FOOT',#20);
#23= IFCSIUNIT(*,.VOLUMEUNIT.,$,.CUBIC_METRE.);
#24= IFCMEASUREWITHUNIT(IFCRATIOMEASURE(0.028316846592),#23);
#25= IFCDIMENSIONALEXPONENTS(3,0,0,0,0,0,0);
#26= IFCCONVERSIONBASEDUNIT(#25,.VOLUMEUNIT.,'CUBIC FOOT',#24);
#27= IFCSIUNIT(*,.MASSUNIT.,.KILO.,.GRAM.);
#28= IFCSIUNIT(*,.TIMEUNIT.,$,.SECOND.);
#29= IFCSIUNIT(*,.PLANEANGLEUNIT.,$,.RADIAN.);
#30= IFCMEASUREWITHUNIT(IFCRATIOMEASURE(0.0174532925199433),#29);
#31= IFCDIMENSIONALEXPONENTS(0,0,0,0,0,0,0);
#32= IFCCONVERSIONBASEDUNIT(#31,.PLANEANGLEUNIT.,'DEGREE',#30);
#33= IFCSIUNIT(*,.SOLIDANGLEUNIT.,$,.STERADIAN.);
#34= IFCSIUNIT(*,.THERMODYNAMICTEMPERATUREUNIT.,$,.DEGREE_CELSIUS.);
#35= IFCSIUNIT(*,.LUMINOUSINTENSITYUNIT.,$,.LUMEN.);
#36= IFCUNITASSIGNMENT((#15,#19,#23,#27,#28,#29,#33,#34,#35));
#37= IFCPROJECT('2G7ZFDNE16yBDU14FA92Me',#5,'Proyecto',$,$,$,$,(#11),#36);
#38= IFCLOCALPLACEMENT($,#10);
#39= IFCSITE('2xvEzEinjBTea80yOTcujY',#5,'Obra',$,$,#38,$,$,.ELEMENT.,$,$,$,$,$);
#40= IFCLOCALPLACEMENT(#38,#10);
#41= IFCBUILDING('1x4vCK6KD5rRhY33nlkSFH',#5,'Undefined',$,$,#40,$,$,.ELEMENT.,$,$,$);
#42= IFCLOCALPLACEMENT(#40,#10);
#43= IFCBUILDINGSTOREY('29hdEUCErFze9E_VIAceOd',#5,'Undefined',$,$,#42,$,$,.ELEMENT.,0.);
#44= IFCOWNERHISTORY(#3,#4,$,.NOCHANGE.,$,$,$,1775664000);
#45= IFCCARTESIANPOINT((82023.1663818359,8120.20669178275,23355.));
#46= IFCAXIS2PLACEMENT3D(#45,#9,#7);
#47= IFCLOCALPLACEMENT(#42,#46);
#48= IFCDIRECTION((1.,0.));
#49= IFCCARTESIANPOINT((0.,0.));
#50= IFCAXIS2PLACEMENT2D(#49,#48);
#51= IFCISHAPEPROFILEDEF(.AREA.,'HEA500',#50,300.,490.,12.,23.,27.);
#52= IFCDIRECTION((6.61744490042422E-24,-1.,0.));
#53= IFCDIRECTION((-1.,-6.61744490042422E-24,0.));
#54= IFCCARTESIANPOINT((9253.83717365615,6.1236757614167E-20,0.));
#55= IFCAXIS2PLACEMENT3D(#54,#53,#52);
#56= IFCEXTRUDEDAREASOLID(#51,#55,#9,9254.14);
#57= IFCCARTESIANPOINT((9253.83715814093,1.21964211200975,-325.));
#58= IFCAXIS2PLACEMENT3D(#57,#53,#8);
#59= IFCPLANE(#58);
#60= IFCHALFSPACESOLID(#59,.T.);
#61= IFCBOOLEANCLIPPINGRESULT(.DIFFERENCE.,#56,#60);
#62= IFCCARTESIANPOINT((-0.30437921921839,0.0902179016939044,-325.));
#63= IFCAXIS2PLACEMENT3D(#62,#7,#52);
#64= IFCPLANE(#63);
#65= IFCHALFSPACESOLID(#64,.T.);
#66= IFCBOOLEANCLIPPINGRESULT(.DIFFERENCE.,#61,#65);
#67= IFCSHAPEREPRESENTATION(#12,'Body','Clipping',(#66));
#68= IFCPRODUCTDEFINITIONSHAPE($,$,(#67));
#69= IFCBEAM('0yPJZiM0b5fOEmeF9CQCtS',#44,'BEAM','HEA500','HEA500',#47,#68,'ID3c6538ec-5809-45a5-83b0-a0f24c68cddc');
#70= IFCLOCALPLACEMENT(#42,#46);
#71= IFCRECTANGLEPROFILEDEF(.AREA.,'PL163.2*12',#50,12.,163.2);
#72= IFCDIRECTION((0.,0.,-1.));
#73= IFCCARTESIANPOINT((9269.84592549381,-69.3998404210552,221.));
#74= IFCAXIS2PLACEMENT3D(#73,#72,#53);
#75= IFCEXTRUDEDAREASOLID(#71,#74,#9,442.);
#76= IFCSHAPEREPRESENTATION(#12,'Body','SweptSolid',(#75));
#77= IFCPRODUCTDEFINITIONSHAPE($,$,(#76));
#78= IFCOPENINGELEMENT('07H0GXuc10KOn5Wq4_R7bV',#5,$,$,'Recess',#70,#77,$);
#79= IFCRELVOIDSELEMENT('3BWqk98rz9L9ZS8f1z_u4Z',#5,$,$,#69,#78);
#80= IFCPROPERTYSINGLEVALUE('FeatureSubTypes',$,$,$);
#81= IFCPROPERTYSINGLEVALUE('RectangleOpeningWidth',$,IFCPOSITIVELENGTHMEASURE(12.),$);
#82= IFCPROPERTYSINGLEVALUE('RectangleOpeningHeight',$,IFCPOSITIVELENGTHMEASURE(163.2),$);
#83= IFCPROPERTYSINGLEVALUE('OpeningDiameter',$,$,$);
#84= IFCPROPERTYSET('0Xig41BTX7B9AhKKOUb$so',#5,'AISC_EM11_Pset_Opening/Cope',$,(#80,#81,#82,#83));
#85= IFCLOCALPLACEMENT(#42,#46);
#86= IFCRECTANGLEPROFILEDEF(.AREA.,'PL162.8*12',#50,12.,162.8);
#87= IFCCARTESIANPOINT((9269.8459184048,69.6001595789448,221.));
#88= IFCAXIS2PLACEMENT3D(#87,#72,#53);
#89= IFCEXTRUDEDAREASOLID(#86,#88,#9,442.);
#90= IFCSHAPEREPRESENTATION(#12,'Body','SweptSolid',(#89));
#91= IFCPRODUCTDEFINITIONSHAPE($,$,(#90));
#92= IFCOPENINGELEMENT('0KsusJLHz0p8yIxjGqhyO_',#5,$,$,'Recess',#85,#91,$);
#93= IFCRELVOIDSELEMENT('0PxGXZCMvENv3SFOXCCPqE',#5,$,$,#69,#92);
#94= IFCPROPERTYSINGLEVALUE('RectangleOpeningHeight',$,IFCPOSITIVELENGTHMEASURE(162.8),$);
#95= IFCPROPERTYSET('3WOv3TMgv0aQO7yKhJYkRU',#5,'AISC_EM11_Pset_Opening/Cope',$,(#80,#81,#94,#83));
#96= IFCLOCALPLACEMENT(#42,#46);
#97= IFCRECTANGLEPROFILEDEF(.AREA.,'PL108*12',#50,12.,108.);
#98= IFCCARTESIANPOINT((9269.83716028293,-40.7803570719898,226.));
#99= IFCAXIS2PLACEMENT3D(#98,#72,#53);
#100= IFCEXTRUDEDAREASOLID(#97,#99,#9,452.);
#101= IFCSHAPEREPRESENTATION(#12,'Body','SweptSolid',(#100));
#102= IFCPRODUCTDEFINITIONSHAPE($,$,(#101));
#103= IFCOPENINGELEMENT('2g8jcc2kf59Pj0oMcdDKo7',#5,$,$,'Recess',#96,#102,$);
#104= IFCRELVOIDSELEMENT('2JTVF3o0f2lhbPtBmScw39',#5,$,$,#69,#103);
#105= IFCPROPERTYSINGLEVALUE('RectangleOpeningHeight',$,IFCPOSITIVELENGTHMEASURE(108.),$);
#106= IFCPROPERTYSET('3atax2txzC$AiuUxThOHKT',#5,'AISC_EM11_Pset_Opening/Cope',$,(#80,#81,#105,#83));
#107= IFCLOCALPLACEMENT(#42,#46);
#108= IFCCARTESIANPOINT((9269.83715599893,43.2196429280102,226.));
#109= IFCAXIS2PLACEMENT3D(#108,#72,#53);
#110= IFCEXTRUDEDAREASOLID(#97,#109,#9,452.);
#111= IFCSHAPEREPRESENTATION(#12,'Body','SweptSolid',(#110));
#112= IFCPRODUCTDEFINITIONSHAPE($,$,(#111));
#113= IFCOPENINGELEMENT('0NI2ROBdXBD8ptBQ_1QbUe',#5,$,$,'Recess',#107,#112,$);
#114= IFCRELVOIDSELEMENT('0Jv6B7jMz7ixt8qjmL5vX9',#5,$,$,#69,#113);
#115= IFCLOCALPLACEMENT(#42,#46);
#116= IFCCARTESIANPOINT((-16.2143349037651,69.6021617481583,221.));
#117= IFCAXIS2PLACEMENT3D(#116,#72,#7);
#118= IFCEXTRUDEDAREASOLID(#86,#117,#9,442.);
#119= IFCSHAPEREPRESENTATION(#12,'Body','SweptSolid',(#118));
#120= IFCPRODUCTDEFINITIONSHAPE($,$,(#119));
#121= IFCOPENINGELEMENT('0ZBY0YTN12cQKvmJUfB5Xu',#5,$,$,'Recess',#115,#120,$);
#122= IFCRELVOIDSELEMENT('0iTCI0BQD6z8$$HpDGHG0D',#5,$,$,#69,#121);
#123= IFCLOCALPLACEMENT(#42,#46);
#124= IFCCARTESIANPOINT((-16.2143278146686,-69.3998373178911,221.));
#125= IFCAXIS2PLACEMENT3D(#124,#72,#7);
#126= IFCEXTRUDEDAREASOLID(#71,#125,#9,442.);
#127= IFCSHAPEREPRESENTATION(#12,'Body','SweptSolid',(#126));
#128= IFCPRODUCTDEFINITIONSHAPE($,$,(#127));
#129= IFCOPENINGELEMENT('3e3k2pm9rAcvgYcfCqUPFA',#5,$,$,'Recess',#123,#128,$);
#130= IFCRELVOIDSELEMENT('0$67r_vQT0CuC7f8H_Nfs3',#5,$,$,#69,#129);
#131= IFCLOCALPLACEMENT(#42,#46);
#132= IFCRECTANGLEPROFILEDEF(.AREA.,'PL108*12.1',#50,12.1,108.);
#133= IFCCARTESIANPOINT((-16.2549939946912,43.219476875136,226.));
#134= IFCAXIS2PLACEMENT3D(#133,#72,#7);
#135= IFCEXTRUDEDAREASOLID(#132,#134,#9,452.);
#136= IFCSHAPEREPRESENTATION(#12,'Body','SweptSolid',(#135));
#137= IFCPRODUCTDEFINITIONSHAPE($,$,(#136));
#138= IFCOPENINGELEMENT('1h7DvFKo90APcc5nuTa$bu',#5,$,$,'Recess',#131,#137,$);
#139= IFCRELVOIDSELEMENT('1qS5hVFL54B9cAq3ocLiN6',#5,$,$,#69,#138);
#140= IFCPROPERTYSINGLEVALUE('RectangleOpeningWidth',$,IFCPOSITIVELENGTHMEASURE(12.1),$);
#141= IFCPROPERTYSET('3QpFPOdRL68hpXbi5UgPuD',#5,'AISC_EM11_Pset_Opening/Cope',$,(#80,#140,#105,#83));
#142= IFCLOCALPLACEMENT(#42,#46);
#143= IFCRECTANGLEPROFILEDEF(.AREA.,'PL109.1*12.1',#50,12.1,109.1);
#144= IFCCARTESIANPOINT((-16.2549896820128,-41.3429489302216,226.));
#145= IFCAXIS2PLACEMENT3D(#144,#72,#7);
#146= IFCEXTRUDEDAREASOLID(#143,#145,#9,452.);
#147= IFCSHAPEREPRESENTATION(#12,'Body','SweptSolid',(#146));
#148= IFCPRODUCTDEFINITIONSHAPE($,$,(#147));
#149= IFCOPENINGELEMENT('1$cf7T31X3Dh20HhwzIMb3',#5,$,$,'Recess',#142,#148,$);
#150= IFCRELVOIDSELEMENT('38Hith6erCixDtEG4XjX8S',#5,$,$,#69,#149);
#151= IFCPROPERTYSINGLEVALUE('RectangleOpeningHeight',$,IFCPOSITIVELENGTHMEASURE(109.1),$);
#152= IFCPROPERTYSET('2aRx6$KSH4Kgna2x5Y43Tt',#5,'AISC_EM11_Pset_Opening/Cope',$,(#80,#140,#151,#83));
#153= IFCCARTESIANPOINT((91232.021048488,8120.77998817056,23135.));
#154= IFCDIRECTION((-7.1289000028628E-05,0.999999997458939,0.));
#155= IFCDIRECTION((-0.999999997458939,-7.12890000330456E-05,0.));
#156= IFCAXIS2PLACEMENT3D(#153,#154,#155);
#157= IFCLOCALPLACEMENT(#42,#156);
#158= IFCCIRCLEPROFILEDEF(.AREA.,$,#50,11.5);
#159= IFCCARTESIANPOINT((0.,-25.1,0.));
#160= IFCAXIS2PLACEMENT3D(#159,#8,#7);
#161= IFCEXTRUDEDAREASOLID(#158,#160,#9,23.2);
#162= IFCSHAPEREPRESENTATION(#12,'Body','SweptSolid',(#161));
#163= IFCREPRESENTATIONMAP(#10,#162);
#164= IFCCARTESIANPOINT((2.61934474110603E-10,0.,74.9999999999873));
#165= IFCCARTESIANTRANSFORMATIONOPERATOR3D($,$,#164,$,$);
#166= IFCMAPPEDITEM(#163,#165);
#167= IFCCARTESIANPOINT((74.9999999994325,0.,75.0000000005339));
#168= IFCCARTESIANTRANSFORMATIONOPERATOR3D($,$,#167,$,$);
#169= IFCMAPPEDITEM(#163,#168);
#170= IFCCARTESIANPOINT((149.999999998603,0.,75.0000000010787));
#171= IFCCARTESIANTRANSFORMATIONOPERATOR3D($,$,#170,$,$);
#172= IFCMAPPEDITEM(#163,#171);
#173= IFCCARTESIANPOINT((224.999999997774,0.,75.0000000016262));
#174= IFCCARTESIANTRANSFORMATIONOPERATOR3D($,$,#173,$,$);
#175= IFCMAPPEDITEM(#163,#174);
#176= IFCCARTESIANPOINT((299.999999996959,0.,75.000000002171));
#177= IFCCARTESIANTRANSFORMATIONOPERATOR3D($,$,#176,$,$);
#178= IFCMAPPEDITEM(#163,#177);
#179= IFCCARTESIANPOINT((374.999999996129,0.,75.0000000027176));
#180= IFCCARTESIANTRANSFORMATIONOPERATOR3D($,$,#179,$,$);
#181= IFCMAPPEDITEM(#163,#180);
#182= IFCCARTESIANPOINT((449.9999999953,0.,75.0000000032624));
#183= IFCCARTESIANTRANSFORMATIONOPERATOR3D($,$,#182,$,$);
#184= IFCMAPPEDITEM(#163,#183);
#185= IFCCARTESIANPOINT((524.99999999447,0.,75.000000003809));
#186= IFCCARTESIANTRANSFORMATIONOPERATOR3D($,$,#185,$,$);
#187= IFCMAPPEDITEM(#163,#186);
#188= IFCCARTESIANPOINT((599.999999993641,0.,75.0000000043538));
#189= IFCCARTESIANTRANSFORMATIONOPERATOR3D($,$,#188,$,$);
#190= IFCMAPPEDITEM(#163,#189);
#191= IFCCARTESIANPOINT((674.999999992811,0.,75.0000000049004));
#192= IFCCARTESIANTRANSFORMATIONOPERATOR3D($,$,#191,$,$);
#193= IFCMAPPEDITEM(#163,#192);
#194= IFCCARTESIANPOINT((-2.7648638933897E-10,0.,-74.99999999999));
#195= IFCCARTESIANTRANSFORMATIONOPERATOR3D($,$,#194,$,$);
#196= IFCMAPPEDITEM(#163,#195);
#197= IFCCARTESIANPOINT((74.9999999988941,0.,-74.9999999994443));
#198= IFCCARTESIANTRANSFORMATIONOPERATOR3D($,$,#197,$,$);
#199= IFCMAPPEDITEM(#163,#198);
#200= IFCCARTESIANPOINT((149.999999998065,0.,-74.9999999988986));
#201= IFCCARTESIANTRANSFORMATIONOPERATOR3D($,$,#200,$,$);
#202= IFCMAPPEDITEM(#163,#201);
#203= IFCCARTESIANPOINT((224.999999997235,0.,-74.9999999983529));
#204= IFCCARTESIANTRANSFORMATIONOPERATOR3D($,$,#203,$,$);
#205= IFCMAPPEDITEM(#163,#204);
#206= IFCCARTESIANPOINT((299.999999996406,0.,-74.9999999978081));
#207= IFCCARTESIANTRANSFORMATIONOPERATOR3D($,$,#206,$,$);
#208= IFCMAPPEDITEM(#163,#207);
#209= IFCCARTESIANPOINT((374.999999995576,0.,-74.9999999972624));
#210= IFCCARTESIANTRANSFORMATIONOPERATOR3D($,$,#209,$,$);
#211= IFCMAPPEDITEM(#163,#210);
#212= IFCCARTESIANPOINT((449.999999994747,0.,-74.9999999967167));
#213= IFCCARTESIANTRANSFORMATIONOPERATOR3D($,$,#212,$,$);
#214= IFCMAPPEDITEM(#163,#213);
#215= IFCCARTESIANPOINT((524.999999993917,0.,-74.999999996171));
#216= IFCCARTESIANTRANSFORMATIONOPERATOR3D($,$,#215,$,$);
#217= IFCMAPPEDITEM(#163,#216);
#218= IFCCARTESIANPOINT((599.999999993088,0.,-74.9999999956253));
#219= IFCCARTESIANTRANSFORMATIONOPERATOR3D($,$,#218,$,$);
#220= IFCMAPPEDITEM(#163,#219);
#221= IFCCARTESIANPOINT((674.999999992258,0.,-74.9999999950796));
#222= IFCCARTESIANTRANSFORMATIONOPERATOR3D($,$,#221,$,$);
#223= IFCMAPPEDITEM(#163,#222);
#224= IFCSHAPEREPRESENTATION(#12,'Body','MappedRepresentation',(#166,#169,#172,#175,#178,#181,#184,#187,#190,#193,#196,#199,#202,#205,#208,#211,#214,#217,#220,#223));
#225= IFCPRODUCTDEFINITIONSHAPE($,$,(#224));
#226= IFCOPENINGELEMENT('2cRjp0bUzBZvaBV8dIayhf',#5,$,$,'Opening',#157,#225,$);
#227= IFCRELVOIDSELEMENT('2x4A81gI94g8qPB9XmPm6u',#5,'Drill Hole',$,#69,#226);
#228= IFCPROPERTYSINGLEVALUE('FeatureSubTypes',$,IFCLABEL('TORNILLO'),$);
#229= IFCPROPERTYSINGLEVALUE('RectangleOpeningWidth',$,$,$);
#230= IFCPROPERTYSINGLEVALUE('RectangleOpeningHeight',$,$,$);
#231= IFCPROPERTYSET('2LS1GNiJfF6gPK0HQJ_l6H',#5,'AISC_EM11_Pset_Opening/Cope',$,(#228,#229,#230,#83));
#232= IFCCARTESIANPOINT((91232.021048488,8120.77998817056,23625.));
#233= IFCDIRECTION((7.12890000286279E-05,-0.999999997458939,0.));
#234= IFCAXIS2PLACEMENT3D(#232,#233,#155);
#235= IFCLOCALPLACEMENT(#42,#234);
#236= IFCCARTESIANPOINT((0.,24.9,0.));
#237= IFCAXIS2PLACEMENT3D(#236,#8,#7);
#238= IFCEXTRUDEDAREASOLID(#158,#237,#9,23.2);
#239= IFCSHAPEREPRESENTATION(#12,'Body','SweptSolid',(#238));
#240= IFCREPRESENTATIONMAP(#10,#239);
#241= IFCMAPPEDITEM(#240,#195);
#242= IFCMAPPEDITEM(#240,#198);
#243= IFCMAPPEDITEM(#240,#201);
#244= IFCMAPPEDITEM(#240,#204);
#245= IFCMAPPEDITEM(#240,#207);
#246= IFCMAPPEDITEM(#240,#210);
#247= IFCMAPPEDITEM(#240,#213);
#248= IFCMAPPEDITEM(#240,#216);
#249= IFCMAPPEDITEM(#240,#219);
#250= IFCMAPPEDITEM(#240,#222);
#251= IFCMAPPEDITEM(#240,#165);
#252= IFCMAPPEDITEM(#240,#168);
#253= IFCMAPPEDITEM(#240,#171);
#254= IFCMAPPEDITEM(#240,#174);
#255= IFCMAPPEDITEM(#240,#177);
#256= IFCMAPPEDITEM(#240,#180);
#257= IFCMAPPEDITEM(#240,#183);
#258= IFCMAPPEDITEM(#240,#186);
#259= IFCMAPPEDITEM(#240,#189);
#260= IFCMAPPEDITEM(#240,#192);
#261= IFCSHAPEREPRESENTATION(#12,'Body','MappedRepresentation',(#241,#242,#243,#244,#245,#246,#247,#248,#249,#250,#251,#252,#253,#254,#255,#256,#257,#258,#259,#260));
#262= IFCPRODUCTDEFINITIONSHAPE($,$,(#261));
#263= IFCOPENINGELEMENT('1TFyDY1854pPPAOa6spVau',#5,$,$,'Opening',#235,#262,$);
#264= IFCRELVOIDSELEMENT('3WK_sM13vCJAsuDXkDeCZt',#5,'Drill Hole',$,#69,#263);
#265= IFCCARTESIANPOINT((91277.0210675416,8120.20620846405,23575.));
#266= IFCAXIS2PLACEMENT3D(#265,#53,#72);
#267= IFCLOCALPLACEMENT(#42,#266);
#268= IFCCIRCLEPROFILEDEF(.AREA.,$,#50,12.5);
#269= IFCCARTESIANPOINT((0.,-6.10001366788469,0.));
#270= IFCAXIS2PLACEMENT3D(#269,#8,#7);
#271= IFCEXTRUDEDAREASOLID(#268,#270,#9,12.2);
#272= IFCSHAPEREPRESENTATION(#12,'Body','SweptSolid',(#271));
#273= IFCREPRESENTATIONMAP(#10,#272);
#274= IFCCARTESIANPOINT((107.5,0.,45.));
#275= IFCCARTESIANTRANSFORMATIONOPERATOR3D($,$,#274,$,$);
#276= IFCMAPPEDITEM(#273,#275);
#277= IFCCARTESIANPOINT((182.5,0.,45.));
#278= IFCCARTESIANTRANSFORMATIONOPERATOR3D($,$,#277,$,$);
#279= IFCMAPPEDITEM(#273,#278);
#280= IFCCARTESIANPOINT((257.5,0.,45.));
#281= IFCCARTESIANTRANSFORMATIONOPERATOR3D($,$,#280,$,$);
#282= IFCMAPPEDITEM(#273,#281);
#283= IFCCARTESIANPOINT((332.5,0.,45.));
#284= IFCCARTESIANTRANSFORMATIONOPERATOR3D($,$,#283,$,$);
#285= IFCMAPPEDITEM(#273,#284);
#286= IFCSHAPEREPRESENTATION(#12,'Body','MappedRepresentation',(#276,#279,#282,#285));
#287= IFCPRODUCTDEFINITIONSHAPE($,$,(#286));
#288= IFCOPENINGELEMENT('3r1VSBYaf5LfWgeiZisqs$',#5,$,$,'Opening',#267,#287,$);
#289= IFCRELVOIDSELEMENT('2IWpCR3Ff0yQB4ftyuZbD1',#5,'Drill Hole',$,#69,#288);
#290= IFCCARTESIANPOINT((82067.9432664795,8120.7804723365,23120.));
#291= IFCAXIS2PLACEMENT3D(#290,#52,#7);
#292= IFCLOCALPLACEMENT(#42,#291);
#293= IFCCARTESIANPOINT((0.,-10.1,0.));
#294= IFCAXIS2PLACEMENT3D(#293,#8,#7);
#295= IFCEXTRUDEDAREASOLID(#158,#294,#9,23.2);
#296= IFCSHAPEREPRESENTATION(#12,'Body','SweptSolid',(#295));
#297= IFCREPRESENTATIONMAP(#10,#296);
#298= IFCMAPPEDITEM(#297,#165);
#299= IFCMAPPEDITEM(#297,#168);
#300= IFCMAPPEDITEM(#297,#171);
#301= IFCMAPPEDITEM(#297,#174);
#302= IFCMAPPEDITEM(#297,#177);
#303= IFCMAPPEDITEM(#297,#180);
#304= IFCMAPPEDITEM(#297,#183);
#305= IFCMAPPEDITEM(#297,#186);
#306= IFCMAPPEDITEM(#297,#189);
#307= IFCMAPPEDITEM(#297,#192);
#308= IFCMAPPEDITEM(#297,#195);
#309= IFCMAPPEDITEM(#297,#198);
#310= IFCMAPPEDITEM(#297,#201);
#311= IFCMAPPEDITEM(#297,#204);
#312= IFCMAPPEDITEM(#297,#207);
#313= IFCMAPPEDITEM(#297,#210);
#314= IFCMAPPEDITEM(#297,#213);
#315= IFCMAPPEDITEM(#297,#216);
#316= IFCMAPPEDITEM(#297,#219);
#317= IFCMAPPEDITEM(#297,#222);
#318= IFCSHAPEREPRESENTATION(#12,'Body','MappedRepresentation',(#298,#299,#300,#301,#302,#303,#304,#305,#306,#307,#308,#309,#310,#311,#312,#313,#314,#315,#316,#317));
#319= IFCPRODUCTDEFINITIONSHAPE($,$,(#318));
#320= IFCOPENINGELEMENT('3v$Wau9_D8FfvRplACf8gj',#5,$,$,'Opening',#292,#319,$);
#321= IFCRELVOIDSELEMENT('134PtP$NL7PPWgb3TvheHY',#5,'Drill Hole',$,#69,#320);
#322= IFCCARTESIANPOINT((82067.9432664795,8120.7804723365,23600.));
#323= IFCAXIS2PLACEMENT3D(#322,#8,#7);
#324= IFCLOCALPLACEMENT(#42,#323);
#325= IFCCARTESIANPOINT((0.,-0.1,0.));
#326= IFCAXIS2PLACEMENT3D(#325,#8,#7);
#327= IFCEXTRUDEDAREASOLID(#158,#326,#9,23.2);
#328= IFCSHAPEREPRESENTATION(#12,'Body','SweptSolid',(#327));
#329= IFCREPRESENTATIONMAP(#10,#328);
#330= IFCMAPPEDITEM(#329,#195);
#331= IFCMAPPEDITEM(#329,#198);
#332= IFCMAPPEDITEM(#329,#201);
#333= IFCMAPPEDITEM(#329,#204);
#334= IFCMAPPEDITEM(#329,#207);
#335= IFCMAPPEDITEM(#329,#210);
#336= IFCMAPPEDITEM(#329,#213);
#337= IFCMAPPEDITEM(#329,#216);
#338= IFCMAPPEDITEM(#329,#219);
#339= IFCMAPPEDITEM(#329,#222);
#340= IFCMAPPEDITEM(#329,#165);
#341= IFCMAPPEDITEM(#329,#168);
#342= IFCMAPPEDITEM(#329,#171);
#343= IFCMAPPEDITEM(#329,#174);
#344= IFCMAPPEDITEM(#329,#177);
#345= IFCMAPPEDITEM(#329,#180);
#346= IFCMAPPEDITEM(#329,#183);
#347= IFCMAPPEDITEM(#329,#186);
#348= IFCMAPPEDITEM(#329,#189);
#349= IFCMAPPEDITEM(#329,#192);
#350= IFCSHAPEREPRESENTATION(#12,'Body','MappedRepresentation',(#330,#331,#332,#333,#334,#335,#336,#337,#338,#339,#340,#341,#342,#343,#344,#345,#346,#347,#348,#349));
#351= IFCPRODUCTDEFINITIONSHAPE($,$,(#350));
#352= IFCOPENINGELEMENT('1Ggmrwb21AIxdbrwwTc3Jk',#5,$,$,'Opening',#324,#351,$);
#353= IFCRELVOIDSELEMENT('2DMEl0ox5AiP4doF7JQrz8',#5,'Drill Hole',$,#69,#352);
#354= IFCCARTESIANPOINT((82022.9432855341,8120.20670672998,23575.));
#355= IFCAXIS2PLACEMENT3D(#354,#7,#72);
#356= IFCLOCALPLACEMENT(#42,#355);
#357= IFCSHAPEREPRESENTATION(#12,'Body','MappedRepresentation',(#276,#279,#282,#285));
#358= IFCPRODUCTDEFINITIONSHAPE($,$,(#357));
#359= IFCOPENINGELEMENT('3iQ2B3KsrAjOlFxspyDled',#5,$,$,'Opening',#356,#358,$);
#360= IFCRELVOIDSELEMENT('06bWTajtP7vPRJMPLXQtsx',#5,'Drill Hole',$,#69,#359);
#361= IFCPROPERTYSINGLEVALUE('PieceMark',$,IFCIDENTIFIER('BEAM'),$);
#362= IFCPROPERTYSINGLEVALUE('IndicationMark',$,IFCIDENTIFIER('b/285'),$);
#363= IFCPROPERTYSINGLEVALUE('PrelimMark',$,IFCIDENTIFIER(''),$);
#364= IFCPROPERTYSINGLEVALUE('MainPieceTag',$,IFCBOOLEAN(.T.),$);
#365= IFCPROPERTYSET('36ZtSZOqDCNQYN3vhKBEJL',#5,'AISC_EM11_Pset_PieceIdentification','PieceIdentity',(#361,#362,#363,#364));
#366= IFCPROPERTYSINGLEVALUE('MaterialType',$,IFCIDENTIFIER('STEEL'),$);
#367= IFCPROPERTYSINGLEVALUE('MaterialGrade',$,IFCIDENTIFIER('S235JR'),$);
#368= IFCPROPERTYSET('2Gqs5Ux99EdBQ$fkk6tozj',#5,'AISC_EM11_Pset_Material',$,(#366,#367));
#369= IFCPROPERTYSINGLEVALUE('SkewedAngleY',$,IFCREAL(0.),$);
#370= IFCPROPERTYSINGLEVALUE('SkewedAngleX',$,IFCREAL(0.),$);
#371= IFCPROPERTYSET('2vqvt8N95DuARjeh$p$cp0',#5,'AISC_EM11_Pset_SkewedEnd',$,(#369,#370));
#372= IFCPROPERTYSET('2LGmOxaqnCiQhXy6mPinr3',#5,'AISC_EM11_Pset_SkewedEnd_2',$,(#369,#370));
#373= IFCMATERIAL('STEEL/S235JR');
#374= IFCRELAGGREGATES('2S0I6afaDBjflVnvLjNDxu',#5,$,$,#37,(#39));
#375= IFCRELAGGREGATES('2kIaOsxsVT$x1n3Bd$fVDA',#5,$,$,#39,(#41));
#376= IFCRELAGGREGATES('3ZChWEF1D9COYJAZwVttLI',#5,$,$,#41,(#43));
#377= IFCRELCONTAINEDINSPATIALSTRUCTURE('3eoyZmuZ50t9WCDhR4DsBF',#5,$,$,(#69),#43);
#378= IFCRELDEFINESBYPROPERTIES('2L_o8QWa97_ws7k4l$ebPA',#5,$,$,(#129,#78),#84);
#379= IFCRELDEFINESBYPROPERTIES('2nzzbaHsn9KeQ4fdhbmFVO',#5,$,$,(#121,#92),#95);
#380= IFCRELDEFINESBYPROPERTIES('33ydYlxvLBVhPj81fa_EX0',#5,$,$,(#113,#103),#106);
#381= IFCRELDEFINESBYPROPERTIES('3TnhuOTSn6MR1GtqrE6IIz',#5,$,$,(#138),#141);
#382= IFCRELDEFINESBYPROPERTIES('2qyxOy5Lf9IQKN05ALfDqc',#5,$,$,(#149),#152);
#383= IFCRELDEFINESBYPROPERTIES('2k2663U49FvxbUcjjC_1dF',#5,$,$,(#359,#352,#320,#288,#263,#226),#231);
#384= IFCRELDEFINESBYPROPERTIES('0bVKd9MPH0pvCZ1Jp3WTRI',#5,$,$,(#69),#365);
#385= IFCRELDEFINESBYPROPERTIES('3e9Hcxck15ghJupcv7SzB7',#5,$,$,(#69),#368);
#386= IFCRELDEFINESBYPROPERTIES('3ttjJht$54CRJfTxkVrFEX',#5,$,$,(#69),#371);
#387= IFCRELDEFINESBYPROPERTIES('2mp2sdXfPD2wgynbEWaP_c',#5,$,$,(#69),#372);
#388= IFCRELASSOCIATESMATERIAL('1VAVdQfrH9TeUrGBWtTS72',#5,$,$,(#69),#373);
ENDSEC;

END-ISO-10303-21;
