ISO-10303-21;
HEADER;
FILE_DESCRIPTION(('ViewDefinition[AISC_Steel_Detailing]', 'Option [BaseQuantities:Off]', 'Option [GridExport:On]', 'Option [Assemblies:Off]', 'Option [Bolts:On]', 'Option [Rebars:On]', 'Option [PourObjects:Off]', 'Option [Welds:On]', 'Option [SurfaceTreatments:On]', 'Option [LocationBy:0]', 'Option [ViewColors:Off]', 'Option [SectionedSpine:Off]', 'Option [PropertySets:On]', 'Option [Export all:Off]'),'2;1');
FILE_NAME('b_29_Qty_1.ifc','2026-05-16T11:53:17',('GIOVANNIPC\\gcorrea'),('Structural Designer'),'IFC Database version: Work','Tekla Structures 2020 Service Pack 5, IFC Export Version: 4.0.0.0 Dec  7 2020','');
FILE_SCHEMA(('IFC2X3'));
ENDSEC;

DATA;
#1= IFCPERSON('GIOVANNIPC\\gcorrea','Undefined',$,$,$,$,$,$);
#2= IFCORGANIZATION($,'Trimble Solutions Corporation',$,$,$);
#3= IFCPERSONANDORGANIZATION(#1,#2,$);
#4= IFCAPPLICATION(#2,'2020 Service Pack 5','Tekla Structures','Multi material modeling');
#5= IFCOWNERHISTORY(#3,#4,$,.NOCHANGE.,$,$,$,1778950397);
#6= IFCCARTESIANPOINT((0.,0.,0.));
#7= IFCDIRECTION((1.,0.,0.));
#8= IFCDIRECTION((0.,1.,0.));
#9= IFCDIRECTION((0.,0.,1.));
#10= IFCAXIS2PLACEMENT3D(#6,#9,#7);
#11= IFCGEOMETRICREPRESENTATIONCONTEXT($,'Model',3,1.E-05,#10,$);
#12= IFCGEOMETRICREPRESENTATIONSUBCONTEXT('Body','Model',*,*,*,*,#11,$,.MODEL_VIEW.,$);
#13= IFCGEOMETRICREPRESENTATIONSUBCONTEXT('Axis','Model',*,*,*,*,#11,$,.GRAPH_VIEW.,$);
#14= IFCGEOMETRICREPRESENTATIONSUBCONTEXT('FootPrint','Model',*,*,*,*,#11,$,.MODEL_VIEW.,$);
#15= IFCSIUNIT(*,.LENGTHUNIT.,.MILLI.,.METRE.);
#16= IFCMEASUREWITHUNIT(IFCRATIOMEASURE(304.8),#15);
#17= IFCDIMENSIONALEXPONENTS(1,0,0,0,0,0,0);
#18= IFCCONVERSIONBASEDUNIT(#17,.LENGTHUNIT.,'FOOT',#16);
#19= IFCSIUNIT(*,.AREAUNIT.,$,.SQUARE_METRE.);
#20= IFCMEASUREWITHUNIT(IFCRATIOMEASURE(0.09290304),#19);
#21= IFCDIMENSIONALEXPONENTS(2,0,0,0,0,0,0);
#22= IFCCONVERSIONBASEDUNIT(#21,.AREAUNIT.,'SQUARE FOOT',#20);
#23= IFCSIUNIT(*,.VOLUMEUNIT.,$,.CUBIC_METRE.);
#24= IFCMEASUREWITHUNIT(IFCRATIOMEASURE(0.028316846592),#23);
#25= IFCDIMENSIONALEXPONENTS(3,0,0,0,0,0,0);
#26= IFCCONVERSIONBASEDUNIT(#25,.VOLUMEUNIT.,'CUBIC FOOT',#24);
#27= IFCSIUNIT(*,.MASSUNIT.,.KILO.,.GRAM.);
#28= IFCSIUNIT(*,.TIMEUNIT.,$,.SECOND.);
#29= IFCSIUNIT(*,.PLANEANGLEUNIT.,$,.RADIAN.);
#30= IFCMEASUREWITHUNIT(IFCRATIOMEASURE(0.0174532925199433),#29);
#31= IFCDIMENSIONALEXPONENTS(0,0,0,0,0,0,0);
#32= IFCCONVERSIONBASEDUNIT(#31,.PLANEANGLEUNIT.,'DEGREE',#30);
#33= IFCSIUNIT(*,.SOLIDANGLEUNIT.,$,.STERADIAN.);
#34= IFCSIUNIT(*,.THERMODYNAMICTEMPERATUREUNIT.,$,.DEGREE_CELSIUS.);
#35= IFCSIUNIT(*,.LUMINOUSINTENSITYUNIT.,$,.LUMEN.);
#36= IFCUNITASSIGNMENT((#15,#19,#23,#27,#28,#29,#33,#34,#35));
#37= IFCPROJECT('2G7ZFDNE16yBDU14FA92Me',#5,'Proyecto',$,$,$,$,(#11),#36);
#38= IFCLOCALPLACEMENT($,#10);
#39= IFCSITE('2xvEzEinjBTea80yOTcujY',#5,'Obra',$,$,#38,$,$,.ELEMENT.,$,$,$,$,$);
#40= IFCLOCALPLACEMENT(#38,#10);
#41= IFCBUILDING('3yKWQOxXvFzAnsqNyg$NWK',#5,'Undefined',$,$,#40,$,$,.ELEMENT.,$,$,$);
#42= IFCLOCALPLACEMENT(#40,#10);
#43= IFCBUILDINGSTOREY('29hdEUCErFze9E_VIAceOd',#5,'Undefined',$,$,#42,$,$,.ELEMENT.,0.);
#44= IFCOWNERHISTORY(#3,#4,$,.NOCHANGE.,$,$,$,1777928400);
#45= IFCCARTESIANPOINT((59637.6989106064,1603.38122277425,13675.));
#46= IFCAXIS2PLACEMENT3D(#45,#9,#7);
#47= IFCLOCALPLACEMENT(#42,#46);
#48= IFCDIRECTION((1.,0.));
#49= IFCCARTESIANPOINT((0.,0.));
#50= IFCAXIS2PLACEMENT2D(#49,#48);
#51= IFCISHAPEPROFILEDEF(.AREA.,'IPE450',#50,190.,450.,9.399999619,14.60000038,21.);
#52= IFCDIRECTION((0.,-1.,0.));
#53= IFCDIRECTION((-1.,0.,0.));
#54= IFCCARTESIANPOINT((8139.30119437349,0.,0.));
#55= IFCAXIS2PLACEMENT3D(#54,#53,#52);
#56= IFCEXTRUDEDAREASOLID(#51,#55,#9,8261.22);
#57= IFCCARTESIANPOINT((8139.30108939359,1.37778655626425,-320.));
#58= IFCAXIS2PLACEMENT3D(#57,#53,#8);
#59= IFCPLANE(#58);
#60= IFCHALFSPACESOLID(#59,.T.);
#61= IFCBOOLEANCLIPPINGRESULT(.DIFFERENCE.,#56,#60);
#62= IFCDIRECTION((0.999999999755463,-2.21149999943499E-05,0.));
#63= IFCCARTESIANPOINT((-121.916824369102,-0.000221150000925263,-325.));
#64= IFCDIRECTION((-2.21149999943499E-05,-0.999999999755463,0.));
#65= IFCAXIS2PLACEMENT3D(#63,#62,#64);
#66= IFCPLANE(#65);
#67= IFCHALFSPACESOLID(#66,.T.);
#68= IFCBOOLEANCLIPPINGRESULT(.DIFFERENCE.,#61,#67);
#69= IFCSHAPEREPRESENTATION(#12,'Body','Clipping',(#68));
#70= IFCPRODUCTDEFINITIONSHAPE($,$,(#69));
#71= IFCBEAM('1_EmhsWRr3JfbU7uLMYds_',#44,'BEAM','IPE450','IPE450',#47,#70,'ID7e3b0af6-81bd-434e-995e-1f85568a7dbe');
#72= IFCLOCALPLACEMENT(#42,#46);
#73= IFCRECTANGLEPROFILEDEF(.AREA.,'PL108*12',#50,12.,108.);
#74= IFCDIRECTION((0.,0.,-1.));
#75= IFCCARTESIANPOINT((8155.30108939359,-40.6222134437357,231.));
#76= IFCAXIS2PLACEMENT3D(#75,#74,#53);
#77= IFCEXTRUDEDAREASOLID(#73,#76,#9,452.);
#78= IFCSHAPEREPRESENTATION(#12,'Body','SweptSolid',(#77));
#79= IFCPRODUCTDEFINITIONSHAPE($,$,(#78));
#80= IFCOPENINGELEMENT('3CKZJ_mOf1gvQNjrXwPQtD',#5,$,$,'Recess',#72,#79,$);
#81= IFCRELVOIDSELEMENT('3QC4xvjSvE5uyX8sd8cDRe',#5,$,$,#71,#80);
#82= IFCPROPERTYSINGLEVALUE('FeatureSubTypes',$,$,$);
#83= IFCPROPERTYSINGLEVALUE('RectangleOpeningWidth',$,IFCPOSITIVELENGTHMEASURE(12.),$);
#84= IFCPROPERTYSINGLEVALUE('RectangleOpeningHeight',$,IFCPOSITIVELENGTHMEASURE(108.),$);
#85= IFCPROPERTYSINGLEVALUE('OpeningDiameter',$,$,$);
#86= IFCPROPERTYSET('2gxmYY5fv0Xh5MFCb4u1Nn',#5,'AISC_EM11_Pset_Opening/Cope',$,(#82,#83,#84,#85));
#87= IFCLOCALPLACEMENT(#42,#46);
#88= IFCCARTESIANPOINT((8155.30108939359,43.3777865562643,231.));
#89= IFCAXIS2PLACEMENT3D(#88,#74,#53);
#90= IFCEXTRUDEDAREASOLID(#73,#89,#9,452.);
#91= IFCSHAPEREPRESENTATION(#12,'Body','SweptSolid',(#90));
#92= IFCPRODUCTDEFINITIONSHAPE($,$,(#91));
#93= IFCOPENINGELEMENT('38iyX5b8bDDwYDGvxVyEYQ',#5,$,$,'Recess',#87,#92,$);
#94= IFCRELVOIDSELEMENT('16PcHY0kj6tR2Oab5hsz9a',#5,$,$,#71,#93);
#95= IFCLOCALPLACEMENT(#42,#46);
#96= IFCRECTANGLEPROFILEDEF(.AREA.,'PL59*156.3',#50,59.,156.3);
#97= IFCDIRECTION((-3.08100000874995E-06,0.999999999995254,0.));
#98= IFCCARTESIANPOINT((-55.8028086398263,-96.0252490892149,-196.5));
#99= IFCAXIS2PLACEMENT3D(#98,#97,#74);
#100= IFCEXTRUDEDAREASOLID(#96,#99,#9,192.03);
#101= IFCSHAPEREPRESENTATION(#12,'Body','SweptSolid',(#100));
#102= IFCPRODUCTDEFINITIONSHAPE($,$,(#101));
#103= IFCOPENINGELEMENT('3_Q8_x1a1DzxVrPjmf5zOu',#5,$,$,'Recess',#95,#102,$);
#104= IFCRELVOIDSELEMENT('2pLzRs5uPA6uR1FFLLeZor',#5,$,$,#71,#103);
#105= IFCPROPERTYSINGLEVALUE('RectangleOpeningWidth',$,IFCPOSITIVELENGTHMEASURE(59.),$);
#106= IFCPROPERTYSINGLEVALUE('RectangleOpeningHeight',$,IFCPOSITIVELENGTHMEASURE(156.3),$);
#107= IFCPROPERTYSET('3ZquEpJNP1IPFd_asvHOFk',#5,'AISC_EM11_Pset_Opening/Cope',$,(#82,#105,#106,#85));
#108= IFCLOCALPLACEMENT(#42,#46);
#109= IFCRECTANGLEPROFILEDEF(.AREA.,'PL49*156.3',#50,49.,156.3);
#110= IFCCARTESIANPOINT((-55.8028086398263,-96.0252490892149,201.5));
#111= IFCAXIS2PLACEMENT3D(#110,#97,#74);
#112= IFCEXTRUDEDAREASOLID(#109,#111,#9,192.03);
#113= IFCSHAPEREPRESENTATION(#12,'Body','SweptSolid',(#112));
#114= IFCPRODUCTDEFINITIONSHAPE($,$,(#113));
#115= IFCOPENINGELEMENT('2rhLr$pDD0EuEjuF9jsnmE',#5,$,$,'Recess',#108,#114,$);
#116= IFCRELVOIDSELEMENT('0DhtODit5FAQZS$RM77IaS',#5,$,$,#71,#115);
#117= IFCPROPERTYSINGLEVALUE('RectangleOpeningWidth',$,IFCPOSITIVELENGTHMEASURE(49.),$);
#118= IFCPROPERTYSET('0g8xOOHur1PA9voPtLjkwQ',#5,'AISC_EM11_Pset_Opening/Cope',$,(#82,#117,#106,#85));
#119= IFCCARTESIANPOINT((59700.0458061133,1603.38122277425,13900.));
#120= IFCAXIS2PLACEMENT3D(#119,#8,#7);
#121= IFCLOCALPLACEMENT(#42,#120);
#122= IFCCIRCLEPROFILEDEF(.AREA.,$,#50,11.5);
#123= IFCCARTESIANPOINT((0.,-0.1,0.));
#124= IFCAXIS2PLACEMENT3D(#123,#8,#7);
#125= IFCEXTRUDEDAREASOLID(#122,#124,#9,14.8);
#126= IFCSHAPEREPRESENTATION(#12,'Body','SweptSolid',(#125));
#127= IFCREPRESENTATIONMAP(#10,#126);
#128= IFCCARTESIANPOINT((0.,0.,-50.));
#129= IFCCARTESIANTRANSFORMATIONOPERATOR3D($,$,#128,$,$);
#130= IFCMAPPEDITEM(#127,#129);
#131= IFCCARTESIANPOINT((70.,0.,-50.));
#132= IFCCARTESIANTRANSFORMATIONOPERATOR3D($,$,#131,$,$);
#133= IFCMAPPEDITEM(#127,#132);
#134= IFCCARTESIANPOINT((140.,0.,-50.));
#135= IFCCARTESIANTRANSFORMATIONOPERATOR3D($,$,#134,$,$);
#136= IFCMAPPEDITEM(#127,#135);
#137= IFCCARTESIANPOINT((210.,0.,-50.));
#138= IFCCARTESIANTRANSFORMATIONOPERATOR3D($,$,#137,$,$);
#139= IFCMAPPEDITEM(#127,#138);
#140= IFCCARTESIANPOINT((280.,0.,-50.));
#141= IFCCARTESIANTRANSFORMATIONOPERATOR3D($,$,#140,$,$);
#142= IFCMAPPEDITEM(#127,#141);
#143= IFCCARTESIANPOINT((350.,0.,-50.));
#144= IFCCARTESIANTRANSFORMATIONOPERATOR3D($,$,#143,$,$);
#145= IFCMAPPEDITEM(#127,#144);
#146= IFCCARTESIANPOINT((420.,0.,-50.));
#147= IFCCARTESIANTRANSFORMATIONOPERATOR3D($,$,#146,$,$);
#148= IFCMAPPEDITEM(#127,#147);
#149= IFCCARTESIANPOINT((0.,0.,50.));
#150= IFCCARTESIANTRANSFORMATIONOPERATOR3D($,$,#149,$,$);
#151= IFCMAPPEDITEM(#127,#150);
#152= IFCCARTESIANPOINT((70.,0.,50.));
#153= IFCCARTESIANTRANSFORMATIONOPERATOR3D($,$,#152,$,$);
#154= IFCMAPPEDITEM(#127,#153);
#155= IFCCARTESIANPOINT((140.,0.,50.));
#156= IFCCARTESIANTRANSFORMATIONOPERATOR3D($,$,#155,$,$);
#157= IFCMAPPEDITEM(#127,#156);
#158= IFCCARTESIANPOINT((210.,0.,50.));
#159= IFCCARTESIANTRANSFORMATIONOPERATOR3D($,$,#158,$,$);
#160= IFCMAPPEDITEM(#127,#159);
#161= IFCCARTESIANPOINT((280.,0.,50.));
#162= IFCCARTESIANTRANSFORMATIONOPERATOR3D($,$,#161,$,$);
#163= IFCMAPPEDITEM(#127,#162);
#164= IFCCARTESIANPOINT((350.,0.,50.));
#165= IFCCARTESIANTRANSFORMATIONOPERATOR3D($,$,#164,$,$);
#166= IFCMAPPEDITEM(#127,#165);
#167= IFCCARTESIANPOINT((420.,0.,50.));
#168= IFCCARTESIANTRANSFORMATIONOPERATOR3D($,$,#167,$,$);
#169= IFCMAPPEDITEM(#127,#168);
#170= IFCSHAPEREPRESENTATION(#12,'Body','MappedRepresentation',(#130,#133,#136,#139,#142,#145,#148,#151,#154,#157,#160,#163,#166,#169));
#171= IFCPRODUCTDEFINITIONSHAPE($,$,(#170));
#172= IFCOPENINGELEMENT('3bZERCcQz37O_$LKTg3ZaL',#5,$,$,'Opening',#121,#171,$);
#173= IFCRELVOIDSELEMENT('3RWv7SL5z0RxeiCgAlKz4i',#5,'Drill Hole',$,#71,#172);
#174= IFCPROPERTYSINGLEVALUE('FeatureSubTypes',$,IFCLABEL('TORNILLO'),$);
#175= IFCPROPERTYSINGLEVALUE('RectangleOpeningWidth',$,$,$);
#176= IFCPROPERTYSINGLEVALUE('RectangleOpeningHeight',$,$,$);
#177= IFCPROPERTYSET('3GvLRm3svCjxAuiVHxQ05A',#5,'AISC_EM11_Pset_Opening/Cope',$,(#174,#175,#176,#85));
#178= IFCCARTESIANPOINT((59702.7004364853,1603.38122277425,13460.));
#179= IFCDIRECTION((0.00127341800025897,-0.99999918920297,0.));
#180= IFCDIRECTION((0.99999918920297,0.00127341800025859,0.));
#181= IFCAXIS2PLACEMENT3D(#178,#179,#180);
#182= IFCLOCALPLACEMENT(#42,#181);
#183= IFCCARTESIANPOINT((0.,-10.1,0.));
#184= IFCAXIS2PLACEMENT3D(#183,#8,#7);
#185= IFCEXTRUDEDAREASOLID(#122,#184,#9,14.8);
#186= IFCSHAPEREPRESENTATION(#12,'Body','SweptSolid',(#185));
#187= IFCREPRESENTATIONMAP(#10,#186);
#188= IFCMAPPEDITEM(#187,#150);
#189= IFCMAPPEDITEM(#187,#153);
#190= IFCMAPPEDITEM(#187,#156);
#191= IFCMAPPEDITEM(#187,#159);
#192= IFCMAPPEDITEM(#187,#162);
#193= IFCMAPPEDITEM(#187,#165);
#194= IFCMAPPEDITEM(#187,#168);
#195= IFCMAPPEDITEM(#187,#129);
#196= IFCMAPPEDITEM(#187,#132);
#197= IFCMAPPEDITEM(#187,#135);
#198= IFCMAPPEDITEM(#187,#138);
#199= IFCMAPPEDITEM(#187,#141);
#200= IFCMAPPEDITEM(#187,#144);
#201= IFCMAPPEDITEM(#187,#147);
#202= IFCSHAPEREPRESENTATION(#12,'Body','MappedRepresentation',(#188,#189,#190,#191,#192,#193,#194,#195,#196,#197,#198,#199,#200,#201));
#203= IFCPRODUCTDEFINITIONSHAPE($,$,(#202));
#204= IFCOPENINGELEMENT('36Ydx$CnL09wMLY10gOIGJ',#5,$,$,'Opening',#182,#203,$);
#205= IFCRELVOIDSELEMENT('1b2qV_yd1F6RHqXHNfIAc3',#5,'Drill Hole',$,#71,#204);
#206= IFCCARTESIANPOINT((67737.614376915,1603.38122277425,13450.));
#207= IFCDIRECTION((7.14190000289818E-05,-0.999999997449663,0.));
#208= IFCDIRECTION((-0.999999997449663,-7.14190000319429E-05,0.));
#209= IFCAXIS2PLACEMENT3D(#206,#207,#208);
#210= IFCLOCALPLACEMENT(#42,#209);
#211= IFCCARTESIANPOINT((0.,-14.70000038,0.));
#212= IFCAXIS2PLACEMENT3D(#211,#8,#7);
#213= IFCEXTRUDEDAREASOLID(#122,#212,#9,14.8);
#214= IFCSHAPEREPRESENTATION(#12,'Body','SweptSolid',(#213));
#215= IFCREPRESENTATIONMAP(#10,#214);
#216= IFCMAPPEDITEM(#215,#150);
#217= IFCMAPPEDITEM(#215,#153);
#218= IFCMAPPEDITEM(#215,#156);
#219= IFCMAPPEDITEM(#215,#159);
#220= IFCMAPPEDITEM(#215,#162);
#221= IFCMAPPEDITEM(#215,#165);
#222= IFCMAPPEDITEM(#215,#168);
#223= IFCMAPPEDITEM(#215,#129);
#224= IFCMAPPEDITEM(#215,#132);
#225= IFCMAPPEDITEM(#215,#135);
#226= IFCMAPPEDITEM(#215,#138);
#227= IFCMAPPEDITEM(#215,#141);
#228= IFCMAPPEDITEM(#215,#144);
#229= IFCMAPPEDITEM(#215,#147);
#230= IFCSHAPEREPRESENTATION(#12,'Body','MappedRepresentation',(#216,#217,#218,#219,#220,#221,#222,#223,#224,#225,#226,#227,#228,#229));
#231= IFCPRODUCTDEFINITIONSHAPE($,$,(#230));
#232= IFCOPENINGELEMENT('3AnNPtXuj2hvLN8bXI8uup',#5,$,$,'Opening',#210,#231,$);
#233= IFCRELVOIDSELEMENT('2lxnSoSfv5QxORjFhavnUy',#5,'Drill Hole',$,#71,#232);
#234= IFCCARTESIANPOINT((67737.614376915,1603.38122277425,13900.));
#235= IFCDIRECTION((-7.14190000289818E-05,0.999999997449663,0.));
#236= IFCAXIS2PLACEMENT3D(#234,#235,#208);
#237= IFCLOCALPLACEMENT(#42,#236);
#238= IFCSHAPEREPRESENTATION(#12,'Body','MappedRepresentation',(#223,#224,#225,#226,#227,#228,#229,#216,#217,#218,#219,#220,#221,#222));
#239= IFCPRODUCTDEFINITIONSHAPE($,$,(#238));
#240= IFCOPENINGELEMENT('0NJrqGvMzEuxGDwaI1cGrW',#5,$,$,'Opening',#237,#239,$);
#241= IFCRELVOIDSELEMENT('3XSARiKan6_v$guZzjrHF8',#5,'Drill Hole',$,#71,#240);
#242= IFCCARTESIANPOINT((67777.,1604.75900933052,13905.));
#243= IFCAXIS2PLACEMENT3D(#242,#53,#74);
#244= IFCLOCALPLACEMENT(#42,#243);
#245= IFCCARTESIANPOINT((0.,-3.42221325323574,0.));
#246= IFCAXIS2PLACEMENT3D(#245,#8,#7);
#247= IFCEXTRUDEDAREASOLID(#122,#246,#9,9.6);
#248= IFCSHAPEREPRESENTATION(#12,'Body','SweptSolid',(#247));
#249= IFCREPRESENTATIONMAP(#10,#248);
#250= IFCCARTESIANPOINT((85.,0.,40.));
#251= IFCCARTESIANTRANSFORMATIONOPERATOR3D($,$,#250,$,$);
#252= IFCMAPPEDITEM(#249,#251);
#253= IFCCARTESIANPOINT((155.,0.,40.));
#254= IFCCARTESIANTRANSFORMATIONOPERATOR3D($,$,#253,$,$);
#255= IFCMAPPEDITEM(#249,#254);
#256= IFCCARTESIANPOINT((225.,0.,40.));
#257= IFCCARTESIANTRANSFORMATIONOPERATOR3D($,$,#256,$,$);
#258= IFCMAPPEDITEM(#249,#257);
#259= IFCCARTESIANPOINT((295.,0.,40.));
#260= IFCCARTESIANTRANSFORMATIONOPERATOR3D($,$,#259,$,$);
#261= IFCMAPPEDITEM(#249,#260);
#262= IFCCARTESIANPOINT((365.,0.,40.));
#263= IFCCARTESIANTRANSFORMATIONOPERATOR3D($,$,#262,$,$);
#264= IFCMAPPEDITEM(#249,#263);
#265= IFCSHAPEREPRESENTATION(#12,'Body','MappedRepresentation',(#252,#255,#258,#261,#264));
#266= IFCPRODUCTDEFINITIONSHAPE($,$,(#265));
#267= IFCOPENINGELEMENT('1JY2giSZXFxx_3mZgCERRk',#5,$,$,'Opening',#244,#266,$);
#268= IFCRELVOIDSELEMENT('2rbFwTnC1CxOrT9$PwPZTm',#5,'Drill Hole',$,#71,#267);
#269= IFCCARTESIANPOINT((59515.7708061034,1603.38119196433,13900.));
#270= IFCDIRECTION((0.999999999995596,2.96800000000984E-06,0.));
#271= IFCAXIS2PLACEMENT3D(#269,#270,#74);
#272= IFCLOCALPLACEMENT(#42,#271);
#273= IFCCIRCLEPROFILEDEF(.AREA.,$,#50,11.);
#274= IFCCARTESIANPOINT((0.,-4.80008771952821,0.));
#275= IFCAXIS2PLACEMENT3D(#274,#8,#7);
#276= IFCEXTRUDEDAREASOLID(#273,#275,#9,9.6);
#277= IFCSHAPEREPRESENTATION(#12,'Body','SweptSolid',(#276));
#278= IFCREPRESENTATIONMAP(#10,#277);
#279= IFCMAPPEDITEM(#278,#251);
#280= IFCMAPPEDITEM(#278,#254);
#281= IFCMAPPEDITEM(#278,#257);
#282= IFCMAPPEDITEM(#278,#260);
#283= IFCMAPPEDITEM(#278,#263);
#284= IFCSHAPEREPRESENTATION(#12,'Body','MappedRepresentation',(#279,#280,#281,#282,#283));
#285= IFCPRODUCTDEFINITIONSHAPE($,$,(#284));
#286= IFCOPENINGELEMENT('3ziiF0ngv6HhMfvMweQ$Nl',#5,$,$,'Opening',#272,#285,$);
#287= IFCRELVOIDSELEMENT('0LRjnpZrrCpw0fiNnOSAZ$',#5,'Drill Hole',$,#71,#286);
#288= IFCPROPERTYSINGLEVALUE('PieceMark',$,IFCIDENTIFIER('BEAM'),$);
#289= IFCPROPERTYSINGLEVALUE('IndicationMark',$,IFCIDENTIFIER('b/29'),$);
#290= IFCPROPERTYSINGLEVALUE('PrelimMark',$,IFCIDENTIFIER(''),$);
#291= IFCPROPERTYSINGLEVALUE('MainPieceTag',$,IFCBOOLEAN(.F.),$);
#292= IFCPROPERTYSET('2Le7uPw9n0q9hINwJ1KT7H',#5,'AISC_EM11_Pset_PieceIdentification','PieceIdentity',(#288,#289,#290,#291));
#293= IFCPROPERTYSINGLEVALUE('MaterialType',$,IFCIDENTIFIER('STEEL'),$);
#294= IFCPROPERTYSINGLEVALUE('MaterialGrade',$,IFCIDENTIFIER('S235JR'),$);
#295= IFCPROPERTYSET('0GrIDrW3n6vwGeeFoSo72v',#5,'AISC_EM11_Pset_Material',$,(#293,#294));
#296= IFCPROPERTYSINGLEVALUE('SkewedAngleY',$,IFCREAL(0.),$);
#297= IFCPROPERTYSINGLEVALUE('SkewedAngleX',$,IFCREAL(0.),$);
#298= IFCPROPERTYSET('3NK1xxQs15WexX_TLm_sV_',#5,'AISC_EM11_Pset_SkewedEnd',$,(#296,#297));
#299= IFCPROPERTYSET('3U5ZPhIp52PRBJeYgLEBky',#5,'AISC_EM11_Pset_SkewedEnd_2',$,(#296,#297));
#300= IFCMATERIAL('STEEL/S235JR');
#301= IFCRELAGGREGATES('2rhTgA1YH6u8BruSEsswf9',#5,$,$,#37,(#39));
#302= IFCRELAGGREGATES('27zlySJqZOAQT7AkW88CxR',#5,$,$,#39,(#41));
#303= IFCRELAGGREGATES('2wyzxcDEr5mB5gdfBaJpSq',#5,$,$,#41,(#43));
#304= IFCRELCONTAINEDINSPATIALSTRUCTURE('2caLyddZz9fhKaBv76Iv7x',#5,$,$,(#71),#43);
#305= IFCRELDEFINESBYPROPERTIES('0Bz3$_flz9ZOQqAKYcR1G7',#5,$,$,(#93,#80),#86);
#306= IFCRELDEFINESBYPROPERTIES('073vT7qG95B8P9NGqjipxV',#5,$,$,(#103),#107);
#307= IFCRELDEFINESBYPROPERTIES('1ZiNMYgIjDjwpe29yXmTir',#5,$,$,(#115),#118);
#308= IFCRELDEFINESBYPROPERTIES('31aKawwYjCkQRw2AsV5a$a',#5,$,$,(#286,#267,#240,#232,#204,#172),#177);
#309= IFCRELDEFINESBYPROPERTIES('1inpI1evz5xQDHcppLzGzZ',#5,$,$,(#71),#292);
#310= IFCRELDEFINESBYPROPERTIES('1FcriCg4r5PeJ1qFsjINSk',#5,$,$,(#71),#295);
#311= IFCRELDEFINESBYPROPERTIES('3yFqeQ0njDef5dVLgTaASo',#5,$,$,(#71),#298);
#312= IFCRELDEFINESBYPROPERTIES('1ga89rsU11JfuYnEklj4dx',#5,$,$,(#71),#299);
#313= IFCRELASSOCIATESMATERIAL('2daX70d_L4qB9EJDaOOo5q',#5,$,$,(#71),#300);
ENDSEC;

END-ISO-10303-21;
