ISO-10303-21;
HEADER;
FILE_DESCRIPTION(('ViewDefinition[AISC_Steel_Detailing]', 'Option [BaseQuantities:Off]', 'Option [GridExport:On]', 'Option [Assemblies:Off]', 'Option [Bolts:On]', 'Option [Rebars:On]', 'Option [PourObjects:Off]', 'Option [Welds:On]', 'Option [SurfaceTreatments:On]', 'Option [LocationBy:0]', 'Option [ViewColors:Off]', 'Option [SectionedSpine:Off]', 'Option [PropertySets:On]', 'Option [Export all:Off]'),'2;1');
FILE_NAME('b_30_Qty_1.ifc','2026-05-16T11:53:17',('GIOVANNIPC\\gcorrea'),('Structural Designer'),'IFC Database version: Work','Tekla Structures 2020 Service Pack 5, IFC Export Version: 4.0.0.0 Dec  7 2020','');
FILE_SCHEMA(('IFC2X3'));
ENDSEC;

DATA;
#1= IFCPERSON('GIOVANNIPC\\gcorrea','Undefined',$,$,$,$,$,$);
#2= IFCORGANIZATION($,'Trimble Solutions Corporation',$,$,$);
#3= IFCPERSONANDORGANIZATION(#1,#2,$);
#4= IFCAPPLICATION(#2,'2020 Service Pack 5','Tekla Structures','Multi material modeling');
#5= IFCOWNERHISTORY(#3,#4,$,.NOCHANGE.,$,$,$,1778950397);
#6= IFCCARTESIANPOINT((0.,0.,0.));
#7= IFCDIRECTION((1.,0.,0.));
#8= IFCDIRECTION((0.,1.,0.));
#9= IFCDIRECTION((0.,0.,1.));
#10= IFCAXIS2PLACEMENT3D(#6,#9,#7);
#11= IFCGEOMETRICREPRESENTATIONCONTEXT($,'Model',3,1.E-05,#10,$);
#12= IFCGEOMETRICREPRESENTATIONSUBCONTEXT('Body','Model',*,*,*,*,#11,$,.MODEL_VIEW.,$);
#13= IFCGEOMETRICREPRESENTATIONSUBCONTEXT('Axis','Model',*,*,*,*,#11,$,.GRAPH_VIEW.,$);
#14= IFCGEOMETRICREPRESENTATIONSUBCONTEXT('FootPrint','Model',*,*,*,*,#11,$,.MODEL_VIEW.,$);
#15= IFCSIUNIT(*,.LENGTHUNIT.,.MILLI.,.METRE.);
#16= IFCMEASUREWITHUNIT(IFCRATIOMEASURE(304.8),#15);
#17= IFCDIMENSIONALEXPONENTS(1,0,0,0,0,0,0);
#18= IFCCONVERSIONBASEDUNIT(#17,.LENGTHUNIT.,'FOOT',#16);
#19= IFCSIUNIT(*,.AREAUNIT.,$,.SQUARE_METRE.);
#20= IFCMEASUREWITHUNIT(IFCRATIOMEASURE(0.09290304),#19);
#21= IFCDIMENSIONALEXPONENTS(2,0,0,0,0,0,0);
#22= IFCCONVERSIONBASEDUNIT(#21,.AREAUNIT.,'SQUARE FOOT',#20);
#23= IFCSIUNIT(*,.VOLUMEUNIT.,$,.CUBIC_METRE.);
#24= IFCMEASUREWITHUNIT(IFCRATIOMEASURE(0.028316846592),#23);
#25= IFCDIMENSIONALEXPONENTS(3,0,0,0,0,0,0);
#26= IFCCONVERSIONBASEDUNIT(#25,.VOLUMEUNIT.,'CUBIC FOOT',#24);
#27= IFCSIUNIT(*,.MASSUNIT.,.KILO.,.GRAM.);
#28= IFCSIUNIT(*,.TIMEUNIT.,$,.SECOND.);
#29= IFCSIUNIT(*,.PLANEANGLEUNIT.,$,.RADIAN.);
#30= IFCMEASUREWITHUNIT(IFCRATIOMEASURE(0.0174532925199433),#29);
#31= IFCDIMENSIONALEXPONENTS(0,0,0,0,0,0,0);
#32= IFCCONVERSIONBASEDUNIT(#31,.PLANEANGLEUNIT.,'DEGREE',#30);
#33= IFCSIUNIT(*,.SOLIDANGLEUNIT.,$,.STERADIAN.);
#34= IFCSIUNIT(*,.THERMODYNAMICTEMPERATUREUNIT.,$,.DEGREE_CELSIUS.);
#35= IFCSIUNIT(*,.LUMINOUSINTENSITYUNIT.,$,.LUMEN.);
#36= IFCUNITASSIGNMENT((#15,#19,#23,#27,#28,#29,#33,#34,#35));
#37= IFCPROJECT('2G7ZFDNE16yBDU14FA92Me',#5,'Proyecto',$,$,$,$,(#11),#36);
#38= IFCLOCALPLACEMENT($,#10);
#39= IFCSITE('2xvEzEinjBTea80yOTcujY',#5,'Obra',$,$,#38,$,$,.ELEMENT.,$,$,$,$,$);
#40= IFCLOCALPLACEMENT(#38,#10);
#41= IFCBUILDING('1xwQIYkaX6xvL_dlqIhVIU',#5,'Undefined',$,$,#40,$,$,.ELEMENT.,$,$,$);
#42= IFCLOCALPLACEMENT(#40,#10);
#43= IFCBUILDINGSTOREY('29hdEUCErFze9E_VIAceOd',#5,'Undefined',$,$,#42,$,$,.ELEMENT.,0.);
#44= IFCOWNERHISTORY(#3,#4,$,.NOCHANGE.,$,$,$,1775667600);
#45= IFCCARTESIANPOINT((68222.3851899033,1603.38169961141,13680.));
#46= IFCDIRECTION((0.999999749705571,-0.000707522999791672,0.));
#47= IFCAXIS2PLACEMENT3D(#45,#9,#46);
#48= IFCLOCALPLACEMENT(#42,#47);
#49= IFCDIRECTION((1.,0.));
#50= IFCCARTESIANPOINT((0.,0.));
#51= IFCAXIS2PLACEMENT2D(#50,#49);
#52= IFCISHAPEPROFILEDEF(.AREA.,'HEA450',#51,300.,440.,11.5,21.,27.);
#53= IFCDIRECTION((1.0842021724855E-19,-1.,0.));
#54= IFCDIRECTION((-1.,-1.0842021724855E-19,0.));
#55= IFCCARTESIANPOINT((8262.08015406106,-2.26477898918004E-13,1.81898940354586E-12));
#56= IFCAXIS2PLACEMENT3D(#55,#54,#53);
#57= IFCEXTRUDEDAREASOLID(#52,#56,#9,8261.78);
#58= IFCDIRECTION((-0.999999748030902,-0.00070988599922368,0.));
#59= IFCCARTESIANPOINT((8261.86583877289,-0.00709885999253856,-319.999999999998));
#60= IFCDIRECTION((-0.00070988599922368,0.999999748030902,0.));
#61= IFCAXIS2PLACEMENT3D(#59,#58,#60);
#62= IFCPLANE(#61);
#63= IFCHALFSPACESOLID(#62,.T.);
#64= IFCBOOLEANCLIPPINGRESULT(.DIFFERENCE.,#57,#63);
#65= IFCDIRECTION((0.999999749705571,0.000707522999800858,0.));
#66= IFCCARTESIANPOINT((0.515821782522835,0.24823916921946,-324.999999999998));
#67= IFCDIRECTION((0.000707522999800858,-0.999999749705571,0.));
#68= IFCAXIS2PLACEMENT3D(#66,#65,#67);
#69= IFCPLANE(#68);
#70= IFCHALFSPACESOLID(#69,.T.);
#71= IFCBOOLEANCLIPPINGRESULT(.DIFFERENCE.,#64,#70);
#72= IFCSHAPEREPRESENTATION(#12,'Body','Clipping',(#71));
#73= IFCPRODUCTDEFINITIONSHAPE($,$,(#72));
#74= IFCBEAM('2A7dL7KNHCdxMwEKRoFi12',#44,'BEAM','HEA450','HEA450',#48,#73,'ID8a1e7547-5174-4c9f-b5ba-3946f23ec042');
#75= IFCLOCALPLACEMENT(#42,#47);
#76= IFCRECTANGLEPROFILEDEF(.AREA.,'PL49*156.3',#51,49.,156.3);
#77= IFCDIRECTION((0.,0.,-1.));
#78= IFCDIRECTION((0.000709885999190667,-0.999999748030902,0.));
#79= IFCCARTESIANPOINT((8195.62949437023,156.817673375107,-196.499999999998));
#80= IFCAXIS2PLACEMENT3D(#79,#78,#77);
#81= IFCEXTRUDEDAREASOLID(#76,#80,#9,307.86);
#82= IFCSHAPEREPRESENTATION(#12,'Body','SweptSolid',(#81));
#83= IFCPRODUCTDEFINITIONSHAPE($,$,(#82));
#84= IFCOPENINGELEMENT('0nZwXnsbTDkeFNHSdN7dWF',#5,$,$,'Recess',#75,#83,$);
#85= IFCRELVOIDSELEMENT('37RKdduhz3GeaUFSUMimau',#5,$,$,#74,#84);
#86= IFCPROPERTYSINGLEVALUE('FeatureSubTypes',$,$,$);
#87= IFCPROPERTYSINGLEVALUE('RectangleOpeningWidth',$,IFCPOSITIVELENGTHMEASURE(49.),$);
#88= IFCPROPERTYSINGLEVALUE('RectangleOpeningHeight',$,IFCPOSITIVELENGTHMEASURE(156.3),$);
#89= IFCPROPERTYSINGLEVALUE('OpeningDiameter',$,$,$);
#90= IFCPROPERTYSET('0rwTdzvHDAWgSMhhP2M0V2',#5,'AISC_EM11_Pset_Opening/Cope',$,(#86,#87,#88,#89));
#91= IFCLOCALPLACEMENT(#42,#47);
#92= IFCCARTESIANPOINT((8195.62949437023,156.817673375107,196.500000000002));
#93= IFCAXIS2PLACEMENT3D(#92,#78,#77);
#94= IFCEXTRUDEDAREASOLID(#76,#93,#9,307.86);
#95= IFCSHAPEREPRESENTATION(#12,'Body','SweptSolid',(#94));
#96= IFCPRODUCTDEFINITIONSHAPE($,$,(#95));
#97= IFCOPENINGELEMENT('04j6Up4$X3sPDKWJ$b_UWR',#5,$,$,'Recess',#91,#96,$);
#98= IFCRELVOIDSELEMENT('1fll5_bdz3Iwtq6qUIUcR5',#5,$,$,#74,#97);
#99= IFCLOCALPLACEMENT(#42,#47);
#100= IFCRECTANGLEPROFILEDEF(.AREA.,'PL108*12.1',#51,12.1,108.);
#101= IFCCARTESIANPOINT((-15.465301744247,43.3662027358705,226.000000000002));
#102= IFCAXIS2PLACEMENT3D(#101,#77,#65);
#103= IFCEXTRUDEDAREASOLID(#100,#102,#9,452.);
#104= IFCSHAPEREPRESENTATION(#12,'Body','SweptSolid',(#103));
#105= IFCPRODUCTDEFINITIONSHAPE($,$,(#104));
#106= IFCOPENINGELEMENT('2dlT$w9h50dxctVvLd$1d2',#5,$,$,'Recess',#99,#105,$);
#107= IFCRELVOIDSELEMENT('0T2UXB4z94GOEpB6fs9QSx',#5,$,$,#74,#106);
#108= IFCPROPERTYSINGLEVALUE('RectangleOpeningWidth',$,IFCPOSITIVELENGTHMEASURE(12.1),$);
#109= IFCPROPERTYSINGLEVALUE('RectangleOpeningHeight',$,IFCPOSITIVELENGTHMEASURE(108.),$);
#110= IFCPROPERTYSET('14vnAecaL5cPNfoLdtnigU',#5,'AISC_EM11_Pset_Opening/Cope',$,(#86,#108,#109,#89));
#111= IFCLOCALPLACEMENT(#42,#47);
#112= IFCRECTANGLEPROFILEDEF(.AREA.,'PL109.1*12.1',#51,12.1,109.1);
#113= IFCCARTESIANPOINT((-15.4054718830739,-41.1962019039831,226.000000000002));
#114= IFCAXIS2PLACEMENT3D(#113,#77,#65);
#115= IFCEXTRUDEDAREASOLID(#112,#114,#9,452.);
#116= IFCSHAPEREPRESENTATION(#12,'Body','SweptSolid',(#115));
#117= IFCPRODUCTDEFINITIONSHAPE($,$,(#116));
#118= IFCOPENINGELEMENT('2XWTp$UNn9kxyb7C71mKne',#5,$,$,'Recess',#111,#117,$);
#119= IFCRELVOIDSELEMENT('1ahH_$zXb9pBC27FGT6xGy',#5,$,$,#74,#118);
#120= IFCPROPERTYSINGLEVALUE('RectangleOpeningHeight',$,IFCPOSITIVELENGTHMEASURE(109.1),$);
#121= IFCPROPERTYSET('2baixKgUL0ehr1fakLKrWw',#5,'AISC_EM11_Pset_Opening/Cope',$,(#86,#108,#120,#89));
#122= IFCCARTESIANPOINT((76484.2489557209,1597.54333835908,13900.));
#123= IFCDIRECTION((-0.999999999997208,-2.36300000005941E-06,0.));
#124= IFCAXIS2PLACEMENT3D(#122,#123,#77);
#125= IFCLOCALPLACEMENT(#42,#124);
#126= IFCCIRCLEPROFILEDEF(.AREA.,$,#51,11.5);
#127= IFCCARTESIANPOINT((0.,-5.87129801928559,0.));
#128= IFCAXIS2PLACEMENT3D(#127,#8,#7);
#129= IFCEXTRUDEDAREASOLID(#126,#128,#9,11.7);
#130= IFCSHAPEREPRESENTATION(#12,'Body','SweptSolid',(#129));
#131= IFCREPRESENTATIONMAP(#10,#130);
#132= IFCCARTESIANPOINT((80.,0.,40.0000000002183));
#133= IFCCARTESIANTRANSFORMATIONOPERATOR3D($,$,#132,$,$);
#134= IFCMAPPEDITEM(#131,#133);
#135= IFCCARTESIANPOINT((150.,0.,40.0000000002183));
#136= IFCCARTESIANTRANSFORMATIONOPERATOR3D($,$,#135,$,$);
#137= IFCMAPPEDITEM(#131,#136);
#138= IFCCARTESIANPOINT((220.,0.,40.0000000002183));
#139= IFCCARTESIANTRANSFORMATIONOPERATOR3D($,$,#138,$,$);
#140= IFCMAPPEDITEM(#131,#139);
#141= IFCCARTESIANPOINT((290.,0.,40.0000000002183));
#142= IFCCARTESIANTRANSFORMATIONOPERATOR3D($,$,#141,$,$);
#143= IFCMAPPEDITEM(#131,#142);
#144= IFCCARTESIANPOINT((360.,0.,40.0000000002183));
#145= IFCCARTESIANTRANSFORMATIONOPERATOR3D($,$,#144,$,$);
#146= IFCMAPPEDITEM(#131,#145);
#147= IFCSHAPEREPRESENTATION(#12,'Body','MappedRepresentation',(#134,#137,#140,#143,#146));
#148= IFCPRODUCTDEFINITIONSHAPE($,$,(#147));
#149= IFCOPENINGELEMENT('2MFsNrvuf0bfCZSRjLAiUt',#5,$,$,'Opening',#125,#148,$);
#150= IFCRELVOIDSELEMENT('1rwMUs8FvAKwpuhAuItXxD',#5,'Drill Hole',$,#74,#149);
#151= IFCPROPERTYSINGLEVALUE('FeatureSubTypes',$,IFCLABEL('TORNILLO'),$);
#152= IFCPROPERTYSINGLEVALUE('RectangleOpeningWidth',$,$,$);
#153= IFCPROPERTYSINGLEVALUE('RectangleOpeningHeight',$,$,$);
#154= IFCPROPERTYSET('2GqVXW0QnE2x7KnwasPAAd',#5,'AISC_EM11_Pset_Opening/Cope',$,(#151,#152,#153,#89));
#155= IFCCARTESIANPOINT((76232.0175093483,1598.09887499054,13900.));
#156= IFCDIRECTION((7.13010000326904E-05,-0.999999997458084,0.));
#157= IFCDIRECTION((-0.999999997458084,-7.13010000327137E-05,0.));
#158= IFCAXIS2PLACEMENT3D(#155,#156,#157);
#159= IFCLOCALPLACEMENT(#42,#158);
#160= IFCCARTESIANPOINT((0.,-0.0999999999984581,0.));
#161= IFCAXIS2PLACEMENT3D(#160,#8,#7);
#162= IFCEXTRUDEDAREASOLID(#126,#161,#9,21.2);
#163= IFCSHAPEREPRESENTATION(#12,'Body','SweptSolid',(#162));
#164= IFCREPRESENTATIONMAP(#10,#163);
#165= IFCCARTESIANPOINT((6.54836185276508E-10,0.,-75.0000000000159));
#166= IFCCARTESIANTRANSFORMATIONOPERATOR3D($,$,#165,$,$);
#167= IFCMAPPEDITEM(#164,#166);
#168= IFCCARTESIANPOINT((74.9999999999563,0.,-74.9999999991292));
#169= IFCCARTESIANTRANSFORMATIONOPERATOR3D($,$,#168,$,$);
#170= IFCMAPPEDITEM(#164,#169);
#171= IFCCARTESIANPOINT((149.999999999258,0.,-74.9999999982424));
#172= IFCCARTESIANTRANSFORMATIONOPERATOR3D($,$,#171,$,$);
#173= IFCMAPPEDITEM(#164,#172);
#174= IFCCARTESIANPOINT((224.999999998545,0.,-74.9999999973556));
#175= IFCCARTESIANTRANSFORMATIONOPERATOR3D($,$,#174,$,$);
#176= IFCMAPPEDITEM(#164,#175);
#177= IFCCARTESIANPOINT((299.999999997846,0.,-74.9999999964689));
#178= IFCCARTESIANTRANSFORMATIONOPERATOR3D($,$,#177,$,$);
#179= IFCMAPPEDITEM(#164,#178);
#180= IFCCARTESIANPOINT((374.999999997148,0.,-74.9999999955821));
#181= IFCCARTESIANTRANSFORMATIONOPERATOR3D($,$,#180,$,$);
#182= IFCMAPPEDITEM(#164,#181);
#183= IFCCARTESIANPOINT((449.999999996449,0.,-74.9999999946951));
#184= IFCCARTESIANTRANSFORMATIONOPERATOR3D($,$,#183,$,$);
#185= IFCMAPPEDITEM(#164,#184);
#186= IFCCARTESIANPOINT((524.999999995751,0.,-74.9999999938084));
#187= IFCCARTESIANTRANSFORMATIONOPERATOR3D($,$,#186,$,$);
#188= IFCMAPPEDITEM(#164,#187);
#189= IFCCARTESIANPOINT((599.999999995052,0.,-74.9999999929216));
#190= IFCCARTESIANTRANSFORMATIONOPERATOR3D($,$,#189,$,$);
#191= IFCMAPPEDITEM(#164,#190);
#192= IFCCARTESIANPOINT((674.999999994354,0.,-74.9999999920349));
#193= IFCCARTESIANTRANSFORMATIONOPERATOR3D($,$,#192,$,$);
#194= IFCMAPPEDITEM(#164,#193);
#195= IFCCARTESIANPOINT((-6.40284270048141E-10,0.,75.0000000000157));
#196= IFCCARTESIANTRANSFORMATIONOPERATOR3D($,$,#195,$,$);
#197= IFCMAPPEDITEM(#164,#196);
#198= IFCCARTESIANPOINT((74.9999999986612,0.,75.0000000009027));
#199= IFCCARTESIANTRANSFORMATIONOPERATOR3D($,$,#198,$,$);
#200= IFCMAPPEDITEM(#164,#199);
#201= IFCCARTESIANPOINT((149.999999997963,0.,75.0000000017894));
#202= IFCCARTESIANTRANSFORMATIONOPERATOR3D($,$,#201,$,$);
#203= IFCMAPPEDITEM(#164,#202);
#204= IFCCARTESIANPOINT((224.999999997264,0.,75.0000000026762));
#205= IFCCARTESIANTRANSFORMATIONOPERATOR3D($,$,#204,$,$);
#206= IFCMAPPEDITEM(#164,#205);
#207= IFCCARTESIANPOINT((299.999999996551,0.,75.0000000035629));
#208= IFCCARTESIANTRANSFORMATIONOPERATOR3D($,$,#207,$,$);
#209= IFCMAPPEDITEM(#164,#208);
#210= IFCCARTESIANPOINT((374.999999995853,0.,75.0000000044497));
#211= IFCCARTESIANTRANSFORMATIONOPERATOR3D($,$,#210,$,$);
#212= IFCMAPPEDITEM(#164,#211);
#213= IFCCARTESIANPOINT((449.999999995154,0.,75.0000000053367));
#214= IFCCARTESIANTRANSFORMATIONOPERATOR3D($,$,#213,$,$);
#215= IFCMAPPEDITEM(#164,#214);
#216= IFCCARTESIANPOINT((524.999999994456,0.,75.0000000062234));
#217= IFCCARTESIANTRANSFORMATIONOPERATOR3D($,$,#216,$,$);
#218= IFCMAPPEDITEM(#164,#217);
#219= IFCCARTESIANPOINT((599.999999993757,0.,75.0000000071102));
#220= IFCCARTESIANTRANSFORMATIONOPERATOR3D($,$,#219,$,$);
#221= IFCMAPPEDITEM(#164,#220);
#222= IFCCARTESIANPOINT((674.999999993059,0.,75.000000007997));
#223= IFCCARTESIANTRANSFORMATIONOPERATOR3D($,$,#222,$,$);
#224= IFCMAPPEDITEM(#164,#223);
#225= IFCSHAPEREPRESENTATION(#12,'Body','MappedRepresentation',(#167,#170,#173,#176,#179,#182,#185,#188,#191,#194,#197,#200,#203,#206,#209,#212,#215,#218,#221,#224));
#226= IFCPRODUCTDEFINITIONSHAPE($,$,(#225));
#227= IFCOPENINGELEMENT('00JPbjP_nFOQkGpoiTu3vH',#5,$,$,'Opening',#159,#226,$);
#228= IFCRELVOIDSELEMENT('1J7j5Qb5v4HBXMeUiojAwk',#5,'Drill Hole',$,#74,#227);
#229= IFCCARTESIANPOINT((76232.0175084489,1598.09887499048,13460.));
#230= IFCDIRECTION((-7.12890000286279E-05,0.999999997458939,0.));
#231= IFCAXIS2PLACEMENT3D(#229,#230,#157);
#232= IFCLOCALPLACEMENT(#42,#231);
#233= IFCSHAPEREPRESENTATION(#12,'Body','MappedRepresentation',(#197,#200,#203,#206,#209,#212,#215,#218,#221,#224,#167,#170,#173,#176,#179,#182,#185,#188,#191,#194));
#234= IFCPRODUCTDEFINITIONSHAPE($,$,(#233));
#235= IFCOPENINGELEMENT('3_hUnx0JzAqxu5TgjD4X7G',#5,$,$,'Opening',#232,#234,$);
#236= IFCRELVOIDSELEMENT('25KV1MVKDFbB6MRCq86f2J',#5,'Drill Hole',$,#74,#235);
#237= IFCCARTESIANPOINT((68267.9011871923,1603.38129698721,13450.));
#238= IFCDIRECTION((-0.000646171000145841,0.999999791231498,0.));
#239= IFCDIRECTION((0.999999791231498,0.000646171000149624,0.));
#240= IFCAXIS2PLACEMENT3D(#237,#238,#239);
#241= IFCLOCALPLACEMENT(#42,#240);
#242= IFCCARTESIANPOINT((0.,-31.1,0.));
#243= IFCAXIS2PLACEMENT3D(#242,#8,#7);
#244= IFCEXTRUDEDAREASOLID(#126,#243,#9,21.2);
#245= IFCSHAPEREPRESENTATION(#12,'Body','SweptSolid',(#244));
#246= IFCREPRESENTATIONMAP(#10,#245);
#247= IFCMAPPEDITEM(#246,#196);
#248= IFCMAPPEDITEM(#246,#199);
#249= IFCMAPPEDITEM(#246,#202);
#250= IFCMAPPEDITEM(#246,#205);
#251= IFCMAPPEDITEM(#246,#208);
#252= IFCMAPPEDITEM(#246,#211);
#253= IFCMAPPEDITEM(#246,#214);
#254= IFCMAPPEDITEM(#246,#217);
#255= IFCMAPPEDITEM(#246,#220);
#256= IFCMAPPEDITEM(#246,#223);
#257= IFCMAPPEDITEM(#246,#166);
#258= IFCMAPPEDITEM(#246,#169);
#259= IFCMAPPEDITEM(#246,#172);
#260= IFCMAPPEDITEM(#246,#175);
#261= IFCMAPPEDITEM(#246,#178);
#262= IFCMAPPEDITEM(#246,#181);
#263= IFCMAPPEDITEM(#246,#184);
#264= IFCMAPPEDITEM(#246,#187);
#265= IFCMAPPEDITEM(#246,#190);
#266= IFCMAPPEDITEM(#246,#193);
#267= IFCSHAPEREPRESENTATION(#12,'Body','MappedRepresentation',(#247,#248,#249,#250,#251,#252,#253,#254,#255,#256,#257,#258,#259,#260,#261,#262,#263,#264,#265,#266));
#268= IFCPRODUCTDEFINITIONSHAPE($,$,(#267));
#269= IFCOPENINGELEMENT('1Ws9rDk4j4E91M3fUfXCW7',#5,$,$,'Opening',#241,#268,$);
#270= IFCRELVOIDSELEMENT('39nTUgXBTAIgyUEunBAYr1',#5,'Drill Hole',$,#74,#269);
#271= IFCCARTESIANPOINT((68267.9011871923,1603.38129698721,13900.));
#272= IFCDIRECTION((0.000646171000145841,-0.999999791231498,0.));
#273= IFCAXIS2PLACEMENT3D(#271,#272,#239);
#274= IFCLOCALPLACEMENT(#42,#273);
#275= IFCCARTESIANPOINT((0.,-21.1,0.));
#276= IFCAXIS2PLACEMENT3D(#275,#8,#7);
#277= IFCEXTRUDEDAREASOLID(#126,#276,#9,21.2);
#278= IFCSHAPEREPRESENTATION(#12,'Body','SweptSolid',(#277));
#279= IFCREPRESENTATIONMAP(#10,#278);
#280= IFCMAPPEDITEM(#279,#166);
#281= IFCMAPPEDITEM(#279,#169);
#282= IFCMAPPEDITEM(#279,#172);
#283= IFCMAPPEDITEM(#279,#175);
#284= IFCMAPPEDITEM(#279,#178);
#285= IFCMAPPEDITEM(#279,#181);
#286= IFCMAPPEDITEM(#279,#184);
#287= IFCMAPPEDITEM(#279,#187);
#288= IFCMAPPEDITEM(#279,#190);
#289= IFCMAPPEDITEM(#279,#193);
#290= IFCMAPPEDITEM(#279,#196);
#291= IFCMAPPEDITEM(#279,#199);
#292= IFCMAPPEDITEM(#279,#202);
#293= IFCMAPPEDITEM(#279,#205);
#294= IFCMAPPEDITEM(#279,#208);
#295= IFCMAPPEDITEM(#279,#211);
#296= IFCMAPPEDITEM(#279,#214);
#297= IFCMAPPEDITEM(#279,#217);
#298= IFCMAPPEDITEM(#279,#220);
#299= IFCMAPPEDITEM(#279,#223);
#300= IFCSHAPEREPRESENTATION(#12,'Body','MappedRepresentation',(#280,#281,#282,#283,#284,#285,#286,#287,#288,#289,#290,#291,#292,#293,#294,#295,#296,#297,#298,#299));
#301= IFCPRODUCTDEFINITIONSHAPE($,$,(#300));
#302= IFCOPENINGELEMENT('3UhUx5jDb1OfcRMbu_sneO',#5,$,$,'Opening',#274,#301,$);
#303= IFCRELVOIDSELEMENT('0DQJSmq8P6TxtI1B$fVVvo',#5,'Drill Hole',$,#74,#302);
#304= IFCCARTESIANPOINT((68227.9011871916,1603.64295931406,13905.));
#305= IFCAXIS2PLACEMENT3D(#304,#7,#77);
#306= IFCLOCALPLACEMENT(#42,#305);
#307= IFCCARTESIANPOINT((0.,-6.14346476484461,0.));
#308= IFCAXIS2PLACEMENT3D(#307,#8,#7);
#309= IFCEXTRUDEDAREASOLID(#126,#308,#9,11.7);
#310= IFCSHAPEREPRESENTATION(#12,'Body','SweptSolid',(#309));
#311= IFCREPRESENTATIONMAP(#10,#310);
#312= IFCCARTESIANPOINT((85.,0.,40.));
#313= IFCCARTESIANTRANSFORMATIONOPERATOR3D($,$,#312,$,$);
#314= IFCMAPPEDITEM(#311,#313);
#315= IFCCARTESIANPOINT((155.,0.,40.));
#316= IFCCARTESIANTRANSFORMATIONOPERATOR3D($,$,#315,$,$);
#317= IFCMAPPEDITEM(#311,#316);
#318= IFCCARTESIANPOINT((225.,0.,40.));
#319= IFCCARTESIANTRANSFORMATIONOPERATOR3D($,$,#318,$,$);
#320= IFCMAPPEDITEM(#311,#319);
#321= IFCCARTESIANPOINT((295.,0.,40.));
#322= IFCCARTESIANTRANSFORMATIONOPERATOR3D($,$,#321,$,$);
#323= IFCMAPPEDITEM(#311,#322);
#324= IFCCARTESIANPOINT((365.,0.,40.));
#325= IFCCARTESIANTRANSFORMATIONOPERATOR3D($,$,#324,$,$);
#326= IFCMAPPEDITEM(#311,#325);
#327= IFCSHAPEREPRESENTATION(#12,'Body','MappedRepresentation',(#314,#317,#320,#323,#326));
#328= IFCPRODUCTDEFINITIONSHAPE($,$,(#327));
#329= IFCOPENINGELEMENT('2Kpxkio0T1f9RvhDx3Zm5x',#5,$,$,'Opening',#306,#328,$);
#330= IFCRELVOIDSELEMENT('1Pp$lNj1z1lR_5khOtFuIw',#5,'Drill Hole',$,#74,#329);
#331= IFCPROPERTYSINGLEVALUE('PieceMark',$,IFCIDENTIFIER('BEAM'),$);
#332= IFCPROPERTYSINGLEVALUE('IndicationMark',$,IFCIDENTIFIER('b/30'),$);
#333= IFCPROPERTYSINGLEVALUE('PrelimMark',$,IFCIDENTIFIER(''),$);
#334= IFCPROPERTYSINGLEVALUE('MainPieceTag',$,IFCBOOLEAN(.F.),$);
#335= IFCPROPERTYSET('1UCa5CzRfEpwssqkFBVCv1',#5,'AISC_EM11_Pset_PieceIdentification','PieceIdentity',(#331,#332,#333,#334));
#336= IFCPROPERTYSINGLEVALUE('MaterialType',$,IFCIDENTIFIER('STEEL'),$);
#337= IFCPROPERTYSINGLEVALUE('MaterialGrade',$,IFCIDENTIFIER('S235JR'),$);
#338= IFCPROPERTYSET('0uMPhGKg18LvDT77t6v4TW',#5,'AISC_EM11_Pset_Material',$,(#336,#337));
#339= IFCPROPERTYSINGLEVALUE('SkewedAngleY',$,IFCREAL(0.),$);
#340= IFCPROPERTYSINGLEVALUE('SkewedAngleX',$,IFCREAL(-0.04054),$);
#341= IFCPROPERTYSET('2VWOL4_gj4vg7Px9r6nS7_',#5,'AISC_EM11_Pset_SkewedEnd',$,(#339,#340));
#342= IFCPROPERTYSINGLEVALUE('SkewedAngleX',$,IFCREAL(0.),$);
#343= IFCPROPERTYSET('3MYzU5N8L46w7hHT8wHXh5',#5,'AISC_EM11_Pset_SkewedEnd_2',$,(#339,#342));
#344= IFCMATERIAL('STEEL/S235JR');
#345= IFCRELAGGREGATES('3F0rWBloz25BtF5nJCJwqg',#5,$,$,#37,(#39));
#346= IFCRELAGGREGATES('2XI7oT14FKNT9XN3bUbC6y',#5,$,$,#39,(#41));
#347= IFCRELAGGREGATES('3l0ZOoqc90R8nuJ4QHV9nd',#5,$,$,#41,(#43));
#348= IFCRELCONTAINEDINSPATIALSTRUCTURE('1vTjiyZ8v8cvGvn8FwLCLw',#5,$,$,(#74),#43);
#349= IFCRELDEFINESBYPROPERTIES('0UkwaeQwL6t8Hd_8CjeI8Y',#5,$,$,(#97,#84),#90);
#350= IFCRELDEFINESBYPROPERTIES('1335nCoq1C_PtJ8HeK6DmW',#5,$,$,(#106),#110);
#351= IFCRELDEFINESBYPROPERTIES('1t$yNCbfv6ewBhsATfOQYt',#5,$,$,(#118),#121);
#352= IFCRELDEFINESBYPROPERTIES('2M_mVYHp9ByfZZ6gbMTya$',#5,$,$,(#329,#302,#269,#235,#227,#149),#154);
#353= IFCRELDEFINESBYPROPERTIES('0fm_Hf7y57KvrNvV3wriEc',#5,$,$,(#74),#335);
#354= IFCRELDEFINESBYPROPERTIES('339gcd9gzDLhaEf0j4tyWL',#5,$,$,(#74),#338);
#355= IFCRELDEFINESBYPROPERTIES('1r1sHbDiH2QP7Ci7Qf84r7',#5,$,$,(#74),#341);
#356= IFCRELDEFINESBYPROPERTIES('1P2sN0Yxj60AsF4ZXpeUb_',#5,$,$,(#74),#343);
#357= IFCRELASSOCIATESMATERIAL('1ySX7DCerA$QJoO7AzgPK8',#5,$,$,(#74),#344);
ENDSEC;

END-ISO-10303-21;
