ISO-10303-21;
HEADER;
FILE_DESCRIPTION(('ViewDefinition[AISC_Steel_Detailing]', 'Option [BaseQuantities:Off]', 'Option [GridExport:On]', 'Option [Assemblies:Off]', 'Option [Bolts:On]', 'Option [Rebars:On]', 'Option [PourObjects:Off]', 'Option [Welds:On]', 'Option [SurfaceTreatments:On]', 'Option [LocationBy:0]', 'Option [ViewColors:Off]', 'Option [SectionedSpine:Off]', 'Option [PropertySets:On]', 'Option [Export all:Off]'),'2;1');
FILE_NAME('b_309_Qty_1.ifc','2026-05-16T11:53:12',('GIOVANNIPC\\gcorrea'),('Structural Designer'),'IFC Database version: Work','Tekla Structures 2020 Service Pack 5, IFC Export Version: 4.0.0.0 Dec  7 2020','');
FILE_SCHEMA(('IFC2X3'));
ENDSEC;

DATA;
#1= IFCPERSON('GIOVANNIPC\\gcorrea','Undefined',$,$,$,$,$,$);
#2= IFCORGANIZATION($,'Trimble Solutions Corporation',$,$,$);
#3= IFCPERSONANDORGANIZATION(#1,#2,$);
#4= IFCAPPLICATION(#2,'2020 Service Pack 5','Tekla Structures','Multi material modeling');
#5= IFCOWNERHISTORY(#3,#4,$,.NOCHANGE.,$,$,$,1778950392);
#6= IFCCARTESIANPOINT((0.,0.,0.));
#7= IFCDIRECTION((1.,0.,0.));
#8= IFCDIRECTION((0.,1.,0.));
#9= IFCDIRECTION((0.,0.,1.));
#10= IFCAXIS2PLACEMENT3D(#6,#9,#7);
#11= IFCGEOMETRICREPRESENTATIONCONTEXT($,'Model',3,1.E-05,#10,$);
#12= IFCGEOMETRICREPRESENTATIONSUBCONTEXT('Body','Model',*,*,*,*,#11,$,.MODEL_VIEW.,$);
#13= IFCGEOMETRICREPRESENTATIONSUBCONTEXT('Axis','Model',*,*,*,*,#11,$,.GRAPH_VIEW.,$);
#14= IFCGEOMETRICREPRESENTATIONSUBCONTEXT('FootPrint','Model',*,*,*,*,#11,$,.MODEL_VIEW.,$);
#15= IFCSIUNIT(*,.LENGTHUNIT.,.MILLI.,.METRE.);
#16= IFCMEASUREWITHUNIT(IFCRATIOMEASURE(304.8),#15);
#17= IFCDIMENSIONALEXPONENTS(1,0,0,0,0,0,0);
#18= IFCCONVERSIONBASEDUNIT(#17,.LENGTHUNIT.,'FOOT',#16);
#19= IFCSIUNIT(*,.AREAUNIT.,$,.SQUARE_METRE.);
#20= IFCMEASUREWITHUNIT(IFCRATIOMEASURE(0.09290304),#19);
#21= IFCDIMENSIONALEXPONENTS(2,0,0,0,0,0,0);
#22= IFCCONVERSIONBASEDUNIT(#21,.AREAUNIT.,'SQUARE FOOT',#20);
#23= IFCSIUNIT(*,.VOLUMEUNIT.,$,.CUBIC_METRE.);
#24= IFCMEASUREWITHUNIT(IFCRATIOMEASURE(0.028316846592),#23);
#25= IFCDIMENSIONALEXPONENTS(3,0,0,0,0,0,0);
#26= IFCCONVERSIONBASEDUNIT(#25,.VOLUMEUNIT.,'CUBIC FOOT',#24);
#27= IFCSIUNIT(*,.MASSUNIT.,.KILO.,.GRAM.);
#28= IFCSIUNIT(*,.TIMEUNIT.,$,.SECOND.);
#29= IFCSIUNIT(*,.PLANEANGLEUNIT.,$,.RADIAN.);
#30= IFCMEASUREWITHUNIT(IFCRATIOMEASURE(0.0174532925199433),#29);
#31= IFCDIMENSIONALEXPONENTS(0,0,0,0,0,0,0);
#32= IFCCONVERSIONBASEDUNIT(#31,.PLANEANGLEUNIT.,'DEGREE',#30);
#33= IFCSIUNIT(*,.SOLIDANGLEUNIT.,$,.STERADIAN.);
#34= IFCSIUNIT(*,.THERMODYNAMICTEMPERATUREUNIT.,$,.DEGREE_CELSIUS.);
#35= IFCSIUNIT(*,.LUMINOUSINTENSITYUNIT.,$,.LUMEN.);
#36= IFCUNITASSIGNMENT((#15,#19,#23,#27,#28,#29,#33,#34,#35));
#37= IFCPROJECT('2G7ZFDNE16yBDU14FA92Me',#5,'Proyecto',$,$,$,$,(#11),#36);
#38= IFCLOCALPLACEMENT($,#10);
#39= IFCSITE('2xvEzEinjBTea80yOTcujY',#5,'Obra',$,$,#38,$,$,.ELEMENT.,$,$,$,$,$);
#40= IFCLOCALPLACEMENT(#38,#10);
#41= IFCBUILDING('1escM5vJ513B5m$MkfNwzH',#5,'Undefined',$,$,#40,$,$,.ELEMENT.,$,$,$);
#42= IFCLOCALPLACEMENT(#40,#10);
#43= IFCBUILDINGSTOREY('29hdEUCErFze9E_VIAceOd',#5,'Undefined',$,$,#42,$,$,.ELEMENT.,0.);
#44= IFCOWNERHISTORY(#3,#4,$,.NOCHANGE.,$,$,$,1775664000);
#45= IFCCARTESIANPOINT((94453.9901123311,1611.28044981125,23375.));
#46= IFCDIRECTION((-0.000688395000040579,0.999999763056134,0.));
#47= IFCAXIS2PLACEMENT3D(#45,#9,#46);
#48= IFCLOCALPLACEMENT(#42,#47);
#49= IFCDIRECTION((1.,0.));
#50= IFCCARTESIANPOINT((0.,0.));
#51= IFCAXIS2PLACEMENT2D(#50,#49);
#52= IFCISHAPEPROFILEDEF(.AREA.,'IPE450',#51,190.,450.,9.399999619,14.60000038,21.);
#53= IFCDIRECTION((0.,-1.,0.));
#54= IFCDIRECTION((-1.,0.,0.));
#55= IFCCARTESIANPOINT((623.153789631669,0.,-3.63797880709171E-12));
#56= IFCAXIS2PLACEMENT3D(#55,#54,#53);
#57= IFCEXTRUDEDAREASOLID(#52,#56,#9,623.15);
#58= IFCDIRECTION((-0.999999763056134,0.000688395000040605,0.));
#59= IFCCARTESIANPOINT((622.320419915088,-999.999763056127,-3.63797880709171E-12));
#60= IFCDIRECTION((0.,0.,-1.));
#61= IFCAXIS2PLACEMENT3D(#59,#58,#60);
#62= IFCPLANE(#61);
#63= IFCHALFSPACESOLID(#62,.T.);
#64= IFCBOOLEANCLIPPINGRESULT(.DIFFERENCE.,#57,#63);
#65= IFCDIRECTION((-0.999997923243412,-0.0020380159134109,0.));
#66= IFCCARTESIANPOINT((0.,0.,999.999999999996));
#67= IFCDIRECTION((0.0020380159134109,-0.999997923243412,0.));
#68= IFCAXIS2PLACEMENT3D(#66,#65,#67);
#69= IFCPLANE(#68);
#70= IFCHALFSPACESOLID(#69,.F.);
#71= IFCBOOLEANCLIPPINGRESULT(.DIFFERENCE.,#64,#70);
#72= IFCSHAPEREPRESENTATION(#12,'Body','Clipping',(#71));
#73= IFCPRODUCTDEFINITIONSHAPE($,$,(#72));
#74= IFCBEAM('08Tlfo25j5nhPOlmptUUvS',#44,'BEAM','IPE450','IPE450',#48,#73,'ID0876fa72-085b-45c6-b658-bf0cf779ee5c');
#75= IFCLOCALPLACEMENT(#42,#47);
#76= IFCCARTESIANPOINT((14.0289983749226,1.09139364212751E-11));
#77= IFCCARTESIANPOINT((7.01449918746221,7.01449918747676));
#78= IFCPOLYLINE((#50,#76,#77,#50));
#79= IFCARBITRARYCLOSEDPROFILEDEF(.AREA.,'PL52.6*10',#78);
#80= IFCDIRECTION((-0.707105312735834,-0.00144109457962131,0.707106781149191));
#81= IFCCARTESIANPOINT((9.36639316587398,26.3130294436845,-194.500000000012));
#82= IFCAXIS2PLACEMENT3D(#81,#67,#80);
#83= IFCEXTRUDEDAREASOLID(#79,#82,#9,52.6);
#84= IFCSHAPEREPRESENTATION(#12,'Body','SweptSolid',(#83));
#85= IFCPRODUCTDEFINITIONSHAPE($,$,(#84));
#86= IFCOPENINGELEMENT('2KcXmJ6TfFEQGqXjTau5ZR',#5,$,$,'Recess',#75,#85,$);
#87= IFCRELVOIDSELEMENT('0S37jGaA5CJONNil1Hzaao',#5,$,$,#74,#86);
#88= IFCPROPERTYSINGLEVALUE('FeatureSubTypes',$,$,$);
#89= IFCPROPERTYSINGLEVALUE('RectangleOpeningWidth',$,IFCPOSITIVELENGTHMEASURE(52.6),$);
#90= IFCPROPERTYSINGLEVALUE('RectangleOpeningHeight',$,IFCPOSITIVELENGTHMEASURE(52.6),$);
#91= IFCPROPERTYSINGLEVALUE('OpeningDiameter',$,$,$);
#92= IFCPROPERTYSET('3tzsVGFPf2oAGPt2qFhvyA',#5,'AISC_EM11_Pset_Opening/Cope',$,(#88,#89,#90,#91));
#93= IFCLOCALPLACEMENT(#42,#47);
#94= IFCDIRECTION((-0.707106781183426,-0.707106781189669));
#95= IFCCARTESIANPOINT((8.65498638149256,8.65498638156897));
#96= IFCAXIS2PLACEMENT2D(#95,#94);
#97= IFCCIRCLE(#96,12.24);
#98= IFCTRIMMEDCURVE(#97,(IFCPARAMETERVALUE(0.)),(IFCPARAMETERVALUE(3.14159265358391)),.T.,.PARAMETER.);
#99= IFCCOMPOSITECURVESEGMENT(.CONTINUOUS.,.T.,#98);
#100= IFCCARTESIANPOINT((17.3099727630361,17.309972763087));
#101= IFCPOLYLINE((#100,#50));
#102= IFCCOMPOSITECURVESEGMENT(.CONTINUOUS.,.T.,#101);
#103= IFCCOMPOSITECURVE((#99,#102),.T.);
#104= IFCARBITRARYCLOSEDPROFILEDEF(.AREA.,'PL52.6*20',#103);
#105= IFCDIRECTION((0.707105312735813,0.00144109457978987,-0.707106781149213));
#106= IFCCARTESIANPOINT((134.95673144333,26.2750985217275,210.399999619929));
#107= IFCAXIS2PLACEMENT3D(#106,#67,#105);
#108= IFCEXTRUDEDAREASOLID(#104,#107,#9,52.6);
#109= IFCSHAPEREPRESENTATION(#12,'Body','SweptSolid',(#108));
#110= IFCPRODUCTDEFINITIONSHAPE($,$,(#109));
#111= IFCOPENINGELEMENT('23n2yASn55NfhsezOP$uII',#5,$,$,'Recess',#93,#110,$);
#112= IFCRELVOIDSELEMENT('11R$EWLO1AexUlz8wmHkzy',#5,$,$,#74,#111);
#113= IFCLOCALPLACEMENT(#42,#47);
#114= IFCDIRECTION((0.707105312735834,0.00144109457962131,0.707106781149191));
#115= IFCCARTESIANPOINT((-0.553586308702644,26.2928123256128,194.579999924006));
#116= IFCAXIS2PLACEMENT3D(#115,#67,#114);
#117= IFCEXTRUDEDAREASOLID(#79,#116,#9,52.6);
#118= IFCSHAPEREPRESENTATION(#12,'Body','SweptSolid',(#117));
#119= IFCPRODUCTDEFINITIONSHAPE($,$,(#118));
#120= IFCOPENINGELEMENT('2zlUWJAfT3lgG8BBB3gaX9',#5,$,$,'Recess',#113,#119,$);
#121= IFCRELVOIDSELEMENT('3Q8Q8LXdT2GO1R0K4zA$IS',#5,$,$,#74,#120);
#122= IFCLOCALPLACEMENT(#42,#47);
#123= IFCRECTANGLEPROFILEDEF(.AREA.,'PL35.9*150',#51,35.9,150.);
#124= IFCDIRECTION((-0.00203801591341038,0.999997923243412,0.));
#125= IFCCARTESIANPOINT((72.4502036870361,-98.1607762412413,-209.039999962002));
#126= IFCAXIS2PLACEMENT3D(#125,#124,#60);
#127= IFCEXTRUDEDAREASOLID(#123,#126,#9,195.31);
#128= IFCSHAPEREPRESENTATION(#12,'Body','SweptSolid',(#127));
#129= IFCPRODUCTDEFINITIONSHAPE($,$,(#128));
#130= IFCOPENINGELEMENT('3yEvNoCXbEoO68au9ya80Q',#5,$,$,'Recess',#122,#129,$);
#131= IFCRELVOIDSELEMENT('3Q2JLiuN94_e0QsAipRftl',#5,$,$,#74,#130);
#132= IFCPROPERTYSINGLEVALUE('RectangleOpeningWidth',$,IFCPOSITIVELENGTHMEASURE(35.9),$);
#133= IFCPROPERTYSINGLEVALUE('RectangleOpeningHeight',$,IFCPOSITIVELENGTHMEASURE(150.),$);
#134= IFCPROPERTYSET('36pwcpTfL9TQLCp4DJoMB6',#5,'AISC_EM11_Pset_Opening/Cope',$,(#88,#132,#133,#91));
#135= IFCLOCALPLACEMENT(#42,#47);
#136= IFCRECTANGLEPROFILEDEF(.AREA.,'PL25.9*150',#51,25.9,150.);
#137= IFCCARTESIANPOINT((72.4502036870361,-98.1607762412413,214.039999961995));
#138= IFCAXIS2PLACEMENT3D(#137,#124,#60);
#139= IFCEXTRUDEDAREASOLID(#136,#138,#9,195.31);
#140= IFCSHAPEREPRESENTATION(#12,'Body','SweptSolid',(#139));
#141= IFCPRODUCTDEFINITIONSHAPE($,$,(#140));
#142= IFCOPENINGELEMENT('1Zv0ggAMrCJvpi0jAacl5g',#5,$,$,'Recess',#135,#141,$);
#143= IFCRELVOIDSELEMENT('0X$ftN3wT8ROEKblbhJnHf',#5,$,$,#74,#142);
#144= IFCPROPERTYSINGLEVALUE('RectangleOpeningWidth',$,IFCPOSITIVELENGTHMEASURE(25.9),$);
#145= IFCPROPERTYSET('1mZsZBljrEmeow6lWcycI7',#5,'AISC_EM11_Pset_Opening/Cope',$,(#88,#144,#133,#91));
#146= IFCPROPERTYSINGLEVALUE('PieceMark',$,IFCIDENTIFIER('BEAM'),$);
#147= IFCPROPERTYSINGLEVALUE('IndicationMark',$,IFCIDENTIFIER('b/309'),$);
#148= IFCPROPERTYSINGLEVALUE('PrelimMark',$,IFCIDENTIFIER(''),$);
#149= IFCPROPERTYSINGLEVALUE('MainPieceTag',$,IFCBOOLEAN(.F.),$);
#150= IFCPROPERTYSET('3pO8TlowXFqQrFJE2GU$jB',#5,'AISC_EM11_Pset_PieceIdentification','PieceIdentity',(#146,#147,#148,#149));
#151= IFCPROPERTYSINGLEVALUE('MaterialType',$,IFCIDENTIFIER('STEEL'),$);
#152= IFCPROPERTYSINGLEVALUE('MaterialGrade',$,IFCIDENTIFIER('S235JR'),$);
#153= IFCPROPERTYSET('2GgqoVDcX1lh1tVEyfVoPD',#5,'AISC_EM11_Pset_Material',$,(#151,#152));
#154= IFCPROPERTYSINGLEVALUE('SkewedAngleY',$,IFCREAL(0.),$);
#155= IFCPROPERTYSINGLEVALUE('SkewedAngleX',$,IFCREAL(0.),$);
#156= IFCPROPERTYSET('22GGxwP_P4IRG9mPhL3oVd',#5,'AISC_EM11_Pset_SkewedEnd',$,(#154,#155));
#157= IFCPROPERTYSINGLEVALUE('SkewedAngleX',$,IFCREAL(0.03944),$);
#158= IFCPROPERTYSET('28FeCL6erDIhuvj7N$AeZN',#5,'AISC_EM11_Pset_SkewedEnd_2',$,(#154,#157));
#159= IFCMATERIAL('STEEL/S235JR');
#160= IFCRELAGGREGATES('0rP7w57MnC8QVtqkkkpRDb',#5,$,$,#37,(#39));
#161= IFCRELAGGREGATES('27hPCNPe3UQin960005jVt',#5,$,$,#39,(#41));
#162= IFCRELAGGREGATES('0unml8$LrBpwsJjIpIrgnB',#5,$,$,#41,(#43));
#163= IFCRELCONTAINEDINSPATIALSTRUCTURE('1A9PwxUujEw9FBUpqHjfBG',#5,$,$,(#74),#43);
#164= IFCRELDEFINESBYPROPERTIES('0umdy15dXBnwUjxvvQkcIr',#5,$,$,(#120,#111,#86),#92);
#165= IFCRELDEFINESBYPROPERTIES('28vcrA1vz9ZPEnYUHY7J9t',#5,$,$,(#130),#134);
#166= IFCRELDEFINESBYPROPERTIES('1eERRnhnLEquaWB1s_ww4j',#5,$,$,(#142),#145);
#167= IFCRELDEFINESBYPROPERTIES('3NOm90mevDrgeipxQa5qge',#5,$,$,(#74),#150);
#168= IFCRELDEFINESBYPROPERTIES('1ghaoSaHH7tfxsmhsW69XY',#5,$,$,(#74),#153);
#169= IFCRELDEFINESBYPROPERTIES('2n_MR$cvjDU8toRvgoHHRa',#5,$,$,(#74),#156);
#170= IFCRELDEFINESBYPROPERTIES('0YyYueI1XFQ8BI3pPYwldS',#5,$,$,(#74),#158);
#171= IFCRELASSOCIATESMATERIAL('1sdfnzIWn4DOk$WXVjQjvV',#5,$,$,(#74),#159);
ENDSEC;

END-ISO-10303-21;
