ISO-10303-21;
HEADER;
FILE_DESCRIPTION(('ViewDefinition[AISC_Steel_Detailing]', 'Option [BaseQuantities:Off]', 'Option [GridExport:On]', 'Option [Assemblies:Off]', 'Option [Bolts:On]', 'Option [Rebars:On]', 'Option [PourObjects:Off]', 'Option [Welds:On]', 'Option [SurfaceTreatments:On]', 'Option [LocationBy:0]', 'Option [ViewColors:Off]', 'Option [SectionedSpine:Off]', 'Option [PropertySets:On]', 'Option [Export all:Off]'),'2;1');
FILE_NAME('b_31_Qty_1.ifc','2026-05-16T11:53:17',('GIOVANNIPC\\gcorrea'),('Structural Designer'),'IFC Database version: Work','Tekla Structures 2020 Service Pack 5, IFC Export Version: 4.0.0.0 Dec  7 2020','');
FILE_SCHEMA(('IFC2X3'));
ENDSEC;

DATA;
#1= IFCPERSON('GIOVANNIPC\\gcorrea','Undefined',$,$,$,$,$,$);
#2= IFCORGANIZATION($,'Trimble Solutions Corporation',$,$,$);
#3= IFCPERSONANDORGANIZATION(#1,#2,$);
#4= IFCAPPLICATION(#2,'2020 Service Pack 5','Tekla Structures','Multi material modeling');
#5= IFCOWNERHISTORY(#3,#4,$,.NOCHANGE.,$,$,$,1778950397);
#6= IFCCARTESIANPOINT((0.,0.,0.));
#7= IFCDIRECTION((1.,0.,0.));
#8= IFCDIRECTION((0.,1.,0.));
#9= IFCDIRECTION((0.,0.,1.));
#10= IFCAXIS2PLACEMENT3D(#6,#9,#7);
#11= IFCGEOMETRICREPRESENTATIONCONTEXT($,'Model',3,1.E-05,#10,$);
#12= IFCGEOMETRICREPRESENTATIONSUBCONTEXT('Body','Model',*,*,*,*,#11,$,.MODEL_VIEW.,$);
#13= IFCGEOMETRICREPRESENTATIONSUBCONTEXT('Axis','Model',*,*,*,*,#11,$,.GRAPH_VIEW.,$);
#14= IFCGEOMETRICREPRESENTATIONSUBCONTEXT('FootPrint','Model',*,*,*,*,#11,$,.MODEL_VIEW.,$);
#15= IFCSIUNIT(*,.LENGTHUNIT.,.MILLI.,.METRE.);
#16= IFCMEASUREWITHUNIT(IFCRATIOMEASURE(304.8),#15);
#17= IFCDIMENSIONALEXPONENTS(1,0,0,0,0,0,0);
#18= IFCCONVERSIONBASEDUNIT(#17,.LENGTHUNIT.,'FOOT',#16);
#19= IFCSIUNIT(*,.AREAUNIT.,$,.SQUARE_METRE.);
#20= IFCMEASUREWITHUNIT(IFCRATIOMEASURE(0.09290304),#19);
#21= IFCDIMENSIONALEXPONENTS(2,0,0,0,0,0,0);
#22= IFCCONVERSIONBASEDUNIT(#21,.AREAUNIT.,'SQUARE FOOT',#20);
#23= IFCSIUNIT(*,.VOLUMEUNIT.,$,.CUBIC_METRE.);
#24= IFCMEASUREWITHUNIT(IFCRATIOMEASURE(0.028316846592),#23);
#25= IFCDIMENSIONALEXPONENTS(3,0,0,0,0,0,0);
#26= IFCCONVERSIONBASEDUNIT(#25,.VOLUMEUNIT.,'CUBIC FOOT',#24);
#27= IFCSIUNIT(*,.MASSUNIT.,.KILO.,.GRAM.);
#28= IFCSIUNIT(*,.TIMEUNIT.,$,.SECOND.);
#29= IFCSIUNIT(*,.PLANEANGLEUNIT.,$,.RADIAN.);
#30= IFCMEASUREWITHUNIT(IFCRATIOMEASURE(0.0174532925199433),#29);
#31= IFCDIMENSIONALEXPONENTS(0,0,0,0,0,0,0);
#32= IFCCONVERSIONBASEDUNIT(#31,.PLANEANGLEUNIT.,'DEGREE',#30);
#33= IFCSIUNIT(*,.SOLIDANGLEUNIT.,$,.STERADIAN.);
#34= IFCSIUNIT(*,.THERMODYNAMICTEMPERATUREUNIT.,$,.DEGREE_CELSIUS.);
#35= IFCSIUNIT(*,.LUMINOUSINTENSITYUNIT.,$,.LUMEN.);
#36= IFCUNITASSIGNMENT((#15,#19,#23,#27,#28,#29,#33,#34,#35));
#37= IFCPROJECT('2G7ZFDNE16yBDU14FA92Me',#5,'Proyecto',$,$,$,$,(#11),#36);
#38= IFCLOCALPLACEMENT($,#10);
#39= IFCSITE('2xvEzEinjBTea80yOTcujY',#5,'Obra',$,$,#38,$,$,.ELEMENT.,$,$,$,$,$);
#40= IFCLOCALPLACEMENT(#38,#10);
#41= IFCBUILDING('1nFxJlDp1EVhPVanzqP7xp',#5,'Undefined',$,$,#40,$,$,.ELEMENT.,$,$,$);
#42= IFCLOCALPLACEMENT(#40,#10);
#43= IFCBUILDINGSTOREY('29hdEUCErFze9E_VIAceOd',#5,'Undefined',$,$,#42,$,$,.ELEMENT.,0.);
#44= IFCOWNERHISTORY(#3,#4,$,.NOCHANGE.,$,$,$,1778097600);
#45= IFCCARTESIANPOINT((76649.9959687119,1603.38122306903,13680.));
#46= IFCAXIS2PLACEMENT3D(#45,#9,#7);
#47= IFCLOCALPLACEMENT(#42,#46);
#48= IFCDIRECTION((1.,0.));
#49= IFCCARTESIANPOINT((0.,0.));
#50= IFCAXIS2PLACEMENT2D(#49,#48);
#51= IFCISHAPEPROFILEDEF(.AREA.,'HEA450',#50,300.,440.,11.5,21.,27.);
#52= IFCDIRECTION((0.,-1.,0.));
#53= IFCDIRECTION((-1.,0.,0.));
#54= IFCCARTESIANPOINT((8086.01133266273,2.27373675443232E-13,3.63797880709171E-12));
#55= IFCAXIS2PLACEMENT3D(#54,#53,#52);
#56= IFCEXTRUDEDAREASOLID(#51,#55,#9,8220.26);
#57= IFCCARTESIANPOINT((8086.01130105963,5.9000012697652E-07,-319.999999999996));
#58= IFCAXIS2PLACEMENT3D(#57,#53,#8);
#59= IFCPLANE(#58);
#60= IFCHALFSPACESOLID(#59,.T.);
#61= IFCBOOLEANCLIPPINGRESULT(.DIFFERENCE.,#56,#60);
#62= IFCDIRECTION((0.999999999997346,2.30400000872844E-06,0.));
#63= IFCCARTESIANPOINT((-134.247026785626,2.30400003147224E-05,-319.999999999996));
#64= IFCDIRECTION((2.30400000872844E-06,-0.999999999997346,0.));
#65= IFCAXIS2PLACEMENT3D(#63,#62,#64);
#66= IFCPLANE(#65);
#67= IFCHALFSPACESOLID(#66,.T.);
#68= IFCBOOLEANCLIPPINGRESULT(.DIFFERENCE.,#61,#67);
#69= IFCSHAPEREPRESENTATION(#12,'Body','Clipping',(#68));
#70= IFCPRODUCTDEFINITIONSHAPE($,$,(#69));
#71= IFCBEAM('0_RjT_5ZL25f4o__aOSjpQ',#44,'BEAM','HEA450','HEA450',#47,#70,'ID3e6ed77e-1635-4216-9132-fbe91872dcda');
#72= IFCLOCALPLACEMENT(#42,#46);
#73= IFCRECTANGLEPROFILEDEF(.AREA.,'PL162.9*12',#50,12.,162.9);
#74= IFCDIRECTION((0.,0.,-1.));
#75= IFCCARTESIANPOINT((8092.00766207064,-69.546423902729,221.000000000004));
#76= IFCAXIS2PLACEMENT3D(#75,#74,#53);
#77= IFCEXTRUDEDAREASOLID(#73,#76,#9,442.);
#78= IFCSHAPEREPRESENTATION(#12,'Body','SweptSolid',(#77));
#79= IFCPRODUCTDEFINITIONSHAPE($,$,(#78));
#80= IFCOPENINGELEMENT('0lAitniqL08wVOukbEXEMA',#5,$,$,'Recess',#72,#79,$);
#81= IFCRELVOIDSELEMENT('18RRZ$0YHFFBdhqNZDLNeA',#5,$,$,#71,#80);
#82= IFCPROPERTYSINGLEVALUE('FeatureSubTypes',$,$,$);
#83= IFCPROPERTYSINGLEVALUE('RectangleOpeningWidth',$,IFCPOSITIVELENGTHMEASURE(12.),$);
#84= IFCPROPERTYSINGLEVALUE('RectangleOpeningHeight',$,IFCPOSITIVELENGTHMEASURE(162.9),$);
#85= IFCPROPERTYSINGLEVALUE('OpeningDiameter',$,$,$);
#86= IFCPROPERTYSET('18fzD0YfH5VPjNidyogNWz',#5,'AISC_EM11_Pset_Opening/Cope',$,(#82,#83,#84,#85));
#87= IFCLOCALPLACEMENT(#42,#46);
#88= IFCRECTANGLEPROFILEDEF(.AREA.,'PL163.1*12',#50,12.,163.1);
#89= IFCCARTESIANPOINT((8092.00767027165,69.4538143390039,221.000000000004));
#90= IFCAXIS2PLACEMENT3D(#89,#74,#53);
#91= IFCEXTRUDEDAREASOLID(#88,#90,#9,442.);
#92= IFCSHAPEREPRESENTATION(#12,'Body','SweptSolid',(#91));
#93= IFCPRODUCTDEFINITIONSHAPE($,$,(#92));
#94= IFCOPENINGELEMENT('1Z37Xjsdv2oeI3VomwnfLO',#5,$,$,'Recess',#87,#93,$);
#95= IFCRELVOIDSELEMENT('0cKvY_Dm50SQA1QvrimgGR',#5,$,$,#71,#94);
#96= IFCPROPERTYSINGLEVALUE('RectangleOpeningHeight',$,IFCPOSITIVELENGTHMEASURE(163.1),$);
#97= IFCPROPERTYSET('1_9aiQh9PC4fEH0jz2Q_IO',#5,'AISC_EM11_Pset_Opening/Cope',$,(#82,#83,#96,#85));
#98= IFCLOCALPLACEMENT(#42,#46);
#99= IFCRECTANGLEPROFILEDEF(.AREA.,'PL49*156.3',#50,49.,156.3);
#100= IFCDIRECTION((-2.30400001165813E-06,0.999999999997346,0.));
#101= IFCCARTESIANPOINT((-68.1216788345395,-151.018780858273,-196.499999999996));
#102= IFCAXIS2PLACEMENT3D(#101,#100,#74);
#103= IFCEXTRUDEDAREASOLID(#99,#102,#9,302.02);
#104= IFCSHAPEREPRESENTATION(#12,'Body','SweptSolid',(#103));
#105= IFCPRODUCTDEFINITIONSHAPE($,$,(#104));
#106= IFCOPENINGELEMENT('1jHUAaXiPDZvGVXe6IQ9_H',#5,$,$,'Recess',#98,#105,$);
#107= IFCRELVOIDSELEMENT('1qNevVEUn9numK1fx$9$OF',#5,$,$,#71,#106);
#108= IFCPROPERTYSINGLEVALUE('RectangleOpeningWidth',$,IFCPOSITIVELENGTHMEASURE(49.),$);
#109= IFCPROPERTYSINGLEVALUE('RectangleOpeningHeight',$,IFCPOSITIVELENGTHMEASURE(156.3),$);
#110= IFCPROPERTYSET('00SXi24L5AZgq5FXyqBVw3',#5,'AISC_EM11_Pset_Opening/Cope',$,(#82,#108,#109,#85));
#111= IFCLOCALPLACEMENT(#42,#46);
#112= IFCCARTESIANPOINT((-68.1216788345395,-151.018780858273,196.500000000004));
#113= IFCAXIS2PLACEMENT3D(#112,#100,#74);
#114= IFCEXTRUDEDAREASOLID(#99,#113,#9,302.02);
#115= IFCSHAPEREPRESENTATION(#12,'Body','SweptSolid',(#114));
#116= IFCPRODUCTDEFINITIONSHAPE($,$,(#115));
#117= IFCOPENINGELEMENT('0lv4h86zTENhamwvr_nXN3',#5,$,$,'Recess',#111,#116,$);
#118= IFCRELVOIDSELEMENT('0mtOI1mXPDHx87YhrzOgBD',#5,$,$,#71,#117);
#119= IFCCARTESIANPOINT((84736.0072697715,1603.38169955417,13900.));
#120= IFCAXIS2PLACEMENT3D(#119,#53,#74);
#121= IFCLOCALPLACEMENT(#42,#120);
#122= IFCCIRCLEPROFILEDEF(.AREA.,$,#50,11.5);
#123= IFCCARTESIANPOINT((0.,-5.84999793499821,0.));
#124= IFCAXIS2PLACEMENT3D(#123,#8,#7);
#125= IFCEXTRUDEDAREASOLID(#122,#124,#9,11.7);
#126= IFCSHAPEREPRESENTATION(#12,'Body','SweptSolid',(#125));
#127= IFCREPRESENTATIONMAP(#10,#126);
#128= IFCCARTESIANPOINT((80.,0.,45.));
#129= IFCCARTESIANTRANSFORMATIONOPERATOR3D($,$,#128,$,$);
#130= IFCMAPPEDITEM(#127,#129);
#131= IFCCARTESIANPOINT((150.,0.,45.));
#132= IFCCARTESIANTRANSFORMATIONOPERATOR3D($,$,#131,$,$);
#133= IFCMAPPEDITEM(#127,#132);
#134= IFCCARTESIANPOINT((220.,0.,45.));
#135= IFCCARTESIANTRANSFORMATIONOPERATOR3D($,$,#134,$,$);
#136= IFCMAPPEDITEM(#127,#135);
#137= IFCCARTESIANPOINT((290.,0.,45.));
#138= IFCCARTESIANTRANSFORMATIONOPERATOR3D($,$,#137,$,$);
#139= IFCMAPPEDITEM(#127,#138);
#140= IFCCARTESIANPOINT((360.,0.,45.));
#141= IFCCARTESIANTRANSFORMATIONOPERATOR3D($,$,#140,$,$);
#142= IFCMAPPEDITEM(#127,#141);
#143= IFCSHAPEREPRESENTATION(#12,'Body','MappedRepresentation',(#130,#133,#136,#139,#142));
#144= IFCPRODUCTDEFINITIONSHAPE($,$,(#143));
#145= IFCOPENINGELEMENT('3EQ393sG13DujTQgF9vrny',#5,$,$,'Opening',#121,#144,$);
#146= IFCRELVOIDSELEMENT('0oYPWVyNH3UQAVNnrhFKH3',#5,'Drill Hole',$,#71,#145);
#147= IFCPROPERTYSINGLEVALUE('FeatureSubTypes',$,IFCLABEL('TORNILLO'),$);
#148= IFCPROPERTYSINGLEVALUE('RectangleOpeningWidth',$,$,$);
#149= IFCPROPERTYSINGLEVALUE('RectangleOpeningHeight',$,$,$);
#150= IFCPROPERTYSET('3eYWsgGFr5KeBhgvCpgrYs',#5,'AISC_EM11_Pset_Opening/Cope',$,(#147,#148,#149,#85));
#151= IFCCARTESIANPOINT((84691.0126164472,1603.95549542545,13460.));
#152= IFCDIRECTION((-7.12890000286279E-05,0.999999997458939,0.));
#153= IFCDIRECTION((-0.999999997458939,-7.12890000326365E-05,0.));
#154= IFCAXIS2PLACEMENT3D(#151,#152,#153);
#155= IFCLOCALPLACEMENT(#42,#154);
#156= IFCCARTESIANPOINT((0.,-0.1,0.));
#157= IFCAXIS2PLACEMENT3D(#156,#8,#7);
#158= IFCEXTRUDEDAREASOLID(#122,#157,#9,21.2);
#159= IFCSHAPEREPRESENTATION(#12,'Body','SweptSolid',(#158));
#160= IFCREPRESENTATIONMAP(#10,#159);
#161= IFCCARTESIANPOINT((2.47382558882236E-10,0.,74.9999999999898));
#162= IFCCARTESIANTRANSFORMATIONOPERATOR3D($,$,#161,$,$);
#163= IFCMAPPEDITEM(#160,#162);
#164= IFCCARTESIANPOINT((74.9999999994179,0.,75.0000000004673));
#165= IFCCARTESIANTRANSFORMATIONOPERATOR3D($,$,#164,$,$);
#166= IFCMAPPEDITEM(#160,#165);
#167= IFCCARTESIANPOINT((149.999999998588,0.,75.000000000945));
#168= IFCCARTESIANTRANSFORMATIONOPERATOR3D($,$,#167,$,$);
#169= IFCMAPPEDITEM(#160,#168);
#170= IFCCARTESIANPOINT((224.999999997759,0.,75.0000000014224));
#171= IFCCARTESIANTRANSFORMATIONOPERATOR3D($,$,#170,$,$);
#172= IFCMAPPEDITEM(#160,#171);
#173= IFCCARTESIANPOINT((299.99999999693,0.,75.0000000018997));
#174= IFCCARTESIANTRANSFORMATIONOPERATOR3D($,$,#173,$,$);
#175= IFCMAPPEDITEM(#160,#174);
#176= IFCCARTESIANPOINT((374.9999999961,0.,75.0000000023772));
#177= IFCCARTESIANTRANSFORMATIONOPERATOR3D($,$,#176,$,$);
#178= IFCMAPPEDITEM(#160,#177);
#179= IFCCARTESIANPOINT((449.999999995271,0.,75.0000000028547));
#180= IFCCARTESIANTRANSFORMATIONOPERATOR3D($,$,#179,$,$);
#181= IFCMAPPEDITEM(#160,#180);
#182= IFCCARTESIANPOINT((524.999999994441,0.,75.0000000033322));
#183= IFCCARTESIANTRANSFORMATIONOPERATOR3D($,$,#182,$,$);
#184= IFCMAPPEDITEM(#160,#183);
#185= IFCCARTESIANPOINT((599.999999993612,0.,75.0000000038094));
#186= IFCCARTESIANTRANSFORMATIONOPERATOR3D($,$,#185,$,$);
#187= IFCMAPPEDITEM(#160,#186);
#188= IFCCARTESIANPOINT((674.999999992782,0.,75.0000000042869));
#189= IFCCARTESIANTRANSFORMATIONOPERATOR3D($,$,#188,$,$);
#190= IFCMAPPEDITEM(#160,#189);
#191= IFCCARTESIANPOINT((-2.3283064365387E-10,0.,-74.99999999999));
#192= IFCCARTESIANTRANSFORMATIONOPERATOR3D($,$,#191,$,$);
#193= IFCMAPPEDITEM(#160,#192);
#194= IFCCARTESIANPOINT((74.9999999989377,0.,-74.9999999995125));
#195= IFCCARTESIANTRANSFORMATIONOPERATOR3D($,$,#194,$,$);
#196= IFCMAPPEDITEM(#160,#195);
#197= IFCCARTESIANPOINT((149.999999998108,0.,-74.999999999035));
#198= IFCCARTESIANTRANSFORMATIONOPERATOR3D($,$,#197,$,$);
#199= IFCMAPPEDITEM(#160,#198);
#200= IFCCARTESIANPOINT((224.999999997279,0.,-74.9999999985575));
#201= IFCCARTESIANTRANSFORMATIONOPERATOR3D($,$,#200,$,$);
#202= IFCMAPPEDITEM(#160,#201);
#203= IFCCARTESIANPOINT((299.999999996449,0.,-74.9999999980803));
#204= IFCCARTESIANTRANSFORMATIONOPERATOR3D($,$,#203,$,$);
#205= IFCMAPPEDITEM(#160,#204);
#206= IFCCARTESIANPOINT((374.99999999562,0.,-74.9999999976026));
#207= IFCCARTESIANTRANSFORMATIONOPERATOR3D($,$,#206,$,$);
#208= IFCMAPPEDITEM(#160,#207);
#209= IFCCARTESIANPOINT((449.99999999479,0.,-74.9999999971251));
#210= IFCCARTESIANTRANSFORMATIONOPERATOR3D($,$,#209,$,$);
#211= IFCMAPPEDITEM(#160,#210);
#212= IFCCARTESIANPOINT((524.999999993961,0.,-74.9999999966476));
#213= IFCCARTESIANTRANSFORMATIONOPERATOR3D($,$,#212,$,$);
#214= IFCMAPPEDITEM(#160,#213);
#215= IFCCARTESIANPOINT((599.999999993131,0.,-74.9999999961703));
#216= IFCCARTESIANTRANSFORMATIONOPERATOR3D($,$,#215,$,$);
#217= IFCMAPPEDITEM(#160,#216);
#218= IFCCARTESIANPOINT((674.999999992302,0.,-74.9999999956929));
#219= IFCCARTESIANTRANSFORMATIONOPERATOR3D($,$,#218,$,$);
#220= IFCMAPPEDITEM(#160,#219);
#221= IFCSHAPEREPRESENTATION(#12,'Body','MappedRepresentation',(#163,#166,#169,#172,#175,#178,#181,#184,#187,#190,#193,#196,#199,#202,#205,#208,#211,#214,#217,#220));
#222= IFCPRODUCTDEFINITIONSHAPE($,$,(#221));
#223= IFCOPENINGELEMENT('0rv0Vao51BA8crbWgTUHZl',#5,$,$,'Opening',#155,#222,$);
#224= IFCRELVOIDSELEMENT('0qy1n2d$jC2xgpZtDk85oL',#5,'Drill Hole',$,#71,#223);
#225= IFCCARTESIANPOINT((84691.0126164472,1603.95549542545,13900.));
#226= IFCDIRECTION((7.12890000286279E-05,-0.999999997458939,0.));
#227= IFCAXIS2PLACEMENT3D(#225,#226,#153);
#228= IFCLOCALPLACEMENT(#42,#227);
#229= IFCSHAPEREPRESENTATION(#12,'Body','MappedRepresentation',(#193,#196,#199,#202,#205,#208,#211,#214,#217,#220,#163,#166,#169,#172,#175,#178,#181,#184,#187,#190));
#230= IFCPRODUCTDEFINITIONSHAPE($,$,(#229));
#231= IFCOPENINGELEMENT('35BQtUrkv1uvRuunnKeXPx',#5,$,$,'Opening',#228,#230,$);
#232= IFCRELVOIDSELEMENT('28PvIw6yr8DBgZaxIpc$9S',#5,'Drill Hole',$,#71,#231);
#233= IFCCARTESIANPOINT((76515.7489419264,1603.38119210849,13900.));
#234= IFCAXIS2PLACEMENT3D(#233,#62,#74);
#235= IFCLOCALPLACEMENT(#42,#234);
#236= IFCCARTESIANPOINT((0.,-5.8500691201417,0.));
#237= IFCAXIS2PLACEMENT3D(#236,#8,#7);
#238= IFCEXTRUDEDAREASOLID(#122,#237,#9,11.7);
#239= IFCSHAPEREPRESENTATION(#12,'Body','SweptSolid',(#238));
#240= IFCREPRESENTATIONMAP(#10,#239);
#241= IFCCARTESIANPOINT((80.,0.,40.0000000002183));
#242= IFCCARTESIANTRANSFORMATIONOPERATOR3D($,$,#241,$,$);
#243= IFCMAPPEDITEM(#240,#242);
#244= IFCCARTESIANPOINT((150.,0.,40.0000000002183));
#245= IFCCARTESIANTRANSFORMATIONOPERATOR3D($,$,#244,$,$);
#246= IFCMAPPEDITEM(#240,#245);
#247= IFCCARTESIANPOINT((220.,0.,40.0000000002183));
#248= IFCCARTESIANTRANSFORMATIONOPERATOR3D($,$,#247,$,$);
#249= IFCMAPPEDITEM(#240,#248);
#250= IFCCARTESIANPOINT((290.,0.,40.0000000002183));
#251= IFCCARTESIANTRANSFORMATIONOPERATOR3D($,$,#250,$,$);
#252= IFCMAPPEDITEM(#240,#251);
#253= IFCCARTESIANPOINT((360.,0.,40.0000000002183));
#254= IFCCARTESIANTRANSFORMATIONOPERATOR3D($,$,#253,$,$);
#255= IFCMAPPEDITEM(#240,#254);
#256= IFCSHAPEREPRESENTATION(#12,'Body','MappedRepresentation',(#243,#246,#249,#252,#255));
#257= IFCPRODUCTDEFINITIONSHAPE($,$,(#256));
#258= IFCOPENINGELEMENT('2V2HWb1oD3jeiggry5ryZt',#5,$,$,'Opening',#235,#257,$);
#259= IFCRELVOIDSELEMENT('3tYmsIdcfBfBqCNIPRLvTq',#5,'Drill Hole',$,#71,#258);
#260= IFCCARTESIANPOINT((76767.9824906517,1598.09887499054,13900.));
#261= IFCDIRECTION((7.13010000326904E-05,0.999999997458084,0.));
#262= IFCDIRECTION((0.999999997458084,-7.13010000327137E-05,0.));
#263= IFCAXIS2PLACEMENT3D(#260,#261,#262);
#264= IFCLOCALPLACEMENT(#42,#263);
#265= IFCSHAPEREPRESENTATION(#12,'Body','MappedRepresentation',(#163,#166,#169,#172,#175,#178,#181,#184,#187,#190,#193,#196,#199,#202,#205,#208,#211,#214,#217,#220));
#266= IFCPRODUCTDEFINITIONSHAPE($,$,(#265));
#267= IFCOPENINGELEMENT('25tj3PSarC5xtRK31tBtUY',#5,$,$,'Opening',#264,#266,$);
#268= IFCRELVOIDSELEMENT('3SpDPXcyT1TxoXC6cEdaXP',#5,'Drill Hole',$,#71,#267);
#269= IFCCARTESIANPOINT((76767.9824510498,1598.09887583772,13460.));
#270= IFCAXIS2PLACEMENT3D(#269,#52,#7);
#271= IFCLOCALPLACEMENT(#42,#270);
#272= IFCSHAPEREPRESENTATION(#12,'Body','MappedRepresentation',(#163,#166,#169,#172,#175,#178,#181,#184,#187,#190,#193,#196,#199,#202,#205,#208,#211,#214,#217,#220));
#273= IFCPRODUCTDEFINITIONSHAPE($,$,(#272));
#274= IFCOPENINGELEMENT('2BTx4vGj124QB9H55pygqy',#5,$,$,'Opening',#271,#273,$);
#275= IFCRELVOIDSELEMENT('0tmWXOR_bAUw0NZdvSsdZM',#5,'Drill Hole',$,#71,#274);
#276= IFCPROPERTYSINGLEVALUE('PieceMark',$,IFCIDENTIFIER('BEAM'),$);
#277= IFCPROPERTYSINGLEVALUE('IndicationMark',$,IFCIDENTIFIER('b/31'),$);
#278= IFCPROPERTYSINGLEVALUE('PrelimMark',$,IFCIDENTIFIER(''),$);
#279= IFCPROPERTYSINGLEVALUE('MainPieceTag',$,IFCBOOLEAN(.T.),$);
#280= IFCPROPERTYSET('0lvOvsp7TBFhpO9DW4hlrN',#5,'AISC_EM11_Pset_PieceIdentification','PieceIdentity',(#276,#277,#278,#279));
#281= IFCPROPERTYSINGLEVALUE('MaterialType',$,IFCIDENTIFIER('STEEL'),$);
#282= IFCPROPERTYSINGLEVALUE('MaterialGrade',$,IFCIDENTIFIER('S235JR'),$);
#283= IFCPROPERTYSET('18oHkRsWTB8xN4_9y5yz8J',#5,'AISC_EM11_Pset_Material',$,(#281,#282));
#284= IFCPROPERTYSINGLEVALUE('SkewedAngleY',$,IFCREAL(0.),$);
#285= IFCPROPERTYSINGLEVALUE('SkewedAngleX',$,IFCREAL(0.),$);
#286= IFCPROPERTYSET('3zZl2Cmdj66xBtIt8YTXXv',#5,'AISC_EM11_Pset_SkewedEnd',$,(#284,#285));
#287= IFCPROPERTYSET('3Mt0Zbv3D2A8HdNYSZkqp4',#5,'AISC_EM11_Pset_SkewedEnd_2',$,(#284,#285));
#288= IFCMATERIAL('STEEL/S235JR');
#289= IFCRELAGGREGATES('1p03nyIajCN9aI7oB$mtV3',#5,$,$,#37,(#39));
#290= IFCRELAGGREGATES('25IL3Eas$UfRsaP4TH29nL',#5,$,$,#39,(#41));
#291= IFCRELAGGREGATES('13D1bUgEn1Zhjt6vXtsHbw',#5,$,$,#41,(#43));
#292= IFCRELCONTAINEDINSPATIALSTRUCTURE('1NUQwQkEL5ivedTvQNarRz',#5,$,$,(#71),#43);
#293= IFCRELDEFINESBYPROPERTIES('1X$xtoqrX9QOA3klNOydmn',#5,$,$,(#80),#86);
#294= IFCRELDEFINESBYPROPERTIES('3EF$rc5nXE4fOBqhl3tD6L',#5,$,$,(#94),#97);
#295= IFCRELDEFINESBYPROPERTIES('2LH$8zQP93AxHQOsjEFoGs',#5,$,$,(#117,#106),#110);
#296= IFCRELDEFINESBYPROPERTIES('1DPgZOt_DFIAU_8_xaIdZi',#5,$,$,(#274,#267,#258,#231,#223,#145),#150);
#297= IFCRELDEFINESBYPROPERTIES('1L0WoCZgf5$QSw8reJBUeL',#5,$,$,(#71),#280);
#298= IFCRELDEFINESBYPROPERTIES('2jrubVVt9A$Bm6AOpwFz05',#5,$,$,(#71),#283);
#299= IFCRELDEFINESBYPROPERTIES('3i2KnmGBv879kiH2S44qXL',#5,$,$,(#71),#286);
#300= IFCRELDEFINESBYPROPERTIES('2bpQjiZWr019YvWTKxggB8',#5,$,$,(#71),#287);
#301= IFCRELASSOCIATESMATERIAL('3F1r$2t6L3xexsmru2qDFN',#5,$,$,(#71),#288);
ENDSEC;

END-ISO-10303-21;
