ISO-10303-21;
HEADER;
FILE_DESCRIPTION(('ViewDefinition[AISC_Steel_Detailing]', 'Option [BaseQuantities:Off]', 'Option [GridExport:On]', 'Option [Assemblies:Off]', 'Option [Bolts:On]', 'Option [Rebars:On]', 'Option [PourObjects:Off]', 'Option [Welds:On]', 'Option [SurfaceTreatments:On]', 'Option [LocationBy:0]', 'Option [ViewColors:Off]', 'Option [SectionedSpine:Off]', 'Option [PropertySets:On]', 'Option [Export all:Off]'),'2;1');
FILE_NAME('b_32_Qty_1.ifc','2026-05-16T11:53:17',('GIOVANNIPC\\gcorrea'),('Structural Designer'),'IFC Database version: Work','Tekla Structures 2020 Service Pack 5, IFC Export Version: 4.0.0.0 Dec  7 2020','');
FILE_SCHEMA(('IFC2X3'));
ENDSEC;

DATA;
#1= IFCPERSON('GIOVANNIPC\\gcorrea','Undefined',$,$,$,$,$,$);
#2= IFCORGANIZATION($,'Trimble Solutions Corporation',$,$,$);
#3= IFCPERSONANDORGANIZATION(#1,#2,$);
#4= IFCAPPLICATION(#2,'2020 Service Pack 5','Tekla Structures','Multi material modeling');
#5= IFCOWNERHISTORY(#3,#4,$,.NOCHANGE.,$,$,$,1778950397);
#6= IFCCARTESIANPOINT((0.,0.,0.));
#7= IFCDIRECTION((1.,0.,0.));
#8= IFCDIRECTION((0.,1.,0.));
#9= IFCDIRECTION((0.,0.,1.));
#10= IFCAXIS2PLACEMENT3D(#6,#9,#7);
#11= IFCGEOMETRICREPRESENTATIONCONTEXT($,'Model',3,1.E-05,#10,$);
#12= IFCGEOMETRICREPRESENTATIONSUBCONTEXT('Body','Model',*,*,*,*,#11,$,.MODEL_VIEW.,$);
#13= IFCGEOMETRICREPRESENTATIONSUBCONTEXT('Axis','Model',*,*,*,*,#11,$,.GRAPH_VIEW.,$);
#14= IFCGEOMETRICREPRESENTATIONSUBCONTEXT('FootPrint','Model',*,*,*,*,#11,$,.MODEL_VIEW.,$);
#15= IFCSIUNIT(*,.LENGTHUNIT.,.MILLI.,.METRE.);
#16= IFCMEASUREWITHUNIT(IFCRATIOMEASURE(304.8),#15);
#17= IFCDIMENSIONALEXPONENTS(1,0,0,0,0,0,0);
#18= IFCCONVERSIONBASEDUNIT(#17,.LENGTHUNIT.,'FOOT',#16);
#19= IFCSIUNIT(*,.AREAUNIT.,$,.SQUARE_METRE.);
#20= IFCMEASUREWITHUNIT(IFCRATIOMEASURE(0.09290304),#19);
#21= IFCDIMENSIONALEXPONENTS(2,0,0,0,0,0,0);
#22= IFCCONVERSIONBASEDUNIT(#21,.AREAUNIT.,'SQUARE FOOT',#20);
#23= IFCSIUNIT(*,.VOLUMEUNIT.,$,.CUBIC_METRE.);
#24= IFCMEASUREWITHUNIT(IFCRATIOMEASURE(0.028316846592),#23);
#25= IFCDIMENSIONALEXPONENTS(3,0,0,0,0,0,0);
#26= IFCCONVERSIONBASEDUNIT(#25,.VOLUMEUNIT.,'CUBIC FOOT',#24);
#27= IFCSIUNIT(*,.MASSUNIT.,.KILO.,.GRAM.);
#28= IFCSIUNIT(*,.TIMEUNIT.,$,.SECOND.);
#29= IFCSIUNIT(*,.PLANEANGLEUNIT.,$,.RADIAN.);
#30= IFCMEASUREWITHUNIT(IFCRATIOMEASURE(0.0174532925199433),#29);
#31= IFCDIMENSIONALEXPONENTS(0,0,0,0,0,0,0);
#32= IFCCONVERSIONBASEDUNIT(#31,.PLANEANGLEUNIT.,'DEGREE',#30);
#33= IFCSIUNIT(*,.SOLIDANGLEUNIT.,$,.STERADIAN.);
#34= IFCSIUNIT(*,.THERMODYNAMICTEMPERATUREUNIT.,$,.DEGREE_CELSIUS.);
#35= IFCSIUNIT(*,.LUMINOUSINTENSITYUNIT.,$,.LUMEN.);
#36= IFCUNITASSIGNMENT((#15,#19,#23,#27,#28,#29,#33,#34,#35));
#37= IFCPROJECT('2G7ZFDNE16yBDU14FA92Me',#5,'Proyecto',$,$,$,$,(#11),#36);
#38= IFCLOCALPLACEMENT($,#10);
#39= IFCSITE('2xvEzEinjBTea80yOTcujY',#5,'Obra',$,$,#38,$,$,.ELEMENT.,$,$,$,$,$);
#40= IFCLOCALPLACEMENT(#38,#10);
#41= IFCBUILDING('1gmZ0jH$b1jBZdxdz_ckBH',#5,'Undefined',$,$,#40,$,$,.ELEMENT.,$,$,$);
#42= IFCLOCALPLACEMENT(#40,#10);
#43= IFCBUILDINGSTOREY('29hdEUCErFze9E_VIAceOd',#5,'Undefined',$,$,#42,$,$,.ELEMENT.,0.);
#44= IFCOWNERHISTORY(#3,#4,$,.NOCHANGE.,$,$,$,1778097600);
#45= IFCCARTESIANPOINT((85254.,1603.28932952881,13680.));
#46= IFCAXIS2PLACEMENT3D(#45,#9,#7);
#47= IFCLOCALPLACEMENT(#42,#46);
#48= IFCDIRECTION((1.,0.));
#49= IFCCARTESIANPOINT((0.,0.));
#50= IFCAXIS2PLACEMENT2D(#49,#48);
#51= IFCISHAPEPROFILEDEF(.AREA.,'HEA450',#50,300.,440.,11.5,21.,27.);
#52= IFCDIRECTION((0.,-1.,0.));
#53= IFCDIRECTION((-1.,0.,0.));
#54= IFCCARTESIANPOINT((8111.000004545,0.,0.));
#55= IFCAXIS2PLACEMENT3D(#54,#53,#52);
#56= IFCEXTRUDEDAREASOLID(#51,#55,#9,8101.);
#57= IFCCARTESIANPOINT((8111.,-1.49999777931953E-07,-320.));
#58= IFCAXIS2PLACEMENT3D(#57,#53,#8);
#59= IFCPLANE(#58);
#60= IFCHALFSPACESOLID(#59,.T.);
#61= IFCBOOLEANCLIPPINGRESULT(.DIFFERENCE.,#56,#60);
#62= IFCCARTESIANPOINT((10.,1.50000005305628E-07,-320.));
#63= IFCAXIS2PLACEMENT3D(#62,#7,#52);
#64= IFCPLANE(#63);
#65= IFCHALFSPACESOLID(#64,.T.);
#66= IFCBOOLEANCLIPPINGRESULT(.DIFFERENCE.,#61,#65);
#67= IFCSHAPEREPRESENTATION(#12,'Body','Clipping',(#66));
#68= IFCPRODUCTDEFINITIONSHAPE($,$,(#67));
#69= IFCBEAM('3iKkWWhMX1PQ7Ln5VlZjMn',#44,'BEAM','HEA450','HEA450',#47,#68,'IDec52e820-ad68-4165-a1d5-c457ef8ed5b1');
#70= IFCLOCALPLACEMENT(#42,#46);
#71= IFCRECTANGLEPROFILEDEF(.AREA.,'PL163*12',#50,12.,163.);
#72= IFCDIRECTION((0.,0.,-1.));
#73= IFCCARTESIANPOINT((3.99999895750079,69.4999999849997,221.));
#74= IFCAXIS2PLACEMENT3D(#73,#72,#7);
#75= IFCEXTRUDEDAREASOLID(#71,#74,#9,442.);
#76= IFCSHAPEREPRESENTATION(#12,'Body','SweptSolid',(#75));
#77= IFCPRODUCTDEFINITIONSHAPE($,$,(#76));
#78= IFCOPENINGELEMENT('3sYo8kCNPFNf230aIBUxTm',#5,$,$,'Recess',#70,#77,$);
#79= IFCRELVOIDSELEMENT('3opxV5XL9FiQ607pRSoWff',#5,$,$,#69,#78);
#80= IFCPROPERTYSINGLEVALUE('FeatureSubTypes',$,$,$);
#81= IFCPROPERTYSINGLEVALUE('RectangleOpeningWidth',$,IFCPOSITIVELENGTHMEASURE(12.),$);
#82= IFCPROPERTYSINGLEVALUE('RectangleOpeningHeight',$,IFCPOSITIVELENGTHMEASURE(163.),$);
#83= IFCPROPERTYSINGLEVALUE('OpeningDiameter',$,$,$);
#84= IFCPROPERTYSET('3ONpteH$9B0uJiPwoaE6P8',#5,'AISC_EM11_Pset_Opening/Cope',$,(#80,#81,#82,#83));
#85= IFCLOCALPLACEMENT(#42,#46);
#86= IFCCARTESIANPOINT((4.00000104249921,-69.5000607540287,221.));
#87= IFCAXIS2PLACEMENT3D(#86,#72,#7);
#88= IFCEXTRUDEDAREASOLID(#71,#87,#9,442.);
#89= IFCSHAPEREPRESENTATION(#12,'Body','SweptSolid',(#88));
#90= IFCPRODUCTDEFINITIONSHAPE($,$,(#89));
#91= IFCOPENINGELEMENT('3EaSW5pf52luK6LK2vkzME',#5,$,$,'Recess',#85,#90,$);
#92= IFCRELVOIDSELEMENT('1u$YJWGlD2MOObpmHSWaki',#5,$,$,#69,#91);
#93= IFCCARTESIANPOINT((93320.,1603.28920788778,13460.));
#94= IFCAXIS2PLACEMENT3D(#93,#8,#53);
#95= IFCLOCALPLACEMENT(#42,#94);
#96= IFCCIRCLEPROFILEDEF(.AREA.,$,#50,11.5);
#97= IFCCARTESIANPOINT((0.,-0.100000000000782,0.));
#98= IFCAXIS2PLACEMENT3D(#97,#8,#7);
#99= IFCEXTRUDEDAREASOLID(#96,#98,#9,21.2);
#100= IFCSHAPEREPRESENTATION(#12,'Body','SweptSolid',(#99));
#101= IFCREPRESENTATIONMAP(#10,#100);
#102= IFCCARTESIANPOINT((-2.3283064365387E-10,0.,75.));
#103= IFCCARTESIANTRANSFORMATIONOPERATOR3D($,$,#102,$,$);
#104= IFCMAPPEDITEM(#101,#103);
#105= IFCCARTESIANPOINT((74.9999999997672,0.,74.9999999995566));
#106= IFCCARTESIANTRANSFORMATIONOPERATOR3D($,$,#105,$,$);
#107= IFCMAPPEDITEM(#101,#106);
#108= IFCCARTESIANPOINT((149.999999999767,0.,74.9999999991132));
#109= IFCCARTESIANTRANSFORMATIONOPERATOR3D($,$,#108,$,$);
#110= IFCMAPPEDITEM(#101,#109);
#111= IFCCARTESIANPOINT((224.999999999767,0.,74.9999999986699));
#112= IFCCARTESIANTRANSFORMATIONOPERATOR3D($,$,#111,$,$);
#113= IFCMAPPEDITEM(#101,#112);
#114= IFCCARTESIANPOINT((299.999999999767,0.,74.9999999982265));
#115= IFCCARTESIANTRANSFORMATIONOPERATOR3D($,$,#114,$,$);
#116= IFCMAPPEDITEM(#101,#115);
#117= IFCCARTESIANPOINT((374.999999999767,0.,74.9999999977831));
#118= IFCCARTESIANTRANSFORMATIONOPERATOR3D($,$,#117,$,$);
#119= IFCMAPPEDITEM(#101,#118);
#120= IFCCARTESIANPOINT((449.999999999767,0.,74.9999999973397));
#121= IFCCARTESIANTRANSFORMATIONOPERATOR3D($,$,#120,$,$);
#122= IFCMAPPEDITEM(#101,#121);
#123= IFCCARTESIANPOINT((524.999999999767,0.,74.9999999968963));
#124= IFCCARTESIANTRANSFORMATIONOPERATOR3D($,$,#123,$,$);
#125= IFCMAPPEDITEM(#101,#124);
#126= IFCCARTESIANPOINT((599.999999999767,0.,74.999999996453));
#127= IFCCARTESIANTRANSFORMATIONOPERATOR3D($,$,#126,$,$);
#128= IFCMAPPEDITEM(#101,#127);
#129= IFCCARTESIANPOINT((674.999999999767,0.,74.9999999960096));
#130= IFCCARTESIANTRANSFORMATIONOPERATOR3D($,$,#129,$,$);
#131= IFCMAPPEDITEM(#101,#130);
#132= IFCCARTESIANPOINT((2.18278728425503E-10,0.,-75.));
#133= IFCCARTESIANTRANSFORMATIONOPERATOR3D($,$,#132,$,$);
#134= IFCMAPPEDITEM(#101,#133);
#135= IFCCARTESIANPOINT((75.0000000002183,0.,-75.0000000004434));
#136= IFCCARTESIANTRANSFORMATIONOPERATOR3D($,$,#135,$,$);
#137= IFCMAPPEDITEM(#101,#136);
#138= IFCCARTESIANPOINT((150.000000000218,0.,-75.0000000008868));
#139= IFCCARTESIANTRANSFORMATIONOPERATOR3D($,$,#138,$,$);
#140= IFCMAPPEDITEM(#101,#139);
#141= IFCCARTESIANPOINT((225.000000000218,0.,-75.0000000013301));
#142= IFCCARTESIANTRANSFORMATIONOPERATOR3D($,$,#141,$,$);
#143= IFCMAPPEDITEM(#101,#142);
#144= IFCCARTESIANPOINT((300.000000000218,0.,-75.0000000017735));
#145= IFCCARTESIANTRANSFORMATIONOPERATOR3D($,$,#144,$,$);
#146= IFCMAPPEDITEM(#101,#145);
#147= IFCCARTESIANPOINT((375.000000000218,0.,-75.0000000022169));
#148= IFCCARTESIANTRANSFORMATIONOPERATOR3D($,$,#147,$,$);
#149= IFCMAPPEDITEM(#101,#148);
#150= IFCCARTESIANPOINT((450.000000000218,0.,-75.0000000026603));
#151= IFCCARTESIANTRANSFORMATIONOPERATOR3D($,$,#150,$,$);
#152= IFCMAPPEDITEM(#101,#151);
#153= IFCCARTESIANPOINT((525.000000000218,0.,-75.0000000031037));
#154= IFCCARTESIANTRANSFORMATIONOPERATOR3D($,$,#153,$,$);
#155= IFCMAPPEDITEM(#101,#154);
#156= IFCCARTESIANPOINT((600.000000000218,0.,-75.000000003547));
#157= IFCCARTESIANTRANSFORMATIONOPERATOR3D($,$,#156,$,$);
#158= IFCMAPPEDITEM(#101,#157);
#159= IFCCARTESIANPOINT((675.000000000218,0.,-75.0000000039904));
#160= IFCCARTESIANTRANSFORMATIONOPERATOR3D($,$,#159,$,$);
#161= IFCMAPPEDITEM(#101,#160);
#162= IFCSHAPEREPRESENTATION(#12,'Body','MappedRepresentation',(#104,#107,#110,#113,#116,#119,#122,#125,#128,#131,#134,#137,#140,#143,#146,#149,#152,#155,#158,#161));
#163= IFCPRODUCTDEFINITIONSHAPE($,$,(#162));
#164= IFCOPENINGELEMENT('15p57JYDP6OhCbAPRxVPmD',#5,$,$,'Opening',#95,#163,$);
#165= IFCRELVOIDSELEMENT('2Nba5vz$v5IuiGq9E2VEg7',#5,'Drill Hole',$,#69,#164);
#166= IFCPROPERTYSINGLEVALUE('FeatureSubTypes',$,IFCLABEL('TORNILLO'),$);
#167= IFCPROPERTYSINGLEVALUE('RectangleOpeningWidth',$,$,$);
#168= IFCPROPERTYSINGLEVALUE('RectangleOpeningHeight',$,$,$);
#169= IFCPROPERTYSET('2b9ymPJp18Jfl2i_B8tlpf',#5,'AISC_EM11_Pset_Opening/Cope',$,(#166,#167,#168,#83));
#170= IFCCARTESIANPOINT((93320.,1603.28920788778,13900.));
#171= IFCAXIS2PLACEMENT3D(#170,#52,#53);
#172= IFCLOCALPLACEMENT(#42,#171);
#173= IFCSHAPEREPRESENTATION(#12,'Body','MappedRepresentation',(#134,#137,#140,#143,#146,#149,#152,#155,#158,#161,#104,#107,#110,#113,#116,#119,#122,#125,#128,#131));
#174= IFCPRODUCTDEFINITIONSHAPE($,$,(#173));
#175= IFCOPENINGELEMENT('10ptWFk5zFsQ4n398lUTTe',#5,$,$,'Opening',#172,#174,$);
#176= IFCRELVOIDSELEMENT('1DKgkmPJz0PetG73fBIOob',#5,'Drill Hole',$,#69,#175);
#177= IFCCARTESIANPOINT((93365.,1603.28920801325,13900.));
#178= IFCAXIS2PLACEMENT3D(#177,#53,#72);
#179= IFCLOCALPLACEMENT(#42,#178);
#180= IFCCARTESIANPOINT((0.,-5.85000052500263,0.));
#181= IFCAXIS2PLACEMENT3D(#180,#8,#7);
#182= IFCEXTRUDEDAREASOLID(#96,#181,#9,11.7);
#183= IFCSHAPEREPRESENTATION(#12,'Body','SweptSolid',(#182));
#184= IFCREPRESENTATIONMAP(#10,#183);
#185= IFCCARTESIANPOINT((80.,0.,45.));
#186= IFCCARTESIANTRANSFORMATIONOPERATOR3D($,$,#185,$,$);
#187= IFCMAPPEDITEM(#184,#186);
#188= IFCCARTESIANPOINT((150.,0.,45.));
#189= IFCCARTESIANTRANSFORMATIONOPERATOR3D($,$,#188,$,$);
#190= IFCMAPPEDITEM(#184,#189);
#191= IFCCARTESIANPOINT((220.,0.,45.));
#192= IFCCARTESIANTRANSFORMATIONOPERATOR3D($,$,#191,$,$);
#193= IFCMAPPEDITEM(#184,#192);
#194= IFCCARTESIANPOINT((290.,0.,45.));
#195= IFCCARTESIANTRANSFORMATIONOPERATOR3D($,$,#194,$,$);
#196= IFCMAPPEDITEM(#184,#195);
#197= IFCCARTESIANPOINT((360.,0.,45.));
#198= IFCCARTESIANTRANSFORMATIONOPERATOR3D($,$,#197,$,$);
#199= IFCMAPPEDITEM(#184,#198);
#200= IFCSHAPEREPRESENTATION(#12,'Body','MappedRepresentation',(#187,#190,#193,#196,#199));
#201= IFCPRODUCTDEFINITIONSHAPE($,$,(#200));
#202= IFCOPENINGELEMENT('1mWnxXDCjBCvAutzJhnWd9',#5,$,$,'Opening',#179,#201,$);
#203= IFCRELVOIDSELEMENT('0kmt7ivXH7M9BcpVsTyWcx',#5,'Drill Hole',$,#69,#202);
#204= IFCCARTESIANPOINT((85264.,1603.28932922881,13900.));
#205= IFCAXIS2PLACEMENT3D(#204,#7,#72);
#206= IFCLOCALPLACEMENT(#42,#205);
#207= IFCCARTESIANPOINT((80.,0.,40.));
#208= IFCCARTESIANTRANSFORMATIONOPERATOR3D($,$,#207,$,$);
#209= IFCMAPPEDITEM(#184,#208);
#210= IFCCARTESIANPOINT((150.,0.,40.));
#211= IFCCARTESIANTRANSFORMATIONOPERATOR3D($,$,#210,$,$);
#212= IFCMAPPEDITEM(#184,#211);
#213= IFCCARTESIANPOINT((220.,0.,40.));
#214= IFCCARTESIANTRANSFORMATIONOPERATOR3D($,$,#213,$,$);
#215= IFCMAPPEDITEM(#184,#214);
#216= IFCCARTESIANPOINT((290.,0.,40.));
#217= IFCCARTESIANTRANSFORMATIONOPERATOR3D($,$,#216,$,$);
#218= IFCMAPPEDITEM(#184,#217);
#219= IFCCARTESIANPOINT((360.,0.,40.));
#220= IFCCARTESIANTRANSFORMATIONOPERATOR3D($,$,#219,$,$);
#221= IFCMAPPEDITEM(#184,#220);
#222= IFCSHAPEREPRESENTATION(#12,'Body','MappedRepresentation',(#209,#212,#215,#218,#221));
#223= IFCPRODUCTDEFINITIONSHAPE($,$,(#222));
#224= IFCOPENINGELEMENT('0x8mipNIvAJRRzPye7FJnC',#5,$,$,'Opening',#206,#223,$);
#225= IFCRELVOIDSELEMENT('3Ps$KxDQHE3wdNMldpbS24',#5,'Drill Hole',$,#69,#224);
#226= IFCCARTESIANPOINT((85309.,1603.28929908432,13460.));
#227= IFCAXIS2PLACEMENT3D(#226,#52,#7);
#228= IFCLOCALPLACEMENT(#42,#227);
#229= IFCSHAPEREPRESENTATION(#12,'Body','MappedRepresentation',(#104,#107,#110,#113,#116,#119,#122,#125,#128,#131,#134,#137,#140,#143,#146,#149,#152,#155,#158,#161));
#230= IFCPRODUCTDEFINITIONSHAPE($,$,(#229));
#231= IFCOPENINGELEMENT('2zhI7$t0v53OopDLt7SUvM',#5,$,$,'Opening',#228,#230,$);
#232= IFCRELVOIDSELEMENT('0I3tsg_$zF$xfwWxonJgjz',#5,'Drill Hole',$,#69,#231);
#233= IFCCARTESIANPOINT((85309.,1603.28929908432,13900.));
#234= IFCAXIS2PLACEMENT3D(#233,#8,#7);
#235= IFCLOCALPLACEMENT(#42,#234);
#236= IFCSHAPEREPRESENTATION(#12,'Body','MappedRepresentation',(#134,#137,#140,#143,#146,#149,#152,#155,#158,#161,#104,#107,#110,#113,#116,#119,#122,#125,#128,#131));
#237= IFCPRODUCTDEFINITIONSHAPE($,$,(#236));
#238= IFCOPENINGELEMENT('05gLXLMFP9sQ6gpyQdaGu6',#5,$,$,'Opening',#235,#237,$);
#239= IFCRELVOIDSELEMENT('3pn5pHemL0nu7oQfOBVyzp',#5,'Drill Hole',$,#69,#238);
#240= IFCPROPERTYSINGLEVALUE('PieceMark',$,IFCIDENTIFIER('BEAM'),$);
#241= IFCPROPERTYSINGLEVALUE('IndicationMark',$,IFCIDENTIFIER('b/32'),$);
#242= IFCPROPERTYSINGLEVALUE('PrelimMark',$,IFCIDENTIFIER(''),$);
#243= IFCPROPERTYSINGLEVALUE('MainPieceTag',$,IFCBOOLEAN(.T.),$);
#244= IFCPROPERTYSET('3q9jObvq58aPREVNsWFGmt',#5,'AISC_EM11_Pset_PieceIdentification','PieceIdentity',(#240,#241,#242,#243));
#245= IFCPROPERTYSINGLEVALUE('MaterialType',$,IFCIDENTIFIER('STEEL'),$);
#246= IFCPROPERTYSINGLEVALUE('MaterialGrade',$,IFCIDENTIFIER('S235JR'),$);
#247= IFCPROPERTYSET('2HLL8JSYb25wCdE1B3sxdH',#5,'AISC_EM11_Pset_Material',$,(#245,#246));
#248= IFCPROPERTYSINGLEVALUE('SkewedAngleY',$,IFCREAL(0.),$);
#249= IFCPROPERTYSINGLEVALUE('SkewedAngleX',$,IFCREAL(0.),$);
#250= IFCPROPERTYSET('1h9iVK4Uf07wLlmprwSHYu',#5,'AISC_EM11_Pset_SkewedEnd',$,(#248,#249));
#251= IFCPROPERTYSET('0KRsvHKI93lONyPKrS07o4',#5,'AISC_EM11_Pset_SkewedEnd_2',$,(#248,#249));
#252= IFCMATERIAL('STEEL/S235JR');
#253= IFCRELAGGREGATES('2HSg0NS$1FdAV3NqP5ltvh',#5,$,$,#37,(#39));
#254= IFCRELAGGREGATES('2ZkyIfkHJXvSnLf6hN19Bz',#5,$,$,#39,(#41));
#255= IFCRELAGGREGATES('3j7gbncaHEQBzWulmrAddB',#5,$,$,#41,(#43));
#256= IFCRELCONTAINEDINSPATIALSTRUCTURE('1sncYwpGr2fQgCry4eu$rl',#5,$,$,(#69),#43);
#257= IFCRELDEFINESBYPROPERTIES('3b_W57HjT67eoor58XsWVU',#5,$,$,(#91,#78),#84);
#258= IFCRELDEFINESBYPROPERTIES('3kQ3LpCLXDnuxniKNPpX60',#5,$,$,(#238,#231,#224,#202,#175,#164),#169);
#259= IFCRELDEFINESBYPROPERTIES('00p3e7Mz95BwCGDUyOxxts',#5,$,$,(#69),#244);
#260= IFCRELDEFINESBYPROPERTIES('0oTomdQtrAtwXGpp927Vbf',#5,$,$,(#69),#247);
#261= IFCRELDEFINESBYPROPERTIES('2odpJAfUj47QbrISPFTfrS',#5,$,$,(#69),#250);
#262= IFCRELDEFINESBYPROPERTIES('1RxPcMJgP22Qe8ESshA4qF',#5,$,$,(#69),#251);
#263= IFCRELASSOCIATESMATERIAL('2c$yZzldL5ueaY6bdWkeIj',#5,$,$,(#69),#252);
ENDSEC;

END-ISO-10303-21;
