ISO-10303-21;
HEADER;
FILE_DESCRIPTION(('ViewDefinition[AISC_Steel_Detailing]', 'Option [BaseQuantities:Off]', 'Option [GridExport:On]', 'Option [Assemblies:Off]', 'Option [Bolts:On]', 'Option [Rebars:On]', 'Option [PourObjects:Off]', 'Option [Welds:On]', 'Option [SurfaceTreatments:On]', 'Option [LocationBy:0]', 'Option [ViewColors:Off]', 'Option [SectionedSpine:Off]', 'Option [PropertySets:On]', 'Option [Export all:Off]'),'2;1');
FILE_NAME('b_332_Qty_1.ifc','2026-05-16T11:53:13',('GIOVANNIPC\\gcorrea'),('Structural Designer'),'IFC Database version: Work','Tekla Structures 2020 Service Pack 5, IFC Export Version: 4.0.0.0 Dec  7 2020','');
FILE_SCHEMA(('IFC2X3'));
ENDSEC;

DATA;
#1= IFCPERSON('GIOVANNIPC\\gcorrea','Undefined',$,$,$,$,$,$);
#2= IFCORGANIZATION($,'Trimble Solutions Corporation',$,$,$);
#3= IFCPERSONANDORGANIZATION(#1,#2,$);
#4= IFCAPPLICATION(#2,'2020 Service Pack 5','Tekla Structures','Multi material modeling');
#5= IFCOWNERHISTORY(#3,#4,$,.NOCHANGE.,$,$,$,1778950393);
#6= IFCCARTESIANPOINT((0.,0.,0.));
#7= IFCDIRECTION((1.,0.,0.));
#8= IFCDIRECTION((0.,1.,0.));
#9= IFCDIRECTION((0.,0.,1.));
#10= IFCAXIS2PLACEMENT3D(#6,#9,#7);
#11= IFCGEOMETRICREPRESENTATIONCONTEXT($,'Model',3,1.E-05,#10,$);
#12= IFCGEOMETRICREPRESENTATIONSUBCONTEXT('Body','Model',*,*,*,*,#11,$,.MODEL_VIEW.,$);
#13= IFCGEOMETRICREPRESENTATIONSUBCONTEXT('Axis','Model',*,*,*,*,#11,$,.GRAPH_VIEW.,$);
#14= IFCGEOMETRICREPRESENTATIONSUBCONTEXT('FootPrint','Model',*,*,*,*,#11,$,.MODEL_VIEW.,$);
#15= IFCSIUNIT(*,.LENGTHUNIT.,.MILLI.,.METRE.);
#16= IFCMEASUREWITHUNIT(IFCRATIOMEASURE(304.8),#15);
#17= IFCDIMENSIONALEXPONENTS(1,0,0,0,0,0,0);
#18= IFCCONVERSIONBASEDUNIT(#17,.LENGTHUNIT.,'FOOT',#16);
#19= IFCSIUNIT(*,.AREAUNIT.,$,.SQUARE_METRE.);
#20= IFCMEASUREWITHUNIT(IFCRATIOMEASURE(0.09290304),#19);
#21= IFCDIMENSIONALEXPONENTS(2,0,0,0,0,0,0);
#22= IFCCONVERSIONBASEDUNIT(#21,.AREAUNIT.,'SQUARE FOOT',#20);
#23= IFCSIUNIT(*,.VOLUMEUNIT.,$,.CUBIC_METRE.);
#24= IFCMEASUREWITHUNIT(IFCRATIOMEASURE(0.028316846592),#23);
#25= IFCDIMENSIONALEXPONENTS(3,0,0,0,0,0,0);
#26= IFCCONVERSIONBASEDUNIT(#25,.VOLUMEUNIT.,'CUBIC FOOT',#24);
#27= IFCSIUNIT(*,.MASSUNIT.,.KILO.,.GRAM.);
#28= IFCSIUNIT(*,.TIMEUNIT.,$,.SECOND.);
#29= IFCSIUNIT(*,.PLANEANGLEUNIT.,$,.RADIAN.);
#30= IFCMEASUREWITHUNIT(IFCRATIOMEASURE(0.0174532925199433),#29);
#31= IFCDIMENSIONALEXPONENTS(0,0,0,0,0,0,0);
#32= IFCCONVERSIONBASEDUNIT(#31,.PLANEANGLEUNIT.,'DEGREE',#30);
#33= IFCSIUNIT(*,.SOLIDANGLEUNIT.,$,.STERADIAN.);
#34= IFCSIUNIT(*,.THERMODYNAMICTEMPERATUREUNIT.,$,.DEGREE_CELSIUS.);
#35= IFCSIUNIT(*,.LUMINOUSINTENSITYUNIT.,$,.LUMEN.);
#36= IFCUNITASSIGNMENT((#15,#19,#23,#27,#28,#29,#33,#34,#35));
#37= IFCPROJECT('2G7ZFDNE16yBDU14FA92Me',#5,'Proyecto',$,$,$,$,(#11),#36);
#38= IFCLOCALPLACEMENT($,#10);
#39= IFCSITE('2xvEzEinjBTea80yOTcujY',#5,'Obra',$,$,#38,$,$,.ELEMENT.,$,$,$,$,$);
#40= IFCLOCALPLACEMENT(#38,#10);
#41= IFCBUILDING('2pUR5weIL9d8mgF7CpbwIp',#5,'Undefined',$,$,#40,$,$,.ELEMENT.,$,$,$);
#42= IFCLOCALPLACEMENT(#40,#10);
#43= IFCBUILDINGSTOREY('29hdEUCErFze9E_VIAceOd',#5,'Undefined',$,$,#42,$,$,.ELEMENT.,0.);
#44= IFCOWNERHISTORY(#3,#4,$,.NOCHANGE.,$,$,$,1773932400);
#45= IFCCARTESIANPOINT((81897.9603881836,17579.7813911846,23375.));
#46= IFCDIRECTION((0.440775486239611,0.897617385487956,0.));
#47= IFCAXIS2PLACEMENT3D(#45,#9,#46);
#48= IFCLOCALPLACEMENT(#42,#47);
#49= IFCDIRECTION((1.,0.));
#50= IFCCARTESIANPOINT((0.,0.));
#51= IFCAXIS2PLACEMENT2D(#50,#49);
#52= IFCISHAPEPROFILEDEF(.AREA.,'IPE450',#51,190.,450.,9.399999619,14.60000038,21.);
#53= IFCDIRECTION((5.55111512312578E-17,-1.,0.));
#54= IFCDIRECTION((-1.,-5.55111512312578E-17,0.));
#55= IFCCARTESIANPOINT((7037.69435869126,1.49425857442315E-11,0.));
#56= IFCAXIS2PLACEMENT3D(#55,#54,#53);
#57= IFCEXTRUDEDAREASOLID(#52,#56,#9,7037.69);
#58= IFCSHAPEREPRESENTATION(#12,'Body','SweptSolid',(#57));
#59= IFCPRODUCTDEFINITIONSHAPE($,$,(#58));
#60= IFCBEAM('0fcI3tvZDAqAEKKNCNWP2M',#44,'BEAM','IPE450','IPE450',#48,#59,'ID299920f7-e633-4ad0-a394-517317819096');
#61= IFCCARTESIANPOINT((84003.8256575308,21868.3083096409,23150.));
#62= IFCDIRECTION((-0.897612204366275,0.440786037179852,0.));
#63= IFCDIRECTION((-0.440786037179851,-0.897612204366275,0.));
#64= IFCAXIS2PLACEMENT3D(#61,#62,#63);
#65= IFCLOCALPLACEMENT(#42,#64);
#66= IFCCIRCLEPROFILEDEF(.AREA.,$,#51,11.5);
#67= IFCCARTESIANPOINT((0.,-0.10000000002133,0.));
#68= IFCAXIS2PLACEMENT3D(#67,#8,#7);
#69= IFCEXTRUDEDAREASOLID(#66,#68,#9,14.8);
#70= IFCSHAPEREPRESENTATION(#12,'Body','SweptSolid',(#69));
#71= IFCREPRESENTATIONMAP(#10,#70);
#72= IFCCARTESIANPOINT((0.,0.,50.000000000291));
#73= IFCCARTESIANTRANSFORMATIONOPERATOR3D($,$,#72,$,$);
#74= IFCMAPPEDITEM(#71,#73);
#75= IFCCARTESIANPOINT((70.0000000003783,0.,50.0000000008586));
#76= IFCCARTESIANTRANSFORMATIONOPERATOR3D($,$,#75,$,$);
#77= IFCMAPPEDITEM(#71,#76);
#78= IFCCARTESIANPOINT((140.000000000757,0.,50.0000000014261));
#79= IFCCARTESIANTRANSFORMATIONOPERATOR3D($,$,#78,$,$);
#80= IFCMAPPEDITEM(#71,#79);
#81= IFCCARTESIANPOINT((210.000000001135,0.,50.0000000019936));
#82= IFCCARTESIANTRANSFORMATIONOPERATOR3D($,$,#81,$,$);
#83= IFCMAPPEDITEM(#71,#82);
#84= IFCCARTESIANPOINT((280.000000001506,0.,50.0000000025611));
#85= IFCCARTESIANTRANSFORMATIONOPERATOR3D($,$,#84,$,$);
#86= IFCMAPPEDITEM(#71,#85);
#87= IFCCARTESIANPOINT((350.000000001884,0.,50.0000000031432));
#88= IFCCARTESIANTRANSFORMATIONOPERATOR3D($,$,#87,$,$);
#89= IFCMAPPEDITEM(#71,#88);
#90= IFCCARTESIANPOINT((420.000000002256,0.,50.0000000036962));
#91= IFCCARTESIANTRANSFORMATIONOPERATOR3D($,$,#90,$,$);
#92= IFCMAPPEDITEM(#71,#91);
#93= IFCCARTESIANPOINT((0.,0.,-50.0000000002619));
#94= IFCCARTESIANTRANSFORMATIONOPERATOR3D($,$,#93,$,$);
#95= IFCMAPPEDITEM(#71,#94);
#96= IFCCARTESIANPOINT((70.0000000003783,0.,-49.9999999996944));
#97= IFCCARTESIANTRANSFORMATIONOPERATOR3D($,$,#96,$,$);
#98= IFCMAPPEDITEM(#71,#97);
#99= IFCCARTESIANPOINT((140.000000000757,0.,-49.9999999991123));
#100= IFCCARTESIANTRANSFORMATIONOPERATOR3D($,$,#99,$,$);
#101= IFCMAPPEDITEM(#71,#100);
#102= IFCCARTESIANPOINT((210.000000001135,0.,-49.9999999985448));
#103= IFCCARTESIANTRANSFORMATIONOPERATOR3D($,$,#102,$,$);
#104= IFCMAPPEDITEM(#71,#103);
#105= IFCCARTESIANPOINT((280.000000001513,0.,-49.9999999979918));
#106= IFCCARTESIANTRANSFORMATIONOPERATOR3D($,$,#105,$,$);
#107= IFCMAPPEDITEM(#71,#106);
#108= IFCCARTESIANPOINT((350.000000001892,0.,-49.9999999974098));
#109= IFCCARTESIANTRANSFORMATIONOPERATOR3D($,$,#108,$,$);
#110= IFCMAPPEDITEM(#71,#109);
#111= IFCCARTESIANPOINT((420.000000002263,0.,-49.9999999968422));
#112= IFCCARTESIANTRANSFORMATIONOPERATOR3D($,$,#111,$,$);
#113= IFCMAPPEDITEM(#71,#112);
#114= IFCSHAPEREPRESENTATION(#12,'Body','MappedRepresentation',(#74,#77,#80,#83,#86,#89,#92,#95,#98,#101,#104,#107,#110,#113));
#115= IFCPRODUCTDEFINITIONSHAPE($,$,(#114));
#116= IFCOPENINGELEMENT('0JJ9dnqE5CowUVvn25ZDFV',#5,$,$,'Opening',#65,#115,$);
#117= IFCRELVOIDSELEMENT('163CtD0S55FgtoM6ilDyWA',#5,'Drill Hole',$,#60,#116);
#118= IFCPROPERTYSINGLEVALUE('FeatureSubTypes',$,IFCLABEL('TORNILLO'),$);
#119= IFCPROPERTYSINGLEVALUE('RectangleOpeningWidth',$,$,$);
#120= IFCPROPERTYSINGLEVALUE('RectangleOpeningHeight',$,$,$);
#121= IFCPROPERTYSINGLEVALUE('OpeningDiameter',$,$,$);
#122= IFCPROPERTYSET('1$oc4WwfD7nA8wmhDXgyFp',#5,'AISC_EM11_Pset_Opening/Cope',$,(#118,#119,#120,#121));
#123= IFCCARTESIANPOINT((84003.8256575308,21868.3083096409,23600.));
#124= IFCDIRECTION((0.897612204366275,-0.440786037179852,0.));
#125= IFCAXIS2PLACEMENT3D(#123,#124,#63);
#126= IFCLOCALPLACEMENT(#42,#125);
#127= IFCSHAPEREPRESENTATION(#12,'Body','MappedRepresentation',(#95,#98,#101,#104,#107,#110,#113,#74,#77,#80,#83,#86,#89,#92));
#128= IFCPRODUCTDEFINITIONSHAPE($,$,(#127));
#129= IFCOPENINGELEMENT('3i5CG0F_n07fuSoWX0rlLg',#5,$,$,'Opening',#126,#128,$);
#130= IFCRELVOIDSELEMENT('0YuaxMri537RXtvlYtJ7_W',#5,'Drill Hole',$,#60,#129);
#131= IFCPROPERTYSINGLEVALUE('PieceMark',$,IFCIDENTIFIER('BEAM'),$);
#132= IFCPROPERTYSINGLEVALUE('IndicationMark',$,IFCIDENTIFIER('b/332'),$);
#133= IFCPROPERTYSINGLEVALUE('PrelimMark',$,IFCIDENTIFIER(''),$);
#134= IFCPROPERTYSINGLEVALUE('MainPieceTag',$,IFCBOOLEAN(.T.),$);
#135= IFCPROPERTYSET('0T83KNaQL7Eh2C$WtCoZf4',#5,'AISC_EM11_Pset_PieceIdentification','PieceIdentity',(#131,#132,#133,#134));
#136= IFCPROPERTYSINGLEVALUE('MaterialType',$,IFCIDENTIFIER('STEEL'),$);
#137= IFCPROPERTYSINGLEVALUE('MaterialGrade',$,IFCIDENTIFIER('S235JR'),$);
#138= IFCPROPERTYSET('138zzcK2rAyO0w4NCCTRSv',#5,'AISC_EM11_Pset_Material',$,(#136,#137));
#139= IFCPROPERTYSINGLEVALUE('SkewedAngleY',$,IFCREAL(0.),$);
#140= IFCPROPERTYSINGLEVALUE('SkewedAngleX',$,IFCREAL(0.),$);
#141= IFCPROPERTYSET('2bJYAIIjLFyxER2KJmENwf',#5,'AISC_EM11_Pset_SkewedEnd',$,(#139,#140));
#142= IFCPROPERTYSET('3wSdVZsm59hh92E$7xuao0',#5,'AISC_EM11_Pset_SkewedEnd_2',$,(#139,#140));
#143= IFCMATERIAL('STEEL/S235JR');
#144= IFCRELAGGREGATES('2Vj$STqXnB3QsMas4$A5g1',#5,$,$,#37,(#39));
#145= IFCRELAGGREGATES('2n$Hkl6p3TLi8es8MHSNyJ',#5,$,$,#39,(#41));
#146= IFCRELAGGREGATES('2HQX7NZtL7xu9K79W6Xpqg',#5,$,$,#41,(#43));
#147= IFCRELCONTAINEDINSPATIALSTRUCTURE('0sL9PLCUPD28fkd6BDyUN$',#5,$,$,(#60),#43);
#148= IFCRELDEFINESBYPROPERTIES('2QIbNQvsv7WwtBNF4nvCkc',#5,$,$,(#129,#116),#122);
#149= IFCRELDEFINESBYPROPERTIES('2lMzZGlDX1Gw1jf116XAzg',#5,$,$,(#60),#135);
#150= IFCRELDEFINESBYPROPERTIES('1wzjMyV4nCbBJGO1jD7qMC',#5,$,$,(#60),#138);
#151= IFCRELDEFINESBYPROPERTIES('2FUMjULOP73RB0_fI5vQk4',#5,$,$,(#60),#141);
#152= IFCRELDEFINESBYPROPERTIES('3d77Pqg_f9gPRSP4paAJQ2',#5,$,$,(#60),#142);
#153= IFCRELASSOCIATESMATERIAL('1RGsKddG50Ff4IiGbc8aXl',#5,$,$,(#60),#143);
ENDSEC;

END-ISO-10303-21;
