ISO-10303-21;
HEADER;
FILE_DESCRIPTION(('ViewDefinition[AISC_Steel_Detailing]', 'Option [BaseQuantities:Off]', 'Option [GridExport:On]', 'Option [Assemblies:Off]', 'Option [Bolts:On]', 'Option [Rebars:On]', 'Option [PourObjects:Off]', 'Option [Welds:On]', 'Option [SurfaceTreatments:On]', 'Option [LocationBy:0]', 'Option [ViewColors:Off]', 'Option [SectionedSpine:Off]', 'Option [PropertySets:On]', 'Option [Export all:Off]'),'2;1');
FILE_NAME('b_35_Qty_2.ifc','2026-05-16T11:52:57',('GIOVANNIPC\\gcorrea'),('Structural Designer'),'IFC Database version: Work','Tekla Structures 2020 Service Pack 5, IFC Export Version: 4.0.0.0 Dec  7 2020','');
FILE_SCHEMA(('IFC2X3'));
ENDSEC;

DATA;
#1= IFCPERSON('GIOVANNIPC\\gcorrea','Undefined',$,$,$,$,$,$);
#2= IFCORGANIZATION($,'Trimble Solutions Corporation',$,$,$);
#3= IFCPERSONANDORGANIZATION(#1,#2,$);
#4= IFCAPPLICATION(#2,'2020 Service Pack 5','Tekla Structures','Multi material modeling');
#5= IFCOWNERHISTORY(#3,#4,$,.NOCHANGE.,$,$,$,1778950377);
#6= IFCCARTESIANPOINT((0.,0.,0.));
#7= IFCDIRECTION((1.,0.,0.));
#8= IFCDIRECTION((0.,1.,0.));
#9= IFCDIRECTION((0.,0.,1.));
#10= IFCAXIS2PLACEMENT3D(#6,#9,#7);
#11= IFCGEOMETRICREPRESENTATIONCONTEXT($,'Model',3,1.E-05,#10,$);
#12= IFCGEOMETRICREPRESENTATIONSUBCONTEXT('Body','Model',*,*,*,*,#11,$,.MODEL_VIEW.,$);
#13= IFCGEOMETRICREPRESENTATIONSUBCONTEXT('Axis','Model',*,*,*,*,#11,$,.GRAPH_VIEW.,$);
#14= IFCGEOMETRICREPRESENTATIONSUBCONTEXT('FootPrint','Model',*,*,*,*,#11,$,.MODEL_VIEW.,$);
#15= IFCSIUNIT(*,.LENGTHUNIT.,.MILLI.,.METRE.);
#16= IFCMEASUREWITHUNIT(IFCRATIOMEASURE(304.8),#15);
#17= IFCDIMENSIONALEXPONENTS(1,0,0,0,0,0,0);
#18= IFCCONVERSIONBASEDUNIT(#17,.LENGTHUNIT.,'FOOT',#16);
#19= IFCSIUNIT(*,.AREAUNIT.,$,.SQUARE_METRE.);
#20= IFCMEASUREWITHUNIT(IFCRATIOMEASURE(0.09290304),#19);
#21= IFCDIMENSIONALEXPONENTS(2,0,0,0,0,0,0);
#22= IFCCONVERSIONBASEDUNIT(#21,.AREAUNIT.,'SQUARE FOOT',#20);
#23= IFCSIUNIT(*,.VOLUMEUNIT.,$,.CUBIC_METRE.);
#24= IFCMEASUREWITHUNIT(IFCRATIOMEASURE(0.028316846592),#23);
#25= IFCDIMENSIONALEXPONENTS(3,0,0,0,0,0,0);
#26= IFCCONVERSIONBASEDUNIT(#25,.VOLUMEUNIT.,'CUBIC FOOT',#24);
#27= IFCSIUNIT(*,.MASSUNIT.,.KILO.,.GRAM.);
#28= IFCSIUNIT(*,.TIMEUNIT.,$,.SECOND.);
#29= IFCSIUNIT(*,.PLANEANGLEUNIT.,$,.RADIAN.);
#30= IFCMEASUREWITHUNIT(IFCRATIOMEASURE(0.0174532925199433),#29);
#31= IFCDIMENSIONALEXPONENTS(0,0,0,0,0,0,0);
#32= IFCCONVERSIONBASEDUNIT(#31,.PLANEANGLEUNIT.,'DEGREE',#30);
#33= IFCSIUNIT(*,.SOLIDANGLEUNIT.,$,.STERADIAN.);
#34= IFCSIUNIT(*,.THERMODYNAMICTEMPERATUREUNIT.,$,.DEGREE_CELSIUS.);
#35= IFCSIUNIT(*,.LUMINOUSINTENSITYUNIT.,$,.LUMEN.);
#36= IFCUNITASSIGNMENT((#15,#19,#23,#27,#28,#29,#33,#34,#35));
#37= IFCPROJECT('2G7ZFDNE16yBDU14FA92Me',#5,'Proyecto',$,$,$,$,(#11),#36);
#38= IFCLOCALPLACEMENT($,#10);
#39= IFCSITE('2xvEzEinjBTea80yOTcujY',#5,'Obra',$,$,#38,$,$,.ELEMENT.,$,$,$,$,$);
#40= IFCLOCALPLACEMENT(#38,#10);
#41= IFCBUILDING('1CRUinKj98ev0Fjjlcjpgh',#5,'Undefined',$,$,#40,$,$,.ELEMENT.,$,$,$);
#42= IFCLOCALPLACEMENT(#40,#10);
#43= IFCBUILDINGSTOREY('29hdEUCErFze9E_VIAceOd',#5,'Undefined',$,$,#42,$,$,.ELEMENT.,0.);
#44= IFCOWNERHISTORY(#3,#4,$,.NOCHANGE.,$,$,$,1775505600);
#45= IFCCARTESIANPOINT((57000.,23896.8840303914,13680.));
#46= IFCAXIS2PLACEMENT3D(#45,#9,#7);
#47= IFCLOCALPLACEMENT(#42,#46);
#48= IFCDIRECTION((1.,0.));
#49= IFCCARTESIANPOINT((0.,0.));
#50= IFCAXIS2PLACEMENT2D(#49,#48);
#51= IFCISHAPEPROFILEDEF(.AREA.,'HEA450',#50,300.,440.,11.5,21.,27.);
#52= IFCDIRECTION((0.,-1.,0.));
#53= IFCDIRECTION((-1.,0.,0.));
#54= IFCCARTESIANPOINT((2484.24981879102,0.,0.));
#55= IFCAXIS2PLACEMENT3D(#54,#53,#52);
#56= IFCEXTRUDEDAREASOLID(#51,#55,#9,2484.25);
#57= IFCCARTESIANPOINT((2484.24981805928,1.26001395983621E-06,-320.));
#58= IFCAXIS2PLACEMENT3D(#57,#53,#8);
#59= IFCPLANE(#58);
#60= IFCHALFSPACESOLID(#59,.T.);
#61= IFCBOOLEANCLIPPINGRESULT(.DIFFERENCE.,#56,#60);
#62= IFCCARTESIANPOINT((0.,0.,1000.));
#63= IFCAXIS2PLACEMENT3D(#62,#53,#52);
#64= IFCPLANE(#63);
#65= IFCHALFSPACESOLID(#64,.F.);
#66= IFCBOOLEANCLIPPINGRESULT(.DIFFERENCE.,#61,#65);
#67= IFCSHAPEREPRESENTATION(#12,'Body','Clipping',(#66));
#68= IFCPRODUCTDEFINITIONSHAPE($,$,(#67));
#69= IFCBEAM('179ML1cJ10_A0zgQmfwH9k',#44,'BEAM','HEA450','HEA450',#47,#68,'ID47256541-9930-40f8-a03d-a9ac29e9126e');
#70= IFCLOCALPLACEMENT(#42,#46);
#71= IFCRECTANGLEPROFILEDEF(.AREA.,'PL49*156.3',#50,49.,156.3);
#72= IFCDIRECTION((0.,0.,-1.));
#73= IFCCARTESIANPOINT((2418.124837086,151.000008332729,-196.5));
#74= IFCAXIS2PLACEMENT3D(#73,#52,#72);
#75= IFCEXTRUDEDAREASOLID(#71,#74,#9,302.);
#76= IFCSHAPEREPRESENTATION(#12,'Body','SweptSolid',(#75));
#77= IFCPRODUCTDEFINITIONSHAPE($,$,(#76));
#78= IFCOPENINGELEMENT('2KgtJBo9z50xQSE96mtGQb',#5,$,$,'Recess',#70,#77,$);
#79= IFCRELVOIDSELEMENT('0K6$9UBT16o8TN0UymBLyq',#5,$,$,#69,#78);
#80= IFCPROPERTYSINGLEVALUE('FeatureSubTypes',$,$,$);
#81= IFCPROPERTYSINGLEVALUE('RectangleOpeningWidth',$,IFCPOSITIVELENGTHMEASURE(49.),$);
#82= IFCPROPERTYSINGLEVALUE('RectangleOpeningHeight',$,IFCPOSITIVELENGTHMEASURE(156.3),$);
#83= IFCPROPERTYSINGLEVALUE('OpeningDiameter',$,$,$);
#84= IFCPROPERTYSET('1XBftNEMjFVvWuNmxC7fAw',#5,'AISC_EM11_Pset_Opening/Cope',$,(#80,#81,#82,#83));
#85= IFCLOCALPLACEMENT(#42,#46);
#86= IFCCARTESIANPOINT((2418.124837086,151.000008332729,196.5));
#87= IFCAXIS2PLACEMENT3D(#86,#52,#72);
#88= IFCEXTRUDEDAREASOLID(#71,#87,#9,302.);
#89= IFCSHAPEREPRESENTATION(#12,'Body','SweptSolid',(#88));
#90= IFCPRODUCTDEFINITIONSHAPE($,$,(#89));
#91= IFCOPENINGELEMENT('1ULcWwewH5rPmiXYJo7xXU',#5,$,$,'Recess',#85,#90,$);
#92= IFCRELVOIDSELEMENT('0R9z6QP_fCOAOrPjhwDspw',#5,$,$,#69,#91);
#93= IFCCARTESIANPOINT((59294.9749790974,23896.8840303914,13919.));
#94= IFCAXIS2PLACEMENT3D(#93,#52,#53);
#95= IFCLOCALPLACEMENT(#42,#94);
#96= IFCCIRCLEPROFILEDEF(.AREA.,$,#50,11.5);
#97= IFCCARTESIANPOINT((0.,18.9,0.));
#98= IFCAXIS2PLACEMENT3D(#97,#8,#7);
#99= IFCEXTRUDEDAREASOLID(#96,#98,#9,21.2);
#100= IFCSHAPEREPRESENTATION(#12,'Body','SweptSolid',(#99));
#101= IFCREPRESENTATIONMAP(#10,#100);
#102= IFCCARTESIANPOINT((-2.69210431724787E-10,0.,-75.));
#103= IFCCARTESIANTRANSFORMATIONOPERATOR3D($,$,#102,$,$);
#104= IFCMAPPEDITEM(#101,#103);
#105= IFCCARTESIANPOINT((74.9999999997308,0.,-75.0000000005457));
#106= IFCCARTESIANTRANSFORMATIONOPERATOR3D($,$,#105,$,$);
#107= IFCMAPPEDITEM(#101,#106);
#108= IFCCARTESIANPOINT((149.999999999731,0.,-75.0000000010914));
#109= IFCCARTESIANTRANSFORMATIONOPERATOR3D($,$,#108,$,$);
#110= IFCMAPPEDITEM(#101,#109);
#111= IFCCARTESIANPOINT((224.999999999731,0.,-75.0000000016371));
#112= IFCCARTESIANTRANSFORMATIONOPERATOR3D($,$,#111,$,$);
#113= IFCMAPPEDITEM(#101,#112);
#114= IFCCARTESIANPOINT((299.999999999731,0.,-75.0000000021828));
#115= IFCCARTESIANTRANSFORMATIONOPERATOR3D($,$,#114,$,$);
#116= IFCMAPPEDITEM(#101,#115);
#117= IFCCARTESIANPOINT((374.999999999731,0.,-75.0000000027285));
#118= IFCCARTESIANTRANSFORMATIONOPERATOR3D($,$,#117,$,$);
#119= IFCMAPPEDITEM(#101,#118);
#120= IFCCARTESIANPOINT((449.999999999731,0.,-75.0000000032742));
#121= IFCCARTESIANTRANSFORMATIONOPERATOR3D($,$,#120,$,$);
#122= IFCMAPPEDITEM(#101,#121);
#123= IFCCARTESIANPOINT((524.999999999731,0.,-75.0000000038199));
#124= IFCCARTESIANTRANSFORMATIONOPERATOR3D($,$,#123,$,$);
#125= IFCMAPPEDITEM(#101,#124);
#126= IFCCARTESIANPOINT((599.999999999731,0.,-75.0000000043656));
#127= IFCCARTESIANTRANSFORMATIONOPERATOR3D($,$,#126,$,$);
#128= IFCMAPPEDITEM(#101,#127);
#129= IFCCARTESIANPOINT((674.999999999731,0.,-75.0000000049113));
#130= IFCCARTESIANTRANSFORMATIONOPERATOR3D($,$,#129,$,$);
#131= IFCMAPPEDITEM(#101,#130);
#132= IFCCARTESIANPOINT((2.7648638933897E-10,0.,75.));
#133= IFCCARTESIANTRANSFORMATIONOPERATOR3D($,$,#132,$,$);
#134= IFCMAPPEDITEM(#101,#133);
#135= IFCCARTESIANPOINT((75.0000000002765,0.,74.9999999994543));
#136= IFCCARTESIANTRANSFORMATIONOPERATOR3D($,$,#135,$,$);
#137= IFCMAPPEDITEM(#101,#136);
#138= IFCCARTESIANPOINT((150.000000000276,0.,74.9999999989086));
#139= IFCCARTESIANTRANSFORMATIONOPERATOR3D($,$,#138,$,$);
#140= IFCMAPPEDITEM(#101,#139);
#141= IFCCARTESIANPOINT((225.000000000276,0.,74.9999999983629));
#142= IFCCARTESIANTRANSFORMATIONOPERATOR3D($,$,#141,$,$);
#143= IFCMAPPEDITEM(#101,#142);
#144= IFCCARTESIANPOINT((300.000000000276,0.,74.9999999978172));
#145= IFCCARTESIANTRANSFORMATIONOPERATOR3D($,$,#144,$,$);
#146= IFCMAPPEDITEM(#101,#145);
#147= IFCCARTESIANPOINT((375.000000000276,0.,74.9999999972715));
#148= IFCCARTESIANTRANSFORMATIONOPERATOR3D($,$,#147,$,$);
#149= IFCMAPPEDITEM(#101,#148);
#150= IFCCARTESIANPOINT((450.000000000276,0.,74.9999999967258));
#151= IFCCARTESIANTRANSFORMATIONOPERATOR3D($,$,#150,$,$);
#152= IFCMAPPEDITEM(#101,#151);
#153= IFCCARTESIANPOINT((525.000000000276,0.,74.9999999961801));
#154= IFCCARTESIANTRANSFORMATIONOPERATOR3D($,$,#153,$,$);
#155= IFCMAPPEDITEM(#101,#154);
#156= IFCCARTESIANPOINT((600.000000000276,0.,74.9999999956344));
#157= IFCCARTESIANTRANSFORMATIONOPERATOR3D($,$,#156,$,$);
#158= IFCMAPPEDITEM(#101,#157);
#159= IFCCARTESIANPOINT((675.000000000276,0.,74.9999999950887));
#160= IFCCARTESIANTRANSFORMATIONOPERATOR3D($,$,#159,$,$);
#161= IFCMAPPEDITEM(#101,#160);
#162= IFCSHAPEREPRESENTATION(#12,'Body','MappedRepresentation',(#104,#107,#110,#113,#116,#119,#122,#125,#128,#131,#134,#137,#140,#143,#146,#149,#152,#155,#158,#161));
#163= IFCPRODUCTDEFINITIONSHAPE($,$,(#162));
#164= IFCOPENINGELEMENT('0YRY2aOnjCBuCsjWkAHOhS',#5,$,$,'Opening',#95,#163,$);
#165= IFCRELVOIDSELEMENT('0kBX4Jphj3AugkV2NnBEww',#5,'Drill Hole',$,#69,#164);
#166= IFCPROPERTYSINGLEVALUE('FeatureSubTypes',$,IFCLABEL('TORNILLO'),$);
#167= IFCPROPERTYSINGLEVALUE('RectangleOpeningWidth',$,$,$);
#168= IFCPROPERTYSINGLEVALUE('RectangleOpeningHeight',$,$,$);
#169= IFCPROPERTYSET('1d9IznPLD1HAc1CqHmR$kF',#5,'AISC_EM11_Pset_Opening/Cope',$,(#166,#167,#168,#83));
#170= IFCCARTESIANPOINT((59294.9749841975,23896.8840178695,13450.));
#171= IFCAXIS2PLACEMENT3D(#170,#8,#53);
#172= IFCLOCALPLACEMENT(#42,#171);
#173= IFCCARTESIANPOINT((0.,9.9,0.));
#174= IFCAXIS2PLACEMENT3D(#173,#8,#7);
#175= IFCEXTRUDEDAREASOLID(#96,#174,#9,21.2);
#176= IFCSHAPEREPRESENTATION(#12,'Body','SweptSolid',(#175));
#177= IFCREPRESENTATIONMAP(#10,#176);
#178= IFCMAPPEDITEM(#177,#133);
#179= IFCMAPPEDITEM(#177,#136);
#180= IFCMAPPEDITEM(#177,#139);
#181= IFCMAPPEDITEM(#177,#142);
#182= IFCMAPPEDITEM(#177,#145);
#183= IFCMAPPEDITEM(#177,#148);
#184= IFCMAPPEDITEM(#177,#151);
#185= IFCMAPPEDITEM(#177,#154);
#186= IFCMAPPEDITEM(#177,#157);
#187= IFCMAPPEDITEM(#177,#160);
#188= IFCMAPPEDITEM(#177,#103);
#189= IFCMAPPEDITEM(#177,#106);
#190= IFCMAPPEDITEM(#177,#109);
#191= IFCMAPPEDITEM(#177,#112);
#192= IFCMAPPEDITEM(#177,#115);
#193= IFCMAPPEDITEM(#177,#118);
#194= IFCMAPPEDITEM(#177,#121);
#195= IFCMAPPEDITEM(#177,#124);
#196= IFCMAPPEDITEM(#177,#127);
#197= IFCMAPPEDITEM(#177,#130);
#198= IFCSHAPEREPRESENTATION(#12,'Body','MappedRepresentation',(#178,#179,#180,#181,#182,#183,#184,#185,#186,#187,#188,#189,#190,#191,#192,#193,#194,#195,#196,#197));
#199= IFCPRODUCTDEFINITIONSHAPE($,$,(#198));
#200= IFCOPENINGELEMENT('2x9KXGgCX9DPeLNnSWrWCx',#5,$,$,'Opening',#172,#199,$);
#201= IFCRELVOIDSELEMENT('0Ap8pDgXHBNQVFPebXQwR2',#5,'Drill Hole',$,#69,#200);
#202= IFCCARTESIANPOINT((59484.2498180593,23896.8840291405,13900.));
#203= IFCAXIS2PLACEMENT3D(#202,#53,#72);
#204= IFCLOCALPLACEMENT(#42,#203);
#205= IFCCARTESIANPOINT((0.,-5.84999621066571,0.));
#206= IFCAXIS2PLACEMENT3D(#205,#8,#7);
#207= IFCEXTRUDEDAREASOLID(#96,#206,#9,11.7);
#208= IFCSHAPEREPRESENTATION(#12,'Body','SweptSolid',(#207));
#209= IFCREPRESENTATIONMAP(#10,#208);
#210= IFCCARTESIANPOINT((80.,0.,40.));
#211= IFCCARTESIANTRANSFORMATIONOPERATOR3D($,$,#210,$,$);
#212= IFCMAPPEDITEM(#209,#211);
#213= IFCCARTESIANPOINT((150.,0.,40.));
#214= IFCCARTESIANTRANSFORMATIONOPERATOR3D($,$,#213,$,$);
#215= IFCMAPPEDITEM(#209,#214);
#216= IFCCARTESIANPOINT((220.,0.,40.));
#217= IFCCARTESIANTRANSFORMATIONOPERATOR3D($,$,#216,$,$);
#218= IFCMAPPEDITEM(#209,#217);
#219= IFCCARTESIANPOINT((290.,0.,40.));
#220= IFCCARTESIANTRANSFORMATIONOPERATOR3D($,$,#219,$,$);
#221= IFCMAPPEDITEM(#209,#220);
#222= IFCCARTESIANPOINT((360.,0.,40.));
#223= IFCCARTESIANTRANSFORMATIONOPERATOR3D($,$,#222,$,$);
#224= IFCMAPPEDITEM(#209,#223);
#225= IFCSHAPEREPRESENTATION(#12,'Body','MappedRepresentation',(#212,#215,#218,#221,#224));
#226= IFCPRODUCTDEFINITIONSHAPE($,$,(#225));
#227= IFCOPENINGELEMENT('0JU4Mt3YX0_g4RFFVv2jIM',#5,$,$,'Opening',#204,#226,$);
#228= IFCRELVOIDSELEMENT('3lQM9pOHXBQBG69TEiQiMk',#5,'Drill Hole',$,#69,#227);
#229= IFCCARTESIANPOINT((57040.,23902.6340303914,13680.));
#230= IFCAXIS2PLACEMENT3D(#229,#72,#53);
#231= IFCLOCALPLACEMENT(#42,#230);
#232= IFCCIRCLEPROFILEDEF(.AREA.,$,#50,11.);
#233= IFCCARTESIANPOINT((0.,-11.6000000000002,0.));
#234= IFCAXIS2PLACEMENT3D(#233,#8,#7);
#235= IFCEXTRUDEDAREASOLID(#232,#234,#9,11.7);
#236= IFCSHAPEREPRESENTATION(#12,'Body','SweptSolid',(#235));
#237= IFCREPRESENTATIONMAP(#10,#236);
#238= IFCCARTESIANPOINT((0.,0.,-112.5));
#239= IFCCARTESIANTRANSFORMATIONOPERATOR3D($,$,#238,$,$);
#240= IFCMAPPEDITEM(#237,#239);
#241= IFCCARTESIANPOINT((0.,0.,-37.5));
#242= IFCCARTESIANTRANSFORMATIONOPERATOR3D($,$,#241,$,$);
#243= IFCMAPPEDITEM(#237,#242);
#244= IFCCARTESIANPOINT((0.,0.,37.5));
#245= IFCCARTESIANTRANSFORMATIONOPERATOR3D($,$,#244,$,$);
#246= IFCMAPPEDITEM(#237,#245);
#247= IFCCARTESIANPOINT((0.,0.,112.5));
#248= IFCCARTESIANTRANSFORMATIONOPERATOR3D($,$,#247,$,$);
#249= IFCMAPPEDITEM(#237,#248);
#250= IFCSHAPEREPRESENTATION(#12,'Body','MappedRepresentation',(#240,#243,#246,#249));
#251= IFCPRODUCTDEFINITIONSHAPE($,$,(#250));
#252= IFCOPENINGELEMENT('3vQ3gbM4X2sfc52YjcMSFj',#5,$,$,'Opening',#231,#251,$);
#253= IFCRELVOIDSELEMENT('01hTYIrCz73QOoIQ9gmxc9',#5,'Drill Hole',$,#69,#252);
#254= IFCCARTESIANPOINT((57265.,23964.6340303914,13481.));
#255= IFCAXIS2PLACEMENT3D(#254,#52,#53);
#256= IFCLOCALPLACEMENT(#42,#255);
#257= IFCCARTESIANPOINT((0.,-0.1,0.));
#258= IFCAXIS2PLACEMENT3D(#257,#8,#7);
#259= IFCEXTRUDEDAREASOLID(#232,#258,#9,21.2);
#260= IFCSHAPEREPRESENTATION(#12,'Body','SweptSolid',(#259));
#261= IFCREPRESENTATIONMAP(#10,#260);
#262= IFCCARTESIANTRANSFORMATIONOPERATOR3D($,$,#6,$,$);
#263= IFCMAPPEDITEM(#261,#262);
#264= IFCCARTESIANPOINT((75.,0.,0.));
#265= IFCCARTESIANTRANSFORMATIONOPERATOR3D($,$,#264,$,$);
#266= IFCMAPPEDITEM(#261,#265);
#267= IFCCARTESIANPOINT((150.,0.,0.));
#268= IFCCARTESIANTRANSFORMATIONOPERATOR3D($,$,#267,$,$);
#269= IFCMAPPEDITEM(#261,#268);
#270= IFCCARTESIANPOINT((225.,0.,0.));
#271= IFCCARTESIANTRANSFORMATIONOPERATOR3D($,$,#270,$,$);
#272= IFCMAPPEDITEM(#261,#271);
#273= IFCSHAPEREPRESENTATION(#12,'Body','MappedRepresentation',(#263,#266,#269,#272));
#274= IFCPRODUCTDEFINITIONSHAPE($,$,(#273));
#275= IFCOPENINGELEMENT('1xjp7OeIr9D9lZRjW$7E2z',#5,$,$,'Opening',#256,#274,$);
#276= IFCRELVOIDSELEMENT('1EFzfsLjfDZ8W6bYMEZf6b',#5,'Drill Hole',$,#69,#275);
#277= IFCCARTESIANPOINT((57265.,23964.6340303914,13879.));
#278= IFCAXIS2PLACEMENT3D(#277,#8,#53);
#279= IFCLOCALPLACEMENT(#42,#278);
#280= IFCSHAPEREPRESENTATION(#12,'Body','MappedRepresentation',(#263,#266,#269,#272));
#281= IFCPRODUCTDEFINITIONSHAPE($,$,(#280));
#282= IFCOPENINGELEMENT('2DQHn2he98GxJq5R8JZcBI',#5,$,$,'Opening',#279,#281,$);
#283= IFCRELVOIDSELEMENT('19LViWHWH5J8gBWw5VhoOB',#5,'Drill Hole',$,#69,#282);
#284= IFCCARTESIANPOINT((57265.,23829.1340303914,13481.));
#285= IFCAXIS2PLACEMENT3D(#284,#52,#53);
#286= IFCLOCALPLACEMENT(#42,#285);
#287= IFCSHAPEREPRESENTATION(#12,'Body','MappedRepresentation',(#263,#266,#269,#272));
#288= IFCPRODUCTDEFINITIONSHAPE($,$,(#287));
#289= IFCOPENINGELEMENT('1uWs4bUfn4XwGSi3xA$F7v',#5,$,$,'Opening',#286,#288,$);
#290= IFCRELVOIDSELEMENT('3XXHNK$JX6qwY0k1CjoQM1',#5,'Drill Hole',$,#69,#289);
#291= IFCCARTESIANPOINT((57265.,23829.1340303914,13879.));
#292= IFCAXIS2PLACEMENT3D(#291,#8,#53);
#293= IFCLOCALPLACEMENT(#42,#292);
#294= IFCSHAPEREPRESENTATION(#12,'Body','MappedRepresentation',(#263,#266,#269,#272));
#295= IFCPRODUCTDEFINITIONSHAPE($,$,(#294));
#296= IFCOPENINGELEMENT('1_rroU0p51yfX0Yc5thVOw',#5,$,$,'Opening',#293,#295,$);
#297= IFCRELVOIDSELEMENT('1K1TLZwuTEKhutzh11rXCb',#5,'Drill Hole',$,#69,#296);
#298= IFCPROPERTYSINGLEVALUE('PieceMark',$,IFCIDENTIFIER('BEAM'),$);
#299= IFCPROPERTYSINGLEVALUE('IndicationMark',$,IFCIDENTIFIER('b/35'),$);
#300= IFCPROPERTYSINGLEVALUE('PrelimMark',$,IFCIDENTIFIER(''),$);
#301= IFCPROPERTYSINGLEVALUE('MainPieceTag',$,IFCBOOLEAN(.T.),$);
#302= IFCPROPERTYSET('2Ljty2GN16A9gphVG5hpvD',#5,'AISC_EM11_Pset_PieceIdentification','PieceIdentity',(#298,#299,#300,#301));
#303= IFCPROPERTYSINGLEVALUE('MaterialType',$,IFCIDENTIFIER('STEEL'),$);
#304= IFCPROPERTYSINGLEVALUE('MaterialGrade',$,IFCIDENTIFIER('S235JR'),$);
#305= IFCPROPERTYSET('3Q4CUihF5C5gwovhFskKlm',#5,'AISC_EM11_Pset_Material',$,(#303,#304));
#306= IFCPROPERTYSINGLEVALUE('SkewedAngleY',$,IFCREAL(0.),$);
#307= IFCPROPERTYSINGLEVALUE('SkewedAngleX',$,IFCREAL(0.),$);
#308= IFCPROPERTYSET('3Nu_4Ys7TEAgvBc9pWVHhv',#5,'AISC_EM11_Pset_SkewedEnd',$,(#306,#307));
#309= IFCPROPERTYSET('2Ni8J3tLX9FBT7SkSPiTIT',#5,'AISC_EM11_Pset_SkewedEnd_2',$,(#306,#307));
#310= IFCMATERIAL('STEEL/S235JR');
#311= IFCRELAGGREGATES('2etm2J$s140BH0A5jkQCPA',#5,$,$,#37,(#39));
#312= IFCRELAGGREGATES('2w92KbH8JMITZISN$0iUhS',#5,$,$,#39,(#41));
#313= IFCRELAGGREGATES('1rJufrEV17OQhLE_w2xE5s',#5,$,$,#41,(#43));
#314= IFCRELCONTAINEDINSPATIALSTRUCTURE('2__O6QQPfDF9jsPk8LZZ$d',#5,$,$,(#69),#43);
#315= IFCRELDEFINESBYPROPERTIES('3MsXqi5M57PBTLl9zgaY0D',#5,$,$,(#91,#78),#84);
#316= IFCRELDEFINESBYPROPERTIES('1ryZc30xv6bv7fXodrM1pu',#5,$,$,(#296,#289,#282,#275,#252,#227,#200,#164),#169);
#317= IFCRELDEFINESBYPROPERTIES('2jMeA3FjPAsgNQ4ustFGSQ',#5,$,$,(#69),#302);
#318= IFCRELDEFINESBYPROPERTIES('3OGTMDGZH48ObbkIxsJU_k',#5,$,$,(#69),#305);
#319= IFCRELDEFINESBYPROPERTIES('0c$LvTLCTCigmpXJkR1iQo',#5,$,$,(#69),#308);
#320= IFCRELDEFINESBYPROPERTIES('3KD_np_z571PBTNlhPNI8K',#5,$,$,(#69),#309);
#321= IFCRELASSOCIATESMATERIAL('3WaDyPNOr4GhUo4wTSQdQi',#5,$,$,(#69),#310);
ENDSEC;

END-ISO-10303-21;
