ISO-10303-21;
HEADER;
FILE_DESCRIPTION(('ViewDefinition[AISC_Steel_Detailing]', 'Option [BaseQuantities:Off]', 'Option [GridExport:On]', 'Option [Assemblies:Off]', 'Option [Bolts:On]', 'Option [Rebars:On]', 'Option [PourObjects:Off]', 'Option [Welds:On]', 'Option [SurfaceTreatments:On]', 'Option [LocationBy:0]', 'Option [ViewColors:Off]', 'Option [SectionedSpine:Off]', 'Option [PropertySets:On]', 'Option [Export all:Off]'),'2;1');
FILE_NAME('b_37_Qty_1.ifc','2026-05-16T11:53:17',('GIOVANNIPC\\gcorrea'),('Structural Designer'),'IFC Database version: Work','Tekla Structures 2020 Service Pack 5, IFC Export Version: 4.0.0.0 Dec  7 2020','');
FILE_SCHEMA(('IFC2X3'));
ENDSEC;

DATA;
#1= IFCPERSON('GIOVANNIPC\\gcorrea','Undefined',$,$,$,$,$,$);
#2= IFCORGANIZATION($,'Trimble Solutions Corporation',$,$,$);
#3= IFCPERSONANDORGANIZATION(#1,#2,$);
#4= IFCAPPLICATION(#2,'2020 Service Pack 5','Tekla Structures','Multi material modeling');
#5= IFCOWNERHISTORY(#3,#4,$,.NOCHANGE.,$,$,$,1778950397);
#6= IFCCARTESIANPOINT((0.,0.,0.));
#7= IFCDIRECTION((1.,0.,0.));
#8= IFCDIRECTION((0.,1.,0.));
#9= IFCDIRECTION((0.,0.,1.));
#10= IFCAXIS2PLACEMENT3D(#6,#9,#7);
#11= IFCGEOMETRICREPRESENTATIONCONTEXT($,'Model',3,1.E-05,#10,$);
#12= IFCGEOMETRICREPRESENTATIONSUBCONTEXT('Body','Model',*,*,*,*,#11,$,.MODEL_VIEW.,$);
#13= IFCGEOMETRICREPRESENTATIONSUBCONTEXT('Axis','Model',*,*,*,*,#11,$,.GRAPH_VIEW.,$);
#14= IFCGEOMETRICREPRESENTATIONSUBCONTEXT('FootPrint','Model',*,*,*,*,#11,$,.MODEL_VIEW.,$);
#15= IFCSIUNIT(*,.LENGTHUNIT.,.MILLI.,.METRE.);
#16= IFCMEASUREWITHUNIT(IFCRATIOMEASURE(304.8),#15);
#17= IFCDIMENSIONALEXPONENTS(1,0,0,0,0,0,0);
#18= IFCCONVERSIONBASEDUNIT(#17,.LENGTHUNIT.,'FOOT',#16);
#19= IFCSIUNIT(*,.AREAUNIT.,$,.SQUARE_METRE.);
#20= IFCMEASUREWITHUNIT(IFCRATIOMEASURE(0.09290304),#19);
#21= IFCDIMENSIONALEXPONENTS(2,0,0,0,0,0,0);
#22= IFCCONVERSIONBASEDUNIT(#21,.AREAUNIT.,'SQUARE FOOT',#20);
#23= IFCSIUNIT(*,.VOLUMEUNIT.,$,.CUBIC_METRE.);
#24= IFCMEASUREWITHUNIT(IFCRATIOMEASURE(0.028316846592),#23);
#25= IFCDIMENSIONALEXPONENTS(3,0,0,0,0,0,0);
#26= IFCCONVERSIONBASEDUNIT(#25,.VOLUMEUNIT.,'CUBIC FOOT',#24);
#27= IFCSIUNIT(*,.MASSUNIT.,.KILO.,.GRAM.);
#28= IFCSIUNIT(*,.TIMEUNIT.,$,.SECOND.);
#29= IFCSIUNIT(*,.PLANEANGLEUNIT.,$,.RADIAN.);
#30= IFCMEASUREWITHUNIT(IFCRATIOMEASURE(0.0174532925199433),#29);
#31= IFCDIMENSIONALEXPONENTS(0,0,0,0,0,0,0);
#32= IFCCONVERSIONBASEDUNIT(#31,.PLANEANGLEUNIT.,'DEGREE',#30);
#33= IFCSIUNIT(*,.SOLIDANGLEUNIT.,$,.STERADIAN.);
#34= IFCSIUNIT(*,.THERMODYNAMICTEMPERATUREUNIT.,$,.DEGREE_CELSIUS.);
#35= IFCSIUNIT(*,.LUMINOUSINTENSITYUNIT.,$,.LUMEN.);
#36= IFCUNITASSIGNMENT((#15,#19,#23,#27,#28,#29,#33,#34,#35));
#37= IFCPROJECT('2G7ZFDNE16yBDU14FA92Me',#5,'Proyecto',$,$,$,$,(#11),#36);
#38= IFCLOCALPLACEMENT($,#10);
#39= IFCSITE('2xvEzEinjBTea80yOTcujY',#5,'Obra',$,$,#38,$,$,.ELEMENT.,$,$,$,$,$);
#40= IFCLOCALPLACEMENT(#38,#10);
#41= IFCBUILDING('3cvNDri294hfqhKj6SywRt',#5,'Undefined',$,$,#40,$,$,.ELEMENT.,$,$,$);
#42= IFCLOCALPLACEMENT(#40,#10);
#43= IFCBUILDINGSTOREY('29hdEUCErFze9E_VIAceOd',#5,'Undefined',$,$,#42,$,$,.ELEMENT.,0.);
#44= IFCOWNERHISTORY(#3,#4,$,.NOCHANGE.,$,$,$,1773158400);
#45= IFCCARTESIANPOINT((76649.9985660757,23896.8840449765,13680.));
#46= IFCDIRECTION((0.999999999825977,1.86559999968784E-05,0.));
#47= IFCAXIS2PLACEMENT3D(#45,#9,#46);
#48= IFCLOCALPLACEMENT(#42,#47);
#49= IFCDIRECTION((1.,0.));
#50= IFCCARTESIANPOINT((0.,0.));
#51= IFCAXIS2PLACEMENT2D(#50,#49);
#52= IFCISHAPEPROFILEDEF(.AREA.,'HEA450',#51,300.,440.,11.5,21.,27.);
#53= IFCDIRECTION((0.,-1.,0.));
#54= IFCDIRECTION((-1.,0.,0.));
#55= IFCCARTESIANPOINT((8187.52037361854,0.,0.));
#56= IFCAXIS2PLACEMENT3D(#55,#54,#53);
#57= IFCEXTRUDEDAREASOLID(#52,#56,#9,8321.78);
#58= IFCDIRECTION((-0.999999999825977,1.86560000001919E-05,0.));
#59= IFCCARTESIANPOINT((8187.51470396934,0.000186560002475744,-320.));
#60= IFCDIRECTION((1.86560000001919E-05,0.999999999825977,0.));
#61= IFCAXIS2PLACEMENT3D(#59,#58,#60);
#62= IFCPLANE(#61);
#63= IFCHALFSPACESOLID(#62,.T.);
#64= IFCBOOLEANCLIPPINGRESULT(.DIFFERENCE.,#57,#63);
#65= IFCDIRECTION((0.999999999876158,-1.57380000018077E-05,0.));
#66= IFCCARTESIANPOINT((-134.250000032218,-0.000157379989104811,-320.));
#67= IFCDIRECTION((-1.57380000018077E-05,-0.999999999876158,0.));
#68= IFCAXIS2PLACEMENT3D(#66,#65,#67);
#69= IFCPLANE(#68);
#70= IFCHALFSPACESOLID(#69,.T.);
#71= IFCBOOLEANCLIPPINGRESULT(.DIFFERENCE.,#64,#70);
#72= IFCSHAPEREPRESENTATION(#12,'Body','Clipping',(#71));
#73= IFCPRODUCTDEFINITIONSHAPE($,$,(#72));
#74= IFCBEAM('2SzsEjoljBcgbA8KuMUZwN',#44,'BEAM','HEA450','HEA450',#48,#73,'ID9cf763ad-cafb-4b9a-a94a-214e167a3e97');
#75= IFCLOCALPLACEMENT(#42,#47);
#76= IFCRECTANGLEPROFILEDEF(.AREA.,'PL161.1*12',#51,12.,161.1);
#77= IFCDIRECTION((0.,0.,-1.));
#78= IFCCARTESIANPOINT((8193.50852208526,-70.6256861390902,221.));
#79= IFCAXIS2PLACEMENT3D(#78,#77,#58);
#80= IFCEXTRUDEDAREASOLID(#76,#79,#9,442.);
#81= IFCSHAPEREPRESENTATION(#12,'Body','SweptSolid',(#80));
#82= IFCPRODUCTDEFINITIONSHAPE($,$,(#81));
#83= IFCOPENINGELEMENT('11_iQuWhL0lgMo09yz7HUb',#5,$,$,'Recess',#75,#82,$);
#84= IFCRELVOIDSELEMENT('162A8DIsT4cuaz1PRMBE9I',#5,$,$,#74,#83);
#85= IFCPROPERTYSINGLEVALUE('FeatureSubTypes',$,$,$);
#86= IFCPROPERTYSINGLEVALUE('RectangleOpeningWidth',$,IFCPOSITIVELENGTHMEASURE(12.),$);
#87= IFCPROPERTYSINGLEVALUE('RectangleOpeningHeight',$,IFCPOSITIVELENGTHMEASURE(161.1),$);
#88= IFCPROPERTYSINGLEVALUE('OpeningDiameter',$,$,$);
#89= IFCPROPERTYSET('05Xhim6hHFBfJZRsNYzQf9',#5,'AISC_EM11_Pset_Opening/Cope',$,(#85,#86,#87,#88));
#90= IFCLOCALPLACEMENT(#42,#47);
#91= IFCCARTESIANPOINT((8193.51115400434,70.4505934787994,221.));
#92= IFCAXIS2PLACEMENT3D(#91,#77,#58);
#93= IFCEXTRUDEDAREASOLID(#76,#92,#9,442.);
#94= IFCSHAPEREPRESENTATION(#12,'Body','SweptSolid',(#93));
#95= IFCPRODUCTDEFINITIONSHAPE($,$,(#94));
#96= IFCOPENINGELEMENT('2pWJ7CgGL9i8tFrYcdZqki',#5,$,$,'Recess',#90,#95,$);
#97= IFCRELVOIDSELEMENT('3T05_tAuX6EvhLsTV$j05N',#5,$,$,#74,#96);
#98= IFCLOCALPLACEMENT(#42,#47);
#99= IFCRECTANGLEPROFILEDEF(.AREA.,'PL49*156.3',#51,49.,156.3);
#100= IFCDIRECTION((1.5737999995316E-05,0.999999999876158,0.));
#101= IFCCARTESIANPOINT((-68.127376459342,-151.001040674242,-196.5));
#102= IFCAXIS2PLACEMENT3D(#101,#100,#77);
#103= IFCEXTRUDEDAREASOLID(#99,#102,#9,302.13);
#104= IFCSHAPEREPRESENTATION(#12,'Body','SweptSolid',(#103));
#105= IFCPRODUCTDEFINITIONSHAPE($,$,(#104));
#106= IFCOPENINGELEMENT('3_ivq5jG9CCeKkv65izDat',#5,$,$,'Recess',#98,#105,$);
#107= IFCRELVOIDSELEMENT('2k2c8$Xg9FZAieoLSUj$6y',#5,$,$,#74,#106);
#108= IFCPROPERTYSINGLEVALUE('RectangleOpeningWidth',$,IFCPOSITIVELENGTHMEASURE(49.),$);
#109= IFCPROPERTYSINGLEVALUE('RectangleOpeningHeight',$,IFCPOSITIVELENGTHMEASURE(156.3),$);
#110= IFCPROPERTYSET('2rkqeLJJ55SQl2K2ic1y3Z',#5,'AISC_EM11_Pset_Opening/Cope',$,(#85,#108,#109,#88));
#111= IFCLOCALPLACEMENT(#42,#47);
#112= IFCCARTESIANPOINT((-68.127376459342,-151.001040674242,196.5));
#113= IFCAXIS2PLACEMENT3D(#112,#100,#77);
#114= IFCEXTRUDEDAREASOLID(#99,#113,#9,302.13);
#115= IFCSHAPEREPRESENTATION(#12,'Body','SweptSolid',(#114));
#116= IFCPRODUCTDEFINITIONSHAPE($,$,(#115));
#117= IFCOPENINGELEMENT('00IPbMLYb6aOY$GSYTlX$7',#5,$,$,'Recess',#111,#116,$);
#118= IFCRELVOIDSELEMENT('2VvFv29pXAdxj6NESs4b9U',#5,$,$,#74,#117);
#119= IFCCARTESIANPOINT((84792.50840433,23897.0367910989,13450.));
#120= IFCAXIS2PLACEMENT3D(#119,#8,#54);
#121= IFCLOCALPLACEMENT(#42,#120);
#122= IFCCIRCLEPROFILEDEF(.AREA.,$,#51,11.5);
#123= IFCCARTESIANPOINT((0.,9.9,0.));
#124= IFCAXIS2PLACEMENT3D(#123,#8,#7);
#125= IFCEXTRUDEDAREASOLID(#122,#124,#9,21.2);
#126= IFCSHAPEREPRESENTATION(#12,'Body','SweptSolid',(#125));
#127= IFCREPRESENTATIONMAP(#10,#126);
#128= IFCCARTESIANPOINT((0.,0.,75.));
#129= IFCCARTESIANTRANSFORMATIONOPERATOR3D($,$,#128,$,$);
#130= IFCMAPPEDITEM(#127,#129);
#131= IFCCARTESIANPOINT((75.,0.,75.));
#132= IFCCARTESIANTRANSFORMATIONOPERATOR3D($,$,#131,$,$);
#133= IFCMAPPEDITEM(#127,#132);
#134= IFCCARTESIANPOINT((150.,0.,75.));
#135= IFCCARTESIANTRANSFORMATIONOPERATOR3D($,$,#134,$,$);
#136= IFCMAPPEDITEM(#127,#135);
#137= IFCCARTESIANPOINT((225.,0.,75.));
#138= IFCCARTESIANTRANSFORMATIONOPERATOR3D($,$,#137,$,$);
#139= IFCMAPPEDITEM(#127,#138);
#140= IFCCARTESIANPOINT((300.,0.,75.));
#141= IFCCARTESIANTRANSFORMATIONOPERATOR3D($,$,#140,$,$);
#142= IFCMAPPEDITEM(#127,#141);
#143= IFCCARTESIANPOINT((375.,0.,75.));
#144= IFCCARTESIANTRANSFORMATIONOPERATOR3D($,$,#143,$,$);
#145= IFCMAPPEDITEM(#127,#144);
#146= IFCCARTESIANPOINT((450.,0.,75.));
#147= IFCCARTESIANTRANSFORMATIONOPERATOR3D($,$,#146,$,$);
#148= IFCMAPPEDITEM(#127,#147);
#149= IFCCARTESIANPOINT((525.,0.,75.));
#150= IFCCARTESIANTRANSFORMATIONOPERATOR3D($,$,#149,$,$);
#151= IFCMAPPEDITEM(#127,#150);
#152= IFCCARTESIANPOINT((600.,0.,75.));
#153= IFCCARTESIANTRANSFORMATIONOPERATOR3D($,$,#152,$,$);
#154= IFCMAPPEDITEM(#127,#153);
#155= IFCCARTESIANPOINT((675.,0.,75.));
#156= IFCCARTESIANTRANSFORMATIONOPERATOR3D($,$,#155,$,$);
#157= IFCMAPPEDITEM(#127,#156);
#158= IFCCARTESIANPOINT((0.,0.,-75.));
#159= IFCCARTESIANTRANSFORMATIONOPERATOR3D($,$,#158,$,$);
#160= IFCMAPPEDITEM(#127,#159);
#161= IFCCARTESIANPOINT((75.,0.,-75.));
#162= IFCCARTESIANTRANSFORMATIONOPERATOR3D($,$,#161,$,$);
#163= IFCMAPPEDITEM(#127,#162);
#164= IFCCARTESIANPOINT((150.,0.,-75.));
#165= IFCCARTESIANTRANSFORMATIONOPERATOR3D($,$,#164,$,$);
#166= IFCMAPPEDITEM(#127,#165);
#167= IFCCARTESIANPOINT((225.,0.,-75.));
#168= IFCCARTESIANTRANSFORMATIONOPERATOR3D($,$,#167,$,$);
#169= IFCMAPPEDITEM(#127,#168);
#170= IFCCARTESIANPOINT((300.,0.,-75.));
#171= IFCCARTESIANTRANSFORMATIONOPERATOR3D($,$,#170,$,$);
#172= IFCMAPPEDITEM(#127,#171);
#173= IFCCARTESIANPOINT((375.,0.,-75.));
#174= IFCCARTESIANTRANSFORMATIONOPERATOR3D($,$,#173,$,$);
#175= IFCMAPPEDITEM(#127,#174);
#176= IFCCARTESIANPOINT((450.,0.,-75.));
#177= IFCCARTESIANTRANSFORMATIONOPERATOR3D($,$,#176,$,$);
#178= IFCMAPPEDITEM(#127,#177);
#179= IFCCARTESIANPOINT((525.,0.,-75.));
#180= IFCCARTESIANTRANSFORMATIONOPERATOR3D($,$,#179,$,$);
#181= IFCMAPPEDITEM(#127,#180);
#182= IFCCARTESIANPOINT((600.,0.,-75.));
#183= IFCCARTESIANTRANSFORMATIONOPERATOR3D($,$,#182,$,$);
#184= IFCMAPPEDITEM(#127,#183);
#185= IFCCARTESIANPOINT((675.,0.,-75.));
#186= IFCCARTESIANTRANSFORMATIONOPERATOR3D($,$,#185,$,$);
#187= IFCMAPPEDITEM(#127,#186);
#188= IFCSHAPEREPRESENTATION(#12,'Body','MappedRepresentation',(#130,#133,#136,#139,#142,#145,#148,#151,#154,#157,#160,#163,#166,#169,#172,#175,#178,#181,#184,#187));
#189= IFCPRODUCTDEFINITIONSHAPE($,$,(#188));
#190= IFCOPENINGELEMENT('3ox4aqSbzEwgrrOb30Jmhx',#5,$,$,'Opening',#121,#189,$);
#191= IFCRELVOIDSELEMENT('1PTzu4LbP9H85xUwnqtjIL',#5,'Drill Hole',$,#74,#190);
#192= IFCPROPERTYSINGLEVALUE('FeatureSubTypes',$,IFCLABEL('TORNILLO'),$);
#193= IFCPROPERTYSINGLEVALUE('RectangleOpeningWidth',$,$,$);
#194= IFCPROPERTYSINGLEVALUE('RectangleOpeningHeight',$,$,$);
#195= IFCPROPERTYSET('2oIjxnz8vApf7kD8NJsWQ4',#5,'AISC_EM11_Pset_Opening/Cope',$,(#192,#193,#194,#88));
#196= IFCCARTESIANPOINT((84792.50840433,23897.0367910989,13900.));
#197= IFCAXIS2PLACEMENT3D(#196,#53,#54);
#198= IFCLOCALPLACEMENT(#42,#197);
#199= IFCCARTESIANPOINT((0.,-0.100000000000007,0.));
#200= IFCAXIS2PLACEMENT3D(#199,#8,#7);
#201= IFCEXTRUDEDAREASOLID(#122,#200,#9,21.2);
#202= IFCSHAPEREPRESENTATION(#12,'Body','SweptSolid',(#201));
#203= IFCREPRESENTATIONMAP(#10,#202);
#204= IFCMAPPEDITEM(#203,#159);
#205= IFCMAPPEDITEM(#203,#162);
#206= IFCMAPPEDITEM(#203,#165);
#207= IFCMAPPEDITEM(#203,#168);
#208= IFCMAPPEDITEM(#203,#171);
#209= IFCMAPPEDITEM(#203,#174);
#210= IFCMAPPEDITEM(#203,#177);
#211= IFCMAPPEDITEM(#203,#180);
#212= IFCMAPPEDITEM(#203,#183);
#213= IFCMAPPEDITEM(#203,#186);
#214= IFCMAPPEDITEM(#203,#129);
#215= IFCMAPPEDITEM(#203,#132);
#216= IFCMAPPEDITEM(#203,#135);
#217= IFCMAPPEDITEM(#203,#138);
#218= IFCMAPPEDITEM(#203,#141);
#219= IFCMAPPEDITEM(#203,#144);
#220= IFCMAPPEDITEM(#203,#147);
#221= IFCMAPPEDITEM(#203,#150);
#222= IFCMAPPEDITEM(#203,#153);
#223= IFCMAPPEDITEM(#203,#156);
#224= IFCSHAPEREPRESENTATION(#12,'Body','MappedRepresentation',(#204,#205,#206,#207,#208,#209,#210,#211,#212,#213,#214,#215,#216,#217,#218,#219,#220,#221,#222,#223));
#225= IFCPRODUCTDEFINITIONSHAPE($,$,(#224));
#226= IFCOPENINGELEMENT('2tqdgJaRjD5OLraO4fiZPb',#5,$,$,'Opening',#198,#225,$);
#227= IFCRELVOIDSELEMENT('0ql6cnlwz728BMzs3dSg6v',#5,'Drill Hole',$,#74,#226);
#228= IFCCARTESIANPOINT((84837.5132686167,23897.0366046839,13900.));
#229= IFCAXIS2PLACEMENT3D(#228,#54,#77);
#230= IFCLOCALPLACEMENT(#42,#229);
#231= IFCCARTESIANPOINT((0.,-5.84934704102624,0.));
#232= IFCAXIS2PLACEMENT3D(#231,#8,#7);
#233= IFCEXTRUDEDAREASOLID(#122,#232,#9,11.7);
#234= IFCSHAPEREPRESENTATION(#12,'Body','SweptSolid',(#233));
#235= IFCREPRESENTATIONMAP(#10,#234);
#236= IFCCARTESIANPOINT((80.,0.,45.));
#237= IFCCARTESIANTRANSFORMATIONOPERATOR3D($,$,#236,$,$);
#238= IFCMAPPEDITEM(#235,#237);
#239= IFCCARTESIANPOINT((150.,0.,45.));
#240= IFCCARTESIANTRANSFORMATIONOPERATOR3D($,$,#239,$,$);
#241= IFCMAPPEDITEM(#235,#240);
#242= IFCCARTESIANPOINT((220.,0.,45.));
#243= IFCCARTESIANTRANSFORMATIONOPERATOR3D($,$,#242,$,$);
#244= IFCMAPPEDITEM(#235,#243);
#245= IFCCARTESIANPOINT((290.,0.,45.));
#246= IFCCARTESIANTRANSFORMATIONOPERATOR3D($,$,#245,$,$);
#247= IFCMAPPEDITEM(#235,#246);
#248= IFCCARTESIANPOINT((360.,0.,45.));
#249= IFCCARTESIANTRANSFORMATIONOPERATOR3D($,$,#248,$,$);
#250= IFCMAPPEDITEM(#235,#249);
#251= IFCSHAPEREPRESENTATION(#12,'Body','MappedRepresentation',(#238,#241,#244,#247,#250));
#252= IFCPRODUCTDEFINITIONSHAPE($,$,(#251));
#253= IFCOPENINGELEMENT('00CQb_kU917uAT0GeSpHBI',#5,$,$,'Opening',#230,#252,$);
#254= IFCRELVOIDSELEMENT('3u0jiEjJz44Olgze6gcD5X',#5,'Drill Hole',$,#74,#253);
#255= IFCCARTESIANPOINT((76705.0248613342,23896.8840303914,13919.));
#256= IFCAXIS2PLACEMENT3D(#255,#8,#7);
#257= IFCLOCALPLACEMENT(#42,#256);
#258= IFCCARTESIANPOINT((0.,18.8999999999985,0.));
#259= IFCAXIS2PLACEMENT3D(#258,#8,#7);
#260= IFCEXTRUDEDAREASOLID(#122,#259,#9,21.2);
#261= IFCSHAPEREPRESENTATION(#12,'Body','SweptSolid',(#260));
#262= IFCREPRESENTATIONMAP(#10,#261);
#263= IFCMAPPEDITEM(#262,#159);
#264= IFCMAPPEDITEM(#262,#162);
#265= IFCMAPPEDITEM(#262,#165);
#266= IFCMAPPEDITEM(#262,#168);
#267= IFCMAPPEDITEM(#262,#171);
#268= IFCMAPPEDITEM(#262,#174);
#269= IFCMAPPEDITEM(#262,#177);
#270= IFCMAPPEDITEM(#262,#180);
#271= IFCMAPPEDITEM(#262,#183);
#272= IFCMAPPEDITEM(#262,#186);
#273= IFCMAPPEDITEM(#262,#129);
#274= IFCMAPPEDITEM(#262,#132);
#275= IFCMAPPEDITEM(#262,#135);
#276= IFCMAPPEDITEM(#262,#138);
#277= IFCMAPPEDITEM(#262,#141);
#278= IFCMAPPEDITEM(#262,#144);
#279= IFCMAPPEDITEM(#262,#147);
#280= IFCMAPPEDITEM(#262,#150);
#281= IFCMAPPEDITEM(#262,#153);
#282= IFCMAPPEDITEM(#262,#156);
#283= IFCSHAPEREPRESENTATION(#12,'Body','MappedRepresentation',(#263,#264,#265,#266,#267,#268,#269,#270,#271,#272,#273,#274,#275,#276,#277,#278,#279,#280,#281,#282));
#284= IFCPRODUCTDEFINITIONSHAPE($,$,(#283));
#285= IFCOPENINGELEMENT('34nh$8d8DDfuVDHRnQotG8',#5,$,$,'Opening',#257,#284,$);
#286= IFCRELVOIDSELEMENT('3ZlVzurwT3DOtg22RMuBfx',#5,'Drill Hole',$,#74,#285);
#287= IFCCARTESIANPOINT((76705.0248613342,23896.8840303914,13450.));
#288= IFCAXIS2PLACEMENT3D(#287,#53,#7);
#289= IFCLOCALPLACEMENT(#42,#288);
#290= IFCSHAPEREPRESENTATION(#12,'Body','MappedRepresentation',(#130,#133,#136,#139,#142,#145,#148,#151,#154,#157,#160,#163,#166,#169,#172,#175,#178,#181,#184,#187));
#291= IFCPRODUCTDEFINITIONSHAPE($,$,(#290));
#292= IFCOPENINGELEMENT('1FTAa9sdn7gBCn3aUW8UBF',#5,$,$,'Opening',#289,#291,$);
#293= IFCRELVOIDSELEMENT('3f9r8U9YD7wvQ4BjME$BhE',#5,'Drill Hole',$,#74,#292);
#294= IFCCARTESIANPOINT((76515.7485660689,23896.8816977888,13900.));
#295= IFCDIRECTION((0.999999999995743,2.91799999831712E-06,0.));
#296= IFCAXIS2PLACEMENT3D(#294,#295,#77);
#297= IFCLOCALPLACEMENT(#42,#296);
#298= IFCCIRCLEPROFILEDEF(.AREA.,$,#51,11.);
#299= IFCCARTESIANPOINT((0.,-5.84952786127312,0.));
#300= IFCAXIS2PLACEMENT3D(#299,#8,#7);
#301= IFCEXTRUDEDAREASOLID(#298,#300,#9,11.7);
#302= IFCSHAPEREPRESENTATION(#12,'Body','SweptSolid',(#301));
#303= IFCREPRESENTATIONMAP(#10,#302);
#304= IFCCARTESIANPOINT((80.,0.,40.0000000003492));
#305= IFCCARTESIANTRANSFORMATIONOPERATOR3D($,$,#304,$,$);
#306= IFCMAPPEDITEM(#303,#305);
#307= IFCCARTESIANPOINT((150.,0.,40.0000000003492));
#308= IFCCARTESIANTRANSFORMATIONOPERATOR3D($,$,#307,$,$);
#309= IFCMAPPEDITEM(#303,#308);
#310= IFCCARTESIANPOINT((220.,0.,40.0000000003492));
#311= IFCCARTESIANTRANSFORMATIONOPERATOR3D($,$,#310,$,$);
#312= IFCMAPPEDITEM(#303,#311);
#313= IFCCARTESIANPOINT((290.,0.,40.0000000003492));
#314= IFCCARTESIANTRANSFORMATIONOPERATOR3D($,$,#313,$,$);
#315= IFCMAPPEDITEM(#303,#314);
#316= IFCCARTESIANPOINT((360.,0.,40.0000000003492));
#317= IFCCARTESIANTRANSFORMATIONOPERATOR3D($,$,#316,$,$);
#318= IFCMAPPEDITEM(#303,#317);
#319= IFCSHAPEREPRESENTATION(#12,'Body','MappedRepresentation',(#306,#309,#312,#315,#318));
#320= IFCPRODUCTDEFINITIONSHAPE($,$,(#319));
#321= IFCOPENINGELEMENT('3GLZ3tehrEmRstbgfAT6hO',#5,$,$,'Opening',#297,#320,$);
#322= IFCRELVOIDSELEMENT('02kMABtobF$eYL1jtj$fCD',#5,'Drill Hole',$,#74,#321);
#323= IFCPROPERTYSINGLEVALUE('PieceMark',$,IFCIDENTIFIER('BEAM'),$);
#324= IFCPROPERTYSINGLEVALUE('IndicationMark',$,IFCIDENTIFIER('b/37'),$);
#325= IFCPROPERTYSINGLEVALUE('PrelimMark',$,IFCIDENTIFIER(''),$);
#326= IFCPROPERTYSINGLEVALUE('MainPieceTag',$,IFCBOOLEAN(.T.),$);
#327= IFCPROPERTYSET('2WsTjY0Zn32OIedUBmZy85',#5,'AISC_EM11_Pset_PieceIdentification','PieceIdentity',(#323,#324,#325,#326));
#328= IFCPROPERTYSINGLEVALUE('MaterialType',$,IFCIDENTIFIER('STEEL'),$);
#329= IFCPROPERTYSINGLEVALUE('MaterialGrade',$,IFCIDENTIFIER('S235JR'),$);
#330= IFCPROPERTYSET('0wANFOakLA5ABqNukiEPHf',#5,'AISC_EM11_Pset_Material',$,(#328,#329));
#331= IFCPROPERTYSINGLEVALUE('SkewedAngleY',$,IFCREAL(0.),$);
#332= IFCPROPERTYSINGLEVALUE('SkewedAngleX',$,IFCREAL(0.),$);
#333= IFCPROPERTYSET('083b_z69z3Ze$H1s4zf3kW',#5,'AISC_EM11_Pset_SkewedEnd',$,(#331,#332));
#334= IFCPROPERTYSINGLEVALUE('SkewedAngleX',$,IFCREAL(0.00107),$);
#335= IFCPROPERTYSET('31ZH0GC$b9GgA5OuhEPPP3',#5,'AISC_EM11_Pset_SkewedEnd_2',$,(#331,#334));
#336= IFCMATERIAL('STEEL/S235JR');
#337= IFCRELAGGREGATES('0ycrMXJIb9_eBrtW$ZumlA',#5,$,$,#37,(#39));
#338= IFCRELAGGREGATES('2Eu7epbatRGwT79oHrA21S',#5,$,$,#39,(#41));
#339= IFCRELAGGREGATES('0ltkKw0UzECfhRPNJcOL8O',#5,$,$,#41,(#43));
#340= IFCRELCONTAINEDINSPATIALSTRUCTURE('20uyf1CwD2cA7ow6c7CV6W',#5,$,$,(#74),#43);
#341= IFCRELDEFINESBYPROPERTIES('0Wr2oXkV10Fvmw6OISXG6O',#5,$,$,(#96,#83),#89);
#342= IFCRELDEFINESBYPROPERTIES('1w8_oogtb6sQALAWhnU_7P',#5,$,$,(#117,#106),#110);
#343= IFCRELDEFINESBYPROPERTIES('11ezqViT958v3nFAkrA97X',#5,$,$,(#321,#292,#285,#253,#226,#190),#195);
#344= IFCRELDEFINESBYPROPERTIES('1Zdt6LEkP5mwUxar6oFESv',#5,$,$,(#74),#327);
#345= IFCRELDEFINESBYPROPERTIES('33JQXE$GTCGPhiCgr8sQLI',#5,$,$,(#74),#330);
#346= IFCRELDEFINESBYPROPERTIES('1CUadyCMzB8wMnBL78YPAR',#5,$,$,(#74),#333);
#347= IFCRELDEFINESBYPROPERTIES('2kxbsvvpD2s8Klj1nPFU2_',#5,$,$,(#74),#335);
#348= IFCRELASSOCIATESMATERIAL('2zwvU10yj5oeSWI$0Sbn0h',#5,$,$,(#74),#336);
ENDSEC;

END-ISO-10303-21;
