ISO-10303-21;
HEADER;
FILE_DESCRIPTION(('ViewDefinition[AISC_Steel_Detailing]', 'Option [BaseQuantities:Off]', 'Option [GridExport:On]', 'Option [Assemblies:Off]', 'Option [Bolts:On]', 'Option [Rebars:On]', 'Option [PourObjects:Off]', 'Option [Welds:On]', 'Option [SurfaceTreatments:On]', 'Option [LocationBy:0]', 'Option [ViewColors:Off]', 'Option [SectionedSpine:Off]', 'Option [PropertySets:On]', 'Option [Export all:Off]'),'2;1');
FILE_NAME('b_38_Qty_1.ifc','2026-05-16T11:53:17',('GIOVANNIPC\\gcorrea'),('Structural Designer'),'IFC Database version: Work','Tekla Structures 2020 Service Pack 5, IFC Export Version: 4.0.0.0 Dec  7 2020','');
FILE_SCHEMA(('IFC2X3'));
ENDSEC;

DATA;
#1= IFCPERSON('GIOVANNIPC\\gcorrea','Undefined',$,$,$,$,$,$);
#2= IFCORGANIZATION($,'Trimble Solutions Corporation',$,$,$);
#3= IFCPERSONANDORGANIZATION(#1,#2,$);
#4= IFCAPPLICATION(#2,'2020 Service Pack 5','Tekla Structures','Multi material modeling');
#5= IFCOWNERHISTORY(#3,#4,$,.NOCHANGE.,$,$,$,1778950397);
#6= IFCCARTESIANPOINT((0.,0.,0.));
#7= IFCDIRECTION((1.,0.,0.));
#8= IFCDIRECTION((0.,1.,0.));
#9= IFCDIRECTION((0.,0.,1.));
#10= IFCAXIS2PLACEMENT3D(#6,#9,#7);
#11= IFCGEOMETRICREPRESENTATIONCONTEXT($,'Model',3,1.E-05,#10,$);
#12= IFCGEOMETRICREPRESENTATIONSUBCONTEXT('Body','Model',*,*,*,*,#11,$,.MODEL_VIEW.,$);
#13= IFCGEOMETRICREPRESENTATIONSUBCONTEXT('Axis','Model',*,*,*,*,#11,$,.GRAPH_VIEW.,$);
#14= IFCGEOMETRICREPRESENTATIONSUBCONTEXT('FootPrint','Model',*,*,*,*,#11,$,.MODEL_VIEW.,$);
#15= IFCSIUNIT(*,.LENGTHUNIT.,.MILLI.,.METRE.);
#16= IFCMEASUREWITHUNIT(IFCRATIOMEASURE(304.8),#15);
#17= IFCDIMENSIONALEXPONENTS(1,0,0,0,0,0,0);
#18= IFCCONVERSIONBASEDUNIT(#17,.LENGTHUNIT.,'FOOT',#16);
#19= IFCSIUNIT(*,.AREAUNIT.,$,.SQUARE_METRE.);
#20= IFCMEASUREWITHUNIT(IFCRATIOMEASURE(0.09290304),#19);
#21= IFCDIMENSIONALEXPONENTS(2,0,0,0,0,0,0);
#22= IFCCONVERSIONBASEDUNIT(#21,.AREAUNIT.,'SQUARE FOOT',#20);
#23= IFCSIUNIT(*,.VOLUMEUNIT.,$,.CUBIC_METRE.);
#24= IFCMEASUREWITHUNIT(IFCRATIOMEASURE(0.028316846592),#23);
#25= IFCDIMENSIONALEXPONENTS(3,0,0,0,0,0,0);
#26= IFCCONVERSIONBASEDUNIT(#25,.VOLUMEUNIT.,'CUBIC FOOT',#24);
#27= IFCSIUNIT(*,.MASSUNIT.,.KILO.,.GRAM.);
#28= IFCSIUNIT(*,.TIMEUNIT.,$,.SECOND.);
#29= IFCSIUNIT(*,.PLANEANGLEUNIT.,$,.RADIAN.);
#30= IFCMEASUREWITHUNIT(IFCRATIOMEASURE(0.0174532925199433),#29);
#31= IFCDIMENSIONALEXPONENTS(0,0,0,0,0,0,0);
#32= IFCCONVERSIONBASEDUNIT(#31,.PLANEANGLEUNIT.,'DEGREE',#30);
#33= IFCSIUNIT(*,.SOLIDANGLEUNIT.,$,.STERADIAN.);
#34= IFCSIUNIT(*,.THERMODYNAMICTEMPERATUREUNIT.,$,.DEGREE_CELSIUS.);
#35= IFCSIUNIT(*,.LUMINOUSINTENSITYUNIT.,$,.LUMEN.);
#36= IFCUNITASSIGNMENT((#15,#19,#23,#27,#28,#29,#33,#34,#35));
#37= IFCPROJECT('2G7ZFDNE16yBDU14FA92Me',#5,'Proyecto',$,$,$,$,(#11),#36);
#38= IFCLOCALPLACEMENT($,#10);
#39= IFCSITE('2xvEzEinjBTea80yOTcujY',#5,'Obra',$,$,#38,$,$,.ELEMENT.,$,$,$,$,$);
#40= IFCLOCALPLACEMENT(#38,#10);
#41= IFCBUILDING('2rwVh9LprDCfz$MjhMSZ8l',#5,'Undefined',$,$,#40,$,$,.ELEMENT.,$,$,$);
#42= IFCLOCALPLACEMENT(#40,#10);
#43= IFCBUILDINGSTOREY('29hdEUCErFze9E_VIAceOd',#5,'Undefined',$,$,#42,$,$,.ELEMENT.,0.);
#44= IFCOWNERHISTORY(#3,#4,$,.NOCHANGE.,$,$,$,1775592000);
#45= IFCCARTESIANPOINT((85165.0960663681,23896.8840303914,13675.));
#46= IFCAXIS2PLACEMENT3D(#45,#9,#7);
#47= IFCLOCALPLACEMENT(#42,#46);
#48= IFCDIRECTION((1.,0.));
#49= IFCCARTESIANPOINT((0.,0.));
#50= IFCAXIS2PLACEMENT2D(#49,#48);
#51= IFCISHAPEPROFILEDEF(.AREA.,'IPE450',#50,190.,450.,9.399999619,14.60000038,21.);
#52= IFCDIRECTION((0.,-1.,0.));
#53= IFCDIRECTION((-1.,0.,0.));
#54= IFCCARTESIANPOINT((8112.00274644025,0.,0.));
#55= IFCAXIS2PLACEMENT3D(#54,#53,#52);
#56= IFCEXTRUDEDAREASOLID(#51,#55,#9,8114.6);
#57= IFCCARTESIANPOINT((8112.00274644025,-0.0905314752635604,-325.));
#58= IFCAXIS2PLACEMENT3D(#57,#53,#8);
#59= IFCPLANE(#58);
#60= IFCHALFSPACESOLID(#59,.T.);
#61= IFCBOOLEANCLIPPINGRESULT(.DIFFERENCE.,#56,#60);
#62= IFCCARTESIANPOINT((-2.59786175738554,0.,-325.));
#63= IFCAXIS2PLACEMENT3D(#62,#7,#52);
#64= IFCPLANE(#63);
#65= IFCHALFSPACESOLID(#64,.T.);
#66= IFCBOOLEANCLIPPINGRESULT(.DIFFERENCE.,#61,#65);
#67= IFCSHAPEREPRESENTATION(#12,'Body','Clipping',(#66));
#68= IFCPRODUCTDEFINITIONSHAPE($,$,(#67));
#69= IFCBEAM('36gT_t9q1Czf2j9ibVBqnn',#44,'BEAM','IPE450','IPE450',#47,#68,'IDc6a9dfb7-2740-4cf6-90ad-26c95f2f4c71');
#70= IFCLOCALPLACEMENT(#42,#46);
#71= IFCRECTANGLEPROFILEDEF(.AREA.,'PL105.9*12',#50,12.,105.9);
#72= IFCDIRECTION((0.,0.,-1.));
#73= IFCCARTESIANPOINT((-8.59519404322782,43.0270857564283,226.));
#74= IFCAXIS2PLACEMENT3D(#73,#72,#7);
#75= IFCEXTRUDEDAREASOLID(#71,#74,#9,452.);
#76= IFCSHAPEREPRESENTATION(#12,'Body','SweptSolid',(#75));
#77= IFCPRODUCTDEFINITIONSHAPE($,$,(#76));
#78= IFCOPENINGELEMENT('22jLnIUDr3ywWvLch3_BmH',#5,$,$,'Recess',#70,#77,$);
#79= IFCRELVOIDSELEMENT('1dezGtvXL9thU_J_BWwq54',#5,$,$,#69,#78);
#80= IFCPROPERTYSINGLEVALUE('FeatureSubTypes',$,$,$);
#81= IFCPROPERTYSINGLEVALUE('RectangleOpeningWidth',$,IFCPOSITIVELENGTHMEASURE(12.),$);
#82= IFCPROPERTYSINGLEVALUE('RectangleOpeningHeight',$,IFCPOSITIVELENGTHMEASURE(105.9),$);
#83= IFCPROPERTYSINGLEVALUE('OpeningDiameter',$,$,$);
#84= IFCPROPERTYSET('3CJydkajP4ju0EjxxZ$c$t',#5,'AISC_EM11_Pset_Opening/Cope',$,(#80,#81,#82,#83));
#85= IFCLOCALPLACEMENT(#42,#46);
#86= IFCRECTANGLEPROFILEDEF(.AREA.,'PL106.1*12',#50,12.,106.1);
#87= IFCCARTESIANPOINT((-8.59519404322782,-42.9729142435717,226.));
#88= IFCAXIS2PLACEMENT3D(#87,#72,#7);
#89= IFCEXTRUDEDAREASOLID(#86,#88,#9,452.);
#90= IFCSHAPEREPRESENTATION(#12,'Body','SweptSolid',(#89));
#91= IFCPRODUCTDEFINITIONSHAPE($,$,(#90));
#92= IFCOPENINGELEMENT('3VDUhP5sn8_vPsQfWbYidD',#5,$,$,'Recess',#85,#91,$);
#93= IFCRELVOIDSELEMENT('3cJm9p5v9CQQrRhkCTuvrp',#5,$,$,#69,#92);
#94= IFCPROPERTYSINGLEVALUE('RectangleOpeningHeight',$,IFCPOSITIVELENGTHMEASURE(106.1),$);
#95= IFCPROPERTYSET('08cBGp86b3O8LkVFLX6kcz',#5,'AISC_EM11_Pset_Opening/Cope',$,(#80,#81,#94,#83));
#96= IFCLOCALPLACEMENT(#42,#46);
#97= IFCRECTANGLEPROFILEDEF(.AREA.,'PL108*12.1',#50,12.1,108.);
#98= IFCCARTESIANPOINT((8127.95335901613,-43.219791262185,226.));
#99= IFCAXIS2PLACEMENT3D(#98,#72,#53);
#100= IFCEXTRUDEDAREASOLID(#97,#99,#9,452.);
#101= IFCSHAPEREPRESENTATION(#12,'Body','SweptSolid',(#100));
#102= IFCPRODUCTDEFINITIONSHAPE($,$,(#101));
#103= IFCOPENINGELEMENT('07WWd5WUX3JeiltAUn2KKO',#5,$,$,'Recess',#96,#102,$);
#104= IFCRELVOIDSELEMENT('0XcJAGMO9B4RwWgR6SHKT8',#5,$,$,#69,#103);
#105= IFCPROPERTYSINGLEVALUE('RectangleOpeningWidth',$,IFCPOSITIVELENGTHMEASURE(12.1),$);
#106= IFCPROPERTYSINGLEVALUE('RectangleOpeningHeight',$,IFCPOSITIVELENGTHMEASURE(108.),$);
#107= IFCPROPERTYSET('0S3ebFIgT4xvsnSdE1wDhE',#5,'AISC_EM11_Pset_Opening/Cope',$,(#80,#105,#106,#83));
#108= IFCLOCALPLACEMENT(#42,#46);
#109= IFCRECTANGLEPROFILEDEF(.AREA.,'PL109.1*12.1',#50,12.1,109.1);
#110= IFCCARTESIANPOINT((8127.95335901613,41.3426345431726,226.));
#111= IFCAXIS2PLACEMENT3D(#110,#72,#53);
#112= IFCEXTRUDEDAREASOLID(#109,#111,#9,452.);
#113= IFCSHAPEREPRESENTATION(#12,'Body','SweptSolid',(#112));
#114= IFCPRODUCTDEFINITIONSHAPE($,$,(#113));
#115= IFCOPENINGELEMENT('2eVyxqAxL508CWAVjElR0R',#5,$,$,'Recess',#108,#114,$);
#116= IFCRELVOIDSELEMENT('1WY85cONPEvg3hgUFwWdOK',#5,$,$,#69,#115);
#117= IFCPROPERTYSINGLEVALUE('RectangleOpeningHeight',$,IFCPOSITIVELENGTHMEASURE(109.1),$);
#118= IFCPROPERTYSET('1YgBAR7TH5rAsem$QvKxkv',#5,'AISC_EM11_Pset_Opening/Cope',$,(#80,#105,#117,#83));
#119= IFCCARTESIANPOINT((85202.4982046107,23896.884030393,13450.));
#120= IFCAXIS2PLACEMENT3D(#119,#52,#7);
#121= IFCLOCALPLACEMENT(#42,#120);
#122= IFCCIRCLEPROFILEDEF(.AREA.,$,#50,11.5);
#123= IFCCARTESIANPOINT((0.,-0.0999999999999929,0.));
#124= IFCAXIS2PLACEMENT3D(#123,#8,#7);
#125= IFCEXTRUDEDAREASOLID(#122,#124,#9,14.8);
#126= IFCSHAPEREPRESENTATION(#12,'Body','SweptSolid',(#125));
#127= IFCREPRESENTATIONMAP(#10,#126);
#128= IFCCARTESIANPOINT((0.,0.,-50.));
#129= IFCCARTESIANTRANSFORMATIONOPERATOR3D($,$,#128,$,$);
#130= IFCMAPPEDITEM(#127,#129);
#131= IFCCARTESIANPOINT((70.,0.,-50.));
#132= IFCCARTESIANTRANSFORMATIONOPERATOR3D($,$,#131,$,$);
#133= IFCMAPPEDITEM(#127,#132);
#134= IFCCARTESIANPOINT((140.,0.,-50.));
#135= IFCCARTESIANTRANSFORMATIONOPERATOR3D($,$,#134,$,$);
#136= IFCMAPPEDITEM(#127,#135);
#137= IFCCARTESIANPOINT((210.,0.,-50.));
#138= IFCCARTESIANTRANSFORMATIONOPERATOR3D($,$,#137,$,$);
#139= IFCMAPPEDITEM(#127,#138);
#140= IFCCARTESIANPOINT((280.,0.,-50.));
#141= IFCCARTESIANTRANSFORMATIONOPERATOR3D($,$,#140,$,$);
#142= IFCMAPPEDITEM(#127,#141);
#143= IFCCARTESIANPOINT((350.,0.,-50.));
#144= IFCCARTESIANTRANSFORMATIONOPERATOR3D($,$,#143,$,$);
#145= IFCMAPPEDITEM(#127,#144);
#146= IFCCARTESIANPOINT((420.,0.,-50.));
#147= IFCCARTESIANTRANSFORMATIONOPERATOR3D($,$,#146,$,$);
#148= IFCMAPPEDITEM(#127,#147);
#149= IFCCARTESIANPOINT((0.,0.,50.));
#150= IFCCARTESIANTRANSFORMATIONOPERATOR3D($,$,#149,$,$);
#151= IFCMAPPEDITEM(#127,#150);
#152= IFCCARTESIANPOINT((70.,0.,50.));
#153= IFCCARTESIANTRANSFORMATIONOPERATOR3D($,$,#152,$,$);
#154= IFCMAPPEDITEM(#127,#153);
#155= IFCCARTESIANPOINT((140.,0.,50.));
#156= IFCCARTESIANTRANSFORMATIONOPERATOR3D($,$,#155,$,$);
#157= IFCMAPPEDITEM(#127,#156);
#158= IFCCARTESIANPOINT((210.,0.,50.));
#159= IFCCARTESIANTRANSFORMATIONOPERATOR3D($,$,#158,$,$);
#160= IFCMAPPEDITEM(#127,#159);
#161= IFCCARTESIANPOINT((280.,0.,50.));
#162= IFCCARTESIANTRANSFORMATIONOPERATOR3D($,$,#161,$,$);
#163= IFCMAPPEDITEM(#127,#162);
#164= IFCCARTESIANPOINT((350.,0.,50.));
#165= IFCCARTESIANTRANSFORMATIONOPERATOR3D($,$,#164,$,$);
#166= IFCMAPPEDITEM(#127,#165);
#167= IFCCARTESIANPOINT((420.,0.,50.));
#168= IFCCARTESIANTRANSFORMATIONOPERATOR3D($,$,#167,$,$);
#169= IFCMAPPEDITEM(#127,#168);
#170= IFCSHAPEREPRESENTATION(#12,'Body','MappedRepresentation',(#130,#133,#136,#139,#142,#145,#148,#151,#154,#157,#160,#163,#166,#169));
#171= IFCPRODUCTDEFINITIONSHAPE($,$,(#170));
#172= IFCOPENINGELEMENT('0c3UhR1fL3K9oxv9ykFKO8',#5,$,$,'Opening',#121,#171,$);
#173= IFCRELVOIDSELEMENT('3FatQbqX9EUAMWj5951j74',#5,'Drill Hole',$,#69,#172);
#174= IFCPROPERTYSINGLEVALUE('FeatureSubTypes',$,IFCLABEL('TORNILLO'),$);
#175= IFCPROPERTYSINGLEVALUE('RectangleOpeningWidth',$,$,$);
#176= IFCPROPERTYSINGLEVALUE('RectangleOpeningHeight',$,$,$);
#177= IFCPROPERTYSET('1SPpomADj6QvbFw52qvbnn',#5,'AISC_EM11_Pset_Opening/Cope',$,(#174,#175,#176,#83));
#178= IFCCARTESIANPOINT((85202.4982046107,23896.884030393,13900.));
#179= IFCAXIS2PLACEMENT3D(#178,#8,#7);
#180= IFCLOCALPLACEMENT(#42,#179);
#181= IFCSHAPEREPRESENTATION(#12,'Body','MappedRepresentation',(#130,#133,#136,#139,#142,#145,#148,#151,#154,#157,#160,#163,#166,#169));
#182= IFCPRODUCTDEFINITIONSHAPE($,$,(#181));
#183= IFCOPENINGELEMENT('0iLG5zfCP2GBVPK$aTEhaI',#5,$,$,'Opening',#180,#182,$);
#184= IFCRELVOIDSELEMENT('2j5wnr4_b4UeEAfwdM8IkO',#5,'Drill Hole',$,#69,#183);
#185= IFCCARTESIANPOINT((85162.4982046107,23896.8840303914,13900.));
#186= IFCAXIS2PLACEMENT3D(#185,#7,#72);
#187= IFCLOCALPLACEMENT(#42,#186);
#188= IFCCARTESIANPOINT((0.,-4.7999998095016,0.));
#189= IFCAXIS2PLACEMENT3D(#188,#8,#7);
#190= IFCEXTRUDEDAREASOLID(#122,#189,#9,9.6);
#191= IFCSHAPEREPRESENTATION(#12,'Body','SweptSolid',(#190));
#192= IFCREPRESENTATIONMAP(#10,#191);
#193= IFCCARTESIANPOINT((85.,0.,40.));
#194= IFCCARTESIANTRANSFORMATIONOPERATOR3D($,$,#193,$,$);
#195= IFCMAPPEDITEM(#192,#194);
#196= IFCCARTESIANPOINT((155.,0.,40.));
#197= IFCCARTESIANTRANSFORMATIONOPERATOR3D($,$,#196,$,$);
#198= IFCMAPPEDITEM(#192,#197);
#199= IFCCARTESIANPOINT((225.,0.,40.));
#200= IFCCARTESIANTRANSFORMATIONOPERATOR3D($,$,#199,$,$);
#201= IFCMAPPEDITEM(#192,#200);
#202= IFCCARTESIANPOINT((295.,0.,40.));
#203= IFCCARTESIANTRANSFORMATIONOPERATOR3D($,$,#202,$,$);
#204= IFCMAPPEDITEM(#192,#203);
#205= IFCCARTESIANPOINT((365.,0.,40.));
#206= IFCCARTESIANTRANSFORMATIONOPERATOR3D($,$,#205,$,$);
#207= IFCMAPPEDITEM(#192,#206);
#208= IFCSHAPEREPRESENTATION(#12,'Body','MappedRepresentation',(#195,#198,#201,#204,#207));
#209= IFCPRODUCTDEFINITIONSHAPE($,$,(#208));
#210= IFCOPENINGELEMENT('3nw58lo8rCtwe3muvz2AZu',#5,$,$,'Opening',#187,#209,$);
#211= IFCRELVOIDSELEMENT('2eYrVRjwX0kBh9$_MnLwdX',#5,'Drill Hole',$,#69,#210);
#212= IFCCARTESIANPOINT((92816.9020226211,23896.5857289147,13450.));
#213= IFCDIRECTION((0.000467666999829816,-0.999999890643783,0.));
#214= IFCDIRECTION((0.999999890643783,0.000467666999835253,0.));
#215= IFCAXIS2PLACEMENT3D(#212,#213,#214);
#216= IFCLOCALPLACEMENT(#42,#215);
#217= IFCSHAPEREPRESENTATION(#12,'Body','MappedRepresentation',(#130,#133,#136,#139,#142,#145,#148,#151,#154,#157,#160,#163,#166,#169));
#218= IFCPRODUCTDEFINITIONSHAPE($,$,(#217));
#219= IFCOPENINGELEMENT('261dg5r29669faXbvQEb3Z',#5,$,$,'Opening',#216,#218,$);
#220= IFCRELVOIDSELEMENT('2mx0yBgyz5ihxSzBZg_twh',#5,'Drill Hole',$,#69,#219);
#221= IFCCARTESIANPOINT((93277.0988128084,23896.7801133648,13900.));
#222= IFCAXIS2PLACEMENT3D(#221,#53,#72);
#223= IFCLOCALPLACEMENT(#42,#222);
#224= IFCCARTESIANPOINT((0.,-4.90391683610287,0.));
#225= IFCAXIS2PLACEMENT3D(#224,#8,#7);
#226= IFCEXTRUDEDAREASOLID(#122,#225,#9,9.6);
#227= IFCSHAPEREPRESENTATION(#12,'Body','SweptSolid',(#226));
#228= IFCREPRESENTATIONMAP(#10,#227);
#229= IFCMAPPEDITEM(#228,#194);
#230= IFCMAPPEDITEM(#228,#197);
#231= IFCMAPPEDITEM(#228,#200);
#232= IFCMAPPEDITEM(#228,#203);
#233= IFCMAPPEDITEM(#228,#206);
#234= IFCSHAPEREPRESENTATION(#12,'Body','MappedRepresentation',(#229,#230,#231,#232,#233));
#235= IFCPRODUCTDEFINITIONSHAPE($,$,(#234));
#236= IFCOPENINGELEMENT('0F8Xtm9mHD5wXVf0z2jNFF',#5,$,$,'Opening',#223,#235,$);
#237= IFCRELVOIDSELEMENT('2kUpNYWaH2N9nGa9St2zt8',#5,'Drill Hole',$,#69,#236);
#238= IFCCARTESIANPOINT((92816.9020226211,23896.5857289147,13900.));
#239= IFCDIRECTION((-0.000467666999829816,0.999999890643783,0.));
#240= IFCAXIS2PLACEMENT3D(#238,#239,#214);
#241= IFCLOCALPLACEMENT(#42,#240);
#242= IFCSHAPEREPRESENTATION(#12,'Body','MappedRepresentation',(#130,#133,#136,#139,#142,#145,#148,#151,#154,#157,#160,#163,#166,#169));
#243= IFCPRODUCTDEFINITIONSHAPE($,$,(#242));
#244= IFCOPENINGELEMENT('37ISaTivT9QfEO_Lf3pkIB',#5,$,$,'Opening',#241,#243,$);
#245= IFCRELVOIDSELEMENT('3IiW8dfSTBThpNvnMq71K0',#5,'Drill Hole',$,#69,#244);
#246= IFCPROPERTYSINGLEVALUE('PieceMark',$,IFCIDENTIFIER('BEAM'),$);
#247= IFCPROPERTYSINGLEVALUE('IndicationMark',$,IFCIDENTIFIER('b/38'),$);
#248= IFCPROPERTYSINGLEVALUE('PrelimMark',$,IFCIDENTIFIER(''),$);
#249= IFCPROPERTYSINGLEVALUE('MainPieceTag',$,IFCBOOLEAN(.F.),$);
#250= IFCPROPERTYSET('0HtsuvQYj5EwhXZisRkIk3',#5,'AISC_EM11_Pset_PieceIdentification','PieceIdentity',(#246,#247,#248,#249));
#251= IFCPROPERTYSINGLEVALUE('MaterialType',$,IFCIDENTIFIER('STEEL'),$);
#252= IFCPROPERTYSINGLEVALUE('MaterialGrade',$,IFCIDENTIFIER('S235JR'),$);
#253= IFCPROPERTYSET('2GU76Z7X52Ng8FOm$YYXqL',#5,'AISC_EM11_Pset_Material',$,(#251,#252));
#254= IFCPROPERTYSINGLEVALUE('SkewedAngleY',$,IFCREAL(0.),$);
#255= IFCPROPERTYSINGLEVALUE('SkewedAngleX',$,IFCREAL(0.),$);
#256= IFCPROPERTYSET('39M76kvTD1duV8pKWnKpUt',#5,'AISC_EM11_Pset_SkewedEnd',$,(#254,#255));
#257= IFCPROPERTYSET('2scliOTlb14OHeyRnWYCyo',#5,'AISC_EM11_Pset_SkewedEnd_2',$,(#254,#255));
#258= IFCMATERIAL('STEEL/S235JR');
#259= IFCRELAGGREGATES('0gaSeej0f8PQ7pKejmvuSh',#5,$,$,#37,(#39));
#260= IFCRELAGGREGATES('2yskww$IxQhiP5cw$2BAkz',#5,$,$,#39,(#41));
#261= IFCRELAGGREGATES('3faejjYVXCIeHNa$ZNSvnk',#5,$,$,#41,(#43));
#262= IFCRELCONTAINEDINSPATIALSTRUCTURE('0BNxBZSkj25wBuSe6zp7Dp',#5,$,$,(#69),#43);
#263= IFCRELDEFINESBYPROPERTIES('2oqg$L9rbE2xweiAg72ggj',#5,$,$,(#78),#84);
#264= IFCRELDEFINESBYPROPERTIES('1crg45j59F8RG4SIY7sb73',#5,$,$,(#92),#95);
#265= IFCRELDEFINESBYPROPERTIES('22mrLGmwX75xwK2FP$qM2q',#5,$,$,(#103),#107);
#266= IFCRELDEFINESBYPROPERTIES('1eCO1Xjmz9pQ78xz2b$xgw',#5,$,$,(#115),#118);
#267= IFCRELDEFINESBYPROPERTIES('2sizsH5CX6fhbK_H8BH_p3',#5,$,$,(#244,#236,#219,#210,#183,#172),#177);
#268= IFCRELDEFINESBYPROPERTIES('2RBDAQ6Kb7Ge8eJBf9vGdF',#5,$,$,(#69),#250);
#269= IFCRELDEFINESBYPROPERTIES('0rBWyqUFT1XBzYKuISWZuF',#5,$,$,(#69),#253);
#270= IFCRELDEFINESBYPROPERTIES('13ZtXUeDD7VwAUz1Qm_Xvm',#5,$,$,(#69),#256);
#271= IFCRELDEFINESBYPROPERTIES('30BFaBPDfBtRsyN24blGjr',#5,$,$,(#69),#257);
#272= IFCRELASSOCIATESMATERIAL('0jiWjxYeD39BC9kV2Mug1H',#5,$,$,(#69),#258);
ENDSEC;

END-ISO-10303-21;
