ISO-10303-21;
HEADER;
FILE_DESCRIPTION(('ViewDefinition[AISC_Steel_Detailing]', 'Option [BaseQuantities:Off]', 'Option [GridExport:On]', 'Option [Assemblies:Off]', 'Option [Bolts:On]', 'Option [Rebars:On]', 'Option [PourObjects:Off]', 'Option [Welds:On]', 'Option [SurfaceTreatments:On]', 'Option [LocationBy:0]', 'Option [ViewColors:Off]', 'Option [SectionedSpine:Off]', 'Option [PropertySets:On]', 'Option [Export all:Off]'),'2;1');
FILE_NAME('b_39_Qty_1.ifc','2026-05-16T11:53:17',('GIOVANNIPC\\gcorrea'),('Structural Designer'),'IFC Database version: Work','Tekla Structures 2020 Service Pack 5, IFC Export Version: 4.0.0.0 Dec  7 2020','');
FILE_SCHEMA(('IFC2X3'));
ENDSEC;

DATA;
#1= IFCPERSON('GIOVANNIPC\\gcorrea','Undefined',$,$,$,$,$,$);
#2= IFCORGANIZATION($,'Trimble Solutions Corporation',$,$,$);
#3= IFCPERSONANDORGANIZATION(#1,#2,$);
#4= IFCAPPLICATION(#2,'2020 Service Pack 5','Tekla Structures','Multi material modeling');
#5= IFCOWNERHISTORY(#3,#4,$,.NOCHANGE.,$,$,$,1778950397);
#6= IFCCARTESIANPOINT((0.,0.,0.));
#7= IFCDIRECTION((1.,0.,0.));
#8= IFCDIRECTION((0.,1.,0.));
#9= IFCDIRECTION((0.,0.,1.));
#10= IFCAXIS2PLACEMENT3D(#6,#9,#7);
#11= IFCGEOMETRICREPRESENTATIONCONTEXT($,'Model',3,1.E-05,#10,$);
#12= IFCGEOMETRICREPRESENTATIONSUBCONTEXT('Body','Model',*,*,*,*,#11,$,.MODEL_VIEW.,$);
#13= IFCGEOMETRICREPRESENTATIONSUBCONTEXT('Axis','Model',*,*,*,*,#11,$,.GRAPH_VIEW.,$);
#14= IFCGEOMETRICREPRESENTATIONSUBCONTEXT('FootPrint','Model',*,*,*,*,#11,$,.MODEL_VIEW.,$);
#15= IFCSIUNIT(*,.LENGTHUNIT.,.MILLI.,.METRE.);
#16= IFCMEASUREWITHUNIT(IFCRATIOMEASURE(304.8),#15);
#17= IFCDIMENSIONALEXPONENTS(1,0,0,0,0,0,0);
#18= IFCCONVERSIONBASEDUNIT(#17,.LENGTHUNIT.,'FOOT',#16);
#19= IFCSIUNIT(*,.AREAUNIT.,$,.SQUARE_METRE.);
#20= IFCMEASUREWITHUNIT(IFCRATIOMEASURE(0.09290304),#19);
#21= IFCDIMENSIONALEXPONENTS(2,0,0,0,0,0,0);
#22= IFCCONVERSIONBASEDUNIT(#21,.AREAUNIT.,'SQUARE FOOT',#20);
#23= IFCSIUNIT(*,.VOLUMEUNIT.,$,.CUBIC_METRE.);
#24= IFCMEASUREWITHUNIT(IFCRATIOMEASURE(0.028316846592),#23);
#25= IFCDIMENSIONALEXPONENTS(3,0,0,0,0,0,0);
#26= IFCCONVERSIONBASEDUNIT(#25,.VOLUMEUNIT.,'CUBIC FOOT',#24);
#27= IFCSIUNIT(*,.MASSUNIT.,.KILO.,.GRAM.);
#28= IFCSIUNIT(*,.TIMEUNIT.,$,.SECOND.);
#29= IFCSIUNIT(*,.PLANEANGLEUNIT.,$,.RADIAN.);
#30= IFCMEASUREWITHUNIT(IFCRATIOMEASURE(0.0174532925199433),#29);
#31= IFCDIMENSIONALEXPONENTS(0,0,0,0,0,0,0);
#32= IFCCONVERSIONBASEDUNIT(#31,.PLANEANGLEUNIT.,'DEGREE',#30);
#33= IFCSIUNIT(*,.SOLIDANGLEUNIT.,$,.STERADIAN.);
#34= IFCSIUNIT(*,.THERMODYNAMICTEMPERATUREUNIT.,$,.DEGREE_CELSIUS.);
#35= IFCSIUNIT(*,.LUMINOUSINTENSITYUNIT.,$,.LUMEN.);
#36= IFCUNITASSIGNMENT((#15,#19,#23,#27,#28,#29,#33,#34,#35));
#37= IFCPROJECT('2G7ZFDNE16yBDU14FA92Me',#5,'Proyecto',$,$,$,$,(#11),#36);
#38= IFCLOCALPLACEMENT($,#10);
#39= IFCSITE('2xvEzEinjBTea80yOTcujY',#5,'Obra',$,$,#38,$,$,.ELEMENT.,$,$,$,$,$);
#40= IFCLOCALPLACEMENT(#38,#10);
#41= IFCBUILDING('2ZpEYHh1P3bBJ0BdcTklTg',#5,'Undefined',$,$,#40,$,$,.ELEMENT.,$,$,$);
#42= IFCLOCALPLACEMENT(#40,#10);
#43= IFCBUILDINGSTOREY('29hdEUCErFze9E_VIAceOd',#5,'Undefined',$,$,#42,$,$,.ELEMENT.,0.);
#44= IFCOWNERHISTORY(#3,#4,$,.NOCHANGE.,$,$,$,1775667600);
#45= IFCCARTESIANPOINT((81799.960873497,17380.4058380127,13675.));
#46= IFCDIRECTION((0.440788839997489,0.897610827994888,0.));
#47= IFCAXIS2PLACEMENT3D(#45,#9,#46);
#48= IFCLOCALPLACEMENT(#42,#47);
#49= IFCDIRECTION((1.,0.));
#50= IFCCARTESIANPOINT((0.,0.));
#51= IFCAXIS2PLACEMENT2D(#50,#49);
#52= IFCISHAPEPROFILEDEF(.AREA.,'IPE450',#51,190.,450.,9.399999619,14.60000038,21.);
#53= IFCDIRECTION((0.,-1.,0.));
#54= IFCDIRECTION((-1.,0.,0.));
#55= IFCCARTESIANPOINT((7226.6179516834,0.,1.81898940354586E-12));
#56= IFCAXIS2PLACEMENT3D(#55,#54,#53);
#57= IFCEXTRUDEDAREASOLID(#52,#56,#9,7142.97);
#58= IFCDIRECTION((0.320268247710414,-0.947326896856888,0.));
#59= IFCCARTESIANPOINT((6930.23351793681,-95.,-224.999999999998));
#60= IFCAXIS2PLACEMENT3D(#59,#58,#9);
#61= IFCPLANE(#60);
#62= IFCHALFSPACESOLID(#61,.F.);
#63= IFCBOOLEANCLIPPINGRESULT(.DIFFERENCE.,#57,#62);
#64= IFCCARTESIANPOINT((7097.99686202413,2.91038304567337E-11,-324.999999999998));
#65= IFCAXIS2PLACEMENT3D(#64,#54,#8);
#66= IFCPLANE(#65);
#67= IFCHALFSPACESOLID(#66,.T.);
#68= IFCBOOLEANCLIPPINGRESULT(.DIFFERENCE.,#63,#67);
#69= IFCCARTESIANPOINT((212.268850755732,-4.36557456851006E-11,-324.999999999998));
#70= IFCAXIS2PLACEMENT3D(#69,#7,#53);
#71= IFCPLANE(#70);
#72= IFCHALFSPACESOLID(#71,.T.);
#73= IFCBOOLEANCLIPPINGRESULT(.DIFFERENCE.,#68,#72);
#74= IFCSHAPEREPRESENTATION(#12,'Body','Clipping',(#73));
#75= IFCPRODUCTDEFINITIONSHAPE($,$,(#74));
#76= IFCBEAM('2ZgTEzjvn9aOQyU1EsIfpc',#44,'BEAM','IPE450','IPE450',#48,#75,'IDa3a9d3bd-b79c-4991-86bc-7813b64a9ce6');
#77= IFCLOCALPLACEMENT(#42,#47);
#78= IFCRECTANGLEPROFILEDEF(.AREA.,'PL108.5*12.3',#51,12.3,108.5);
#79= IFCDIRECTION((0.,0.,-1.));
#80= IFCCARTESIANPOINT((206.406009273393,41.7715118288615,226.000000000002));
#81= IFCAXIS2PLACEMENT3D(#80,#79,#7);
#82= IFCEXTRUDEDAREASOLID(#78,#81,#9,452.);
#83= IFCSHAPEREPRESENTATION(#12,'Body','SweptSolid',(#82));
#84= IFCPRODUCTDEFINITIONSHAPE($,$,(#83));
#85= IFCOPENINGELEMENT('3VI6oC6nn7wBibin$IOB1B',#5,$,$,'Recess',#77,#84,$);
#86= IFCRELVOIDSELEMENT('0xrTj4D6zAuBe6mAOfwZG_',#5,$,$,#76,#85);
#87= IFCPROPERTYSINGLEVALUE('FeatureSubTypes',$,$,$);
#88= IFCPROPERTYSINGLEVALUE('RectangleOpeningWidth',$,IFCPOSITIVELENGTHMEASURE(12.3),$);
#89= IFCPROPERTYSINGLEVALUE('RectangleOpeningHeight',$,IFCPOSITIVELENGTHMEASURE(108.5),$);
#90= IFCPROPERTYSINGLEVALUE('OpeningDiameter',$,$,$);
#91= IFCPROPERTYSET('31QFNuG_T4OBVFgCy$fesb',#5,'AISC_EM11_Pset_Opening/Cope',$,(#87,#88,#89,#90));
#92= IFCLOCALPLACEMENT(#42,#47);
#93= IFCCARTESIANPOINT((206.406009272461,-41.7713727293594,226.000000000002));
#94= IFCAXIS2PLACEMENT3D(#93,#79,#7);
#95= IFCEXTRUDEDAREASOLID(#78,#94,#9,452.);
#96= IFCSHAPEREPRESENTATION(#12,'Body','SweptSolid',(#95));
#97= IFCPRODUCTDEFINITIONSHAPE($,$,(#96));
#98= IFCOPENINGELEMENT('1zRUKCCvvADf2VudoIhYnl',#5,$,$,'Recess',#92,#97,$);
#99= IFCRELVOIDSELEMENT('0wjpBdCGr7sORFQKYe7EYV',#5,$,$,#76,#98);
#100= IFCLOCALPLACEMENT(#42,#47);
#101= IFCRECTANGLEPROFILEDEF(.AREA.,'PL106.3*12.3',#51,12.3,106.3);
#102= IFCCARTESIANPOINT((7103.83001092775,-42.8340759960265,226.000000000002));
#103= IFCAXIS2PLACEMENT3D(#102,#79,#54);
#104= IFCEXTRUDEDAREASOLID(#101,#103,#9,452.);
#105= IFCSHAPEREPRESENTATION(#12,'Body','SweptSolid',(#104));
#106= IFCPRODUCTDEFINITIONSHAPE($,$,(#105));
#107= IFCOPENINGELEMENT('3IsX08Q1z8FuFgCo8Q5Qev',#5,$,$,'Recess',#100,#106,$);
#108= IFCRELVOIDSELEMENT('1oL24mHlnDwBkR55iRsfCj',#5,$,$,#76,#107);
#109= IFCPROPERTYSINGLEVALUE('RectangleOpeningHeight',$,IFCPOSITIVELENGTHMEASURE(106.3),$);
#110= IFCPROPERTYSET('3g6X0kjd5EagNNY6vLYBlk',#5,'AISC_EM11_Pset_Opening/Cope',$,(#87,#88,#109,#90));
#111= IFCLOCALPLACEMENT(#42,#47);
#112= IFCCARTESIANPOINT((7103.83001092871,42.8558699154819,226.000000000002));
#113= IFCAXIS2PLACEMENT3D(#112,#79,#54);
#114= IFCEXTRUDEDAREASOLID(#101,#113,#9,452.);
#115= IFCSHAPEREPRESENTATION(#12,'Body','SweptSolid',(#114));
#116= IFCPRODUCTDEFINITIONSHAPE($,$,(#115));
#117= IFCOPENINGELEMENT('12VcQ$XlL9vweaQeEJJouw',#5,$,$,'Recess',#111,#116,$);
#118= IFCRELVOIDSELEMENT('1JRZ0A6$P9HhRJ5oTOvsdE',#5,$,$,#76,#117);
#119= IFCCARTESIANPOINT((81893.5266139898,17570.9406568968,13900.));
#120= IFCAXIS2PLACEMENT3D(#119,#46,#79);
#121= IFCLOCALPLACEMENT(#42,#120);
#122= IFCCIRCLEPROFILEDEF(.AREA.,$,#51,11.5);
#123= IFCCARTESIANPOINT((0.,-4.79999980952711,0.));
#124= IFCAXIS2PLACEMENT3D(#123,#8,#7);
#125= IFCEXTRUDEDAREASOLID(#122,#124,#9,9.6);
#126= IFCSHAPEREPRESENTATION(#12,'Body','SweptSolid',(#125));
#127= IFCREPRESENTATIONMAP(#10,#126);
#128= IFCCARTESIANPOINT((85.,0.,40.0000000001528));
#129= IFCCARTESIANTRANSFORMATIONOPERATOR3D($,$,#128,$,$);
#130= IFCMAPPEDITEM(#127,#129);
#131= IFCCARTESIANPOINT((155.,0.,40.0000000001528));
#132= IFCCARTESIANTRANSFORMATIONOPERATOR3D($,$,#131,$,$);
#133= IFCMAPPEDITEM(#127,#132);
#134= IFCCARTESIANPOINT((225.,0.,40.0000000001528));
#135= IFCCARTESIANTRANSFORMATIONOPERATOR3D($,$,#134,$,$);
#136= IFCMAPPEDITEM(#127,#135);
#137= IFCCARTESIANPOINT((295.,0.,40.0000000001528));
#138= IFCCARTESIANTRANSFORMATIONOPERATOR3D($,$,#137,$,$);
#139= IFCMAPPEDITEM(#127,#138);
#140= IFCCARTESIANPOINT((365.,0.,40.0000000001528));
#141= IFCCARTESIANTRANSFORMATIONOPERATOR3D($,$,#140,$,$);
#142= IFCMAPPEDITEM(#127,#141);
#143= IFCSHAPEREPRESENTATION(#12,'Body','MappedRepresentation',(#130,#133,#136,#139,#142));
#144= IFCPRODUCTDEFINITIONSHAPE($,$,(#143));
#145= IFCOPENINGELEMENT('1nRoRs_OfCpxNlHkeJyYbL',#5,$,$,'Opening',#121,#144,$);
#146= IFCRELVOIDSELEMENT('2JfbdutPv3cRlhwslj8a1l',#5,'Drill Hole',$,#76,#145);
#147= IFCPROPERTYSINGLEVALUE('FeatureSubTypes',$,IFCLABEL('TORNILLO'),$);
#148= IFCPROPERTYSINGLEVALUE('RectangleOpeningWidth',$,$,$);
#149= IFCPROPERTYSINGLEVALUE('RectangleOpeningHeight',$,$,$);
#150= IFCPROPERTYSET('1u0GHkoOPFxB4bTEVrDqyx',#5,'AISC_EM11_Pset_Opening/Cope',$,(#147,#148,#149,#90));
#151= IFCCARTESIANPOINT((84003.8256575308,21868.3083096409,13450.));
#152= IFCDIRECTION((-0.897612204366266,0.440786037179869,0.));
#153= IFCDIRECTION((-0.440786037179868,-0.897612204366266,0.));
#154= IFCAXIS2PLACEMENT3D(#151,#152,#153);
#155= IFCLOCALPLACEMENT(#42,#154);
#156= IFCCARTESIANPOINT((0.,-0.0999999999916796,0.));
#157= IFCAXIS2PLACEMENT3D(#156,#8,#7);
#158= IFCEXTRUDEDAREASOLID(#122,#157,#9,14.8);
#159= IFCSHAPEREPRESENTATION(#12,'Body','SweptSolid',(#158));
#160= IFCREPRESENTATIONMAP(#10,#159);
#161= IFCCARTESIANPOINT((0.,0.,50.000000000291));
#162= IFCCARTESIANTRANSFORMATIONOPERATOR3D($,$,#161,$,$);
#163= IFCMAPPEDITEM(#160,#162);
#164= IFCCARTESIANPOINT((70.0000000003783,0.,50.0000000008586));
#165= IFCCARTESIANTRANSFORMATIONOPERATOR3D($,$,#164,$,$);
#166= IFCMAPPEDITEM(#160,#165);
#167= IFCCARTESIANPOINT((140.000000000757,0.,50.0000000014261));
#168= IFCCARTESIANTRANSFORMATIONOPERATOR3D($,$,#167,$,$);
#169= IFCMAPPEDITEM(#160,#168);
#170= IFCCARTESIANPOINT((210.000000001135,0.,50.0000000019936));
#171= IFCCARTESIANTRANSFORMATIONOPERATOR3D($,$,#170,$,$);
#172= IFCMAPPEDITEM(#160,#171);
#173= IFCCARTESIANPOINT((280.000000001506,0.,50.0000000025611));
#174= IFCCARTESIANTRANSFORMATIONOPERATOR3D($,$,#173,$,$);
#175= IFCMAPPEDITEM(#160,#174);
#176= IFCCARTESIANPOINT((350.000000001884,0.,50.0000000031432));
#177= IFCCARTESIANTRANSFORMATIONOPERATOR3D($,$,#176,$,$);
#178= IFCMAPPEDITEM(#160,#177);
#179= IFCCARTESIANPOINT((420.000000002256,0.,50.0000000036962));
#180= IFCCARTESIANTRANSFORMATIONOPERATOR3D($,$,#179,$,$);
#181= IFCMAPPEDITEM(#160,#180);
#182= IFCCARTESIANPOINT((0.,0.,-50.0000000002619));
#183= IFCCARTESIANTRANSFORMATIONOPERATOR3D($,$,#182,$,$);
#184= IFCMAPPEDITEM(#160,#183);
#185= IFCCARTESIANPOINT((70.0000000003783,0.,-49.9999999996944));
#186= IFCCARTESIANTRANSFORMATIONOPERATOR3D($,$,#185,$,$);
#187= IFCMAPPEDITEM(#160,#186);
#188= IFCCARTESIANPOINT((140.000000000757,0.,-49.9999999991123));
#189= IFCCARTESIANTRANSFORMATIONOPERATOR3D($,$,#188,$,$);
#190= IFCMAPPEDITEM(#160,#189);
#191= IFCCARTESIANPOINT((210.000000001135,0.,-49.9999999985448));
#192= IFCCARTESIANTRANSFORMATIONOPERATOR3D($,$,#191,$,$);
#193= IFCMAPPEDITEM(#160,#192);
#194= IFCCARTESIANPOINT((280.000000001513,0.,-49.9999999979918));
#195= IFCCARTESIANTRANSFORMATIONOPERATOR3D($,$,#194,$,$);
#196= IFCMAPPEDITEM(#160,#195);
#197= IFCCARTESIANPOINT((350.000000001892,0.,-49.9999999974098));
#198= IFCCARTESIANTRANSFORMATIONOPERATOR3D($,$,#197,$,$);
#199= IFCMAPPEDITEM(#160,#198);
#200= IFCCARTESIANPOINT((420.000000002263,0.,-49.9999999968422));
#201= IFCCARTESIANTRANSFORMATIONOPERATOR3D($,$,#200,$,$);
#202= IFCMAPPEDITEM(#160,#201);
#203= IFCSHAPEREPRESENTATION(#12,'Body','MappedRepresentation',(#163,#166,#169,#172,#175,#178,#181,#184,#187,#190,#193,#196,#199,#202));
#204= IFCPRODUCTDEFINITIONSHAPE($,$,(#203));
#205= IFCOPENINGELEMENT('3jiu9xn1z7jOYhvCXgWkh8',#5,$,$,'Opening',#155,#204,$);
#206= IFCRELVOIDSELEMENT('1nuKnjKNr8PhVtyLf7Aa6o',#5,'Drill Hole',$,#76,#205);
#207= IFCCARTESIANPOINT((84127.2458875859,22119.6394536452,13450.));
#208= IFCDIRECTION((0.897612222697057,-0.44078599985123,0.));
#209= IFCDIRECTION((0.440785999851233,0.897612222697056,0.));
#210= IFCAXIS2PLACEMENT3D(#207,#208,#209);
#211= IFCLOCALPLACEMENT(#42,#210);
#212= IFCSHAPEREPRESENTATION(#12,'Body','MappedRepresentation',(#163,#166,#169,#172,#175,#178,#181,#184,#187,#190,#193,#196,#199,#202));
#213= IFCPRODUCTDEFINITIONSHAPE($,$,(#212));
#214= IFCOPENINGELEMENT('2Ra_NP0Xb4tBOMTMhnyQQF',#5,$,$,'Opening',#211,#213,$);
#215= IFCRELVOIDSELEMENT('3NdH$5QSX7_BlY25SH3kbe',#5,'Drill Hole',$,#76,#214);
#216= IFCCARTESIANPOINT((84003.8256575308,21868.3083096409,13900.));
#217= IFCAXIS2PLACEMENT3D(#216,#208,#153);
#218= IFCLOCALPLACEMENT(#42,#217);
#219= IFCSHAPEREPRESENTATION(#12,'Body','MappedRepresentation',(#184,#187,#190,#193,#196,#199,#202,#163,#166,#169,#172,#175,#178,#181));
#220= IFCPRODUCTDEFINITIONSHAPE($,$,(#219));
#221= IFCOPENINGELEMENT('18ESCh$dvFgwSR52tdMZ5h',#5,$,$,'Opening',#218,#220,$);
#222= IFCRELVOIDSELEMENT('13uwEYdq5AtuJKGnN9pJSR',#5,'Drill Hole',$,#76,#221);
#223= IFCCARTESIANPOINT((84127.2458875859,22119.6394536452,13900.));
#224= IFCAXIS2PLACEMENT3D(#223,#152,#209);
#225= IFCLOCALPLACEMENT(#42,#224);
#226= IFCSHAPEREPRESENTATION(#12,'Body','MappedRepresentation',(#184,#187,#190,#193,#196,#199,#202,#163,#166,#169,#172,#175,#178,#181));
#227= IFCPRODUCTDEFINITIONSHAPE($,$,(#226));
#228= IFCOPENINGELEMENT('273yD22g53avSkjFiXCk4R',#5,$,$,'Opening',#225,#227,$);
#229= IFCRELVOIDSELEMENT('0VpjbS$fjD597tlffSVU0a',#5,'Drill Hole',$,#76,#228);
#230= IFCCARTESIANPOINT((84910.8976773784,23715.46063965,13450.));
#231= IFCDIRECTION((-0.897620448210157,0.440769249103198,0.));
#232= IFCDIRECTION((-0.440769249103201,-0.897620448210155,0.));
#233= IFCAXIS2PLACEMENT3D(#230,#231,#232);
#234= IFCLOCALPLACEMENT(#42,#233);
#235= IFCSHAPEREPRESENTATION(#12,'Body','MappedRepresentation',(#163,#166,#169,#172,#175,#178,#181,#184,#187,#190,#193,#196,#199,#202));
#236= IFCPRODUCTDEFINITIONSHAPE($,$,(#235));
#237= IFCOPENINGELEMENT('28uuyqI5X7SwT3noE1h6QW',#5,$,$,'Opening',#234,#236,$);
#238= IFCRELVOIDSELEMENT('15iJHKjz1BMwLfYJDDEEr0',#5,'Drill Hole',$,#76,#237);
#239= IFCCARTESIANPOINT((84910.8976773784,23715.46063965,13900.));
#240= IFCDIRECTION((0.897620448210156,-0.440769249103201,0.));
#241= IFCAXIS2PLACEMENT3D(#239,#240,#232);
#242= IFCLOCALPLACEMENT(#42,#241);
#243= IFCSHAPEREPRESENTATION(#12,'Body','MappedRepresentation',(#184,#187,#190,#193,#196,#199,#202,#163,#166,#169,#172,#175,#178,#181));
#244= IFCPRODUCTDEFINITIONSHAPE($,$,(#243));
#245= IFCOPENINGELEMENT('1QiGk1saD02wA7N6b74yxG',#5,$,$,'Opening',#242,#244,$);
#246= IFCRELVOIDSELEMENT('0HOw56KIz33OdLCueGW7l$',#5,'Drill Hole',$,#76,#245);
#247= IFCCARTESIANPOINT((84928.6786766348,23751.6446784293,13900.));
#248= IFCDIRECTION((-0.44078883999749,-0.897610827994887,0.));
#249= IFCAXIS2PLACEMENT3D(#247,#248,#79);
#250= IFCLOCALPLACEMENT(#42,#249);
#251= IFCSHAPEREPRESENTATION(#12,'Body','MappedRepresentation',(#130,#133,#136,#139,#142));
#252= IFCPRODUCTDEFINITIONSHAPE($,$,(#251));
#253= IFCOPENINGELEMENT('1Mh4i81_5D6Ph4$zPwQEwf',#5,$,$,'Opening',#250,#252,$);
#254= IFCRELVOIDSELEMENT('3r$EljCH10GOqseFfXshW4',#5,'Drill Hole',$,#76,#253);
#255= IFCCARTESIANPOINT((81911.2846184044,17607.1025911487,13450.));
#256= IFCDIRECTION((0.897610827009284,-0.440788842004547,0.));
#257= IFCAXIS2PLACEMENT3D(#255,#256,#46);
#258= IFCLOCALPLACEMENT(#42,#257);
#259= IFCSHAPEREPRESENTATION(#12,'Body','MappedRepresentation',(#163,#166,#169,#172,#175,#178,#181,#184,#187,#190,#193,#196,#199,#202));
#260= IFCPRODUCTDEFINITIONSHAPE($,$,(#259));
#261= IFCOPENINGELEMENT('33t69dI4TBCxRVPfUOwUbq',#5,$,$,'Opening',#258,#260,$);
#262= IFCRELVOIDSELEMENT('1Eacxignr73xlY66icqM1z',#5,'Drill Hole',$,#76,#261);
#263= IFCCARTESIANPOINT((81911.2846184044,17607.1025911487,13900.));
#264= IFCDIRECTION((-0.897610827009282,0.44078884200455,0.));
#265= IFCAXIS2PLACEMENT3D(#263,#264,#46);
#266= IFCLOCALPLACEMENT(#42,#265);
#267= IFCSHAPEREPRESENTATION(#12,'Body','MappedRepresentation',(#184,#187,#190,#193,#196,#199,#202,#163,#166,#169,#172,#175,#178,#181));
#268= IFCPRODUCTDEFINITIONSHAPE($,$,(#267));
#269= IFCOPENINGELEMENT('2M0hGf6En0IeAYzxWqv$mO',#5,$,$,'Opening',#266,#268,$);
#270= IFCRELVOIDSELEMENT('2XvWtyoEf34fLSBI$2q8G2',#5,'Drill Hole',$,#76,#269);
#271= IFCPROPERTYSINGLEVALUE('PieceMark',$,IFCIDENTIFIER('BEAM'),$);
#272= IFCPROPERTYSINGLEVALUE('IndicationMark',$,IFCIDENTIFIER('b/39'),$);
#273= IFCPROPERTYSINGLEVALUE('PrelimMark',$,IFCIDENTIFIER(''),$);
#274= IFCPROPERTYSINGLEVALUE('MainPieceTag',$,IFCBOOLEAN(.F.),$);
#275= IFCPROPERTYSET('35uvdGlGf4$BFVdX1_1f8x',#5,'AISC_EM11_Pset_PieceIdentification','PieceIdentity',(#271,#272,#273,#274));
#276= IFCPROPERTYSINGLEVALUE('MaterialType',$,IFCIDENTIFIER('STEEL'),$);
#277= IFCPROPERTYSINGLEVALUE('MaterialGrade',$,IFCIDENTIFIER('S235JR'),$);
#278= IFCPROPERTYSET('1lNFzMMF9409OFqf3vyDwp',#5,'AISC_EM11_Pset_Material',$,(#276,#277));
#279= IFCPROPERTYSINGLEVALUE('SkewedAngleY',$,IFCREAL(0.),$);
#280= IFCPROPERTYSINGLEVALUE('SkewedAngleX',$,IFCREAL(0.),$);
#281= IFCPROPERTYSET('3Mxe7Gi115YBi3r$$FbhU5',#5,'AISC_EM11_Pset_SkewedEnd',$,(#279,#280));
#282= IFCPROPERTYSET('2DmyL7$S5C_w1JpWZiPcCq',#5,'AISC_EM11_Pset_SkewedEnd_2',$,(#279,#280));
#283= IFCMATERIAL('STEEL/S235JR');
#284= IFCRELAGGREGATES('0J8m7Lg3b51e8Kf9wNqr1i',#5,$,$,#37,(#39));
#285= IFCRELAGGREGATES('2bQ2PdyLtNJwQcxRCf67J_',#5,$,$,#39,(#41));
#286= IFCRELAGGREGATES('2gwEMvbof5if$ejK_XRPHx',#5,$,$,#41,(#43));
#287= IFCRELCONTAINEDINSPATIALSTRUCTURE('2O3osB6gr30hJ502TZuPIm',#5,$,$,(#76),#43);
#288= IFCRELDEFINESBYPROPERTIES('1ETCPNHSn5_P4klKBDyCfj',#5,$,$,(#98,#85),#91);
#289= IFCRELDEFINESBYPROPERTIES('3fBDHwuov5OO4hH0fkh6TX',#5,$,$,(#117,#107),#110);
#290= IFCRELDEFINESBYPROPERTIES('321icXWY553v4fzo6d7O9U',#5,$,$,(#269,#261,#253,#245,#237,#228,#221,#214,#205,#145),#150);
#291= IFCRELDEFINESBYPROPERTIES('16abKQqCb7fAX_2zOisFqE',#5,$,$,(#76),#275);
#292= IFCRELDEFINESBYPROPERTIES('2lnpmjYkj3m8Ib5UbOyqwC',#5,$,$,(#76),#278);
#293= IFCRELDEFINESBYPROPERTIES('20Y4koDA57og5s_T319OaY',#5,$,$,(#76),#281);
#294= IFCRELDEFINESBYPROPERTIES('0$qI4r59PBuORM4ifZLO3W',#5,$,$,(#76),#282);
#295= IFCRELASSOCIATESMATERIAL('3FjiHE3KH0YvF1NI0z5YbG',#5,$,$,(#76),#283);
ENDSEC;

END-ISO-10303-21;
