ISO-10303-21;
HEADER;
FILE_DESCRIPTION(('ViewDefinition[AISC_Steel_Detailing]', 'Option [BaseQuantities:Off]', 'Option [GridExport:On]', 'Option [Assemblies:Off]', 'Option [Bolts:On]', 'Option [Rebars:On]', 'Option [PourObjects:Off]', 'Option [Welds:On]', 'Option [SurfaceTreatments:On]', 'Option [LocationBy:0]', 'Option [ViewColors:Off]', 'Option [SectionedSpine:Off]', 'Option [PropertySets:On]', 'Option [Export all:Off]'),'2;1');
FILE_NAME('b_3_Qty_2.ifc','2026-05-16T11:53:16',('GIOVANNIPC\\gcorrea'),('Structural Designer'),'IFC Database version: Work','Tekla Structures 2020 Service Pack 5, IFC Export Version: 4.0.0.0 Dec  7 2020','');
FILE_SCHEMA(('IFC2X3'));
ENDSEC;

DATA;
#1= IFCPERSON('GIOVANNIPC\\gcorrea','Undefined',$,$,$,$,$,$);
#2= IFCORGANIZATION($,'Trimble Solutions Corporation',$,$,$);
#3= IFCPERSONANDORGANIZATION(#1,#2,$);
#4= IFCAPPLICATION(#2,'2020 Service Pack 5','Tekla Structures','Multi material modeling');
#5= IFCOWNERHISTORY(#3,#4,$,.NOCHANGE.,$,$,$,1778950396);
#6= IFCCARTESIANPOINT((0.,0.,0.));
#7= IFCDIRECTION((1.,0.,0.));
#8= IFCDIRECTION((0.,1.,0.));
#9= IFCDIRECTION((0.,0.,1.));
#10= IFCAXIS2PLACEMENT3D(#6,#9,#7);
#11= IFCGEOMETRICREPRESENTATIONCONTEXT($,'Model',3,1.E-05,#10,$);
#12= IFCGEOMETRICREPRESENTATIONSUBCONTEXT('Body','Model',*,*,*,*,#11,$,.MODEL_VIEW.,$);
#13= IFCGEOMETRICREPRESENTATIONSUBCONTEXT('Axis','Model',*,*,*,*,#11,$,.GRAPH_VIEW.,$);
#14= IFCGEOMETRICREPRESENTATIONSUBCONTEXT('FootPrint','Model',*,*,*,*,#11,$,.MODEL_VIEW.,$);
#15= IFCSIUNIT(*,.LENGTHUNIT.,.MILLI.,.METRE.);
#16= IFCMEASUREWITHUNIT(IFCRATIOMEASURE(304.8),#15);
#17= IFCDIMENSIONALEXPONENTS(1,0,0,0,0,0,0);
#18= IFCCONVERSIONBASEDUNIT(#17,.LENGTHUNIT.,'FOOT',#16);
#19= IFCSIUNIT(*,.AREAUNIT.,$,.SQUARE_METRE.);
#20= IFCMEASUREWITHUNIT(IFCRATIOMEASURE(0.09290304),#19);
#21= IFCDIMENSIONALEXPONENTS(2,0,0,0,0,0,0);
#22= IFCCONVERSIONBASEDUNIT(#21,.AREAUNIT.,'SQUARE FOOT',#20);
#23= IFCSIUNIT(*,.VOLUMEUNIT.,$,.CUBIC_METRE.);
#24= IFCMEASUREWITHUNIT(IFCRATIOMEASURE(0.028316846592),#23);
#25= IFCDIMENSIONALEXPONENTS(3,0,0,0,0,0,0);
#26= IFCCONVERSIONBASEDUNIT(#25,.VOLUMEUNIT.,'CUBIC FOOT',#24);
#27= IFCSIUNIT(*,.MASSUNIT.,.KILO.,.GRAM.);
#28= IFCSIUNIT(*,.TIMEUNIT.,$,.SECOND.);
#29= IFCSIUNIT(*,.PLANEANGLEUNIT.,$,.RADIAN.);
#30= IFCMEASUREWITHUNIT(IFCRATIOMEASURE(0.0174532925199433),#29);
#31= IFCDIMENSIONALEXPONENTS(0,0,0,0,0,0,0);
#32= IFCCONVERSIONBASEDUNIT(#31,.PLANEANGLEUNIT.,'DEGREE',#30);
#33= IFCSIUNIT(*,.SOLIDANGLEUNIT.,$,.STERADIAN.);
#34= IFCSIUNIT(*,.THERMODYNAMICTEMPERATUREUNIT.,$,.DEGREE_CELSIUS.);
#35= IFCSIUNIT(*,.LUMINOUSINTENSITYUNIT.,$,.LUMEN.);
#36= IFCUNITASSIGNMENT((#15,#19,#23,#27,#28,#29,#33,#34,#35));
#37= IFCPROJECT('2G7ZFDNE16yBDU14FA92Me',#5,'Proyecto',$,$,$,$,(#11),#36);
#38= IFCLOCALPLACEMENT($,#10);
#39= IFCSITE('2xvEzEinjBTea80yOTcujY',#5,'Obra',$,$,#38,$,$,.ELEMENT.,$,$,$,$,$);
#40= IFCLOCALPLACEMENT(#38,#10);
#41= IFCBUILDING('3wRsjSujfBuO695AWnVMjv',#5,'Undefined',$,$,#40,$,$,.ELEMENT.,$,$,$);
#42= IFCLOCALPLACEMENT(#40,#10);
#43= IFCBUILDINGSTOREY('29hdEUCErFze9E_VIAceOd',#5,'Undefined',$,$,#42,$,$,.ELEMENT.,0.);
#44= IFCOWNERHISTORY(#3,#4,$,.NOCHANGE.,$,$,$,1774551600);
#45= IFCCARTESIANPOINT((17203.,1603.28932952881,13675.));
#46= IFCAXIS2PLACEMENT3D(#45,#9,#7);
#47= IFCLOCALPLACEMENT(#42,#46);
#48= IFCDIRECTION((1.,0.));
#49= IFCCARTESIANPOINT((0.,0.));
#50= IFCAXIS2PLACEMENT2D(#49,#48);
#51= IFCISHAPEPROFILEDEF(.AREA.,'IPE450',#50,190.,450.,9.399999619,14.60000038,21.);
#52= IFCDIRECTION((0.,-1.,0.));
#53= IFCDIRECTION((-1.,0.,0.));
#54= IFCCARTESIANPOINT((8134.24011586888,0.,0.));
#55= IFCAXIS2PLACEMENT3D(#54,#53,#52);
#56= IFCEXTRUDEDAREASOLID(#51,#55,#9,8114.24);
#57= IFCCARTESIANPOINT((8134.24011586888,1.9349499780219E-10,-325.));
#58= IFCAXIS2PLACEMENT3D(#57,#53,#8);
#59= IFCPLANE(#58);
#60= IFCHALFSPACESOLID(#59,.T.);
#61= IFCBOOLEANCLIPPINGRESULT(.DIFFERENCE.,#56,#60);
#62= IFCCARTESIANPOINT((20.,-1.21996704305457,-325.));
#63= IFCAXIS2PLACEMENT3D(#62,#7,#52);
#64= IFCPLANE(#63);
#65= IFCHALFSPACESOLID(#64,.T.);
#66= IFCBOOLEANCLIPPINGRESULT(.DIFFERENCE.,#61,#65);
#67= IFCSHAPEREPRESENTATION(#12,'Body','Clipping',(#66));
#68= IFCPRODUCTDEFINITIONSHAPE($,$,(#67));
#69= IFCBEAM('3e$_TAEQX42hVns31ICYZZ',#44,'BEAM','IPE450','IPE450',#47,#68,'IDe8ffe74a-39a8-440a-b7f1-d830523228e3');
#70= IFCLOCALPLACEMENT(#42,#46);
#71= IFCRECTANGLEPROFILEDEF(.AREA.,'PL59*168.6',#50,59.,168.6);
#72= IFCDIRECTION((0.,0.,-1.));
#73= IFCCARTESIANPOINT((8221.92083953612,96.,-196.5));
#74= IFCAXIS2PLACEMENT3D(#73,#52,#72);
#75= IFCEXTRUDEDAREASOLID(#71,#74,#9,192.);
#76= IFCSHAPEREPRESENTATION(#12,'Body','SweptSolid',(#75));
#77= IFCPRODUCTDEFINITIONSHAPE($,$,(#76));
#78= IFCOPENINGELEMENT('2UJMv69kn9G9eY2lJUUdQr',#5,$,$,'Recess',#70,#77,$);
#79= IFCRELVOIDSELEMENT('0rH4pkG4P0CeKrG2EwrSyl',#5,$,$,#69,#78);
#80= IFCPROPERTYSINGLEVALUE('FeatureSubTypes',$,$,$);
#81= IFCPROPERTYSINGLEVALUE('RectangleOpeningWidth',$,IFCPOSITIVELENGTHMEASURE(59.),$);
#82= IFCPROPERTYSINGLEVALUE('RectangleOpeningHeight',$,IFCPOSITIVELENGTHMEASURE(168.6),$);
#83= IFCPROPERTYSINGLEVALUE('OpeningDiameter',$,$,$);
#84= IFCPROPERTYSET('3uD3Mkj4v9ER3$26ggAu_q',#5,'AISC_EM11_Pset_Opening/Cope',$,(#80,#81,#82,#83));
#85= IFCLOCALPLACEMENT(#42,#46);
#86= IFCRECTANGLEPROFILEDEF(.AREA.,'PL49*168.6',#50,49.,168.6);
#87= IFCCARTESIANPOINT((8221.92083953612,96.,201.5));
#88= IFCAXIS2PLACEMENT3D(#87,#52,#72);
#89= IFCEXTRUDEDAREASOLID(#86,#88,#9,192.);
#90= IFCSHAPEREPRESENTATION(#12,'Body','SweptSolid',(#89));
#91= IFCPRODUCTDEFINITIONSHAPE($,$,(#90));
#92= IFCOPENINGELEMENT('1udRkAqX51JRYrL3Dds6AP',#5,$,$,'Recess',#85,#91,$);
#93= IFCRELVOIDSELEMENT('3Rpq$iiRz6GO10I$X9ZI4k',#5,$,$,#69,#92);
#94= IFCPROPERTYSINGLEVALUE('RectangleOpeningWidth',$,IFCPOSITIVELENGTHMEASURE(49.),$);
#95= IFCPROPERTYSET('2qLPOzp5zCXxn4A6JgjqnS',#5,'AISC_EM11_Pset_Opening/Cope',$,(#80,#94,#82,#83));
#96= IFCLOCALPLACEMENT(#42,#46);
#97= IFCRECTANGLEPROFILEDEF(.AREA.,'PL108*12',#50,12.,108.);
#98= IFCCARTESIANPOINT((4.,40.7800329569454,226.));
#99= IFCAXIS2PLACEMENT3D(#98,#72,#7);
#100= IFCEXTRUDEDAREASOLID(#97,#99,#9,452.);
#101= IFCSHAPEREPRESENTATION(#12,'Body','SweptSolid',(#100));
#102= IFCPRODUCTDEFINITIONSHAPE($,$,(#101));
#103= IFCOPENINGELEMENT('2a0QYzk4vChvKiYO8$ypSa',#5,$,$,'Recess',#96,#102,$);
#104= IFCRELVOIDSELEMENT('2Gsd80j7HDtvlMagKtANZj',#5,$,$,#69,#103);
#105= IFCPROPERTYSINGLEVALUE('RectangleOpeningWidth',$,IFCPOSITIVELENGTHMEASURE(12.),$);
#106= IFCPROPERTYSINGLEVALUE('RectangleOpeningHeight',$,IFCPOSITIVELENGTHMEASURE(108.),$);
#107= IFCPROPERTYSET('1j$b9sTeDBdh3rHjNxthOR',#5,'AISC_EM11_Pset_Opening/Cope',$,(#80,#105,#106,#83));
#108= IFCLOCALPLACEMENT(#42,#46);
#109= IFCCARTESIANPOINT((4.,-43.2199670430546,226.));
#110= IFCAXIS2PLACEMENT3D(#109,#72,#7);
#111= IFCEXTRUDEDAREASOLID(#97,#110,#9,452.);
#112= IFCSHAPEREPRESENTATION(#12,'Body','SweptSolid',(#111));
#113= IFCPRODUCTDEFINITIONSHAPE($,$,(#112));
#114= IFCOPENINGELEMENT('1HaQJT9cDEyx6sTtHj8K5x',#5,$,$,'Recess',#108,#113,$);
#115= IFCRELVOIDSELEMENT('1h9TJVM2r1UQwlTwFH987r',#5,$,$,#69,#114);
#116= IFCCARTESIANPOINT((25337.2401158684,1603.28932952606,13855.));
#117= IFCAXIS2PLACEMENT3D(#116,#53,#72);
#118= IFCLOCALPLACEMENT(#42,#117);
#119= IFCCIRCLEPROFILEDEF(.AREA.,$,#50,11.5);
#120= IFCCARTESIANPOINT((0.,-4.79999981225305,0.));
#121= IFCAXIS2PLACEMENT3D(#120,#8,#7);
#122= IFCEXTRUDEDAREASOLID(#119,#121,#9,9.6);
#123= IFCSHAPEREPRESENTATION(#12,'Body','SweptSolid',(#122));
#124= IFCREPRESENTATIONMAP(#10,#123);
#125= IFCCARTESIANPOINT((40.,0.,40.));
#126= IFCCARTESIANTRANSFORMATIONOPERATOR3D($,$,#125,$,$);
#127= IFCMAPPEDITEM(#124,#126);
#128= IFCCARTESIANPOINT((110.,0.,40.));
#129= IFCCARTESIANTRANSFORMATIONOPERATOR3D($,$,#128,$,$);
#130= IFCMAPPEDITEM(#124,#129);
#131= IFCCARTESIANPOINT((180.,0.,40.));
#132= IFCCARTESIANTRANSFORMATIONOPERATOR3D($,$,#131,$,$);
#133= IFCMAPPEDITEM(#124,#132);
#134= IFCCARTESIANPOINT((250.,0.,40.));
#135= IFCCARTESIANTRANSFORMATIONOPERATOR3D($,$,#134,$,$);
#136= IFCMAPPEDITEM(#124,#135);
#137= IFCCARTESIANPOINT((320.,0.,40.));
#138= IFCCARTESIANTRANSFORMATIONOPERATOR3D($,$,#137,$,$);
#139= IFCMAPPEDITEM(#124,#138);
#140= IFCSHAPEREPRESENTATION(#12,'Body','MappedRepresentation',(#127,#130,#133,#136,#139));
#141= IFCPRODUCTDEFINITIONSHAPE($,$,(#140));
#142= IFCOPENINGELEMENT('2k2aYsB$nCj92UerHn2S6u',#5,$,$,'Opening',#118,#141,$);
#143= IFCRELVOIDSELEMENT('1y6kqpalT278FdR4LfMWBm',#5,'Drill Hole',$,#69,#142);
#144= IFCPROPERTYSINGLEVALUE('FeatureSubTypes',$,IFCLABEL('TORNILLO'),$);
#145= IFCPROPERTYSINGLEVALUE('RectangleOpeningWidth',$,$,$);
#146= IFCPROPERTYSINGLEVALUE('RectangleOpeningHeight',$,$,$);
#147= IFCPROPERTYSET('3Y0PLFQ$5E5BiesCrxycPd',#5,'AISC_EM11_Pset_Opening/Cope',$,(#144,#145,#146,#83));
#148= IFCCARTESIANPOINT((25297.2820539837,1603.28932952881,13450.));
#149= IFCDIRECTION((-0.00128331599942248,0.999999176549684,0.));
#150= IFCDIRECTION((-0.999999176549684,-0.00128331599942217,0.));
#151= IFCAXIS2PLACEMENT3D(#148,#149,#150);
#152= IFCLOCALPLACEMENT(#42,#151);
#153= IFCCARTESIANPOINT((0.,-0.1,0.));
#154= IFCAXIS2PLACEMENT3D(#153,#8,#7);
#155= IFCEXTRUDEDAREASOLID(#119,#154,#9,14.8);
#156= IFCSHAPEREPRESENTATION(#12,'Body','SweptSolid',(#155));
#157= IFCREPRESENTATIONMAP(#10,#156);
#158= IFCCARTESIANPOINT((-2.18278728425503E-11,0.,-49.9999999999955));
#159= IFCCARTESIANTRANSFORMATIONOPERATOR3D($,$,#158,$,$);
#160= IFCMAPPEDITEM(#157,#159);
#161= IFCCARTESIANPOINT((70.000000000131,0.,-49.9999999999318));
#162= IFCCARTESIANTRANSFORMATIONOPERATOR3D($,$,#161,$,$);
#163= IFCMAPPEDITEM(#157,#162);
#164= IFCCARTESIANPOINT((140.000000000284,0.,-49.9999999998679));
#165= IFCCARTESIANTRANSFORMATIONOPERATOR3D($,$,#164,$,$);
#166= IFCMAPPEDITEM(#157,#165);
#167= IFCCARTESIANPOINT((210.000000000433,0.,-49.999999999804));
#168= IFCCARTESIANTRANSFORMATIONOPERATOR3D($,$,#167,$,$);
#169= IFCMAPPEDITEM(#157,#168);
#170= IFCCARTESIANPOINT((280.000000000586,0.,-49.9999999997403));
#171= IFCCARTESIANTRANSFORMATIONOPERATOR3D($,$,#170,$,$);
#172= IFCMAPPEDITEM(#157,#171);
#173= IFCCARTESIANPOINT((350.000000000739,0.,-49.9999999996764));
#174= IFCCARTESIANTRANSFORMATIONOPERATOR3D($,$,#173,$,$);
#175= IFCMAPPEDITEM(#157,#174);
#176= IFCCARTESIANPOINT((420.000000000891,0.,-49.9999999996128));
#177= IFCCARTESIANTRANSFORMATIONOPERATOR3D($,$,#176,$,$);
#178= IFCMAPPEDITEM(#157,#177);
#179= IFCCARTESIANPOINT((2.5465851649642E-11,0.,49.9999999999952));
#180= IFCCARTESIANTRANSFORMATIONOPERATOR3D($,$,#179,$,$);
#181= IFCMAPPEDITEM(#157,#180);
#182= IFCCARTESIANPOINT((70.0000000001783,0.,50.0000000000591));
#183= IFCCARTESIANTRANSFORMATIONOPERATOR3D($,$,#182,$,$);
#184= IFCMAPPEDITEM(#157,#183);
#185= IFCCARTESIANPOINT((140.000000000331,0.,50.0000000001228));
#186= IFCCARTESIANTRANSFORMATIONOPERATOR3D($,$,#185,$,$);
#187= IFCMAPPEDITEM(#157,#186);
#188= IFCCARTESIANPOINT((210.000000000484,0.,50.0000000001864));
#189= IFCCARTESIANTRANSFORMATIONOPERATOR3D($,$,#188,$,$);
#190= IFCMAPPEDITEM(#157,#189);
#191= IFCCARTESIANPOINT((280.000000000633,0.,50.0000000002501));
#192= IFCCARTESIANTRANSFORMATIONOPERATOR3D($,$,#191,$,$);
#193= IFCMAPPEDITEM(#157,#192);
#194= IFCCARTESIANPOINT((350.000000000786,0.,50.000000000314));
#195= IFCCARTESIANTRANSFORMATIONOPERATOR3D($,$,#194,$,$);
#196= IFCMAPPEDITEM(#157,#195);
#197= IFCCARTESIANPOINT((420.000000000939,0.,50.0000000003779));
#198= IFCCARTESIANTRANSFORMATIONOPERATOR3D($,$,#197,$,$);
#199= IFCMAPPEDITEM(#157,#198);
#200= IFCSHAPEREPRESENTATION(#12,'Body','MappedRepresentation',(#160,#163,#166,#169,#172,#175,#178,#181,#184,#187,#190,#193,#196,#199));
#201= IFCPRODUCTDEFINITIONSHAPE($,$,(#200));
#202= IFCOPENINGELEMENT('0T4UODKln5lP4dMdQJjwxZ',#5,$,$,'Opening',#152,#201,$);
#203= IFCRELVOIDSELEMENT('2gEHxup6jDGgjyr09uhFyF',#5,'Drill Hole',$,#69,#202);
#204= IFCCARTESIANPOINT((25297.303786769,1603.28932952881,13900.));
#205= IFCDIRECTION((0.00127341800025897,-0.99999918920297,0.));
#206= IFCDIRECTION((-0.99999918920297,-0.00127341800025859,0.));
#207= IFCAXIS2PLACEMENT3D(#204,#205,#206);
#208= IFCLOCALPLACEMENT(#42,#207);
#209= IFCSHAPEREPRESENTATION(#12,'Body','MappedRepresentation',(#160,#163,#166,#169,#172,#175,#178,#181,#184,#187,#190,#193,#196,#199));
#210= IFCPRODUCTDEFINITIONSHAPE($,$,(#209));
#211= IFCOPENINGELEMENT('13C1n2A9jDGPuOG8Ef3SoB',#5,$,$,'Opening',#208,#210,$);
#212= IFCRELVOIDSELEMENT('3cUCQiL6H9AxKQYCM1l_Oh',#5,'Drill Hole',$,#69,#211);
#213= IFCCARTESIANPOINT((17262.964924975,1602.37645733475,13450.));
#214= IFCDIRECTION((0.000467666999833455,-0.999999890643783,0.));
#215= IFCDIRECTION((0.999999890643783,0.000467666999833569,0.));
#216= IFCAXIS2PLACEMENT3D(#213,#214,#215);
#217= IFCLOCALPLACEMENT(#42,#216);
#218= IFCSHAPEREPRESENTATION(#12,'Body','MappedRepresentation',(#160,#163,#166,#169,#172,#175,#178,#181,#184,#187,#190,#193,#196,#199));
#219= IFCPRODUCTDEFINITIONSHAPE($,$,(#218));
#220= IFCOPENINGELEMENT('0X$gv7WVHCoAQE3M9xtNPD',#5,$,$,'Opening',#217,#219,$);
#221= IFCRELVOIDSELEMENT('1ymdrCKuPDbP7pbdriWvqo',#5,'Drill Hole',$,#69,#220);
#222= IFCCARTESIANPOINT((17223.,1602.06936248575,13900.));
#223= IFCAXIS2PLACEMENT3D(#222,#7,#72);
#224= IFCLOCALPLACEMENT(#42,#223);
#225= IFCCARTESIANPOINT((0.,-3.58003276644545,0.));
#226= IFCAXIS2PLACEMENT3D(#225,#8,#7);
#227= IFCEXTRUDEDAREASOLID(#119,#226,#9,9.6);
#228= IFCSHAPEREPRESENTATION(#12,'Body','SweptSolid',(#227));
#229= IFCREPRESENTATIONMAP(#10,#228);
#230= IFCCARTESIANPOINT((85.,0.,40.));
#231= IFCCARTESIANTRANSFORMATIONOPERATOR3D($,$,#230,$,$);
#232= IFCMAPPEDITEM(#229,#231);
#233= IFCCARTESIANPOINT((155.,0.,40.));
#234= IFCCARTESIANTRANSFORMATIONOPERATOR3D($,$,#233,$,$);
#235= IFCMAPPEDITEM(#229,#234);
#236= IFCCARTESIANPOINT((225.,0.,40.));
#237= IFCCARTESIANTRANSFORMATIONOPERATOR3D($,$,#236,$,$);
#238= IFCMAPPEDITEM(#229,#237);
#239= IFCCARTESIANPOINT((295.,0.,40.));
#240= IFCCARTESIANTRANSFORMATIONOPERATOR3D($,$,#239,$,$);
#241= IFCMAPPEDITEM(#229,#240);
#242= IFCCARTESIANPOINT((365.,0.,40.));
#243= IFCCARTESIANTRANSFORMATIONOPERATOR3D($,$,#242,$,$);
#244= IFCMAPPEDITEM(#229,#243);
#245= IFCSHAPEREPRESENTATION(#12,'Body','MappedRepresentation',(#232,#235,#238,#241,#244));
#246= IFCPRODUCTDEFINITIONSHAPE($,$,(#245));
#247= IFCOPENINGELEMENT('1Zjt20VD94$AjxVHjg6$Jf',#5,$,$,'Opening',#224,#246,$);
#248= IFCRELVOIDSELEMENT('1HGnJe32L2EObPPLx1m6ka',#5,'Drill Hole',$,#69,#247);
#249= IFCCARTESIANPOINT((17262.964924975,1602.37645733475,13900.));
#250= IFCDIRECTION((-0.000467666999833455,0.999999890643783,0.));
#251= IFCAXIS2PLACEMENT3D(#249,#250,#215);
#252= IFCLOCALPLACEMENT(#42,#251);
#253= IFCSHAPEREPRESENTATION(#12,'Body','MappedRepresentation',(#160,#163,#166,#169,#172,#175,#178,#181,#184,#187,#190,#193,#196,#199));
#254= IFCPRODUCTDEFINITIONSHAPE($,$,(#253));
#255= IFCOPENINGELEMENT('3Mhw2SdyH6MgVVmykuXSIR',#5,$,$,'Opening',#252,#254,$);
#256= IFCRELVOIDSELEMENT('3CQI93XP15ouypqHPwEDuR',#5,'Drill Hole',$,#69,#255);
#257= IFCPROPERTYSINGLEVALUE('PieceMark',$,IFCIDENTIFIER('BEAM'),$);
#258= IFCPROPERTYSINGLEVALUE('IndicationMark',$,IFCIDENTIFIER('b/3'),$);
#259= IFCPROPERTYSINGLEVALUE('PrelimMark',$,IFCIDENTIFIER(''),$);
#260= IFCPROPERTYSINGLEVALUE('MainPieceTag',$,IFCBOOLEAN(.T.),$);
#261= IFCPROPERTYSET('33NF4xkkb5nvAo_ujWbEQV',#5,'AISC_EM11_Pset_PieceIdentification','PieceIdentity',(#257,#258,#259,#260));
#262= IFCPROPERTYSINGLEVALUE('MaterialType',$,IFCIDENTIFIER('STEEL'),$);
#263= IFCPROPERTYSINGLEVALUE('MaterialGrade',$,IFCIDENTIFIER('S235JR'),$);
#264= IFCPROPERTYSET('24KtFCNSH0ieF$GXL7yMeL',#5,'AISC_EM11_Pset_Material',$,(#262,#263));
#265= IFCPROPERTYSINGLEVALUE('SkewedAngleY',$,IFCREAL(0.),$);
#266= IFCPROPERTYSINGLEVALUE('SkewedAngleX',$,IFCREAL(0.),$);
#267= IFCPROPERTYSET('18n5N9Qmr3DOKDCDgroCNC',#5,'AISC_EM11_Pset_SkewedEnd',$,(#265,#266));
#268= IFCPROPERTYSET('2LZXxKgdr2n8CmKHbRMuyQ',#5,'AISC_EM11_Pset_SkewedEnd_2',$,(#265,#266));
#269= IFCMATERIAL('STEEL/S235JR');
#270= IFCRELAGGREGATES('1yAlFJSHb5ehEzSgwTaH_5',#5,$,$,#37,(#39));
#271= IFCRELAGGREGATES('2ES1XbkZtNwzWFkyClsZGN',#5,$,$,#39,(#41));
#272= IFCRELAGGREGATES('07yMXrTIr5B8fU1pAqvS6$',#5,$,$,#41,(#43));
#273= IFCRELCONTAINEDINSPATIALSTRUCTURE('3y6D1RKTj9LB1nZV$Jltj9',#5,$,$,(#69),#43);
#274= IFCRELDEFINESBYPROPERTIES('38R0gaVDz9eeA_bjUXGn9C',#5,$,$,(#78),#84);
#275= IFCRELDEFINESBYPROPERTIES('18FyS6qwz8q9snXgFa4dyq',#5,$,$,(#92),#95);
#276= IFCRELDEFINESBYPROPERTIES('30JGKJkRz2v8cB3HrjWKL0',#5,$,$,(#114,#103),#107);
#277= IFCRELDEFINESBYPROPERTIES('2dx2ox_bTDNRjvFI7Wd_XJ',#5,$,$,(#255,#247,#220,#211,#202,#142),#147);
#278= IFCRELDEFINESBYPROPERTIES('1yxkhJRKXCYhOYvpJ7E9KW',#5,$,$,(#69),#261);
#279= IFCRELDEFINESBYPROPERTIES('33Ez7$0hn22QoI9OELAG$H',#5,$,$,(#69),#264);
#280= IFCRELDEFINESBYPROPERTIES('0JslEfwZXFBvxmYJwOcMbK',#5,$,$,(#69),#267);
#281= IFCRELDEFINESBYPROPERTIES('2om07MFTz6XwQMf7MhQN$N',#5,$,$,(#69),#268);
#282= IFCRELASSOCIATESMATERIAL('20rTJbMKj5K9Nb33BI9I_r',#5,$,$,(#69),#269);
ENDSEC;

END-ISO-10303-21;
