ISO-10303-21;
HEADER;
FILE_DESCRIPTION(('ViewDefinition[AISC_Steel_Detailing]', 'Option [BaseQuantities:Off]', 'Option [GridExport:On]', 'Option [Assemblies:Off]', 'Option [Bolts:On]', 'Option [Rebars:On]', 'Option [PourObjects:Off]', 'Option [Welds:On]', 'Option [SurfaceTreatments:On]', 'Option [LocationBy:0]', 'Option [ViewColors:Off]', 'Option [SectionedSpine:Off]', 'Option [PropertySets:On]', 'Option [Export all:Off]'),'2;1');
FILE_NAME('b_40_Qty_1.ifc','2026-05-16T11:53:17',('GIOVANNIPC\\gcorrea'),('Structural Designer'),'IFC Database version: Work','Tekla Structures 2020 Service Pack 5, IFC Export Version: 4.0.0.0 Dec  7 2020','');
FILE_SCHEMA(('IFC2X3'));
ENDSEC;

DATA;
#1= IFCPERSON('GIOVANNIPC\\gcorrea','Undefined',$,$,$,$,$,$);
#2= IFCORGANIZATION($,'Trimble Solutions Corporation',$,$,$);
#3= IFCPERSONANDORGANIZATION(#1,#2,$);
#4= IFCAPPLICATION(#2,'2020 Service Pack 5','Tekla Structures','Multi material modeling');
#5= IFCOWNERHISTORY(#3,#4,$,.NOCHANGE.,$,$,$,1778950397);
#6= IFCCARTESIANPOINT((0.,0.,0.));
#7= IFCDIRECTION((1.,0.,0.));
#8= IFCDIRECTION((0.,1.,0.));
#9= IFCDIRECTION((0.,0.,1.));
#10= IFCAXIS2PLACEMENT3D(#6,#9,#7);
#11= IFCGEOMETRICREPRESENTATIONCONTEXT($,'Model',3,1.E-05,#10,$);
#12= IFCGEOMETRICREPRESENTATIONSUBCONTEXT('Body','Model',*,*,*,*,#11,$,.MODEL_VIEW.,$);
#13= IFCGEOMETRICREPRESENTATIONSUBCONTEXT('Axis','Model',*,*,*,*,#11,$,.GRAPH_VIEW.,$);
#14= IFCGEOMETRICREPRESENTATIONSUBCONTEXT('FootPrint','Model',*,*,*,*,#11,$,.MODEL_VIEW.,$);
#15= IFCSIUNIT(*,.LENGTHUNIT.,.MILLI.,.METRE.);
#16= IFCMEASUREWITHUNIT(IFCRATIOMEASURE(304.8),#15);
#17= IFCDIMENSIONALEXPONENTS(1,0,0,0,0,0,0);
#18= IFCCONVERSIONBASEDUNIT(#17,.LENGTHUNIT.,'FOOT',#16);
#19= IFCSIUNIT(*,.AREAUNIT.,$,.SQUARE_METRE.);
#20= IFCMEASUREWITHUNIT(IFCRATIOMEASURE(0.09290304),#19);
#21= IFCDIMENSIONALEXPONENTS(2,0,0,0,0,0,0);
#22= IFCCONVERSIONBASEDUNIT(#21,.AREAUNIT.,'SQUARE FOOT',#20);
#23= IFCSIUNIT(*,.VOLUMEUNIT.,$,.CUBIC_METRE.);
#24= IFCMEASUREWITHUNIT(IFCRATIOMEASURE(0.028316846592),#23);
#25= IFCDIMENSIONALEXPONENTS(3,0,0,0,0,0,0);
#26= IFCCONVERSIONBASEDUNIT(#25,.VOLUMEUNIT.,'CUBIC FOOT',#24);
#27= IFCSIUNIT(*,.MASSUNIT.,.KILO.,.GRAM.);
#28= IFCSIUNIT(*,.TIMEUNIT.,$,.SECOND.);
#29= IFCSIUNIT(*,.PLANEANGLEUNIT.,$,.RADIAN.);
#30= IFCMEASUREWITHUNIT(IFCRATIOMEASURE(0.0174532925199433),#29);
#31= IFCDIMENSIONALEXPONENTS(0,0,0,0,0,0,0);
#32= IFCCONVERSIONBASEDUNIT(#31,.PLANEANGLEUNIT.,'DEGREE',#30);
#33= IFCSIUNIT(*,.SOLIDANGLEUNIT.,$,.STERADIAN.);
#34= IFCSIUNIT(*,.THERMODYNAMICTEMPERATUREUNIT.,$,.DEGREE_CELSIUS.);
#35= IFCSIUNIT(*,.LUMINOUSINTENSITYUNIT.,$,.LUMEN.);
#36= IFCUNITASSIGNMENT((#15,#19,#23,#27,#28,#29,#33,#34,#35));
#37= IFCPROJECT('2G7ZFDNE16yBDU14FA92Me',#5,'Proyecto',$,$,$,$,(#11),#36);
#38= IFCLOCALPLACEMENT($,#10);
#39= IFCSITE('2xvEzEinjBTea80yOTcujY',#5,'Obra',$,$,#38,$,$,.ELEMENT.,$,$,$,$,$);
#40= IFCLOCALPLACEMENT(#38,#10);
#41= IFCBUILDING('2xthuXxYX4OAuXrODW36J2',#5,'Undefined',$,$,#40,$,$,.ELEMENT.,$,$,$);
#42= IFCLOCALPLACEMENT(#40,#10);
#43= IFCBUILDINGSTOREY('29hdEUCErFze9E_VIAceOd',#5,'Undefined',$,$,#42,$,$,.ELEMENT.,0.);
#44= IFCOWNERHISTORY(#3,#4,$,.NOCHANGE.,$,$,$,1774792800);
#45= IFCCARTESIANPOINT((5768.04566018113,1698.29034885947,13675.));
#46= IFCDIRECTION((-0.000188027000060767,0.999999982322924,0.));
#47= IFCAXIS2PLACEMENT3D(#45,#9,#46);
#48= IFCLOCALPLACEMENT(#42,#47);
#49= IFCDIRECTION((1.,0.));
#50= IFCCARTESIANPOINT((0.,0.));
#51= IFCAXIS2PLACEMENT2D(#50,#49);
#52= IFCISHAPEPROFILEDEF(.AREA.,'IPE450',#51,190.,450.,9.399999619,14.60000038,21.);
#53= IFCDIRECTION((2.71050543121376E-20,-1.,0.));
#54= IFCDIRECTION((-1.,-2.71050543121376E-20,0.));
#55= IFCCARTESIANPOINT((6313.9974462441,9.09665843016635E-13,1.81898940354586E-12));
#56= IFCAXIS2PLACEMENT3D(#55,#54,#53);
#57= IFCEXTRUDEDAREASOLID(#52,#56,#9,6304.34);
#58= IFCDIRECTION((-0.999999974650136,0.000225165999287887,0.));
#59= IFCCARTESIANPOINT((6313.95569020662,0.0349007298382276,-324.999999999998));
#60= IFCDIRECTION((0.000225165999287887,0.999999974650136,0.));
#61= IFCAXIS2PLACEMENT3D(#59,#58,#60);
#62= IFCPLANE(#61);
#63= IFCHALFSPACESOLID(#62,.T.);
#64= IFCBOOLEANCLIPPINGRESULT(.DIFFERENCE.,#57,#63);
#65= IFCDIRECTION((0.99999996667722,0.000258158010973529,0.));
#66= IFCCARTESIANPOINT((9.69999346760346,0.0258158011092746,-324.999999999998));
#67= IFCDIRECTION((0.000258158010973529,-0.99999996667722,0.));
#68= IFCAXIS2PLACEMENT3D(#66,#65,#67);
#69= IFCPLANE(#68);
#70= IFCHALFSPACESOLID(#69,.T.);
#71= IFCBOOLEANCLIPPINGRESULT(.DIFFERENCE.,#64,#70);
#72= IFCSHAPEREPRESENTATION(#12,'Body','Clipping',(#71));
#73= IFCPRODUCTDEFINITIONSHAPE($,$,(#72));
#74= IFCBEAM('2smOOdzNLFOAvHOV8mczV$',#44,'BEAM','IPE450','IPE450',#48,#73,'IDb6c18627-f575-4f60-ae51-61f2309bd7ff');
#75= IFCLOCALPLACEMENT(#42,#47);
#76= IFCRECTANGLEPROFILEDEF(.AREA.,'PL36.6*102.3',#51,36.6,102.3);
#77= IFCDIRECTION((0.,0.,-1.));
#78= IFCDIRECTION((-0.000258158010973597,0.99999996667722,0.));
#79= IFCCARTESIANPOINT((-41.1247947602676,-97.6406095015475,-207.699999809998));
#80= IFCAXIS2PLACEMENT3D(#79,#78,#77);
#81= IFCEXTRUDEDAREASOLID(#76,#80,#9,193.61);
#82= IFCSHAPEREPRESENTATION(#12,'Body','SweptSolid',(#81));
#83= IFCPRODUCTDEFINITIONSHAPE($,$,(#82));
#84= IFCOPENINGELEMENT('3yPieGf419bx3zp4FSxMp8',#5,$,$,'Recess',#75,#83,$);
#85= IFCRELVOIDSELEMENT('2KgPzgXVXD8fy6W_h0PubW',#5,$,$,#74,#84);
#86= IFCPROPERTYSINGLEVALUE('FeatureSubTypes',$,$,$);
#87= IFCPROPERTYSINGLEVALUE('RectangleOpeningWidth',$,IFCPOSITIVELENGTHMEASURE(36.6),$);
#88= IFCPROPERTYSINGLEVALUE('RectangleOpeningHeight',$,IFCPOSITIVELENGTHMEASURE(102.3),$);
#89= IFCPROPERTYSINGLEVALUE('OpeningDiameter',$,$,$);
#90= IFCPROPERTYSET('2eaNJxnVj1zxPiHmjNXSOj',#5,'AISC_EM11_Pset_Opening/Cope',$,(#86,#87,#88,#89));
#91= IFCLOCALPLACEMENT(#42,#47);
#92= IFCCARTESIANPOINT((-41.1247947602676,-97.6406095015475,207.699999810002));
#93= IFCAXIS2PLACEMENT3D(#92,#78,#77);
#94= IFCEXTRUDEDAREASOLID(#76,#93,#9,193.61);
#95= IFCSHAPEREPRESENTATION(#12,'Body','SweptSolid',(#94));
#96= IFCPRODUCTDEFINITIONSHAPE($,$,(#95));
#97= IFCOPENINGELEMENT('1YB6oiaAf0Ww6yhnsbcqof',#5,$,$,'Recess',#91,#96,$);
#98= IFCRELVOIDSELEMENT('1jJWxVOKzDnwL5SkMXwtMU',#5,$,$,#74,#97);
#99= IFCLOCALPLACEMENT(#42,#47);
#100= IFCRECTANGLEPROFILEDEF(.AREA.,'PL59*156.3',#51,59.,156.3);
#101= IFCDIRECTION((-0.000225165999284716,-0.999999974650136,0.));
#102= IFCCARTESIANPOINT((6392.85229552458,95.978862517361,-196.499999999998));
#103= IFCAXIS2PLACEMENT3D(#102,#101,#77);
#104= IFCEXTRUDEDAREASOLID(#100,#103,#9,193.42);
#105= IFCSHAPEREPRESENTATION(#12,'Body','SweptSolid',(#104));
#106= IFCPRODUCTDEFINITIONSHAPE($,$,(#105));
#107= IFCOPENINGELEMENT('1zrNxpacn5OA5ln$uSStFb',#5,$,$,'Recess',#99,#106,$);
#108= IFCRELVOIDSELEMENT('2GPWJr$mj1bfBvnJpYaElA',#5,$,$,#74,#107);
#109= IFCPROPERTYSINGLEVALUE('RectangleOpeningWidth',$,IFCPOSITIVELENGTHMEASURE(59.),$);
#110= IFCPROPERTYSINGLEVALUE('RectangleOpeningHeight',$,IFCPOSITIVELENGTHMEASURE(156.3),$);
#111= IFCPROPERTYSET('38bTWIr$f6lQe4z2ZXLlkH',#5,'AISC_EM11_Pset_Opening/Cope',$,(#86,#109,#110,#89));
#112= IFCLOCALPLACEMENT(#42,#47);
#113= IFCRECTANGLEPROFILEDEF(.AREA.,'PL49*156.3',#51,49.,156.3);
#114= IFCCARTESIANPOINT((6392.85229552458,95.978862517361,201.500000000002));
#115= IFCAXIS2PLACEMENT3D(#114,#101,#77);
#116= IFCEXTRUDEDAREASOLID(#113,#115,#9,193.42);
#117= IFCSHAPEREPRESENTATION(#12,'Body','SweptSolid',(#116));
#118= IFCPRODUCTDEFINITIONSHAPE($,$,(#117));
#119= IFCOPENINGELEMENT('2jmNKpZVb21QA2k5PGqAhr',#5,$,$,'Recess',#112,#118,$);
#120= IFCRELVOIDSELEMENT('28NcYG4wb9VhmBQYHZ1_PC',#5,$,$,#74,#119);
#121= IFCPROPERTYSINGLEVALUE('RectangleOpeningWidth',$,IFCPOSITIVELENGTHMEASURE(49.),$);
#122= IFCPROPERTYSET('2blq_B2WD0Sfgg8fXwaDdh',#5,'AISC_EM11_Pset_Opening/Cope',$,(#86,#121,#110,#89));
#123= IFCCARTESIANPOINT((5768.0180205198,1707.99033730178,13855.));
#124= IFCDIRECTION((-0.000446185000204423,0.999999900459468,0.));
#125= IFCAXIS2PLACEMENT3D(#123,#124,#77);
#126= IFCLOCALPLACEMENT(#42,#125);
#127= IFCCIRCLEPROFILEDEF(.AREA.,$,#51,11.5);
#128= IFCCARTESIANPOINT((0.,-4.83614208887163,0.));
#129= IFCAXIS2PLACEMENT3D(#128,#8,#7);
#130= IFCEXTRUDEDAREASOLID(#127,#129,#9,9.6);
#131= IFCSHAPEREPRESENTATION(#12,'Body','SweptSolid',(#130));
#132= IFCREPRESENTATIONMAP(#10,#131);
#133= IFCCARTESIANPOINT((40.,0.,39.9999999999982));
#134= IFCCARTESIANTRANSFORMATIONOPERATOR3D($,$,#133,$,$);
#135= IFCMAPPEDITEM(#132,#134);
#136= IFCCARTESIANPOINT((110.,0.,39.9999999999982));
#137= IFCCARTESIANTRANSFORMATIONOPERATOR3D($,$,#136,$,$);
#138= IFCMAPPEDITEM(#132,#137);
#139= IFCCARTESIANPOINT((180.,0.,39.9999999999982));
#140= IFCCARTESIANTRANSFORMATIONOPERATOR3D($,$,#139,$,$);
#141= IFCMAPPEDITEM(#132,#140);
#142= IFCCARTESIANPOINT((250.,0.,39.9999999999982));
#143= IFCCARTESIANTRANSFORMATIONOPERATOR3D($,$,#142,$,$);
#144= IFCMAPPEDITEM(#132,#143);
#145= IFCCARTESIANPOINT((320.,0.,39.9999999999982));
#146= IFCCARTESIANTRANSFORMATIONOPERATOR3D($,$,#145,$,$);
#147= IFCMAPPEDITEM(#132,#146);
#148= IFCSHAPEREPRESENTATION(#12,'Body','MappedRepresentation',(#135,#138,#141,#144,#147));
#149= IFCPRODUCTDEFINITIONSHAPE($,$,(#148));
#150= IFCOPENINGELEMENT('21PE1nYWDE1wHmXvJec3X2',#5,$,$,'Opening',#126,#149,$);
#151= IFCRELVOIDSELEMENT('12tC8wmg55d9GFH5mmEFgw',#5,'Drill Hole',$,#74,#150);
#152= IFCPROPERTYSINGLEVALUE('FeatureSubTypes',$,IFCLABEL('TORNILLO'),$);
#153= IFCPROPERTYSINGLEVALUE('RectangleOpeningWidth',$,$,$);
#154= IFCPROPERTYSINGLEVALUE('RectangleOpeningHeight',$,$,$);
#155= IFCPROPERTYSET('2BGfoxJx90H8Bf2c1DjY5R',#5,'AISC_EM11_Pset_Opening/Cope',$,(#152,#153,#154,#89));
#156= IFCCARTESIANPOINT((5766.82356530497,8012.24592089126,13855.));
#157= IFCDIRECTION((-3.71390000118481E-05,-0.999999999310347,0.));
#158= IFCAXIS2PLACEMENT3D(#156,#157,#77);
#159= IFCLOCALPLACEMENT(#42,#158);
#160= IFCCARTESIANPOINT((0.,-4.75609255829801,0.));
#161= IFCAXIS2PLACEMENT3D(#160,#8,#7);
#162= IFCEXTRUDEDAREASOLID(#127,#161,#9,9.6);
#163= IFCSHAPEREPRESENTATION(#12,'Body','SweptSolid',(#162));
#164= IFCREPRESENTATIONMAP(#10,#163);
#165= IFCMAPPEDITEM(#164,#134);
#166= IFCMAPPEDITEM(#164,#137);
#167= IFCMAPPEDITEM(#164,#140);
#168= IFCMAPPEDITEM(#164,#143);
#169= IFCMAPPEDITEM(#164,#146);
#170= IFCSHAPEREPRESENTATION(#12,'Body','MappedRepresentation',(#165,#166,#167,#168,#169));
#171= IFCPRODUCTDEFINITIONSHAPE($,$,(#170));
#172= IFCOPENINGELEMENT('1DiKq8im550QaaJ2BkMePW',#5,$,$,'Opening',#159,#171,$);
#173= IFCRELVOIDSELEMENT('0JXn8cIvLBt9osZz5jK6mX',#5,'Drill Hole',$,#74,#172);
#174= IFCCARTESIANPOINT((5766.85883797456,1748.11597078708,13450.));
#175= IFCDIRECTION((0.999999900408596,-0.000446299000181625,0.));
#176= IFCDIRECTION((0.000446299000181716,0.999999900408596,0.));
#177= IFCAXIS2PLACEMENT3D(#174,#175,#176);
#178= IFCLOCALPLACEMENT(#42,#177);
#179= IFCCIRCLEPROFILEDEF(.AREA.,$,#51,11.);
#180= IFCCARTESIANPOINT((0.,-0.0999999999994884,0.));
#181= IFCAXIS2PLACEMENT3D(#180,#8,#7);
#182= IFCEXTRUDEDAREASOLID(#179,#181,#9,14.8);
#183= IFCSHAPEREPRESENTATION(#12,'Body','SweptSolid',(#182));
#184= IFCREPRESENTATIONMAP(#10,#183);
#185= IFCCARTESIANPOINT((0.,0.,-49.9999999999918));
#186= IFCCARTESIANTRANSFORMATIONOPERATOR3D($,$,#185,$,$);
#187= IFCMAPPEDITEM(#184,#186);
#188= IFCCARTESIANPOINT((69.9999999999882,0.,-50.0000000000082));
#189= IFCCARTESIANTRANSFORMATIONOPERATOR3D($,$,#188,$,$);
#190= IFCMAPPEDITEM(#184,#189);
#191= IFCCARTESIANPOINT((139.999999999976,0.,-50.0000000000236));
#192= IFCCARTESIANTRANSFORMATIONOPERATOR3D($,$,#191,$,$);
#193= IFCMAPPEDITEM(#184,#192);
#194= IFCCARTESIANPOINT((209.999999999964,0.,-50.00000000004));
#195= IFCCARTESIANTRANSFORMATIONOPERATOR3D($,$,#194,$,$);
#196= IFCMAPPEDITEM(#184,#195);
#197= IFCCARTESIANPOINT((279.999999999952,0.,-50.0000000000555));
#198= IFCCARTESIANTRANSFORMATIONOPERATOR3D($,$,#197,$,$);
#199= IFCMAPPEDITEM(#184,#198);
#200= IFCCARTESIANPOINT((349.999999999941,0.,-50.0000000000719));
#201= IFCCARTESIANTRANSFORMATIONOPERATOR3D($,$,#200,$,$);
#202= IFCMAPPEDITEM(#184,#201);
#203= IFCCARTESIANPOINT((419.999999999928,0.,-50.0000000000873));
#204= IFCCARTESIANTRANSFORMATIONOPERATOR3D($,$,#203,$,$);
#205= IFCMAPPEDITEM(#184,#204);
#206= IFCCARTESIANPOINT((0.,0.,49.9999999999909));
#207= IFCCARTESIANTRANSFORMATIONOPERATOR3D($,$,#206,$,$);
#208= IFCMAPPEDITEM(#184,#207);
#209= IFCCARTESIANPOINT((69.9999999999882,0.,49.9999999999754));
#210= IFCCARTESIANTRANSFORMATIONOPERATOR3D($,$,#209,$,$);
#211= IFCMAPPEDITEM(#184,#210);
#212= IFCCARTESIANPOINT((139.999999999976,0.,49.9999999999591));
#213= IFCCARTESIANTRANSFORMATIONOPERATOR3D($,$,#212,$,$);
#214= IFCMAPPEDITEM(#184,#213);
#215= IFCCARTESIANPOINT((209.999999999964,0.,49.9999999999427));
#216= IFCCARTESIANTRANSFORMATIONOPERATOR3D($,$,#215,$,$);
#217= IFCMAPPEDITEM(#184,#216);
#218= IFCCARTESIANPOINT((279.999999999952,0.,49.9999999999272));
#219= IFCCARTESIANTRANSFORMATIONOPERATOR3D($,$,#218,$,$);
#220= IFCMAPPEDITEM(#184,#219);
#221= IFCCARTESIANPOINT((349.999999999941,0.,49.9999999999109));
#222= IFCCARTESIANTRANSFORMATIONOPERATOR3D($,$,#221,$,$);
#223= IFCMAPPEDITEM(#184,#222);
#224= IFCCARTESIANPOINT((419.999999999928,0.,49.9999999998954));
#225= IFCCARTESIANTRANSFORMATIONOPERATOR3D($,$,#224,$,$);
#226= IFCMAPPEDITEM(#184,#225);
#227= IFCSHAPEREPRESENTATION(#12,'Body','MappedRepresentation',(#187,#190,#193,#196,#199,#202,#205,#208,#211,#214,#217,#220,#223,#226));
#228= IFCPRODUCTDEFINITIONSHAPE($,$,(#227));
#229= IFCOPENINGELEMENT('2YHjaw2tn8QQViyG10yTjk',#5,$,$,'Opening',#178,#228,$);
#230= IFCRELVOIDSELEMENT('3WkGTVYq544wv4jRre1BSx',#5,'Drill Hole',$,#74,#229);
#231= IFCCARTESIANPOINT((5766.85883797456,1748.11597078708,13900.));
#232= IFCDIRECTION((-0.999999900408596,0.000446299000181625,0.));
#233= IFCAXIS2PLACEMENT3D(#231,#232,#176);
#234= IFCLOCALPLACEMENT(#42,#233);
#235= IFCSHAPEREPRESENTATION(#12,'Body','MappedRepresentation',(#208,#211,#214,#217,#220,#223,#226,#187,#190,#193,#196,#199,#202,#205));
#236= IFCPRODUCTDEFINITIONSHAPE($,$,(#235));
#237= IFCOPENINGELEMENT('3jAl7R9rTDmgGD0hvDlpPK',#5,$,$,'Opening',#234,#236,$);
#238= IFCRELVOIDSELEMENT('22oMV8FYH2$Pgd_9cjavUO',#5,'Drill Hole',$,#74,#237);
#239= IFCCARTESIANPOINT((5766.70846716917,7972.24406821502,13450.));
#240= IFCAXIS2PLACEMENT3D(#239,#54,#53);
#241= IFCLOCALPLACEMENT(#42,#240);
#242= IFCSHAPEREPRESENTATION(#12,'Body','MappedRepresentation',(#187,#190,#193,#196,#199,#202,#205,#208,#211,#214,#217,#220,#223,#226));
#243= IFCPRODUCTDEFINITIONSHAPE($,$,(#242));
#244= IFCOPENINGELEMENT('2js3wWyUP3nR9GZUWRzDYx',#5,$,$,'Opening',#241,#243,$);
#245= IFCRELVOIDSELEMENT('1GWz1gk_LAuO4HkvGVvfWJ',#5,'Drill Hole',$,#74,#244);
#246= IFCCARTESIANPOINT((5766.70846716917,7972.24406821502,13900.));
#247= IFCAXIS2PLACEMENT3D(#246,#7,#53);
#248= IFCLOCALPLACEMENT(#42,#247);
#249= IFCSHAPEREPRESENTATION(#12,'Body','MappedRepresentation',(#208,#211,#214,#217,#220,#223,#226,#187,#190,#193,#196,#199,#202,#205));
#250= IFCPRODUCTDEFINITIONSHAPE($,$,(#249));
#251= IFCOPENINGELEMENT('31I8z$Iwn5dgmuIE36nUtM',#5,$,$,'Opening',#248,#250,$);
#252= IFCRELVOIDSELEMENT('0MXDogMvz2NxCl2lPCbNng',#5,'Drill Hole',$,#74,#251);
#253= IFCPROPERTYSINGLEVALUE('PieceMark',$,IFCIDENTIFIER('BEAM'),$);
#254= IFCPROPERTYSINGLEVALUE('IndicationMark',$,IFCIDENTIFIER('b/40'),$);
#255= IFCPROPERTYSINGLEVALUE('PrelimMark',$,IFCIDENTIFIER(''),$);
#256= IFCPROPERTYSINGLEVALUE('MainPieceTag',$,IFCBOOLEAN(.T.),$);
#257= IFCPROPERTYSET('3IRNwAtkj3SxcHciHTtays',#5,'AISC_EM11_Pset_PieceIdentification','PieceIdentity',(#253,#254,#255,#256));
#258= IFCPROPERTYSINGLEVALUE('MaterialType',$,IFCIDENTIFIER('STEEL'),$);
#259= IFCPROPERTYSINGLEVALUE('MaterialGrade',$,IFCIDENTIFIER('S235JR'),$);
#260= IFCPROPERTYSET('0LlwLENifFlR4GDizjphrh',#5,'AISC_EM11_Pset_Material',$,(#258,#259));
#261= IFCPROPERTYSINGLEVALUE('SkewedAngleY',$,IFCREAL(0.),$);
#262= IFCPROPERTYSINGLEVALUE('SkewedAngleX',$,IFCREAL(-0.01479),$);
#263= IFCPROPERTYSET('2sWsdNCkr3Le4z8PtMLWc5',#5,'AISC_EM11_Pset_SkewedEnd',$,(#261,#262));
#264= IFCPROPERTYSINGLEVALUE('SkewedAngleX',$,IFCREAL(0.0129),$);
#265= IFCPROPERTYSET('1tsTPHcUD9fPGs0Yius_yr',#5,'AISC_EM11_Pset_SkewedEnd_2',$,(#261,#264));
#266= IFCMATERIAL('STEEL/S235JR');
#267= IFCRELAGGREGATES('36G2XjwPD71AbkLH6CSuxC',#5,$,$,#37,(#39));
#268= IFCRELAGGREGATES('2OYKp$ChVPJSt0dZOUkADU',#5,$,$,#39,(#41));
#269= IFCRELAGGREGATES('2sXohpN9z5nA9PTcCjnL6N',#5,$,$,#41,(#43));
#270= IFCRELCONTAINEDINSPATIALSTRUCTURE('2vsPFbgu976PDOzplKgykq',#5,$,$,(#74),#43);
#271= IFCRELDEFINESBYPROPERTIES('31wE4wIXX7N8DaVZ84ugek',#5,$,$,(#97,#84),#90);
#272= IFCRELDEFINESBYPROPERTIES('3IZAf4YO5FbwLxfZ0fjnGU',#5,$,$,(#107),#111);
#273= IFCRELDEFINESBYPROPERTIES('1$H7RJ7sr37un6ZkhomJcc',#5,$,$,(#119),#122);
#274= IFCRELDEFINESBYPROPERTIES('1hz$Hej0L86w5nCe8YKGlm',#5,$,$,(#251,#244,#237,#229,#172,#150),#155);
#275= IFCRELDEFINESBYPROPERTIES('2oa1AKMxL8Mvhlmi6sbHMk',#5,$,$,(#74),#257);
#276= IFCRELDEFINESBYPROPERTIES('0TJbqT0ev0_8B6hH$SqVRX',#5,$,$,(#74),#260);
#277= IFCRELDEFINESBYPROPERTIES('23OxhxKpjCRAV9FTThOtSR',#5,$,$,(#74),#263);
#278= IFCRELDEFINESBYPROPERTIES('3zNEReg_n8_R2AUjpNROnn',#5,$,$,(#74),#265);
#279= IFCRELASSOCIATESMATERIAL('3p5FJdhWT7HQVabGf7CmMS',#5,$,$,(#74),#266);
ENDSEC;

END-ISO-10303-21;
