ISO-10303-21;
HEADER;
FILE_DESCRIPTION(('ViewDefinition[AISC_Steel_Detailing]', 'Option [BaseQuantities:Off]', 'Option [GridExport:On]', 'Option [Assemblies:Off]', 'Option [Bolts:On]', 'Option [Rebars:On]', 'Option [PourObjects:Off]', 'Option [Welds:On]', 'Option [SurfaceTreatments:On]', 'Option [LocationBy:0]', 'Option [ViewColors:Off]', 'Option [SectionedSpine:Off]', 'Option [PropertySets:On]', 'Option [Export all:Off]'),'2;1');
FILE_NAME('b_41_Qty_1.ifc','2026-05-16T11:53:17',('GIOVANNIPC\\gcorrea'),('Structural Designer'),'IFC Database version: Work','Tekla Structures 2020 Service Pack 5, IFC Export Version: 4.0.0.0 Dec  7 2020','');
FILE_SCHEMA(('IFC2X3'));
ENDSEC;

DATA;
#1= IFCPERSON('GIOVANNIPC\\gcorrea','Undefined',$,$,$,$,$,$);
#2= IFCORGANIZATION($,'Trimble Solutions Corporation',$,$,$);
#3= IFCPERSONANDORGANIZATION(#1,#2,$);
#4= IFCAPPLICATION(#2,'2020 Service Pack 5','Tekla Structures','Multi material modeling');
#5= IFCOWNERHISTORY(#3,#4,$,.NOCHANGE.,$,$,$,1778950397);
#6= IFCCARTESIANPOINT((0.,0.,0.));
#7= IFCDIRECTION((1.,0.,0.));
#8= IFCDIRECTION((0.,1.,0.));
#9= IFCDIRECTION((0.,0.,1.));
#10= IFCAXIS2PLACEMENT3D(#6,#9,#7);
#11= IFCGEOMETRICREPRESENTATIONCONTEXT($,'Model',3,1.E-05,#10,$);
#12= IFCGEOMETRICREPRESENTATIONSUBCONTEXT('Body','Model',*,*,*,*,#11,$,.MODEL_VIEW.,$);
#13= IFCGEOMETRICREPRESENTATIONSUBCONTEXT('Axis','Model',*,*,*,*,#11,$,.GRAPH_VIEW.,$);
#14= IFCGEOMETRICREPRESENTATIONSUBCONTEXT('FootPrint','Model',*,*,*,*,#11,$,.MODEL_VIEW.,$);
#15= IFCSIUNIT(*,.LENGTHUNIT.,.MILLI.,.METRE.);
#16= IFCMEASUREWITHUNIT(IFCRATIOMEASURE(304.8),#15);
#17= IFCDIMENSIONALEXPONENTS(1,0,0,0,0,0,0);
#18= IFCCONVERSIONBASEDUNIT(#17,.LENGTHUNIT.,'FOOT',#16);
#19= IFCSIUNIT(*,.AREAUNIT.,$,.SQUARE_METRE.);
#20= IFCMEASUREWITHUNIT(IFCRATIOMEASURE(0.09290304),#19);
#21= IFCDIMENSIONALEXPONENTS(2,0,0,0,0,0,0);
#22= IFCCONVERSIONBASEDUNIT(#21,.AREAUNIT.,'SQUARE FOOT',#20);
#23= IFCSIUNIT(*,.VOLUMEUNIT.,$,.CUBIC_METRE.);
#24= IFCMEASUREWITHUNIT(IFCRATIOMEASURE(0.028316846592),#23);
#25= IFCDIMENSIONALEXPONENTS(3,0,0,0,0,0,0);
#26= IFCCONVERSIONBASEDUNIT(#25,.VOLUMEUNIT.,'CUBIC FOOT',#24);
#27= IFCSIUNIT(*,.MASSUNIT.,.KILO.,.GRAM.);
#28= IFCSIUNIT(*,.TIMEUNIT.,$,.SECOND.);
#29= IFCSIUNIT(*,.PLANEANGLEUNIT.,$,.RADIAN.);
#30= IFCMEASUREWITHUNIT(IFCRATIOMEASURE(0.0174532925199433),#29);
#31= IFCDIMENSIONALEXPONENTS(0,0,0,0,0,0,0);
#32= IFCCONVERSIONBASEDUNIT(#31,.PLANEANGLEUNIT.,'DEGREE',#30);
#33= IFCSIUNIT(*,.SOLIDANGLEUNIT.,$,.STERADIAN.);
#34= IFCSIUNIT(*,.THERMODYNAMICTEMPERATUREUNIT.,$,.DEGREE_CELSIUS.);
#35= IFCSIUNIT(*,.LUMINOUSINTENSITYUNIT.,$,.LUMEN.);
#36= IFCUNITASSIGNMENT((#15,#19,#23,#27,#28,#29,#33,#34,#35));
#37= IFCPROJECT('2G7ZFDNE16yBDU14FA92Me',#5,'Proyecto',$,$,$,$,(#11),#36);
#38= IFCLOCALPLACEMENT($,#10);
#39= IFCSITE('2xvEzEinjBTea80yOTcujY',#5,'Obra',$,$,#38,$,$,.ELEMENT.,$,$,$,$,$);
#40= IFCLOCALPLACEMENT(#38,#10);
#41= IFCBUILDING('27xqtEgZj5kurd9MiLyECk',#5,'Undefined',$,$,#40,$,$,.ELEMENT.,$,$,$);
#42= IFCLOCALPLACEMENT(#40,#10);
#43= IFCBUILDINGSTOREY('29hdEUCErFze9E_VIAceOd',#5,'Undefined',$,$,#42,$,$,.ELEMENT.,0.);
#44= IFCOWNERHISTORY(#3,#4,$,.NOCHANGE.,$,$,$,1774792800);
#45= IFCCARTESIANPOINT((5766.85883797456,8335.71535973714,13675.));
#46= IFCAXIS2PLACEMENT3D(#45,#9,#8);
#47= IFCLOCALPLACEMENT(#42,#46);
#48= IFCDIRECTION((1.,0.));
#49= IFCCARTESIANPOINT((0.,0.));
#50= IFCAXIS2PLACEMENT2D(#49,#48);
#51= IFCISHAPEPROFILEDEF(.AREA.,'IPE450',#50,190.,450.,9.399999619,14.60000038,21.);
#52= IFCDIRECTION((0.,-1.,0.));
#53= IFCDIRECTION((-1.,0.,0.));
#54= IFCCARTESIANPOINT((8833.71965600969,0.,0.));
#55= IFCAXIS2PLACEMENT3D(#54,#53,#52);
#56= IFCEXTRUDEDAREASOLID(#51,#55,#9,8835.69);
#57= IFCDIRECTION((-0.99999999982832,1.85299999980109E-05,0.));
#58= IFCCARTESIANPOINT((8833.71431462236,0.00287214993477392,-325.));
#59= IFCDIRECTION((1.85299999980109E-05,0.99999999982832,0.));
#60= IFCAXIS2PLACEMENT3D(#58,#57,#59);
#61= IFCPLANE(#60);
#62= IFCHALFSPACESOLID(#61,.T.);
#63= IFCBOOLEANCLIPPINGRESULT(.DIFFERENCE.,#56,#62);
#64= IFCDIRECTION((0.999999999310347,-3.71390000115507E-05,0.));
#65= IFCCARTESIANPOINT((-1.96944014759356,-0.00575654495060007,-325.));
#66= IFCDIRECTION((-3.71390000115507E-05,-0.999999999310347,0.));
#67= IFCAXIS2PLACEMENT3D(#65,#64,#66);
#68= IFCPLANE(#67);
#69= IFCHALFSPACESOLID(#68,.T.);
#70= IFCBOOLEANCLIPPINGRESULT(.DIFFERENCE.,#63,#69);
#71= IFCSHAPEREPRESENTATION(#12,'Body','Clipping',(#70));
#72= IFCPRODUCTDEFINITIONSHAPE($,$,(#71));
#73= IFCBEAM('2cQKKaSjT0sQpXLI$gpa0S',#44,'BEAM','IPE450','IPE450',#47,#72,'IDa6694524-72d7-40d9-ace1-552feace401c');
#74= IFCLOCALPLACEMENT(#42,#46);
#75= IFCRECTANGLEPROFILEDEF(.AREA.,'PL59*156.3',#50,59.,156.3);
#76= IFCDIRECTION((0.,0.,-1.));
#77= IFCDIRECTION((-1.85300000034094E-05,-0.99999999982832,0.));
#78= IFCCARTESIANPOINT((8912.59109343073,95.9985384460079,-196.5));
#79= IFCAXIS2PLACEMENT3D(#78,#77,#76);
#80= IFCEXTRUDEDAREASOLID(#75,#79,#9,192.16);
#81= IFCSHAPEREPRESENTATION(#12,'Body','SweptSolid',(#80));
#82= IFCPRODUCTDEFINITIONSHAPE($,$,(#81));
#83= IFCOPENINGELEMENT('33CsNxVs14J8zquEziInXd',#5,$,$,'Recess',#74,#82,$);
#84= IFCRELVOIDSELEMENT('2OmQ_fiOH0UB0LwvrOTSA6',#5,$,$,#73,#83);
#85= IFCPROPERTYSINGLEVALUE('FeatureSubTypes',$,$,$);
#86= IFCPROPERTYSINGLEVALUE('RectangleOpeningWidth',$,IFCPOSITIVELENGTHMEASURE(59.),$);
#87= IFCPROPERTYSINGLEVALUE('RectangleOpeningHeight',$,IFCPOSITIVELENGTHMEASURE(156.3),$);
#88= IFCPROPERTYSINGLEVALUE('OpeningDiameter',$,$,$);
#89= IFCPROPERTYSET('3uQDtxOOf5Rv4bK8Gtj0BN',#5,'AISC_EM11_Pset_Opening/Cope',$,(#85,#86,#87,#88));
#90= IFCLOCALPLACEMENT(#42,#46);
#91= IFCRECTANGLEPROFILEDEF(.AREA.,'PL49*156.3',#50,49.,156.3);
#92= IFCCARTESIANPOINT((8912.59109343073,95.9985384460079,201.5));
#93= IFCAXIS2PLACEMENT3D(#92,#77,#76);
#94= IFCEXTRUDEDAREASOLID(#91,#93,#9,192.16);
#95= IFCSHAPEREPRESENTATION(#12,'Body','SweptSolid',(#94));
#96= IFCPRODUCTDEFINITIONSHAPE($,$,(#95));
#97= IFCOPENINGELEMENT('2t663Ka8r27B39cK$jYepm',#5,$,$,'Recess',#90,#96,$);
#98= IFCRELVOIDSELEMENT('0J23WL4Nj5EgNgaGIE6wTp',#5,$,$,#73,#97);
#99= IFCPROPERTYSINGLEVALUE('RectangleOpeningWidth',$,IFCPOSITIVELENGTHMEASURE(49.),$);
#100= IFCPROPERTYSET('07v2D5sbP2Buhlkx4wZEjd',#5,'AISC_EM11_Pset_Opening/Cope',$,(#85,#99,#87,#88));
#101= IFCLOCALPLACEMENT(#42,#46);
#102= IFCDIRECTION((3.71390000123564E-05,0.999999999310347,0.));
#103= IFCCARTESIANPOINT((-80.8480052232881,-95.9970706610047,-196.5));
#104= IFCAXIS2PLACEMENT3D(#103,#102,#76);
#105= IFCEXTRUDEDAREASOLID(#75,#104,#9,192.33);
#106= IFCSHAPEREPRESENTATION(#12,'Body','SweptSolid',(#105));
#107= IFCPRODUCTDEFINITIONSHAPE($,$,(#106));
#108= IFCOPENINGELEMENT('2OU7RH2GT3oemksksPyJeg',#5,$,$,'Recess',#101,#107,$);
#109= IFCRELVOIDSELEMENT('0QZKzzNeL93AezrBNb_6Hq',#5,$,$,#73,#108);
#110= IFCLOCALPLACEMENT(#42,#46);
#111= IFCCARTESIANPOINT((-80.8480052232881,-95.9970706610047,201.5));
#112= IFCAXIS2PLACEMENT3D(#111,#102,#76);
#113= IFCEXTRUDEDAREASOLID(#91,#112,#9,192.33);
#114= IFCSHAPEREPRESENTATION(#12,'Body','SweptSolid',(#113));
#115= IFCPRODUCTDEFINITIONSHAPE($,$,(#114));
#116= IFCOPENINGELEMENT('2kIGbflnL0MuDfczqRcF5u',#5,$,$,'Recess',#110,#115,$);
#117= IFCRELVOIDSELEMENT('1hcBO1A9P2lhbwoUgSNEHm',#5,$,$,#73,#116);
#118= IFCCARTESIANPOINT((5766.85596582492,17169.4296743593,13855.));
#119= IFCAXIS2PLACEMENT3D(#118,#77,#76);
#120= IFCLOCALPLACEMENT(#42,#119);
#121= IFCCIRCLEPROFILEDEF(.AREA.,$,#50,11.5);
#122= IFCCARTESIANPOINT((0.,-4.79638644460986,0.));
#123= IFCAXIS2PLACEMENT3D(#122,#8,#7);
#124= IFCEXTRUDEDAREASOLID(#121,#123,#9,9.6);
#125= IFCSHAPEREPRESENTATION(#12,'Body','SweptSolid',(#124));
#126= IFCREPRESENTATIONMAP(#10,#125);
#127= IFCCARTESIANPOINT((40.,0.,40.0000000000546));
#128= IFCCARTESIANTRANSFORMATIONOPERATOR3D($,$,#127,$,$);
#129= IFCMAPPEDITEM(#126,#128);
#130= IFCCARTESIANPOINT((110.,0.,40.0000000000546));
#131= IFCCARTESIANTRANSFORMATIONOPERATOR3D($,$,#130,$,$);
#132= IFCMAPPEDITEM(#126,#131);
#133= IFCCARTESIANPOINT((180.,0.,40.0000000000546));
#134= IFCCARTESIANTRANSFORMATIONOPERATOR3D($,$,#133,$,$);
#135= IFCMAPPEDITEM(#126,#134);
#136= IFCCARTESIANPOINT((250.,0.,40.0000000000546));
#137= IFCCARTESIANTRANSFORMATIONOPERATOR3D($,$,#136,$,$);
#138= IFCMAPPEDITEM(#126,#137);
#139= IFCCARTESIANPOINT((320.,0.,40.0000000000546));
#140= IFCCARTESIANTRANSFORMATIONOPERATOR3D($,$,#139,$,$);
#141= IFCMAPPEDITEM(#126,#140);
#142= IFCSHAPEREPRESENTATION(#12,'Body','MappedRepresentation',(#129,#132,#135,#138,#141));
#143= IFCPRODUCTDEFINITIONSHAPE($,$,(#142));
#144= IFCOPENINGELEMENT('0t8SIVrab5GfKem0lxQooQ',#5,$,$,'Opening',#120,#143,$);
#145= IFCRELVOIDSELEMENT('2fDolEwX156wZz3PkRpvyu',#5,'Drill Hole',$,#73,#144);
#146= IFCPROPERTYSINGLEVALUE('FeatureSubTypes',$,IFCLABEL('TORNILLO'),$);
#147= IFCPROPERTYSINGLEVALUE('RectangleOpeningWidth',$,$,$);
#148= IFCPROPERTYSINGLEVALUE('RectangleOpeningHeight',$,$,$);
#149= IFCPROPERTYSET('19CUf40Bn6AuxMIy$fCcSy',#5,'AISC_EM11_Pset_Opening/Cope',$,(#146,#147,#148,#88));
#150= IFCCARTESIANPOINT((5766.86459451951,8333.74591958978,13855.));
#151= IFCAXIS2PLACEMENT3D(#150,#102,#76);
#152= IFCLOCALPLACEMENT(#42,#151);
#153= IFCCARTESIANPOINT((0.,-4.79275770780028,0.));
#154= IFCAXIS2PLACEMENT3D(#153,#8,#7);
#155= IFCEXTRUDEDAREASOLID(#121,#154,#9,9.6);
#156= IFCSHAPEREPRESENTATION(#12,'Body','SweptSolid',(#155));
#157= IFCREPRESENTATIONMAP(#10,#156);
#158= IFCMAPPEDITEM(#157,#128);
#159= IFCMAPPEDITEM(#157,#131);
#160= IFCMAPPEDITEM(#157,#134);
#161= IFCMAPPEDITEM(#157,#137);
#162= IFCMAPPEDITEM(#157,#140);
#163= IFCSHAPEREPRESENTATION(#12,'Body','MappedRepresentation',(#158,#159,#160,#161,#162));
#164= IFCPRODUCTDEFINITIONSHAPE($,$,(#163));
#165= IFCOPENINGELEMENT('0Y5wyhS_P4QunUD84YQ_kp',#5,$,$,'Opening',#152,#164,$);
#166= IFCRELVOIDSELEMENT('05NAHCezHEgBUVK6bQ92dP',#5,'Drill Hole',$,#73,#165);
#167= IFCCARTESIANPOINT((5766.72926265677,8373.17741634311,13450.));
#168= IFCAXIS2PLACEMENT3D(#167,#53,#8);
#169= IFCLOCALPLACEMENT(#42,#168);
#170= IFCCIRCLEPROFILEDEF(.AREA.,$,#50,11.);
#171= IFCCARTESIANPOINT((0.,-14.7000003800006,0.));
#172= IFCAXIS2PLACEMENT3D(#171,#8,#7);
#173= IFCEXTRUDEDAREASOLID(#170,#172,#9,14.8);
#174= IFCSHAPEREPRESENTATION(#12,'Body','SweptSolid',(#173));
#175= IFCREPRESENTATIONMAP(#10,#174);
#176= IFCCARTESIANPOINT((0.,0.,-50.));
#177= IFCCARTESIANTRANSFORMATIONOPERATOR3D($,$,#176,$,$);
#178= IFCMAPPEDITEM(#175,#177);
#179= IFCCARTESIANPOINT((70.,0.,-50.));
#180= IFCCARTESIANTRANSFORMATIONOPERATOR3D($,$,#179,$,$);
#181= IFCMAPPEDITEM(#175,#180);
#182= IFCCARTESIANPOINT((140.,0.,-50.));
#183= IFCCARTESIANTRANSFORMATIONOPERATOR3D($,$,#182,$,$);
#184= IFCMAPPEDITEM(#175,#183);
#185= IFCCARTESIANPOINT((210.,0.,-50.));
#186= IFCCARTESIANTRANSFORMATIONOPERATOR3D($,$,#185,$,$);
#187= IFCMAPPEDITEM(#175,#186);
#188= IFCCARTESIANPOINT((280.,0.,-50.));
#189= IFCCARTESIANTRANSFORMATIONOPERATOR3D($,$,#188,$,$);
#190= IFCMAPPEDITEM(#175,#189);
#191= IFCCARTESIANPOINT((350.,0.,-50.));
#192= IFCCARTESIANTRANSFORMATIONOPERATOR3D($,$,#191,$,$);
#193= IFCMAPPEDITEM(#175,#192);
#194= IFCCARTESIANPOINT((420.,0.,-50.));
#195= IFCCARTESIANTRANSFORMATIONOPERATOR3D($,$,#194,$,$);
#196= IFCMAPPEDITEM(#175,#195);
#197= IFCCARTESIANPOINT((0.,0.,50.));
#198= IFCCARTESIANTRANSFORMATIONOPERATOR3D($,$,#197,$,$);
#199= IFCMAPPEDITEM(#175,#198);
#200= IFCCARTESIANPOINT((70.,0.,50.));
#201= IFCCARTESIANTRANSFORMATIONOPERATOR3D($,$,#200,$,$);
#202= IFCMAPPEDITEM(#175,#201);
#203= IFCCARTESIANPOINT((140.,0.,50.));
#204= IFCCARTESIANTRANSFORMATIONOPERATOR3D($,$,#203,$,$);
#205= IFCMAPPEDITEM(#175,#204);
#206= IFCCARTESIANPOINT((210.,0.,50.));
#207= IFCCARTESIANTRANSFORMATIONOPERATOR3D($,$,#206,$,$);
#208= IFCMAPPEDITEM(#175,#207);
#209= IFCCARTESIANPOINT((280.,0.,50.));
#210= IFCCARTESIANTRANSFORMATIONOPERATOR3D($,$,#209,$,$);
#211= IFCMAPPEDITEM(#175,#210);
#212= IFCCARTESIANPOINT((350.,0.,50.));
#213= IFCCARTESIANTRANSFORMATIONOPERATOR3D($,$,#212,$,$);
#214= IFCMAPPEDITEM(#175,#213);
#215= IFCCARTESIANPOINT((420.,0.,50.));
#216= IFCCARTESIANTRANSFORMATIONOPERATOR3D($,$,#215,$,$);
#217= IFCMAPPEDITEM(#175,#216);
#218= IFCSHAPEREPRESENTATION(#12,'Body','MappedRepresentation',(#178,#181,#184,#187,#190,#193,#196,#199,#202,#205,#208,#211,#214,#217));
#219= IFCPRODUCTDEFINITIONSHAPE($,$,(#218));
#220= IFCOPENINGELEMENT('0_YOfk_nnAoAvNSvMCP29P',#5,$,$,'Opening',#169,#219,$);
#221= IFCRELVOIDSELEMENT('0ME4g$er1Fpua$DG6oGsvy',#5,'Drill Hole',$,#73,#220);
#222= IFCCARTESIANPOINT((5766.72926265677,8373.17741634311,13900.));
#223= IFCAXIS2PLACEMENT3D(#222,#53,#8);
#224= IFCLOCALPLACEMENT(#42,#223);
#225= IFCCARTESIANPOINT((0.,-0.0999999999999147,0.));
#226= IFCAXIS2PLACEMENT3D(#225,#8,#7);
#227= IFCEXTRUDEDAREASOLID(#170,#226,#9,14.8);
#228= IFCSHAPEREPRESENTATION(#12,'Body','SweptSolid',(#227));
#229= IFCREPRESENTATIONMAP(#10,#228);
#230= IFCMAPPEDITEM(#229,#177);
#231= IFCMAPPEDITEM(#229,#180);
#232= IFCMAPPEDITEM(#229,#183);
#233= IFCMAPPEDITEM(#229,#186);
#234= IFCMAPPEDITEM(#229,#189);
#235= IFCMAPPEDITEM(#229,#192);
#236= IFCMAPPEDITEM(#229,#195);
#237= IFCMAPPEDITEM(#229,#198);
#238= IFCMAPPEDITEM(#229,#201);
#239= IFCMAPPEDITEM(#229,#204);
#240= IFCMAPPEDITEM(#229,#207);
#241= IFCMAPPEDITEM(#229,#210);
#242= IFCMAPPEDITEM(#229,#213);
#243= IFCMAPPEDITEM(#229,#216);
#244= IFCSHAPEREPRESENTATION(#12,'Body','MappedRepresentation',(#230,#231,#232,#233,#234,#235,#236,#237,#238,#239,#240,#241,#242,#243));
#245= IFCPRODUCTDEFINITIONSHAPE($,$,(#244));
#246= IFCOPENINGELEMENT('3hkxENW95F$QodycoQUCM6',#5,$,$,'Opening',#224,#245,$);
#247= IFCRELVOIDSELEMENT('2qmKNPDdv5LAH2DUg44zzT',#5,'Drill Hole',$,#73,#246);
#248= IFCCARTESIANPOINT((5766.85883797456,17132.5020011027,13450.));
#249= IFCAXIS2PLACEMENT3D(#248,#53,#52);
#250= IFCLOCALPLACEMENT(#42,#249);
#251= IFCSHAPEREPRESENTATION(#12,'Body','MappedRepresentation',(#230,#231,#232,#233,#234,#235,#236,#237,#238,#239,#240,#241,#242,#243));
#252= IFCPRODUCTDEFINITIONSHAPE($,$,(#251));
#253= IFCOPENINGELEMENT('1AgAOgTf5Aswj5A0dNDXO7',#5,$,$,'Opening',#250,#252,$);
#254= IFCRELVOIDSELEMENT('2KXLLVNR1FOwVjvrdmzbjH',#5,'Drill Hole',$,#73,#253);
#255= IFCCARTESIANPOINT((5766.85883797456,17132.5020011027,13900.));
#256= IFCAXIS2PLACEMENT3D(#255,#7,#52);
#257= IFCLOCALPLACEMENT(#42,#256);
#258= IFCSHAPEREPRESENTATION(#12,'Body','MappedRepresentation',(#237,#238,#239,#240,#241,#242,#243,#230,#231,#232,#233,#234,#235,#236));
#259= IFCPRODUCTDEFINITIONSHAPE($,$,(#258));
#260= IFCOPENINGELEMENT('3jBnF8yPb2TPq3WOAvx1sJ',#5,$,$,'Opening',#257,#259,$);
#261= IFCRELVOIDSELEMENT('1I_gotCIr84P4tYKFx9OZC',#5,'Drill Hole',$,#73,#260);
#262= IFCPROPERTYSINGLEVALUE('PieceMark',$,IFCIDENTIFIER('BEAM'),$);
#263= IFCPROPERTYSINGLEVALUE('IndicationMark',$,IFCIDENTIFIER('b/41'),$);
#264= IFCPROPERTYSINGLEVALUE('PrelimMark',$,IFCIDENTIFIER(''),$);
#265= IFCPROPERTYSINGLEVALUE('MainPieceTag',$,IFCBOOLEAN(.T.),$);
#266= IFCPROPERTYSET('0V$0eQgqn26u6PKTE0sMDs',#5,'AISC_EM11_Pset_PieceIdentification','PieceIdentity',(#262,#263,#264,#265));
#267= IFCPROPERTYSINGLEVALUE('MaterialType',$,IFCIDENTIFIER('STEEL'),$);
#268= IFCPROPERTYSINGLEVALUE('MaterialGrade',$,IFCIDENTIFIER('S235JR'),$);
#269= IFCPROPERTYSET('2Iu8an1dv3webKv$PqkDYU',#5,'AISC_EM11_Pset_Material',$,(#267,#268));
#270= IFCPROPERTYSINGLEVALUE('SkewedAngleY',$,IFCREAL(0.),$);
#271= IFCPROPERTYSINGLEVALUE('SkewedAngleX',$,IFCREAL(0.00213),$);
#272= IFCPROPERTYSET('23K73F5cXF4e$z0eRpeF3X',#5,'AISC_EM11_Pset_SkewedEnd',$,(#270,#271));
#273= IFCPROPERTYSINGLEVALUE('SkewedAngleX',$,IFCREAL(0.00106),$);
#274= IFCPROPERTYSET('2NiV2FMovEYR5Od0BGjqws',#5,'AISC_EM11_Pset_SkewedEnd_2',$,(#270,#273));
#275= IFCMATERIAL('STEEL/S235JR');
#276= IFCRELAGGREGATES('2DsTdW9Oz7eOL6NKGKjvZn',#5,$,$,#37,(#39));
#277= IFCRELAGGREGATES('2V8lvoRgFPwgdOfcYc$Br3',#5,$,$,#39,(#41));
#278= IFCRELAGGREGATES('1ZRKxLo7rC182DR$FQFcLu',#5,$,$,#41,(#43));
#279= IFCRELCONTAINEDINSPATIALSTRUCTURE('1fYLeYBJLFRu2f3hW3Q3Zl',#5,$,$,(#73),#43);
#280= IFCRELDEFINESBYPROPERTIES('3BilToUTH2iwR8yI2pVBMk',#5,$,$,(#108,#83),#89);
#281= IFCRELDEFINESBYPROPERTIES('2UzRE4PS5E4xzPrTvdbiUa',#5,$,$,(#116,#97),#100);
#282= IFCRELDEFINESBYPROPERTIES('11QUeDJQzEGeSFcgf6htSI',#5,$,$,(#260,#253,#246,#220,#165,#144),#149);
#283= IFCRELDEFINESBYPROPERTIES('3l9VIuW9vEdxqM2OnO4xJC',#5,$,$,(#73),#266);
#284= IFCRELDEFINESBYPROPERTIES('28lM30LQTByg46QIAx1wcZ',#5,$,$,(#73),#269);
#285= IFCRELDEFINESBYPROPERTIES('0MVypMU3bDoPrZqRiCWXEt',#5,$,$,(#73),#272);
#286= IFCRELDEFINESBYPROPERTIES('17ptId0$L4LBRLI4iFn0Xk',#5,$,$,(#73),#274);
#287= IFCRELASSOCIATESMATERIAL('2RFGo8SgP0Tv8MEdq_Ug5m',#5,$,$,(#73),#275);
ENDSEC;

END-ISO-10303-21;
