ISO-10303-21;
HEADER;
FILE_DESCRIPTION(('ViewDefinition[AISC_Steel_Detailing]', 'Option [BaseQuantities:Off]', 'Option [GridExport:On]', 'Option [Assemblies:Off]', 'Option [Bolts:On]', 'Option [Rebars:On]', 'Option [PourObjects:Off]', 'Option [Welds:On]', 'Option [SurfaceTreatments:On]', 'Option [LocationBy:0]', 'Option [ViewColors:Off]', 'Option [SectionedSpine:Off]', 'Option [PropertySets:On]', 'Option [Export all:Off]'),'2;1');
FILE_NAME('b_42_Qty_1.ifc','2026-05-16T11:53:17',('GIOVANNIPC\\gcorrea'),('Structural Designer'),'IFC Database version: Work','Tekla Structures 2020 Service Pack 5, IFC Export Version: 4.0.0.0 Dec  7 2020','');
FILE_SCHEMA(('IFC2X3'));
ENDSEC;

DATA;
#1= IFCPERSON('GIOVANNIPC\\gcorrea','Undefined',$,$,$,$,$,$);
#2= IFCORGANIZATION($,'Trimble Solutions Corporation',$,$,$);
#3= IFCPERSONANDORGANIZATION(#1,#2,$);
#4= IFCAPPLICATION(#2,'2020 Service Pack 5','Tekla Structures','Multi material modeling');
#5= IFCOWNERHISTORY(#3,#4,$,.NOCHANGE.,$,$,$,1778950397);
#6= IFCCARTESIANPOINT((0.,0.,0.));
#7= IFCDIRECTION((1.,0.,0.));
#8= IFCDIRECTION((0.,1.,0.));
#9= IFCDIRECTION((0.,0.,1.));
#10= IFCAXIS2PLACEMENT3D(#6,#9,#7);
#11= IFCGEOMETRICREPRESENTATIONCONTEXT($,'Model',3,1.E-05,#10,$);
#12= IFCGEOMETRICREPRESENTATIONSUBCONTEXT('Body','Model',*,*,*,*,#11,$,.MODEL_VIEW.,$);
#13= IFCGEOMETRICREPRESENTATIONSUBCONTEXT('Axis','Model',*,*,*,*,#11,$,.GRAPH_VIEW.,$);
#14= IFCGEOMETRICREPRESENTATIONSUBCONTEXT('FootPrint','Model',*,*,*,*,#11,$,.MODEL_VIEW.,$);
#15= IFCSIUNIT(*,.LENGTHUNIT.,.MILLI.,.METRE.);
#16= IFCMEASUREWITHUNIT(IFCRATIOMEASURE(304.8),#15);
#17= IFCDIMENSIONALEXPONENTS(1,0,0,0,0,0,0);
#18= IFCCONVERSIONBASEDUNIT(#17,.LENGTHUNIT.,'FOOT',#16);
#19= IFCSIUNIT(*,.AREAUNIT.,$,.SQUARE_METRE.);
#20= IFCMEASUREWITHUNIT(IFCRATIOMEASURE(0.09290304),#19);
#21= IFCDIMENSIONALEXPONENTS(2,0,0,0,0,0,0);
#22= IFCCONVERSIONBASEDUNIT(#21,.AREAUNIT.,'SQUARE FOOT',#20);
#23= IFCSIUNIT(*,.VOLUMEUNIT.,$,.CUBIC_METRE.);
#24= IFCMEASUREWITHUNIT(IFCRATIOMEASURE(0.028316846592),#23);
#25= IFCDIMENSIONALEXPONENTS(3,0,0,0,0,0,0);
#26= IFCCONVERSIONBASEDUNIT(#25,.VOLUMEUNIT.,'CUBIC FOOT',#24);
#27= IFCSIUNIT(*,.MASSUNIT.,.KILO.,.GRAM.);
#28= IFCSIUNIT(*,.TIMEUNIT.,$,.SECOND.);
#29= IFCSIUNIT(*,.PLANEANGLEUNIT.,$,.RADIAN.);
#30= IFCMEASUREWITHUNIT(IFCRATIOMEASURE(0.0174532925199433),#29);
#31= IFCDIMENSIONALEXPONENTS(0,0,0,0,0,0,0);
#32= IFCCONVERSIONBASEDUNIT(#31,.PLANEANGLEUNIT.,'DEGREE',#30);
#33= IFCSIUNIT(*,.SOLIDANGLEUNIT.,$,.STERADIAN.);
#34= IFCSIUNIT(*,.THERMODYNAMICTEMPERATUREUNIT.,$,.DEGREE_CELSIUS.);
#35= IFCSIUNIT(*,.LUMINOUSINTENSITYUNIT.,$,.LUMEN.);
#36= IFCUNITASSIGNMENT((#15,#19,#23,#27,#28,#29,#33,#34,#35));
#37= IFCPROJECT('2G7ZFDNE16yBDU14FA92Me',#5,'Proyecto',$,$,$,$,(#11),#36);
#38= IFCLOCALPLACEMENT($,#10);
#39= IFCSITE('2xvEzEinjBTea80yOTcujY',#5,'Obra',$,$,#38,$,$,.ELEMENT.,$,$,$,$,$);
#40= IFCLOCALPLACEMENT(#38,#10);
#41= IFCBUILDING('0ROzJGqs96EQnnmUmRfPYg',#5,'Undefined',$,$,#40,$,$,.ELEMENT.,$,$,$);
#42= IFCLOCALPLACEMENT(#40,#10);
#43= IFCBUILDINGSTOREY('29hdEUCErFze9E_VIAceOd',#5,'Undefined',$,$,#42,$,$,.ELEMENT.,0.);
#44= IFCOWNERHISTORY(#3,#4,$,.NOCHANGE.,$,$,$,1774472400);
#45= IFCCARTESIANPOINT((5766.85883797456,17492.8579988973,13675.));
#46= IFCAXIS2PLACEMENT3D(#45,#9,#8);
#47= IFCLOCALPLACEMENT(#42,#46);
#48= IFCDIRECTION((1.,0.));
#49= IFCCARTESIANPOINT((0.,0.));
#50= IFCAXIS2PLACEMENT2D(#49,#48);
#51= IFCISHAPEPROFILEDEF(.AREA.,'IPE450',#50,190.,450.,9.399999619,14.60000038,21.);
#52= IFCDIRECTION((0.,-1.,0.));
#53= IFCDIRECTION((-1.,0.,0.));
#54= IFCCARTESIANPOINT((6298.8964336175,0.,0.));
#55= IFCAXIS2PLACEMENT3D(#54,#53,#52);
#56= IFCEXTRUDEDAREASOLID(#51,#55,#9,6300.83);
#57= IFCDIRECTION((-0.999999900459468,-0.000446185000205704,0.));
#58= IFCCARTESIANPOINT((6298.89255753179,-0.0446185000328114,-325.));
#59= IFCDIRECTION((-0.000446185000205704,0.999999900459468,0.));
#60= IFCAXIS2PLACEMENT3D(#58,#57,#59);
#61= IFCPLANE(#60);
#62= IFCHALFSPACESOLID(#61,.T.);
#63= IFCBOOLEANCLIPPINGRESULT(.DIFFERENCE.,#56,#62);
#64= IFCDIRECTION((0.99999999982832,-1.85299999980109E-05,0.));
#65= IFCCARTESIANPOINT((-1.92832458881821,-0.00287214993477392,-325.));
#66= IFCDIRECTION((-1.85299999980109E-05,-0.99999999982832,0.));
#67= IFCAXIS2PLACEMENT3D(#65,#64,#66);
#68= IFCPLANE(#67);
#69= IFCHALFSPACESOLID(#68,.T.);
#70= IFCBOOLEANCLIPPINGRESULT(.DIFFERENCE.,#63,#69);
#71= IFCSHAPEREPRESENTATION(#12,'Body','Clipping',(#70));
#72= IFCPRODUCTDEFINITIONSHAPE($,$,(#71));
#73= IFCBEAM('1Ulo_iZN58IfnigJks00Ot',#44,'BEAM','IPE450','IPE450',#47,#72,'ID5ebf2fac-8d71-484a-9c6c-a93bb6000637');
#74= IFCLOCALPLACEMENT(#42,#46);
#75= IFCRECTANGLEPROFILEDEF(.AREA.,'PL36.6*102.3',#50,36.6,102.3);
#76= IFCDIRECTION((0.,0.,-1.));
#77= IFCDIRECTION((0.000446185000211738,-0.999999900459468,0.));
#78= IFCCARTESIANPOINT((6349.69844433654,98.8340001881206,-207.69999981));
#79= IFCAXIS2PLACEMENT3D(#78,#77,#76);
#80= IFCEXTRUDEDAREASOLID(#75,#79,#9,194.81);
#81= IFCSHAPEREPRESENTATION(#12,'Body','SweptSolid',(#80));
#82= IFCPRODUCTDEFINITIONSHAPE($,$,(#81));
#83= IFCOPENINGELEMENT('1BifVZm_X4vR3RH6M6AhGa',#5,$,$,'Recess',#74,#82,$);
#84= IFCRELVOIDSELEMENT('2KmiTsL9T6Cx$6VGaj$ZYN',#5,$,$,#73,#83);
#85= IFCPROPERTYSINGLEVALUE('FeatureSubTypes',$,$,$);
#86= IFCPROPERTYSINGLEVALUE('RectangleOpeningWidth',$,IFCPOSITIVELENGTHMEASURE(36.6),$);
#87= IFCPROPERTYSINGLEVALUE('RectangleOpeningHeight',$,IFCPOSITIVELENGTHMEASURE(102.3),$);
#88= IFCPROPERTYSINGLEVALUE('OpeningDiameter',$,$,$);
#89= IFCPROPERTYSET('28wRtYGe5AM8_w2mpNzutF',#5,'AISC_EM11_Pset_Opening/Cope',$,(#85,#86,#87,#88));
#90= IFCLOCALPLACEMENT(#42,#46);
#91= IFCCARTESIANPOINT((6349.69844433654,98.8340001881206,207.69999981));
#92= IFCAXIS2PLACEMENT3D(#91,#77,#76);
#93= IFCEXTRUDEDAREASOLID(#75,#92,#9,194.81);
#94= IFCSHAPEREPRESENTATION(#12,'Body','SweptSolid',(#93));
#95= IFCPRODUCTDEFINITIONSHAPE($,$,(#94));
#96= IFCOPENINGELEMENT('3r2LIA$1r8IgsLQb5KdkTd',#5,$,$,'Recess',#90,#95,$);
#97= IFCRELVOIDSELEMENT('3chqZVk459CewxEtxxewWC',#5,$,$,#73,#96);
#98= IFCLOCALPLACEMENT(#42,#46);
#99= IFCRECTANGLEPROFILEDEF(.AREA.,'PL59*156.3',#50,59.,156.3);
#100= IFCDIRECTION((1.85300000010256E-05,0.99999999982832,0.));
#101= IFCCARTESIANPOINT((-80.8051034018063,-95.9985384460097,-196.5));
#102= IFCAXIS2PLACEMENT3D(#101,#100,#76);
#103= IFCEXTRUDEDAREASOLID(#99,#102,#9,192.12);
#104= IFCSHAPEREPRESENTATION(#12,'Body','SweptSolid',(#103));
#105= IFCPRODUCTDEFINITIONSHAPE($,$,(#104));
#106= IFCOPENINGELEMENT('0LqMsozOrANB$c_MC8jHy5',#5,$,$,'Recess',#98,#105,$);
#107= IFCRELVOIDSELEMENT('3Fh1vnEpvDjf2P4Zu20Z0X',#5,$,$,#73,#106);
#108= IFCPROPERTYSINGLEVALUE('RectangleOpeningWidth',$,IFCPOSITIVELENGTHMEASURE(59.),$);
#109= IFCPROPERTYSINGLEVALUE('RectangleOpeningHeight',$,IFCPOSITIVELENGTHMEASURE(156.3),$);
#110= IFCPROPERTYSET('29QbrjwhbDoxkp73Ls5zRL',#5,'AISC_EM11_Pset_Opening/Cope',$,(#85,#108,#109,#88));
#111= IFCLOCALPLACEMENT(#42,#46);
#112= IFCRECTANGLEPROFILEDEF(.AREA.,'PL49*156.3',#50,49.,156.3);
#113= IFCCARTESIANPOINT((-80.8051034018063,-95.9985384460097,201.5));
#114= IFCAXIS2PLACEMENT3D(#113,#100,#76);
#115= IFCEXTRUDEDAREASOLID(#112,#114,#9,192.12);
#116= IFCSHAPEREPRESENTATION(#12,'Body','SweptSolid',(#115));
#117= IFCPRODUCTDEFINITIONSHAPE($,$,(#116));
#118= IFCOPENINGELEMENT('0F6bC3OUD1eQqLJIBbfrmQ',#5,$,$,'Recess',#111,#117,$);
#119= IFCRELVOIDSELEMENT('1WWPfSgDP1w9eS7Tpk9p$n',#5,$,$,#73,#118);
#120= IFCPROPERTYSINGLEVALUE('RectangleOpeningWidth',$,IFCPOSITIVELENGTHMEASURE(49.),$);
#121= IFCPROPERTYSET('3Bmhi2kGjBlfuz6TQQ75_J',#5,'AISC_EM11_Pset_Opening/Cope',$,(#85,#120,#109,#88));
#122= IFCCARTESIANPOINT((5766.9034564746,23791.7505564283,13855.));
#123= IFCAXIS2PLACEMENT3D(#122,#77,#76);
#124= IFCLOCALPLACEMENT(#42,#123);
#125= IFCCIRCLEPROFILEDEF(.AREA.,$,#50,11.5);
#126= IFCCARTESIANPOINT((0.,-4.86246618359772,0.));
#127= IFCAXIS2PLACEMENT3D(#126,#8,#7);
#128= IFCEXTRUDEDAREASOLID(#125,#127,#9,9.6);
#129= IFCSHAPEREPRESENTATION(#12,'Body','SweptSolid',(#128));
#130= IFCREPRESENTATIONMAP(#10,#129);
#131= IFCCARTESIANPOINT((40.,0.,40.0000000001455));
#132= IFCCARTESIANTRANSFORMATIONOPERATOR3D($,$,#131,$,$);
#133= IFCMAPPEDITEM(#130,#132);
#134= IFCCARTESIANPOINT((110.,0.,40.0000000001455));
#135= IFCCARTESIANTRANSFORMATIONOPERATOR3D($,$,#134,$,$);
#136= IFCMAPPEDITEM(#130,#135);
#137= IFCCARTESIANPOINT((180.,0.,40.0000000001455));
#138= IFCCARTESIANTRANSFORMATIONOPERATOR3D($,$,#137,$,$);
#139= IFCMAPPEDITEM(#130,#138);
#140= IFCCARTESIANPOINT((250.,0.,40.0000000001455));
#141= IFCCARTESIANTRANSFORMATIONOPERATOR3D($,$,#140,$,$);
#142= IFCMAPPEDITEM(#130,#141);
#143= IFCCARTESIANPOINT((320.,0.,40.0000000001455));
#144= IFCCARTESIANTRANSFORMATIONOPERATOR3D($,$,#143,$,$);
#145= IFCMAPPEDITEM(#130,#144);
#146= IFCSHAPEREPRESENTATION(#12,'Body','MappedRepresentation',(#133,#136,#139,#142,#145));
#147= IFCPRODUCTDEFINITIONSHAPE($,$,(#146));
#148= IFCOPENINGELEMENT('30VkAxmt90xBkY1PULMTyG',#5,$,$,'Opening',#124,#147,$);
#149= IFCRELVOIDSELEMENT('2wo4nF$i5DBgGVs8YuoDC0',#5,'Drill Hole',$,#73,#148);
#150= IFCPROPERTYSINGLEVALUE('FeatureSubTypes',$,IFCLABEL('TORNILLO'),$);
#151= IFCPROPERTYSINGLEVALUE('RectangleOpeningWidth',$,$,$);
#152= IFCPROPERTYSINGLEVALUE('RectangleOpeningHeight',$,$,$);
#153= IFCPROPERTYSET('2w2xbZ$ej6_8jIxcx5gjRV',#5,'AISC_EM11_Pset_Opening/Cope',$,(#150,#151,#152,#88));
#154= IFCCARTESIANPOINT((5766.8617101242,17490.9296743088,13855.));
#155= IFCAXIS2PLACEMENT3D(#154,#100,#76);
#156= IFCLOCALPLACEMENT(#42,#155);
#157= IFCCARTESIANPOINT((0.,-4.79638644905713,0.));
#158= IFCAXIS2PLACEMENT3D(#157,#8,#7);
#159= IFCEXTRUDEDAREASOLID(#125,#158,#9,9.6);
#160= IFCSHAPEREPRESENTATION(#12,'Body','SweptSolid',(#159));
#161= IFCREPRESENTATIONMAP(#10,#160);
#162= IFCMAPPEDITEM(#161,#132);
#163= IFCMAPPEDITEM(#161,#135);
#164= IFCMAPPEDITEM(#161,#138);
#165= IFCMAPPEDITEM(#161,#141);
#166= IFCMAPPEDITEM(#161,#144);
#167= IFCSHAPEREPRESENTATION(#12,'Body','MappedRepresentation',(#162,#163,#164,#165,#166));
#168= IFCPRODUCTDEFINITIONSHAPE($,$,(#167));
#169= IFCOPENINGELEMENT('0PZy5BDXDFGv7C7u8Mxgud',#5,$,$,'Opening',#156,#168,$);
#170= IFCRELVOIDSELEMENT('3WHQ8lJfT1pwlyxQLvGT_4',#5,'Drill Hole',$,#73,#169);
#171= IFCCARTESIANPOINT((5766.85883797456,23751.8840292129,13450.));
#172= IFCAXIS2PLACEMENT3D(#171,#57,#77);
#173= IFCLOCALPLACEMENT(#42,#172);
#174= IFCCIRCLEPROFILEDEF(.AREA.,$,#50,11.);
#175= IFCCARTESIANPOINT((0.,-0.0999999999999929,0.));
#176= IFCAXIS2PLACEMENT3D(#175,#8,#7);
#177= IFCEXTRUDEDAREASOLID(#174,#176,#9,14.8);
#178= IFCSHAPEREPRESENTATION(#12,'Body','SweptSolid',(#177));
#179= IFCREPRESENTATIONMAP(#10,#178);
#180= IFCCARTESIANPOINT((0.,0.,49.9999999999918));
#181= IFCCARTESIANTRANSFORMATIONOPERATOR3D($,$,#180,$,$);
#182= IFCMAPPEDITEM(#179,#181);
#183= IFCCARTESIANPOINT((70.0000000002474,0.,49.9999999999918));
#184= IFCCARTESIANTRANSFORMATIONOPERATOR3D($,$,#183,$,$);
#185= IFCMAPPEDITEM(#179,#184);
#186= IFCCARTESIANPOINT((140.000000000487,0.,49.9999999999918));
#187= IFCCARTESIANTRANSFORMATIONOPERATOR3D($,$,#186,$,$);
#188= IFCMAPPEDITEM(#179,#187);
#189= IFCCARTESIANPOINT((210.000000000731,0.,49.9999999999918));
#190= IFCCARTESIANTRANSFORMATIONOPERATOR3D($,$,#189,$,$);
#191= IFCMAPPEDITEM(#179,#190);
#192= IFCCARTESIANPOINT((280.000000000971,0.,49.9999999999927));
#193= IFCCARTESIANTRANSFORMATIONOPERATOR3D($,$,#192,$,$);
#194= IFCMAPPEDITEM(#179,#193);
#195= IFCCARTESIANPOINT((350.000000001215,0.,49.9999999999927));
#196= IFCCARTESIANTRANSFORMATIONOPERATOR3D($,$,#195,$,$);
#197= IFCMAPPEDITEM(#179,#196);
#198= IFCCARTESIANPOINT((420.000000001462,0.,49.9999999999927));
#199= IFCCARTESIANTRANSFORMATIONOPERATOR3D($,$,#198,$,$);
#200= IFCMAPPEDITEM(#179,#199);
#201= IFCCARTESIANPOINT((3.63797880709171E-12,0.,-49.9999999999909));
#202= IFCCARTESIANTRANSFORMATIONOPERATOR3D($,$,#201,$,$);
#203= IFCMAPPEDITEM(#179,#202);
#204= IFCCARTESIANPOINT((70.0000000002437,0.,-49.9999999999909));
#205= IFCCARTESIANTRANSFORMATIONOPERATOR3D($,$,#204,$,$);
#206= IFCMAPPEDITEM(#179,#205);
#207= IFCCARTESIANPOINT((140.000000000491,0.,-49.9999999999909));
#208= IFCCARTESIANTRANSFORMATIONOPERATOR3D($,$,#207,$,$);
#209= IFCMAPPEDITEM(#179,#208);
#210= IFCCARTESIANPOINT((210.000000000731,0.,-49.9999999999909));
#211= IFCCARTESIANTRANSFORMATIONOPERATOR3D($,$,#210,$,$);
#212= IFCMAPPEDITEM(#179,#211);
#213= IFCCARTESIANPOINT((280.000000000975,0.,-49.9999999999909));
#214= IFCCARTESIANTRANSFORMATIONOPERATOR3D($,$,#213,$,$);
#215= IFCMAPPEDITEM(#179,#214);
#216= IFCCARTESIANPOINT((350.000000001215,0.,-49.9999999999909));
#217= IFCCARTESIANTRANSFORMATIONOPERATOR3D($,$,#216,$,$);
#218= IFCMAPPEDITEM(#179,#217);
#219= IFCCARTESIANPOINT((420.000000001459,0.,-49.99999999999));
#220= IFCCARTESIANTRANSFORMATIONOPERATOR3D($,$,#219,$,$);
#221= IFCMAPPEDITEM(#179,#220);
#222= IFCSHAPEREPRESENTATION(#12,'Body','MappedRepresentation',(#182,#185,#188,#191,#194,#197,#200,#203,#206,#209,#212,#215,#218,#221));
#223= IFCPRODUCTDEFINITIONSHAPE($,$,(#222));
#224= IFCOPENINGELEMENT('1C92dIhvr1ZwvV8sJ5xxXU',#5,$,$,'Opening',#173,#223,$);
#225= IFCRELVOIDSELEMENT('3PsnUGQO5DW8y34qhAOnAm',#5,'Drill Hole',$,#73,#224);
#226= IFCCARTESIANPOINT((5766.85883797456,23751.8840292129,13900.));
#227= IFCDIRECTION((0.999999900408596,0.00044629900018117,0.));
#228= IFCAXIS2PLACEMENT3D(#226,#227,#77);
#229= IFCLOCALPLACEMENT(#42,#228);
#230= IFCSHAPEREPRESENTATION(#12,'Body','MappedRepresentation',(#203,#206,#209,#212,#215,#218,#221,#182,#185,#188,#191,#194,#197,#200));
#231= IFCPRODUCTDEFINITIONSHAPE($,$,(#230));
#232= IFCOPENINGELEMENT('2Lpyrdjtz6h8CwydUzt0ZK',#5,$,$,'Opening',#229,#231,$);
#233= IFCRELVOIDSELEMENT('3CNI$oR3r2ew2sCu$ufBxo',#5,'Drill Hole',$,#73,#232);
#234= IFCCARTESIANPOINT((5766.85883797456,17532.8579988973,13450.));
#235= IFCAXIS2PLACEMENT3D(#234,#7,#8);
#236= IFCLOCALPLACEMENT(#42,#235);
#237= IFCSHAPEREPRESENTATION(#12,'Body','MappedRepresentation',(#203,#206,#209,#212,#215,#218,#221,#182,#185,#188,#191,#194,#197,#200));
#238= IFCPRODUCTDEFINITIONSHAPE($,$,(#237));
#239= IFCOPENINGELEMENT('2FeZnwdtX5lg$k$IytuNTy',#5,$,$,'Opening',#236,#238,$);
#240= IFCRELVOIDSELEMENT('009jYQUPDEKQ5Ui94y6qgz',#5,'Drill Hole',$,#73,#239);
#241= IFCCARTESIANPOINT((5766.85883797456,17532.8579988973,13900.));
#242= IFCAXIS2PLACEMENT3D(#241,#53,#8);
#243= IFCLOCALPLACEMENT(#42,#242);
#244= IFCSHAPEREPRESENTATION(#12,'Body','MappedRepresentation',(#203,#206,#209,#212,#215,#218,#221,#182,#185,#188,#191,#194,#197,#200));
#245= IFCPRODUCTDEFINITIONSHAPE($,$,(#244));
#246= IFCOPENINGELEMENT('0JV$6mtqbAhug$jfJSHF4Z',#5,$,$,'Opening',#243,#245,$);
#247= IFCRELVOIDSELEMENT('3ILlfBzPP8uvPmJxD1_Hik',#5,'Drill Hole',$,#73,#246);
#248= IFCPROPERTYSINGLEVALUE('PieceMark',$,IFCIDENTIFIER('BEAM'),$);
#249= IFCPROPERTYSINGLEVALUE('IndicationMark',$,IFCIDENTIFIER('b/42'),$);
#250= IFCPROPERTYSINGLEVALUE('PrelimMark',$,IFCIDENTIFIER(''),$);
#251= IFCPROPERTYSINGLEVALUE('MainPieceTag',$,IFCBOOLEAN(.T.),$);
#252= IFCPROPERTYSET('2RxlI4udHDVAyJY_3LeI6Y',#5,'AISC_EM11_Pset_PieceIdentification','PieceIdentity',(#248,#249,#250,#251));
#253= IFCPROPERTYSINGLEVALUE('MaterialType',$,IFCIDENTIFIER('STEEL'),$);
#254= IFCPROPERTYSINGLEVALUE('MaterialGrade',$,IFCIDENTIFIER('S235JR'),$);
#255= IFCPROPERTYSET('1Y1YOkKxf8GuqneHvIrQFo',#5,'AISC_EM11_Pset_Material',$,(#253,#254));
#256= IFCPROPERTYSINGLEVALUE('SkewedAngleY',$,IFCREAL(0.),$);
#257= IFCPROPERTYSINGLEVALUE('SkewedAngleX',$,IFCREAL(0.00106),$);
#258= IFCPROPERTYSET('1ZRuKJEnbAwAjTZv7iowbm',#5,'AISC_EM11_Pset_SkewedEnd',$,(#256,#257));
#259= IFCPROPERTYSINGLEVALUE('SkewedAngleX',$,IFCREAL(-0.02556),$);
#260= IFCPROPERTYSET('3UiJHMTqD7VhujSENZIwNZ',#5,'AISC_EM11_Pset_SkewedEnd_2',$,(#256,#259));
#261= IFCMATERIAL('STEEL/S235JR');
#262= IFCRELAGGREGATES('0f_P062arBFR06HtRzxLwe',#5,$,$,#37,(#39));
#263= IFCRELAGGREGATES('2xGhIOKs7TXjIOZ9jFDdCw',#5,$,$,#39,(#41));
#264= IFCRELAGGREGATES('1MY9y1CcHCRRnQcpuG1_w5',#5,$,$,#41,(#43));
#265= IFCRELCONTAINEDINSPATIALSTRUCTURE('1ZyloR2f5369eX77l$udTR',#5,$,$,(#73),#43);
#266= IFCRELDEFINESBYPROPERTIES('16Uh6u97T5txUUtnT5RRlk',#5,$,$,(#96,#83),#89);
#267= IFCRELDEFINESBYPROPERTIES('0KrbLS3zj1pOijpNAG1lAr',#5,$,$,(#106),#110);
#268= IFCRELDEFINESBYPROPERTIES('3wzkum8C9CgB0jPUV9$WWs',#5,$,$,(#118),#121);
#269= IFCRELDEFINESBYPROPERTIES('1qlTgXgyD5vg5uQAg$Af6a',#5,$,$,(#246,#239,#232,#224,#169,#148),#153);
#270= IFCRELDEFINESBYPROPERTIES('225YC6Xrr3GBhdceBoLA3M',#5,$,$,(#73),#252);
#271= IFCRELDEFINESBYPROPERTIES('1AEpNiDk18KOOVUxo$uVU6',#5,$,$,(#73),#255);
#272= IFCRELDEFINESBYPROPERTIES('3DsS3sSmvE8v2Ud3yi6FHm',#5,$,$,(#73),#258);
#273= IFCRELDEFINESBYPROPERTIES('1mTr7w1Gr4Lg5G7VpoeTEf',#5,$,$,(#73),#260);
#274= IFCRELASSOCIATESMATERIAL('27WmbwplTEg9h5Q2S0f3$8',#5,$,$,(#73),#261);
ENDSEC;

END-ISO-10303-21;
