ISO-10303-21;
HEADER;
FILE_DESCRIPTION(('ViewDefinition[AISC_Steel_Detailing]', 'Option [BaseQuantities:Off]', 'Option [GridExport:On]', 'Option [Assemblies:Off]', 'Option [Bolts:On]', 'Option [Rebars:On]', 'Option [PourObjects:Off]', 'Option [Welds:On]', 'Option [SurfaceTreatments:On]', 'Option [LocationBy:0]', 'Option [ViewColors:Off]', 'Option [SectionedSpine:Off]', 'Option [PropertySets:On]', 'Option [Export all:Off]'),'2;1');
FILE_NAME('b_430_Qty_1.ifc','2026-05-16T11:53:06',('GIOVANNIPC\\gcorrea'),('Structural Designer'),'IFC Database version: Work','Tekla Structures 2020 Service Pack 5, IFC Export Version: 4.0.0.0 Dec  7 2020','');
FILE_SCHEMA(('IFC2X3'));
ENDSEC;

DATA;
#1= IFCPERSON('GIOVANNIPC\\gcorrea','Undefined',$,$,$,$,$,$);
#2= IFCORGANIZATION($,'Trimble Solutions Corporation',$,$,$);
#3= IFCPERSONANDORGANIZATION(#1,#2,$);
#4= IFCAPPLICATION(#2,'2020 Service Pack 5','Tekla Structures','Multi material modeling');
#5= IFCOWNERHISTORY(#3,#4,$,.NOCHANGE.,$,$,$,1778950386);
#6= IFCCARTESIANPOINT((0.,0.,0.));
#7= IFCDIRECTION((1.,0.,0.));
#8= IFCDIRECTION((0.,1.,0.));
#9= IFCDIRECTION((0.,0.,1.));
#10= IFCAXIS2PLACEMENT3D(#6,#9,#7);
#11= IFCGEOMETRICREPRESENTATIONCONTEXT($,'Model',3,1.E-05,#10,$);
#12= IFCGEOMETRICREPRESENTATIONSUBCONTEXT('Body','Model',*,*,*,*,#11,$,.MODEL_VIEW.,$);
#13= IFCGEOMETRICREPRESENTATIONSUBCONTEXT('Axis','Model',*,*,*,*,#11,$,.GRAPH_VIEW.,$);
#14= IFCGEOMETRICREPRESENTATIONSUBCONTEXT('FootPrint','Model',*,*,*,*,#11,$,.MODEL_VIEW.,$);
#15= IFCSIUNIT(*,.LENGTHUNIT.,.MILLI.,.METRE.);
#16= IFCMEASUREWITHUNIT(IFCRATIOMEASURE(304.8),#15);
#17= IFCDIMENSIONALEXPONENTS(1,0,0,0,0,0,0);
#18= IFCCONVERSIONBASEDUNIT(#17,.LENGTHUNIT.,'FOOT',#16);
#19= IFCSIUNIT(*,.AREAUNIT.,$,.SQUARE_METRE.);
#20= IFCMEASUREWITHUNIT(IFCRATIOMEASURE(0.09290304),#19);
#21= IFCDIMENSIONALEXPONENTS(2,0,0,0,0,0,0);
#22= IFCCONVERSIONBASEDUNIT(#21,.AREAUNIT.,'SQUARE FOOT',#20);
#23= IFCSIUNIT(*,.VOLUMEUNIT.,$,.CUBIC_METRE.);
#24= IFCMEASUREWITHUNIT(IFCRATIOMEASURE(0.028316846592),#23);
#25= IFCDIMENSIONALEXPONENTS(3,0,0,0,0,0,0);
#26= IFCCONVERSIONBASEDUNIT(#25,.VOLUMEUNIT.,'CUBIC FOOT',#24);
#27= IFCSIUNIT(*,.MASSUNIT.,.KILO.,.GRAM.);
#28= IFCSIUNIT(*,.TIMEUNIT.,$,.SECOND.);
#29= IFCSIUNIT(*,.PLANEANGLEUNIT.,$,.RADIAN.);
#30= IFCMEASUREWITHUNIT(IFCRATIOMEASURE(0.0174532925199433),#29);
#31= IFCDIMENSIONALEXPONENTS(0,0,0,0,0,0,0);
#32= IFCCONVERSIONBASEDUNIT(#31,.PLANEANGLEUNIT.,'DEGREE',#30);
#33= IFCSIUNIT(*,.SOLIDANGLEUNIT.,$,.STERADIAN.);
#34= IFCSIUNIT(*,.THERMODYNAMICTEMPERATUREUNIT.,$,.DEGREE_CELSIUS.);
#35= IFCSIUNIT(*,.LUMINOUSINTENSITYUNIT.,$,.LUMEN.);
#36= IFCUNITASSIGNMENT((#15,#19,#23,#27,#28,#29,#33,#34,#35));
#37= IFCPROJECT('2G7ZFDNE16yBDU14FA92Me',#5,'Proyecto',$,$,$,$,(#11),#36);
#38= IFCLOCALPLACEMENT($,#10);
#39= IFCSITE('2xvEzEinjBTea80yOTcujY',#5,'Obra',$,$,#38,$,$,.ELEMENT.,$,$,$,$,$);
#40= IFCLOCALPLACEMENT(#38,#10);
#41= IFCBUILDING('061YluM9X8KuhhWWno5xvm',#5,'Undefined',$,$,#40,$,$,.ELEMENT.,$,$,$);
#42= IFCLOCALPLACEMENT(#40,#10);
#43= IFCBUILDINGSTOREY('29hdEUCErFze9E_VIAceOd',#5,'Undefined',$,$,#42,$,$,.ELEMENT.,0.);
#44= IFCOWNERHISTORY(#3,#4,$,.NOCHANGE.,$,$,$,1775840400);
#45= IFCCARTESIANPOINT((25872.5869293213,24355.000927103,32100.));
#46= IFCDIRECTION((0.999999999998592,1.67799999980802E-06,0.));
#47= IFCAXIS2PLACEMENT3D(#45,#9,#46);
#48= IFCLOCALPLACEMENT(#42,#47);
#49= IFCDIRECTION((1.,0.));
#50= IFCCARTESIANPOINT((0.,0.));
#51= IFCAXIS2PLACEMENT2D(#50,#49);
#52= IFCISHAPEPROFILEDEF(.AREA.,'IPE400',#51,180.,400.,8.600000381,13.5,21.);
#53= IFCDIRECTION((-2.11758236813575E-22,-1.,0.));
#54= IFCDIRECTION((-1.,2.11758236813575E-22,0.));
#55= IFCCARTESIANPOINT((7964.98683240962,-3.63798049374328E-12,7.27595761418343E-12));
#56= IFCAXIS2PLACEMENT3D(#55,#54,#53);
#57= IFCEXTRUDEDAREASOLID(#52,#56,#9,7974.96);
#58= IFCDIRECTION((-0.999999999998592,1.6780000005383E-06,0.));
#59= IFCCARTESIANPOINT((7964.98652732685,1.6779998986749E-05,-299.999999999993));
#60= IFCDIRECTION((1.6780000005383E-06,0.999999999998592,0.));
#61= IFCAXIS2PLACEMENT3D(#59,#58,#60);
#62= IFCPLANE(#61);
#63= IFCHALFSPACESOLID(#62,.T.);
#64= IFCBOOLEANCLIPPINGRESULT(.DIFFERENCE.,#57,#63);
#65= IFCDIRECTION((0.999999999998592,-1.6780000005383E-06,0.));
#66= IFCCARTESIANPOINT((-9.97438738722121,-1.67800026247278E-05,-299.999999999993));
#67= IFCDIRECTION((-1.6780000005383E-06,-0.999999999998592,0.));
#68= IFCAXIS2PLACEMENT3D(#66,#65,#67);
#69= IFCPLANE(#68);
#70= IFCHALFSPACESOLID(#69,.T.);
#71= IFCBOOLEANCLIPPINGRESULT(.DIFFERENCE.,#64,#70);
#72= IFCSHAPEREPRESENTATION(#12,'Body','Clipping',(#71));
#73= IFCPRODUCTDEFINITIONSHAPE($,$,(#72));
#74= IFCBEAM('0rvTjBwdT8XhqARcfZwFO6',#44,'BEAM','IPE400','IPE400',#48,#73,'ID35e5db4b-ea77-4886-bd0a-6e6a63e8f606');
#75= IFCLOCALPLACEMENT(#42,#47);
#76= IFCRECTANGLEPROFILEDEF(.AREA.,'PL101.8*12.1',#51,12.1,101.8);
#77= IFCDIRECTION((0.,0.,-1.));
#78= IFCCARTESIANPOINT((-15.9373636271775,40.1314677830924,201.000000000007));
#79= IFCAXIS2PLACEMENT3D(#78,#77,#65);
#80= IFCEXTRUDEDAREASOLID(#76,#79,#9,402.);
#81= IFCSHAPEREPRESENTATION(#12,'Body','SweptSolid',(#80));
#82= IFCPRODUCTDEFINITIONSHAPE($,$,(#81));
#83= IFCOPENINGELEMENT('2uo5xYODD1quLqH2JR_XvH',#5,$,$,'Recess',#75,#82,$);
#84= IFCRELVOIDSELEMENT('1jBxybInrER8QbIjqs9fdy',#5,$,$,#74,#83);
#85= IFCPROPERTYSINGLEVALUE('FeatureSubTypes',$,$,$);
#86= IFCPROPERTYSINGLEVALUE('RectangleOpeningWidth',$,IFCPOSITIVELENGTHMEASURE(12.1),$);
#87= IFCPROPERTYSINGLEVALUE('RectangleOpeningHeight',$,IFCPOSITIVELENGTHMEASURE(101.8),$);
#88= IFCPROPERTYSINGLEVALUE('OpeningDiameter',$,$,$);
#89= IFCPROPERTYSET('3_47D86nfEdeKAveo6rvdg',#5,'AISC_EM11_Pset_Opening/Cope',$,(#85,#86,#87,#88));
#90= IFCLOCALPLACEMENT(#42,#47);
#91= IFCRECTANGLEPROFILEDEF(.AREA.,'PL100.2*12.1',#51,12.1,100.2);
#92= IFCCARTESIANPOINT((-15.9374995564067,-40.8752232074003,201.000000000007));
#93= IFCAXIS2PLACEMENT3D(#92,#77,#65);
#94= IFCEXTRUDEDAREASOLID(#91,#93,#9,402.);
#95= IFCSHAPEREPRESENTATION(#12,'Body','SweptSolid',(#94));
#96= IFCPRODUCTDEFINITIONSHAPE($,$,(#95));
#97= IFCOPENINGELEMENT('0UA7gnjAL6mvkBwz2kig2K',#5,$,$,'Recess',#90,#96,$);
#98= IFCRELVOIDSELEMENT('0TJjIuCX9EExK0vqwPtaUg',#5,$,$,#74,#97);
#99= IFCPROPERTYSINGLEVALUE('RectangleOpeningHeight',$,IFCPOSITIVELENGTHMEASURE(100.2),$);
#100= IFCPROPERTYSET('2Oa$ql1cT3phsPEmOATwrZ',#5,'AISC_EM11_Pset_Opening/Cope',$,(#85,#86,#99,#88));
#101= IFCLOCALPLACEMENT(#42,#47);
#102= IFCRECTANGLEPROFILEDEF(.AREA.,'PL100.3*12.1',#51,12.1,100.3);
#103= IFCCARTESIANPOINT((7970.94959308098,-40.8809874407743,201.000000000007));
#104= IFCAXIS2PLACEMENT3D(#103,#77,#58);
#105= IFCEXTRUDEDAREASOLID(#102,#104,#9,402.);
#106= IFCSHAPEREPRESENTATION(#12,'Body','SweptSolid',(#105));
#107= IFCPRODUCTDEFINITIONSHAPE($,$,(#106));
#108= IFCOPENINGELEMENT('1FBafOJgbB8hacu9Z0T3r5',#5,$,$,'Recess',#101,#107,$);
#109= IFCRELVOIDSELEMENT('3gXxXqYgTCrfJCFIF8Stl4',#5,$,$,#74,#108);
#110= IFCPROPERTYSINGLEVALUE('RectangleOpeningHeight',$,IFCPOSITIVELENGTHMEASURE(100.3),$);
#111= IFCPROPERTYSET('2KOU9JsnP4fgRXb141XMlJ',#5,'AISC_EM11_Pset_Opening/Cope',$,(#85,#86,#110,#88));
#112= IFCLOCALPLACEMENT(#42,#47);
#113= IFCRECTANGLEPROFILEDEF(.AREA.,'PL101.7*12.1',#51,12.1,101.7);
#114= IFCCARTESIANPOINT((7970.9497290102,40.1256951810792,201.000000000007));
#115= IFCAXIS2PLACEMENT3D(#114,#77,#58);
#116= IFCEXTRUDEDAREASOLID(#113,#115,#9,402.);
#117= IFCSHAPEREPRESENTATION(#12,'Body','SweptSolid',(#116));
#118= IFCPRODUCTDEFINITIONSHAPE($,$,(#117));
#119= IFCOPENINGELEMENT('3g19emGX15dAGd5u9hivHo',#5,$,$,'Recess',#112,#118,$);
#120= IFCRELVOIDSELEMENT('2L$l1rzBf0BepRGRkNuewl',#5,$,$,#74,#119);
#121= IFCPROPERTYSINGLEVALUE('RectangleOpeningHeight',$,IFCPOSITIVELENGTHMEASURE(101.7),$);
#122= IFCPROPERTYSET('3Cq4PuvYfA6Rt9VqnpB1gi',#5,'AISC_EM11_Pset_Opening/Cope',$,(#85,#86,#121,#88));
#123= IFCCARTESIANPOINT((25862.6125419341,24355.000927146,32300.));
#124= IFCAXIS2PLACEMENT3D(#123,#7,#77);
#125= IFCLOCALPLACEMENT(#42,#124);
#126= IFCCIRCLEPROFILEDEF(.AREA.,$,#51,11.5);
#127= IFCCARTESIANPOINT((0.,-4.39993307052793,0.));
#128= IFCAXIS2PLACEMENT3D(#127,#8,#7);
#129= IFCEXTRUDEDAREASOLID(#126,#128,#9,8.8);
#130= IFCSHAPEREPRESENTATION(#12,'Body','SweptSolid',(#129));
#131= IFCREPRESENTATIONMAP(#10,#130);
#132= IFCCARTESIANPOINT((110.,0.,50.));
#133= IFCCARTESIANTRANSFORMATIONOPERATOR3D($,$,#132,$,$);
#134= IFCMAPPEDITEM(#131,#133);
#135= IFCCARTESIANPOINT((170.,0.,50.));
#136= IFCCARTESIANTRANSFORMATIONOPERATOR3D($,$,#135,$,$);
#137= IFCMAPPEDITEM(#131,#136);
#138= IFCCARTESIANPOINT((230.,0.,50.));
#139= IFCCARTESIANTRANSFORMATIONOPERATOR3D($,$,#138,$,$);
#140= IFCMAPPEDITEM(#131,#139);
#141= IFCCARTESIANPOINT((290.,0.,50.));
#142= IFCCARTESIANTRANSFORMATIONOPERATOR3D($,$,#141,$,$);
#143= IFCMAPPEDITEM(#131,#142);
#144= IFCSHAPEREPRESENTATION(#12,'Body','MappedRepresentation',(#134,#137,#140,#143));
#145= IFCPRODUCTDEFINITIONSHAPE($,$,(#144));
#146= IFCOPENINGELEMENT('2LDEhL1_XAJw5CGnBFgVCD',#5,$,$,'Opening',#125,#145,$);
#147= IFCRELVOIDSELEMENT('3N8f1gfVz5NARTx5kT1BoY',#5,'Drill Hole',$,#74,#146);
#148= IFCPROPERTYSINGLEVALUE('FeatureSubTypes',$,IFCLABEL('TORNILLO'),$);
#149= IFCPROPERTYSINGLEVALUE('RectangleOpeningWidth',$,$,$);
#150= IFCPROPERTYSINGLEVALUE('RectangleOpeningHeight',$,$,$);
#151= IFCPROPERTYSET('3hZEMuhyjDqhjeZ9h0c9T4',#5,'AISC_EM11_Pset_Opening/Cope',$,(#148,#149,#150,#88));
#152= IFCCARTESIANPOINT((33837.5734566369,24355.0142755667,32300.));
#153= IFCAXIS2PLACEMENT3D(#152,#54,#77);
#154= IFCLOCALPLACEMENT(#42,#153);
#155= IFCSHAPEREPRESENTATION(#12,'Body','MappedRepresentation',(#134,#137,#140,#143));
#156= IFCPRODUCTDEFINITIONSHAPE($,$,(#155));
#157= IFCOPENINGELEMENT('1NrXFk4an0t8T20bjWHCdo',#5,$,$,'Opening',#154,#156,$);
#158= IFCRELVOIDSELEMENT('1iwPtNsMH1Gxb82iPNjnWs',#5,'Drill Hole',$,#74,#157);
#159= IFCPROPERTYSINGLEVALUE('PieceMark',$,IFCIDENTIFIER('BEAM'),$);
#160= IFCPROPERTYSINGLEVALUE('IndicationMark',$,IFCIDENTIFIER('b/430'),$);
#161= IFCPROPERTYSINGLEVALUE('PrelimMark',$,IFCIDENTIFIER(''),$);
#162= IFCPROPERTYSINGLEVALUE('MainPieceTag',$,IFCBOOLEAN(.T.),$);
#163= IFCPROPERTYSET('3DUW46BkX2xwBwlPJTdE61',#5,'AISC_EM11_Pset_PieceIdentification','PieceIdentity',(#159,#160,#161,#162));
#164= IFCPROPERTYSINGLEVALUE('MaterialType',$,IFCIDENTIFIER('STEEL'),$);
#165= IFCPROPERTYSINGLEVALUE('MaterialGrade',$,IFCIDENTIFIER('S235JR'),$);
#166= IFCPROPERTYSET('02att5yun5Px6hTDUXclvI',#5,'AISC_EM11_Pset_Material',$,(#164,#165));
#167= IFCPROPERTYSINGLEVALUE('SkewedAngleY',$,IFCREAL(0.),$);
#168= IFCPROPERTYSINGLEVALUE('SkewedAngleX',$,IFCREAL(0.0001),$);
#169= IFCPROPERTYSET('1uhFPSgrr9ThWsUWtzuDmX',#5,'AISC_EM11_Pset_SkewedEnd',$,(#167,#168));
#170= IFCPROPERTYSET('343SP3wgfA6wY86MozFQtO',#5,'AISC_EM11_Pset_SkewedEnd_2',$,(#167,#168));
#171= IFCMATERIAL('STEEL/S235JR');
#172= IFCRELAGGREGATES('3pL7nG3Vn2_vxQuI_ul3hH',#5,$,$,#37,(#39));
#173= IFCRELAGGREGATES('25dP3YLn3KGBDiAaGA1LzZ',#5,$,$,#39,(#41));
#174= IFCRELAGGREGATES('16iKVFpPPDk80AuCd9ncvN',#5,$,$,#41,(#43));
#175= IFCRELCONTAINEDINSPATIALSTRUCTURE('3WH2fbU259PRsxrrmEfnNW',#5,$,$,(#74),#43);
#176= IFCRELDEFINESBYPROPERTIES('3JAWSSWCX3oeiUwBEV9nL1',#5,$,$,(#83),#89);
#177= IFCRELDEFINESBYPROPERTIES('1ETgMB5qnAOPqTPXR1FK7N',#5,$,$,(#97),#100);
#178= IFCRELDEFINESBYPROPERTIES('1E88wrWD1DwPjuzdW80AUz',#5,$,$,(#108),#111);
#179= IFCRELDEFINESBYPROPERTIES('18lG1mmsjDBB3y4wNO8yTY',#5,$,$,(#119),#122);
#180= IFCRELDEFINESBYPROPERTIES('2sqLd5i5rDqwWWI64Prx8n',#5,$,$,(#157,#146),#151);
#181= IFCRELDEFINESBYPROPERTIES('2at7vKU5v4wgX8upp3T$B4',#5,$,$,(#74),#163);
#182= IFCRELDEFINESBYPROPERTIES('3zIXKjIo5DX8AjgWQm_9Gt',#5,$,$,(#74),#166);
#183= IFCRELDEFINESBYPROPERTIES('2_4sm$KVr0dQPJYrDrl2qN',#5,$,$,(#74),#169);
#184= IFCRELDEFINESBYPROPERTIES('33idBBgdbBgwmjs1bfj0T8',#5,$,$,(#74),#170);
#185= IFCRELASSOCIATESMATERIAL('3r8GDF3YTD$fqm9hK8ljqG',#5,$,$,(#74),#171);
ENDSEC;

END-ISO-10303-21;
