ISO-10303-21;
HEADER;
FILE_DESCRIPTION(('ViewDefinition[AISC_Steel_Detailing]', 'Option [BaseQuantities:Off]', 'Option [GridExport:On]', 'Option [Assemblies:Off]', 'Option [Bolts:On]', 'Option [Rebars:On]', 'Option [PourObjects:Off]', 'Option [Welds:On]', 'Option [SurfaceTreatments:On]', 'Option [LocationBy:0]', 'Option [ViewColors:Off]', 'Option [SectionedSpine:Off]', 'Option [PropertySets:On]', 'Option [Export all:Off]'),'2;1');
FILE_NAME('b_4_Qty_1.ifc','2026-05-16T11:53:17',('GIOVANNIPC\\gcorrea'),('Structural Designer'),'IFC Database version: Work','Tekla Structures 2020 Service Pack 5, IFC Export Version: 4.0.0.0 Dec  7 2020','');
FILE_SCHEMA(('IFC2X3'));
ENDSEC;

DATA;
#1= IFCPERSON('GIOVANNIPC\\gcorrea','Undefined',$,$,$,$,$,$);
#2= IFCORGANIZATION($,'Trimble Solutions Corporation',$,$,$);
#3= IFCPERSONANDORGANIZATION(#1,#2,$);
#4= IFCAPPLICATION(#2,'2020 Service Pack 5','Tekla Structures','Multi material modeling');
#5= IFCOWNERHISTORY(#3,#4,$,.NOCHANGE.,$,$,$,1778950396);
#6= IFCCARTESIANPOINT((0.,0.,0.));
#7= IFCDIRECTION((1.,0.,0.));
#8= IFCDIRECTION((0.,1.,0.));
#9= IFCDIRECTION((0.,0.,1.));
#10= IFCAXIS2PLACEMENT3D(#6,#9,#7);
#11= IFCGEOMETRICREPRESENTATIONCONTEXT($,'Model',3,1.E-05,#10,$);
#12= IFCGEOMETRICREPRESENTATIONSUBCONTEXT('Body','Model',*,*,*,*,#11,$,.MODEL_VIEW.,$);
#13= IFCGEOMETRICREPRESENTATIONSUBCONTEXT('Axis','Model',*,*,*,*,#11,$,.GRAPH_VIEW.,$);
#14= IFCGEOMETRICREPRESENTATIONSUBCONTEXT('FootPrint','Model',*,*,*,*,#11,$,.MODEL_VIEW.,$);
#15= IFCSIUNIT(*,.LENGTHUNIT.,.MILLI.,.METRE.);
#16= IFCMEASUREWITHUNIT(IFCRATIOMEASURE(304.8),#15);
#17= IFCDIMENSIONALEXPONENTS(1,0,0,0,0,0,0);
#18= IFCCONVERSIONBASEDUNIT(#17,.LENGTHUNIT.,'FOOT',#16);
#19= IFCSIUNIT(*,.AREAUNIT.,$,.SQUARE_METRE.);
#20= IFCMEASUREWITHUNIT(IFCRATIOMEASURE(0.09290304),#19);
#21= IFCDIMENSIONALEXPONENTS(2,0,0,0,0,0,0);
#22= IFCCONVERSIONBASEDUNIT(#21,.AREAUNIT.,'SQUARE FOOT',#20);
#23= IFCSIUNIT(*,.VOLUMEUNIT.,$,.CUBIC_METRE.);
#24= IFCMEASUREWITHUNIT(IFCRATIOMEASURE(0.028316846592),#23);
#25= IFCDIMENSIONALEXPONENTS(3,0,0,0,0,0,0);
#26= IFCCONVERSIONBASEDUNIT(#25,.VOLUMEUNIT.,'CUBIC FOOT',#24);
#27= IFCSIUNIT(*,.MASSUNIT.,.KILO.,.GRAM.);
#28= IFCSIUNIT(*,.TIMEUNIT.,$,.SECOND.);
#29= IFCSIUNIT(*,.PLANEANGLEUNIT.,$,.RADIAN.);
#30= IFCMEASUREWITHUNIT(IFCRATIOMEASURE(0.0174532925199433),#29);
#31= IFCDIMENSIONALEXPONENTS(0,0,0,0,0,0,0);
#32= IFCCONVERSIONBASEDUNIT(#31,.PLANEANGLEUNIT.,'DEGREE',#30);
#33= IFCSIUNIT(*,.SOLIDANGLEUNIT.,$,.STERADIAN.);
#34= IFCSIUNIT(*,.THERMODYNAMICTEMPERATUREUNIT.,$,.DEGREE_CELSIUS.);
#35= IFCSIUNIT(*,.LUMINOUSINTENSITYUNIT.,$,.LUMEN.);
#36= IFCUNITASSIGNMENT((#15,#19,#23,#27,#28,#29,#33,#34,#35));
#37= IFCPROJECT('2G7ZFDNE16yBDU14FA92Me',#5,'Proyecto',$,$,$,$,(#11),#36);
#38= IFCLOCALPLACEMENT($,#10);
#39= IFCSITE('2xvEzEinjBTea80yOTcujY',#5,'Obra',$,$,#38,$,$,.ELEMENT.,$,$,$,$,$);
#40= IFCLOCALPLACEMENT(#38,#10);
#41= IFCBUILDING('16zDzZUvf8VuXgE16StS8Y',#5,'Undefined',$,$,#40,$,$,.ELEMENT.,$,$,$);
#42= IFCLOCALPLACEMENT(#40,#10);
#43= IFCBUILDINGSTOREY('29hdEUCErFze9E_VIAceOd',#5,'Undefined',$,$,#42,$,$,.ELEMENT.,0.);
#44= IFCOWNERHISTORY(#3,#4,$,.NOCHANGE.,$,$,$,1773414000);
#45= IFCCARTESIANPOINT((25676.3482025986,1603.28932952881,19130.));
#46= IFCAXIS2PLACEMENT3D(#45,#9,#7);
#47= IFCLOCALPLACEMENT(#42,#46);
#48= IFCDIRECTION((1.,0.));
#49= IFCCARTESIANPOINT((0.,0.));
#50= IFCAXIS2PLACEMENT2D(#49,#48);
#51= IFCISHAPEPROFILEDEF(.AREA.,'HEA450',#50,300.,440.,11.5,21.,27.);
#52= IFCDIRECTION((0.,-1.,0.));
#53= IFCDIRECTION((-1.,0.,0.));
#54= IFCCARTESIANPOINT((8100.65179740141,0.,0.));
#55= IFCAXIS2PLACEMENT3D(#54,#53,#52);
#56= IFCEXTRUDEDAREASOLID(#51,#55,#9,8248.26);
#57= IFCCARTESIANPOINT((8100.65179740141,1.21965348500999,-325.));
#58= IFCAXIS2PLACEMENT3D(#57,#53,#8);
#59= IFCPLANE(#58);
#60= IFCHALFSPACESOLID(#59,.T.);
#61= IFCBOOLEANCLIPPINGRESULT(.DIFFERENCE.,#56,#60);
#62= IFCCARTESIANPOINT((-147.603259052274,-1.11413100967184E-11,-320.));
#63= IFCAXIS2PLACEMENT3D(#62,#7,#52);
#64= IFCPLANE(#63);
#65= IFCHALFSPACESOLID(#64,.T.);
#66= IFCBOOLEANCLIPPINGRESULT(.DIFFERENCE.,#61,#65);
#67= IFCSHAPEREPRESENTATION(#12,'Body','Clipping',(#66));
#68= IFCPRODUCTDEFINITIONSHAPE($,$,(#67));
#69= IFCBEAM('1Q0dwis9z12wCuLX128sqq',#44,'BEAM','HEA450','HEA450',#47,#68,'ID5a027eac-d89f-410b-a338-561042236d34');
#70= IFCLOCALPLACEMENT(#42,#46);
#71= IFCRECTANGLEPROFILEDEF(.AREA.,'PL49*144',#50,49.,144.);
#72= IFCDIRECTION((0.,0.,-1.));
#73= IFCCARTESIANPOINT((-81.2274564472682,-151.000000000558,-196.5));
#74= IFCAXIS2PLACEMENT3D(#73,#8,#72);
#75= IFCEXTRUDEDAREASOLID(#71,#74,#9,302.);
#76= IFCSHAPEREPRESENTATION(#12,'Body','SweptSolid',(#75));
#77= IFCPRODUCTDEFINITIONSHAPE($,$,(#76));
#78= IFCOPENINGELEMENT('39stgiEe12ZBCMpWfJwoRV',#5,$,$,'Recess',#70,#77,$);
#79= IFCRELVOIDSELEMENT('2ZbuB74hnESAXg$jgubmB_',#5,$,$,#69,#78);
#80= IFCPROPERTYSINGLEVALUE('FeatureSubTypes',$,$,$);
#81= IFCPROPERTYSINGLEVALUE('RectangleOpeningWidth',$,IFCPOSITIVELENGTHMEASURE(49.),$);
#82= IFCPROPERTYSINGLEVALUE('RectangleOpeningHeight',$,IFCPOSITIVELENGTHMEASURE(144.),$);
#83= IFCPROPERTYSINGLEVALUE('OpeningDiameter',$,$,$);
#84= IFCPROPERTYSET('1VF$0YfM19ROqrfA3bkky7',#5,'AISC_EM11_Pset_Opening/Cope',$,(#80,#81,#82,#83));
#85= IFCLOCALPLACEMENT(#42,#46);
#86= IFCCARTESIANPOINT((-81.2274564472682,-151.000000000558,196.5));
#87= IFCAXIS2PLACEMENT3D(#86,#8,#72);
#88= IFCEXTRUDEDAREASOLID(#71,#87,#9,302.);
#89= IFCSHAPEREPRESENTATION(#12,'Body','SweptSolid',(#88));
#90= IFCPRODUCTDEFINITIONSHAPE($,$,(#89));
#91= IFCOPENINGELEMENT('0tis4edGTEoPr4fTDlfCdA',#5,$,$,'Recess',#85,#90,$);
#92= IFCRELVOIDSELEMENT('04dV4laIL0sftOwmAdzwBu',#5,$,$,#69,#91);
#93= IFCLOCALPLACEMENT(#42,#46);
#94= IFCCARTESIANPOINT((-75.6032590522736,-151.000000000558,-196.5));
#95= IFCAXIS2PLACEMENT3D(#94,#8,#72);
#96= IFCEXTRUDEDAREASOLID(#71,#95,#9,302.);
#97= IFCSHAPEREPRESENTATION(#12,'Body','SweptSolid',(#96));
#98= IFCPRODUCTDEFINITIONSHAPE($,$,(#97));
#99= IFCOPENINGELEMENT('2Tf_W1nznCkwP9_pT8O$6o',#5,$,$,'Recess',#93,#98,$);
#100= IFCRELVOIDSELEMENT('0wYNgYiN9DKerhXDRIpskF',#5,$,$,#69,#99);
#101= IFCLOCALPLACEMENT(#42,#46);
#102= IFCCARTESIANPOINT((-75.6032590522736,-151.000000000558,196.5));
#103= IFCAXIS2PLACEMENT3D(#102,#8,#72);
#104= IFCEXTRUDEDAREASOLID(#71,#103,#9,302.);
#105= IFCSHAPEREPRESENTATION(#12,'Body','SweptSolid',(#104));
#106= IFCPRODUCTDEFINITIONSHAPE($,$,(#105));
#107= IFCOPENINGELEMENT('09n8273XL02B2ORnm6uiE$',#5,$,$,'Recess',#101,#106,$);
#108= IFCRELVOIDSELEMENT('0ZYaQByV5Cs99arVytfMkz',#5,$,$,#69,#107);
#109= IFCLOCALPLACEMENT(#42,#46);
#110= IFCRECTANGLEPROFILEDEF(.AREA.,'PL163.2*12',#50,12.,163.2);
#111= IFCCARTESIANPOINT((8116.66056115269,-69.399829864502,221.));
#112= IFCAXIS2PLACEMENT3D(#111,#72,#53);
#113= IFCEXTRUDEDAREASOLID(#110,#112,#9,442.);
#114= IFCSHAPEREPRESENTATION(#12,'Body','SweptSolid',(#113));
#115= IFCPRODUCTDEFINITIONSHAPE($,$,(#114));
#116= IFCOPENINGELEMENT('1lrY7GDmX1yQ$Nfd4EfnmK',#5,$,$,'Recess',#109,#115,$);
#117= IFCRELVOIDSELEMENT('1_RjzD50vDBQCCbAQDtLgN',#5,$,$,#69,#116);
#118= IFCPROPERTYSINGLEVALUE('RectangleOpeningWidth',$,IFCPOSITIVELENGTHMEASURE(12.),$);
#119= IFCPROPERTYSINGLEVALUE('RectangleOpeningHeight',$,IFCPOSITIVELENGTHMEASURE(163.2),$);
#120= IFCPROPERTYSET('0ucJx4WMb7FhBvwwq_htQ8',#5,'AISC_EM11_Pset_Opening/Cope',$,(#80,#118,#119,#83));
#121= IFCLOCALPLACEMENT(#42,#46);
#122= IFCRECTANGLEPROFILEDEF(.AREA.,'PL162.8*12',#50,12.,162.8);
#123= IFCCARTESIANPOINT((8116.66056115269,69.600170135498,221.));
#124= IFCAXIS2PLACEMENT3D(#123,#72,#53);
#125= IFCEXTRUDEDAREASOLID(#122,#124,#9,442.);
#126= IFCSHAPEREPRESENTATION(#12,'Body','SweptSolid',(#125));
#127= IFCPRODUCTDEFINITIONSHAPE($,$,(#126));
#128= IFCOPENINGELEMENT('1ovnus4uDC9vrbGFpNjPUm',#5,$,$,'Recess',#121,#127,$);
#129= IFCRELVOIDSELEMENT('1FVpooDd532fMQMPxjcX2G',#5,$,$,#69,#128);
#130= IFCPROPERTYSINGLEVALUE('RectangleOpeningHeight',$,IFCPOSITIVELENGTHMEASURE(162.8),$);
#131= IFCPROPERTYSET('3ljJI$OYT8JegR4z6T79UH',#5,'AISC_EM11_Pset_Opening/Cope',$,(#80,#118,#130,#83));
#132= IFCLOCALPLACEMENT(#42,#46);
#133= IFCRECTANGLEPROFILEDEF(.AREA.,'PL108*12',#50,12.,108.);
#134= IFCCARTESIANPOINT((8116.65179740141,-40.78034651499,226.));
#135= IFCAXIS2PLACEMENT3D(#134,#72,#53);
#136= IFCEXTRUDEDAREASOLID(#133,#135,#9,452.);
#137= IFCSHAPEREPRESENTATION(#12,'Body','SweptSolid',(#136));
#138= IFCPRODUCTDEFINITIONSHAPE($,$,(#137));
#139= IFCOPENINGELEMENT('2ykvrbeaj82h1YF2985Mnd',#5,$,$,'Recess',#132,#138,$);
#140= IFCRELVOIDSELEMENT('27HaOYaLb6LPZA24n2uz0W',#5,$,$,#69,#139);
#141= IFCPROPERTYSINGLEVALUE('RectangleOpeningHeight',$,IFCPOSITIVELENGTHMEASURE(108.),$);
#142= IFCPROPERTYSET('1sBzP_fvbBxuHPy45Y1rJf',#5,'AISC_EM11_Pset_Opening/Cope',$,(#80,#118,#141,#83));
#143= IFCLOCALPLACEMENT(#42,#46);
#144= IFCCARTESIANPOINT((8116.65179740141,43.21965348501,226.));
#145= IFCAXIS2PLACEMENT3D(#144,#72,#53);
#146= IFCEXTRUDEDAREASOLID(#133,#145,#9,452.);
#147= IFCSHAPEREPRESENTATION(#12,'Body','SweptSolid',(#146));
#148= IFCPRODUCTDEFINITIONSHAPE($,$,(#147));
#149= IFCOPENINGELEMENT('0CdltszpfCEx3JAa76aap$',#5,$,$,'Recess',#143,#148,$);
#150= IFCRELVOIDSELEMENT('2hTOg1aMPFSQF1ymJqZabk',#5,$,$,#69,#149);
#151= IFCCARTESIANPOINT((25712.7498481236,1602.3162756695,19350.));
#152= IFCDIRECTION((-0.00127341800025897,0.99999918920297,0.));
#153= IFCDIRECTION((0.99999918920297,0.00127341800025859,0.));
#154= IFCAXIS2PLACEMENT3D(#151,#152,#153);
#155= IFCLOCALPLACEMENT(#42,#154);
#156= IFCCIRCLEPROFILEDEF(.AREA.,$,#50,11.5);
#157= IFCCARTESIANPOINT((0.,-0.0999999999999929,0.));
#158= IFCAXIS2PLACEMENT3D(#157,#8,#7);
#159= IFCEXTRUDEDAREASOLID(#156,#158,#9,21.2);
#160= IFCSHAPEREPRESENTATION(#12,'Body','SweptSolid',(#159));
#161= IFCREPRESENTATIONMAP(#10,#160);
#162= IFCCARTESIANPOINT((-1.01863406598568E-10,0.,-50.0000000000011));
#163= IFCCARTESIANTRANSFORMATIONOPERATOR3D($,$,#162,$,$);
#164= IFCMAPPEDITEM(#161,#163);
#165= IFCCARTESIANPOINT((69.9999999999964,0.,-50.000000000224));
#166= IFCCARTESIANTRANSFORMATIONOPERATOR3D($,$,#165,$,$);
#167= IFCMAPPEDITEM(#161,#166);
#168= IFCCARTESIANPOINT((140.000000000091,0.,-50.000000000447));
#169= IFCCARTESIANTRANSFORMATIONOPERATOR3D($,$,#168,$,$);
#170= IFCMAPPEDITEM(#161,#169);
#171= IFCCARTESIANPOINT((210.000000000189,0.,-50.0000000006696));
#172= IFCCARTESIANTRANSFORMATIONOPERATOR3D($,$,#171,$,$);
#173= IFCMAPPEDITEM(#161,#172);
#174= IFCCARTESIANPOINT((280.000000000287,0.,-50.0000000008927));
#175= IFCCARTESIANTRANSFORMATIONOPERATOR3D($,$,#174,$,$);
#176= IFCMAPPEDITEM(#161,#175);
#177= IFCCARTESIANPOINT((350.000000000382,0.,-50.0000000011155));
#178= IFCCARTESIANTRANSFORMATIONOPERATOR3D($,$,#177,$,$);
#179= IFCMAPPEDITEM(#161,#178);
#180= IFCCARTESIANPOINT((420.00000000048,0.,-50.0000000013385));
#181= IFCCARTESIANTRANSFORMATIONOPERATOR3D($,$,#180,$,$);
#182= IFCMAPPEDITEM(#161,#181);
#183= IFCCARTESIANPOINT((1.0550138540566E-10,0.,50.0000000000011));
#184= IFCCARTESIANTRANSFORMATIONOPERATOR3D($,$,#183,$,$);
#185= IFCMAPPEDITEM(#161,#184);
#186= IFCCARTESIANPOINT((70.0000000002001,0.,49.9999999997783));
#187= IFCCARTESIANTRANSFORMATIONOPERATOR3D($,$,#186,$,$);
#188= IFCMAPPEDITEM(#161,#187);
#189= IFCCARTESIANPOINT((140.000000000298,0.,49.9999999995553));
#190= IFCCARTESIANTRANSFORMATIONOPERATOR3D($,$,#189,$,$);
#191= IFCMAPPEDITEM(#161,#190);
#192= IFCCARTESIANPOINT((210.000000000397,0.,49.9999999993327));
#193= IFCCARTESIANTRANSFORMATIONOPERATOR3D($,$,#192,$,$);
#194= IFCMAPPEDITEM(#161,#193);
#195= IFCCARTESIANPOINT((280.000000000491,0.,49.9999999991096));
#196= IFCCARTESIANTRANSFORMATIONOPERATOR3D($,$,#195,$,$);
#197= IFCMAPPEDITEM(#161,#196);
#198= IFCCARTESIANPOINT((350.000000000589,0.,49.9999999988866));
#199= IFCCARTESIANTRANSFORMATIONOPERATOR3D($,$,#198,$,$);
#200= IFCMAPPEDITEM(#161,#199);
#201= IFCCARTESIANPOINT((420.000000000688,0.,49.9999999986637));
#202= IFCCARTESIANTRANSFORMATIONOPERATOR3D($,$,#201,$,$);
#203= IFCMAPPEDITEM(#161,#202);
#204= IFCSHAPEREPRESENTATION(#12,'Body','MappedRepresentation',(#164,#167,#170,#173,#176,#179,#182,#185,#188,#191,#194,#197,#200,#203));
#205= IFCPRODUCTDEFINITIONSHAPE($,$,(#204));
#206= IFCOPENINGELEMENT('05vmvK1bf7BBpZPKW4l$ha',#5,$,$,'Opening',#155,#205,$);
#207= IFCRELVOIDSELEMENT('1PSKd_YL9ELBMcUIawOpHt',#5,'Drill Hole',$,#69,#206);
#208= IFCPROPERTYSINGLEVALUE('FeatureSubTypes',$,IFCLABEL('TORNILLO'),$);
#209= IFCPROPERTYSINGLEVALUE('RectangleOpeningWidth',$,$,$);
#210= IFCPROPERTYSINGLEVALUE('RectangleOpeningHeight',$,$,$);
#211= IFCPROPERTYSET('3Yp9D3AJfEVQj7SXFcYjBg',#5,'AISC_EM11_Pset_Opening/Cope',$,(#208,#209,#210,#83));
#212= IFCCARTESIANPOINT((25712.8086144464,1602.3162756695,18910.));
#213= IFCDIRECTION((0.00127341800025897,-0.99999918920297,0.));
#214= IFCAXIS2PLACEMENT3D(#212,#213,#153);
#215= IFCLOCALPLACEMENT(#42,#214);
#216= IFCSHAPEREPRESENTATION(#12,'Body','MappedRepresentation',(#185,#188,#191,#194,#197,#200,#203,#164,#167,#170,#173,#176,#179,#182));
#217= IFCPRODUCTDEFINITIONSHAPE($,$,(#216));
#218= IFCOPENINGELEMENT('1phuPIm_j3MBgk7rfUrjLQ',#5,$,$,'Opening',#215,#217,$);
#219= IFCRELVOIDSELEMENT('1E3$3t7_TFrPmTi8FiJtDn',#5,'Drill Hole',$,#69,#218);
#220= IFCCARTESIANPOINT((25528.7449435463,1603.28932952879,19350.));
#221= IFCAXIS2PLACEMENT3D(#220,#7,#72);
#222= IFCLOCALPLACEMENT(#42,#221);
#223= IFCCARTESIANPOINT((0.,-5.84999999992042,0.));
#224= IFCAXIS2PLACEMENT3D(#223,#8,#7);
#225= IFCEXTRUDEDAREASOLID(#156,#224,#9,11.7);
#226= IFCSHAPEREPRESENTATION(#12,'Body','SweptSolid',(#225));
#227= IFCREPRESENTATIONMAP(#10,#226);
#228= IFCCARTESIANPOINT((107.5,0.,40.));
#229= IFCCARTESIANTRANSFORMATIONOPERATOR3D($,$,#228,$,$);
#230= IFCMAPPEDITEM(#227,#229);
#231= IFCCARTESIANPOINT((182.5,0.,40.));
#232= IFCCARTESIANTRANSFORMATIONOPERATOR3D($,$,#231,$,$);
#233= IFCMAPPEDITEM(#227,#232);
#234= IFCCARTESIANPOINT((257.5,0.,40.));
#235= IFCCARTESIANTRANSFORMATIONOPERATOR3D($,$,#234,$,$);
#236= IFCMAPPEDITEM(#227,#235);
#237= IFCCARTESIANPOINT((332.5,0.,40.));
#238= IFCCARTESIANTRANSFORMATIONOPERATOR3D($,$,#237,$,$);
#239= IFCMAPPEDITEM(#227,#238);
#240= IFCSHAPEREPRESENTATION(#12,'Body','MappedRepresentation',(#230,#233,#236,#239));
#241= IFCPRODUCTDEFINITIONSHAPE($,$,(#240));
#242= IFCOPENINGELEMENT('1e5aMcRRT7tRrXkzHJ9d7A',#5,$,$,'Opening',#222,#241,$);
#243= IFCRELVOIDSELEMENT('3w$2CryO9DC88NbBuKxag5',#5,'Drill Hole',$,#69,#242);
#244= IFCCARTESIANPOINT((33732.0175084489,1603.86310923532,18910.));
#245= IFCDIRECTION((-7.12890000359039E-05,0.999999997458939,0.));
#246= IFCDIRECTION((-0.999999997458939,-7.12890000327464E-05,0.));
#247= IFCAXIS2PLACEMENT3D(#244,#245,#246);
#248= IFCLOCALPLACEMENT(#42,#247);
#249= IFCCARTESIANPOINT((-3.12866177409887E-10,0.,74.9999999999898));
#250= IFCCARTESIANTRANSFORMATIONOPERATOR3D($,$,#249,$,$);
#251= IFCMAPPEDITEM(#161,#250);
#252= IFCCARTESIANPOINT((74.9999999999563,0.,75.0000000004675));
#253= IFCCARTESIANTRANSFORMATIONOPERATOR3D($,$,#252,$,$);
#254= IFCMAPPEDITEM(#161,#253);
#255= IFCCARTESIANPOINT((150.000000000218,0.,75.0000000009447));
#256= IFCCARTESIANTRANSFORMATIONOPERATOR3D($,$,#255,$,$);
#257= IFCMAPPEDITEM(#161,#256);
#258= IFCCARTESIANPOINT((225.00000000048,0.,75.0000000014222));
#259= IFCCARTESIANTRANSFORMATIONOPERATOR3D($,$,#258,$,$);
#260= IFCMAPPEDITEM(#161,#259);
#261= IFCCARTESIANPOINT((300.000000000742,0.,75.0000000018997));
#262= IFCCARTESIANTRANSFORMATIONOPERATOR3D($,$,#261,$,$);
#263= IFCMAPPEDITEM(#161,#262);
#264= IFCCARTESIANPOINT((375.000000001004,0.,75.0000000023774));
#265= IFCCARTESIANTRANSFORMATIONOPERATOR3D($,$,#264,$,$);
#266= IFCMAPPEDITEM(#161,#265);
#267= IFCCARTESIANPOINT((450.000000001266,0.,75.0000000028547));
#268= IFCCARTESIANTRANSFORMATIONOPERATOR3D($,$,#267,$,$);
#269= IFCMAPPEDITEM(#161,#268);
#270= IFCCARTESIANPOINT((525.000000001528,0.,75.0000000033322));
#271= IFCCARTESIANTRANSFORMATIONOPERATOR3D($,$,#270,$,$);
#272= IFCMAPPEDITEM(#161,#271);
#273= IFCCARTESIANPOINT((600.00000000179,0.,75.0000000038099));
#274= IFCCARTESIANTRANSFORMATIONOPERATOR3D($,$,#273,$,$);
#275= IFCMAPPEDITEM(#161,#274);
#276= IFCCARTESIANPOINT((675.000000002052,0.,75.0000000042874));
#277= IFCCARTESIANTRANSFORMATIONOPERATOR3D($,$,#276,$,$);
#278= IFCMAPPEDITEM(#161,#277);
#279= IFCCARTESIANPOINT((3.05590219795704E-10,0.,-74.99999999999));
#280= IFCCARTESIANTRANSFORMATIONOPERATOR3D($,$,#279,$,$);
#281= IFCMAPPEDITEM(#161,#280);
#282= IFCCARTESIANPOINT((75.0000000005675,0.,-74.9999999995123));
#283= IFCCARTESIANTRANSFORMATIONOPERATOR3D($,$,#282,$,$);
#284= IFCMAPPEDITEM(#161,#283);
#285= IFCCARTESIANPOINT((150.000000000829,0.,-74.999999999035));
#286= IFCCARTESIANTRANSFORMATIONOPERATOR3D($,$,#285,$,$);
#287= IFCMAPPEDITEM(#161,#286);
#288= IFCCARTESIANPOINT((225.000000001091,0.,-74.9999999985575));
#289= IFCCARTESIANTRANSFORMATIONOPERATOR3D($,$,#288,$,$);
#290= IFCMAPPEDITEM(#161,#289);
#291= IFCCARTESIANPOINT((300.000000001361,0.,-74.9999999980801));
#292= IFCCARTESIANTRANSFORMATIONOPERATOR3D($,$,#291,$,$);
#293= IFCMAPPEDITEM(#161,#292);
#294= IFCCARTESIANPOINT((375.000000001623,0.,-74.9999999976023));
#295= IFCCARTESIANTRANSFORMATIONOPERATOR3D($,$,#294,$,$);
#296= IFCMAPPEDITEM(#161,#295);
#297= IFCCARTESIANPOINT((450.000000001884,0.,-74.9999999971251));
#298= IFCCARTESIANTRANSFORMATIONOPERATOR3D($,$,#297,$,$);
#299= IFCMAPPEDITEM(#161,#298);
#300= IFCCARTESIANPOINT((525.000000002146,0.,-74.9999999966476));
#301= IFCCARTESIANTRANSFORMATIONOPERATOR3D($,$,#300,$,$);
#302= IFCMAPPEDITEM(#161,#301);
#303= IFCCARTESIANPOINT((600.000000002408,0.,-74.9999999961699));
#304= IFCCARTESIANTRANSFORMATIONOPERATOR3D($,$,#303,$,$);
#305= IFCMAPPEDITEM(#161,#304);
#306= IFCCARTESIANPOINT((675.00000000267,0.,-74.9999999956924));
#307= IFCCARTESIANTRANSFORMATIONOPERATOR3D($,$,#306,$,$);
#308= IFCMAPPEDITEM(#161,#307);
#309= IFCSHAPEREPRESENTATION(#12,'Body','MappedRepresentation',(#251,#254,#257,#260,#263,#266,#269,#272,#275,#278,#281,#284,#287,#290,#293,#296,#299,#302,#305,#308));
#310= IFCPRODUCTDEFINITIONSHAPE($,$,(#309));
#311= IFCOPENINGELEMENT('0jxsHQfYTBsQdrQ2WylY2p',#5,$,$,'Opening',#248,#310,$);
#312= IFCRELVOIDSELEMENT('0V5kZ_9ErEeP_RtFIrXkHF',#5,'Drill Hole',$,#69,#311);
#313= IFCCARTESIANPOINT((33732.0175084489,1603.86310923532,19350.));
#314= IFCDIRECTION((7.12890000359039E-05,-0.999999997458939,0.));
#315= IFCAXIS2PLACEMENT3D(#313,#314,#246);
#316= IFCLOCALPLACEMENT(#42,#315);
#317= IFCSHAPEREPRESENTATION(#12,'Body','MappedRepresentation',(#281,#284,#287,#290,#293,#296,#299,#302,#305,#308,#251,#254,#257,#260,#263,#266,#269,#272,#275,#278));
#318= IFCPRODUCTDEFINITIONSHAPE($,$,(#317));
#319= IFCOPENINGELEMENT('0ALUPyn55FqfjnRiMDC6Dm',#5,$,$,'Opening',#316,#318,$);
#320= IFCRELVOIDSELEMENT('33jfR4lr13Ivr$yyElp0_U',#5,'Drill Hole',$,#69,#319);
#321= IFCCARTESIANPOINT((33777.0175275026,1603.28932952881,19350.));
#322= IFCAXIS2PLACEMENT3D(#321,#53,#72);
#323= IFCLOCALPLACEMENT(#42,#322);
#324= IFCCIRCLEPROFILEDEF(.AREA.,$,#50,12.5);
#325= IFCEXTRUDEDAREASOLID(#324,#224,#9,11.7);
#326= IFCSHAPEREPRESENTATION(#12,'Body','SweptSolid',(#325));
#327= IFCREPRESENTATIONMAP(#10,#326);
#328= IFCCARTESIANPOINT((107.5,0.,45.));
#329= IFCCARTESIANTRANSFORMATIONOPERATOR3D($,$,#328,$,$);
#330= IFCMAPPEDITEM(#327,#329);
#331= IFCCARTESIANPOINT((182.5,0.,45.));
#332= IFCCARTESIANTRANSFORMATIONOPERATOR3D($,$,#331,$,$);
#333= IFCMAPPEDITEM(#327,#332);
#334= IFCCARTESIANPOINT((257.5,0.,45.));
#335= IFCCARTESIANTRANSFORMATIONOPERATOR3D($,$,#334,$,$);
#336= IFCMAPPEDITEM(#327,#335);
#337= IFCCARTESIANPOINT((332.5,0.,45.));
#338= IFCCARTESIANTRANSFORMATIONOPERATOR3D($,$,#337,$,$);
#339= IFCMAPPEDITEM(#327,#338);
#340= IFCSHAPEREPRESENTATION(#12,'Body','MappedRepresentation',(#330,#333,#336,#339));
#341= IFCPRODUCTDEFINITIONSHAPE($,$,(#340));
#342= IFCOPENINGELEMENT('1VB3VV9RT6ygjkDVCcJBm5',#5,$,$,'Opening',#323,#341,$);
#343= IFCRELVOIDSELEMENT('2pPbJ5PVn3be9LVZt4cwte',#5,'Drill Hole',$,#69,#342);
#344= IFCPROPERTYSINGLEVALUE('PieceMark',$,IFCIDENTIFIER('BEAM'),$);
#345= IFCPROPERTYSINGLEVALUE('IndicationMark',$,IFCIDENTIFIER('b/4'),$);
#346= IFCPROPERTYSINGLEVALUE('PrelimMark',$,IFCIDENTIFIER(''),$);
#347= IFCPROPERTYSINGLEVALUE('MainPieceTag',$,IFCBOOLEAN(.F.),$);
#348= IFCPROPERTYSET('3E3tkg0GfD8xwj1mSpkpX2',#5,'AISC_EM11_Pset_PieceIdentification','PieceIdentity',(#344,#345,#346,#347));
#349= IFCPROPERTYSINGLEVALUE('MaterialType',$,IFCIDENTIFIER('STEEL'),$);
#350= IFCPROPERTYSINGLEVALUE('MaterialGrade',$,IFCIDENTIFIER('S235JR'),$);
#351= IFCPROPERTYSET('0JorcBO9jAVQLXtEZBDkQX',#5,'AISC_EM11_Pset_Material',$,(#349,#350));
#352= IFCPROPERTYSINGLEVALUE('SkewedAngleY',$,IFCREAL(0.),$);
#353= IFCPROPERTYSINGLEVALUE('SkewedAngleX',$,IFCREAL(0.),$);
#354= IFCPROPERTYSET('1q3TL5mEzCTeg3nyHnzv8p',#5,'AISC_EM11_Pset_SkewedEnd',$,(#352,#353));
#355= IFCPROPERTYSET('3m$F6nxhv92vFCFLWyo6_e',#5,'AISC_EM11_Pset_SkewedEnd_2',$,(#352,#353));
#356= IFCMATERIAL('STEEL/S235JR');
#357= IFCRELAGGREGATES('3syeNisPj0guM5fykRtGwL',#5,$,$,#37,(#39));
#358= IFCRELAGGREGATES('28Ewf_8h$IyAeNxE0j9YCd',#5,$,$,#39,(#41));
#359= IFCRELAGGREGATES('1v_5CBoA1BvQU6n_p1Yu1b',#5,$,$,#41,(#43));
#360= IFCRELCONTAINEDINSPATIALSTRUCTURE('1ODVZad_j3mPuHPuZZE9jf',#5,$,$,(#69),#43);
#361= IFCRELDEFINESBYPROPERTIES('1SfaxEaEj5u8m9Xm$UW3Mc',#5,$,$,(#107,#99,#91,#78),#84);
#362= IFCRELDEFINESBYPROPERTIES('3iiEbfxl57WRGc_3seJFkH',#5,$,$,(#116),#120);
#363= IFCRELDEFINESBYPROPERTIES('3dKaSx1Ev6DRa559pCG1G0',#5,$,$,(#128),#131);
#364= IFCRELDEFINESBYPROPERTIES('0KRt0rJ091hQlvjJE2LTcr',#5,$,$,(#149,#139),#142);
#365= IFCRELDEFINESBYPROPERTIES('1Lzx9kttD2sRwLwELjQUoX',#5,$,$,(#342,#319,#311,#242,#218,#206),#211);
#366= IFCRELDEFINESBYPROPERTIES('1YSEk8M_H9fPxub3u4sk7B',#5,$,$,(#69),#348);
#367= IFCRELDEFINESBYPROPERTIES('0QgVrqASX8uwtVP_rMubRW',#5,$,$,(#69),#351);
#368= IFCRELDEFINESBYPROPERTIES('0ZB6RVnIX52uFO8CVMTs_G',#5,$,$,(#69),#354);
#369= IFCRELDEFINESBYPROPERTIES('1rJg5I8FrBae1I6B9c459m',#5,$,$,(#69),#355);
#370= IFCRELASSOCIATESMATERIAL('3ILwSm6Pz2hf8SmX5CcQjD',#5,$,$,(#69),#356);
ENDSEC;

END-ISO-10303-21;
