ISO-10303-21;
HEADER;
FILE_DESCRIPTION(('ViewDefinition[AISC_Steel_Detailing]', 'Option [BaseQuantities:Off]', 'Option [GridExport:On]', 'Option [Assemblies:Off]', 'Option [Bolts:On]', 'Option [Rebars:On]', 'Option [PourObjects:Off]', 'Option [Welds:On]', 'Option [SurfaceTreatments:On]', 'Option [LocationBy:0]', 'Option [ViewColors:Off]', 'Option [SectionedSpine:Off]', 'Option [PropertySets:On]', 'Option [Export all:Off]'),'2;1');
FILE_NAME('b_5_Qty_1.ifc','2026-05-16T11:53:17',('GIOVANNIPC\\gcorrea'),('Structural Designer'),'IFC Database version: Work','Tekla Structures 2020 Service Pack 5, IFC Export Version: 4.0.0.0 Dec  7 2020','');
FILE_SCHEMA(('IFC2X3'));
ENDSEC;

DATA;
#1= IFCPERSON('GIOVANNIPC\\gcorrea','Undefined',$,$,$,$,$,$);
#2= IFCORGANIZATION($,'Trimble Solutions Corporation',$,$,$);
#3= IFCPERSONANDORGANIZATION(#1,#2,$);
#4= IFCAPPLICATION(#2,'2020 Service Pack 5','Tekla Structures','Multi material modeling');
#5= IFCOWNERHISTORY(#3,#4,$,.NOCHANGE.,$,$,$,1778950397);
#6= IFCCARTESIANPOINT((0.,0.,0.));
#7= IFCDIRECTION((1.,0.,0.));
#8= IFCDIRECTION((0.,1.,0.));
#9= IFCDIRECTION((0.,0.,1.));
#10= IFCAXIS2PLACEMENT3D(#6,#9,#7);
#11= IFCGEOMETRICREPRESENTATIONCONTEXT($,'Model',3,1.E-05,#10,$);
#12= IFCGEOMETRICREPRESENTATIONSUBCONTEXT('Body','Model',*,*,*,*,#11,$,.MODEL_VIEW.,$);
#13= IFCGEOMETRICREPRESENTATIONSUBCONTEXT('Axis','Model',*,*,*,*,#11,$,.GRAPH_VIEW.,$);
#14= IFCGEOMETRICREPRESENTATIONSUBCONTEXT('FootPrint','Model',*,*,*,*,#11,$,.MODEL_VIEW.,$);
#15= IFCSIUNIT(*,.LENGTHUNIT.,.MILLI.,.METRE.);
#16= IFCMEASUREWITHUNIT(IFCRATIOMEASURE(304.8),#15);
#17= IFCDIMENSIONALEXPONENTS(1,0,0,0,0,0,0);
#18= IFCCONVERSIONBASEDUNIT(#17,.LENGTHUNIT.,'FOOT',#16);
#19= IFCSIUNIT(*,.AREAUNIT.,$,.SQUARE_METRE.);
#20= IFCMEASUREWITHUNIT(IFCRATIOMEASURE(0.09290304),#19);
#21= IFCDIMENSIONALEXPONENTS(2,0,0,0,0,0,0);
#22= IFCCONVERSIONBASEDUNIT(#21,.AREAUNIT.,'SQUARE FOOT',#20);
#23= IFCSIUNIT(*,.VOLUMEUNIT.,$,.CUBIC_METRE.);
#24= IFCMEASUREWITHUNIT(IFCRATIOMEASURE(0.028316846592),#23);
#25= IFCDIMENSIONALEXPONENTS(3,0,0,0,0,0,0);
#26= IFCCONVERSIONBASEDUNIT(#25,.VOLUMEUNIT.,'CUBIC FOOT',#24);
#27= IFCSIUNIT(*,.MASSUNIT.,.KILO.,.GRAM.);
#28= IFCSIUNIT(*,.TIMEUNIT.,$,.SECOND.);
#29= IFCSIUNIT(*,.PLANEANGLEUNIT.,$,.RADIAN.);
#30= IFCMEASUREWITHUNIT(IFCRATIOMEASURE(0.0174532925199433),#29);
#31= IFCDIMENSIONALEXPONENTS(0,0,0,0,0,0,0);
#32= IFCCONVERSIONBASEDUNIT(#31,.PLANEANGLEUNIT.,'DEGREE',#30);
#33= IFCSIUNIT(*,.SOLIDANGLEUNIT.,$,.STERADIAN.);
#34= IFCSIUNIT(*,.THERMODYNAMICTEMPERATUREUNIT.,$,.DEGREE_CELSIUS.);
#35= IFCSIUNIT(*,.LUMINOUSINTENSITYUNIT.,$,.LUMEN.);
#36= IFCUNITASSIGNMENT((#15,#19,#23,#27,#28,#29,#33,#34,#35));
#37= IFCPROJECT('2G7ZFDNE16yBDU14FA92Me',#5,'Proyecto',$,$,$,$,(#11),#36);
#38= IFCLOCALPLACEMENT($,#10);
#39= IFCSITE('2xvEzEinjBTea80yOTcujY',#5,'Obra',$,$,#38,$,$,.ELEMENT.,$,$,$,$,$);
#40= IFCLOCALPLACEMENT(#38,#10);
#41= IFCBUILDING('34v7jMTzrEd9OVYx$U8$yR',#5,'Undefined',$,$,#40,$,$,.ELEMENT.,$,$,$);
#42= IFCLOCALPLACEMENT(#40,#10);
#43= IFCBUILDINGSTOREY('29hdEUCErFze9E_VIAceOd',#5,'Undefined',$,$,#42,$,$,.ELEMENT.,0.);
#44= IFCOWNERHISTORY(#3,#4,$,.NOCHANGE.,$,$,$,1776175200);
#45= IFCCARTESIANPOINT((16824.2413635254,8809.19142913818,13680.));
#46= IFCDIRECTION((-0.99709223851192,-0.0762041199626978,0.));
#47= IFCAXIS2PLACEMENT3D(#45,#9,#46);
#48= IFCLOCALPLACEMENT(#42,#47);
#49= IFCDIRECTION((1.,0.));
#50= IFCCARTESIANPOINT((0.,0.));
#51= IFCAXIS2PLACEMENT2D(#50,#49);
#52= IFCISHAPEPROFILEDEF(.AREA.,'HEA450',#51,300.,440.,11.5,21.,27.);
#53= IFCDIRECTION((0.,-1.,0.));
#54= IFCDIRECTION((-1.,0.,0.));
#55= IFCCARTESIANPOINT((8232.21024078171,0.,0.));
#56= IFCAXIS2PLACEMENT3D(#55,#54,#53);
#57= IFCEXTRUDEDAREASOLID(#52,#56,#9,8292.15);
#58= IFCCARTESIANPOINT((8186.72487266177,4.54747350886464E-12,-320.));
#59= IFCAXIS2PLACEMENT3D(#58,#54,#8);
#60= IFCPLANE(#59);
#61= IFCHALFSPACESOLID(#60,.T.);
#62= IFCBOOLEANCLIPPINGRESULT(.DIFFERENCE.,#57,#61);
#63= IFCCARTESIANPOINT((-14.4590452862794,5.45696821063757E-12,-320.));
#64= IFCAXIS2PLACEMENT3D(#63,#7,#53);
#65= IFCPLANE(#64);
#66= IFCHALFSPACESOLID(#65,.T.);
#67= IFCBOOLEANCLIPPINGRESULT(.DIFFERENCE.,#62,#66);
#68= IFCSHAPEREPRESENTATION(#12,'Body','Clipping',(#67));
#69= IFCPRODUCTDEFINITIONSHAPE($,$,(#68));
#70= IFCBEAM('1uxAjoe3n1lQo4wH1RcltQ',#44,'BEAM','HEA450','HEA450',#48,#69,'ID78ecab72-a03c-41bd-ac84-e9105b9afdda');
#71= IFCLOCALPLACEMENT(#42,#47);
#72= IFCRECTANGLEPROFILEDEF(.AREA.,'PL161.3*12.3',#51,12.3,161.3);
#73= IFCDIRECTION((0.,0.,-1.));
#74= IFCCARTESIANPOINT((-20.3328851258775,70.3281629597232,221.));
#75= IFCAXIS2PLACEMENT3D(#74,#73,#7);
#76= IFCEXTRUDEDAREASOLID(#72,#75,#9,442.);
#77= IFCSHAPEREPRESENTATION(#12,'Body','SweptSolid',(#76));
#78= IFCPRODUCTDEFINITIONSHAPE($,$,(#77));
#79= IFCOPENINGELEMENT('2xPDf$$X17sBplGkE6b7Ed',#5,$,$,'Recess',#71,#78,$);
#80= IFCRELVOIDSELEMENT('1e$hQ8KV14LRrTJTW3hdHo',#5,$,$,#70,#79);
#81= IFCPROPERTYSINGLEVALUE('FeatureSubTypes',$,$,$);
#82= IFCPROPERTYSINGLEVALUE('RectangleOpeningWidth',$,IFCPOSITIVELENGTHMEASURE(12.3),$);
#83= IFCPROPERTYSINGLEVALUE('RectangleOpeningHeight',$,IFCPOSITIVELENGTHMEASURE(161.3),$);
#84= IFCPROPERTYSINGLEVALUE('OpeningDiameter',$,$,$);
#85= IFCPROPERTYSET('0Dc6cU4j19BREPQ_jN1jQi',#5,'AISC_EM11_Pset_Opening/Cope',$,(#81,#82,#83,#84));
#86= IFCLOCALPLACEMENT(#42,#47);
#87= IFCRECTANGLEPROFILEDEF(.AREA.,'PL161.5*12.3',#51,12.3,161.5);
#88= IFCCARTESIANPOINT((-20.332885125863,-70.2284034151944,221.));
#89= IFCAXIS2PLACEMENT3D(#88,#73,#7);
#90= IFCEXTRUDEDAREASOLID(#87,#89,#9,442.);
#91= IFCSHAPEREPRESENTATION(#12,'Body','SweptSolid',(#90));
#92= IFCPRODUCTDEFINITIONSHAPE($,$,(#91));
#93= IFCOPENINGELEMENT('1s_tt1w8f9jhK7xN3VW2kx',#5,$,$,'Recess',#86,#92,$);
#94= IFCRELVOIDSELEMENT('14RATjmNH7Wf4HorE2Ih5D',#5,$,$,#70,#93);
#95= IFCPROPERTYSINGLEVALUE('RectangleOpeningHeight',$,IFCPOSITIVELENGTHMEASURE(161.5),$);
#96= IFCPROPERTYSET('0J04bo5A5E48U$nUlS7idi',#5,'AISC_EM11_Pset_Opening/Cope',$,(#81,#82,#95,#84));
#97= IFCLOCALPLACEMENT(#42,#47);
#98= IFCCARTESIANPOINT((8192.59652884291,-70.2284534731243,221.));
#99= IFCAXIS2PLACEMENT3D(#98,#73,#54);
#100= IFCEXTRUDEDAREASOLID(#87,#99,#9,442.);
#101= IFCSHAPEREPRESENTATION(#12,'Body','SweptSolid',(#100));
#102= IFCPRODUCTDEFINITIONSHAPE($,$,(#101));
#103= IFCOPENINGELEMENT('2$sBqTYLfDnARo6Npa_flh',#5,$,$,'Recess',#97,#102,$);
#104= IFCRELVOIDSELEMENT('0Nhb43zZj1GRKFom$eWvL7',#5,$,$,#70,#103);
#105= IFCLOCALPLACEMENT(#42,#47);
#106= IFCCARTESIANPOINT((8192.59652884345,70.3281129076204,221.));
#107= IFCAXIS2PLACEMENT3D(#106,#73,#54);
#108= IFCEXTRUDEDAREASOLID(#72,#107,#9,442.);
#109= IFCSHAPEREPRESENTATION(#12,'Body','SweptSolid',(#108));
#110= IFCPRODUCTDEFINITIONSHAPE($,$,(#109));
#111= IFCOPENINGELEMENT('2PMCuMTUvBHu26hBr$UFvS',#5,$,$,'Recess',#105,#110,$);
#112= IFCRELVOIDSELEMENT('2fb0atsJzEqhKLvdE2XpKA',#5,$,$,#70,#111);
#113= IFCCARTESIANPOINT((16793.5138984033,8806.84250236024,13450.));
#114= IFCDIRECTION((-0.0762158009775085,0.997091345705777,0.));
#115= IFCDIRECTION((-0.997091345705777,-0.0762158009775099,0.));
#116= IFCAXIS2PLACEMENT3D(#113,#114,#115);
#117= IFCLOCALPLACEMENT(#42,#116);
#118= IFCCIRCLEPROFILEDEF(.AREA.,$,#51,11.5);
#119= IFCCARTESIANPOINT((0.,9.9,0.));
#120= IFCAXIS2PLACEMENT3D(#119,#8,#7);
#121= IFCEXTRUDEDAREASOLID(#118,#120,#9,21.2);
#122= IFCSHAPEREPRESENTATION(#12,'Body','SweptSolid',(#121));
#123= IFCREPRESENTATIONMAP(#10,#122);
#124= IFCCARTESIANPOINT((1.09139364212751E-11,0.,74.9999999999682));
#125= IFCCARTESIANTRANSFORMATIONOPERATOR3D($,$,#124,$,$);
#126= IFCMAPPEDITEM(#123,#125);
#127= IFCCARTESIANPOINT((75.0000000002401,0.,75.0000000001137));
#128= IFCCARTESIANTRANSFORMATIONOPERATOR3D($,$,#127,$,$);
#129= IFCMAPPEDITEM(#123,#128);
#130= IFCCARTESIANPOINT((150.000000000469,0.,75.0000000002601));
#131= IFCCARTESIANTRANSFORMATIONOPERATOR3D($,$,#130,$,$);
#132= IFCMAPPEDITEM(#123,#131);
#133= IFCCARTESIANPOINT((225.000000000695,0.,75.0000000004075));
#134= IFCCARTESIANTRANSFORMATIONOPERATOR3D($,$,#133,$,$);
#135= IFCMAPPEDITEM(#123,#134);
#136= IFCCARTESIANPOINT((300.000000000924,0.,75.000000000553));
#137= IFCCARTESIANTRANSFORMATIONOPERATOR3D($,$,#136,$,$);
#138= IFCMAPPEDITEM(#123,#137);
#139= IFCCARTESIANPOINT((375.00000000115,0.,75.0000000006985));
#140= IFCCARTESIANTRANSFORMATIONOPERATOR3D($,$,#139,$,$);
#141= IFCMAPPEDITEM(#123,#140);
#142= IFCCARTESIANPOINT((450.000000001379,0.,75.0000000008467));
#143= IFCCARTESIANTRANSFORMATIONOPERATOR3D($,$,#142,$,$);
#144= IFCMAPPEDITEM(#123,#143);
#145= IFCCARTESIANPOINT((525.000000001608,0.,75.0000000009923));
#146= IFCCARTESIANTRANSFORMATIONOPERATOR3D($,$,#145,$,$);
#147= IFCMAPPEDITEM(#123,#146);
#148= IFCCARTESIANPOINT((600.000000001834,0.,75.0000000011378));
#149= IFCCARTESIANTRANSFORMATIONOPERATOR3D($,$,#148,$,$);
#150= IFCMAPPEDITEM(#123,#149);
#151= IFCCARTESIANPOINT((675.000000002063,0.,75.000000001286));
#152= IFCCARTESIANTRANSFORMATIONOPERATOR3D($,$,#151,$,$);
#153= IFCMAPPEDITEM(#123,#152);
#154= IFCCARTESIANPOINT((-7.27595761418343E-12,0.,-74.9999999999654));
#155= IFCCARTESIANTRANSFORMATIONOPERATOR3D($,$,#154,$,$);
#156= IFCMAPPEDITEM(#123,#155);
#157= IFCCARTESIANPOINT((75.0000000002183,0.,-74.999999999819));
#158= IFCCARTESIANTRANSFORMATIONOPERATOR3D($,$,#157,$,$);
#159= IFCMAPPEDITEM(#123,#158);
#160= IFCCARTESIANPOINT((150.000000000447,0.,-74.9999999996717));
#161= IFCCARTESIANTRANSFORMATIONOPERATOR3D($,$,#160,$,$);
#162= IFCMAPPEDITEM(#123,#161);
#163= IFCCARTESIANPOINT((225.000000000677,0.,-74.9999999995262));
#164= IFCCARTESIANTRANSFORMATIONOPERATOR3D($,$,#163,$,$);
#165= IFCMAPPEDITEM(#123,#164);
#166= IFCCARTESIANPOINT((300.000000000902,0.,-74.9999999993797));
#167= IFCCARTESIANTRANSFORMATIONOPERATOR3D($,$,#166,$,$);
#168= IFCMAPPEDITEM(#123,#167);
#169= IFCCARTESIANPOINT((375.000000001131,0.,-74.9999999992324));
#170= IFCCARTESIANTRANSFORMATIONOPERATOR3D($,$,#169,$,$);
#171= IFCMAPPEDITEM(#123,#170);
#172= IFCCARTESIANPOINT((450.000000001357,0.,-74.9999999990869));
#173= IFCCARTESIANTRANSFORMATIONOPERATOR3D($,$,#172,$,$);
#174= IFCMAPPEDITEM(#123,#173);
#175= IFCCARTESIANPOINT((525.000000001586,0.,-74.9999999989413));
#176= IFCCARTESIANTRANSFORMATIONOPERATOR3D($,$,#175,$,$);
#177= IFCMAPPEDITEM(#123,#176);
#178= IFCCARTESIANPOINT((600.000000001815,0.,-74.9999999987931));
#179= IFCCARTESIANTRANSFORMATIONOPERATOR3D($,$,#178,$,$);
#180= IFCMAPPEDITEM(#123,#179);
#181= IFCCARTESIANPOINT((675.000000002041,0.,-74.9999999986476));
#182= IFCCARTESIANTRANSFORMATIONOPERATOR3D($,$,#181,$,$);
#183= IFCMAPPEDITEM(#123,#182);
#184= IFCSHAPEREPRESENTATION(#12,'Body','MappedRepresentation',(#126,#129,#132,#135,#138,#141,#144,#147,#150,#153,#156,#159,#162,#165,#168,#171,#174,#177,#180,#183));
#185= IFCPRODUCTDEFINITIONSHAPE($,$,(#184));
#186= IFCOPENINGELEMENT('3NUcr$fG96h8BTD$kQCu$r',#5,$,$,'Opening',#117,#185,$);
#187= IFCRELVOIDSELEMENT('3pgs5C8Zf0gxKLRAJ4afGq',#5,'Drill Hole',$,#70,#186);
#188= IFCPROPERTYSINGLEVALUE('FeatureSubTypes',$,IFCLABEL('TORNILLO'),$);
#189= IFCPROPERTYSINGLEVALUE('RectangleOpeningWidth',$,$,$);
#190= IFCPROPERTYSINGLEVALUE('RectangleOpeningHeight',$,$,$);
#191= IFCPROPERTYSET('3FT2xgjEPFxg44l99LtAyd',#5,'AISC_EM11_Pset_Opening/Cope',$,(#188,#189,#190,#84));
#192= IFCCARTESIANPOINT((16793.5138984008,8806.84250235245,13900.));
#193= IFCDIRECTION((0.0762158009775085,-0.997091345705777,0.));
#194= IFCAXIS2PLACEMENT3D(#192,#193,#115);
#195= IFCLOCALPLACEMENT(#42,#194);
#196= IFCCARTESIANPOINT((0.,-0.0999999999999787,0.));
#197= IFCAXIS2PLACEMENT3D(#196,#8,#7);
#198= IFCEXTRUDEDAREASOLID(#118,#197,#9,21.2);
#199= IFCSHAPEREPRESENTATION(#12,'Body','SweptSolid',(#198));
#200= IFCREPRESENTATIONMAP(#10,#199);
#201= IFCMAPPEDITEM(#200,#155);
#202= IFCMAPPEDITEM(#200,#158);
#203= IFCMAPPEDITEM(#200,#161);
#204= IFCMAPPEDITEM(#200,#164);
#205= IFCMAPPEDITEM(#200,#167);
#206= IFCMAPPEDITEM(#200,#170);
#207= IFCMAPPEDITEM(#200,#173);
#208= IFCMAPPEDITEM(#200,#176);
#209= IFCMAPPEDITEM(#200,#179);
#210= IFCMAPPEDITEM(#200,#182);
#211= IFCMAPPEDITEM(#200,#125);
#212= IFCMAPPEDITEM(#200,#128);
#213= IFCMAPPEDITEM(#200,#131);
#214= IFCMAPPEDITEM(#200,#134);
#215= IFCMAPPEDITEM(#200,#137);
#216= IFCMAPPEDITEM(#200,#140);
#217= IFCMAPPEDITEM(#200,#143);
#218= IFCMAPPEDITEM(#200,#146);
#219= IFCMAPPEDITEM(#200,#149);
#220= IFCMAPPEDITEM(#200,#152);
#221= IFCSHAPEREPRESENTATION(#12,'Body','MappedRepresentation',(#201,#202,#203,#204,#205,#206,#207,#208,#209,#210,#211,#212,#213,#214,#215,#216,#217,#218,#219,#220));
#222= IFCPRODUCTDEFINITIONSHAPE($,$,(#221));
#223= IFCOPENINGELEMENT('0vLfdcRW10chjyIdG9$PyL',#5,$,$,'Opening',#195,#222,$);
#224= IFCRELVOIDSELEMENT('2H1a2pbmz9HRxiLXhsiq3S',#5,'Drill Hole',$,#70,#223);
#225= IFCCARTESIANPOINT((16838.6583653567,8810.29326795973,13900.));
#226= IFCAXIS2PLACEMENT3D(#225,#46,#73);
#227= IFCLOCALPLACEMENT(#42,#226);
#228= IFCCARTESIANPOINT((0.,-5.85000000002089,0.));
#229= IFCAXIS2PLACEMENT3D(#228,#8,#7);
#230= IFCEXTRUDEDAREASOLID(#118,#229,#9,11.7);
#231= IFCSHAPEREPRESENTATION(#12,'Body','SweptSolid',(#230));
#232= IFCREPRESENTATIONMAP(#10,#231);
#233= IFCCARTESIANPOINT((80.,0.,44.9999999999163));
#234= IFCCARTESIANTRANSFORMATIONOPERATOR3D($,$,#233,$,$);
#235= IFCMAPPEDITEM(#232,#234);
#236= IFCCARTESIANPOINT((150.,0.,44.9999999999163));
#237= IFCCARTESIANTRANSFORMATIONOPERATOR3D($,$,#236,$,$);
#238= IFCMAPPEDITEM(#232,#237);
#239= IFCCARTESIANPOINT((220.,0.,44.9999999999163));
#240= IFCCARTESIANTRANSFORMATIONOPERATOR3D($,$,#239,$,$);
#241= IFCMAPPEDITEM(#232,#240);
#242= IFCCARTESIANPOINT((290.,0.,44.9999999999163));
#243= IFCCARTESIANTRANSFORMATIONOPERATOR3D($,$,#242,$,$);
#244= IFCMAPPEDITEM(#232,#243);
#245= IFCCARTESIANPOINT((360.,0.,44.9999999999163));
#246= IFCCARTESIANTRANSFORMATIONOPERATOR3D($,$,#245,$,$);
#247= IFCMAPPEDITEM(#232,#246);
#248= IFCSHAPEREPRESENTATION(#12,'Body','MappedRepresentation',(#235,#238,#241,#244,#247));
#249= IFCPRODUCTDEFINITIONSHAPE($,$,(#248));
#250= IFCOPENINGELEMENT('3u4C9iV$L6f8DCeGSr4bov',#5,$,$,'Opening',#227,#249,$);
#251= IFCRELVOIDSELEMENT('2RuI8w8ETBheEgBeyVEzCv',#5,'Drill Hole',$,#70,#250);
#252= IFCCARTESIANPOINT((8706.46817724548,8188.78019672904,13460.));
#253= IFCDIRECTION((0.0762041199626983,-0.99709223851192,0.));
#254= IFCDIRECTION((0.99709223851192,0.0762041199626987,0.));
#255= IFCAXIS2PLACEMENT3D(#252,#253,#254);
#256= IFCLOCALPLACEMENT(#42,#255);
#257= IFCSHAPEREPRESENTATION(#12,'Body','MappedRepresentation',(#211,#212,#213,#214,#215,#216,#217,#218,#219,#220,#201,#202,#203,#204,#205,#206,#207,#208,#209,#210));
#258= IFCPRODUCTDEFINITIONSHAPE($,$,(#257));
#259= IFCOPENINGELEMENT('1nEexJFo9A0gm6Z7WZhfHr',#5,$,$,'Opening',#256,#258,$);
#260= IFCRELVOIDSELEMENT('09xYThZwbCTgVGeNNkUAfV',#5,'Drill Hole',$,#70,#259);
#261= IFCCARTESIANPOINT((8706.46817724543,8188.78019672889,13900.));
#262= IFCDIRECTION((-0.0762041199626983,0.99709223851192,0.));
#263= IFCAXIS2PLACEMENT3D(#261,#262,#254);
#264= IFCLOCALPLACEMENT(#42,#263);
#265= IFCSHAPEREPRESENTATION(#12,'Body','MappedRepresentation',(#201,#202,#203,#204,#205,#206,#207,#208,#209,#210,#211,#212,#213,#214,#215,#216,#217,#218,#219,#220));
#266= IFCPRODUCTDEFINITIONSHAPE($,$,(#265));
#267= IFCOPENINGELEMENT('1n4IMIXqL1LASUvgezUaCB',#5,$,$,'Opening',#264,#266,$);
#268= IFCRELVOIDSELEMENT('3jym7KSP966PxKGLt1FflJ',#5,'Drill Hole',$,#70,#267);
#269= IFCCARTESIANPOINT((8661.32153416172,8185.32926484226,13900.));
#270= IFCAXIS2PLACEMENT3D(#269,#254,#73);
#271= IFCLOCALPLACEMENT(#42,#270);
#272= IFCSHAPEREPRESENTATION(#12,'Body','MappedRepresentation',(#235,#238,#241,#244,#247));
#273= IFCPRODUCTDEFINITIONSHAPE($,$,(#272));
#274= IFCOPENINGELEMENT('1sQvH$uBz1$uxJkhd3rWsk',#5,$,$,'Opening',#271,#273,$);
#275= IFCRELVOIDSELEMENT('1bdUNvRJj5NAblnJ_fckrP',#5,'Drill Hole',$,#70,#274);
#276= IFCPROPERTYSINGLEVALUE('PieceMark',$,IFCIDENTIFIER('BEAM'),$);
#277= IFCPROPERTYSINGLEVALUE('IndicationMark',$,IFCIDENTIFIER('b/5'),$);
#278= IFCPROPERTYSINGLEVALUE('PrelimMark',$,IFCIDENTIFIER(''),$);
#279= IFCPROPERTYSINGLEVALUE('MainPieceTag',$,IFCBOOLEAN(.T.),$);
#280= IFCPROPERTYSET('164PHo7jz60fpbqILJKUIy',#5,'AISC_EM11_Pset_PieceIdentification','PieceIdentity',(#276,#277,#278,#279));
#281= IFCPROPERTYSINGLEVALUE('MaterialType',$,IFCIDENTIFIER('STEEL'),$);
#282= IFCPROPERTYSINGLEVALUE('MaterialGrade',$,IFCIDENTIFIER('S235JR'),$);
#283= IFCPROPERTYSET('1iQYkZ8mX5kOL5kApAXsy6',#5,'AISC_EM11_Pset_Material',$,(#281,#282));
#284= IFCPROPERTYSINGLEVALUE('SkewedAngleY',$,IFCREAL(0.),$);
#285= IFCPROPERTYSINGLEVALUE('SkewedAngleX',$,IFCREAL(0.),$);
#286= IFCPROPERTYSET('3lDqjUdT16Du3IAlRq8uG4',#5,'AISC_EM11_Pset_SkewedEnd',$,(#284,#285));
#287= IFCPROPERTYSET('0an3tPqdf6Zf2UDPaA1d5s',#5,'AISC_EM11_Pset_SkewedEnd_2',$,(#284,#285));
#288= IFCMATERIAL('STEEL/S235JR');
#289= IFCRELAGGREGATES('3T7wrvmLX9Fwtchi4zjez7',#5,$,$,#37,(#39));
#290= IFCRELAGGREGATES('2lPC7B2dpRXC9uz_MF$wFP',#5,$,$,#39,(#41));
#291= IFCRELAGGREGATES('13zdlUAUH2AudrHzKRJbNL',#5,$,$,#41,(#43));
#292= IFCRELCONTAINEDINSPATIALSTRUCTURE('2oIH2MPGD7VBjG1A$WezeC',#5,$,$,(#70),#43);
#293= IFCRELDEFINESBYPROPERTIES('0LuDcZ5vv5SBkjEgszegHE',#5,$,$,(#111,#79),#85);
#294= IFCRELDEFINESBYPROPERTIES('1_nU9LZK93rg6C42$30kCD',#5,$,$,(#103,#93),#96);
#295= IFCRELDEFINESBYPROPERTIES('3MHdbNF1r3guNRkbSkjie0',#5,$,$,(#274,#267,#259,#250,#223,#186),#191);
#296= IFCRELDEFINESBYPROPERTIES('1hoZ6LyRzFEvFdxr5TAlNB',#5,$,$,(#70),#280);
#297= IFCRELDEFINESBYPROPERTIES('0BzKZXXUj6FRWQbapCg3w4',#5,$,$,(#70),#283);
#298= IFCRELDEFINESBYPROPERTIES('2psLxlLmb0CxdWlTVG23xX',#5,$,$,(#70),#286);
#299= IFCRELDEFINESBYPROPERTIES('3DEwggg9D1yAktGUShP23N',#5,$,$,(#70),#287);
#300= IFCRELASSOCIATESMATERIAL('2bxwIhj5zAcx1ohlhQIP80',#5,$,$,(#70),#288);
ENDSEC;

END-ISO-10303-21;
