ISO-10303-21;
HEADER;
FILE_DESCRIPTION(('ViewDefinition[AISC_Steel_Detailing]', 'Option [BaseQuantities:Off]', 'Option [GridExport:On]', 'Option [Assemblies:Off]', 'Option [Bolts:On]', 'Option [Rebars:On]', 'Option [PourObjects:Off]', 'Option [Welds:On]', 'Option [SurfaceTreatments:On]', 'Option [LocationBy:0]', 'Option [ViewColors:Off]', 'Option [SectionedSpine:Off]', 'Option [PropertySets:On]', 'Option [Export all:Off]'),'2;1');
FILE_NAME('b_693_Qty_1.ifc','2026-05-16T11:53:01',('GIOVANNIPC\\gcorrea'),('Structural Designer'),'IFC Database version: Work','Tekla Structures 2020 Service Pack 5, IFC Export Version: 4.0.0.0 Dec  7 2020','');
FILE_SCHEMA(('IFC2X3'));
ENDSEC;

DATA;
#1= IFCPERSON('GIOVANNIPC\\gcorrea','Undefined',$,$,$,$,$,$);
#2= IFCORGANIZATION($,'Trimble Solutions Corporation',$,$,$);
#3= IFCPERSONANDORGANIZATION(#1,#2,$);
#4= IFCAPPLICATION(#2,'2020 Service Pack 5','Tekla Structures','Multi material modeling');
#5= IFCOWNERHISTORY(#3,#4,$,.NOCHANGE.,$,$,$,1778950381);
#6= IFCCARTESIANPOINT((0.,0.,0.));
#7= IFCDIRECTION((1.,0.,0.));
#8= IFCDIRECTION((0.,1.,0.));
#9= IFCDIRECTION((0.,0.,1.));
#10= IFCAXIS2PLACEMENT3D(#6,#9,#7);
#11= IFCGEOMETRICREPRESENTATIONCONTEXT($,'Model',3,1.E-05,#10,$);
#12= IFCGEOMETRICREPRESENTATIONSUBCONTEXT('Body','Model',*,*,*,*,#11,$,.MODEL_VIEW.,$);
#13= IFCGEOMETRICREPRESENTATIONSUBCONTEXT('Axis','Model',*,*,*,*,#11,$,.GRAPH_VIEW.,$);
#14= IFCGEOMETRICREPRESENTATIONSUBCONTEXT('FootPrint','Model',*,*,*,*,#11,$,.MODEL_VIEW.,$);
#15= IFCSIUNIT(*,.LENGTHUNIT.,.MILLI.,.METRE.);
#16= IFCMEASUREWITHUNIT(IFCRATIOMEASURE(304.8),#15);
#17= IFCDIMENSIONALEXPONENTS(1,0,0,0,0,0,0);
#18= IFCCONVERSIONBASEDUNIT(#17,.LENGTHUNIT.,'FOOT',#16);
#19= IFCSIUNIT(*,.AREAUNIT.,$,.SQUARE_METRE.);
#20= IFCMEASUREWITHUNIT(IFCRATIOMEASURE(0.09290304),#19);
#21= IFCDIMENSIONALEXPONENTS(2,0,0,0,0,0,0);
#22= IFCCONVERSIONBASEDUNIT(#21,.AREAUNIT.,'SQUARE FOOT',#20);
#23= IFCSIUNIT(*,.VOLUMEUNIT.,$,.CUBIC_METRE.);
#24= IFCMEASUREWITHUNIT(IFCRATIOMEASURE(0.028316846592),#23);
#25= IFCDIMENSIONALEXPONENTS(3,0,0,0,0,0,0);
#26= IFCCONVERSIONBASEDUNIT(#25,.VOLUMEUNIT.,'CUBIC FOOT',#24);
#27= IFCSIUNIT(*,.MASSUNIT.,.KILO.,.GRAM.);
#28= IFCSIUNIT(*,.TIMEUNIT.,$,.SECOND.);
#29= IFCSIUNIT(*,.PLANEANGLEUNIT.,$,.RADIAN.);
#30= IFCMEASUREWITHUNIT(IFCRATIOMEASURE(0.0174532925199433),#29);
#31= IFCDIMENSIONALEXPONENTS(0,0,0,0,0,0,0);
#32= IFCCONVERSIONBASEDUNIT(#31,.PLANEANGLEUNIT.,'DEGREE',#30);
#33= IFCSIUNIT(*,.SOLIDANGLEUNIT.,$,.STERADIAN.);
#34= IFCSIUNIT(*,.THERMODYNAMICTEMPERATUREUNIT.,$,.DEGREE_CELSIUS.);
#35= IFCSIUNIT(*,.LUMINOUSINTENSITYUNIT.,$,.LUMEN.);
#36= IFCUNITASSIGNMENT((#15,#19,#23,#27,#28,#29,#33,#34,#35));
#37= IFCPROJECT('2G7ZFDNE16yBDU14FA92Me',#5,'Proyecto',$,$,$,$,(#11),#36);
#38= IFCLOCALPLACEMENT($,#10);
#39= IFCSITE('2xvEzEinjBTea80yOTcujY',#5,'Obra',$,$,#38,$,$,.ELEMENT.,$,$,$,$,$);
#40= IFCLOCALPLACEMENT(#38,#10);
#41= IFCBUILDING('2ZjP1K1tvBtAnWZJoFwroC',#5,'Undefined',$,$,#40,$,$,.ELEMENT.,$,$,$);
#42= IFCLOCALPLACEMENT(#40,#10);
#43= IFCBUILDINGSTOREY('29hdEUCErFze9E_VIAceOd',#5,'Undefined',$,$,#42,$,$,.ELEMENT.,0.);
#44= IFCOWNERHISTORY(#3,#4,$,.NOCHANGE.,$,$,$,1776805200);
#45= IFCCARTESIANPOINT((21285.6738219469,1591.49989741084,35150.));
#46= IFCDIRECTION((0.999999999998747,-1.5830000000183E-06,0.));
#47= IFCAXIS2PLACEMENT3D(#45,#9,#46);
#48= IFCLOCALPLACEMENT(#42,#47);
#49= IFCDIRECTION((1.,0.));
#50= IFCCARTESIANPOINT((0.,0.));
#51= IFCAXIS2PLACEMENT2D(#50,#49);
#52= IFCISHAPEPROFILEDEF(.AREA.,'IPE400',#51,180.,400.,8.600000381,13.5,21.);
#53= IFCDIRECTION((0.,-1.,0.));
#54= IFCDIRECTION((-1.,0.,0.));
#55= IFCCARTESIANPOINT((1907.01432393156,2.27373675443232E-13,7.27595761418343E-12));
#56= IFCAXIS2PLACEMENT3D(#55,#54,#53);
#57= IFCEXTRUDEDAREASOLID(#52,#56,#9,1717.02);
#58= IFCDIRECTION((-0.999999999998747,-1.58300000111922E-06,0.));
#59= IFCCARTESIANPOINT((1907.01395905384,-1.58299999384326E-05,-299.999999999993));
#60= IFCDIRECTION((-1.58300000111922E-06,0.999999999998747,0.));
#61= IFCAXIS2PLACEMENT3D(#59,#58,#60);
#62= IFCPLANE(#61);
#63= IFCHALFSPACESOLID(#62,.T.);
#64= IFCBOOLEANCLIPPINGRESULT(.DIFFERENCE.,#57,#63);
#65= IFCDIRECTION((0.999999999997045,2.43100000079634E-06,0.));
#66= IFCCARTESIANPOINT((189.995092295558,0.00023264668993761,-299.999999999993));
#67= IFCDIRECTION((2.43100000079634E-06,-0.999999999997045,0.));
#68= IFCAXIS2PLACEMENT3D(#66,#65,#67);
#69= IFCPLANE(#68);
#70= IFCHALFSPACESOLID(#69,.T.);
#71= IFCBOOLEANCLIPPINGRESULT(.DIFFERENCE.,#64,#70);
#72= IFCSHAPEREPRESENTATION(#12,'Body','Clipping',(#71));
#73= IFCPRODUCTDEFINITIONSHAPE($,$,(#72));
#74= IFCBEAM('2UQoeW2kb5$uUkqCWebfqM',#44,'BEAM','IPE400','IPE400',#48,#73,'ID9e6b2a20-0ae9-45ff-87ae-d0c828969d16');
#75= IFCLOCALPLACEMENT(#42,#47);
#76= IFCRECTANGLEPROFILEDEF(.AREA.,'PL35.5*97.7',#51,35.5,97.7);
#77= IFCDIRECTION((0.,0.,-1.));
#78= IFCCARTESIANPOINT((141.145313623218,-91.0042928240863,-183.249999999993));
#79= IFCAXIS2PLACEMENT3D(#78,#60,#77);
#80= IFCEXTRUDEDAREASOLID(#76,#79,#9,182.);
#81= IFCSHAPEREPRESENTATION(#12,'Body','SweptSolid',(#80));
#82= IFCPRODUCTDEFINITIONSHAPE($,$,(#81));
#83= IFCOPENINGELEMENT('3dOBuY9zn2Dgv3t6K1_Bl0',#5,$,$,'Recess',#75,#82,$);
#84= IFCRELVOIDSELEMENT('0aVua5SsfFQBnriRiZfuqF',#5,$,$,#74,#83);
#85= IFCPROPERTYSINGLEVALUE('FeatureSubTypes',$,$,$);
#86= IFCPROPERTYSINGLEVALUE('RectangleOpeningWidth',$,IFCPOSITIVELENGTHMEASURE(35.5),$);
#87= IFCPROPERTYSINGLEVALUE('RectangleOpeningHeight',$,IFCPOSITIVELENGTHMEASURE(97.7),$);
#88= IFCPROPERTYSINGLEVALUE('OpeningDiameter',$,$,$);
#89= IFCPROPERTYSET('0039ITRwnEgfNpfbj2x2Z7',#5,'AISC_EM11_Pset_Opening/Cope',$,(#85,#86,#87,#88));
#90= IFCLOCALPLACEMENT(#42,#47);
#91= IFCCARTESIANPOINT((141.145313623218,-91.0042928240863,183.250000000007));
#92= IFCAXIS2PLACEMENT3D(#91,#60,#77);
#93= IFCEXTRUDEDAREASOLID(#76,#92,#9,182.);
#94= IFCSHAPEREPRESENTATION(#12,'Body','SweptSolid',(#93));
#95= IFCPRODUCTDEFINITIONSHAPE($,$,(#94));
#96= IFCOPENINGELEMENT('0cwHnLe7v5mhNr6p8a9hmU',#5,$,$,'Recess',#90,#95,$);
#97= IFCRELVOIDSELEMENT('0J6Q_xt8X2JQoA1PBXwTo2',#5,$,$,#74,#96);
#98= IFCLOCALPLACEMENT(#42,#47);
#99= IFCRECTANGLEPROFILEDEF(.AREA.,'PL100.1*12.1',#51,12.1,100.1);
#100= IFCCARTESIANPOINT((1912.96983506707,-40.9486549887599,201.000000000007));
#101= IFCAXIS2PLACEMENT3D(#100,#77,#58);
#102= IFCEXTRUDEDAREASOLID(#99,#101,#9,402.);
#103= IFCSHAPEREPRESENTATION(#12,'Body','SweptSolid',(#102));
#104= IFCPRODUCTDEFINITIONSHAPE($,$,(#103));
#105= IFCOPENINGELEMENT('0D8haKikT7wgHtL7RmWsLb',#5,$,$,'Recess',#98,#104,$);
#106= IFCRELVOIDSELEMENT('0dl1Ga2UnFeAAiUCwBIlUU',#5,$,$,#74,#105);
#107= IFCPROPERTYSINGLEVALUE('RectangleOpeningWidth',$,IFCPOSITIVELENGTHMEASURE(12.1),$);
#108= IFCPROPERTYSINGLEVALUE('RectangleOpeningHeight',$,IFCPOSITIVELENGTHMEASURE(100.1),$);
#109= IFCPROPERTYSET('1TvFHkhk501R5ZsM3Pdku$',#5,'AISC_EM11_Pset_Opening/Cope',$,(#85,#107,#108,#88));
#110= IFCLOCALPLACEMENT(#42,#47);
#111= IFCRECTANGLEPROFILEDEF(.AREA.,'PL101.9*12.1',#51,12.1,101.9);
#112= IFCCARTESIANPOINT((1912.96970684168,40.0528544127578,201.000000000007));
#113= IFCAXIS2PLACEMENT3D(#112,#77,#58);
#114= IFCEXTRUDEDAREASOLID(#111,#113,#9,402.);
#115= IFCSHAPEREPRESENTATION(#12,'Body','SweptSolid',(#114));
#116= IFCPRODUCTDEFINITIONSHAPE($,$,(#115));
#117= IFCOPENINGELEMENT('2mesIoIsXAKgDKtPJVA_$D',#5,$,$,'Recess',#110,#116,$);
#118= IFCRELVOIDSELEMENT('3KBz5QPi5BOuaDy_K51dtQ',#5,$,$,#74,#117);
#119= IFCPROPERTYSINGLEVALUE('RectangleOpeningHeight',$,IFCPOSITIVELENGTHMEASURE(101.9),$);
#120= IFCPROPERTYSET('32h3Ncfl10qRioVZ1c__GL',#5,'AISC_EM11_Pset_Opening/Cope',$,(#85,#107,#119,#88));
#121= IFCCARTESIANPOINT((21475.6689142427,1591.49982929514,35250.));
#122= IFCAXIS2PLACEMENT3D(#121,#7,#77);
#123= IFCLOCALPLACEMENT(#42,#122);
#124= IFCCIRCLEPROFILEDEF(.AREA.,$,#51,11.5);
#125= IFCCARTESIANPOINT((0.,-4.40035438705636,0.));
#126= IFCAXIS2PLACEMENT3D(#125,#8,#7);
#127= IFCEXTRUDEDAREASOLID(#124,#126,#9,8.8);
#128= IFCSHAPEREPRESENTATION(#12,'Body','SweptSolid',(#127));
#129= IFCREPRESENTATIONMAP(#10,#128);
#130= IFCCARTESIANPOINT((40.,0.,50.0000000000364));
#131= IFCCARTESIANTRANSFORMATIONOPERATOR3D($,$,#130,$,$);
#132= IFCMAPPEDITEM(#129,#131);
#133= IFCCARTESIANPOINT((100.,0.,50.0000000000364));
#134= IFCCARTESIANTRANSFORMATIONOPERATOR3D($,$,#133,$,$);
#135= IFCMAPPEDITEM(#129,#134);
#136= IFCCARTESIANPOINT((160.,0.,50.0000000000364));
#137= IFCCARTESIANTRANSFORMATIONOPERATOR3D($,$,#136,$,$);
#138= IFCMAPPEDITEM(#129,#137);
#139= IFCSHAPEREPRESENTATION(#12,'Body','MappedRepresentation',(#132,#135,#138));
#140= IFCPRODUCTDEFINITIONSHAPE($,$,(#139));
#141= IFCOPENINGELEMENT('2DxhtId8PBChFYpUB8FjL9',#5,$,$,'Opening',#123,#140,$);
#142= IFCRELVOIDSELEMENT('3BF7311WH3cAXtx7QbUrnE',#5,'Drill Hole',$,#74,#141);
#143= IFCPROPERTYSINGLEVALUE('FeatureSubTypes',$,IFCLABEL('TORNILLO'),$);
#144= IFCPROPERTYSINGLEVALUE('RectangleOpeningWidth',$,$,$);
#145= IFCPROPERTYSINGLEVALUE('RectangleOpeningHeight',$,$,$);
#146= IFCPROPERTYSET('3h056WPtz6CgTtQT4x1oL6',#5,'AISC_EM11_Pset_Opening/Cope',$,(#143,#144,#145,#88));
#147= IFCCARTESIANPOINT((23192.6877809983,1591.49689443758,35350.));
#148= IFCAXIS2PLACEMENT3D(#147,#54,#77);
#149= IFCLOCALPLACEMENT(#42,#148);
#150= IFCCARTESIANPOINT((0.,-4.40006351050815,0.));
#151= IFCAXIS2PLACEMENT3D(#150,#8,#7);
#152= IFCEXTRUDEDAREASOLID(#124,#151,#9,8.8);
#153= IFCSHAPEREPRESENTATION(#12,'Body','SweptSolid',(#152));
#154= IFCREPRESENTATIONMAP(#10,#153);
#155= IFCCARTESIANPOINT((95.,0.,50.));
#156= IFCCARTESIANTRANSFORMATIONOPERATOR3D($,$,#155,$,$);
#157= IFCMAPPEDITEM(#154,#156);
#158= IFCCARTESIANPOINT((165.,0.,50.));
#159= IFCCARTESIANTRANSFORMATIONOPERATOR3D($,$,#158,$,$);
#160= IFCMAPPEDITEM(#154,#159);
#161= IFCCARTESIANPOINT((235.,0.,50.));
#162= IFCCARTESIANTRANSFORMATIONOPERATOR3D($,$,#161,$,$);
#163= IFCMAPPEDITEM(#154,#162);
#164= IFCCARTESIANPOINT((305.,0.,50.));
#165= IFCCARTESIANTRANSFORMATIONOPERATOR3D($,$,#164,$,$);
#166= IFCMAPPEDITEM(#154,#165);
#167= IFCSHAPEREPRESENTATION(#12,'Body','MappedRepresentation',(#157,#160,#163,#166));
#168= IFCPRODUCTDEFINITIONSHAPE($,$,(#167));
#169= IFCOPENINGELEMENT('1poyuWl556rhELUInbd9R_',#5,$,$,'Opening',#149,#168,$);
#170= IFCRELVOIDSELEMENT('17vLGxgu96hwxE5LkGnCHW',#5,'Drill Hole',$,#74,#169);
#171= IFCPROPERTYSINGLEVALUE('PieceMark',$,IFCIDENTIFIER('BEAM'),$);
#172= IFCPROPERTYSINGLEVALUE('IndicationMark',$,IFCIDENTIFIER('b/693'),$);
#173= IFCPROPERTYSINGLEVALUE('PrelimMark',$,IFCIDENTIFIER(''),$);
#174= IFCPROPERTYSINGLEVALUE('MainPieceTag',$,IFCBOOLEAN(.T.),$);
#175= IFCPROPERTYSET('3aEvDXACf7zAAE56z_phHU',#5,'AISC_EM11_Pset_PieceIdentification','PieceIdentity',(#171,#172,#173,#174));
#176= IFCPROPERTYSINGLEVALUE('MaterialType',$,IFCIDENTIFIER('STEEL'),$);
#177= IFCPROPERTYSINGLEVALUE('MaterialGrade',$,IFCIDENTIFIER('S235JR'),$);
#178= IFCPROPERTYSET('1NHI4bK3PBGfLG2ZrXvSoR',#5,'AISC_EM11_Pset_Material',$,(#176,#177));
#179= IFCPROPERTYSINGLEVALUE('SkewedAngleY',$,IFCREAL(0.),$);
#180= IFCPROPERTYSINGLEVALUE('SkewedAngleX',$,IFCREAL(-0.00014),$);
#181= IFCPROPERTYSET('3WtWKJwbz4DOa91Z5exgMR',#5,'AISC_EM11_Pset_SkewedEnd',$,(#179,#180));
#182= IFCPROPERTYSINGLEVALUE('SkewedAngleX',$,IFCREAL(-9.E-05),$);
#183= IFCPROPERTYSET('2wGmcCt2bCQPoy4DQZJFhX',#5,'AISC_EM11_Pset_SkewedEnd_2',$,(#179,#182));
#184= IFCMATERIAL('STEEL/S235JR');
#185= IFCRELAGGREGATES('1lRCVmOML6WQo1GjfNfyFo',#5,$,$,#37,(#39));
#186= IFCRELAGGREGATES('21jUn2gedOoi4JY$xfxEX4',#5,$,$,#39,(#41));
#187= IFCRELAGGREGATES('1naaBCCaH2cRBmR9iu8W4h',#5,$,$,#41,(#43));
#188= IFCRELCONTAINEDINSPATIALSTRUCTURE('2_p6x34Ob31RiZAxAkqDVd',#5,$,$,(#74),#43);
#189= IFCRELDEFINESBYPROPERTIES('0c6uCvOmj2uu59vdAJk3uN',#5,$,$,(#96,#83),#89);
#190= IFCRELDEFINESBYPROPERTIES('3vtv3izk12aP5CcFx39q1D',#5,$,$,(#105),#109);
#191= IFCRELDEFINESBYPROPERTIES('2cerm3YHvBg8le_4MVvrwn',#5,$,$,(#117),#120);
#192= IFCRELDEFINESBYPROPERTIES('0WO4LuN5r2zAy1IvT5Dqo0',#5,$,$,(#169,#141),#146);
#193= IFCRELDEFINESBYPROPERTIES('0KLmmRYHn83ebZFODDcvk3',#5,$,$,(#74),#175);
#194= IFCRELDEFINESBYPROPERTIES('1a2C$XdkD2g8d54dtzxlJk',#5,$,$,(#74),#178);
#195= IFCRELDEFINESBYPROPERTIES('3W2UzQqWr8$8DGNRYLx5av',#5,$,$,(#74),#181);
#196= IFCRELDEFINESBYPROPERTIES('0Ih6E79Wb5WetIsvt1_dUp',#5,$,$,(#74),#183);
#197= IFCRELASSOCIATESMATERIAL('1KLtFeeYT6FhovVRuPfvLg',#5,$,$,(#74),#184);
ENDSEC;

END-ISO-10303-21;
