ISO-10303-21;
HEADER;
FILE_DESCRIPTION(('ViewDefinition[AISC_Steel_Detailing]', 'Option [BaseQuantities:Off]', 'Option [GridExport:On]', 'Option [Assemblies:Off]', 'Option [Bolts:On]', 'Option [Rebars:On]', 'Option [PourObjects:Off]', 'Option [Welds:On]', 'Option [SurfaceTreatments:On]', 'Option [LocationBy:0]', 'Option [ViewColors:Off]', 'Option [SectionedSpine:Off]', 'Option [PropertySets:On]', 'Option [Export all:Off]'),'2;1');
FILE_NAME('b_694_Qty_1.ifc','2026-05-16T11:53:01',('GIOVANNIPC\\gcorrea'),('Structural Designer'),'IFC Database version: Work','Tekla Structures 2020 Service Pack 5, IFC Export Version: 4.0.0.0 Dec  7 2020','');
FILE_SCHEMA(('IFC2X3'));
ENDSEC;

DATA;
#1= IFCPERSON('GIOVANNIPC\\gcorrea','Undefined',$,$,$,$,$,$);
#2= IFCORGANIZATION($,'Trimble Solutions Corporation',$,$,$);
#3= IFCPERSONANDORGANIZATION(#1,#2,$);
#4= IFCAPPLICATION(#2,'2020 Service Pack 5','Tekla Structures','Multi material modeling');
#5= IFCOWNERHISTORY(#3,#4,$,.NOCHANGE.,$,$,$,1778950381);
#6= IFCCARTESIANPOINT((0.,0.,0.));
#7= IFCDIRECTION((1.,0.,0.));
#8= IFCDIRECTION((0.,1.,0.));
#9= IFCDIRECTION((0.,0.,1.));
#10= IFCAXIS2PLACEMENT3D(#6,#9,#7);
#11= IFCGEOMETRICREPRESENTATIONCONTEXT($,'Model',3,1.E-05,#10,$);
#12= IFCGEOMETRICREPRESENTATIONSUBCONTEXT('Body','Model',*,*,*,*,#11,$,.MODEL_VIEW.,$);
#13= IFCGEOMETRICREPRESENTATIONSUBCONTEXT('Axis','Model',*,*,*,*,#11,$,.GRAPH_VIEW.,$);
#14= IFCGEOMETRICREPRESENTATIONSUBCONTEXT('FootPrint','Model',*,*,*,*,#11,$,.MODEL_VIEW.,$);
#15= IFCSIUNIT(*,.LENGTHUNIT.,.MILLI.,.METRE.);
#16= IFCMEASUREWITHUNIT(IFCRATIOMEASURE(304.8),#15);
#17= IFCDIMENSIONALEXPONENTS(1,0,0,0,0,0,0);
#18= IFCCONVERSIONBASEDUNIT(#17,.LENGTHUNIT.,'FOOT',#16);
#19= IFCSIUNIT(*,.AREAUNIT.,$,.SQUARE_METRE.);
#20= IFCMEASUREWITHUNIT(IFCRATIOMEASURE(0.09290304),#19);
#21= IFCDIMENSIONALEXPONENTS(2,0,0,0,0,0,0);
#22= IFCCONVERSIONBASEDUNIT(#21,.AREAUNIT.,'SQUARE FOOT',#20);
#23= IFCSIUNIT(*,.VOLUMEUNIT.,$,.CUBIC_METRE.);
#24= IFCMEASUREWITHUNIT(IFCRATIOMEASURE(0.028316846592),#23);
#25= IFCDIMENSIONALEXPONENTS(3,0,0,0,0,0,0);
#26= IFCCONVERSIONBASEDUNIT(#25,.VOLUMEUNIT.,'CUBIC FOOT',#24);
#27= IFCSIUNIT(*,.MASSUNIT.,.KILO.,.GRAM.);
#28= IFCSIUNIT(*,.TIMEUNIT.,$,.SECOND.);
#29= IFCSIUNIT(*,.PLANEANGLEUNIT.,$,.RADIAN.);
#30= IFCMEASUREWITHUNIT(IFCRATIOMEASURE(0.0174532925199433),#29);
#31= IFCDIMENSIONALEXPONENTS(0,0,0,0,0,0,0);
#32= IFCCONVERSIONBASEDUNIT(#31,.PLANEANGLEUNIT.,'DEGREE',#30);
#33= IFCSIUNIT(*,.SOLIDANGLEUNIT.,$,.STERADIAN.);
#34= IFCSIUNIT(*,.THERMODYNAMICTEMPERATUREUNIT.,$,.DEGREE_CELSIUS.);
#35= IFCSIUNIT(*,.LUMINOUSINTENSITYUNIT.,$,.LUMEN.);
#36= IFCUNITASSIGNMENT((#15,#19,#23,#27,#28,#29,#33,#34,#35));
#37= IFCPROJECT('2G7ZFDNE16yBDU14FA92Me',#5,'Proyecto',$,$,$,$,(#11),#36);
#38= IFCLOCALPLACEMENT($,#10);
#39= IFCSITE('2xvEzEinjBTea80yOTcujY',#5,'Obra',$,$,#38,$,$,.ELEMENT.,$,$,$,$,$);
#40= IFCLOCALPLACEMENT(#38,#10);
#41= IFCBUILDING('3ERkgF2Jf55PPeWvhbiuES',#5,'Undefined',$,$,#40,$,$,.ELEMENT.,$,$,$);
#42= IFCLOCALPLACEMENT(#40,#10);
#43= IFCBUILDINGSTOREY('29hdEUCErFze9E_VIAceOd',#5,'Undefined',$,$,#42,$,$,.ELEMENT.,0.);
#44= IFCOWNERHISTORY(#3,#4,$,.NOCHANGE.,$,$,$,1776805200);
#45= IFCCARTESIANPOINT((21375.6692047119,1248.96510028258,35150.));
#46= IFCAXIS2PLACEMENT3D(#45,#9,#8);
#47= IFCLOCALPLACEMENT(#42,#46);
#48= IFCDIRECTION((1.,0.));
#49= IFCCARTESIANPOINT((0.,0.));
#50= IFCAXIS2PLACEMENT2D(#49,#48);
#51= IFCISHAPEPROFILEDEF(.AREA.,'IPE400',#50,180.,400.,8.600000381,13.5,21.);
#52= IFCDIRECTION((0.,-1.,0.));
#53= IFCDIRECTION((-1.,0.,0.));
#54= IFCCARTESIANPOINT((6713.82709554507,3.63797880709171E-12,7.27595761418343E-12));
#55= IFCAXIS2PLACEMENT3D(#54,#53,#52);
#56= IFCEXTRUDEDAREASOLID(#51,#55,#9,6723.88);
#57= IFCDIRECTION((-0.999999804175896,-0.000625817999943703,0.));
#58= IFCCARTESIANPOINT((6713.76989404466,-0.0966888807779469,-299.999999999993));
#59= IFCDIRECTION((-0.000625817999943703,0.999999804175896,0.));
#60= IFCAXIS2PLACEMENT3D(#58,#57,#59);
#61= IFCPLANE(#60);
#62= IFCHALFSPACESOLID(#61,.T.);
#63= IFCBOOLEANCLIPPINGRESULT(.DIFFERENCE.,#56,#62);
#64= IFCDIRECTION((0.999999999997045,-2.43100000033941E-06,0.));
#65= IFCCARTESIANPOINT((-10.000638919073,-0.000232646787480917,-299.999999999993));
#66= IFCDIRECTION((-2.43100000033941E-06,-0.999999999997045,0.));
#67= IFCAXIS2PLACEMENT3D(#65,#64,#66);
#68= IFCPLANE(#67);
#69= IFCHALFSPACESOLID(#68,.T.);
#70= IFCBOOLEANCLIPPINGRESULT(.DIFFERENCE.,#63,#69);
#71= IFCSHAPEREPRESENTATION(#12,'Body','Clipping',(#70));
#72= IFCPRODUCTDEFINITIONSHAPE($,$,(#71));
#73= IFCBEAM('1ukxWBprX4$uH0ppjewxU6',#44,'BEAM','IPE400','IPE400',#47,#72,'ID78bbb80b-cf58-44ff-8440-cf3b68ebb786');
#74= IFCLOCALPLACEMENT(#42,#46);
#75= IFCRECTANGLEPROFILEDEF(.AREA.,'PL35.5*97.7',#50,35.5,97.7);
#76= IFCDIRECTION((0.,0.,-1.));
#77= IFCDIRECTION((2.43100000001449E-06,0.999999999997045,0.));
#78= IFCCARTESIANPOINT((-58.8508600430987,-90.9998812469815,-183.249999999993));
#79= IFCAXIS2PLACEMENT3D(#78,#77,#76);
#80= IFCEXTRUDEDAREASOLID(#75,#79,#9,182.02);
#81= IFCSHAPEREPRESENTATION(#12,'Body','SweptSolid',(#80));
#82= IFCPRODUCTDEFINITIONSHAPE($,$,(#81));
#83= IFCOPENINGELEMENT('3cDHqatPvESwT4jlZX4ze3',#5,$,$,'Recess',#74,#82,$);
#84= IFCRELVOIDSELEMENT('2wUYQbIlv9ehxpCPW4xX10',#5,$,$,#73,#83);
#85= IFCPROPERTYSINGLEVALUE('FeatureSubTypes',$,$,$);
#86= IFCPROPERTYSINGLEVALUE('RectangleOpeningWidth',$,IFCPOSITIVELENGTHMEASURE(35.5),$);
#87= IFCPROPERTYSINGLEVALUE('RectangleOpeningHeight',$,IFCPOSITIVELENGTHMEASURE(97.7),$);
#88= IFCPROPERTYSINGLEVALUE('OpeningDiameter',$,$,$);
#89= IFCPROPERTYSET('1AL0M4s618FOK6LQLFZNFV',#5,'AISC_EM11_Pset_Opening/Cope',$,(#85,#86,#87,#88));
#90= IFCLOCALPLACEMENT(#42,#46);
#91= IFCCARTESIANPOINT((-58.8508600430987,-90.9998812469815,183.250000000007));
#92= IFCAXIS2PLACEMENT3D(#91,#77,#76);
#93= IFCEXTRUDEDAREASOLID(#75,#92,#9,182.02);
#94= IFCSHAPEREPRESENTATION(#12,'Body','SweptSolid',(#93));
#95= IFCPRODUCTDEFINITIONSHAPE($,$,(#94));
#96= IFCOPENINGELEMENT('187nNfimH57ekxZN7EMkRw',#5,$,$,'Recess',#90,#95,$);
#97= IFCRELVOIDSELEMENT('3iPnPuzwfF_uPxD9r2_Xew',#5,$,$,#73,#96);
#98= IFCLOCALPLACEMENT(#42,#46);
#99= IFCRECTANGLEPROFILEDEF(.AREA.,'PL57*156.5',#50,57.,156.5);
#100= IFCDIRECTION((0.000625817999942848,-0.999999804175896,0.));
#101= IFCCARTESIANPOINT((6791.96023543131,95.2567908897242,-172.499999999993));
#102= IFCAXIS2PLACEMENT3D(#101,#100,#76);
#103= IFCEXTRUDEDAREASOLID(#99,#102,#9,186.21);
#104= IFCSHAPEREPRESENTATION(#12,'Body','SweptSolid',(#103));
#105= IFCPRODUCTDEFINITIONSHAPE($,$,(#104));
#106= IFCOPENINGELEMENT('1wW62$Rij8sOTC4jwluCB_',#5,$,$,'Recess',#98,#105,$);
#107= IFCRELVOIDSELEMENT('0ubXClFAD4yBpetpv1EW1F',#5,$,$,#73,#106);
#108= IFCPROPERTYSINGLEVALUE('RectangleOpeningWidth',$,IFCPOSITIVELENGTHMEASURE(57.),$);
#109= IFCPROPERTYSINGLEVALUE('RectangleOpeningHeight',$,IFCPOSITIVELENGTHMEASURE(156.5),$);
#110= IFCPROPERTYSET('13CC_ha7LFYR2Cq3to$Oiz',#5,'AISC_EM11_Pset_Opening/Cope',$,(#85,#108,#109,#88));
#111= IFCLOCALPLACEMENT(#42,#46);
#112= IFCRECTANGLEPROFILEDEF(.AREA.,'PL47*156.5',#50,47.,156.5);
#113= IFCCARTESIANPOINT((6791.96023543131,95.2567908897242,177.500000000007));
#114= IFCAXIS2PLACEMENT3D(#113,#100,#76);
#115= IFCEXTRUDEDAREASOLID(#112,#114,#9,186.21);
#116= IFCSHAPEREPRESENTATION(#12,'Body','SweptSolid',(#115));
#117= IFCPRODUCTDEFINITIONSHAPE($,$,(#116));
#118= IFCOPENINGELEMENT('0BSjnzhHbDu9iMfozxJXEc',#5,$,$,'Recess',#111,#117,$);
#119= IFCRELVOIDSELEMENT('012WMpIV55DemiZ5X1_lyj',#5,$,$,#73,#118);
#120= IFCPROPERTYSINGLEVALUE('RectangleOpeningWidth',$,IFCPOSITIVELENGTHMEASURE(47.),$);
#121= IFCPROPERTYSET('02flm06CbDVQ$Ond58HwPI',#5,'AISC_EM11_Pset_Opening/Cope',$,(#85,#120,#109,#88));
#122= IFCCARTESIANPOINT((21375.6694458393,1238.96446136367,35295.));
#123= IFCAXIS2PLACEMENT3D(#122,#77,#76);
#124= IFCLOCALPLACEMENT(#42,#123);
#125= IFCCIRCLEPROFILEDEF(.AREA.,$,#50,11.5);
#126= IFCCARTESIANPOINT((0.,-4.39964599985644,0.));
#127= IFCAXIS2PLACEMENT3D(#126,#8,#7);
#128= IFCEXTRUDEDAREASOLID(#125,#127,#9,8.8);
#129= IFCSHAPEREPRESENTATION(#12,'Body','SweptSolid',(#128));
#130= IFCREPRESENTATIONMAP(#10,#129);
#131= IFCCARTESIANPOINT((40.,0.,49.9999999999889));
#132= IFCCARTESIANTRANSFORMATIONOPERATOR3D($,$,#131,$,$);
#133= IFCMAPPEDITEM(#130,#132);
#134= IFCCARTESIANPOINT((110.,0.,49.9999999999889));
#135= IFCCARTESIANTRANSFORMATIONOPERATOR3D($,$,#134,$,$);
#136= IFCMAPPEDITEM(#130,#135);
#137= IFCCARTESIANPOINT((180.,0.,49.9999999999889));
#138= IFCCARTESIANTRANSFORMATIONOPERATOR3D($,$,#137,$,$);
#139= IFCMAPPEDITEM(#130,#138);
#140= IFCCARTESIANPOINT((250.,0.,49.9999999999889));
#141= IFCCARTESIANTRANSFORMATIONOPERATOR3D($,$,#140,$,$);
#142= IFCMAPPEDITEM(#130,#141);
#143= IFCSHAPEREPRESENTATION(#12,'Body','MappedRepresentation',(#133,#136,#139,#142));
#144= IFCPRODUCTDEFINITIONSHAPE($,$,(#143));
#145= IFCOPENINGELEMENT('2lHXHJGev8k9KvPBbdKlNC',#5,$,$,'Opening',#124,#144,$);
#146= IFCRELVOIDSELEMENT('3ie4ENkfn2Yv7Lv522i0_2',#5,'Drill Hole',$,#73,#145);
#147= IFCPROPERTYSINGLEVALUE('FeatureSubTypes',$,IFCLABEL('TORNILLO'),$);
#148= IFCPROPERTYSINGLEVALUE('RectangleOpeningWidth',$,$,$);
#149= IFCPROPERTYSINGLEVALUE('RectangleOpeningHeight',$,$,$);
#150= IFCPROPERTYSET('1TqoKLG$57x9yFuJNHlylV',#5,'AISC_EM11_Pset_Opening/Cope',$,(#147,#148,#149,#88));
#151= IFCCARTESIANPOINT((21375.7602003158,7962.73499440515,35295.));
#152= IFCAXIS2PLACEMENT3D(#151,#100,#76);
#153= IFCLOCALPLACEMENT(#42,#152);
#154= IFCCARTESIANPOINT((0.,-4.52798083314621,0.));
#155= IFCAXIS2PLACEMENT3D(#154,#8,#7);
#156= IFCEXTRUDEDAREASOLID(#125,#155,#9,8.8);
#157= IFCSHAPEREPRESENTATION(#12,'Body','SweptSolid',(#156));
#158= IFCREPRESENTATIONMAP(#10,#157);
#159= IFCMAPPEDITEM(#158,#132);
#160= IFCMAPPEDITEM(#158,#135);
#161= IFCMAPPEDITEM(#158,#138);
#162= IFCMAPPEDITEM(#158,#141);
#163= IFCSHAPEREPRESENTATION(#12,'Body','MappedRepresentation',(#159,#160,#161,#162));
#164= IFCPRODUCTDEFINITIONSHAPE($,$,(#163));
#165= IFCOPENINGELEMENT('1I0rsS5Yz2zw$HY_qFu94C',#5,$,$,'Opening',#153,#164,$);
#166= IFCRELVOIDSELEMENT('06FwjRDRHCRviY_a9Y1P_s',#5,'Drill Hole',$,#73,#165);
#167= IFCPROPERTYSINGLEVALUE('PieceMark',$,IFCIDENTIFIER('BEAM'),$);
#168= IFCPROPERTYSINGLEVALUE('IndicationMark',$,IFCIDENTIFIER('b/694'),$);
#169= IFCPROPERTYSINGLEVALUE('PrelimMark',$,IFCIDENTIFIER(''),$);
#170= IFCPROPERTYSINGLEVALUE('MainPieceTag',$,IFCBOOLEAN(.T.),$);
#171= IFCPROPERTYSET('35dymq_$H80wi$tRPNtOF8',#5,'AISC_EM11_Pset_PieceIdentification','PieceIdentity',(#167,#168,#169,#170));
#172= IFCPROPERTYSINGLEVALUE('MaterialType',$,IFCIDENTIFIER('STEEL'),$);
#173= IFCPROPERTYSINGLEVALUE('MaterialGrade',$,IFCIDENTIFIER('S235JR'),$);
#174= IFCPROPERTYSET('3yOGzMZVjFBBhbPMpl6EuA',#5,'AISC_EM11_Pset_Material',$,(#172,#173));
#175= IFCPROPERTYSINGLEVALUE('SkewedAngleY',$,IFCREAL(0.),$);
#176= IFCPROPERTYSINGLEVALUE('SkewedAngleX',$,IFCREAL(0.00014),$);
#177= IFCPROPERTYSET('3EWCzWz397jAPrrnVXOUnW',#5,'AISC_EM11_Pset_SkewedEnd',$,(#175,#176));
#178= IFCPROPERTYSINGLEVALUE('SkewedAngleX',$,IFCREAL(-0.03586),$);
#179= IFCPROPERTYSET('3Q8XgiJMHE$Pm_iE_uALN3',#5,'AISC_EM11_Pset_SkewedEnd_2',$,(#175,#178));
#180= IFCMATERIAL('STEEL/S235JR');
#181= IFCRELAGGREGATES('20zozCql59puEXKKY5U6fU',#5,$,$,#37,(#39));
#182= IFCRELAGGREGATES('2IF4FU61NR5AWpccqNmOxm',#5,$,$,#39,(#41));
#183= IFCRELAGGREGATES('0sancpZsn2TPGv9ypTgN5w',#5,$,$,#41,(#43));
#184= IFCRELCONTAINEDINSPATIALSTRUCTURE('2k3KUC8WD6fv9l2QlPlxIP',#5,$,$,(#73),#43);
#185= IFCRELDEFINESBYPROPERTIES('2b7IBXuXD5rhVItUrtItiD',#5,$,$,(#96,#83),#89);
#186= IFCRELDEFINESBYPROPERTIES('3BEDxYIlH3PRdRaFw$Gd_L',#5,$,$,(#106),#110);
#187= IFCRELDEFINESBYPROPERTIES('0mZ_NZNTX1yAOworMb7C3n',#5,$,$,(#118),#121);
#188= IFCRELDEFINESBYPROPERTIES('2HS$CeRj11Dhqd3DVCx7Ha',#5,$,$,(#165,#145),#150);
#189= IFCRELDEFINESBYPROPERTIES('1$MpSOwFf6M97uZaV$XDS3',#5,$,$,(#73),#171);
#190= IFCRELDEFINESBYPROPERTIES('0TCXziW_v348oXXsMa_Evd',#5,$,$,(#73),#174);
#191= IFCRELDEFINESBYPROPERTIES('0HrkhSUlPFeh0xVAFQcS4q',#5,$,$,(#73),#177);
#192= IFCRELDEFINESBYPROPERTIES('18$muC$uf5QeT8XG2kQvOu',#5,$,$,(#73),#179);
#193= IFCRELASSOCIATESMATERIAL('2_KSGtmFbDk8NgT6YSn6Uu',#5,$,$,(#73),#180);
ENDSEC;

END-ISO-10303-21;
