ISO-10303-21;
HEADER;
FILE_DESCRIPTION(('ViewDefinition[AISC_Steel_Detailing]', 'Option [BaseQuantities:Off]', 'Option [GridExport:On]', 'Option [Assemblies:Off]', 'Option [Bolts:On]', 'Option [Rebars:On]', 'Option [PourObjects:Off]', 'Option [Welds:On]', 'Option [SurfaceTreatments:On]', 'Option [LocationBy:0]', 'Option [ViewColors:Off]', 'Option [SectionedSpine:Off]', 'Option [PropertySets:On]', 'Option [Export all:Off]'),'2;1');
FILE_NAME('b_6_Qty_1.ifc','2026-05-16T11:53:17',('GIOVANNIPC\\gcorrea'),('Structural Designer'),'IFC Database version: Work','Tekla Structures 2020 Service Pack 5, IFC Export Version: 4.0.0.0 Dec  7 2020','');
FILE_SCHEMA(('IFC2X3'));
ENDSEC;

DATA;
#1= IFCPERSON('GIOVANNIPC\\gcorrea','Undefined',$,$,$,$,$,$);
#2= IFCORGANIZATION($,'Trimble Solutions Corporation',$,$,$);
#3= IFCPERSONANDORGANIZATION(#1,#2,$);
#4= IFCAPPLICATION(#2,'2020 Service Pack 5','Tekla Structures','Multi material modeling');
#5= IFCOWNERHISTORY(#3,#4,$,.NOCHANGE.,$,$,$,1778950397);
#6= IFCCARTESIANPOINT((0.,0.,0.));
#7= IFCDIRECTION((1.,0.,0.));
#8= IFCDIRECTION((0.,1.,0.));
#9= IFCDIRECTION((0.,0.,1.));
#10= IFCAXIS2PLACEMENT3D(#6,#9,#7);
#11= IFCGEOMETRICREPRESENTATIONCONTEXT($,'Model',3,1.E-05,#10,$);
#12= IFCGEOMETRICREPRESENTATIONSUBCONTEXT('Body','Model',*,*,*,*,#11,$,.MODEL_VIEW.,$);
#13= IFCGEOMETRICREPRESENTATIONSUBCONTEXT('Axis','Model',*,*,*,*,#11,$,.GRAPH_VIEW.,$);
#14= IFCGEOMETRICREPRESENTATIONSUBCONTEXT('FootPrint','Model',*,*,*,*,#11,$,.MODEL_VIEW.,$);
#15= IFCSIUNIT(*,.LENGTHUNIT.,.MILLI.,.METRE.);
#16= IFCMEASUREWITHUNIT(IFCRATIOMEASURE(304.8),#15);
#17= IFCDIMENSIONALEXPONENTS(1,0,0,0,0,0,0);
#18= IFCCONVERSIONBASEDUNIT(#17,.LENGTHUNIT.,'FOOT',#16);
#19= IFCSIUNIT(*,.AREAUNIT.,$,.SQUARE_METRE.);
#20= IFCMEASUREWITHUNIT(IFCRATIOMEASURE(0.09290304),#19);
#21= IFCDIMENSIONALEXPONENTS(2,0,0,0,0,0,0);
#22= IFCCONVERSIONBASEDUNIT(#21,.AREAUNIT.,'SQUARE FOOT',#20);
#23= IFCSIUNIT(*,.VOLUMEUNIT.,$,.CUBIC_METRE.);
#24= IFCMEASUREWITHUNIT(IFCRATIOMEASURE(0.028316846592),#23);
#25= IFCDIMENSIONALEXPONENTS(3,0,0,0,0,0,0);
#26= IFCCONVERSIONBASEDUNIT(#25,.VOLUMEUNIT.,'CUBIC FOOT',#24);
#27= IFCSIUNIT(*,.MASSUNIT.,.KILO.,.GRAM.);
#28= IFCSIUNIT(*,.TIMEUNIT.,$,.SECOND.);
#29= IFCSIUNIT(*,.PLANEANGLEUNIT.,$,.RADIAN.);
#30= IFCMEASUREWITHUNIT(IFCRATIOMEASURE(0.0174532925199433),#29);
#31= IFCDIMENSIONALEXPONENTS(0,0,0,0,0,0,0);
#32= IFCCONVERSIONBASEDUNIT(#31,.PLANEANGLEUNIT.,'DEGREE',#30);
#33= IFCSIUNIT(*,.SOLIDANGLEUNIT.,$,.STERADIAN.);
#34= IFCSIUNIT(*,.THERMODYNAMICTEMPERATUREUNIT.,$,.DEGREE_CELSIUS.);
#35= IFCSIUNIT(*,.LUMINOUSINTENSITYUNIT.,$,.LUMEN.);
#36= IFCUNITASSIGNMENT((#15,#19,#23,#27,#28,#29,#33,#34,#35));
#37= IFCPROJECT('2G7ZFDNE16yBDU14FA92Me',#5,'Proyecto',$,$,$,$,(#11),#36);
#38= IFCLOCALPLACEMENT($,#10);
#39= IFCSITE('2xvEzEinjBTea80yOTcujY',#5,'Obra',$,$,#38,$,$,.ELEMENT.,$,$,$,$,$);
#40= IFCLOCALPLACEMENT(#38,#10);
#41= IFCBUILDING('2$uLuqTsL2TxFUy5wxSxeh',#5,'Undefined',$,$,#40,$,$,.ELEMENT.,$,$,$);
#42= IFCLOCALPLACEMENT(#40,#10);
#43= IFCBUILDINGSTOREY('29hdEUCErFze9E_VIAceOd',#5,'Undefined',$,$,#42,$,$,.ELEMENT.,0.);
#44= IFCOWNERHISTORY(#3,#4,$,.NOCHANGE.,$,$,$,1776175200);
#45= IFCCARTESIANPOINT((17176.5315170288,8808.03462219238,13680.));
#46= IFCDIRECTION((0.996693462084076,-0.0812535700068541,0.));
#47= IFCAXIS2PLACEMENT3D(#45,#9,#46);
#48= IFCLOCALPLACEMENT(#42,#47);
#49= IFCDIRECTION((1.,0.));
#50= IFCCARTESIANPOINT((0.,0.));
#51= IFCAXIS2PLACEMENT2D(#50,#49);
#52= IFCISHAPEPROFILEDEF(.AREA.,'HEA450',#51,300.,440.,11.5,21.,27.);
#53= IFCDIRECTION((0.,-1.,0.));
#54= IFCDIRECTION((-1.,0.,0.));
#55= IFCCARTESIANPOINT((7876.42370243473,0.,0.));
#56= IFCAXIS2PLACEMENT3D(#55,#54,#53);
#57= IFCEXTRUDEDAREASOLID(#52,#56,#9,7928.65);
#58= IFCDIRECTION((-0.996693462084076,-0.0812535700068547,0.));
#59= IFCCARTESIANPOINT((7920.78809307029,-996.693462084077,0.));
#60= IFCDIRECTION((0.,0.,-1.));
#61= IFCAXIS2PLACEMENT3D(#59,#58,#60);
#62= IFCPLANE(#61);
#63= IFCHALFSPACESOLID(#62,.T.);
#64= IFCBOOLEANCLIPPINGRESULT(.DIFFERENCE.,#57,#63);
#65= IFCCARTESIANPOINT((-15.3398636983366,7.27595761418343E-12,-320.));
#66= IFCAXIS2PLACEMENT3D(#65,#7,#53);
#67= IFCPLANE(#66);
#68= IFCHALFSPACESOLID(#67,.T.);
#69= IFCBOOLEANCLIPPINGRESULT(.DIFFERENCE.,#64,#68);
#70= IFCSHAPEREPRESENTATION(#12,'Body','Clipping',(#69));
#71= IFCPRODUCTDEFINITIONSHAPE($,$,(#70));
#72= IFCBEAM('3W2Bnf3SLDmBMRCDpTNist',#44,'BEAM','HEA450','HEA450',#48,#71,'IDe008bc69-0dc5-4dc0-b59b-30dcdd5ecdb7');
#73= IFCLOCALPLACEMENT(#42,#47);
#74= IFCRECTANGLEPROFILEDEF(.AREA.,'PL161.4*12.2',#51,12.2,161.4);
#75= IFCCARTESIANPOINT((-21.2347514292196,70.2966658217756,221.));
#76= IFCAXIS2PLACEMENT3D(#75,#60,#7);
#77= IFCEXTRUDEDAREASOLID(#74,#76,#9,442.);
#78= IFCSHAPEREPRESENTATION(#12,'Body','SweptSolid',(#77));
#79= IFCPRODUCTDEFINITIONSHAPE($,$,(#78));
#80= IFCOPENINGELEMENT('0Ybl3KV1v5wfJdWoZemKdh',#5,$,$,'Recess',#73,#79,$);
#81= IFCRELVOIDSELEMENT('2j$zsqXuf49Acnde3pGPJi',#5,$,$,#72,#80);
#82= IFCPROPERTYSINGLEVALUE('FeatureSubTypes',$,$,$);
#83= IFCPROPERTYSINGLEVALUE('RectangleOpeningWidth',$,IFCPOSITIVELENGTHMEASURE(12.2),$);
#84= IFCPROPERTYSINGLEVALUE('RectangleOpeningHeight',$,IFCPOSITIVELENGTHMEASURE(161.4),$);
#85= IFCPROPERTYSINGLEVALUE('OpeningDiameter',$,$,$);
#86= IFCPROPERTYSET('1Oen8pa0v7zOOwsUr2Z0XO',#5,'AISC_EM11_Pset_Opening/Cope',$,(#82,#83,#84,#85));
#87= IFCLOCALPLACEMENT(#42,#47);
#88= IFCRECTANGLEPROFILEDEF(.AREA.,'PL161.6*12.2',#51,12.2,161.6);
#89= IFCCARTESIANPOINT((-21.2347514290486,-70.1990871468588,221.));
#90= IFCAXIS2PLACEMENT3D(#89,#60,#7);
#91= IFCEXTRUDEDAREASOLID(#88,#90,#9,442.);
#92= IFCSHAPEREPRESENTATION(#12,'Body','SweptSolid',(#91));
#93= IFCPRODUCTDEFINITIONSHAPE($,$,(#92));
#94= IFCOPENINGELEMENT('0teSoa1_HB0PQc1ld3VIOm',#5,$,$,'Recess',#87,#93,$);
#95= IFCRELVOIDSELEMENT('0S8DnD_$z7Bx9goDTgI8D$',#5,$,$,#72,#94);
#96= IFCPROPERTYSINGLEVALUE('RectangleOpeningHeight',$,IFCPOSITIVELENGTHMEASURE(161.6),$);
#97= IFCPROPERTYSET('2lKCca2EP4vAe06J0jF$Vz',#5,'AISC_EM11_Pset_Opening/Cope',$,(#82,#83,#96,#85));
#98= IFCCARTESIANPOINT((17206.0934542758,8805.6230765224,13460.));
#99= IFCDIRECTION((-0.0812880969784092,-0.996690646735299,0.));
#100= IFCDIRECTION((0.996690646735299,-0.0812880969784105,0.));
#101= IFCAXIS2PLACEMENT3D(#98,#99,#100);
#102= IFCLOCALPLACEMENT(#42,#101);
#103= IFCCIRCLEPROFILEDEF(.AREA.,$,#51,11.5);
#104= IFCCARTESIANPOINT((0.,-0.0999999999999645,0.));
#105= IFCAXIS2PLACEMENT3D(#104,#8,#7);
#106= IFCEXTRUDEDAREASOLID(#103,#105,#9,21.2);
#107= IFCSHAPEREPRESENTATION(#12,'Body','SweptSolid',(#106));
#108= IFCREPRESENTATIONMAP(#10,#107);
#109= IFCCARTESIANPOINT((7.27595761418343E-12,0.,75.0000000001346));
#110= IFCCARTESIANTRANSFORMATIONOPERATOR3D($,$,#109,$,$);
#111= IFCMAPPEDITEM(#108,#110);
#112= IFCCARTESIANPOINT((74.9999999998727,0.,75.0000000001455));
#113= IFCCARTESIANTRANSFORMATIONOPERATOR3D($,$,#112,$,$);
#114= IFCMAPPEDITEM(#108,#113);
#115= IFCCARTESIANPOINT((149.999999999734,0.,75.0000000001564));
#116= IFCCARTESIANTRANSFORMATIONOPERATOR3D($,$,#115,$,$);
#117= IFCMAPPEDITEM(#108,#116);
#118= IFCCARTESIANPOINT((224.9999999996,0.,75.0000000001673));
#119= IFCCARTESIANTRANSFORMATIONOPERATOR3D($,$,#118,$,$);
#120= IFCMAPPEDITEM(#108,#119);
#121= IFCCARTESIANPOINT((299.999999999465,0.,75.0000000001801));
#122= IFCCARTESIANTRANSFORMATIONOPERATOR3D($,$,#121,$,$);
#123= IFCMAPPEDITEM(#108,#122);
#124= IFCCARTESIANPOINT((374.999999999327,0.,75.0000000001892));
#125= IFCCARTESIANTRANSFORMATIONOPERATOR3D($,$,#124,$,$);
#126= IFCMAPPEDITEM(#108,#125);
#127= IFCCARTESIANPOINT((449.999999999192,0.,75.0000000002019));
#128= IFCCARTESIANTRANSFORMATIONOPERATOR3D($,$,#127,$,$);
#129= IFCMAPPEDITEM(#108,#128);
#130= IFCCARTESIANPOINT((524.999999999054,0.,75.000000000211));
#131= IFCCARTESIANTRANSFORMATIONOPERATOR3D($,$,#130,$,$);
#132= IFCMAPPEDITEM(#108,#131);
#133= IFCCARTESIANPOINT((599.999999998916,0.,75.0000000002237));
#134= IFCCARTESIANTRANSFORMATIONOPERATOR3D($,$,#133,$,$);
#135= IFCMAPPEDITEM(#108,#134);
#136= IFCCARTESIANPOINT((674.999999998781,0.,75.0000000002365));
#137= IFCCARTESIANTRANSFORMATIONOPERATOR3D($,$,#136,$,$);
#138= IFCMAPPEDITEM(#108,#137);
#139= IFCCARTESIANPOINT((-1.09139364212751E-11,0.,-75.0000000001346));
#140= IFCCARTESIANTRANSFORMATIONOPERATOR3D($,$,#139,$,$);
#141= IFCMAPPEDITEM(#108,#140);
#142= IFCCARTESIANPOINT((74.9999999998508,0.,-75.0000000001237));
#143= IFCCARTESIANTRANSFORMATIONOPERATOR3D($,$,#142,$,$);
#144= IFCMAPPEDITEM(#108,#143);
#145= IFCCARTESIANPOINT((149.999999999716,0.,-75.0000000001128));
#146= IFCCARTESIANTRANSFORMATIONOPERATOR3D($,$,#145,$,$);
#147= IFCMAPPEDITEM(#108,#146);
#148= IFCCARTESIANPOINT((224.999999999578,0.,-75.0000000001019));
#149= IFCCARTESIANTRANSFORMATIONOPERATOR3D($,$,#148,$,$);
#150= IFCMAPPEDITEM(#108,#149);
#151= IFCCARTESIANPOINT((299.99999999944,0.,-75.0000000000909));
#152= IFCCARTESIANTRANSFORMATIONOPERATOR3D($,$,#151,$,$);
#153= IFCMAPPEDITEM(#108,#152);
#154= IFCCARTESIANPOINT((374.999999999305,0.,-75.00000000008));
#155= IFCCARTESIANTRANSFORMATIONOPERATOR3D($,$,#154,$,$);
#156= IFCMAPPEDITEM(#108,#155);
#157= IFCCARTESIANPOINT((449.999999999167,0.,-75.0000000000691));
#158= IFCCARTESIANTRANSFORMATIONOPERATOR3D($,$,#157,$,$);
#159= IFCMAPPEDITEM(#108,#158);
#160= IFCCARTESIANPOINT((524.999999999029,0.,-75.0000000000582));
#161= IFCCARTESIANTRANSFORMATIONOPERATOR3D($,$,#160,$,$);
#162= IFCMAPPEDITEM(#108,#161);
#163= IFCCARTESIANPOINT((599.999999998894,0.,-75.0000000000455));
#164= IFCCARTESIANTRANSFORMATIONOPERATOR3D($,$,#163,$,$);
#165= IFCMAPPEDITEM(#108,#164);
#166= IFCCARTESIANPOINT((674.999999998756,0.,-75.0000000000364));
#167= IFCCARTESIANTRANSFORMATIONOPERATOR3D($,$,#166,$,$);
#168= IFCMAPPEDITEM(#108,#167);
#169= IFCSHAPEREPRESENTATION(#12,'Body','MappedRepresentation',(#111,#114,#117,#120,#123,#126,#129,#132,#135,#138,#141,#144,#147,#150,#153,#156,#159,#162,#165,#168));
#170= IFCPRODUCTDEFINITIONSHAPE($,$,(#169));
#171= IFCOPENINGELEMENT('1lG_xyj9DDLw5EYlLumSoV',#5,$,$,'Opening',#102,#170,$);
#172= IFCRELVOIDSELEMENT('2cPQJa51X0Gu3hjwUrFSDJ',#5,'Drill Hole',$,#72,#171);
#173= IFCPROPERTYSINGLEVALUE('FeatureSubTypes',$,IFCLABEL('TORNILLO'),$);
#174= IFCPROPERTYSINGLEVALUE('RectangleOpeningWidth',$,$,$);
#175= IFCPROPERTYSINGLEVALUE('RectangleOpeningHeight',$,$,$);
#176= IFCPROPERTYSET('0mK0o6GqTAePBfWu4Of42k',#5,'AISC_EM11_Pset_Opening/Cope',$,(#173,#174,#175,#85));
#177= IFCCARTESIANPOINT((17206.093454276,8805.62307652239,13900.));
#178= IFCDIRECTION((0.0812880969784128,0.996690646735299,0.));
#179= IFCAXIS2PLACEMENT3D(#177,#178,#100);
#180= IFCLOCALPLACEMENT(#42,#179);
#181= IFCSHAPEREPRESENTATION(#12,'Body','MappedRepresentation',(#141,#144,#147,#150,#153,#156,#159,#162,#165,#168,#111,#114,#117,#120,#123,#126,#129,#132,#135,#138));
#182= IFCPRODUCTDEFINITIONSHAPE($,$,(#181));
#183= IFCOPENINGELEMENT('1GPSxFpNfBg88Pdh5MDpkF',#5,$,$,'Opening',#180,#182,$);
#184= IFCRELVOIDSELEMENT('2w$CcsYkTEZO81QD0hr8p4',#5,'Drill Hole',$,#72,#183);
#185= IFCCARTESIANPOINT((17161.2423751714,8809.28104088128,13900.));
#186= IFCAXIS2PLACEMENT3D(#185,#46,#60);
#187= IFCLOCALPLACEMENT(#42,#186);
#188= IFCCARTESIANPOINT((0.,-5.84999999991479,0.));
#189= IFCAXIS2PLACEMENT3D(#188,#8,#7);
#190= IFCEXTRUDEDAREASOLID(#103,#189,#9,11.7);
#191= IFCSHAPEREPRESENTATION(#12,'Body','SweptSolid',(#190));
#192= IFCREPRESENTATIONMAP(#10,#191);
#193= IFCCARTESIANPOINT((80.,0.,44.9999999998581));
#194= IFCCARTESIANTRANSFORMATIONOPERATOR3D($,$,#193,$,$);
#195= IFCMAPPEDITEM(#192,#194);
#196= IFCCARTESIANPOINT((150.,0.,44.9999999998581));
#197= IFCCARTESIANTRANSFORMATIONOPERATOR3D($,$,#196,$,$);
#198= IFCMAPPEDITEM(#192,#197);
#199= IFCCARTESIANPOINT((220.,0.,44.9999999998581));
#200= IFCCARTESIANTRANSFORMATIONOPERATOR3D($,$,#199,$,$);
#201= IFCMAPPEDITEM(#192,#200);
#202= IFCCARTESIANPOINT((290.,0.,44.9999999998581));
#203= IFCCARTESIANTRANSFORMATIONOPERATOR3D($,$,#202,$,$);
#204= IFCMAPPEDITEM(#192,#203);
#205= IFCCARTESIANPOINT((360.,0.,44.9999999998581));
#206= IFCCARTESIANTRANSFORMATIONOPERATOR3D($,$,#205,$,$);
#207= IFCMAPPEDITEM(#192,#206);
#208= IFCSHAPEREPRESENTATION(#12,'Body','MappedRepresentation',(#195,#198,#201,#204,#207));
#209= IFCPRODUCTDEFINITIONSHAPE($,$,(#208));
#210= IFCOPENINGELEMENT('1$66UoOlT36B7taNe0W0Vn',#5,$,$,'Opening',#187,#209,$);
#211= IFCRELVOIDSELEMENT('06GGHaBS12IRI5G$SqVqNp',#5,'Drill Hole',$,#72,#210);
#212= IFCPROPERTYSINGLEVALUE('PieceMark',$,IFCIDENTIFIER('BEAM'),$);
#213= IFCPROPERTYSINGLEVALUE('IndicationMark',$,IFCIDENTIFIER('b/6'),$);
#214= IFCPROPERTYSINGLEVALUE('PrelimMark',$,IFCIDENTIFIER(''),$);
#215= IFCPROPERTYSINGLEVALUE('MainPieceTag',$,IFCBOOLEAN(.T.),$);
#216= IFCPROPERTYSET('0GhleTbsj3Rx8fHV8Nfw8Z',#5,'AISC_EM11_Pset_PieceIdentification','PieceIdentity',(#212,#213,#214,#215));
#217= IFCPROPERTYSINGLEVALUE('MaterialType',$,IFCIDENTIFIER('STEEL'),$);
#218= IFCPROPERTYSINGLEVALUE('MaterialGrade',$,IFCIDENTIFIER('S235JR'),$);
#219= IFCPROPERTYSET('3zK9PvPF19hvhUYc22HNKz',#5,'AISC_EM11_Pset_Material',$,(#217,#218));
#220= IFCPROPERTYSINGLEVALUE('SkewedAngleY',$,IFCREAL(0.),$);
#221= IFCPROPERTYSINGLEVALUE('SkewedAngleX',$,IFCREAL(0.),$);
#222= IFCPROPERTYSET('2BwO3DNPvCdOFYDkXSM34Q',#5,'AISC_EM11_Pset_SkewedEnd',$,(#220,#221));
#223= IFCPROPERTYSINGLEVALUE('SkewedAngleX',$,IFCREAL(-4.66062),$);
#224= IFCPROPERTYSET('2wp0RLKonF5Oo3DfrIKY$t',#5,'AISC_EM11_Pset_SkewedEnd_2',$,(#220,#223));
#225= IFCMATERIAL('STEEL/S235JR');
#226= IFCRELAGGREGATES('37TvJA0dL39frvuizMBsL6',#5,$,$,#37,(#39));
#227= IFCRELAGGREGATES('2PlBbSIvdLRx7BA_FeT8dO',#5,$,$,#39,(#41));
#228= IFCRELAGGREGATES('3TCnELQVD6FfYU0d6pjqUS',#5,$,$,#41,(#43));
#229= IFCRELCONTAINEDINSPATIALSTRUCTURE('15bT3rSZb6EBTJFLM5y9U_',#5,$,$,(#72),#43);
#230= IFCRELDEFINESBYPROPERTIES('0flwZTbiH93x0p1TNmhU8t',#5,$,$,(#80),#86);
#231= IFCRELDEFINESBYPROPERTIES('2EsM3i$4XDI8VemFqvzPO$',#5,$,$,(#94),#97);
#232= IFCRELDEFINESBYPROPERTIES('0VdvHdHiX66RHxHyoNfe_5',#5,$,$,(#210,#183,#171),#176);
#233= IFCRELDEFINESBYPROPERTIES('2Hn7L0c$D0ivlSG$xDqLlh',#5,$,$,(#72),#216);
#234= IFCRELDEFINESBYPROPERTIES('1UZtRSO_94897nhxKCUQn4',#5,$,$,(#72),#219);
#235= IFCRELDEFINESBYPROPERTIES('1t2SjLQu56ZOy0EtS699sl',#5,$,$,(#72),#222);
#236= IFCRELDEFINESBYPROPERTIES('1vaCQt0kX0780cV_ppQ8$y',#5,$,$,(#72),#224);
#237= IFCRELASSOCIATESMATERIAL('3UgccT42n4dAexGAEPHRFY',#5,$,$,(#72),#225);
ENDSEC;

END-ISO-10303-21;
