ISO-10303-21;
HEADER;
FILE_DESCRIPTION(('ViewDefinition[AISC_Steel_Detailing]', 'Option [BaseQuantities:Off]', 'Option [GridExport:On]', 'Option [Assemblies:Off]', 'Option [Bolts:On]', 'Option [Rebars:On]', 'Option [PourObjects:Off]', 'Option [Welds:On]', 'Option [SurfaceTreatments:On]', 'Option [LocationBy:0]', 'Option [ViewColors:Off]', 'Option [SectionedSpine:Off]', 'Option [PropertySets:On]', 'Option [Export all:Off]'),'2;1');
FILE_NAME('b_840_Qty_1.ifc','2026-05-16T11:52:59',('GIOVANNIPC\\gcorrea'),('Structural Designer'),'IFC Database version: Work','Tekla Structures 2020 Service Pack 5, IFC Export Version: 4.0.0.0 Dec  7 2020','');
FILE_SCHEMA(('IFC2X3'));
ENDSEC;

DATA;
#1= IFCPERSON('GIOVANNIPC\\gcorrea','Undefined',$,$,$,$,$,$);
#2= IFCORGANIZATION($,'Trimble Solutions Corporation',$,$,$);
#3= IFCPERSONANDORGANIZATION(#1,#2,$);
#4= IFCAPPLICATION(#2,'2020 Service Pack 5','Tekla Structures','Multi material modeling');
#5= IFCOWNERHISTORY(#3,#4,$,.NOCHANGE.,$,$,$,1778950379);
#6= IFCCARTESIANPOINT((0.,0.,0.));
#7= IFCDIRECTION((1.,0.,0.));
#8= IFCDIRECTION((0.,1.,0.));
#9= IFCDIRECTION((0.,0.,1.));
#10= IFCAXIS2PLACEMENT3D(#6,#9,#7);
#11= IFCGEOMETRICREPRESENTATIONCONTEXT($,'Model',3,1.E-05,#10,$);
#12= IFCGEOMETRICREPRESENTATIONSUBCONTEXT('Body','Model',*,*,*,*,#11,$,.MODEL_VIEW.,$);
#13= IFCGEOMETRICREPRESENTATIONSUBCONTEXT('Axis','Model',*,*,*,*,#11,$,.GRAPH_VIEW.,$);
#14= IFCGEOMETRICREPRESENTATIONSUBCONTEXT('FootPrint','Model',*,*,*,*,#11,$,.MODEL_VIEW.,$);
#15= IFCSIUNIT(*,.LENGTHUNIT.,.MILLI.,.METRE.);
#16= IFCMEASUREWITHUNIT(IFCRATIOMEASURE(304.8),#15);
#17= IFCDIMENSIONALEXPONENTS(1,0,0,0,0,0,0);
#18= IFCCONVERSIONBASEDUNIT(#17,.LENGTHUNIT.,'FOOT',#16);
#19= IFCSIUNIT(*,.AREAUNIT.,$,.SQUARE_METRE.);
#20= IFCMEASUREWITHUNIT(IFCRATIOMEASURE(0.09290304),#19);
#21= IFCDIMENSIONALEXPONENTS(2,0,0,0,0,0,0);
#22= IFCCONVERSIONBASEDUNIT(#21,.AREAUNIT.,'SQUARE FOOT',#20);
#23= IFCSIUNIT(*,.VOLUMEUNIT.,$,.CUBIC_METRE.);
#24= IFCMEASUREWITHUNIT(IFCRATIOMEASURE(0.028316846592),#23);
#25= IFCDIMENSIONALEXPONENTS(3,0,0,0,0,0,0);
#26= IFCCONVERSIONBASEDUNIT(#25,.VOLUMEUNIT.,'CUBIC FOOT',#24);
#27= IFCSIUNIT(*,.MASSUNIT.,.KILO.,.GRAM.);
#28= IFCSIUNIT(*,.TIMEUNIT.,$,.SECOND.);
#29= IFCSIUNIT(*,.PLANEANGLEUNIT.,$,.RADIAN.);
#30= IFCMEASUREWITHUNIT(IFCRATIOMEASURE(0.0174532925199433),#29);
#31= IFCDIMENSIONALEXPONENTS(0,0,0,0,0,0,0);
#32= IFCCONVERSIONBASEDUNIT(#31,.PLANEANGLEUNIT.,'DEGREE',#30);
#33= IFCSIUNIT(*,.SOLIDANGLEUNIT.,$,.STERADIAN.);
#34= IFCSIUNIT(*,.THERMODYNAMICTEMPERATUREUNIT.,$,.DEGREE_CELSIUS.);
#35= IFCSIUNIT(*,.LUMINOUSINTENSITYUNIT.,$,.LUMEN.);
#36= IFCUNITASSIGNMENT((#15,#19,#23,#27,#28,#29,#33,#34,#35));
#37= IFCPROJECT('2G7ZFDNE16yBDU14FA92Me',#5,'Proyecto',$,$,$,$,(#11),#36);
#38= IFCLOCALPLACEMENT($,#10);
#39= IFCSITE('2xvEzEinjBTea80yOTcujY',#5,'Obra',$,$,#38,$,$,.ELEMENT.,$,$,$,$,$);
#40= IFCLOCALPLACEMENT(#38,#10);
#41= IFCBUILDING('1VovS4dbDCiBo1IxiCjeDv',#5,'Undefined',$,$,#40,$,$,.ELEMENT.,$,$,$);
#42= IFCLOCALPLACEMENT(#40,#10);
#43= IFCBUILDINGSTOREY('29hdEUCErFze9E_VIAceOd',#5,'Undefined',$,$,#42,$,$,.ELEMENT.,0.);
#44= IFCOWNERHISTORY(#3,#4,$,.NOCHANGE.,$,$,$,1775592000);
#45= IFCCARTESIANPOINT((93722.3851899033,23897.0366182821,13675.));
#46= IFCAXIS2PLACEMENT3D(#45,#9,#7);
#47= IFCLOCALPLACEMENT(#42,#46);
#48= IFCDIRECTION((1.,0.));
#49= IFCCARTESIANPOINT((0.,0.));
#50= IFCAXIS2PLACEMENT2D(#49,#48);
#51= IFCISHAPEPROFILEDEF(.AREA.,'IPE450',#50,190.,450.,9.399999619,14.60000038,21.);
#52= IFCDIRECTION((0.,-1.,0.));
#53= IFCDIRECTION((-1.,0.,0.));
#54= IFCCARTESIANPOINT((826.155395507813,0.,0.));
#55= IFCAXIS2PLACEMENT3D(#54,#53,#52);
#56= IFCEXTRUDEDAREASOLID(#51,#55,#9,825.54);
#57= IFCCARTESIANPOINT((0.614810096725705,-1.37255493368139,-325.));
#58= IFCAXIS2PLACEMENT3D(#57,#7,#52);
#59= IFCPLANE(#58);
#60= IFCHALFSPACESOLID(#59,.T.);
#61= IFCBOOLEANCLIPPINGRESULT(.DIFFERENCE.,#56,#60);
#62= IFCSHAPEREPRESENTATION(#12,'Body','Clipping',(#61));
#63= IFCPRODUCTDEFINITIONSHAPE($,$,(#62));
#64= IFCBEAM('0xSf8sU9T1qgkE86qb0yO6',#44,'BEAM','IPE450','IPE450',#47,#63,'ID3b729236-7897-41d2-ab8e-206d2503c606');
#65= IFCLOCALPLACEMENT(#42,#46);
#66= IFCRECTANGLEPROFILEDEF(.AREA.,'PL108*12',#50,12.,108.);
#67= IFCDIRECTION((0.,0.,-1.));
#68= IFCCARTESIANPOINT((-15.3851899032743,40.6274450663186,226.));
#69= IFCAXIS2PLACEMENT3D(#68,#67,#7);
#70= IFCEXTRUDEDAREASOLID(#66,#69,#9,452.);
#71= IFCSHAPEREPRESENTATION(#12,'Body','SweptSolid',(#70));
#72= IFCPRODUCTDEFINITIONSHAPE($,$,(#71));
#73= IFCOPENINGELEMENT('29YfFdj3H3PeEewOZUhSYg',#5,$,$,'Recess',#65,#72,$);
#74= IFCRELVOIDSELEMENT('2jUI8QS$P6QOR99JR9PZ9N',#5,$,$,#64,#73);
#75= IFCPROPERTYSINGLEVALUE('FeatureSubTypes',$,$,$);
#76= IFCPROPERTYSINGLEVALUE('RectangleOpeningWidth',$,IFCPOSITIVELENGTHMEASURE(12.),$);
#77= IFCPROPERTYSINGLEVALUE('RectangleOpeningHeight',$,IFCPOSITIVELENGTHMEASURE(108.),$);
#78= IFCPROPERTYSINGLEVALUE('OpeningDiameter',$,$,$);
#79= IFCPROPERTYSET('2y9lvUZErBqwmKAg8kenrz',#5,'AISC_EM11_Pset_Opening/Cope',$,(#75,#76,#77,#78));
#80= IFCLOCALPLACEMENT(#42,#46);
#81= IFCCARTESIANPOINT((-15.3851899032743,-43.3725549336814,226.));
#82= IFCAXIS2PLACEMENT3D(#81,#67,#7);
#83= IFCEXTRUDEDAREASOLID(#66,#82,#9,452.);
#84= IFCSHAPEREPRESENTATION(#12,'Body','SweptSolid',(#83));
#85= IFCPRODUCTDEFINITIONSHAPE($,$,(#84));
#86= IFCOPENINGELEMENT('3xAdkRqV57RwUXFgu1H1mS',#5,$,$,'Recess',#80,#85,$);
#87= IFCRELVOIDSELEMENT('2MEEW2bAL6fu0GT91qSDwf',#5,$,$,#64,#86);
#88= IFCCARTESIANPOINT((93762.964924975,23895.9711581974,13450.));
#89= IFCDIRECTION((0.000467666999829816,-0.999999890643783,0.));
#90= IFCDIRECTION((0.999999890643783,0.000467666999835253,0.));
#91= IFCAXIS2PLACEMENT3D(#88,#89,#90);
#92= IFCLOCALPLACEMENT(#42,#91);
#93= IFCCIRCLEPROFILEDEF(.AREA.,$,#50,11.5);
#94= IFCCARTESIANPOINT((0.,-0.0999999999999929,0.));
#95= IFCAXIS2PLACEMENT3D(#94,#8,#7);
#96= IFCEXTRUDEDAREASOLID(#93,#95,#9,14.8);
#97= IFCSHAPEREPRESENTATION(#12,'Body','SweptSolid',(#96));
#98= IFCREPRESENTATIONMAP(#10,#97);
#99= IFCCARTESIANPOINT((3.49245965480804E-10,0.,-49.9999999998581));
#100= IFCCARTESIANTRANSFORMATIONOPERATOR3D($,$,#99,$,$);
#101= IFCMAPPEDITEM(#98,#100);
#102= IFCCARTESIANPOINT((70.0000000001455,0.,-49.9999999988395));
#103= IFCCARTESIANTRANSFORMATIONOPERATOR3D($,$,#102,$,$);
#104= IFCMAPPEDITEM(#98,#103);
#105= IFCCARTESIANPOINT((139.999999999956,0.,-49.9999999978209));
#106= IFCCARTESIANTRANSFORMATIONOPERATOR3D($,$,#105,$,$);
#107= IFCMAPPEDITEM(#98,#106);
#108= IFCCARTESIANPOINT((209.999999999753,0.,-49.9999999968022));
#109= IFCCARTESIANTRANSFORMATIONOPERATOR3D($,$,#108,$,$);
#110= IFCMAPPEDITEM(#98,#109);
#111= IFCCARTESIANPOINT((279.999999999563,0.,-49.9999999957836));
#112= IFCCARTESIANTRANSFORMATIONOPERATOR3D($,$,#111,$,$);
#113= IFCMAPPEDITEM(#98,#112);
#114= IFCCARTESIANPOINT((349.99999999936,0.,-49.9999999947649));
#115= IFCCARTESIANTRANSFORMATIONOPERATOR3D($,$,#114,$,$);
#116= IFCMAPPEDITEM(#98,#115);
#117= IFCCARTESIANPOINT((419.999999999171,0.,-49.9999999937463));
#118= IFCCARTESIANTRANSFORMATIONOPERATOR3D($,$,#117,$,$);
#119= IFCMAPPEDITEM(#98,#118);
#120= IFCCARTESIANPOINT((-3.63797880709171E-10,0.,49.9999999998581));
#121= IFCCARTESIANTRANSFORMATIONOPERATOR3D($,$,#120,$,$);
#122= IFCMAPPEDITEM(#98,#121);
#123= IFCCARTESIANPOINT((69.9999999994325,0.,50.0000000008768));
#124= IFCCARTESIANTRANSFORMATIONOPERATOR3D($,$,#123,$,$);
#125= IFCMAPPEDITEM(#98,#124);
#126= IFCCARTESIANPOINT((139.999999999229,0.,50.0000000018917));
#127= IFCCARTESIANTRANSFORMATIONOPERATOR3D($,$,#126,$,$);
#128= IFCMAPPEDITEM(#98,#127);
#129= IFCCARTESIANPOINT((209.999999999025,0.,50.0000000029104));
#130= IFCCARTESIANTRANSFORMATIONOPERATOR3D($,$,#129,$,$);
#131= IFCMAPPEDITEM(#98,#130);
#132= IFCCARTESIANPOINT((279.999999998836,0.,50.000000003929));
#133= IFCCARTESIANTRANSFORMATIONOPERATOR3D($,$,#132,$,$);
#134= IFCMAPPEDITEM(#98,#133);
#135= IFCCARTESIANPOINT((349.999999998632,0.,50.0000000049513));
#136= IFCCARTESIANTRANSFORMATIONOPERATOR3D($,$,#135,$,$);
#137= IFCMAPPEDITEM(#98,#136);
#138= IFCCARTESIANPOINT((419.999999998428,0.,50.0000000059699));
#139= IFCCARTESIANTRANSFORMATIONOPERATOR3D($,$,#138,$,$);
#140= IFCMAPPEDITEM(#98,#139);
#141= IFCSHAPEREPRESENTATION(#12,'Body','MappedRepresentation',(#101,#104,#107,#110,#113,#116,#119,#122,#125,#128,#131,#134,#137,#140));
#142= IFCPRODUCTDEFINITIONSHAPE($,$,(#141));
#143= IFCOPENINGELEMENT('13omb6jJLF2gOO4KCXKuCU',#5,$,$,'Opening',#92,#142,$);
#144= IFCRELVOIDSELEMENT('0UV4Dh0zvA19SGT0mv0N3s',#5,'Drill Hole',$,#64,#143);
#145= IFCPROPERTYSINGLEVALUE('FeatureSubTypes',$,IFCLABEL('TORNILLO'),$);
#146= IFCPROPERTYSINGLEVALUE('RectangleOpeningWidth',$,$,$);
#147= IFCPROPERTYSINGLEVALUE('RectangleOpeningHeight',$,$,$);
#148= IFCPROPERTYSET('3nAHN50v9FjwE4j4MveDAP',#5,'AISC_EM11_Pset_Opening/Cope',$,(#145,#146,#147,#78));
#149= IFCCARTESIANPOINT((93723.,23895.6640633484,13900.));
#150= IFCAXIS2PLACEMENT3D(#149,#7,#67);
#151= IFCLOCALPLACEMENT(#42,#150);
#152= IFCCARTESIANPOINT((0.,-3.42744487582022,0.));
#153= IFCAXIS2PLACEMENT3D(#152,#8,#7);
#154= IFCEXTRUDEDAREASOLID(#93,#153,#9,9.6);
#155= IFCSHAPEREPRESENTATION(#12,'Body','SweptSolid',(#154));
#156= IFCREPRESENTATIONMAP(#10,#155);
#157= IFCCARTESIANPOINT((85.,0.,40.));
#158= IFCCARTESIANTRANSFORMATIONOPERATOR3D($,$,#157,$,$);
#159= IFCMAPPEDITEM(#156,#158);
#160= IFCCARTESIANPOINT((155.,0.,40.));
#161= IFCCARTESIANTRANSFORMATIONOPERATOR3D($,$,#160,$,$);
#162= IFCMAPPEDITEM(#156,#161);
#163= IFCCARTESIANPOINT((225.,0.,40.));
#164= IFCCARTESIANTRANSFORMATIONOPERATOR3D($,$,#163,$,$);
#165= IFCMAPPEDITEM(#156,#164);
#166= IFCCARTESIANPOINT((295.,0.,40.));
#167= IFCCARTESIANTRANSFORMATIONOPERATOR3D($,$,#166,$,$);
#168= IFCMAPPEDITEM(#156,#167);
#169= IFCCARTESIANPOINT((365.,0.,40.));
#170= IFCCARTESIANTRANSFORMATIONOPERATOR3D($,$,#169,$,$);
#171= IFCMAPPEDITEM(#156,#170);
#172= IFCSHAPEREPRESENTATION(#12,'Body','MappedRepresentation',(#159,#162,#165,#168,#171));
#173= IFCPRODUCTDEFINITIONSHAPE($,$,(#172));
#174= IFCOPENINGELEMENT('1TVAM$0xz1o9d7i$f1uA7_',#5,$,$,'Opening',#151,#173,$);
#175= IFCRELVOIDSELEMENT('1ruollMWn1WuOKsL_C1Az8',#5,'Drill Hole',$,#64,#174);
#176= IFCCARTESIANPOINT((93762.964924975,23895.9711581974,13900.));
#177= IFCDIRECTION((-0.000467666999829816,0.999999890643783,0.));
#178= IFCAXIS2PLACEMENT3D(#176,#177,#90);
#179= IFCLOCALPLACEMENT(#42,#178);
#180= IFCSHAPEREPRESENTATION(#12,'Body','MappedRepresentation',(#101,#104,#107,#110,#113,#116,#119,#122,#125,#128,#131,#134,#137,#140));
#181= IFCPRODUCTDEFINITIONSHAPE($,$,(#180));
#182= IFCOPENINGELEMENT('3uumYZGM57sh3aIWAQ4AUj',#5,$,$,'Opening',#179,#181,$);
#183= IFCRELVOIDSELEMENT('002b6b8HP9_vWBLgl$zbMF',#5,'Drill Hole',$,#64,#182);
#184= IFCPROPERTYSINGLEVALUE('PieceMark',$,IFCIDENTIFIER('BEAM'),$);
#185= IFCPROPERTYSINGLEVALUE('IndicationMark',$,IFCIDENTIFIER('b/840'),$);
#186= IFCPROPERTYSINGLEVALUE('PrelimMark',$,IFCIDENTIFIER(''),$);
#187= IFCPROPERTYSINGLEVALUE('MainPieceTag',$,IFCBOOLEAN(.F.),$);
#188= IFCPROPERTYSET('3CS33$QpfFZPGHLnzoRaRd',#5,'AISC_EM11_Pset_PieceIdentification','PieceIdentity',(#184,#185,#186,#187));
#189= IFCPROPERTYSINGLEVALUE('MaterialType',$,IFCIDENTIFIER('STEEL'),$);
#190= IFCPROPERTYSINGLEVALUE('MaterialGrade',$,IFCIDENTIFIER('S235JR'),$);
#191= IFCPROPERTYSET('3RsyXcLy5BNfv6lXwgkoBZ',#5,'AISC_EM11_Pset_Material',$,(#189,#190));
#192= IFCPROPERTYSINGLEVALUE('SkewedAngleY',$,IFCREAL(0.),$);
#193= IFCPROPERTYSINGLEVALUE('SkewedAngleX',$,IFCREAL(0.),$);
#194= IFCPROPERTYSET('1$vGjnRoz8nexpLyhjKKkC',#5,'AISC_EM11_Pset_SkewedEnd',$,(#192,#193));
#195= IFCPROPERTYSET('1G6FVZhOr1COA_lk01XZtV',#5,'AISC_EM11_Pset_SkewedEnd_2',$,(#192,#193));
#196= IFCMATERIAL('STEEL/S235JR');
#197= IFCRELAGGREGATES('30pOoYU_9DDQxZpKL01Oca',#5,$,$,#37,(#39));
#198= IFCRELAGGREGATES('2I5g4qmGRVViDr5cdIJgus',#5,$,$,#39,(#41));
#199= IFCRELAGGREGATES('0hupDzpEDD6xnafq6lVvm5',#5,$,$,#41,(#43));
#200= IFCRELCONTAINEDINSPATIALSTRUCTURE('0aYPustiX7Yu4Gt2HsdGfI',#5,$,$,(#64),#43);
#201= IFCRELDEFINESBYPROPERTIES('0MuM9xDzvFqgalP3BKDVD8',#5,$,$,(#86,#73),#79);
#202= IFCRELDEFINESBYPROPERTIES('383bAQMAj4LwgQz6Inb4NX',#5,$,$,(#182,#174,#143),#148);
#203= IFCRELDEFINESBYPROPERTIES('2GqP7DdaD6kw8jg805OcaV',#5,$,$,(#64),#188);
#204= IFCRELDEFINESBYPROPERTIES('3JGlOV67fE5AhKAzrbpvdG',#5,$,$,(#64),#191);
#205= IFCRELDEFINESBYPROPERTIES('0qbkFTE_P0Wf9Qu6$yCgUn',#5,$,$,(#64),#194);
#206= IFCRELDEFINESBYPROPERTIES('2kjzUi6PHCQQVBZ7gxbz1t',#5,$,$,(#64),#195);
#207= IFCRELASSOCIATESMATERIAL('1iuGNhgr5DDuJdgca4zkVj',#5,$,$,(#64),#196);
ENDSEC;

END-ISO-10303-21;
