ISO-10303-21;
HEADER;
FILE_DESCRIPTION(('ViewDefinition[AISC_Steel_Detailing]', 'Option [BaseQuantities:Off]', 'Option [GridExport:On]', 'Option [Assemblies:Off]', 'Option [Bolts:On]', 'Option [Rebars:On]', 'Option [PourObjects:Off]', 'Option [Welds:On]', 'Option [SurfaceTreatments:On]', 'Option [LocationBy:0]', 'Option [ViewColors:Off]', 'Option [SectionedSpine:Off]', 'Option [PropertySets:On]', 'Option [Export all:Off]'),'2;1');
FILE_NAME('b_871_Qty_1.ifc','2026-05-16T11:52:58',('GIOVANNIPC\\gcorrea'),('Structural Designer'),'IFC Database version: Work','Tekla Structures 2020 Service Pack 5, IFC Export Version: 4.0.0.0 Dec  7 2020','');
FILE_SCHEMA(('IFC2X3'));
ENDSEC;

DATA;
#1= IFCPERSON('GIOVANNIPC\\gcorrea','Undefined',$,$,$,$,$,$);
#2= IFCORGANIZATION($,'Trimble Solutions Corporation',$,$,$);
#3= IFCPERSONANDORGANIZATION(#1,#2,$);
#4= IFCAPPLICATION(#2,'2020 Service Pack 5','Tekla Structures','Multi material modeling');
#5= IFCOWNERHISTORY(#3,#4,$,.NOCHANGE.,$,$,$,1778950378);
#6= IFCCARTESIANPOINT((0.,0.,0.));
#7= IFCDIRECTION((1.,0.,0.));
#8= IFCDIRECTION((0.,1.,0.));
#9= IFCDIRECTION((0.,0.,1.));
#10= IFCAXIS2PLACEMENT3D(#6,#9,#7);
#11= IFCGEOMETRICREPRESENTATIONCONTEXT($,'Model',3,1.E-05,#10,$);
#12= IFCGEOMETRICREPRESENTATIONSUBCONTEXT('Body','Model',*,*,*,*,#11,$,.MODEL_VIEW.,$);
#13= IFCGEOMETRICREPRESENTATIONSUBCONTEXT('Axis','Model',*,*,*,*,#11,$,.GRAPH_VIEW.,$);
#14= IFCGEOMETRICREPRESENTATIONSUBCONTEXT('FootPrint','Model',*,*,*,*,#11,$,.MODEL_VIEW.,$);
#15= IFCSIUNIT(*,.LENGTHUNIT.,.MILLI.,.METRE.);
#16= IFCMEASUREWITHUNIT(IFCRATIOMEASURE(304.8),#15);
#17= IFCDIMENSIONALEXPONENTS(1,0,0,0,0,0,0);
#18= IFCCONVERSIONBASEDUNIT(#17,.LENGTHUNIT.,'FOOT',#16);
#19= IFCSIUNIT(*,.AREAUNIT.,$,.SQUARE_METRE.);
#20= IFCMEASUREWITHUNIT(IFCRATIOMEASURE(0.09290304),#19);
#21= IFCDIMENSIONALEXPONENTS(2,0,0,0,0,0,0);
#22= IFCCONVERSIONBASEDUNIT(#21,.AREAUNIT.,'SQUARE FOOT',#20);
#23= IFCSIUNIT(*,.VOLUMEUNIT.,$,.CUBIC_METRE.);
#24= IFCMEASUREWITHUNIT(IFCRATIOMEASURE(0.028316846592),#23);
#25= IFCDIMENSIONALEXPONENTS(3,0,0,0,0,0,0);
#26= IFCCONVERSIONBASEDUNIT(#25,.VOLUMEUNIT.,'CUBIC FOOT',#24);
#27= IFCSIUNIT(*,.MASSUNIT.,.KILO.,.GRAM.);
#28= IFCSIUNIT(*,.TIMEUNIT.,$,.SECOND.);
#29= IFCSIUNIT(*,.PLANEANGLEUNIT.,$,.RADIAN.);
#30= IFCMEASUREWITHUNIT(IFCRATIOMEASURE(0.0174532925199433),#29);
#31= IFCDIMENSIONALEXPONENTS(0,0,0,0,0,0,0);
#32= IFCCONVERSIONBASEDUNIT(#31,.PLANEANGLEUNIT.,'DEGREE',#30);
#33= IFCSIUNIT(*,.SOLIDANGLEUNIT.,$,.STERADIAN.);
#34= IFCSIUNIT(*,.THERMODYNAMICTEMPERATUREUNIT.,$,.DEGREE_CELSIUS.);
#35= IFCSIUNIT(*,.LUMINOUSINTENSITYUNIT.,$,.LUMEN.);
#36= IFCUNITASSIGNMENT((#15,#19,#23,#27,#28,#29,#33,#34,#35));
#37= IFCPROJECT('2G7ZFDNE16yBDU14FA92Me',#5,'Proyecto',$,$,$,$,(#11),#36);
#38= IFCLOCALPLACEMENT($,#10);
#39= IFCSITE('2xvEzEinjBTea80yOTcujY',#5,'Obra',$,$,#38,$,$,.ELEMENT.,$,$,$,$,$);
#40= IFCLOCALPLACEMENT(#38,#10);
#41= IFCBUILDING('2cNFN70Sf0PvN83OZs4jqH',#5,'Undefined',$,$,#40,$,$,.ELEMENT.,$,$,$);
#42= IFCLOCALPLACEMENT(#40,#10);
#43= IFCBUILDINGSTOREY('29hdEUCErFze9E_VIAceOd',#5,'Undefined',$,$,#42,$,$,.ELEMENT.,0.);
#44= IFCOWNERHISTORY(#3,#4,$,.NOCHANGE.,$,$,$,1775667600);
#45= IFCCARTESIANPOINT((76999.9923705,17380.1324005127,13680.));
#46= IFCAXIS2PLACEMENT3D(#45,#9,#7);
#47= IFCLOCALPLACEMENT(#42,#46);
#48= IFCDIRECTION((1.,0.));
#49= IFCCARTESIANPOINT((0.,0.));
#50= IFCAXIS2PLACEMENT2D(#49,#48);
#51= IFCISHAPEPROFILEDEF(.AREA.,'HEA450',#50,300.,440.,11.5,21.,27.);
#52= IFCDIRECTION((0.,-1.,0.));
#53= IFCDIRECTION((-1.,0.,0.));
#54= IFCCARTESIANPOINT((4586.99245328539,0.,0.));
#55= IFCAXIS2PLACEMENT3D(#54,#53,#52);
#56= IFCEXTRUDEDAREASOLID(#51,#55,#9,4567.99);
#57= IFCCARTESIANPOINT((4586.99245328539,0.,-320.));
#58= IFCAXIS2PLACEMENT3D(#57,#53,#8);
#59= IFCPLANE(#58);
#60= IFCHALFSPACESOLID(#59,.T.);
#61= IFCBOOLEANCLIPPINGRESULT(.DIFFERENCE.,#56,#60);
#62= IFCCARTESIANPOINT((19.,0.,-1000.));
#63= IFCAXIS2PLACEMENT3D(#62,#7,#52);
#64= IFCPLANE(#63);
#65= IFCHALFSPACESOLID(#64,.T.);
#66= IFCBOOLEANCLIPPINGRESULT(.DIFFERENCE.,#61,#65);
#67= IFCSHAPEREPRESENTATION(#12,'Body','Clipping',(#66));
#68= IFCPRODUCTDEFINITIONSHAPE($,$,(#67));
#69= IFCBEAM('3YjiK_k4b1iP59dRVvA29p',#44,'BEAM','HEA450','HEA450',#47,#68,'IDe2b6c53e-b849-41b1-9149-9db7f9282273');
#70= IFCLOCALPLACEMENT(#42,#46);
#71= IFCRECTANGLEPROFILEDEF(.AREA.,'PL163.3*12',#50,12.,163.3);
#72= IFCDIRECTION((0.,0.,-1.));
#73= IFCCARTESIANPOINT((4592.98047814121,-69.3631234756613,221.));
#74= IFCAXIS2PLACEMENT3D(#73,#72,#53);
#75= IFCEXTRUDEDAREASOLID(#71,#74,#9,442.);
#76= IFCSHAPEREPRESENTATION(#12,'Body','SweptSolid',(#75));
#77= IFCPRODUCTDEFINITIONSHAPE($,$,(#76));
#78= IFCOPENINGELEMENT('1rmg5VHUz7TheMkbQWW8Rw',#5,$,$,'Recess',#70,#77,$);
#79= IFCRELVOIDSELEMENT('2fTwC9dT59VRnMrLlx8tF7',#5,$,$,#69,#78);
#80= IFCPROPERTYSINGLEVALUE('FeatureSubTypes',$,$,$);
#81= IFCPROPERTYSINGLEVALUE('RectangleOpeningWidth',$,IFCPOSITIVELENGTHMEASURE(12.),$);
#82= IFCPROPERTYSINGLEVALUE('RectangleOpeningHeight',$,IFCPOSITIVELENGTHMEASURE(163.3),$);
#83= IFCPROPERTYSINGLEVALUE('OpeningDiameter',$,$,$);
#84= IFCPROPERTYSET('2MbpzC_SH9uhRoosnoF7HO',#5,'AISC_EM11_Pset_Opening/Cope',$,(#80,#81,#82,#83));
#85= IFCLOCALPLACEMENT(#42,#46);
#86= IFCRECTANGLEPROFILEDEF(.AREA.,'PL162.7*12',#50,12.,162.7);
#87= IFCCARTESIANPOINT((4592.98047814121,69.6368765243387,221.));
#88= IFCAXIS2PLACEMENT3D(#87,#72,#53);
#89= IFCEXTRUDEDAREASOLID(#86,#88,#9,442.);
#90= IFCSHAPEREPRESENTATION(#12,'Body','SweptSolid',(#89));
#91= IFCPRODUCTDEFINITIONSHAPE($,$,(#90));
#92= IFCOPENINGELEMENT('044pqhz2jBPAxQNDJpDuUC',#5,$,$,'Recess',#85,#91,$);
#93= IFCRELVOIDSELEMENT('3OTn96j2D6exU8UqAPW3LA',#5,$,$,#69,#92);
#94= IFCPROPERTYSINGLEVALUE('RectangleOpeningHeight',$,IFCPOSITIVELENGTHMEASURE(162.7),$);
#95= IFCPROPERTYSET('0Goh0ax252huTUN2BTcTq$',#5,'AISC_EM11_Pset_Opening/Cope',$,(#80,#81,#94,#83));
#96= IFCCARTESIANPOINT((81586.9848237854,17380.1324005127,13900.));
#97= IFCAXIS2PLACEMENT3D(#96,#53,#72);
#98= IFCLOCALPLACEMENT(#42,#97);
#99= IFCCIRCLEPROFILEDEF(.AREA.,$,#50,11.5);
#100= IFCCARTESIANPOINT((0.,-5.85,0.));
#101= IFCAXIS2PLACEMENT3D(#100,#8,#7);
#102= IFCEXTRUDEDAREASOLID(#99,#101,#9,11.7);
#103= IFCSHAPEREPRESENTATION(#12,'Body','SweptSolid',(#102));
#104= IFCREPRESENTATIONMAP(#10,#103);
#105= IFCCARTESIANPOINT((80.,0.,50.));
#106= IFCCARTESIANTRANSFORMATIONOPERATOR3D($,$,#105,$,$);
#107= IFCMAPPEDITEM(#104,#106);
#108= IFCCARTESIANPOINT((150.,0.,50.));
#109= IFCCARTESIANTRANSFORMATIONOPERATOR3D($,$,#108,$,$);
#110= IFCMAPPEDITEM(#104,#109);
#111= IFCCARTESIANPOINT((220.,0.,50.));
#112= IFCCARTESIANTRANSFORMATIONOPERATOR3D($,$,#111,$,$);
#113= IFCMAPPEDITEM(#104,#112);
#114= IFCCARTESIANPOINT((290.,0.,50.));
#115= IFCCARTESIANTRANSFORMATIONOPERATOR3D($,$,#114,$,$);
#116= IFCMAPPEDITEM(#104,#115);
#117= IFCCARTESIANPOINT((360.,0.,50.));
#118= IFCCARTESIANTRANSFORMATIONOPERATOR3D($,$,#117,$,$);
#119= IFCMAPPEDITEM(#104,#118);
#120= IFCSHAPEREPRESENTATION(#12,'Body','MappedRepresentation',(#107,#110,#113,#116,#119));
#121= IFCPRODUCTDEFINITIONSHAPE($,$,(#120));
#122= IFCOPENINGELEMENT('1KPz3hfJL48OH2MiWKMDCj',#5,$,$,'Opening',#98,#121,$);
#123= IFCRELVOIDSELEMENT('2lyK__Tof9Tfk1ELzST6$V',#5,'Drill Hole',$,#69,#122);
#124= IFCPROPERTYSINGLEVALUE('FeatureSubTypes',$,IFCLABEL('TORNILLO'),$);
#125= IFCPROPERTYSINGLEVALUE('RectangleOpeningWidth',$,$,$);
#126= IFCPROPERTYSINGLEVALUE('RectangleOpeningHeight',$,$,$);
#127= IFCPROPERTYSET('0PKLpdB6j9sQYEm91y2hp9',#5,'AISC_EM11_Pset_Opening/Cope',$,(#124,#125,#126,#83));
#128= IFCCARTESIANPOINT((81531.960873497,17380.1324005127,13450.));
#129= IFCDIRECTION((0.000754986999992981,0.999999714997274,0.));
#130= IFCDIRECTION((-0.999999714997274,0.000754986999996285,0.));
#131= IFCAXIS2PLACEMENT3D(#128,#129,#130);
#132= IFCLOCALPLACEMENT(#42,#131);
#133= IFCCARTESIANPOINT((0.,9.9,0.));
#134= IFCAXIS2PLACEMENT3D(#133,#8,#7);
#135= IFCEXTRUDEDAREASOLID(#99,#134,#9,21.2);
#136= IFCSHAPEREPRESENTATION(#12,'Body','SweptSolid',(#135));
#137= IFCREPRESENTATIONMAP(#10,#136);
#138= IFCCARTESIANPOINT((5.38420863449574E-10,0.,74.9999999999709));
#139= IFCCARTESIANTRANSFORMATIONOPERATOR3D($,$,#138,$,$);
#140= IFCMAPPEDITEM(#137,#139);
#141= IFCCARTESIANPOINT((75.0000000010477,0.,74.9999999988795));
#142= IFCCARTESIANTRANSFORMATIONOPERATOR3D($,$,#141,$,$);
#143= IFCMAPPEDITEM(#137,#142);
#144= IFCCARTESIANPOINT((150.000000001586,0.,74.9999999977881));
#145= IFCCARTESIANTRANSFORMATIONOPERATOR3D($,$,#144,$,$);
#146= IFCMAPPEDITEM(#137,#145);
#147= IFCCARTESIANPOINT((225.000000002095,0.,74.9999999966967));
#148= IFCCARTESIANTRANSFORMATIONOPERATOR3D($,$,#147,$,$);
#149= IFCMAPPEDITEM(#137,#148);
#150= IFCCARTESIANPOINT((300.000000002605,0.,74.9999999956053));
#151= IFCCARTESIANTRANSFORMATIONOPERATOR3D($,$,#150,$,$);
#152= IFCMAPPEDITEM(#137,#151);
#153= IFCCARTESIANPOINT((375.000000003129,0.,74.9999999945139));
#154= IFCCARTESIANTRANSFORMATIONOPERATOR3D($,$,#153,$,$);
#155= IFCMAPPEDITEM(#137,#154);
#156= IFCCARTESIANPOINT((450.000000003653,0.,74.9999999934225));
#157= IFCCARTESIANTRANSFORMATIONOPERATOR3D($,$,#156,$,$);
#158= IFCMAPPEDITEM(#137,#157);
#159= IFCCARTESIANPOINT((525.000000004176,0.,74.9999999923311));
#160= IFCCARTESIANTRANSFORMATIONOPERATOR3D($,$,#159,$,$);
#161= IFCMAPPEDITEM(#137,#160);
#162= IFCCARTESIANPOINT((600.000000004686,0.,74.9999999912397));
#163= IFCCARTESIANTRANSFORMATIONOPERATOR3D($,$,#162,$,$);
#164= IFCMAPPEDITEM(#137,#163);
#165= IFCCARTESIANPOINT((675.00000000521,0.,74.9999999901484));
#166= IFCCARTESIANTRANSFORMATIONOPERATOR3D($,$,#165,$,$);
#167= IFCMAPPEDITEM(#137,#166);
#168= IFCCARTESIANPOINT((-5.5297277867794E-10,0.,-74.9999999999745));
#169= IFCCARTESIANTRANSFORMATIONOPERATOR3D($,$,#168,$,$);
#170= IFCMAPPEDITEM(#137,#169);
#171= IFCCARTESIANPOINT((74.9999999999563,0.,-75.0000000010659));
#172= IFCCARTESIANTRANSFORMATIONOPERATOR3D($,$,#171,$,$);
#173= IFCMAPPEDITEM(#137,#172);
#174= IFCCARTESIANPOINT((150.000000000495,0.,-75.0000000021573));
#175= IFCCARTESIANTRANSFORMATIONOPERATOR3D($,$,#174,$,$);
#176= IFCMAPPEDITEM(#137,#175);
#177= IFCCARTESIANPOINT((225.000000001004,0.,-75.0000000032487));
#178= IFCCARTESIANTRANSFORMATIONOPERATOR3D($,$,#177,$,$);
#179= IFCMAPPEDITEM(#137,#178);
#180= IFCCARTESIANPOINT((300.000000001513,0.,-75.0000000043401));
#181= IFCCARTESIANTRANSFORMATIONOPERATOR3D($,$,#180,$,$);
#182= IFCMAPPEDITEM(#137,#181);
#183= IFCCARTESIANPOINT((375.000000002037,0.,-75.0000000054315));
#184= IFCCARTESIANTRANSFORMATIONOPERATOR3D($,$,#183,$,$);
#185= IFCMAPPEDITEM(#137,#184);
#186= IFCCARTESIANPOINT((450.000000002561,0.,-75.0000000065229));
#187= IFCCARTESIANTRANSFORMATIONOPERATOR3D($,$,#186,$,$);
#188= IFCMAPPEDITEM(#137,#187);
#189= IFCCARTESIANPOINT((525.000000003085,0.,-75.0000000076143));
#190= IFCCARTESIANTRANSFORMATIONOPERATOR3D($,$,#189,$,$);
#191= IFCMAPPEDITEM(#137,#190);
#192= IFCCARTESIANPOINT((600.000000003594,0.,-75.0000000087093));
#193= IFCCARTESIANTRANSFORMATIONOPERATOR3D($,$,#192,$,$);
#194= IFCMAPPEDITEM(#137,#193);
#195= IFCCARTESIANPOINT((675.000000004118,0.,-75.0000000098007));
#196= IFCCARTESIANTRANSFORMATIONOPERATOR3D($,$,#195,$,$);
#197= IFCMAPPEDITEM(#137,#196);
#198= IFCSHAPEREPRESENTATION(#12,'Body','MappedRepresentation',(#140,#143,#146,#149,#152,#155,#158,#161,#164,#167,#170,#173,#176,#179,#182,#185,#188,#191,#194,#197));
#199= IFCPRODUCTDEFINITIONSHAPE($,$,(#198));
#200= IFCOPENINGELEMENT('3nIJAYOGn8JgsUKNHRV$YO',#5,$,$,'Opening',#132,#199,$);
#201= IFCRELVOIDSELEMENT('3jO0L$fTTA0PkVcJoJqXO6',#5,'Drill Hole',$,#69,#200);
#202= IFCCARTESIANPOINT((81531.960873497,17380.1324005127,13900.));
#203= IFCDIRECTION((-0.000754986999992979,-0.999999714997274,0.));
#204= IFCAXIS2PLACEMENT3D(#202,#203,#130);
#205= IFCLOCALPLACEMENT(#42,#204);
#206= IFCCARTESIANPOINT((0.,-0.1,0.));
#207= IFCAXIS2PLACEMENT3D(#206,#8,#7);
#208= IFCEXTRUDEDAREASOLID(#99,#207,#9,21.2);
#209= IFCSHAPEREPRESENTATION(#12,'Body','SweptSolid',(#208));
#210= IFCREPRESENTATIONMAP(#10,#209);
#211= IFCMAPPEDITEM(#210,#169);
#212= IFCMAPPEDITEM(#210,#172);
#213= IFCMAPPEDITEM(#210,#175);
#214= IFCMAPPEDITEM(#210,#178);
#215= IFCMAPPEDITEM(#210,#181);
#216= IFCMAPPEDITEM(#210,#184);
#217= IFCMAPPEDITEM(#210,#187);
#218= IFCMAPPEDITEM(#210,#190);
#219= IFCMAPPEDITEM(#210,#193);
#220= IFCMAPPEDITEM(#210,#196);
#221= IFCMAPPEDITEM(#210,#139);
#222= IFCMAPPEDITEM(#210,#142);
#223= IFCMAPPEDITEM(#210,#145);
#224= IFCMAPPEDITEM(#210,#148);
#225= IFCMAPPEDITEM(#210,#151);
#226= IFCMAPPEDITEM(#210,#154);
#227= IFCMAPPEDITEM(#210,#157);
#228= IFCMAPPEDITEM(#210,#160);
#229= IFCMAPPEDITEM(#210,#163);
#230= IFCMAPPEDITEM(#210,#166);
#231= IFCSHAPEREPRESENTATION(#12,'Body','MappedRepresentation',(#211,#212,#213,#214,#215,#216,#217,#218,#219,#220,#221,#222,#223,#224,#225,#226,#227,#228,#229,#230));
#232= IFCPRODUCTDEFINITIONSHAPE($,$,(#231));
#233= IFCOPENINGELEMENT('0jjkB34S1DQxIS8MFAIxn9',#5,$,$,'Opening',#205,#232,$);
#234= IFCRELVOIDSELEMENT('3prOKEfr9FPw5u4jWMuYQX',#5,'Drill Hole',$,#69,#233);
#235= IFCPROPERTYSINGLEVALUE('PieceMark',$,IFCIDENTIFIER('BEAM'),$);
#236= IFCPROPERTYSINGLEVALUE('IndicationMark',$,IFCIDENTIFIER('b/871'),$);
#237= IFCPROPERTYSINGLEVALUE('PrelimMark',$,IFCIDENTIFIER(''),$);
#238= IFCPROPERTYSINGLEVALUE('MainPieceTag',$,IFCBOOLEAN(.T.),$);
#239= IFCPROPERTYSET('2ojIT4nXXDmODS4a1PCMZO',#5,'AISC_EM11_Pset_PieceIdentification','PieceIdentity',(#235,#236,#237,#238));
#240= IFCPROPERTYSINGLEVALUE('MaterialType',$,IFCIDENTIFIER('STEEL'),$);
#241= IFCPROPERTYSINGLEVALUE('MaterialGrade',$,IFCIDENTIFIER('S235JR'),$);
#242= IFCPROPERTYSET('32SKAxX918oOuS2zVHdVgh',#5,'AISC_EM11_Pset_Material',$,(#240,#241));
#243= IFCPROPERTYSINGLEVALUE('SkewedAngleY',$,IFCREAL(0.),$);
#244= IFCPROPERTYSINGLEVALUE('SkewedAngleX',$,IFCREAL(0.),$);
#245= IFCPROPERTYSET('2h9gOaBnz8FvhIwyT3pskY',#5,'AISC_EM11_Pset_SkewedEnd',$,(#243,#244));
#246= IFCPROPERTYSET('15J35VsTrEaw2kzwQIejDC',#5,'AISC_EM11_Pset_SkewedEnd_2',$,(#243,#244));
#247= IFCMATERIAL('STEEL/S235JR');
#248= IFCRELAGGREGATES('1YMT_f9enCGBJOWE4MiA5I',#5,$,$,#37,(#39));
#249= IFCRELAGGREGATES('2qelGxRw3UYTbgoWMe_SNa',#5,$,$,#39,(#41));
#250= IFCRELAGGREGATES('1nOA5Szif2HBGm57QJ3eiE',#5,$,$,#41,(#43));
#251= IFCRELCONTAINEDINSPATIALSTRUCTURE('3eIBMY7OLBB8br8hVaN1OH',#5,$,$,(#69),#43);
#252= IFCRELDEFINESBYPROPERTIES('18Us0t5azE98hsIusj26hC',#5,$,$,(#78),#84);
#253= IFCRELDEFINESBYPROPERTIES('2zGED8A4H71PLX5sKfPvhW',#5,$,$,(#92),#95);
#254= IFCRELDEFINESBYPROPERTIES('3mH1yX4318bArzMGOCVMjJ',#5,$,$,(#233,#200,#122),#127);
#255= IFCRELDEFINESBYPROPERTIES('1gah5l$PD4OxX3Lpa8pKOT',#5,$,$,(#69),#239);
#256= IFCRELDEFINESBYPROPERTIES('3q1hps1Nj9Qx21$F2UvA2S',#5,$,$,(#69),#242);
#257= IFCRELDEFINESBYPROPERTIES('3VrowS$OvCF9n3Bla1thOF',#5,$,$,(#69),#245);
#258= IFCRELDEFINESBYPROPERTIES('3FYdTpkXD6ouP3OqPcJAb_',#5,$,$,(#69),#246);
#259= IFCRELASSOCIATESMATERIAL('0TNSvsEefBAO3p3ByvHOaU',#5,$,$,(#69),#247);
ENDSEC;

END-ISO-10303-21;
