ISO-10303-21;
HEADER;
FILE_DESCRIPTION(('ViewDefinition[AISC_Steel_Detailing]', 'Option [BaseQuantities:Off]', 'Option [GridExport:On]', 'Option [Assemblies:Off]', 'Option [Bolts:On]', 'Option [Rebars:On]', 'Option [PourObjects:Off]', 'Option [Welds:On]', 'Option [SurfaceTreatments:On]', 'Option [LocationBy:0]', 'Option [ViewColors:Off]', 'Option [SectionedSpine:Off]', 'Option [PropertySets:On]', 'Option [Export all:Off]'),'2;1');
FILE_NAME('b_875_Qty_1.ifc','2026-05-16T11:52:57',('GIOVANNIPC\\gcorrea'),('Structural Designer'),'IFC Database version: Work','Tekla Structures 2020 Service Pack 5, IFC Export Version: 4.0.0.0 Dec  7 2020','');
FILE_SCHEMA(('IFC2X3'));
ENDSEC;

DATA;
#1= IFCPERSON('GIOVANNIPC\\gcorrea','Undefined',$,$,$,$,$,$);
#2= IFCORGANIZATION($,'Trimble Solutions Corporation',$,$,$);
#3= IFCPERSONANDORGANIZATION(#1,#2,$);
#4= IFCAPPLICATION(#2,'2020 Service Pack 5','Tekla Structures','Multi material modeling');
#5= IFCOWNERHISTORY(#3,#4,$,.NOCHANGE.,$,$,$,1778950377);
#6= IFCCARTESIANPOINT((0.,0.,0.));
#7= IFCDIRECTION((1.,0.,0.));
#8= IFCDIRECTION((0.,1.,0.));
#9= IFCDIRECTION((0.,0.,1.));
#10= IFCAXIS2PLACEMENT3D(#6,#9,#7);
#11= IFCGEOMETRICREPRESENTATIONCONTEXT($,'Model',3,1.E-05,#10,$);
#12= IFCGEOMETRICREPRESENTATIONSUBCONTEXT('Body','Model',*,*,*,*,#11,$,.MODEL_VIEW.,$);
#13= IFCGEOMETRICREPRESENTATIONSUBCONTEXT('Axis','Model',*,*,*,*,#11,$,.GRAPH_VIEW.,$);
#14= IFCGEOMETRICREPRESENTATIONSUBCONTEXT('FootPrint','Model',*,*,*,*,#11,$,.MODEL_VIEW.,$);
#15= IFCSIUNIT(*,.LENGTHUNIT.,.MILLI.,.METRE.);
#16= IFCMEASUREWITHUNIT(IFCRATIOMEASURE(304.8),#15);
#17= IFCDIMENSIONALEXPONENTS(1,0,0,0,0,0,0);
#18= IFCCONVERSIONBASEDUNIT(#17,.LENGTHUNIT.,'FOOT',#16);
#19= IFCSIUNIT(*,.AREAUNIT.,$,.SQUARE_METRE.);
#20= IFCMEASUREWITHUNIT(IFCRATIOMEASURE(0.09290304),#19);
#21= IFCDIMENSIONALEXPONENTS(2,0,0,0,0,0,0);
#22= IFCCONVERSIONBASEDUNIT(#21,.AREAUNIT.,'SQUARE FOOT',#20);
#23= IFCSIUNIT(*,.VOLUMEUNIT.,$,.CUBIC_METRE.);
#24= IFCMEASUREWITHUNIT(IFCRATIOMEASURE(0.028316846592),#23);
#25= IFCDIMENSIONALEXPONENTS(3,0,0,0,0,0,0);
#26= IFCCONVERSIONBASEDUNIT(#25,.VOLUMEUNIT.,'CUBIC FOOT',#24);
#27= IFCSIUNIT(*,.MASSUNIT.,.KILO.,.GRAM.);
#28= IFCSIUNIT(*,.TIMEUNIT.,$,.SECOND.);
#29= IFCSIUNIT(*,.PLANEANGLEUNIT.,$,.RADIAN.);
#30= IFCMEASUREWITHUNIT(IFCRATIOMEASURE(0.0174532925199433),#29);
#31= IFCDIMENSIONALEXPONENTS(0,0,0,0,0,0,0);
#32= IFCCONVERSIONBASEDUNIT(#31,.PLANEANGLEUNIT.,'DEGREE',#30);
#33= IFCSIUNIT(*,.SOLIDANGLEUNIT.,$,.STERADIAN.);
#34= IFCSIUNIT(*,.THERMODYNAMICTEMPERATUREUNIT.,$,.DEGREE_CELSIUS.);
#35= IFCSIUNIT(*,.LUMINOUSINTENSITYUNIT.,$,.LUMEN.);
#36= IFCUNITASSIGNMENT((#15,#19,#23,#27,#28,#29,#33,#34,#35));
#37= IFCPROJECT('2G7ZFDNE16yBDU14FA92Me',#5,'Proyecto',$,$,$,$,(#11),#36);
#38= IFCLOCALPLACEMENT($,#10);
#39= IFCSITE('2xvEzEinjBTea80yOTcujY',#5,'Obra',$,$,#38,$,$,.ELEMENT.,$,$,$,$,$);
#40= IFCLOCALPLACEMENT(#38,#10);
#41= IFCBUILDING('1d0ozE$5D6kgFPVgx8CdxU',#5,'Undefined',$,$,#40,$,$,.ELEMENT.,$,$,$);
#42= IFCLOCALPLACEMENT(#40,#10);
#43= IFCBUILDINGSTOREY('29hdEUCErFze9E_VIAceOd',#5,'Undefined',$,$,#42,$,$,.ELEMENT.,0.);
#44= IFCOWNERHISTORY(#3,#4,$,.NOCHANGE.,$,$,$,1775667600);
#45= IFCCARTESIANPOINT((94452.8126537709,17540.2106461574,13675.));
#46= IFCDIRECTION((-3.3381000014815E-05,0.999999999442854,0.));
#47= IFCAXIS2PLACEMENT3D(#45,#9,#46);
#48= IFCLOCALPLACEMENT(#42,#47);
#49= IFCDIRECTION((1.,0.));
#50= IFCCARTESIANPOINT((0.,0.));
#51= IFCAXIS2PLACEMENT2D(#50,#49);
#52= IFCISHAPEPROFILEDEF(.AREA.,'IPE450',#51,190.,450.,9.399999619,14.60000038,21.);
#53= IFCDIRECTION((6.7762635780344E-21,-1.,0.));
#54= IFCDIRECTION((-1.,-6.7762635780344E-21,0.));
#55= IFCCARTESIANPOINT((6251.82597562756,4.23640206548544E-17,0.));
#56= IFCAXIS2PLACEMENT3D(#55,#54,#53);
#57= IFCEXTRUDEDAREASOLID(#52,#56,#9,6251.83);
#58= IFCSHAPEREPRESENTATION(#12,'Body','SweptSolid',(#57));
#59= IFCPRODUCTDEFINITIONSHAPE($,$,(#58));
#60= IFCBEAM('120B_zUWj9aOBSItvShfEg',#44,'BEAM','IPE450','IPE450',#48,#59,'ID4200bfbd-7a0b-4991-82dc-4b7e5cae93aa');
#61= IFCCARTESIANPOINT((94453.5411620254,23752.0143033452,13450.));
#62= IFCDIRECTION((-0.999999999999363,1.12900000749505E-06,0.));
#63= IFCDIRECTION((-1.12900000859709E-06,-0.999999999999363,0.));
#64= IFCAXIS2PLACEMENT3D(#61,#62,#63);
#65= IFCLOCALPLACEMENT(#42,#64);
#66= IFCCIRCLEPROFILEDEF(.AREA.,$,#51,11.);
#67= IFCCARTESIANPOINT((0.,-0.0999999999999929,0.));
#68= IFCAXIS2PLACEMENT3D(#67,#8,#7);
#69= IFCEXTRUDEDAREASOLID(#66,#68,#9,14.8);
#70= IFCSHAPEREPRESENTATION(#12,'Body','SweptSolid',(#69));
#71= IFCREPRESENTATIONMAP(#10,#70);
#72= IFCCARTESIANPOINT((0.,0.,-50.0000000000728));
#73= IFCCARTESIANTRANSFORMATIONOPERATOR3D($,$,#72,$,$);
#74= IFCMAPPEDITEM(#71,#73);
#75= IFCCARTESIANPOINT((70.0000000000873,0.,-50.0000000003201));
#76= IFCCARTESIANTRANSFORMATIONOPERATOR3D($,$,#75,$,$);
#77= IFCMAPPEDITEM(#71,#76);
#78= IFCCARTESIANPOINT((140.000000000178,0.,-50.0000000005821));
#79= IFCCARTESIANTRANSFORMATIONOPERATOR3D($,$,#78,$,$);
#80= IFCMAPPEDITEM(#71,#79);
#81= IFCCARTESIANPOINT((210.000000000269,0.,-50.0000000008295));
#82= IFCCARTESIANTRANSFORMATIONOPERATOR3D($,$,#81,$,$);
#83= IFCMAPPEDITEM(#71,#82);
#84= IFCCARTESIANPOINT((280.000000000357,0.,-50.0000000010914));
#85= IFCCARTESIANTRANSFORMATIONOPERATOR3D($,$,#84,$,$);
#86= IFCMAPPEDITEM(#71,#85);
#87= IFCCARTESIANPOINT((350.000000000447,0.,-50.0000000013388));
#88= IFCCARTESIANTRANSFORMATIONOPERATOR3D($,$,#87,$,$);
#89= IFCMAPPEDITEM(#71,#88);
#90= IFCCARTESIANPOINT((420.000000000535,0.,-50.0000000016007));
#91= IFCCARTESIANTRANSFORMATIONOPERATOR3D($,$,#90,$,$);
#92= IFCMAPPEDITEM(#71,#91);
#93= IFCCARTESIANPOINT((0.,0.,50.0000000000582));
#94= IFCCARTESIANTRANSFORMATIONOPERATOR3D($,$,#93,$,$);
#95= IFCMAPPEDITEM(#71,#94);
#96= IFCCARTESIANPOINT((70.0000000000873,0.,49.9999999998108));
#97= IFCCARTESIANTRANSFORMATIONOPERATOR3D($,$,#96,$,$);
#98= IFCMAPPEDITEM(#71,#97);
#99= IFCCARTESIANPOINT((140.000000000178,0.,49.9999999995489));
#100= IFCCARTESIANTRANSFORMATIONOPERATOR3D($,$,#99,$,$);
#101= IFCMAPPEDITEM(#71,#100);
#102= IFCCARTESIANPOINT((210.000000000269,0.,49.9999999993015));
#103= IFCCARTESIANTRANSFORMATIONOPERATOR3D($,$,#102,$,$);
#104= IFCMAPPEDITEM(#71,#103);
#105= IFCCARTESIANPOINT((280.000000000357,0.,49.9999999990396));
#106= IFCCARTESIANTRANSFORMATIONOPERATOR3D($,$,#105,$,$);
#107= IFCMAPPEDITEM(#71,#106);
#108= IFCCARTESIANPOINT((350.000000000447,0.,49.9999999987922));
#109= IFCCARTESIANTRANSFORMATIONOPERATOR3D($,$,#108,$,$);
#110= IFCMAPPEDITEM(#71,#109);
#111= IFCCARTESIANPOINT((420.000000000535,0.,49.9999999985303));
#112= IFCCARTESIANTRANSFORMATIONOPERATOR3D($,$,#111,$,$);
#113= IFCMAPPEDITEM(#71,#112);
#114= IFCSHAPEREPRESENTATION(#12,'Body','MappedRepresentation',(#74,#77,#80,#83,#86,#89,#92,#95,#98,#101,#104,#107,#110,#113));
#115= IFCPRODUCTDEFINITIONSHAPE($,$,(#114));
#116= IFCOPENINGELEMENT('0JgsCpAQ5FiAGcDzo3Aga3',#5,$,$,'Opening',#65,#115,$);
#117= IFCRELVOIDSELEMENT('2pnQsMYQX6R86jU2y$FCVS',#5,'Drill Hole',$,#60,#116);
#118= IFCPROPERTYSINGLEVALUE('FeatureSubTypes',$,IFCLABEL('TORNILLO'),$);
#119= IFCPROPERTYSINGLEVALUE('RectangleOpeningWidth',$,$,$);
#120= IFCPROPERTYSINGLEVALUE('RectangleOpeningHeight',$,$,$);
#121= IFCPROPERTYSINGLEVALUE('OpeningDiameter',$,$,$);
#122= IFCPROPERTYSET('1RFKBJEL9EbABdwan9KbWH',#5,'AISC_EM11_Pset_Opening/Cope',$,(#118,#119,#120,#121));
#123= IFCCARTESIANPOINT((94452.8126537709,17580.2106461574,13450.));
#124= IFCDIRECTION((0.999999999339957,3.63330000254792E-05,0.));
#125= IFCDIRECTION((-3.63330000247233E-05,0.999999999339957,0.));
#126= IFCAXIS2PLACEMENT3D(#123,#124,#125);
#127= IFCLOCALPLACEMENT(#42,#126);
#128= IFCSHAPEREPRESENTATION(#12,'Body','MappedRepresentation',(#95,#98,#101,#104,#107,#110,#113,#74,#77,#80,#83,#86,#89,#92));
#129= IFCPRODUCTDEFINITIONSHAPE($,$,(#128));
#130= IFCOPENINGELEMENT('0Zxc3HBE52AADgsFYvaZeL',#5,$,$,'Opening',#127,#129,$);
#131= IFCRELVOIDSELEMENT('09zO_u3arEk8ZG1O2V$xrj',#5,'Drill Hole',$,#60,#130);
#132= IFCCARTESIANPOINT((94453.5411620254,23752.0143033452,13900.));
#133= IFCDIRECTION((0.999999999999363,-1.12900000749505E-06,0.));
#134= IFCAXIS2PLACEMENT3D(#132,#133,#63);
#135= IFCLOCALPLACEMENT(#42,#134);
#136= IFCSHAPEREPRESENTATION(#12,'Body','MappedRepresentation',(#95,#98,#101,#104,#107,#110,#113,#74,#77,#80,#83,#86,#89,#92));
#137= IFCPRODUCTDEFINITIONSHAPE($,$,(#136));
#138= IFCOPENINGELEMENT('1JZZqkByb2tvm$nvf6aRmD',#5,$,$,'Opening',#135,#137,$);
#139= IFCRELVOIDSELEMENT('3TU9FqADP3dR19mRmKDcJD',#5,'Drill Hole',$,#60,#138);
#140= IFCCARTESIANPOINT((94452.8126537709,17580.2106461574,13900.));
#141= IFCDIRECTION((-0.999999999339957,-3.63330000254792E-05,0.));
#142= IFCAXIS2PLACEMENT3D(#140,#141,#125);
#143= IFCLOCALPLACEMENT(#42,#142);
#144= IFCSHAPEREPRESENTATION(#12,'Body','MappedRepresentation',(#74,#77,#80,#83,#86,#89,#92,#95,#98,#101,#104,#107,#110,#113));
#145= IFCPRODUCTDEFINITIONSHAPE($,$,(#144));
#146= IFCOPENINGELEMENT('2LZBDQePPDhgBS9tzA4KGr',#5,$,$,'Opening',#143,#145,$);
#147= IFCRELVOIDSELEMENT('2HPf1zhe1AuwmFrIQaubvo',#5,'Drill Hole',$,#60,#146);
#148= IFCPROPERTYSINGLEVALUE('PieceMark',$,IFCIDENTIFIER('BEAM'),$);
#149= IFCPROPERTYSINGLEVALUE('IndicationMark',$,IFCIDENTIFIER('b/875'),$);
#150= IFCPROPERTYSINGLEVALUE('PrelimMark',$,IFCIDENTIFIER(''),$);
#151= IFCPROPERTYSINGLEVALUE('MainPieceTag',$,IFCBOOLEAN(.F.),$);
#152= IFCPROPERTYSET('1DUEiZetn6XArlU$9y$I3d',#5,'AISC_EM11_Pset_PieceIdentification','PieceIdentity',(#148,#149,#150,#151));
#153= IFCPROPERTYSINGLEVALUE('MaterialType',$,IFCIDENTIFIER('STEEL'),$);
#154= IFCPROPERTYSINGLEVALUE('MaterialGrade',$,IFCIDENTIFIER('S235JR'),$);
#155= IFCPROPERTYSET('16dYIM12D8auObreQFMJYX',#5,'AISC_EM11_Pset_Material',$,(#153,#154));
#156= IFCPROPERTYSINGLEVALUE('SkewedAngleY',$,IFCREAL(0.),$);
#157= IFCPROPERTYSINGLEVALUE('SkewedAngleX',$,IFCREAL(0.),$);
#158= IFCPROPERTYSET('0uM_uWrUXAleGw1Fj5qChT',#5,'AISC_EM11_Pset_SkewedEnd',$,(#156,#157));
#159= IFCPROPERTYSET('07MRDFKRrBpvIEn$lev8ER',#5,'AISC_EM11_Pset_SkewedEnd_2',$,(#156,#157));
#160= IFCMATERIAL('STEEL/S235JR');
#161= IFCRELAGGREGATES('2w9uecdUbAVfexV4wL7fy2',#5,$,$,#37,(#39));
#162= IFCRELAGGREGATES('2CRAwuvmtSnxwDnMCdPxEK',#5,$,$,#39,(#41));
#163= IFCRELAGGREGATES('3DtJWfzqf92AIfnR48WRNb',#5,$,$,#41,(#43));
#164= IFCRELCONTAINEDINSPATIALSTRUCTURE('38KrmPBwX4NQrQm8e6cxVh',#5,$,$,(#60),#43);
#165= IFCRELDEFINESBYPROPERTIES('2JuPCs0sPFQvTn9I25zPvH',#5,$,$,(#146,#138,#130,#116),#122);
#166= IFCRELDEFINESBYPROPERTIES('31Cg2zVKn39RIF9_IhyTMM',#5,$,$,(#60),#152);
#167= IFCRELDEFINESBYPROPERTIES('1jnakUJdjAsue4SzmnTfiQ',#5,$,$,(#60),#155);
#168= IFCRELDEFINESBYPROPERTIES('2u3HK29JXDiwkcDsju$5eE',#5,$,$,(#60),#158);
#169= IFCRELDEFINESBYPROPERTIES('1Gvqd$snbEDeOGuCcMuVyM',#5,$,$,(#60),#159);
#170= IFCRELASSOCIATESMATERIAL('1_oZVZbePAgeT1wMxIConb',#5,$,$,(#60),#160);
ENDSEC;

END-ISO-10303-21;
