ISO-10303-21;
HEADER;
FILE_DESCRIPTION(('ViewDefinition[AISC_Steel_Detailing]', 'Option [BaseQuantities:Off]', 'Option [GridExport:On]', 'Option [Assemblies:Off]', 'Option [Bolts:On]', 'Option [Rebars:On]', 'Option [PourObjects:Off]', 'Option [Welds:On]', 'Option [SurfaceTreatments:On]', 'Option [LocationBy:0]', 'Option [ViewColors:Off]', 'Option [SectionedSpine:Off]', 'Option [PropertySets:On]', 'Option [Export all:Off]'),'2;1');
FILE_NAME('b_872_Qty_1.ifc','2026-05-16T11:52:58',('GIOVANNIPC\\gcorrea'),('Structural Designer'),'IFC Database version: Work','Tekla Structures 2020 Service Pack 5, IFC Export Version: 4.0.0.0 Dec  7 2020','');
FILE_SCHEMA(('IFC2X3'));
ENDSEC;

DATA;
#1= IFCPERSON('GIOVANNIPC\\gcorrea','Undefined',$,$,$,$,$,$);
#2= IFCORGANIZATION($,'Trimble Solutions Corporation',$,$,$);
#3= IFCPERSONANDORGANIZATION(#1,#2,$);
#4= IFCAPPLICATION(#2,'2020 Service Pack 5','Tekla Structures','Multi material modeling');
#5= IFCOWNERHISTORY(#3,#4,$,.NOCHANGE.,$,$,$,1778950378);
#6= IFCCARTESIANPOINT((0.,0.,0.));
#7= IFCDIRECTION((1.,0.,0.));
#8= IFCDIRECTION((0.,1.,0.));
#9= IFCDIRECTION((0.,0.,1.));
#10= IFCAXIS2PLACEMENT3D(#6,#9,#7);
#11= IFCGEOMETRICREPRESENTATIONCONTEXT($,'Model',3,1.E-05,#10,$);
#12= IFCGEOMETRICREPRESENTATIONSUBCONTEXT('Body','Model',*,*,*,*,#11,$,.MODEL_VIEW.,$);
#13= IFCGEOMETRICREPRESENTATIONSUBCONTEXT('Axis','Model',*,*,*,*,#11,$,.GRAPH_VIEW.,$);
#14= IFCGEOMETRICREPRESENTATIONSUBCONTEXT('FootPrint','Model',*,*,*,*,#11,$,.MODEL_VIEW.,$);
#15= IFCSIUNIT(*,.LENGTHUNIT.,.MILLI.,.METRE.);
#16= IFCMEASUREWITHUNIT(IFCRATIOMEASURE(304.8),#15);
#17= IFCDIMENSIONALEXPONENTS(1,0,0,0,0,0,0);
#18= IFCCONVERSIONBASEDUNIT(#17,.LENGTHUNIT.,'FOOT',#16);
#19= IFCSIUNIT(*,.AREAUNIT.,$,.SQUARE_METRE.);
#20= IFCMEASUREWITHUNIT(IFCRATIOMEASURE(0.09290304),#19);
#21= IFCDIMENSIONALEXPONENTS(2,0,0,0,0,0,0);
#22= IFCCONVERSIONBASEDUNIT(#21,.AREAUNIT.,'SQUARE FOOT',#20);
#23= IFCSIUNIT(*,.VOLUMEUNIT.,$,.CUBIC_METRE.);
#24= IFCMEASUREWITHUNIT(IFCRATIOMEASURE(0.028316846592),#23);
#25= IFCDIMENSIONALEXPONENTS(3,0,0,0,0,0,0);
#26= IFCCONVERSIONBASEDUNIT(#25,.VOLUMEUNIT.,'CUBIC FOOT',#24);
#27= IFCSIUNIT(*,.MASSUNIT.,.KILO.,.GRAM.);
#28= IFCSIUNIT(*,.TIMEUNIT.,$,.SECOND.);
#29= IFCSIUNIT(*,.PLANEANGLEUNIT.,$,.RADIAN.);
#30= IFCMEASUREWITHUNIT(IFCRATIOMEASURE(0.0174532925199433),#29);
#31= IFCDIMENSIONALEXPONENTS(0,0,0,0,0,0,0);
#32= IFCCONVERSIONBASEDUNIT(#31,.PLANEANGLEUNIT.,'DEGREE',#30);
#33= IFCSIUNIT(*,.SOLIDANGLEUNIT.,$,.STERADIAN.);
#34= IFCSIUNIT(*,.THERMODYNAMICTEMPERATUREUNIT.,$,.DEGREE_CELSIUS.);
#35= IFCSIUNIT(*,.LUMINOUSINTENSITYUNIT.,$,.LUMEN.);
#36= IFCUNITASSIGNMENT((#15,#19,#23,#27,#28,#29,#33,#34,#35));
#37= IFCPROJECT('2G7ZFDNE16yBDU14FA92Me',#5,'Proyecto',$,$,$,$,(#11),#36);
#38= IFCLOCALPLACEMENT($,#10);
#39= IFCSITE('2xvEzEinjBTea80yOTcujY',#5,'Obra',$,$,#38,$,$,.ELEMENT.,$,$,$,$,$);
#40= IFCLOCALPLACEMENT(#38,#10);
#41= IFCBUILDING('2vuNswiDn62h8n2wJf5b_$',#5,'Undefined',$,$,#40,$,$,.ELEMENT.,$,$,$);
#42= IFCLOCALPLACEMENT(#40,#10);
#43= IFCBUILDINGSTOREY('29hdEUCErFze9E_VIAceOd',#5,'Undefined',$,$,#42,$,$,.ELEMENT.,0.);
#44= IFCOWNERHISTORY(#3,#4,$,.NOCHANGE.,$,$,$,1777921200);
#45= IFCCARTESIANPOINT((77000.1261961843,8120.1403582282,13680.));
#46= IFCDIRECTION((0.999999999895425,1.44619999985081E-05,0.));
#47= IFCAXIS2PLACEMENT3D(#45,#9,#46);
#48= IFCLOCALPLACEMENT(#42,#47);
#49= IFCDIRECTION((1.,0.));
#50= IFCCARTESIANPOINT((0.,0.));
#51= IFCAXIS2PLACEMENT2D(#50,#49);
#52= IFCISHAPEPROFILEDEF(.AREA.,'HEA450',#51,300.,440.,11.5,21.,27.);
#53= IFCDIRECTION((0.,-1.,0.));
#54= IFCDIRECTION((-1.,0.,0.));
#55= IFCCARTESIANPOINT((4576.86193519974,0.,0.));
#56= IFCAXIS2PLACEMENT3D(#55,#54,#53);
#57= IFCEXTRUDEDAREASOLID(#52,#56,#9,4557.89);
#58= IFCDIRECTION((-0.999999999895425,1.44619999919087E-05,0.));
#59= IFCCARTESIANPOINT((4576.83463740931,1.22287851088277,-325.));
#60= IFCDIRECTION((1.44619999919087E-05,0.999999999895425,0.));
#61= IFCAXIS2PLACEMENT3D(#59,#58,#60);
#62= IFCPLANE(#61);
#63= IFCHALFSPACESOLID(#62,.T.);
#64= IFCBOOLEANCLIPPINGRESULT(.DIFFERENCE.,#57,#63);
#65= IFCDIRECTION((0.999999986248879,-0.000165837999735784,0.));
#66= IFCCARTESIANPOINT((19.0000005223847,1.39152689371258E-10,-220.));
#67= IFCDIRECTION((-0.000165837999735784,-0.999999986248879,0.));
#68= IFCAXIS2PLACEMENT3D(#66,#65,#67);
#69= IFCPLANE(#68);
#70= IFCHALFSPACESOLID(#69,.T.);
#71= IFCBOOLEANCLIPPINGRESULT(.DIFFERENCE.,#64,#70);
#72= IFCSHAPEREPRESENTATION(#12,'Body','Clipping',(#71));
#73= IFCPRODUCTDEFINITIONSHAPE($,$,(#72));
#74= IFCBEAM('0to9Dq3lvFKwE28ZhslOyy',#44,'BEAM','HEA450','HEA450',#48,#73,'ID37c89374-0efe-4f53-a382-223af6bd8f3c');
#75= IFCLOCALPLACEMENT(#42,#47);
#76= IFCRECTANGLEPROFILEDEF(.AREA.,'PL163.2*12',#51,12.,163.2);
#77= IFCDIRECTION((0.,0.,-1.));
#78= IFCCARTESIANPOINT((4592.84237985994,-69.3968363499862,221.));
#79= IFCAXIS2PLACEMENT3D(#78,#77,#58);
#80= IFCEXTRUDEDAREASOLID(#76,#79,#9,442.);
#81= IFCSHAPEREPRESENTATION(#12,'Body','SweptSolid',(#80));
#82= IFCPRODUCTDEFINITIONSHAPE($,$,(#81));
#83= IFCOPENINGELEMENT('279uHKH89FSuJGvjkMbQQA',#5,$,$,'Recess',#75,#82,$);
#84= IFCRELVOIDSELEMENT('1eNuyMTYr57eVh_cdtCVS6',#5,$,$,#74,#83);
#85= IFCPROPERTYSINGLEVALUE('FeatureSubTypes',$,$,$);
#86= IFCPROPERTYSINGLEVALUE('RectangleOpeningWidth',$,IFCPOSITIVELENGTHMEASURE(12.),$);
#87= IFCPROPERTYSINGLEVALUE('RectangleOpeningHeight',$,IFCPOSITIVELENGTHMEASURE(163.2),$);
#88= IFCPROPERTYSINGLEVALUE('OpeningDiameter',$,$,$);
#89= IFCPROPERTYSET('2M_iuARLzDbReFK1VOXe21',#5,'AISC_EM11_Pset_Opening/Cope',$,(#85,#86,#87,#88));
#90= IFCLOCALPLACEMENT(#42,#47);
#91= IFCRECTANGLEPROFILEDEF(.AREA.,'PL162.8*12',#51,12.,162.8);
#92= IFCCARTESIANPOINT((4592.84439007794,69.6031636354783,221.));
#93= IFCAXIS2PLACEMENT3D(#92,#77,#58);
#94= IFCEXTRUDEDAREASOLID(#91,#93,#9,442.);
#95= IFCSHAPEREPRESENTATION(#12,'Body','SweptSolid',(#94));
#96= IFCPRODUCTDEFINITIONSHAPE($,$,(#95));
#97= IFCOPENINGELEMENT('1Of5MLoIz7vQF1FRinf6i6',#5,$,$,'Recess',#90,#96,$);
#98= IFCRELVOIDSELEMENT('3s0sdqKJz7MuWpK8bYq0Hv',#5,$,$,#74,#97);
#99= IFCPROPERTYSINGLEVALUE('RectangleOpeningHeight',$,IFCPOSITIVELENGTHMEASURE(162.8),$);
#100= IFCPROPERTYSET('1BUrVZbtL5BwAW07qsolRY',#5,'AISC_EM11_Pset_Opening/Cope',$,(#85,#86,#99,#88));
#101= IFCLOCALPLACEMENT(#42,#47);
#102= IFCRECTANGLEPROFILEDEF(.AREA.,'PL108*12',#51,12.,108.);
#103= IFCCARTESIANPOINT((4592.83403000364,-40.7773528767257,226.));
#104= IFCAXIS2PLACEMENT3D(#103,#77,#58);
#105= IFCEXTRUDEDAREASOLID(#102,#104,#9,452.);
#106= IFCSHAPEREPRESENTATION(#12,'Body','SweptSolid',(#105));
#107= IFCPRODUCTDEFINITIONSHAPE($,$,(#106));
#108= IFCOPENINGELEMENT('3f3v4dr7D7se963nJMA1Og',#5,$,$,'Recess',#101,#107,$);
#109= IFCRELVOIDSELEMENT('0Lpsk5GLrC7xSmfr8iZ6eR',#5,$,$,#74,#108);
#110= IFCPROPERTYSINGLEVALUE('RectangleOpeningHeight',$,IFCPOSITIVELENGTHMEASURE(108.),$);
#111= IFCPROPERTYSET('2l4Z6Hc2X5w93_c5itPmKl',#5,'AISC_EM11_Pset_Opening/Cope',$,(#85,#86,#110,#88));
#112= IFCLOCALPLACEMENT(#42,#47);
#113= IFCCARTESIANPOINT((4592.83524481163,43.2226471144904,226.));
#114= IFCAXIS2PLACEMENT3D(#113,#77,#58);
#115= IFCEXTRUDEDAREASOLID(#102,#114,#9,452.);
#116= IFCSHAPEREPRESENTATION(#12,'Body','SweptSolid',(#115));
#117= IFCPRODUCTDEFINITIONSHAPE($,$,(#116));
#118= IFCOPENINGELEMENT('3bg82Hlvn94gwsqrRtTT_4',#5,$,$,'Recess',#112,#117,$);
#119= IFCRELVOIDSELEMENT('37HtTOTTrBIQS2PaphPIo0',#5,$,$,#74,#118);
#120= IFCCARTESIANPOINT((81531.9783238786,8120.78355314297,13460.));
#121= IFCDIRECTION((-7.12890000286279E-05,0.999999997458939,0.));
#122= IFCDIRECTION((-0.999999997458939,-7.12890000330456E-05,0.));
#123= IFCAXIS2PLACEMENT3D(#120,#121,#122);
#124= IFCLOCALPLACEMENT(#42,#123);
#125= IFCCIRCLEPROFILEDEF(.AREA.,$,#51,11.5);
#126= IFCCARTESIANPOINT((0.,-0.1,0.));
#127= IFCAXIS2PLACEMENT3D(#126,#8,#7);
#128= IFCEXTRUDEDAREASOLID(#125,#127,#9,21.2);
#129= IFCSHAPEREPRESENTATION(#12,'Body','SweptSolid',(#128));
#130= IFCREPRESENTATIONMAP(#10,#129);
#131= IFCCARTESIANPOINT((2.7648638933897E-10,0.,74.9999999999891));
#132= IFCCARTESIANTRANSFORMATIONOPERATOR3D($,$,#131,$,$);
#133= IFCMAPPEDITEM(#130,#132);
#134= IFCCARTESIANPOINT((74.999999999447,0.,75.0000000005357));
#135= IFCCARTESIANTRANSFORMATIONOPERATOR3D($,$,#134,$,$);
#136= IFCMAPPEDITEM(#130,#135);
#137= IFCCARTESIANPOINT((149.999999998618,0.,75.0000000010805));
#138= IFCCARTESIANTRANSFORMATIONOPERATOR3D($,$,#137,$,$);
#139= IFCMAPPEDITEM(#130,#138);
#140= IFCCARTESIANPOINT((224.999999997788,0.,75.0000000016271));
#141= IFCCARTESIANTRANSFORMATIONOPERATOR3D($,$,#140,$,$);
#142= IFCMAPPEDITEM(#130,#141);
#143= IFCCARTESIANPOINT((299.999999996959,0.,75.0000000021719));
#144= IFCCARTESIANTRANSFORMATIONOPERATOR3D($,$,#143,$,$);
#145= IFCMAPPEDITEM(#130,#144);
#146= IFCCARTESIANPOINT((374.999999996129,0.,75.0000000027185));
#147= IFCCARTESIANTRANSFORMATIONOPERATOR3D($,$,#146,$,$);
#148= IFCMAPPEDITEM(#130,#147);
#149= IFCCARTESIANPOINT((449.9999999953,0.,75.0000000032633));
#150= IFCCARTESIANTRANSFORMATIONOPERATOR3D($,$,#149,$,$);
#151= IFCMAPPEDITEM(#130,#150);
#152= IFCCARTESIANPOINT((524.99999999447,0.,75.0000000038099));
#153= IFCCARTESIANTRANSFORMATIONOPERATOR3D($,$,#152,$,$);
#154= IFCMAPPEDITEM(#130,#153);
#155= IFCCARTESIANPOINT((599.999999993641,0.,75.0000000043547));
#156= IFCCARTESIANTRANSFORMATIONOPERATOR3D($,$,#155,$,$);
#157= IFCMAPPEDITEM(#130,#156);
#158= IFCCARTESIANPOINT((674.999999992811,0.,75.0000000049022));
#159= IFCCARTESIANTRANSFORMATIONOPERATOR3D($,$,#158,$,$);
#160= IFCMAPPEDITEM(#130,#159);
#161= IFCCARTESIANPOINT((-2.7648638933897E-10,0.,-74.99999999999));
#162= IFCCARTESIANTRANSFORMATIONOPERATOR3D($,$,#161,$,$);
#163= IFCMAPPEDITEM(#130,#162);
#164= IFCCARTESIANPOINT((74.9999999988941,0.,-74.9999999994443));
#165= IFCCARTESIANTRANSFORMATIONOPERATOR3D($,$,#164,$,$);
#166= IFCMAPPEDITEM(#130,#165);
#167= IFCCARTESIANPOINT((149.999999998065,0.,-74.9999999988986));
#168= IFCCARTESIANTRANSFORMATIONOPERATOR3D($,$,#167,$,$);
#169= IFCMAPPEDITEM(#130,#168);
#170= IFCCARTESIANPOINT((224.999999997235,0.,-74.999999998352));
#171= IFCCARTESIANTRANSFORMATIONOPERATOR3D($,$,#170,$,$);
#172= IFCMAPPEDITEM(#130,#171);
#173= IFCCARTESIANPOINT((299.99999999642,0.,-74.9999999978063));
#174= IFCCARTESIANTRANSFORMATIONOPERATOR3D($,$,#173,$,$);
#175= IFCMAPPEDITEM(#130,#174);
#176= IFCCARTESIANPOINT((374.999999995591,0.,-74.9999999972615));
#177= IFCCARTESIANTRANSFORMATIONOPERATOR3D($,$,#176,$,$);
#178= IFCMAPPEDITEM(#130,#177);
#179= IFCCARTESIANPOINT((449.999999994761,0.,-74.9999999967158));
#180= IFCCARTESIANTRANSFORMATIONOPERATOR3D($,$,#179,$,$);
#181= IFCMAPPEDITEM(#130,#180);
#182= IFCCARTESIANPOINT((524.999999993932,0.,-74.9999999961701));
#183= IFCCARTESIANTRANSFORMATIONOPERATOR3D($,$,#182,$,$);
#184= IFCMAPPEDITEM(#130,#183);
#185= IFCCARTESIANPOINT((599.999999993102,0.,-74.9999999956244));
#186= IFCCARTESIANTRANSFORMATIONOPERATOR3D($,$,#185,$,$);
#187= IFCMAPPEDITEM(#130,#186);
#188= IFCCARTESIANPOINT((674.999999992273,0.,-74.9999999950787));
#189= IFCCARTESIANTRANSFORMATIONOPERATOR3D($,$,#188,$,$);
#190= IFCMAPPEDITEM(#130,#189);
#191= IFCSHAPEREPRESENTATION(#12,'Body','MappedRepresentation',(#133,#136,#139,#142,#145,#148,#151,#154,#157,#160,#163,#166,#169,#172,#175,#178,#181,#184,#187,#190));
#192= IFCPRODUCTDEFINITIONSHAPE($,$,(#191));
#193= IFCOPENINGELEMENT('1FUUFbVz5EqgnA9j0Mgl8_',#5,$,$,'Opening',#124,#192,$);
#194= IFCRELVOIDSELEMENT('1zK2yEY6X7hxmtfjj2XL4G',#5,'Drill Hole',$,#74,#193);
#195= IFCPROPERTYSINGLEVALUE('FeatureSubTypes',$,IFCLABEL('TORNILLO'),$);
#196= IFCPROPERTYSINGLEVALUE('RectangleOpeningWidth',$,$,$);
#197= IFCPROPERTYSINGLEVALUE('RectangleOpeningHeight',$,$,$);
#198= IFCPROPERTYSET('3GGlirjeX77wGXjsml5EVI',#5,'AISC_EM11_Pset_Opening/Cope',$,(#195,#196,#197,#88));
#199= IFCCARTESIANPOINT((81531.9783238786,8120.78355314297,13900.));
#200= IFCDIRECTION((7.12890000286279E-05,-0.999999997458939,0.));
#201= IFCAXIS2PLACEMENT3D(#199,#200,#122);
#202= IFCLOCALPLACEMENT(#42,#201);
#203= IFCSHAPEREPRESENTATION(#12,'Body','MappedRepresentation',(#163,#166,#169,#172,#175,#178,#181,#184,#187,#190,#133,#136,#139,#142,#145,#148,#151,#154,#157,#160));
#204= IFCPRODUCTDEFINITIONSHAPE($,$,(#203));
#205= IFCOPENINGELEMENT('1axMOqeE1DTwddKmSmBvV3',#5,$,$,'Opening',#202,#204,$);
#206= IFCRELVOIDSELEMENT('1PmRF7G7T5Y85uU9TNmwfj',#5,'Drill Hole',$,#74,#205);
#207= IFCCARTESIANPOINT((81576.9783429322,8120.20977343647,13900.));
#208= IFCAXIS2PLACEMENT3D(#207,#54,#77);
#209= IFCLOCALPLACEMENT(#42,#208);
#210= IFCCIRCLEPROFILEDEF(.AREA.,$,#51,12.5);
#211= IFCCARTESIANPOINT((0.,-5.84612443742785,0.));
#212= IFCAXIS2PLACEMENT3D(#211,#8,#7);
#213= IFCEXTRUDEDAREASOLID(#210,#212,#9,11.7);
#214= IFCSHAPEREPRESENTATION(#12,'Body','SweptSolid',(#213));
#215= IFCREPRESENTATIONMAP(#10,#214);
#216= IFCCARTESIANPOINT((107.5,0.,45.));
#217= IFCCARTESIANTRANSFORMATIONOPERATOR3D($,$,#216,$,$);
#218= IFCMAPPEDITEM(#215,#217);
#219= IFCCARTESIANPOINT((182.5,0.,45.));
#220= IFCCARTESIANTRANSFORMATIONOPERATOR3D($,$,#219,$,$);
#221= IFCMAPPEDITEM(#215,#220);
#222= IFCCARTESIANPOINT((257.5,0.,45.));
#223= IFCCARTESIANTRANSFORMATIONOPERATOR3D($,$,#222,$,$);
#224= IFCMAPPEDITEM(#215,#223);
#225= IFCCARTESIANPOINT((332.5,0.,45.));
#226= IFCCARTESIANTRANSFORMATIONOPERATOR3D($,$,#225,$,$);
#227= IFCMAPPEDITEM(#215,#226);
#228= IFCSHAPEREPRESENTATION(#12,'Body','MappedRepresentation',(#218,#221,#224,#227));
#229= IFCPRODUCTDEFINITIONSHAPE($,$,(#228));
#230= IFCOPENINGELEMENT('1e6BNyN6T6Lw6JiIlmr6me',#5,$,$,'Opening',#209,#229,$);
#231= IFCRELVOIDSELEMENT('3w9isFahDFuuIxOr1QhFI0',#5,'Drill Hole',$,#74,#230);
#232= IFCPROPERTYSINGLEVALUE('PieceMark',$,IFCIDENTIFIER('BEAM'),$);
#233= IFCPROPERTYSINGLEVALUE('IndicationMark',$,IFCIDENTIFIER('b/872'),$);
#234= IFCPROPERTYSINGLEVALUE('PrelimMark',$,IFCIDENTIFIER(''),$);
#235= IFCPROPERTYSINGLEVALUE('MainPieceTag',$,IFCBOOLEAN(.T.),$);
#236= IFCPROPERTYSET('1_wlryuAXFnR4NiMi1yFui',#5,'AISC_EM11_Pset_PieceIdentification','PieceIdentity',(#232,#233,#234,#235));
#237= IFCPROPERTYSINGLEVALUE('MaterialType',$,IFCIDENTIFIER('STEEL'),$);
#238= IFCPROPERTYSINGLEVALUE('MaterialGrade',$,IFCIDENTIFIER('S235JR'),$);
#239= IFCPROPERTYSET('1kjqa_gSz1uBghmJWXz8ZM',#5,'AISC_EM11_Pset_Material',$,(#237,#238));
#240= IFCPROPERTYSINGLEVALUE('SkewedAngleY',$,IFCREAL(0.),$);
#241= IFCPROPERTYSINGLEVALUE('SkewedAngleX',$,IFCREAL(0.0095),$);
#242= IFCPROPERTYSET('0hO3GVozf71h5Lif1Q1DpY',#5,'AISC_EM11_Pset_SkewedEnd',$,(#240,#241));
#243= IFCPROPERTYSINGLEVALUE('SkewedAngleX',$,IFCREAL(0.00083),$);
#244= IFCPROPERTYSET('3jlb3Lqbr7Su1Ud9o7rco1',#5,'AISC_EM11_Pset_SkewedEnd_2',$,(#240,#243));
#245= IFCMATERIAL('STEEL/S235JR');
#246= IFCRELAGGREGATES('311x64oenEmfR6u9TPI$bC',#5,$,$,#37,(#39));
#247= IFCRELAGGREGATES('2JJDOM4w3W2xjOARlhaHtU',#5,$,$,#39,(#41));
#248= IFCRELAGGREGATES('0EirFxVm13VxwjCTFro8iZ',#5,$,$,#41,(#43));
#249= IFCRELCONTAINEDINSPATIALSTRUCTURE('1VC8Yk7ib8hvN77cFWHEwh',#5,$,$,(#74),#43);
#250= IFCRELDEFINESBYPROPERTIES('3YDL29PL59z8$OqYsBu4N8',#5,$,$,(#83),#89);
#251= IFCRELDEFINESBYPROPERTIES('3tcmMxBUzFHusucA2MJG61',#5,$,$,(#97),#100);
#252= IFCRELDEFINESBYPROPERTIES('2smpCsryT7gQ4uMnLccwLe',#5,$,$,(#118,#108),#111);
#253= IFCRELDEFINESBYPROPERTIES('2ktB91JCb7$BPg7XilRFs7',#5,$,$,(#230,#205,#193),#198);
#254= IFCRELDEFINESBYPROPERTIES('0c$wR_IZ1AIQGlr1SOxCqV',#5,$,$,(#74),#236);
#255= IFCRELDEFINESBYPROPERTIES('0Oej3wF451cv12v3Ab9Elf',#5,$,$,(#74),#239);
#256= IFCRELDEFINESBYPROPERTIES('09cujfRrn4WOC0XfKGTkso',#5,$,$,(#74),#242);
#257= IFCRELDEFINESBYPROPERTIES('3BBlDuJnj738$t7xmkG0FJ',#5,$,$,(#74),#244);
#258= IFCRELASSOCIATESMATERIAL('1035UuzTD7EgmlusHF4K9_',#5,$,$,(#74),#245);
ENDSEC;

END-ISO-10303-21;
