ISO-10303-21;
HEADER;
FILE_DESCRIPTION(('ViewDefinition[AISC_Steel_Detailing]', 'Option [BaseQuantities:Off]', 'Option [GridExport:On]', 'Option [Assemblies:Off]', 'Option [Bolts:On]', 'Option [Rebars:On]', 'Option [PourObjects:Off]', 'Option [Welds:On]', 'Option [SurfaceTreatments:On]', 'Option [LocationBy:0]', 'Option [ViewColors:Off]', 'Option [SectionedSpine:Off]', 'Option [PropertySets:On]', 'Option [Export all:Off]'),'2;1');
FILE_NAME('b_883_Qty_1.ifc','2026-05-16T11:53:19',('GIOVANNIPC\\gcorrea'),('Structural Designer'),'IFC Database version: Work','Tekla Structures 2020 Service Pack 5, IFC Export Version: 4.0.0.0 Dec  7 2020','');
FILE_SCHEMA(('IFC2X3'));
ENDSEC;

DATA;
#1= IFCPERSON('GIOVANNIPC\\gcorrea','Undefined',$,$,$,$,$,$);
#2= IFCORGANIZATION($,'Trimble Solutions Corporation',$,$,$);
#3= IFCPERSONANDORGANIZATION(#1,#2,$);
#4= IFCAPPLICATION(#2,'2020 Service Pack 5','Tekla Structures','Multi material modeling');
#5= IFCOWNERHISTORY(#3,#4,$,.NOCHANGE.,$,$,$,1778950399);
#6= IFCCARTESIANPOINT((0.,0.,0.));
#7= IFCDIRECTION((1.,0.,0.));
#8= IFCDIRECTION((0.,1.,0.));
#9= IFCDIRECTION((0.,0.,1.));
#10= IFCAXIS2PLACEMENT3D(#6,#9,#7);
#11= IFCGEOMETRICREPRESENTATIONCONTEXT($,'Model',3,1.E-05,#10,$);
#12= IFCGEOMETRICREPRESENTATIONSUBCONTEXT('Body','Model',*,*,*,*,#11,$,.MODEL_VIEW.,$);
#13= IFCGEOMETRICREPRESENTATIONSUBCONTEXT('Axis','Model',*,*,*,*,#11,$,.GRAPH_VIEW.,$);
#14= IFCGEOMETRICREPRESENTATIONSUBCONTEXT('FootPrint','Model',*,*,*,*,#11,$,.MODEL_VIEW.,$);
#15= IFCSIUNIT(*,.LENGTHUNIT.,.MILLI.,.METRE.);
#16= IFCMEASUREWITHUNIT(IFCRATIOMEASURE(304.8),#15);
#17= IFCDIMENSIONALEXPONENTS(1,0,0,0,0,0,0);
#18= IFCCONVERSIONBASEDUNIT(#17,.LENGTHUNIT.,'FOOT',#16);
#19= IFCSIUNIT(*,.AREAUNIT.,$,.SQUARE_METRE.);
#20= IFCMEASUREWITHUNIT(IFCRATIOMEASURE(0.09290304),#19);
#21= IFCDIMENSIONALEXPONENTS(2,0,0,0,0,0,0);
#22= IFCCONVERSIONBASEDUNIT(#21,.AREAUNIT.,'SQUARE FOOT',#20);
#23= IFCSIUNIT(*,.VOLUMEUNIT.,$,.CUBIC_METRE.);
#24= IFCMEASUREWITHUNIT(IFCRATIOMEASURE(0.028316846592),#23);
#25= IFCDIMENSIONALEXPONENTS(3,0,0,0,0,0,0);
#26= IFCCONVERSIONBASEDUNIT(#25,.VOLUMEUNIT.,'CUBIC FOOT',#24);
#27= IFCSIUNIT(*,.MASSUNIT.,.KILO.,.GRAM.);
#28= IFCSIUNIT(*,.TIMEUNIT.,$,.SECOND.);
#29= IFCSIUNIT(*,.PLANEANGLEUNIT.,$,.RADIAN.);
#30= IFCMEASUREWITHUNIT(IFCRATIOMEASURE(0.0174532925199433),#29);
#31= IFCDIMENSIONALEXPONENTS(0,0,0,0,0,0,0);
#32= IFCCONVERSIONBASEDUNIT(#31,.PLANEANGLEUNIT.,'DEGREE',#30);
#33= IFCSIUNIT(*,.SOLIDANGLEUNIT.,$,.STERADIAN.);
#34= IFCSIUNIT(*,.THERMODYNAMICTEMPERATUREUNIT.,$,.DEGREE_CELSIUS.);
#35= IFCSIUNIT(*,.LUMINOUSINTENSITYUNIT.,$,.LUMEN.);
#36= IFCUNITASSIGNMENT((#15,#19,#23,#27,#28,#29,#33,#34,#35));
#37= IFCPROJECT('2G7ZFDNE16yBDU14FA92Me',#5,'Proyecto',$,$,$,$,(#11),#36);
#38= IFCLOCALPLACEMENT($,#10);
#39= IFCSITE('2xvEzEinjBTea80yOTcujY',#5,'Obra',$,$,#38,$,$,.ELEMENT.,$,$,$,$,$);
#40= IFCLOCALPLACEMENT(#38,#10);
#41= IFCBUILDING('1GzxGVgZ57KOyWqYneJ8YN',#5,'Undefined',$,$,#40,$,$,.ELEMENT.,$,$,$);
#42= IFCLOCALPLACEMENT(#40,#10);
#43= IFCBUILDINGSTOREY('29hdEUCErFze9E_VIAceOd',#5,'Undefined',$,$,#42,$,$,.ELEMENT.,0.);
#44= IFCOWNERHISTORY(#3,#4,$,.NOCHANGE.,$,$,$,1772827200);
#45= IFCCARTESIANPOINT((34860.1682404404,12905.6349459188,13780.));
#46= IFCDIRECTION((1.99100000017297E-06,-0.999999999998018,0.));
#47= IFCAXIS2PLACEMENT3D(#45,#9,#46);
#48= IFCLOCALPLACEMENT(#42,#47);
#49= IFCDIRECTION((1.,0.));
#50= IFCCARTESIANPOINT((0.,0.));
#51= IFCAXIS2PLACEMENT2D(#50,#49);
#52= IFCISHAPEPROFILEDEF(.AREA.,'IPE240',#51,120.,240.,6.199999809,9.800000191,15.);
#53= IFCDIRECTION((0.,-1.,0.));
#54= IFCDIRECTION((-1.,0.,0.));
#55= IFCCARTESIANPOINT((2877.1438285776,0.,3.63797880709171E-12));
#56= IFCAXIS2PLACEMENT3D(#55,#54,#53);
#57= IFCEXTRUDEDAREASOLID(#52,#56,#9,2879.88);
#58= IFCCARTESIANPOINT((2877.14349206488,2.8097812901251E-05,-219.999999999996));
#59= IFCAXIS2PLACEMENT3D(#58,#54,#8);
#60= IFCPLANE(#59);
#61= IFCHALFSPACESOLID(#60,.T.);
#62= IFCBOOLEANCLIPPINGRESULT(.DIFFERENCE.,#57,#61);
#63= IFCDIRECTION((0.999999999998018,-1.9910000009986E-06,0.));
#64= IFCCARTESIANPOINT((-2.73960113563226,-0.000133197900140658,-219.999999999996));
#65= IFCDIRECTION((-1.9910000009986E-06,-0.999999999998018,0.));
#66= IFCAXIS2PLACEMENT3D(#64,#63,#65);
#67= IFCPLANE(#66);
#68= IFCHALFSPACESOLID(#67,.T.);
#69= IFCBOOLEANCLIPPINGRESULT(.DIFFERENCE.,#62,#68);
#70= IFCSHAPEREPRESENTATION(#12,'Body','Clipping',(#69));
#71= IFCPRODUCTDEFINITIONSHAPE($,$,(#70));
#72= IFCBEAM('3slzTfFnv3dxKHl63fFymE',#44,'BEAM','IPE240','IPE240',#48,#71,'IDf6bfd769-3f1e-439f-b511-bc60e93fcc0e');
#73= IFCLOCALPLACEMENT(#42,#47);
#74= IFCRECTANGLEPROFILEDEF(.AREA.,'PL25.8*68.9',#51,25.8,68.9);
#75= IFCDIRECTION((0.,0.,-1.));
#76= IFCCARTESIANPOINT((2911.59351773336,60.9999855330186,-108.099999904496));
#77= IFCAXIS2PLACEMENT3D(#76,#53,#75);
#78= IFCEXTRUDEDAREASOLID(#74,#77,#9,122.);
#79= IFCSHAPEREPRESENTATION(#12,'Body','SweptSolid',(#78));
#80= IFCPRODUCTDEFINITIONSHAPE($,$,(#79));
#81= IFCOPENINGELEMENT('2wqiGXOr50GOTfIPN7m00H',#5,$,$,'Recess',#73,#80,$);
#82= IFCRELVOIDSELEMENT('1H2RJjacv66fZhHi3WNhfn',#5,$,$,#72,#81);
#83= IFCPROPERTYSINGLEVALUE('FeatureSubTypes',$,$,$);
#84= IFCPROPERTYSINGLEVALUE('RectangleOpeningWidth',$,IFCPOSITIVELENGTHMEASURE(25.8),$);
#85= IFCPROPERTYSINGLEVALUE('RectangleOpeningHeight',$,IFCPOSITIVELENGTHMEASURE(68.9),$);
#86= IFCPROPERTYSINGLEVALUE('OpeningDiameter',$,$,$);
#87= IFCPROPERTYSET('1foLtUtBn1nQyROuT4ESOF',#5,'AISC_EM11_Pset_Opening/Cope',$,(#83,#84,#85,#86));
#88= IFCLOCALPLACEMENT(#42,#47);
#89= IFCCARTESIANPOINT((2911.59351773336,60.9999855330186,108.099999904503));
#90= IFCAXIS2PLACEMENT3D(#89,#53,#75);
#91= IFCEXTRUDEDAREASOLID(#74,#90,#9,122.);
#92= IFCSHAPEREPRESENTATION(#12,'Body','SweptSolid',(#91));
#93= IFCPRODUCTDEFINITIONSHAPE($,$,(#92));
#94= IFCOPENINGELEMENT('0Cqyc_8jj12fFG6$_Lr65S',#5,$,$,'Recess',#88,#93,$);
#95= IFCRELVOIDSELEMENT('0K0TfJ04HA3AaIi2znkRLf',#5,$,$,#72,#94);
#96= IFCLOCALPLACEMENT(#42,#47);
#97= IFCDIRECTION((1.99100000017297E-06,0.999999999998018,0.));
#98= IFCCARTESIANPOINT((-37.1897226340494,-60.9999314101716,-108.099999904496));
#99= IFCAXIS2PLACEMENT3D(#98,#97,#75);
#100= IFCEXTRUDEDAREASOLID(#74,#99,#9,122.01);
#101= IFCSHAPEREPRESENTATION(#12,'Body','SweptSolid',(#100));
#102= IFCPRODUCTDEFINITIONSHAPE($,$,(#101));
#103= IFCOPENINGELEMENT('3csVE3hPP0PAM61YR6XVER',#5,$,$,'Recess',#96,#102,$);
#104= IFCRELVOIDSELEMENT('2ktFgP5Cr02RmINwivZe1t',#5,$,$,#72,#103);
#105= IFCLOCALPLACEMENT(#42,#47);
#106= IFCCARTESIANPOINT((-37.1897226340494,-60.9999314101716,108.099999904503));
#107= IFCAXIS2PLACEMENT3D(#106,#97,#75);
#108= IFCEXTRUDEDAREASOLID(#74,#107,#9,122.01);
#109= IFCSHAPEREPRESENTATION(#12,'Body','SweptSolid',(#108));
#110= IFCPRODUCTDEFINITIONSHAPE($,$,(#109));
#111= IFCOPENINGELEMENT('3xbr5lzDvAovrnm_J6q5Ug',#5,$,$,'Recess',#105,#110,$);
#112= IFCRELVOIDSELEMENT('24$NpzhHr6DwDn77xEO5EP',#5,$,$,#72,#111);
#113= IFCCARTESIANPOINT((34860.1739969309,10028.4914538587,13875.));
#114= IFCDIRECTION((-1.57100000069477E-06,0.999999999998766,0.));
#115= IFCAXIS2PLACEMENT3D(#113,#114,#75);
#116= IFCLOCALPLACEMENT(#42,#115);
#117= IFCCIRCLEPROFILEDEF(.AREA.,$,#51,9.5);
#118= IFCCARTESIANPOINT((0.,-3.19995079727594,0.));
#119= IFCAXIS2PLACEMENT3D(#118,#8,#7);
#120= IFCEXTRUDEDAREASOLID(#117,#119,#9,6.4);
#121= IFCSHAPEREPRESENTATION(#12,'Body','SweptSolid',(#120));
#122= IFCREPRESENTATIONMAP(#10,#121);
#123= IFCCARTESIANPOINT((35.,0.,49.9999999999418));
#124= IFCCARTESIANTRANSFORMATIONOPERATOR3D($,$,#123,$,$);
#125= IFCMAPPEDITEM(#122,#124);
#126= IFCCARTESIANPOINT((95.,0.,49.9999999999418));
#127= IFCCARTESIANTRANSFORMATIONOPERATOR3D($,$,#126,$,$);
#128= IFCMAPPEDITEM(#122,#127);
#129= IFCCARTESIANPOINT((155.,0.,49.9999999999418));
#130= IFCCARTESIANTRANSFORMATIONOPERATOR3D($,$,#129,$,$);
#131= IFCMAPPEDITEM(#122,#130);
#132= IFCSHAPEREPRESENTATION(#12,'Body','MappedRepresentation',(#125,#128,#131));
#133= IFCPRODUCTDEFINITIONSHAPE($,$,(#132));
#134= IFCOPENINGELEMENT('0u7UwcCO96wfNWRReszqMo',#5,$,$,'Opening',#116,#133,$);
#135= IFCRELVOIDSELEMENT('3OAWyKpn58LQWp67Z3UwF9',#5,'Drill Hole',$,#72,#134);
#136= IFCPROPERTYSINGLEVALUE('FeatureSubTypes',$,IFCLABEL('TORNILLO'),$);
#137= IFCPROPERTYSINGLEVALUE('RectangleOpeningWidth',$,$,$);
#138= IFCPROPERTYSINGLEVALUE('RectangleOpeningHeight',$,$,$);
#139= IFCPROPERTYSET('3Qn1V8_C1D6RRp1QhWmIu4',#5,'AISC_EM11_Pset_Opening/Cope',$,(#136,#137,#138,#86));
#140= IFCCARTESIANPOINT((34860.1681017879,12908.3745470541,13875.));
#141= IFCAXIS2PLACEMENT3D(#140,#53,#75);
#142= IFCLOCALPLACEMENT(#42,#141);
#143= IFCCARTESIANPOINT((0.,-3.19976715660001,0.));
#144= IFCAXIS2PLACEMENT3D(#143,#8,#7);
#145= IFCEXTRUDEDAREASOLID(#117,#144,#9,6.4);
#146= IFCSHAPEREPRESENTATION(#12,'Body','SweptSolid',(#145));
#147= IFCREPRESENTATIONMAP(#10,#146);
#148= IFCMAPPEDITEM(#147,#124);
#149= IFCMAPPEDITEM(#147,#127);
#150= IFCMAPPEDITEM(#147,#130);
#151= IFCSHAPEREPRESENTATION(#12,'Body','MappedRepresentation',(#148,#149,#150));
#152= IFCPRODUCTDEFINITIONSHAPE($,$,(#151));
#153= IFCOPENINGELEMENT('38_fLNqg1BtAMquL9kvOGr',#5,$,$,'Opening',#142,#152,$);
#154= IFCRELVOIDSELEMENT('34p07GzxHA3OlSZxCx5NMH',#5,'Drill Hole',$,#72,#153);
#155= IFCPROPERTYSINGLEVALUE('PieceMark',$,IFCIDENTIFIER('BEAM'),$);
#156= IFCPROPERTYSINGLEVALUE('IndicationMark',$,IFCIDENTIFIER('b/883'),$);
#157= IFCPROPERTYSINGLEVALUE('PrelimMark',$,IFCIDENTIFIER(''),$);
#158= IFCPROPERTYSINGLEVALUE('MainPieceTag',$,IFCBOOLEAN(.T.),$);
#159= IFCPROPERTYSET('1CSRetqNf6JO5rTADKpfhC',#5,'AISC_EM11_Pset_PieceIdentification','PieceIdentity',(#155,#156,#157,#158));
#160= IFCPROPERTYSINGLEVALUE('MaterialType',$,IFCIDENTIFIER('STEEL'),$);
#161= IFCPROPERTYSINGLEVALUE('MaterialGrade',$,IFCIDENTIFIER('S235JR'),$);
#162= IFCPROPERTYSET('1LaV1Tk$X7qPJwjcPtxTcf',#5,'AISC_EM11_Pset_Material',$,(#160,#161));
#163= IFCPROPERTYSINGLEVALUE('SkewedAngleY',$,IFCREAL(0.),$);
#164= IFCPROPERTYSINGLEVALUE('SkewedAngleX',$,IFCREAL(0.00011),$);
#165= IFCPROPERTYSET('3Nk$TRAor66QP7nKelGCQx',#5,'AISC_EM11_Pset_SkewedEnd',$,(#163,#164));
#166= IFCPROPERTYSINGLEVALUE('SkewedAngleX',$,IFCREAL(2.E-05),$);
#167= IFCPROPERTYSET('1FhSgAn9L2Be_$wwpnSGUt',#5,'AISC_EM11_Pset_SkewedEnd_2',$,(#163,#166));
#168= IFCMATERIAL('STEEL/S235JR');
#169= IFCRELAGGREGATES('3YGXmhqETCTAj3Lh$b2A6k',#5,$,$,#37,(#39));
#170= IFCRELAGGREGATES('2qYp2z6WlUlS$LdzHtKSO0',#5,$,$,#39,(#41));
#171= IFCRELAGGREGATES('0GbWfc5Ov8KAXOiPu4fiNf',#5,$,$,#41,(#43));
#172= IFCRELCONTAINEDINSPATIALSTRUCTURE('3AjKOaihTE99vH5xAz2SLU',#5,$,$,(#72),#43);
#173= IFCRELDEFINESBYPROPERTIES('0_WqNMHRnD297KfvZ9Pz7t',#5,$,$,(#111,#103,#94,#81),#87);
#174= IFCRELDEFINESBYPROPERTIES('1ILXwzoO5Bh9iD39hESlBF',#5,$,$,(#153,#134),#139);
#175= IFCRELDEFINESBYPROPERTIES('2D3lFFqR97tgcxcy0CoJMZ',#5,$,$,(#72),#159);
#176= IFCRELDEFINESBYPROPERTIES('13Ewr9mqb48RoBgTcR2O53',#5,$,$,(#72),#162);
#177= IFCRELDEFINESBYPROPERTIES('2fFvTsGQDBdQ4wREZvN6cO',#5,$,$,(#72),#165);
#178= IFCRELDEFINESBYPROPERTIES('2YrgPanuX5097V4IC5foS3',#5,$,$,(#72),#167);
#179= IFCRELASSOCIATESMATERIAL('3lcsJZDuTAZPF9UQ4PDEus',#5,$,$,(#72),#168);
ENDSEC;

END-ISO-10303-21;
