ISO-10303-21;
HEADER;
FILE_DESCRIPTION(('ViewDefinition[AISC_Steel_Detailing]', 'Option [BaseQuantities:Off]', 'Option [GridExport:On]', 'Option [Assemblies:Off]', 'Option [Bolts:On]', 'Option [Rebars:On]', 'Option [PourObjects:Off]', 'Option [Welds:On]', 'Option [SurfaceTreatments:On]', 'Option [LocationBy:0]', 'Option [ViewColors:Off]', 'Option [SectionedSpine:Off]', 'Option [PropertySets:On]', 'Option [Export all:Off]'),'2;1');
FILE_NAME('b_8_Qty_2.ifc','2026-05-16T11:53:17',('GIOVANNIPC\\gcorrea'),('Structural Designer'),'IFC Database version: Work','Tekla Structures 2020 Service Pack 5, IFC Export Version: 4.0.0.0 Dec  7 2020','');
FILE_SCHEMA(('IFC2X3'));
ENDSEC;

DATA;
#1= IFCPERSON('GIOVANNIPC\\gcorrea','Undefined',$,$,$,$,$,$);
#2= IFCORGANIZATION($,'Trimble Solutions Corporation',$,$,$);
#3= IFCPERSONANDORGANIZATION(#1,#2,$);
#4= IFCAPPLICATION(#2,'2020 Service Pack 5','Tekla Structures','Multi material modeling');
#5= IFCOWNERHISTORY(#3,#4,$,.NOCHANGE.,$,$,$,1778950397);
#6= IFCCARTESIANPOINT((0.,0.,0.));
#7= IFCDIRECTION((1.,0.,0.));
#8= IFCDIRECTION((0.,1.,0.));
#9= IFCDIRECTION((0.,0.,1.));
#10= IFCAXIS2PLACEMENT3D(#6,#9,#7);
#11= IFCGEOMETRICREPRESENTATIONCONTEXT($,'Model',3,1.E-05,#10,$);
#12= IFCGEOMETRICREPRESENTATIONSUBCONTEXT('Body','Model',*,*,*,*,#11,$,.MODEL_VIEW.,$);
#13= IFCGEOMETRICREPRESENTATIONSUBCONTEXT('Axis','Model',*,*,*,*,#11,$,.GRAPH_VIEW.,$);
#14= IFCGEOMETRICREPRESENTATIONSUBCONTEXT('FootPrint','Model',*,*,*,*,#11,$,.MODEL_VIEW.,$);
#15= IFCSIUNIT(*,.LENGTHUNIT.,.MILLI.,.METRE.);
#16= IFCMEASUREWITHUNIT(IFCRATIOMEASURE(304.8),#15);
#17= IFCDIMENSIONALEXPONENTS(1,0,0,0,0,0,0);
#18= IFCCONVERSIONBASEDUNIT(#17,.LENGTHUNIT.,'FOOT',#16);
#19= IFCSIUNIT(*,.AREAUNIT.,$,.SQUARE_METRE.);
#20= IFCMEASUREWITHUNIT(IFCRATIOMEASURE(0.09290304),#19);
#21= IFCDIMENSIONALEXPONENTS(2,0,0,0,0,0,0);
#22= IFCCONVERSIONBASEDUNIT(#21,.AREAUNIT.,'SQUARE FOOT',#20);
#23= IFCSIUNIT(*,.VOLUMEUNIT.,$,.CUBIC_METRE.);
#24= IFCMEASUREWITHUNIT(IFCRATIOMEASURE(0.028316846592),#23);
#25= IFCDIMENSIONALEXPONENTS(3,0,0,0,0,0,0);
#26= IFCCONVERSIONBASEDUNIT(#25,.VOLUMEUNIT.,'CUBIC FOOT',#24);
#27= IFCSIUNIT(*,.MASSUNIT.,.KILO.,.GRAM.);
#28= IFCSIUNIT(*,.TIMEUNIT.,$,.SECOND.);
#29= IFCSIUNIT(*,.PLANEANGLEUNIT.,$,.RADIAN.);
#30= IFCMEASUREWITHUNIT(IFCRATIOMEASURE(0.0174532925199433),#29);
#31= IFCDIMENSIONALEXPONENTS(0,0,0,0,0,0,0);
#32= IFCCONVERSIONBASEDUNIT(#31,.PLANEANGLEUNIT.,'DEGREE',#30);
#33= IFCSIUNIT(*,.SOLIDANGLEUNIT.,$,.STERADIAN.);
#34= IFCSIUNIT(*,.THERMODYNAMICTEMPERATUREUNIT.,$,.DEGREE_CELSIUS.);
#35= IFCSIUNIT(*,.LUMINOUSINTENSITYUNIT.,$,.LUMEN.);
#36= IFCUNITASSIGNMENT((#15,#19,#23,#27,#28,#29,#33,#34,#35));
#37= IFCPROJECT('2G7ZFDNE16yBDU14FA92Me',#5,'Proyecto',$,$,$,$,(#11),#36);
#38= IFCLOCALPLACEMENT($,#10);
#39= IFCSITE('2xvEzEinjBTea80yOTcujY',#5,'Obra',$,$,#38,$,$,.ELEMENT.,$,$,$,$,$);
#40= IFCLOCALPLACEMENT(#38,#10);
#41= IFCBUILDING('2NLMntnXTDRACLZ5X4fbFH',#5,'Undefined',$,$,#40,$,$,.ELEMENT.,$,$,$);
#42= IFCLOCALPLACEMENT(#40,#10);
#43= IFCBUILDINGSTOREY('29hdEUCErFze9E_VIAceOd',#5,'Undefined',$,$,#42,$,$,.ELEMENT.,0.);
#44= IFCOWNERHISTORY(#3,#4,$,.NOCHANGE.,$,$,$,1775494800);
#45= IFCCARTESIANPOINT((82022.3500366211,8120.20655822754,13680.));
#46= IFCAXIS2PLACEMENT3D(#45,#9,#7);
#47= IFCLOCALPLACEMENT(#42,#46);
#48= IFCDIRECTION((1.,0.));
#49= IFCCARTESIANPOINT((0.,0.));
#50= IFCAXIS2PLACEMENT2D(#49,#48);
#51= IFCISHAPEPROFILEDEF(.AREA.,'HEA450',#50,300.,440.,11.5,21.,27.);
#52= IFCDIRECTION((0.,-1.,0.));
#53= IFCDIRECTION((-1.,0.,0.));
#54= IFCCARTESIANPOINT((9254.67103092052,0.,0.));
#55= IFCAXIS2PLACEMENT3D(#54,#53,#52);
#56= IFCEXTRUDEDAREASOLID(#51,#55,#9,9254.16);
#57= IFCCARTESIANPOINT((9254.67103092052,0.,-320.));
#58= IFCAXIS2PLACEMENT3D(#57,#53,#8);
#59= IFCPLANE(#58);
#60= IFCHALFSPACESOLID(#59,.T.);
#61= IFCBOOLEANCLIPPINGRESULT(.DIFFERENCE.,#56,#60);
#62= IFCCARTESIANPOINT((0.511966000223765,0.0934331261414627,-325.));
#63= IFCAXIS2PLACEMENT3D(#62,#7,#52);
#64= IFCPLANE(#63);
#65= IFCHALFSPACESOLID(#64,.T.);
#66= IFCBOOLEANCLIPPINGRESULT(.DIFFERENCE.,#61,#65);
#67= IFCSHAPEREPRESENTATION(#12,'Body','Clipping',(#66));
#68= IFCPRODUCTDEFINITIONSHAPE($,$,(#67));
#69= IFCBEAM('1Xl2T7d99Ejf_og0AIfenl',#44,'BEAM','HEA450','HEA450',#47,#68,'ID61bc2747-9c92-4eb6-9fb2-a80292a68c6f');
#70= IFCLOCALPLACEMENT(#42,#46);
#71= IFCRECTANGLEPROFILEDEF(.AREA.,'PL162.8*12',#50,12.,162.8);
#72= IFCDIRECTION((0.,0.,-1.));
#73= IFCCARTESIANPOINT((-15.3979861392145,69.6053777840134,221.));
#74= IFCAXIS2PLACEMENT3D(#73,#72,#7);
#75= IFCEXTRUDEDAREASOLID(#71,#74,#9,442.);
#76= IFCSHAPEREPRESENTATION(#12,'Body','SweptSolid',(#75));
#77= IFCPRODUCTDEFINITIONSHAPE($,$,(#76));
#78= IFCOPENINGELEMENT('0XlvarXCvCxxtIko41kqRM',#5,$,$,'Recess',#70,#77,$);
#79= IFCRELVOIDSELEMENT('1qWVeELYL7PvnZguBsspZ8',#5,$,$,#69,#78);
#80= IFCPROPERTYSINGLEVALUE('FeatureSubTypes',$,$,$);
#81= IFCPROPERTYSINGLEVALUE('RectangleOpeningWidth',$,IFCPOSITIVELENGTHMEASURE(12.),$);
#82= IFCPROPERTYSINGLEVALUE('RectangleOpeningHeight',$,IFCPOSITIVELENGTHMEASURE(162.8),$);
#83= IFCPROPERTYSINGLEVALUE('OpeningDiameter',$,$,$);
#84= IFCPROPERTYSET('10n8$14sz50P4rFkZkfjjD',#5,'AISC_EM11_Pset_Opening/Cope',$,(#80,#81,#82,#83));
#85= IFCLOCALPLACEMENT(#42,#46);
#86= IFCRECTANGLEPROFILEDEF(.AREA.,'PL163.2*12',#50,12.,163.2);
#87= IFCCARTESIANPOINT((-15.3979861392145,-69.396621282036,221.));
#88= IFCAXIS2PLACEMENT3D(#87,#72,#7);
#89= IFCEXTRUDEDAREASOLID(#86,#88,#9,442.);
#90= IFCSHAPEREPRESENTATION(#12,'Body','SweptSolid',(#89));
#91= IFCPRODUCTDEFINITIONSHAPE($,$,(#90));
#92= IFCOPENINGELEMENT('3SNkol7zX8rQHpLPyPh2tw',#5,$,$,'Recess',#85,#91,$);
#93= IFCRELVOIDSELEMENT('27JygP7eH98hpPJZP0V7jn',#5,$,$,#69,#92);
#94= IFCPROPERTYSINGLEVALUE('RectangleOpeningHeight',$,IFCPOSITIVELENGTHMEASURE(163.2),$);
#95= IFCPROPERTYSET('31LpDWGJ59bhdjqJnqileU',#5,'AISC_EM11_Pset_Opening/Cope',$,(#80,#81,#94,#83));
#96= IFCLOCALPLACEMENT(#42,#46);
#97= IFCRECTANGLEPROFILEDEF(.AREA.,'PL108*12.1',#50,12.1,108.);
#98= IFCCARTESIANPOINT((-15.4386465756543,43.2226929130647,226.));
#99= IFCAXIS2PLACEMENT3D(#98,#72,#7);
#100= IFCEXTRUDEDAREASOLID(#97,#99,#9,452.);
#101= IFCSHAPEREPRESENTATION(#12,'Body','SweptSolid',(#100));
#102= IFCPRODUCTDEFINITIONSHAPE($,$,(#101));
#103= IFCOPENINGELEMENT('1KzQch3614FA96KvSbXoeO',#5,$,$,'Recess',#96,#102,$);
#104= IFCRELVOIDSELEMENT('3yJnR9fZnB_epVbkz4$mRO',#5,$,$,#69,#103);
#105= IFCPROPERTYSINGLEVALUE('RectangleOpeningWidth',$,IFCPOSITIVELENGTHMEASURE(12.1),$);
#106= IFCPROPERTYSINGLEVALUE('RectangleOpeningHeight',$,IFCPOSITIVELENGTHMEASURE(108.),$);
#107= IFCPROPERTYSET('0NrG9NhS94jQ0b_dBf6GjL',#5,'AISC_EM11_Pset_Opening/Cope',$,(#80,#105,#106,#83));
#108= IFCLOCALPLACEMENT(#42,#46);
#109= IFCRECTANGLEPROFILEDEF(.AREA.,'PL109.1*12.1',#50,12.1,109.1);
#110= IFCCARTESIANPOINT((-15.4386465756543,-41.3397328922929,226.));
#111= IFCAXIS2PLACEMENT3D(#110,#72,#7);
#112= IFCEXTRUDEDAREASOLID(#109,#111,#9,452.);
#113= IFCSHAPEREPRESENTATION(#12,'Body','SweptSolid',(#112));
#114= IFCPRODUCTDEFINITIONSHAPE($,$,(#113));
#115= IFCOPENINGELEMENT('0ofsLtRwfF7fgltR9WJ2yf',#5,$,$,'Recess',#108,#114,$);
#116= IFCRELVOIDSELEMENT('2meHCJwVTE4OXUomIIzLLI',#5,$,$,#69,#115);
#117= IFCPROPERTYSINGLEVALUE('RectangleOpeningHeight',$,IFCPOSITIVELENGTHMEASURE(109.1),$);
#118= IFCPROPERTYSET('08hs5cctj1MAQHfSHAGPVx',#5,'AISC_EM11_Pset_Opening/Cope',$,(#80,#105,#117,#83));
#119= IFCLOCALPLACEMENT(#42,#46);
#120= IFCCARTESIANPOINT((9270.66226716925,-69.399829864502,221.));
#121= IFCAXIS2PLACEMENT3D(#120,#72,#53);
#122= IFCEXTRUDEDAREASOLID(#86,#121,#9,442.);
#123= IFCSHAPEREPRESENTATION(#12,'Body','SweptSolid',(#122));
#124= IFCPRODUCTDEFINITIONSHAPE($,$,(#123));
#125= IFCOPENINGELEMENT('2_GVlHJEP2bQdptUfRIYrd',#5,$,$,'Recess',#119,#124,$);
#126= IFCRELVOIDSELEMENT('1gpNE0G5z5gfiozGXv0hRr',#5,$,$,#69,#125);
#127= IFCLOCALPLACEMENT(#42,#46);
#128= IFCCARTESIANPOINT((9270.66226716925,69.600170135498,221.));
#129= IFCAXIS2PLACEMENT3D(#128,#72,#53);
#130= IFCEXTRUDEDAREASOLID(#71,#129,#9,442.);
#131= IFCSHAPEREPRESENTATION(#12,'Body','SweptSolid',(#130));
#132= IFCPRODUCTDEFINITIONSHAPE($,$,(#131));
#133= IFCOPENINGELEMENT('0YHZvRM3T4IQpIZ3OqkPVH',#5,$,$,'Recess',#127,#132,$);
#134= IFCRELVOIDSELEMENT('3LIvdxQhTBfgFLy7XrZYXj',#5,$,$,#69,#133);
#135= IFCLOCALPLACEMENT(#42,#46);
#136= IFCRECTANGLEPROFILEDEF(.AREA.,'PL108*12',#50,12.,108.);
#137= IFCCARTESIANPOINT((9270.65350341797,-40.78034651499,226.));
#138= IFCAXIS2PLACEMENT3D(#137,#72,#53);
#139= IFCEXTRUDEDAREASOLID(#136,#138,#9,452.);
#140= IFCSHAPEREPRESENTATION(#12,'Body','SweptSolid',(#139));
#141= IFCPRODUCTDEFINITIONSHAPE($,$,(#140));
#142= IFCOPENINGELEMENT('3kZoRIYkLAget7EInfSFcS',#5,$,$,'Recess',#135,#141,$);
#143= IFCRELVOIDSELEMENT('1CdZ26StT8TPR0mgv7ciDs',#5,$,$,#69,#142);
#144= IFCPROPERTYSET('1L4rjBfvnF48Mo4iyaZplf',#5,'AISC_EM11_Pset_Opening/Cope',$,(#80,#81,#106,#83));
#145= IFCLOCALPLACEMENT(#42,#46);
#146= IFCCARTESIANPOINT((9270.65350341797,43.21965348501,226.));
#147= IFCAXIS2PLACEMENT3D(#146,#72,#53);
#148= IFCEXTRUDEDAREASOLID(#136,#147,#9,452.);
#149= IFCSHAPEREPRESENTATION(#12,'Body','SweptSolid',(#148));
#150= IFCPRODUCTDEFINITIONSHAPE($,$,(#149));
#151= IFCOPENINGELEMENT('04gNCS4QTDhvFRQjN$RQKv',#5,$,$,'Recess',#145,#150,$);
#152= IFCRELVOIDSELEMENT('2njIm_IBfCxBy6I1egwA4u',#5,$,$,#69,#151);
#153= IFCCARTESIANPOINT((82067.9432664795,8120.78355399021,13460.));
#154= IFCAXIS2PLACEMENT3D(#153,#52,#7);
#155= IFCLOCALPLACEMENT(#42,#154);
#156= IFCCIRCLEPROFILEDEF(.AREA.,$,#50,11.5);
#157= IFCCARTESIANPOINT((0.,-0.1,0.));
#158= IFCAXIS2PLACEMENT3D(#157,#8,#7);
#159= IFCEXTRUDEDAREASOLID(#156,#158,#9,21.2);
#160= IFCSHAPEREPRESENTATION(#12,'Body','SweptSolid',(#159));
#161= IFCREPRESENTATIONMAP(#10,#160);
#162= IFCCARTESIANPOINT((0.,0.,75.));
#163= IFCCARTESIANTRANSFORMATIONOPERATOR3D($,$,#162,$,$);
#164= IFCMAPPEDITEM(#161,#163);
#165= IFCCARTESIANPOINT((75.,0.,75.));
#166= IFCCARTESIANTRANSFORMATIONOPERATOR3D($,$,#165,$,$);
#167= IFCMAPPEDITEM(#161,#166);
#168= IFCCARTESIANPOINT((150.,0.,75.));
#169= IFCCARTESIANTRANSFORMATIONOPERATOR3D($,$,#168,$,$);
#170= IFCMAPPEDITEM(#161,#169);
#171= IFCCARTESIANPOINT((225.,0.,75.));
#172= IFCCARTESIANTRANSFORMATIONOPERATOR3D($,$,#171,$,$);
#173= IFCMAPPEDITEM(#161,#172);
#174= IFCCARTESIANPOINT((300.,0.,75.));
#175= IFCCARTESIANTRANSFORMATIONOPERATOR3D($,$,#174,$,$);
#176= IFCMAPPEDITEM(#161,#175);
#177= IFCCARTESIANPOINT((375.,0.,75.));
#178= IFCCARTESIANTRANSFORMATIONOPERATOR3D($,$,#177,$,$);
#179= IFCMAPPEDITEM(#161,#178);
#180= IFCCARTESIANPOINT((450.,0.,75.));
#181= IFCCARTESIANTRANSFORMATIONOPERATOR3D($,$,#180,$,$);
#182= IFCMAPPEDITEM(#161,#181);
#183= IFCCARTESIANPOINT((525.,0.,75.));
#184= IFCCARTESIANTRANSFORMATIONOPERATOR3D($,$,#183,$,$);
#185= IFCMAPPEDITEM(#161,#184);
#186= IFCCARTESIANPOINT((600.,0.,75.));
#187= IFCCARTESIANTRANSFORMATIONOPERATOR3D($,$,#186,$,$);
#188= IFCMAPPEDITEM(#161,#187);
#189= IFCCARTESIANPOINT((675.,0.,75.));
#190= IFCCARTESIANTRANSFORMATIONOPERATOR3D($,$,#189,$,$);
#191= IFCMAPPEDITEM(#161,#190);
#192= IFCCARTESIANPOINT((0.,0.,-75.));
#193= IFCCARTESIANTRANSFORMATIONOPERATOR3D($,$,#192,$,$);
#194= IFCMAPPEDITEM(#161,#193);
#195= IFCCARTESIANPOINT((75.,0.,-75.));
#196= IFCCARTESIANTRANSFORMATIONOPERATOR3D($,$,#195,$,$);
#197= IFCMAPPEDITEM(#161,#196);
#198= IFCCARTESIANPOINT((150.,0.,-75.));
#199= IFCCARTESIANTRANSFORMATIONOPERATOR3D($,$,#198,$,$);
#200= IFCMAPPEDITEM(#161,#199);
#201= IFCCARTESIANPOINT((225.,0.,-75.));
#202= IFCCARTESIANTRANSFORMATIONOPERATOR3D($,$,#201,$,$);
#203= IFCMAPPEDITEM(#161,#202);
#204= IFCCARTESIANPOINT((300.,0.,-75.));
#205= IFCCARTESIANTRANSFORMATIONOPERATOR3D($,$,#204,$,$);
#206= IFCMAPPEDITEM(#161,#205);
#207= IFCCARTESIANPOINT((375.,0.,-75.));
#208= IFCCARTESIANTRANSFORMATIONOPERATOR3D($,$,#207,$,$);
#209= IFCMAPPEDITEM(#161,#208);
#210= IFCCARTESIANPOINT((450.,0.,-75.));
#211= IFCCARTESIANTRANSFORMATIONOPERATOR3D($,$,#210,$,$);
#212= IFCMAPPEDITEM(#161,#211);
#213= IFCCARTESIANPOINT((525.,0.,-75.));
#214= IFCCARTESIANTRANSFORMATIONOPERATOR3D($,$,#213,$,$);
#215= IFCMAPPEDITEM(#161,#214);
#216= IFCCARTESIANPOINT((600.,0.,-75.));
#217= IFCCARTESIANTRANSFORMATIONOPERATOR3D($,$,#216,$,$);
#218= IFCMAPPEDITEM(#161,#217);
#219= IFCCARTESIANPOINT((675.,0.,-75.));
#220= IFCCARTESIANTRANSFORMATIONOPERATOR3D($,$,#219,$,$);
#221= IFCMAPPEDITEM(#161,#220);
#222= IFCSHAPEREPRESENTATION(#12,'Body','MappedRepresentation',(#164,#167,#170,#173,#176,#179,#182,#185,#188,#191,#194,#197,#200,#203,#206,#209,#212,#215,#218,#221));
#223= IFCPRODUCTDEFINITIONSHAPE($,$,(#222));
#224= IFCOPENINGELEMENT('1uKnBtuzT5FR8UpXStUQ_Z',#5,$,$,'Opening',#155,#223,$);
#225= IFCRELVOIDSELEMENT('0u9KCM$_X8puuDV0HzA8_P',#5,'Drill Hole',$,#69,#224);
#226= IFCPROPERTYSINGLEVALUE('FeatureSubTypes',$,IFCLABEL('TORNILLO'),$);
#227= IFCPROPERTYSINGLEVALUE('RectangleOpeningWidth',$,$,$);
#228= IFCPROPERTYSINGLEVALUE('RectangleOpeningHeight',$,$,$);
#229= IFCPROPERTYSET('1Tjz3LDVDDMv9AT4ybbkgx',#5,'AISC_EM11_Pset_Opening/Cope',$,(#226,#227,#228,#83));
#230= IFCCARTESIANPOINT((82067.9432664795,8120.78355399021,13900.));
#231= IFCAXIS2PLACEMENT3D(#230,#8,#7);
#232= IFCLOCALPLACEMENT(#42,#231);
#233= IFCSHAPEREPRESENTATION(#12,'Body','MappedRepresentation',(#194,#197,#200,#203,#206,#209,#212,#215,#218,#221,#164,#167,#170,#173,#176,#179,#182,#185,#188,#191));
#234= IFCPRODUCTDEFINITIONSHAPE($,$,(#233));
#235= IFCOPENINGELEMENT('2$1MvUSnT0reVO6SYLMfZ6',#5,$,$,'Opening',#232,#234,$);
#236= IFCRELVOIDSELEMENT('1CHKf$cCD13fk9e4lvS3dL',#5,'Drill Hole',$,#69,#235);
#237= IFCCARTESIANPOINT((82022.9432855341,8120.2097883837,13900.));
#238= IFCAXIS2PLACEMENT3D(#237,#7,#72);
#239= IFCLOCALPLACEMENT(#42,#238);
#240= IFCCIRCLEPROFILEDEF(.AREA.,$,#50,12.5);
#241= IFCCARTESIANPOINT((0.,-5.8532301561605,0.));
#242= IFCAXIS2PLACEMENT3D(#241,#8,#7);
#243= IFCEXTRUDEDAREASOLID(#240,#242,#9,11.7);
#244= IFCSHAPEREPRESENTATION(#12,'Body','SweptSolid',(#243));
#245= IFCREPRESENTATIONMAP(#10,#244);
#246= IFCCARTESIANPOINT((107.5,0.,45.));
#247= IFCCARTESIANTRANSFORMATIONOPERATOR3D($,$,#246,$,$);
#248= IFCMAPPEDITEM(#245,#247);
#249= IFCCARTESIANPOINT((182.5,0.,45.));
#250= IFCCARTESIANTRANSFORMATIONOPERATOR3D($,$,#249,$,$);
#251= IFCMAPPEDITEM(#245,#250);
#252= IFCCARTESIANPOINT((257.5,0.,45.));
#253= IFCCARTESIANTRANSFORMATIONOPERATOR3D($,$,#252,$,$);
#254= IFCMAPPEDITEM(#245,#253);
#255= IFCCARTESIANPOINT((332.5,0.,45.));
#256= IFCCARTESIANTRANSFORMATIONOPERATOR3D($,$,#255,$,$);
#257= IFCMAPPEDITEM(#245,#256);
#258= IFCSHAPEREPRESENTATION(#12,'Body','MappedRepresentation',(#248,#251,#254,#257));
#259= IFCPRODUCTDEFINITIONSHAPE($,$,(#258));
#260= IFCOPENINGELEMENT('1yZEStQj14meVypYV$lS_C',#5,$,$,'Opening',#239,#259,$);
#261= IFCRELVOIDSELEMENT('1zwyhnD2T2HQKfLYkmh7ZD',#5,'Drill Hole',$,#69,#260);
#262= IFCCARTESIANPOINT((91232.021048488,8120.78033793405,13460.));
#263= IFCDIRECTION((-7.12890000286279E-05,0.999999997458939,0.));
#264= IFCDIRECTION((-0.999999997458939,-7.12890000330456E-05,0.));
#265= IFCAXIS2PLACEMENT3D(#262,#263,#264);
#266= IFCLOCALPLACEMENT(#42,#265);
#267= IFCSHAPEREPRESENTATION(#12,'Body','MappedRepresentation',(#164,#167,#170,#173,#176,#179,#182,#185,#188,#191,#194,#197,#200,#203,#206,#209,#212,#215,#218,#221));
#268= IFCPRODUCTDEFINITIONSHAPE($,$,(#267));
#269= IFCOPENINGELEMENT('38kT0w9119fOjsrMArvob0',#5,$,$,'Opening',#266,#268,$);
#270= IFCRELVOIDSELEMENT('1r7lELufL3jvlvWMoZOLdN',#5,'Drill Hole',$,#69,#269);
#271= IFCCARTESIANPOINT((91232.021048488,8120.78033793405,13900.));
#272= IFCDIRECTION((7.12890000286279E-05,-0.999999997458939,0.));
#273= IFCAXIS2PLACEMENT3D(#271,#272,#264);
#274= IFCLOCALPLACEMENT(#42,#273);
#275= IFCSHAPEREPRESENTATION(#12,'Body','MappedRepresentation',(#194,#197,#200,#203,#206,#209,#212,#215,#218,#221,#164,#167,#170,#173,#176,#179,#182,#185,#188,#191));
#276= IFCPRODUCTDEFINITIONSHAPE($,$,(#275));
#277= IFCOPENINGELEMENT('3b28VaTsr1U8_FBNPYY5t5',#5,$,$,'Opening',#274,#276,$);
#278= IFCRELVOIDSELEMENT('0yLlQ9Wc5BXvihXheeussX',#5,'Drill Hole',$,#69,#277);
#279= IFCCARTESIANPOINT((91277.0210675416,8120.20655822754,13900.));
#280= IFCAXIS2PLACEMENT3D(#279,#53,#72);
#281= IFCLOCALPLACEMENT(#42,#280);
#282= IFCCARTESIANPOINT((0.,-5.85000000000001,0.));
#283= IFCAXIS2PLACEMENT3D(#282,#8,#7);
#284= IFCEXTRUDEDAREASOLID(#240,#283,#9,11.7);
#285= IFCSHAPEREPRESENTATION(#12,'Body','SweptSolid',(#284));
#286= IFCREPRESENTATIONMAP(#10,#285);
#287= IFCMAPPEDITEM(#286,#247);
#288= IFCMAPPEDITEM(#286,#250);
#289= IFCMAPPEDITEM(#286,#253);
#290= IFCMAPPEDITEM(#286,#256);
#291= IFCSHAPEREPRESENTATION(#12,'Body','MappedRepresentation',(#287,#288,#289,#290));
#292= IFCPRODUCTDEFINITIONSHAPE($,$,(#291));
#293= IFCOPENINGELEMENT('36bSz8qKnFXub_gqBVj8Wq',#5,$,$,'Opening',#281,#292,$);
#294= IFCRELVOIDSELEMENT('0_ZgeQH7vATAY$BtE4eLJZ',#5,'Drill Hole',$,#69,#293);
#295= IFCPROPERTYSINGLEVALUE('PieceMark',$,IFCIDENTIFIER('BEAM'),$);
#296= IFCPROPERTYSINGLEVALUE('IndicationMark',$,IFCIDENTIFIER('b/8'),$);
#297= IFCPROPERTYSINGLEVALUE('PrelimMark',$,IFCIDENTIFIER(''),$);
#298= IFCPROPERTYSINGLEVALUE('MainPieceTag',$,IFCBOOLEAN(.T.),$);
#299= IFCPROPERTYSET('30iuQn_r5ACOaiZNUmyAHD',#5,'AISC_EM11_Pset_PieceIdentification','PieceIdentity',(#295,#296,#297,#298));
#300= IFCPROPERTYSINGLEVALUE('MaterialType',$,IFCIDENTIFIER('STEEL'),$);
#301= IFCPROPERTYSINGLEVALUE('MaterialGrade',$,IFCIDENTIFIER('S235JR'),$);
#302= IFCPROPERTYSET('1mqTUXY6vF_Q9bDXfkaTJA',#5,'AISC_EM11_Pset_Material',$,(#300,#301));
#303= IFCPROPERTYSINGLEVALUE('SkewedAngleY',$,IFCREAL(0.),$);
#304= IFCPROPERTYSINGLEVALUE('SkewedAngleX',$,IFCREAL(0.),$);
#305= IFCPROPERTYSET('2WIC_ip4X6IQ1giQQsYWoQ',#5,'AISC_EM11_Pset_SkewedEnd',$,(#303,#304));
#306= IFCPROPERTYSET('1lgfaKX0rFxh_Svgh3eXFz',#5,'AISC_EM11_Pset_SkewedEnd_2',$,(#303,#304));
#307= IFCMATERIAL('STEEL/S235JR');
#308= IFCRELAGGREGATES('2Vh3rbVYT4LAFIOyYxPwNp',#5,$,$,#37,(#39));
#309= IFCRELAGGREGATES('2nzL7tnqlMdSXagEqDhCf5',#5,$,$,#39,(#41));
#310= IFCRELAGGREGATES('33sVBMNRH6W9Kd1pPLmC3y',#5,$,$,#41,(#43));
#311= IFCRELCONTAINEDINSPATIALSTRUCTURE('1$4SHbcY93BP$g3Po8_vma',#5,$,$,(#69),#43);
#312= IFCRELDEFINESBYPROPERTIES('3BJ$nUTfj8d8StEhRjdzNs',#5,$,$,(#133,#78),#84);
#313= IFCRELDEFINESBYPROPERTIES('2dUkfvPXrD0hpHlpvuy$iM',#5,$,$,(#125,#92),#95);
#314= IFCRELDEFINESBYPROPERTIES('0sGX4tyj13Hh940z$GV3yd',#5,$,$,(#103),#107);
#315= IFCRELDEFINESBYPROPERTIES('3JAASMjGn7fPFWw8oJOUyw',#5,$,$,(#115),#118);
#316= IFCRELDEFINESBYPROPERTIES('0oCXK7YuT4QPk7iObsjxSv',#5,$,$,(#151,#142),#144);
#317= IFCRELDEFINESBYPROPERTIES('3sid_TF3fA59AtHEcaYrNk',#5,$,$,(#293,#277,#269,#260,#235,#224),#229);
#318= IFCRELDEFINESBYPROPERTIES('1PMUVOIx51JBbcEkUbdErF',#5,$,$,(#69),#299);
#319= IFCRELDEFINESBYPROPERTIES('2U4rDjHrX5JRDP_RsFAahp',#5,$,$,(#69),#302);
#320= IFCRELDEFINESBYPROPERTIES('1tJY7lh358tgtU6IBG0$6X',#5,$,$,(#69),#305);
#321= IFCRELDEFINESBYPROPERTIES('3CxM$pVEDAzxtpRbja203c',#5,$,$,(#69),#306);
#322= IFCRELASSOCIATESMATERIAL('3Mbiogf8n9QBLtV$jxuCMx',#5,$,$,(#69),#307);
ENDSEC;

END-ISO-10303-21;
