ISO-10303-21;
HEADER;
FILE_DESCRIPTION(('ViewDefinition[AISC_Steel_Detailing]', 'Option [BaseQuantities:Off]', 'Option [GridExport:On]', 'Option [Assemblies:Off]', 'Option [Bolts:On]', 'Option [Rebars:On]', 'Option [PourObjects:Off]', 'Option [Welds:On]', 'Option [SurfaceTreatments:On]', 'Option [LocationBy:0]', 'Option [ViewColors:Off]', 'Option [SectionedSpine:Off]', 'Option [PropertySets:On]', 'Option [Export all:Off]'),'2;1');
FILE_NAME('b_906_Qty_1.ifc','2026-05-16T11:52:57',('GIOVANNIPC\\gcorrea'),('Structural Designer'),'IFC Database version: Work','Tekla Structures 2020 Service Pack 5, IFC Export Version: 4.0.0.0 Dec  7 2020','');
FILE_SCHEMA(('IFC2X3'));
ENDSEC;

DATA;
#1= IFCPERSON('GIOVANNIPC\\gcorrea','Undefined',$,$,$,$,$,$);
#2= IFCORGANIZATION($,'Trimble Solutions Corporation',$,$,$);
#3= IFCPERSONANDORGANIZATION(#1,#2,$);
#4= IFCAPPLICATION(#2,'2020 Service Pack 5','Tekla Structures','Multi material modeling');
#5= IFCOWNERHISTORY(#3,#4,$,.NOCHANGE.,$,$,$,1778950377);
#6= IFCCARTESIANPOINT((0.,0.,0.));
#7= IFCDIRECTION((1.,0.,0.));
#8= IFCDIRECTION((0.,1.,0.));
#9= IFCDIRECTION((0.,0.,1.));
#10= IFCAXIS2PLACEMENT3D(#6,#9,#7);
#11= IFCGEOMETRICREPRESENTATIONCONTEXT($,'Model',3,1.E-05,#10,$);
#12= IFCGEOMETRICREPRESENTATIONSUBCONTEXT('Body','Model',*,*,*,*,#11,$,.MODEL_VIEW.,$);
#13= IFCGEOMETRICREPRESENTATIONSUBCONTEXT('Axis','Model',*,*,*,*,#11,$,.GRAPH_VIEW.,$);
#14= IFCGEOMETRICREPRESENTATIONSUBCONTEXT('FootPrint','Model',*,*,*,*,#11,$,.MODEL_VIEW.,$);
#15= IFCSIUNIT(*,.LENGTHUNIT.,.MILLI.,.METRE.);
#16= IFCMEASUREWITHUNIT(IFCRATIOMEASURE(304.8),#15);
#17= IFCDIMENSIONALEXPONENTS(1,0,0,0,0,0,0);
#18= IFCCONVERSIONBASEDUNIT(#17,.LENGTHUNIT.,'FOOT',#16);
#19= IFCSIUNIT(*,.AREAUNIT.,$,.SQUARE_METRE.);
#20= IFCMEASUREWITHUNIT(IFCRATIOMEASURE(0.09290304),#19);
#21= IFCDIMENSIONALEXPONENTS(2,0,0,0,0,0,0);
#22= IFCCONVERSIONBASEDUNIT(#21,.AREAUNIT.,'SQUARE FOOT',#20);
#23= IFCSIUNIT(*,.VOLUMEUNIT.,$,.CUBIC_METRE.);
#24= IFCMEASUREWITHUNIT(IFCRATIOMEASURE(0.028316846592),#23);
#25= IFCDIMENSIONALEXPONENTS(3,0,0,0,0,0,0);
#26= IFCCONVERSIONBASEDUNIT(#25,.VOLUMEUNIT.,'CUBIC FOOT',#24);
#27= IFCSIUNIT(*,.MASSUNIT.,.KILO.,.GRAM.);
#28= IFCSIUNIT(*,.TIMEUNIT.,$,.SECOND.);
#29= IFCSIUNIT(*,.PLANEANGLEUNIT.,$,.RADIAN.);
#30= IFCMEASUREWITHUNIT(IFCRATIOMEASURE(0.0174532925199433),#29);
#31= IFCDIMENSIONALEXPONENTS(0,0,0,0,0,0,0);
#32= IFCCONVERSIONBASEDUNIT(#31,.PLANEANGLEUNIT.,'DEGREE',#30);
#33= IFCSIUNIT(*,.SOLIDANGLEUNIT.,$,.STERADIAN.);
#34= IFCSIUNIT(*,.THERMODYNAMICTEMPERATUREUNIT.,$,.DEGREE_CELSIUS.);
#35= IFCSIUNIT(*,.LUMINOUSINTENSITYUNIT.,$,.LUMEN.);
#36= IFCUNITASSIGNMENT((#15,#19,#23,#27,#28,#29,#33,#34,#35));
#37= IFCPROJECT('2G7ZFDNE16yBDU14FA92Me',#5,'Proyecto',$,$,$,$,(#11),#36);
#38= IFCLOCALPLACEMENT($,#10);
#39= IFCSITE('2xvEzEinjBTea80yOTcujY',#5,'Obra',$,$,#38,$,$,.ELEMENT.,$,$,$,$,$);
#40= IFCLOCALPLACEMENT(#38,#10);
#41= IFCBUILDING('3O5FsUIh16_xCYuI99tPIU',#5,'Undefined',$,$,#40,$,$,.ELEMENT.,$,$,$);
#42= IFCLOCALPLACEMENT(#40,#10);
#43= IFCBUILDINGSTOREY('29hdEUCErFze9E_VIAceOd',#5,'Undefined',$,$,#42,$,$,.ELEMENT.,0.);
#44= IFCOWNERHISTORY(#3,#4,$,.NOCHANGE.,$,$,$,1775505600);
#45= IFCCARTESIANPOINT((73999.9994526071,23896.8842861561,13680.));
#46= IFCAXIS2PLACEMENT3D(#45,#9,#7);
#47= IFCLOCALPLACEMENT(#42,#46);
#48= IFCDIRECTION((1.,0.));
#49= IFCCARTESIANPOINT((0.,0.));
#50= IFCAXIS2PLACEMENT2D(#49,#48);
#51= IFCISHAPEPROFILEDEF(.AREA.,'HEA450',#50,300.,440.,11.5,21.,27.);
#52= IFCDIRECTION((-1.32348898008484E-23,-1.,0.));
#53= IFCDIRECTION((-1.,1.32348898008484E-23,0.));
#54= IFCCARTESIANPOINT((2484.25225050427,-3.28788047729337E-20,1.81898940354586E-12));
#55= IFCAXIS2PLACEMENT3D(#54,#53,#52);
#56= IFCEXTRUDEDAREASOLID(#51,#55,#9,2484.25);
#57= IFCDIRECTION((-0.999999999999221,-1.24800000048628E-06,0.));
#58= IFCCARTESIANPOINT((2484.25219165742,-1.13572823465802E-05,-319.999999999998));
#59= IFCDIRECTION((-1.24800000048628E-06,0.999999999999221,0.));
#60= IFCAXIS2PLACEMENT3D(#58,#57,#59);
#61= IFCPLANE(#60);
#62= IFCHALFSPACESOLID(#61,.T.);
#63= IFCBOOLEANCLIPPINGRESULT(.DIFFERENCE.,#56,#62);
#64= IFCCARTESIANPOINT((0.,1.12095221993513E-06,1000.));
#65= IFCAXIS2PLACEMENT3D(#64,#53,#52);
#66= IFCPLANE(#65);
#67= IFCHALFSPACESOLID(#66,.F.);
#68= IFCBOOLEANCLIPPINGRESULT(.DIFFERENCE.,#63,#67);
#69= IFCSHAPEREPRESENTATION(#12,'Body','Clipping',(#68));
#70= IFCPRODUCTDEFINITIONSHAPE($,$,(#69));
#71= IFCBEAM('3nHcwoIEbDSh2SrtPthUpS',#44,'BEAM','HEA450','HEA450',#47,#70,'IDf1466eb2-48e9-4d72-b09c-d77677adecdc');
#72= IFCLOCALPLACEMENT(#42,#46);
#73= IFCRECTANGLEPROFILEDEF(.AREA.,'PL49*156.3',#50,49.,156.3);
#74= IFCDIRECTION((0.,0.,-1.));
#75= IFCDIRECTION((1.24800000509675E-06,-0.999999999999221,0.));
#76= IFCCARTESIANPOINT((2418.12700318441,151.017994910215,-196.499999999998));
#77= IFCAXIS2PLACEMENT3D(#76,#75,#74);
#78= IFCEXTRUDEDAREASOLID(#73,#77,#9,302.02);
#79= IFCSHAPEREPRESENTATION(#12,'Body','SweptSolid',(#78));
#80= IFCPRODUCTDEFINITIONSHAPE($,$,(#79));
#81= IFCOPENINGELEMENT('2A4DE7jOv30PHm6QEZVxwQ',#5,$,$,'Recess',#72,#80,$);
#82= IFCRELVOIDSELEMENT('1aGZPjFOf5jg63VEp8QlOz',#5,$,$,#71,#81);
#83= IFCPROPERTYSINGLEVALUE('FeatureSubTypes',$,$,$);
#84= IFCPROPERTYSINGLEVALUE('RectangleOpeningWidth',$,IFCPOSITIVELENGTHMEASURE(49.),$);
#85= IFCPROPERTYSINGLEVALUE('RectangleOpeningHeight',$,IFCPOSITIVELENGTHMEASURE(156.3),$);
#86= IFCPROPERTYSINGLEVALUE('OpeningDiameter',$,$,$);
#87= IFCPROPERTYSET('0GpLcCc616wBh01TKTzfUv',#5,'AISC_EM11_Pset_Opening/Cope',$,(#83,#84,#85,#86));
#88= IFCLOCALPLACEMENT(#42,#46);
#89= IFCCARTESIANPOINT((2418.12700318441,151.017994910215,196.500000000002));
#90= IFCAXIS2PLACEMENT3D(#89,#75,#74);
#91= IFCEXTRUDEDAREASOLID(#73,#90,#9,302.02);
#92= IFCSHAPEREPRESENTATION(#12,'Body','SweptSolid',(#91));
#93= IFCPRODUCTDEFINITIONSHAPE($,$,(#92));
#94= IFCOPENINGELEMENT('0OsyvFJCLBfeXESRvIpnv7',#5,$,$,'Recess',#88,#93,$);
#95= IFCRELVOIDSELEMENT('0osHUegqH5RB5jY9NEK5SR',#5,$,$,#71,#94);
#96= IFCCARTESIANPOINT((74039.9994532684,23902.6342826336,13680.));
#97= IFCAXIS2PLACEMENT3D(#96,#74,#53);
#98= IFCLOCALPLACEMENT(#42,#97);
#99= IFCCIRCLEPROFILEDEF(.AREA.,$,#50,11.);
#100= IFCCARTESIANPOINT((0.,-11.6000010955192,0.));
#101= IFCAXIS2PLACEMENT3D(#100,#8,#7);
#102= IFCEXTRUDEDAREASOLID(#99,#101,#9,11.7);
#103= IFCSHAPEREPRESENTATION(#12,'Body','SweptSolid',(#102));
#104= IFCREPRESENTATIONMAP(#10,#103);
#105= IFCCARTESIANPOINT((0.,0.,-112.5));
#106= IFCCARTESIANTRANSFORMATIONOPERATOR3D($,$,#105,$,$);
#107= IFCMAPPEDITEM(#104,#106);
#108= IFCCARTESIANPOINT((0.,0.,-37.5));
#109= IFCCARTESIANTRANSFORMATIONOPERATOR3D($,$,#108,$,$);
#110= IFCMAPPEDITEM(#104,#109);
#111= IFCCARTESIANPOINT((0.,0.,37.5));
#112= IFCCARTESIANTRANSFORMATIONOPERATOR3D($,$,#111,$,$);
#113= IFCMAPPEDITEM(#104,#112);
#114= IFCCARTESIANPOINT((0.,0.,112.5));
#115= IFCCARTESIANTRANSFORMATIONOPERATOR3D($,$,#114,$,$);
#116= IFCMAPPEDITEM(#104,#115);
#117= IFCSHAPEREPRESENTATION(#12,'Body','MappedRepresentation',(#107,#110,#113,#116));
#118= IFCPRODUCTDEFINITIONSHAPE($,$,(#117));
#119= IFCOPENINGELEMENT('3sYzUBAEbE1vRxQyaZcYfb',#5,$,$,'Opening',#98,#118,$);
#120= IFCRELVOIDSELEMENT('0QeSfKR5vB6PGNVvtj$1k0',#5,'Drill Hole',$,#71,#119);
#121= IFCPROPERTYSINGLEVALUE('FeatureSubTypes',$,IFCLABEL('TORNILLO'),$);
#122= IFCPROPERTYSINGLEVALUE('RectangleOpeningWidth',$,$,$);
#123= IFCPROPERTYSINGLEVALUE('RectangleOpeningHeight',$,$,$);
#124= IFCPROPERTYSET('0klr7zbAXFDOfpkzqS6oME',#5,'AISC_EM11_Pset_Opening/Cope',$,(#121,#122,#123,#86));
#125= IFCCARTESIANPOINT((74264.9994603991,23964.6342568039,13481.));
#126= IFCAXIS2PLACEMENT3D(#125,#52,#53);
#127= IFCLOCALPLACEMENT(#42,#126);
#128= IFCCARTESIANPOINT((0.,-0.1,0.));
#129= IFCAXIS2PLACEMENT3D(#128,#8,#7);
#130= IFCEXTRUDEDAREASOLID(#99,#129,#9,21.2);
#131= IFCSHAPEREPRESENTATION(#12,'Body','SweptSolid',(#130));
#132= IFCREPRESENTATIONMAP(#10,#131);
#133= IFCCARTESIANTRANSFORMATIONOPERATOR3D($,$,#6,$,$);
#134= IFCMAPPEDITEM(#132,#133);
#135= IFCCARTESIANPOINT((75.,0.,5.45696821063757E-10));
#136= IFCCARTESIANTRANSFORMATIONOPERATOR3D($,$,#135,$,$);
#137= IFCMAPPEDITEM(#132,#136);
#138= IFCCARTESIANPOINT((150.000000000015,0.,1.09139364212751E-09));
#139= IFCCARTESIANTRANSFORMATIONOPERATOR3D($,$,#138,$,$);
#140= IFCMAPPEDITEM(#132,#139);
#141= IFCCARTESIANPOINT((225.000000000015,0.,1.63709046319127E-09));
#142= IFCCARTESIANTRANSFORMATIONOPERATOR3D($,$,#141,$,$);
#143= IFCMAPPEDITEM(#132,#142);
#144= IFCSHAPEREPRESENTATION(#12,'Body','MappedRepresentation',(#134,#137,#140,#143));
#145= IFCPRODUCTDEFINITIONSHAPE($,$,(#144));
#146= IFCOPENINGELEMENT('0XbdK7t9r7nw0nrrF6rFkJ',#5,$,$,'Opening',#127,#145,$);
#147= IFCRELVOIDSELEMENT('05RVpxxl9B89k96rYDTVCP',#5,'Drill Hole',$,#71,#146);
#148= IFCCARTESIANPOINT((74264.9994603991,23964.6342568039,13879.));
#149= IFCAXIS2PLACEMENT3D(#148,#8,#53);
#150= IFCLOCALPLACEMENT(#42,#149);
#151= IFCSHAPEREPRESENTATION(#12,'Body','MappedRepresentation',(#134,#137,#140,#143));
#152= IFCPRODUCTDEFINITIONSHAPE($,$,(#151));
#153= IFCOPENINGELEMENT('2CM4YDmgL07QTtItySiAkZ',#5,$,$,'Opening',#150,#152,$);
#154= IFCRELVOIDSELEMENT('2SMsLDfaX3UuwC9eyhMLTd',#5,'Drill Hole',$,#71,#153);
#155= IFCCARTESIANPOINT((74264.9994448151,23829.1342568039,13481.));
#156= IFCAXIS2PLACEMENT3D(#155,#52,#53);
#157= IFCLOCALPLACEMENT(#42,#156);
#158= IFCSHAPEREPRESENTATION(#12,'Body','MappedRepresentation',(#134,#137,#140,#143));
#159= IFCPRODUCTDEFINITIONSHAPE($,$,(#158));
#160= IFCOPENINGELEMENT('1szLRZBD17Rvb5SRt6oyKa',#5,$,$,'Opening',#157,#159,$);
#161= IFCRELVOIDSELEMENT('2WXlI3LwXF_xEGfiNbq2fJ',#5,'Drill Hole',$,#71,#160);
#162= IFCCARTESIANPOINT((74264.9994448151,23829.1342568039,13879.));
#163= IFCAXIS2PLACEMENT3D(#162,#8,#53);
#164= IFCLOCALPLACEMENT(#42,#163);
#165= IFCSHAPEREPRESENTATION(#12,'Body','MappedRepresentation',(#134,#137,#140,#143));
#166= IFCPRODUCTDEFINITIONSHAPE($,$,(#165));
#167= IFCOPENINGELEMENT('0y4SmPup9EY8q29T03qWhg',#5,$,$,'Opening',#164,#166,$);
#168= IFCRELVOIDSELEMENT('29_d16O6T3IfDYTD6zCvhI',#5,'Drill Hole',$,#71,#167);
#169= IFCCARTESIANPOINT((76294.9749790974,23896.8840303914,13919.));
#170= IFCAXIS2PLACEMENT3D(#169,#52,#53);
#171= IFCLOCALPLACEMENT(#42,#170);
#172= IFCCIRCLEPROFILEDEF(.AREA.,$,#50,11.5);
#173= IFCCARTESIANPOINT((0.,18.9000000000015,0.));
#174= IFCAXIS2PLACEMENT3D(#173,#8,#7);
#175= IFCEXTRUDEDAREASOLID(#172,#174,#9,21.2);
#176= IFCSHAPEREPRESENTATION(#12,'Body','SweptSolid',(#175));
#177= IFCREPRESENTATIONMAP(#10,#176);
#178= IFCCARTESIANPOINT((2.61934474110603E-10,0.,-75.));
#179= IFCCARTESIANTRANSFORMATIONOPERATOR3D($,$,#178,$,$);
#180= IFCMAPPEDITEM(#177,#179);
#181= IFCCARTESIANPOINT((75.0000000002619,0.,-75.0000000005457));
#182= IFCCARTESIANTRANSFORMATIONOPERATOR3D($,$,#181,$,$);
#183= IFCMAPPEDITEM(#177,#182);
#184= IFCCARTESIANPOINT((150.000000000262,0.,-75.0000000010914));
#185= IFCCARTESIANTRANSFORMATIONOPERATOR3D($,$,#184,$,$);
#186= IFCMAPPEDITEM(#177,#185);
#187= IFCCARTESIANPOINT((225.000000000262,0.,-75.0000000016371));
#188= IFCCARTESIANTRANSFORMATIONOPERATOR3D($,$,#187,$,$);
#189= IFCMAPPEDITEM(#177,#188);
#190= IFCCARTESIANPOINT((300.000000000262,0.,-75.0000000021828));
#191= IFCCARTESIANTRANSFORMATIONOPERATOR3D($,$,#190,$,$);
#192= IFCMAPPEDITEM(#177,#191);
#193= IFCCARTESIANPOINT((375.000000000262,0.,-75.0000000027285));
#194= IFCCARTESIANTRANSFORMATIONOPERATOR3D($,$,#193,$,$);
#195= IFCMAPPEDITEM(#177,#194);
#196= IFCCARTESIANPOINT((450.000000000262,0.,-75.0000000032742));
#197= IFCCARTESIANTRANSFORMATIONOPERATOR3D($,$,#196,$,$);
#198= IFCMAPPEDITEM(#177,#197);
#199= IFCCARTESIANPOINT((525.000000000262,0.,-75.0000000038199));
#200= IFCCARTESIANTRANSFORMATIONOPERATOR3D($,$,#199,$,$);
#201= IFCMAPPEDITEM(#177,#200);
#202= IFCCARTESIANPOINT((600.000000000262,0.,-75.0000000043656));
#203= IFCCARTESIANTRANSFORMATIONOPERATOR3D($,$,#202,$,$);
#204= IFCMAPPEDITEM(#177,#203);
#205= IFCCARTESIANPOINT((675.000000000262,0.,-75.0000000049113));
#206= IFCCARTESIANTRANSFORMATIONOPERATOR3D($,$,#205,$,$);
#207= IFCMAPPEDITEM(#177,#206);
#208= IFCCARTESIANPOINT((-2.7648638933897E-10,0.,75.));
#209= IFCCARTESIANTRANSFORMATIONOPERATOR3D($,$,#208,$,$);
#210= IFCMAPPEDITEM(#177,#209);
#211= IFCCARTESIANPOINT((74.9999999997235,0.,74.9999999994543));
#212= IFCCARTESIANTRANSFORMATIONOPERATOR3D($,$,#211,$,$);
#213= IFCMAPPEDITEM(#177,#212);
#214= IFCCARTESIANPOINT((149.999999999724,0.,74.9999999989086));
#215= IFCCARTESIANTRANSFORMATIONOPERATOR3D($,$,#214,$,$);
#216= IFCMAPPEDITEM(#177,#215);
#217= IFCCARTESIANPOINT((224.999999999724,0.,74.9999999983629));
#218= IFCCARTESIANTRANSFORMATIONOPERATOR3D($,$,#217,$,$);
#219= IFCMAPPEDITEM(#177,#218);
#220= IFCCARTESIANPOINT((299.999999999724,0.,74.9999999978172));
#221= IFCCARTESIANTRANSFORMATIONOPERATOR3D($,$,#220,$,$);
#222= IFCMAPPEDITEM(#177,#221);
#223= IFCCARTESIANPOINT((374.999999999724,0.,74.9999999972715));
#224= IFCCARTESIANTRANSFORMATIONOPERATOR3D($,$,#223,$,$);
#225= IFCMAPPEDITEM(#177,#224);
#226= IFCCARTESIANPOINT((449.999999999724,0.,74.9999999967258));
#227= IFCCARTESIANTRANSFORMATIONOPERATOR3D($,$,#226,$,$);
#228= IFCMAPPEDITEM(#177,#227);
#229= IFCCARTESIANPOINT((524.999999999724,0.,74.9999999961801));
#230= IFCCARTESIANTRANSFORMATIONOPERATOR3D($,$,#229,$,$);
#231= IFCMAPPEDITEM(#177,#230);
#232= IFCCARTESIANPOINT((599.999999999724,0.,74.9999999956344));
#233= IFCCARTESIANTRANSFORMATIONOPERATOR3D($,$,#232,$,$);
#234= IFCMAPPEDITEM(#177,#233);
#235= IFCCARTESIANPOINT((674.999999999724,0.,74.9999999950887));
#236= IFCCARTESIANTRANSFORMATIONOPERATOR3D($,$,#235,$,$);
#237= IFCMAPPEDITEM(#177,#236);
#238= IFCSHAPEREPRESENTATION(#12,'Body','MappedRepresentation',(#180,#183,#186,#189,#192,#195,#198,#201,#204,#207,#210,#213,#216,#219,#222,#225,#228,#231,#234,#237));
#239= IFCPRODUCTDEFINITIONSHAPE($,$,(#238));
#240= IFCOPENINGELEMENT('01sbcDPwH6vv9qwCC_k5ah',#5,$,$,'Opening',#171,#239,$);
#241= IFCRELVOIDSELEMENT('04k54Y2ZrCawv5Pyzd6h0B',#5,'Drill Hole',$,#71,#240);
#242= IFCCARTESIANPOINT((76499.9999340643,23721.8840328359,13919.));
#243= IFCAXIS2PLACEMENT3D(#242,#7,#52);
#244= IFCLOCALPLACEMENT(#42,#243);
#245= IFCCARTESIANPOINT((76294.9749841975,23896.8840178695,13450.));
#246= IFCAXIS2PLACEMENT3D(#245,#8,#53);
#247= IFCLOCALPLACEMENT(#42,#246);
#248= IFCCARTESIANPOINT((0.,9.9,0.));
#249= IFCAXIS2PLACEMENT3D(#248,#8,#7);
#250= IFCEXTRUDEDAREASOLID(#172,#249,#9,21.2);
#251= IFCSHAPEREPRESENTATION(#12,'Body','SweptSolid',(#250));
#252= IFCREPRESENTATIONMAP(#10,#251);
#253= IFCMAPPEDITEM(#252,#209);
#254= IFCMAPPEDITEM(#252,#212);
#255= IFCMAPPEDITEM(#252,#215);
#256= IFCMAPPEDITEM(#252,#218);
#257= IFCMAPPEDITEM(#252,#221);
#258= IFCMAPPEDITEM(#252,#224);
#259= IFCMAPPEDITEM(#252,#227);
#260= IFCMAPPEDITEM(#252,#230);
#261= IFCMAPPEDITEM(#252,#233);
#262= IFCMAPPEDITEM(#252,#236);
#263= IFCMAPPEDITEM(#252,#179);
#264= IFCMAPPEDITEM(#252,#182);
#265= IFCMAPPEDITEM(#252,#185);
#266= IFCMAPPEDITEM(#252,#188);
#267= IFCMAPPEDITEM(#252,#191);
#268= IFCMAPPEDITEM(#252,#194);
#269= IFCMAPPEDITEM(#252,#197);
#270= IFCMAPPEDITEM(#252,#200);
#271= IFCMAPPEDITEM(#252,#203);
#272= IFCMAPPEDITEM(#252,#206);
#273= IFCSHAPEREPRESENTATION(#12,'Body','MappedRepresentation',(#253,#254,#255,#256,#257,#258,#259,#260,#261,#262,#263,#264,#265,#266,#267,#268,#269,#270,#271,#272));
#274= IFCPRODUCTDEFINITIONSHAPE($,$,(#273));
#275= IFCOPENINGELEMENT('1EE6ztF5H7bxZKdziP9FJR',#5,$,$,'Opening',#247,#274,$);
#276= IFCRELVOIDSELEMENT('1m$v$5PcTFafoA9TFbfNBf',#5,'Drill Hole',$,#71,#275);
#277= IFCCARTESIANPOINT((76484.2516442645,23896.8840140149,13900.));
#278= IFCAXIS2PLACEMENT3D(#277,#57,#74);
#279= IFCLOCALPLACEMENT(#42,#278);
#280= IFCCARTESIANPOINT((0.,-5.85003738760704,0.));
#281= IFCAXIS2PLACEMENT3D(#280,#8,#7);
#282= IFCEXTRUDEDAREASOLID(#99,#281,#9,11.7);
#283= IFCSHAPEREPRESENTATION(#12,'Body','SweptSolid',(#282));
#284= IFCREPRESENTATIONMAP(#10,#283);
#285= IFCCARTESIANPOINT((80.,0.,40.0000000000582));
#286= IFCCARTESIANTRANSFORMATIONOPERATOR3D($,$,#285,$,$);
#287= IFCMAPPEDITEM(#284,#286);
#288= IFCCARTESIANPOINT((150.,0.,40.0000000000582));
#289= IFCCARTESIANTRANSFORMATIONOPERATOR3D($,$,#288,$,$);
#290= IFCMAPPEDITEM(#284,#289);
#291= IFCCARTESIANPOINT((220.,0.,40.0000000000582));
#292= IFCCARTESIANTRANSFORMATIONOPERATOR3D($,$,#291,$,$);
#293= IFCMAPPEDITEM(#284,#292);
#294= IFCCARTESIANPOINT((290.,0.,40.0000000000582));
#295= IFCCARTESIANTRANSFORMATIONOPERATOR3D($,$,#294,$,$);
#296= IFCMAPPEDITEM(#284,#295);
#297= IFCCARTESIANPOINT((360.,0.,40.0000000000582));
#298= IFCCARTESIANTRANSFORMATIONOPERATOR3D($,$,#297,$,$);
#299= IFCMAPPEDITEM(#284,#298);
#300= IFCSHAPEREPRESENTATION(#12,'Body','MappedRepresentation',(#287,#290,#293,#296,#299));
#301= IFCPRODUCTDEFINITIONSHAPE($,$,(#300));
#302= IFCOPENINGELEMENT('2AGUXqlr1ESAE70J8rBC9j',#5,$,$,'Opening',#279,#301,$);
#303= IFCRELVOIDSELEMENT('0fGU_1sYf3yfR$5hywRwaD',#5,'Drill Hole',$,#71,#302);
#304= IFCPROPERTYSINGLEVALUE('PieceMark',$,IFCIDENTIFIER('BEAM'),$);
#305= IFCPROPERTYSINGLEVALUE('IndicationMark',$,IFCIDENTIFIER('b/906'),$);
#306= IFCPROPERTYSINGLEVALUE('PrelimMark',$,IFCIDENTIFIER(''),$);
#307= IFCPROPERTYSINGLEVALUE('MainPieceTag',$,IFCBOOLEAN(.T.),$);
#308= IFCPROPERTYSET('0YQzuZGdn2vQIALar3C1DP',#5,'AISC_EM11_Pset_PieceIdentification','PieceIdentity',(#304,#305,#306,#307));
#309= IFCPROPERTYSINGLEVALUE('MaterialType',$,IFCIDENTIFIER('STEEL'),$);
#310= IFCPROPERTYSINGLEVALUE('MaterialGrade',$,IFCIDENTIFIER('S235JR'),$);
#311= IFCPROPERTYSET('22hCIRqMT969aniAvE54LO',#5,'AISC_EM11_Pset_Material',$,(#309,#310));
#312= IFCPROPERTYSINGLEVALUE('SkewedAngleY',$,IFCREAL(0.),$);
#313= IFCPROPERTYSINGLEVALUE('SkewedAngleX',$,IFCREAL(0.),$);
#314= IFCPROPERTYSET('2SKHEuwJf3pu3BxPEy4gko',#5,'AISC_EM11_Pset_SkewedEnd',$,(#312,#313));
#315= IFCPROPERTYSET('1eHK$nUR5BzfS7zpR_qvgB',#5,'AISC_EM11_Pset_SkewedEnd_2',$,(#312,#313));
#316= IFCMATERIAL('STEEL/S235JR');
#317= IFCRELAGGREGATES('10bL4KCIT58gty8cU_DPAj',#5,$,$,#37,(#39));
#318= IFCRELAGGREGATES('2ItdMcUalNQy9EQumGVhS$',#5,$,$,#39,(#41));
#319= IFCRELAGGREGATES('2nbDylp4zD1BrU111Wi8eK',#5,$,$,#41,(#43));
#320= IFCRELCONTAINEDINSPATIALSTRUCTURE('1n8Gkilfv0og4cER19EOM_',#5,$,$,(#71),#43);
#321= IFCRELDEFINESBYPROPERTIES('0E79qDQjP4xPM3i4qHNRxs',#5,$,$,(#94,#81),#87);
#322= IFCRELDEFINESBYPROPERTIES('3jB3LZp8v9$QVJ29ZOt0Tn',#5,$,$,(#302,#275,#240,#167,#160,#153,#146,#119),#124);
#323= IFCRELDEFINESBYPROPERTIES('2OQqSqneT8wgNmCAdlyJkv',#5,$,$,(#71),#308);
#324= IFCRELDEFINESBYPROPERTIES('168ffN_bfFdQNiCeAk2$qY',#5,$,$,(#71),#311);
#325= IFCRELDEFINESBYPROPERTIES('3E_zc9HQXDO8wmK9VBRy7d',#5,$,$,(#71),#314);
#326= IFCRELDEFINESBYPROPERTIES('1BfW$eQ1bBVxwDhcNaHJbC',#5,$,$,(#71),#315);
#327= IFCRELASSOCIATESMATERIAL('26AzWGPkz3hO08XL0vDUx7',#5,$,$,(#71),#316);
ENDSEC;

END-ISO-10303-21;
