ISO-10303-21;
HEADER;
FILE_DESCRIPTION(('ViewDefinition[AISC_Steel_Detailing]', 'Option [BaseQuantities:Off]', 'Option [GridExport:On]', 'Option [Assemblies:Off]', 'Option [Bolts:On]', 'Option [Rebars:On]', 'Option [PourObjects:Off]', 'Option [Welds:On]', 'Option [SurfaceTreatments:On]', 'Option [LocationBy:0]', 'Option [ViewColors:Off]', 'Option [SectionedSpine:Off]', 'Option [PropertySets:On]', 'Option [Export all:Off]'),'2;1');
FILE_NAME('b_920_Qty_1.ifc','2026-05-16T11:53:17',('GIOVANNIPC\\gcorrea'),('Structural Designer'),'IFC Database version: Work','Tekla Structures 2020 Service Pack 5, IFC Export Version: 4.0.0.0 Dec  7 2020','');
FILE_SCHEMA(('IFC2X3'));
ENDSEC;

DATA;
#1= IFCPERSON('GIOVANNIPC\\gcorrea','Undefined',$,$,$,$,$,$);
#2= IFCORGANIZATION($,'Trimble Solutions Corporation',$,$,$);
#3= IFCPERSONANDORGANIZATION(#1,#2,$);
#4= IFCAPPLICATION(#2,'2020 Service Pack 5','Tekla Structures','Multi material modeling');
#5= IFCOWNERHISTORY(#3,#4,$,.NOCHANGE.,$,$,$,1778950397);
#6= IFCCARTESIANPOINT((0.,0.,0.));
#7= IFCDIRECTION((1.,0.,0.));
#8= IFCDIRECTION((0.,1.,0.));
#9= IFCDIRECTION((0.,0.,1.));
#10= IFCAXIS2PLACEMENT3D(#6,#9,#7);
#11= IFCGEOMETRICREPRESENTATIONCONTEXT($,'Model',3,1.E-05,#10,$);
#12= IFCGEOMETRICREPRESENTATIONSUBCONTEXT('Body','Model',*,*,*,*,#11,$,.MODEL_VIEW.,$);
#13= IFCGEOMETRICREPRESENTATIONSUBCONTEXT('Axis','Model',*,*,*,*,#11,$,.GRAPH_VIEW.,$);
#14= IFCGEOMETRICREPRESENTATIONSUBCONTEXT('FootPrint','Model',*,*,*,*,#11,$,.MODEL_VIEW.,$);
#15= IFCSIUNIT(*,.LENGTHUNIT.,.MILLI.,.METRE.);
#16= IFCMEASUREWITHUNIT(IFCRATIOMEASURE(304.8),#15);
#17= IFCDIMENSIONALEXPONENTS(1,0,0,0,0,0,0);
#18= IFCCONVERSIONBASEDUNIT(#17,.LENGTHUNIT.,'FOOT',#16);
#19= IFCSIUNIT(*,.AREAUNIT.,$,.SQUARE_METRE.);
#20= IFCMEASUREWITHUNIT(IFCRATIOMEASURE(0.09290304),#19);
#21= IFCDIMENSIONALEXPONENTS(2,0,0,0,0,0,0);
#22= IFCCONVERSIONBASEDUNIT(#21,.AREAUNIT.,'SQUARE FOOT',#20);
#23= IFCSIUNIT(*,.VOLUMEUNIT.,$,.CUBIC_METRE.);
#24= IFCMEASUREWITHUNIT(IFCRATIOMEASURE(0.028316846592),#23);
#25= IFCDIMENSIONALEXPONENTS(3,0,0,0,0,0,0);
#26= IFCCONVERSIONBASEDUNIT(#25,.VOLUMEUNIT.,'CUBIC FOOT',#24);
#27= IFCSIUNIT(*,.MASSUNIT.,.KILO.,.GRAM.);
#28= IFCSIUNIT(*,.TIMEUNIT.,$,.SECOND.);
#29= IFCSIUNIT(*,.PLANEANGLEUNIT.,$,.RADIAN.);
#30= IFCMEASUREWITHUNIT(IFCRATIOMEASURE(0.0174532925199433),#29);
#31= IFCDIMENSIONALEXPONENTS(0,0,0,0,0,0,0);
#32= IFCCONVERSIONBASEDUNIT(#31,.PLANEANGLEUNIT.,'DEGREE',#30);
#33= IFCSIUNIT(*,.SOLIDANGLEUNIT.,$,.STERADIAN.);
#34= IFCSIUNIT(*,.THERMODYNAMICTEMPERATUREUNIT.,$,.DEGREE_CELSIUS.);
#35= IFCSIUNIT(*,.LUMINOUSINTENSITYUNIT.,$,.LUMEN.);
#36= IFCUNITASSIGNMENT((#15,#19,#23,#27,#28,#29,#33,#34,#35));
#37= IFCPROJECT('2G7ZFDNE16yBDU14FA92Me',#5,'Proyecto',$,$,$,$,(#11),#36);
#38= IFCLOCALPLACEMENT($,#10);
#39= IFCSITE('2xvEzEinjBTea80yOTcujY',#5,'Obra',$,$,#38,$,$,.ELEMENT.,$,$,$,$,$);
#40= IFCLOCALPLACEMENT(#38,#10);
#41= IFCBUILDING('3FWI8fBPX3jexJbPyDHg1M',#5,'Undefined',$,$,#40,$,$,.ELEMENT.,$,$,$);
#42= IFCLOCALPLACEMENT(#40,#10);
#43= IFCBUILDINGSTOREY('29hdEUCErFze9E_VIAceOd',#5,'Undefined',$,$,#42,$,$,.ELEMENT.,0.);
#44= IFCOWNERHISTORY(#3,#4,$,.NOCHANGE.,$,$,$,1774890000);
#45= IFCCARTESIANPOINT((8284.09930419922,23896.8846435547,18935.));
#46= IFCDIRECTION((-1.,0.,0.));
#47= IFCAXIS2PLACEMENT3D(#45,#9,#46);
#48= IFCLOCALPLACEMENT(#42,#47);
#49= IFCDIRECTION((1.,0.));
#50= IFCCARTESIANPOINT((0.,0.));
#51= IFCAXIS2PLACEMENT2D(#50,#49);
#52= IFCISHAPEPROFILEDEF(.AREA.,'HI830-10-25*250',#51,250.,830.,10.,25.,7.);
#53= IFCDIRECTION((0.,-1.,0.));
#54= IFCCARTESIANPOINT((2612.61844635505,0.,0.));
#55= IFCAXIS2PLACEMENT3D(#54,#46,#53);
#56= IFCEXTRUDEDAREASOLID(#52,#55,#9,2615.54);
#57= IFCCARTESIANPOINT((-2.91786520944697,0.,-515.));
#58= IFCAXIS2PLACEMENT3D(#57,#7,#53);
#59= IFCPLANE(#58);
#60= IFCHALFSPACESOLID(#59,.T.);
#61= IFCBOOLEANCLIPPINGRESULT(.DIFFERENCE.,#56,#60);
#62= IFCSHAPEREPRESENTATION(#12,'Body','Clipping',(#61));
#63= IFCPRODUCTDEFINITIONSHAPE($,$,(#62));
#64= IFCBEAM('0cAemy9T5EZfZ6Ho3d9wqB',#44,'BEAM','HI830-10-25*250','HI830-10-25*250',#48,#63,'ID262a8c3c-25d1-4e8e-98c6-4720e727ad0b');
#65= IFCLOCALPLACEMENT(#42,#47);
#66= IFCRECTANGLEPROFILEDEF(.AREA.,'PL138.2*12',#51,12.,138.2);
#67= IFCDIRECTION((0.,0.,-1.));
#68= IFCCARTESIANPOINT((-8.90914317601346,56.9003067016602,416.));
#69= IFCAXIS2PLACEMENT3D(#68,#67,#7);
#70= IFCEXTRUDEDAREASOLID(#66,#69,#9,832.);
#71= IFCSHAPEREPRESENTATION(#12,'Body','SweptSolid',(#70));
#72= IFCPRODUCTDEFINITIONSHAPE($,$,(#71));
#73= IFCOPENINGELEMENT('39ghiV1FD7QPZJ4Sfngfd5',#5,$,$,'Recess',#65,#72,$);
#74= IFCRELVOIDSELEMENT('25_e8NeGf2qfbwZKXxKtva',#5,$,$,#64,#73);
#75= IFCPROPERTYSINGLEVALUE('FeatureSubTypes',$,$,$);
#76= IFCPROPERTYSINGLEVALUE('RectangleOpeningWidth',$,IFCPOSITIVELENGTHMEASURE(12.),$);
#77= IFCPROPERTYSINGLEVALUE('RectangleOpeningHeight',$,IFCPOSITIVELENGTHMEASURE(138.2),$);
#78= IFCPROPERTYSINGLEVALUE('OpeningDiameter',$,$,$);
#79= IFCPROPERTYSET('3cAOyCEsP3UuiUE51jzH43',#5,'AISC_EM11_Pset_Opening/Cope',$,(#75,#76,#77,#78));
#80= IFCLOCALPLACEMENT(#42,#47);
#81= IFCRECTANGLEPROFILEDEF(.AREA.,'PL137.8*12',#51,12.,137.8);
#82= IFCCARTESIANPOINT((-8.90914317601346,-57.0996932983398,416.));
#83= IFCAXIS2PLACEMENT3D(#82,#67,#7);
#84= IFCEXTRUDEDAREASOLID(#81,#83,#9,832.);
#85= IFCSHAPEREPRESENTATION(#12,'Body','SweptSolid',(#84));
#86= IFCPRODUCTDEFINITIONSHAPE($,$,(#85));
#87= IFCOPENINGELEMENT('2WBMNn5RH5_h1OqALpRoa2',#5,$,$,'Recess',#80,#86,$);
#88= IFCRELVOIDSELEMENT('2C5XYPZVPDZOl_FSb15qAP',#5,$,$,#64,#87);
#89= IFCPROPERTYSINGLEVALUE('RectangleOpeningHeight',$,IFCPOSITIVELENGTHMEASURE(137.8),$);
#90= IFCPROPERTYSET('1tm$ZM7jLAcww0wTv4e5Ry',#5,'AISC_EM11_Pset_Opening/Cope',$,(#75,#76,#89,#78));
#91= IFCCARTESIANPOINT((8242.10791918625,23900.9656065257,18520.));
#92= IFCDIRECTION((-0.00143953599980705,0.999998963867516,0.));
#93= IFCDIRECTION((-0.999998963867516,-0.00143953599980616,0.));
#94= IFCAXIS2PLACEMENT3D(#91,#92,#93);
#95= IFCLOCALPLACEMENT(#42,#94);
#96= IFCCIRCLEPROFILEDEF(.AREA.,$,#51,11.5);
#97= IFCCARTESIANPOINT((0.,-0.1,0.));
#98= IFCAXIS2PLACEMENT3D(#97,#8,#7);
#99= IFCEXTRUDEDAREASOLID(#96,#98,#9,25.2);
#100= IFCSHAPEREPRESENTATION(#12,'Body','SweptSolid',(#99));
#101= IFCREPRESENTATIONMAP(#10,#100);
#102= IFCCARTESIANPOINT((-1.81898940354586E-12,0.,-74.9999999999636));
#103= IFCCARTESIANTRANSFORMATIONOPERATOR3D($,$,#102,$,$);
#104= IFCMAPPEDITEM(#101,#103);
#105= IFCCARTESIANPOINT((74.99999999996,0.,-75.0000000000982));
#106= IFCCARTESIANTRANSFORMATIONOPERATOR3D($,$,#105,$,$);
#107= IFCMAPPEDITEM(#101,#106);
#108= IFCCARTESIANPOINT((149.999999999922,0.,-75.0000000002328));
#109= IFCCARTESIANTRANSFORMATIONOPERATOR3D($,$,#108,$,$);
#110= IFCMAPPEDITEM(#101,#109);
#111= IFCCARTESIANPOINT((224.999999999884,0.,-75.0000000003711));
#112= IFCCARTESIANTRANSFORMATIONOPERATOR3D($,$,#111,$,$);
#113= IFCMAPPEDITEM(#101,#112);
#114= IFCCARTESIANPOINT((299.999999999844,0.,-75.0000000005057));
#115= IFCCARTESIANTRANSFORMATIONOPERATOR3D($,$,#114,$,$);
#116= IFCMAPPEDITEM(#101,#115);
#117= IFCCARTESIANPOINT((374.999999999806,0.,-75.0000000006439));
#118= IFCCARTESIANTRANSFORMATIONOPERATOR3D($,$,#117,$,$);
#119= IFCMAPPEDITEM(#101,#118);
#120= IFCCARTESIANPOINT((449.999999999767,0.,-75.0000000007785));
#121= IFCCARTESIANTRANSFORMATIONOPERATOR3D($,$,#120,$,$);
#122= IFCMAPPEDITEM(#101,#121);
#123= IFCCARTESIANPOINT((524.999999999729,0.,-75.0000000009168));
#124= IFCCARTESIANTRANSFORMATIONOPERATOR3D($,$,#123,$,$);
#125= IFCMAPPEDITEM(#101,#124);
#126= IFCCARTESIANPOINT((599.99999999969,0.,-75.0000000010514));
#127= IFCCARTESIANTRANSFORMATIONOPERATOR3D($,$,#126,$,$);
#128= IFCMAPPEDITEM(#101,#127);
#129= IFCCARTESIANPOINT((674.999999999652,0.,-75.000000001186));
#130= IFCCARTESIANTRANSFORMATIONOPERATOR3D($,$,#129,$,$);
#131= IFCMAPPEDITEM(#101,#130);
#132= IFCCARTESIANPOINT((0.,0.,74.9999999999636));
#133= IFCCARTESIANTRANSFORMATIONOPERATOR3D($,$,#132,$,$);
#134= IFCMAPPEDITEM(#101,#133);
#135= IFCCARTESIANPOINT((74.99999999996,0.,74.9999999998217));
#136= IFCCARTESIANTRANSFORMATIONOPERATOR3D($,$,#135,$,$);
#137= IFCMAPPEDITEM(#101,#136);
#138= IFCCARTESIANPOINT((149.999999999922,0.,74.9999999996871));
#139= IFCCARTESIANTRANSFORMATIONOPERATOR3D($,$,#138,$,$);
#140= IFCMAPPEDITEM(#101,#139);
#141= IFCCARTESIANPOINT((224.999999999883,0.,74.9999999995489));
#142= IFCCARTESIANTRANSFORMATIONOPERATOR3D($,$,#141,$,$);
#143= IFCMAPPEDITEM(#101,#142);
#144= IFCCARTESIANPOINT((299.999999999844,0.,74.9999999994143));
#145= IFCCARTESIANTRANSFORMATIONOPERATOR3D($,$,#144,$,$);
#146= IFCMAPPEDITEM(#101,#145);
#147= IFCCARTESIANPOINT((374.999999999805,0.,74.9999999992797));
#148= IFCCARTESIANTRANSFORMATIONOPERATOR3D($,$,#147,$,$);
#149= IFCMAPPEDITEM(#101,#148);
#150= IFCCARTESIANPOINT((449.999999999767,0.,74.9999999991414));
#151= IFCCARTESIANTRANSFORMATIONOPERATOR3D($,$,#150,$,$);
#152= IFCMAPPEDITEM(#101,#151);
#153= IFCCARTESIANPOINT((524.999999999728,0.,74.9999999990068));
#154= IFCCARTESIANTRANSFORMATIONOPERATOR3D($,$,#153,$,$);
#155= IFCMAPPEDITEM(#101,#154);
#156= IFCCARTESIANPOINT((599.99999999969,0.,74.9999999988686));
#157= IFCCARTESIANTRANSFORMATIONOPERATOR3D($,$,#156,$,$);
#158= IFCMAPPEDITEM(#101,#157);
#159= IFCCARTESIANPOINT((674.999999999651,0.,74.999999998734));
#160= IFCCARTESIANTRANSFORMATIONOPERATOR3D($,$,#159,$,$);
#161= IFCMAPPEDITEM(#101,#160);
#162= IFCSHAPEREPRESENTATION(#12,'Body','MappedRepresentation',(#104,#107,#110,#113,#116,#119,#122,#125,#128,#131,#134,#137,#140,#143,#146,#149,#152,#155,#158,#161));
#163= IFCPRODUCTDEFINITIONSHAPE($,$,(#162));
#164= IFCOPENINGELEMENT('0U2_P88TTCfOIkdxfrB_s4',#5,$,$,'Opening',#95,#163,$);
#165= IFCRELVOIDSELEMENT('2WuwWiCH16twYM_xJJJY6T',#5,'Drill Hole',$,#64,#164);
#166= IFCPROPERTYSINGLEVALUE('FeatureSubTypes',$,IFCLABEL('TORNILLO'),$);
#167= IFCPROPERTYSINGLEVALUE('RectangleOpeningWidth',$,$,$);
#168= IFCPROPERTYSINGLEVALUE('RectangleOpeningHeight',$,$,$);
#169= IFCPROPERTYSET('343TDytMLCqA7SZTEBA_BL',#5,'AISC_EM11_Pset_Opening/Cope',$,(#166,#167,#168,#78));
#170= IFCCARTESIANPOINT((8242.10791918625,23900.9656065257,19350.));
#171= IFCDIRECTION((0.00143953599980705,-0.999998963867516,0.));
#172= IFCAXIS2PLACEMENT3D(#170,#171,#93);
#173= IFCLOCALPLACEMENT(#42,#172);
#174= IFCCIRCLEPROFILEDEF(.AREA.,$,#51,12.5);
#175= IFCEXTRUDEDAREASOLID(#174,#98,#9,25.2);
#176= IFCSHAPEREPRESENTATION(#12,'Body','SweptSolid',(#175));
#177= IFCREPRESENTATIONMAP(#10,#176);
#178= IFCMAPPEDITEM(#177,#103);
#179= IFCMAPPEDITEM(#177,#106);
#180= IFCMAPPEDITEM(#177,#109);
#181= IFCMAPPEDITEM(#177,#112);
#182= IFCMAPPEDITEM(#177,#115);
#183= IFCMAPPEDITEM(#177,#118);
#184= IFCMAPPEDITEM(#177,#121);
#185= IFCMAPPEDITEM(#177,#124);
#186= IFCMAPPEDITEM(#177,#127);
#187= IFCMAPPEDITEM(#177,#130);
#188= IFCMAPPEDITEM(#177,#133);
#189= IFCMAPPEDITEM(#177,#136);
#190= IFCMAPPEDITEM(#177,#139);
#191= IFCMAPPEDITEM(#177,#142);
#192= IFCMAPPEDITEM(#177,#145);
#193= IFCMAPPEDITEM(#177,#148);
#194= IFCMAPPEDITEM(#177,#151);
#195= IFCMAPPEDITEM(#177,#154);
#196= IFCMAPPEDITEM(#177,#157);
#197= IFCMAPPEDITEM(#177,#160);
#198= IFCSHAPEREPRESENTATION(#12,'Body','MappedRepresentation',(#178,#179,#180,#181,#182,#183,#184,#185,#186,#187,#188,#189,#190,#191,#192,#193,#194,#195,#196,#197));
#199= IFCPRODUCTDEFINITIONSHAPE($,$,(#198));
#200= IFCOPENINGELEMENT('1iWfi3VAfC2AHMoo8uDO16',#5,$,$,'Opening',#173,#199,$);
#201= IFCRELVOIDSELEMENT('2i_kTOQffBLRFASlWvw62c',#5,'Drill Hole',$,#64,#200);
#202= IFCCARTESIANPOINT((8287.01716940867,23896.8846435547,19350.));
#203= IFCAXIS2PLACEMENT3D(#202,#46,#67);
#204= IFCLOCALPLACEMENT(#42,#203);
#205= IFCCARTESIANPOINT((0.,-5.10000000000001,0.));
#206= IFCAXIS2PLACEMENT3D(#205,#8,#7);
#207= IFCEXTRUDEDAREASOLID(#174,#206,#9,10.2);
#208= IFCSHAPEREPRESENTATION(#12,'Body','SweptSolid',(#207));
#209= IFCREPRESENTATIONMAP(#10,#208);
#210= IFCCARTESIANPOINT((152.5,0.,45.));
#211= IFCCARTESIANTRANSFORMATIONOPERATOR3D($,$,#210,$,$);
#212= IFCMAPPEDITEM(#209,#211);
#213= IFCCARTESIANPOINT((227.5,0.,45.));
#214= IFCCARTESIANTRANSFORMATIONOPERATOR3D($,$,#213,$,$);
#215= IFCMAPPEDITEM(#209,#214);
#216= IFCCARTESIANPOINT((302.5,0.,45.));
#217= IFCCARTESIANTRANSFORMATIONOPERATOR3D($,$,#216,$,$);
#218= IFCMAPPEDITEM(#209,#217);
#219= IFCCARTESIANPOINT((377.5,0.,45.));
#220= IFCCARTESIANTRANSFORMATIONOPERATOR3D($,$,#219,$,$);
#221= IFCMAPPEDITEM(#209,#220);
#222= IFCCARTESIANPOINT((452.5,0.,45.));
#223= IFCCARTESIANTRANSFORMATIONOPERATOR3D($,$,#222,$,$);
#224= IFCMAPPEDITEM(#209,#223);
#225= IFCCARTESIANPOINT((527.5,0.,45.));
#226= IFCCARTESIANTRANSFORMATIONOPERATOR3D($,$,#225,$,$);
#227= IFCMAPPEDITEM(#209,#226);
#228= IFCCARTESIANPOINT((602.5,0.,45.));
#229= IFCCARTESIANTRANSFORMATIONOPERATOR3D($,$,#228,$,$);
#230= IFCMAPPEDITEM(#209,#229);
#231= IFCCARTESIANPOINT((677.5,0.,45.));
#232= IFCCARTESIANTRANSFORMATIONOPERATOR3D($,$,#231,$,$);
#233= IFCMAPPEDITEM(#209,#232);
#234= IFCSHAPEREPRESENTATION(#12,'Body','MappedRepresentation',(#212,#215,#218,#221,#224,#227,#230,#233));
#235= IFCPRODUCTDEFINITIONSHAPE($,$,(#234));
#236= IFCOPENINGELEMENT('0BHrWf6e54TRD$aTzkaY$O',#5,$,$,'Opening',#204,#235,$);
#237= IFCRELVOIDSELEMENT('1PW3JN57P6QP_$XEaMwF$B',#5,'Drill Hole',$,#64,#236);
#238= IFCPROPERTYSINGLEVALUE('PieceMark',$,IFCIDENTIFIER('BEAM'),$);
#239= IFCPROPERTYSINGLEVALUE('IndicationMark',$,IFCIDENTIFIER('b/920'),$);
#240= IFCPROPERTYSINGLEVALUE('PrelimMark',$,IFCIDENTIFIER(''),$);
#241= IFCPROPERTYSINGLEVALUE('MainPieceTag',$,IFCBOOLEAN(.F.),$);
#242= IFCPROPERTYSET('2BF0WF8ojBew7k$2Dg3N0I',#5,'AISC_EM11_Pset_PieceIdentification','PieceIdentity',(#238,#239,#240,#241));
#243= IFCPROPERTYSINGLEVALUE('MaterialType',$,IFCIDENTIFIER('STEEL'),$);
#244= IFCPROPERTYSINGLEVALUE('MaterialGrade',$,IFCIDENTIFIER('S235JR'),$);
#245= IFCPROPERTYSET('1P$3cRsk12gQRZTeyTikZA',#5,'AISC_EM11_Pset_Material',$,(#243,#244));
#246= IFCPROPERTYSINGLEVALUE('SkewedAngleY',$,IFCREAL(0.),$);
#247= IFCPROPERTYSINGLEVALUE('SkewedAngleX',$,IFCREAL(0.),$);
#248= IFCPROPERTYSET('3dDwcr1_f08h$NO9_NCwXZ',#5,'AISC_EM11_Pset_SkewedEnd',$,(#246,#247));
#249= IFCPROPERTYSET('1rCNSUTIbFIPY9ZxojmAJu',#5,'AISC_EM11_Pset_SkewedEnd_2',$,(#246,#247));
#250= IFCMATERIAL('STEEL/S235JR');
#251= IFCRELAGGREGATES('1ROT7z3MvEVP6NHIVKvjg3',#5,$,$,#37,(#39));
#252= IFCRELAGGREGATES('2jglPFLeBWnhOfZancB$yL',#5,$,$,#39,(#41));
#253= IFCRELAGGREGATES('1sgWjsZb1D$8Qn$$aaQZ1G',#5,$,$,#41,(#43));
#254= IFCRELCONTAINEDINSPATIALSTRUCTURE('2oH7JfbxX4qBov4fuMIxbw',#5,$,$,(#64),#43);
#255= IFCRELDEFINESBYPROPERTIES('0eMDf7tYP3GRz77e71FZls',#5,$,$,(#73),#79);
#256= IFCRELDEFINESBYPROPERTIES('1AXKQx13b9V8WkmLjc2Lcy',#5,$,$,(#87),#90);
#257= IFCRELDEFINESBYPROPERTIES('2tNs1ItzvAShkmTCKV23n$',#5,$,$,(#236,#200,#164),#169);
#258= IFCRELDEFINESBYPROPERTIES('0x3DTMhv1Bog57sLNq1DUS',#5,$,$,(#64),#242);
#259= IFCRELDEFINESBYPROPERTIES('3CE74BeCP55Rk6Zug6Hljc',#5,$,$,(#64),#245);
#260= IFCRELDEFINESBYPROPERTIES('3hQg31kr5A$hTp3m9jIET0',#5,$,$,(#64),#248);
#261= IFCRELDEFINESBYPROPERTIES('0hbp3CZLv0OuDDnvL7REoA',#5,$,$,(#64),#249);
#262= IFCRELASSOCIATESMATERIAL('2Acwwyy194bPd9b5DZZSQm',#5,$,$,(#64),#250);
ENDSEC;

END-ISO-10303-21;
