ISO-10303-21;
HEADER;
FILE_DESCRIPTION(('ViewDefinition[AISC_Steel_Detailing]', 'Option [BaseQuantities:Off]', 'Option [GridExport:On]', 'Option [Assemblies:Off]', 'Option [Bolts:On]', 'Option [Rebars:On]', 'Option [PourObjects:Off]', 'Option [Welds:On]', 'Option [SurfaceTreatments:On]', 'Option [LocationBy:0]', 'Option [ViewColors:Off]', 'Option [SectionedSpine:Off]', 'Option [PropertySets:On]', 'Option [Export all:Off]'),'2;1');
FILE_NAME('b_921_Qty_1.ifc','2026-05-16T11:53:17',('GIOVANNIPC\\gcorrea'),('Structural Designer'),'IFC Database version: Work','Tekla Structures 2020 Service Pack 5, IFC Export Version: 4.0.0.0 Dec  7 2020','');
FILE_SCHEMA(('IFC2X3'));
ENDSEC;

DATA;
#1= IFCPERSON('GIOVANNIPC\\gcorrea','Undefined',$,$,$,$,$,$);
#2= IFCORGANIZATION($,'Trimble Solutions Corporation',$,$,$);
#3= IFCPERSONANDORGANIZATION(#1,#2,$);
#4= IFCAPPLICATION(#2,'2020 Service Pack 5','Tekla Structures','Multi material modeling');
#5= IFCOWNERHISTORY(#3,#4,$,.NOCHANGE.,$,$,$,1778950397);
#6= IFCCARTESIANPOINT((0.,0.,0.));
#7= IFCDIRECTION((1.,0.,0.));
#8= IFCDIRECTION((0.,1.,0.));
#9= IFCDIRECTION((0.,0.,1.));
#10= IFCAXIS2PLACEMENT3D(#6,#9,#7);
#11= IFCGEOMETRICREPRESENTATIONCONTEXT($,'Model',3,1.E-05,#10,$);
#12= IFCGEOMETRICREPRESENTATIONSUBCONTEXT('Body','Model',*,*,*,*,#11,$,.MODEL_VIEW.,$);
#13= IFCGEOMETRICREPRESENTATIONSUBCONTEXT('Axis','Model',*,*,*,*,#11,$,.GRAPH_VIEW.,$);
#14= IFCGEOMETRICREPRESENTATIONSUBCONTEXT('FootPrint','Model',*,*,*,*,#11,$,.MODEL_VIEW.,$);
#15= IFCSIUNIT(*,.LENGTHUNIT.,.MILLI.,.METRE.);
#16= IFCMEASUREWITHUNIT(IFCRATIOMEASURE(304.8),#15);
#17= IFCDIMENSIONALEXPONENTS(1,0,0,0,0,0,0);
#18= IFCCONVERSIONBASEDUNIT(#17,.LENGTHUNIT.,'FOOT',#16);
#19= IFCSIUNIT(*,.AREAUNIT.,$,.SQUARE_METRE.);
#20= IFCMEASUREWITHUNIT(IFCRATIOMEASURE(0.09290304),#19);
#21= IFCDIMENSIONALEXPONENTS(2,0,0,0,0,0,0);
#22= IFCCONVERSIONBASEDUNIT(#21,.AREAUNIT.,'SQUARE FOOT',#20);
#23= IFCSIUNIT(*,.VOLUMEUNIT.,$,.CUBIC_METRE.);
#24= IFCMEASUREWITHUNIT(IFCRATIOMEASURE(0.028316846592),#23);
#25= IFCDIMENSIONALEXPONENTS(3,0,0,0,0,0,0);
#26= IFCCONVERSIONBASEDUNIT(#25,.VOLUMEUNIT.,'CUBIC FOOT',#24);
#27= IFCSIUNIT(*,.MASSUNIT.,.KILO.,.GRAM.);
#28= IFCSIUNIT(*,.TIMEUNIT.,$,.SECOND.);
#29= IFCSIUNIT(*,.PLANEANGLEUNIT.,$,.RADIAN.);
#30= IFCMEASUREWITHUNIT(IFCRATIOMEASURE(0.0174532925199433),#29);
#31= IFCDIMENSIONALEXPONENTS(0,0,0,0,0,0,0);
#32= IFCCONVERSIONBASEDUNIT(#31,.PLANEANGLEUNIT.,'DEGREE',#30);
#33= IFCSIUNIT(*,.SOLIDANGLEUNIT.,$,.STERADIAN.);
#34= IFCSIUNIT(*,.THERMODYNAMICTEMPERATUREUNIT.,$,.DEGREE_CELSIUS.);
#35= IFCSIUNIT(*,.LUMINOUSINTENSITYUNIT.,$,.LUMEN.);
#36= IFCUNITASSIGNMENT((#15,#19,#23,#27,#28,#29,#33,#34,#35));
#37= IFCPROJECT('2G7ZFDNE16yBDU14FA92Me',#5,'Proyecto',$,$,$,$,(#11),#36);
#38= IFCLOCALPLACEMENT($,#10);
#39= IFCSITE('2xvEzEinjBTea80yOTcujY',#5,'Obra',$,$,#38,$,$,.ELEMENT.,$,$,$,$,$);
#40= IFCLOCALPLACEMENT(#38,#10);
#41= IFCBUILDING('2uzJC9tm506QAJrGh3mQGE',#5,'Undefined',$,$,#40,$,$,.ELEMENT.,$,$,$);
#42= IFCLOCALPLACEMENT(#40,#10);
#43= IFCBUILDINGSTOREY('29hdEUCErFze9E_VIAceOd',#5,'Undefined',$,$,#42,$,$,.ELEMENT.,0.);
#44= IFCOWNERHISTORY(#3,#4,$,.NOCHANGE.,$,$,$,1774890000);
#45= IFCCARTESIANPOINT((8715.90014648438,23896.8846435547,18935.));
#46= IFCAXIS2PLACEMENT3D(#45,#9,#7);
#47= IFCLOCALPLACEMENT(#42,#46);
#48= IFCDIRECTION((1.,0.));
#49= IFCCARTESIANPOINT((0.,0.));
#50= IFCAXIS2PLACEMENT2D(#49,#48);
#51= IFCISHAPEPROFILEDEF(.AREA.,'HI830-10-25*250',#50,250.,830.,10.,25.,7.);
#52= IFCDIRECTION((0.,-1.,0.));
#53= IFCDIRECTION((-1.,0.,0.));
#54= IFCCARTESIANPOINT((8071.1172975825,0.,0.));
#55= IFCAXIS2PLACEMENT3D(#54,#53,#52);
#56= IFCEXTRUDEDAREASOLID(#51,#55,#9,8074.04);
#57= IFCCARTESIANPOINT((8071.1172975825,0.,-515.));
#58= IFCAXIS2PLACEMENT3D(#57,#53,#8);
#59= IFCPLANE(#58);
#60= IFCHALFSPACESOLID(#59,.T.);
#61= IFCBOOLEANCLIPPINGRESULT(.DIFFERENCE.,#56,#60);
#62= IFCCARTESIANPOINT((-2.91786520944697,0.,-515.));
#63= IFCAXIS2PLACEMENT3D(#62,#7,#52);
#64= IFCPLANE(#63);
#65= IFCHALFSPACESOLID(#64,.T.);
#66= IFCBOOLEANCLIPPINGRESULT(.DIFFERENCE.,#61,#65);
#67= IFCSHAPEREPRESENTATION(#12,'Body','Clipping',(#66));
#68= IFCPRODUCTDEFINITIONSHAPE($,$,(#67));
#69= IFCBEAM('2QpFx0cGr8iAXgc9EQKHK_',#44,'BEAM','HI830-10-25*250','HI830-10-25*250',#47,#68,'ID9accfec0-990d-48b0-a86a-98939a51153e');
#70= IFCLOCALPLACEMENT(#42,#46);
#71= IFCRECTANGLEPROFILEDEF(.AREA.,'PL138.2*12',#50,12.,138.2);
#72= IFCDIRECTION((0.,0.,-1.));
#73= IFCCARTESIANPOINT((8077.10857554906,-56.9003067016602,416.));
#74= IFCAXIS2PLACEMENT3D(#73,#72,#53);
#75= IFCEXTRUDEDAREASOLID(#71,#74,#9,832.);
#76= IFCSHAPEREPRESENTATION(#12,'Body','SweptSolid',(#75));
#77= IFCPRODUCTDEFINITIONSHAPE($,$,(#76));
#78= IFCOPENINGELEMENT('2suzVRlb1Dwg9LPEti4CVi',#5,$,$,'Recess',#70,#77,$);
#79= IFCRELVOIDSELEMENT('1DOlt8LNX0jxcyZySdj9iY',#5,$,$,#69,#78);
#80= IFCPROPERTYSINGLEVALUE('FeatureSubTypes',$,$,$);
#81= IFCPROPERTYSINGLEVALUE('RectangleOpeningWidth',$,IFCPOSITIVELENGTHMEASURE(12.),$);
#82= IFCPROPERTYSINGLEVALUE('RectangleOpeningHeight',$,IFCPOSITIVELENGTHMEASURE(138.2),$);
#83= IFCPROPERTYSINGLEVALUE('OpeningDiameter',$,$,$);
#84= IFCPROPERTYSET('0726rnR1z1vwctPp5Zr8Ky',#5,'AISC_EM11_Pset_Opening/Cope',$,(#80,#81,#82,#83));
#85= IFCLOCALPLACEMENT(#42,#46);
#86= IFCRECTANGLEPROFILEDEF(.AREA.,'PL137.8*12',#50,12.,137.8);
#87= IFCCARTESIANPOINT((8077.10857554906,57.0996932983398,416.));
#88= IFCAXIS2PLACEMENT3D(#87,#72,#53);
#89= IFCEXTRUDEDAREASOLID(#86,#88,#9,832.);
#90= IFCSHAPEREPRESENTATION(#12,'Body','SweptSolid',(#89));
#91= IFCPRODUCTDEFINITIONSHAPE($,$,(#90));
#92= IFCOPENINGELEMENT('1Q5GckggD0D9$LQFpHstbL',#5,$,$,'Recess',#85,#91,$);
#93= IFCRELVOIDSELEMENT('1t_Epw7_H7kev9V4IuQ66v',#5,$,$,#69,#92);
#94= IFCPROPERTYSINGLEVALUE('RectangleOpeningHeight',$,IFCPOSITIVELENGTHMEASURE(137.8),$);
#95= IFCPROPERTYSET('3SY1Yg8EP7VO70yEVhrc9y',#5,'AISC_EM11_Pset_Opening/Cope',$,(#80,#81,#94,#83));
#96= IFCLOCALPLACEMENT(#42,#46);
#97= IFCCARTESIANPOINT((-8.90914317601346,57.0996932983398,416.));
#98= IFCAXIS2PLACEMENT3D(#97,#72,#7);
#99= IFCEXTRUDEDAREASOLID(#86,#98,#9,832.);
#100= IFCSHAPEREPRESENTATION(#12,'Body','SweptSolid',(#99));
#101= IFCPRODUCTDEFINITIONSHAPE($,$,(#100));
#102= IFCOPENINGELEMENT('0PuAzjz8PEl8sRH$ycN2HF',#5,$,$,'Recess',#96,#101,$);
#103= IFCRELVOIDSELEMENT('1pQA0Imxv47eKRfKIXdkjW',#5,$,$,#69,#102);
#104= IFCLOCALPLACEMENT(#42,#46);
#105= IFCCARTESIANPOINT((-8.90914317601346,-56.9003067016602,416.));
#106= IFCAXIS2PLACEMENT3D(#105,#72,#7);
#107= IFCEXTRUDEDAREASOLID(#71,#106,#9,832.);
#108= IFCSHAPEREPRESENTATION(#12,'Body','SweptSolid',(#107));
#109= IFCPRODUCTDEFINITIONSHAPE($,$,(#108));
#110= IFCOPENINGELEMENT('1KhuomQ_f8owVhyt8aN9D$',#5,$,$,'Recess',#104,#109,$);
#111= IFCRELVOIDSELEMENT('2vmoU1BHz0ZO2cdy67qRDO',#5,$,$,#69,#110);
#112= IFCCARTESIANPOINT((8757.99942669942,23900.9656065257,18520.));
#113= IFCAXIS2PLACEMENT3D(#112,#52,#7);
#114= IFCLOCALPLACEMENT(#42,#113);
#115= IFCCIRCLEPROFILEDEF(.AREA.,$,#50,11.5);
#116= IFCCARTESIANPOINT((0.,-0.1,0.));
#117= IFCAXIS2PLACEMENT3D(#116,#8,#7);
#118= IFCEXTRUDEDAREASOLID(#115,#117,#9,25.2);
#119= IFCSHAPEREPRESENTATION(#12,'Body','SweptSolid',(#118));
#120= IFCREPRESENTATIONMAP(#10,#119);
#121= IFCCARTESIANPOINT((0.,0.,-75.));
#122= IFCCARTESIANTRANSFORMATIONOPERATOR3D($,$,#121,$,$);
#123= IFCMAPPEDITEM(#120,#122);
#124= IFCCARTESIANPOINT((75.,0.,-75.));
#125= IFCCARTESIANTRANSFORMATIONOPERATOR3D($,$,#124,$,$);
#126= IFCMAPPEDITEM(#120,#125);
#127= IFCCARTESIANPOINT((150.,0.,-75.));
#128= IFCCARTESIANTRANSFORMATIONOPERATOR3D($,$,#127,$,$);
#129= IFCMAPPEDITEM(#120,#128);
#130= IFCCARTESIANPOINT((225.,0.,-75.));
#131= IFCCARTESIANTRANSFORMATIONOPERATOR3D($,$,#130,$,$);
#132= IFCMAPPEDITEM(#120,#131);
#133= IFCCARTESIANPOINT((300.,0.,-75.));
#134= IFCCARTESIANTRANSFORMATIONOPERATOR3D($,$,#133,$,$);
#135= IFCMAPPEDITEM(#120,#134);
#136= IFCCARTESIANPOINT((375.,0.,-75.));
#137= IFCCARTESIANTRANSFORMATIONOPERATOR3D($,$,#136,$,$);
#138= IFCMAPPEDITEM(#120,#137);
#139= IFCCARTESIANPOINT((450.,0.,-75.));
#140= IFCCARTESIANTRANSFORMATIONOPERATOR3D($,$,#139,$,$);
#141= IFCMAPPEDITEM(#120,#140);
#142= IFCCARTESIANPOINT((525.,0.,-75.));
#143= IFCCARTESIANTRANSFORMATIONOPERATOR3D($,$,#142,$,$);
#144= IFCMAPPEDITEM(#120,#143);
#145= IFCCARTESIANPOINT((600.,0.,-75.));
#146= IFCCARTESIANTRANSFORMATIONOPERATOR3D($,$,#145,$,$);
#147= IFCMAPPEDITEM(#120,#146);
#148= IFCCARTESIANPOINT((675.,0.,-75.));
#149= IFCCARTESIANTRANSFORMATIONOPERATOR3D($,$,#148,$,$);
#150= IFCMAPPEDITEM(#120,#149);
#151= IFCCARTESIANPOINT((0.,0.,75.));
#152= IFCCARTESIANTRANSFORMATIONOPERATOR3D($,$,#151,$,$);
#153= IFCMAPPEDITEM(#120,#152);
#154= IFCCARTESIANPOINT((75.,0.,75.));
#155= IFCCARTESIANTRANSFORMATIONOPERATOR3D($,$,#154,$,$);
#156= IFCMAPPEDITEM(#120,#155);
#157= IFCCARTESIANPOINT((150.,0.,75.));
#158= IFCCARTESIANTRANSFORMATIONOPERATOR3D($,$,#157,$,$);
#159= IFCMAPPEDITEM(#120,#158);
#160= IFCCARTESIANPOINT((225.,0.,75.));
#161= IFCCARTESIANTRANSFORMATIONOPERATOR3D($,$,#160,$,$);
#162= IFCMAPPEDITEM(#120,#161);
#163= IFCCARTESIANPOINT((300.,0.,75.));
#164= IFCCARTESIANTRANSFORMATIONOPERATOR3D($,$,#163,$,$);
#165= IFCMAPPEDITEM(#120,#164);
#166= IFCCARTESIANPOINT((375.,0.,75.));
#167= IFCCARTESIANTRANSFORMATIONOPERATOR3D($,$,#166,$,$);
#168= IFCMAPPEDITEM(#120,#167);
#169= IFCCARTESIANPOINT((450.,0.,75.));
#170= IFCCARTESIANTRANSFORMATIONOPERATOR3D($,$,#169,$,$);
#171= IFCMAPPEDITEM(#120,#170);
#172= IFCCARTESIANPOINT((525.,0.,75.));
#173= IFCCARTESIANTRANSFORMATIONOPERATOR3D($,$,#172,$,$);
#174= IFCMAPPEDITEM(#120,#173);
#175= IFCCARTESIANPOINT((600.,0.,75.));
#176= IFCCARTESIANTRANSFORMATIONOPERATOR3D($,$,#175,$,$);
#177= IFCMAPPEDITEM(#120,#176);
#178= IFCCARTESIANPOINT((675.,0.,75.));
#179= IFCCARTESIANTRANSFORMATIONOPERATOR3D($,$,#178,$,$);
#180= IFCMAPPEDITEM(#120,#179);
#181= IFCSHAPEREPRESENTATION(#12,'Body','MappedRepresentation',(#123,#126,#129,#132,#135,#138,#141,#144,#147,#150,#153,#156,#159,#162,#165,#168,#171,#174,#177,#180));
#182= IFCPRODUCTDEFINITIONSHAPE($,$,(#181));
#183= IFCOPENINGELEMENT('2jLPBMu8v2vA$bP9bWzbPj',#5,$,$,'Opening',#114,#182,$);
#184= IFCRELVOIDSELEMENT('0ihKKLgqnAw9C7_ig7ixjH',#5,'Drill Hole',$,#69,#183);
#185= IFCPROPERTYSINGLEVALUE('FeatureSubTypes',$,IFCLABEL('TORNILLO'),$);
#186= IFCPROPERTYSINGLEVALUE('RectangleOpeningWidth',$,$,$);
#187= IFCPROPERTYSINGLEVALUE('RectangleOpeningHeight',$,$,$);
#188= IFCPROPERTYSET('0w5KjCiur7IfjIJEvcrCoh',#5,'AISC_EM11_Pset_Opening/Cope',$,(#185,#186,#187,#83));
#189= IFCCARTESIANPOINT((8757.99942669942,23900.9656065257,19350.));
#190= IFCAXIS2PLACEMENT3D(#189,#8,#7);
#191= IFCLOCALPLACEMENT(#42,#190);
#192= IFCCIRCLEPROFILEDEF(.AREA.,$,#50,12.5);
#193= IFCEXTRUDEDAREASOLID(#192,#117,#9,25.2);
#194= IFCSHAPEREPRESENTATION(#12,'Body','SweptSolid',(#193));
#195= IFCREPRESENTATIONMAP(#10,#194);
#196= IFCMAPPEDITEM(#195,#122);
#197= IFCMAPPEDITEM(#195,#125);
#198= IFCMAPPEDITEM(#195,#128);
#199= IFCMAPPEDITEM(#195,#131);
#200= IFCMAPPEDITEM(#195,#134);
#201= IFCMAPPEDITEM(#195,#137);
#202= IFCMAPPEDITEM(#195,#140);
#203= IFCMAPPEDITEM(#195,#143);
#204= IFCMAPPEDITEM(#195,#146);
#205= IFCMAPPEDITEM(#195,#149);
#206= IFCMAPPEDITEM(#195,#152);
#207= IFCMAPPEDITEM(#195,#155);
#208= IFCMAPPEDITEM(#195,#158);
#209= IFCMAPPEDITEM(#195,#161);
#210= IFCMAPPEDITEM(#195,#164);
#211= IFCMAPPEDITEM(#195,#167);
#212= IFCMAPPEDITEM(#195,#170);
#213= IFCMAPPEDITEM(#195,#173);
#214= IFCMAPPEDITEM(#195,#176);
#215= IFCMAPPEDITEM(#195,#179);
#216= IFCSHAPEREPRESENTATION(#12,'Body','MappedRepresentation',(#196,#197,#198,#199,#200,#201,#202,#203,#204,#205,#206,#207,#208,#209,#210,#211,#212,#213,#214,#215));
#217= IFCPRODUCTDEFINITIONSHAPE($,$,(#216));
#218= IFCOPENINGELEMENT('3cdDUuI3bBHQ2PxgaO6A6A',#5,$,$,'Opening',#191,#217,$);
#219= IFCRELVOIDSELEMENT('3UPTvJW0nDSBWVmfBdEN3_',#5,'Drill Hole',$,#69,#218);
#220= IFCCARTESIANPOINT((16742.337533867,23900.9338989694,18520.));
#221= IFCDIRECTION((-0.00143953599980523,0.999998963867516,0.));
#222= IFCDIRECTION((-0.999998963867516,-0.00143953599980616,0.));
#223= IFCAXIS2PLACEMENT3D(#220,#221,#222);
#224= IFCLOCALPLACEMENT(#42,#223);
#225= IFCSHAPEREPRESENTATION(#12,'Body','MappedRepresentation',(#123,#126,#129,#132,#135,#138,#141,#144,#147,#150,#153,#156,#159,#162,#165,#168,#171,#174,#177,#180));
#226= IFCPRODUCTDEFINITIONSHAPE($,$,(#225));
#227= IFCOPENINGELEMENT('0k8sbD32r2NPLBEP25eXxM',#5,$,$,'Opening',#224,#226,$);
#228= IFCRELVOIDSELEMENT('2lu9hcvGfFX9gXGZgFGeTf',#5,'Drill Hole',$,#69,#227);
#229= IFCCARTESIANPOINT((16742.337533867,23900.9338989694,19350.));
#230= IFCDIRECTION((0.00143953599980523,-0.999998963867516,0.));
#231= IFCAXIS2PLACEMENT3D(#229,#230,#222);
#232= IFCLOCALPLACEMENT(#42,#231);
#233= IFCSHAPEREPRESENTATION(#12,'Body','MappedRepresentation',(#196,#197,#198,#199,#200,#201,#202,#203,#204,#205,#206,#207,#208,#209,#210,#211,#212,#213,#214,#215));
#234= IFCPRODUCTDEFINITIONSHAPE($,$,(#233));
#235= IFCOPENINGELEMENT('01IAKIqU10u88QQY4rIqHD',#5,$,$,'Opening',#232,#234,$);
#236= IFCRELVOIDSELEMENT('3mpO8E87PFofl_pk1pHWXa',#5,'Drill Hole',$,#69,#235);
#237= IFCCARTESIANPOINT((16787.0174440669,23896.8846435547,19350.));
#238= IFCAXIS2PLACEMENT3D(#237,#53,#72);
#239= IFCLOCALPLACEMENT(#42,#238);
#240= IFCCIRCLEPROFILEDEF(.AREA.,$,#50,9.5);
#241= IFCCARTESIANPOINT((0.,-5.10000000000001,0.));
#242= IFCAXIS2PLACEMENT3D(#241,#8,#7);
#243= IFCEXTRUDEDAREASOLID(#240,#242,#9,10.2);
#244= IFCSHAPEREPRESENTATION(#12,'Body','SweptSolid',(#243));
#245= IFCREPRESENTATIONMAP(#10,#244);
#246= IFCCARTESIANPOINT((115.,0.,50.));
#247= IFCCARTESIANTRANSFORMATIONOPERATOR3D($,$,#246,$,$);
#248= IFCMAPPEDITEM(#245,#247);
#249= IFCCARTESIANPOINT((215.,0.,50.));
#250= IFCCARTESIANTRANSFORMATIONOPERATOR3D($,$,#249,$,$);
#251= IFCMAPPEDITEM(#245,#250);
#252= IFCCARTESIANPOINT((315.,0.,50.));
#253= IFCCARTESIANTRANSFORMATIONOPERATOR3D($,$,#252,$,$);
#254= IFCMAPPEDITEM(#245,#253);
#255= IFCCARTESIANPOINT((415.,0.,50.));
#256= IFCCARTESIANTRANSFORMATIONOPERATOR3D($,$,#255,$,$);
#257= IFCMAPPEDITEM(#245,#256);
#258= IFCCARTESIANPOINT((515.,0.,50.));
#259= IFCCARTESIANTRANSFORMATIONOPERATOR3D($,$,#258,$,$);
#260= IFCMAPPEDITEM(#245,#259);
#261= IFCCARTESIANPOINT((615.,0.,50.));
#262= IFCCARTESIANTRANSFORMATIONOPERATOR3D($,$,#261,$,$);
#263= IFCMAPPEDITEM(#245,#262);
#264= IFCCARTESIANPOINT((715.,0.,50.));
#265= IFCCARTESIANTRANSFORMATIONOPERATOR3D($,$,#264,$,$);
#266= IFCMAPPEDITEM(#245,#265);
#267= IFCSHAPEREPRESENTATION(#12,'Body','MappedRepresentation',(#248,#251,#254,#257,#260,#263,#266));
#268= IFCPRODUCTDEFINITIONSHAPE($,$,(#267));
#269= IFCOPENINGELEMENT('0W$Vzb5tH9wvMhaRhzyPgp',#5,$,$,'Opening',#239,#268,$);
#270= IFCRELVOIDSELEMENT('3GpLs0Irn3wwvt$3P1SKIA',#5,'Drill Hole',$,#69,#269);
#271= IFCCARTESIANPOINT((8712.98228127493,23896.8846435547,19350.));
#272= IFCAXIS2PLACEMENT3D(#271,#7,#72);
#273= IFCLOCALPLACEMENT(#42,#272);
#274= IFCEXTRUDEDAREASOLID(#192,#242,#9,10.2);
#275= IFCSHAPEREPRESENTATION(#12,'Body','SweptSolid',(#274));
#276= IFCREPRESENTATIONMAP(#10,#275);
#277= IFCCARTESIANPOINT((152.5,0.,45.));
#278= IFCCARTESIANTRANSFORMATIONOPERATOR3D($,$,#277,$,$);
#279= IFCMAPPEDITEM(#276,#278);
#280= IFCCARTESIANPOINT((227.5,0.,45.));
#281= IFCCARTESIANTRANSFORMATIONOPERATOR3D($,$,#280,$,$);
#282= IFCMAPPEDITEM(#276,#281);
#283= IFCCARTESIANPOINT((302.5,0.,45.));
#284= IFCCARTESIANTRANSFORMATIONOPERATOR3D($,$,#283,$,$);
#285= IFCMAPPEDITEM(#276,#284);
#286= IFCCARTESIANPOINT((377.5,0.,45.));
#287= IFCCARTESIANTRANSFORMATIONOPERATOR3D($,$,#286,$,$);
#288= IFCMAPPEDITEM(#276,#287);
#289= IFCCARTESIANPOINT((452.5,0.,45.));
#290= IFCCARTESIANTRANSFORMATIONOPERATOR3D($,$,#289,$,$);
#291= IFCMAPPEDITEM(#276,#290);
#292= IFCCARTESIANPOINT((527.5,0.,45.));
#293= IFCCARTESIANTRANSFORMATIONOPERATOR3D($,$,#292,$,$);
#294= IFCMAPPEDITEM(#276,#293);
#295= IFCCARTESIANPOINT((602.5,0.,45.));
#296= IFCCARTESIANTRANSFORMATIONOPERATOR3D($,$,#295,$,$);
#297= IFCMAPPEDITEM(#276,#296);
#298= IFCCARTESIANPOINT((677.5,0.,45.));
#299= IFCCARTESIANTRANSFORMATIONOPERATOR3D($,$,#298,$,$);
#300= IFCMAPPEDITEM(#276,#299);
#301= IFCSHAPEREPRESENTATION(#12,'Body','MappedRepresentation',(#279,#282,#285,#288,#291,#294,#297,#300));
#302= IFCPRODUCTDEFINITIONSHAPE($,$,(#301));
#303= IFCOPENINGELEMENT('2FO$CCiFn6gPlZJJSEzqZs',#5,$,$,'Opening',#273,#302,$);
#304= IFCRELVOIDSELEMENT('1V_BtPVVP5Gf2AWet9vnxu',#5,'Drill Hole',$,#69,#303);
#305= IFCPROPERTYSINGLEVALUE('PieceMark',$,IFCIDENTIFIER('BEAM'),$);
#306= IFCPROPERTYSINGLEVALUE('IndicationMark',$,IFCIDENTIFIER('b/921'),$);
#307= IFCPROPERTYSINGLEVALUE('PrelimMark',$,IFCIDENTIFIER(''),$);
#308= IFCPROPERTYSINGLEVALUE('MainPieceTag',$,IFCBOOLEAN(.T.),$);
#309= IFCPROPERTYSET('25F49O83D3fgfA4UL8egTz',#5,'AISC_EM11_Pset_PieceIdentification','PieceIdentity',(#305,#306,#307,#308));
#310= IFCPROPERTYSINGLEVALUE('MaterialType',$,IFCIDENTIFIER('STEEL'),$);
#311= IFCPROPERTYSINGLEVALUE('MaterialGrade',$,IFCIDENTIFIER('S235JR'),$);
#312= IFCPROPERTYSET('2LFymdUBH9bAQOE9mRkVg0',#5,'AISC_EM11_Pset_Material',$,(#310,#311));
#313= IFCPROPERTYSINGLEVALUE('SkewedAngleY',$,IFCREAL(0.),$);
#314= IFCPROPERTYSINGLEVALUE('SkewedAngleX',$,IFCREAL(0.),$);
#315= IFCPROPERTYSET('30xWf5bdzCifTjn3j9zzsW',#5,'AISC_EM11_Pset_SkewedEnd',$,(#313,#314));
#316= IFCPROPERTYSET('1nQI1oldH4mwtss96snjLc',#5,'AISC_EM11_Pset_SkewedEnd_2',$,(#313,#314));
#317= IFCMATERIAL('STEEL/S235JR');
#318= IFCRELAGGREGATES('30cIZ11110QepSybW_yk9s',#5,$,$,#37,(#39));
#319= IFCRELAGGREGATES('2IuarJJJJIiw5kEtoGE0R8',#5,$,$,#39,(#41));
#320= IFCRELAGGREGATES('1TgM9b$bX7LhXqB9ezBMyz',#5,$,$,#41,(#43));
#321= IFCRELCONTAINEDINSPATIALSTRUCTURE('3lmjTStlv3WA00PWMZRjRS',#5,$,$,(#69),#43);
#322= IFCRELDEFINESBYPROPERTIES('2kbspQsLT7U83vQtguiSyx',#5,$,$,(#110,#78),#84);
#323= IFCRELDEFINESBYPROPERTIES('3XiqMzHS14UQ$g34ehfrqo',#5,$,$,(#102,#92),#95);
#324= IFCRELDEFINESBYPROPERTIES('0Y9i9DbGTABO9Z5GCdq9cE',#5,$,$,(#303,#269,#235,#227,#218,#183),#188);
#325= IFCRELDEFINESBYPROPERTIES('0f_cPG8Cz5ExN$IPyv6FQE',#5,$,$,(#69),#309);
#326= IFCRELDEFINESBYPROPERTIES('0DHbOSk2H4Qgn$3uv7TW1t',#5,$,$,(#69),#312);
#327= IFCRELDEFINESBYPROPERTIES('0HXmPKm5TAZf8azhHIglgY',#5,$,$,(#69),#315);
#328= IFCRELDEFINESBYPROPERTIES('2M5H_MJIjDh91NRT94UxAY',#5,$,$,(#69),#316);
#329= IFCRELASSOCIATESMATERIAL('0rDZ$UMzT3mhfBOzm4tWD0',#5,$,$,(#69),#317);
ENDSEC;

END-ISO-10303-21;
