ISO-10303-21;
HEADER;
FILE_DESCRIPTION(('ViewDefinition[AISC_Steel_Detailing]', 'Option [BaseQuantities:Off]', 'Option [GridExport:On]', 'Option [Assemblies:Off]', 'Option [Bolts:On]', 'Option [Rebars:On]', 'Option [PourObjects:Off]', 'Option [Welds:On]', 'Option [SurfaceTreatments:On]', 'Option [LocationBy:0]', 'Option [ViewColors:Off]', 'Option [SectionedSpine:Off]', 'Option [PropertySets:On]', 'Option [Export all:Off]'),'2;1');
FILE_NAME('b_929_Qty_1.ifc','2026-05-16T11:53:11',('GIOVANNIPC\\gcorrea'),('Structural Designer'),'IFC Database version: Work','Tekla Structures 2020 Service Pack 5, IFC Export Version: 4.0.0.0 Dec  7 2020','');
FILE_SCHEMA(('IFC2X3'));
ENDSEC;

DATA;
#1= IFCPERSON('GIOVANNIPC\\gcorrea','Undefined',$,$,$,$,$,$);
#2= IFCORGANIZATION($,'Trimble Solutions Corporation',$,$,$);
#3= IFCPERSONANDORGANIZATION(#1,#2,$);
#4= IFCAPPLICATION(#2,'2020 Service Pack 5','Tekla Structures','Multi material modeling');
#5= IFCOWNERHISTORY(#3,#4,$,.NOCHANGE.,$,$,$,1778950391);
#6= IFCCARTESIANPOINT((0.,0.,0.));
#7= IFCDIRECTION((1.,0.,0.));
#8= IFCDIRECTION((0.,1.,0.));
#9= IFCDIRECTION((0.,0.,1.));
#10= IFCAXIS2PLACEMENT3D(#6,#9,#7);
#11= IFCGEOMETRICREPRESENTATIONCONTEXT($,'Model',3,1.E-05,#10,$);
#12= IFCGEOMETRICREPRESENTATIONSUBCONTEXT('Body','Model',*,*,*,*,#11,$,.MODEL_VIEW.,$);
#13= IFCGEOMETRICREPRESENTATIONSUBCONTEXT('Axis','Model',*,*,*,*,#11,$,.GRAPH_VIEW.,$);
#14= IFCGEOMETRICREPRESENTATIONSUBCONTEXT('FootPrint','Model',*,*,*,*,#11,$,.MODEL_VIEW.,$);
#15= IFCSIUNIT(*,.LENGTHUNIT.,.MILLI.,.METRE.);
#16= IFCMEASUREWITHUNIT(IFCRATIOMEASURE(304.8),#15);
#17= IFCDIMENSIONALEXPONENTS(1,0,0,0,0,0,0);
#18= IFCCONVERSIONBASEDUNIT(#17,.LENGTHUNIT.,'FOOT',#16);
#19= IFCSIUNIT(*,.AREAUNIT.,$,.SQUARE_METRE.);
#20= IFCMEASUREWITHUNIT(IFCRATIOMEASURE(0.09290304),#19);
#21= IFCDIMENSIONALEXPONENTS(2,0,0,0,0,0,0);
#22= IFCCONVERSIONBASEDUNIT(#21,.AREAUNIT.,'SQUARE FOOT',#20);
#23= IFCSIUNIT(*,.VOLUMEUNIT.,$,.CUBIC_METRE.);
#24= IFCMEASUREWITHUNIT(IFCRATIOMEASURE(0.028316846592),#23);
#25= IFCDIMENSIONALEXPONENTS(3,0,0,0,0,0,0);
#26= IFCCONVERSIONBASEDUNIT(#25,.VOLUMEUNIT.,'CUBIC FOOT',#24);
#27= IFCSIUNIT(*,.MASSUNIT.,.KILO.,.GRAM.);
#28= IFCSIUNIT(*,.TIMEUNIT.,$,.SECOND.);
#29= IFCSIUNIT(*,.PLANEANGLEUNIT.,$,.RADIAN.);
#30= IFCMEASUREWITHUNIT(IFCRATIOMEASURE(0.0174532925199433),#29);
#31= IFCDIMENSIONALEXPONENTS(0,0,0,0,0,0,0);
#32= IFCCONVERSIONBASEDUNIT(#31,.PLANEANGLEUNIT.,'DEGREE',#30);
#33= IFCSIUNIT(*,.SOLIDANGLEUNIT.,$,.STERADIAN.);
#34= IFCSIUNIT(*,.THERMODYNAMICTEMPERATUREUNIT.,$,.DEGREE_CELSIUS.);
#35= IFCSIUNIT(*,.LUMINOUSINTENSITYUNIT.,$,.LUMEN.);
#36= IFCUNITASSIGNMENT((#15,#19,#23,#27,#28,#29,#33,#34,#35));
#37= IFCPROJECT('2G7ZFDNE16yBDU14FA92Me',#5,'Proyecto',$,$,$,$,(#11),#36);
#38= IFCLOCALPLACEMENT($,#10);
#39= IFCSITE('2xvEzEinjBTea80yOTcujY',#5,'Obra',$,$,#38,$,$,.ELEMENT.,$,$,$,$,$);
#40= IFCLOCALPLACEMENT(#38,#10);
#41= IFCBUILDING('0jzOYp_MrBAwD5qCz$DVTt',#5,'Undefined',$,$,#40,$,$,.ELEMENT.,$,$,$);
#42= IFCLOCALPLACEMENT(#40,#10);
#43= IFCBUILDINGSTOREY('29hdEUCErFze9E_VIAceOd',#5,'Undefined',$,$,#42,$,$,.ELEMENT.,0.);
#44= IFCOWNERHISTORY(#3,#4,$,.NOCHANGE.,$,$,$,1773320400);
#45= IFCCARTESIANPOINT((59665.1036957627,22000.0000658529,19130.));
#46= IFCAXIS2PLACEMENT3D(#45,#9,#7);
#47= IFCLOCALPLACEMENT(#42,#46);
#48= IFCDIRECTION((1.,0.));
#49= IFCCARTESIANPOINT((0.,0.));
#50= IFCAXIS2PLACEMENT2D(#49,#48);
#51= IFCISHAPEPROFILEDEF(.AREA.,'HEA450',#50,300.,440.,11.5,21.,27.);
#52= IFCDIRECTION((0.,-1.,0.));
#53= IFCDIRECTION((-1.,0.,0.));
#54= IFCCARTESIANPOINT((8162.40440293479,0.,0.));
#55= IFCAXIS2PLACEMENT3D(#54,#53,#52);
#56= IFCEXTRUDEDAREASOLID(#51,#55,#9,8162.4);
#57= IFCCARTESIANPOINT((8162.40440293479,0.146329770883312,-320.));
#58= IFCAXIS2PLACEMENT3D(#57,#53,#8);
#59= IFCPLANE(#58);
#60= IFCHALFSPACESOLID(#59,.T.);
#61= IFCBOOLEANCLIPPINGRESULT(.DIFFERENCE.,#56,#60);
#62= IFCSHAPEREPRESENTATION(#12,'Body','Clipping',(#61));
#63= IFCPRODUCTDEFINITIONSHAPE($,$,(#62));
#64= IFCBEAM('023hE8e1XBW8VDNLUarUd_',#44,'BEAM','HEA450','HEA450',#47,#63,'ID020eb388-a018-4b80-87cd-5d57a4d5e9fe');
#65= IFCCARTESIANPOINT((67107.5432475394,22002.5249638897,18910.));
#66= IFCDIRECTION((0.000467666999829816,-0.999999890643783,0.));
#67= IFCDIRECTION((0.999999890643783,0.000467666999834522,0.));
#68= IFCAXIS2PLACEMENT3D(#65,#66,#67);
#69= IFCLOCALPLACEMENT(#42,#68);
#70= IFCCIRCLEPROFILEDEF(.AREA.,$,#50,12.);
#71= IFCCARTESIANPOINT((0.,-0.1,0.));
#72= IFCAXIS2PLACEMENT3D(#71,#8,#7);
#73= IFCEXTRUDEDAREASOLID(#70,#72,#9,21.2);
#74= IFCSHAPEREPRESENTATION(#12,'Body','SweptSolid',(#73));
#75= IFCREPRESENTATIONMAP(#10,#74);
#76= IFCCARTESIANPOINT((-5.38420863449574E-10,0.,74.999999999789));
#77= IFCCARTESIANTRANSFORMATIONOPERATOR3D($,$,#76,$,$);
#78= IFCMAPPEDITEM(#75,#77);
#79= IFCCARTESIANPOINT((74.9999999992433,0.,75.0000000008768));
#80= IFCCARTESIANTRANSFORMATIONOPERATOR3D($,$,#79,$,$);
#81= IFCMAPPEDITEM(#75,#80);
#82= IFCCARTESIANPOINT((149.99999999904,0.,75.0000000019681));
#83= IFCCARTESIANTRANSFORMATIONOPERATOR3D($,$,#82,$,$);
#84= IFCMAPPEDITEM(#75,#83);
#85= IFCCARTESIANPOINT((224.999999998821,0.,75.0000000030632));
#86= IFCCARTESIANTRANSFORMATIONOPERATOR3D($,$,#85,$,$);
#87= IFCMAPPEDITEM(#75,#86);
#88= IFCCARTESIANPOINT((299.999999998603,0.,75.0000000041509));
#89= IFCCARTESIANTRANSFORMATIONOPERATOR3D($,$,#88,$,$);
#90= IFCMAPPEDITEM(#75,#89);
#91= IFCCARTESIANPOINT((374.999999998385,0.,75.0000000052423));
#92= IFCCARTESIANTRANSFORMATIONOPERATOR3D($,$,#91,$,$);
#93= IFCMAPPEDITEM(#75,#92);
#94= IFCCARTESIANPOINT((449.999999998166,0.,75.0000000063337));
#95= IFCCARTESIANTRANSFORMATIONOPERATOR3D($,$,#94,$,$);
#96= IFCMAPPEDITEM(#75,#95);
#97= IFCCARTESIANPOINT((524.999999997963,0.,75.0000000074251));
#98= IFCCARTESIANTRANSFORMATIONOPERATOR3D($,$,#97,$,$);
#99= IFCMAPPEDITEM(#75,#98);
#100= IFCCARTESIANPOINT((599.999999997744,0.,75.0000000085201));
#101= IFCCARTESIANTRANSFORMATIONOPERATOR3D($,$,#100,$,$);
#102= IFCMAPPEDITEM(#75,#101);
#103= IFCCARTESIANPOINT((674.999999997526,0.,75.0000000096079));
#104= IFCCARTESIANTRANSFORMATIONOPERATOR3D($,$,#103,$,$);
#105= IFCMAPPEDITEM(#75,#104);
#106= IFCCARTESIANPOINT((5.5297277867794E-10,0.,-74.9999999997854));
#107= IFCCARTESIANTRANSFORMATIONOPERATOR3D($,$,#106,$,$);
#108= IFCMAPPEDITEM(#75,#107);
#109= IFCCARTESIANPOINT((75.0000000003347,0.,-74.999999998694));
#110= IFCCARTESIANTRANSFORMATIONOPERATOR3D($,$,#109,$,$);
#111= IFCMAPPEDITEM(#75,#110);
#112= IFCCARTESIANPOINT((150.000000000116,0.,-74.9999999976026));
#113= IFCCARTESIANTRANSFORMATIONOPERATOR3D($,$,#112,$,$);
#114= IFCMAPPEDITEM(#75,#113);
#115= IFCCARTESIANPOINT((224.999999999913,0.,-74.9999999965112));
#116= IFCCARTESIANTRANSFORMATIONOPERATOR3D($,$,#115,$,$);
#117= IFCMAPPEDITEM(#75,#116);
#118= IFCCARTESIANPOINT((299.999999999694,0.,-74.9999999954198));
#119= IFCCARTESIANTRANSFORMATIONOPERATOR3D($,$,#118,$,$);
#120= IFCMAPPEDITEM(#75,#119);
#121= IFCCARTESIANPOINT((374.999999999476,0.,-74.9999999943284));
#122= IFCCARTESIANTRANSFORMATIONOPERATOR3D($,$,#121,$,$);
#123= IFCMAPPEDITEM(#75,#122);
#124= IFCCARTESIANPOINT((449.999999999258,0.,-74.999999993237));
#125= IFCCARTESIANTRANSFORMATIONOPERATOR3D($,$,#124,$,$);
#126= IFCMAPPEDITEM(#75,#125);
#127= IFCCARTESIANPOINT((524.999999999069,0.,-74.9999999921456));
#128= IFCCARTESIANTRANSFORMATIONOPERATOR3D($,$,#127,$,$);
#129= IFCMAPPEDITEM(#75,#128);
#130= IFCCARTESIANPOINT((599.99999999885,0.,-74.9999999910542));
#131= IFCCARTESIANTRANSFORMATIONOPERATOR3D($,$,#130,$,$);
#132= IFCMAPPEDITEM(#75,#131);
#133= IFCCARTESIANPOINT((674.999999998632,0.,-74.9999999899665));
#134= IFCCARTESIANTRANSFORMATIONOPERATOR3D($,$,#133,$,$);
#135= IFCMAPPEDITEM(#75,#134);
#136= IFCSHAPEREPRESENTATION(#12,'Body','MappedRepresentation',(#78,#81,#84,#87,#90,#93,#96,#99,#102,#105,#108,#111,#114,#117,#120,#123,#126,#129,#132,#135));
#137= IFCPRODUCTDEFINITIONSHAPE($,$,(#136));
#138= IFCOPENINGELEMENT('2BdLft2cfCp8VRGmrG9BrO',#5,$,$,'Opening',#69,#137,$);
#139= IFCRELVOIDSELEMENT('2gXU0sgbz95xELZ_P84XXi',#5,'Drill Hole',$,#64,#138);
#140= IFCPROPERTYSINGLEVALUE('FeatureSubTypes',$,IFCLABEL('TORNILLO'),$);
#141= IFCPROPERTYSINGLEVALUE('RectangleOpeningWidth',$,$,$);
#142= IFCPROPERTYSINGLEVALUE('RectangleOpeningHeight',$,$,$);
#143= IFCPROPERTYSINGLEVALUE('OpeningDiameter',$,$,$);
#144= IFCPROPERTYSET('1Aa_soMGH6yuetnJbeql5J',#5,'AISC_EM11_Pset_Opening/Cope',$,(#140,#141,#142,#143));
#145= IFCCARTESIANPOINT((67107.5432475394,22002.5249638897,19350.));
#146= IFCDIRECTION((-0.000467666999829816,0.999999890643783,0.));
#147= IFCAXIS2PLACEMENT3D(#145,#146,#67);
#148= IFCLOCALPLACEMENT(#42,#147);
#149= IFCSHAPEREPRESENTATION(#12,'Body','MappedRepresentation',(#108,#111,#114,#117,#120,#123,#126,#129,#132,#135,#78,#81,#84,#87,#90,#93,#96,#99,#102,#105));
#150= IFCPRODUCTDEFINITIONSHAPE($,$,(#149));
#151= IFCOPENINGELEMENT('3P_8PQelz6jQb5KwQTpr6D',#5,$,$,'Opening',#148,#150,$);
#152= IFCRELVOIDSELEMENT('1gL7jq8h14WujXxAeA$vIG',#5,'Drill Hole',$,#64,#151);
#153= IFCCARTESIANPOINT((67827.5080986974,22000.1751833333,19350.));
#154= IFCDIRECTION((0.,0.,-1.));
#155= IFCAXIS2PLACEMENT3D(#153,#53,#154);
#156= IFCLOCALPLACEMENT(#42,#155);
#157= IFCCIRCLEPROFILEDEF(.AREA.,$,#50,12.5);
#158= IFCCARTESIANPOINT((0.,-5.67488251955874,0.));
#159= IFCAXIS2PLACEMENT3D(#158,#8,#7);
#160= IFCEXTRUDEDAREASOLID(#157,#159,#9,11.7);
#161= IFCSHAPEREPRESENTATION(#12,'Body','SweptSolid',(#160));
#162= IFCREPRESENTATIONMAP(#10,#161);
#163= IFCCARTESIANPOINT((107.5,0.,45.));
#164= IFCCARTESIANTRANSFORMATIONOPERATOR3D($,$,#163,$,$);
#165= IFCMAPPEDITEM(#162,#164);
#166= IFCCARTESIANPOINT((182.5,0.,45.));
#167= IFCCARTESIANTRANSFORMATIONOPERATOR3D($,$,#166,$,$);
#168= IFCMAPPEDITEM(#162,#167);
#169= IFCCARTESIANPOINT((257.5,0.,45.));
#170= IFCCARTESIANTRANSFORMATIONOPERATOR3D($,$,#169,$,$);
#171= IFCMAPPEDITEM(#162,#170);
#172= IFCCARTESIANPOINT((332.5,0.,45.));
#173= IFCCARTESIANTRANSFORMATIONOPERATOR3D($,$,#172,$,$);
#174= IFCMAPPEDITEM(#162,#173);
#175= IFCSHAPEREPRESENTATION(#12,'Body','MappedRepresentation',(#165,#168,#171,#174));
#176= IFCPRODUCTDEFINITIONSHAPE($,$,(#175));
#177= IFCOPENINGELEMENT('3rJ1J9Eev5Z8Ei7wLHPV3d',#5,$,$,'Opening',#156,#176,$);
#178= IFCRELVOIDSELEMENT('3dqf3Cp3vDMuWeNvA08FEx',#5,'Drill Hole',$,#64,#177);
#179= IFCPROPERTYSINGLEVALUE('PieceMark',$,IFCIDENTIFIER('BEAM'),$);
#180= IFCPROPERTYSINGLEVALUE('IndicationMark',$,IFCIDENTIFIER('b/929'),$);
#181= IFCPROPERTYSINGLEVALUE('PrelimMark',$,IFCIDENTIFIER(''),$);
#182= IFCPROPERTYSINGLEVALUE('MainPieceTag',$,IFCBOOLEAN(.T.),$);
#183= IFCPROPERTYSET('3WEJ$AQC1FevYE5CT1Gy5C',#5,'AISC_EM11_Pset_PieceIdentification','PieceIdentity',(#179,#180,#181,#182));
#184= IFCPROPERTYSINGLEVALUE('MaterialType',$,IFCIDENTIFIER('STEEL'),$);
#185= IFCPROPERTYSINGLEVALUE('MaterialGrade',$,IFCIDENTIFIER('S235JR'),$);
#186= IFCPROPERTYSET('3d6WE8n5z50Oz2BU$mBF6B',#5,'AISC_EM11_Pset_Material',$,(#184,#185));
#187= IFCPROPERTYSINGLEVALUE('SkewedAngleY',$,IFCREAL(0.),$);
#188= IFCPROPERTYSINGLEVALUE('SkewedAngleX',$,IFCREAL(0.),$);
#189= IFCPROPERTYSET('2_rYSNKfj2zBu9g_ZqPWXc',#5,'AISC_EM11_Pset_SkewedEnd',$,(#187,#188));
#190= IFCPROPERTYSET('2txnw7LqnCMR1OH7udNTL8',#5,'AISC_EM11_Pset_SkewedEnd_2',$,(#187,#188));
#191= IFCMATERIAL('STEEL/S235JR');
#192= IFCRELAGGREGATES('1dMIxPtyz3_utEmztz_YP9',#5,$,$,#37,(#39));
#193= IFCRELAGGREGATES('2veaDh9EFLGA9W2F9FGqhR',#5,$,$,#39,(#41));
#194= IFCRELAGGREGATES('15hmM7gbjErgQniPiqhkty',#5,$,$,#41,(#43));
#195= IFCRELCONTAINEDINSPATIALSTRUCTURE('0bCbb1BdvDFB4wlFmSTbkZ',#5,$,$,(#64),#43);
#196= IFCRELDEFINESBYPROPERTIES('0SessIcy15iOfMM6IGF6n2',#5,$,$,(#177,#151,#138),#144);
#197= IFCRELDEFINESBYPROPERTIES('3OQRFXrfH9yvCyXsLSVNEc',#5,$,$,(#64),#183);
#198= IFCRELDEFINESBYPROPERTIES('0nTARrPaP0Jf5tDtNl37Vd',#5,$,$,(#64),#186);
#199= IFCRELDEFINESBYPROPERTIES('0zFLvd0uvCLxqtFym6asE3',#5,$,$,(#64),#189);
#200= IFCRELDEFINESBYPROPERTIES('0ECrDivYD6cA0ItdURvHEh',#5,$,$,(#64),#190);
#201= IFCRELASSOCIATESMATERIAL('2bOG2_C$56MBQWL9TBwutu',#5,$,$,(#64),#191);
ENDSEC;

END-ISO-10303-21;
