ISO-10303-21;
HEADER;
FILE_DESCRIPTION(('ViewDefinition[AISC_Steel_Detailing]', 'Option [BaseQuantities:Off]', 'Option [GridExport:On]', 'Option [Assemblies:Off]', 'Option [Bolts:On]', 'Option [Rebars:On]', 'Option [PourObjects:Off]', 'Option [Welds:On]', 'Option [SurfaceTreatments:On]', 'Option [LocationBy:0]', 'Option [ViewColors:Off]', 'Option [SectionedSpine:Off]', 'Option [PropertySets:On]', 'Option [Export all:Off]'),'2;1');
FILE_NAME('b_928_Qty_1.ifc','2026-05-16T11:53:10',('GIOVANNIPC\\gcorrea'),('Structural Designer'),'IFC Database version: Work','Tekla Structures 2020 Service Pack 5, IFC Export Version: 4.0.0.0 Dec  7 2020','');
FILE_SCHEMA(('IFC2X3'));
ENDSEC;

DATA;
#1= IFCPERSON('GIOVANNIPC\\gcorrea','Undefined',$,$,$,$,$,$);
#2= IFCORGANIZATION($,'Trimble Solutions Corporation',$,$,$);
#3= IFCPERSONANDORGANIZATION(#1,#2,$);
#4= IFCAPPLICATION(#2,'2020 Service Pack 5','Tekla Structures','Multi material modeling');
#5= IFCOWNERHISTORY(#3,#4,$,.NOCHANGE.,$,$,$,1778950390);
#6= IFCCARTESIANPOINT((0.,0.,0.));
#7= IFCDIRECTION((1.,0.,0.));
#8= IFCDIRECTION((0.,1.,0.));
#9= IFCDIRECTION((0.,0.,1.));
#10= IFCAXIS2PLACEMENT3D(#6,#9,#7);
#11= IFCGEOMETRICREPRESENTATIONCONTEXT($,'Model',3,1.E-05,#10,$);
#12= IFCGEOMETRICREPRESENTATIONSUBCONTEXT('Body','Model',*,*,*,*,#11,$,.MODEL_VIEW.,$);
#13= IFCGEOMETRICREPRESENTATIONSUBCONTEXT('Axis','Model',*,*,*,*,#11,$,.GRAPH_VIEW.,$);
#14= IFCGEOMETRICREPRESENTATIONSUBCONTEXT('FootPrint','Model',*,*,*,*,#11,$,.MODEL_VIEW.,$);
#15= IFCSIUNIT(*,.LENGTHUNIT.,.MILLI.,.METRE.);
#16= IFCMEASUREWITHUNIT(IFCRATIOMEASURE(304.8),#15);
#17= IFCDIMENSIONALEXPONENTS(1,0,0,0,0,0,0);
#18= IFCCONVERSIONBASEDUNIT(#17,.LENGTHUNIT.,'FOOT',#16);
#19= IFCSIUNIT(*,.AREAUNIT.,$,.SQUARE_METRE.);
#20= IFCMEASUREWITHUNIT(IFCRATIOMEASURE(0.09290304),#19);
#21= IFCDIMENSIONALEXPONENTS(2,0,0,0,0,0,0);
#22= IFCCONVERSIONBASEDUNIT(#21,.AREAUNIT.,'SQUARE FOOT',#20);
#23= IFCSIUNIT(*,.VOLUMEUNIT.,$,.CUBIC_METRE.);
#24= IFCMEASUREWITHUNIT(IFCRATIOMEASURE(0.028316846592),#23);
#25= IFCDIMENSIONALEXPONENTS(3,0,0,0,0,0,0);
#26= IFCCONVERSIONBASEDUNIT(#25,.VOLUMEUNIT.,'CUBIC FOOT',#24);
#27= IFCSIUNIT(*,.MASSUNIT.,.KILO.,.GRAM.);
#28= IFCSIUNIT(*,.TIMEUNIT.,$,.SECOND.);
#29= IFCSIUNIT(*,.PLANEANGLEUNIT.,$,.RADIAN.);
#30= IFCMEASUREWITHUNIT(IFCRATIOMEASURE(0.0174532925199433),#29);
#31= IFCDIMENSIONALEXPONENTS(0,0,0,0,0,0,0);
#32= IFCCONVERSIONBASEDUNIT(#31,.PLANEANGLEUNIT.,'DEGREE',#30);
#33= IFCSIUNIT(*,.SOLIDANGLEUNIT.,$,.STERADIAN.);
#34= IFCSIUNIT(*,.THERMODYNAMICTEMPERATUREUNIT.,$,.DEGREE_CELSIUS.);
#35= IFCSIUNIT(*,.LUMINOUSINTENSITYUNIT.,$,.LUMEN.);
#36= IFCUNITASSIGNMENT((#15,#19,#23,#27,#28,#29,#33,#34,#35));
#37= IFCPROJECT('2G7ZFDNE16yBDU14FA92Me',#5,'Proyecto',$,$,$,$,(#11),#36);
#38= IFCLOCALPLACEMENT($,#10);
#39= IFCSITE('2xvEzEinjBTea80yOTcujY',#5,'Obra',$,$,#38,$,$,.ELEMENT.,$,$,$,$,$);
#40= IFCLOCALPLACEMENT(#38,#10);
#41= IFCBUILDING('3JWC3YDrHDdealSJGY5OfQ',#5,'Undefined',$,$,#40,$,$,.ELEMENT.,$,$,$);
#42= IFCLOCALPLACEMENT(#40,#10);
#43= IFCBUILDINGSTOREY('29hdEUCErFze9E_VIAceOd',#5,'Undefined',$,$,#42,$,$,.ELEMENT.,0.);
#44= IFCOWNERHISTORY(#3,#4,$,.NOCHANGE.,$,$,$,1774022400);
#45= IFCCARTESIANPOINT((42665.0998810654,22000.0000658529,19125.));
#46= IFCAXIS2PLACEMENT3D(#45,#9,#7);
#47= IFCLOCALPLACEMENT(#42,#46);
#48= IFCDIRECTION((1.,0.));
#49= IFCCARTESIANPOINT((0.,0.));
#50= IFCAXIS2PLACEMENT2D(#49,#48);
#51= IFCISHAPEPROFILEDEF(.AREA.,'IPE450',#50,190.,450.,9.399999619,14.60000038,21.);
#52= IFCDIRECTION((0.,-1.,0.));
#53= IFCDIRECTION((-1.,0.,0.));
#54= IFCCARTESIANPOINT((8162.40821763206,0.,0.));
#55= IFCAXIS2PLACEMENT3D(#54,#53,#52);
#56= IFCEXTRUDEDAREASOLID(#51,#55,#9,8162.41);
#57= IFCCARTESIANPOINT((8162.40821763206,0.146329770883312,-320.));
#58= IFCAXIS2PLACEMENT3D(#57,#53,#8);
#59= IFCPLANE(#58);
#60= IFCHALFSPACESOLID(#59,.T.);
#61= IFCBOOLEANCLIPPINGRESULT(.DIFFERENCE.,#56,#60);
#62= IFCSHAPEREPRESENTATION(#12,'Body','Clipping',(#61));
#63= IFCPRODUCTDEFINITIONSHAPE($,$,(#62));
#64= IFCBEAM('09pihQgLHE$h2GOU4k9UUJ',#44,'BEAM','IPE450','IPE450',#47,#63,'ID09cecada-a954-4efe-b090-61e12e25e793');
#65= IFCCARTESIANPOINT((50107.5432475394,22002.5249638897,18905.));
#66= IFCDIRECTION((0.000467666999837092,-0.999999890643783,0.));
#67= IFCDIRECTION((0.999999890643783,0.000467666999834516,0.));
#68= IFCAXIS2PLACEMENT3D(#65,#66,#67);
#69= IFCLOCALPLACEMENT(#42,#68);
#70= IFCCIRCLEPROFILEDEF(.AREA.,$,#50,12.);
#71= IFCCARTESIANPOINT((0.,-5.1,0.));
#72= IFCAXIS2PLACEMENT3D(#71,#8,#7);
#73= IFCEXTRUDEDAREASOLID(#70,#72,#9,14.8);
#74= IFCSHAPEREPRESENTATION(#12,'Body','SweptSolid',(#73));
#75= IFCREPRESENTATIONMAP(#10,#74);
#76= IFCCARTESIANPOINT((0.,0.,74.999999999789));
#77= IFCCARTESIANTRANSFORMATIONOPERATOR3D($,$,#76,$,$);
#78= IFCMAPPEDITEM(#75,#77);
#79= IFCCARTESIANPOINT((74.999999999789,0.,74.9999999997854));
#80= IFCCARTESIANTRANSFORMATIONOPERATOR3D($,$,#79,$,$);
#81= IFCMAPPEDITEM(#75,#80);
#82= IFCCARTESIANPOINT((149.999999999571,0.,74.9999999997854));
#83= IFCCARTESIANTRANSFORMATIONOPERATOR3D($,$,#82,$,$);
#84= IFCMAPPEDITEM(#75,#83);
#85= IFCCARTESIANPOINT((224.99999999936,0.,74.9999999997854));
#86= IFCCARTESIANTRANSFORMATIONOPERATOR3D($,$,#85,$,$);
#87= IFCMAPPEDITEM(#75,#86);
#88= IFCCARTESIANPOINT((299.999999999141,0.,74.9999999997854));
#89= IFCCARTESIANTRANSFORMATIONOPERATOR3D($,$,#88,$,$);
#90= IFCMAPPEDITEM(#75,#89);
#91= IFCCARTESIANPOINT((374.99999999893,0.,74.9999999997854));
#92= IFCCARTESIANTRANSFORMATIONOPERATOR3D($,$,#91,$,$);
#93= IFCMAPPEDITEM(#75,#92);
#94= IFCCARTESIANPOINT((449.999999998719,0.,74.9999999997854));
#95= IFCCARTESIANTRANSFORMATIONOPERATOR3D($,$,#94,$,$);
#96= IFCMAPPEDITEM(#75,#95);
#97= IFCCARTESIANPOINT((524.999999998508,0.,74.9999999997854));
#98= IFCCARTESIANTRANSFORMATIONOPERATOR3D($,$,#97,$,$);
#99= IFCMAPPEDITEM(#75,#98);
#100= IFCCARTESIANPOINT((599.99999999829,0.,74.999999999789));
#101= IFCCARTESIANTRANSFORMATIONOPERATOR3D($,$,#100,$,$);
#102= IFCMAPPEDITEM(#75,#101);
#103= IFCCARTESIANPOINT((674.999999998079,0.,74.9999999997854));
#104= IFCCARTESIANTRANSFORMATIONOPERATOR3D($,$,#103,$,$);
#105= IFCMAPPEDITEM(#75,#104);
#106= IFCCARTESIANPOINT((0.,0.,-74.9999999997854));
#107= IFCCARTESIANTRANSFORMATIONOPERATOR3D($,$,#106,$,$);
#108= IFCMAPPEDITEM(#75,#107);
#109= IFCCARTESIANPOINT((74.9999999997817,0.,-74.9999999997854));
#110= IFCCARTESIANTRANSFORMATIONOPERATOR3D($,$,#109,$,$);
#111= IFCMAPPEDITEM(#75,#110);
#112= IFCCARTESIANPOINT((149.999999999571,0.,-74.9999999997854));
#113= IFCCARTESIANTRANSFORMATIONOPERATOR3D($,$,#112,$,$);
#114= IFCMAPPEDITEM(#75,#113);
#115= IFCCARTESIANPOINT((224.99999999936,0.,-74.9999999997854));
#116= IFCCARTESIANTRANSFORMATIONOPERATOR3D($,$,#115,$,$);
#117= IFCMAPPEDITEM(#75,#116);
#118= IFCCARTESIANPOINT((299.999999999149,0.,-74.9999999997854));
#119= IFCCARTESIANTRANSFORMATIONOPERATOR3D($,$,#118,$,$);
#120= IFCMAPPEDITEM(#75,#119);
#121= IFCCARTESIANPOINT((374.99999999893,0.,-74.9999999997854));
#122= IFCCARTESIANTRANSFORMATIONOPERATOR3D($,$,#121,$,$);
#123= IFCMAPPEDITEM(#75,#122);
#124= IFCCARTESIANPOINT((449.999999998719,0.,-74.999999999789));
#125= IFCCARTESIANTRANSFORMATIONOPERATOR3D($,$,#124,$,$);
#126= IFCMAPPEDITEM(#75,#125);
#127= IFCCARTESIANPOINT((524.999999998501,0.,-74.9999999997854));
#128= IFCCARTESIANTRANSFORMATIONOPERATOR3D($,$,#127,$,$);
#129= IFCMAPPEDITEM(#75,#128);
#130= IFCCARTESIANPOINT((599.99999999829,0.,-74.9999999997854));
#131= IFCCARTESIANTRANSFORMATIONOPERATOR3D($,$,#130,$,$);
#132= IFCMAPPEDITEM(#75,#131);
#133= IFCCARTESIANPOINT((674.999999998072,0.,-74.999999999789));
#134= IFCCARTESIANTRANSFORMATIONOPERATOR3D($,$,#133,$,$);
#135= IFCMAPPEDITEM(#75,#134);
#136= IFCSHAPEREPRESENTATION(#12,'Body','MappedRepresentation',(#78,#81,#84,#87,#90,#93,#96,#99,#102,#105,#108,#111,#114,#117,#120,#123,#126,#129,#132,#135));
#137= IFCPRODUCTDEFINITIONSHAPE($,$,(#136));
#138= IFCOPENINGELEMENT('3HJdPUJav8avuiyyub9Q43',#5,$,$,'Opening',#69,#137,$);
#139= IFCRELVOIDSELEMENT('1zO5LJq$z8iO3xUbJlriI0',#5,'Drill Hole',$,#64,#138);
#140= IFCPROPERTYSINGLEVALUE('FeatureSubTypes',$,IFCLABEL('TORNILLO'),$);
#141= IFCPROPERTYSINGLEVALUE('RectangleOpeningWidth',$,$,$);
#142= IFCPROPERTYSINGLEVALUE('RectangleOpeningHeight',$,$,$);
#143= IFCPROPERTYSINGLEVALUE('OpeningDiameter',$,$,$);
#144= IFCPROPERTYSET('0eyKkUazb0ShuUiJMhLatN',#5,'AISC_EM11_Pset_Opening/Cope',$,(#140,#141,#142,#143));
#145= IFCCARTESIANPOINT((50107.5432475394,22002.5249638897,19345.));
#146= IFCDIRECTION((-0.000467666999837092,0.999999890643783,0.));
#147= IFCAXIS2PLACEMENT3D(#145,#146,#67);
#148= IFCLOCALPLACEMENT(#42,#147);
#149= IFCSHAPEREPRESENTATION(#12,'Body','MappedRepresentation',(#108,#111,#114,#117,#120,#123,#126,#129,#132,#135,#78,#81,#84,#87,#90,#93,#96,#99,#102,#105));
#150= IFCPRODUCTDEFINITIONSHAPE($,$,(#149));
#151= IFCOPENINGELEMENT('0akYNE9OH31gHWiibtcwpK',#5,$,$,'Opening',#148,#150,$);
#152= IFCRELVOIDSELEMENT('0J8a9BR2P7muNtx7fqEJf0',#5,'Drill Hole',$,#64,#151);
#153= IFCCARTESIANPOINT((50827.5080986974,22000.1751833333,19345.));
#154= IFCDIRECTION((0.,0.,-1.));
#155= IFCAXIS2PLACEMENT3D(#153,#53,#154);
#156= IFCLOCALPLACEMENT(#42,#155);
#157= IFCCIRCLEPROFILEDEF(.AREA.,$,#50,12.5);
#158= IFCCARTESIANPOINT((0.,-4.62488232906035,0.));
#159= IFCAXIS2PLACEMENT3D(#158,#8,#7);
#160= IFCEXTRUDEDAREASOLID(#157,#159,#9,9.6);
#161= IFCSHAPEREPRESENTATION(#12,'Body','SweptSolid',(#160));
#162= IFCREPRESENTATIONMAP(#10,#161);
#163= IFCCARTESIANPOINT((107.5,0.,45.));
#164= IFCCARTESIANTRANSFORMATIONOPERATOR3D($,$,#163,$,$);
#165= IFCMAPPEDITEM(#162,#164);
#166= IFCCARTESIANPOINT((182.5,0.,45.));
#167= IFCCARTESIANTRANSFORMATIONOPERATOR3D($,$,#166,$,$);
#168= IFCMAPPEDITEM(#162,#167);
#169= IFCCARTESIANPOINT((257.5,0.,45.));
#170= IFCCARTESIANTRANSFORMATIONOPERATOR3D($,$,#169,$,$);
#171= IFCMAPPEDITEM(#162,#170);
#172= IFCCARTESIANPOINT((332.5,0.,45.));
#173= IFCCARTESIANTRANSFORMATIONOPERATOR3D($,$,#172,$,$);
#174= IFCMAPPEDITEM(#162,#173);
#175= IFCSHAPEREPRESENTATION(#12,'Body','MappedRepresentation',(#165,#168,#171,#174));
#176= IFCPRODUCTDEFINITIONSHAPE($,$,(#175));
#177= IFCOPENINGELEMENT('20JOFRRsfDiw8KPrNuIs3b',#5,$,$,'Opening',#156,#176,$);
#178= IFCRELVOIDSELEMENT('1IO4PhNnHAcgDyZ35e05r9',#5,'Drill Hole',$,#64,#177);
#179= IFCPROPERTYSINGLEVALUE('PieceMark',$,IFCIDENTIFIER('BEAM'),$);
#180= IFCPROPERTYSINGLEVALUE('IndicationMark',$,IFCIDENTIFIER('b/928'),$);
#181= IFCPROPERTYSINGLEVALUE('PrelimMark',$,IFCIDENTIFIER(''),$);
#182= IFCPROPERTYSINGLEVALUE('MainPieceTag',$,IFCBOOLEAN(.T.),$);
#183= IFCPROPERTYSET('1VXCQttRL4AQ9Qp584qKH7',#5,'AISC_EM11_Pset_PieceIdentification','PieceIdentity',(#179,#180,#181,#182));
#184= IFCPROPERTYSINGLEVALUE('MaterialType',$,IFCIDENTIFIER('STEEL'),$);
#185= IFCPROPERTYSINGLEVALUE('MaterialGrade',$,IFCIDENTIFIER('S235JR'),$);
#186= IFCPROPERTYSET('0qo78rlWX35Q63fWnxRnaz',#5,'AISC_EM11_Pset_Material',$,(#184,#185));
#187= IFCPROPERTYSINGLEVALUE('SkewedAngleY',$,IFCREAL(0.),$);
#188= IFCPROPERTYSINGLEVALUE('SkewedAngleX',$,IFCREAL(0.),$);
#189= IFCPROPERTYSET('0PCV4Ps9rBVvadblCX2gVq',#5,'AISC_EM11_Pset_SkewedEnd',$,(#187,#188));
#190= IFCPROPERTYSET('1jladX8YjFKxkGaJPZ6w3f',#5,'AISC_EM11_Pset_SkewedEnd_2',$,(#187,#188));
#191= IFCMATERIAL('STEEL/S235JR');
#192= IFCRELAGGREGATES('0Eqix96TPB9PAX19NcGDJm',#5,$,$,#37,(#39));
#193= IFCRELAGGREGATES('2W6_DROlhTRhSpJRfuYVb2',#5,$,$,#39,(#41));
#194= IFCRELAGGREGATES('3c8l0Sn5r8Quqb$YbGNNRj',#5,$,$,#41,(#43));
#195= IFCRELCONTAINEDINSPATIALSTRUCTURE('3m7zhOZC96$RSniRTyDP_z',#5,$,$,(#64),#43);
#196= IFCRELDEFINESBYPROPERTIES('3MeRI8pDL5KxzcOlFvyHnT',#5,$,$,(#177,#151,#138),#144);
#197= IFCRELDEFINESBYPROPERTIES('34Fl8Y5STFr8Q_Ns1ch$SO',#5,$,$,(#64),#183);
#198= IFCRELDEFINESBYPROPERTIES('3N2YVx$S16LftJ4E9d_r60',#5,$,$,(#64),#186);
#199= IFCRELDEFINESBYPROPERTIES('0lw7WQwDv1jOyExAMaRIbo',#5,$,$,(#64),#189);
#200= IFCRELDEFINESBYPROPERTIES('3vurU8YKX62gYHccKM3B3s',#5,$,$,(#64),#190);
#201= IFCRELASSOCIATESMATERIAL('1UIbfgxdDDAeZxO3sUV4FF',#5,$,$,(#64),#191);
ENDSEC;

END-ISO-10303-21;
