ISO-10303-21;
HEADER;
FILE_DESCRIPTION(('ViewDefinition[AISC_Steel_Detailing]', 'Option [BaseQuantities:Off]', 'Option [GridExport:On]', 'Option [Assemblies:Off]', 'Option [Bolts:On]', 'Option [Rebars:On]', 'Option [PourObjects:Off]', 'Option [Welds:On]', 'Option [SurfaceTreatments:On]', 'Option [LocationBy:0]', 'Option [ViewColors:Off]', 'Option [SectionedSpine:Off]', 'Option [PropertySets:On]', 'Option [Export all:Off]'),'2;1');
FILE_NAME('b_936_Qty_2.ifc','2026-05-16T11:52:56',('GIOVANNIPC\\gcorrea'),('Structural Designer'),'IFC Database version: Work','Tekla Structures 2020 Service Pack 5, IFC Export Version: 4.0.0.0 Dec  7 2020','');
FILE_SCHEMA(('IFC2X3'));
ENDSEC;

DATA;
#1= IFCPERSON('GIOVANNIPC\\gcorrea','Undefined',$,$,$,$,$,$);
#2= IFCORGANIZATION($,'Trimble Solutions Corporation',$,$,$);
#3= IFCPERSONANDORGANIZATION(#1,#2,$);
#4= IFCAPPLICATION(#2,'2020 Service Pack 5','Tekla Structures','Multi material modeling');
#5= IFCOWNERHISTORY(#3,#4,$,.NOCHANGE.,$,$,$,1778950376);
#6= IFCCARTESIANPOINT((0.,0.,0.));
#7= IFCDIRECTION((1.,0.,0.));
#8= IFCDIRECTION((0.,1.,0.));
#9= IFCDIRECTION((0.,0.,1.));
#10= IFCAXIS2PLACEMENT3D(#6,#9,#7);
#11= IFCGEOMETRICREPRESENTATIONCONTEXT($,'Model',3,1.E-05,#10,$);
#12= IFCGEOMETRICREPRESENTATIONSUBCONTEXT('Body','Model',*,*,*,*,#11,$,.MODEL_VIEW.,$);
#13= IFCGEOMETRICREPRESENTATIONSUBCONTEXT('Axis','Model',*,*,*,*,#11,$,.GRAPH_VIEW.,$);
#14= IFCGEOMETRICREPRESENTATIONSUBCONTEXT('FootPrint','Model',*,*,*,*,#11,$,.MODEL_VIEW.,$);
#15= IFCSIUNIT(*,.LENGTHUNIT.,.MILLI.,.METRE.);
#16= IFCMEASUREWITHUNIT(IFCRATIOMEASURE(304.8),#15);
#17= IFCDIMENSIONALEXPONENTS(1,0,0,0,0,0,0);
#18= IFCCONVERSIONBASEDUNIT(#17,.LENGTHUNIT.,'FOOT',#16);
#19= IFCSIUNIT(*,.AREAUNIT.,$,.SQUARE_METRE.);
#20= IFCMEASUREWITHUNIT(IFCRATIOMEASURE(0.09290304),#19);
#21= IFCDIMENSIONALEXPONENTS(2,0,0,0,0,0,0);
#22= IFCCONVERSIONBASEDUNIT(#21,.AREAUNIT.,'SQUARE FOOT',#20);
#23= IFCSIUNIT(*,.VOLUMEUNIT.,$,.CUBIC_METRE.);
#24= IFCMEASUREWITHUNIT(IFCRATIOMEASURE(0.028316846592),#23);
#25= IFCDIMENSIONALEXPONENTS(3,0,0,0,0,0,0);
#26= IFCCONVERSIONBASEDUNIT(#25,.VOLUMEUNIT.,'CUBIC FOOT',#24);
#27= IFCSIUNIT(*,.MASSUNIT.,.KILO.,.GRAM.);
#28= IFCSIUNIT(*,.TIMEUNIT.,$,.SECOND.);
#29= IFCSIUNIT(*,.PLANEANGLEUNIT.,$,.RADIAN.);
#30= IFCMEASUREWITHUNIT(IFCRATIOMEASURE(0.0174532925199433),#29);
#31= IFCDIMENSIONALEXPONENTS(0,0,0,0,0,0,0);
#32= IFCCONVERSIONBASEDUNIT(#31,.PLANEANGLEUNIT.,'DEGREE',#30);
#33= IFCSIUNIT(*,.SOLIDANGLEUNIT.,$,.STERADIAN.);
#34= IFCSIUNIT(*,.THERMODYNAMICTEMPERATUREUNIT.,$,.DEGREE_CELSIUS.);
#35= IFCSIUNIT(*,.LUMINOUSINTENSITYUNIT.,$,.LUMEN.);
#36= IFCUNITASSIGNMENT((#15,#19,#23,#27,#28,#29,#33,#34,#35));
#37= IFCPROJECT('2G7ZFDNE16yBDU14FA92Me',#5,'Proyecto',$,$,$,$,(#11),#36);
#38= IFCLOCALPLACEMENT($,#10);
#39= IFCSITE('2xvEzEinjBTea80yOTcujY',#5,'Obra',$,$,#38,$,$,.ELEMENT.,$,$,$,$,$);
#40= IFCLOCALPLACEMENT(#38,#10);
#41= IFCBUILDING('02o8SeDK9BlQRPd6B3rGkY',#5,'Undefined',$,$,#40,$,$,.ELEMENT.,$,$,$);
#42= IFCLOCALPLACEMENT(#40,#10);
#43= IFCBUILDINGSTOREY('29hdEUCErFze9E_VIAceOd',#5,'Undefined',$,$,#42,$,$,.ELEMENT.,0.);
#44= IFCOWNERHISTORY(#3,#4,$,.NOCHANGE.,$,$,$,1773774000);
#45= IFCCARTESIANPOINT((25059.3072202771,1603.28931573001,19130.));
#46= IFCAXIS2PLACEMENT3D(#45,#9,#7);
#47= IFCLOCALPLACEMENT(#42,#46);
#48= IFCDIRECTION((1.,0.));
#49= IFCCARTESIANPOINT((0.,0.));
#50= IFCAXIS2PLACEMENT2D(#49,#48);
#51= IFCISHAPEPROFILEDEF(.AREA.,'HI440-10-25*250',#50,250.,440.,10.,25.,7.);
#52= IFCDIRECTION((4.13590306276514E-25,-1.,0.));
#53= IFCDIRECTION((-1.,-4.13590306276514E-25,0.));
#54= IFCCARTESIANPOINT((424.96601874104,1.75761825848217E-22,0.));
#55= IFCAXIS2PLACEMENT3D(#54,#53,#52);
#56= IFCEXTRUDEDAREASOLID(#51,#55,#9,424.97);
#57= IFCDIRECTION((-0.999999999992731,3.81300000296459E-06,0.));
#58= IFCCARTESIANPOINT((424.965998718049,3.81299987566308E-05,-320.));
#59= IFCDIRECTION((3.81300000296459E-06,0.999999999992731,0.));
#60= IFCAXIS2PLACEMENT3D(#58,#57,#59);
#61= IFCPLANE(#60);
#62= IFCHALFSPACESOLID(#61,.T.);
#63= IFCBOOLEANCLIPPINGRESULT(.DIFFERENCE.,#56,#62);
#64= IFCSHAPEREPRESENTATION(#12,'Body','Clipping',(#63));
#65= IFCPRODUCTDEFINITIONSHAPE($,$,(#64));
#66= IFCBEAM('0hFf6kqnz3CusgIczj_mIP',#44,'BEAM','HI440-10-25*250','HI440-10-25*250',#47,#65,'ID2b3e91ae-d31f-4333-8daa-4a6f6dfb0499');
#67= IFCLOCALPLACEMENT(#42,#46);
#68= IFCRECTANGLEPROFILEDEF(.AREA.,'PL49*156.2',#50,49.,156.2);
#69= IFCDIRECTION((0.,0.,-1.));
#70= IFCDIRECTION((-3.81299999400374E-06,-0.999999999992731,0.));
#71= IFCCARTESIANPOINT((358.841479156838,126.000252134836,-196.5));
#72= IFCAXIS2PLACEMENT3D(#71,#70,#69);
#73= IFCEXTRUDEDAREASOLID(#68,#72,#9,252.);
#74= IFCSHAPEREPRESENTATION(#12,'Body','SweptSolid',(#73));
#75= IFCPRODUCTDEFINITIONSHAPE($,$,(#74));
#76= IFCOPENINGELEMENT('36an85mQr1ZwgEuyGuyKF4',#5,$,$,'Recess',#67,#75,$);
#77= IFCRELVOIDSELEMENT('1N3pfibsb3HeGevRWxGId8',#5,$,$,#66,#76);
#78= IFCPROPERTYSINGLEVALUE('FeatureSubTypes',$,$,$);
#79= IFCPROPERTYSINGLEVALUE('RectangleOpeningWidth',$,IFCPOSITIVELENGTHMEASURE(49.),$);
#80= IFCPROPERTYSINGLEVALUE('RectangleOpeningHeight',$,IFCPOSITIVELENGTHMEASURE(156.2),$);
#81= IFCPROPERTYSINGLEVALUE('OpeningDiameter',$,$,$);
#82= IFCPROPERTYSET('0ZKVSrou5FFeEkn5td0OnD',#5,'AISC_EM11_Pset_Opening/Cope',$,(#78,#79,#80,#81));
#83= IFCLOCALPLACEMENT(#42,#46);
#84= IFCCARTESIANPOINT((358.841479156838,126.000252134836,196.5));
#85= IFCAXIS2PLACEMENT3D(#84,#70,#69);
#86= IFCEXTRUDEDAREASOLID(#68,#85,#9,252.);
#87= IFCSHAPEREPRESENTATION(#12,'Body','SweptSolid',(#86));
#88= IFCPRODUCTDEFINITIONSHAPE($,$,(#87));
#89= IFCOPENINGELEMENT('0mZ5cuDN5AnhWNe5bknJGX',#5,$,$,'Recess',#83,#88,$);
#90= IFCRELVOIDSELEMENT('2SDT7SaVXCewDFo8Y_hh8j',#5,$,$,#66,#89);
#91= IFCCARTESIANPOINT((25300.6208395371,1603.28932952881,18910.));
#92= IFCDIRECTION((-0.00128331599942248,0.999999176549684,0.));
#93= IFCDIRECTION((-0.999999176549684,-0.00128331599942208,0.));
#94= IFCAXIS2PLACEMENT3D(#91,#92,#93);
#95= IFCLOCALPLACEMENT(#42,#94);
#96= IFCCIRCLEPROFILEDEF(.AREA.,$,#50,11.5);
#97= IFCCARTESIANPOINT((0.,-0.1,0.));
#98= IFCAXIS2PLACEMENT3D(#97,#8,#7);
#99= IFCEXTRUDEDAREASOLID(#96,#98,#9,25.2);
#100= IFCSHAPEREPRESENTATION(#12,'Body','SweptSolid',(#99));
#101= IFCREPRESENTATIONMAP(#10,#100);
#102= IFCCARTESIANPOINT((-2.18278728425503E-11,0.,-49.9999999999952));
#103= IFCCARTESIANTRANSFORMATIONOPERATOR3D($,$,#102,$,$);
#104= IFCMAPPEDITEM(#101,#103);
#105= IFCCARTESIANPOINT((70.000000000131,0.,-49.9999999999316));
#106= IFCCARTESIANTRANSFORMATIONOPERATOR3D($,$,#105,$,$);
#107= IFCMAPPEDITEM(#101,#106);
#108= IFCCARTESIANPOINT((140.000000000284,0.,-49.9999999998677));
#109= IFCCARTESIANTRANSFORMATIONOPERATOR3D($,$,#108,$,$);
#110= IFCMAPPEDITEM(#101,#109);
#111= IFCCARTESIANPOINT((210.000000000433,0.,-49.999999999804));
#112= IFCCARTESIANTRANSFORMATIONOPERATOR3D($,$,#111,$,$);
#113= IFCMAPPEDITEM(#101,#112);
#114= IFCCARTESIANPOINT((2.18278728425503E-11,0.,49.9999999999952));
#115= IFCCARTESIANTRANSFORMATIONOPERATOR3D($,$,#114,$,$);
#116= IFCMAPPEDITEM(#101,#115);
#117= IFCCARTESIANPOINT((70.0000000001746,0.,50.0000000000591));
#118= IFCCARTESIANTRANSFORMATIONOPERATOR3D($,$,#117,$,$);
#119= IFCMAPPEDITEM(#101,#118);
#120= IFCCARTESIANPOINT((140.000000000327,0.,50.0000000001228));
#121= IFCCARTESIANTRANSFORMATIONOPERATOR3D($,$,#120,$,$);
#122= IFCMAPPEDITEM(#101,#121);
#123= IFCCARTESIANPOINT((210.00000000048,0.,50.0000000001867));
#124= IFCCARTESIANTRANSFORMATIONOPERATOR3D($,$,#123,$,$);
#125= IFCMAPPEDITEM(#101,#124);
#126= IFCSHAPEREPRESENTATION(#12,'Body','MappedRepresentation',(#104,#107,#110,#113,#116,#119,#122,#125));
#127= IFCPRODUCTDEFINITIONSHAPE($,$,(#126));
#128= IFCOPENINGELEMENT('2tLnoL_XnB0RaWbTA$udyh',#5,$,$,'Opening',#95,#127,$);
#129= IFCRELVOIDSELEMENT('0EonBGr2z1NO9S_pO1Apru',#5,'Drill Hole',$,#66,#128);
#130= IFCPROPERTYSINGLEVALUE('FeatureSubTypes',$,IFCLABEL('TORNILLO'),$);
#131= IFCPROPERTYSINGLEVALUE('RectangleOpeningWidth',$,$,$);
#132= IFCPROPERTYSINGLEVALUE('RectangleOpeningHeight',$,$,$);
#133= IFCPROPERTYSET('0RrrS9rOf23OBv$xz8WEv$',#5,'AISC_EM11_Pset_Opening/Cope',$,(#130,#131,#132,#81));
#134= IFCCARTESIANPOINT((25484.2732189949,1603.2892767504,19350.));
#135= IFCAXIS2PLACEMENT3D(#134,#57,#69);
#136= IFCLOCALPLACEMENT(#42,#135);
#137= IFCCARTESIANPOINT((0.,-5.09988561027399,0.));
#138= IFCAXIS2PLACEMENT3D(#137,#8,#7);
#139= IFCEXTRUDEDAREASOLID(#96,#138,#9,10.2);
#140= IFCSHAPEREPRESENTATION(#12,'Body','SweptSolid',(#139));
#141= IFCREPRESENTATIONMAP(#10,#140);
#142= IFCCARTESIANPOINT((107.5,0.,40.));
#143= IFCCARTESIANTRANSFORMATIONOPERATOR3D($,$,#142,$,$);
#144= IFCMAPPEDITEM(#141,#143);
#145= IFCCARTESIANPOINT((107.5,0.,115.));
#146= IFCCARTESIANTRANSFORMATIONOPERATOR3D($,$,#145,$,$);
#147= IFCMAPPEDITEM(#141,#146);
#148= IFCCARTESIANPOINT((182.5,0.,40.));
#149= IFCCARTESIANTRANSFORMATIONOPERATOR3D($,$,#148,$,$);
#150= IFCMAPPEDITEM(#141,#149);
#151= IFCCARTESIANPOINT((182.5,0.,115.));
#152= IFCCARTESIANTRANSFORMATIONOPERATOR3D($,$,#151,$,$);
#153= IFCMAPPEDITEM(#141,#152);
#154= IFCCARTESIANPOINT((257.5,0.,40.));
#155= IFCCARTESIANTRANSFORMATIONOPERATOR3D($,$,#154,$,$);
#156= IFCMAPPEDITEM(#141,#155);
#157= IFCCARTESIANPOINT((257.5,0.,115.));
#158= IFCCARTESIANTRANSFORMATIONOPERATOR3D($,$,#157,$,$);
#159= IFCMAPPEDITEM(#141,#158);
#160= IFCCARTESIANPOINT((332.5,0.,40.));
#161= IFCCARTESIANTRANSFORMATIONOPERATOR3D($,$,#160,$,$);
#162= IFCMAPPEDITEM(#141,#161);
#163= IFCCARTESIANPOINT((332.5,0.,115.));
#164= IFCCARTESIANTRANSFORMATIONOPERATOR3D($,$,#163,$,$);
#165= IFCMAPPEDITEM(#141,#164);
#166= IFCSHAPEREPRESENTATION(#12,'Body','MappedRepresentation',(#144,#147,#150,#153,#156,#159,#162,#165));
#167= IFCPRODUCTDEFINITIONSHAPE($,$,(#166));
#168= IFCOPENINGELEMENT('2F1flG_e9BheDhgKq4xdup',#5,$,$,'Opening',#136,#167,$);
#169= IFCRELVOIDSELEMENT('2HAU971trBe9IF9KP5BI0x',#5,'Drill Hole',$,#66,#168);
#170= IFCPROPERTYSINGLEVALUE('PieceMark',$,IFCIDENTIFIER('BEAM'),$);
#171= IFCPROPERTYSINGLEVALUE('IndicationMark',$,IFCIDENTIFIER('b/936'),$);
#172= IFCPROPERTYSINGLEVALUE('PrelimMark',$,IFCIDENTIFIER(''),$);
#173= IFCPROPERTYSINGLEVALUE('MainPieceTag',$,IFCBOOLEAN(.F.),$);
#174= IFCPROPERTYSET('0jS47Lib96BPtv0NQUxJTO',#5,'AISC_EM11_Pset_PieceIdentification','PieceIdentity',(#170,#171,#172,#173));
#175= IFCPROPERTYSINGLEVALUE('MaterialType',$,IFCIDENTIFIER('STEEL'),$);
#176= IFCPROPERTYSINGLEVALUE('MaterialGrade',$,IFCIDENTIFIER('S235JR'),$);
#177= IFCPROPERTYSET('2OKfW4HhX5FwKOGDKWYGLp',#5,'AISC_EM11_Pset_Material',$,(#175,#176));
#178= IFCPROPERTYSINGLEVALUE('SkewedAngleY',$,IFCREAL(0.),$);
#179= IFCPROPERTYSINGLEVALUE('SkewedAngleX',$,IFCREAL(0.),$);
#180= IFCPROPERTYSET('07tpAIv_r7MAIuhQqJnNL_',#5,'AISC_EM11_Pset_SkewedEnd',$,(#178,#179));
#181= IFCPROPERTYSET('1uMJCzJXv2b8OTHregI9gn',#5,'AISC_EM11_Pset_SkewedEnd_2',$,(#178,#179));
#182= IFCMATERIAL('STEEL/S235JR');
#183= IFCRELAGGREGATES('0EJ9lFpMr6I962hp7DIyZZ',#5,$,$,#37,(#39));
#184= IFCRELAGGREGATES('2WbR1X5e7OaROKz5PVaErr',#5,$,$,#39,(#41));
#185= IFCRELAGGREGATES('2HhQr8Ef56eeq0c__1DBsG',#5,$,$,#41,(#43));
#186= IFCRELCONTAINEDINSPATIALSTRUCTURE('0NjAsfXTT4vhatzVMfNtzw',#5,$,$,(#66),#43);
#187= IFCRELDEFINESBYPROPERTIES('0wMtBEQJ551ukhcmEyhh_E',#5,$,$,(#89,#76),#82);
#188= IFCRELDEFINESBYPROPERTIES('3jh$gdY0z5VhtIllUnUgcl',#5,$,$,(#168,#128),#133);
#189= IFCRELDEFINESBYPROPERTIES('299FtWyrX9A82i9vfMGsMj',#5,$,$,(#66),#174);
#190= IFCRELDEFINESBYPROPERTIES('2X414TA0nCNg0tPqcJuajq',#5,$,$,(#66),#177);
#191= IFCRELDEFINESBYPROPERTIES('38ZK_Koxv8UBBxUGGqBcNQ',#5,$,$,(#66),#180);
#192= IFCRELDEFINESBYPROPERTIES('06x0Uodx90wRMUYg8Wz9Mb',#5,$,$,(#66),#181);
#193= IFCRELASSOCIATESMATERIAL('3FyWJelHv6KhLuWKdmPXOA',#5,$,$,(#66),#182);
ENDSEC;

END-ISO-10303-21;
