ISO-10303-21;
HEADER;
FILE_DESCRIPTION(('ViewDefinition[AISC_Steel_Detailing]', 'Option [BaseQuantities:Off]', 'Option [GridExport:On]', 'Option [Assemblies:Off]', 'Option [Bolts:On]', 'Option [Rebars:On]', 'Option [PourObjects:Off]', 'Option [Welds:On]', 'Option [SurfaceTreatments:On]', 'Option [LocationBy:0]', 'Option [ViewColors:Off]', 'Option [SectionedSpine:Off]', 'Option [PropertySets:On]', 'Option [Export all:Off]'),'2;1');
FILE_NAME('b_938_Qty_1.ifc','2026-05-16T11:52:56',('GIOVANNIPC\\gcorrea'),('Structural Designer'),'IFC Database version: Work','Tekla Structures 2020 Service Pack 5, IFC Export Version: 4.0.0.0 Dec  7 2020','');
FILE_SCHEMA(('IFC2X3'));
ENDSEC;

DATA;
#1= IFCPERSON('GIOVANNIPC\\gcorrea','Undefined',$,$,$,$,$,$);
#2= IFCORGANIZATION($,'Trimble Solutions Corporation',$,$,$);
#3= IFCPERSONANDORGANIZATION(#1,#2,$);
#4= IFCAPPLICATION(#2,'2020 Service Pack 5','Tekla Structures','Multi material modeling');
#5= IFCOWNERHISTORY(#3,#4,$,.NOCHANGE.,$,$,$,1778950376);
#6= IFCCARTESIANPOINT((0.,0.,0.));
#7= IFCDIRECTION((1.,0.,0.));
#8= IFCDIRECTION((0.,1.,0.));
#9= IFCDIRECTION((0.,0.,1.));
#10= IFCAXIS2PLACEMENT3D(#6,#9,#7);
#11= IFCGEOMETRICREPRESENTATIONCONTEXT($,'Model',3,1.E-05,#10,$);
#12= IFCGEOMETRICREPRESENTATIONSUBCONTEXT('Body','Model',*,*,*,*,#11,$,.MODEL_VIEW.,$);
#13= IFCGEOMETRICREPRESENTATIONSUBCONTEXT('Axis','Model',*,*,*,*,#11,$,.GRAPH_VIEW.,$);
#14= IFCGEOMETRICREPRESENTATIONSUBCONTEXT('FootPrint','Model',*,*,*,*,#11,$,.MODEL_VIEW.,$);
#15= IFCSIUNIT(*,.LENGTHUNIT.,.MILLI.,.METRE.);
#16= IFCMEASUREWITHUNIT(IFCRATIOMEASURE(304.8),#15);
#17= IFCDIMENSIONALEXPONENTS(1,0,0,0,0,0,0);
#18= IFCCONVERSIONBASEDUNIT(#17,.LENGTHUNIT.,'FOOT',#16);
#19= IFCSIUNIT(*,.AREAUNIT.,$,.SQUARE_METRE.);
#20= IFCMEASUREWITHUNIT(IFCRATIOMEASURE(0.09290304),#19);
#21= IFCDIMENSIONALEXPONENTS(2,0,0,0,0,0,0);
#22= IFCCONVERSIONBASEDUNIT(#21,.AREAUNIT.,'SQUARE FOOT',#20);
#23= IFCSIUNIT(*,.VOLUMEUNIT.,$,.CUBIC_METRE.);
#24= IFCMEASUREWITHUNIT(IFCRATIOMEASURE(0.028316846592),#23);
#25= IFCDIMENSIONALEXPONENTS(3,0,0,0,0,0,0);
#26= IFCCONVERSIONBASEDUNIT(#25,.VOLUMEUNIT.,'CUBIC FOOT',#24);
#27= IFCSIUNIT(*,.MASSUNIT.,.KILO.,.GRAM.);
#28= IFCSIUNIT(*,.TIMEUNIT.,$,.SECOND.);
#29= IFCSIUNIT(*,.PLANEANGLEUNIT.,$,.RADIAN.);
#30= IFCMEASUREWITHUNIT(IFCRATIOMEASURE(0.0174532925199433),#29);
#31= IFCDIMENSIONALEXPONENTS(0,0,0,0,0,0,0);
#32= IFCCONVERSIONBASEDUNIT(#31,.PLANEANGLEUNIT.,'DEGREE',#30);
#33= IFCSIUNIT(*,.SOLIDANGLEUNIT.,$,.STERADIAN.);
#34= IFCSIUNIT(*,.THERMODYNAMICTEMPERATUREUNIT.,$,.DEGREE_CELSIUS.);
#35= IFCSIUNIT(*,.LUMINOUSINTENSITYUNIT.,$,.LUMEN.);
#36= IFCUNITASSIGNMENT((#15,#19,#23,#27,#28,#29,#33,#34,#35));
#37= IFCPROJECT('2G7ZFDNE16yBDU14FA92Me',#5,'Proyecto',$,$,$,$,(#11),#36);
#38= IFCLOCALPLACEMENT($,#10);
#39= IFCSITE('2xvEzEinjBTea80yOTcujY',#5,'Obra',$,$,#38,$,$,.ELEMENT.,$,$,$,$,$);
#40= IFCLOCALPLACEMENT(#38,#10);
#41= IFCBUILDING('1VuJm2MsD8IBfpxJ3p4Rvs',#5,'Undefined',$,$,#40,$,$,.ELEMENT.,$,$,$);
#42= IFCLOCALPLACEMENT(#40,#10);
#43= IFCBUILDINGSTOREY('29hdEUCErFze9E_VIAceOd',#5,'Undefined',$,$,#42,$,$,.ELEMENT.,0.);
#44= IFCOWNERHISTORY(#3,#4,$,.NOCHANGE.,$,$,$,1774890000);
#45= IFCCARTESIANPOINT((8715.90014648438,1603.29535644531,18935.));
#46= IFCAXIS2PLACEMENT3D(#45,#9,#7);
#47= IFCLOCALPLACEMENT(#42,#46);
#48= IFCDIRECTION((1.,0.));
#49= IFCCARTESIANPOINT((0.,0.));
#50= IFCAXIS2PLACEMENT2D(#49,#48);
#51= IFCISHAPEPROFILEDEF(.AREA.,'HI830-10-25*250',#50,250.,830.,10.,25.,7.);
#52= IFCDIRECTION((0.,-1.,0.));
#53= IFCDIRECTION((-1.,0.,0.));
#54= IFCCARTESIANPOINT((8071.1003808025,0.,0.));
#55= IFCAXIS2PLACEMENT3D(#54,#53,#52);
#56= IFCEXTRUDEDAREASOLID(#51,#55,#9,8074.);
#57= IFCCARTESIANPOINT((8071.1003808025,0.,-515.));
#58= IFCAXIS2PLACEMENT3D(#57,#53,#8);
#59= IFCPLANE(#58);
#60= IFCHALFSPACESOLID(#59,.T.);
#61= IFCBOOLEANCLIPPINGRESULT(.DIFFERENCE.,#56,#60);
#62= IFCCARTESIANPOINT((-2.90067377124433,0.,-515.));
#63= IFCAXIS2PLACEMENT3D(#62,#7,#52);
#64= IFCPLANE(#63);
#65= IFCHALFSPACESOLID(#64,.T.);
#66= IFCBOOLEANCLIPPINGRESULT(.DIFFERENCE.,#61,#65);
#67= IFCSHAPEREPRESENTATION(#12,'Body','Clipping',(#66));
#68= IFCPRODUCTDEFINITIONSHAPE($,$,(#67));
#69= IFCBEAM('0y2DmwJxrFlgLVYHGL4TB8',#44,'BEAM','HI830-10-25*250','HI830-10-25*250',#47,#68,'ID3c08dc3a-4fbd-4fbe-a55f-89141511d2c8');
#70= IFCLOCALPLACEMENT(#42,#46);
#71= IFCRECTANGLEPROFILEDEF(.AREA.,'PL138*12',#50,12.,138.);
#72= IFCDIRECTION((0.,0.,-1.));
#73= IFCCARTESIANPOINT((-8.90041012780966,56.9969865417479,416.));
#74= IFCAXIS2PLACEMENT3D(#73,#72,#7);
#75= IFCEXTRUDEDAREASOLID(#71,#74,#9,832.);
#76= IFCSHAPEREPRESENTATION(#12,'Body','SweptSolid',(#75));
#77= IFCPRODUCTDEFINITIONSHAPE($,$,(#76));
#78= IFCOPENINGELEMENT('3jM1igNs1C09iARejGDqZa',#5,$,$,'Recess',#70,#77,$);
#79= IFCRELVOIDSELEMENT('2RvvfLpyj9wA2X8g5hBKBv',#5,$,$,#69,#78);
#80= IFCPROPERTYSINGLEVALUE('FeatureSubTypes',$,$,$);
#81= IFCPROPERTYSINGLEVALUE('RectangleOpeningWidth',$,IFCPOSITIVELENGTHMEASURE(12.),$);
#82= IFCPROPERTYSINGLEVALUE('RectangleOpeningHeight',$,IFCPOSITIVELENGTHMEASURE(138.),$);
#83= IFCPROPERTYSINGLEVALUE('OpeningDiameter',$,$,$);
#84= IFCPROPERTYSET('0pUmOth9v1v9DLBFy34umM',#5,'AISC_EM11_Pset_Opening/Cope',$,(#80,#81,#82,#83));
#85= IFCLOCALPLACEMENT(#42,#46);
#86= IFCCARTESIANPOINT((-8.90041012780966,-57.0030134582521,416.));
#87= IFCAXIS2PLACEMENT3D(#86,#72,#7);
#88= IFCEXTRUDEDAREASOLID(#71,#87,#9,832.);
#89= IFCSHAPEREPRESENTATION(#12,'Body','SweptSolid',(#88));
#90= IFCPRODUCTDEFINITIONSHAPE($,$,(#89));
#91= IFCOPENINGELEMENT('16Z5TSyo9EjgKXYZanSOqL',#5,$,$,'Recess',#85,#90,$);
#92= IFCRELVOIDSELEMENT('01HXcKI$T5PxqO_41f1jXg',#5,$,$,#69,#91);
#93= IFCLOCALPLACEMENT(#42,#46);
#94= IFCCARTESIANPOINT((8077.10011715906,-57.0030134582521,416.));
#95= IFCAXIS2PLACEMENT3D(#94,#72,#53);
#96= IFCEXTRUDEDAREASOLID(#71,#95,#9,832.);
#97= IFCSHAPEREPRESENTATION(#12,'Body','SweptSolid',(#96));
#98= IFCPRODUCTDEFINITIONSHAPE($,$,(#97));
#99= IFCOPENINGELEMENT('2LzAEyHoX2VeuIQlnor1Is',#5,$,$,'Recess',#93,#98,$);
#100= IFCRELVOIDSELEMENT('1D3KBO9OfFuACSp6RrM6Js',#5,$,$,#69,#99);
#101= IFCLOCALPLACEMENT(#42,#46);
#102= IFCCARTESIANPOINT((8077.10011715906,56.9969865417479,416.));
#103= IFCAXIS2PLACEMENT3D(#102,#72,#53);
#104= IFCEXTRUDEDAREASOLID(#71,#103,#9,832.);
#105= IFCSHAPEREPRESENTATION(#12,'Body','SweptSolid',(#104));
#106= IFCPRODUCTDEFINITIONSHAPE($,$,(#105));
#107= IFCOPENINGELEMENT('2We9dQdq9BrQBrZ9ifZMJQ',#5,$,$,'Recess',#101,#106,$);
#108= IFCRELVOIDSELEMENT('1w4Cc09nv3OBSyoEzjZrza',#5,$,$,#69,#107);
#109= IFCCARTESIANPOINT((16742.1079479209,1603.2953486024,18520.));
#110= IFCDIRECTION((-0.00143953599980887,0.999998963867516,0.));
#111= IFCDIRECTION((-0.999998963867516,-0.00143953599980911,0.));
#112= IFCAXIS2PLACEMENT3D(#109,#110,#111);
#113= IFCLOCALPLACEMENT(#42,#112);
#114= IFCCIRCLEPROFILEDEF(.AREA.,$,#50,11.5);
#115= IFCCARTESIANPOINT((0.,-0.1,0.));
#116= IFCAXIS2PLACEMENT3D(#115,#8,#7);
#117= IFCEXTRUDEDAREASOLID(#114,#116,#9,25.2);
#118= IFCSHAPEREPRESENTATION(#12,'Body','SweptSolid',(#117));
#119= IFCREPRESENTATIONMAP(#10,#118);
#120= IFCCARTESIANPOINT((1.67347025126219E-10,0.,-74.9999999999952));
#121= IFCCARTESIANTRANSFORMATIONOPERATOR3D($,$,#120,$,$);
#122= IFCMAPPEDITEM(#119,#121);
#123= IFCCARTESIANPOINT((75.0000000001273,0.,-74.9999999997906));
#124= IFCCARTESIANTRANSFORMATIONOPERATOR3D($,$,#123,$,$);
#125= IFCMAPPEDITEM(#119,#124);
#126= IFCCARTESIANPOINT((150.000000000087,0.,-74.999999999586));
#127= IFCCARTESIANTRANSFORMATIONOPERATOR3D($,$,#126,$,$);
#128= IFCMAPPEDITEM(#119,#127);
#129= IFCCARTESIANPOINT((225.000000000051,0.,-74.9999999993813));
#130= IFCCARTESIANTRANSFORMATIONOPERATOR3D($,$,#129,$,$);
#131= IFCMAPPEDITEM(#119,#130);
#132= IFCCARTESIANPOINT((300.000000000015,0.,-74.9999999991767));
#133= IFCCARTESIANTRANSFORMATIONOPERATOR3D($,$,#132,$,$);
#134= IFCMAPPEDITEM(#119,#133);
#135= IFCCARTESIANPOINT((374.999999999973,0.,-74.999999998972));
#136= IFCCARTESIANTRANSFORMATIONOPERATOR3D($,$,#135,$,$);
#137= IFCMAPPEDITEM(#119,#136);
#138= IFCCARTESIANPOINT((449.999999999935,0.,-74.9999999987674));
#139= IFCCARTESIANTRANSFORMATIONOPERATOR3D($,$,#138,$,$);
#140= IFCMAPPEDITEM(#119,#139);
#141= IFCCARTESIANPOINT((524.999999999894,0.,-74.9999999985628));
#142= IFCCARTESIANTRANSFORMATIONOPERATOR3D($,$,#141,$,$);
#143= IFCMAPPEDITEM(#119,#142);
#144= IFCCARTESIANPOINT((599.999999999856,0.,-74.9999999983581));
#145= IFCCARTESIANTRANSFORMATIONOPERATOR3D($,$,#144,$,$);
#146= IFCMAPPEDITEM(#119,#145);
#147= IFCCARTESIANPOINT((674.999999999816,0.,-74.9999999981537));
#148= IFCCARTESIANTRANSFORMATIONOPERATOR3D($,$,#147,$,$);
#149= IFCMAPPEDITEM(#119,#148);
#150= IFCCARTESIANPOINT((-1.74622982740402E-10,0.,74.999999999995));
#151= IFCCARTESIANTRANSFORMATIONOPERATOR3D($,$,#150,$,$);
#152= IFCMAPPEDITEM(#119,#151);
#153= IFCCARTESIANPOINT((74.999999999789,0.,75.0000000001996));
#154= IFCCARTESIANTRANSFORMATIONOPERATOR3D($,$,#153,$,$);
#155= IFCMAPPEDITEM(#119,#154);
#156= IFCCARTESIANPOINT((149.999999999749,0.,75.0000000004043));
#157= IFCCARTESIANTRANSFORMATIONOPERATOR3D($,$,#156,$,$);
#158= IFCMAPPEDITEM(#119,#157);
#159= IFCCARTESIANPOINT((224.999999999709,0.,75.0000000006089));
#160= IFCCARTESIANTRANSFORMATIONOPERATOR3D($,$,#159,$,$);
#161= IFCMAPPEDITEM(#119,#160);
#162= IFCCARTESIANPOINT((299.999999999673,0.,75.0000000008135));
#163= IFCCARTESIANTRANSFORMATIONOPERATOR3D($,$,#162,$,$);
#164= IFCMAPPEDITEM(#119,#163);
#165= IFCCARTESIANPOINT((374.999999999631,0.,75.0000000010182));
#166= IFCCARTESIANTRANSFORMATIONOPERATOR3D($,$,#165,$,$);
#167= IFCMAPPEDITEM(#119,#166);
#168= IFCCARTESIANPOINT((449.999999999593,0.,75.0000000012228));
#169= IFCCARTESIANTRANSFORMATIONOPERATOR3D($,$,#168,$,$);
#170= IFCMAPPEDITEM(#119,#169);
#171= IFCCARTESIANPOINT((524.999999999554,0.,75.0000000014275));
#172= IFCCARTESIANTRANSFORMATIONOPERATOR3D($,$,#171,$,$);
#173= IFCMAPPEDITEM(#119,#172);
#174= IFCCARTESIANPOINT((599.999999999514,0.,75.0000000016321));
#175= IFCCARTESIANTRANSFORMATIONOPERATOR3D($,$,#174,$,$);
#176= IFCMAPPEDITEM(#119,#175);
#177= IFCCARTESIANPOINT((674.999999999476,0.,75.0000000018367));
#178= IFCCARTESIANTRANSFORMATIONOPERATOR3D($,$,#177,$,$);
#179= IFCMAPPEDITEM(#119,#178);
#180= IFCSHAPEREPRESENTATION(#12,'Body','MappedRepresentation',(#122,#125,#128,#131,#134,#137,#140,#143,#146,#149,#152,#155,#158,#161,#164,#167,#170,#173,#176,#179));
#181= IFCPRODUCTDEFINITIONSHAPE($,$,(#180));
#182= IFCOPENINGELEMENT('3VGi_91un53xoqMhjtYlzP',#5,$,$,'Opening',#113,#181,$);
#183= IFCRELVOIDSELEMENT('2kf0p7qHv90fGaQ3IWQ4cO',#5,'Drill Hole',$,#69,#182);
#184= IFCPROPERTYSINGLEVALUE('FeatureSubTypes',$,IFCLABEL('TORNILLO'),$);
#185= IFCPROPERTYSINGLEVALUE('RectangleOpeningWidth',$,$,$);
#186= IFCPROPERTYSINGLEVALUE('RectangleOpeningHeight',$,$,$);
#187= IFCPROPERTYSET('2KCv_2_$L3gwV4GQ7PKy7t',#5,'AISC_EM11_Pset_Opening/Cope',$,(#184,#185,#186,#83));
#188= IFCCARTESIANPOINT((16742.1079479209,1603.2953486024,19350.));
#189= IFCDIRECTION((0.00143953599980887,-0.999998963867516,0.));
#190= IFCAXIS2PLACEMENT3D(#188,#189,#111);
#191= IFCLOCALPLACEMENT(#42,#190);
#192= IFCCIRCLEPROFILEDEF(.AREA.,$,#50,12.5);
#193= IFCEXTRUDEDAREASOLID(#192,#116,#9,25.2);
#194= IFCSHAPEREPRESENTATION(#12,'Body','SweptSolid',(#193));
#195= IFCREPRESENTATIONMAP(#10,#194);
#196= IFCMAPPEDITEM(#195,#121);
#197= IFCMAPPEDITEM(#195,#124);
#198= IFCMAPPEDITEM(#195,#127);
#199= IFCMAPPEDITEM(#195,#130);
#200= IFCMAPPEDITEM(#195,#133);
#201= IFCMAPPEDITEM(#195,#136);
#202= IFCMAPPEDITEM(#195,#139);
#203= IFCMAPPEDITEM(#195,#142);
#204= IFCMAPPEDITEM(#195,#145);
#205= IFCMAPPEDITEM(#195,#148);
#206= IFCMAPPEDITEM(#195,#151);
#207= IFCMAPPEDITEM(#195,#154);
#208= IFCMAPPEDITEM(#195,#157);
#209= IFCMAPPEDITEM(#195,#160);
#210= IFCMAPPEDITEM(#195,#163);
#211= IFCMAPPEDITEM(#195,#166);
#212= IFCMAPPEDITEM(#195,#169);
#213= IFCMAPPEDITEM(#195,#172);
#214= IFCMAPPEDITEM(#195,#175);
#215= IFCMAPPEDITEM(#195,#178);
#216= IFCSHAPEREPRESENTATION(#12,'Body','MappedRepresentation',(#196,#197,#198,#199,#200,#201,#202,#203,#204,#205,#206,#207,#208,#209,#210,#211,#212,#213,#214,#215));
#217= IFCPRODUCTDEFINITIONSHAPE($,$,(#216));
#218= IFCOPENINGELEMENT('35ew5G9rzEy8KC_1UH4qA3',#5,$,$,'Opening',#191,#217,$);
#219= IFCRELVOIDSELEMENT('3FFR2uqk57aejFlfBuxdQF',#5,'Drill Hole',$,#69,#218);
#220= IFCCARTESIANPOINT((8712.99947271313,1603.29535644531,19350.));
#221= IFCAXIS2PLACEMENT3D(#220,#7,#72);
#222= IFCLOCALPLACEMENT(#42,#221);
#223= IFCCIRCLEPROFILEDEF(.AREA.,$,#50,9.5);
#224= IFCCARTESIANPOINT((0.,-5.10000000000001,0.));
#225= IFCAXIS2PLACEMENT3D(#224,#8,#7);
#226= IFCEXTRUDEDAREASOLID(#223,#225,#9,10.2);
#227= IFCSHAPEREPRESENTATION(#12,'Body','SweptSolid',(#226));
#228= IFCREPRESENTATIONMAP(#10,#227);
#229= IFCCARTESIANPOINT((115.,0.,45.));
#230= IFCCARTESIANTRANSFORMATIONOPERATOR3D($,$,#229,$,$);
#231= IFCMAPPEDITEM(#228,#230);
#232= IFCCARTESIANPOINT((215.,0.,45.));
#233= IFCCARTESIANTRANSFORMATIONOPERATOR3D($,$,#232,$,$);
#234= IFCMAPPEDITEM(#228,#233);
#235= IFCCARTESIANPOINT((315.,0.,45.));
#236= IFCCARTESIANTRANSFORMATIONOPERATOR3D($,$,#235,$,$);
#237= IFCMAPPEDITEM(#228,#236);
#238= IFCCARTESIANPOINT((415.,0.,45.));
#239= IFCCARTESIANTRANSFORMATIONOPERATOR3D($,$,#238,$,$);
#240= IFCMAPPEDITEM(#228,#239);
#241= IFCCARTESIANPOINT((515.,0.,45.));
#242= IFCCARTESIANTRANSFORMATIONOPERATOR3D($,$,#241,$,$);
#243= IFCMAPPEDITEM(#228,#242);
#244= IFCCARTESIANPOINT((615.,0.,45.));
#245= IFCCARTESIANTRANSFORMATIONOPERATOR3D($,$,#244,$,$);
#246= IFCMAPPEDITEM(#228,#245);
#247= IFCCARTESIANPOINT((715.,0.,45.));
#248= IFCCARTESIANTRANSFORMATIONOPERATOR3D($,$,#247,$,$);
#249= IFCMAPPEDITEM(#228,#248);
#250= IFCSHAPEREPRESENTATION(#12,'Body','MappedRepresentation',(#231,#234,#237,#240,#243,#246,#249));
#251= IFCPRODUCTDEFINITIONSHAPE($,$,(#250));
#252= IFCOPENINGELEMENT('0pXxSQUif3uBsMBPASZqdB',#5,$,$,'Opening',#222,#251,$);
#253= IFCRELVOIDSELEMENT('0XjaO9aKX8Fg83YdBlu7aV',#5,'Drill Hole',$,#69,#252);
#254= IFCCARTESIANPOINT((16787.0005272869,1603.29535644531,19350.));
#255= IFCAXIS2PLACEMENT3D(#254,#53,#72);
#256= IFCLOCALPLACEMENT(#42,#255);
#257= IFCEXTRUDEDAREASOLID(#192,#225,#9,10.2);
#258= IFCSHAPEREPRESENTATION(#12,'Body','SweptSolid',(#257));
#259= IFCREPRESENTATIONMAP(#10,#258);
#260= IFCCARTESIANPOINT((152.5,0.,45.));
#261= IFCCARTESIANTRANSFORMATIONOPERATOR3D($,$,#260,$,$);
#262= IFCMAPPEDITEM(#259,#261);
#263= IFCCARTESIANPOINT((227.5,0.,45.));
#264= IFCCARTESIANTRANSFORMATIONOPERATOR3D($,$,#263,$,$);
#265= IFCMAPPEDITEM(#259,#264);
#266= IFCCARTESIANPOINT((302.5,0.,45.));
#267= IFCCARTESIANTRANSFORMATIONOPERATOR3D($,$,#266,$,$);
#268= IFCMAPPEDITEM(#259,#267);
#269= IFCCARTESIANPOINT((377.5,0.,45.));
#270= IFCCARTESIANTRANSFORMATIONOPERATOR3D($,$,#269,$,$);
#271= IFCMAPPEDITEM(#259,#270);
#272= IFCCARTESIANPOINT((452.5,0.,45.));
#273= IFCCARTESIANTRANSFORMATIONOPERATOR3D($,$,#272,$,$);
#274= IFCMAPPEDITEM(#259,#273);
#275= IFCCARTESIANPOINT((527.5,0.,45.));
#276= IFCCARTESIANTRANSFORMATIONOPERATOR3D($,$,#275,$,$);
#277= IFCMAPPEDITEM(#259,#276);
#278= IFCCARTESIANPOINT((602.5,0.,45.));
#279= IFCCARTESIANTRANSFORMATIONOPERATOR3D($,$,#278,$,$);
#280= IFCMAPPEDITEM(#259,#279);
#281= IFCCARTESIANPOINT((677.5,0.,45.));
#282= IFCCARTESIANTRANSFORMATIONOPERATOR3D($,$,#281,$,$);
#283= IFCMAPPEDITEM(#259,#282);
#284= IFCSHAPEREPRESENTATION(#12,'Body','MappedRepresentation',(#262,#265,#268,#271,#274,#277,#280,#283));
#285= IFCPRODUCTDEFINITIONSHAPE($,$,(#284));
#286= IFCOPENINGELEMENT('2CVfAfBTXDzfOxIrgHRLzm',#5,$,$,'Opening',#256,#285,$);
#287= IFCRELVOIDSELEMENT('0p1gj$7196C999H6kOFnZz',#5,'Drill Hole',$,#69,#286);
#288= IFCCARTESIANPOINT((8757.99947271313,1603.29535644531,18520.));
#289= IFCAXIS2PLACEMENT3D(#288,#52,#7);
#290= IFCLOCALPLACEMENT(#42,#289);
#291= IFCSHAPEREPRESENTATION(#12,'Body','MappedRepresentation',(#122,#125,#128,#131,#134,#137,#140,#143,#146,#149,#152,#155,#158,#161,#164,#167,#170,#173,#176,#179));
#292= IFCPRODUCTDEFINITIONSHAPE($,$,(#291));
#293= IFCOPENINGELEMENT('2XIxEK73j7mv9sUYPgSqTn',#5,$,$,'Opening',#290,#292,$);
#294= IFCRELVOIDSELEMENT('1ro8LArVXBpQN$5MedqbZu',#5,'Drill Hole',$,#69,#293);
#295= IFCCARTESIANPOINT((8757.99947271313,1603.29535644531,19350.));
#296= IFCAXIS2PLACEMENT3D(#295,#8,#7);
#297= IFCLOCALPLACEMENT(#42,#296);
#298= IFCSHAPEREPRESENTATION(#12,'Body','MappedRepresentation',(#196,#197,#198,#199,#200,#201,#202,#203,#204,#205,#206,#207,#208,#209,#210,#211,#212,#213,#214,#215));
#299= IFCPRODUCTDEFINITIONSHAPE($,$,(#298));
#300= IFCOPENINGELEMENT('1KU$H_2Jf8_8ZtAidBQwwQ',#5,$,$,'Opening',#297,#299,$);
#301= IFCRELVOIDSELEMENT('0B3ctm1l50Ge4YqCBkUy7G',#5,'Drill Hole',$,#69,#300);
#302= IFCPROPERTYSINGLEVALUE('PieceMark',$,IFCIDENTIFIER('BEAM'),$);
#303= IFCPROPERTYSINGLEVALUE('IndicationMark',$,IFCIDENTIFIER('b/938'),$);
#304= IFCPROPERTYSINGLEVALUE('PrelimMark',$,IFCIDENTIFIER(''),$);
#305= IFCPROPERTYSINGLEVALUE('MainPieceTag',$,IFCBOOLEAN(.F.),$);
#306= IFCPROPERTYSET('3pyOZeGVb3IugIiBjveCuw',#5,'AISC_EM11_Pset_PieceIdentification','PieceIdentity',(#302,#303,#304,#305));
#307= IFCPROPERTYSINGLEVALUE('MaterialType',$,IFCIDENTIFIER('STEEL'),$);
#308= IFCPROPERTYSINGLEVALUE('MaterialGrade',$,IFCIDENTIFIER('S235JR'),$);
#309= IFCPROPERTYSET('3x0T$t1CnCKBgwwoeimBbb',#5,'AISC_EM11_Pset_Material',$,(#307,#308));
#310= IFCPROPERTYSINGLEVALUE('SkewedAngleY',$,IFCREAL(0.),$);
#311= IFCPROPERTYSINGLEVALUE('SkewedAngleX',$,IFCREAL(0.),$);
#312= IFCPROPERTYSET('2_l3RJ1$PEg8JE4DcF$JuE',#5,'AISC_EM11_Pset_SkewedEnd',$,(#310,#311));
#313= IFCPROPERTYSET('0wrDftAv1EiPyQW6FiHjPX',#5,'AISC_EM11_Pset_SkewedEnd_2',$,(#310,#311));
#314= IFCMATERIAL('STEEL/S235JR');
#315= IFCRELAGGREGATES('2471crkin65wb4TQ_H9D1c',#5,$,$,#37,(#39));
#316= IFCRELAGGREGATES('2MPJu70_3ONCtMliGZRVJu',#5,$,$,#39,(#41));
#317= IFCRELAGGREGATES('2P4q7ErGr3PwWF3ArqTaq1',#5,$,$,#41,(#43));
#318= IFCRELCONTAINEDINSPATIALSTRUCTURE('2JuMtSOFDC8fJ_r0MsEEcD',#5,$,$,(#69),#43);
#319= IFCRELDEFINESBYPROPERTIES('0H31vqEuLC5eh8UK9BCycz',#5,$,$,(#107,#99,#91,#78),#84);
#320= IFCRELDEFINESBYPROPERTIES('0t1xsHeXH2O8hgdGVd5lek',#5,$,$,(#300,#293,#286,#252,#218,#182),#187);
#321= IFCRELDEFINESBYPROPERTIES('0OsI4A3SDCuBMesmlQ7iZG',#5,$,$,(#69),#306);
#322= IFCRELDEFINESBYPROPERTIES('3nzP0uKRD1aOhe6NoN9lkk',#5,$,$,(#69),#309);
#323= IFCRELDEFINESBYPROPERTIES('2epGrrAaXCPhYXw6ts8jfk',#5,$,$,(#69),#312);
#324= IFCRELDEFINESBYPROPERTIES('2gYgosz5z53gvZrNdwgJGQ',#5,$,$,(#69),#313);
#325= IFCRELASSOCIATESMATERIAL('1i2AgfTfb6yQaVkdPqUITo',#5,$,$,(#69),#314);
ENDSEC;

END-ISO-10303-21;
