ISO-10303-21;
HEADER;
FILE_DESCRIPTION(('ViewDefinition[AISC_Steel_Detailing]', 'Option [BaseQuantities:Off]', 'Option [GridExport:On]', 'Option [Assemblies:Off]', 'Option [Bolts:On]', 'Option [Rebars:On]', 'Option [PourObjects:Off]', 'Option [Welds:On]', 'Option [SurfaceTreatments:On]', 'Option [LocationBy:0]', 'Option [ViewColors:Off]', 'Option [SectionedSpine:Off]', 'Option [PropertySets:On]', 'Option [Export all:Off]'),'2;1');
FILE_NAME('b_931_Qty_1.ifc','2026-05-16T11:53:11',('GIOVANNIPC\\gcorrea'),('Structural Designer'),'IFC Database version: Work','Tekla Structures 2020 Service Pack 5, IFC Export Version: 4.0.0.0 Dec  7 2020','');
FILE_SCHEMA(('IFC2X3'));
ENDSEC;

DATA;
#1= IFCPERSON('GIOVANNIPC\\gcorrea','Undefined',$,$,$,$,$,$);
#2= IFCORGANIZATION($,'Trimble Solutions Corporation',$,$,$);
#3= IFCPERSONANDORGANIZATION(#1,#2,$);
#4= IFCAPPLICATION(#2,'2020 Service Pack 5','Tekla Structures','Multi material modeling');
#5= IFCOWNERHISTORY(#3,#4,$,.NOCHANGE.,$,$,$,1778950391);
#6= IFCCARTESIANPOINT((0.,0.,0.));
#7= IFCDIRECTION((1.,0.,0.));
#8= IFCDIRECTION((0.,1.,0.));
#9= IFCDIRECTION((0.,0.,1.));
#10= IFCAXIS2PLACEMENT3D(#6,#9,#7);
#11= IFCGEOMETRICREPRESENTATIONCONTEXT($,'Model',3,1.E-05,#10,$);
#12= IFCGEOMETRICREPRESENTATIONSUBCONTEXT('Body','Model',*,*,*,*,#11,$,.MODEL_VIEW.,$);
#13= IFCGEOMETRICREPRESENTATIONSUBCONTEXT('Axis','Model',*,*,*,*,#11,$,.GRAPH_VIEW.,$);
#14= IFCGEOMETRICREPRESENTATIONSUBCONTEXT('FootPrint','Model',*,*,*,*,#11,$,.MODEL_VIEW.,$);
#15= IFCSIUNIT(*,.LENGTHUNIT.,.MILLI.,.METRE.);
#16= IFCMEASUREWITHUNIT(IFCRATIOMEASURE(304.8),#15);
#17= IFCDIMENSIONALEXPONENTS(1,0,0,0,0,0,0);
#18= IFCCONVERSIONBASEDUNIT(#17,.LENGTHUNIT.,'FOOT',#16);
#19= IFCSIUNIT(*,.AREAUNIT.,$,.SQUARE_METRE.);
#20= IFCMEASUREWITHUNIT(IFCRATIOMEASURE(0.09290304),#19);
#21= IFCDIMENSIONALEXPONENTS(2,0,0,0,0,0,0);
#22= IFCCONVERSIONBASEDUNIT(#21,.AREAUNIT.,'SQUARE FOOT',#20);
#23= IFCSIUNIT(*,.VOLUMEUNIT.,$,.CUBIC_METRE.);
#24= IFCMEASUREWITHUNIT(IFCRATIOMEASURE(0.028316846592),#23);
#25= IFCDIMENSIONALEXPONENTS(3,0,0,0,0,0,0);
#26= IFCCONVERSIONBASEDUNIT(#25,.VOLUMEUNIT.,'CUBIC FOOT',#24);
#27= IFCSIUNIT(*,.MASSUNIT.,.KILO.,.GRAM.);
#28= IFCSIUNIT(*,.TIMEUNIT.,$,.SECOND.);
#29= IFCSIUNIT(*,.PLANEANGLEUNIT.,$,.RADIAN.);
#30= IFCMEASUREWITHUNIT(IFCRATIOMEASURE(0.0174532925199433),#29);
#31= IFCDIMENSIONALEXPONENTS(0,0,0,0,0,0,0);
#32= IFCCONVERSIONBASEDUNIT(#31,.PLANEANGLEUNIT.,'DEGREE',#30);
#33= IFCSIUNIT(*,.SOLIDANGLEUNIT.,$,.STERADIAN.);
#34= IFCSIUNIT(*,.THERMODYNAMICTEMPERATUREUNIT.,$,.DEGREE_CELSIUS.);
#35= IFCSIUNIT(*,.LUMINOUSINTENSITYUNIT.,$,.LUMEN.);
#36= IFCUNITASSIGNMENT((#15,#19,#23,#27,#28,#29,#33,#34,#35));
#37= IFCPROJECT('2G7ZFDNE16yBDU14FA92Me',#5,'Proyecto',$,$,$,$,(#11),#36);
#38= IFCLOCALPLACEMENT($,#10);
#39= IFCSITE('2xvEzEinjBTea80yOTcujY',#5,'Obra',$,$,#38,$,$,.ELEMENT.,$,$,$,$,$);
#40= IFCLOCALPLACEMENT(#38,#10);
#41= IFCBUILDING('1q8yFGZiTCDOEOhqmo0kJr',#5,'Undefined',$,$,#40,$,$,.ELEMENT.,$,$,$);
#42= IFCLOCALPLACEMENT(#40,#10);
#43= IFCBUILDINGSTOREY('29hdEUCErFze9E_VIAceOd',#5,'Undefined',$,$,#42,$,$,.ELEMENT.,0.);
#44= IFCOWNERHISTORY(#3,#4,$,.NOCHANGE.,$,$,$,1773349200);
#45= IFCCARTESIANPOINT((93722.3851899033,23897.0366182821,19125.));
#46= IFCDIRECTION((0.999992234107172,-0.00394103100042163,0.));
#47= IFCAXIS2PLACEMENT3D(#45,#9,#46);
#48= IFCLOCALPLACEMENT(#42,#47);
#49= IFCDIRECTION((1.,0.));
#50= IFCCARTESIANPOINT((0.,0.));
#51= IFCAXIS2PLACEMENT2D(#50,#49);
#52= IFCISHAPEPROFILEDEF(.AREA.,'IPE450',#51,190.,450.,9.399999619,14.60000038,21.);
#53= IFCDIRECTION((0.,-1.,0.));
#54= IFCDIRECTION((-1.,0.,0.));
#55= IFCCARTESIANPOINT((826.140143749939,0.,0.));
#56= IFCAXIS2PLACEMENT3D(#55,#54,#53);
#57= IFCEXTRUDEDAREASOLID(#52,#56,#9,826.66);
#58= IFCDIRECTION((0.999992234107172,0.00394103100041684,0.));
#59= IFCCARTESIANPOINT((0.620214603724889,-1.37012128891729,-325.));
#60= IFCDIRECTION((0.00394103100041684,-0.999992234107172,0.));
#61= IFCAXIS2PLACEMENT3D(#59,#58,#60);
#62= IFCPLANE(#61);
#63= IFCHALFSPACESOLID(#62,.T.);
#64= IFCBOOLEANCLIPPINGRESULT(.DIFFERENCE.,#57,#63);
#65= IFCSHAPEREPRESENTATION(#12,'Body','Clipping',(#64));
#66= IFCPRODUCTDEFINITIONSHAPE($,$,(#65));
#67= IFCBEAM('2zvOe7brv9HwAoo_0YO1ye',#44,'BEAM','IPE450','IPE450',#48,#66,'IDbde58a07-975e-4947-a2b2-cbe022601f28');
#68= IFCLOCALPLACEMENT(#42,#47);
#69= IFCRECTANGLEPROFILEDEF(.AREA.,'PL108*12',#51,12.,108.);
#70= IFCDIRECTION((0.,0.,-1.));
#71= IFCCARTESIANPOINT((-15.5451844440104,40.5664960475806,226.));
#72= IFCAXIS2PLACEMENT3D(#71,#70,#58);
#73= IFCEXTRUDEDAREASOLID(#69,#72,#9,452.);
#74= IFCSHAPEREPRESENTATION(#12,'Body','SweptSolid',(#73));
#75= IFCPRODUCTDEFINITIONSHAPE($,$,(#74));
#76= IFCOPENINGELEMENT('21YloLAMz9XOkWP61qRlTC',#5,$,$,'Recess',#68,#75,$);
#77= IFCRELVOIDSELEMENT('3Un$bTgPTF1AOjOPEI_rwD',#5,$,$,#67,#76);
#78= IFCPROPERTYSINGLEVALUE('FeatureSubTypes',$,$,$);
#79= IFCPROPERTYSINGLEVALUE('RectangleOpeningWidth',$,IFCPOSITIVELENGTHMEASURE(12.),$);
#80= IFCPROPERTYSINGLEVALUE('RectangleOpeningHeight',$,IFCPOSITIVELENGTHMEASURE(108.),$);
#81= IFCPROPERTYSINGLEVALUE('OpeningDiameter',$,$,$);
#82= IFCPROPERTYSET('1xFv8Wdm57NOaH0cb19Kn7',#5,'AISC_EM11_Pset_Opening/Cope',$,(#78,#79,#80,#81));
#83= IFCLOCALPLACEMENT(#42,#47);
#84= IFCCARTESIANPOINT((-15.2141378399829,-43.4328516174246,226.));
#85= IFCAXIS2PLACEMENT3D(#84,#70,#58);
#86= IFCEXTRUDEDAREASOLID(#69,#85,#9,452.);
#87= IFCSHAPEREPRESENTATION(#12,'Body','SweptSolid',(#86));
#88= IFCPRODUCTDEFINITIONSHAPE($,$,(#87));
#89= IFCOPENINGELEMENT('1syk5WtU15HfNL4OshMk4z',#5,$,$,'Recess',#83,#88,$);
#90= IFCRELVOIDSELEMENT('1lf98rbz554PKhW1o8O8H7',#5,$,$,#67,#89);
#91= IFCCARTESIANPOINT((93762.964924975,23895.9711581974,18900.));
#92= IFCDIRECTION((0.000467666999829816,-0.999999890643783,0.));
#93= IFCDIRECTION((0.999999890643783,0.000467666999835253,0.));
#94= IFCAXIS2PLACEMENT3D(#91,#92,#93);
#95= IFCLOCALPLACEMENT(#42,#94);
#96= IFCCIRCLEPROFILEDEF(.AREA.,$,#51,11.5);
#97= IFCCARTESIANPOINT((0.,-0.0999999999999929,0.));
#98= IFCAXIS2PLACEMENT3D(#97,#8,#7);
#99= IFCEXTRUDEDAREASOLID(#96,#98,#9,14.8);
#100= IFCSHAPEREPRESENTATION(#12,'Body','SweptSolid',(#99));
#101= IFCREPRESENTATIONMAP(#10,#100);
#102= IFCCARTESIANPOINT((3.49245965480804E-10,0.,-49.9999999998581));
#103= IFCCARTESIANTRANSFORMATIONOPERATOR3D($,$,#102,$,$);
#104= IFCMAPPEDITEM(#101,#103);
#105= IFCCARTESIANPOINT((70.0000000001455,0.,-49.9999999988395));
#106= IFCCARTESIANTRANSFORMATIONOPERATOR3D($,$,#105,$,$);
#107= IFCMAPPEDITEM(#101,#106);
#108= IFCCARTESIANPOINT((139.999999999956,0.,-49.9999999978209));
#109= IFCCARTESIANTRANSFORMATIONOPERATOR3D($,$,#108,$,$);
#110= IFCMAPPEDITEM(#101,#109);
#111= IFCCARTESIANPOINT((209.999999999753,0.,-49.9999999968022));
#112= IFCCARTESIANTRANSFORMATIONOPERATOR3D($,$,#111,$,$);
#113= IFCMAPPEDITEM(#101,#112);
#114= IFCCARTESIANPOINT((279.999999999563,0.,-49.9999999957836));
#115= IFCCARTESIANTRANSFORMATIONOPERATOR3D($,$,#114,$,$);
#116= IFCMAPPEDITEM(#101,#115);
#117= IFCCARTESIANPOINT((349.99999999936,0.,-49.9999999947649));
#118= IFCCARTESIANTRANSFORMATIONOPERATOR3D($,$,#117,$,$);
#119= IFCMAPPEDITEM(#101,#118);
#120= IFCCARTESIANPOINT((419.999999999171,0.,-49.9999999937463));
#121= IFCCARTESIANTRANSFORMATIONOPERATOR3D($,$,#120,$,$);
#122= IFCMAPPEDITEM(#101,#121);
#123= IFCCARTESIANPOINT((-3.63797880709171E-10,0.,49.9999999998581));
#124= IFCCARTESIANTRANSFORMATIONOPERATOR3D($,$,#123,$,$);
#125= IFCMAPPEDITEM(#101,#124);
#126= IFCCARTESIANPOINT((69.9999999994325,0.,50.0000000008768));
#127= IFCCARTESIANTRANSFORMATIONOPERATOR3D($,$,#126,$,$);
#128= IFCMAPPEDITEM(#101,#127);
#129= IFCCARTESIANPOINT((139.999999999229,0.,50.0000000018917));
#130= IFCCARTESIANTRANSFORMATIONOPERATOR3D($,$,#129,$,$);
#131= IFCMAPPEDITEM(#101,#130);
#132= IFCCARTESIANPOINT((209.999999999025,0.,50.0000000029104));
#133= IFCCARTESIANTRANSFORMATIONOPERATOR3D($,$,#132,$,$);
#134= IFCMAPPEDITEM(#101,#133);
#135= IFCCARTESIANPOINT((279.999999998836,0.,50.000000003929));
#136= IFCCARTESIANTRANSFORMATIONOPERATOR3D($,$,#135,$,$);
#137= IFCMAPPEDITEM(#101,#136);
#138= IFCCARTESIANPOINT((349.999999998632,0.,50.0000000049513));
#139= IFCCARTESIANTRANSFORMATIONOPERATOR3D($,$,#138,$,$);
#140= IFCMAPPEDITEM(#101,#139);
#141= IFCCARTESIANPOINT((419.999999998428,0.,50.0000000059699));
#142= IFCCARTESIANTRANSFORMATIONOPERATOR3D($,$,#141,$,$);
#143= IFCMAPPEDITEM(#101,#142);
#144= IFCSHAPEREPRESENTATION(#12,'Body','MappedRepresentation',(#104,#107,#110,#113,#116,#119,#122,#125,#128,#131,#134,#137,#140,#143));
#145= IFCPRODUCTDEFINITIONSHAPE($,$,(#144));
#146= IFCOPENINGELEMENT('20BseDA5X8jAVcFabUAnLi',#5,$,$,'Opening',#95,#145,$);
#147= IFCRELVOIDSELEMENT('2dXSsf80H5DhKkAh1MQHyj',#5,'Drill Hole',$,#67,#146);
#148= IFCPROPERTYSINGLEVALUE('FeatureSubTypes',$,IFCLABEL('TORNILLO'),$);
#149= IFCPROPERTYSINGLEVALUE('RectangleOpeningWidth',$,$,$);
#150= IFCPROPERTYSINGLEVALUE('RectangleOpeningHeight',$,$,$);
#151= IFCPROPERTYSET('3v5tK5BU9CPvXRyrf1opSR',#5,'AISC_EM11_Pset_Opening/Cope',$,(#148,#149,#150,#81));
#152= IFCCARTESIANPOINT((93723.,23895.6640633484,19350.));
#153= IFCAXIS2PLACEMENT3D(#152,#7,#70);
#154= IFCLOCALPLACEMENT(#42,#153);
#155= IFCCARTESIANPOINT((0.,-3.58754684458221,0.));
#156= IFCAXIS2PLACEMENT3D(#155,#8,#7);
#157= IFCEXTRUDEDAREASOLID(#96,#156,#9,9.6);
#158= IFCSHAPEREPRESENTATION(#12,'Body','SweptSolid',(#157));
#159= IFCREPRESENTATIONMAP(#10,#158);
#160= IFCCARTESIANPOINT((85.,0.,40.));
#161= IFCCARTESIANTRANSFORMATIONOPERATOR3D($,$,#160,$,$);
#162= IFCMAPPEDITEM(#159,#161);
#163= IFCCARTESIANPOINT((155.,0.,40.));
#164= IFCCARTESIANTRANSFORMATIONOPERATOR3D($,$,#163,$,$);
#165= IFCMAPPEDITEM(#159,#164);
#166= IFCCARTESIANPOINT((225.,0.,40.));
#167= IFCCARTESIANTRANSFORMATIONOPERATOR3D($,$,#166,$,$);
#168= IFCMAPPEDITEM(#159,#167);
#169= IFCCARTESIANPOINT((295.,0.,40.));
#170= IFCCARTESIANTRANSFORMATIONOPERATOR3D($,$,#169,$,$);
#171= IFCMAPPEDITEM(#159,#170);
#172= IFCCARTESIANPOINT((365.,0.,40.));
#173= IFCCARTESIANTRANSFORMATIONOPERATOR3D($,$,#172,$,$);
#174= IFCMAPPEDITEM(#159,#173);
#175= IFCSHAPEREPRESENTATION(#12,'Body','MappedRepresentation',(#162,#165,#168,#171,#174));
#176= IFCPRODUCTDEFINITIONSHAPE($,$,(#175));
#177= IFCOPENINGELEMENT('3Q8EqbNyrE1AazufsU1ztL',#5,$,$,'Opening',#154,#176,$);
#178= IFCRELVOIDSELEMENT('2Ixtk$KbX8E8TFNjS8ywA2',#5,'Drill Hole',$,#67,#177);
#179= IFCCARTESIANPOINT((93762.964924975,23895.9711581974,19350.));
#180= IFCDIRECTION((-0.000467666999829816,0.999999890643783,0.));
#181= IFCAXIS2PLACEMENT3D(#179,#180,#93);
#182= IFCLOCALPLACEMENT(#42,#181);
#183= IFCSHAPEREPRESENTATION(#12,'Body','MappedRepresentation',(#104,#107,#110,#113,#116,#119,#122,#125,#128,#131,#134,#137,#140,#143));
#184= IFCPRODUCTDEFINITIONSHAPE($,$,(#183));
#185= IFCOPENINGELEMENT('32vdvHpgvFrw5dD8mgvS2q',#5,$,$,'Opening',#182,#184,$);
#186= IFCRELVOIDSELEMENT('1GkUw3Bnz8WgswHZnMJdwf',#5,'Drill Hole',$,#67,#185);
#187= IFCPROPERTYSINGLEVALUE('PieceMark',$,IFCIDENTIFIER('BEAM'),$);
#188= IFCPROPERTYSINGLEVALUE('IndicationMark',$,IFCIDENTIFIER('b/931'),$);
#189= IFCPROPERTYSINGLEVALUE('PrelimMark',$,IFCIDENTIFIER(''),$);
#190= IFCPROPERTYSINGLEVALUE('MainPieceTag',$,IFCBOOLEAN(.F.),$);
#191= IFCPROPERTYSET('1LWfmhLQ920en8dvZC9J3r',#5,'AISC_EM11_Pset_PieceIdentification','PieceIdentity',(#187,#188,#189,#190));
#192= IFCPROPERTYSINGLEVALUE('MaterialType',$,IFCIDENTIFIER('STEEL'),$);
#193= IFCPROPERTYSINGLEVALUE('MaterialGrade',$,IFCIDENTIFIER('S235JR'),$);
#194= IFCPROPERTYSET('3Dkwsbyv9BIQffRqOgfRd4',#5,'AISC_EM11_Pset_Material',$,(#192,#193));
#195= IFCPROPERTYSINGLEVALUE('SkewedAngleY',$,IFCREAL(0.),$);
#196= IFCPROPERTYSINGLEVALUE('SkewedAngleX',$,IFCREAL(-0.22581),$);
#197= IFCPROPERTYSET('20CPcxFmP4ggGGpIebIwaz',#5,'AISC_EM11_Pset_SkewedEnd',$,(#195,#196));
#198= IFCPROPERTYSINGLEVALUE('SkewedAngleX',$,IFCREAL(0.),$);
#199= IFCPROPERTYSET('1jiaU4vGLF1x1El7lym602',#5,'AISC_EM11_Pset_SkewedEnd_2',$,(#195,#198));
#200= IFCMATERIAL('STEEL/S235JR');
#201= IFCRELAGGREGATES('0vG8dKmLX2KhmMQK3Rr_E9',#5,$,$,#37,(#39));
#202= IFCRELAGGREGATES('2BYQvc2dpKcz2eicLj7GWR',#5,$,$,#39,(#41));
#203= IFCRELAGGREGATES('12ICCB8792ShLMPLwV6KdH',#5,$,$,#41,(#43));
#204= IFCRELCONTAINEDINSPATIALSTRUCTURE('3eGtJ6aYf00gQa8pqX9qJx',#5,$,$,(#67),#43);
#205= IFCRELDEFINESBYPROPERTIES('2_gUOHO29F0gheEIFiyJ1T',#5,$,$,(#89,#76),#82);
#206= IFCRELDEFINESBYPROPERTIES('0nu8A9PLbC4viaztLR_IGl',#5,$,$,(#185,#177,#146),#151);
#207= IFCRELDEFINESBYPROPERTIES('2UT7uIi6XATRXTwgNBZIAr',#5,$,$,(#67),#191);
#208= IFCRELDEFINESBYPROPERTIES('2wouWS$bn1_f0$wH_kCNgq',#5,$,$,(#67),#194);
#209= IFCRELDEFINESBYPROPERTIES('2EI_FTCbL9fPOGLwS7rZBS',#5,$,$,(#67),#197);
#210= IFCRELDEFINESBYPROPERTIES('3Ur_JNuHv8dveRG9MoQq2t',#5,$,$,(#67),#199);
#211= IFCRELASSOCIATESMATERIAL('2wMqPt3FrEOR9Lj_ie4UDj',#5,$,$,(#67),#200);
ENDSEC;

END-ISO-10303-21;
