ISO-10303-21;
HEADER;
FILE_DESCRIPTION(('ViewDefinition[AISC_Steel_Detailing]', 'Option [BaseQuantities:Off]', 'Option [GridExport:On]', 'Option [Assemblies:Off]', 'Option [Bolts:On]', 'Option [Rebars:On]', 'Option [PourObjects:Off]', 'Option [Welds:On]', 'Option [SurfaceTreatments:On]', 'Option [LocationBy:0]', 'Option [ViewColors:Off]', 'Option [SectionedSpine:Off]', 'Option [PropertySets:On]', 'Option [Export all:Off]'),'2;1');
FILE_NAME('b_946_Qty_1.ifc','2026-05-16T11:53:09',('GIOVANNIPC\\gcorrea'),('Structural Designer'),'IFC Database version: Work','Tekla Structures 2020 Service Pack 5, IFC Export Version: 4.0.0.0 Dec  7 2020','');
FILE_SCHEMA(('IFC2X3'));
ENDSEC;

DATA;
#1= IFCPERSON('GIOVANNIPC\\gcorrea','Undefined',$,$,$,$,$,$);
#2= IFCORGANIZATION($,'Trimble Solutions Corporation',$,$,$);
#3= IFCPERSONANDORGANIZATION(#1,#2,$);
#4= IFCAPPLICATION(#2,'2020 Service Pack 5','Tekla Structures','Multi material modeling');
#5= IFCOWNERHISTORY(#3,#4,$,.NOCHANGE.,$,$,$,1778950389);
#6= IFCCARTESIANPOINT((0.,0.,0.));
#7= IFCDIRECTION((1.,0.,0.));
#8= IFCDIRECTION((0.,1.,0.));
#9= IFCDIRECTION((0.,0.,1.));
#10= IFCAXIS2PLACEMENT3D(#6,#9,#7);
#11= IFCGEOMETRICREPRESENTATIONCONTEXT($,'Model',3,1.E-05,#10,$);
#12= IFCGEOMETRICREPRESENTATIONSUBCONTEXT('Body','Model',*,*,*,*,#11,$,.MODEL_VIEW.,$);
#13= IFCGEOMETRICREPRESENTATIONSUBCONTEXT('Axis','Model',*,*,*,*,#11,$,.GRAPH_VIEW.,$);
#14= IFCGEOMETRICREPRESENTATIONSUBCONTEXT('FootPrint','Model',*,*,*,*,#11,$,.MODEL_VIEW.,$);
#15= IFCSIUNIT(*,.LENGTHUNIT.,.MILLI.,.METRE.);
#16= IFCMEASUREWITHUNIT(IFCRATIOMEASURE(304.8),#15);
#17= IFCDIMENSIONALEXPONENTS(1,0,0,0,0,0,0);
#18= IFCCONVERSIONBASEDUNIT(#17,.LENGTHUNIT.,'FOOT',#16);
#19= IFCSIUNIT(*,.AREAUNIT.,$,.SQUARE_METRE.);
#20= IFCMEASUREWITHUNIT(IFCRATIOMEASURE(0.09290304),#19);
#21= IFCDIMENSIONALEXPONENTS(2,0,0,0,0,0,0);
#22= IFCCONVERSIONBASEDUNIT(#21,.AREAUNIT.,'SQUARE FOOT',#20);
#23= IFCSIUNIT(*,.VOLUMEUNIT.,$,.CUBIC_METRE.);
#24= IFCMEASUREWITHUNIT(IFCRATIOMEASURE(0.028316846592),#23);
#25= IFCDIMENSIONALEXPONENTS(3,0,0,0,0,0,0);
#26= IFCCONVERSIONBASEDUNIT(#25,.VOLUMEUNIT.,'CUBIC FOOT',#24);
#27= IFCSIUNIT(*,.MASSUNIT.,.KILO.,.GRAM.);
#28= IFCSIUNIT(*,.TIMEUNIT.,$,.SECOND.);
#29= IFCSIUNIT(*,.PLANEANGLEUNIT.,$,.RADIAN.);
#30= IFCMEASUREWITHUNIT(IFCRATIOMEASURE(0.0174532925199433),#29);
#31= IFCDIMENSIONALEXPONENTS(0,0,0,0,0,0,0);
#32= IFCCONVERSIONBASEDUNIT(#31,.PLANEANGLEUNIT.,'DEGREE',#30);
#33= IFCSIUNIT(*,.SOLIDANGLEUNIT.,$,.STERADIAN.);
#34= IFCSIUNIT(*,.THERMODYNAMICTEMPERATUREUNIT.,$,.DEGREE_CELSIUS.);
#35= IFCSIUNIT(*,.LUMINOUSINTENSITYUNIT.,$,.LUMEN.);
#36= IFCUNITASSIGNMENT((#15,#19,#23,#27,#28,#29,#33,#34,#35));
#37= IFCPROJECT('2G7ZFDNE16yBDU14FA92Me',#5,'Proyecto',$,$,$,$,(#11),#36);
#38= IFCLOCALPLACEMENT($,#10);
#39= IFCSITE('2xvEzEinjBTea80yOTcujY',#5,'Obra',$,$,#38,$,$,.ELEMENT.,$,$,$,$,$);
#40= IFCLOCALPLACEMENT(#38,#10);
#41= IFCBUILDING('2UMp0JATLEGgHgJOomXVkY',#5,'Undefined',$,$,#40,$,$,.ELEMENT.,$,$,$);
#42= IFCLOCALPLACEMENT(#40,#10);
#43= IFCBUILDINGSTOREY('29hdEUCErFze9E_VIAceOd',#5,'Undefined',$,$,#42,$,$,.ELEMENT.,0.);
#44= IFCOWNERHISTORY(#3,#4,$,.NOCHANGE.,$,$,$,1774890000);
#45= IFCCARTESIANPOINT((51050.,7962.66276269125,19125.));
#46= IFCDIRECTION((0.999999999998497,1.7340000000422E-06,0.));
#47= IFCAXIS2PLACEMENT3D(#45,#9,#46);
#48= IFCLOCALPLACEMENT(#42,#47);
#49= IFCDIRECTION((1.,0.));
#50= IFCCARTESIANPOINT((0.,0.));
#51= IFCAXIS2PLACEMENT2D(#50,#49);
#52= IFCISHAPEPROFILEDEF(.AREA.,'IPE450',#51,190.,450.,9.399999619,14.60000038,21.);
#53= IFCDIRECTION((0.,-1.,0.));
#54= IFCDIRECTION((-1.,0.,0.));
#55= IFCCARTESIANPOINT((8345.02038794157,0.,0.));
#56= IFCAXIS2PLACEMENT3D(#55,#54,#53);
#57= IFCEXTRUDEDAREASOLID(#52,#56,#9,8290.02);
#58= IFCDIRECTION((-0.999999999999275,-1.20400000013823E-06,0.));
#59= IFCCARTESIANPOINT((8345.00218907992,-0.000120761184916773,-325.));
#60= IFCDIRECTION((-1.20400000013823E-06,0.999999999999275,0.));
#61= IFCAXIS2PLACEMENT3D(#59,#58,#60);
#62= IFCPLANE(#61);
#63= IFCHALFSPACESOLID(#62,.T.);
#64= IFCBOOLEANCLIPPINGRESULT(.DIFFERENCE.,#57,#63);
#65= IFCDIRECTION((0.99999998288787,-0.000184998000006214,0.));
#66= IFCCARTESIANPOINT((55.017867009934,-0.0185552994362297,-325.));
#67= IFCDIRECTION((-0.000184998000006214,-0.99999998288787,0.));
#68= IFCAXIS2PLACEMENT3D(#66,#65,#67);
#69= IFCPLANE(#68);
#70= IFCHALFSPACESOLID(#69,.T.);
#71= IFCBOOLEANCLIPPINGRESULT(.DIFFERENCE.,#64,#70);
#72= IFCSHAPEREPRESENTATION(#12,'Body','Clipping',(#71));
#73= IFCPRODUCTDEFINITIONSHAPE($,$,(#72));
#74= IFCBEAM('0KwUeKL2T92OnWPvRar_dV',#44,'BEAM','IPE450','IPE450',#48,#73,'ID14e9ea14-5427-4909-8c60-6796e4d7e9df');
#75= IFCLOCALPLACEMENT(#42,#47);
#76= IFCRECTANGLEPROFILEDEF(.AREA.,'PL36.6*102.3',#51,36.6,102.3);
#77= IFCDIRECTION((0.,0.,-1.));
#78= IFCDIRECTION((1.20399999088744E-06,-0.999999999999275,0.));
#79= IFCCARTESIANPOINT((8396.15207358038,96.0100427255976,-207.69999981));
#80= IFCAXIS2PLACEMENT3D(#79,#78,#77);
#81= IFCEXTRUDEDAREASOLID(#76,#80,#9,192.01);
#82= IFCSHAPEREPRESENTATION(#12,'Body','SweptSolid',(#81));
#83= IFCPRODUCTDEFINITIONSHAPE($,$,(#82));
#84= IFCOPENINGELEMENT('3nDkjOMpLFk8Jso7YUuCN0',#5,$,$,'Recess',#75,#83,$);
#85= IFCRELVOIDSELEMENT('0PsvOcMe1C8RZG1V9XrzmM',#5,$,$,#74,#84);
#86= IFCPROPERTYSINGLEVALUE('FeatureSubTypes',$,$,$);
#87= IFCPROPERTYSINGLEVALUE('RectangleOpeningWidth',$,IFCPOSITIVELENGTHMEASURE(36.6),$);
#88= IFCPROPERTYSINGLEVALUE('RectangleOpeningHeight',$,IFCPOSITIVELENGTHMEASURE(102.3),$);
#89= IFCPROPERTYSINGLEVALUE('OpeningDiameter',$,$,$);
#90= IFCPROPERTYSET('0y62QHD0f65ffRatDPCBDC',#5,'AISC_EM11_Pset_Opening/Cope',$,(#86,#87,#88,#89));
#91= IFCLOCALPLACEMENT(#42,#47);
#92= IFCCARTESIANPOINT((8396.15207358038,96.0100427255976,207.69999981));
#93= IFCAXIS2PLACEMENT3D(#92,#78,#77);
#94= IFCEXTRUDEDAREASOLID(#76,#93,#9,192.01);
#95= IFCSHAPEREPRESENTATION(#12,'Body','SweptSolid',(#94));
#96= IFCPRODUCTDEFINITIONSHAPE($,$,(#95));
#97= IFCOPENINGELEMENT('1M$Hhs8253FeHat68ob531',#5,$,$,'Recess',#91,#96,$);
#98= IFCRELVOIDSELEMENT('2cfwxSy8v7zxtti0LK7_W$',#5,$,$,#74,#97);
#99= IFCLOCALPLACEMENT(#42,#47);
#100= IFCDIRECTION((0.000184998000024535,0.99999998288787,0.));
#101= IFCCARTESIANPOINT((3.85011141554603,-95.9905373351988,-207.69999981));
#102= IFCAXIS2PLACEMENT3D(#101,#100,#77);
#103= IFCEXTRUDEDAREASOLID(#76,#102,#9,193.52);
#104= IFCSHAPEREPRESENTATION(#12,'Body','SweptSolid',(#103));
#105= IFCPRODUCTDEFINITIONSHAPE($,$,(#104));
#106= IFCOPENINGELEMENT('1ZUjkye1jFCutfWpEsdDxA',#5,$,$,'Recess',#99,#105,$);
#107= IFCRELVOIDSELEMENT('0hha$K$_XC4BojFuSNuwfr',#5,$,$,#74,#106);
#108= IFCLOCALPLACEMENT(#42,#47);
#109= IFCCARTESIANPOINT((3.85011141554603,-95.9905373351988,207.69999981));
#110= IFCAXIS2PLACEMENT3D(#109,#100,#77);
#111= IFCEXTRUDEDAREASOLID(#76,#110,#9,193.52);
#112= IFCSHAPEREPRESENTATION(#12,'Body','SweptSolid',(#111));
#113= IFCPRODUCTDEFINITIONSHAPE($,$,(#112));
#114= IFCOPENINGELEMENT('1Hk2ZHZrnDfegE9gMG8uHm',#5,$,$,'Recess',#108,#113,$);
#115= IFCRELVOIDSELEMENT('0WgQM3cH5A6fik9lTtDYzk',#5,$,$,#74,#114);
#116= IFCCARTESIANPOINT((59395.0021890693,7962.67711216357,19305.));
#117= IFCDIRECTION((-0.999999999995684,-2.93799999963084E-06,0.));
#118= IFCAXIS2PLACEMENT3D(#116,#117,#77);
#119= IFCLOCALPLACEMENT(#42,#118);
#120= IFCCIRCLEPROFILEDEF(.AREA.,$,#51,11.5);
#121= IFCCARTESIANPOINT((0.,-4.80016875235386,0.));
#122= IFCAXIS2PLACEMENT3D(#121,#8,#7);
#123= IFCEXTRUDEDAREASOLID(#120,#122,#9,9.6);
#124= IFCSHAPEREPRESENTATION(#12,'Body','SweptSolid',(#123));
#125= IFCREPRESENTATIONMAP(#10,#124);
#126= IFCCARTESIANPOINT((40.,0.,39.9999999997599));
#127= IFCCARTESIANTRANSFORMATIONOPERATOR3D($,$,#126,$,$);
#128= IFCMAPPEDITEM(#125,#127);
#129= IFCCARTESIANPOINT((110.,0.,39.9999999997599));
#130= IFCCARTESIANTRANSFORMATIONOPERATOR3D($,$,#129,$,$);
#131= IFCMAPPEDITEM(#125,#130);
#132= IFCCARTESIANPOINT((180.,0.,39.9999999997599));
#133= IFCCARTESIANTRANSFORMATIONOPERATOR3D($,$,#132,$,$);
#134= IFCMAPPEDITEM(#125,#133);
#135= IFCCARTESIANPOINT((250.,0.,39.9999999997599));
#136= IFCCARTESIANTRANSFORMATIONOPERATOR3D($,$,#135,$,$);
#137= IFCMAPPEDITEM(#125,#136);
#138= IFCCARTESIANPOINT((320.,0.,39.9999999997599));
#139= IFCCARTESIANTRANSFORMATIONOPERATOR3D($,$,#138,$,$);
#140= IFCMAPPEDITEM(#125,#139);
#141= IFCSHAPEREPRESENTATION(#12,'Body','MappedRepresentation',(#128,#131,#134,#137,#140));
#142= IFCPRODUCTDEFINITIONSHAPE($,$,(#141));
#143= IFCOPENINGELEMENT('3BIvGi96PBJuDbB1cmamAJ',#5,$,$,'Opening',#119,#142,$);
#144= IFCRELVOIDSELEMENT('00RNrDSwr63OJ6tqrWqrX1',#5,'Drill Hole',$,#74,#143);
#145= IFCPROPERTYSINGLEVALUE('FeatureSubTypes',$,IFCLABEL('TORNILLO'),$);
#146= IFCPROPERTYSINGLEVALUE('RectangleOpeningWidth',$,$,$);
#147= IFCPROPERTYSINGLEVALUE('RectangleOpeningHeight',$,$,$);
#148= IFCPROPERTYSET('3d4_x4uuXBCPq67zVEJqNO',#5,'AISC_EM11_Pset_Opening/Cope',$,(#145,#146,#147,#89));
#149= IFCCARTESIANPOINT((51105.017867042,7962.64430279308,19305.));
#150= IFCDIRECTION((0.999999983207153,-0.000183264000038434,0.));
#151= IFCAXIS2PLACEMENT3D(#149,#150,#77);
#152= IFCLOCALPLACEMENT(#42,#151);
#153= IFCCARTESIANPOINT((0.,-4.77404467034894,0.));
#154= IFCAXIS2PLACEMENT3D(#153,#8,#7);
#155= IFCEXTRUDEDAREASOLID(#120,#154,#9,9.6);
#156= IFCSHAPEREPRESENTATION(#12,'Body','SweptSolid',(#155));
#157= IFCREPRESENTATIONMAP(#10,#156);
#158= IFCMAPPEDITEM(#157,#127);
#159= IFCMAPPEDITEM(#157,#130);
#160= IFCMAPPEDITEM(#157,#133);
#161= IFCMAPPEDITEM(#157,#136);
#162= IFCMAPPEDITEM(#157,#139);
#163= IFCSHAPEREPRESENTATION(#12,'Body','MappedRepresentation',(#158,#159,#160,#161,#162));
#164= IFCPRODUCTDEFINITIONSHAPE($,$,(#163));
#165= IFCOPENINGELEMENT('02p589wRv15wn8ELG8tKkt',#5,$,$,'Opening',#152,#164,$);
#166= IFCRELVOIDSELEMENT('0NSuAeMD94TA0e2y1yThFu',#5,'Drill Hole',$,#74,#165);
#167= IFCPROPERTYSINGLEVALUE('PieceMark',$,IFCIDENTIFIER('BEAM'),$);
#168= IFCPROPERTYSINGLEVALUE('IndicationMark',$,IFCIDENTIFIER('b/946'),$);
#169= IFCPROPERTYSINGLEVALUE('PrelimMark',$,IFCIDENTIFIER(''),$);
#170= IFCPROPERTYSINGLEVALUE('MainPieceTag',$,IFCBOOLEAN(.T.),$);
#171= IFCPROPERTYSET('3IV4FhO8zCb8BrvX0cahHz',#5,'AISC_EM11_Pset_PieceIdentification','PieceIdentity',(#167,#168,#169,#170));
#172= IFCPROPERTYSINGLEVALUE('MaterialType',$,IFCIDENTIFIER('STEEL'),$);
#173= IFCPROPERTYSINGLEVALUE('MaterialGrade',$,IFCIDENTIFIER('S235JR'),$);
#174= IFCPROPERTYSET('3PP80AH$jCMRIhIQPVA2GK',#5,'AISC_EM11_Pset_Material',$,(#172,#173));
#175= IFCPROPERTYSINGLEVALUE('SkewedAngleY',$,IFCREAL(0.),$);
#176= IFCPROPERTYSINGLEVALUE('SkewedAngleX',$,IFCREAL(0.0106),$);
#177= IFCPROPERTYSET('2BFyTze1P4jga$SQLul0C4',#5,'AISC_EM11_Pset_SkewedEnd',$,(#175,#176));
#178= IFCPROPERTYSINGLEVALUE('SkewedAngleX',$,IFCREAL(-7.E-05),$);
#179= IFCPROPERTYSET('3Cxb2ygpDChA4iXsRwEz1c',#5,'AISC_EM11_Pset_SkewedEnd_2',$,(#175,#178));
#180= IFCMATERIAL('STEEL/S235JR');
#181= IFCRELAGGREGATES('1soE45jan6YwndtxQ1fOSI',#5,$,$,#37,(#39));
#182= IFCRELAGGREGATES('284WMN$s3OqC3v9DiJxgka',#5,$,$,#39,(#41));
#183= IFCRELAGGREGATES('2zc38mtGz4zvwxAdEF52GS',#5,$,$,#41,(#43));
#184= IFCRELCONTAINEDINSPATIALSTRUCTURE('0DqGRY9P59wPYtZgstEE2t',#5,$,$,(#74),#43);
#185= IFCRELDEFINESBYPROPERTIES('3wEthFM0nCr8kjjF9kNYEe',#5,$,$,(#114,#106,#97,#84),#90);
#186= IFCRELDEFINESBYPROPERTIES('1sf6afT61BLPXivUj7A9uo',#5,$,$,(#165,#143),#148);
#187= IFCRELDEFINESBYPROPERTIES('2f5KztKQX6qvIMa1MNW0LV',#5,$,$,(#74),#171);
#188= IFCRELDEFINESBYPROPERTIES('1K2PrI5Mr4qPA692otwrE8',#5,$,$,(#74),#174);
#189= IFCRELDEFINESBYPROPERTIES('3yf28eQvb3JuEZAWWJmH_s',#5,$,$,(#74),#177);
#190= IFCRELDEFINESBYPROPERTIES('0Tw8IX13f53Occu_SqZObL',#5,$,$,(#74),#179);
#191= IFCRELASSOCIATESMATERIAL('2ZsGHvSoLCJelh9JDqyYtB',#5,$,$,(#74),#180);
ENDSEC;

END-ISO-10303-21;
