ISO-10303-21;
HEADER;
FILE_DESCRIPTION(('ViewDefinition[AISC_Steel_Detailing]', 'Option [BaseQuantities:Off]', 'Option [GridExport:On]', 'Option [Assemblies:Off]', 'Option [Bolts:On]', 'Option [Rebars:On]', 'Option [PourObjects:Off]', 'Option [Welds:On]', 'Option [SurfaceTreatments:On]', 'Option [LocationBy:0]', 'Option [ViewColors:Off]', 'Option [SectionedSpine:Off]', 'Option [PropertySets:On]', 'Option [Export all:Off]'),'2;1');
FILE_NAME('b_945_Qty_1.ifc','2026-05-16T11:53:20',('GIOVANNIPC\\gcorrea'),('Structural Designer'),'IFC Database version: Work','Tekla Structures 2020 Service Pack 5, IFC Export Version: 4.0.0.0 Dec  7 2020','');
FILE_SCHEMA(('IFC2X3'));
ENDSEC;

DATA;
#1= IFCPERSON('GIOVANNIPC\\gcorrea','Undefined',$,$,$,$,$,$);
#2= IFCORGANIZATION($,'Trimble Solutions Corporation',$,$,$);
#3= IFCPERSONANDORGANIZATION(#1,#2,$);
#4= IFCAPPLICATION(#2,'2020 Service Pack 5','Tekla Structures','Multi material modeling');
#5= IFCOWNERHISTORY(#3,#4,$,.NOCHANGE.,$,$,$,1778950400);
#6= IFCCARTESIANPOINT((0.,0.,0.));
#7= IFCDIRECTION((1.,0.,0.));
#8= IFCDIRECTION((0.,1.,0.));
#9= IFCDIRECTION((0.,0.,1.));
#10= IFCAXIS2PLACEMENT3D(#6,#9,#7);
#11= IFCGEOMETRICREPRESENTATIONCONTEXT($,'Model',3,1.E-05,#10,$);
#12= IFCGEOMETRICREPRESENTATIONSUBCONTEXT('Body','Model',*,*,*,*,#11,$,.MODEL_VIEW.,$);
#13= IFCGEOMETRICREPRESENTATIONSUBCONTEXT('Axis','Model',*,*,*,*,#11,$,.GRAPH_VIEW.,$);
#14= IFCGEOMETRICREPRESENTATIONSUBCONTEXT('FootPrint','Model',*,*,*,*,#11,$,.MODEL_VIEW.,$);
#15= IFCSIUNIT(*,.LENGTHUNIT.,.MILLI.,.METRE.);
#16= IFCMEASUREWITHUNIT(IFCRATIOMEASURE(304.8),#15);
#17= IFCDIMENSIONALEXPONENTS(1,0,0,0,0,0,0);
#18= IFCCONVERSIONBASEDUNIT(#17,.LENGTHUNIT.,'FOOT',#16);
#19= IFCSIUNIT(*,.AREAUNIT.,$,.SQUARE_METRE.);
#20= IFCMEASUREWITHUNIT(IFCRATIOMEASURE(0.09290304),#19);
#21= IFCDIMENSIONALEXPONENTS(2,0,0,0,0,0,0);
#22= IFCCONVERSIONBASEDUNIT(#21,.AREAUNIT.,'SQUARE FOOT',#20);
#23= IFCSIUNIT(*,.VOLUMEUNIT.,$,.CUBIC_METRE.);
#24= IFCMEASUREWITHUNIT(IFCRATIOMEASURE(0.028316846592),#23);
#25= IFCDIMENSIONALEXPONENTS(3,0,0,0,0,0,0);
#26= IFCCONVERSIONBASEDUNIT(#25,.VOLUMEUNIT.,'CUBIC FOOT',#24);
#27= IFCSIUNIT(*,.MASSUNIT.,.KILO.,.GRAM.);
#28= IFCSIUNIT(*,.TIMEUNIT.,$,.SECOND.);
#29= IFCSIUNIT(*,.PLANEANGLEUNIT.,$,.RADIAN.);
#30= IFCMEASUREWITHUNIT(IFCRATIOMEASURE(0.0174532925199433),#29);
#31= IFCDIMENSIONALEXPONENTS(0,0,0,0,0,0,0);
#32= IFCCONVERSIONBASEDUNIT(#31,.PLANEANGLEUNIT.,'DEGREE',#30);
#33= IFCSIUNIT(*,.SOLIDANGLEUNIT.,$,.STERADIAN.);
#34= IFCSIUNIT(*,.THERMODYNAMICTEMPERATUREUNIT.,$,.DEGREE_CELSIUS.);
#35= IFCSIUNIT(*,.LUMINOUSINTENSITYUNIT.,$,.LUMEN.);
#36= IFCUNITASSIGNMENT((#15,#19,#23,#27,#28,#29,#33,#34,#35));
#37= IFCPROJECT('2G7ZFDNE16yBDU14FA92Me',#5,'Proyecto',$,$,$,$,(#11),#36);
#38= IFCLOCALPLACEMENT($,#10);
#39= IFCSITE('2xvEzEinjBTea80yOTcujY',#5,'Obra',$,$,#38,$,$,.ELEMENT.,$,$,$,$,$);
#40= IFCLOCALPLACEMENT(#38,#10);
#41= IFCBUILDING('0ozIHZM6r8QOFMDdiKEEqz',#5,'Undefined',$,$,#40,$,$,.ELEMENT.,$,$,$);
#42= IFCLOCALPLACEMENT(#40,#10);
#43= IFCBUILDINGSTOREY('29hdEUCErFze9E_VIAceOd',#5,'Undefined',$,$,#42,$,$,.ELEMENT.,0.);
#44= IFCOWNERHISTORY(#3,#4,$,.NOCHANGE.,$,$,$,1774026000);
#45= IFCCARTESIANPOINT((59645.0002411728,1603.38122277425,19130.));
#46= IFCAXIS2PLACEMENT3D(#45,#9,#7);
#47= IFCLOCALPLACEMENT(#42,#46);
#48= IFCDIRECTION((1.,0.));
#49= IFCCARTESIANPOINT((0.,0.));
#50= IFCAXIS2PLACEMENT2D(#49,#48);
#51= IFCISHAPEPROFILEDEF(.AREA.,'HEA450',#50,300.,440.,11.5,21.,27.);
#52= IFCDIRECTION((0.,-1.,0.));
#53= IFCDIRECTION((-1.,0.,0.));
#54= IFCCARTESIANPOINT((8131.99975882719,0.,0.));
#55= IFCAXIS2PLACEMENT3D(#54,#53,#52);
#56= IFCEXTRUDEDAREASOLID(#51,#55,#9,8142.);
#57= IFCCARTESIANPOINT((8131.99975882719,1.21965348500999,-325.));
#58= IFCAXIS2PLACEMENT3D(#57,#53,#8);
#59= IFCPLANE(#58);
#60= IFCHALFSPACESOLID(#59,.T.);
#61= IFCBOOLEANCLIPPINGRESULT(.DIFFERENCE.,#56,#60);
#62= IFCCARTESIANPOINT((-10.0005158310159,0.,-320.));
#63= IFCAXIS2PLACEMENT3D(#62,#7,#52);
#64= IFCPLANE(#63);
#65= IFCHALFSPACESOLID(#64,.T.);
#66= IFCBOOLEANCLIPPINGRESULT(.DIFFERENCE.,#61,#65);
#67= IFCSHAPEREPRESENTATION(#12,'Body','Clipping',(#66));
#68= IFCPRODUCTDEFINITIONSHAPE($,$,(#67));
#69= IFCBEAM('2DNOsBdvz5bPvbkTuR_T9D',#44,'BEAM','HEA450','HEA450',#47,#68,'ID8d5d8d8b-9f9f-4595-9e65-b9de1bf9d24d');
#70= IFCLOCALPLACEMENT(#42,#46);
#71= IFCRECTANGLEPROFILEDEF(.AREA.,'PL163.2*12',#50,12.,163.2);
#72= IFCDIRECTION((0.,0.,-1.));
#73= IFCCARTESIANPOINT((8148.00852257846,-69.399829864502,221.));
#74= IFCAXIS2PLACEMENT3D(#73,#72,#53);
#75= IFCEXTRUDEDAREASOLID(#71,#74,#9,442.);
#76= IFCSHAPEREPRESENTATION(#12,'Body','SweptSolid',(#75));
#77= IFCPRODUCTDEFINITIONSHAPE($,$,(#76));
#78= IFCOPENINGELEMENT('1oXreYsp15sgKULehXwEyE',#5,$,$,'Recess',#70,#77,$);
#79= IFCRELVOIDSELEMENT('3ASqerFXvC4AomIEy4WyzB',#5,$,$,#69,#78);
#80= IFCPROPERTYSINGLEVALUE('FeatureSubTypes',$,$,$);
#81= IFCPROPERTYSINGLEVALUE('RectangleOpeningWidth',$,IFCPOSITIVELENGTHMEASURE(12.),$);
#82= IFCPROPERTYSINGLEVALUE('RectangleOpeningHeight',$,IFCPOSITIVELENGTHMEASURE(163.2),$);
#83= IFCPROPERTYSINGLEVALUE('OpeningDiameter',$,$,$);
#84= IFCPROPERTYSET('1uzc6srnvF0R5jwu4olWF5',#5,'AISC_EM11_Pset_Opening/Cope',$,(#80,#81,#82,#83));
#85= IFCLOCALPLACEMENT(#42,#46);
#86= IFCRECTANGLEPROFILEDEF(.AREA.,'PL162.8*12',#50,12.,162.8);
#87= IFCCARTESIANPOINT((8148.00852257846,69.600170135498,221.));
#88= IFCAXIS2PLACEMENT3D(#87,#72,#53);
#89= IFCEXTRUDEDAREASOLID(#86,#88,#9,442.);
#90= IFCSHAPEREPRESENTATION(#12,'Body','SweptSolid',(#89));
#91= IFCPRODUCTDEFINITIONSHAPE($,$,(#90));
#92= IFCOPENINGELEMENT('05t3C8XYz58eu1f_Kau1rJ',#5,$,$,'Recess',#85,#91,$);
#93= IFCRELVOIDSELEMENT('2XHxVnstz3Gg3iHaC$ZHYi',#5,$,$,#69,#92);
#94= IFCPROPERTYSINGLEVALUE('RectangleOpeningHeight',$,IFCPOSITIVELENGTHMEASURE(162.8),$);
#95= IFCPROPERTYSET('0Ny2lGnYjCLwiElLJDU4fB',#5,'AISC_EM11_Pset_Opening/Cope',$,(#80,#81,#94,#83));
#96= IFCLOCALPLACEMENT(#42,#46);
#97= IFCRECTANGLEPROFILEDEF(.AREA.,'PL108*12',#50,12.,108.);
#98= IFCCARTESIANPOINT((8147.99975882719,-40.78034651499,226.));
#99= IFCAXIS2PLACEMENT3D(#98,#72,#53);
#100= IFCEXTRUDEDAREASOLID(#97,#99,#9,452.);
#101= IFCSHAPEREPRESENTATION(#12,'Body','SweptSolid',(#100));
#102= IFCPRODUCTDEFINITIONSHAPE($,$,(#101));
#103= IFCOPENINGELEMENT('3H4MxVL$T4zuK$aaZX$yMX',#5,$,$,'Recess',#96,#102,$);
#104= IFCRELVOIDSELEMENT('1tD50qIJzEsAafF1BEgm6d',#5,$,$,#69,#103);
#105= IFCPROPERTYSINGLEVALUE('RectangleOpeningHeight',$,IFCPOSITIVELENGTHMEASURE(108.),$);
#106= IFCPROPERTYSET('03knCgKkH3X9d5bVaSPMPG',#5,'AISC_EM11_Pset_Opening/Cope',$,(#80,#81,#105,#83));
#107= IFCLOCALPLACEMENT(#42,#46);
#108= IFCCARTESIANPOINT((8147.99975882719,43.21965348501,226.));
#109= IFCAXIS2PLACEMENT3D(#108,#72,#53);
#110= IFCEXTRUDEDAREASOLID(#97,#109,#9,452.);
#111= IFCSHAPEREPRESENTATION(#12,'Body','SweptSolid',(#110));
#112= IFCPRODUCTDEFINITIONSHAPE($,$,(#111));
#113= IFCOPENINGELEMENT('2QeCMke4f4pRpomdUBjFg4',#5,$,$,'Recess',#107,#112,$);
#114= IFCRELVOIDSELEMENT('2oL1YcLfzEUxPdtVSXDs75',#5,$,$,#69,#113);
#115= IFCCARTESIANPOINT((59679.9997253418,1603.38122277425,18910.));
#116= IFCAXIS2PLACEMENT3D(#115,#52,#7);
#117= IFCLOCALPLACEMENT(#42,#116);
#118= IFCCIRCLEPROFILEDEF(.AREA.,$,#50,12.5);
#119= IFCCARTESIANPOINT((0.,-0.1,0.));
#120= IFCAXIS2PLACEMENT3D(#119,#8,#7);
#121= IFCEXTRUDEDAREASOLID(#118,#120,#9,21.2);
#122= IFCSHAPEREPRESENTATION(#12,'Body','SweptSolid',(#121));
#123= IFCREPRESENTATIONMAP(#10,#122);
#124= IFCCARTESIANPOINT((0.,0.,-75.));
#125= IFCCARTESIANTRANSFORMATIONOPERATOR3D($,$,#124,$,$);
#126= IFCMAPPEDITEM(#123,#125);
#127= IFCCARTESIANPOINT((75.,0.,-75.));
#128= IFCCARTESIANTRANSFORMATIONOPERATOR3D($,$,#127,$,$);
#129= IFCMAPPEDITEM(#123,#128);
#130= IFCCARTESIANPOINT((150.,0.,-75.));
#131= IFCCARTESIANTRANSFORMATIONOPERATOR3D($,$,#130,$,$);
#132= IFCMAPPEDITEM(#123,#131);
#133= IFCCARTESIANPOINT((225.,0.,-75.));
#134= IFCCARTESIANTRANSFORMATIONOPERATOR3D($,$,#133,$,$);
#135= IFCMAPPEDITEM(#123,#134);
#136= IFCCARTESIANPOINT((300.,0.,-75.));
#137= IFCCARTESIANTRANSFORMATIONOPERATOR3D($,$,#136,$,$);
#138= IFCMAPPEDITEM(#123,#137);
#139= IFCCARTESIANPOINT((375.,0.,-75.));
#140= IFCCARTESIANTRANSFORMATIONOPERATOR3D($,$,#139,$,$);
#141= IFCMAPPEDITEM(#123,#140);
#142= IFCCARTESIANPOINT((450.,0.,-75.));
#143= IFCCARTESIANTRANSFORMATIONOPERATOR3D($,$,#142,$,$);
#144= IFCMAPPEDITEM(#123,#143);
#145= IFCCARTESIANPOINT((525.,0.,-75.));
#146= IFCCARTESIANTRANSFORMATIONOPERATOR3D($,$,#145,$,$);
#147= IFCMAPPEDITEM(#123,#146);
#148= IFCCARTESIANPOINT((600.,0.,-75.));
#149= IFCCARTESIANTRANSFORMATIONOPERATOR3D($,$,#148,$,$);
#150= IFCMAPPEDITEM(#123,#149);
#151= IFCCARTESIANPOINT((675.,0.,-75.));
#152= IFCCARTESIANTRANSFORMATIONOPERATOR3D($,$,#151,$,$);
#153= IFCMAPPEDITEM(#123,#152);
#154= IFCCARTESIANPOINT((0.,0.,75.));
#155= IFCCARTESIANTRANSFORMATIONOPERATOR3D($,$,#154,$,$);
#156= IFCMAPPEDITEM(#123,#155);
#157= IFCCARTESIANPOINT((75.,0.,75.));
#158= IFCCARTESIANTRANSFORMATIONOPERATOR3D($,$,#157,$,$);
#159= IFCMAPPEDITEM(#123,#158);
#160= IFCCARTESIANPOINT((150.,0.,75.));
#161= IFCCARTESIANTRANSFORMATIONOPERATOR3D($,$,#160,$,$);
#162= IFCMAPPEDITEM(#123,#161);
#163= IFCCARTESIANPOINT((225.,0.,75.));
#164= IFCCARTESIANTRANSFORMATIONOPERATOR3D($,$,#163,$,$);
#165= IFCMAPPEDITEM(#123,#164);
#166= IFCCARTESIANPOINT((300.,0.,75.));
#167= IFCCARTESIANTRANSFORMATIONOPERATOR3D($,$,#166,$,$);
#168= IFCMAPPEDITEM(#123,#167);
#169= IFCCARTESIANPOINT((375.,0.,75.));
#170= IFCCARTESIANTRANSFORMATIONOPERATOR3D($,$,#169,$,$);
#171= IFCMAPPEDITEM(#123,#170);
#172= IFCCARTESIANPOINT((450.,0.,75.));
#173= IFCCARTESIANTRANSFORMATIONOPERATOR3D($,$,#172,$,$);
#174= IFCMAPPEDITEM(#123,#173);
#175= IFCCARTESIANPOINT((525.,0.,75.));
#176= IFCCARTESIANTRANSFORMATIONOPERATOR3D($,$,#175,$,$);
#177= IFCMAPPEDITEM(#123,#176);
#178= IFCCARTESIANPOINT((600.,0.,75.));
#179= IFCCARTESIANTRANSFORMATIONOPERATOR3D($,$,#178,$,$);
#180= IFCMAPPEDITEM(#123,#179);
#181= IFCCARTESIANPOINT((675.,0.,75.));
#182= IFCCARTESIANTRANSFORMATIONOPERATOR3D($,$,#181,$,$);
#183= IFCMAPPEDITEM(#123,#182);
#184= IFCSHAPEREPRESENTATION(#12,'Body','MappedRepresentation',(#126,#129,#132,#135,#138,#141,#144,#147,#150,#153,#156,#159,#162,#165,#168,#171,#174,#177,#180,#183));
#185= IFCPRODUCTDEFINITIONSHAPE($,$,(#184));
#186= IFCOPENINGELEMENT('0XDmAyERb45gfStodXvXRC',#5,$,$,'Opening',#117,#185,$);
#187= IFCRELVOIDSELEMENT('1msfww9jf2nBOog8VKth9V',#5,'Drill Hole',$,#69,#186);
#188= IFCPROPERTYSINGLEVALUE('FeatureSubTypes',$,IFCLABEL('TORNILLO'),$);
#189= IFCPROPERTYSINGLEVALUE('RectangleOpeningWidth',$,$,$);
#190= IFCPROPERTYSINGLEVALUE('RectangleOpeningHeight',$,$,$);
#191= IFCPROPERTYSET('2$ynLMYYPCXuFD3ByTzX5m',#5,'AISC_EM11_Pset_Opening/Cope',$,(#188,#189,#190,#83));
#192= IFCCARTESIANPOINT((59634.9997253418,1603.38122277425,19350.));
#193= IFCAXIS2PLACEMENT3D(#192,#7,#72);
#194= IFCLOCALPLACEMENT(#42,#193);
#195= IFCCIRCLEPROFILEDEF(.AREA.,$,#50,11.5);
#196= IFCCARTESIANPOINT((0.,-5.85,0.));
#197= IFCAXIS2PLACEMENT3D(#196,#8,#7);
#198= IFCEXTRUDEDAREASOLID(#195,#197,#9,11.7);
#199= IFCSHAPEREPRESENTATION(#12,'Body','SweptSolid',(#198));
#200= IFCREPRESENTATIONMAP(#10,#199);
#201= IFCCARTESIANPOINT((80.,0.,45.));
#202= IFCCARTESIANTRANSFORMATIONOPERATOR3D($,$,#201,$,$);
#203= IFCMAPPEDITEM(#200,#202);
#204= IFCCARTESIANPOINT((150.,0.,45.));
#205= IFCCARTESIANTRANSFORMATIONOPERATOR3D($,$,#204,$,$);
#206= IFCMAPPEDITEM(#200,#205);
#207= IFCCARTESIANPOINT((220.,0.,45.));
#208= IFCCARTESIANTRANSFORMATIONOPERATOR3D($,$,#207,$,$);
#209= IFCMAPPEDITEM(#200,#208);
#210= IFCCARTESIANPOINT((290.,0.,45.));
#211= IFCCARTESIANTRANSFORMATIONOPERATOR3D($,$,#210,$,$);
#212= IFCMAPPEDITEM(#200,#211);
#213= IFCCARTESIANPOINT((360.,0.,45.));
#214= IFCCARTESIANTRANSFORMATIONOPERATOR3D($,$,#213,$,$);
#215= IFCMAPPEDITEM(#200,#214);
#216= IFCSHAPEREPRESENTATION(#12,'Body','MappedRepresentation',(#203,#206,#209,#212,#215));
#217= IFCPRODUCTDEFINITIONSHAPE($,$,(#216));
#218= IFCOPENINGELEMENT('2Hy1XOvZz8oxWFiqwD9RLw',#5,$,$,'Opening',#194,#217,$);
#219= IFCRELVOIDSELEMENT('0NZPeUroLD$fcP3wjpUlt6',#5,'Drill Hole',$,#69,#218);
#220= IFCCARTESIANPOINT((59679.9997253418,1603.38122277425,19350.));
#221= IFCAXIS2PLACEMENT3D(#220,#8,#7);
#222= IFCLOCALPLACEMENT(#42,#221);
#223= IFCSHAPEREPRESENTATION(#12,'Body','MappedRepresentation',(#126,#129,#132,#135,#138,#141,#144,#147,#150,#153,#156,#159,#162,#165,#168,#171,#174,#177,#180,#183));
#224= IFCPRODUCTDEFINITIONSHAPE($,$,(#223));
#225= IFCOPENINGELEMENT('1YrEqWMsP4Ehf7La2Zy2mx',#5,$,$,'Opening',#222,#224,$);
#226= IFCRELVOIDSELEMENT('2f6uXxx9P5zvaVf1qShJfr',#5,'Drill Hole',$,#69,#225);
#227= IFCCARTESIANPOINT((67732.0175084489,1603.95500248076,18910.));
#228= IFCDIRECTION((-7.12890000286279E-05,0.999999997458939,0.));
#229= IFCDIRECTION((-0.999999997458939,-7.12890000327464E-05,0.));
#230= IFCAXIS2PLACEMENT3D(#227,#228,#229);
#231= IFCLOCALPLACEMENT(#42,#230);
#232= IFCEXTRUDEDAREASOLID(#195,#120,#9,21.2);
#233= IFCSHAPEREPRESENTATION(#12,'Body','SweptSolid',(#232));
#234= IFCREPRESENTATIONMAP(#10,#233);
#235= IFCMAPPEDITEM(#234,#155);
#236= IFCMAPPEDITEM(#234,#158);
#237= IFCMAPPEDITEM(#234,#161);
#238= IFCMAPPEDITEM(#234,#164);
#239= IFCMAPPEDITEM(#234,#167);
#240= IFCMAPPEDITEM(#234,#170);
#241= IFCMAPPEDITEM(#234,#173);
#242= IFCMAPPEDITEM(#234,#176);
#243= IFCMAPPEDITEM(#234,#179);
#244= IFCMAPPEDITEM(#234,#182);
#245= IFCMAPPEDITEM(#234,#125);
#246= IFCMAPPEDITEM(#234,#128);
#247= IFCMAPPEDITEM(#234,#131);
#248= IFCMAPPEDITEM(#234,#134);
#249= IFCMAPPEDITEM(#234,#137);
#250= IFCMAPPEDITEM(#234,#140);
#251= IFCMAPPEDITEM(#234,#143);
#252= IFCMAPPEDITEM(#234,#146);
#253= IFCMAPPEDITEM(#234,#149);
#254= IFCMAPPEDITEM(#234,#152);
#255= IFCSHAPEREPRESENTATION(#12,'Body','MappedRepresentation',(#235,#236,#237,#238,#239,#240,#241,#242,#243,#244,#245,#246,#247,#248,#249,#250,#251,#252,#253,#254));
#256= IFCPRODUCTDEFINITIONSHAPE($,$,(#255));
#257= IFCOPENINGELEMENT('3La$rpa_P3M8OAj8QbDvtl',#5,$,$,'Opening',#231,#256,$);
#258= IFCRELVOIDSELEMENT('2o2JFnbyD7Hhyk$v90LjuN',#5,'Drill Hole',$,#69,#257);
#259= IFCCARTESIANPOINT((67732.0175084489,1603.95500248076,19350.));
#260= IFCDIRECTION((7.12890000286279E-05,-0.999999997458939,0.));
#261= IFCAXIS2PLACEMENT3D(#259,#260,#229);
#262= IFCLOCALPLACEMENT(#42,#261);
#263= IFCSHAPEREPRESENTATION(#12,'Body','MappedRepresentation',(#245,#246,#247,#248,#249,#250,#251,#252,#253,#254,#235,#236,#237,#238,#239,#240,#241,#242,#243,#244));
#264= IFCPRODUCTDEFINITIONSHAPE($,$,(#263));
#265= IFCOPENINGELEMENT('3szXsG_Yf4B8fUGgw96bmx',#5,$,$,'Opening',#262,#264,$);
#266= IFCRELVOIDSELEMENT('0jpYytdzT3UxgzWLh9cRhh',#5,'Drill Hole',$,#69,#265);
#267= IFCCARTESIANPOINT((67777.0175275026,1603.38122277425,19350.));
#268= IFCAXIS2PLACEMENT3D(#267,#53,#72);
#269= IFCLOCALPLACEMENT(#42,#268);
#270= IFCEXTRUDEDAREASOLID(#118,#197,#9,11.7);
#271= IFCSHAPEREPRESENTATION(#12,'Body','SweptSolid',(#270));
#272= IFCREPRESENTATIONMAP(#10,#271);
#273= IFCCARTESIANPOINT((107.5,0.,45.));
#274= IFCCARTESIANTRANSFORMATIONOPERATOR3D($,$,#273,$,$);
#275= IFCMAPPEDITEM(#272,#274);
#276= IFCCARTESIANPOINT((182.5,0.,45.));
#277= IFCCARTESIANTRANSFORMATIONOPERATOR3D($,$,#276,$,$);
#278= IFCMAPPEDITEM(#272,#277);
#279= IFCCARTESIANPOINT((257.5,0.,45.));
#280= IFCCARTESIANTRANSFORMATIONOPERATOR3D($,$,#279,$,$);
#281= IFCMAPPEDITEM(#272,#280);
#282= IFCCARTESIANPOINT((332.5,0.,45.));
#283= IFCCARTESIANTRANSFORMATIONOPERATOR3D($,$,#282,$,$);
#284= IFCMAPPEDITEM(#272,#283);
#285= IFCSHAPEREPRESENTATION(#12,'Body','MappedRepresentation',(#275,#278,#281,#284));
#286= IFCPRODUCTDEFINITIONSHAPE($,$,(#285));
#287= IFCOPENINGELEMENT('35HRRCVbHEofJdIWKAmvU3',#5,$,$,'Opening',#269,#286,$);
#288= IFCRELVOIDSELEMENT('07IYMoo7nApepzLIf09WRA',#5,'Drill Hole',$,#69,#287);
#289= IFCPROPERTYSINGLEVALUE('PieceMark',$,IFCIDENTIFIER('BEAM'),$);
#290= IFCPROPERTYSINGLEVALUE('IndicationMark',$,IFCIDENTIFIER('b/945'),$);
#291= IFCPROPERTYSINGLEVALUE('PrelimMark',$,IFCIDENTIFIER(''),$);
#292= IFCPROPERTYSINGLEVALUE('MainPieceTag',$,IFCBOOLEAN(.F.),$);
#293= IFCPROPERTYSET('0G_rehZQv7oBbZg4uZ17VT',#5,'AISC_EM11_Pset_PieceIdentification','PieceIdentity',(#289,#290,#291,#292));
#294= IFCPROPERTYSINGLEVALUE('MaterialType',$,IFCIDENTIFIER('STEEL'),$);
#295= IFCPROPERTYSINGLEVALUE('MaterialGrade',$,IFCIDENTIFIER('S235JR'),$);
#296= IFCPROPERTYSET('1yoY$8lev28eY6VzrBBYjd',#5,'AISC_EM11_Pset_Material',$,(#294,#295));
#297= IFCPROPERTYSINGLEVALUE('SkewedAngleY',$,IFCREAL(0.),$);
#298= IFCPROPERTYSINGLEVALUE('SkewedAngleX',$,IFCREAL(0.),$);
#299= IFCPROPERTYSET('3nrGno3Fj0fhHbiRuXgE$L',#5,'AISC_EM11_Pset_SkewedEnd',$,(#297,#298));
#300= IFCPROPERTYSET('2R9Nm7CljFvuKKQmlmVSat',#5,'AISC_EM11_Pset_SkewedEnd_2',$,(#297,#298));
#301= IFCMATERIAL('STEEL/S235JR');
#302= IFCRELAGGREGATES('3W0NBirVvA2hPb9S0lsTUC',#5,$,$,#37,(#39));
#303= IFCRELAGGREGATES('2oIfT_7nBSKzhtRkI18lmU',#5,$,$,#39,(#41));
#304= IFCRELAGGREGATES('3fvxMUMnnBlBWywbdjuTEf',#5,$,$,#41,(#43));
#305= IFCRELCONTAINEDINSPATIALSTRUCTURE('0CQouNqsXBDQJmOd3zb6uD',#5,$,$,(#69),#43);
#306= IFCRELDEFINESBYPROPERTIES('1858Xuky14tAST3DC0zekA',#5,$,$,(#78),#84);
#307= IFCRELDEFINESBYPROPERTIES('0457ENL3n5MOqJkALo0zzi',#5,$,$,(#92),#95);
#308= IFCRELDEFINESBYPROPERTIES('3EYsYlzwv6fex2qUf34DOg',#5,$,$,(#113,#103),#106);
#309= IFCRELDEFINESBYPROPERTIES('2qrnNwU85D_8q$8r_YHFJQ',#5,$,$,(#287,#265,#257,#225,#218,#186),#191);
#310= IFCRELDEFINESBYPROPERTIES('17M2a8HEDDIQsz9KISFav9',#5,$,$,(#69),#293);
#311= IFCRELDEFINESBYPROPERTIES('1Ws3KHwNHD$OdblAg$VhvJ',#5,$,$,(#69),#296);
#312= IFCRELDEFINESBYPROPERTIES('3NQCycSWz8KgJYLspSK$R4',#5,$,$,(#69),#299);
#313= IFCRELDEFINESBYPROPERTIES('1PhFmVMNvFIPTCwouXYQ54',#5,$,$,(#69),#300);
#314= IFCRELASSOCIATESMATERIAL('3Zgw2AE5f8EABEvSRI0Ls4',#5,$,$,(#69),#301);
ENDSEC;

END-ISO-10303-21;
