ISO-10303-21;
HEADER;
FILE_DESCRIPTION(('ViewDefinition[AISC_Steel_Detailing]', 'Option [BaseQuantities:Off]', 'Option [GridExport:On]', 'Option [Assemblies:Off]', 'Option [Bolts:On]', 'Option [Rebars:On]', 'Option [PourObjects:Off]', 'Option [Welds:On]', 'Option [SurfaceTreatments:On]', 'Option [LocationBy:0]', 'Option [ViewColors:Off]', 'Option [SectionedSpine:Off]', 'Option [PropertySets:On]', 'Option [Export all:Off]'),'2;1');
FILE_NAME('b_947_Qty_1.ifc','2026-05-16T11:52:53',('GIOVANNIPC\\gcorrea'),('Structural Designer'),'IFC Database version: Work','Tekla Structures 2020 Service Pack 5, IFC Export Version: 4.0.0.0 Dec  7 2020','');
FILE_SCHEMA(('IFC2X3'));
ENDSEC;

DATA;
#1= IFCPERSON('GIOVANNIPC\\gcorrea','Undefined',$,$,$,$,$,$);
#2= IFCORGANIZATION($,'Trimble Solutions Corporation',$,$,$);
#3= IFCPERSONANDORGANIZATION(#1,#2,$);
#4= IFCAPPLICATION(#2,'2020 Service Pack 5','Tekla Structures','Multi material modeling');
#5= IFCOWNERHISTORY(#3,#4,$,.NOCHANGE.,$,$,$,1778950373);
#6= IFCCARTESIANPOINT((0.,0.,0.));
#7= IFCDIRECTION((1.,0.,0.));
#8= IFCDIRECTION((0.,1.,0.));
#9= IFCDIRECTION((0.,0.,1.));
#10= IFCAXIS2PLACEMENT3D(#6,#9,#7);
#11= IFCGEOMETRICREPRESENTATIONCONTEXT($,'Model',3,1.E-05,#10,$);
#12= IFCGEOMETRICREPRESENTATIONSUBCONTEXT('Body','Model',*,*,*,*,#11,$,.MODEL_VIEW.,$);
#13= IFCGEOMETRICREPRESENTATIONSUBCONTEXT('Axis','Model',*,*,*,*,#11,$,.GRAPH_VIEW.,$);
#14= IFCGEOMETRICREPRESENTATIONSUBCONTEXT('FootPrint','Model',*,*,*,*,#11,$,.MODEL_VIEW.,$);
#15= IFCSIUNIT(*,.LENGTHUNIT.,.MILLI.,.METRE.);
#16= IFCMEASUREWITHUNIT(IFCRATIOMEASURE(304.8),#15);
#17= IFCDIMENSIONALEXPONENTS(1,0,0,0,0,0,0);
#18= IFCCONVERSIONBASEDUNIT(#17,.LENGTHUNIT.,'FOOT',#16);
#19= IFCSIUNIT(*,.AREAUNIT.,$,.SQUARE_METRE.);
#20= IFCMEASUREWITHUNIT(IFCRATIOMEASURE(0.09290304),#19);
#21= IFCDIMENSIONALEXPONENTS(2,0,0,0,0,0,0);
#22= IFCCONVERSIONBASEDUNIT(#21,.AREAUNIT.,'SQUARE FOOT',#20);
#23= IFCSIUNIT(*,.VOLUMEUNIT.,$,.CUBIC_METRE.);
#24= IFCMEASUREWITHUNIT(IFCRATIOMEASURE(0.028316846592),#23);
#25= IFCDIMENSIONALEXPONENTS(3,0,0,0,0,0,0);
#26= IFCCONVERSIONBASEDUNIT(#25,.VOLUMEUNIT.,'CUBIC FOOT',#24);
#27= IFCSIUNIT(*,.MASSUNIT.,.KILO.,.GRAM.);
#28= IFCSIUNIT(*,.TIMEUNIT.,$,.SECOND.);
#29= IFCSIUNIT(*,.PLANEANGLEUNIT.,$,.RADIAN.);
#30= IFCMEASUREWITHUNIT(IFCRATIOMEASURE(0.0174532925199433),#29);
#31= IFCDIMENSIONALEXPONENTS(0,0,0,0,0,0,0);
#32= IFCCONVERSIONBASEDUNIT(#31,.PLANEANGLEUNIT.,'DEGREE',#30);
#33= IFCSIUNIT(*,.SOLIDANGLEUNIT.,$,.STERADIAN.);
#34= IFCSIUNIT(*,.THERMODYNAMICTEMPERATUREUNIT.,$,.DEGREE_CELSIUS.);
#35= IFCSIUNIT(*,.LUMINOUSINTENSITYUNIT.,$,.LUMEN.);
#36= IFCUNITASSIGNMENT((#15,#19,#23,#27,#28,#29,#33,#34,#35));
#37= IFCPROJECT('2G7ZFDNE16yBDU14FA92Me',#5,'Proyecto',$,$,$,$,(#11),#36);
#38= IFCLOCALPLACEMENT($,#10);
#39= IFCSITE('2xvEzEinjBTea80yOTcujY',#5,'Obra',$,$,#38,$,$,.ELEMENT.,$,$,$,$,$);
#40= IFCLOCALPLACEMENT(#38,#10);
#41= IFCBUILDING('2IaySzjVv9hg08k5mOIBss',#5,'Undefined',$,$,#40,$,$,.ELEMENT.,$,$,$);
#42= IFCLOCALPLACEMENT(#40,#10);
#43= IFCBUILDINGSTOREY('29hdEUCErFze9E_VIAceOd',#5,'Undefined',$,$,#42,$,$,.ELEMENT.,0.);
#44= IFCOWNERHISTORY(#3,#4,$,.NOCHANGE.,$,$,$,1775073600);
#45= IFCCARTESIANPOINT((76500.,0.290658480914317,23375.));
#46= IFCDIRECTION((1.41100000010919E-05,0.999999999900454,0.));
#47= IFCAXIS2PLACEMENT3D(#45,#9,#46);
#48= IFCLOCALPLACEMENT(#42,#47);
#49= IFCDIRECTION((1.,0.));
#50= IFCCARTESIANPOINT((0.,0.));
#51= IFCAXIS2PLACEMENT2D(#50,#49);
#52= IFCISHAPEPROFILEDEF(.AREA.,'IPE450',#51,190.,450.,9.399999619,14.60000038,21.);
#53= IFCDIRECTION((0.,-1.,0.));
#54= IFCDIRECTION((-1.,0.,0.));
#55= IFCCARTESIANPOINT((1468.09205462058,0.,-3.63797880709171E-12));
#56= IFCAXIS2PLACEMENT3D(#55,#54,#53);
#57= IFCEXTRUDEDAREASOLID(#52,#56,#9,1468.09);
#58= IFCDIRECTION((-0.999999999900454,-1.41100000009829E-05,0.));
#59= IFCCARTESIANPOINT((1468.09070076756,-0.000141100012115203,-325.000000000004));
#60= IFCDIRECTION((-1.41100000009829E-05,0.999999999900454,0.));
#61= IFCAXIS2PLACEMENT3D(#59,#58,#60);
#62= IFCPLANE(#61);
#63= IFCHALFSPACESOLID(#62,.T.);
#64= IFCBOOLEANCLIPPINGRESULT(.DIFFERENCE.,#57,#63);
#65= IFCSHAPEREPRESENTATION(#12,'Body','Clipping',(#64));
#66= IFCPRODUCTDEFINITIONSHAPE($,$,(#65));
#67= IFCBEAM('3A7tUHjejBrh3sB_zL3ZiA',#44,'BEAM','IPE450','IPE450',#48,#66,'IDca1f7791-b68b-4bd6-b0f6-2fef550e3b0a');
#68= IFCLOCALPLACEMENT(#42,#47);
#69= IFCCIRCLEPROFILEDEF(.AREA.,'D325',#51,162.5);
#70= IFCCARTESIANPOINT((-0.290658480885383,-4.10119537264109E-06,-285.000000000004));
#71= IFCAXIS2PLACEMENT3D(#70,#9,#54);
#72= IFCEXTRUDEDAREASOLID(#69,#71,#9,570.);
#73= IFCSHAPEREPRESENTATION(#12,'Body','SweptSolid',(#72));
#74= IFCPRODUCTDEFINITIONSHAPE($,$,(#73));
#75= IFCOPENINGELEMENT('189fvjdl50YQxi3Xv5Y75D',#5,$,$,'Recess',#68,#74,$);
#76= IFCRELVOIDSELEMENT('1fFkk$rRzD1xK8$dupI6Sk',#5,$,$,#67,#75);
#77= IFCPROPERTYSINGLEVALUE('FeatureSubTypes',$,$,$);
#78= IFCPROPERTYSINGLEVALUE('RectangleOpeningWidth',$,$,$);
#79= IFCPROPERTYSINGLEVALUE('RectangleOpeningHeight',$,$,$);
#80= IFCPROPERTYSINGLEVALUE('OpeningDiameter',$,IFCPOSITIVELENGTHMEASURE(325.),$);
#81= IFCPROPERTYSET('2ENqtPPRPDPx38PcqqlWXA',#5,'AISC_EM11_Pset_Opening/Cope',$,(#77,#78,#79,#80));
#82= IFCCARTESIANPOINT((76500.,1428.38135910034,23150.));
#83= IFCAXIS2PLACEMENT3D(#82,#54,#53);
#84= IFCLOCALPLACEMENT(#42,#83);
#85= IFCCIRCLEPROFILEDEF(.AREA.,$,#51,12.5);
#86= IFCCARTESIANPOINT((0.,-0.100000000000782,0.));
#87= IFCAXIS2PLACEMENT3D(#86,#8,#7);
#88= IFCEXTRUDEDAREASOLID(#85,#87,#9,14.8);
#89= IFCSHAPEREPRESENTATION(#12,'Body','SweptSolid',(#88));
#90= IFCREPRESENTATIONMAP(#10,#89);
#91= IFCCARTESIANPOINT((0.,0.,50.));
#92= IFCCARTESIANTRANSFORMATIONOPERATOR3D($,$,#91,$,$);
#93= IFCMAPPEDITEM(#90,#92);
#94= IFCCARTESIANPOINT((70.,0.,49.9999999998108));
#95= IFCCARTESIANTRANSFORMATIONOPERATOR3D($,$,#94,$,$);
#96= IFCMAPPEDITEM(#90,#95);
#97= IFCCARTESIANPOINT((140.,0.,49.9999999996217));
#98= IFCCARTESIANTRANSFORMATIONOPERATOR3D($,$,#97,$,$);
#99= IFCMAPPEDITEM(#90,#98);
#100= IFCCARTESIANPOINT((210.,0.,49.9999999994325));
#101= IFCCARTESIANTRANSFORMATIONOPERATOR3D($,$,#100,$,$);
#102= IFCMAPPEDITEM(#90,#101);
#103= IFCCARTESIANPOINT((280.,0.,49.9999999992287));
#104= IFCCARTESIANTRANSFORMATIONOPERATOR3D($,$,#103,$,$);
#105= IFCMAPPEDITEM(#90,#104);
#106= IFCCARTESIANPOINT((350.,0.,49.9999999990396));
#107= IFCCARTESIANTRANSFORMATIONOPERATOR3D($,$,#106,$,$);
#108= IFCMAPPEDITEM(#90,#107);
#109= IFCCARTESIANPOINT((420.000000000001,0.,49.9999999988504));
#110= IFCCARTESIANTRANSFORMATIONOPERATOR3D($,$,#109,$,$);
#111= IFCMAPPEDITEM(#90,#110);
#112= IFCCARTESIANPOINT((0.,0.,-50.));
#113= IFCCARTESIANTRANSFORMATIONOPERATOR3D($,$,#112,$,$);
#114= IFCMAPPEDITEM(#90,#113);
#115= IFCCARTESIANPOINT((70.,0.,-50.0000000001892));
#116= IFCCARTESIANTRANSFORMATIONOPERATOR3D($,$,#115,$,$);
#117= IFCMAPPEDITEM(#90,#116);
#118= IFCCARTESIANPOINT((140.,0.,-50.0000000003783));
#119= IFCCARTESIANTRANSFORMATIONOPERATOR3D($,$,#118,$,$);
#120= IFCMAPPEDITEM(#90,#119);
#121= IFCCARTESIANPOINT((210.,0.,-50.0000000005675));
#122= IFCCARTESIANTRANSFORMATIONOPERATOR3D($,$,#121,$,$);
#123= IFCMAPPEDITEM(#90,#122);
#124= IFCCARTESIANPOINT((280.,0.,-50.0000000007713));
#125= IFCCARTESIANTRANSFORMATIONOPERATOR3D($,$,#124,$,$);
#126= IFCMAPPEDITEM(#90,#125);
#127= IFCCARTESIANPOINT((350.,0.,-50.0000000009604));
#128= IFCCARTESIANTRANSFORMATIONOPERATOR3D($,$,#127,$,$);
#129= IFCMAPPEDITEM(#90,#128);
#130= IFCCARTESIANPOINT((420.000000000001,0.,-50.0000000011496));
#131= IFCCARTESIANTRANSFORMATIONOPERATOR3D($,$,#130,$,$);
#132= IFCMAPPEDITEM(#90,#131);
#133= IFCSHAPEREPRESENTATION(#12,'Body','MappedRepresentation',(#93,#96,#99,#102,#105,#108,#111,#114,#117,#120,#123,#126,#129,#132));
#134= IFCPRODUCTDEFINITIONSHAPE($,$,(#133));
#135= IFCOPENINGELEMENT('2qHTyh2sv5Jh1BlwJHpylX',#5,$,$,'Opening',#84,#134,$);
#136= IFCRELVOIDSELEMENT('1lUVEhzU96Re4bkkmF_J1Z',#5,'Drill Hole',$,#67,#135);
#137= IFCPROPERTYSINGLEVALUE('FeatureSubTypes',$,IFCLABEL('TORNILLO'),$);
#138= IFCPROPERTYSINGLEVALUE('OpeningDiameter',$,$,$);
#139= IFCPROPERTYSET('1jiy$dXXz4ixa5re2YtjFR',#5,'AISC_EM11_Pset_Opening/Cope',$,(#137,#78,#79,#138));
#140= IFCCARTESIANPOINT((76500.,1428.38135910034,23600.));
#141= IFCAXIS2PLACEMENT3D(#140,#7,#53);
#142= IFCLOCALPLACEMENT(#42,#141);
#143= IFCSHAPEREPRESENTATION(#12,'Body','MappedRepresentation',(#114,#117,#120,#123,#126,#129,#132,#93,#96,#99,#102,#105,#108,#111));
#144= IFCPRODUCTDEFINITIONSHAPE($,$,(#143));
#145= IFCOPENINGELEMENT('3OzOgb5S16xQNR4x0y4DZN',#5,$,$,'Opening',#142,#144,$);
#146= IFCRELVOIDSELEMENT('2v5XnVzvL88PNMc1Cofvwd',#5,'Drill Hole',$,#67,#145);
#147= IFCCARTESIANPOINT((76500.0205736637,1468.38135910034,23600.));
#148= IFCDIRECTION((0.,0.,-1.));
#149= IFCAXIS2PLACEMENT3D(#147,#53,#148);
#150= IFCLOCALPLACEMENT(#42,#149);
#151= IFCCIRCLEPROFILEDEF(.AREA.,$,#51,11.5);
#152= IFCCARTESIANPOINT((0.,-4.80042311002909,0.));
#153= IFCAXIS2PLACEMENT3D(#152,#8,#7);
#154= IFCEXTRUDEDAREASOLID(#151,#153,#9,9.6);
#155= IFCSHAPEREPRESENTATION(#12,'Body','SweptSolid',(#154));
#156= IFCREPRESENTATIONMAP(#10,#155);
#157= IFCCARTESIANPOINT((85.,0.,40.));
#158= IFCCARTESIANTRANSFORMATIONOPERATOR3D($,$,#157,$,$);
#159= IFCMAPPEDITEM(#156,#158);
#160= IFCCARTESIANPOINT((155.,0.,40.));
#161= IFCCARTESIANTRANSFORMATIONOPERATOR3D($,$,#160,$,$);
#162= IFCMAPPEDITEM(#156,#161);
#163= IFCCARTESIANPOINT((225.,0.,40.));
#164= IFCCARTESIANTRANSFORMATIONOPERATOR3D($,$,#163,$,$);
#165= IFCMAPPEDITEM(#156,#164);
#166= IFCCARTESIANPOINT((295.,0.,40.));
#167= IFCCARTESIANTRANSFORMATIONOPERATOR3D($,$,#166,$,$);
#168= IFCMAPPEDITEM(#156,#167);
#169= IFCCARTESIANPOINT((365.,0.,40.));
#170= IFCCARTESIANTRANSFORMATIONOPERATOR3D($,$,#169,$,$);
#171= IFCMAPPEDITEM(#156,#170);
#172= IFCSHAPEREPRESENTATION(#12,'Body','MappedRepresentation',(#159,#162,#165,#168,#171));
#173= IFCPRODUCTDEFINITIONSHAPE($,$,(#172));
#174= IFCOPENINGELEMENT('0EaE6Bnxn3U8asBpv20xLz',#5,$,$,'Opening',#150,#173,$);
#175= IFCRELVOIDSELEMENT('0p9baNx8v6GPROgWPbg50I',#5,'Drill Hole',$,#67,#174);
#176= IFCPROPERTYSINGLEVALUE('PieceMark',$,IFCIDENTIFIER('BEAM'),$);
#177= IFCPROPERTYSINGLEVALUE('IndicationMark',$,IFCIDENTIFIER('b/947'),$);
#178= IFCPROPERTYSINGLEVALUE('PrelimMark',$,IFCIDENTIFIER(''),$);
#179= IFCPROPERTYSINGLEVALUE('MainPieceTag',$,IFCBOOLEAN(.T.),$);
#180= IFCPROPERTYSET('0erMBagJT1kf5WS7eMXSgk',#5,'AISC_EM11_Pset_PieceIdentification','PieceIdentity',(#176,#177,#178,#179));
#181= IFCPROPERTYSINGLEVALUE('MaterialType',$,IFCIDENTIFIER('STEEL'),$);
#182= IFCPROPERTYSINGLEVALUE('MaterialGrade',$,IFCIDENTIFIER('S235JR'),$);
#183= IFCPROPERTYSET('0Q5Z$f29T9FPr4NMX8XTo3',#5,'AISC_EM11_Pset_Material',$,(#181,#182));
#184= IFCPROPERTYSINGLEVALUE('SkewedAngleY',$,IFCREAL(0.),$);
#185= IFCPROPERTYSINGLEVALUE('SkewedAngleX',$,IFCREAL(0.),$);
#186= IFCPROPERTYSET('0_L_X1$IbEVhVm__Dx$qAH',#5,'AISC_EM11_Pset_SkewedEnd',$,(#184,#185));
#187= IFCPROPERTYSINGLEVALUE('SkewedAngleX',$,IFCREAL(-0.00081),$);
#188= IFCPROPERTYSET('3htSccK4HAAOVl0GRNFUm_',#5,'AISC_EM11_Pset_SkewedEnd_2',$,(#184,#187));
#189= IFCMATERIAL('STEEL/S235JR');
#190= IFCRELAGGREGATES('3ShlTeghT92R4IEMY33g6_',#5,$,$,#37,(#39));
#191= IFCRELAGGREGATES('2kz1lwyzlRKjMaWeqLLyOG',#5,$,$,#39,(#41));
#192= IFCRELAGGREGATES('1itmNNQJD858fxNsXkbm63',#5,$,$,#41,(#43));
#193= IFCRELCONTAINEDINSPATIALSTRUCTURE('3OLJiEKDfFh8azy27SsuMR',#5,$,$,(#67),#43);
#194= IFCRELDEFINESBYPROPERTIES('1zO8ML0sfCFQlFO8lwqbOI',#5,$,$,(#75),#81);
#195= IFCRELDEFINESBYPROPERTIES('2nJnmjIw94_ATRFzT7nFuM',#5,$,$,(#174,#145,#135),#139);
#196= IFCRELDEFINESBYPROPERTIES('2Q4RkQoiv6OOcGPln5hBn4',#5,$,$,(#67),#180);
#197= IFCRELDEFINESBYPROPERTIES('3M1l3OEzL3RPAp25b2Z1Rk',#5,$,$,(#67),#183);
#198= IFCRELDEFINESBYPROPERTIES('2G9J4dx7D488ruXz2Z97Hx',#5,$,$,(#67),#186);
#199= IFCRELDEFINESBYPROPERTIES('15GFtqyGrBFv$lD$jGL1w5',#5,$,$,(#67),#188);
#200= IFCRELASSOCIATESMATERIAL('0B3B540299zvNtXHbpk0xw',#5,$,$,(#67),#189);
ENDSEC;

END-ISO-10303-21;
