ISO-10303-21;
HEADER;
FILE_DESCRIPTION(('ViewDefinition[AISC_Steel_Detailing]', 'Option [BaseQuantities:Off]', 'Option [GridExport:On]', 'Option [Assemblies:Off]', 'Option [Bolts:On]', 'Option [Rebars:On]', 'Option [PourObjects:Off]', 'Option [Welds:On]', 'Option [SurfaceTreatments:On]', 'Option [LocationBy:0]', 'Option [ViewColors:Off]', 'Option [SectionedSpine:Off]', 'Option [PropertySets:On]', 'Option [Export all:Off]'),'2;1');
FILE_NAME('b_951_Qty_1.ifc','2026-05-16T11:53:20',('GIOVANNIPC\\gcorrea'),('Structural Designer'),'IFC Database version: Work','Tekla Structures 2020 Service Pack 5, IFC Export Version: 4.0.0.0 Dec  7 2020','');
FILE_SCHEMA(('IFC2X3'));
ENDSEC;

DATA;
#1= IFCPERSON('GIOVANNIPC\\gcorrea','Undefined',$,$,$,$,$,$);
#2= IFCORGANIZATION($,'Trimble Solutions Corporation',$,$,$);
#3= IFCPERSONANDORGANIZATION(#1,#2,$);
#4= IFCAPPLICATION(#2,'2020 Service Pack 5','Tekla Structures','Multi material modeling');
#5= IFCOWNERHISTORY(#3,#4,$,.NOCHANGE.,$,$,$,1778950400);
#6= IFCCARTESIANPOINT((0.,0.,0.));
#7= IFCDIRECTION((1.,0.,0.));
#8= IFCDIRECTION((0.,1.,0.));
#9= IFCDIRECTION((0.,0.,1.));
#10= IFCAXIS2PLACEMENT3D(#6,#9,#7);
#11= IFCGEOMETRICREPRESENTATIONCONTEXT($,'Model',3,1.E-05,#10,$);
#12= IFCGEOMETRICREPRESENTATIONSUBCONTEXT('Body','Model',*,*,*,*,#11,$,.MODEL_VIEW.,$);
#13= IFCGEOMETRICREPRESENTATIONSUBCONTEXT('Axis','Model',*,*,*,*,#11,$,.GRAPH_VIEW.,$);
#14= IFCGEOMETRICREPRESENTATIONSUBCONTEXT('FootPrint','Model',*,*,*,*,#11,$,.MODEL_VIEW.,$);
#15= IFCSIUNIT(*,.LENGTHUNIT.,.MILLI.,.METRE.);
#16= IFCMEASUREWITHUNIT(IFCRATIOMEASURE(304.8),#15);
#17= IFCDIMENSIONALEXPONENTS(1,0,0,0,0,0,0);
#18= IFCCONVERSIONBASEDUNIT(#17,.LENGTHUNIT.,'FOOT',#16);
#19= IFCSIUNIT(*,.AREAUNIT.,$,.SQUARE_METRE.);
#20= IFCMEASUREWITHUNIT(IFCRATIOMEASURE(0.09290304),#19);
#21= IFCDIMENSIONALEXPONENTS(2,0,0,0,0,0,0);
#22= IFCCONVERSIONBASEDUNIT(#21,.AREAUNIT.,'SQUARE FOOT',#20);
#23= IFCSIUNIT(*,.VOLUMEUNIT.,$,.CUBIC_METRE.);
#24= IFCMEASUREWITHUNIT(IFCRATIOMEASURE(0.028316846592),#23);
#25= IFCDIMENSIONALEXPONENTS(3,0,0,0,0,0,0);
#26= IFCCONVERSIONBASEDUNIT(#25,.VOLUMEUNIT.,'CUBIC FOOT',#24);
#27= IFCSIUNIT(*,.MASSUNIT.,.KILO.,.GRAM.);
#28= IFCSIUNIT(*,.TIMEUNIT.,$,.SECOND.);
#29= IFCSIUNIT(*,.PLANEANGLEUNIT.,$,.RADIAN.);
#30= IFCMEASUREWITHUNIT(IFCRATIOMEASURE(0.0174532925199433),#29);
#31= IFCDIMENSIONALEXPONENTS(0,0,0,0,0,0,0);
#32= IFCCONVERSIONBASEDUNIT(#31,.PLANEANGLEUNIT.,'DEGREE',#30);
#33= IFCSIUNIT(*,.SOLIDANGLEUNIT.,$,.STERADIAN.);
#34= IFCSIUNIT(*,.THERMODYNAMICTEMPERATUREUNIT.,$,.DEGREE_CELSIUS.);
#35= IFCSIUNIT(*,.LUMINOUSINTENSITYUNIT.,$,.LUMEN.);
#36= IFCUNITASSIGNMENT((#15,#19,#23,#27,#28,#29,#33,#34,#35));
#37= IFCPROJECT('2G7ZFDNE16yBDU14FA92Me',#5,'Proyecto',$,$,$,$,(#11),#36);
#38= IFCLOCALPLACEMENT($,#10);
#39= IFCSITE('2xvEzEinjBTea80yOTcujY',#5,'Obra',$,$,#38,$,$,.ELEMENT.,$,$,$,$,$);
#40= IFCLOCALPLACEMENT(#38,#10);
#41= IFCBUILDING('3XjtPlo0X9PvlpVlRDmLC5',#5,'Undefined',$,$,#40,$,$,.ELEMENT.,$,$,$);
#42= IFCLOCALPLACEMENT(#40,#10);
#43= IFCBUILDINGSTOREY('29hdEUCErFze9E_VIAceOd',#5,'Undefined',$,$,#42,$,$,.ELEMENT.,0.);
#44= IFCOWNERHISTORY(#3,#4,$,.NOCHANGE.,$,$,$,1774022400);
#45= IFCCARTESIANPOINT((76645.0002411728,1603.38122277425,19130.));
#46= IFCAXIS2PLACEMENT3D(#45,#9,#7);
#47= IFCLOCALPLACEMENT(#42,#46);
#48= IFCDIRECTION((1.,0.));
#49= IFCCARTESIANPOINT((0.,0.));
#50= IFCAXIS2PLACEMENT2D(#49,#48);
#51= IFCISHAPEPROFILEDEF(.AREA.,'HEA450',#50,300.,440.,11.5,21.,27.);
#52= IFCDIRECTION((0.,-1.,0.));
#53= IFCDIRECTION((-1.,0.,0.));
#54= IFCCARTESIANPOINT((8091.00704647971,2.27373675443232E-13,3.63797880709171E-12));
#55= IFCAXIS2PLACEMENT3D(#54,#53,#52);
#56= IFCEXTRUDEDAREASOLID(#51,#55,#9,8098.51);
#57= IFCCARTESIANPOINT((8091.00702859869,5.9000012697652E-07,-319.999999999996));
#58= IFCAXIS2PLACEMENT3D(#57,#53,#8);
#59= IFCPLANE(#58);
#60= IFCHALFSPACESOLID(#59,.T.);
#61= IFCBOOLEANCLIPPINGRESULT(.DIFFERENCE.,#56,#60);
#62= IFCCARTESIANPOINT((-7.50024117280554,-5.89999899602844E-07,-319.999999999996));
#63= IFCAXIS2PLACEMENT3D(#62,#7,#52);
#64= IFCPLANE(#63);
#65= IFCHALFSPACESOLID(#64,.T.);
#66= IFCBOOLEANCLIPPINGRESULT(.DIFFERENCE.,#61,#65);
#67= IFCSHAPEREPRESENTATION(#12,'Body','Clipping',(#66));
#68= IFCPRODUCTDEFINITIONSHAPE($,$,(#67));
#69= IFCBEAM('0dO_cGkp16RhDH3LijVzV6',#44,'BEAM','HEA450','HEA450',#47,#68,'ID2763e990-bb30-466e-b351-0d5b2d7fd7c6');
#70= IFCLOCALPLACEMENT(#42,#46);
#71= IFCRECTANGLEPROFILEDEF(.AREA.,'PL162.9*12',#50,12.,162.9);
#72= IFCDIRECTION((0.,0.,-1.));
#73= IFCCARTESIANPOINT((8097.0033896097,-69.5464246409299,221.000000000004));
#74= IFCAXIS2PLACEMENT3D(#73,#72,#53);
#75= IFCEXTRUDEDAREASOLID(#71,#74,#9,442.);
#76= IFCSHAPEREPRESENTATION(#12,'Body','SweptSolid',(#75));
#77= IFCPRODUCTDEFINITIONSHAPE($,$,(#76));
#78= IFCOPENINGELEMENT('27hHRPQZH2xf$LVcNVS0MQ',#5,$,$,'Recess',#70,#77,$);
#79= IFCRELVOIDSELEMENT('1FQ4KBhdf4UeYRCKkZSuEL',#5,$,$,#69,#78);
#80= IFCPROPERTYSINGLEVALUE('FeatureSubTypes',$,$,$);
#81= IFCPROPERTYSINGLEVALUE('RectangleOpeningWidth',$,IFCPOSITIVELENGTHMEASURE(12.),$);
#82= IFCPROPERTYSINGLEVALUE('RectangleOpeningHeight',$,IFCPOSITIVELENGTHMEASURE(162.9),$);
#83= IFCPROPERTYSINGLEVALUE('OpeningDiameter',$,$,$);
#84= IFCPROPERTYSET('0c7dkryHPFkBQ1OJ_9txFU',#5,'AISC_EM11_Pset_Opening/Cope',$,(#80,#81,#82,#83));
#85= IFCLOCALPLACEMENT(#42,#46);
#86= IFCRECTANGLEPROFILEDEF(.AREA.,'PL163.1*12',#50,12.,163.1);
#87= IFCCARTESIANPOINT((8097.00339781071,69.4538143390205,221.000000000004));
#88= IFCAXIS2PLACEMENT3D(#87,#72,#53);
#89= IFCEXTRUDEDAREASOLID(#86,#88,#9,442.);
#90= IFCSHAPEREPRESENTATION(#12,'Body','SweptSolid',(#89));
#91= IFCPRODUCTDEFINITIONSHAPE($,$,(#90));
#92= IFCOPENINGELEMENT('0LGLAy5d1CxvG0WB72fqPa',#5,$,$,'Recess',#85,#91,$);
#93= IFCRELVOIDSELEMENT('3XNj6hT9X6LutP6xQOV37X',#5,$,$,#69,#92);
#94= IFCPROPERTYSINGLEVALUE('RectangleOpeningHeight',$,IFCPOSITIVELENGTHMEASURE(163.1),$);
#95= IFCPROPERTYSET('0YF5bboJ17TukRJFe96KmO',#5,'AISC_EM11_Pset_Opening/Cope',$,(#80,#81,#94,#83));
#96= IFCCARTESIANPOINT((76637.5,1603.38122292174,19350.));
#97= IFCAXIS2PLACEMENT3D(#96,#7,#72);
#98= IFCLOCALPLACEMENT(#42,#97);
#99= IFCCIRCLEPROFILEDEF(.AREA.,$,#50,11.5);
#100= IFCCARTESIANPOINT((0.,-5.84999793499796,0.));
#101= IFCAXIS2PLACEMENT3D(#100,#8,#7);
#102= IFCEXTRUDEDAREASOLID(#99,#101,#9,11.7);
#103= IFCSHAPEREPRESENTATION(#12,'Body','SweptSolid',(#102));
#104= IFCREPRESENTATIONMAP(#10,#103);
#105= IFCCARTESIANPOINT((80.,0.,45.));
#106= IFCCARTESIANTRANSFORMATIONOPERATOR3D($,$,#105,$,$);
#107= IFCMAPPEDITEM(#104,#106);
#108= IFCCARTESIANPOINT((150.,0.,45.));
#109= IFCCARTESIANTRANSFORMATIONOPERATOR3D($,$,#108,$,$);
#110= IFCMAPPEDITEM(#104,#109);
#111= IFCCARTESIANPOINT((220.,0.,45.));
#112= IFCCARTESIANTRANSFORMATIONOPERATOR3D($,$,#111,$,$);
#113= IFCMAPPEDITEM(#104,#112);
#114= IFCCARTESIANPOINT((290.,0.,45.));
#115= IFCCARTESIANTRANSFORMATIONOPERATOR3D($,$,#114,$,$);
#116= IFCMAPPEDITEM(#104,#115);
#117= IFCCARTESIANPOINT((360.,0.,45.));
#118= IFCCARTESIANTRANSFORMATIONOPERATOR3D($,$,#117,$,$);
#119= IFCMAPPEDITEM(#104,#118);
#120= IFCSHAPEREPRESENTATION(#12,'Body','MappedRepresentation',(#107,#110,#113,#116,#119));
#121= IFCPRODUCTDEFINITIONSHAPE($,$,(#120));
#122= IFCOPENINGELEMENT('2MQQfJGEr7hOpxl0DUkdF0',#5,$,$,'Opening',#98,#121,$);
#123= IFCRELVOIDSELEMENT('3oyd34DVbE6gXwWDn_yp7i',#5,'Drill Hole',$,#69,#122);
#124= IFCPROPERTYSINGLEVALUE('FeatureSubTypes',$,IFCLABEL('TORNILLO'),$);
#125= IFCPROPERTYSINGLEVALUE('RectangleOpeningWidth',$,$,$);
#126= IFCPROPERTYSINGLEVALUE('RectangleOpeningHeight',$,$,$);
#127= IFCPROPERTYSET('0ON4vfYC5FngFFYzjqcA5I',#5,'AISC_EM11_Pset_Opening/Cope',$,(#124,#125,#126,#83));
#128= IFCCARTESIANPOINT((84736.0072697715,1603.38169955414,19350.));
#129= IFCAXIS2PLACEMENT3D(#128,#53,#72);
#130= IFCLOCALPLACEMENT(#42,#129);
#131= IFCSHAPEREPRESENTATION(#12,'Body','MappedRepresentation',(#107,#110,#113,#116,#119));
#132= IFCPRODUCTDEFINITIONSHAPE($,$,(#131));
#133= IFCOPENINGELEMENT('362DazzDfFxRBMF4WaFIvH',#5,$,$,'Opening',#130,#132,$);
#134= IFCRELVOIDSELEMENT('1d1TUXZJLEWvnKkuTGqkcU',#5,'Drill Hole',$,#69,#133);
#135= IFCCARTESIANPOINT((84691.0126164472,1603.95549542545,18910.));
#136= IFCDIRECTION((-7.12890000286279E-05,0.999999997458939,0.));
#137= IFCDIRECTION((-0.999999997458939,-7.12890000326365E-05,0.));
#138= IFCAXIS2PLACEMENT3D(#135,#136,#137);
#139= IFCLOCALPLACEMENT(#42,#138);
#140= IFCCARTESIANPOINT((0.,-0.1,0.));
#141= IFCAXIS2PLACEMENT3D(#140,#8,#7);
#142= IFCEXTRUDEDAREASOLID(#99,#141,#9,21.2);
#143= IFCSHAPEREPRESENTATION(#12,'Body','SweptSolid',(#142));
#144= IFCREPRESENTATIONMAP(#10,#143);
#145= IFCCARTESIANPOINT((2.47382558882236E-10,0.,74.9999999999898));
#146= IFCCARTESIANTRANSFORMATIONOPERATOR3D($,$,#145,$,$);
#147= IFCMAPPEDITEM(#144,#146);
#148= IFCCARTESIANPOINT((74.9999999994179,0.,75.0000000004673));
#149= IFCCARTESIANTRANSFORMATIONOPERATOR3D($,$,#148,$,$);
#150= IFCMAPPEDITEM(#144,#149);
#151= IFCCARTESIANPOINT((149.999999998588,0.,75.000000000945));
#152= IFCCARTESIANTRANSFORMATIONOPERATOR3D($,$,#151,$,$);
#153= IFCMAPPEDITEM(#144,#152);
#154= IFCCARTESIANPOINT((224.999999997759,0.,75.0000000014224));
#155= IFCCARTESIANTRANSFORMATIONOPERATOR3D($,$,#154,$,$);
#156= IFCMAPPEDITEM(#144,#155);
#157= IFCCARTESIANPOINT((299.99999999693,0.,75.0000000018997));
#158= IFCCARTESIANTRANSFORMATIONOPERATOR3D($,$,#157,$,$);
#159= IFCMAPPEDITEM(#144,#158);
#160= IFCCARTESIANPOINT((374.9999999961,0.,75.0000000023772));
#161= IFCCARTESIANTRANSFORMATIONOPERATOR3D($,$,#160,$,$);
#162= IFCMAPPEDITEM(#144,#161);
#163= IFCCARTESIANPOINT((449.999999995271,0.,75.0000000028547));
#164= IFCCARTESIANTRANSFORMATIONOPERATOR3D($,$,#163,$,$);
#165= IFCMAPPEDITEM(#144,#164);
#166= IFCCARTESIANPOINT((524.999999994441,0.,75.0000000033322));
#167= IFCCARTESIANTRANSFORMATIONOPERATOR3D($,$,#166,$,$);
#168= IFCMAPPEDITEM(#144,#167);
#169= IFCCARTESIANPOINT((599.999999993612,0.,75.0000000038094));
#170= IFCCARTESIANTRANSFORMATIONOPERATOR3D($,$,#169,$,$);
#171= IFCMAPPEDITEM(#144,#170);
#172= IFCCARTESIANPOINT((674.999999992782,0.,75.0000000042869));
#173= IFCCARTESIANTRANSFORMATIONOPERATOR3D($,$,#172,$,$);
#174= IFCMAPPEDITEM(#144,#173);
#175= IFCCARTESIANPOINT((-2.3283064365387E-10,0.,-74.99999999999));
#176= IFCCARTESIANTRANSFORMATIONOPERATOR3D($,$,#175,$,$);
#177= IFCMAPPEDITEM(#144,#176);
#178= IFCCARTESIANPOINT((74.9999999989377,0.,-74.9999999995125));
#179= IFCCARTESIANTRANSFORMATIONOPERATOR3D($,$,#178,$,$);
#180= IFCMAPPEDITEM(#144,#179);
#181= IFCCARTESIANPOINT((149.999999998108,0.,-74.999999999035));
#182= IFCCARTESIANTRANSFORMATIONOPERATOR3D($,$,#181,$,$);
#183= IFCMAPPEDITEM(#144,#182);
#184= IFCCARTESIANPOINT((224.999999997279,0.,-74.9999999985575));
#185= IFCCARTESIANTRANSFORMATIONOPERATOR3D($,$,#184,$,$);
#186= IFCMAPPEDITEM(#144,#185);
#187= IFCCARTESIANPOINT((299.999999996449,0.,-74.9999999980803));
#188= IFCCARTESIANTRANSFORMATIONOPERATOR3D($,$,#187,$,$);
#189= IFCMAPPEDITEM(#144,#188);
#190= IFCCARTESIANPOINT((374.99999999562,0.,-74.9999999976026));
#191= IFCCARTESIANTRANSFORMATIONOPERATOR3D($,$,#190,$,$);
#192= IFCMAPPEDITEM(#144,#191);
#193= IFCCARTESIANPOINT((449.99999999479,0.,-74.9999999971251));
#194= IFCCARTESIANTRANSFORMATIONOPERATOR3D($,$,#193,$,$);
#195= IFCMAPPEDITEM(#144,#194);
#196= IFCCARTESIANPOINT((524.999999993961,0.,-74.9999999966476));
#197= IFCCARTESIANTRANSFORMATIONOPERATOR3D($,$,#196,$,$);
#198= IFCMAPPEDITEM(#144,#197);
#199= IFCCARTESIANPOINT((599.999999993131,0.,-74.9999999961703));
#200= IFCCARTESIANTRANSFORMATIONOPERATOR3D($,$,#199,$,$);
#201= IFCMAPPEDITEM(#144,#200);
#202= IFCCARTESIANPOINT((674.999999992302,0.,-74.9999999956929));
#203= IFCCARTESIANTRANSFORMATIONOPERATOR3D($,$,#202,$,$);
#204= IFCMAPPEDITEM(#144,#203);
#205= IFCSHAPEREPRESENTATION(#12,'Body','MappedRepresentation',(#147,#150,#153,#156,#159,#162,#165,#168,#171,#174,#177,#180,#183,#186,#189,#192,#195,#198,#201,#204));
#206= IFCPRODUCTDEFINITIONSHAPE($,$,(#205));
#207= IFCOPENINGELEMENT('0zDEgV6Hz6iPoRJE_mrnXm',#5,$,$,'Opening',#139,#206,$);
#208= IFCRELVOIDSELEMENT('0EtaDvTOLCtPtTlbFxzh9s',#5,'Drill Hole',$,#69,#207);
#209= IFCCARTESIANPOINT((84691.0126164472,1603.95549542545,19350.));
#210= IFCDIRECTION((7.12890000286279E-05,-0.999999997458939,0.));
#211= IFCAXIS2PLACEMENT3D(#209,#210,#137);
#212= IFCLOCALPLACEMENT(#42,#211);
#213= IFCSHAPEREPRESENTATION(#12,'Body','MappedRepresentation',(#177,#180,#183,#186,#189,#192,#195,#198,#201,#204,#147,#150,#153,#156,#159,#162,#165,#168,#171,#174));
#214= IFCPRODUCTDEFINITIONSHAPE($,$,(#213));
#215= IFCOPENINGELEMENT('1oXuHWoBD2Tvg5bNPxcZ4H',#5,$,$,'Opening',#212,#214,$);
#216= IFCRELVOIDSELEMENT('1bg1dLoEfC9QVNp63m74OK',#5,'Drill Hole',$,#69,#215);
#217= IFCCARTESIANPOINT((76679.9997253418,1603.38122277425,18910.));
#218= IFCAXIS2PLACEMENT3D(#217,#52,#7);
#219= IFCLOCALPLACEMENT(#42,#218);
#220= IFCCIRCLEPROFILEDEF(.AREA.,$,#50,12.5);
#221= IFCEXTRUDEDAREASOLID(#220,#141,#9,21.2);
#222= IFCSHAPEREPRESENTATION(#12,'Body','SweptSolid',(#221));
#223= IFCREPRESENTATIONMAP(#10,#222);
#224= IFCMAPPEDITEM(#223,#176);
#225= IFCMAPPEDITEM(#223,#179);
#226= IFCMAPPEDITEM(#223,#182);
#227= IFCMAPPEDITEM(#223,#185);
#228= IFCMAPPEDITEM(#223,#188);
#229= IFCMAPPEDITEM(#223,#191);
#230= IFCMAPPEDITEM(#223,#194);
#231= IFCMAPPEDITEM(#223,#197);
#232= IFCMAPPEDITEM(#223,#200);
#233= IFCMAPPEDITEM(#223,#203);
#234= IFCMAPPEDITEM(#223,#146);
#235= IFCMAPPEDITEM(#223,#149);
#236= IFCMAPPEDITEM(#223,#152);
#237= IFCMAPPEDITEM(#223,#155);
#238= IFCMAPPEDITEM(#223,#158);
#239= IFCMAPPEDITEM(#223,#161);
#240= IFCMAPPEDITEM(#223,#164);
#241= IFCMAPPEDITEM(#223,#167);
#242= IFCMAPPEDITEM(#223,#170);
#243= IFCMAPPEDITEM(#223,#173);
#244= IFCSHAPEREPRESENTATION(#12,'Body','MappedRepresentation',(#224,#225,#226,#227,#228,#229,#230,#231,#232,#233,#234,#235,#236,#237,#238,#239,#240,#241,#242,#243));
#245= IFCPRODUCTDEFINITIONSHAPE($,$,(#244));
#246= IFCOPENINGELEMENT('3AUX8yi711XQaY3RrAztqg',#5,$,$,'Opening',#219,#245,$);
#247= IFCRELVOIDSELEMENT('0DbybOQFv27xQLuK3J6$ac',#5,'Drill Hole',$,#69,#246);
#248= IFCCARTESIANPOINT((76635.,1603.38122277424,19350.));
#249= IFCAXIS2PLACEMENT3D(#248,#7,#72);
#250= IFCLOCALPLACEMENT(#42,#249);
#251= IFCSHAPEREPRESENTATION(#12,'Body','MappedRepresentation',(#107,#110,#113,#116,#119));
#252= IFCPRODUCTDEFINITIONSHAPE($,$,(#251));
#253= IFCOPENINGELEMENT('3Swg1TgPb6lPkunW_QCi$K',#5,$,$,'Opening',#250,#252,$);
#254= IFCRELVOIDSELEMENT('1hYBunw0XC6RWxAgcmVX4O',#5,'Drill Hole',$,#69,#253);
#255= IFCCARTESIANPOINT((76679.9997253418,1603.38122277425,19350.));
#256= IFCAXIS2PLACEMENT3D(#255,#8,#7);
#257= IFCLOCALPLACEMENT(#42,#256);
#258= IFCSHAPEREPRESENTATION(#12,'Body','MappedRepresentation',(#224,#225,#226,#227,#228,#229,#230,#231,#232,#233,#234,#235,#236,#237,#238,#239,#240,#241,#242,#243));
#259= IFCPRODUCTDEFINITIONSHAPE($,$,(#258));
#260= IFCOPENINGELEMENT('021ZFqdff0y9cGUbEqYfc2',#5,$,$,'Opening',#257,#259,$);
#261= IFCRELVOIDSELEMENT('2p5q0ZYjL7TuCs55zoXWJA',#5,'Drill Hole',$,#69,#260);
#262= IFCPROPERTYSINGLEVALUE('PieceMark',$,IFCIDENTIFIER('BEAM'),$);
#263= IFCPROPERTYSINGLEVALUE('IndicationMark',$,IFCIDENTIFIER('b/951'),$);
#264= IFCPROPERTYSINGLEVALUE('PrelimMark',$,IFCIDENTIFIER(''),$);
#265= IFCPROPERTYSINGLEVALUE('MainPieceTag',$,IFCBOOLEAN(.F.),$);
#266= IFCPROPERTYSET('2waVDmYaH5Se0NiQ0v7_4j',#5,'AISC_EM11_Pset_PieceIdentification','PieceIdentity',(#262,#263,#264,#265));
#267= IFCPROPERTYSINGLEVALUE('MaterialType',$,IFCIDENTIFIER('STEEL'),$);
#268= IFCPROPERTYSINGLEVALUE('MaterialGrade',$,IFCIDENTIFIER('S235JR'),$);
#269= IFCPROPERTYSET('14bWO6qyf34wXdDSOomt2w',#5,'AISC_EM11_Pset_Material',$,(#267,#268));
#270= IFCPROPERTYSINGLEVALUE('SkewedAngleY',$,IFCREAL(0.),$);
#271= IFCPROPERTYSINGLEVALUE('SkewedAngleX',$,IFCREAL(0.),$);
#272= IFCPROPERTYSET('1hIX$JJAnBkfQLwUiH_guG',#5,'AISC_EM11_Pset_SkewedEnd',$,(#270,#271));
#273= IFCPROPERTYSET('09NEXcvrbCth7jbX4CUQCh',#5,'AISC_EM11_Pset_SkewedEnd_2',$,(#270,#271));
#274= IFCMATERIAL('STEEL/S235JR');
#275= IFCRELAGGREGATES('1KxBYaDWzDLOXgh2keFBZV',#5,$,$,#37,(#39));
#276= IFCRELAGGREGATES('2cDTqsVoFVdgpyzK0wXTrn',#5,$,$,#39,(#41));
#277= IFCRELAGGREGATES('2kTn$lffXAgOUiV5$50Zty',#5,$,$,#41,(#43));
#278= IFCRELCONTAINEDINSPATIALSTRUCTURE('0BF9Wg1NzDThSP_kdby5bn',#5,$,$,(#69),#43);
#279= IFCRELDEFINESBYPROPERTIES('2rpa4XvJ55kvMwIrJayuso',#5,$,$,(#78),#84);
#280= IFCRELDEFINESBYPROPERTIES('0Bp72RwZP4le1kJP0QHkmL',#5,$,$,(#92),#95);
#281= IFCRELDEFINESBYPROPERTIES('20eTxOKmTC8BArzAhKZnnW',#5,$,$,(#260,#253,#246,#215,#207,#133,#122),#127);
#282= IFCRELDEFINESBYPROPERTIES('3ubzpQMNnCgx4tTbrMj8Y8',#5,$,$,(#69),#266);
#283= IFCRELDEFINESBYPROPERTIES('3ZQ5ynHX9CkewdwphI58oz',#5,$,$,(#69),#269);
#284= IFCRELDEFINESBYPROPERTIES('0BGRBURqLFKuHr_c2rKqDI',#5,$,$,(#69),#272);
#285= IFCRELDEFINESBYPROPERTIES('2aKCG$9SH99AOWuLYPpel8',#5,$,$,(#69),#273);
#286= IFCRELASSOCIATESMATERIAL('1OBOZ0005AGxL9tq2sA_v9',#5,$,$,(#69),#274);
ENDSEC;

END-ISO-10303-21;
