ISO-10303-21;
HEADER;
FILE_DESCRIPTION(('ViewDefinition[AISC_Steel_Detailing]', 'Option [BaseQuantities:Off]', 'Option [GridExport:On]', 'Option [Assemblies:Off]', 'Option [Bolts:On]', 'Option [Rebars:On]', 'Option [PourObjects:Off]', 'Option [Welds:On]', 'Option [SurfaceTreatments:On]', 'Option [LocationBy:0]', 'Option [ViewColors:Off]', 'Option [SectionedSpine:Off]', 'Option [PropertySets:On]', 'Option [Export all:Off]'),'2;1');
FILE_NAME('b_958_Qty_1.ifc','2026-05-16T11:53:11',('GIOVANNIPC\\gcorrea'),('Structural Designer'),'IFC Database version: Work','Tekla Structures 2020 Service Pack 5, IFC Export Version: 4.0.0.0 Dec  7 2020','');
FILE_SCHEMA(('IFC2X3'));
ENDSEC;

DATA;
#1= IFCPERSON('GIOVANNIPC\\gcorrea','Undefined',$,$,$,$,$,$);
#2= IFCORGANIZATION($,'Trimble Solutions Corporation',$,$,$);
#3= IFCPERSONANDORGANIZATION(#1,#2,$);
#4= IFCAPPLICATION(#2,'2020 Service Pack 5','Tekla Structures','Multi material modeling');
#5= IFCOWNERHISTORY(#3,#4,$,.NOCHANGE.,$,$,$,1778950391);
#6= IFCCARTESIANPOINT((0.,0.,0.));
#7= IFCDIRECTION((1.,0.,0.));
#8= IFCDIRECTION((0.,1.,0.));
#9= IFCDIRECTION((0.,0.,1.));
#10= IFCAXIS2PLACEMENT3D(#6,#9,#7);
#11= IFCGEOMETRICREPRESENTATIONCONTEXT($,'Model',3,1.E-05,#10,$);
#12= IFCGEOMETRICREPRESENTATIONSUBCONTEXT('Body','Model',*,*,*,*,#11,$,.MODEL_VIEW.,$);
#13= IFCGEOMETRICREPRESENTATIONSUBCONTEXT('Axis','Model',*,*,*,*,#11,$,.GRAPH_VIEW.,$);
#14= IFCGEOMETRICREPRESENTATIONSUBCONTEXT('FootPrint','Model',*,*,*,*,#11,$,.MODEL_VIEW.,$);
#15= IFCSIUNIT(*,.LENGTHUNIT.,.MILLI.,.METRE.);
#16= IFCMEASUREWITHUNIT(IFCRATIOMEASURE(304.8),#15);
#17= IFCDIMENSIONALEXPONENTS(1,0,0,0,0,0,0);
#18= IFCCONVERSIONBASEDUNIT(#17,.LENGTHUNIT.,'FOOT',#16);
#19= IFCSIUNIT(*,.AREAUNIT.,$,.SQUARE_METRE.);
#20= IFCMEASUREWITHUNIT(IFCRATIOMEASURE(0.09290304),#19);
#21= IFCDIMENSIONALEXPONENTS(2,0,0,0,0,0,0);
#22= IFCCONVERSIONBASEDUNIT(#21,.AREAUNIT.,'SQUARE FOOT',#20);
#23= IFCSIUNIT(*,.VOLUMEUNIT.,$,.CUBIC_METRE.);
#24= IFCMEASUREWITHUNIT(IFCRATIOMEASURE(0.028316846592),#23);
#25= IFCDIMENSIONALEXPONENTS(3,0,0,0,0,0,0);
#26= IFCCONVERSIONBASEDUNIT(#25,.VOLUMEUNIT.,'CUBIC FOOT',#24);
#27= IFCSIUNIT(*,.MASSUNIT.,.KILO.,.GRAM.);
#28= IFCSIUNIT(*,.TIMEUNIT.,$,.SECOND.);
#29= IFCSIUNIT(*,.PLANEANGLEUNIT.,$,.RADIAN.);
#30= IFCMEASUREWITHUNIT(IFCRATIOMEASURE(0.0174532925199433),#29);
#31= IFCDIMENSIONALEXPONENTS(0,0,0,0,0,0,0);
#32= IFCCONVERSIONBASEDUNIT(#31,.PLANEANGLEUNIT.,'DEGREE',#30);
#33= IFCSIUNIT(*,.SOLIDANGLEUNIT.,$,.STERADIAN.);
#34= IFCSIUNIT(*,.THERMODYNAMICTEMPERATUREUNIT.,$,.DEGREE_CELSIUS.);
#35= IFCSIUNIT(*,.LUMINOUSINTENSITYUNIT.,$,.LUMEN.);
#36= IFCUNITASSIGNMENT((#15,#19,#23,#27,#28,#29,#33,#34,#35));
#37= IFCPROJECT('2G7ZFDNE16yBDU14FA92Me',#5,'Proyecto',$,$,$,$,(#11),#36);
#38= IFCLOCALPLACEMENT($,#10);
#39= IFCSITE('2xvEzEinjBTea80yOTcujY',#5,'Obra',$,$,#38,$,$,.ELEMENT.,$,$,$,$,$);
#40= IFCLOCALPLACEMENT(#38,#10);
#41= IFCBUILDING('2ey9w3aYXEIu7me_T9zSb0',#5,'Undefined',$,$,#40,$,$,.ELEMENT.,$,$,$);
#42= IFCLOCALPLACEMENT(#40,#10);
#43= IFCBUILDINGSTOREY('29hdEUCErFze9E_VIAceOd',#5,'Undefined',$,$,#42,$,$,.ELEMENT.,0.);
#44= IFCOWNERHISTORY(#3,#4,$,.NOCHANGE.,$,$,$,1773349200);
#45= IFCCARTESIANPOINT((94453.5405854111,17542.9220858114,19125.));
#46= IFCAXIS2PLACEMENT3D(#45,#9,#8);
#47= IFCLOCALPLACEMENT(#42,#46);
#48= IFCDIRECTION((1.,0.));
#49= IFCCARTESIANPOINT((0.,0.));
#50= IFCAXIS2PLACEMENT2D(#49,#48);
#51= IFCISHAPEPROFILEDEF(.AREA.,'IPE450',#50,190.,450.,9.399999619,14.60000038,21.);
#52= IFCDIRECTION((0.,-1.,0.));
#53= IFCDIRECTION((-1.,0.,0.));
#54= IFCCARTESIANPOINT((6246.40083312988,0.,0.));
#55= IFCAXIS2PLACEMENT3D(#54,#53,#52);
#56= IFCEXTRUDEDAREASOLID(#51,#55,#9,6246.4);
#57= IFCSHAPEREPRESENTATION(#12,'Body','SweptSolid',(#56));
#58= IFCPRODUCTDEFINITIONSHAPE($,$,(#57));
#59= IFCBEAM('1rNszt_k50tQeT1nV6dlt5',#44,'BEAM','IPE450','IPE450',#47,#58,'ID755f6f77-fae1-40dd-aa1d-0717c69efdc5');
#60= IFCCARTESIANPOINT((94453.5411620254,23752.0143033452,18900.));
#61= IFCDIRECTION((-0.999999999999363,1.12900000749505E-06,0.));
#62= IFCDIRECTION((-1.12900000859709E-06,-0.999999999999363,0.));
#63= IFCAXIS2PLACEMENT3D(#60,#61,#62);
#64= IFCLOCALPLACEMENT(#42,#63);
#65= IFCCIRCLEPROFILEDEF(.AREA.,$,#50,11.);
#66= IFCCARTESIANPOINT((0.,-0.0999999999999929,0.));
#67= IFCAXIS2PLACEMENT3D(#66,#8,#7);
#68= IFCEXTRUDEDAREASOLID(#65,#67,#9,14.8);
#69= IFCSHAPEREPRESENTATION(#12,'Body','SweptSolid',(#68));
#70= IFCREPRESENTATIONMAP(#10,#69);
#71= IFCCARTESIANPOINT((0.,0.,-50.0000000000728));
#72= IFCCARTESIANTRANSFORMATIONOPERATOR3D($,$,#71,$,$);
#73= IFCMAPPEDITEM(#70,#72);
#74= IFCCARTESIANPOINT((70.0000000000873,0.,-50.0000000003201));
#75= IFCCARTESIANTRANSFORMATIONOPERATOR3D($,$,#74,$,$);
#76= IFCMAPPEDITEM(#70,#75);
#77= IFCCARTESIANPOINT((140.000000000178,0.,-50.0000000005821));
#78= IFCCARTESIANTRANSFORMATIONOPERATOR3D($,$,#77,$,$);
#79= IFCMAPPEDITEM(#70,#78);
#80= IFCCARTESIANPOINT((210.000000000269,0.,-50.0000000008295));
#81= IFCCARTESIANTRANSFORMATIONOPERATOR3D($,$,#80,$,$);
#82= IFCMAPPEDITEM(#70,#81);
#83= IFCCARTESIANPOINT((280.000000000357,0.,-50.0000000010914));
#84= IFCCARTESIANTRANSFORMATIONOPERATOR3D($,$,#83,$,$);
#85= IFCMAPPEDITEM(#70,#84);
#86= IFCCARTESIANPOINT((350.000000000447,0.,-50.0000000013388));
#87= IFCCARTESIANTRANSFORMATIONOPERATOR3D($,$,#86,$,$);
#88= IFCMAPPEDITEM(#70,#87);
#89= IFCCARTESIANPOINT((420.000000000535,0.,-50.0000000016007));
#90= IFCCARTESIANTRANSFORMATIONOPERATOR3D($,$,#89,$,$);
#91= IFCMAPPEDITEM(#70,#90);
#92= IFCCARTESIANPOINT((0.,0.,50.0000000000582));
#93= IFCCARTESIANTRANSFORMATIONOPERATOR3D($,$,#92,$,$);
#94= IFCMAPPEDITEM(#70,#93);
#95= IFCCARTESIANPOINT((70.0000000000873,0.,49.9999999998108));
#96= IFCCARTESIANTRANSFORMATIONOPERATOR3D($,$,#95,$,$);
#97= IFCMAPPEDITEM(#70,#96);
#98= IFCCARTESIANPOINT((140.000000000178,0.,49.9999999995489));
#99= IFCCARTESIANTRANSFORMATIONOPERATOR3D($,$,#98,$,$);
#100= IFCMAPPEDITEM(#70,#99);
#101= IFCCARTESIANPOINT((210.000000000269,0.,49.9999999993015));
#102= IFCCARTESIANTRANSFORMATIONOPERATOR3D($,$,#101,$,$);
#103= IFCMAPPEDITEM(#70,#102);
#104= IFCCARTESIANPOINT((280.000000000357,0.,49.9999999990396));
#105= IFCCARTESIANTRANSFORMATIONOPERATOR3D($,$,#104,$,$);
#106= IFCMAPPEDITEM(#70,#105);
#107= IFCCARTESIANPOINT((350.000000000447,0.,49.9999999987922));
#108= IFCCARTESIANTRANSFORMATIONOPERATOR3D($,$,#107,$,$);
#109= IFCMAPPEDITEM(#70,#108);
#110= IFCCARTESIANPOINT((420.000000000535,0.,49.9999999985303));
#111= IFCCARTESIANTRANSFORMATIONOPERATOR3D($,$,#110,$,$);
#112= IFCMAPPEDITEM(#70,#111);
#113= IFCSHAPEREPRESENTATION(#12,'Body','MappedRepresentation',(#73,#76,#79,#82,#85,#88,#91,#94,#97,#100,#103,#106,#109,#112));
#114= IFCPRODUCTDEFINITIONSHAPE($,$,(#113));
#115= IFCOPENINGELEMENT('3e2FJDry10cB7j723JKMp1',#5,$,$,'Opening',#64,#114,$);
#116= IFCRELVOIDSELEMENT('3z4axRPpH8nPfOacN2lkPi',#5,'Drill Hole',$,#59,#115);
#117= IFCPROPERTYSINGLEVALUE('FeatureSubTypes',$,IFCLABEL('TORNILLO'),$);
#118= IFCPROPERTYSINGLEVALUE('RectangleOpeningWidth',$,$,$);
#119= IFCPROPERTYSINGLEVALUE('RectangleOpeningHeight',$,$,$);
#120= IFCPROPERTYSINGLEVALUE('OpeningDiameter',$,$,$);
#121= IFCPROPERTYSET('0$4l7sqmP3KfteDqZMp9Kh',#5,'AISC_EM11_Pset_Opening/Cope',$,(#117,#118,#119,#120));
#122= IFCCARTESIANPOINT((94453.5411620254,23752.0143033452,19350.));
#123= IFCDIRECTION((0.999999999999363,-1.12900000749505E-06,0.));
#124= IFCAXIS2PLACEMENT3D(#122,#123,#62);
#125= IFCLOCALPLACEMENT(#42,#124);
#126= IFCSHAPEREPRESENTATION(#12,'Body','MappedRepresentation',(#94,#97,#100,#103,#106,#109,#112,#73,#76,#79,#82,#85,#88,#91));
#127= IFCPRODUCTDEFINITIONSHAPE($,$,(#126));
#128= IFCOPENINGELEMENT('1eVz6EQknBMv6MrQN_VavI',#5,$,$,'Opening',#125,#127,$);
#129= IFCRELVOIDSELEMENT('2d2eZxVdb5mg7q6KvMrVCi',#5,'Drill Hole',$,#59,#128);
#130= IFCCARTESIANPOINT((94452.8126537709,17580.2106461574,18900.));
#131= IFCDIRECTION((0.999999999339957,3.63330000254792E-05,0.));
#132= IFCDIRECTION((-3.63330000247233E-05,0.999999999339957,0.));
#133= IFCAXIS2PLACEMENT3D(#130,#131,#132);
#134= IFCLOCALPLACEMENT(#42,#133);
#135= IFCSHAPEREPRESENTATION(#12,'Body','MappedRepresentation',(#94,#97,#100,#103,#106,#109,#112,#73,#76,#79,#82,#85,#88,#91));
#136= IFCPRODUCTDEFINITIONSHAPE($,$,(#135));
#137= IFCOPENINGELEMENT('1SuEZ8EJD7HR847IBe$92d',#5,$,$,'Opening',#134,#136,$);
#138= IFCRELVOIDSELEMENT('0ze3Gn9YTA$gPfpqskJWSW',#5,'Drill Hole',$,#59,#137);
#139= IFCCARTESIANPOINT((94452.8126537709,17580.2106461574,19350.));
#140= IFCDIRECTION((-0.999999999339957,-3.63330000254792E-05,0.));
#141= IFCAXIS2PLACEMENT3D(#139,#140,#132);
#142= IFCLOCALPLACEMENT(#42,#141);
#143= IFCSHAPEREPRESENTATION(#12,'Body','MappedRepresentation',(#73,#76,#79,#82,#85,#88,#91,#94,#97,#100,#103,#106,#109,#112));
#144= IFCPRODUCTDEFINITIONSHAPE($,$,(#143));
#145= IFCOPENINGELEMENT('0OKZLqjdvDux3swGFBIBFV',#5,$,$,'Opening',#142,#144,$);
#146= IFCRELVOIDSELEMENT('2wNVfYDSn6pRzT_IpaMrcY',#5,'Drill Hole',$,#59,#145);
#147= IFCPROPERTYSINGLEVALUE('PieceMark',$,IFCIDENTIFIER('BEAM'),$);
#148= IFCPROPERTYSINGLEVALUE('IndicationMark',$,IFCIDENTIFIER('b/958'),$);
#149= IFCPROPERTYSINGLEVALUE('PrelimMark',$,IFCIDENTIFIER(''),$);
#150= IFCPROPERTYSINGLEVALUE('MainPieceTag',$,IFCBOOLEAN(.T.),$);
#151= IFCPROPERTYSET('1nNOv7Q7P8SB_OANHgLXuE',#5,'AISC_EM11_Pset_PieceIdentification','PieceIdentity',(#147,#148,#149,#150));
#152= IFCPROPERTYSINGLEVALUE('MaterialType',$,IFCIDENTIFIER('STEEL'),$);
#153= IFCPROPERTYSINGLEVALUE('MaterialGrade',$,IFCIDENTIFIER('S235JR'),$);
#154= IFCPROPERTYSET('2stVVHqvHCBAMjZXSn4nV0',#5,'AISC_EM11_Pset_Material',$,(#152,#153));
#155= IFCPROPERTYSINGLEVALUE('SkewedAngleY',$,IFCREAL(0.),$);
#156= IFCPROPERTYSINGLEVALUE('SkewedAngleX',$,IFCREAL(0.),$);
#157= IFCPROPERTYSET('3bibydpdfEsuP17b$n35ih',#5,'AISC_EM11_Pset_SkewedEnd',$,(#155,#156));
#158= IFCPROPERTYSET('3ldWlySe92zxlbUXDPwX1o',#5,'AISC_EM11_Pset_SkewedEnd_2',$,(#155,#156));
#159= IFCMATERIAL('STEEL/S235JR');
#160= IFCRELAGGREGATES('3$vN_uJkzAdhLdRYbISKhR',#5,$,$,#37,(#39));
#161= IFCRELAGGREGATES('2HBfGAb0FSvzdvjqtakczj',#5,$,$,#39,(#41));
#162= IFCRELAGGREGATES('3QYC9IhW56dRlUJ$pys1J2',#5,$,$,#41,(#43));
#163= IFCRELCONTAINEDINSPATIALSTRUCTURE('0OqmqmJmj01gOPwmw9z_bm',#5,$,$,(#59),#43);
#164= IFCRELDEFINESBYPROPERTIES('0Nm1tRWvH3desr34wU0ySu',#5,$,$,(#145,#137,#128,#115),#121);
#165= IFCRELDEFINESBYPROPERTIES('0VQ6JzoUj0LhT$3s1d6qeO',#5,$,$,(#59),#151);
#166= IFCRELDEFINESBYPROPERTIES('35eiPWNbHEQQxUKfAHX6oP',#5,$,$,(#59),#154);
#167= IFCRELDEFINESBYPROPERTIES('2hWGYHfmHDu9poT3Jzfmh3',#5,$,$,(#59),#157);
#168= IFCRELDEFINESBYPROPERTIES('12NEO_yjDAmOmBEXohD3bh',#5,$,$,(#59),#158);
#169= IFCRELASSOCIATESMATERIAL('17SV51v5T7Xx7BjGGIxQk4',#5,$,$,(#59),#159);
ENDSEC;

END-ISO-10303-21;
