ISO-10303-21;
HEADER;
FILE_DESCRIPTION(('ViewDefinition[AISC_Steel_Detailing]', 'Option [BaseQuantities:Off]', 'Option [GridExport:On]', 'Option [Assemblies:Off]', 'Option [Bolts:On]', 'Option [Rebars:On]', 'Option [PourObjects:Off]', 'Option [Welds:On]', 'Option [SurfaceTreatments:On]', 'Option [LocationBy:0]', 'Option [ViewColors:Off]', 'Option [SectionedSpine:Off]', 'Option [PropertySets:On]', 'Option [Export all:Off]'),'2;1');
FILE_NAME('b_956_Qty_1.ifc','2026-05-16T11:53:10',('GIOVANNIPC\\gcorrea'),('Structural Designer'),'IFC Database version: Work','Tekla Structures 2020 Service Pack 5, IFC Export Version: 4.0.0.0 Dec  7 2020','');
FILE_SCHEMA(('IFC2X3'));
ENDSEC;

DATA;
#1= IFCPERSON('GIOVANNIPC\\gcorrea','Undefined',$,$,$,$,$,$);
#2= IFCORGANIZATION($,'Trimble Solutions Corporation',$,$,$);
#3= IFCPERSONANDORGANIZATION(#1,#2,$);
#4= IFCAPPLICATION(#2,'2020 Service Pack 5','Tekla Structures','Multi material modeling');
#5= IFCOWNERHISTORY(#3,#4,$,.NOCHANGE.,$,$,$,1778950390);
#6= IFCCARTESIANPOINT((0.,0.,0.));
#7= IFCDIRECTION((1.,0.,0.));
#8= IFCDIRECTION((0.,1.,0.));
#9= IFCDIRECTION((0.,0.,1.));
#10= IFCAXIS2PLACEMENT3D(#6,#9,#7);
#11= IFCGEOMETRICREPRESENTATIONCONTEXT($,'Model',3,1.E-05,#10,$);
#12= IFCGEOMETRICREPRESENTATIONSUBCONTEXT('Body','Model',*,*,*,*,#11,$,.MODEL_VIEW.,$);
#13= IFCGEOMETRICREPRESENTATIONSUBCONTEXT('Axis','Model',*,*,*,*,#11,$,.GRAPH_VIEW.,$);
#14= IFCGEOMETRICREPRESENTATIONSUBCONTEXT('FootPrint','Model',*,*,*,*,#11,$,.MODEL_VIEW.,$);
#15= IFCSIUNIT(*,.LENGTHUNIT.,.MILLI.,.METRE.);
#16= IFCMEASUREWITHUNIT(IFCRATIOMEASURE(304.8),#15);
#17= IFCDIMENSIONALEXPONENTS(1,0,0,0,0,0,0);
#18= IFCCONVERSIONBASEDUNIT(#17,.LENGTHUNIT.,'FOOT',#16);
#19= IFCSIUNIT(*,.AREAUNIT.,$,.SQUARE_METRE.);
#20= IFCMEASUREWITHUNIT(IFCRATIOMEASURE(0.09290304),#19);
#21= IFCDIMENSIONALEXPONENTS(2,0,0,0,0,0,0);
#22= IFCCONVERSIONBASEDUNIT(#21,.AREAUNIT.,'SQUARE FOOT',#20);
#23= IFCSIUNIT(*,.VOLUMEUNIT.,$,.CUBIC_METRE.);
#24= IFCMEASUREWITHUNIT(IFCRATIOMEASURE(0.028316846592),#23);
#25= IFCDIMENSIONALEXPONENTS(3,0,0,0,0,0,0);
#26= IFCCONVERSIONBASEDUNIT(#25,.VOLUMEUNIT.,'CUBIC FOOT',#24);
#27= IFCSIUNIT(*,.MASSUNIT.,.KILO.,.GRAM.);
#28= IFCSIUNIT(*,.TIMEUNIT.,$,.SECOND.);
#29= IFCSIUNIT(*,.PLANEANGLEUNIT.,$,.RADIAN.);
#30= IFCMEASUREWITHUNIT(IFCRATIOMEASURE(0.0174532925199433),#29);
#31= IFCDIMENSIONALEXPONENTS(0,0,0,0,0,0,0);
#32= IFCCONVERSIONBASEDUNIT(#31,.PLANEANGLEUNIT.,'DEGREE',#30);
#33= IFCSIUNIT(*,.SOLIDANGLEUNIT.,$,.STERADIAN.);
#34= IFCSIUNIT(*,.THERMODYNAMICTEMPERATUREUNIT.,$,.DEGREE_CELSIUS.);
#35= IFCSIUNIT(*,.LUMINOUSINTENSITYUNIT.,$,.LUMEN.);
#36= IFCUNITASSIGNMENT((#15,#19,#23,#27,#28,#29,#33,#34,#35));
#37= IFCPROJECT('2G7ZFDNE16yBDU14FA92Me',#5,'Proyecto',$,$,$,$,(#11),#36);
#38= IFCLOCALPLACEMENT($,#10);
#39= IFCSITE('2xvEzEinjBTea80yOTcujY',#5,'Obra',$,$,#38,$,$,.ELEMENT.,$,$,$,$,$);
#40= IFCLOCALPLACEMENT(#38,#10);
#41= IFCBUILDING('2iaERjEcb2A9LNEHCng_09',#5,'Undefined',$,$,#40,$,$,.ELEMENT.,$,$,$);
#42= IFCLOCALPLACEMENT(#40,#10);
#43= IFCBUILDINGSTOREY('29hdEUCErFze9E_VIAceOd',#5,'Undefined',$,$,#42,$,$,.ELEMENT.,0.);
#44= IFCOWNERHISTORY(#3,#4,$,.NOCHANGE.,$,$,$,1773349200);
#45= IFCCARTESIANPOINT((94453.5405854111,17217.50552087,19125.));
#46= IFCDIRECTION((0.,-1.,0.));
#47= IFCAXIS2PLACEMENT3D(#45,#9,#46);
#48= IFCLOCALPLACEMENT(#42,#47);
#49= IFCDIRECTION((1.,0.));
#50= IFCCARTESIANPOINT((0.,0.));
#51= IFCAXIS2PLACEMENT2D(#50,#49);
#52= IFCISHAPEPROFILEDEF(.AREA.,'IPE450',#51,190.,450.,9.399999619,14.60000038,21.);
#53= IFCDIRECTION((-1.,0.,0.));
#54= IFCCARTESIANPOINT((9081.54862213135,0.,0.));
#55= IFCAXIS2PLACEMENT3D(#54,#53,#46);
#56= IFCEXTRUDEDAREASOLID(#52,#55,#9,9081.55);
#57= IFCCARTESIANPOINT((9081.54862213135,0.,-325.));
#58= IFCAXIS2PLACEMENT3D(#57,#53,#8);
#59= IFCPLANE(#58);
#60= IFCHALFSPACESOLID(#59,.T.);
#61= IFCBOOLEANCLIPPINGRESULT(.DIFFERENCE.,#56,#60);
#62= IFCSHAPEREPRESENTATION(#12,'Body','Clipping',(#61));
#63= IFCPRODUCTDEFINITIONSHAPE($,$,(#62));
#64= IFCBEAM('2lBQMZVxj2iu_8bg1y_rWw',#44,'BEAM','IPE450','IPE450',#48,#63,'IDaf2da5a3-7fbb-42b3-8f88-96a07cfb583a');
#65= IFCLOCALPLACEMENT(#42,#47);
#66= IFCRECTANGLEPROFILEDEF(.AREA.,'PL59*156.3',#51,59.,156.3);
#67= IFCDIRECTION((0.,0.,-1.));
#68= IFCCARTESIANPOINT((9015.42362213135,96.,-196.5));
#69= IFCAXIS2PLACEMENT3D(#68,#46,#67);
#70= IFCEXTRUDEDAREASOLID(#66,#69,#9,192.);
#71= IFCSHAPEREPRESENTATION(#12,'Body','SweptSolid',(#70));
#72= IFCPRODUCTDEFINITIONSHAPE($,$,(#71));
#73= IFCOPENINGELEMENT('09jEDBmkLBwwHD8xdkJGWA',#5,$,$,'Recess',#65,#72,$);
#74= IFCRELVOIDSELEMENT('3JBXEoJiT2Y8SQ6iPgoUOr',#5,$,$,#64,#73);
#75= IFCPROPERTYSINGLEVALUE('FeatureSubTypes',$,$,$);
#76= IFCPROPERTYSINGLEVALUE('RectangleOpeningWidth',$,IFCPOSITIVELENGTHMEASURE(59.),$);
#77= IFCPROPERTYSINGLEVALUE('RectangleOpeningHeight',$,IFCPOSITIVELENGTHMEASURE(156.3),$);
#78= IFCPROPERTYSINGLEVALUE('OpeningDiameter',$,$,$);
#79= IFCPROPERTYSET('2BdDHAIaj1igU52HhLUtdK',#5,'AISC_EM11_Pset_Opening/Cope',$,(#75,#76,#77,#78));
#80= IFCLOCALPLACEMENT(#42,#47);
#81= IFCRECTANGLEPROFILEDEF(.AREA.,'PL49*156.3',#51,49.,156.3);
#82= IFCCARTESIANPOINT((9015.42362213135,96.,201.5));
#83= IFCAXIS2PLACEMENT3D(#82,#46,#67);
#84= IFCEXTRUDEDAREASOLID(#81,#83,#9,192.);
#85= IFCSHAPEREPRESENTATION(#12,'Body','SweptSolid',(#84));
#86= IFCPRODUCTDEFINITIONSHAPE($,$,(#85));
#87= IFCOPENINGELEMENT('0MlJJUDzT1Xx93VIrrOE17',#5,$,$,'Recess',#80,#86,$);
#88= IFCRELVOIDSELEMENT('3Z$9SqqxbC$f7tO$RWJHe_',#5,$,$,#64,#87);
#89= IFCPROPERTYSINGLEVALUE('RectangleOpeningWidth',$,IFCPOSITIVELENGTHMEASURE(49.),$);
#90= IFCPROPERTYSET('21sFwAqLj9kO6mNlXNeo2T',#5,'AISC_EM11_Pset_Opening/Cope',$,(#75,#89,#77,#78));
#91= IFCCARTESIANPOINT((94453.539364708,17180.1856471598,18900.));
#92= IFCAXIS2PLACEMENT3D(#91,#53,#46);
#93= IFCLOCALPLACEMENT(#42,#92);
#94= IFCCIRCLEPROFILEDEF(.AREA.,$,#51,11.);
#95= IFCCARTESIANPOINT((0.,-0.0999999999999929,0.));
#96= IFCAXIS2PLACEMENT3D(#95,#8,#7);
#97= IFCEXTRUDEDAREASOLID(#94,#96,#9,14.8);
#98= IFCSHAPEREPRESENTATION(#12,'Body','SweptSolid',(#97));
#99= IFCREPRESENTATIONMAP(#10,#98);
#100= IFCCARTESIANPOINT((0.,0.,50.));
#101= IFCCARTESIANTRANSFORMATIONOPERATOR3D($,$,#100,$,$);
#102= IFCMAPPEDITEM(#99,#101);
#103= IFCCARTESIANPOINT((70.,0.,50.));
#104= IFCCARTESIANTRANSFORMATIONOPERATOR3D($,$,#103,$,$);
#105= IFCMAPPEDITEM(#99,#104);
#106= IFCCARTESIANPOINT((140.,0.,50.));
#107= IFCCARTESIANTRANSFORMATIONOPERATOR3D($,$,#106,$,$);
#108= IFCMAPPEDITEM(#99,#107);
#109= IFCCARTESIANPOINT((210.,0.,50.));
#110= IFCCARTESIANTRANSFORMATIONOPERATOR3D($,$,#109,$,$);
#111= IFCMAPPEDITEM(#99,#110);
#112= IFCCARTESIANPOINT((280.,0.,50.));
#113= IFCCARTESIANTRANSFORMATIONOPERATOR3D($,$,#112,$,$);
#114= IFCMAPPEDITEM(#99,#113);
#115= IFCCARTESIANPOINT((350.,0.,50.));
#116= IFCCARTESIANTRANSFORMATIONOPERATOR3D($,$,#115,$,$);
#117= IFCMAPPEDITEM(#99,#116);
#118= IFCCARTESIANPOINT((420.,0.,50.));
#119= IFCCARTESIANTRANSFORMATIONOPERATOR3D($,$,#118,$,$);
#120= IFCMAPPEDITEM(#99,#119);
#121= IFCCARTESIANPOINT((0.,0.,-50.));
#122= IFCCARTESIANTRANSFORMATIONOPERATOR3D($,$,#121,$,$);
#123= IFCMAPPEDITEM(#99,#122);
#124= IFCCARTESIANPOINT((70.,0.,-50.));
#125= IFCCARTESIANTRANSFORMATIONOPERATOR3D($,$,#124,$,$);
#126= IFCMAPPEDITEM(#99,#125);
#127= IFCCARTESIANPOINT((140.,0.,-50.));
#128= IFCCARTESIANTRANSFORMATIONOPERATOR3D($,$,#127,$,$);
#129= IFCMAPPEDITEM(#99,#128);
#130= IFCCARTESIANPOINT((210.,0.,-50.));
#131= IFCCARTESIANTRANSFORMATIONOPERATOR3D($,$,#130,$,$);
#132= IFCMAPPEDITEM(#99,#131);
#133= IFCCARTESIANPOINT((280.,0.,-50.));
#134= IFCCARTESIANTRANSFORMATIONOPERATOR3D($,$,#133,$,$);
#135= IFCMAPPEDITEM(#99,#134);
#136= IFCCARTESIANPOINT((350.,0.,-50.));
#137= IFCCARTESIANTRANSFORMATIONOPERATOR3D($,$,#136,$,$);
#138= IFCMAPPEDITEM(#99,#137);
#139= IFCCARTESIANPOINT((420.,0.,-50.));
#140= IFCCARTESIANTRANSFORMATIONOPERATOR3D($,$,#139,$,$);
#141= IFCMAPPEDITEM(#99,#140);
#142= IFCSHAPEREPRESENTATION(#12,'Body','MappedRepresentation',(#102,#105,#108,#111,#114,#117,#120,#123,#126,#129,#132,#135,#138,#141));
#143= IFCPRODUCTDEFINITIONSHAPE($,$,(#142));
#144= IFCOPENINGELEMENT('2RWUFNxyb5gBbo575h9e8x',#5,$,$,'Opening',#93,#143,$);
#145= IFCRELVOIDSELEMENT('0KchVYMOX3Hh43oBUlY6sD',#5,'Drill Hole',$,#64,#144);
#146= IFCPROPERTYSINGLEVALUE('FeatureSubTypes',$,IFCLABEL('TORNILLO'),$);
#147= IFCPROPERTYSINGLEVALUE('RectangleOpeningWidth',$,$,$);
#148= IFCPROPERTYSINGLEVALUE('RectangleOpeningHeight',$,$,$);
#149= IFCPROPERTYSET('10bLW4lfj7Gv08B6QGXsZK',#5,'AISC_EM11_Pset_Opening/Cope',$,(#146,#147,#148,#78));
#150= IFCCARTESIANPOINT((94453.539364708,17180.1856471598,19350.));
#151= IFCAXIS2PLACEMENT3D(#150,#7,#46);
#152= IFCLOCALPLACEMENT(#42,#151);
#153= IFCSHAPEREPRESENTATION(#12,'Body','MappedRepresentation',(#123,#126,#129,#132,#135,#138,#141,#102,#105,#108,#111,#114,#117,#120));
#154= IFCPRODUCTDEFINITIONSHAPE($,$,(#153));
#155= IFCOPENINGELEMENT('2c6yyVKCT6OgyveQJbwVlt',#5,$,$,'Opening',#152,#154,$);
#156= IFCRELVOIDSELEMENT('2szbGJAob9Qxs9BAGN50yf',#5,'Drill Hole',$,#64,#155);
#157= IFCCARTESIANPOINT((94453.5405854111,8135.95689873861,19350.));
#158= IFCAXIS2PLACEMENT3D(#157,#8,#67);
#159= IFCLOCALPLACEMENT(#42,#158);
#160= IFCCARTESIANPOINT((0.,-4.79999980949797,0.));
#161= IFCAXIS2PLACEMENT3D(#160,#8,#7);
#162= IFCEXTRUDEDAREASOLID(#94,#161,#9,9.6);
#163= IFCSHAPEREPRESENTATION(#12,'Body','SweptSolid',(#162));
#164= IFCREPRESENTATIONMAP(#10,#163);
#165= IFCCARTESIANPOINT((85.,0.,40.));
#166= IFCCARTESIANTRANSFORMATIONOPERATOR3D($,$,#165,$,$);
#167= IFCMAPPEDITEM(#164,#166);
#168= IFCCARTESIANPOINT((155.,0.,40.));
#169= IFCCARTESIANTRANSFORMATIONOPERATOR3D($,$,#168,$,$);
#170= IFCMAPPEDITEM(#164,#169);
#171= IFCCARTESIANPOINT((225.,0.,40.));
#172= IFCCARTESIANTRANSFORMATIONOPERATOR3D($,$,#171,$,$);
#173= IFCMAPPEDITEM(#164,#172);
#174= IFCCARTESIANPOINT((295.,0.,40.));
#175= IFCCARTESIANTRANSFORMATIONOPERATOR3D($,$,#174,$,$);
#176= IFCMAPPEDITEM(#164,#175);
#177= IFCCARTESIANPOINT((365.,0.,40.));
#178= IFCCARTESIANTRANSFORMATIONOPERATOR3D($,$,#177,$,$);
#179= IFCMAPPEDITEM(#164,#178);
#180= IFCSHAPEREPRESENTATION(#12,'Body','MappedRepresentation',(#167,#170,#173,#176,#179));
#181= IFCPRODUCTDEFINITIONSHAPE($,$,(#180));
#182= IFCOPENINGELEMENT('0zz9Puvcn7VOmCLB56d2gA',#5,$,$,'Opening',#159,#181,$);
#183= IFCRELVOIDSELEMENT('2mB17SEG95dwvj2ujDqBt$',#5,'Drill Hole',$,#64,#182);
#184= IFCCARTESIANPOINT((94453.539364708,8320.2354091472,18910.));
#185= IFCDIRECTION((0.999999988561416,0.000151251999945088,0.));
#186= IFCDIRECTION((-0.000151251999945667,0.999999988561416,0.));
#187= IFCAXIS2PLACEMENT3D(#184,#185,#186);
#188= IFCLOCALPLACEMENT(#42,#187);
#189= IFCCIRCLEPROFILEDEF(.AREA.,$,#51,11.5);
#190= IFCCARTESIANPOINT((0.,-10.1,0.));
#191= IFCAXIS2PLACEMENT3D(#190,#8,#7);
#192= IFCEXTRUDEDAREASOLID(#189,#191,#9,14.8);
#193= IFCSHAPEREPRESENTATION(#12,'Body','SweptSolid',(#192));
#194= IFCREPRESENTATIONMAP(#10,#193);
#195= IFCMAPPEDITEM(#194,#101);
#196= IFCMAPPEDITEM(#194,#104);
#197= IFCMAPPEDITEM(#194,#107);
#198= IFCMAPPEDITEM(#194,#110);
#199= IFCMAPPEDITEM(#194,#113);
#200= IFCMAPPEDITEM(#194,#116);
#201= IFCMAPPEDITEM(#194,#119);
#202= IFCMAPPEDITEM(#194,#122);
#203= IFCMAPPEDITEM(#194,#125);
#204= IFCMAPPEDITEM(#194,#128);
#205= IFCMAPPEDITEM(#194,#131);
#206= IFCMAPPEDITEM(#194,#134);
#207= IFCMAPPEDITEM(#194,#137);
#208= IFCMAPPEDITEM(#194,#140);
#209= IFCSHAPEREPRESENTATION(#12,'Body','MappedRepresentation',(#195,#196,#197,#198,#199,#200,#201,#202,#203,#204,#205,#206,#207,#208));
#210= IFCPRODUCTDEFINITIONSHAPE($,$,(#209));
#211= IFCOPENINGELEMENT('2QxHV9XvHB8vMG5VbPOlmV',#5,$,$,'Opening',#188,#210,$);
#212= IFCRELVOIDSELEMENT('0Jxb1yj914Xujhbc6Q8vTJ',#5,'Drill Hole',$,#64,#211);
#213= IFCCARTESIANPOINT((94453.539364708,8320.2354091472,19350.));
#214= IFCDIRECTION((-0.999999988561416,-0.000151251999945088,0.));
#215= IFCAXIS2PLACEMENT3D(#213,#214,#186);
#216= IFCLOCALPLACEMENT(#42,#215);
#217= IFCEXTRUDEDAREASOLID(#189,#96,#9,14.8);
#218= IFCSHAPEREPRESENTATION(#12,'Body','SweptSolid',(#217));
#219= IFCREPRESENTATIONMAP(#10,#218);
#220= IFCMAPPEDITEM(#219,#122);
#221= IFCMAPPEDITEM(#219,#125);
#222= IFCMAPPEDITEM(#219,#128);
#223= IFCMAPPEDITEM(#219,#131);
#224= IFCMAPPEDITEM(#219,#134);
#225= IFCMAPPEDITEM(#219,#137);
#226= IFCMAPPEDITEM(#219,#140);
#227= IFCMAPPEDITEM(#219,#101);
#228= IFCMAPPEDITEM(#219,#104);
#229= IFCMAPPEDITEM(#219,#107);
#230= IFCMAPPEDITEM(#219,#110);
#231= IFCMAPPEDITEM(#219,#113);
#232= IFCMAPPEDITEM(#219,#116);
#233= IFCMAPPEDITEM(#219,#119);
#234= IFCSHAPEREPRESENTATION(#12,'Body','MappedRepresentation',(#220,#221,#222,#223,#224,#225,#226,#227,#228,#229,#230,#231,#232,#233));
#235= IFCPRODUCTDEFINITIONSHAPE($,$,(#234));
#236= IFCOPENINGELEMENT('0KwnD25wj8gPwZKGxFMCmD',#5,$,$,'Opening',#216,#235,$);
#237= IFCRELVOIDSELEMENT('3h2lSt1t54g9a4NTq1xxFs',#5,'Drill Hole',$,#64,#236);
#238= IFCPROPERTYSINGLEVALUE('PieceMark',$,IFCIDENTIFIER('BEAM'),$);
#239= IFCPROPERTYSINGLEVALUE('IndicationMark',$,IFCIDENTIFIER('b/956'),$);
#240= IFCPROPERTYSINGLEVALUE('PrelimMark',$,IFCIDENTIFIER(''),$);
#241= IFCPROPERTYSINGLEVALUE('MainPieceTag',$,IFCBOOLEAN(.T.),$);
#242= IFCPROPERTYSET('1$fkcZb8r4KeCaeqNLGeH1',#5,'AISC_EM11_Pset_PieceIdentification','PieceIdentity',(#238,#239,#240,#241));
#243= IFCPROPERTYSINGLEVALUE('MaterialType',$,IFCIDENTIFIER('STEEL'),$);
#244= IFCPROPERTYSINGLEVALUE('MaterialGrade',$,IFCIDENTIFIER('S235JR'),$);
#245= IFCPROPERTYSET('0W5slYaAbDl820wnrIPgAO',#5,'AISC_EM11_Pset_Material',$,(#243,#244));
#246= IFCPROPERTYSINGLEVALUE('SkewedAngleY',$,IFCREAL(0.),$);
#247= IFCPROPERTYSINGLEVALUE('SkewedAngleX',$,IFCREAL(0.),$);
#248= IFCPROPERTYSET('15HYcJp2D5XQLj4wqFfWes',#5,'AISC_EM11_Pset_SkewedEnd',$,(#246,#247));
#249= IFCPROPERTYSET('1eDLEMhT90jeBz8lCF652T',#5,'AISC_EM11_Pset_SkewedEnd_2',$,(#246,#247));
#250= IFCMATERIAL('STEEL/S235JR');
#251= IFCRELAGGREGATES('0ZDfVQ4p1AeeRcDCYm4O6Y',#5,$,$,#37,(#39));
#252= IFCRELAGGREGATES('2rVxniM5JSwwjuVUq2MgOq',#5,$,$,#39,(#41));
#253= IFCRELAGGREGATES('1AfsS7CaT9ffUU0nv5LW5B',#5,$,$,#41,(#43));
#254= IFCRELCONTAINEDINSPATIALSTRUCTURE('0Pn_nNXJT0kOCEALFcnrGS',#5,$,$,(#64),#43);
#255= IFCRELDEFINESBYPROPERTIES('32q216_F96dBF$X3Mm_Woz',#5,$,$,(#73),#79);
#256= IFCRELDEFINESBYPROPERTIES('2XzKpak$56iuWQ46NTLgY9',#5,$,$,(#87),#90);
#257= IFCRELDEFINESBYPROPERTIES('0p3mayqNb5nfO0X4Ceq2cr',#5,$,$,(#236,#211,#182,#155,#144),#149);
#258= IFCRELDEFINESBYPROPERTIES('1maaLd0lX06v7oWjsmNplx',#5,$,$,(#64),#242);
#259= IFCRELDEFINESBYPROPERTIES('3nSL3vuzPACvizj2zRl0kU',#5,$,$,(#64),#245);
#260= IFCRELDEFINESBYPROPERTIES('0KflCHVOnFRPbpeGvouZmW',#5,$,$,(#64),#248);
#261= IFCRELDEFINESBYPROPERTIES('2ySTmh3Mj3LvhHVBUAEhKK',#5,$,$,(#64),#249);
#262= IFCRELASSOCIATESMATERIAL('1$28VOglvBGADntpFpPDQR',#5,$,$,(#64),#250);
ENDSEC;

END-ISO-10303-21;
