ISO-10303-21;
HEADER;
FILE_DESCRIPTION(('ViewDefinition[AISC_Steel_Detailing]', 'Option [BaseQuantities:Off]', 'Option [GridExport:On]', 'Option [Assemblies:Off]', 'Option [Bolts:On]', 'Option [Rebars:On]', 'Option [PourObjects:Off]', 'Option [Welds:On]', 'Option [SurfaceTreatments:On]', 'Option [LocationBy:0]', 'Option [ViewColors:Off]', 'Option [SectionedSpine:Off]', 'Option [PropertySets:On]', 'Option [Export all:Off]'),'2;1');
FILE_NAME('b_952_Qty_1.ifc','2026-05-16T11:53:20',('GIOVANNIPC\\gcorrea'),('Structural Designer'),'IFC Database version: Work','Tekla Structures 2020 Service Pack 5, IFC Export Version: 4.0.0.0 Dec  7 2020','');
FILE_SCHEMA(('IFC2X3'));
ENDSEC;

DATA;
#1= IFCPERSON('GIOVANNIPC\\gcorrea','Undefined',$,$,$,$,$,$);
#2= IFCORGANIZATION($,'Trimble Solutions Corporation',$,$,$);
#3= IFCPERSONANDORGANIZATION(#1,#2,$);
#4= IFCAPPLICATION(#2,'2020 Service Pack 5','Tekla Structures','Multi material modeling');
#5= IFCOWNERHISTORY(#3,#4,$,.NOCHANGE.,$,$,$,1778950400);
#6= IFCCARTESIANPOINT((0.,0.,0.));
#7= IFCDIRECTION((1.,0.,0.));
#8= IFCDIRECTION((0.,1.,0.));
#9= IFCDIRECTION((0.,0.,1.));
#10= IFCAXIS2PLACEMENT3D(#6,#9,#7);
#11= IFCGEOMETRICREPRESENTATIONCONTEXT($,'Model',3,1.E-05,#10,$);
#12= IFCGEOMETRICREPRESENTATIONSUBCONTEXT('Body','Model',*,*,*,*,#11,$,.MODEL_VIEW.,$);
#13= IFCGEOMETRICREPRESENTATIONSUBCONTEXT('Axis','Model',*,*,*,*,#11,$,.GRAPH_VIEW.,$);
#14= IFCGEOMETRICREPRESENTATIONSUBCONTEXT('FootPrint','Model',*,*,*,*,#11,$,.MODEL_VIEW.,$);
#15= IFCSIUNIT(*,.LENGTHUNIT.,.MILLI.,.METRE.);
#16= IFCMEASUREWITHUNIT(IFCRATIOMEASURE(304.8),#15);
#17= IFCDIMENSIONALEXPONENTS(1,0,0,0,0,0,0);
#18= IFCCONVERSIONBASEDUNIT(#17,.LENGTHUNIT.,'FOOT',#16);
#19= IFCSIUNIT(*,.AREAUNIT.,$,.SQUARE_METRE.);
#20= IFCMEASUREWITHUNIT(IFCRATIOMEASURE(0.09290304),#19);
#21= IFCDIMENSIONALEXPONENTS(2,0,0,0,0,0,0);
#22= IFCCONVERSIONBASEDUNIT(#21,.AREAUNIT.,'SQUARE FOOT',#20);
#23= IFCSIUNIT(*,.VOLUMEUNIT.,$,.CUBIC_METRE.);
#24= IFCMEASUREWITHUNIT(IFCRATIOMEASURE(0.028316846592),#23);
#25= IFCDIMENSIONALEXPONENTS(3,0,0,0,0,0,0);
#26= IFCCONVERSIONBASEDUNIT(#25,.VOLUMEUNIT.,'CUBIC FOOT',#24);
#27= IFCSIUNIT(*,.MASSUNIT.,.KILO.,.GRAM.);
#28= IFCSIUNIT(*,.TIMEUNIT.,$,.SECOND.);
#29= IFCSIUNIT(*,.PLANEANGLEUNIT.,$,.RADIAN.);
#30= IFCMEASUREWITHUNIT(IFCRATIOMEASURE(0.0174532925199433),#29);
#31= IFCDIMENSIONALEXPONENTS(0,0,0,0,0,0,0);
#32= IFCCONVERSIONBASEDUNIT(#31,.PLANEANGLEUNIT.,'DEGREE',#30);
#33= IFCSIUNIT(*,.SOLIDANGLEUNIT.,$,.STERADIAN.);
#34= IFCSIUNIT(*,.THERMODYNAMICTEMPERATUREUNIT.,$,.DEGREE_CELSIUS.);
#35= IFCSIUNIT(*,.LUMINOUSINTENSITYUNIT.,$,.LUMEN.);
#36= IFCUNITASSIGNMENT((#15,#19,#23,#27,#28,#29,#33,#34,#35));
#37= IFCPROJECT('2G7ZFDNE16yBDU14FA92Me',#5,'Proyecto',$,$,$,$,(#11),#36);
#38= IFCLOCALPLACEMENT($,#10);
#39= IFCSITE('2xvEzEinjBTea80yOTcujY',#5,'Obra',$,$,#38,$,$,.ELEMENT.,$,$,$,$,$);
#40= IFCLOCALPLACEMENT(#38,#10);
#41= IFCBUILDING('2OfMCGzA5CSOnTE5CG7Mge',#5,'Undefined',$,$,#40,$,$,.ELEMENT.,$,$,$);
#42= IFCLOCALPLACEMENT(#40,#10);
#43= IFCBUILDINGSTOREY('29hdEUCErFze9E_VIAceOd',#5,'Undefined',$,$,#42,$,$,.ELEMENT.,0.);
#44= IFCOWNERHISTORY(#3,#4,$,.NOCHANGE.,$,$,$,1775491200);
#45= IFCCARTESIANPOINT((85273.9980439072,1603.38122277425,19130.));
#46= IFCAXIS2PLACEMENT3D(#45,#9,#7);
#47= IFCLOCALPLACEMENT(#42,#46);
#48= IFCDIRECTION((1.,0.));
#49= IFCCARTESIANPOINT((0.,0.));
#50= IFCAXIS2PLACEMENT2D(#49,#48);
#51= IFCISHAPEPROFILEDEF(.AREA.,'HEA450',#50,300.,440.,11.5,21.,27.);
#52= IFCDIRECTION((0.,-1.,0.));
#53= IFCDIRECTION((-1.,0.,0.));
#54= IFCCARTESIANPOINT((8091.00195609282,0.,0.));
#55= IFCAXIS2PLACEMENT3D(#54,#53,#52);
#56= IFCEXTRUDEDAREASOLID(#51,#55,#9,8101.01);
#57= IFCCARTESIANPOINT((8091.00195609282,0.,-320.));
#58= IFCAXIS2PLACEMENT3D(#57,#53,#8);
#59= IFCPLANE(#58);
#60= IFCHALFSPACESOLID(#59,.T.);
#61= IFCBOOLEANCLIPPINGRESULT(.DIFFERENCE.,#56,#60);
#62= IFCCARTESIANPOINT((-10.0052760624385,0.,-320.));
#63= IFCAXIS2PLACEMENT3D(#62,#7,#52);
#64= IFCPLANE(#63);
#65= IFCHALFSPACESOLID(#64,.T.);
#66= IFCBOOLEANCLIPPINGRESULT(.DIFFERENCE.,#61,#65);
#67= IFCSHAPEREPRESENTATION(#12,'Body','Clipping',(#66));
#68= IFCPRODUCTDEFINITIONSHAPE($,$,(#67));
#69= IFCBEAM('0aPY34qpH3MQqe9plg3p6u',#44,'BEAM','HEA450','HEA450',#47,#68,'ID246620c4-d334-4359-ad28-273bea0f31b8');
#70= IFCLOCALPLACEMENT(#42,#46);
#71= IFCRECTANGLEPROFILEDEF(.AREA.,'PL163.1*12',#50,12.,163.1);
#72= IFCDIRECTION((0.,0.,-1.));
#73= IFCCARTESIANPOINT((-16.0016599848022,69.4540533772779,221.));
#74= IFCAXIS2PLACEMENT3D(#73,#72,#7);
#75= IFCEXTRUDEDAREASOLID(#71,#74,#9,442.);
#76= IFCSHAPEREPRESENTATION(#12,'Body','SweptSolid',(#75));
#77= IFCPRODUCTDEFINITIONSHAPE($,$,(#76));
#78= IFCOPENINGELEMENT('2mnans5Zj2IxKuhEzLyWR7',#5,$,$,'Recess',#70,#77,$);
#79= IFCRELVOIDSELEMENT('3qQdvcYxHBafIyHv$Osb5x',#5,$,$,#69,#78);
#80= IFCPROPERTYSINGLEVALUE('FeatureSubTypes',$,$,$);
#81= IFCPROPERTYSINGLEVALUE('RectangleOpeningWidth',$,IFCPOSITIVELENGTHMEASURE(12.),$);
#82= IFCPROPERTYSINGLEVALUE('RectangleOpeningHeight',$,IFCPOSITIVELENGTHMEASURE(163.1),$);
#83= IFCPROPERTYSINGLEVALUE('OpeningDiameter',$,$,$);
#84= IFCPROPERTYSET('2kiOUjN_TBzh7NibSX0vd8',#5,'AISC_EM11_Pset_Opening/Cope',$,(#80,#81,#82,#83));
#85= IFCLOCALPLACEMENT(#42,#46);
#86= IFCRECTANGLEPROFILEDEF(.AREA.,'PL162.9*12',#50,12.,162.9);
#87= IFCCARTESIANPOINT((-16.0016599848022,-69.5459466227221,221.));
#88= IFCAXIS2PLACEMENT3D(#87,#72,#7);
#89= IFCEXTRUDEDAREASOLID(#86,#88,#9,442.);
#90= IFCSHAPEREPRESENTATION(#12,'Body','SweptSolid',(#89));
#91= IFCPRODUCTDEFINITIONSHAPE($,$,(#90));
#92= IFCOPENINGELEMENT('2wKpY6DV99RPfn3jLzP1gN',#5,$,$,'Recess',#85,#91,$);
#93= IFCRELVOIDSELEMENT('3HsmJW9cv3ix4y1Az9O3ZI',#5,$,$,#69,#92);
#94= IFCPROPERTYSINGLEVALUE('RectangleOpeningHeight',$,IFCPOSITIVELENGTHMEASURE(162.9),$);
#95= IFCPROPERTYSET('0fn1MuETv9kA0cgdvpVyym',#5,'AISC_EM11_Pset_Opening/Cope',$,(#80,#81,#94,#83));
#96= IFCCARTESIANPOINT((93320.,1603.28920788778,18910.0000000696));
#97= IFCAXIS2PLACEMENT3D(#96,#8,#53);
#98= IFCLOCALPLACEMENT(#42,#97);
#99= IFCCIRCLEPROFILEDEF(.AREA.,$,#50,11.5);
#100= IFCCARTESIANPOINT((0.,-0.100000069594535,0.));
#101= IFCAXIS2PLACEMENT3D(#100,#8,#7);
#102= IFCEXTRUDEDAREASOLID(#99,#101,#9,21.2);
#103= IFCSHAPEREPRESENTATION(#12,'Body','SweptSolid',(#102));
#104= IFCREPRESENTATIONMAP(#10,#103);
#105= IFCCARTESIANPOINT((-2.3283064365387E-10,0.,75.));
#106= IFCCARTESIANTRANSFORMATIONOPERATOR3D($,$,#105,$,$);
#107= IFCMAPPEDITEM(#104,#106);
#108= IFCCARTESIANPOINT((74.9999999997672,0.,74.9999999995566));
#109= IFCCARTESIANTRANSFORMATIONOPERATOR3D($,$,#108,$,$);
#110= IFCMAPPEDITEM(#104,#109);
#111= IFCCARTESIANPOINT((149.999999999767,0.,74.9999999991132));
#112= IFCCARTESIANTRANSFORMATIONOPERATOR3D($,$,#111,$,$);
#113= IFCMAPPEDITEM(#104,#112);
#114= IFCCARTESIANPOINT((224.999999999767,0.,74.9999999986699));
#115= IFCCARTESIANTRANSFORMATIONOPERATOR3D($,$,#114,$,$);
#116= IFCMAPPEDITEM(#104,#115);
#117= IFCCARTESIANPOINT((299.999999999767,0.,74.9999999982265));
#118= IFCCARTESIANTRANSFORMATIONOPERATOR3D($,$,#117,$,$);
#119= IFCMAPPEDITEM(#104,#118);
#120= IFCCARTESIANPOINT((374.999999999767,0.,74.9999999977831));
#121= IFCCARTESIANTRANSFORMATIONOPERATOR3D($,$,#120,$,$);
#122= IFCMAPPEDITEM(#104,#121);
#123= IFCCARTESIANPOINT((449.999999999767,0.,74.9999999973397));
#124= IFCCARTESIANTRANSFORMATIONOPERATOR3D($,$,#123,$,$);
#125= IFCMAPPEDITEM(#104,#124);
#126= IFCCARTESIANPOINT((524.999999999767,0.,74.9999999968963));
#127= IFCCARTESIANTRANSFORMATIONOPERATOR3D($,$,#126,$,$);
#128= IFCMAPPEDITEM(#104,#127);
#129= IFCCARTESIANPOINT((599.999999999767,0.,74.999999996453));
#130= IFCCARTESIANTRANSFORMATIONOPERATOR3D($,$,#129,$,$);
#131= IFCMAPPEDITEM(#104,#130);
#132= IFCCARTESIANPOINT((674.999999999767,0.,74.9999999960096));
#133= IFCCARTESIANTRANSFORMATIONOPERATOR3D($,$,#132,$,$);
#134= IFCMAPPEDITEM(#104,#133);
#135= IFCCARTESIANPOINT((2.18278728425503E-10,0.,-75.));
#136= IFCCARTESIANTRANSFORMATIONOPERATOR3D($,$,#135,$,$);
#137= IFCMAPPEDITEM(#104,#136);
#138= IFCCARTESIANPOINT((75.0000000002183,0.,-75.0000000004434));
#139= IFCCARTESIANTRANSFORMATIONOPERATOR3D($,$,#138,$,$);
#140= IFCMAPPEDITEM(#104,#139);
#141= IFCCARTESIANPOINT((150.000000000218,0.,-75.0000000008868));
#142= IFCCARTESIANTRANSFORMATIONOPERATOR3D($,$,#141,$,$);
#143= IFCMAPPEDITEM(#104,#142);
#144= IFCCARTESIANPOINT((225.000000000218,0.,-75.0000000013301));
#145= IFCCARTESIANTRANSFORMATIONOPERATOR3D($,$,#144,$,$);
#146= IFCMAPPEDITEM(#104,#145);
#147= IFCCARTESIANPOINT((300.000000000218,0.,-75.0000000017735));
#148= IFCCARTESIANTRANSFORMATIONOPERATOR3D($,$,#147,$,$);
#149= IFCMAPPEDITEM(#104,#148);
#150= IFCCARTESIANPOINT((375.000000000218,0.,-75.0000000022169));
#151= IFCCARTESIANTRANSFORMATIONOPERATOR3D($,$,#150,$,$);
#152= IFCMAPPEDITEM(#104,#151);
#153= IFCCARTESIANPOINT((450.000000000218,0.,-75.0000000026603));
#154= IFCCARTESIANTRANSFORMATIONOPERATOR3D($,$,#153,$,$);
#155= IFCMAPPEDITEM(#104,#154);
#156= IFCCARTESIANPOINT((525.000000000218,0.,-75.0000000031037));
#157= IFCCARTESIANTRANSFORMATIONOPERATOR3D($,$,#156,$,$);
#158= IFCMAPPEDITEM(#104,#157);
#159= IFCCARTESIANPOINT((600.000000000218,0.,-75.000000003547));
#160= IFCCARTESIANTRANSFORMATIONOPERATOR3D($,$,#159,$,$);
#161= IFCMAPPEDITEM(#104,#160);
#162= IFCCARTESIANPOINT((675.000000000218,0.,-75.0000000039904));
#163= IFCCARTESIANTRANSFORMATIONOPERATOR3D($,$,#162,$,$);
#164= IFCMAPPEDITEM(#104,#163);
#165= IFCSHAPEREPRESENTATION(#12,'Body','MappedRepresentation',(#107,#110,#113,#116,#119,#122,#125,#128,#131,#134,#137,#140,#143,#146,#149,#152,#155,#158,#161,#164));
#166= IFCPRODUCTDEFINITIONSHAPE($,$,(#165));
#167= IFCOPENINGELEMENT('182xjnmb14zeLZhpVTwA89',#5,$,$,'Opening',#98,#166,$);
#168= IFCRELVOIDSELEMENT('2fq7Wmq$DFRv3CaspXHclh',#5,'Drill Hole',$,#69,#167);
#169= IFCPROPERTYSINGLEVALUE('FeatureSubTypes',$,IFCLABEL('TORNILLO'),$);
#170= IFCPROPERTYSINGLEVALUE('RectangleOpeningWidth',$,$,$);
#171= IFCPROPERTYSINGLEVALUE('RectangleOpeningHeight',$,$,$);
#172= IFCPROPERTYSET('3kua2PPJD7LQZw9VF$3ksM',#5,'AISC_EM11_Pset_Opening/Cope',$,(#169,#170,#171,#83));
#173= IFCCARTESIANPOINT((93320.,1603.28920788778,19349.9999999304));
#174= IFCAXIS2PLACEMENT3D(#173,#52,#53);
#175= IFCLOCALPLACEMENT(#42,#174);
#176= IFCSHAPEREPRESENTATION(#12,'Body','MappedRepresentation',(#137,#140,#143,#146,#149,#152,#155,#158,#161,#164,#107,#110,#113,#116,#119,#122,#125,#128,#131,#134));
#177= IFCPRODUCTDEFINITIONSHAPE($,$,(#176));
#178= IFCOPENINGELEMENT('12wld_27bBNPMxSjgxda_W',#5,$,$,'Opening',#175,#177,$);
#179= IFCRELVOIDSELEMENT('1B7BfyndfCNeDYVFpITGUu',#5,'Drill Hole',$,#69,#178);
#180= IFCCARTESIANPOINT((93365.,1603.38122277425,19350.));
#181= IFCAXIS2PLACEMENT3D(#180,#53,#72);
#182= IFCLOCALPLACEMENT(#42,#181);
#183= IFCCARTESIANPOINT((0.,-5.85000000000001,0.));
#184= IFCAXIS2PLACEMENT3D(#183,#8,#7);
#185= IFCEXTRUDEDAREASOLID(#99,#184,#9,11.7);
#186= IFCSHAPEREPRESENTATION(#12,'Body','SweptSolid',(#185));
#187= IFCREPRESENTATIONMAP(#10,#186);
#188= IFCCARTESIANPOINT((80.,0.,45.));
#189= IFCCARTESIANTRANSFORMATIONOPERATOR3D($,$,#188,$,$);
#190= IFCMAPPEDITEM(#187,#189);
#191= IFCCARTESIANPOINT((150.,0.,45.));
#192= IFCCARTESIANTRANSFORMATIONOPERATOR3D($,$,#191,$,$);
#193= IFCMAPPEDITEM(#187,#192);
#194= IFCCARTESIANPOINT((220.,0.,45.));
#195= IFCCARTESIANTRANSFORMATIONOPERATOR3D($,$,#194,$,$);
#196= IFCMAPPEDITEM(#187,#195);
#197= IFCCARTESIANPOINT((290.,0.,45.));
#198= IFCCARTESIANTRANSFORMATIONOPERATOR3D($,$,#197,$,$);
#199= IFCMAPPEDITEM(#187,#198);
#200= IFCCARTESIANPOINT((360.,0.,45.));
#201= IFCCARTESIANTRANSFORMATIONOPERATOR3D($,$,#200,$,$);
#202= IFCMAPPEDITEM(#187,#201);
#203= IFCSHAPEREPRESENTATION(#12,'Body','MappedRepresentation',(#190,#193,#196,#199,#202));
#204= IFCPRODUCTDEFINITIONSHAPE($,$,(#203));
#205= IFCOPENINGELEMENT('3ciuzFrX1FlOwMGuh8gtLq',#5,$,$,'Opening',#182,#204,$);
#206= IFCRELVOIDSELEMENT('3no3kjX7z3_PM_JUItBnBp',#5,'Drill Hole',$,#69,#205);
#207= IFCCARTESIANPOINT((85263.9927678447,1603.38122277425,19350.));
#208= IFCAXIS2PLACEMENT3D(#207,#7,#72);
#209= IFCLOCALPLACEMENT(#42,#208);
#210= IFCSHAPEREPRESENTATION(#12,'Body','MappedRepresentation',(#190,#193,#196,#199,#202));
#211= IFCPRODUCTDEFINITIONSHAPE($,$,(#210));
#212= IFCOPENINGELEMENT('1EymKYIjfFkxZI3haInQEO',#5,$,$,'Opening',#209,#211,$);
#213= IFCRELVOIDSELEMENT('3uJajaOR97sfHmTjnFrFMC',#5,'Drill Hole',$,#69,#212);
#214= IFCCARTESIANPOINT((85309.,1603.28929908432,18910.));
#215= IFCAXIS2PLACEMENT3D(#214,#52,#7);
#216= IFCLOCALPLACEMENT(#42,#215);
#217= IFCSHAPEREPRESENTATION(#12,'Body','MappedRepresentation',(#107,#110,#113,#116,#119,#122,#125,#128,#131,#134,#137,#140,#143,#146,#149,#152,#155,#158,#161,#164));
#218= IFCPRODUCTDEFINITIONSHAPE($,$,(#217));
#219= IFCOPENINGELEMENT('0NWl_vn9z9PApqARktvV7p',#5,$,$,'Opening',#216,#218,$);
#220= IFCRELVOIDSELEMENT('2jdbtGGCrCeAF3mbLMW5us',#5,'Drill Hole',$,#69,#219);
#221= IFCCARTESIANPOINT((85309.,1603.28929908432,19350.));
#222= IFCAXIS2PLACEMENT3D(#221,#8,#7);
#223= IFCLOCALPLACEMENT(#42,#222);
#224= IFCSHAPEREPRESENTATION(#12,'Body','MappedRepresentation',(#137,#140,#143,#146,#149,#152,#155,#158,#161,#164,#107,#110,#113,#116,#119,#122,#125,#128,#131,#134));
#225= IFCPRODUCTDEFINITIONSHAPE($,$,(#224));
#226= IFCOPENINGELEMENT('36u0a44YL3X8lyaulZl8pr',#5,$,$,'Opening',#223,#225,$);
#227= IFCRELVOIDSELEMENT('14hsH69nv4egHimuGiww0P',#5,'Drill Hole',$,#69,#226);
#228= IFCPROPERTYSINGLEVALUE('PieceMark',$,IFCIDENTIFIER('BEAM'),$);
#229= IFCPROPERTYSINGLEVALUE('IndicationMark',$,IFCIDENTIFIER('b/952'),$);
#230= IFCPROPERTYSINGLEVALUE('PrelimMark',$,IFCIDENTIFIER(''),$);
#231= IFCPROPERTYSINGLEVALUE('MainPieceTag',$,IFCBOOLEAN(.T.),$);
#232= IFCPROPERTYSET('3ax7MLb7H2z9CN_ojenZMe',#5,'AISC_EM11_Pset_PieceIdentification','PieceIdentity',(#228,#229,#230,#231));
#233= IFCPROPERTYSINGLEVALUE('MaterialType',$,IFCIDENTIFIER('STEEL'),$);
#234= IFCPROPERTYSINGLEVALUE('MaterialGrade',$,IFCIDENTIFIER('S235JR'),$);
#235= IFCPROPERTYSET('118RxwwUL6jxGktsfAeAhQ',#5,'AISC_EM11_Pset_Material',$,(#233,#234));
#236= IFCPROPERTYSINGLEVALUE('SkewedAngleY',$,IFCREAL(0.),$);
#237= IFCPROPERTYSINGLEVALUE('SkewedAngleX',$,IFCREAL(0.),$);
#238= IFCPROPERTYSET('23Guh3ojb3Lhsh_zt2KHms',#5,'AISC_EM11_Pset_SkewedEnd',$,(#236,#237));
#239= IFCPROPERTYSET('1AOctAIxn2BAMR0I3SIUyn',#5,'AISC_EM11_Pset_SkewedEnd_2',$,(#236,#237));
#240= IFCMATERIAL('STEEL/S235JR');
#241= IFCRELAGGREGATES('2mpnoOX8PEb9jajsE0KJVU',#5,$,$,#37,(#39));
#242= IFCRELAGGREGATES('22534gpQhWtR$s$8WIcbnm',#5,$,$,#39,(#41));
#243= IFCRELAGGREGATES('1Pa27Waxr3OfUivcWZ3N62',#5,$,$,#41,(#43));
#244= IFCRELCONTAINEDINSPATIALSTRUCTURE('1_V5of4un8LR1MspkLCiyV',#5,$,$,(#69),#43);
#245= IFCRELDEFINESBYPROPERTIES('078IIgLKfBMADYQtZCOBV_',#5,$,$,(#78),#84);
#246= IFCRELDEFINESBYPROPERTIES('3djJozytHDEuu7Zf0tea$d',#5,$,$,(#92),#95);
#247= IFCRELDEFINESBYPROPERTIES('2qKjHg9j52chEPwCMW_Uxc',#5,$,$,(#226,#219,#212,#205,#178,#167),#172);
#248= IFCRELDEFINESBYPROPERTIES('2VfZs5_bH2vRm0zf1Lwsy5',#5,$,$,(#69),#232);
#249= IFCRELDEFINESBYPROPERTIES('0pDaEz6z18Nuv1$2WjzTQ4',#5,$,$,(#69),#235);
#250= IFCRELDEFINESBYPROPERTIES('1fYiuGSgbCEPHcE2pCvUze',#5,$,$,(#69),#238);
#251= IFCRELDEFINESBYPROPERTIES('2hF5EFuSrFhwAAaAwfzz6$',#5,$,$,(#69),#239);
#252= IFCRELASSOCIATESMATERIAL('1AJNe3Mk9Cwxbd3WLowdxf',#5,$,$,(#69),#240);
ENDSEC;

END-ISO-10303-21;
