ISO-10303-21;
HEADER;
FILE_DESCRIPTION(('ViewDefinition[AISC_Steel_Detailing]', 'Option [BaseQuantities:Off]', 'Option [GridExport:On]', 'Option [Assemblies:Off]', 'Option [Bolts:On]', 'Option [Rebars:On]', 'Option [PourObjects:Off]', 'Option [Welds:On]', 'Option [SurfaceTreatments:On]', 'Option [LocationBy:0]', 'Option [ViewColors:Off]', 'Option [SectionedSpine:Off]', 'Option [PropertySets:On]', 'Option [Export all:Off]'),'2;1');
FILE_NAME('b_95_Qty_1.ifc','2026-05-16T11:53:18',('GIOVANNIPC\\gcorrea'),('Structural Designer'),'IFC Database version: Work','Tekla Structures 2020 Service Pack 5, IFC Export Version: 4.0.0.0 Dec  7 2020','');
FILE_SCHEMA(('IFC2X3'));
ENDSEC;

DATA;
#1= IFCPERSON('GIOVANNIPC\\gcorrea','Undefined',$,$,$,$,$,$);
#2= IFCORGANIZATION($,'Trimble Solutions Corporation',$,$,$);
#3= IFCPERSONANDORGANIZATION(#1,#2,$);
#4= IFCAPPLICATION(#2,'2020 Service Pack 5','Tekla Structures','Multi material modeling');
#5= IFCOWNERHISTORY(#3,#4,$,.NOCHANGE.,$,$,$,1778950398);
#6= IFCCARTESIANPOINT((0.,0.,0.));
#7= IFCDIRECTION((1.,0.,0.));
#8= IFCDIRECTION((0.,1.,0.));
#9= IFCDIRECTION((0.,0.,1.));
#10= IFCAXIS2PLACEMENT3D(#6,#9,#7);
#11= IFCGEOMETRICREPRESENTATIONCONTEXT($,'Model',3,1.E-05,#10,$);
#12= IFCGEOMETRICREPRESENTATIONSUBCONTEXT('Body','Model',*,*,*,*,#11,$,.MODEL_VIEW.,$);
#13= IFCGEOMETRICREPRESENTATIONSUBCONTEXT('Axis','Model',*,*,*,*,#11,$,.GRAPH_VIEW.,$);
#14= IFCGEOMETRICREPRESENTATIONSUBCONTEXT('FootPrint','Model',*,*,*,*,#11,$,.MODEL_VIEW.,$);
#15= IFCSIUNIT(*,.LENGTHUNIT.,.MILLI.,.METRE.);
#16= IFCMEASUREWITHUNIT(IFCRATIOMEASURE(304.8),#15);
#17= IFCDIMENSIONALEXPONENTS(1,0,0,0,0,0,0);
#18= IFCCONVERSIONBASEDUNIT(#17,.LENGTHUNIT.,'FOOT',#16);
#19= IFCSIUNIT(*,.AREAUNIT.,$,.SQUARE_METRE.);
#20= IFCMEASUREWITHUNIT(IFCRATIOMEASURE(0.09290304),#19);
#21= IFCDIMENSIONALEXPONENTS(2,0,0,0,0,0,0);
#22= IFCCONVERSIONBASEDUNIT(#21,.AREAUNIT.,'SQUARE FOOT',#20);
#23= IFCSIUNIT(*,.VOLUMEUNIT.,$,.CUBIC_METRE.);
#24= IFCMEASUREWITHUNIT(IFCRATIOMEASURE(0.028316846592),#23);
#25= IFCDIMENSIONALEXPONENTS(3,0,0,0,0,0,0);
#26= IFCCONVERSIONBASEDUNIT(#25,.VOLUMEUNIT.,'CUBIC FOOT',#24);
#27= IFCSIUNIT(*,.MASSUNIT.,.KILO.,.GRAM.);
#28= IFCSIUNIT(*,.TIMEUNIT.,$,.SECOND.);
#29= IFCSIUNIT(*,.PLANEANGLEUNIT.,$,.RADIAN.);
#30= IFCMEASUREWITHUNIT(IFCRATIOMEASURE(0.0174532925199433),#29);
#31= IFCDIMENSIONALEXPONENTS(0,0,0,0,0,0,0);
#32= IFCCONVERSIONBASEDUNIT(#31,.PLANEANGLEUNIT.,'DEGREE',#30);
#33= IFCSIUNIT(*,.SOLIDANGLEUNIT.,$,.STERADIAN.);
#34= IFCSIUNIT(*,.THERMODYNAMICTEMPERATUREUNIT.,$,.DEGREE_CELSIUS.);
#35= IFCSIUNIT(*,.LUMINOUSINTENSITYUNIT.,$,.LUMEN.);
#36= IFCUNITASSIGNMENT((#15,#19,#23,#27,#28,#29,#33,#34,#35));
#37= IFCPROJECT('2G7ZFDNE16yBDU14FA92Me',#5,'Proyecto',$,$,$,$,(#11),#36);
#38= IFCLOCALPLACEMENT($,#10);
#39= IFCSITE('2xvEzEinjBTea80yOTcujY',#5,'Obra',$,$,#38,$,$,.ELEMENT.,$,$,$,$,$);
#40= IFCLOCALPLACEMENT(#38,#10);
#41= IFCBUILDING('3CtXILCYf5o9qmCchKwn_C',#5,'Undefined',$,$,#40,$,$,.ELEMENT.,$,$,$);
#42= IFCLOCALPLACEMENT(#40,#10);
#43= IFCBUILDINGSTOREY('29hdEUCErFze9E_VIAceOd',#5,'Undefined',$,$,#42,$,$,.ELEMENT.,0.);
#44= IFCOWNERHISTORY(#3,#4,$,.NOCHANGE.,$,$,$,1773068400);
#45= IFCCARTESIANPOINT((68032.8023651962,18562.9959764974,13780.));
#46= IFCDIRECTION((0.999999999998702,1.61099999973693E-06,0.));
#47= IFCAXIS2PLACEMENT3D(#45,#9,#46);
#48= IFCLOCALPLACEMENT(#42,#47);
#49= IFCDIRECTION((1.,0.));
#50= IFCCARTESIANPOINT((0.,0.));
#51= IFCAXIS2PLACEMENT2D(#50,#49);
#52= IFCISHAPEPROFILEDEF(.AREA.,'IPE240',#51,120.,240.,6.199999809,9.800000191,15.);
#53= IFCDIRECTION((0.,-1.,0.));
#54= IFCDIRECTION((-1.,0.,0.));
#55= IFCCARTESIANPOINT((4147.19761348223,0.,-1.81898940354586E-12));
#56= IFCAXIS2PLACEMENT3D(#55,#54,#53);
#57= IFCEXTRUDEDAREASOLID(#52,#56,#9,4150.);
#58= IFCDIRECTION((-0.999999999998702,1.61099999968428E-06,0.));
#59= IFCCARTESIANPOINT((4147.19741821846,0.000107775900687557,-220.000000000002));
#60= IFCDIRECTION((1.61099999968428E-06,0.999999999998702,0.));
#61= IFCAXIS2PLACEMENT3D(#59,#58,#60);
#62= IFCPLANE(#61);
#63= IFCHALFSPACESOLID(#62,.T.);
#64= IFCBOOLEANCLIPPINGRESULT(.DIFFERENCE.,#57,#63);
#65= IFCDIRECTION((0.999999999998702,-1.61099999968428E-06,0.));
#66= IFCCARTESIANPOINT((-2.8034973146132,-0.000107775900687557,-220.000000000002));
#67= IFCDIRECTION((-1.61099999968428E-06,-0.999999999998702,0.));
#68= IFCAXIS2PLACEMENT3D(#66,#65,#67);
#69= IFCPLANE(#68);
#70= IFCHALFSPACESOLID(#69,.T.);
#71= IFCBOOLEANCLIPPINGRESULT(.DIFFERENCE.,#64,#70);
#72= IFCSHAPEREPRESENTATION(#12,'Body','Clipping',(#71));
#73= IFCPRODUCTDEFINITIONSHAPE($,$,(#72));
#74= IFCBEAM('20zyOAXuP11A$eez_V4cGl',#44,'BEAM','IPE240','IPE240',#48,#73,'ID80f7c60a-8786-4104-afe8-a3df9f12642f');
#75= IFCLOCALPLACEMENT(#42,#47);
#76= IFCRECTANGLEPROFILEDEF(.AREA.,'PL25.8*68.9',#51,25.8,68.9);
#77= IFCDIRECTION((0.,0.,-1.));
#78= IFCCARTESIANPOINT((-37.2535956331637,-60.9999445011253,-108.099999904502));
#79= IFCAXIS2PLACEMENT3D(#78,#60,#77);
#80= IFCEXTRUDEDAREASOLID(#76,#79,#9,122.01);
#81= IFCSHAPEREPRESENTATION(#12,'Body','SweptSolid',(#80));
#82= IFCPRODUCTDEFINITIONSHAPE($,$,(#81));
#83= IFCOPENINGELEMENT('09yba62G1FKOJXlyANyBpb',#5,$,$,'Recess',#75,#82,$);
#84= IFCRELVOIDSELEMENT('2JlaGO9OT13elnEgZtrLLn',#5,$,$,#74,#83);
#85= IFCPROPERTYSINGLEVALUE('FeatureSubTypes',$,$,$);
#86= IFCPROPERTYSINGLEVALUE('RectangleOpeningWidth',$,IFCPOSITIVELENGTHMEASURE(25.8),$);
#87= IFCPROPERTYSINGLEVALUE('RectangleOpeningHeight',$,IFCPOSITIVELENGTHMEASURE(68.9),$);
#88= IFCPROPERTYSINGLEVALUE('OpeningDiameter',$,$,$);
#89= IFCPROPERTYSET('3mFTIiQlD8Y9UJZuXxbqC6',#5,'AISC_EM11_Pset_Opening/Cope',$,(#85,#86,#87,#88));
#90= IFCLOCALPLACEMENT(#42,#47);
#91= IFCCARTESIANPOINT((-37.2535956331637,-60.9999445011253,108.099999904498));
#92= IFCAXIS2PLACEMENT3D(#91,#60,#77);
#93= IFCEXTRUDEDAREASOLID(#76,#92,#9,122.01);
#94= IFCSHAPEREPRESENTATION(#12,'Body','SweptSolid',(#93));
#95= IFCPRODUCTDEFINITIONSHAPE($,$,(#94));
#96= IFCOPENINGELEMENT('3xPsE4CfPBbODMemAaj_5i',#5,$,$,'Recess',#90,#95,$);
#97= IFCRELVOIDSELEMENT('2X_KGoUyX2kPY8xRI6koIw',#5,$,$,#74,#96);
#98= IFCLOCALPLACEMENT(#42,#47);
#99= IFCCARTESIANPOINT((4181.64751653698,60.9999444964796,-108.099999904502));
#100= IFCAXIS2PLACEMENT3D(#99,#67,#77);
#101= IFCEXTRUDEDAREASOLID(#76,#100,#9,122.01);
#102= IFCSHAPEREPRESENTATION(#12,'Body','SweptSolid',(#101));
#103= IFCPRODUCTDEFINITIONSHAPE($,$,(#102));
#104= IFCOPENINGELEMENT('3qqY0hy9HBY8iBaVUsrjiv',#5,$,$,'Recess',#98,#103,$);
#105= IFCRELVOIDSELEMENT('2e7G9CMTD76RoqEqT0ZdRO',#5,$,$,#74,#104);
#106= IFCLOCALPLACEMENT(#42,#47);
#107= IFCCARTESIANPOINT((4181.64751653698,60.9999444964796,108.099999904498));
#108= IFCAXIS2PLACEMENT3D(#107,#67,#77);
#109= IFCEXTRUDEDAREASOLID(#76,#108,#9,122.01);
#110= IFCSHAPEREPRESENTATION(#12,'Body','SweptSolid',(#109));
#111= IFCPRODUCTDEFINITIONSHAPE($,$,(#110));
#112= IFCOPENINGELEMENT('0GTARoVEv2BgmXIaAdxspH',#5,$,$,'Recess',#106,#111,$);
#113= IFCRELVOIDSELEMENT('1LvjuROqb9dRUwqxD9TaqF',#5,$,$,#74,#112);
#114= IFCCARTESIANPOINT((68029.9988678818,18562.9958642051,13890.199999809));
#115= IFCAXIS2PLACEMENT3D(#114,#7,#77);
#116= IFCLOCALPLACEMENT(#42,#115);
#117= IFCCIRCLEPROFILEDEF(.AREA.,$,#51,9.5);
#118= IFCCARTESIANPOINT((0.,-3.19981157866056,0.));
#119= IFCAXIS2PLACEMENT3D(#118,#8,#7);
#120= IFCEXTRUDEDAREASOLID(#117,#119,#9,6.4);
#121= IFCSHAPEREPRESENTATION(#12,'Body','SweptSolid',(#120));
#122= IFCREPRESENTATIONMAP(#10,#121);
#123= IFCCARTESIANPOINT((170.199996948242,0.,50.));
#124= IFCCARTESIANTRANSFORMATIONOPERATOR3D($,$,#123,$,$);
#125= IFCMAPPEDITEM(#122,#124);
#126= IFCCARTESIANPOINT((110.199996948242,0.,50.));
#127= IFCCARTESIANTRANSFORMATIONOPERATOR3D($,$,#126,$,$);
#128= IFCMAPPEDITEM(#122,#127);
#129= IFCCARTESIANPOINT((50.2000007629395,0.,50.));
#130= IFCCARTESIANTRANSFORMATIONOPERATOR3D($,$,#129,$,$);
#131= IFCMAPPEDITEM(#122,#130);
#132= IFCSHAPEREPRESENTATION(#12,'Body','MappedRepresentation',(#125,#128,#131));
#133= IFCPRODUCTDEFINITIONSHAPE($,$,(#132));
#134= IFCOPENINGELEMENT('2oRHrkJWrE49DlusVIowBV',#5,$,$,'Opening',#116,#133,$);
#135= IFCRELVOIDSELEMENT('2ternkVPn5pQ$h9oegOqlF',#5,'Drill Hole',$,#74,#134);
#136= IFCPROPERTYSINGLEVALUE('FeatureSubTypes',$,IFCLABEL('TORNILLO'),$);
#137= IFCPROPERTYSINGLEVALUE('RectangleOpeningWidth',$,$,$);
#138= IFCPROPERTYSINGLEVALUE('RectangleOpeningHeight',$,$,$);
#139= IFCPROPERTYSET('2mHTLy6IjDzf$X1pVFbD0X',#5,'AISC_EM11_Pset_Opening/Cope',$,(#136,#137,#138,#88));
#140= IFCCARTESIANPOINT((72179.9997834091,18563.0027654083,13890.199999809));
#141= IFCAXIS2PLACEMENT3D(#140,#54,#77);
#142= IFCLOCALPLACEMENT(#42,#141);
#143= IFCSHAPEREPRESENTATION(#12,'Body','MappedRepresentation',(#125,#128,#131));
#144= IFCPRODUCTDEFINITIONSHAPE($,$,(#143));
#145= IFCOPENINGELEMENT('0WLGB9R098DBiCWnIKRUjy',#5,$,$,'Opening',#142,#144,$);
#146= IFCRELVOIDSELEMENT('2uB7_ZrLn7xAPk1jvsjJLf',#5,'Drill Hole',$,#74,#145);
#147= IFCPROPERTYSINGLEVALUE('PieceMark',$,IFCIDENTIFIER('BEAM'),$);
#148= IFCPROPERTYSINGLEVALUE('IndicationMark',$,IFCIDENTIFIER('b/95'),$);
#149= IFCPROPERTYSINGLEVALUE('PrelimMark',$,IFCIDENTIFIER(''),$);
#150= IFCPROPERTYSINGLEVALUE('MainPieceTag',$,IFCBOOLEAN(.T.),$);
#151= IFCPROPERTYSET('1SygPmrBv7Bx8u8kXTlagb',#5,'AISC_EM11_Pset_PieceIdentification','PieceIdentity',(#147,#148,#149,#150));
#152= IFCPROPERTYSINGLEVALUE('MaterialType',$,IFCIDENTIFIER('STEEL'),$);
#153= IFCPROPERTYSINGLEVALUE('MaterialGrade',$,IFCIDENTIFIER('S235JR'),$);
#154= IFCPROPERTYSET('1A6QQQ_c1CCesrEz817SZq',#5,'AISC_EM11_Pset_Material',$,(#152,#153));
#155= IFCPROPERTYSINGLEVALUE('SkewedAngleY',$,IFCREAL(0.),$);
#156= IFCPROPERTYSINGLEVALUE('SkewedAngleX',$,IFCREAL(9.E-05),$);
#157= IFCPROPERTYSET('0QjBNtbj1FRxHmrB1chrzS',#5,'AISC_EM11_Pset_SkewedEnd',$,(#155,#156));
#158= IFCPROPERTYSET('2HzEFfDir2fBnjhu4fuN2Z',#5,'AISC_EM11_Pset_SkewedEnd_2',$,(#155,#156));
#159= IFCMATERIAL('STEEL/S235JR');
#160= IFCRELAGGREGATES('1t8Y2k3Nb5f9OTeCMRWZbF',#5,$,$,#37,(#39));
#161= IFCRELAGGREGATES('29QqK0LftNxRglwUejortX',#5,$,$,#39,(#41));
#162= IFCRELAGGREGATES('1W1BPp87PFSAttcXRrxQyU',#5,$,$,#41,(#43));
#163= IFCRELCONTAINEDINSPATIALSTRUCTURE('2eUDnGibDDv95QHFs8j2Bf',#5,$,$,(#74),#43);
#164= IFCRELDEFINESBYPROPERTIES('1bBkwBgn5AqAx74lwcPSKe',#5,$,$,(#112,#104,#96,#83),#89);
#165= IFCRELDEFINESBYPROPERTIES('2kdUj4fmn7$AOzkQL6jVmG',#5,$,$,(#145,#134),#139);
#166= IFCRELDEFINESBYPROPERTIES('2FixEijJb3qOa8VsPrIhhU',#5,$,$,(#74),#151);
#167= IFCRELDEFINESBYPROPERTIES('3CukfvOA15eQJ2_TW7T4e4',#5,$,$,(#74),#154);
#168= IFCRELDEFINESBYPROPERTIES('3dLeKxP29C9hK5Ns7xOn4C',#5,$,$,(#74),#157);
#169= IFCRELDEFINESBYPROPERTIES('1$Wa2mnYb3EAWwY$vkzM87',#5,$,$,(#74),#158);
#170= IFCRELASSOCIATESMATERIAL('2zRnAb3rP4hQ_L3TYaDf4r',#5,$,$,(#74),#159);
ENDSEC;

END-ISO-10303-21;
