ISO-10303-21;
HEADER;
FILE_DESCRIPTION(('ViewDefinition[AISC_Steel_Detailing]', 'Option [BaseQuantities:Off]', 'Option [GridExport:On]', 'Option [Assemblies:Off]', 'Option [Bolts:On]', 'Option [Rebars:On]', 'Option [PourObjects:Off]', 'Option [Welds:On]', 'Option [SurfaceTreatments:On]', 'Option [LocationBy:0]', 'Option [ViewColors:Off]', 'Option [SectionedSpine:Off]', 'Option [PropertySets:On]', 'Option [Export all:Off]'),'2;1');
FILE_NAME('b_977_Qty_1.ifc','2026-05-16T11:52:58',('GIOVANNIPC\\gcorrea'),('Structural Designer'),'IFC Database version: Work','Tekla Structures 2020 Service Pack 5, IFC Export Version: 4.0.0.0 Dec  7 2020','');
FILE_SCHEMA(('IFC2X3'));
ENDSEC;

DATA;
#1= IFCPERSON('GIOVANNIPC\\gcorrea','Undefined',$,$,$,$,$,$);
#2= IFCORGANIZATION($,'Trimble Solutions Corporation',$,$,$);
#3= IFCPERSONANDORGANIZATION(#1,#2,$);
#4= IFCAPPLICATION(#2,'2020 Service Pack 5','Tekla Structures','Multi material modeling');
#5= IFCOWNERHISTORY(#3,#4,$,.NOCHANGE.,$,$,$,1778950378);
#6= IFCCARTESIANPOINT((0.,0.,0.));
#7= IFCDIRECTION((1.,0.,0.));
#8= IFCDIRECTION((0.,1.,0.));
#9= IFCDIRECTION((0.,0.,1.));
#10= IFCAXIS2PLACEMENT3D(#6,#9,#7);
#11= IFCGEOMETRICREPRESENTATIONCONTEXT($,'Model',3,1.E-05,#10,$);
#12= IFCGEOMETRICREPRESENTATIONSUBCONTEXT('Body','Model',*,*,*,*,#11,$,.MODEL_VIEW.,$);
#13= IFCGEOMETRICREPRESENTATIONSUBCONTEXT('Axis','Model',*,*,*,*,#11,$,.GRAPH_VIEW.,$);
#14= IFCGEOMETRICREPRESENTATIONSUBCONTEXT('FootPrint','Model',*,*,*,*,#11,$,.MODEL_VIEW.,$);
#15= IFCSIUNIT(*,.LENGTHUNIT.,.MILLI.,.METRE.);
#16= IFCMEASUREWITHUNIT(IFCRATIOMEASURE(304.8),#15);
#17= IFCDIMENSIONALEXPONENTS(1,0,0,0,0,0,0);
#18= IFCCONVERSIONBASEDUNIT(#17,.LENGTHUNIT.,'FOOT',#16);
#19= IFCSIUNIT(*,.AREAUNIT.,$,.SQUARE_METRE.);
#20= IFCMEASUREWITHUNIT(IFCRATIOMEASURE(0.09290304),#19);
#21= IFCDIMENSIONALEXPONENTS(2,0,0,0,0,0,0);
#22= IFCCONVERSIONBASEDUNIT(#21,.AREAUNIT.,'SQUARE FOOT',#20);
#23= IFCSIUNIT(*,.VOLUMEUNIT.,$,.CUBIC_METRE.);
#24= IFCMEASUREWITHUNIT(IFCRATIOMEASURE(0.028316846592),#23);
#25= IFCDIMENSIONALEXPONENTS(3,0,0,0,0,0,0);
#26= IFCCONVERSIONBASEDUNIT(#25,.VOLUMEUNIT.,'CUBIC FOOT',#24);
#27= IFCSIUNIT(*,.MASSUNIT.,.KILO.,.GRAM.);
#28= IFCSIUNIT(*,.TIMEUNIT.,$,.SECOND.);
#29= IFCSIUNIT(*,.PLANEANGLEUNIT.,$,.RADIAN.);
#30= IFCMEASUREWITHUNIT(IFCRATIOMEASURE(0.0174532925199433),#29);
#31= IFCDIMENSIONALEXPONENTS(0,0,0,0,0,0,0);
#32= IFCCONVERSIONBASEDUNIT(#31,.PLANEANGLEUNIT.,'DEGREE',#30);
#33= IFCSIUNIT(*,.SOLIDANGLEUNIT.,$,.STERADIAN.);
#34= IFCSIUNIT(*,.THERMODYNAMICTEMPERATUREUNIT.,$,.DEGREE_CELSIUS.);
#35= IFCSIUNIT(*,.LUMINOUSINTENSITYUNIT.,$,.LUMEN.);
#36= IFCUNITASSIGNMENT((#15,#19,#23,#27,#28,#29,#33,#34,#35));
#37= IFCPROJECT('2G7ZFDNE16yBDU14FA92Me',#5,'Proyecto',$,$,$,$,(#11),#36);
#38= IFCLOCALPLACEMENT($,#10);
#39= IFCSITE('2xvEzEinjBTea80yOTcujY',#5,'Obra',$,$,#38,$,$,.ELEMENT.,$,$,$,$,$);
#40= IFCLOCALPLACEMENT(#38,#10);
#41= IFCBUILDING('1wn3FMHmD0Yu7WcYB$Vkmx',#5,'Undefined',$,$,#40,$,$,.ELEMENT.,$,$,$);
#42= IFCLOCALPLACEMENT(#40,#10);
#43= IFCBUILDINGSTOREY('29hdEUCErFze9E_VIAceOd',#5,'Undefined',$,$,#42,$,$,.ELEMENT.,0.);
#44= IFCOWNERHISTORY(#3,#4,$,.NOCHANGE.,$,$,$,1777921200);
#45= IFCCARTESIANPOINT((25688.7433643556,7670.22536865723,13680.));
#46= IFCAXIS2PLACEMENT3D(#45,#9,#8);
#47= IFCLOCALPLACEMENT(#42,#46);
#48= IFCDIRECTION((1.,0.));
#49= IFCCARTESIANPOINT((0.,0.));
#50= IFCAXIS2PLACEMENT2D(#49,#48);
#51= IFCISHAPEPROFILEDEF(.AREA.,'HEA450',#50,300.,440.,11.5,21.,27.);
#52= IFCDIRECTION((0.,-1.,0.));
#53= IFCDIRECTION((-1.,0.,0.));
#54= IFCCARTESIANPOINT((495.069085652133,0.,0.));
#55= IFCAXIS2PLACEMENT3D(#54,#53,#52);
#56= IFCEXTRUDEDAREASOLID(#51,#55,#9,481.39);
#57= IFCCARTESIANPOINT((495.069085646325,0.,1000.));
#58= IFCAXIS2PLACEMENT3D(#57,#7,#8);
#59= IFCPLANE(#58);
#60= IFCHALFSPACESOLID(#59,.F.);
#61= IFCBOOLEANCLIPPINGRESULT(.DIFFERENCE.,#56,#60);
#62= IFCCARTESIANPOINT((13.6792812651256,1000.,0.));
#63= IFCDIRECTION((0.,0.,-1.));
#64= IFCAXIS2PLACEMENT3D(#62,#7,#63);
#65= IFCPLANE(#64);
#66= IFCHALFSPACESOLID(#65,.T.);
#67= IFCBOOLEANCLIPPINGRESULT(.DIFFERENCE.,#61,#66);
#68= IFCSHAPEREPRESENTATION(#12,'Body','Clipping',(#67));
#69= IFCPRODUCTDEFINITIONSHAPE($,$,(#68));
#70= IFCBEAM('3qiFP1ytf0lROq2kSYIkHk',#44,'BEAM','HEA450','HEA450',#47,#69,'IDf4b0f641-f37a-40bd-b634-0ae7224ae46e');
#71= IFCLOCALPLACEMENT(#42,#46);
#72= IFCDIRECTION((-0.707106781187115,0.70710678118598));
#73= IFCCARTESIANPOINT((5.93969678879375,5.9396967887951));
#74= IFCAXIS2PLACEMENT2D(#73,#72);
#75= IFCCIRCLE(#74,8.4);
#76= IFCTRIMMEDCURVE(#75,(IFCPARAMETERVALUE(0.)),(IFCPARAMETERVALUE(3.14159265358857)),.T.,.PARAMETER.);
#77= IFCCOMPOSITECURVESEGMENT(.CONTINUOUS.,.T.,#76);
#78= IFCCARTESIANPOINT((11.8793935775802,3.62021523869771E-12));
#79= IFCCARTESIANPOINT((0.,11.8793935775793));
#80= IFCPOLYLINE((#78,#79));
#81= IFCCOMPOSITECURVESEGMENT(.CONTINUOUS.,.T.,#80);
#82= IFCCOMPOSITECURVE((#77,#81),.T.);
#83= IFCARBITRARYCLOSEDPROFILEDEF(.AREA.,'PL66.7*14',#82);
#84= IFCDIRECTION((0.707106781186509,-9.99882728126328E-10,-0.707106781186586));
#85= IFCCARTESIANPOINT((347.819085599164,-33.3499998526837,-190.600000000003));
#86= IFCAXIS2PLACEMENT3D(#85,#8,#84);
#87= IFCEXTRUDEDAREASOLID(#83,#86,#9,66.7);
#88= IFCSHAPEREPRESENTATION(#12,'Body','SweptSolid',(#87));
#89= IFCPRODUCTDEFINITIONSHAPE($,$,(#88));
#90= IFCOPENINGELEMENT('1Ygntv9Lr4V9DhECd1Dvps',#5,$,$,'Recess',#71,#89,$);
#91= IFCRELVOIDSELEMENT('1sJDUK9vD2rO9uVvi4vBwF',#5,$,$,#70,#90);
#92= IFCPROPERTYSINGLEVALUE('FeatureSubTypes',$,$,$);
#93= IFCPROPERTYSINGLEVALUE('RectangleOpeningWidth',$,IFCPOSITIVELENGTHMEASURE(66.7),$);
#94= IFCPROPERTYSINGLEVALUE('RectangleOpeningHeight',$,IFCPOSITIVELENGTHMEASURE(66.7),$);
#95= IFCPROPERTYSINGLEVALUE('OpeningDiameter',$,$,$);
#96= IFCPROPERTYSET('06_BNzMsv8LvLhS1Gs1DiT',#5,'AISC_EM11_Pset_Opening/Cope',$,(#92,#93,#94,#95));
#97= IFCLOCALPLACEMENT(#42,#46);
#98= IFCCARTESIANPOINT((15.8391914367749,-3.63797880709171E-12));
#99= IFCCARTESIANPOINT((7.91959571838743,7.91959571838652));
#100= IFCPOLYLINE((#49,#98,#99,#49));
#101= IFCARBITRARYCLOSEDPROFILEDEF(.AREA.,'PL66.7*11',#100);
#102= IFCDIRECTION((0.707106781186548,-1.00003584952447E-09,0.707106781186548));
#103= IFCCARTESIANPOINT((484.369085599161,-33.349999992302,-199.500000000001));
#104= IFCAXIS2PLACEMENT3D(#103,#8,#102);
#105= IFCEXTRUDEDAREASOLID(#101,#104,#9,66.7);
#106= IFCSHAPEREPRESENTATION(#12,'Body','SweptSolid',(#105));
#107= IFCPRODUCTDEFINITIONSHAPE($,$,(#106));
#108= IFCOPENINGELEMENT('3NjWX5LOL88BkIex40jhTh',#5,$,$,'Recess',#97,#107,$);
#109= IFCRELVOIDSELEMENT('3FQsEU$h5Aexio9LBMA513',#5,$,$,#70,#108);
#110= IFCLOCALPLACEMENT(#42,#46);
#111= IFCDIRECTION((-0.707106781186764,-0.707106781186331));
#112= IFCAXIS2PLACEMENT2D(#73,#111);
#113= IFCCIRCLE(#112,8.4);
#114= IFCTRIMMEDCURVE(#113,(IFCPARAMETERVALUE(0.)),(IFCPARAMETERVALUE(3.1415926535904)),.T.,.PARAMETER.);
#115= IFCCOMPOSITECURVESEGMENT(.CONTINUOUS.,.T.,#114);
#116= IFCCARTESIANPOINT((11.8793935775793,11.8793935775793));
#117= IFCPOLYLINE((#116,#49));
#118= IFCCOMPOSITECURVESEGMENT(.CONTINUOUS.,.T.,#117);
#119= IFCCOMPOSITECURVE((#115,#118),.T.);
#120= IFCARBITRARYCLOSEDPROFILEDEF(.AREA.,'PL66.7*14',#119);
#121= IFCDIRECTION((-0.707106781186509,9.99882728126328E-10,-0.707106781186586));
#122= IFCCARTESIANPOINT((356.219085599164,-33.3499998610874,199.000000000003));
#123= IFCAXIS2PLACEMENT3D(#122,#8,#121);
#124= IFCEXTRUDEDAREASOLID(#120,#123,#9,66.7);
#125= IFCSHAPEREPRESENTATION(#12,'Body','SweptSolid',(#124));
#126= IFCPRODUCTDEFINITIONSHAPE($,$,(#125));
#127= IFCOPENINGELEMENT('3Wn$CNKzz2vAzbRPfYu9MA',#5,$,$,'Recess',#110,#126,$);
#128= IFCRELVOIDSELEMENT('2$xO$$cd14dQQJL$c0TM9M',#5,$,$,#70,#127);
#129= IFCLOCALPLACEMENT(#42,#46);
#130= IFCDIRECTION((-0.707106781186548,1.00003584952447E-09,0.707106781186548));
#131= IFCCARTESIANPOINT((495.56908559916,-33.350000003507,188.3));
#132= IFCAXIS2PLACEMENT3D(#131,#8,#130);
#133= IFCEXTRUDEDAREASOLID(#101,#132,#9,66.7);
#134= IFCSHAPEREPRESENTATION(#12,'Body','SweptSolid',(#133));
#135= IFCPRODUCTDEFINITIONSHAPE($,$,(#134));
#136= IFCOPENINGELEMENT('1II$8NvuDDXf9RfAuHuBSz',#5,$,$,'Recess',#129,#135,$);
#137= IFCRELVOIDSELEMENT('1M4VIBmxv2Vu2udc1EUT$D',#5,$,$,#70,#136);
#138= IFCLOCALPLACEMENT(#42,#46);
#139= IFCRECTANGLEPROFILEDEF(.AREA.,'PL27.2*150',#50,27.2,150.);
#140= IFCCARTESIANPOINT((422.819085798259,152.000000072283,-208.4));
#141= IFCAXIS2PLACEMENT3D(#140,#52,#63);
#142= IFCEXTRUDEDAREASOLID(#139,#141,#9,304.);
#143= IFCSHAPEREPRESENTATION(#12,'Body','SweptSolid',(#142));
#144= IFCPRODUCTDEFINITIONSHAPE($,$,(#143));
#145= IFCOPENINGELEMENT('2TEBRUqwL1HQQyVCreyDW7',#5,$,$,'Recess',#138,#144,$);
#146= IFCRELVOIDSELEMENT('0O4zLEopf0AQMmXD1cn2eD',#5,$,$,#70,#145);
#147= IFCPROPERTYSINGLEVALUE('RectangleOpeningWidth',$,IFCPOSITIVELENGTHMEASURE(27.2),$);
#148= IFCPROPERTYSINGLEVALUE('RectangleOpeningHeight',$,IFCPOSITIVELENGTHMEASURE(150.),$);
#149= IFCPROPERTYSET('3WtizzNaT3Uhg48LhuRdqP',#5,'AISC_EM11_Pset_Opening/Cope',$,(#92,#147,#148,#95));
#150= IFCLOCALPLACEMENT(#42,#46);
#151= IFCCARTESIANPOINT((422.819085798258,152.000000072283,208.4));
#152= IFCAXIS2PLACEMENT3D(#151,#52,#63);
#153= IFCEXTRUDEDAREASOLID(#139,#152,#9,304.);
#154= IFCSHAPEREPRESENTATION(#12,'Body','SweptSolid',(#153));
#155= IFCPRODUCTDEFINITIONSHAPE($,$,(#154));
#156= IFCOPENINGELEMENT('012ERvea9C3OyTQt0KwaHa',#5,$,$,'Recess',#150,#155,$);
#157= IFCRELVOIDSELEMENT('0UOQV9Z$n0488zym9cUizI',#5,$,$,#70,#156);
#158= IFCPROPERTYSINGLEVALUE('PieceMark',$,IFCIDENTIFIER('BEAM'),$);
#159= IFCPROPERTYSINGLEVALUE('IndicationMark',$,IFCIDENTIFIER('b/977'),$);
#160= IFCPROPERTYSINGLEVALUE('PrelimMark',$,IFCIDENTIFIER(''),$);
#161= IFCPROPERTYSINGLEVALUE('MainPieceTag',$,IFCBOOLEAN(.F.),$);
#162= IFCPROPERTYSET('3cVDPoR_H7zR6hT_e_ZIxt',#5,'AISC_EM11_Pset_PieceIdentification','PieceIdentity',(#158,#159,#160,#161));
#163= IFCPROPERTYSINGLEVALUE('MaterialType',$,IFCIDENTIFIER('STEEL'),$);
#164= IFCPROPERTYSINGLEVALUE('MaterialGrade',$,IFCIDENTIFIER('S235JR'),$);
#165= IFCPROPERTYSET('3TOuf69g51VenLVnY_Tml8',#5,'AISC_EM11_Pset_Material',$,(#163,#164));
#166= IFCPROPERTYSINGLEVALUE('SkewedAngleY',$,IFCREAL(0.),$);
#167= IFCPROPERTYSINGLEVALUE('SkewedAngleX',$,IFCREAL(0.),$);
#168= IFCPROPERTYSET('1sf_Rzj$D8P8slq1UiAsZJ',#5,'AISC_EM11_Pset_SkewedEnd',$,(#166,#167));
#169= IFCPROPERTYSET('0HITygWQ11o8vMKpc94TsQ',#5,'AISC_EM11_Pset_SkewedEnd_2',$,(#166,#167));
#170= IFCMATERIAL('STEEL/S235JR');
#171= IFCRELAGGREGATES('1FXlFGJDPBO9lzHM3oBxag',#5,$,$,#37,(#39));
#172= IFCRELAGGREGATES('2Xp1XYbVhTgR1FZeL4TDsy',#5,$,$,#39,(#41));
#173= IFCRELAGGREGATES('20bdc_jtPDxhLADm5BJImN',#5,$,$,#41,(#43));
#174= IFCRELCONTAINEDINSPATIALSTRUCTURE('26bvQP0CP0AunM0Ho2MS_K',#5,$,$,(#70),#43);
#175= IFCRELDEFINESBYPROPERTIES('18rucSfYD3TesVAgKKk75k',#5,$,$,(#136,#127,#108,#90),#96);
#176= IFCRELDEFINESBYPROPERTIES('3mhOhmPp9EaB4z_nNIlhdB',#5,$,$,(#156,#145),#149);
#177= IFCRELDEFINESBYPROPERTIES('2w6pq9T1H30vZBo_MEy0TY',#5,$,$,(#70),#162);
#178= IFCRELDEFINESBYPROPERTIES('364dMPyw9BmQ9trfGWhWa7',#5,$,$,(#70),#165);
#179= IFCRELDEFINESBYPROPERTIES('1FJqqJ6_X5IOmJRU8u8jK3',#5,$,$,(#70),#168);
#180= IFCRELDEFINESBYPROPERTIES('0zqIN59lb3_OAaZogV2xO8',#5,$,$,(#70),#169);
#181= IFCRELASSOCIATESMATERIAL('0I7xdcQZz1GOFcunjuRn97',#5,$,$,(#70),#170);
ENDSEC;

END-ISO-10303-21;
