ISO-10303-21;
HEADER;
FILE_DESCRIPTION(('ViewDefinition[AISC_Steel_Detailing]', 'Option [BaseQuantities:Off]', 'Option [GridExport:On]', 'Option [Assemblies:Off]', 'Option [Bolts:On]', 'Option [Rebars:On]', 'Option [PourObjects:Off]', 'Option [Welds:On]', 'Option [SurfaceTreatments:On]', 'Option [LocationBy:0]', 'Option [ViewColors:Off]', 'Option [SectionedSpine:Off]', 'Option [PropertySets:On]', 'Option [Export all:Off]'),'2;1');
FILE_NAME('b_997_Qty_1.ifc','2026-05-16T11:53:11',('GIOVANNIPC\\gcorrea'),('Structural Designer'),'IFC Database version: Work','Tekla Structures 2020 Service Pack 5, IFC Export Version: 4.0.0.0 Dec  7 2020','');
FILE_SCHEMA(('IFC2X3'));
ENDSEC;

DATA;
#1= IFCPERSON('GIOVANNIPC\\gcorrea','Undefined',$,$,$,$,$,$);
#2= IFCORGANIZATION($,'Trimble Solutions Corporation',$,$,$);
#3= IFCPERSONANDORGANIZATION(#1,#2,$);
#4= IFCAPPLICATION(#2,'2020 Service Pack 5','Tekla Structures','Multi material modeling');
#5= IFCOWNERHISTORY(#3,#4,$,.NOCHANGE.,$,$,$,1778950391);
#6= IFCCARTESIANPOINT((0.,0.,0.));
#7= IFCDIRECTION((1.,0.,0.));
#8= IFCDIRECTION((0.,1.,0.));
#9= IFCDIRECTION((0.,0.,1.));
#10= IFCAXIS2PLACEMENT3D(#6,#9,#7);
#11= IFCGEOMETRICREPRESENTATIONCONTEXT($,'Model',3,1.E-05,#10,$);
#12= IFCGEOMETRICREPRESENTATIONSUBCONTEXT('Body','Model',*,*,*,*,#11,$,.MODEL_VIEW.,$);
#13= IFCGEOMETRICREPRESENTATIONSUBCONTEXT('Axis','Model',*,*,*,*,#11,$,.GRAPH_VIEW.,$);
#14= IFCGEOMETRICREPRESENTATIONSUBCONTEXT('FootPrint','Model',*,*,*,*,#11,$,.MODEL_VIEW.,$);
#15= IFCSIUNIT(*,.LENGTHUNIT.,.MILLI.,.METRE.);
#16= IFCMEASUREWITHUNIT(IFCRATIOMEASURE(304.8),#15);
#17= IFCDIMENSIONALEXPONENTS(1,0,0,0,0,0,0);
#18= IFCCONVERSIONBASEDUNIT(#17,.LENGTHUNIT.,'FOOT',#16);
#19= IFCSIUNIT(*,.AREAUNIT.,$,.SQUARE_METRE.);
#20= IFCMEASUREWITHUNIT(IFCRATIOMEASURE(0.09290304),#19);
#21= IFCDIMENSIONALEXPONENTS(2,0,0,0,0,0,0);
#22= IFCCONVERSIONBASEDUNIT(#21,.AREAUNIT.,'SQUARE FOOT',#20);
#23= IFCSIUNIT(*,.VOLUMEUNIT.,$,.CUBIC_METRE.);
#24= IFCMEASUREWITHUNIT(IFCRATIOMEASURE(0.028316846592),#23);
#25= IFCDIMENSIONALEXPONENTS(3,0,0,0,0,0,0);
#26= IFCCONVERSIONBASEDUNIT(#25,.VOLUMEUNIT.,'CUBIC FOOT',#24);
#27= IFCSIUNIT(*,.MASSUNIT.,.KILO.,.GRAM.);
#28= IFCSIUNIT(*,.TIMEUNIT.,$,.SECOND.);
#29= IFCSIUNIT(*,.PLANEANGLEUNIT.,$,.RADIAN.);
#30= IFCMEASUREWITHUNIT(IFCRATIOMEASURE(0.0174532925199433),#29);
#31= IFCDIMENSIONALEXPONENTS(0,0,0,0,0,0,0);
#32= IFCCONVERSIONBASEDUNIT(#31,.PLANEANGLEUNIT.,'DEGREE',#30);
#33= IFCSIUNIT(*,.SOLIDANGLEUNIT.,$,.STERADIAN.);
#34= IFCSIUNIT(*,.THERMODYNAMICTEMPERATUREUNIT.,$,.DEGREE_CELSIUS.);
#35= IFCSIUNIT(*,.LUMINOUSINTENSITYUNIT.,$,.LUMEN.);
#36= IFCUNITASSIGNMENT((#15,#19,#23,#27,#28,#29,#33,#34,#35));
#37= IFCPROJECT('2G7ZFDNE16yBDU14FA92Me',#5,'Proyecto',$,$,$,$,(#11),#36);
#38= IFCLOCALPLACEMENT($,#10);
#39= IFCSITE('2xvEzEinjBTea80yOTcujY',#5,'Obra',$,$,#38,$,$,.ELEMENT.,$,$,$,$,$);
#40= IFCLOCALPLACEMENT(#38,#10);
#41= IFCBUILDING('0kaCadXt9ETh74zlbaGLMR',#5,'Undefined',$,$,#40,$,$,.ELEMENT.,$,$,$);
#42= IFCLOCALPLACEMENT(#40,#10);
#43= IFCBUILDINGSTOREY('29hdEUCErFze9E_VIAceOd',#5,'Undefined',$,$,#42,$,$,.ELEMENT.,0.);
#44= IFCOWNERHISTORY(#3,#4,$,.NOCHANGE.,$,$,$,1775592000);
#45= IFCCARTESIANPOINT((5671.51900482178,1603.28932952881,23035.));
#46= IFCAXIS2PLACEMENT3D(#45,#9,#7);
#47= IFCLOCALPLACEMENT(#42,#46);
#48= IFCDIRECTION((1.,0.));
#49= IFCCARTESIANPOINT((0.,0.));
#50= IFCAXIS2PLACEMENT2D(#49,#48);
#51= IFCISHAPEPROFILEDEF(.AREA.,'HI1130-13-25*250',#50,250.,1130.,13.,25.,9.1);
#52= IFCDIRECTION((0.,-1.,0.));
#53= IFCDIRECTION((-1.,0.,0.));
#54= IFCCARTESIANPOINT((2615.48099517822,0.,0.));
#55= IFCAXIS2PLACEMENT3D(#54,#53,#52);
#56= IFCEXTRUDEDAREASOLID(#51,#55,#9,2615.48);
#57= IFCCARTESIANPOINT((2615.48099517822,0.,-665.));
#58= IFCAXIS2PLACEMENT3D(#57,#53,#8);
#59= IFCPLANE(#58);
#60= IFCHALFSPACESOLID(#59,.T.);
#61= IFCBOOLEANCLIPPINGRESULT(.DIFFERENCE.,#56,#60);
#62= IFCSHAPEREPRESENTATION(#12,'Body','Clipping',(#61));
#63= IFCPRODUCTDEFINITIONSHAPE($,$,(#62));
#64= IFCBEAM('0yAa1scub2$Qn8qV$kD8_S',#44,'BEAM','HI1130-13-25*250','HI1130-13-25*250',#47,#63,'ID3c2a4076-9b89-42fd-ac48-d1ffee348f9c');
#65= IFCLOCALPLACEMENT(#42,#46);
#66= IFCRECTANGLEPROFILEDEF(.AREA.,'PL138*12',#50,12.,138.);
#67= IFCDIRECTION((0.,0.,-1.));
#68= IFCCARTESIANPOINT((2621.48099517822,-57.,566.));
#69= IFCAXIS2PLACEMENT3D(#68,#67,#53);
#70= IFCEXTRUDEDAREASOLID(#66,#69,#9,1132.);
#71= IFCSHAPEREPRESENTATION(#12,'Body','SweptSolid',(#70));
#72= IFCPRODUCTDEFINITIONSHAPE($,$,(#71));
#73= IFCOPENINGELEMENT('1fOTfsiWX0BxzCpU9GuuT$',#5,$,$,'Recess',#65,#72,$);
#74= IFCRELVOIDSELEMENT('3$knaY48bFiuxuHW4ciL$K',#5,$,$,#64,#73);
#75= IFCPROPERTYSINGLEVALUE('FeatureSubTypes',$,$,$);
#76= IFCPROPERTYSINGLEVALUE('RectangleOpeningWidth',$,IFCPOSITIVELENGTHMEASURE(12.),$);
#77= IFCPROPERTYSINGLEVALUE('RectangleOpeningHeight',$,IFCPOSITIVELENGTHMEASURE(138.),$);
#78= IFCPROPERTYSINGLEVALUE('OpeningDiameter',$,$,$);
#79= IFCPROPERTYSET('0eVdf8Xev1$8QMo6_GPBi1',#5,'AISC_EM11_Pset_Opening/Cope',$,(#75,#76,#77,#78));
#80= IFCLOCALPLACEMENT(#42,#46);
#81= IFCCARTESIANPOINT((2621.48099517822,57.,566.));
#82= IFCAXIS2PLACEMENT3D(#81,#67,#53);
#83= IFCEXTRUDEDAREASOLID(#66,#82,#9,1132.);
#84= IFCSHAPEREPRESENTATION(#12,'Body','SweptSolid',(#83));
#85= IFCPRODUCTDEFINITIONSHAPE($,$,(#84));
#86= IFCOPENINGELEMENT('0qdtBK5jvAoQLd7zmxvV7P',#5,$,$,'Recess',#80,#85,$);
#87= IFCRELVOIDSELEMENT('0N9X4Xsqv6twhYyjVNq8ZD',#5,$,$,#64,#86);
#88= IFCCARTESIANPOINT((8242.10796519996,1603.29535644531,22470.));
#89= IFCDIRECTION((-0.00143953599980887,0.999998963867516,0.));
#90= IFCDIRECTION((-0.999998963867516,-0.00143953599980912,0.));
#91= IFCAXIS2PLACEMENT3D(#88,#89,#90);
#92= IFCLOCALPLACEMENT(#42,#91);
#93= IFCCIRCLEPROFILEDEF(.AREA.,$,#50,11.5);
#94= IFCCARTESIANPOINT((0.,-0.1,0.));
#95= IFCAXIS2PLACEMENT3D(#94,#8,#7);
#96= IFCEXTRUDEDAREASOLID(#93,#95,#9,25.2);
#97= IFCSHAPEREPRESENTATION(#12,'Body','SweptSolid',(#96));
#98= IFCREPRESENTATIONMAP(#10,#97);
#99= IFCCARTESIANPOINT((3.27418092638254E-11,0.,-74.999999999995));
#100= IFCCARTESIANTRANSFORMATIONOPERATOR3D($,$,#99,$,$);
#101= IFCMAPPEDITEM(#98,#100);
#102= IFCCARTESIANPOINT((74.9999999999945,0.,-75.0000000000632));
#103= IFCCARTESIANTRANSFORMATIONOPERATOR3D($,$,#102,$,$);
#104= IFCMAPPEDITEM(#98,#103);
#105= IFCCARTESIANPOINT((149.999999999956,0.,-75.0000000001314));
#106= IFCCARTESIANTRANSFORMATIONOPERATOR3D($,$,#105,$,$);
#107= IFCMAPPEDITEM(#98,#106);
#108= IFCCARTESIANPOINT((224.999999999917,0.,-75.0000000001996));
#109= IFCCARTESIANTRANSFORMATIONOPERATOR3D($,$,#108,$,$);
#110= IFCMAPPEDITEM(#98,#109);
#111= IFCCARTESIANPOINT((299.999999999878,0.,-75.0000000002681));
#112= IFCCARTESIANTRANSFORMATIONOPERATOR3D($,$,#111,$,$);
#113= IFCMAPPEDITEM(#98,#112);
#114= IFCCARTESIANPOINT((374.999999999839,0.,-75.0000000003363));
#115= IFCCARTESIANTRANSFORMATIONOPERATOR3D($,$,#114,$,$);
#116= IFCMAPPEDITEM(#98,#115);
#117= IFCCARTESIANPOINT((449.999999999801,0.,-75.0000000004045));
#118= IFCCARTESIANTRANSFORMATIONOPERATOR3D($,$,#117,$,$);
#119= IFCMAPPEDITEM(#98,#118);
#120= IFCCARTESIANPOINT((524.999999999761,0.,-75.0000000004727));
#121= IFCCARTESIANTRANSFORMATIONOPERATOR3D($,$,#120,$,$);
#122= IFCMAPPEDITEM(#98,#121);
#123= IFCCARTESIANPOINT((599.999999999723,0.,-75.0000000005409));
#124= IFCCARTESIANTRANSFORMATIONOPERATOR3D($,$,#123,$,$);
#125= IFCMAPPEDITEM(#98,#124);
#126= IFCCARTESIANPOINT((674.999999999683,0.,-75.0000000006091));
#127= IFCCARTESIANTRANSFORMATIONOPERATOR3D($,$,#126,$,$);
#128= IFCMAPPEDITEM(#98,#127);
#129= IFCCARTESIANPOINT((-3.45607986673713E-11,0.,74.999999999995));
#130= IFCCARTESIANTRANSFORMATIONOPERATOR3D($,$,#129,$,$);
#131= IFCMAPPEDITEM(#98,#130);
#132= IFCCARTESIANPOINT((74.9999999999272,0.,74.9999999999268));
#133= IFCCARTESIANTRANSFORMATIONOPERATOR3D($,$,#132,$,$);
#134= IFCMAPPEDITEM(#98,#133);
#135= IFCCARTESIANPOINT((149.999999999887,0.,74.9999999998586));
#136= IFCCARTESIANTRANSFORMATIONOPERATOR3D($,$,#135,$,$);
#137= IFCMAPPEDITEM(#98,#136);
#138= IFCCARTESIANPOINT((224.999999999849,0.,74.9999999997904));
#139= IFCCARTESIANTRANSFORMATIONOPERATOR3D($,$,#138,$,$);
#140= IFCMAPPEDITEM(#98,#139);
#141= IFCCARTESIANPOINT((299.99999999981,0.,74.9999999997221));
#142= IFCCARTESIANTRANSFORMATIONOPERATOR3D($,$,#141,$,$);
#143= IFCMAPPEDITEM(#98,#142);
#144= IFCCARTESIANPOINT((374.999999999772,0.,74.9999999996539));
#145= IFCCARTESIANTRANSFORMATIONOPERATOR3D($,$,#144,$,$);
#146= IFCMAPPEDITEM(#98,#145);
#147= IFCCARTESIANPOINT((449.999999999732,0.,74.9999999995855));
#148= IFCCARTESIANTRANSFORMATIONOPERATOR3D($,$,#147,$,$);
#149= IFCMAPPEDITEM(#98,#148);
#150= IFCCARTESIANPOINT((524.999999999694,0.,74.9999999995173));
#151= IFCCARTESIANTRANSFORMATIONOPERATOR3D($,$,#150,$,$);
#152= IFCMAPPEDITEM(#98,#151);
#153= IFCCARTESIANPOINT((599.999999999654,0.,74.9999999994491));
#154= IFCCARTESIANTRANSFORMATIONOPERATOR3D($,$,#153,$,$);
#155= IFCMAPPEDITEM(#98,#154);
#156= IFCCARTESIANPOINT((674.999999999615,0.,74.9999999993809));
#157= IFCCARTESIANTRANSFORMATIONOPERATOR3D($,$,#156,$,$);
#158= IFCMAPPEDITEM(#98,#157);
#159= IFCSHAPEREPRESENTATION(#12,'Body','MappedRepresentation',(#101,#104,#107,#110,#113,#116,#119,#122,#125,#128,#131,#134,#137,#140,#143,#146,#149,#152,#155,#158));
#160= IFCPRODUCTDEFINITIONSHAPE($,$,(#159));
#161= IFCOPENINGELEMENT('3QVDGxwhH74PAnCrMoEmNG',#5,$,$,'Opening',#92,#160,$);
#162= IFCRELVOIDSELEMENT('14FHvIeyf9zRN4JP6UEIns',#5,'Drill Hole',$,#64,#161);
#163= IFCPROPERTYSINGLEVALUE('FeatureSubTypes',$,IFCLABEL('TORNILLO'),$);
#164= IFCPROPERTYSINGLEVALUE('RectangleOpeningWidth',$,$,$);
#165= IFCPROPERTYSINGLEVALUE('RectangleOpeningHeight',$,$,$);
#166= IFCPROPERTYSET('11E0nTAl57kBnERu3y_dNs',#5,'AISC_EM11_Pset_Opening/Cope',$,(#163,#164,#165,#78));
#167= IFCCARTESIANPOINT((8242.10796519996,1603.29535644531,23600.));
#168= IFCDIRECTION((0.00143953599980887,-0.999998963867516,0.));
#169= IFCAXIS2PLACEMENT3D(#167,#168,#90);
#170= IFCLOCALPLACEMENT(#42,#169);
#171= IFCCIRCLEPROFILEDEF(.AREA.,$,#50,12.5);
#172= IFCEXTRUDEDAREASOLID(#171,#95,#9,25.2);
#173= IFCSHAPEREPRESENTATION(#12,'Body','SweptSolid',(#172));
#174= IFCREPRESENTATIONMAP(#10,#173);
#175= IFCMAPPEDITEM(#174,#100);
#176= IFCMAPPEDITEM(#174,#103);
#177= IFCMAPPEDITEM(#174,#106);
#178= IFCMAPPEDITEM(#174,#109);
#179= IFCMAPPEDITEM(#174,#112);
#180= IFCMAPPEDITEM(#174,#115);
#181= IFCMAPPEDITEM(#174,#118);
#182= IFCMAPPEDITEM(#174,#121);
#183= IFCMAPPEDITEM(#174,#124);
#184= IFCMAPPEDITEM(#174,#127);
#185= IFCMAPPEDITEM(#174,#130);
#186= IFCMAPPEDITEM(#174,#133);
#187= IFCMAPPEDITEM(#174,#136);
#188= IFCMAPPEDITEM(#174,#139);
#189= IFCMAPPEDITEM(#174,#142);
#190= IFCMAPPEDITEM(#174,#145);
#191= IFCMAPPEDITEM(#174,#148);
#192= IFCMAPPEDITEM(#174,#151);
#193= IFCMAPPEDITEM(#174,#154);
#194= IFCMAPPEDITEM(#174,#157);
#195= IFCSHAPEREPRESENTATION(#12,'Body','MappedRepresentation',(#175,#176,#177,#178,#179,#180,#181,#182,#183,#184,#185,#186,#187,#188,#189,#190,#191,#192,#193,#194));
#196= IFCPRODUCTDEFINITIONSHAPE($,$,(#195));
#197= IFCOPENINGELEMENT('2Tt0Iw86fAE9TjT$UCwvR5',#5,$,$,'Opening',#170,#196,$);
#198= IFCRELVOIDSELEMENT('102p3K5XDFbRUBc6S4hz1K',#5,'Drill Hole',$,#64,#197);
#199= IFCCARTESIANPOINT((8287.,1603.28932952881,23600.));
#200= IFCAXIS2PLACEMENT3D(#199,#53,#67);
#201= IFCLOCALPLACEMENT(#42,#200);
#202= IFCCIRCLEPROFILEDEF(.AREA.,$,#50,9.5);
#203= IFCCARTESIANPOINT((0.,-6.6,0.));
#204= IFCAXIS2PLACEMENT3D(#203,#8,#7);
#205= IFCEXTRUDEDAREASOLID(#202,#204,#9,13.2);
#206= IFCSHAPEREPRESENTATION(#12,'Body','SweptSolid',(#205));
#207= IFCREPRESENTATIONMAP(#10,#206);
#208= IFCCARTESIANPOINT((115.,0.,45.));
#209= IFCCARTESIANTRANSFORMATIONOPERATOR3D($,$,#208,$,$);
#210= IFCMAPPEDITEM(#207,#209);
#211= IFCCARTESIANPOINT((215.,0.,45.));
#212= IFCCARTESIANTRANSFORMATIONOPERATOR3D($,$,#211,$,$);
#213= IFCMAPPEDITEM(#207,#212);
#214= IFCCARTESIANPOINT((315.,0.,45.));
#215= IFCCARTESIANTRANSFORMATIONOPERATOR3D($,$,#214,$,$);
#216= IFCMAPPEDITEM(#207,#215);
#217= IFCCARTESIANPOINT((415.,0.,45.));
#218= IFCCARTESIANTRANSFORMATIONOPERATOR3D($,$,#217,$,$);
#219= IFCMAPPEDITEM(#207,#218);
#220= IFCCARTESIANPOINT((515.,0.,45.));
#221= IFCCARTESIANTRANSFORMATIONOPERATOR3D($,$,#220,$,$);
#222= IFCMAPPEDITEM(#207,#221);
#223= IFCCARTESIANPOINT((615.,0.,45.));
#224= IFCCARTESIANTRANSFORMATIONOPERATOR3D($,$,#223,$,$);
#225= IFCMAPPEDITEM(#207,#224);
#226= IFCCARTESIANPOINT((715.,0.,45.));
#227= IFCCARTESIANTRANSFORMATIONOPERATOR3D($,$,#226,$,$);
#228= IFCMAPPEDITEM(#207,#227);
#229= IFCCARTESIANPOINT((815.,0.,45.));
#230= IFCCARTESIANTRANSFORMATIONOPERATOR3D($,$,#229,$,$);
#231= IFCMAPPEDITEM(#207,#230);
#232= IFCCARTESIANPOINT((915.,0.,45.));
#233= IFCCARTESIANTRANSFORMATIONOPERATOR3D($,$,#232,$,$);
#234= IFCMAPPEDITEM(#207,#233);
#235= IFCCARTESIANPOINT((1015.,0.,45.));
#236= IFCCARTESIANTRANSFORMATIONOPERATOR3D($,$,#235,$,$);
#237= IFCMAPPEDITEM(#207,#236);
#238= IFCSHAPEREPRESENTATION(#12,'Body','MappedRepresentation',(#210,#213,#216,#219,#222,#225,#228,#231,#234,#237));
#239= IFCPRODUCTDEFINITIONSHAPE($,$,(#238));
#240= IFCOPENINGELEMENT('3aa2x5saH9WfmowCyJm7VF',#5,$,$,'Opening',#201,#239,$);
#241= IFCRELVOIDSELEMENT('2MQhhGF25278NfzrQhVjjN',#5,'Drill Hole',$,#64,#240);
#242= IFCPROPERTYSINGLEVALUE('PieceMark',$,IFCIDENTIFIER('BEAM'),$);
#243= IFCPROPERTYSINGLEVALUE('IndicationMark',$,IFCIDENTIFIER('b/997'),$);
#244= IFCPROPERTYSINGLEVALUE('PrelimMark',$,IFCIDENTIFIER(''),$);
#245= IFCPROPERTYSINGLEVALUE('MainPieceTag',$,IFCBOOLEAN(.F.),$);
#246= IFCPROPERTYSET('0h0gMMp2L8dQWnwwkAWRVH',#5,'AISC_EM11_Pset_PieceIdentification','PieceIdentity',(#242,#243,#244,#245));
#247= IFCPROPERTYSINGLEVALUE('MaterialType',$,IFCIDENTIFIER('STEEL'),$);
#248= IFCPROPERTYSINGLEVALUE('MaterialGrade',$,IFCIDENTIFIER('S235JR'),$);
#249= IFCPROPERTYSET('1pL2qLQxnEa8WWuCSxE65w',#5,'AISC_EM11_Pset_Material',$,(#247,#248));
#250= IFCPROPERTYSINGLEVALUE('SkewedAngleY',$,IFCREAL(0.),$);
#251= IFCPROPERTYSINGLEVALUE('SkewedAngleX',$,IFCREAL(0.),$);
#252= IFCPROPERTYSET('1jFIFP3tH0ig9BfOqzIm0N',#5,'AISC_EM11_Pset_SkewedEnd',$,(#250,#251));
#253= IFCPROPERTYSET('0DJJWAQs99HfzB4WESAWZM',#5,'AISC_EM11_Pset_SkewedEnd_2',$,(#250,#251));
#254= IFCMATERIAL('STEEL/S235JR');
#255= IFCRELAGGREGATES('26UkVrOCD7KwXs0OvRKVS7',#5,$,$,#37,(#39));
#256= IFCRELAGGREGATES('2Om0n7gUVPcCp8IgBjcnkP',#5,$,$,#39,(#41));
#257= IFCRELAGGREGATES('12VBd62gLDxA$KOvlCGaep',#5,$,$,#41,(#43));
#258= IFCRELCONTAINEDINSPATIALSTRUCTURE('3Ks2pP2GvE_f1mG0LkMnkT',#5,$,$,(#64),#43);
#259= IFCRELDEFINESBYPROPERTIES('0_LOry02rE9uZbS$XzSye4',#5,$,$,(#86,#73),#79);
#260= IFCRELDEFINESBYPROPERTIES('322KRWLSzFRwkQy5Q4Z3Ur',#5,$,$,(#240,#197,#161),#166);
#261= IFCRELDEFINESBYPROPERTIES('1MMFMS$U54uvSpI3QJWh$J',#5,$,$,(#64),#246);
#262= IFCRELDEFINESBYPROPERTIES('0mq8JjtqfDYxf6IYfLvqcw',#5,$,$,(#64),#249);
#263= IFCRELDEFINESBYPROPERTIES('1Gcz1OjmPFh9MytTtp7BaA',#5,$,$,(#64),#252);
#264= IFCRELDEFINESBYPROPERTIES('1YDhsiPBHDXx_w9PHe1jZS',#5,$,$,(#64),#253);
#265= IFCRELASSOCIATESMATERIAL('2yapDb6T91J9VV0K0k2k1Y',#5,$,$,(#64),#254);
ENDSEC;

END-ISO-10303-21;
