ISO-10303-21;
HEADER;
FILE_DESCRIPTION(('ViewDefinition[AISC_Steel_Detailing]', 'Option [BaseQuantities:Off]', 'Option [GridExport:On]', 'Option [Assemblies:Off]', 'Option [Bolts:On]', 'Option [Rebars:On]', 'Option [PourObjects:Off]', 'Option [Welds:On]', 'Option [SurfaceTreatments:On]', 'Option [LocationBy:0]', 'Option [ViewColors:Off]', 'Option [SectionedSpine:Off]', 'Option [PropertySets:On]', 'Option [Export all:Off]'),'2;1');
FILE_NAME('b_998_Qty_1.ifc','2026-05-16T11:53:11',('GIOVANNIPC\\gcorrea'),('Structural Designer'),'IFC Database version: Work','Tekla Structures 2020 Service Pack 5, IFC Export Version: 4.0.0.0 Dec  7 2020','');
FILE_SCHEMA(('IFC2X3'));
ENDSEC;

DATA;
#1= IFCPERSON('GIOVANNIPC\\gcorrea','Undefined',$,$,$,$,$,$);
#2= IFCORGANIZATION($,'Trimble Solutions Corporation',$,$,$);
#3= IFCPERSONANDORGANIZATION(#1,#2,$);
#4= IFCAPPLICATION(#2,'2020 Service Pack 5','Tekla Structures','Multi material modeling');
#5= IFCOWNERHISTORY(#3,#4,$,.NOCHANGE.,$,$,$,1778950391);
#6= IFCCARTESIANPOINT((0.,0.,0.));
#7= IFCDIRECTION((1.,0.,0.));
#8= IFCDIRECTION((0.,1.,0.));
#9= IFCDIRECTION((0.,0.,1.));
#10= IFCAXIS2PLACEMENT3D(#6,#9,#7);
#11= IFCGEOMETRICREPRESENTATIONCONTEXT($,'Model',3,1.E-05,#10,$);
#12= IFCGEOMETRICREPRESENTATIONSUBCONTEXT('Body','Model',*,*,*,*,#11,$,.MODEL_VIEW.,$);
#13= IFCGEOMETRICREPRESENTATIONSUBCONTEXT('Axis','Model',*,*,*,*,#11,$,.GRAPH_VIEW.,$);
#14= IFCGEOMETRICREPRESENTATIONSUBCONTEXT('FootPrint','Model',*,*,*,*,#11,$,.MODEL_VIEW.,$);
#15= IFCSIUNIT(*,.LENGTHUNIT.,.MILLI.,.METRE.);
#16= IFCMEASUREWITHUNIT(IFCRATIOMEASURE(304.8),#15);
#17= IFCDIMENSIONALEXPONENTS(1,0,0,0,0,0,0);
#18= IFCCONVERSIONBASEDUNIT(#17,.LENGTHUNIT.,'FOOT',#16);
#19= IFCSIUNIT(*,.AREAUNIT.,$,.SQUARE_METRE.);
#20= IFCMEASUREWITHUNIT(IFCRATIOMEASURE(0.09290304),#19);
#21= IFCDIMENSIONALEXPONENTS(2,0,0,0,0,0,0);
#22= IFCCONVERSIONBASEDUNIT(#21,.AREAUNIT.,'SQUARE FOOT',#20);
#23= IFCSIUNIT(*,.VOLUMEUNIT.,$,.CUBIC_METRE.);
#24= IFCMEASUREWITHUNIT(IFCRATIOMEASURE(0.028316846592),#23);
#25= IFCDIMENSIONALEXPONENTS(3,0,0,0,0,0,0);
#26= IFCCONVERSIONBASEDUNIT(#25,.VOLUMEUNIT.,'CUBIC FOOT',#24);
#27= IFCSIUNIT(*,.MASSUNIT.,.KILO.,.GRAM.);
#28= IFCSIUNIT(*,.TIMEUNIT.,$,.SECOND.);
#29= IFCSIUNIT(*,.PLANEANGLEUNIT.,$,.RADIAN.);
#30= IFCMEASUREWITHUNIT(IFCRATIOMEASURE(0.0174532925199433),#29);
#31= IFCDIMENSIONALEXPONENTS(0,0,0,0,0,0,0);
#32= IFCCONVERSIONBASEDUNIT(#31,.PLANEANGLEUNIT.,'DEGREE',#30);
#33= IFCSIUNIT(*,.SOLIDANGLEUNIT.,$,.STERADIAN.);
#34= IFCSIUNIT(*,.THERMODYNAMICTEMPERATUREUNIT.,$,.DEGREE_CELSIUS.);
#35= IFCSIUNIT(*,.LUMINOUSINTENSITYUNIT.,$,.LUMEN.);
#36= IFCUNITASSIGNMENT((#15,#19,#23,#27,#28,#29,#33,#34,#35));
#37= IFCPROJECT('2G7ZFDNE16yBDU14FA92Me',#5,'Proyecto',$,$,$,$,(#11),#36);
#38= IFCLOCALPLACEMENT($,#10);
#39= IFCSITE('2xvEzEinjBTea80yOTcujY',#5,'Obra',$,$,#38,$,$,.ELEMENT.,$,$,$,$,$);
#40= IFCLOCALPLACEMENT(#38,#10);
#41= IFCBUILDING('3a09JXCxrBx8imiCVer5C_',#5,'Undefined',$,$,#40,$,$,.ELEMENT.,$,$,$);
#42= IFCLOCALPLACEMENT(#40,#10);
#43= IFCBUILDINGSTOREY('29hdEUCErFze9E_VIAceOd',#5,'Undefined',$,$,#42,$,$,.ELEMENT.,0.);
#44= IFCOWNERHISTORY(#3,#4,$,.NOCHANGE.,$,$,$,1774965600);
#45= IFCCARTESIANPOINT((8715.90014648438,1603.28932952881,23035.));
#46= IFCAXIS2PLACEMENT3D(#45,#9,#7);
#47= IFCLOCALPLACEMENT(#42,#46);
#48= IFCDIRECTION((1.,0.));
#49= IFCCARTESIANPOINT((0.,0.));
#50= IFCAXIS2PLACEMENT2D(#49,#48);
#51= IFCISHAPEPROFILEDEF(.AREA.,'HI1130-13-25*250',#50,250.,1130.,13.,25.,9.1);
#52= IFCDIRECTION((0.,-1.,0.));
#53= IFCDIRECTION((-1.,0.,0.));
#54= IFCCARTESIANPOINT((8068.19915771484,0.,0.));
#55= IFCAXIS2PLACEMENT3D(#54,#53,#52);
#56= IFCEXTRUDEDAREASOLID(#51,#55,#9,8071.1);
#57= IFCCARTESIANPOINT((-2.900146484375,0.,-665.));
#58= IFCAXIS2PLACEMENT3D(#57,#7,#52);
#59= IFCPLANE(#58);
#60= IFCHALFSPACESOLID(#59,.T.);
#61= IFCBOOLEANCLIPPINGRESULT(.DIFFERENCE.,#56,#60);
#62= IFCSHAPEREPRESENTATION(#12,'Body','Clipping',(#61));
#63= IFCPRODUCTDEFINITIONSHAPE($,$,(#62));
#64= IFCBEAM('2sMXy8D$X0cQO_YMG6hqbr',#44,'BEAM','HI1130-13-25*250','HI1130-13-25*250',#47,#63,'IDb65a1f08-37f8-4099-a63e-896406af4975');
#65= IFCLOCALPLACEMENT(#42,#46);
#66= IFCRECTANGLEPROFILEDEF(.AREA.,'PL138*12',#50,12.,138.);
#67= IFCDIRECTION((0.,0.,-1.));
#68= IFCCARTESIANPOINT((-8.900146484375,57.,566.));
#69= IFCAXIS2PLACEMENT3D(#68,#67,#7);
#70= IFCEXTRUDEDAREASOLID(#66,#69,#9,1132.);
#71= IFCSHAPEREPRESENTATION(#12,'Body','SweptSolid',(#70));
#72= IFCPRODUCTDEFINITIONSHAPE($,$,(#71));
#73= IFCOPENINGELEMENT('1o_rH3PgrFO9IegvYsZwzF',#5,$,$,'Recess',#65,#72,$);
#74= IFCRELVOIDSELEMENT('0a0nc38C51V9JyftrJp6Ts',#5,$,$,#64,#73);
#75= IFCPROPERTYSINGLEVALUE('FeatureSubTypes',$,$,$);
#76= IFCPROPERTYSINGLEVALUE('RectangleOpeningWidth',$,IFCPOSITIVELENGTHMEASURE(12.),$);
#77= IFCPROPERTYSINGLEVALUE('RectangleOpeningHeight',$,IFCPOSITIVELENGTHMEASURE(138.),$);
#78= IFCPROPERTYSINGLEVALUE('OpeningDiameter',$,$,$);
#79= IFCPROPERTYSET('3MRsl8Kkn3vwAeW9ZaqODP',#5,'AISC_EM11_Pset_Opening/Cope',$,(#75,#76,#77,#78));
#80= IFCLOCALPLACEMENT(#42,#46);
#81= IFCCARTESIANPOINT((-8.900146484375,-57.,566.));
#82= IFCAXIS2PLACEMENT3D(#81,#67,#7);
#83= IFCEXTRUDEDAREASOLID(#66,#82,#9,1132.);
#84= IFCSHAPEREPRESENTATION(#12,'Body','SweptSolid',(#83));
#85= IFCPRODUCTDEFINITIONSHAPE($,$,(#84));
#86= IFCOPENINGELEMENT('1Nu1DRbQPDl9n8qIhVasas',#5,$,$,'Recess',#80,#85,$);
#87= IFCRELVOIDSELEMENT('2zyYRMR4n2Gw1waY7Afqgn',#5,$,$,#64,#86);
#88= IFCCARTESIANPOINT((16742.1079479209,1603.2953486024,22470.));
#89= IFCDIRECTION((-0.00143953599980887,0.999998963867516,0.));
#90= IFCDIRECTION((-0.999998963867516,-0.00143953599980911,0.));
#91= IFCAXIS2PLACEMENT3D(#88,#89,#90);
#92= IFCLOCALPLACEMENT(#42,#91);
#93= IFCCIRCLEPROFILEDEF(.AREA.,$,#50,11.5);
#94= IFCCARTESIANPOINT((0.,-0.1,0.));
#95= IFCAXIS2PLACEMENT3D(#94,#8,#7);
#96= IFCEXTRUDEDAREASOLID(#93,#95,#9,25.2);
#97= IFCSHAPEREPRESENTATION(#12,'Body','SweptSolid',(#96));
#98= IFCREPRESENTATIONMAP(#10,#97);
#99= IFCCARTESIANPOINT((1.67347025126219E-10,0.,-74.9999999999952));
#100= IFCCARTESIANTRANSFORMATIONOPERATOR3D($,$,#99,$,$);
#101= IFCMAPPEDITEM(#98,#100);
#102= IFCCARTESIANPOINT((75.0000000001273,0.,-74.9999999997906));
#103= IFCCARTESIANTRANSFORMATIONOPERATOR3D($,$,#102,$,$);
#104= IFCMAPPEDITEM(#98,#103);
#105= IFCCARTESIANPOINT((150.000000000087,0.,-74.999999999586));
#106= IFCCARTESIANTRANSFORMATIONOPERATOR3D($,$,#105,$,$);
#107= IFCMAPPEDITEM(#98,#106);
#108= IFCCARTESIANPOINT((225.000000000051,0.,-74.9999999993813));
#109= IFCCARTESIANTRANSFORMATIONOPERATOR3D($,$,#108,$,$);
#110= IFCMAPPEDITEM(#98,#109);
#111= IFCCARTESIANPOINT((300.000000000015,0.,-74.9999999991767));
#112= IFCCARTESIANTRANSFORMATIONOPERATOR3D($,$,#111,$,$);
#113= IFCMAPPEDITEM(#98,#112);
#114= IFCCARTESIANPOINT((374.999999999973,0.,-74.999999998972));
#115= IFCCARTESIANTRANSFORMATIONOPERATOR3D($,$,#114,$,$);
#116= IFCMAPPEDITEM(#98,#115);
#117= IFCCARTESIANPOINT((449.999999999935,0.,-74.9999999987674));
#118= IFCCARTESIANTRANSFORMATIONOPERATOR3D($,$,#117,$,$);
#119= IFCMAPPEDITEM(#98,#118);
#120= IFCCARTESIANPOINT((524.999999999894,0.,-74.9999999985628));
#121= IFCCARTESIANTRANSFORMATIONOPERATOR3D($,$,#120,$,$);
#122= IFCMAPPEDITEM(#98,#121);
#123= IFCCARTESIANPOINT((599.999999999856,0.,-74.9999999983581));
#124= IFCCARTESIANTRANSFORMATIONOPERATOR3D($,$,#123,$,$);
#125= IFCMAPPEDITEM(#98,#124);
#126= IFCCARTESIANPOINT((674.999999999816,0.,-74.9999999981537));
#127= IFCCARTESIANTRANSFORMATIONOPERATOR3D($,$,#126,$,$);
#128= IFCMAPPEDITEM(#98,#127);
#129= IFCCARTESIANPOINT((-1.74622982740402E-10,0.,74.999999999995));
#130= IFCCARTESIANTRANSFORMATIONOPERATOR3D($,$,#129,$,$);
#131= IFCMAPPEDITEM(#98,#130);
#132= IFCCARTESIANPOINT((74.999999999789,0.,75.0000000001996));
#133= IFCCARTESIANTRANSFORMATIONOPERATOR3D($,$,#132,$,$);
#134= IFCMAPPEDITEM(#98,#133);
#135= IFCCARTESIANPOINT((149.999999999749,0.,75.0000000004043));
#136= IFCCARTESIANTRANSFORMATIONOPERATOR3D($,$,#135,$,$);
#137= IFCMAPPEDITEM(#98,#136);
#138= IFCCARTESIANPOINT((224.999999999709,0.,75.0000000006089));
#139= IFCCARTESIANTRANSFORMATIONOPERATOR3D($,$,#138,$,$);
#140= IFCMAPPEDITEM(#98,#139);
#141= IFCCARTESIANPOINT((299.999999999673,0.,75.0000000008135));
#142= IFCCARTESIANTRANSFORMATIONOPERATOR3D($,$,#141,$,$);
#143= IFCMAPPEDITEM(#98,#142);
#144= IFCCARTESIANPOINT((374.999999999631,0.,75.0000000010182));
#145= IFCCARTESIANTRANSFORMATIONOPERATOR3D($,$,#144,$,$);
#146= IFCMAPPEDITEM(#98,#145);
#147= IFCCARTESIANPOINT((449.999999999593,0.,75.0000000012228));
#148= IFCCARTESIANTRANSFORMATIONOPERATOR3D($,$,#147,$,$);
#149= IFCMAPPEDITEM(#98,#148);
#150= IFCCARTESIANPOINT((524.999999999554,0.,75.0000000014275));
#151= IFCCARTESIANTRANSFORMATIONOPERATOR3D($,$,#150,$,$);
#152= IFCMAPPEDITEM(#98,#151);
#153= IFCCARTESIANPOINT((599.999999999514,0.,75.0000000016321));
#154= IFCCARTESIANTRANSFORMATIONOPERATOR3D($,$,#153,$,$);
#155= IFCMAPPEDITEM(#98,#154);
#156= IFCCARTESIANPOINT((674.999999999476,0.,75.0000000018367));
#157= IFCCARTESIANTRANSFORMATIONOPERATOR3D($,$,#156,$,$);
#158= IFCMAPPEDITEM(#98,#157);
#159= IFCSHAPEREPRESENTATION(#12,'Body','MappedRepresentation',(#101,#104,#107,#110,#113,#116,#119,#122,#125,#128,#131,#134,#137,#140,#143,#146,#149,#152,#155,#158));
#160= IFCPRODUCTDEFINITIONSHAPE($,$,(#159));
#161= IFCOPENINGELEMENT('0SAVHGfgn4XvdQ7VJ00eiw',#5,$,$,'Opening',#92,#160,$);
#162= IFCRELVOIDSELEMENT('0rNvMsFPDBeA1K0G$dKiUP',#5,'Drill Hole',$,#64,#161);
#163= IFCPROPERTYSINGLEVALUE('FeatureSubTypes',$,IFCLABEL('TORNILLO'),$);
#164= IFCPROPERTYSINGLEVALUE('RectangleOpeningWidth',$,$,$);
#165= IFCPROPERTYSINGLEVALUE('RectangleOpeningHeight',$,$,$);
#166= IFCPROPERTYSET('0aaF17uXf7HB3j3HRG7J7W',#5,'AISC_EM11_Pset_Opening/Cope',$,(#163,#164,#165,#78));
#167= IFCCARTESIANPOINT((8757.99947271313,1603.29535644531,22470.));
#168= IFCAXIS2PLACEMENT3D(#167,#52,#7);
#169= IFCLOCALPLACEMENT(#42,#168);
#170= IFCSHAPEREPRESENTATION(#12,'Body','MappedRepresentation',(#101,#104,#107,#110,#113,#116,#119,#122,#125,#128,#131,#134,#137,#140,#143,#146,#149,#152,#155,#158));
#171= IFCPRODUCTDEFINITIONSHAPE($,$,(#170));
#172= IFCOPENINGELEMENT('2C4c6gvwn3DQO$5SQM8HYC',#5,$,$,'Opening',#169,#171,$);
#173= IFCRELVOIDSELEMENT('18vUKzHsX8HPNpAx7DM$Bd',#5,'Drill Hole',$,#64,#172);
#174= IFCCARTESIANPOINT((16742.1079479209,1603.2953486024,23600.));
#175= IFCDIRECTION((0.00143953599980887,-0.999998963867516,0.));
#176= IFCAXIS2PLACEMENT3D(#174,#175,#90);
#177= IFCLOCALPLACEMENT(#42,#176);
#178= IFCCIRCLEPROFILEDEF(.AREA.,$,#50,12.5);
#179= IFCEXTRUDEDAREASOLID(#178,#95,#9,25.2);
#180= IFCSHAPEREPRESENTATION(#12,'Body','SweptSolid',(#179));
#181= IFCREPRESENTATIONMAP(#10,#180);
#182= IFCMAPPEDITEM(#181,#100);
#183= IFCMAPPEDITEM(#181,#103);
#184= IFCMAPPEDITEM(#181,#106);
#185= IFCMAPPEDITEM(#181,#109);
#186= IFCMAPPEDITEM(#181,#112);
#187= IFCMAPPEDITEM(#181,#115);
#188= IFCMAPPEDITEM(#181,#118);
#189= IFCMAPPEDITEM(#181,#121);
#190= IFCMAPPEDITEM(#181,#124);
#191= IFCMAPPEDITEM(#181,#127);
#192= IFCMAPPEDITEM(#181,#130);
#193= IFCMAPPEDITEM(#181,#133);
#194= IFCMAPPEDITEM(#181,#136);
#195= IFCMAPPEDITEM(#181,#139);
#196= IFCMAPPEDITEM(#181,#142);
#197= IFCMAPPEDITEM(#181,#145);
#198= IFCMAPPEDITEM(#181,#148);
#199= IFCMAPPEDITEM(#181,#151);
#200= IFCMAPPEDITEM(#181,#154);
#201= IFCMAPPEDITEM(#181,#157);
#202= IFCSHAPEREPRESENTATION(#12,'Body','MappedRepresentation',(#182,#183,#184,#185,#186,#187,#188,#189,#190,#191,#192,#193,#194,#195,#196,#197,#198,#199,#200,#201));
#203= IFCPRODUCTDEFINITIONSHAPE($,$,(#202));
#204= IFCOPENINGELEMENT('175zCIQb54E8rg8pMD74JF',#5,$,$,'Opening',#177,#203,$);
#205= IFCRELVOIDSELEMENT('25ipZ7g4z4_xackKWkzJbE',#5,'Drill Hole',$,#64,#204);
#206= IFCCARTESIANPOINT((8757.99947271313,1603.29535644531,23600.));
#207= IFCAXIS2PLACEMENT3D(#206,#8,#7);
#208= IFCLOCALPLACEMENT(#42,#207);
#209= IFCSHAPEREPRESENTATION(#12,'Body','MappedRepresentation',(#182,#183,#184,#185,#186,#187,#188,#189,#190,#191,#192,#193,#194,#195,#196,#197,#198,#199,#200,#201));
#210= IFCPRODUCTDEFINITIONSHAPE($,$,(#209));
#211= IFCOPENINGELEMENT('1lvR6eZLn1qhZTUbg$xudx',#5,$,$,'Opening',#208,#210,$);
#212= IFCRELVOIDSELEMENT('07kDkq8rXAQP5IbByBjEzh',#5,'Drill Hole',$,#64,#211);
#213= IFCCARTESIANPOINT((8713.,1603.28932952881,23600.));
#214= IFCAXIS2PLACEMENT3D(#213,#7,#67);
#215= IFCLOCALPLACEMENT(#42,#214);
#216= IFCCIRCLEPROFILEDEF(.AREA.,$,#50,9.5);
#217= IFCCARTESIANPOINT((0.,-6.6,0.));
#218= IFCAXIS2PLACEMENT3D(#217,#8,#7);
#219= IFCEXTRUDEDAREASOLID(#216,#218,#9,13.2);
#220= IFCSHAPEREPRESENTATION(#12,'Body','SweptSolid',(#219));
#221= IFCREPRESENTATIONMAP(#10,#220);
#222= IFCCARTESIANPOINT((115.,0.,45.));
#223= IFCCARTESIANTRANSFORMATIONOPERATOR3D($,$,#222,$,$);
#224= IFCMAPPEDITEM(#221,#223);
#225= IFCCARTESIANPOINT((215.,0.,45.));
#226= IFCCARTESIANTRANSFORMATIONOPERATOR3D($,$,#225,$,$);
#227= IFCMAPPEDITEM(#221,#226);
#228= IFCCARTESIANPOINT((315.,0.,45.));
#229= IFCCARTESIANTRANSFORMATIONOPERATOR3D($,$,#228,$,$);
#230= IFCMAPPEDITEM(#221,#229);
#231= IFCCARTESIANPOINT((415.,0.,45.));
#232= IFCCARTESIANTRANSFORMATIONOPERATOR3D($,$,#231,$,$);
#233= IFCMAPPEDITEM(#221,#232);
#234= IFCCARTESIANPOINT((515.,0.,45.));
#235= IFCCARTESIANTRANSFORMATIONOPERATOR3D($,$,#234,$,$);
#236= IFCMAPPEDITEM(#221,#235);
#237= IFCCARTESIANPOINT((615.,0.,45.));
#238= IFCCARTESIANTRANSFORMATIONOPERATOR3D($,$,#237,$,$);
#239= IFCMAPPEDITEM(#221,#238);
#240= IFCCARTESIANPOINT((715.,0.,45.));
#241= IFCCARTESIANTRANSFORMATIONOPERATOR3D($,$,#240,$,$);
#242= IFCMAPPEDITEM(#221,#241);
#243= IFCCARTESIANPOINT((815.,0.,45.));
#244= IFCCARTESIANTRANSFORMATIONOPERATOR3D($,$,#243,$,$);
#245= IFCMAPPEDITEM(#221,#244);
#246= IFCCARTESIANPOINT((915.,0.,45.));
#247= IFCCARTESIANTRANSFORMATIONOPERATOR3D($,$,#246,$,$);
#248= IFCMAPPEDITEM(#221,#247);
#249= IFCCARTESIANPOINT((1015.,0.,45.));
#250= IFCCARTESIANTRANSFORMATIONOPERATOR3D($,$,#249,$,$);
#251= IFCMAPPEDITEM(#221,#250);
#252= IFCSHAPEREPRESENTATION(#12,'Body','MappedRepresentation',(#224,#227,#230,#233,#236,#239,#242,#245,#248,#251));
#253= IFCPRODUCTDEFINITIONSHAPE($,$,(#252));
#254= IFCOPENINGELEMENT('1tevuMUzf5ee$OJGW9fJa1',#5,$,$,'Opening',#215,#253,$);
#255= IFCRELVOIDSELEMENT('3uI$f3dlL2QQ9WZBWdirkm',#5,'Drill Hole',$,#64,#254);
#256= IFCPROPERTYSINGLEVALUE('PieceMark',$,IFCIDENTIFIER('BEAM'),$);
#257= IFCPROPERTYSINGLEVALUE('IndicationMark',$,IFCIDENTIFIER('b/998'),$);
#258= IFCPROPERTYSINGLEVALUE('PrelimMark',$,IFCIDENTIFIER(''),$);
#259= IFCPROPERTYSINGLEVALUE('MainPieceTag',$,IFCBOOLEAN(.F.),$);
#260= IFCPROPERTYSET('3cQ8oX$Nr4wBo4gJs_yjf0',#5,'AISC_EM11_Pset_PieceIdentification','PieceIdentity',(#256,#257,#258,#259));
#261= IFCPROPERTYSINGLEVALUE('MaterialType',$,IFCIDENTIFIER('STEEL'),$);
#262= IFCPROPERTYSINGLEVALUE('MaterialGrade',$,IFCIDENTIFIER('S235JR'),$);
#263= IFCPROPERTYSET('1JQNeaTVP2pP9wxOkhbKdN',#5,'AISC_EM11_Pset_Material',$,(#261,#262));
#264= IFCPROPERTYSINGLEVALUE('SkewedAngleY',$,IFCREAL(0.),$);
#265= IFCPROPERTYSINGLEVALUE('SkewedAngleX',$,IFCREAL(0.),$);
#266= IFCPROPERTYSET('3DLOdxbWXEBOohlnyL5AHB',#5,'AISC_EM11_Pset_SkewedEnd',$,(#264,#265));
#267= IFCPROPERTYSET('3U63QtWHz8P93AMoVnxEj7',#5,'AISC_EM11_Pset_SkewedEnd_2',$,(#264,#265));
#268= IFCMATERIAL('STEEL/S235JR');
#269= IFCRELAGGREGATES('25VS7oNyPAjAQr1$xTpKV5',#5,$,$,#37,(#39));
#270= IFCRELAGGREGATES('2NnkP4fEhS$Si7JHDl5cnN',#5,$,$,#39,(#41));
#271= IFCRELAGGREGATES('0um0zuC3jEQQVu0s_KOElq',#5,$,$,#41,(#43));
#272= IFCRELCONTAINEDINSPATIALSTRUCTURE('3zixfwn_nAlxL_PdOg_okB',#5,$,$,(#64),#43);
#273= IFCRELDEFINESBYPROPERTIES('3t2EjO4h9EjgF2rJBiSOZb',#5,$,$,(#86,#73),#79);
#274= IFCRELDEFINESBYPROPERTIES('2t8DJRbqr7txvEqIMJxUWr',#5,$,$,(#254,#211,#204,#172,#161),#166);
#275= IFCRELDEFINESBYPROPERTIES('2CZYDKzxr3FQ0llzdUf0zc',#5,$,$,(#64),#260);
#276= IFCRELDEFINESBYPROPERTIES('2dl1FZgXnBBea6d6XwQvev',#5,$,$,(#64),#263);
#277= IFCRELDEFINESBYPROPERTIES('0be0UuBFj3NxfXilAlMT$d',#5,$,$,(#64),#266);
#278= IFCRELDEFINESBYPROPERTIES('0O3ijbL4TA3gawXU_GIZ6r',#5,$,$,(#64),#267);
#279= IFCRELASSOCIATESMATERIAL('0AN2ZEaGH2cfsmiF$gpuwS',#5,$,$,(#64),#268);
ENDSEC;

END-ISO-10303-21;
