ISO-10303-21;
HEADER;
FILE_DESCRIPTION(('ViewDefinition[AISC_Steel_Detailing]', 'Option [BaseQuantities:Off]', 'Option [GridExport:On]', 'Option [Assemblies:On]', 'Option [Bolts:On]', 'Option [Rebars:On]', 'Option [PourObjects:Off]', 'Option [Welds:On]', 'Option [SurfaceTreatments:On]', 'Option [LocationBy:0]', 'Option [ViewColors:Off]', 'Option [SectionedSpine:Off]', 'Option [PropertySets:On]', 'Option [Export all:Off]'),'2;1');
FILE_NAME('col04.ifc','2026-04-07T16:28:32',('PC\\gcorrea'),('Structural Designer'),'IFC Database version: Work','Tekla Structures 2020 Service Pack 5, IFC Export Version: 4.0.0.0 Dec  7 2020','');
FILE_SCHEMA(('IFC2X3'));
ENDSEC;

DATA;
#1= IFCPERSON('PC\\gcorrea','Undefined',$,$,$,$,$,$);
#2= IFCORGANIZATION($,'Trimble Solutions Corporation',$,$,$);
#3= IFCPERSONANDORGANIZATION(#1,#2,$);
#4= IFCAPPLICATION(#2,'2020 Service Pack 5','Tekla Structures','Multi material modeling');
#5= IFCOWNERHISTORY(#3,#4,$,.NOCHANGE.,$,$,$,1775597312);
#6= IFCCARTESIANPOINT((0.,0.,0.));
#7= IFCDIRECTION((1.,0.,0.));
#8= IFCDIRECTION((0.,1.,0.));
#9= IFCDIRECTION((0.,0.,1.));
#10= IFCAXIS2PLACEMENT3D(#6,#9,#7);
#11= IFCGEOMETRICREPRESENTATIONCONTEXT($,'Model',3,1.E-05,#10,$);
#12= IFCGEOMETRICREPRESENTATIONSUBCONTEXT('Body','Model',*,*,*,*,#11,$,.MODEL_VIEW.,$);
#13= IFCGEOMETRICREPRESENTATIONSUBCONTEXT('Axis','Model',*,*,*,*,#11,$,.GRAPH_VIEW.,$);
#14= IFCGEOMETRICREPRESENTATIONSUBCONTEXT('FootPrint','Model',*,*,*,*,#11,$,.MODEL_VIEW.,$);
#15= IFCSIUNIT(*,.LENGTHUNIT.,.MILLI.,.METRE.);
#16= IFCMEASUREWITHUNIT(IFCRATIOMEASURE(304.8),#15);
#17= IFCDIMENSIONALEXPONENTS(1,0,0,0,0,0,0);
#18= IFCCONVERSIONBASEDUNIT(#17,.LENGTHUNIT.,'FOOT',#16);
#19= IFCSIUNIT(*,.AREAUNIT.,$,.SQUARE_METRE.);
#20= IFCMEASUREWITHUNIT(IFCRATIOMEASURE(0.09290304),#19);
#21= IFCDIMENSIONALEXPONENTS(2,0,0,0,0,0,0);
#22= IFCCONVERSIONBASEDUNIT(#21,.AREAUNIT.,'SQUARE FOOT',#20);
#23= IFCSIUNIT(*,.VOLUMEUNIT.,$,.CUBIC_METRE.);
#24= IFCMEASUREWITHUNIT(IFCRATIOMEASURE(0.028316846592),#23);
#25= IFCDIMENSIONALEXPONENTS(3,0,0,0,0,0,0);
#26= IFCCONVERSIONBASEDUNIT(#25,.VOLUMEUNIT.,'CUBIC FOOT',#24);
#27= IFCSIUNIT(*,.MASSUNIT.,.KILO.,.GRAM.);
#28= IFCSIUNIT(*,.TIMEUNIT.,$,.SECOND.);
#29= IFCSIUNIT(*,.PLANEANGLEUNIT.,$,.RADIAN.);
#30= IFCMEASUREWITHUNIT(IFCRATIOMEASURE(0.0174532925199433),#29);
#31= IFCDIMENSIONALEXPONENTS(0,0,0,0,0,0,0);
#32= IFCCONVERSIONBASEDUNIT(#31,.PLANEANGLEUNIT.,'DEGREE',#30);
#33= IFCSIUNIT(*,.SOLIDANGLEUNIT.,$,.STERADIAN.);
#34= IFCSIUNIT(*,.THERMODYNAMICTEMPERATUREUNIT.,$,.DEGREE_CELSIUS.);
#35= IFCSIUNIT(*,.LUMINOUSINTENSITYUNIT.,$,.LUMEN.);
#36= IFCUNITASSIGNMENT((#15,#19,#23,#27,#28,#29,#33,#34,#35));
#37= IFCPROJECT('2G7ZFDNE16yBDU14FA92Me',#5,'Proyecto',$,$,$,$,(#11),#36);
#38= IFCLOCALPLACEMENT($,#10);
#39= IFCSITE('2xvEzEinjBTea80yOTcujY',#5,'Obra',$,$,#38,$,$,.ELEMENT.,$,$,$,$,$);
#40= IFCLOCALPLACEMENT(#38,#10);
#41= IFCBUILDING('2ahMGuWDT4du4iTkLhGP70',#5,'Undefined',$,$,#40,$,$,.ELEMENT.,$,$,$);
#42= IFCLOCALPLACEMENT(#40,#10);
#43= IFCBUILDINGSTOREY('29hdEUCErFze9E_VIAceOd',#5,'Undefined',$,$,#42,$,$,.ELEMENT.,0.);
#44= IFCOWNERHISTORY(#3,#4,$,.NOCHANGE.,$,$,$,1773849600);
#45= IFCOWNERHISTORY(#3,#4,$,.NOCHANGE.,$,$,$,1775595600);
#46= IFCLOCALPLACEMENT(#42,#10);
#47= IFCELEMENTASSEMBLY('3kQSES8J18EgP23l3EKtUA',#45,'COLUMN',$,$,#46,$,'C/55',.NOTDEFINED.,.RIGID_FRAME.);
#48= IFCPROPERTYSINGLEVALUE('OnSiteBy',$,$,$);
#49= IFCPROPERTYSET('3VH2Z7l$13296MvQtMDDG$',#5,'AISC_EM11_Pset_SchedulingInformation',$,(#48));
#50= IFCPROPERTYSINGLEVALUE('DrawingNumber',$,IFCIDENTIFIER('[C.55]'),$);
#51= IFCPROPERTYSET('32ph6oYXT7UOjy2vYr9eMo',#5,'AISC_EM11_Pset_DrawingNumber',$,(#50));
#52= IFCPROPERTYSINGLEVALUE('AssemblyMark',$,IFCIDENTIFIER('C/55'),$);
#53= IFCPROPERTYSINGLEVALUE('PrelimMark',$,$,$);
#54= IFCPROPERTYSINGLEVALUE('ShippingMark',$,IFCINTEGER(0),$);
#55= IFCPROPERTYSET('1dV9kZZiT02u7Ar5LqhvG1',#5,'AISC_EM11_Pset_AssemblyIdentification','AssemblyIdentity',(#52,#53,#54));
#56= IFCCARTESIANPOINT((59499.9997253418,1730.88135910034,13919.));
#57= IFCDIRECTION((0.,-1.,0.));
#58= IFCDIRECTION((-1.,0.,0.));
#59= IFCAXIS2PLACEMENT3D(#56,#57,#58);
#60= IFCLOCALPLACEMENT(#46,#59);
#61= IFCCARTESIANPOINT((127.5,0.,255.));
#62= IFCCARTESIANPOINT((127.5,-8.48528137423818,255.));
#63= IFCCARTESIANPOINT((-127.5,-8.48528137423818,255.));
#64= IFCCARTESIANPOINT((-127.5,0.,255.));
#65= IFCPOLYLOOP((#61,#62,#63,#64));
#66= IFCFACEOUTERBOUND(#65,.T.);
#67= IFCFACE((#66));
#68= IFCCARTESIANPOINT((135.98528137424,0.,263.485281374239));
#69= IFCCARTESIANPOINT((-135.98528137424,0.,263.485281374239));
#70= IFCPOLYLOOP((#62,#68,#69,#63));
#71= IFCFACEOUTERBOUND(#70,.T.);
#72= IFCFACE((#71));
#73= IFCPOLYLOOP((#68,#61,#64,#69));
#74= IFCFACEOUTERBOUND(#73,.T.);
#75= IFCFACE((#74));
#76= IFCCARTESIANPOINT((127.5,0.,0.));
#77= IFCCARTESIANPOINT((127.5,-8.48528137423818,0.));
#78= IFCPOLYLOOP((#76,#77,#62,#61));
#79= IFCFACEOUTERBOUND(#78,.T.);
#80= IFCFACE((#79));
#81= IFCCARTESIANPOINT((135.98528137424,0.,-8.48528137423864));
#82= IFCPOLYLOOP((#77,#81,#68,#62));
#83= IFCFACEOUTERBOUND(#82,.T.);
#84= IFCFACE((#83));
#85= IFCPOLYLOOP((#81,#76,#61,#68));
#86= IFCFACEOUTERBOUND(#85,.T.);
#87= IFCFACE((#86));
#88= IFCCARTESIANPOINT((-127.5,0.,0.));
#89= IFCCARTESIANPOINT((-127.5,-8.48528137423818,0.));
#90= IFCPOLYLOOP((#88,#89,#77,#76));
#91= IFCFACEOUTERBOUND(#90,.T.);
#92= IFCFACE((#91));
#93= IFCCARTESIANPOINT((-135.98528137424,0.,-8.48528137423864));
#94= IFCPOLYLOOP((#89,#93,#81,#77));
#95= IFCFACEOUTERBOUND(#94,.T.);
#96= IFCFACE((#95));
#97= IFCPOLYLOOP((#93,#88,#76,#81));
#98= IFCFACEOUTERBOUND(#97,.T.);
#99= IFCFACE((#98));
#100= IFCPOLYLOOP((#64,#63,#89,#88));
#101= IFCFACEOUTERBOUND(#100,.T.);
#102= IFCFACE((#101));
#103= IFCPOLYLOOP((#63,#69,#93,#89));
#104= IFCFACEOUTERBOUND(#103,.T.);
#105= IFCFACE((#104));
#106= IFCPOLYLOOP((#69,#64,#88,#93));
#107= IFCFACEOUTERBOUND(#106,.T.);
#108= IFCFACE((#107));
#109= IFCPOLYLOOP((#69,#64,#63));
#110= IFCFACEOUTERBOUND(#109,.T.);
#111= IFCFACE((#110));
#112= IFCPOLYLOOP((#69,#63,#64));
#113= IFCFACEOUTERBOUND(#112,.T.);
#114= IFCFACE((#113));
#115= IFCCLOSEDSHELL((#67,#72,#75,#80,#84,#87,#92,#96,#99,#102,#105,#108,#111,#114));
#116= IFCFACETEDBREP(#115);
#117= IFCSHAPEREPRESENTATION(#12,'Body','Brep',(#116));
#118= IFCCARTESIANPOINT((-127.5,255.,0.));
#119= IFCCARTESIANPOINT((127.5,255.,0.));
#120= IFCPOLYLINE((#118,#88,#76,#119,#118));
#121= IFCSHAPEREPRESENTATION(#13,'Axis','GeometricCurveSet',(#120));
#122= IFCPRODUCTDEFINITIONSHAPE($,$,(#117,#121));
#123= IFCFASTENER('28V6Zu8u9FZvsUBQ72FqVP',#44,'Weld',$,$,#60,#122,'ID887c68f8-2382-4f8f-9d9e-2da1c23f47d9');
#124= IFCPROPERTYSINGLEVALUE('FieldWeld',$,IFCBOOLEAN(.F.),$);
#125= IFCPROPERTYSINGLEVALUE('WeldDescription',$,$,$);
#126= IFCPROPERTYSINGLEVALUE('WeldCategory',$,IFCLABEL('Ninguno'),$);
#127= IFCPROPERTYSINGLEVALUE('WPSCode',$,IFCIDENTIFIER('Ninguno'),$);
#128= IFCPROPERTYSINGLEVALUE('WeldID',$,IFCINTEGER(94232908),$);
#129= IFCPROPERTYSINGLEVALUE('z',$,IFCPOSITIVELENGTHMEASURE(6.),$);
#130= IFCPROPERTYSINGLEVALUE('s',$,IFCPOSITIVELENGTHMEASURE(0.),$);
#131= IFCPROPERTYSINGLEVALUE('n',$,$,$);
#132= IFCPROPERTYSINGLEVALUE('l',$,IFCPOSITIVELENGTHMEASURE(1020.),$);
#133= IFCPROPERTYSINGLEVALUE('e',$,IFCPOSITIVELENGTHMEASURE(0.),$);
#134= IFCPROPERTYSINGLEVALUE('d',$,IFCPOSITIVELENGTHMEASURE(0.),$);
#135= IFCPROPERTYSINGLEVALUE('c',$,IFCPOSITIVELENGTHMEASURE(6.),$);
#136= IFCPROPERTYSINGLEVALUE('a',$,IFCPOSITIVELENGTHMEASURE(0.),$);
#137= IFCPROPERTYSINGLEVALUE('Staggered',$,IFCBOOLEAN(.F.),$);
#138= IFCPROPERTYSINGLEVALUE('Intermittent',$,IFCBOOLEAN(.F.),$);
#139= IFCPROPERTYSINGLEVALUE('WeldType1',$,IFCLABEL('SOLDADURA'),$);
#140= IFCPROPERTYSET('0i1ilauTP2uhvUbkKAaRsO',#5,'AISC_EM11_Pset_Weld','WeldIdentity',(#124,#125,#126,#127,#128,#129,#130,#131,#132,#133,#134,#135,#136,#137,#138,#139));
#141= IFCOWNERHISTORY(#3,#4,$,.NOCHANGE.,$,$,$,1775066400);
#142= IFCLOCALPLACEMENT(#42,#10);
#143= IFCELEMENTASSEMBLY('1GZoaUcXX6KAscunZa_20U',#141,'BEAM',$,$,#142,$,'B/1032',.NOTDEFINED.,.RIGID_FRAME.);
#144= IFCPROPERTYSINGLEVALUE('DrawingNumber',$,IFCIDENTIFIER(''),$);
#145= IFCPROPERTYSET('2XFxsqM$rCw8C8pTkVeAwq',#5,'AISC_EM11_Pset_DrawingNumber',$,(#144));
#146= IFCPROPERTYSINGLEVALUE('AssemblyMark',$,IFCIDENTIFIER('B/1032'),$);
#147= IFCPROPERTYSET('28QCwjJ$5A69DXF5PDPZe8',#5,'AISC_EM11_Pset_AssemblyIdentification','AssemblyIdentity',(#146,#53,#54));
#148= IFCCARTESIANPOINT((59362.4997253418,1603.38122277425,19350.));
#149= IFCDIRECTION((0.,0.,-1.));
#150= IFCAXIS2PLACEMENT3D(#148,#58,#149);
#151= IFCLOCALPLACEMENT(#142,#150);
#152= IFCCARTESIANPOINT((17.3205080757,0.));
#153= IFCCARTESIANPOINT((8.66025403785,15.0000000000021));
#154= IFCCARTESIANPOINT((-8.66025403785,15.0000000000021));
#155= IFCCARTESIANPOINT((-17.3205080757,0.));
#156= IFCCARTESIANPOINT((-8.66025403785,-15.0000000000021));
#157= IFCCARTESIANPOINT((8.66025403785,-15.0000000000021));
#158= IFCPOLYLINE((#152,#153,#154,#155,#156,#157,#152));
#159= IFCARBITRARYCLOSEDPROFILEDEF(.AREA.,$,#158);
#160= IFCCARTESIANPOINT((0.,-18.95,0.));
#161= IFCAXIS2PLACEMENT3D(#160,#8,#7);
#162= IFCEXTRUDEDAREASOLID(#159,#161,#9,13.2);
#163= IFCDIRECTION((1.,0.));
#164= IFCCARTESIANPOINT((0.,0.));
#165= IFCAXIS2PLACEMENT2D(#164,#163);
#166= IFCCIRCLEPROFILEDEF(.AREA.,$,#165,10.);
#167= IFCCARTESIANPOINT((0.,-5.75000000000001,0.));
#168= IFCAXIS2PLACEMENT3D(#167,#8,#7);
#169= IFCEXTRUDEDAREASOLID(#166,#168,#9,55.);
#170= IFCCIRCLEPROFILEDEF(.AREA.,$,#165,18.);
#171= IFCCARTESIANPOINT((0.,15.7499999999998,0.));
#172= IFCAXIS2PLACEMENT3D(#171,#8,#7);
#173= IFCEXTRUDEDAREASOLID(#170,#172,#9,8.);
#174= IFCCARTESIANPOINT((0.,23.7499999999998,0.));
#175= IFCAXIS2PLACEMENT3D(#174,#8,#7);
#176= IFCEXTRUDEDAREASOLID(#159,#175,#9,16.);
#177= IFCCARTESIANPOINT((80.,0.,40.));
#178= IFCCARTESIANTRANSFORMATIONOPERATOR3D($,$,#177,$,$);
#179= IFCSHAPEREPRESENTATION(#12,'Body','SweptSolid',(#162,#169,#173,#176));
#180= IFCREPRESENTATIONMAP(#10,#179);
#181= IFCMAPPEDITEM(#180,#178);
#182= IFCCARTESIANPOINT((150.,0.,40.));
#183= IFCCARTESIANTRANSFORMATIONOPERATOR3D($,$,#182,$,$);
#184= IFCMAPPEDITEM(#180,#183);
#185= IFCCARTESIANPOINT((220.,0.,40.));
#186= IFCCARTESIANTRANSFORMATIONOPERATOR3D($,$,#185,$,$);
#187= IFCMAPPEDITEM(#180,#186);
#188= IFCCARTESIANPOINT((290.,0.,40.));
#189= IFCCARTESIANTRANSFORMATIONOPERATOR3D($,$,#188,$,$);
#190= IFCMAPPEDITEM(#180,#189);
#191= IFCCARTESIANPOINT((360.,0.,40.));
#192= IFCCARTESIANTRANSFORMATIONOPERATOR3D($,$,#191,$,$);
#193= IFCMAPPEDITEM(#180,#192);
#194= IFCSHAPEREPRESENTATION(#12,'Body','MappedRepresentation',(#181,#184,#187,#190,#193));
#195= IFCCARTESIANPOINT((0.,55.,0.));
#196= IFCPOLYLINE((#160,#195));
#197= IFCSHAPEREPRESENTATION(#12,'Axis','GeometricCurveSet',(#196));
#198= IFCREPRESENTATIONMAP(#10,#197);
#199= IFCMAPPEDITEM(#198,#178);
#200= IFCMAPPEDITEM(#198,#183);
#201= IFCMAPPEDITEM(#198,#186);
#202= IFCMAPPEDITEM(#198,#189);
#203= IFCMAPPEDITEM(#198,#192);
#204= IFCSHAPEREPRESENTATION(#12,'Axis','MappedRepresentation',(#199,#200,#201,#202,#203));
#205= IFCPRODUCTDEFINITIONSHAPE($,$,(#194,#204));
#206= IFCMECHANICALFASTENER('0BVgIreSf5AgSB6XaZF3_b',#44,'Bolt assembly',$,$,#151,#205,'ID0b7ea4b5-a1ca-452a-a70b-1a19233c3fa5',20.,55.);
#207= IFCPROPERTYSINGLEVALUE('BoltFieldAssembled',$,IFCBOOLEAN(.F.),$);
#208= IFCPROPERTYSINGLEVALUE('BoltGrade',$,IFCIDENTIFIER('5.6'),$);
#209= IFCPROPERTYSINGLEVALUE('BoltDiameter',$,IFCPOSITIVELENGTHMEASURE(20.),$);
#210= IFCPROPERTYSINGLEVALUE('BoltLength',$,IFCPOSITIVELENGTHMEASURE(55.),$);
#211= IFCPROPERTYSINGLEVALUE('BoltStandard',$,IFCIDENTIFIER('7968'),$);
#212= IFCPROPERTYSINGLEVALUE('BoltType',$,IFCIDENTIFIER('7968'),$);
#213= IFCPROPERTYSET('2hYBYr1pvBSBIb_nVhEy9X',#5,'AISC_EM11_Pset_Bolt','BoltIdentity',(#207,#208,#209,#210,#211,#212));
#214= IFCPROPERTYSINGLEVALUE('NutSize',$,IFCPOSITIVELENGTHMEASURE(20.),$);
#215= IFCPROPERTYSINGLEVALUE('NutStandard',$,IFCIDENTIFIER('555'),$);
#216= IFCPROPERTYSET('3nkesPOiPEew4TNIpQUVCV',#5,'AISC_EM11_Pset_Nut','NutIdentity',(#214,#215));
#217= IFCPROPERTYSINGLEVALUE('WasherThickness',$,IFCPOSITIVELENGTHMEASURE(8.),$);
#218= IFCPROPERTYSINGLEVALUE('WasherSize',$,IFCPOSITIVELENGTHMEASURE(20.),$);
#219= IFCPROPERTYSINGLEVALUE('WasherStandard',$,IFCIDENTIFIER('7989'),$);
#220= IFCPROPERTYSINGLEVALUE('HeadSideWashers',$,IFCBOOLEAN(.F.),$);
#221= IFCPROPERTYSET('3nOLYcsRz3CBGwi9GidaEU',#5,'AISC_EM11_Pset_Washer','WasherIdentity',(#217,#218,#219,#220));
#222= IFCMATERIAL('Undefined');
#223= IFCCARTESIANPOINT((59372.5,1587.631,19130.));
#224= IFCAXIS2PLACEMENT3D(#223,#58,#149);
#225= IFCLOCALPLACEMENT(#46,#224);
#226= IFCCARTESIANPOINT((-180.,0.,1.4142135623697));
#227= IFCCARTESIANPOINT((-180.,0.,0.));
#228= IFCCARTESIANPOINT((180.,0.,0.));
#229= IFCCARTESIANPOINT((180.,0.,1.4142135623697));
#230= IFCPOLYLOOP((#226,#227,#228,#229));
#231= IFCFACEOUTERBOUND(#230,.T.);
#232= IFCFACE((#231));
#233= IFCCARTESIANPOINT((-180.,1.41421356237311,0.));
#234= IFCCARTESIANPOINT((180.,1.41421356237311,0.));
#235= IFCPOLYLOOP((#227,#233,#234,#228));
#236= IFCFACEOUTERBOUND(#235,.T.);
#237= IFCFACE((#236));
#238= IFCPOLYLOOP((#233,#226,#229,#234));
#239= IFCFACEOUTERBOUND(#238,.T.);
#240= IFCFACE((#239));
#241= IFCPOLYLOOP((#234,#229,#228));
#242= IFCFACEOUTERBOUND(#241,.T.);
#243= IFCFACE((#242));
#244= IFCPOLYLOOP((#233,#227,#226));
#245= IFCFACEOUTERBOUND(#244,.T.);
#246= IFCFACE((#245));
#247= IFCCARTESIANPOINT((180.,-10.,1.4142135623697));
#248= IFCCARTESIANPOINT((180.,-10.,0.));
#249= IFCCARTESIANPOINT((-180.,-10.,0.));
#250= IFCCARTESIANPOINT((-180.,-10.,1.4142135623697));
#251= IFCPOLYLOOP((#247,#248,#249,#250));
#252= IFCFACEOUTERBOUND(#251,.T.);
#253= IFCFACE((#252));
#254= IFCCARTESIANPOINT((180.,-11.4142135623731,0.));
#255= IFCCARTESIANPOINT((-180.,-11.4142135623731,0.));
#256= IFCPOLYLOOP((#248,#254,#255,#249));
#257= IFCFACEOUTERBOUND(#256,.T.);
#258= IFCFACE((#257));
#259= IFCPOLYLOOP((#254,#247,#250,#255));
#260= IFCFACEOUTERBOUND(#259,.T.);
#261= IFCFACE((#260));
#262= IFCPOLYLOOP((#255,#250,#249));
#263= IFCFACEOUTERBOUND(#262,.T.);
#264= IFCFACE((#263));
#265= IFCPOLYLOOP((#254,#248,#247));
#266= IFCFACEOUTERBOUND(#265,.T.);
#267= IFCFACE((#266));
#268= IFCCLOSEDSHELL((#232,#237,#240,#243,#246,#253,#258,#261,#264,#267));
#269= IFCFACETEDBREP(#268);
#270= IFCSHAPEREPRESENTATION(#12,'Body','Brep',(#269));
#271= IFCPOLYLINE((#227,#228));
#272= IFCCARTESIANPOINT((180.,0.,10.));
#273= IFCCARTESIANPOINT((-180.,0.,10.));
#274= IFCPOLYLINE((#272,#273));
#275= IFCSHAPEREPRESENTATION(#13,'Axis','GeometricCurveSet',(#271,#274));
#276= IFCPRODUCTDEFINITIONSHAPE($,$,(#270,#275));
#277= IFCFASTENER('19WjxzOQ10UB6lCOydcuyu',#44,'Weld',$,$,#225,#276,'ID4982defd-61a0-4078-b1af-318f279b8f38');
#278= IFCPROPERTYSINGLEVALUE('WeldID',$,IFCINTEGER(94231638),$);
#279= IFCPROPERTYSINGLEVALUE('z',$,IFCPOSITIVELENGTHMEASURE(1.),$);
#280= IFCPROPERTYSINGLEVALUE('l',$,IFCPOSITIVELENGTHMEASURE(360.),$);
#281= IFCPROPERTYSINGLEVALUE('d',$,IFCPOSITIVELENGTHMEASURE(1.),$);
#282= IFCPROPERTYSINGLEVALUE('c',$,IFCPOSITIVELENGTHMEASURE(1.),$);
#283= IFCPROPERTYSET('2E1mbLdjv2HPEvpfrWq4eB',#5,'AISC_EM11_Pset_Weld','WeldIdentity',(#124,#125,#126,#127,#278,#279,#130,#131,#280,#133,#281,#282,#136,#137,#138,#139));
#284= IFCCARTESIANPOINT((59327.4997253418,1592.63122277425,18950.));
#285= IFCAXIS2PLACEMENT3D(#284,#9,#7);
#286= IFCLOCALPLACEMENT(#46,#285);
#287= IFCRECTANGLEPROFILEDEF(.AREA.,'PL10*90',#165,10.,90.);
#288= IFCCARTESIANPOINT((0.,0.,360.));
#289= IFCAXIS2PLACEMENT3D(#288,#149,#8);
#290= IFCEXTRUDEDAREASOLID(#287,#289,#9,360.);
#291= IFCSHAPEREPRESENTATION(#12,'Body','SweptSolid',(#290));
#292= IFCPRODUCTDEFINITIONSHAPE($,$,(#291));
#293= IFCDISCRETEACCESSORY('1ID_cjgd17WRT5qnP1jOCb',#44,'Support section',$,$,#286,#292,'1077');
#294= IFCLOCALPLACEMENT(#46,#150);
#295= IFCCIRCLEPROFILEDEF(.AREA.,$,#165,11.);
#296= IFCCARTESIANPOINT((0.,5.64999999999977,0.));
#297= IFCAXIS2PLACEMENT3D(#296,#8,#7);
#298= IFCEXTRUDEDAREASOLID(#295,#297,#9,10.2);
#299= IFCSHAPEREPRESENTATION(#12,'Body','SweptSolid',(#298));
#300= IFCREPRESENTATIONMAP(#10,#299);
#301= IFCMAPPEDITEM(#300,#178);
#302= IFCMAPPEDITEM(#300,#183);
#303= IFCMAPPEDITEM(#300,#186);
#304= IFCMAPPEDITEM(#300,#189);
#305= IFCMAPPEDITEM(#300,#192);
#306= IFCSHAPEREPRESENTATION(#12,'Body','MappedRepresentation',(#301,#302,#303,#304,#305));
#307= IFCPRODUCTDEFINITIONSHAPE($,$,(#306));
#308= IFCOPENINGELEMENT('0ZOzdfKS1DgBCTHoNfTgjy',#5,$,$,'Opening',#294,#307,$);
#309= IFCRELVOIDSELEMENT('2WpvyDhVr77OdKXJxj9n_c',#5,'Drill Hole',$,#293,#308);
#310= IFCPROPERTYSINGLEVALUE('FeatureSubTypes',$,IFCLABEL('TORNILLO'),$);
#311= IFCPROPERTYSINGLEVALUE('RectangleOpeningWidth',$,$,$);
#312= IFCPROPERTYSINGLEVALUE('RectangleOpeningHeight',$,$,$);
#313= IFCPROPERTYSINGLEVALUE('OpeningDiameter',$,$,$);
#314= IFCPROPERTYSET('3Fm5pIrDvBCh6aQNQ7OAGx',#5,'AISC_EM11_Pset_Opening/Cope',$,(#310,#311,#312,#313));
#315= IFCPROPERTYSINGLEVALUE('PieceMark',$,IFCIDENTIFIER('PLACA'),$);
#316= IFCPROPERTYSINGLEVALUE('IndicationMark',$,IFCIDENTIFIER('1077'),$);
#317= IFCPROPERTYSINGLEVALUE('PrelimMark',$,IFCIDENTIFIER(''),$);
#318= IFCPROPERTYSINGLEVALUE('MainPieceTag',$,IFCBOOLEAN(.F.),$);
#319= IFCPROPERTYSET('2nnEF0fiDClBhhpgr2N7z5',#5,'AISC_EM11_Pset_PieceIdentification','PieceIdentity',(#315,#316,#317,#318));
#320= IFCPROPERTYSINGLEVALUE('MaterialType',$,IFCIDENTIFIER('STEEL'),$);
#321= IFCPROPERTYSINGLEVALUE('MaterialGrade',$,IFCIDENTIFIER('S235JR'),$);
#322= IFCPROPERTYSET('3xEnhmIQ92XQlo8AZluncM',#5,'AISC_EM11_Pset_Material',$,(#320,#321));
#323= IFCMATERIAL('STEEL/S235JR');
#324= IFCCARTESIANPOINT((59499.9997253418,1603.38135910034,13900.));
#325= IFCAXIS2PLACEMENT3D(#324,#9,#8);
#326= IFCLOCALPLACEMENT(#46,#325);
#327= IFCRECTANGLEHOLLOWPROFILEDEF(.AREA.,'[]255*1',#165,255.,255.,1.,1.,2.);
#328= IFCCARTESIANPOINT((0.,0.,9750.));
#329= IFCAXIS2PLACEMENT3D(#328,#149,#8);
#330= IFCEXTRUDEDAREASOLID(#327,#329,#9,9731.);
#331= IFCCARTESIANPOINT((0.,-125.000000000044,19.));
#332= IFCAXIS2PLACEMENT3D(#331,#9,#58);
#333= IFCPLANE(#332);
#334= IFCHALFSPACESOLID(#333,.T.);
#335= IFCBOOLEANCLIPPINGRESULT(.DIFFERENCE.,#330,#334);
#336= IFCSHAPEREPRESENTATION(#12,'Body','Clipping',(#335));
#337= IFCPRODUCTDEFINITIONSHAPE($,$,(#336));
#338= IFCDISCRETEACCESSORY('2luydRcZTF8x6QBiGDw7F$',#141,'Support section',$,$,#326,#337,'c/29');
#339= IFCPROPERTYSINGLEVALUE('PieceMark',$,IFCIDENTIFIER('COLUMN'),$);
#340= IFCPROPERTYSINGLEVALUE('IndicationMark',$,IFCIDENTIFIER('c/29'),$);
#341= IFCPROPERTYSET('0MfJVZSwb8yAPFkPPDUFzH',#5,'AISC_EM11_Pset_PieceIdentification','PieceIdentity',(#339,#340,#317,#318));
#342= IFCLOCALPLACEMENT(#42,#10);
#343= IFCELEMENTASSEMBLY('2dwctVJEX3PRsnhTTI0U8Q',#44,'BEAM',$,$,#342,$,'B/384',.NOTDEFINED.,.RIGID_FRAME.);
#344= IFCPROPERTYSINGLEVALUE('AssemblyMark',$,IFCIDENTIFIER('B/384'),$);
#345= IFCPROPERTYSET('1obYFHaXHEifmESj3BK7qn',#5,'AISC_EM11_Pset_AssemblyIdentification','AssemblyIdentity',(#344,#53,#54));
#346= IFCCARTESIANPOINT((59319.9997253405,1603.41821446168,23150.));
#347= IFCDIRECTION((0.000959589999612945,0.99999953959341,0.));
#348= IFCDIRECTION((-0.99999953959341,0.000959589999609728,0.));
#349= IFCAXIS2PLACEMENT3D(#346,#347,#348);
#350= IFCLOCALPLACEMENT(#342,#349);
#351= IFCCARTESIANPOINT((19.05255888327,0.));
#352= IFCCARTESIANPOINT((9.526279441635,16.5000000000023));
#353= IFCCARTESIANPOINT((-9.526279441635,16.5000000000023));
#354= IFCCARTESIANPOINT((-19.05255888327,0.));
#355= IFCCARTESIANPOINT((-9.526279441635,-16.5000000000023));
#356= IFCCARTESIANPOINT((9.526279441635,-16.5000000000023));
#357= IFCPOLYLINE((#351,#352,#353,#354,#355,#356,#351));
#358= IFCARBITRARYCLOSEDPROFILEDEF(.AREA.,$,#357);
#359= IFCCARTESIANPOINT((0.,-33.5199999999999,0.));
#360= IFCAXIS2PLACEMENT3D(#359,#8,#7);
#361= IFCEXTRUDEDAREASOLID(#358,#360,#9,14.52);
#362= IFCCARTESIANPOINT((0.,-18.9999999999999,0.));
#363= IFCAXIS2PLACEMENT3D(#362,#8,#7);
#364= IFCEXTRUDEDAREASOLID(#295,#363,#9,85.);
#365= IFCCIRCLEPROFILEDEF(.AREA.,$,#165,20.);
#366= IFCCARTESIANPOINT((0.,31.,0.));
#367= IFCAXIS2PLACEMENT3D(#366,#8,#7);
#368= IFCEXTRUDEDAREASOLID(#365,#367,#9,8.);
#369= IFCCARTESIANPOINT((18.47520861408,0.));
#370= IFCCARTESIANPOINT((9.23760430704,16.0000000000023));
#371= IFCCARTESIANPOINT((-9.23760430704,16.0000000000023));
#372= IFCCARTESIANPOINT((-18.47520861408,0.));
#373= IFCCARTESIANPOINT((-9.23760430704,-16.0000000000023));
#374= IFCCARTESIANPOINT((9.23760430704,-16.0000000000023));
#375= IFCPOLYLINE((#369,#370,#371,#372,#373,#374,#369));
#376= IFCARBITRARYCLOSEDPROFILEDEF(.AREA.,$,#375);
#377= IFCCARTESIANPOINT((0.,39.,0.));
#378= IFCAXIS2PLACEMENT3D(#377,#8,#7);
#379= IFCEXTRUDEDAREASOLID(#376,#378,#9,18.);
#380= IFCCARTESIANPOINT((-3.71073838323355E-10,0.,74.9999999999864));
#381= IFCCARTESIANTRANSFORMATIONOPERATOR3D($,$,#380,$,$);
#382= IFCSHAPEREPRESENTATION(#12,'Body','SweptSolid',(#361,#364,#368,#379));
#383= IFCREPRESENTATIONMAP(#10,#382);
#384= IFCMAPPEDITEM(#383,#381);
#385= IFCCARTESIANPOINT((74.9999999994034,0.,75.0000000003274));
#386= IFCCARTESIANTRANSFORMATIONOPERATOR3D($,$,#385,$,$);
#387= IFCMAPPEDITEM(#383,#386);
#388= IFCCARTESIANPOINT((149.999999999185,0.,75.0000000006685));
#389= IFCCARTESIANTRANSFORMATIONOPERATOR3D($,$,#388,$,$);
#390= IFCMAPPEDITEM(#383,#389);
#391= IFCCARTESIANPOINT((224.999999998967,0.,75.0000000010098));
#392= IFCCARTESIANTRANSFORMATIONOPERATOR3D($,$,#391,$,$);
#393= IFCMAPPEDITEM(#383,#392);
#394= IFCCARTESIANPOINT((299.999999998749,0.,75.0000000013508));
#395= IFCCARTESIANTRANSFORMATIONOPERATOR3D($,$,#394,$,$);
#396= IFCMAPPEDITEM(#383,#395);
#397= IFCCARTESIANPOINT((374.999999998538,0.,75.0000000016921));
#398= IFCCARTESIANTRANSFORMATIONOPERATOR3D($,$,#397,$,$);
#399= IFCMAPPEDITEM(#383,#398);
#400= IFCCARTESIANPOINT((449.999999998312,0.,75.0000000020332));
#401= IFCCARTESIANTRANSFORMATIONOPERATOR3D($,$,#400,$,$);
#402= IFCMAPPEDITEM(#383,#401);
#403= IFCCARTESIANPOINT((524.999999998094,0.,75.0000000023745));
#404= IFCCARTESIANTRANSFORMATIONOPERATOR3D($,$,#403,$,$);
#405= IFCMAPPEDITEM(#383,#404);
#406= IFCCARTESIANPOINT((599.999999997875,0.,75.0000000027155));
#407= IFCCARTESIANTRANSFORMATIONOPERATOR3D($,$,#406,$,$);
#408= IFCMAPPEDITEM(#383,#407);
#409= IFCCARTESIANPOINT((674.999999997657,0.,75.0000000030566));
#410= IFCCARTESIANTRANSFORMATIONOPERATOR3D($,$,#409,$,$);
#411= IFCMAPPEDITEM(#383,#410);
#412= IFCCARTESIANPOINT((3.78349795937538E-10,0.,-74.9999999999866));
#413= IFCCARTESIANTRANSFORMATIONOPERATOR3D($,$,#412,$,$);
#414= IFCMAPPEDITEM(#383,#413);
#415= IFCCARTESIANPOINT((75.0000000001601,0.,-74.9999999996453));
#416= IFCCARTESIANTRANSFORMATIONOPERATOR3D($,$,#415,$,$);
#417= IFCMAPPEDITEM(#383,#416);
#418= IFCCARTESIANPOINT((149.999999999935,0.,-74.9999999993042));
#419= IFCCARTESIANTRANSFORMATIONOPERATOR3D($,$,#418,$,$);
#420= IFCMAPPEDITEM(#383,#419);
#421= IFCCARTESIANPOINT((224.999999999716,0.,-74.9999999989632));
#422= IFCCARTESIANTRANSFORMATIONOPERATOR3D($,$,#421,$,$);
#423= IFCMAPPEDITEM(#383,#422);
#424= IFCCARTESIANPOINT((299.999999999498,0.,-74.9999999986219));
#425= IFCCARTESIANTRANSFORMATIONOPERATOR3D($,$,#424,$,$);
#426= IFCMAPPEDITEM(#383,#425);
#427= IFCCARTESIANPOINT((374.99999999928,0.,-74.9999999982808));
#428= IFCCARTESIANTRANSFORMATIONOPERATOR3D($,$,#427,$,$);
#429= IFCMAPPEDITEM(#383,#428);
#430= IFCCARTESIANPOINT((449.999999999069,0.,-74.9999999979395));
#431= IFCCARTESIANTRANSFORMATIONOPERATOR3D($,$,#430,$,$);
#432= IFCMAPPEDITEM(#383,#431);
#433= IFCCARTESIANPOINT((524.999999998843,0.,-74.9999999975985));
#434= IFCCARTESIANTRANSFORMATIONOPERATOR3D($,$,#433,$,$);
#435= IFCMAPPEDITEM(#383,#434);
#436= IFCCARTESIANPOINT((599.999999998625,0.,-74.9999999972574));
#437= IFCCARTESIANTRANSFORMATIONOPERATOR3D($,$,#436,$,$);
#438= IFCMAPPEDITEM(#383,#437);
#439= IFCCARTESIANPOINT((674.999999998407,0.,-74.9999999969161));
#440= IFCCARTESIANTRANSFORMATIONOPERATOR3D($,$,#439,$,$);
#441= IFCMAPPEDITEM(#383,#440);
#442= IFCSHAPEREPRESENTATION(#12,'Body','MappedRepresentation',(#384,#387,#390,#393,#396,#399,#402,#405,#408,#411,#414,#417,#420,#423,#426,#429,#432,#435,#438,#441));
#443= IFCCARTESIANPOINT((0.,85.,0.));
#444= IFCPOLYLINE((#359,#443));
#445= IFCSHAPEREPRESENTATION(#12,'Axis','GeometricCurveSet',(#444));
#446= IFCREPRESENTATIONMAP(#10,#445);
#447= IFCMAPPEDITEM(#446,#381);
#448= IFCMAPPEDITEM(#446,#386);
#449= IFCMAPPEDITEM(#446,#389);
#450= IFCMAPPEDITEM(#446,#392);
#451= IFCMAPPEDITEM(#446,#395);
#452= IFCMAPPEDITEM(#446,#398);
#453= IFCMAPPEDITEM(#446,#401);
#454= IFCMAPPEDITEM(#446,#404);
#455= IFCMAPPEDITEM(#446,#407);
#456= IFCMAPPEDITEM(#446,#410);
#457= IFCMAPPEDITEM(#446,#413);
#458= IFCMAPPEDITEM(#446,#416);
#459= IFCMAPPEDITEM(#446,#419);
#460= IFCMAPPEDITEM(#446,#422);
#461= IFCMAPPEDITEM(#446,#425);
#462= IFCMAPPEDITEM(#446,#428);
#463= IFCMAPPEDITEM(#446,#431);
#464= IFCMAPPEDITEM(#446,#434);
#465= IFCMAPPEDITEM(#446,#437);
#466= IFCMAPPEDITEM(#446,#440);
#467= IFCSHAPEREPRESENTATION(#12,'Axis','MappedRepresentation',(#447,#448,#449,#450,#451,#452,#453,#454,#455,#456,#457,#458,#459,#460,#461,#462,#463,#464,#465,#466));
#468= IFCPRODUCTDEFINITIONSHAPE($,$,(#442,#467));
#469= IFCMECHANICALFASTENER('0sGiX3RaX1R9Uj_$a1rEyv',#44,'Bolt assembly',$,$,#350,#468,'ID3642c843-6e48-416c-97ad-fbf901d4ef39',22.,85.);
#470= IFCPROPERTYSINGLEVALUE('BoltDiameter',$,IFCPOSITIVELENGTHMEASURE(22.),$);
#471= IFCPROPERTYSINGLEVALUE('BoltLength',$,IFCPOSITIVELENGTHMEASURE(85.),$);
#472= IFCPROPERTYSINGLEVALUE('BoltStandard',$,IFCIDENTIFIER('7990'),$);
#473= IFCPROPERTYSINGLEVALUE('BoltType',$,IFCIDENTIFIER('7990'),$);
#474= IFCPROPERTYSET('366VNyf0f3PAvLgBpyS0Ht',#5,'AISC_EM11_Pset_Bolt','BoltIdentity',(#207,#208,#470,#471,#472,#473));
#475= IFCPROPERTYSINGLEVALUE('NutSize',$,IFCPOSITIVELENGTHMEASURE(22.),$);
#476= IFCPROPERTYSET('0WIRPNfcX5jxnXUGHT2Lkl',#5,'AISC_EM11_Pset_Nut','NutIdentity',(#475,#215));
#477= IFCPROPERTYSINGLEVALUE('WasherSize',$,IFCPOSITIVELENGTHMEASURE(22.),$);
#478= IFCPROPERTYSET('0XH0U6lor2oRIqLnrLq$HN',#5,'AISC_EM11_Pset_Washer','WasherIdentity',(#217,#477,#219,#220));
#479= IFCLOCALPLACEMENT(#42,#10);
#480= IFCELEMENTASSEMBLY('0HC1pgZMX2JedEw354nwm6',#44,'BEAM',$,$,#479,$,'B/1142',.NOTDEFINED.,.RIGID_FRAME.);
#481= IFCPROPERTYSINGLEVALUE('AssemblyMark',$,IFCIDENTIFIER('B/1142'),$);
#482= IFCPROPERTYSET('057GLd6wnBfhjFULKzLdYI',#5,'AISC_EM11_Pset_AssemblyIdentification','AssemblyIdentity',(#481,#53,#54));
#483= IFCCARTESIANPOINT((59499.9997277552,1428.38132995048,23150.));
#484= IFCAXIS2PLACEMENT3D(#483,#58,#57);
#485= IFCLOCALPLACEMENT(#479,#484);
#486= IFCEXTRUDEDAREASOLID(#295,#363,#9,75.);
#487= IFCCARTESIANPOINT((0.,14.6000003800018,0.));
#488= IFCAXIS2PLACEMENT3D(#487,#8,#7);
#489= IFCEXTRUDEDAREASOLID(#365,#488,#9,8.);
#490= IFCCARTESIANPOINT((0.,22.6000003800018,0.));
#491= IFCAXIS2PLACEMENT3D(#490,#8,#7);
#492= IFCEXTRUDEDAREASOLID(#376,#491,#9,18.);
#493= IFCCARTESIANPOINT((0.,0.,-50.0000000000146));
#494= IFCCARTESIANTRANSFORMATIONOPERATOR3D($,$,#493,$,$);
#495= IFCSHAPEREPRESENTATION(#12,'Body','SweptSolid',(#361,#486,#489,#492));
#496= IFCREPRESENTATIONMAP(#10,#495);
#497= IFCMAPPEDITEM(#496,#494);
#498= IFCCARTESIANPOINT((69.999999999992,0.,-50.0000000000655));
#499= IFCCARTESIANTRANSFORMATIONOPERATOR3D($,$,#498,$,$);
#500= IFCMAPPEDITEM(#496,#499);
#501= IFCCARTESIANPOINT((139.999999999984,0.,-50.0000000001091));
#502= IFCCARTESIANTRANSFORMATIONOPERATOR3D($,$,#501,$,$);
#503= IFCMAPPEDITEM(#496,#502);
#504= IFCCARTESIANPOINT((209.999999999976,0.,-50.0000000001601));
#505= IFCCARTESIANTRANSFORMATIONOPERATOR3D($,$,#504,$,$);
#506= IFCMAPPEDITEM(#496,#505);
#507= IFCCARTESIANPOINT((279.999999999968,0.,-50.0000000002037));
#508= IFCCARTESIANTRANSFORMATIONOPERATOR3D($,$,#507,$,$);
#509= IFCMAPPEDITEM(#496,#508);
#510= IFCCARTESIANPOINT((349.99999999996,0.,-50.0000000002547));
#511= IFCCARTESIANTRANSFORMATIONOPERATOR3D($,$,#510,$,$);
#512= IFCMAPPEDITEM(#496,#511);
#513= IFCCARTESIANPOINT((419.999999999952,0.,-50.0000000003056));
#514= IFCCARTESIANTRANSFORMATIONOPERATOR3D($,$,#513,$,$);
#515= IFCMAPPEDITEM(#496,#514);
#516= IFCCARTESIANPOINT((0.,0.,50.0000000000146));
#517= IFCCARTESIANTRANSFORMATIONOPERATOR3D($,$,#516,$,$);
#518= IFCMAPPEDITEM(#496,#517);
#519= IFCCARTESIANPOINT((69.999999999992,0.,49.9999999999709));
#520= IFCCARTESIANTRANSFORMATIONOPERATOR3D($,$,#519,$,$);
#521= IFCMAPPEDITEM(#496,#520);
#522= IFCCARTESIANPOINT((139.999999999984,0.,49.99999999992));
#523= IFCCARTESIANTRANSFORMATIONOPERATOR3D($,$,#522,$,$);
#524= IFCMAPPEDITEM(#496,#523);
#525= IFCCARTESIANPOINT((209.999999999976,0.,49.9999999998763));
#526= IFCCARTESIANTRANSFORMATIONOPERATOR3D($,$,#525,$,$);
#527= IFCMAPPEDITEM(#496,#526);
#528= IFCCARTESIANPOINT((279.999999999968,0.,49.9999999998254));
#529= IFCCARTESIANTRANSFORMATIONOPERATOR3D($,$,#528,$,$);
#530= IFCMAPPEDITEM(#496,#529);
#531= IFCCARTESIANPOINT((349.99999999996,0.,49.9999999997817));
#532= IFCCARTESIANTRANSFORMATIONOPERATOR3D($,$,#531,$,$);
#533= IFCMAPPEDITEM(#496,#532);
#534= IFCCARTESIANPOINT((419.999999999952,0.,49.9999999997308));
#535= IFCCARTESIANTRANSFORMATIONOPERATOR3D($,$,#534,$,$);
#536= IFCMAPPEDITEM(#496,#535);
#537= IFCSHAPEREPRESENTATION(#12,'Body','MappedRepresentation',(#497,#500,#503,#506,#509,#512,#515,#518,#521,#524,#527,#530,#533,#536));
#538= IFCCARTESIANPOINT((0.,75.,0.));
#539= IFCPOLYLINE((#359,#538));
#540= IFCSHAPEREPRESENTATION(#12,'Axis','GeometricCurveSet',(#539));
#541= IFCREPRESENTATIONMAP(#10,#540);
#542= IFCMAPPEDITEM(#541,#494);
#543= IFCMAPPEDITEM(#541,#499);
#544= IFCMAPPEDITEM(#541,#502);
#545= IFCMAPPEDITEM(#541,#505);
#546= IFCMAPPEDITEM(#541,#508);
#547= IFCMAPPEDITEM(#541,#511);
#548= IFCMAPPEDITEM(#541,#514);
#549= IFCMAPPEDITEM(#541,#517);
#550= IFCMAPPEDITEM(#541,#520);
#551= IFCMAPPEDITEM(#541,#523);
#552= IFCMAPPEDITEM(#541,#526);
#553= IFCMAPPEDITEM(#541,#529);
#554= IFCMAPPEDITEM(#541,#532);
#555= IFCMAPPEDITEM(#541,#535);
#556= IFCSHAPEREPRESENTATION(#12,'Axis','MappedRepresentation',(#542,#543,#544,#545,#546,#547,#548,#549,#550,#551,#552,#553,#554,#555));
#557= IFCPRODUCTDEFINITIONSHAPE($,$,(#537,#556));
#558= IFCMECHANICALFASTENER('3Dhc6JCnnF$PycwxM1Z8Z2',#44,'Bolt assembly',$,$,#485,#557,'IDcdae6193-331c-4ffd-9f26-ebb5818c88c2',22.,75.);
#559= IFCPROPERTYSINGLEVALUE('BoltLength',$,IFCPOSITIVELENGTHMEASURE(75.),$);
#560= IFCPROPERTYSET('2IDLNZd7LDIAmHPKX4W2E2',#5,'AISC_EM11_Pset_Bolt','BoltIdentity',(#207,#208,#470,#559,#472,#473));
#561= IFCLOCALPLACEMENT(#42,#10);
#562= IFCELEMENTASSEMBLY('3k3ofm4xzCufOGWbV0NPY9',#44,'BEAM',$,$,#561,$,'B/385',.NOTDEFINED.,.RIGID_FRAME.);
#563= IFCPROPERTYSINGLEVALUE('AssemblyMark',$,IFCIDENTIFIER('B/385'),$);
#564= IFCPROPERTYSET('0pGM5Rpof2Ve70EuzvhC2Y',#5,'AISC_EM11_Pset_AssemblyIdentification','AssemblyIdentity',(#563,#53,#54));
#565= IFCCARTESIANPOINT((59674.9997253418,1603.38125423697,23150.));
#566= IFCDIRECTION((0.000959355999824766,-0.999999539817927,0.));
#567= IFCDIRECTION((0.999999539817927,0.000959355999825416,0.));
#568= IFCAXIS2PLACEMENT3D(#565,#566,#567);
#569= IFCLOCALPLACEMENT(#561,#568);
#570= IFCSHAPEREPRESENTATION(#12,'Body','MappedRepresentation',(#518,#521,#524,#527,#530,#533,#536,#497,#500,#503,#506,#509,#512,#515));
#571= IFCSHAPEREPRESENTATION(#12,'Axis','MappedRepresentation',(#549,#550,#551,#552,#553,#554,#555,#542,#543,#544,#545,#546,#547,#548));
#572= IFCPRODUCTDEFINITIONSHAPE($,$,(#570,#571));
#573= IFCMECHANICALFASTENER('3bZJ4JN4vAVAob$ZzQ8DpR',#44,'Bolt assembly',$,$,#569,#572,'IDe58d3113-5c4e-4a7c-aca5-fe3f5a20dcdb',22.,75.);
#574= IFCLOCALPLACEMENT(#42,#10);
#575= IFCELEMENTASSEMBLY('1UNiASxuXBth0mXGucHsCk',#44,'BEAM',$,$,#574,$,'B/1140',.NOTDEFINED.,.RIGID_FRAME.);
#576= IFCPROPERTYSINGLEVALUE('AssemblyMark',$,IFCIDENTIFIER('B/1140'),$);
#577= IFCPROPERTYSET('3tTnGb8FbEk8j6pCqLQHmg',#5,'AISC_EM11_Pset_AssemblyIdentification','AssemblyIdentity',(#576,#53,#54));
#578= IFCCARTESIANPOINT((59499.9997277553,1778.38132995034,23150.));
#579= IFCAXIS2PLACEMENT3D(#578,#7,#8);
#580= IFCLOCALPLACEMENT(#574,#579);
#581= IFCSHAPEREPRESENTATION(#12,'Body','MappedRepresentation',(#518,#521,#524,#527,#530,#533,#536,#497,#500,#503,#506,#509,#512,#515));
#582= IFCSHAPEREPRESENTATION(#12,'Axis','MappedRepresentation',(#549,#550,#551,#552,#553,#554,#555,#542,#543,#544,#545,#546,#547,#548));
#583= IFCPRODUCTDEFINITIONSHAPE($,$,(#581,#582));
#584= IFCMECHANICALFASTENER('3OrKggnvT8t8lpMZF1GTMw',#44,'Bolt assembly',$,$,#580,#583,'IDd8d54aaa-c797-48dc-8bf3-5a33c141d5ba',22.,75.);
#585= IFCCARTESIANPOINT((58605.1196740912,1728.38116522339,23140.5));
#586= IFCDIRECTION((-0.000959589999607926,-0.99999953959341,0.));
#587= IFCAXIS2PLACEMENT3D(#585,#9,#586);
#588= IFCLOCALPLACEMENT(#46,#587);
#589= IFCCARTESIANPOINT((249.999999999953,5.60248736292124E-10));
#590= IFCCARTESIANPOINT((268.032444930332,580.015566220608));
#591= IFCPOLYLINE((#164,#589,#590));
#592= IFCCOMPOSITECURVESEGMENT(.CONTINUOUS.,.T.,#591);
#593= IFCDIRECTION((-0.999517184440609,0.0310708546377248));
#594= IFCCARTESIANPOINT((467.93588182048,573.801395293));
#595= IFCAXIS2PLACEMENT2D(#594,#593);
#596= IFCCIRCLE(#595,200.);
#597= IFCTRIMMEDCURVE(#596,(IFCPARAMETERVALUE(0.)),(IFCPARAMETERVALUE(4.81637039515761)),.F.,.PARAMETER.);
#598= IFCCOMPOSITECURVESEGMENT(.CONTINUOUS.,.T.,#597);
#599= IFCCARTESIANPOINT((453.367683624188,773.270108634526));
#600= IFCCARTESIANPOINT((759.236694335795,795.609252929105));
#601= IFCCARTESIANPOINT((759.04473876939,995.609130858211));
#602= IFCCARTESIANPOINT((441.894832332498,1018.19087069272));
#603= IFCPOLYLINE((#599,#600,#601,#602));
#604= IFCCOMPOSITECURVESEGMENT(.CONTINUOUS.,.T.,#603);
#605= IFCDIRECTION((-0.0710200882079969,-0.997474885433678));
#606= IFCCARTESIANPOINT((456.098849974589,1217.68584778637));
#607= IFCAXIS2PLACEMENT2D(#606,#605);
#608= IFCCIRCLE(#607,200.);
#609= IFCTRIMMEDCURVE(#608,(IFCPARAMETERVALUE(0.)),(IFCPARAMETERVALUE(4.8840592451629)),.F.,.PARAMETER.);
#610= IFCCOMPOSITECURVESEGMENT(.CONTINUOUS.,.T.,#609);
#611= IFCCARTESIANPOINT((257.109838682576,1197.60169015406));
#612= IFCCARTESIANPOINT((223.53157043453,1530.28710937106));
#613= IFCCARTESIANPOINT((23.5319309234594,1529.9033203081));
#614= IFCCARTESIANPOINT((-9.40304590165042,1197.33813633336));
#615= IFCPOLYLINE((#611,#612,#613,#614));
#616= IFCCOMPOSITECURVESEGMENT(.CONTINUOUS.,.T.,#615);
#617= IFCDIRECTION((0.995132204121339,-0.0985489539295384));
#618= IFCCARTESIANPOINT((-208.429486721528,1217.04792711884));
#619= IFCAXIS2PLACEMENT2D(#618,#617);
#620= IFCCIRCLE(#619,200.);
#621= IFCTRIMMEDCURVE(#620,(IFCPARAMETERVALUE(0.)),(IFCPARAMETERVALUE(4.88409717442937)),.F.,.PARAMETER.);
#622= IFCCOMPOSITECURVESEGMENT(.CONTINUOUS.,.T.,#621);
#623= IFCCARTESIANPOINT((-193.842645437505,1017.58057625763));
#624= IFCCARTESIANPOINT((-510.954650878809,994.390502925628));
#625= IFCCARTESIANPOINT((-510.762725829981,794.390563961366));
#626= IFCCARTESIANPOINT((-205.317472589484,772.640306374541));
#627= IFCPOLYLINE((#623,#624,#625,#626));
#628= IFCCOMPOSITECURVESEGMENT(.CONTINUOUS.,.T.,#627);
#629= IFCDIRECTION((0.0710211637800572,0.997474808852498));
#630= IFCCARTESIANPOINT((-219.52170534511,573.145344609458));
#631= IFCAXIS2PLACEMENT2D(#630,#629);
#632= IFCCIRCLE(#631,200.);
#633= IFCTRIMMEDCURVE(#632,(IFCPARAMETERVALUE(0.)),(IFCPARAMETERVALUE(4.81731772033927)),.F.,.PARAMETER.);
#634= IFCCOMPOSITECURVESEGMENT(.CONTINUOUS.,.T.,#633);
#635= IFCCARTESIANPOINT((-19.6362613298067,579.913599084041));
#636= IFCPOLYLINE((#635,#164));
#637= IFCCOMPOSITECURVESEGMENT(.CONTINUOUS.,.T.,#636);
#638= IFCCOMPOSITECURVE((#592,#598,#604,#610,#616,#622,#628,#634,#637),.T.);
#639= IFCARBITRARYCLOSEDPROFILEDEF(.AREA.,'PL19*1276',#638);
#640= IFCCARTESIANPOINT((0.,0.,-9.5));
#641= IFCAXIS2PLACEMENT3D(#640,#9,#7);
#642= IFCEXTRUDEDAREASOLID(#639,#641,#9,19.);
#643= IFCSHAPEREPRESENTATION(#12,'Body','SweptSolid',(#642));
#644= IFCPRODUCTDEFINITIONSHAPE($,$,(#643));
#645= IFCDISCRETEACCESSORY('0WDyh0OJH5UfyJMZw3mRD9',#45,'Steel plate',$,$,#588,#644,'1282');
#646= IFCLOCALPLACEMENT(#46,#587);
#647= IFCRECTANGLEPROFILEDEF(.AREA.,'[]255*1',#165,255.,255.);
#648= IFCCARTESIANPOINT((124.141030624289,894.999587805854,509.5));
#649= IFCAXIS2PLACEMENT3D(#648,#149,#566);
#650= IFCEXTRUDEDAREASOLID(#647,#649,#9,9731.);
#651= IFCCARTESIANPOINT((124.021081874339,1019.99953025507,-9221.5));
#652= IFCAXIS2PLACEMENT3D(#651,#9,#567);
#653= IFCPLANE(#652);
#654= IFCHALFSPACESOLID(#653,.T.);
#655= IFCBOOLEANCLIPPINGRESULT(.DIFFERENCE.,#650,#654);
#656= IFCSHAPEREPRESENTATION(#12,'Body','Clipping',(#655));
#657= IFCPRODUCTDEFINITIONSHAPE($,$,(#656));
#658= IFCOPENINGELEMENT('0VSTLuZun17v8no_BGUNIn',#5,$,$,'Recess',#646,#657,$);
#659= IFCRELVOIDSELEMENT('2IT6EYspTA4RmG5vJko_re',#5,$,$,#645,#658);
#660= IFCPROPERTYSINGLEVALUE('FeatureSubTypes',$,$,$);
#661= IFCPROPERTYSINGLEVALUE('RectangleOpeningHeight',$,IFCPOSITIVELENGTHMEASURE(255.),$);
#662= IFCPROPERTYSET('3j$4fDidn1xhhWDU4mkn_9',#5,'AISC_EM11_Pset_Opening/Cope',$,(#660,#311,#661,#313));
#663= IFCLOCALPLACEMENT(#46,#349);
#664= IFCCIRCLEPROFILEDEF(.AREA.,$,#165,12.5);
#665= IFCCARTESIANPOINT((0.,-19.0999999999999,0.));
#666= IFCAXIS2PLACEMENT3D(#665,#8,#7);
#667= IFCEXTRUDEDAREASOLID(#664,#666,#9,19.2);
#668= IFCSHAPEREPRESENTATION(#12,'Body','SweptSolid',(#667));
#669= IFCREPRESENTATIONMAP(#10,#668);
#670= IFCMAPPEDITEM(#669,#381);
#671= IFCMAPPEDITEM(#669,#386);
#672= IFCMAPPEDITEM(#669,#389);
#673= IFCMAPPEDITEM(#669,#392);
#674= IFCMAPPEDITEM(#669,#395);
#675= IFCMAPPEDITEM(#669,#398);
#676= IFCMAPPEDITEM(#669,#401);
#677= IFCMAPPEDITEM(#669,#404);
#678= IFCMAPPEDITEM(#669,#407);
#679= IFCMAPPEDITEM(#669,#410);
#680= IFCMAPPEDITEM(#669,#413);
#681= IFCMAPPEDITEM(#669,#416);
#682= IFCMAPPEDITEM(#669,#419);
#683= IFCMAPPEDITEM(#669,#422);
#684= IFCMAPPEDITEM(#669,#425);
#685= IFCMAPPEDITEM(#669,#428);
#686= IFCMAPPEDITEM(#669,#431);
#687= IFCMAPPEDITEM(#669,#434);
#688= IFCMAPPEDITEM(#669,#437);
#689= IFCMAPPEDITEM(#669,#440);
#690= IFCSHAPEREPRESENTATION(#12,'Body','MappedRepresentation',(#670,#671,#672,#673,#674,#675,#676,#677,#678,#679,#680,#681,#682,#683,#684,#685,#686,#687,#688,#689));
#691= IFCPRODUCTDEFINITIONSHAPE($,$,(#690));
#692= IFCOPENINGELEMENT('2vysqeY856XvUxYpkz6y58',#5,$,$,'Opening',#663,#691,$);
#693= IFCRELVOIDSELEMENT('1Vj3bCM6v9Y8vUw050vq4q',#5,'Drill Hole',$,#645,#692);
#694= IFCLOCALPLACEMENT(#46,#484);
#695= IFCMAPPEDITEM(#669,#494);
#696= IFCMAPPEDITEM(#669,#499);
#697= IFCMAPPEDITEM(#669,#502);
#698= IFCMAPPEDITEM(#669,#505);
#699= IFCMAPPEDITEM(#669,#508);
#700= IFCMAPPEDITEM(#669,#511);
#701= IFCMAPPEDITEM(#669,#514);
#702= IFCMAPPEDITEM(#669,#517);
#703= IFCMAPPEDITEM(#669,#520);
#704= IFCMAPPEDITEM(#669,#523);
#705= IFCMAPPEDITEM(#669,#526);
#706= IFCMAPPEDITEM(#669,#529);
#707= IFCMAPPEDITEM(#669,#532);
#708= IFCMAPPEDITEM(#669,#535);
#709= IFCSHAPEREPRESENTATION(#12,'Body','MappedRepresentation',(#695,#696,#697,#698,#699,#700,#701,#702,#703,#704,#705,#706,#707,#708));
#710= IFCPRODUCTDEFINITIONSHAPE($,$,(#709));
#711= IFCOPENINGELEMENT('2pjZ9WtWr5Nx4JzuaW12Fe',#5,$,$,'Opening',#694,#710,$);
#712= IFCRELVOIDSELEMENT('07deMMnjjBL9EhLonYFfy3',#5,'Drill Hole',$,#645,#711);
#713= IFCLOCALPLACEMENT(#46,#568);
#714= IFCSHAPEREPRESENTATION(#12,'Body','MappedRepresentation',(#702,#703,#704,#705,#706,#707,#708,#695,#696,#697,#698,#699,#700,#701));
#715= IFCPRODUCTDEFINITIONSHAPE($,$,(#714));
#716= IFCOPENINGELEMENT('0Q5q1dZQX05gZFuzcEZHZp',#5,$,$,'Opening',#713,#715,$);
#717= IFCRELVOIDSELEMENT('0NdQOAUL1D9BSxeimnS4Af',#5,'Drill Hole',$,#645,#716);
#718= IFCLOCALPLACEMENT(#46,#579);
#719= IFCSHAPEREPRESENTATION(#12,'Body','MappedRepresentation',(#702,#703,#704,#705,#706,#707,#708,#695,#696,#697,#698,#699,#700,#701));
#720= IFCPRODUCTDEFINITIONSHAPE($,$,(#719));
#721= IFCOPENINGELEMENT('17ZzBe3Q5CyB0diDqPnEuu',#5,$,$,'Opening',#718,#720,$);
#722= IFCRELVOIDSELEMENT('1q6SOAaBz4ZvzGaC3WjVUv',#5,'Drill Hole',$,#645,#721);
#723= IFCPROPERTYSINGLEVALUE('PieceMark',$,IFCIDENTIFIER('PLATE'),$);
#724= IFCPROPERTYSINGLEVALUE('IndicationMark',$,IFCIDENTIFIER('1282'),$);
#725= IFCPROPERTYSET('3Otypn025FmgBx0KJaT1NX',#5,'AISC_EM11_Pset_PieceIdentification','PieceIdentity',(#723,#724,#317,#318));
#726= IFCCARTESIANPOINT((59319.9997253405,1603.41821446168,23600.));
#727= IFCAXIS2PLACEMENT3D(#726,#586,#348);
#728= IFCLOCALPLACEMENT(#342,#727);
#729= IFCCARTESIANPOINT((0.,21.,0.));
#730= IFCAXIS2PLACEMENT3D(#729,#8,#7);
#731= IFCEXTRUDEDAREASOLID(#365,#730,#9,8.);
#732= IFCCARTESIANPOINT((0.,29.,0.));
#733= IFCAXIS2PLACEMENT3D(#732,#8,#7);
#734= IFCEXTRUDEDAREASOLID(#376,#733,#9,18.);
#735= IFCSHAPEREPRESENTATION(#12,'Body','SweptSolid',(#361,#486,#731,#734));
#736= IFCREPRESENTATIONMAP(#10,#735);
#737= IFCMAPPEDITEM(#736,#413);
#738= IFCMAPPEDITEM(#736,#416);
#739= IFCMAPPEDITEM(#736,#419);
#740= IFCMAPPEDITEM(#736,#422);
#741= IFCMAPPEDITEM(#736,#425);
#742= IFCMAPPEDITEM(#736,#428);
#743= IFCMAPPEDITEM(#736,#431);
#744= IFCMAPPEDITEM(#736,#434);
#745= IFCMAPPEDITEM(#736,#437);
#746= IFCMAPPEDITEM(#736,#440);
#747= IFCMAPPEDITEM(#736,#381);
#748= IFCMAPPEDITEM(#736,#386);
#749= IFCMAPPEDITEM(#736,#389);
#750= IFCMAPPEDITEM(#736,#392);
#751= IFCMAPPEDITEM(#736,#395);
#752= IFCMAPPEDITEM(#736,#398);
#753= IFCMAPPEDITEM(#736,#401);
#754= IFCMAPPEDITEM(#736,#404);
#755= IFCMAPPEDITEM(#736,#407);
#756= IFCMAPPEDITEM(#736,#410);
#757= IFCSHAPEREPRESENTATION(#12,'Body','MappedRepresentation',(#737,#738,#739,#740,#741,#742,#743,#744,#745,#746,#747,#748,#749,#750,#751,#752,#753,#754,#755,#756));
#758= IFCMAPPEDITEM(#541,#413);
#759= IFCMAPPEDITEM(#541,#416);
#760= IFCMAPPEDITEM(#541,#419);
#761= IFCMAPPEDITEM(#541,#422);
#762= IFCMAPPEDITEM(#541,#425);
#763= IFCMAPPEDITEM(#541,#428);
#764= IFCMAPPEDITEM(#541,#431);
#765= IFCMAPPEDITEM(#541,#434);
#766= IFCMAPPEDITEM(#541,#437);
#767= IFCMAPPEDITEM(#541,#440);
#768= IFCMAPPEDITEM(#541,#381);
#769= IFCMAPPEDITEM(#541,#386);
#770= IFCMAPPEDITEM(#541,#389);
#771= IFCMAPPEDITEM(#541,#392);
#772= IFCMAPPEDITEM(#541,#395);
#773= IFCMAPPEDITEM(#541,#398);
#774= IFCMAPPEDITEM(#541,#401);
#775= IFCMAPPEDITEM(#541,#404);
#776= IFCMAPPEDITEM(#541,#407);
#777= IFCMAPPEDITEM(#541,#410);
#778= IFCSHAPEREPRESENTATION(#12,'Axis','MappedRepresentation',(#758,#759,#760,#761,#762,#763,#764,#765,#766,#767,#768,#769,#770,#771,#772,#773,#774,#775,#776,#777));
#779= IFCPRODUCTDEFINITIONSHAPE($,$,(#757,#778));
#780= IFCMECHANICALFASTENER('3TjCLffgnCqQwLfhJ4mcfO',#44,'Bolt assembly',$,$,#728,#779,'IDddb4c569-a6ac-4cd1-ae95-a6b4c4c26a58',22.,75.);
#781= IFCCARTESIANPOINT((59499.9997277552,1428.38132995048,23600.));
#782= IFCAXIS2PLACEMENT3D(#781,#7,#57);
#783= IFCLOCALPLACEMENT(#479,#782);
#784= IFCSHAPEREPRESENTATION(#12,'Body','MappedRepresentation',(#518,#521,#524,#527,#530,#533,#536,#497,#500,#503,#506,#509,#512,#515));
#785= IFCSHAPEREPRESENTATION(#12,'Axis','MappedRepresentation',(#549,#550,#551,#552,#553,#554,#555,#542,#543,#544,#545,#546,#547,#548));
#786= IFCPRODUCTDEFINITIONSHAPE($,$,(#784,#785));
#787= IFCMECHANICALFASTENER('1FiNyXD4HAhflvrMuw4Jgh',#44,'Bolt assembly',$,$,#783,#786,'ID4fb17f21-3444-4aae-9bf9-d56e3a113aab',22.,75.);
#788= IFCCARTESIANPOINT((59674.9997253418,1603.38125423697,23600.));
#789= IFCDIRECTION((-0.000959355999824765,0.999999539817927,0.));
#790= IFCAXIS2PLACEMENT3D(#788,#789,#567);
#791= IFCLOCALPLACEMENT(#561,#790);
#792= IFCSHAPEREPRESENTATION(#12,'Body','MappedRepresentation',(#497,#500,#503,#506,#509,#512,#515,#518,#521,#524,#527,#530,#533,#536));
#793= IFCSHAPEREPRESENTATION(#12,'Axis','MappedRepresentation',(#542,#543,#544,#545,#546,#547,#548,#549,#550,#551,#552,#553,#554,#555));
#794= IFCPRODUCTDEFINITIONSHAPE($,$,(#792,#793));
#795= IFCMECHANICALFASTENER('2T7gqfrOj7Q8xOIctVUoNf',#44,'Bolt assembly',$,$,#791,#794,'ID9d1ead29-d58b-4768-8ed8-4a6ddf7b25e9',22.,75.);
#796= IFCCARTESIANPOINT((59499.9997277553,1778.38132995034,23600.));
#797= IFCAXIS2PLACEMENT3D(#796,#58,#8);
#798= IFCLOCALPLACEMENT(#574,#797);
#799= IFCSHAPEREPRESENTATION(#12,'Body','MappedRepresentation',(#497,#500,#503,#506,#509,#512,#515,#518,#521,#524,#527,#530,#533,#536));
#800= IFCSHAPEREPRESENTATION(#12,'Axis','MappedRepresentation',(#542,#543,#544,#545,#546,#547,#548,#549,#550,#551,#552,#553,#554,#555));
#801= IFCPRODUCTDEFINITIONSHAPE($,$,(#799,#800));
#802= IFCMECHANICALFASTENER('01Pa5OdUfDvu9bmNV2m2$V',#44,'Bolt assembly',$,$,#798,#801,'ID01664158-9dea-4de7-8265-c177c2c02fdf',22.,75.);
#803= IFCCARTESIANPOINT((58605.1196740912,1728.38116522339,23609.5));
#804= IFCAXIS2PLACEMENT3D(#803,#9,#586);
#805= IFCLOCALPLACEMENT(#46,#804);
#806= IFCTRIMMEDCURVE(#632,(IFCPARAMETERVALUE(0.)),(IFCPARAMETERVALUE(4.81731772033927)),.F.,.PARAMETER.);
#807= IFCCOMPOSITECURVESEGMENT(.CONTINUOUS.,.T.,#806);
#808= IFCCOMPOSITECURVE((#592,#598,#604,#610,#616,#622,#628,#807,#637),.T.);
#809= IFCARBITRARYCLOSEDPROFILEDEF(.AREA.,'PL19*1276',#808);
#810= IFCEXTRUDEDAREASOLID(#809,#641,#9,19.);
#811= IFCSHAPEREPRESENTATION(#12,'Body','SweptSolid',(#810));
#812= IFCPRODUCTDEFINITIONSHAPE($,$,(#811));
#813= IFCDISCRETEACCESSORY('2MQTwtjA56sxhZYYW34SRg',#45,'Steel plate',$,$,#805,#812,'1282');
#814= IFCLOCALPLACEMENT(#46,#804);
#815= IFCCARTESIANPOINT((124.14103062429,894.999587805847,40.4999999999964));
#816= IFCAXIS2PLACEMENT3D(#815,#149,#566);
#817= IFCEXTRUDEDAREASOLID(#647,#816,#9,9731.);
#818= IFCCARTESIANPOINT((124.021081874339,1019.99953025507,-9690.5));
#819= IFCAXIS2PLACEMENT3D(#818,#9,#567);
#820= IFCPLANE(#819);
#821= IFCHALFSPACESOLID(#820,.T.);
#822= IFCBOOLEANCLIPPINGRESULT(.DIFFERENCE.,#817,#821);
#823= IFCSHAPEREPRESENTATION(#12,'Body','Clipping',(#822));
#824= IFCPRODUCTDEFINITIONSHAPE($,$,(#823));
#825= IFCOPENINGELEMENT('33tiySPST3uBfJd1CkSdbh',#5,$,$,'Recess',#814,#824,$);
#826= IFCRELVOIDSELEMENT('22OaigFA5Bq958zd3ka95D',#5,$,$,#813,#825);
#827= IFCLOCALPLACEMENT(#46,#727);
#828= IFCSHAPEREPRESENTATION(#12,'Body','MappedRepresentation',(#680,#681,#682,#683,#684,#685,#686,#687,#688,#689,#670,#671,#672,#673,#674,#675,#676,#677,#678,#679));
#829= IFCPRODUCTDEFINITIONSHAPE($,$,(#828));
#830= IFCOPENINGELEMENT('0XSmPDKhD1yRj6ZHZR79QK',#5,$,$,'Opening',#827,#829,$);
#831= IFCRELVOIDSELEMENT('0e3Ti49gH7APIcUrGHyrl_',#5,'Drill Hole',$,#813,#830);
#832= IFCLOCALPLACEMENT(#46,#782);
#833= IFCSHAPEREPRESENTATION(#12,'Body','MappedRepresentation',(#702,#703,#704,#705,#706,#707,#708,#695,#696,#697,#698,#699,#700,#701));
#834= IFCPRODUCTDEFINITIONSHAPE($,$,(#833));
#835= IFCOPENINGELEMENT('2o11urEpH2YQThr9osAND9',#5,$,$,'Opening',#832,#834,$);
#836= IFCRELVOIDSELEMENT('0Xw9D4sNTBSgiXvLkFosmo',#5,'Drill Hole',$,#813,#835);
#837= IFCLOCALPLACEMENT(#46,#790);
#838= IFCSHAPEREPRESENTATION(#12,'Body','MappedRepresentation',(#695,#696,#697,#698,#699,#700,#701,#702,#703,#704,#705,#706,#707,#708));
#839= IFCPRODUCTDEFINITIONSHAPE($,$,(#838));
#840= IFCOPENINGELEMENT('3JfbU43_L5vwOUp64nw3fP',#5,$,$,'Opening',#837,#839,$);
#841= IFCRELVOIDSELEMENT('1gWhmSrNfAqfCBFqa14sm2',#5,'Drill Hole',$,#813,#840);
#842= IFCLOCALPLACEMENT(#46,#797);
#843= IFCSHAPEREPRESENTATION(#12,'Body','MappedRepresentation',(#695,#696,#697,#698,#699,#700,#701,#702,#703,#704,#705,#706,#707,#708));
#844= IFCPRODUCTDEFINITIONSHAPE($,$,(#843));
#845= IFCOPENINGELEMENT('0LpzoVQV52MBWBXL6TT5B8',#5,$,$,'Opening',#842,#844,$);
#846= IFCRELVOIDSELEMENT('1O9HfWrh99g8c1a0nK7cnX',#5,'Drill Hole',$,#813,#845);
#847= IFCCARTESIANPOINT((59499.9997253418,1738.38135910034,23600.));
#848= IFCAXIS2PLACEMENT3D(#847,#8,#149);
#849= IFCLOCALPLACEMENT(#574,#848);
#850= IFCCARTESIANPOINT((0.,-17.899999809498,0.));
#851= IFCAXIS2PLACEMENT3D(#850,#8,#7);
#852= IFCEXTRUDEDAREASOLID(#159,#851,#9,13.2);
#853= IFCCARTESIANPOINT((0.,-4.69999980949797,0.));
#854= IFCAXIS2PLACEMENT3D(#853,#8,#7);
#855= IFCEXTRUDEDAREASOLID(#166,#854,#9,50.);
#856= IFCCARTESIANPOINT((0.,14.699999809498,0.));
#857= IFCAXIS2PLACEMENT3D(#856,#8,#7);
#858= IFCEXTRUDEDAREASOLID(#170,#857,#9,8.);
#859= IFCCARTESIANPOINT((0.,22.699999809498,0.));
#860= IFCAXIS2PLACEMENT3D(#859,#8,#7);
#861= IFCEXTRUDEDAREASOLID(#159,#860,#9,16.);
#862= IFCCARTESIANPOINT((85.,0.,40.));
#863= IFCCARTESIANTRANSFORMATIONOPERATOR3D($,$,#862,$,$);
#864= IFCSHAPEREPRESENTATION(#12,'Body','SweptSolid',(#852,#855,#858,#861));
#865= IFCREPRESENTATIONMAP(#10,#864);
#866= IFCMAPPEDITEM(#865,#863);
#867= IFCCARTESIANPOINT((155.,0.,40.));
#868= IFCCARTESIANTRANSFORMATIONOPERATOR3D($,$,#867,$,$);
#869= IFCMAPPEDITEM(#865,#868);
#870= IFCCARTESIANPOINT((225.,0.,40.));
#871= IFCCARTESIANTRANSFORMATIONOPERATOR3D($,$,#870,$,$);
#872= IFCMAPPEDITEM(#865,#871);
#873= IFCCARTESIANPOINT((295.,0.,40.));
#874= IFCCARTESIANTRANSFORMATIONOPERATOR3D($,$,#873,$,$);
#875= IFCMAPPEDITEM(#865,#874);
#876= IFCCARTESIANPOINT((365.,0.,40.));
#877= IFCCARTESIANTRANSFORMATIONOPERATOR3D($,$,#876,$,$);
#878= IFCMAPPEDITEM(#865,#877);
#879= IFCSHAPEREPRESENTATION(#12,'Body','MappedRepresentation',(#866,#869,#872,#875,#878));
#880= IFCCARTESIANPOINT((0.,50.,0.));
#881= IFCPOLYLINE((#850,#880));
#882= IFCSHAPEREPRESENTATION(#12,'Axis','GeometricCurveSet',(#881));
#883= IFCREPRESENTATIONMAP(#10,#882);
#884= IFCMAPPEDITEM(#883,#863);
#885= IFCMAPPEDITEM(#883,#868);
#886= IFCMAPPEDITEM(#883,#871);
#887= IFCMAPPEDITEM(#883,#874);
#888= IFCMAPPEDITEM(#883,#877);
#889= IFCSHAPEREPRESENTATION(#12,'Axis','MappedRepresentation',(#884,#885,#886,#887,#888));
#890= IFCPRODUCTDEFINITIONSHAPE($,$,(#879,#889));
#891= IFCMECHANICALFASTENER('0Xpdom9ir6YvPuu6V$iILh',#44,'Bolt assembly',$,$,#849,#890,'ID21ce7cb0-26cd-468b-9678-e067ffb1256b',20.,50.);
#892= IFCPROPERTYSINGLEVALUE('BoltLength',$,IFCPOSITIVELENGTHMEASURE(50.),$);
#893= IFCPROPERTYSET('3mmloNGyvFouzFvnQVhmUc',#5,'AISC_EM11_Pset_Bolt','BoltIdentity',(#207,#208,#209,#892,#472,#473));
#894= IFCCARTESIANPOINT((59485.2997253418,1728.38135910034,23375.));
#895= IFCAXIS2PLACEMENT3D(#894,#8,#149);
#896= IFCLOCALPLACEMENT(#46,#895);
#897= IFCCARTESIANPOINT((-180.,0.,5.65685424949243));
#898= IFCCARTESIANPOINT((180.,0.,5.65685424949243));
#899= IFCPOLYLOOP((#897,#227,#228,#898));
#900= IFCFACEOUTERBOUND(#899,.T.);
#901= IFCFACE((#900));
#902= IFCCARTESIANPOINT((-180.,5.65685424949334,0.));
#903= IFCCARTESIANPOINT((180.,5.65685424949334,0.));
#904= IFCPOLYLOOP((#227,#902,#903,#228));
#905= IFCFACEOUTERBOUND(#904,.T.);
#906= IFCFACE((#905));
#907= IFCPOLYLOOP((#902,#897,#898,#903));
#908= IFCFACEOUTERBOUND(#907,.T.);
#909= IFCFACE((#908));
#910= IFCPOLYLOOP((#903,#898,#228));
#911= IFCFACEOUTERBOUND(#910,.T.);
#912= IFCFACE((#911));
#913= IFCPOLYLOOP((#902,#227,#897));
#914= IFCFACEOUTERBOUND(#913,.T.);
#915= IFCFACE((#914));
#916= IFCCARTESIANPOINT((180.,-10.,5.65685424949243));
#917= IFCCARTESIANPOINT((-180.,-10.,5.65685424949243));
#918= IFCPOLYLOOP((#916,#248,#249,#917));
#919= IFCFACEOUTERBOUND(#918,.T.);
#920= IFCFACE((#919));
#921= IFCCARTESIANPOINT((180.,-15.6568542494933,0.));
#922= IFCCARTESIANPOINT((-180.,-15.6568542494933,0.));
#923= IFCPOLYLOOP((#248,#921,#922,#249));
#924= IFCFACEOUTERBOUND(#923,.T.);
#925= IFCFACE((#924));
#926= IFCPOLYLOOP((#921,#916,#917,#922));
#927= IFCFACEOUTERBOUND(#926,.T.);
#928= IFCFACE((#927));
#929= IFCPOLYLOOP((#922,#917,#249));
#930= IFCFACEOUTERBOUND(#929,.T.);
#931= IFCFACE((#930));
#932= IFCPOLYLOOP((#921,#248,#916));
#933= IFCFACEOUTERBOUND(#932,.T.);
#934= IFCFACE((#933));
#935= IFCCLOSEDSHELL((#901,#906,#909,#912,#915,#920,#925,#928,#931,#934));
#936= IFCFACETEDBREP(#935);
#937= IFCSHAPEREPRESENTATION(#12,'Body','Brep',(#936));
#938= IFCSHAPEREPRESENTATION(#13,'Axis','GeometricCurveSet',(#271,#274));
#939= IFCPRODUCTDEFINITIONSHAPE($,$,(#937,#938));
#940= IFCFASTENER('0li7qxrCH4oQE1XqFtM7Gr',#44,'Weld',$,$,#896,#939,'ID2fb07d3b-d4c4-44c9-a381-8743f7587435');
#941= IFCPROPERTYSINGLEVALUE('WeldID',$,IFCINTEGER(94229267),$);
#942= IFCPROPERTYSINGLEVALUE('z',$,IFCPOSITIVELENGTHMEASURE(4.),$);
#943= IFCPROPERTYSINGLEVALUE('d',$,IFCPOSITIVELENGTHMEASURE(4.),$);
#944= IFCPROPERTYSINGLEVALUE('c',$,IFCPOSITIVELENGTHMEASURE(4.),$);
#945= IFCPROPERTYSET('23jHSE4ZT3QOZrx66eh81_',#5,'AISC_EM11_Pset_Weld','WeldIdentity',(#124,#125,#126,#127,#941,#942,#130,#131,#280,#133,#943,#944,#136,#137,#138,#139));
#946= IFCCARTESIANPOINT((59490.2997255323,1773.38135910034,23195.));
#947= IFCAXIS2PLACEMENT3D(#946,#9,#57);
#948= IFCLOCALPLACEMENT(#46,#947);
#949= IFCSHAPEREPRESENTATION(#12,'Body','SweptSolid',(#290));
#950= IFCPRODUCTDEFINITIONSHAPE($,$,(#949));
#951= IFCDISCRETEACCESSORY('1yKzLM52P0A9NvhouAfilB',#44,'Support section',$,$,#948,#950,'1068');
#952= IFCLOCALPLACEMENT(#46,#848);
#953= IFCCIRCLEPROFILEDEF(.AREA.,$,#165,11.5);
#954= IFCCARTESIANPOINT((0.,4.59999980949797,0.));
#955= IFCAXIS2PLACEMENT3D(#954,#8,#7);
#956= IFCEXTRUDEDAREASOLID(#953,#955,#9,10.2);
#957= IFCSHAPEREPRESENTATION(#12,'Body','SweptSolid',(#956));
#958= IFCREPRESENTATIONMAP(#10,#957);
#959= IFCMAPPEDITEM(#958,#863);
#960= IFCMAPPEDITEM(#958,#868);
#961= IFCMAPPEDITEM(#958,#871);
#962= IFCMAPPEDITEM(#958,#874);
#963= IFCMAPPEDITEM(#958,#877);
#964= IFCSHAPEREPRESENTATION(#12,'Body','MappedRepresentation',(#959,#960,#961,#962,#963));
#965= IFCPRODUCTDEFINITIONSHAPE($,$,(#964));
#966= IFCOPENINGELEMENT('3SNAifBlf6YxgmnrJp6HeN',#5,$,$,'Opening',#952,#965,$);
#967= IFCRELVOIDSELEMENT('0JwEy6I0L6lhkxnlpXnQFM',#5,'Drill Hole',$,#951,#966);
#968= IFCPROPERTYSINGLEVALUE('IndicationMark',$,IFCIDENTIFIER('1068'),$);
#969= IFCPROPERTYSET('25KswZ4hzDF95GAEGrFOzz',#5,'AISC_EM11_Pset_PieceIdentification','PieceIdentity',(#315,#968,#317,#318));
#970= IFCCARTESIANPOINT((59634.9997253418,1603.38125423697,23600.));
#971= IFCAXIS2PLACEMENT3D(#970,#7,#149);
#972= IFCLOCALPLACEMENT(#561,#971);
#973= IFCSHAPEREPRESENTATION(#12,'Body','MappedRepresentation',(#866,#869,#872,#875,#878));
#974= IFCSHAPEREPRESENTATION(#12,'Axis','MappedRepresentation',(#884,#885,#886,#887,#888));
#975= IFCPRODUCTDEFINITIONSHAPE($,$,(#973,#974));
#976= IFCMECHANICALFASTENER('28uHkRXY96zOJbaLVeIOKP',#44,'Bolt assembly',$,$,#972,#975,'ID88e11b9b-8622-46f5-84e5-9157e8498519',20.,50.);
#977= IFCCARTESIANPOINT((59624.9997253418,1618.08125423697,23375.));
#978= IFCAXIS2PLACEMENT3D(#977,#7,#149);
#979= IFCLOCALPLACEMENT(#46,#978);
#980= IFCSHAPEREPRESENTATION(#12,'Body','Brep',(#936));
#981= IFCSHAPEREPRESENTATION(#13,'Axis','GeometricCurveSet',(#271,#274));
#982= IFCPRODUCTDEFINITIONSHAPE($,$,(#980,#981));
#983= IFCFASTENER('0mqSTjV2X5ivMf87p7w0AF',#44,'Weld',$,$,#979,#982,'ID30d1c76d-7c28-45b3-95a9-207cc7e8028f');
#984= IFCPROPERTYSINGLEVALUE('WeldID',$,IFCINTEGER(94229008),$);
#985= IFCPROPERTYSET('2AymtyI757EAqBgPfD_Tng',#5,'AISC_EM11_Pset_Weld','WeldIdentity',(#124,#125,#126,#127,#984,#942,#130,#131,#280,#133,#943,#944,#136,#137,#138,#139));
#986= IFCCARTESIANPOINT((59669.9997253418,1613.08125404647,23195.));
#987= IFCAXIS2PLACEMENT3D(#986,#9,#58);
#988= IFCLOCALPLACEMENT(#46,#987);
#989= IFCSHAPEREPRESENTATION(#12,'Body','SweptSolid',(#290));
#990= IFCPRODUCTDEFINITIONSHAPE($,$,(#989));
#991= IFCDISCRETEACCESSORY('1zIV6RrnH3AP4YjmuVSITw',#44,'Support section',$,$,#988,#990,'1068');
#992= IFCLOCALPLACEMENT(#46,#971);
#993= IFCSHAPEREPRESENTATION(#12,'Body','MappedRepresentation',(#959,#960,#961,#962,#963));
#994= IFCPRODUCTDEFINITIONSHAPE($,$,(#993));
#995= IFCOPENINGELEMENT('3ND9nLhivD0QzUYNwy1mKr',#5,$,$,'Opening',#992,#994,$);
#996= IFCRELVOIDSELEMENT('2hwJc2X8TFh9e4UrO9eDHp',#5,'Drill Hole',$,#991,#995);
#997= IFCCARTESIANPOINT((59364.9997253418,1603.38125402925,23600.));
#998= IFCAXIS2PLACEMENT3D(#997,#58,#149);
#999= IFCLOCALPLACEMENT(#342,#998);
#1000= IFCCARTESIANPOINT((0.,-18.8391579771615,0.));
#1001= IFCAXIS2PLACEMENT3D(#1000,#8,#7);
#1002= IFCEXTRUDEDAREASOLID(#159,#1001,#9,13.2);
#1003= IFCCARTESIANPOINT((0.,-5.63915797716147,0.));
#1004= IFCAXIS2PLACEMENT3D(#1003,#8,#7);
#1005= IFCEXTRUDEDAREASOLID(#166,#1004,#9,55.);
#1006= IFCSHAPEREPRESENTATION(#12,'Body','SweptSolid',(#1002,#1005,#173,#176));
#1007= IFCREPRESENTATIONMAP(#10,#1006);
#1008= IFCMAPPEDITEM(#1007,#178);
#1009= IFCMAPPEDITEM(#1007,#183);
#1010= IFCMAPPEDITEM(#1007,#186);
#1011= IFCMAPPEDITEM(#1007,#189);
#1012= IFCMAPPEDITEM(#1007,#192);
#1013= IFCSHAPEREPRESENTATION(#12,'Body','MappedRepresentation',(#1008,#1009,#1010,#1011,#1012));
#1014= IFCPOLYLINE((#1000,#195));
#1015= IFCSHAPEREPRESENTATION(#12,'Axis','GeometricCurveSet',(#1014));
#1016= IFCREPRESENTATIONMAP(#10,#1015);
#1017= IFCMAPPEDITEM(#1016,#178);
#1018= IFCMAPPEDITEM(#1016,#183);
#1019= IFCMAPPEDITEM(#1016,#186);
#1020= IFCMAPPEDITEM(#1016,#189);
#1021= IFCMAPPEDITEM(#1016,#192);
#1022= IFCSHAPEREPRESENTATION(#12,'Axis','MappedRepresentation',(#1017,#1018,#1019,#1020,#1021));
#1023= IFCPRODUCTDEFINITIONSHAPE($,$,(#1013,#1022));
#1024= IFCMECHANICALFASTENER('3USfUestTD5OWGhfo9Mt2c',#44,'Bolt assembly',$,$,#999,#1023,'IDde7297a8-db77-4d15-8810-ae9c895b70a6',20.,55.);
#1025= IFCPROPERTYSET('0YgkF8jNX3JPzSgkSNVGjz',#5,'AISC_EM11_Pset_Bolt','BoltIdentity',(#207,#208,#209,#210,#472,#473));
#1026= IFCCARTESIANPOINT((59374.9787253418,1587.63117489419,23380.));
#1027= IFCAXIS2PLACEMENT3D(#1026,#58,#149);
#1028= IFCLOCALPLACEMENT(#46,#1027);
#1029= IFCSHAPEREPRESENTATION(#12,'Body','Brep',(#936));
#1030= IFCSHAPEREPRESENTATION(#13,'Axis','GeometricCurveSet',(#271,#274));
#1031= IFCPRODUCTDEFINITIONSHAPE($,$,(#1029,#1030));
#1032= IFCFASTENER('1KEAMoMBfDQAW8JzdL49OL',#44,'Weld',$,$,#1028,#1031,'ID5438a5b2-58ba-4d68-a808-4fd9d5109615');
#1033= IFCPROPERTYSINGLEVALUE('WeldID',$,IFCINTEGER(94228669),$);
#1034= IFCPROPERTYSET('2dw1Wdiff6bPNZRHr2$PAA',#5,'AISC_EM11_Pset_Weld','WeldIdentity',(#124,#125,#126,#127,#1033,#942,#130,#131,#280,#133,#943,#944,#136,#137,#138,#139));
#1035= IFCCARTESIANPOINT((59329.9784730931,1592.63121475477,23200.));
#1036= IFCAXIS2PLACEMENT3D(#1035,#9,#7);
#1037= IFCLOCALPLACEMENT(#46,#1036);
#1038= IFCSHAPEREPRESENTATION(#12,'Body','SweptSolid',(#290));
#1039= IFCPRODUCTDEFINITIONSHAPE($,$,(#1038));
#1040= IFCDISCRETEACCESSORY('0OvN9aNrDEieBC7KdvXdMc',#44,'Support section',$,$,#1037,#1039,'1068');
#1041= IFCLOCALPLACEMENT(#46,#998);
#1042= IFCEXTRUDEDAREASOLID(#953,#297,#9,10.2);
#1043= IFCSHAPEREPRESENTATION(#12,'Body','SweptSolid',(#1042));
#1044= IFCREPRESENTATIONMAP(#10,#1043);
#1045= IFCMAPPEDITEM(#1044,#178);
#1046= IFCMAPPEDITEM(#1044,#183);
#1047= IFCMAPPEDITEM(#1044,#186);
#1048= IFCMAPPEDITEM(#1044,#189);
#1049= IFCMAPPEDITEM(#1044,#192);
#1050= IFCSHAPEREPRESENTATION(#12,'Body','MappedRepresentation',(#1045,#1046,#1047,#1048,#1049));
#1051= IFCPRODUCTDEFINITIONSHAPE($,$,(#1050));
#1052= IFCOPENINGELEMENT('3Si4CLUWX40QQV_aZpVqRD',#5,$,$,'Opening',#1041,#1051,$);
#1053= IFCRELVOIDSELEMENT('2wFZrShTj4UAX4w2o9oTcp',#5,'Drill Hole',$,#1040,#1052);
#1054= IFCCARTESIANPOINT((59500.0205736637,1468.38135910034,23600.));
#1055= IFCAXIS2PLACEMENT3D(#1054,#57,#149);
#1056= IFCLOCALPLACEMENT(#479,#1055);
#1057= IFCCARTESIANPOINT((0.,-17.9004231100364,0.));
#1058= IFCAXIS2PLACEMENT3D(#1057,#8,#7);
#1059= IFCEXTRUDEDAREASOLID(#159,#1058,#9,13.2);
#1060= IFCCARTESIANPOINT((0.,-4.70042311003636,0.));
#1061= IFCAXIS2PLACEMENT3D(#1060,#8,#7);
#1062= IFCEXTRUDEDAREASOLID(#166,#1061,#9,50.);
#1063= IFCSHAPEREPRESENTATION(#12,'Body','SweptSolid',(#1059,#1062,#858,#861));
#1064= IFCREPRESENTATIONMAP(#10,#1063);
#1065= IFCMAPPEDITEM(#1064,#863);
#1066= IFCMAPPEDITEM(#1064,#868);
#1067= IFCMAPPEDITEM(#1064,#871);
#1068= IFCMAPPEDITEM(#1064,#874);
#1069= IFCMAPPEDITEM(#1064,#877);
#1070= IFCSHAPEREPRESENTATION(#12,'Body','MappedRepresentation',(#1065,#1066,#1067,#1068,#1069));
#1071= IFCPOLYLINE((#1057,#880));
#1072= IFCSHAPEREPRESENTATION(#12,'Axis','GeometricCurveSet',(#1071));
#1073= IFCREPRESENTATIONMAP(#10,#1072);
#1074= IFCMAPPEDITEM(#1073,#863);
#1075= IFCMAPPEDITEM(#1073,#868);
#1076= IFCMAPPEDITEM(#1073,#871);
#1077= IFCMAPPEDITEM(#1073,#874);
#1078= IFCMAPPEDITEM(#1073,#877);
#1079= IFCSHAPEREPRESENTATION(#12,'Axis','MappedRepresentation',(#1074,#1075,#1076,#1077,#1078));
#1080= IFCPRODUCTDEFINITIONSHAPE($,$,(#1070,#1079));
#1081= IFCMECHANICALFASTENER('3eZfUG4lb6Fxr9173OQr6R',#44,'Bolt assembly',$,$,#1056,#1080,'IDe88e9790-12f9-463f-bd49-0470d86b519b',20.,50.);
#1082= IFCPROPERTYSET('1j5hftfNHCrPOs3OagO$u9',#5,'AISC_EM11_Pset_Bolt','BoltIdentity',(#207,#208,#209,#892,#211,#212));
#1083= IFCCARTESIANPOINT((59514.7208558598,1478.38135910034,23375.));
#1084= IFCAXIS2PLACEMENT3D(#1083,#57,#149);
#1085= IFCLOCALPLACEMENT(#46,#1084);
#1086= IFCSHAPEREPRESENTATION(#12,'Body','Brep',(#936));
#1087= IFCSHAPEREPRESENTATION(#13,'Axis','GeometricCurveSet',(#271,#274));
#1088= IFCPRODUCTDEFINITIONSHAPE($,$,(#1086,#1087));
#1089= IFCFASTENER('1w7FfHpaTDCuZjDKigly22',#44,'Weld',$,$,#1085,#1088,'ID7a1cfa51-ce47-4d33-88ed-354b2abfc082');
#1090= IFCPROPERTYSINGLEVALUE('WeldID',$,IFCINTEGER(94227121),$);
#1091= IFCPROPERTYSET('0sEmwPoHLC9Au$EfdWzJxS',#5,'AISC_EM11_Pset_Weld','WeldIdentity',(#124,#125,#126,#127,#1090,#942,#130,#131,#280,#133,#943,#944,#136,#137,#138,#139));
#1092= IFCCARTESIANPOINT((59509.7205734736,1433.38142541734,23195.));
#1093= IFCAXIS2PLACEMENT3D(#1092,#9,#8);
#1094= IFCLOCALPLACEMENT(#46,#1093);
#1095= IFCSHAPEREPRESENTATION(#12,'Body','SweptSolid',(#290));
#1096= IFCPRODUCTDEFINITIONSHAPE($,$,(#1095));
#1097= IFCDISCRETEACCESSORY('08rK9l0gH14eq6UPK63XL8',#44,'Support section',$,$,#1094,#1096,'1068');
#1098= IFCLOCALPLACEMENT(#46,#1055);
#1099= IFCSHAPEREPRESENTATION(#12,'Body','MappedRepresentation',(#959,#960,#961,#962,#963));
#1100= IFCPRODUCTDEFINITIONSHAPE($,$,(#1099));
#1101= IFCOPENINGELEMENT('25qDXcarfCJhhq2cJgAIX8',#5,$,$,'Opening',#1098,#1100,$);
#1102= IFCRELVOIDSELEMENT('3DB4Bqhn50yhPLi3XveACb',#5,'Drill Hole',$,#1097,#1101);
#1103= IFCLOCALPLACEMENT(#42,#10);
#1104= IFCELEMENTASSEMBLY('0cQt$9nT1EbAT9a8JRddtS',#141,'BEAM',$,$,#1103,$,'B/1261',.NOTDEFINED.,.RIGID_FRAME.);
#1105= IFCPROPERTYSINGLEVALUE('AssemblyMark',$,IFCIDENTIFIER('B/1261'),$);
#1106= IFCPROPERTYSET('3Ko4dff7X5Pwdmw948eZtw',#5,'AISC_EM11_Pset_AssemblyIdentification','AssemblyIdentity',(#1105,#53,#54));
#1107= IFCCARTESIANPOINT((59500.0205736637,1468.38135910034,19350.));
#1108= IFCAXIS2PLACEMENT3D(#1107,#57,#149);
#1109= IFCLOCALPLACEMENT(#1103,#1108);
#1110= IFCCARTESIANPOINT((0.,-27.8999998099564,0.));
#1111= IFCAXIS2PLACEMENT3D(#1110,#8,#7);
#1112= IFCEXTRUDEDAREASOLID(#159,#1111,#9,13.2);
#1113= IFCCARTESIANPOINT((0.,-14.6999998099564,0.));
#1114= IFCAXIS2PLACEMENT3D(#1113,#8,#7);
#1115= IFCEXTRUDEDAREASOLID(#166,#1114,#9,50.);
#1116= IFCCARTESIANPOINT((0.,4.69957650987604,0.));
#1117= IFCAXIS2PLACEMENT3D(#1116,#8,#7);
#1118= IFCEXTRUDEDAREASOLID(#170,#1117,#9,8.);
#1119= IFCCARTESIANPOINT((0.,12.699576509876,0.));
#1120= IFCAXIS2PLACEMENT3D(#1119,#8,#7);
#1121= IFCEXTRUDEDAREASOLID(#159,#1120,#9,16.);
#1122= IFCSHAPEREPRESENTATION(#12,'Body','SweptSolid',(#1112,#1115,#1118,#1121));
#1123= IFCREPRESENTATIONMAP(#10,#1122);
#1124= IFCMAPPEDITEM(#1123,#863);
#1125= IFCMAPPEDITEM(#1123,#868);
#1126= IFCMAPPEDITEM(#1123,#871);
#1127= IFCMAPPEDITEM(#1123,#874);
#1128= IFCMAPPEDITEM(#1123,#877);
#1129= IFCSHAPEREPRESENTATION(#12,'Body','MappedRepresentation',(#1124,#1125,#1126,#1127,#1128));
#1130= IFCPOLYLINE((#1110,#880));
#1131= IFCSHAPEREPRESENTATION(#12,'Axis','GeometricCurveSet',(#1130));
#1132= IFCREPRESENTATIONMAP(#10,#1131);
#1133= IFCMAPPEDITEM(#1132,#863);
#1134= IFCMAPPEDITEM(#1132,#868);
#1135= IFCMAPPEDITEM(#1132,#871);
#1136= IFCMAPPEDITEM(#1132,#874);
#1137= IFCMAPPEDITEM(#1132,#877);
#1138= IFCSHAPEREPRESENTATION(#12,'Axis','MappedRepresentation',(#1133,#1134,#1135,#1136,#1137));
#1139= IFCPRODUCTDEFINITIONSHAPE($,$,(#1129,#1138));
#1140= IFCMECHANICALFASTENER('3cAADgHxb2dfp_z65LHlX6',#141,'Bolt assembly',$,$,#1109,#1139,'IDe628a36a-47b9-429e-9cfe-f4615546f846',20.,50.);
#1141= IFCCARTESIANPOINT((59495.3208558598,1478.38135910034,19125.));
#1142= IFCAXIS2PLACEMENT3D(#1141,#57,#149);
#1143= IFCLOCALPLACEMENT(#46,#1142);
#1144= IFCSHAPEREPRESENTATION(#12,'Body','Brep',(#936));
#1145= IFCSHAPEREPRESENTATION(#13,'Axis','GeometricCurveSet',(#271,#274));
#1146= IFCPRODUCTDEFINITIONSHAPE($,$,(#1144,#1145));
#1147= IFCFASTENER('3BOssWzETDqPUKfKm$taiB',#141,'Weld',$,$,#1143,#1146,'IDcb636da0-f4e7-4dd1-9794-a54c3fde4b0b');
#1148= IFCPROPERTYSINGLEVALUE('WeldID',$,IFCINTEGER(93774204),$);
#1149= IFCPROPERTYSET('35ycgj4LPDruElNK6amCGi',#5,'AISC_EM11_Pset_Weld','WeldIdentity',(#124,#125,#126,#127,#1148,#942,#130,#131,#280,#133,#943,#944,#136,#137,#138,#139));
#1150= IFCCARTESIANPOINT((59490.3205738537,1433.38142541734,18945.));
#1151= IFCAXIS2PLACEMENT3D(#1150,#9,#8);
#1152= IFCLOCALPLACEMENT(#46,#1151);
#1153= IFCSHAPEREPRESENTATION(#12,'Body','SweptSolid',(#290));
#1154= IFCPRODUCTDEFINITIONSHAPE($,$,(#1153));
#1155= IFCDISCRETEACCESSORY('0IqnITsYX7wQvMkmFs7wg0',#141,'Support section',$,$,#1152,#1154,'1068');
#1156= IFCLOCALPLACEMENT(#46,#1108);
#1157= IFCCARTESIANPOINT((0.,-14.7999998099564,0.));
#1158= IFCAXIS2PLACEMENT3D(#1157,#8,#7);
#1159= IFCEXTRUDEDAREASOLID(#953,#1158,#9,10.2);
#1160= IFCSHAPEREPRESENTATION(#12,'Body','SweptSolid',(#1159));
#1161= IFCREPRESENTATIONMAP(#10,#1160);
#1162= IFCMAPPEDITEM(#1161,#863);
#1163= IFCMAPPEDITEM(#1161,#868);
#1164= IFCMAPPEDITEM(#1161,#871);
#1165= IFCMAPPEDITEM(#1161,#874);
#1166= IFCMAPPEDITEM(#1161,#877);
#1167= IFCSHAPEREPRESENTATION(#12,'Body','MappedRepresentation',(#1162,#1163,#1164,#1165,#1166));
#1168= IFCPRODUCTDEFINITIONSHAPE($,$,(#1167));
#1169= IFCOPENINGELEMENT('0AYIAMHoH1EPolbsKcbwHk',#5,$,$,'Opening',#1156,#1168,$);
#1170= IFCRELVOIDSELEMENT('25G0zCxUf9NPG7Bayy06Lj',#5,'Drill Hole',$,#1155,#1169);
#1171= IFCOWNERHISTORY(#3,#4,$,.NOCHANGE.,$,$,$,1773334800);
#1172= IFCCARTESIANPOINT((59324.9997253418,1603.38122277425,18910.));
#1173= IFCAXIS2PLACEMENT3D(#1172,#8,#58);
#1174= IFCLOCALPLACEMENT(#142,#1173);
#1175= IFCSHAPEREPRESENTATION(#12,'Body','MappedRepresentation',(#737,#738,#739,#740,#741,#742,#743,#744,#745,#746,#747,#748,#749,#750,#751,#752,#753,#754,#755,#756));
#1176= IFCSHAPEREPRESENTATION(#12,'Axis','MappedRepresentation',(#758,#759,#760,#761,#762,#763,#764,#765,#766,#767,#768,#769,#770,#771,#772,#773,#774,#775,#776,#777));
#1177= IFCPRODUCTDEFINITIONSHAPE($,$,(#1175,#1176));
#1178= IFCMECHANICALFASTENER('0kVVIiRoDCdAIKFiFWIstC',#1171,'Bolt assembly',$,$,#1174,#1177,'ID2e7df4ac-6f23-4c9c-a494-3ec3e04b6dcc',22.,75.);
#1179= IFCOWNERHISTORY(#3,#4,$,.NOCHANGE.,$,$,$,1774026000);
#1180= IFCLOCALPLACEMENT(#42,#10);
#1181= IFCELEMENTASSEMBLY('1UhZ8igjbEXgL7ySHsTZfv',#1179,'BEAM',$,$,#1180,$,'B/1033',.NOTDEFINED.,.RIGID_FRAME.);
#1182= IFCPROPERTYSINGLEVALUE('AssemblyMark',$,IFCIDENTIFIER('B/1033'),$);
#1183= IFCPROPERTYSET('11WzC016DDowFBd2xg0HG7',#5,'AISC_EM11_Pset_AssemblyIdentification','AssemblyIdentity',(#1182,#53,#54));
#1184= IFCCARTESIANPOINT((59679.9997253418,1603.38122277425,18910.));
#1185= IFCAXIS2PLACEMENT3D(#1184,#57,#7);
#1186= IFCLOCALPLACEMENT(#1180,#1185);
#1187= IFCSHAPEREPRESENTATION(#12,'Body','MappedRepresentation',(#737,#738,#739,#740,#741,#742,#743,#744,#745,#746,#747,#748,#749,#750,#751,#752,#753,#754,#755,#756));
#1188= IFCSHAPEREPRESENTATION(#12,'Axis','MappedRepresentation',(#758,#759,#760,#761,#762,#763,#764,#765,#766,#767,#768,#769,#770,#771,#772,#773,#774,#775,#776,#777));
#1189= IFCPRODUCTDEFINITIONSHAPE($,$,(#1187,#1188));
#1190= IFCMECHANICALFASTENER('1O1uE549j2QxZqGf7BNObd',#1171,'Bolt assembly',$,$,#1186,#1189,'ID58078385-109b-426b-b8f4-4291cb5d8967',22.,75.);
#1191= IFCCARTESIANPOINT((58605.1196740912,1728.38116522339,18900.5));
#1192= IFCAXIS2PLACEMENT3D(#1191,#9,#586);
#1193= IFCLOCALPLACEMENT(#46,#1192);
#1194= IFCCARTESIANPOINT((273.629699706981,760.142944334351));
#1195= IFCCARTESIANPOINT((274.14956665034,802.616638181884));
#1196= IFCCARTESIANPOINT((273.957611083934,1002.61651611099));
#1197= IFCCARTESIANPOINT((274.011566162059,1030.14343261481));
#1198= IFCCARTESIANPOINT((248.282119750932,1790.23901366723));
#1199= IFCCARTESIANPOINT((-1.71742391586054,1789.75927733854));
#1200= IFCCARTESIANPOINT((-25.9883041381775,1029.85559081726));
#1201= IFCCARTESIANPOINT((-25.7292213439885,759.855712888355));
#1202= IFCPOLYLINE((#164,#589,#1194,#1195,#1196,#1197,#1198,#1199,#1200,#1201,#164));
#1203= IFCARBITRARYCLOSEDPROFILEDEF(.AREA.,'PL19*308',#1202);
#1204= IFCEXTRUDEDAREASOLID(#1203,#641,#9,19.);
#1205= IFCSHAPEREPRESENTATION(#12,'Body','SweptSolid',(#1204));
#1206= IFCPRODUCTDEFINITIONSHAPE($,$,(#1205));
#1207= IFCDISCRETEACCESSORY('0nrrpSKC193gqaB3WLtrKF',#141,'Steel plate',$,$,#1193,#1206,'1296');
#1208= IFCLOCALPLACEMENT(#46,#1192);
#1209= IFCCARTESIANPOINT((124.141030624289,894.999587805847,4699.5));
#1210= IFCAXIS2PLACEMENT3D(#1209,#149,#566);
#1211= IFCEXTRUDEDAREASOLID(#647,#1210,#9,9681.);
#1212= IFCCARTESIANPOINT((124.021081874338,1019.99953025507,-4981.5));
#1213= IFCAXIS2PLACEMENT3D(#1212,#9,#567);
#1214= IFCPLANE(#1213);
#1215= IFCHALFSPACESOLID(#1214,.T.);
#1216= IFCBOOLEANCLIPPINGRESULT(.DIFFERENCE.,#1211,#1215);
#1217= IFCSHAPEREPRESENTATION(#12,'Body','Clipping',(#1216));
#1218= IFCPRODUCTDEFINITIONSHAPE($,$,(#1217));
#1219= IFCOPENINGELEMENT('02SrMOmBn4MPEweZKo5xTp',#5,$,$,'Recess',#1208,#1218,$);
#1220= IFCRELVOIDSELEMENT('1wNC7ylc5Ct81d2_qi_Nrf',#5,$,$,#1207,#1219);
#1221= IFCLOCALPLACEMENT(#46,#1173);
#1222= IFCSHAPEREPRESENTATION(#12,'Body','MappedRepresentation',(#680,#681,#682,#683,#684,#685,#686,#687,#688,#689,#670,#671,#672,#673,#674,#675,#676,#677,#678,#679));
#1223= IFCPRODUCTDEFINITIONSHAPE($,$,(#1222));
#1224= IFCOPENINGELEMENT('1angTlEEnBRPHw2qUx6nxH',#5,$,$,'Opening',#1221,#1223,$);
#1225= IFCRELVOIDSELEMENT('2lmRmQj1T0KPz8k53lYTjZ',#5,'Drill Hole',$,#1207,#1224);
#1226= IFCLOCALPLACEMENT(#46,#1185);
#1227= IFCSHAPEREPRESENTATION(#12,'Body','MappedRepresentation',(#680,#681,#682,#683,#684,#685,#686,#687,#688,#689,#670,#671,#672,#673,#674,#675,#676,#677,#678,#679));
#1228= IFCPRODUCTDEFINITIONSHAPE($,$,(#1227));
#1229= IFCOPENINGELEMENT('0drWhFdSv8QfOV4V1sWj8$',#5,$,$,'Opening',#1226,#1228,$);
#1230= IFCRELVOIDSELEMENT('1LXBek1vH0jAf_QazQTkTG',#5,'Drill Hole',$,#1207,#1229);
#1231= IFCPROPERTYSINGLEVALUE('IndicationMark',$,IFCIDENTIFIER('1296'),$);
#1232= IFCPROPERTYSET('1WQ4OsU2H8MhqoQj3WxU2F',#5,'AISC_EM11_Pset_PieceIdentification','PieceIdentity',(#723,#1231,#317,#318));
#1233= IFCCARTESIANPOINT((59634.9997253418,1603.38122277425,19350.));
#1234= IFCAXIS2PLACEMENT3D(#1233,#7,#149);
#1235= IFCLOCALPLACEMENT(#1180,#1234);
#1236= IFCCARTESIANPOINT((0.,-28.95,0.));
#1237= IFCAXIS2PLACEMENT3D(#1236,#8,#7);
#1238= IFCEXTRUDEDAREASOLID(#159,#1237,#9,13.2);
#1239= IFCCARTESIANPOINT((0.,-15.75,0.));
#1240= IFCAXIS2PLACEMENT3D(#1239,#8,#7);
#1241= IFCEXTRUDEDAREASOLID(#166,#1240,#9,55.);
#1242= IFCCARTESIANPOINT((0.,5.75,0.));
#1243= IFCAXIS2PLACEMENT3D(#1242,#8,#7);
#1244= IFCEXTRUDEDAREASOLID(#170,#1243,#9,8.);
#1245= IFCCARTESIANPOINT((0.,13.75,0.));
#1246= IFCAXIS2PLACEMENT3D(#1245,#8,#7);
#1247= IFCEXTRUDEDAREASOLID(#159,#1246,#9,16.);
#1248= IFCCARTESIANPOINT((80.,0.,45.));
#1249= IFCCARTESIANTRANSFORMATIONOPERATOR3D($,$,#1248,$,$);
#1250= IFCSHAPEREPRESENTATION(#12,'Body','SweptSolid',(#1238,#1241,#1244,#1247));
#1251= IFCREPRESENTATIONMAP(#10,#1250);
#1252= IFCMAPPEDITEM(#1251,#1249);
#1253= IFCCARTESIANPOINT((150.,0.,45.));
#1254= IFCCARTESIANTRANSFORMATIONOPERATOR3D($,$,#1253,$,$);
#1255= IFCMAPPEDITEM(#1251,#1254);
#1256= IFCCARTESIANPOINT((220.,0.,45.));
#1257= IFCCARTESIANTRANSFORMATIONOPERATOR3D($,$,#1256,$,$);
#1258= IFCMAPPEDITEM(#1251,#1257);
#1259= IFCCARTESIANPOINT((290.,0.,45.));
#1260= IFCCARTESIANTRANSFORMATIONOPERATOR3D($,$,#1259,$,$);
#1261= IFCMAPPEDITEM(#1251,#1260);
#1262= IFCCARTESIANPOINT((360.,0.,45.));
#1263= IFCCARTESIANTRANSFORMATIONOPERATOR3D($,$,#1262,$,$);
#1264= IFCMAPPEDITEM(#1251,#1263);
#1265= IFCSHAPEREPRESENTATION(#12,'Body','MappedRepresentation',(#1252,#1255,#1258,#1261,#1264));
#1266= IFCPOLYLINE((#1236,#195));
#1267= IFCSHAPEREPRESENTATION(#12,'Axis','GeometricCurveSet',(#1266));
#1268= IFCREPRESENTATIONMAP(#10,#1267);
#1269= IFCMAPPEDITEM(#1268,#1249);
#1270= IFCMAPPEDITEM(#1268,#1254);
#1271= IFCMAPPEDITEM(#1268,#1257);
#1272= IFCMAPPEDITEM(#1268,#1260);
#1273= IFCMAPPEDITEM(#1268,#1263);
#1274= IFCSHAPEREPRESENTATION(#12,'Axis','MappedRepresentation',(#1269,#1270,#1271,#1272,#1273));
#1275= IFCPRODUCTDEFINITIONSHAPE($,$,(#1265,#1274));
#1276= IFCMECHANICALFASTENER('1v$eZ7AGT4Uw4MApieAONv',#1171,'Bolt assembly',$,$,#1235,#1275,'ID79fe88c7-2907-447b-a116-2b3b282985f9',20.,55.);
#1277= IFCCARTESIANPOINT((59625.,1597.631,19130.));
#1278= IFCAXIS2PLACEMENT3D(#1277,#7,#149);
#1279= IFCLOCALPLACEMENT(#46,#1278);
#1280= IFCSHAPEREPRESENTATION(#12,'Body','Brep',(#936));
#1281= IFCSHAPEREPRESENTATION(#13,'Axis','GeometricCurveSet',(#271,#274));
#1282= IFCPRODUCTDEFINITIONSHAPE($,$,(#1280,#1281));
#1283= IFCFASTENER('2De6X_7mnAVPd7QpiLrnWw',#1171,'Weld',$,$,#1279,#1282,'ID8da0687e-1f0c-4a7d-99c7-6b3b15d7183a');
#1284= IFCPROPERTYSINGLEVALUE('WeldID',$,IFCINTEGER(93766043),$);
#1285= IFCPROPERTYSET('2dJd1$Y1H5uhebdkEfer63',#5,'AISC_EM11_Pset_Weld','WeldIdentity',(#124,#125,#126,#127,#1284,#942,#130,#131,#280,#133,#943,#944,#136,#137,#138,#139));
#1286= IFCCARTESIANPOINT((59674.9997253418,1592.63122277425,18950.));
#1287= IFCAXIS2PLACEMENT3D(#1286,#9,#58);
#1288= IFCLOCALPLACEMENT(#46,#1287);
#1289= IFCRECTANGLEPROFILEDEF(.AREA.,'PL10*100',#165,10.,100.);
#1290= IFCEXTRUDEDAREASOLID(#1289,#289,#9,360.);
#1291= IFCSHAPEREPRESENTATION(#12,'Body','SweptSolid',(#1290));
#1292= IFCPRODUCTDEFINITIONSHAPE($,$,(#1291));
#1293= IFCDISCRETEACCESSORY('3XAOk3dCTCgBpFdPrkEtbW',#44,'Support section',$,$,#1288,#1292,'1126');
#1294= IFCLOCALPLACEMENT(#46,#1234);
#1295= IFCCARTESIANPOINT((0.,-15.85,0.));
#1296= IFCAXIS2PLACEMENT3D(#1295,#8,#7);
#1297= IFCEXTRUDEDAREASOLID(#953,#1296,#9,10.2);
#1298= IFCSHAPEREPRESENTATION(#12,'Body','SweptSolid',(#1297));
#1299= IFCREPRESENTATIONMAP(#10,#1298);
#1300= IFCMAPPEDITEM(#1299,#1249);
#1301= IFCMAPPEDITEM(#1299,#1254);
#1302= IFCMAPPEDITEM(#1299,#1257);
#1303= IFCMAPPEDITEM(#1299,#1260);
#1304= IFCMAPPEDITEM(#1299,#1263);
#1305= IFCSHAPEREPRESENTATION(#12,'Body','MappedRepresentation',(#1300,#1301,#1302,#1303,#1304));
#1306= IFCPRODUCTDEFINITIONSHAPE($,$,(#1305));
#1307= IFCOPENINGELEMENT('0b3cu8muzE5Q$lm_3zg89x',#5,$,$,'Opening',#1294,#1306,$);
#1308= IFCRELVOIDSELEMENT('2$cNQ7erb1OR5hzjkICdu9',#5,'Drill Hole',$,#1293,#1307);
#1309= IFCPROPERTYSINGLEVALUE('IndicationMark',$,IFCIDENTIFIER('1126'),$);
#1310= IFCPROPERTYSET('0YacwWbKjBpuqOXEKUWPTH',#5,'AISC_EM11_Pset_PieceIdentification','PieceIdentity',(#315,#1309,#317,#318));
#1311= IFCCARTESIANPOINT((59324.9997253418,1603.38122277425,19350.));
#1312= IFCAXIS2PLACEMENT3D(#1311,#57,#58);
#1313= IFCLOCALPLACEMENT(#142,#1312);
#1314= IFCSHAPEREPRESENTATION(#12,'Body','MappedRepresentation',(#737,#738,#739,#740,#741,#742,#743,#744,#745,#746,#747,#748,#749,#750,#751,#752,#753,#754,#755,#756));
#1315= IFCSHAPEREPRESENTATION(#12,'Axis','MappedRepresentation',(#758,#759,#760,#761,#762,#763,#764,#765,#766,#767,#768,#769,#770,#771,#772,#773,#774,#775,#776,#777));
#1316= IFCPRODUCTDEFINITIONSHAPE($,$,(#1314,#1315));
#1317= IFCMECHANICALFASTENER('13K3tPJrT1VOK4CWSEgn_X',#1171,'Bolt assembly',$,$,#1313,#1316,'ID43503dd9-4f57-417d-8504-32070eab1fa1',22.,75.);
#1318= IFCCARTESIANPOINT((59679.9997253418,1603.38122277425,19350.));
#1319= IFCAXIS2PLACEMENT3D(#1318,#8,#7);
#1320= IFCLOCALPLACEMENT(#1180,#1319);
#1321= IFCSHAPEREPRESENTATION(#12,'Body','MappedRepresentation',(#737,#738,#739,#740,#741,#742,#743,#744,#745,#746,#747,#748,#749,#750,#751,#752,#753,#754,#755,#756));
#1322= IFCSHAPEREPRESENTATION(#12,'Axis','MappedRepresentation',(#758,#759,#760,#761,#762,#763,#764,#765,#766,#767,#768,#769,#770,#771,#772,#773,#774,#775,#776,#777));
#1323= IFCPRODUCTDEFINITIONSHAPE($,$,(#1321,#1322));
#1324= IFCMECHANICALFASTENER('2UB_QBlOH2K9mbfPk1VZ$P',#1171,'Bolt assembly',$,$,#1320,#1323,'ID9e2fe68b-bd84-4250-9c25-a59b817e3fd9',22.,75.);
#1325= IFCCARTESIANPOINT((58605.1196740912,1728.38116522339,19359.5));
#1326= IFCAXIS2PLACEMENT3D(#1325,#9,#586);
#1327= IFCLOCALPLACEMENT(#46,#1326);
#1328= IFCCARTESIANPOINT((274.155639648387,796.295288084242));
#1329= IFCCARTESIANPOINT((273.963684081981,996.295166013348));
#1330= IFCPOLYLINE((#164,#589,#1194,#1328,#1329,#1197,#1198,#1199,#1200,#1201,#164));
#1331= IFCARBITRARYCLOSEDPROFILEDEF(.AREA.,'PL19*308',#1330);
#1332= IFCEXTRUDEDAREASOLID(#1331,#641,#9,19.);
#1333= IFCSHAPEREPRESENTATION(#12,'Body','SweptSolid',(#1332));
#1334= IFCPRODUCTDEFINITIONSHAPE($,$,(#1333));
#1335= IFCDISCRETEACCESSORY('3O1Qs3KxvBuurjwHqvNTaG',#141,'Steel plate',$,$,#1327,#1334,'1224');
#1336= IFCLOCALPLACEMENT(#46,#1326);
#1337= IFCCARTESIANPOINT((124.141030624289,894.999587805847,4240.5));
#1338= IFCAXIS2PLACEMENT3D(#1337,#149,#566);
#1339= IFCEXTRUDEDAREASOLID(#647,#1338,#9,9681.);
#1340= IFCCARTESIANPOINT((124.021081874338,1019.99953025507,-5440.5));
#1341= IFCAXIS2PLACEMENT3D(#1340,#9,#567);
#1342= IFCPLANE(#1341);
#1343= IFCHALFSPACESOLID(#1342,.T.);
#1344= IFCBOOLEANCLIPPINGRESULT(.DIFFERENCE.,#1339,#1343);
#1345= IFCSHAPEREPRESENTATION(#12,'Body','Clipping',(#1344));
#1346= IFCPRODUCTDEFINITIONSHAPE($,$,(#1345));
#1347= IFCOPENINGELEMENT('0vju1IchHAxQFhNY0HTOVX',#5,$,$,'Recess',#1336,#1346,$);
#1348= IFCRELVOIDSELEMENT('3PwqBx4pP8YBiTOlnCFm6y',#5,$,$,#1335,#1347);
#1349= IFCLOCALPLACEMENT(#46,#1312);
#1350= IFCSHAPEREPRESENTATION(#12,'Body','MappedRepresentation',(#680,#681,#682,#683,#684,#685,#686,#687,#688,#689,#670,#671,#672,#673,#674,#675,#676,#677,#678,#679));
#1351= IFCPRODUCTDEFINITIONSHAPE($,$,(#1350));
#1352= IFCOPENINGELEMENT('0EE395Oln6FRw_PHlkzYlk',#5,$,$,'Opening',#1349,#1351,$);
#1353= IFCRELVOIDSELEMENT('2jPVxH8OLCTPerD8FUxB6$',#5,'Drill Hole',$,#1335,#1352);
#1354= IFCLOCALPLACEMENT(#46,#1319);
#1355= IFCSHAPEREPRESENTATION(#12,'Body','MappedRepresentation',(#680,#681,#682,#683,#684,#685,#686,#687,#688,#689,#670,#671,#672,#673,#674,#675,#676,#677,#678,#679));
#1356= IFCPRODUCTDEFINITIONSHAPE($,$,(#1355));
#1357= IFCOPENINGELEMENT('02UaRHyk9378XKWsr4jx7H',#5,$,$,'Opening',#1354,#1356,$);
#1358= IFCRELVOIDSELEMENT('0X3lx2sAL2sfGfiqsb1yPi',#5,'Drill Hole',$,#1335,#1357);
#1359= IFCPROPERTYSINGLEVALUE('IndicationMark',$,IFCIDENTIFIER('1224'),$);
#1360= IFCPROPERTYSET('23Y_KZ1P10tvE14rfAieOt',#5,'AISC_EM11_Pset_PieceIdentification','PieceIdentity',(#723,#1359,#317,#318));
#1361= IFCOWNERHISTORY(#3,#4,$,.NOCHANGE.,$,$,$,1772823600);
#1362= IFCLOCALPLACEMENT(#42,#10);
#1363= IFCELEMENTASSEMBLY('04DJyBaknBxBkkg7B$OcDx',#141,'PLATE',$,$,#1362,$,'A/51',.NOTDEFINED.,.RIGID_FRAME.);
#1364= IFCPROPERTYSINGLEVALUE('AssemblyMark',$,IFCIDENTIFIER('A/51'),$);
#1365= IFCPROPERTYSET('0Z6Gc0XnjBRhxNNEoev_DA',#5,'AISC_EM11_Pset_AssemblyIdentification','AssemblyIdentity',(#1364,#53,#54));
#1366= IFCCARTESIANPOINT((59499.9997253418,1418.37864089966,13900.));
#1367= IFCAXIS2PLACEMENT3D(#1366,#7,#57);
#1368= IFCLOCALPLACEMENT(#1362,#1367);
#1369= IFCCARTESIANPOINT((0.,-32.2000000000007,0.));
#1370= IFCAXIS2PLACEMENT3D(#1369,#8,#7);
#1371= IFCEXTRUDEDAREASOLID(#159,#1370,#9,13.2);
#1372= IFCEXTRUDEDAREASOLID(#166,#363,#9,70.);
#1373= IFCEXTRUDEDAREASOLID(#170,#730,#9,8.);
#1374= IFCEXTRUDEDAREASOLID(#159,#733,#9,16.);
#1375= IFCSHAPEREPRESENTATION(#12,'Body','SweptSolid',(#1371,#1372,#1373,#1374));
#1376= IFCREPRESENTATIONMAP(#10,#1375);
#1377= IFCMAPPEDITEM(#1376,#381);
#1378= IFCMAPPEDITEM(#1376,#413);
#1379= IFCSHAPEREPRESENTATION(#12,'Body','MappedRepresentation',(#1377,#1378));
#1380= IFCCARTESIANPOINT((0.,70.,0.));
#1381= IFCPOLYLINE((#1369,#1380));
#1382= IFCSHAPEREPRESENTATION(#12,'Axis','GeometricCurveSet',(#1381));
#1383= IFCREPRESENTATIONMAP(#10,#1382);
#1384= IFCMAPPEDITEM(#1383,#381);
#1385= IFCMAPPEDITEM(#1383,#413);
#1386= IFCSHAPEREPRESENTATION(#12,'Axis','MappedRepresentation',(#1384,#1385));
#1387= IFCPRODUCTDEFINITIONSHAPE($,$,(#1379,#1386));
#1388= IFCMECHANICALFASTENER('0n5avVPj55QeuqmHf54qQL',#1361,'Bolt assembly',$,$,#1368,#1387,'ID31164e5f-66d1-456a-8e34-c11a45134695',20.,70.);
#1389= IFCPROPERTYSINGLEVALUE('BoltLength',$,IFCPOSITIVELENGTHMEASURE(70.),$);
#1390= IFCPROPERTYSET('3WYD_i8w5EXBW7htcP5bNF',#5,'AISC_EM11_Pset_Bolt','BoltIdentity',(#207,#208,#209,#1389,#472,#473));
#1391= IFCOWNERHISTORY(#3,#4,$,.NOCHANGE.,$,$,$,1772654400);
#1392= IFCCARTESIANPOINT((59499.9997253418,1788.38135910034,13900.));
#1393= IFCAXIS2PLACEMENT3D(#1392,#58,#8);
#1394= IFCLOCALPLACEMENT(#1362,#1393);
#1395= IFCSHAPEREPRESENTATION(#12,'Body','MappedRepresentation',(#1378,#1377));
#1396= IFCSHAPEREPRESENTATION(#12,'Axis','MappedRepresentation',(#1385,#1384));
#1397= IFCPRODUCTDEFINITIONSHAPE($,$,(#1395,#1396));
#1398= IFCMECHANICALFASTENER('0rCaZFXS5D48WhsaYCsqJc',#1391,'Bolt assembly',$,$,#1394,#1397,'ID353248cf-85c1-4d10-882b-da488cdb44e6',20.,70.);
#1399= IFCCARTESIANPOINT((59499.9997253418,1728.38135910034,13919.));
#1400= IFCAXIS2PLACEMENT3D(#1399,#57,#58);
#1401= IFCLOCALPLACEMENT(#46,#1400);
#1402= IFCCARTESIANPOINT((125.,0.,250.));
#1403= IFCCARTESIANPOINT((125.,-8.48528137423818,250.));
#1404= IFCCARTESIANPOINT((-125.,-8.48528137423818,250.));
#1405= IFCCARTESIANPOINT((-125.,0.,250.));
#1406= IFCPOLYLOOP((#1402,#1403,#1404,#1405));
#1407= IFCFACEOUTERBOUND(#1406,.T.);
#1408= IFCFACE((#1407));
#1409= IFCCARTESIANPOINT((133.48528137424,0.,258.485281374239));
#1410= IFCCARTESIANPOINT((-133.48528137424,0.,258.485281374239));
#1411= IFCPOLYLOOP((#1403,#1409,#1410,#1404));
#1412= IFCFACEOUTERBOUND(#1411,.T.);
#1413= IFCFACE((#1412));
#1414= IFCPOLYLOOP((#1409,#1402,#1405,#1410));
#1415= IFCFACEOUTERBOUND(#1414,.T.);
#1416= IFCFACE((#1415));
#1417= IFCCARTESIANPOINT((125.,0.,0.));
#1418= IFCCARTESIANPOINT((125.,-8.48528137423818,0.));
#1419= IFCPOLYLOOP((#1417,#1418,#1403,#1402));
#1420= IFCFACEOUTERBOUND(#1419,.T.);
#1421= IFCFACE((#1420));
#1422= IFCCARTESIANPOINT((133.48528137424,0.,-8.48528137423864));
#1423= IFCPOLYLOOP((#1418,#1422,#1409,#1403));
#1424= IFCFACEOUTERBOUND(#1423,.T.);
#1425= IFCFACE((#1424));
#1426= IFCPOLYLOOP((#1422,#1417,#1402,#1409));
#1427= IFCFACEOUTERBOUND(#1426,.T.);
#1428= IFCFACE((#1427));
#1429= IFCCARTESIANPOINT((-125.,0.,0.));
#1430= IFCCARTESIANPOINT((-125.,-8.48528137423818,0.));
#1431= IFCPOLYLOOP((#1429,#1430,#1418,#1417));
#1432= IFCFACEOUTERBOUND(#1431,.T.);
#1433= IFCFACE((#1432));
#1434= IFCCARTESIANPOINT((-133.48528137424,0.,-8.48528137423864));
#1435= IFCPOLYLOOP((#1430,#1434,#1422,#1418));
#1436= IFCFACEOUTERBOUND(#1435,.T.);
#1437= IFCFACE((#1436));
#1438= IFCPOLYLOOP((#1434,#1429,#1417,#1422));
#1439= IFCFACEOUTERBOUND(#1438,.T.);
#1440= IFCFACE((#1439));
#1441= IFCPOLYLOOP((#1405,#1404,#1430,#1429));
#1442= IFCFACEOUTERBOUND(#1441,.T.);
#1443= IFCFACE((#1442));
#1444= IFCPOLYLOOP((#1404,#1410,#1434,#1430));
#1445= IFCFACEOUTERBOUND(#1444,.T.);
#1446= IFCFACE((#1445));
#1447= IFCPOLYLOOP((#1410,#1405,#1429,#1434));
#1448= IFCFACEOUTERBOUND(#1447,.T.);
#1449= IFCFACE((#1448));
#1450= IFCPOLYLOOP((#1410,#1405,#1404));
#1451= IFCFACEOUTERBOUND(#1450,.T.);
#1452= IFCFACE((#1451));
#1453= IFCPOLYLOOP((#1410,#1404,#1405));
#1454= IFCFACEOUTERBOUND(#1453,.T.);
#1455= IFCFACE((#1454));
#1456= IFCCLOSEDSHELL((#1408,#1413,#1416,#1421,#1425,#1428,#1433,#1437,#1440,#1443,#1446,#1449,#1452,#1455));
#1457= IFCFACETEDBREP(#1456);
#1458= IFCSHAPEREPRESENTATION(#12,'Body','Brep',(#1457));
#1459= IFCCARTESIANPOINT((-125.,250.,0.));
#1460= IFCCARTESIANPOINT((125.,250.,0.));
#1461= IFCPOLYLINE((#1459,#1429,#1417,#1460,#1459));
#1462= IFCSHAPEREPRESENTATION(#13,'Axis','GeometricCurveSet',(#1461));
#1463= IFCPRODUCTDEFINITIONSHAPE($,$,(#1458,#1462));
#1464= IFCFASTENER('1n2cHNpJn4pPRqKRQHhKiZ',#1391,'Weld',$,$,#1401,#1463,'ID710a6457-cd3c-44cd-96f4-51b691ad4b23');
#1465= IFCPROPERTYSINGLEVALUE('WeldID',$,IFCINTEGER(93170605),$);
#1466= IFCPROPERTYSINGLEVALUE('l',$,IFCPOSITIVELENGTHMEASURE(1000.),$);
#1467= IFCPROPERTYSET('0jVD84_$r0HupwnBvC396G',#5,'AISC_EM11_Pset_Weld','WeldIdentity',(#124,#125,#126,#127,#1465,#129,#130,#131,#1466,#133,#134,#135,#136,#137,#138,#139));
#1468= IFCLOCALPLACEMENT(#42,#10);
#1469= IFCELEMENTASSEMBLY('0185j3ekf9EB07NVHe4WgS',#141,'BEAM',$,$,#1468,$,'B/991',.NOTDEFINED.,.RIGID_FRAME.);
#1470= IFCPROPERTYSINGLEVALUE('AssemblyMark',$,IFCIDENTIFIER('B/991'),$);
#1471= IFCPROPERTYSET('1nlarX0e19QPd$03pySkKs',#5,'AISC_EM11_Pset_AssemblyIdentification','AssemblyIdentity',(#1470,#53,#54));
#1472= IFCCARTESIANPOINT((59299.9541938867,1603.38122277425,13900.));
#1473= IFCAXIS2PLACEMENT3D(#1472,#57,#58);
#1474= IFCLOCALPLACEMENT(#1468,#1473);
#1475= IFCEXTRUDEDAREASOLID(#166,#363,#9,65.);
#1476= IFCEXTRUDEDAREASOLID(#170,#488,#9,8.);
#1477= IFCEXTRUDEDAREASOLID(#159,#491,#9,16.);
#1478= IFCSHAPEREPRESENTATION(#12,'Body','SweptSolid',(#1371,#1475,#1476,#1477));
#1479= IFCREPRESENTATIONMAP(#10,#1478);
#1480= IFCMAPPEDITEM(#1479,#494);
#1481= IFCMAPPEDITEM(#1479,#499);
#1482= IFCMAPPEDITEM(#1479,#502);
#1483= IFCMAPPEDITEM(#1479,#505);
#1484= IFCMAPPEDITEM(#1479,#508);
#1485= IFCMAPPEDITEM(#1479,#511);
#1486= IFCMAPPEDITEM(#1479,#514);
#1487= IFCMAPPEDITEM(#1479,#517);
#1488= IFCMAPPEDITEM(#1479,#520);
#1489= IFCMAPPEDITEM(#1479,#523);
#1490= IFCMAPPEDITEM(#1479,#526);
#1491= IFCMAPPEDITEM(#1479,#529);
#1492= IFCMAPPEDITEM(#1479,#532);
#1493= IFCMAPPEDITEM(#1479,#535);
#1494= IFCSHAPEREPRESENTATION(#12,'Body','MappedRepresentation',(#1480,#1481,#1482,#1483,#1484,#1485,#1486,#1487,#1488,#1489,#1490,#1491,#1492,#1493));
#1495= IFCCARTESIANPOINT((0.,65.,0.));
#1496= IFCPOLYLINE((#1369,#1495));
#1497= IFCSHAPEREPRESENTATION(#12,'Axis','GeometricCurveSet',(#1496));
#1498= IFCREPRESENTATIONMAP(#10,#1497);
#1499= IFCMAPPEDITEM(#1498,#494);
#1500= IFCMAPPEDITEM(#1498,#499);
#1501= IFCMAPPEDITEM(#1498,#502);
#1502= IFCMAPPEDITEM(#1498,#505);
#1503= IFCMAPPEDITEM(#1498,#508);
#1504= IFCMAPPEDITEM(#1498,#511);
#1505= IFCMAPPEDITEM(#1498,#514);
#1506= IFCMAPPEDITEM(#1498,#517);
#1507= IFCMAPPEDITEM(#1498,#520);
#1508= IFCMAPPEDITEM(#1498,#523);
#1509= IFCMAPPEDITEM(#1498,#526);
#1510= IFCMAPPEDITEM(#1498,#529);
#1511= IFCMAPPEDITEM(#1498,#532);
#1512= IFCMAPPEDITEM(#1498,#535);
#1513= IFCSHAPEREPRESENTATION(#12,'Axis','MappedRepresentation',(#1499,#1500,#1501,#1502,#1503,#1504,#1505,#1506,#1507,#1508,#1509,#1510,#1511,#1512));
#1514= IFCPRODUCTDEFINITIONSHAPE($,$,(#1494,#1513));
#1515= IFCMECHANICALFASTENER('0zXCgapxb5Cv9uasuxMaNF',#1391,'Bolt assembly',$,$,#1474,#1514,'ID3d84caa4-cfb9-4533-9278-936e3b5a45cf',20.,65.);
#1516= IFCPROPERTYSINGLEVALUE('BoltLength',$,IFCPOSITIVELENGTHMEASURE(65.),$);
#1517= IFCPROPERTYSET('1IV75N46X0k9FwuZ5ym48N',#5,'AISC_EM11_Pset_Bolt','BoltIdentity',(#207,#208,#209,#1516,#472,#473));
#1518= IFCLOCALPLACEMENT(#42,#10);
#1519= IFCELEMENTASSEMBLY('2xFa2f_dLA3ONEcND5AohD',#141,'BEAM',$,$,#1518,$,'B/38',.NOTDEFINED.,.RIGID_FRAME.);
#1520= IFCPROPERTYSINGLEVALUE('AssemblyMark',$,IFCIDENTIFIER('B/38'),$);
#1521= IFCPROPERTYSET('37GmjGefX2TBQdDJQ4VH8E',#5,'AISC_EM11_Pset_AssemblyIdentification','AssemblyIdentity',(#1520,#53,#54));
#1522= IFCCARTESIANPOINT((59700.0458061133,1603.38122277425,13900.));
#1523= IFCAXIS2PLACEMENT3D(#1522,#8,#7);
#1524= IFCLOCALPLACEMENT(#1518,#1523);
#1525= IFCSHAPEREPRESENTATION(#12,'Body','MappedRepresentation',(#1480,#1481,#1482,#1483,#1484,#1485,#1486,#1487,#1488,#1489,#1490,#1491,#1492,#1493));
#1526= IFCSHAPEREPRESENTATION(#12,'Axis','MappedRepresentation',(#1499,#1500,#1501,#1502,#1503,#1504,#1505,#1506,#1507,#1508,#1509,#1510,#1511,#1512));
#1527= IFCPRODUCTDEFINITIONSHAPE($,$,(#1525,#1526));
#1528= IFCMECHANICALFASTENER('3h78pq_zn6fQB1rj39x6sV',#1391,'Bolt assembly',$,$,#1524,#1527,'IDeb1c8cf4-fbdc-46a5-a2c1-d6d0c9ec6d9f',20.,65.);
#1529= IFCCARTESIANPOINT((58840.1816242816,1697.88185246009,13909.5));
#1530= IFCAXIS2PLACEMENT3D(#1529,#9,#586);
#1531= IFCLOCALPLACEMENT(#46,#1530);
#1532= IFCCARTESIANPOINT((189.999999999964,4.29281499236822E-10));
#1533= IFCCARTESIANPOINT((344.011108398373,510.148437499302));
#1534= IFCCARTESIANPOINT((343.72323608392,810.148315428109));
#1535= IFCCARTESIANPOINT((188.73333740231,1320.00195312158));
#1536= IFCCARTESIANPOINT((-3.53127312659967,1319.63305663678));
#1537= IFCCARTESIANPOINT((-156.276535034149,809.668518063692));
#1538= IFCCARTESIANPOINT((-155.988647460907,509.668640134885));
#1539= IFCPOLYLINE((#164,#1532,#1533,#1534,#1535,#1536,#1537,#1538,#164));
#1540= IFCARBITRARYCLOSEDPROFILEDEF(.AREA.,'PL19*567',#1539);
#1541= IFCEXTRUDEDAREASOLID(#1540,#641,#9,19.);
#1542= IFCSHAPEREPRESENTATION(#12,'Body','SweptSolid',(#1541));
#1543= IFCPRODUCTDEFINITIONSHAPE($,$,(#1542));
#1544= IFCDISCRETEACCESSORY('1D8Y$G3zr5twFgqj$zuGlq',#44,'Steel plate',$,$,#1531,#1543,'1116');
#1545= IFCLOCALPLACEMENT(#46,#1367);
#1546= IFCEXTRUDEDAREASOLID(#953,#666,#9,19.2);
#1547= IFCSHAPEREPRESENTATION(#12,'Body','SweptSolid',(#1546));
#1548= IFCREPRESENTATIONMAP(#10,#1547);
#1549= IFCMAPPEDITEM(#1548,#381);
#1550= IFCMAPPEDITEM(#1548,#413);
#1551= IFCSHAPEREPRESENTATION(#12,'Body','MappedRepresentation',(#1549,#1550));
#1552= IFCPRODUCTDEFINITIONSHAPE($,$,(#1551));
#1553= IFCOPENINGELEMENT('34M4$sJOH4sf6SV90pi7U5',#5,$,$,'Opening',#1545,#1552,$);
#1554= IFCRELVOIDSELEMENT('1XCXhVP6fAEPkxzn1W9l5n',#5,'Drill Hole',$,#1544,#1553);
#1555= IFCLOCALPLACEMENT(#46,#1393);
#1556= IFCSHAPEREPRESENTATION(#12,'Body','MappedRepresentation',(#1550,#1549));
#1557= IFCPRODUCTDEFINITIONSHAPE($,$,(#1556));
#1558= IFCOPENINGELEMENT('2VfctM9fj5JwdRI9nkqh1I',#5,$,$,'Opening',#1555,#1557,$);
#1559= IFCRELVOIDSELEMENT('26eOwpZeL6ZRV7LoZN7QxF',#5,'Drill Hole',$,#1544,#1558);
#1560= IFCLOCALPLACEMENT(#46,#1473);
#1561= IFCMAPPEDITEM(#1548,#494);
#1562= IFCMAPPEDITEM(#1548,#499);
#1563= IFCMAPPEDITEM(#1548,#502);
#1564= IFCMAPPEDITEM(#1548,#505);
#1565= IFCMAPPEDITEM(#1548,#508);
#1566= IFCMAPPEDITEM(#1548,#511);
#1567= IFCMAPPEDITEM(#1548,#514);
#1568= IFCMAPPEDITEM(#1548,#517);
#1569= IFCMAPPEDITEM(#1548,#520);
#1570= IFCMAPPEDITEM(#1548,#523);
#1571= IFCMAPPEDITEM(#1548,#526);
#1572= IFCMAPPEDITEM(#1548,#529);
#1573= IFCMAPPEDITEM(#1548,#532);
#1574= IFCMAPPEDITEM(#1548,#535);
#1575= IFCSHAPEREPRESENTATION(#12,'Body','MappedRepresentation',(#1561,#1562,#1563,#1564,#1565,#1566,#1567,#1568,#1569,#1570,#1571,#1572,#1573,#1574));
#1576= IFCPRODUCTDEFINITIONSHAPE($,$,(#1575));
#1577= IFCOPENINGELEMENT('0fUtwNGXX5k8WNDKGyo703',#5,$,$,'Opening',#1560,#1576,$);
#1578= IFCRELVOIDSELEMENT('37a9TxhF58V998zRetSoVB',#5,'Drill Hole',$,#1544,#1577);
#1579= IFCLOCALPLACEMENT(#46,#1523);
#1580= IFCSHAPEREPRESENTATION(#12,'Body','MappedRepresentation',(#1561,#1562,#1563,#1564,#1565,#1566,#1567,#1568,#1569,#1570,#1571,#1572,#1573,#1574));
#1581= IFCPRODUCTDEFINITIONSHAPE($,$,(#1580));
#1582= IFCOPENINGELEMENT('3r0TQaiWLAUPnx1WcUFwoR',#5,$,$,'Opening',#1579,#1581,$);
#1583= IFCRELVOIDSELEMENT('3fI1TNeID5HALt1pUgaPv2',#5,'Drill Hole',$,#1544,#1582);
#1584= IFCPROPERTYSINGLEVALUE('IndicationMark',$,IFCIDENTIFIER('1116'),$);
#1585= IFCPROPERTYSET('1skMkLP5P4aADvdjO5bOVV',#5,'AISC_EM11_Pset_PieceIdentification','PieceIdentity',(#723,#1584,#317,#318));
#1586= IFCLOCALPLACEMENT(#46,#325);
#1587= IFCRECTANGLEHOLLOWPROFILEDEF(.AREA.,'[]250*8',#165,250.,250.,8.,8.,16.);
#1588= IFCEXTRUDEDAREASOLID(#1587,#329,#9,9731.);
#1589= IFCPLANE(#332);
#1590= IFCHALFSPACESOLID(#1589,.T.);
#1591= IFCBOOLEANCLIPPINGRESULT(.DIFFERENCE.,#1588,#1590);
#1592= IFCSHAPEREPRESENTATION(#12,'Body','Clipping',(#1591));
#1593= IFCPRODUCTDEFINITIONSHAPE($,$,(#1592));
#1594= IFCCOLUMN('3FrWyipFTAC9CGb4IRGLLD',#141,'main piece','[]250*8','[]250*8',#1586,#1593,'c/3');
#1595= IFCPROPERTYSINGLEVALUE('IndicationMark',$,IFCIDENTIFIER('c/3'),$);
#1596= IFCPROPERTYSINGLEVALUE('MainPieceTag',$,IFCBOOLEAN(.T.),$);
#1597= IFCPROPERTYSET('0oIuOwsXHE4QpY9pU6pCtd',#5,'AISC_EM11_Pset_PieceIdentification','PieceIdentity',(#339,#1595,#317,#1596));
#1598= IFCPROPERTYSINGLEVALUE('SkewedAngleY',$,IFCREAL(0.),$);
#1599= IFCPROPERTYSINGLEVALUE('SkewedAngleX',$,IFCREAL(0.),$);
#1600= IFCPROPERTYSET('1mq3CeztjC09rfwkHOY0ob',#5,'AISC_EM11_Pset_SkewedEnd',$,(#1598,#1599));
#1601= IFCPROPERTYSET('1Zl4g5AK98Sh_xaj5aezcx',#5,'AISC_EM11_Pset_SkewedEnd_2',$,(#1598,#1599));
#1602= IFCRELAGGREGATES('06FnrraZnAAxzIASpInoBW',#5,$,$,#37,(#39));
#1603= IFCRELAGGREGATES('2OX377sr3SSDFaSk5a34To',#5,$,$,#39,(#41));
#1604= IFCRELAGGREGATES('0wR2BQ7r5BHBRjBGTH3oI2',#5,$,$,#41,(#43));
#1605= IFCRELAGGREGATES('3go0e$305A_Px8yz_KCKvn',#5,$,$,#47,(#1594,#1544,#1464,#1335,#1293,#1283,#1207,#1155,#1147,#1097,#1089,#1040,#1032,#991,#983,#951,#940,#813,#645,#338,#293,#277,#123));
#1606= IFCRELAGGREGATES('0gpShOdTz8r9ef73NeaE7C',#5,$,$,#143,(#1317,#1178,#206));
#1607= IFCRELAGGREGATES('3W$HUD7rz9U9gVQTA8kFQz',#5,$,$,#343,(#1024,#780,#469));
#1608= IFCRELAGGREGATES('30Dh$iFxnAwPmyIDcXqUPx',#5,$,$,#480,(#1081,#787,#558));
#1609= IFCRELAGGREGATES('3K49SnwrHBvgm_1BE5RHPd',#5,$,$,#562,(#976,#795,#573));
#1610= IFCRELAGGREGATES('0nwyHUWBfDvPiUD0a6bUPL',#5,$,$,#575,(#891,#802,#584));
#1611= IFCRELAGGREGATES('0QIAYse2zF_eutmR8oOI1H',#5,$,$,#1104,(#1140));
#1612= IFCRELAGGREGATES('3EY2fsFeXE4xPaISGP0y2n',#5,$,$,#1181,(#1324,#1276,#1190));
#1613= IFCRELAGGREGATES('0IBxkDbrjFHPYS4m0mI9d6',#5,$,$,#1363,(#1398,#1388));
#1614= IFCRELAGGREGATES('2z3xw_K6X42wdDqEwwbWNV',#5,$,$,#1469,(#1515));
#1615= IFCRELAGGREGATES('0NsDEUqT1FpeqHBpJwSmQm',#5,$,$,#1519,(#1528));
#1616= IFCRELCONTAINEDINSPATIALSTRUCTURE('2f3SC2UBL4eOoqVF6URgAg',#5,$,$,(#1519,#1469,#1363,#1181,#1104,#575,#562,#480,#343,#143,#47),#43);
#1617= IFCRELCONNECTSWITHREALIZINGELEMENTS('38IjEqten3qvwNTng8aUci',#5,$,$,$,#1594,#1544,(#1464),$);
#1618= IFCRELCONNECTSWITHREALIZINGELEMENTS('2JR8XY0z929Qk6WOWk6VrB',#5,$,$,$,#1594,#1293,(#1283),$);
#1619= IFCRELCONNECTSWITHREALIZINGELEMENTS('0EBo3BSDb0UxpUJ5S0$_xA',#5,$,$,$,#1594,#1155,(#1147),$);
#1620= IFCRELCONNECTSWITHREALIZINGELEMENTS('0RcXC6honEXxD03q2nzXWl',#5,$,$,$,#1594,#1097,(#1089),$);
#1621= IFCRELCONNECTSWITHREALIZINGELEMENTS('2SifKl_YjDt8WavcZ_a87J',#5,$,$,$,#1594,#1040,(#1032),$);
#1622= IFCRELCONNECTSWITHREALIZINGELEMENTS('0zb$6zwRDFC9QHoXcolfzp',#5,$,$,$,#1594,#991,(#983),$);
#1623= IFCRELCONNECTSWITHREALIZINGELEMENTS('0bjP$x1G1CaQ0vMjFQRBqg',#5,$,$,$,#1594,#951,(#940),$);
#1624= IFCRELCONNECTSWITHREALIZINGELEMENTS('3McZ2oTs53cxxtyiiNV0j1',#5,$,$,$,#338,#293,(#277),$);
#1625= IFCRELCONNECTSWITHREALIZINGELEMENTS('1cZUJ3JRnF2PBNL56AIhuZ',#5,$,$,$,#338,#1544,(#123),$);
#1626= IFCRELDEFINESBYPROPERTIES('1R7nF2cHn2IeQLNxGHkT9u',#5,$,$,(#1519,#1469,#1363,#1181,#1104,#575,#562,#480,#343,#143,#47),#49);
#1627= IFCRELDEFINESBYPROPERTIES('2IuNwoJ1L4K9S7xgbOZBzI',#5,$,$,(#47),#51);
#1628= IFCRELDEFINESBYPROPERTIES('3Vfbil$mnDsAw9lreWSA7A',#5,$,$,(#47),#55);
#1629= IFCRELDEFINESBYPROPERTIES('1Bpg0FVsH99xZSUL6G04jb',#5,$,$,(#123),#140);
#1630= IFCRELDEFINESBYPROPERTIES('3rRju2gvT7t8yxCQX2LBbb',#5,$,$,(#1519,#1469,#1363,#1181,#1104,#575,#562,#480,#343,#143),#145);
#1631= IFCRELDEFINESBYPROPERTIES('2R89OKbcTDiOdiwh0Hudp5',#5,$,$,(#143),#147);
#1632= IFCRELDEFINESBYPROPERTIES('3rGddcUQ53X9eWUSxDa_VR',#5,$,$,(#1276,#206),#213);
#1633= IFCRELDEFINESBYPROPERTIES('0nZmCbsAj7cAtxP2wMssFt',#5,$,$,(#1528,#1515,#1398,#1388,#1276,#1140,#1081,#1024,#976,#891,#206),#216);
#1634= IFCRELDEFINESBYPROPERTIES('24nbAzPt11UPuMYf8Zdw0T',#5,$,$,(#1528,#1515,#1398,#1388,#1276,#1140,#1081,#1024,#976,#891,#206),#221);
#1635= IFCRELDEFINESBYPROPERTIES('1VYMRxSSnCC8lJU_umlxTC',#5,$,$,(#277),#283);
#1636= IFCRELDEFINESBYPROPERTIES('1wZs2hAf94uwEHFrP1u_WV',#5,$,$,(#1582,#1577,#1558,#1553,#1357,#1352,#1307,#1229,#1224,#1169,#1101,#1052,#995,#966,#845,#840,#835,#830,#721,#716,#711,#692,#308),#314);
#1637= IFCRELDEFINESBYPROPERTIES('16eDa6p49A09iQ5Urllg8G',#5,$,$,(#293),#319);
#1638= IFCRELDEFINESBYPROPERTIES('2ongWvQJv9_fWI4pMxhlIB',#5,$,$,(#1594,#1544,#1335,#1293,#1207,#1155,#1097,#1040,#991,#951,#813,#645,#338,#293),#322);
#1639= IFCRELDEFINESBYPROPERTIES('2ynamS7VP7ouMwFlt1j2oB',#5,$,$,(#338),#341);
#1640= IFCRELDEFINESBYPROPERTIES('2b0PAUXo96rPz3lXb_Fhat',#5,$,$,(#343),#345);
#1641= IFCRELDEFINESBYPROPERTIES('0HP825T2j6hPc1Osc3eLFI',#5,$,$,(#469),#474);
#1642= IFCRELDEFINESBYPROPERTIES('0dSUh0UK9CjenwiTuX$aZv',#5,$,$,(#1324,#1317,#1190,#1178,#802,#795,#787,#780,#584,#573,#558,#469),#476);
#1643= IFCRELDEFINESBYPROPERTIES('0vVLOAI6bFSvykvAgQQAdY',#5,$,$,(#1324,#1317,#1190,#1178,#802,#795,#787,#780,#584,#573,#558,#469),#478);
#1644= IFCRELDEFINESBYPROPERTIES('1ipVF$Y6r9fBTIlnU2sib_',#5,$,$,(#480),#482);
#1645= IFCRELDEFINESBYPROPERTIES('0oJqy5f7XFGPiGTLPOIfP2',#5,$,$,(#1324,#1317,#1190,#1178,#802,#795,#787,#780,#584,#573,#558),#560);
#1646= IFCRELDEFINESBYPROPERTIES('2V1H3ARz562ukogGGDnGf$',#5,$,$,(#562),#564);
#1647= IFCRELDEFINESBYPROPERTIES('1V$B3Vwvj78OGH0tW3dBxv',#5,$,$,(#575),#577);
#1648= IFCRELDEFINESBYPROPERTIES('2KxiMgBoPCjOLtdtFYRbNX',#5,$,$,(#1347,#1219,#825,#658),#662);
#1649= IFCRELDEFINESBYPROPERTIES('3HxVGQlUzEru_j$dxPuVYN',#5,$,$,(#813,#645),#725);
#1650= IFCRELDEFINESBYPROPERTIES('2kxKT8sk5AnPo6Sq48SB14',#5,$,$,(#976,#891),#893);
#1651= IFCRELDEFINESBYPROPERTIES('2it_JLbMH4pQVKcoe8h7nv',#5,$,$,(#940),#945);
#1652= IFCRELDEFINESBYPROPERTIES('0t5IBNzPP1d9u6EfQIBr7N',#5,$,$,(#1155,#1097,#1040,#991,#951),#969);
#1653= IFCRELDEFINESBYPROPERTIES('2qL1NvXmXCog8rubWlEKIo',#5,$,$,(#983),#985);
#1654= IFCRELDEFINESBYPROPERTIES('2hDEaFFTjDn8xHVwQZV5Od',#5,$,$,(#1024),#1025);
#1655= IFCRELDEFINESBYPROPERTIES('3BSxLZwqHC$OMghDnMbvtG',#5,$,$,(#1032),#1034);
#1656= IFCRELDEFINESBYPROPERTIES('2p1hruJULBWurGO8rPtDh7',#5,$,$,(#1140,#1081),#1082);
#1657= IFCRELDEFINESBYPROPERTIES('3lWPmd8lj8Y9JkG$xx2O8m',#5,$,$,(#1089),#1091);
#1658= IFCRELDEFINESBYPROPERTIES('3JD8uAFyDDlx9fTjig8XY9',#5,$,$,(#1104),#1106);
#1659= IFCRELDEFINESBYPROPERTIES('0wr_ziI8DDHAGv40RKYMAU',#5,$,$,(#1147),#1149);
#1660= IFCRELDEFINESBYPROPERTIES('34DdR2vU9ByPawUhkZ3jzH',#5,$,$,(#1181),#1183);
#1661= IFCRELDEFINESBYPROPERTIES('0tZDP5zH57fQKftBEjQVb_',#5,$,$,(#1207),#1232);
#1662= IFCRELDEFINESBYPROPERTIES('1MzpBAokP0EOBy$snvmSpM',#5,$,$,(#1283),#1285);
#1663= IFCRELDEFINESBYPROPERTIES('2_uqV6TK5DFg5_Ffgbmqj6',#5,$,$,(#1293),#1310);
#1664= IFCRELDEFINESBYPROPERTIES('2o$x1vo5PBaODLIxEZsB5g',#5,$,$,(#1335),#1360);
#1665= IFCRELDEFINESBYPROPERTIES('1kly8o6UjECOYA2weuxaut',#5,$,$,(#1363),#1365);
#1666= IFCRELDEFINESBYPROPERTIES('22J8UKE1X0a9hdGG_4FnPz',#5,$,$,(#1398,#1388),#1390);
#1667= IFCRELDEFINESBYPROPERTIES('24Vd711Hj0R85DlINt4fBO',#5,$,$,(#1464),#1467);
#1668= IFCRELDEFINESBYPROPERTIES('3cmHU0hsL408yk9cO_XkAR',#5,$,$,(#1469),#1471);
#1669= IFCRELDEFINESBYPROPERTIES('3kT5pKGMX7s8t23uI2pOaM',#5,$,$,(#1528,#1515),#1517);
#1670= IFCRELDEFINESBYPROPERTIES('0XpfFHgyTEYvKybJtRkV4h',#5,$,$,(#1519),#1521);
#1671= IFCRELDEFINESBYPROPERTIES('0ZVMYnha984RJYdC4lOPuB',#5,$,$,(#1544),#1585);
#1672= IFCRELDEFINESBYPROPERTIES('0xEhpem3f1LxHVP5HsqILD',#5,$,$,(#1594),#1597);
#1673= IFCRELDEFINESBYPROPERTIES('0tL7Zl0EP7eP9h9LZMdfAX',#5,$,$,(#1594),#1600);
#1674= IFCRELDEFINESBYPROPERTIES('3O1ECoOL52UPlEWBRqBwkX',#5,$,$,(#1594),#1601);
#1675= IFCRELASSOCIATESMATERIAL('1BTACyrcX64eWCZDtgRNm5',#5,$,$,(#1528,#1515,#1398,#1388,#1324,#1317,#1276,#1190,#1178,#1140,#1081,#1024,#976,#891,#802,#795,#787,#780,#584,#573,#558,#469,#206),#222);
#1676= IFCRELASSOCIATESMATERIAL('0c3hXeoCb2Px7b73EIMSXv',#5,$,$,(#1594,#1544,#1335,#1293,#1207,#1155,#1097,#1040,#991,#951,#813,#645,#338,#293),#323);
ENDSEC;

END-ISO-10303-21;
